<?xml version="1.0" encoding="utf-8"?>
<!-- Generator: Adobe Illustrator 24.3.0, SVG Export Plug-In . SVG Version: 6.00 Build 0)  -->
<svg version="1.1" id="Layer_1" xmlns="http://www.w3.org/2000/svg" xmlns:xlink="http://www.w3.org/1999/xlink" x="0px" y="0px"
	 viewBox="0 0 694.5 368.5" style="enable-background:new 0 0 694.5 368.5;" xml:space="preserve">
<style type="text/css">
	.st0{fill:none;stroke:#000000;stroke-width:1.000000e-03;stroke-linecap:round;stroke-linejoin:round;stroke-miterlimit:10;}
</style>
<g id="LINE_1_">
	<line class="st0" x1="276.4" y1="146" x2="276.4" y2="177.2"/>
</g>
<g id="LINE_3_">
	<line class="st0" x1="276.4" y1="333.1" x2="284.9" y2="333.1"/>
</g>
<g id="LINE_4_">
	<line class="st0" x1="284.9" y1="333.1" x2="284.9" y2="301.9"/>
</g>
<g id="LINE_5_">
	<line class="st0" x1="284.9" y1="301.9" x2="276.4" y2="301.9"/>
</g>
<g id="LINE_6_">
	<line class="st0" x1="276.4" y1="270.7" x2="284.9" y2="270.7"/>
</g>
<g id="LINE_7_">
	<line class="st0" x1="284.9" y1="270.7" x2="284.9" y2="239.5"/>
</g>
<g id="LINE_8_">
	<line class="st0" x1="284.9" y1="239.5" x2="276.4" y2="239.5"/>
</g>
<g id="LINE_9_">
	<line class="st0" x1="276.4" y1="208.3" x2="284.9" y2="208.3"/>
</g>
<g id="LINE_10_">
	<line class="st0" x1="284.9" y1="208.3" x2="284.9" y2="177.2"/>
</g>
<g id="LINE_11_">
	<line class="st0" x1="284.9" y1="177.2" x2="276.4" y2="177.2"/>
</g>
<g id="LINE_12_">
	<line class="st0" x1="276.4" y1="208.3" x2="276.4" y2="239.5"/>
</g>
<g id="LINE_13_">
	<line class="st0" x1="276.4" y1="270.7" x2="276.4" y2="301.9"/>
</g>
<g id="LINE_14_">
	<line class="st0" x1="276.4" y1="333.1" x2="276.4" y2="364.3"/>
</g>
<g id="LINE_86_">
	<line class="st0" x1="7.1" y1="154.5" x2="35.4" y2="154.5"/>
</g>
<g id="LINE_87_">
	<line class="st0" x1="35.4" y1="154.5" x2="35.4" y2="146"/>
</g>
<g id="LINE_88_">
	<line class="st0" x1="35.4" y1="146" x2="63.8" y2="146"/>
</g>
<g id="LINE_89_">
	<line class="st0" x1="7.1" y1="209.8" x2="7.1" y2="154.5"/>
</g>
<g id="LINE_90_">
	<line class="st0" x1="63.8" y1="146" x2="63.8" y2="154.5"/>
</g>
<g id="LINE_91_">
	<line class="st0" x1="92.1" y1="154.5" x2="92.1" y2="146"/>
</g>
<g id="LINE_92_">
	<line class="st0" x1="92.1" y1="146" x2="120.5" y2="146"/>
</g>
<g id="LINE_93_">
	<line class="st0" x1="120.5" y1="146" x2="120.5" y2="154.5"/>
</g>
<g id="LINE_94_">
	<line class="st0" x1="120.5" y1="154.5" x2="148.8" y2="154.5"/>
</g>
<g id="LINE_95_">
	<line class="st0" x1="148.8" y1="154.5" x2="148.8" y2="146"/>
</g>
<g id="LINE_96_">
	<line class="st0" x1="148.8" y1="146" x2="177.2" y2="146"/>
</g>
<g id="LINE_97_">
	<line class="st0" x1="177.2" y1="146" x2="177.2" y2="154.5"/>
</g>
<g id="LINE_98_">
	<line class="st0" x1="7.1" y1="355.7" x2="35.4" y2="355.7"/>
</g>
<g id="LINE_99_">
	<line class="st0" x1="35.4" y1="355.7" x2="35.4" y2="364.3"/>
</g>
<g id="LINE_100_">
	<line class="st0" x1="35.4" y1="364.3" x2="63.8" y2="364.3"/>
</g>
<g id="LINE_101_">
	<line class="st0" x1="63.8" y1="364.3" x2="63.8" y2="355.7"/>
</g>
<g id="LINE_102_">
	<line class="st0" x1="63.8" y1="355.7" x2="92.1" y2="355.7"/>
</g>
<g id="LINE_103_">
	<line class="st0" x1="92.1" y1="355.7" x2="92.1" y2="364.3"/>
</g>
<g id="LINE_104_">
	<line class="st0" x1="92.1" y1="364.3" x2="120.5" y2="364.3"/>
</g>
<g id="LINE_105_">
	<line class="st0" x1="120.5" y1="364.3" x2="120.5" y2="355.7"/>
</g>
<g id="LINE_106_">
	<line class="st0" x1="120.5" y1="355.7" x2="148.8" y2="355.7"/>
</g>
<g id="LINE_107_">
	<line class="st0" x1="148.8" y1="355.7" x2="148.8" y2="364.3"/>
</g>
<g id="LINE_108_">
	<line class="st0" x1="148.8" y1="364.3" x2="177.2" y2="364.3"/>
</g>
<g id="LINE_109_">
	<line class="st0" x1="177.2" y1="364.3" x2="177.2" y2="355.7"/>
</g>
<g id="LINE_110_">
	<line class="st0" x1="177.2" y1="355.7" x2="205.5" y2="355.7"/>
</g>
<g id="LINE_111_">
	<line class="st0" x1="205.5" y1="355.7" x2="205.5" y2="364.3"/>
</g>
<g id="LINE_112_">
	<line class="st0" x1="205.5" y1="364.3" x2="233.9" y2="364.3"/>
</g>
<g id="LINE_113_">
	<line class="st0" x1="233.9" y1="364.3" x2="233.9" y2="355.7"/>
</g>
<g id="LINE_114_">
	<line class="st0" x1="233.9" y1="355.7" x2="262.2" y2="355.7"/>
</g>
<g id="LINE_115_">
	<line class="st0" x1="262.2" y1="355.7" x2="262.2" y2="364.3"/>
</g>
<g id="LINE_116_">
	<line class="st0" x1="262.2" y1="364.3" x2="276.4" y2="364.3"/>
</g>
<g id="LINE_117_">
	<line class="st0" x1="63.8" y1="154.5" x2="92.1" y2="154.5"/>
</g>
<g id="LINE_118_">
	<line class="st0" x1="177.2" y1="154.5" x2="205.5" y2="154.5"/>
</g>
<g id="LINE_119_">
	<line class="st0" x1="205.5" y1="154.5" x2="205.5" y2="146"/>
</g>
<g id="LINE_120_">
	<line class="st0" x1="205.5" y1="146" x2="233.9" y2="146"/>
</g>
<g id="LINE_121_">
	<line class="st0" x1="233.9" y1="146" x2="233.9" y2="154.5"/>
</g>
<g id="LINE_122_">
	<line class="st0" x1="233.9" y1="154.5" x2="262.2" y2="154.5"/>
</g>
<g id="LINE_123_">
	<line class="st0" x1="262.2" y1="154.5" x2="262.2" y2="146"/>
</g>
<g id="LINE_124_">
	<line class="st0" x1="262.2" y1="146" x2="276.4" y2="146"/>
</g>
<g id="LINE_125_">
	<line class="st0" x1="21.3" y1="209.8" x2="7.1" y2="209.8"/>
</g>
<g id="LINE_126_">
	<line class="st0" x1="21.3" y1="300.5" x2="7.1" y2="300.5"/>
</g>
<g id="LINE_127_">
	<line class="st0" x1="7.1" y1="355.7" x2="7.1" y2="300.5"/>
</g>
<g id="ARC_1_">
	<path class="st0" d="M21.3,300.5c25,0,45.4-20.3,45.4-45.4c0-25-20.3-45.4-45.4-45.4"/>
</g>
<g id="LINE_128_">
	<line class="st0" x1="292" y1="-52.4" x2="292" y2="89.3"/>
</g>
<g id="LINE_129_">
	<line class="st0" x1="22.7" y1="-24.1" x2="14.2" y2="-24.1"/>
</g>
<g id="LINE_130_">
	<line class="st0" x1="14.2" y1="-24.1" x2="14.2" y2="4.3"/>
</g>
<g id="LINE_131_">
	<line class="st0" x1="14.2" y1="4.3" x2="22.7" y2="4.3"/>
</g>
<g id="LINE_132_">
	<line class="st0" x1="22.7" y1="32.6" x2="14.2" y2="32.6"/>
</g>
<g id="LINE_133_">
	<line class="st0" x1="14.2" y1="32.6" x2="14.2" y2="60.9"/>
</g>
<g id="LINE_134_">
	<line class="st0" x1="14.2" y1="60.9" x2="22.7" y2="60.9"/>
</g>
<g id="LINE_135_">
	<line class="st0" x1="22.7" y1="-43.9" x2="22.7" y2="-24.1"/>
</g>
<g id="LINE_136_">
	<line class="st0" x1="22.7" y1="60.9" x2="22.7" y2="80.8"/>
</g>
<g id="LINE_137_">
	<line class="st0" x1="22.7" y1="4.3" x2="22.7" y2="32.6"/>
</g>
<g id="LINE_138_">
	<line class="st0" x1="292" y1="-52.4" x2="263.6" y2="-52.4"/>
</g>
<g id="LINE_139_">
	<line class="st0" x1="263.6" y1="-52.4" x2="263.6" y2="-43.9"/>
</g>
<g id="LINE_140_">
	<line class="st0" x1="263.6" y1="-43.9" x2="235.3" y2="-43.9"/>
</g>
<g id="LINE_141_">
	<line class="st0" x1="235.3" y1="-43.9" x2="235.3" y2="-52.4"/>
</g>
<g id="LINE_142_">
	<line class="st0" x1="235.3" y1="-52.4" x2="206.9" y2="-52.4"/>
</g>
<g id="LINE_143_">
	<line class="st0" x1="206.9" y1="-52.4" x2="206.9" y2="-43.9"/>
</g>
<g id="LINE_144_">
	<line class="st0" x1="206.9" y1="-43.9" x2="178.6" y2="-43.9"/>
</g>
<g id="LINE_145_">
	<line class="st0" x1="178.6" y1="-43.9" x2="178.6" y2="-52.4"/>
</g>
<g id="LINE_146_">
	<line class="st0" x1="178.6" y1="-52.4" x2="150.2" y2="-52.4"/>
</g>
<g id="LINE_147_">
	<line class="st0" x1="150.2" y1="-52.4" x2="150.2" y2="-43.9"/>
</g>
<g id="LINE_148_">
	<line class="st0" x1="150.2" y1="-43.9" x2="121.9" y2="-43.9"/>
</g>
<g id="LINE_149_">
	<line class="st0" x1="121.9" y1="-43.9" x2="121.9" y2="-52.4"/>
</g>
<g id="LINE_150_">
	<line class="st0" x1="121.9" y1="-52.4" x2="93.5" y2="-52.4"/>
</g>
<g id="LINE_151_">
	<line class="st0" x1="93.5" y1="-52.4" x2="93.5" y2="-43.9"/>
</g>
<g id="LINE_152_">
	<line class="st0" x1="93.5" y1="-43.9" x2="65.2" y2="-43.9"/>
</g>
<g id="LINE_153_">
	<line class="st0" x1="65.2" y1="-43.9" x2="65.2" y2="-52.4"/>
</g>
<g id="LINE_154_">
	<line class="st0" x1="65.2" y1="-52.4" x2="36.9" y2="-52.4"/>
</g>
<g id="LINE_155_">
	<line class="st0" x1="36.9" y1="-52.4" x2="36.9" y2="-43.9"/>
</g>
<g id="LINE_156_">
	<line class="st0" x1="36.9" y1="-43.9" x2="22.7" y2="-43.9"/>
</g>
<g id="LINE_157_">
	<polyline class="st0" points="263.6,80.8 263.6,89.3 292,89.3 	"/>
</g>
<g id="LINE_158_">
	<line class="st0" x1="263.6" y1="80.8" x2="235.3" y2="80.8"/>
</g>
<g id="LINE_159_">
	<line class="st0" x1="235.3" y1="80.8" x2="235.3" y2="89.3"/>
</g>
<g id="LINE_160_">
	<polyline class="st0" points="206.9,80.8 206.9,89.3 235.3,89.3 	"/>
</g>
<g id="LINE_161_">
	<line class="st0" x1="206.9" y1="80.8" x2="178.6" y2="80.8"/>
</g>
<g id="LINE_162_">
	<line class="st0" x1="178.6" y1="80.8" x2="178.6" y2="89.3"/>
</g>
<g id="LINE_163_">
	<polyline class="st0" points="150.2,80.8 150.2,89.3 178.6,89.3 	"/>
</g>
<g id="LINE_164_">
	<line class="st0" x1="150.2" y1="80.8" x2="121.9" y2="80.8"/>
</g>
<g id="LINE_165_">
	<line class="st0" x1="121.9" y1="80.8" x2="121.9" y2="89.3"/>
</g>
<g id="LINE_166_">
	<polyline class="st0" points="93.5,80.8 93.5,89.3 121.9,89.3 	"/>
</g>
<g id="LINE_167_">
	<line class="st0" x1="93.5" y1="80.8" x2="65.2" y2="80.8"/>
</g>
<g id="LINE_168_">
	<line class="st0" x1="65.2" y1="80.8" x2="65.2" y2="89.3"/>
</g>
<g id="LINE_169_">
	<polyline class="st0" points="36.9,80.8 36.9,89.3 65.2,89.3 	"/>
</g>
<g id="LINE_170_">
	<line class="st0" x1="36.9" y1="80.8" x2="22.7" y2="80.8"/>
</g>
<g id="LINE_288_">
	<line class="st0" x1="1055.9" y1="482.1" x2="1055.9" y2="426.9"/>
</g>
<g id="LINE_287_">
	<line class="st0" x1="786.6" y1="459.4" x2="778.1" y2="459.4"/>
</g>
<g id="LINE_286_">
	<line class="st0" x1="778.1" y1="459.4" x2="778.1" y2="428.3"/>
</g>
<g id="LINE_285_">
	<line class="st0" x1="778.1" y1="428.3" x2="786.6" y2="428.3"/>
</g>
<g id="LINE_284_">
	<line class="st0" x1="786.6" y1="397.1" x2="778.1" y2="397.1"/>
</g>
<g id="LINE_283_">
	<line class="st0" x1="778.1" y1="397.1" x2="778.1" y2="365.9"/>
</g>
<g id="LINE_282_">
	<line class="st0" x1="778.1" y1="365.9" x2="786.6" y2="365.9"/>
</g>
<g id="LINE_281_">
	<line class="st0" x1="786.6" y1="334.7" x2="778.1" y2="334.7"/>
</g>
<g id="LINE_280_">
	<line class="st0" x1="778.1" y1="334.7" x2="778.1" y2="303.5"/>
</g>
<g id="LINE_279_">
	<line class="st0" x1="778.1" y1="303.5" x2="786.6" y2="303.5"/>
</g>
<g id="LINE_278_">
	<line class="st0" x1="786.6" y1="272.4" x2="786.6" y2="303.5"/>
</g>
<g id="LINE_277_">
	<line class="st0" x1="786.6" y1="459.4" x2="786.6" y2="490.6"/>
</g>
<g id="LINE_276_">
	<line class="st0" x1="786.6" y1="334.7" x2="786.6" y2="365.9"/>
</g>
<g id="LINE_275_">
	<line class="st0" x1="786.6" y1="397.1" x2="786.6" y2="428.3"/>
</g>
<g id="LINE_272_">
	<line class="st0" x1="1055.9" y1="482.1" x2="1027.6" y2="482.1"/>
</g>
<g id="LINE_271_">
	<line class="st0" x1="1027.6" y1="482.1" x2="1027.6" y2="490.6"/>
</g>
<g id="LINE_270_">
	<line class="st0" x1="1027.6" y1="490.6" x2="999.2" y2="490.6"/>
</g>
<g id="LINE_269_">
	<line class="st0" x1="999.2" y1="490.6" x2="999.2" y2="482.1"/>
</g>
<g id="LINE_268_">
	<line class="st0" x1="999.2" y1="482.1" x2="970.9" y2="482.1"/>
</g>
<g id="LINE_267_">
	<line class="st0" x1="970.9" y1="482.1" x2="970.9" y2="490.6"/>
</g>
<g id="LINE_266_">
	<line class="st0" x1="970.9" y1="490.6" x2="942.5" y2="490.6"/>
</g>
<g id="LINE_265_">
	<line class="st0" x1="942.5" y1="490.6" x2="942.5" y2="482.1"/>
</g>
<g id="LINE_264_">
	<line class="st0" x1="942.5" y1="482.1" x2="914.2" y2="482.1"/>
</g>
<g id="LINE_263_">
	<line class="st0" x1="914.2" y1="482.1" x2="914.2" y2="490.6"/>
</g>
<g id="LINE_262_">
	<line class="st0" x1="914.2" y1="490.6" x2="885.8" y2="490.6"/>
</g>
<g id="LINE_261_">
	<line class="st0" x1="885.8" y1="490.6" x2="885.8" y2="482.1"/>
</g>
<g id="LINE_260_">
	<line class="st0" x1="885.8" y1="482.1" x2="857.5" y2="482.1"/>
</g>
<g id="LINE_259_">
	<line class="st0" x1="857.5" y1="482.1" x2="857.5" y2="490.6"/>
</g>
<g id="LINE_258_">
	<line class="st0" x1="857.5" y1="490.6" x2="829.1" y2="490.6"/>
</g>
<g id="LINE_257_">
	<line class="st0" x1="829.1" y1="490.6" x2="829.1" y2="482.1"/>
</g>
<g id="LINE_213_">
	<line class="st0" x1="829.1" y1="482.1" x2="800.8" y2="482.1"/>
</g>
<g id="LINE_210_">
	<line class="st0" x1="800.8" y1="482.1" x2="800.8" y2="490.6"/>
</g>
<g id="LINE_207_">
	<line class="st0" x1="800.8" y1="490.6" x2="786.6" y2="490.6"/>
</g>
<g id="LINE_204_">
	<line class="st0" x1="1055.9" y1="280.9" x2="1027.6" y2="280.9"/>
</g>
<g id="LINE_201_">
	<line class="st0" x1="1027.6" y1="280.9" x2="1027.6" y2="272.4"/>
</g>
<g id="LINE_199_">
	<line class="st0" x1="1027.6" y1="272.4" x2="999.2" y2="272.4"/>
</g>
<g id="LINE_198_">
	<line class="st0" x1="999.2" y1="272.4" x2="999.2" y2="280.9"/>
</g>
<g id="LINE_197_">
	<line class="st0" x1="999.2" y1="280.9" x2="970.9" y2="280.9"/>
</g>
<g id="LINE_196_">
	<line class="st0" x1="970.9" y1="280.9" x2="970.9" y2="272.4"/>
</g>
<g id="LINE_195_">
	<line class="st0" x1="970.9" y1="272.4" x2="942.5" y2="272.4"/>
</g>
<g id="LINE_194_">
	<line class="st0" x1="942.5" y1="272.4" x2="942.5" y2="280.9"/>
</g>
<g id="LINE_193_">
	<line class="st0" x1="942.5" y1="280.9" x2="914.2" y2="280.9"/>
</g>
<g id="LINE_192_">
	<line class="st0" x1="914.2" y1="280.9" x2="914.2" y2="272.4"/>
</g>
<g id="LINE_191_">
	<line class="st0" x1="914.2" y1="272.4" x2="885.8" y2="272.4"/>
</g>
<g id="LINE_190_">
	<line class="st0" x1="885.8" y1="272.4" x2="885.8" y2="280.9"/>
</g>
<g id="LINE_189_">
	<line class="st0" x1="885.8" y1="280.9" x2="857.5" y2="280.9"/>
</g>
<g id="LINE_188_">
	<line class="st0" x1="857.5" y1="280.9" x2="857.5" y2="272.4"/>
</g>
<g id="LINE_187_">
	<line class="st0" x1="857.5" y1="272.4" x2="829.1" y2="272.4"/>
</g>
<g id="LINE_186_">
	<line class="st0" x1="829.1" y1="272.4" x2="829.1" y2="280.9"/>
</g>
<g id="LINE_185_">
	<line class="st0" x1="829.1" y1="280.9" x2="800.8" y2="280.9"/>
</g>
<g id="LINE_184_">
	<line class="st0" x1="800.8" y1="280.9" x2="800.8" y2="272.4"/>
</g>
<g id="LINE_183_">
	<line class="st0" x1="800.8" y1="272.4" x2="786.6" y2="272.4"/>
</g>
<g id="ARC_2_">
	<path class="st0" d="M1041.7,336.1c-25,0-45.4,20.3-45.4,45.4c0,25,20.3,45.4,45.4,45.4"/>
</g>
<g id="LINE_182_">
	<line class="st0" x1="1041.7" y1="336.1" x2="1055.9" y2="336.1"/>
</g>
<g id="LINE_181_">
	<line class="st0" x1="1041.7" y1="426.9" x2="1055.9" y2="426.9"/>
</g>
<g id="LINE_180_">
	<line class="st0" x1="1055.9" y1="336.1" x2="1055.9" y2="280.9"/>
</g>
<g id="LINE_179_">
	<path class="st0" d="M800.8,272.4"/>
</g>
<g id="LINE_178_">
	<path class="st0" d="M829.1,272.4"/>
</g>
<g id="LINE_177_">
	<path class="st0" d="M857.5,272.4"/>
</g>
<g id="LINE_176_">
	<path class="st0" d="M885.8,272.4"/>
</g>
<g id="LINE_175_">
	<path class="st0" d="M914.2,272.4"/>
</g>
<g id="LINE_174_">
	<path class="st0" d="M942.5,272.4"/>
</g>
<g id="LINE_173_">
	<path class="st0" d="M970.9,272.4"/>
</g>
<g id="LINE_172_">
	<path class="st0" d="M999.2,272.4"/>
</g>
<g id="LINE_171_">
	<path class="st0" d="M1027.6,272.4"/>
</g>
<g id="LINE_256_">
	<polyline class="st0" points="420.9,-214 420.9,-72.3 449.3,-72.3 	"/>
</g>
<g id="LINE_255_">
	<line class="st0" x1="690.2" y1="-185.7" x2="698.7" y2="-185.7"/>
</g>
<g id="LINE_254_">
	<line class="st0" x1="698.7" y1="-185.7" x2="698.7" y2="-157.3"/>
</g>
<g id="LINE_253_">
	<line class="st0" x1="698.7" y1="-157.3" x2="690.2" y2="-157.3"/>
</g>
<g id="LINE_252_">
	<line class="st0" x1="690.2" y1="-129" x2="698.7" y2="-129"/>
</g>
<g id="LINE_251_">
	<line class="st0" x1="698.7" y1="-129" x2="698.7" y2="-100.6"/>
</g>
<g id="LINE_250_">
	<line class="st0" x1="698.7" y1="-100.6" x2="690.2" y2="-100.6"/>
</g>
<g id="LINE_249_">
	<line class="st0" x1="690.2" y1="-205.5" x2="690.2" y2="-185.7"/>
</g>
<g id="LINE_248_">
	<line class="st0" x1="690.2" y1="-100.6" x2="690.2" y2="-80.8"/>
</g>
<g id="LINE_247_">
	<line class="st0" x1="690.2" y1="-157.3" x2="690.2" y2="-129"/>
</g>
<g id="LINE_246_">
	<line class="st0" x1="420.9" y1="-214" x2="449.3" y2="-214"/>
</g>
<g id="LINE_245_">
	<line class="st0" x1="449.3" y1="-214" x2="449.3" y2="-205.5"/>
</g>
<g id="LINE_244_">
	<line class="st0" x1="449.3" y1="-205.5" x2="477.6" y2="-205.5"/>
</g>
<g id="LINE_243_">
	<line class="st0" x1="477.6" y1="-205.5" x2="477.6" y2="-214"/>
</g>
<g id="LINE_242_">
	<line class="st0" x1="477.6" y1="-214" x2="506" y2="-214"/>
</g>
<g id="LINE_241_">
	<line class="st0" x1="506" y1="-214" x2="506" y2="-205.5"/>
</g>
<g id="LINE_240_">
	<line class="st0" x1="506" y1="-205.5" x2="534.3" y2="-205.5"/>
</g>
<g id="LINE_239_">
	<line class="st0" x1="534.3" y1="-205.5" x2="534.3" y2="-214"/>
</g>
<g id="LINE_238_">
	<line class="st0" x1="534.3" y1="-214" x2="562.7" y2="-214"/>
</g>
<g id="LINE_237_">
	<line class="st0" x1="562.7" y1="-214" x2="562.7" y2="-205.5"/>
</g>
<g id="LINE_236_">
	<line class="st0" x1="562.7" y1="-205.5" x2="591" y2="-205.5"/>
</g>
<g id="LINE_235_">
	<line class="st0" x1="591" y1="-205.5" x2="591" y2="-214"/>
</g>
<g id="LINE_234_">
	<line class="st0" x1="591" y1="-214" x2="619.4" y2="-214"/>
</g>
<g id="LINE_233_">
	<line class="st0" x1="619.4" y1="-214" x2="619.4" y2="-205.5"/>
</g>
<g id="LINE_232_">
	<line class="st0" x1="619.4" y1="-205.5" x2="647.7" y2="-205.5"/>
</g>
<g id="LINE_231_">
	<line class="st0" x1="647.7" y1="-205.5" x2="647.7" y2="-214"/>
</g>
<g id="LINE_230_">
	<line class="st0" x1="647.7" y1="-214" x2="676.1" y2="-214"/>
</g>
<g id="LINE_229_">
	<line class="st0" x1="676.1" y1="-214" x2="676.1" y2="-205.5"/>
</g>
<g id="LINE_228_">
	<line class="st0" x1="676.1" y1="-205.5" x2="690.2" y2="-205.5"/>
</g>
<g id="LINE_227_">
	<line class="st0" x1="449.3" y1="-72.3" x2="449.3" y2="-80.8"/>
</g>
<g id="LINE_226_">
	<line class="st0" x1="449.3" y1="-80.8" x2="477.6" y2="-80.8"/>
</g>
<g id="LINE_225_">
	<polyline class="st0" points="477.6,-80.8 477.6,-72.3 506,-72.3 	"/>
</g>
<g id="LINE_224_">
	<line class="st0" x1="506" y1="-72.3" x2="506" y2="-80.8"/>
</g>
<g id="LINE_223_">
	<line class="st0" x1="506" y1="-80.8" x2="534.3" y2="-80.8"/>
</g>
<g id="LINE_222_">
	<polyline class="st0" points="534.3,-80.8 534.3,-72.3 562.7,-72.3 	"/>
</g>
<g id="LINE_221_">
	<line class="st0" x1="562.7" y1="-72.3" x2="562.7" y2="-80.8"/>
</g>
<g id="LINE_220_">
	<line class="st0" x1="562.7" y1="-80.8" x2="591" y2="-80.8"/>
</g>
<g id="LINE_219_">
	<polyline class="st0" points="591,-80.8 591,-72.3 619.4,-72.3 	"/>
</g>
<g id="LINE_218_">
	<line class="st0" x1="619.4" y1="-72.3" x2="619.4" y2="-80.8"/>
</g>
<g id="LINE_217_">
	<line class="st0" x1="619.4" y1="-80.8" x2="647.7" y2="-80.8"/>
</g>
<g id="LINE_216_">
	<polyline class="st0" points="647.7,-80.8 647.7,-72.3 676.1,-72.3 	"/>
</g>
<g id="LINE_215_">
	<line class="st0" x1="676.1" y1="-72.3" x2="676.1" y2="-80.8"/>
</g>
<g id="LINE_214_">
	<line class="st0" x1="676.1" y1="-80.8" x2="690.2" y2="-80.8"/>
</g>
<g id="LINE_202_">
	<line class="st0" x1="555.6" y1="318.9" x2="583.9" y2="318.9"/>
</g>
<g id="LINE_200_">
	<line class="st0" x1="555.6" y1="100.6" x2="555.6" y2="131.8"/>
</g>
<g id="LINE_85_">
	<line class="st0" x1="555.6" y1="287.7" x2="564.1" y2="287.7"/>
</g>
<g id="LINE_84_">
	<line class="st0" x1="564.1" y1="287.7" x2="564.1" y2="256.5"/>
</g>
<g id="LINE_83_">
	<line class="st0" x1="564.1" y1="256.5" x2="555.6" y2="256.5"/>
</g>
<g id="LINE_82_">
	<line class="st0" x1="555.6" y1="225.4" x2="564.1" y2="225.4"/>
</g>
<g id="LINE_81_">
	<line class="st0" x1="564.1" y1="225.4" x2="564.1" y2="194.2"/>
</g>
<g id="LINE_80_">
	<line class="st0" x1="564.1" y1="194.2" x2="555.6" y2="194.2"/>
</g>
<g id="LINE_79_">
	<line class="st0" x1="555.6" y1="163" x2="564.1" y2="163"/>
</g>
<g id="LINE_78_">
	<line class="st0" x1="564.1" y1="163" x2="564.1" y2="131.8"/>
</g>
<g id="LINE_77_">
	<line class="st0" x1="564.1" y1="131.8" x2="555.6" y2="131.8"/>
</g>
<g id="LINE_76_">
	<line class="st0" x1="555.6" y1="163" x2="555.6" y2="194.2"/>
</g>
<g id="LINE_75_">
	<line class="st0" x1="555.6" y1="225.4" x2="555.6" y2="256.5"/>
</g>
<g id="LINE_74_">
	<line class="st0" x1="555.6" y1="287.7" x2="555.6" y2="318.9"/>
</g>
<g id="LINE_73_">
	<line class="st0" x1="697.3" y1="287.7" x2="688.8" y2="287.7"/>
</g>
<g id="LINE_72_">
	<line class="st0" x1="688.8" y1="287.7" x2="688.8" y2="256.5"/>
</g>
<g id="LINE_71_">
	<line class="st0" x1="688.8" y1="256.5" x2="697.3" y2="256.5"/>
</g>
<g id="LINE_70_">
	<line class="st0" x1="697.3" y1="225.4" x2="688.8" y2="225.4"/>
</g>
<g id="LINE_69_">
	<line class="st0" x1="688.8" y1="225.4" x2="688.8" y2="194.2"/>
</g>
<g id="LINE_68_">
	<line class="st0" x1="688.8" y1="194.2" x2="697.3" y2="194.2"/>
</g>
<g id="LINE_67_">
	<line class="st0" x1="697.3" y1="163" x2="688.8" y2="163"/>
</g>
<g id="LINE_66_">
	<line class="st0" x1="688.8" y1="163" x2="688.8" y2="131.8"/>
</g>
<g id="LINE_65_">
	<line class="st0" x1="688.8" y1="131.8" x2="697.3" y2="131.8"/>
</g>
<g id="LINE_64_">
	<line class="st0" x1="697.3" y1="100.6" x2="697.3" y2="131.8"/>
</g>
<g id="LINE_63_">
	<line class="st0" x1="697.3" y1="287.7" x2="697.3" y2="318.9"/>
</g>
<g id="LINE_62_">
	<line class="st0" x1="697.3" y1="163" x2="697.3" y2="194.2"/>
</g>
<g id="LINE_61_">
	<line class="st0" x1="697.3" y1="225.4" x2="697.3" y2="256.5"/>
</g>
<g id="LINE_60_">
	<line class="st0" x1="583.9" y1="318.9" x2="583.9" y2="310.4"/>
</g>
<g id="LINE_59_">
	<line class="st0" x1="583.9" y1="310.4" x2="612.3" y2="310.4"/>
</g>
<g id="LINE_58_">
	<line class="st0" x1="612.3" y1="310.4" x2="612.3" y2="318.9"/>
</g>
<g id="LINE_57_">
	<line class="st0" x1="640.6" y1="318.9" x2="640.6" y2="310.4"/>
</g>
<g id="LINE_56_">
	<line class="st0" x1="640.6" y1="310.4" x2="669" y2="310.4"/>
</g>
<g id="LINE_55_">
	<line class="st0" x1="669" y1="310.4" x2="669" y2="318.9"/>
</g>
<g id="LINE_54_">
	<line class="st0" x1="612.3" y1="318.9" x2="640.6" y2="318.9"/>
</g>
<g id="LINE_53_">
	<line class="st0" x1="669" y1="318.9" x2="697.3" y2="318.9"/>
</g>
<g id="LINE_52_">
	<line class="st0" x1="583.9" y1="100.6" x2="583.9" y2="109.1"/>
</g>
<g id="LINE_51_">
	<line class="st0" x1="583.9" y1="109.1" x2="612.3" y2="109.1"/>
</g>
<g id="LINE_50_">
	<line class="st0" x1="612.3" y1="109.1" x2="612.3" y2="100.6"/>
</g>
<g id="LINE_49_">
	<line class="st0" x1="640.6" y1="100.6" x2="640.6" y2="109.1"/>
</g>
<g id="LINE_48_">
	<line class="st0" x1="640.6" y1="109.1" x2="669" y2="109.1"/>
</g>
<g id="LINE_47_">
	<line class="st0" x1="669" y1="109.1" x2="669" y2="100.6"/>
</g>
<g id="LINE_46_">
	<line class="st0" x1="555.6" y1="100.6" x2="583.9" y2="100.6"/>
</g>
<g id="LINE_45_">
	<line class="st0" x1="669" y1="100.6" x2="697.3" y2="100.6"/>
</g>
<g id="LINE_2_">
	<line class="st0" x1="612.3" y1="100.6" x2="640.6" y2="100.6"/>
</g>
</svg>
