<?xml version="1.0" encoding="utf-8"?>
<!-- Generator: Adobe Illustrator 24.3.0, SVG Export Plug-In . SVG Version: 6.00 Build 0)  -->
<svg version="1.1" id="_x31_" xmlns="http://www.w3.org/2000/svg" xmlns:xlink="http://www.w3.org/1999/xlink" x="0px" y="0px"
	 viewBox="0 0 841.9 595.3" style="enable-background:new 0 0 841.9 595.3;" xml:space="preserve">
<style type="text/css">
	.st0{fill:none;stroke:#333333;stroke-width:3;stroke-linecap:round;stroke-linejoin:round;stroke-miterlimit:10;}
</style>
<g id="SPLINE">
	<line class="st0" x1="-158.6" y1="380" x2="-158.6" y2="890.2"/>
</g>
<g id="SPLINE_1_">
	<polyline class="st0" points="-177.1,924.2 -176.9,924.2 -176.6,924.2 -176.1,924.2 -175.4,924.2 -174.5,924.2 -173.5,924.2 
		-172.4,924.2 -171.2,924.2 -168.7,924.2 -166.1,924.2 -163.7,924.2 -162.5,924.2 -161.5,924.2 -160.6,924.2 -159.8,924.2 
		-159.3,924.2 -158.8,924.2 -158.7,924.2 -158.6,924.2 -158.6,924.4 -158.6,924.6 -158.6,924.9 -158.6,925.3 -158.6,925.9 
		-158.6,926.4 -158.6,927.1 -158.6,927.9 -158.6,929.5 -158.6,931.4 -158.6,933.5 -158.6,935.7 -158.6,938.1 -158.6,942.8 
		-158.6,945.2 -158.6,947.5 -158.6,949.6 -158.6,951.7 -158.6,953.5 -158.6,955.1 -158.6,955.8 -158.6,956.4 -158.6,956.9 
		-158.6,957.4 -158.6,957.7 -158.6,958 -158.6,958.2 -158.6,958.2 	"/>
</g>
<g id="SPLINE_2_">
	<polyline class="st0" points="-158.6,890.2 -158.8,890.2 -159.1,890.2 -159.6,890.2 -160.3,890.2 -161.2,890.2 -162.2,890.2 
		-163.3,890.2 -164.5,890.2 -167,890.2 -169.6,890.2 -172,890.2 -173.2,890.2 -174.2,890.2 -175.1,890.2 -175.9,890.2 -176.5,890.2 
		-176.9,890.2 -177,890.2 -177.1,890.2 -177.1,890.4 -177.1,890.6 -177.1,890.9 -177.1,891.3 -177.1,891.8 -177.1,892.4 
		-177.1,893.1 -177.1,893.8 -177.1,895.5 -177.1,897.4 -177.1,899.5 -177.1,901.7 -177.1,904 -177.1,908.8 -177.1,911.2 
		-177.1,913.5 -177.1,915.6 -177.1,917.7 -177.1,919.5 -177.1,921.1 -177.1,921.8 -177.1,922.4 -177.1,922.9 -177.1,923.4 
		-177.1,923.7 -177.1,924 -177.1,924.2 -177.1,924.2 	"/>
</g>
<g id="SPLINE_3_">
	<polyline class="st0" points="-396.7,448 -396.8,448 -396.9,448 -397.2,448 -397.5,448 -397.9,448 -398.3,448 -399.4,448 
		-400.7,448 -402.1,448 -405.3,448 -408.4,448 -409.8,448 -411.1,448 -412.2,448 -412.6,448 -413,448 -413.3,448 -413.6,448 
		-413.7,448 -413.8,448 -413.8,447.9 -413.8,447.6 -413.8,447.2 -413.8,446.5 -413.8,445.8 -413.8,444.9 -413.8,443.8 -413.8,442.7 
		-413.8,441.4 -413.8,440.1 -413.8,437.2 -413.8,434.2 -413.8,431 -413.8,427.8 -413.8,424.7 -413.8,421.9 -413.8,420.5 
		-413.8,419.3 -413.8,418.1 -413.8,417.1 -413.8,416.2 -413.8,415.4 -413.8,414.8 -413.8,414.4 -413.8,414.1 -413.8,414 -413.7,414 
		-413.6,414 -413.3,414 -413,414 -412.6,414 -412.2,414 -411.1,414 -409.8,414 -408.4,414 -405.3,414 -402.1,414 -400.7,414 
		-399.4,414 -398.3,414 -397.9,414 -397.5,414 -397.2,414 -396.9,414 -396.8,414 -396.7,414 	"/>
</g>
<g id="SPLINE_4_">
	<path class="st0" d="M-396.7,516h-17c0,0,0,0,0-34c17,0,17,0,17,0v-34"/>
</g>
<g id="SPLINE_5_">
	<path class="st0" d="M-396.7,584.1h-17c0,0,0,0,0-34c17,0,17,0,17,0v-34"/>
</g>
<g id="SPLINE_6_">
	<path class="st0" d="M-396.7,652.1h-17c0,0,0,0,0-34c17,0,17,0,17,0v-34"/>
</g>
<g id="SPLINE_7_">
	<path class="st0" d="M-396.7,720.1h-17c0,0,0,0,0-34c17,0,17,0,17,0v-34"/>
</g>
<g id="SPLINE_8_">
	<path class="st0" d="M-396.7,788.2h-17c0,0,0,0,0-34c17,0,17,0,17,0v-34"/>
</g>
<g id="SPLINE_9_">
	<path class="st0" d="M-396.7,856.2h-17c0,0,0,0,0-34c17,0,17,0,17,0v-34"/>
</g>
<g id="SPLINE_10_">
	<path class="st0" d="M-396.7,924.2h-17c0,0,0,0,0-34c17,0,17,0,17,0v-34"/>
</g>
<g id="SPLINE_11_">
	<line class="st0" x1="-396.7" y1="958.2" x2="-396.7" y2="924.2"/>
</g>
<g id="SPLINE_12_">
	<path class="st0" d="M-294.7,958.2v17c0,0,0,0,34,0c0-17,0-17,0-17h34"/>
</g>
<g id="SPLINE_13_">
	<path class="st0" d="M-226.7,958.2v17c0,0,0,0,34,0c0-17,0-17,0-17h34"/>
</g>
<g id="SPLINE_14_">
	<path class="st0" d="M-362.7,958.2v17c0,0,0,0,34,0c0-17,0-17,0-17h34"/>
</g>
<g id="SPLINE_15_">
	<line class="st0" x1="-396.7" y1="958.2" x2="-362.7" y2="958.2"/>
</g>
<g id="SPLINE_19_">
	<path class="st0" d="M-782.3-125.9h-17c0,0,0,0,0,34c17,0,17,0,17,0v34"/>
</g>
<g id="SPLINE_20_">
	<path class="st0" d="M-782.3-193.9h-17c0,0,0,0,0,34c17,0,17,0,17,0v34"/>
</g>
<g id="SPLINE_21_">
	<path class="st0" d="M-782.3-262h-17c0,0,0,0,0,34c17,0,17,0,17,0v34"/>
</g>
<g id="SPLINE_22_">
	<path class="st0" d="M-782.3-330h-17c0,0,0,0,0,34c17,0,17,0,17,0v34"/>
</g>
<g id="SPLINE_23_">
	<path class="st0" d="M-782.3-466.1h-17c0,0,0,0,0,34c17,0,17,0,17,0v34"/>
</g>
<g id="SPLINE_24_">
	<path class="st0" d="M-782.3-534.1h-17c0,0,0,0,0,34c17,0,17,0,17,0v34"/>
</g>
<g id="SPLINE_25_">
	<path class="st0" d="M-782.3-602.1h-17c0,0,0,0,0,34c17,0,17,0,17,0v34"/>
</g>
<g id="SPLINE_26_">
	<path class="st0" d="M-782.3-670.2h-17c0,0,0,0,0,34c17,0,17,0,17,0v34"/>
</g>
<g id="SPLINE_27_">
	<line class="st0" x1="-782.3" y1="-398" x2="-782.3" y2="-330"/>
</g>
<g id="SPLINE_28_">
	<path class="st0" d="M-702.9-210.9v-17c0,0,0,0,34,0c0,17,0,17,0,17H-702.9z"/>
</g>
<g id="SPLINE_29_">
	<path class="st0" d="M-702.9-534.1v-17c0,0,0,0,34,0c0,17,0,17,0,17H-702.9z"/>
</g>
<g id="SPLINE_30_">
	<path class="st0" d="M-770.9-210.9v-17c0,0,0,0,34,0c0,17,0,17,0,17H-770.9z"/>
</g>
<g id="SPLINE_31_">
	<path class="st0" d="M-770.9-534.1v-17c0,0,0,0,34,0c0,17,0,17,0,17H-770.9z"/>
</g>
<g id="SPLINE_32_">
	<line class="st0" x1="-600.8" y1="-228.1" x2="-600.8" y2="-534.3"/>
</g>
<g id="SPLINE_33_">
	<polyline class="st0" points="-600.8,-227.9 -600.9,-227.9 -601.2,-227.9 -601.7,-227.9 -602.3,-227.9 -603.1,-227.9 -604,-227.9 
		-605,-227.9 -606.2,-227.9 -607.4,-227.9 -608.7,-227.9 -611.6,-227.9 -614.7,-227.9 -617.9,-227.9 -621,-227.9 -624.1,-227.9 
		-627,-227.9 -628.3,-227.9 -629.5,-227.9 -630.7,-227.9 -631.7,-227.9 -632.6,-227.9 -633.4,-227.9 -634,-227.9 -634.5,-227.9 
		-634.8,-227.9 -634.9,-227.9 -634.9,-227.9 -634.9,-227.8 -634.9,-227.5 -634.9,-227.2 -634.9,-226.8 -634.9,-226.4 -634.9,-225.3 
		-634.9,-224 -634.9,-222.6 -634.9,-219.4 -634.9,-216.3 -634.9,-214.9 -634.9,-213.6 -634.9,-212.5 -634.9,-212.1 -634.9,-211.7 
		-634.9,-211.4 -634.9,-211.1 -634.9,-211 -634.9,-210.9 -634.8,-210.9 -634.5,-210.9 -634,-210.9 -633.4,-210.9 -632.6,-210.9 
		-631.7,-210.9 -630.7,-210.9 -629.5,-210.9 -628.3,-210.9 -627,-210.9 -624.1,-210.9 -621,-210.9 -617.9,-210.9 -614.7,-210.9 
		-611.6,-210.9 -608.7,-210.9 -607.4,-210.9 -606.2,-210.9 -605,-210.9 -604,-210.9 -603.1,-210.9 -602.3,-210.9 -601.7,-210.9 
		-601.2,-210.9 -600.9,-210.9 -600.8,-210.9 	"/>
</g>
<g id="SPLINE_34_">
	<polyline class="st0" points="-600.8,-551.1 -600.9,-551.1 -601.2,-551.1 -601.7,-551.1 -602.3,-551.1 -603.1,-551.1 -604,-551.1 
		-605,-551.1 -606.2,-551.1 -607.4,-551.1 -608.7,-551.1 -611.6,-551.1 -614.7,-551.1 -617.9,-551.1 -621,-551.1 -624.1,-551.1 
		-627,-551.1 -628.3,-551.1 -629.5,-551.1 -630.7,-551.1 -631.7,-551.1 -632.6,-551.1 -633.4,-551.1 -634,-551.1 -634.5,-551.1 
		-634.8,-551.1 -634.9,-551.1 -634.9,-551.1 -634.9,-550.9 -634.9,-550.7 -634.9,-550.4 -634.9,-550 -634.9,-549.5 -634.9,-548.4 
		-634.9,-547.2 -634.9,-545.7 -634.9,-542.6 -634.9,-539.5 -634.9,-538 -634.9,-536.7 -634.9,-535.7 -634.9,-535.2 -634.9,-534.8 
		-634.9,-534.5 -634.9,-534.3 -634.9,-534.1 -634.9,-534.1 -634.8,-534.1 -634.5,-534.1 -634,-534.1 -633.4,-534.1 -632.6,-534.1 
		-631.7,-534.1 -630.7,-534.1 -629.5,-534.1 -628.3,-534.1 -627,-534.1 -624.1,-534.1 -621,-534.1 -617.9,-534.1 -614.7,-534.1 
		-611.6,-534.1 -608.7,-534.1 -607.4,-534.1 -606.2,-534.1 -605,-534.1 -604,-534.1 -603.1,-534.1 -602.3,-534.1 -601.7,-534.1 
		-601.2,-534.1 -600.9,-534.1 -600.8,-534.1 	"/>
</g>
<g id="SPLINE_35_">
	<line class="st0" x1="-600.8" y1="-670.2" x2="-600.8" y2="-551.3"/>
</g>
<g id="SPLINE_36_">
	<line class="st0" x1="-600.8" y1="-211.1" x2="-600.8" y2="-91.9"/>
</g>
<g id="SPLINE_37_">
	<line class="st0" x1="-782.3" y1="-670.2" x2="-782.3" y2="-704.2"/>
</g>
<g id="SPLINE_38_">
	<polyline class="st0" points="-662.7,-318.5 -662.7,-318.8 -662.7,-319.6 -662.7,-320.9 -662.7,-322.7 -662.7,-324.9 
		-662.7,-327.5 -662.7,-330.5 -662.7,-333.8 -662.7,-337.5 -662.7,-341.4 -662.7,-350 -662.7,-359.4 -662.7,-369.4 -662.7,-389.8 
		-662.7,-399.8 -662.7,-409.4 -662.7,-418.2 -662.7,-426.2 -662.7,-429.7 -662.7,-432.9 -662.7,-435.7 -662.7,-438.2 -662.7,-440.2 
		-662.7,-441.8 -662.7,-442.9 -662.7,-443.5 -662.7,-444.8 -662,-447.5 -660.9,-449.7 -659.3,-451.2 -657.3,-451.9 -655.4,-451.5 
		-653.7,-450.2 -652.4,-448.2 -651.6,-445.6 -651.4,-444.2 -651.4,-443.5 -651.4,-443.1 -651.4,-442.1 -651.4,-440.7 -651.4,-438.8 
		-651.4,-436.5 -651.4,-433.7 -651.4,-430.6 -651.4,-427.2 -651.4,-419.4 -651.4,-410.7 -651.4,-401.2 -651.4,-381 -651.4,-360.8 
		-651.4,-351.3 -651.4,-342.6 -651.4,-334.8 -651.4,-331.4 -651.4,-328.3 -651.4,-325.6 -651.4,-323.2 -651.4,-321.3 -651.4,-319.9 
		-651.4,-318.9 -651.4,-318.5 -651.4,-317.9 -651.6,-316.4 -652.4,-313.8 -653.7,-311.8 -655.4,-310.5 -657.2,-310.2 -658.2,-310.3 
		-660,-311.4 -661.4,-313.2 -662.4,-315.6 -662.7,-318.5 	"/>
</g>
<g id="SPLINE_39_">
	<polyline class="st0" points="-640,-318.5 -640,-318.8 -640,-319.6 -640,-320.9 -640,-322.7 -640,-324.9 -640,-327.5 -640,-330.5 
		-640,-333.8 -640,-337.5 -640,-341.4 -640,-350 -640,-359.4 -640,-369.4 -640,-389.8 -640,-399.8 -640,-409.4 -640,-418.2 
		-640,-426.2 -640,-429.7 -640,-432.9 -640,-435.7 -640,-438.2 -640,-440.2 -640,-441.8 -640,-442.9 -640,-443.5 -640,-444.8 
		-639.4,-447.5 -638.2,-449.7 -636.6,-451.2 -634.7,-451.9 -632.7,-451.5 -631,-450.2 -629.7,-448.2 -628.9,-445.6 -628.7,-444.2 
		-628.7,-443.5 -628.7,-443.1 -628.7,-442.1 -628.7,-440.7 -628.7,-438.8 -628.7,-436.5 -628.7,-433.7 -628.7,-430.6 -628.7,-427.2 
		-628.7,-419.4 -628.7,-410.7 -628.7,-401.2 -628.7,-381 -628.7,-360.8 -628.7,-351.3 -628.7,-342.6 -628.7,-334.8 -628.7,-331.4 
		-628.7,-328.3 -628.7,-325.6 -628.7,-323.2 -628.7,-321.3 -628.7,-319.9 -628.7,-318.9 -628.7,-318.5 -628.7,-317.9 -628.9,-316.4 
		-629.7,-313.8 -631,-311.8 -632.7,-310.5 -634.5,-310.2 -635.5,-310.3 -637.3,-311.4 -638.8,-313.2 -639.7,-315.6 -640,-318.5 	"/>
</g>
<g id="SPLINE_40_">
	<polyline class="st0" points="-730.8,-318.5 -730.8,-318.8 -730.8,-319.6 -730.8,-320.9 -730.8,-322.7 -730.8,-324.9 
		-730.8,-327.5 -730.8,-330.5 -730.8,-333.8 -730.8,-337.5 -730.8,-341.4 -730.8,-350 -730.8,-359.4 -730.8,-369.4 -730.8,-389.8 
		-730.8,-399.8 -730.8,-409.4 -730.8,-418.2 -730.8,-426.2 -730.8,-429.7 -730.8,-432.9 -730.8,-435.7 -730.8,-438.2 -730.8,-440.2 
		-730.8,-441.8 -730.8,-442.9 -730.8,-443.5 -730.7,-444.8 -730.1,-447.5 -728.9,-449.7 -727.3,-451.2 -725.4,-451.9 -723.4,-451.5 
		-721.7,-450.2 -720.4,-448.2 -719.6,-445.6 -719.4,-444.2 -719.4,-443.5 -719.4,-443.1 -719.4,-442.1 -719.4,-440.7 -719.4,-438.8 
		-719.4,-436.5 -719.4,-433.7 -719.4,-430.6 -719.4,-427.2 -719.4,-419.4 -719.4,-410.7 -719.4,-401.2 -719.4,-381 -719.4,-360.8 
		-719.4,-351.3 -719.4,-342.6 -719.4,-334.8 -719.4,-331.4 -719.4,-328.3 -719.4,-325.6 -719.4,-323.2 -719.4,-321.3 -719.4,-319.9 
		-719.4,-318.9 -719.4,-318.5 -719.4,-317.9 -719.6,-316.4 -720.4,-313.8 -721.7,-311.8 -723.4,-310.5 -725.2,-310.2 -726.2,-310.3 
		-728,-311.4 -729.5,-313.2 -730.4,-315.6 -730.8,-318.5 	"/>
</g>
<g id="SPLINE_41_">
	<polyline class="st0" points="-685.4,-318.5 -685.4,-318.8 -685.4,-319.6 -685.4,-320.9 -685.4,-322.7 -685.4,-324.9 
		-685.4,-327.5 -685.4,-330.5 -685.4,-333.8 -685.4,-337.5 -685.4,-341.4 -685.4,-350 -685.4,-359.4 -685.4,-369.4 -685.4,-389.8 
		-685.4,-399.8 -685.4,-409.4 -685.4,-418.2 -685.4,-426.2 -685.4,-429.7 -685.4,-432.9 -685.4,-435.7 -685.4,-438.2 -685.4,-440.2 
		-685.4,-441.8 -685.4,-442.9 -685.4,-443.5 -685.3,-444.8 -684.7,-447.5 -683.5,-449.7 -681.9,-451.2 -680,-451.9 -678,-451.5 
		-676.3,-450.2 -675,-448.2 -674.2,-445.6 -674.1,-444.2 -674.1,-443.5 -674.1,-443.1 -674.1,-442.1 -674.1,-440.7 -674.1,-438.8 
		-674.1,-436.5 -674.1,-433.7 -674.1,-430.6 -674.1,-427.2 -674.1,-419.4 -674.1,-410.7 -674.1,-401.2 -674.1,-381 -674.1,-360.8 
		-674.1,-351.3 -674.1,-342.6 -674.1,-334.8 -674.1,-331.4 -674.1,-328.3 -674.1,-325.6 -674.1,-323.2 -674.1,-321.3 -674.1,-319.9 
		-674.1,-318.9 -674.1,-318.5 -674.1,-317.9 -674.2,-316.4 -675,-313.8 -676.3,-311.8 -678,-310.5 -679.9,-310.2 -680.9,-310.3 
		-682.7,-311.4 -684.1,-313.2 -685.1,-315.6 -685.4,-318.5 	"/>
</g>
<g id="SPLINE_42_">
	<polyline class="st0" points="-753.4,-318.5 -753.4,-318.8 -753.4,-319.6 -753.4,-320.9 -753.4,-322.7 -753.4,-324.9 
		-753.4,-327.5 -753.4,-330.5 -753.4,-333.8 -753.4,-337.5 -753.4,-341.4 -753.4,-350 -753.4,-359.4 -753.4,-369.4 -753.4,-389.8 
		-753.4,-399.8 -753.4,-409.4 -753.4,-418.2 -753.4,-426.2 -753.4,-429.7 -753.4,-432.9 -753.4,-435.7 -753.4,-438.2 -753.4,-440.2 
		-753.4,-441.8 -753.4,-442.9 -753.4,-443.5 -753.4,-444.8 -752.7,-447.5 -751.6,-449.7 -750,-451.2 -748.1,-451.9 -746.1,-451.5 
		-744.4,-450.2 -743.1,-448.2 -742.3,-445.6 -742.1,-444.2 -742.1,-443.5 -742.1,-443.1 -742.1,-442.1 -742.1,-440.7 -742.1,-438.8 
		-742.1,-436.5 -742.1,-433.7 -742.1,-430.6 -742.1,-427.2 -742.1,-419.4 -742.1,-410.7 -742.1,-401.2 -742.1,-381 -742.1,-360.8 
		-742.1,-351.3 -742.1,-342.6 -742.1,-334.8 -742.1,-331.4 -742.1,-328.3 -742.1,-325.6 -742.1,-323.2 -742.1,-321.3 -742.1,-319.9 
		-742.1,-318.9 -742.1,-318.5 -742.1,-317.9 -742.3,-316.4 -743.1,-313.8 -744.4,-311.8 -746.1,-310.5 -747.9,-310.2 -748.9,-310.3 
		-750.7,-311.4 -752.1,-313.2 -753.1,-315.6 -753.4,-318.5 	"/>
</g>
<g id="SPLINE_43_">
	<polyline class="st0" points="-708.1,-318.5 -708.1,-318.8 -708.1,-319.6 -708.1,-320.9 -708.1,-322.7 -708.1,-324.9 
		-708.1,-327.5 -708.1,-330.5 -708.1,-333.8 -708.1,-337.5 -708.1,-341.4 -708.1,-350 -708.1,-359.4 -708.1,-369.4 -708.1,-389.8 
		-708.1,-399.8 -708.1,-409.4 -708.1,-418.2 -708.1,-426.2 -708.1,-429.7 -708.1,-432.9 -708.1,-435.7 -708.1,-438.2 -708.1,-440.2 
		-708.1,-441.8 -708.1,-442.9 -708.1,-443.5 -708,-444.8 -707.4,-447.5 -706.2,-449.7 -704.6,-451.2 -702.7,-451.9 -700.7,-451.5 
		-699,-450.2 -697.7,-448.2 -696.9,-445.6 -696.8,-444.2 -696.7,-443.5 -696.7,-443.1 -696.7,-442.1 -696.7,-440.7 -696.7,-438.8 
		-696.7,-436.5 -696.7,-433.7 -696.7,-430.6 -696.7,-427.2 -696.7,-419.4 -696.7,-410.7 -696.7,-401.2 -696.7,-381 -696.7,-360.8 
		-696.7,-351.3 -696.7,-342.6 -696.7,-334.8 -696.7,-331.4 -696.7,-328.3 -696.7,-325.6 -696.7,-323.2 -696.7,-321.3 -696.7,-319.9 
		-696.7,-318.9 -696.7,-318.5 -696.8,-317.9 -696.9,-316.4 -697.7,-313.8 -699,-311.8 -700.7,-310.5 -702.6,-310.2 -703.6,-310.3 
		-705.3,-311.4 -706.8,-313.2 -707.7,-315.6 -708.1,-318.5 	"/>
</g>
<g id="SPLINE_44_">
	<path class="st0" d="M-624.9-310.2c0-2.3,1.9-4.3,4.3-4.3c0,0,2.3,0,4.3,1.9c0,2.3,0,2.3,0,4.7c-1.9,1.9-4.3,1.9-4.3,1.9
		C-623-305.9-624.9-307.8-624.9-310.2z"/>
</g>
<g id="SPLINE_45_">
	<path class="st0" d="M-624.9-451.9c0-2.3,1.9-4.3,4.3-4.3c0,0,2.3,0,4.3,1.9c0,2.3,0,2.3,0,4.7c-1.9,1.9-4.3,1.9-4.3,1.9
		C-623-447.6-624.9-449.5-624.9-451.9z"/>
</g>
<g id="SPLINE_46_">
	<path class="st0" d="M-766.7-451.9c0-2.3,1.9-4.3,4.3-4.3c0,0,2.3,0,4.3,1.9c0,2.3,0,2.3,0,4.7c-1.9,1.9-4.3,1.9-4.3,1.9
		C-764.8-447.6-766.7-449.5-766.7-451.9z"/>
</g>
<g id="SPLINE_47_">
	<path class="st0" d="M-766.7-310.2c0-2.3,1.9-4.3,4.3-4.3c0,0,2.3,0,4.3,1.9c0,2.3,0,2.3,0,4.7c-1.9,1.9-4.3,1.9-4.3,1.9
		C-764.8-305.9-766.7-307.8-766.7-310.2z"/>
</g>
<g id="SPLINE_48_">
	<line class="st0" x1="-158.6" y1="-198.3" x2="-158.6" y2="-708.5"/>
</g>
<g id="SPLINE_49_">
	<polyline class="st0" points="-177.1,-742.6 -176.9,-742.6 -176.6,-742.6 -176.1,-742.6 -175.4,-742.6 -174.5,-742.6 
		-173.5,-742.6 -172.4,-742.6 -171.2,-742.6 -168.7,-742.6 -166.1,-742.6 -163.7,-742.6 -162.5,-742.6 -161.5,-742.6 -160.6,-742.6 
		-159.8,-742.6 -159.3,-742.6 -158.8,-742.6 -158.7,-742.6 -158.6,-742.6 -158.6,-742.7 -158.6,-742.9 -158.6,-743.3 -158.6,-743.7 
		-158.6,-744.2 -158.6,-744.8 -158.6,-745.5 -158.6,-746.2 -158.6,-747.9 -158.6,-749.8 -158.6,-751.9 -158.6,-754.1 -158.6,-756.4 
		-158.6,-761.2 -158.6,-763.5 -158.6,-765.8 -158.6,-768 -158.6,-770 -158.6,-771.8 -158.6,-773.4 -158.6,-774.1 -158.6,-774.7 
		-158.6,-775.3 -158.6,-775.7 -158.6,-776.1 -158.6,-776.4 -158.6,-776.5 -158.6,-776.6 	"/>
</g>
<g id="SPLINE_50_">
	<polyline class="st0" points="-158.6,-708.5 -158.8,-708.5 -159.1,-708.5 -159.6,-708.5 -160.3,-708.5 -161.2,-708.5 
		-162.2,-708.5 -163.3,-708.5 -164.5,-708.5 -167,-708.5 -169.6,-708.5 -172,-708.5 -173.2,-708.5 -174.2,-708.5 -175.1,-708.5 
		-175.9,-708.5 -176.5,-708.5 -176.9,-708.5 -177,-708.5 -177.1,-708.6 -177.1,-708.7 -177.1,-708.9 -177.1,-709.3 -177.1,-709.7 
		-177.1,-710.2 -177.1,-710.8 -177.1,-711.4 -177.1,-712.2 -177.1,-713.9 -177.1,-715.8 -177.1,-717.8 -177.1,-720.1 -177.1,-722.4 
		-177.1,-727.1 -177.1,-729.5 -177.1,-731.8 -177.1,-734 -177.1,-736 -177.1,-737.8 -177.1,-739.4 -177.1,-740.1 -177.1,-740.7 
		-177.1,-741.3 -177.1,-741.7 -177.1,-742.1 -177.1,-742.3 -177.1,-742.5 -177.1,-742.6 	"/>
</g>
<g id="SPLINE_51_">
	<polyline class="st0" points="-396.7,-266.3 -396.8,-266.3 -396.9,-266.3 -397.2,-266.3 -397.5,-266.3 -397.9,-266.3 
		-398.3,-266.3 -399.4,-266.3 -400.7,-266.3 -402.1,-266.3 -405.3,-266.3 -408.4,-266.3 -409.8,-266.3 -411.1,-266.3 -412.2,-266.3 
		-412.6,-266.3 -413,-266.3 -413.3,-266.3 -413.6,-266.3 -413.7,-266.3 -413.8,-266.3 -413.8,-266.2 -413.8,-266 -413.8,-265.5 
		-413.8,-264.9 -413.8,-264.1 -413.8,-263.2 -413.8,-262.2 -413.8,-261 -413.8,-259.8 -413.8,-258.5 -413.8,-255.6 -413.8,-252.5 
		-413.8,-249.3 -413.8,-246.2 -413.8,-243.1 -413.8,-240.2 -413.8,-238.9 -413.8,-237.6 -413.8,-236.5 -413.8,-235.5 -413.8,-234.6 
		-413.8,-233.8 -413.8,-233.2 -413.8,-232.7 -413.8,-232.4 -413.8,-232.3 -413.7,-232.3 -413.6,-232.3 -413.3,-232.3 -413,-232.3 
		-412.6,-232.3 -412.2,-232.3 -411.1,-232.3 -409.8,-232.3 -408.4,-232.3 -405.3,-232.3 -402.1,-232.3 -400.7,-232.3 -399.4,-232.3 
		-398.3,-232.3 -397.9,-232.3 -397.5,-232.3 -397.2,-232.3 -396.9,-232.3 -396.8,-232.3 -396.7,-232.3 	"/>
</g>
<g id="SPLINE_52_">
	<path class="st0" d="M-396.7-334.4h-17c0,0,0,0,0,34c17,0,17,0,17,0v34"/>
</g>
<g id="SPLINE_53_">
	<path class="st0" d="M-396.7-402.4h-17c0,0,0,0,0,34c17,0,17,0,17,0v34"/>
</g>
<g id="SPLINE_54_">
	<path class="st0" d="M-396.7-470.4h-17c0,0,0,0,0,34c17,0,17,0,17,0v34"/>
</g>
<g id="SPLINE_55_">
	<path class="st0" d="M-396.7-538.5h-17c0,0,0,0,0,34c17,0,17,0,17,0v34"/>
</g>
<g id="SPLINE_56_">
	<path class="st0" d="M-396.7-606.5h-17c0,0,0,0,0,34c17,0,17,0,17,0v34"/>
</g>
<g id="SPLINE_57_">
	<path class="st0" d="M-396.7-674.5h-17c0,0,0,0,0,34c17,0,17,0,17,0v34"/>
</g>
<g id="SPLINE_58_">
	<path class="st0" d="M-396.7-742.6h-17c0,0,0,0,0,34c17,0,17,0,17,0v34"/>
</g>
<g id="SPLINE_59_">
	<line class="st0" x1="-396.7" y1="-776.6" x2="-396.7" y2="-742.6"/>
</g>
<g id="SPLINE_60_">
	<path class="st0" d="M-294.7-776.6v-17c0,0,0,0,34,0c0,17,0,17,0,17h34"/>
</g>
<g id="SPLINE_61_">
	<path class="st0" d="M-226.7-776.6v-17c0,0,0,0,34,0c0,17,0,17,0,17h34"/>
</g>
<g id="SPLINE_62_">
	<path class="st0" d="M-362.7-776.6v-17c0,0,0,0,34,0c0,17,0,17,0,17h34"/>
</g>
<g id="SPLINE_63_">
	<line class="st0" x1="-396.7" y1="-776.6" x2="-362.7" y2="-776.6"/>
</g>
<g id="SPLINE_67_">
	<path class="st0" d="M476.3,281.3h17c0,0,0,0,0-34c-17,0-17,0-17,0V281.3z"/>
</g>
<g id="SPLINE_68_">
	<path class="st0" d="M476.3,349.3h17c0,0,0,0,0-34c-17,0-17,0-17,0V349.3z"/>
</g>
<g id="SPLINE_69_">
	<path class="st0" d="M476.3,417.3h17c0,0,0,0,0-34c-17,0-17,0-17,0V417.3z"/>
</g>
<g id="SPLINE_70_">
	<path class="st0" d="M476.3-58.9h17c0,0,0,0,0-34c-17,0-17,0-17,0V-58.9z"/>
</g>
<g id="SPLINE_71_">
	<path class="st0" d="M476.3,485.3h17c0,0,0,0,0-34c-17,0-17,0-17,0V485.3z"/>
</g>
<g id="SPLINE_72_">
	<path class="st0" d="M476.3,9.1h17c0,0,0,0,0-34c-17,0-17,0-17,0V9.1z"/>
</g>
<g id="SPLINE_73_">
	<path class="st0" d="M476.3,553.4h17c0,0,0,0,0-34c-17,0-17,0-17,0V553.4z"/>
</g>
<g id="SPLINE_74_">
	<path class="st0" d="M476.3,77.2h17c0,0,0,0,0-34c-17,0-17,0-17,0V77.2z"/>
</g>
<g id="SPLINE_75_">
	<path class="st0" d="M476.3,621.4h17c0,0,0,0,0-34c-17,0-17,0-17,0V621.4z"/>
</g>
<g id="SPLINE_76_">
	<path class="st0" d="M476.3,145.2h17c0,0,0,0,0-34c-17,0-17,0-17,0V145.2z"/>
</g>
<g id="SPLINE_77_">
	<path class="st0" d="M476.3,689.4h17c0,0,0,0,0-34c-17,0-17,0-17,0V689.4z"/>
</g>
<g id="SPLINE_78_">
	<path class="st0" d="M476.3,213.2h17c0,0,0,0,0-34c-17,0-17,0-17,0V213.2z"/>
</g>
<g id="SPLINE_79_">
	<path class="st0" d="M1056.4,281.3h-17c0,0,0,0,0-34c17,0,17,0,17,0V281.3z"/>
</g>
<g id="SPLINE_80_">
	<path class="st0" d="M1056.4,349.3h-17c0,0,0,0,0-34c17,0,17,0,17,0V349.3z"/>
</g>
<g id="SPLINE_81_">
	<path class="st0" d="M1056.4,417.3h-17c0,0,0,0,0-34c17,0,17,0,17,0V417.3z"/>
</g>
<g id="SPLINE_82_">
	<path class="st0" d="M1056.4-58.9h-17c0,0,0,0,0-34c17,0,17,0,17,0V-58.9z"/>
</g>
<g id="SPLINE_83_">
	<path class="st0" d="M1056.4,485.3h-17c0,0,0,0,0-34c17,0,17,0,17,0V485.3z"/>
</g>
<g id="SPLINE_84_">
	<path class="st0" d="M1056.4,9.1h-17c0,0,0,0,0-34c17,0,17,0,17,0V9.1z"/>
</g>
<g id="SPLINE_85_">
	<path class="st0" d="M1056.4,553.4h-17c0,0,0,0,0-34c17,0,17,0,17,0V553.4z"/>
</g>
<g id="SPLINE_86_">
	<path class="st0" d="M1056.4,77.2h-17c0,0,0,0,0-34c17,0,17,0,17,0V77.2z"/>
</g>
<g id="SPLINE_87_">
	<path class="st0" d="M1056.4,621.4h-17c0,0,0,0,0-34c17,0,17,0,17,0V621.4z"/>
</g>
<g id="SPLINE_88_">
	<path class="st0" d="M1056.4,145.2h-17c0,0,0,0,0-34c17,0,17,0,17,0V145.2z"/>
</g>
<g id="SPLINE_89_">
	<path class="st0" d="M1056.4,689.4h-17c0,0,0,0,0-34c17,0,17,0,17,0V689.4z"/>
</g>
<g id="SPLINE_90_">
	<path class="st0" d="M1056.4,213.2h-17c0,0,0,0,0-34c17,0,17,0,17,0V213.2z"/>
</g>
<g id="SPLINE_91_">
	<path class="st0" d="M987.3-143.7v17c0,0,0,0,34,0c0-17,0-17,0-17H987.3z"/>
</g>
<g id="SPLINE_92_">
	<path class="st0" d="M919.2-143.7v17c0,0,0,0,34,0c0-17,0-17,0-17H919.2z"/>
</g>
<g id="SPLINE_93_">
	<path class="st0" d="M851.2-143.7v17c0,0,0,0,34,0c0-17,0-17,0-17H851.2z"/>
</g>
<g id="SPLINE_94_">
	<path class="st0" d="M783.2-143.7v17c0,0,0,0,34,0c0-17,0-17,0-17H783.2z"/>
</g>
<g id="SPLINE_95_">
	<path class="st0" d="M715.1-143.7v17c0,0,0,0,34,0c0-17,0-17,0-17H715.1z"/>
</g>
<g id="SPLINE_96_">
	<path class="st0" d="M647.1-143.7v17c0,0,0,0,34,0c0-17,0-17,0-17H647.1z"/>
</g>
<g id="SPLINE_97_">
	<path class="st0" d="M579.1-143.7v17c0,0,0,0,34,0c0-17,0-17,0-17H579.1z"/>
</g>
<g id="SPLINE_98_">
	<path class="st0" d="M511-143.7v17c0,0,0,0,34,0c0-17,0-17,0-17H511z"/>
</g>
<g id="SPLINE_99_">
	<path class="st0" d="M853.6,570.4v17c0,0,0,0,34,0c0-17,0-17,0-17H853.6z"/>
</g>
<g id="SPLINE_100_">
	<path class="st0" d="M785.5,570.4v17c0,0,0,0,34,0c0-17,0-17,0-17H785.5z"/>
</g>
<g id="SPLINE_101_">
	<path class="st0" d="M717.5,570.4v17c0,0,0,0,34,0c0-17,0-17,0-17H717.5z"/>
</g>
<g id="SPLINE_102_">
	<path class="st0" d="M649.5,570.4v17c0,0,0,0,34,0c0-17,0-17,0-17H649.5z"/>
</g>
<g id="SPLINE_103_">
	<polyline class="st0" points="454.6,261.5 454.6,259.1 454.6,252.3 454.6,241.5 454.6,227.2 454.6,209.8 454.6,189.9 454.6,167.8 
		454.6,144 454.6,93.2 454.6,41.2 454.6,-8.4 454.6,-31.1 454.6,-51.9 454.6,-70.1 454.6,-85.5 454.6,-97.5 454.6,-105.7 
		454.6,-109.6 454.6,-110.6 454.7,-112.8 455.8,-121.3 461.5,-136.8 471.3,-149.9 484.3,-159.7 499.9,-165.4 517,-166.6 522,-166.6 
		528.3,-166.6 544.8,-166.6 565.9,-166.6 591,-166.6 619.5,-166.6 650.7,-166.6 684,-166.6 718.8,-166.6 790.3,-166.6 860.1,-166.6 
		892.8,-166.6 923.2,-166.6 950.6,-166.6 974.4,-166.6 994.1,-166.6 1002.2,-166.6 1008.9,-166.6 1014.3,-166.6 1018.3,-166.6 
		1020.7,-166.6 1021.5,-166.6 1030.1,-165.9 1038.3,-164 1053.2,-156.9 1065.2,-145.9 1073.8,-131.9 1076.4,-124 1077.9,-115.7 
		1078.2,-111.3 1078.2,-109.9 1078.2,-109.6 1078.2,-105.7 1078.2,-97.5 1078.2,-85.5 1078.2,-70.1 1078.2,-51.9 1078.2,-31.1 
		1078.2,-8.4 1078.2,41.2 1078.2,93.2 1078.2,144 1078.2,167.8 1078.2,189.9 1078.2,209.8 1078.2,227.2 1078.2,241.5 1078.2,252.3 
		1078.2,259.1 1078.2,261.5 	"/>
</g>
<g id="SPLINE_104_">
	<line class="st0" x1="1078.2" y1="261.5" x2="1078.2" y2="757.9"/>
</g>
<g id="SPLINE_105_">
	<line class="st0" x1="454.6" y1="261.5" x2="454.6" y2="723.9"/>
</g>
<g id="SPLINE_106_">
	<path class="st0" d="M649.6-82.1c3.1,0,5.7,2.5,5.7,5.7c0,0,0,3.1-2.5,5.7c-3.1,0-3.1,0-6.3,0c-2.5-2.5-2.5-5.7-2.5-5.7
		C643.9-79.6,646.4-82.1,649.6-82.1z"/>
</g>
<g id="SPLINE_107_">
	<path class="st0" d="M649.6,104.9c3.1,0,5.7,2.5,5.7,5.7c0,0,0,3.1-2.5,5.7c-3.1,0-3.1,0-6.3,0c-2.5-2.5-2.5-5.7-2.5-5.7
		C643.9,107.5,646.4,104.9,649.6,104.9z"/>
</g>
<g id="SPLINE_108_">
	<path class="st0" d="M865-82.1c3.1,0,5.7,2.5,5.7,5.7c0,0,0,3.1-2.5,5.7c-3.1,0-3.1,0-6.3,0c-2.5-2.5-2.5-5.7-2.5-5.7
		C859.3-79.6,861.9-82.1,865-82.1z"/>
</g>
<g id="SPLINE_110_">
	<path class="st0" d="M865,104.9c3.1,0,5.7,2.5,5.7,5.7c0,0,0,3.1-2.5,5.7c-3.1,0-3.1,0-6.3,0c-2.5-2.5-2.5-5.7-2.5-5.7
		C859.3,107.5,861.9,104.9,865,104.9z"/>
</g>
<g id="SPLINE_121_">
	<path class="st0" d="M1661.8,102.9l-17,0c0,0,0,0,0-34c17,0,17,0,17,0l0-34"/>
</g>
<g id="SPLINE_122_">
	<path class="st0" d="M1661.8,170.9l-17,0c0,0,0,0,0-34c17,0,17,0,17,0l0-34"/>
</g>
<g id="SPLINE_123_">
	<path class="st0" d="M1661.7,238.9l-17,0c0,0,0,0,0-34c17,0,17,0,17,0l0-34"/>
</g>
<g id="SPLINE_124_">
	<line class="st0" x1="1661.7" y1="238.9" x2="1661.7" y2="272.9"/>
</g>
<g id="SPLINE_125_">
	<path class="st0" d="M1081.7,91.3l33.9-3.2c0,0,0,0,1.6,16.9c33.9-3.2,33.9-3.2,33.9-3.2l-1.6-16.9"/>
</g>
<g id="SPLINE_126_">
	<polyline class="st0" points="1149.4,84.8 1150.4,84.7 1153.3,84.4 1157.9,84 1164.2,83.4 1172.1,82.6 1181.4,81.7 1192.1,80.6 
		1204,79.5 1231,76.8 1261.6,73.8 1295,70.6 1330.3,67.1 1402.9,60 1438.6,56.5 1472.6,53.2 1504.1,50.1 1532.3,47.4 1544.8,46.1 
		1556.2,45 1566.3,44 1575,43.2 1582.2,42.5 1587.8,41.9 1591.7,41.5 1593.8,41.3 1594.1,41.7 1594.5,45.2 1595.5,55.6 1595.7,58.2 
		1596.3,58.2 1598.8,57.9 1607.7,57.1 1618.4,56.1 1623.1,55.6 1626.7,55.3 1628.7,55.1 1628.9,55.1 1629.2,55 1629.6,55 
		1629.5,53.9 1629.1,49.6 1628.1,39.6 1628,38.1 1629.4,37.9 1632.7,37.6 1637.2,37.2 1648,36.1 1657.7,35.2 1660.7,34.9 
		1661.8,34.8 	"/>
</g>
<g id="SPLINE_127_">
	<path class="st0" d="M1081.7,159.3l17,0c0,0,0,0,0-34c-17,0-17,0-17,0l0-34"/>
</g>
<g id="SPLINE_128_">
	<path class="st0" d="M1081.7,227.4l17,0c0,0,0,0,0-34c-17,0-17,0-17,0l0-34"/>
</g>
<g id="SPLINE_129_">
	<line class="st0" x1="1081.6" y1="261.4" x2="1081.7" y2="227.4"/>
</g>
<g id="SPLINE_130_">
	<path class="st0" d="M1558.5,272.9l0,17c0,0,0,0-34,0c0-17,0-17,0-17l-34,0"/>
</g>
<g id="SPLINE_131_">
	<path class="st0" d="M1626.5,272.9l0,17c0,0,0,0-34,0c0-17,0-17,0-17l-34,0"/>
</g>
<g id="SPLINE_132_">
	<line class="st0" x1="1661.7" y1="272.9" x2="1626.5" y2="272.9"/>
</g>
<g id="SPLINE_133_">
	<path class="st0" d="M1490.5,272.8l0,17c0,0,0,0-34,0c0-17,0-17,0-17l-34,0"/>
</g>
<g id="SPLINE_134_">
	<path class="st0" d="M1422.4,272.8l0,17c0,0,0,0-34,0c0-17,0-17,0-17l-34,0"/>
</g>
<g id="SPLINE_135_">
	<path class="st0" d="M1354.4,272.8l0,17c0,0,0,0-34,0c0-17,0-17,0-17l-30.9,0"/>
</g>
<g id="SPLINE_136_">
	<path class="st0" d="M1286.4,272.8l0,17c0,0,0,0-34,0c0-17,0-17,0-17l-30.9,0"/>
</g>
<g id="SPLINE_137_">
	<path class="st0" d="M1218.3,272.7l0,17c0,0,0,0-34,0c0-17,0-17,0-17l-30.9,0"/>
</g>
<g id="SPLINE_138_">
	<path class="st0" d="M1150.3,272.7l0,17c0,0,0,0-34,0c0-17,0-17,0-17l-27,0"/>
</g>
<g id="SPLINE_139_">
	<line class="st0" x1="1081.7" y1="261.8" x2="1081.6" y2="273.1"/>
</g>
<g id="SPLINE_140_">
	<line class="st0" x1="1089.3" y1="272.7" x2="1081.6" y2="272.7"/>
</g>
<g id="SPLINE_141_">
	<line class="st0" x1="1153.4" y1="272.7" x2="1150.3" y2="272.7"/>
</g>
<g id="SPLINE_142_">
	<line class="st0" x1="1221.5" y1="272.7" x2="1218.3" y2="272.7"/>
</g>
<g id="SPLINE_143_">
	<line class="st0" x1="1289.5" y1="272.8" x2="1286.4" y2="272.8"/>
</g>
<g id="SPLINE_144_">
	<polyline class="st0" points="1461.2,121.9 1460.9,122 1459.8,122.1 1458,122.2 1455.6,122.5 1452.6,122.8 1449.1,123.1 
		1440.5,124 1430.2,125 1418.5,126.1 1405.8,127.3 1392.4,128.6 1364.7,131.3 1351.2,132.7 1338.2,133.9 1326.2,135.1 1315.5,136.1 
		1306.4,137 1302.5,137.4 1299.2,137.7 1296.5,138 1294.4,138.2 1292.9,138.4 1292.1,138.4 1292,138.4 1291.3,138.5 1289.7,138.7 
		1286.6,139.3 1280.8,141.2 1275.5,143.8 1270.8,147.2 1266.8,151.2 1263.6,155.6 1261.3,160.6 1259.9,165.8 1259.6,171.3 
		1260.4,176.8 1262.2,182 1265,186.7 1268.5,190.8 1272.8,194.3 1277.8,197.1 1283.2,199.2 1289.1,200.4 1295.3,200.7 1296.9,200.6 
		1297.7,200.5 1298,200.5 1298.6,200.4 1299.9,200.3 1301.9,200.1 1304.4,199.9 1307.6,199.6 1311.3,199.2 1320.1,198.4 
		1330.6,197.3 1342.5,196.2 1355.3,194.9 1382.6,192.3 1410,189.6 1422.8,188.3 1434.6,187.2 1445.2,186.2 1454,185.3 1457.7,184.9 
		1460.9,184.6 1463.4,184.4 1465.4,184.2 1466.7,184.1 1467.3,184 1467.6,184 1468.4,183.9 1470,183.6 1476,182.2 1481.5,179.8 
		1486.5,176.8 1490.8,173.1 1494.3,168.8 1497,164 1498.8,158.9 1499.6,153.5 1499.6,150.7 1499.5,149.4 1499.4,148.7 1498.2,143.3 
		1496,138.4 1492.9,133.9 1488.9,130.1 1484.4,126.8 1479.2,124.3 1473.5,122.6 1467.5,121.8 1461.2,121.9 	"/>
</g>
<g id="SPLINE_145_">
	<path class="st0" d="M1081.7,19.6l17,0c0,0,0,0,0,34c-17,0-17,0-17,0l0,34"/>
</g>
<g id="SPLINE_146_">
	<path class="st0" d="M1081.8-48.4l17,0c0,0,0,0,0,34c-17,0-17,0-17,0l0,34"/>
</g>
<g id="SPLINE_147_">
	<path class="st0" d="M1081.8-116.5l17,0c0,0,0,0,0,34c-17,0-17,0-17,0l0,34"/>
</g>
<g id="SPLINE_148_">
	<line class="st0" x1="1081.8" y1="-116.5" x2="1081.8" y2="-150.5"/>
</g>
<g id="SPLINE_149_">
	<path class="st0" d="M1661.8,31.1l-33.9,3.2c0,0,0,0-1.6-16.9c-33.9,3.2-33.9,3.2-33.9,3.2l1.6,16.9"/>
</g>
<g id="SPLINE_150_">
	<polyline class="st0" points="1594.1,37.6 1593.1,37.7 1590.2,38 1585.6,38.5 1579.3,39.1 1571.4,39.8 1562.1,40.8 1551.4,41.8 
		1539.6,43 1512.5,45.6 1481.9,48.6 1448.5,51.9 1413.2,55.3 1340.6,62.4 1304.9,65.9 1270.9,69.2 1239.4,72.3 1211.3,75.1 
		1198.7,76.3 1187.3,77.4 1177.2,78.4 1168.5,79.3 1161.3,80 1155.7,80.5 1151.8,80.9 1149.8,81.1 1149.4,80.7 1149.1,77.2 
		1148.1,66.8 1147.8,64.2 1147.2,64.3 1144.7,64.5 1135.8,65.3 1125.1,66.4 1120.4,66.8 1116.8,67.2 1114.8,67.4 1114.6,67.4 
		1114.3,67.4 1114,67.4 1114.1,68.6 1114.5,72.8 1115.4,82.8 1115.5,84.4 1114.1,84.5 1110.9,84.8 1106.3,85.3 1095.5,86.3 
		1085.9,87.2 1082.8,87.5 1081.7,87.6 	"/>
</g>
<g id="SPLINE_151_">
	<path class="st0" d="M1661.8-36.9l-17,0c0,0,0,0,0,34c17,0,17,0,17,0l0,34"/>
</g>
<g id="SPLINE_152_">
	<path class="st0" d="M1661.9-104.9l-17,0c0,0,0,0,0,34c17,0,17,0,17,0l0,34"/>
</g>
<g id="SPLINE_153_">
	<line class="st0" x1="1661.9" y1="-138.9" x2="1661.9" y2="-104.9"/>
</g>
<g id="SPLINE_154_">
	<path class="st0" d="M1185-150.4l0-17c0,0,0,0,34,0c0,17,0,17,0,17l34,0"/>
</g>
<g id="SPLINE_155_">
	<path class="st0" d="M1117-150.5l0-17c0,0,0,0,34,0c0,17,0,17,0,17l34,0"/>
</g>
<g id="SPLINE_156_">
	<line class="st0" x1="1081.8" y1="-150.5" x2="1117" y2="-150.5"/>
</g>
<g id="SPLINE_157_">
	<path class="st0" d="M1253.1-150.4l0-17c0,0,0,0,34,0c0,17,0,17,0,17l34,0"/>
</g>
<g id="SPLINE_158_">
	<path class="st0" d="M1321.1-150.4l0-17c0,0,0,0,34,0c0,17,0,17,0,17l34,0"/>
</g>
<g id="SPLINE_159_">
	<path class="st0" d="M1389.1-150.4l0-17c0,0,0,0,34,0c0,17,0,17,0,17l30.9,0"/>
</g>
<g id="SPLINE_160_">
	<path class="st0" d="M1457.2-150.3l0-17c0,0,0,0,34,0c0,17,0,17,0,17l30.9,0"/>
</g>
<g id="SPLINE_161_">
	<path class="st0" d="M1525.2-150.3l0-17c0,0,0,0,34,0c0,17,0,17,0,17l30.9,0"/>
</g>
<g id="SPLINE_162_">
	<path class="st0" d="M1593.2-150.3l0-17c0,0,0,0,34,0c0,17,0,17,0,17l27,0"/>
</g>
<g id="SPLINE_163_">
	<line class="st0" x1="1661.9" y1="-139.3" x2="1661.9" y2="-150.6"/>
</g>
<g id="SPLINE_164_">
	<line class="st0" x1="1654.3" y1="-150.3" x2="1661.9" y2="-150.3"/>
</g>
<g id="SPLINE_165_">
	<line class="st0" x1="1590.1" y1="-150.3" x2="1593.2" y2="-150.3"/>
</g>
<g id="SPLINE_166_">
	<line class="st0" x1="1522.1" y1="-150.3" x2="1525.2" y2="-150.3"/>
</g>
<g id="SPLINE_167_">
	<line class="st0" x1="1454" y1="-150.3" x2="1457.2" y2="-150.3"/>
</g>
<g id="SPLINE_168_">
	<polyline class="st0" points="1282.3,0.5 1282.7,0.5 1283.7,0.4 1285.5,0.2 1287.9,0 1290.9,-0.3 1294.5,-0.7 1303,-1.5 
		1313.3,-2.5 1325,-3.7 1337.7,-4.9 1351.1,-6.2 1378.8,-8.9 1392.4,-10.2 1405.3,-11.5 1417.3,-12.7 1428,-13.7 1437.1,-14.6 
		1441,-15 1444.3,-15.3 1447,-15.6 1449.2,-15.8 1450.6,-15.9 1451.4,-16 1451.6,-16 1452.2,-16.1 1453.8,-16.3 1456.9,-16.9 
		1462.7,-18.7 1468,-21.4 1472.7,-24.7 1476.7,-28.7 1479.9,-33.2 1482.2,-38.1 1483.6,-43.4 1483.9,-48.9 1483.1,-54.4 
		1481.3,-59.5 1478.6,-64.2 1475,-68.4 1470.7,-71.9 1465.7,-74.7 1460.3,-76.7 1454.4,-78 1448.2,-78.2 1446.6,-78.2 1445.8,-78.1 
		1445.5,-78.1 1444.9,-78 1443.6,-77.9 1441.7,-77.7 1439.1,-77.4 1435.9,-77.1 1432.2,-76.8 1423.4,-75.9 1412.9,-74.9 1401,-73.7 
		1388.2,-72.5 1360.9,-69.8 1333.5,-67.1 1320.7,-65.9 1308.9,-64.7 1298.4,-63.7 1289.5,-62.9 1285.8,-62.5 1282.7,-62.2 
		1280.1,-61.9 1278.1,-61.7 1276.8,-61.6 1276.3,-61.6 1275.9,-61.5 1275.1,-61.4 1273.5,-61.2 1267.5,-59.7 1262,-57.4 1257,-54.3 
		1252.7,-50.6 1249.2,-46.3 1246.5,-41.6 1244.7,-36.5 1243.9,-31.1 1243.9,-28.3 1244,-27 1244.1,-26.3 1245.3,-20.9 1247.5,-15.9 
		1250.7,-11.5 1254.6,-7.6 1259.2,-4.4 1264.3,-1.9 1270,-0.2 1276,0.6 1282.3,0.5 	"/>
</g>
<g id="SPLINE_169_">
	<polyline class="st0" points="1333.3,-352.1 1333.7,-352.1 1334.8,-352.2 1336.7,-352.4 1339.3,-352.7 1342.5,-353 1346.3,-353.4 
		1350.6,-353.8 1355.4,-354.3 1366.4,-355.4 1378.8,-356.6 1392.4,-358 1406.7,-359.4 1436.2,-362.4 1450.7,-363.8 1464.5,-365.2 
		1477.3,-366.5 1488.7,-367.6 1493.8,-368.1 1498.4,-368.6 1502.5,-369 1506,-369.3 1509,-369.6 1511.2,-369.9 1512.8,-370 
		1513.7,-370.1 1514.2,-370.1 1515.2,-370.2 1517.3,-370.2 1521.1,-369.6 1524.8,-368.5 1528.2,-366.7 1531.2,-364.4 1533.8,-361.6 
		1536,-358.4 1537.5,-354.8 1538.5,-351 1538.7,-346.9 1538.3,-343 1537.2,-339.3 1535.5,-335.8 1533.2,-332.8 1530.5,-330.1 
		1527.4,-327.9 1523.9,-326.3 1520,-325.2 1518.3,-325 1517.6,-324.9 1516.3,-324.8 1514.2,-324.6 1511.4,-324.3 1508.1,-324 
		1504.1,-323.6 1499.7,-323.1 1494.7,-322.6 1483.5,-321.5 1470.9,-320.2 1457.2,-318.9 1428,-316 1398.9,-313.1 1385.2,-311.7 
		1372.6,-310.4 1361.4,-309.3 1356.4,-308.8 1351.9,-308.4 1348,-308 1344.6,-307.6 1341.9,-307.4 1339.8,-307.2 1338.4,-307 
		1337.8,-307 1336,-306.8 1332.1,-307.1 1328.3,-308 1324.8,-309.6 1321.6,-311.6 1318.8,-314.2 1316.5,-317.2 1314.6,-320.7 
		1313.4,-324.4 1313.1,-326.4 1312.9,-327.9 1313,-331.9 1313.7,-335.7 1315.1,-339.3 1317,-342.6 1319.4,-345.5 1322.3,-348 
		1325.6,-349.9 1329.3,-351.3 1333.3,-352.1 	"/>
</g>
<g id="SPLINE_170_">
	<path class="st0" d="M1524.9-352.7c2.3-0.2,4.4,1.5,4.7,3.8c0,0,0.2,2.3-1.5,4.4c-2.3,0.2-2.3,0.2-4.7,0.5c-2.1-1.7-2.3-4-2.3-4
		C1520.9-350.4,1522.6-352.5,1524.9-352.7z"/>
</g>
<g id="SPLINE_171_">
	<path class="st0" d="M1326.6-324.4c-2.3,0.2-4.4-1.5-4.7-3.8c0,0-0.2-2.3,1.5-4.4c2.3-0.2,2.3-0.2,4.7-0.5c2.1,1.7,2.3,4,2.3,4
		C1330.7-326.7,1329-324.6,1326.6-324.4z"/>
</g>
<g id="SPLINE_172_">
	<polyline class="st0" points="1512.7,-359.2 1512.7,-359.2 1512.7,-359 1512.8,-358.8 1512.8,-358.5 1512.8,-358.1 1512.9,-357.6 
		1513,-356.5 1513.1,-355.1 1513.3,-353.5 1513.4,-351.8 1513.6,-350 1514,-346.4 1514.2,-344.5 1514.3,-342.8 1514.5,-341.2 
		1514.7,-339.8 1514.8,-338.6 1514.8,-338.1 1514.9,-337.6 1514.9,-337.3 1514.9,-337 1515,-336.8 1515,-336.7 1515,-336.7 
		1515,-336.5 1515,-336.3 1515,-335.8 1514.8,-334.8 1514.6,-333.9 1514.1,-333 1513.5,-332.3 1512.8,-331.6 1512,-331.1 
		1511.1,-330.7 1510.2,-330.5 1509.2,-330.4 1508.2,-330.5 1507.3,-330.8 1506.4,-331.2 1505.6,-331.8 1505,-332.5 1504.4,-333.3 
		1504,-334.1 1503.7,-335.1 1503.7,-335.3 1503.7,-335.5 1503.7,-335.5 1503.7,-335.6 1503.7,-335.8 1503.6,-336 1503.6,-336.4 
		1503.6,-336.8 1503.5,-337.3 1503.4,-338.5 1503.2,-339.9 1503.1,-341.5 1502.9,-343.2 1502.6,-346.8 1502.2,-350.5 1502,-352.2 
		1501.9,-353.7 1501.7,-355.1 1501.6,-356.3 1501.6,-356.8 1501.5,-357.2 1501.5,-357.6 1501.5,-357.8 1501.4,-358 1501.4,-358.1 
		1501.4,-358.1 1501.4,-358.3 1501.4,-358.5 1501.5,-359.5 1501.7,-360.5 1502.1,-361.3 1502.6,-362.1 1503.2,-362.8 1504,-363.4 
		1504.9,-363.9 1505.8,-364.2 1506.3,-364.3 1506.5,-364.3 1506.7,-364.3 1507.7,-364.3 1508.6,-364.1 1509.5,-363.8 1510.3,-363.3 
		1511.1,-362.7 1511.7,-362 1512.2,-361.1 1512.5,-360.2 1512.7,-359.2 	"/>
</g>
<g id="SPLINE_173_">
	<polyline class="st0" points="1471.7,-355.1 1471.7,-355.1 1471.7,-354.9 1471.7,-354.7 1471.7,-354.4 1471.8,-354 1471.8,-353.5 
		1471.9,-352.4 1472.1,-351 1472.2,-349.4 1472.4,-347.7 1472.6,-345.9 1472.9,-342.3 1473.1,-340.4 1473.3,-338.7 1473.5,-337.1 
		1473.6,-335.7 1473.7,-334.5 1473.8,-334 1473.8,-333.5 1473.9,-333.2 1473.9,-332.9 1473.9,-332.7 1473.9,-332.6 1473.9,-332.6 
		1473.9,-332.4 1473.9,-332.2 1473.9,-331.7 1473.8,-330.7 1473.5,-329.8 1473.1,-329 1472.5,-328.2 1471.8,-327.5 1471,-327 
		1470.1,-326.6 1469.1,-326.4 1468.1,-326.3 1467.1,-326.4 1466.2,-326.7 1465.4,-327.1 1464.6,-327.7 1463.9,-328.4 1463.4,-329.2 
		1463,-330 1462.7,-331 1462.7,-331.2 1462.6,-331.4 1462.6,-331.4 1462.6,-331.5 1462.6,-331.7 1462.6,-331.9 1462.5,-332.3 
		1462.5,-332.7 1462.5,-333.2 1462.3,-334.4 1462.2,-335.8 1462,-337.4 1461.9,-339.1 1461.5,-342.7 1461.1,-346.4 1461,-348.1 
		1460.8,-349.6 1460.7,-351 1460.6,-352.2 1460.5,-352.7 1460.5,-353.1 1460.4,-353.5 1460.4,-353.7 1460.4,-353.9 1460.4,-354 
		1460.4,-354 1460.4,-354.2 1460.4,-354.4 1460.4,-355.4 1460.6,-356.4 1461,-357.2 1461.6,-358 1462.2,-358.7 1463,-359.3 
		1463.8,-359.8 1464.7,-360.1 1465.2,-360.2 1465.5,-360.2 1465.6,-360.2 1466.6,-360.2 1467.6,-360 1468.5,-359.7 1469.3,-359.2 
		1470,-358.6 1470.6,-357.9 1471.1,-357 1471.5,-356.1 1471.7,-355.1 	"/>
</g>
<g id="SPLINE_174_">
	<polyline class="st0" points="1389.7,-346.9 1389.7,-346.9 1389.8,-346.7 1389.8,-346.5 1389.8,-346.2 1389.9,-345.8 
		1389.9,-345.3 1390,-344.2 1390.2,-342.8 1390.3,-341.2 1390.5,-339.6 1390.7,-337.8 1391,-334.1 1391.2,-332.3 1391.4,-330.5 
		1391.5,-328.9 1391.7,-327.5 1391.8,-326.3 1391.9,-325.8 1391.9,-325.3 1391.9,-325 1392,-324.7 1392,-324.5 1392,-324.4 
		1392,-324.4 1392,-324.3 1392,-324 1392,-323.5 1391.9,-322.5 1391.6,-321.6 1391.1,-320.8 1390.6,-320 1389.9,-319.4 
		1389.1,-318.8 1388.2,-318.4 1387.2,-318.2 1386.2,-318.1 1385.2,-318.3 1384.3,-318.5 1383.4,-319 1382.7,-319.5 1382,-320.2 
		1381.4,-321 1381,-321.9 1380.8,-322.8 1380.7,-323.1 1380.7,-323.2 1380.7,-323.3 1380.7,-323.3 1380.7,-323.5 1380.7,-323.8 
		1380.6,-324.1 1380.6,-324.5 1380.5,-325 1380.4,-326.2 1380.3,-327.6 1380.1,-329.2 1379.9,-330.9 1379.6,-334.5 1379.2,-338.2 
		1379.1,-339.9 1378.9,-341.5 1378.8,-342.9 1378.6,-344 1378.6,-344.5 1378.5,-345 1378.5,-345.3 1378.5,-345.6 1378.5,-345.7 
		1378.5,-345.8 1378.5,-345.9 1378.4,-346 1378.4,-346.3 1378.5,-347.2 1378.7,-348.2 1379.1,-349.1 1379.6,-349.9 1380.3,-350.6 
		1381,-351.1 1381.9,-351.6 1382.8,-351.9 1383.3,-352 1383.6,-352 1383.7,-352 1384.7,-352 1385.6,-351.8 1386.5,-351.5 
		1387.4,-351 1388.1,-350.4 1388.7,-349.7 1389.2,-348.8 1389.6,-347.9 1389.7,-346.9 	"/>
</g>
<g id="SPLINE_175_">
	<polyline class="st0" points="1348.7,-342.8 1348.7,-342.8 1348.7,-342.6 1348.7,-342.4 1348.8,-342.1 1348.8,-341.7 
		1348.9,-341.2 1349,-340.1 1349.1,-338.7 1349.3,-337.1 1349.4,-335.5 1349.6,-333.7 1350,-330 1350.2,-328.2 1350.3,-326.4 
		1350.5,-324.8 1350.6,-323.4 1350.8,-322.2 1350.8,-321.7 1350.9,-321.2 1350.9,-320.9 1350.9,-320.6 1350.9,-320.4 1350.9,-320.3 
		1350.9,-320.3 1351,-320.2 1351,-319.9 1351,-319.4 1350.8,-318.4 1350.5,-317.5 1350.1,-316.7 1349.5,-315.9 1348.8,-315.3 
		1348,-314.7 1347.1,-314.3 1346.2,-314.1 1345.1,-314 1344.2,-314.2 1343.2,-314.4 1342.4,-314.9 1341.6,-315.4 1340.9,-316.1 
		1340.4,-316.9 1340,-317.8 1339.7,-318.7 1339.7,-319 1339.7,-319.1 1339.7,-319.2 1339.7,-319.2 1339.6,-319.4 1339.6,-319.7 
		1339.6,-320 1339.5,-320.4 1339.5,-320.9 1339.4,-322.1 1339.2,-323.5 1339.1,-325.1 1338.9,-326.8 1338.5,-330.4 1338.2,-334.1 
		1338,-335.8 1337.8,-337.4 1337.7,-338.8 1337.6,-339.9 1337.5,-340.4 1337.5,-340.9 1337.5,-341.2 1337.4,-341.5 1337.4,-341.6 
		1337.4,-341.7 1337.4,-341.8 1337.4,-341.9 1337.4,-342.2 1337.4,-343.1 1337.7,-344.1 1338.1,-345 1338.6,-345.8 1339.2,-346.5 
		1340,-347 1340.8,-347.5 1341.8,-347.8 1342.3,-347.9 1342.5,-347.9 1342.6,-347.9 1343.6,-347.9 1344.6,-347.7 1345.5,-347.4 
		1346.3,-346.9 1347,-346.3 1347.7,-345.6 1348.2,-344.7 1348.5,-343.8 1348.7,-342.8 	"/>
</g>
<g id="SPLINE_176_">
	<polyline class="st0" points="1217.3,-275.1 1213.2,-275 1209.4,-275.6 1205.7,-276.8 1202.3,-278.6 1199.3,-281 1196.8,-283.8 
		1194.7,-287 1193.1,-290.6 1192.2,-294.5 1192,-298.5 1192.5,-302.4 1193.7,-306.1 1195.4,-309.5 1197.6,-312.6 1200.4,-315.2 
		1203.5,-317.4 1207.1,-319 1211,-320 1212,-320.2 1212.2,-320.2 1212.6,-320.2 1213.1,-320.3 1214.9,-320.5 1217.5,-320.8 
		1220.7,-321.2 1224.5,-321.6 1228.7,-322.1 1233.2,-322.6 1242.7,-323.7 1252,-324.7 1256.4,-325.2 1260.3,-325.7 1263.8,-326.1 
		1266.7,-326.4 1268.8,-326.7 1269.6,-326.8 1270.1,-326.8 1270.8,-326.9 1272.8,-327 1276.8,-326.7 1280.5,-325.8 1284,-324.2 
		1287.2,-322.1 1290,-319.5 1292.3,-316.4 1294.1,-313 1295.2,-309.2 1295.7,-305.2 1295.5,-301.2 1294.7,-297.4 1293.2,-293.9 
		1291.2,-290.6 1288.6,-287.8 1285.6,-285.4 1282.2,-283.6 1278.5,-282.3 1276.5,-281.9 1275.7,-281.8 1275.6,-281.8 1275.3,-281.8 
		1274.8,-281.7 1273.2,-281.5 1270.7,-281.2 1267.5,-280.9 1263.8,-280.4 1259.7,-280 1255.2,-279.5 1250.6,-278.9 1241,-277.8 
		1236.4,-277.3 1232,-276.8 1228,-276.3 1224.4,-275.9 1221.5,-275.6 1219.2,-275.3 1218.4,-275.2 1217.8,-275.2 1217.4,-275.1 
		1217.3,-275.1 	"/>
</g>
<g id="SPLINE_177_">
	<path class="st0" d="M1205.8-292.9c-2.3,0.3-4.4-1.4-4.7-3.7c0,0-0.3-2.3,1.4-4.4c2.3-0.3,2.3-0.3,4.7-0.5c2.1,1.7,2.4,4,2.4,4
		C1209.8-295.3,1208.1-293.2,1205.8-292.9z"/>
</g>
<g id="SPLINE_178_">
	<path class="st0" d="M1281.8-310.2c2.3-0.3,4.4,1.4,4.7,3.7c0,0,0.3,2.3-1.4,4.4c-2.3,0.3-2.3,0.3-4.7,0.5c-2.1-1.7-2.4-4-2.4-4
		C1277.8-307.8,1279.5-309.9,1281.8-310.2z"/>
</g>
<g id="SPLINE_179_">
	<polyline class="st0" points="1268.7,-315.8 1268.7,-315.8 1268.7,-315.6 1268.7,-315.4 1268.7,-315.1 1268.8,-314.7 
		1268.8,-314.2 1269,-313 1269.1,-311.7 1269.3,-310.1 1269.5,-308.4 1269.7,-306.6 1270.1,-303 1270.3,-301.1 1270.5,-299.4 
		1270.7,-297.8 1270.9,-296.4 1271,-295.2 1271.1,-294.7 1271.1,-294.2 1271.2,-293.9 1271.2,-293.6 1271.2,-293.4 1271.2,-293.3 
		1271.2,-293.3 1271.2,-293.2 1271.3,-292.9 1271.3,-292.4 1271.1,-291.4 1270.9,-290.5 1270.4,-289.7 1269.9,-288.9 1269.2,-288.2 
		1268.4,-287.7 1267.5,-287.3 1266.5,-287 1265.5,-287 1264.5,-287.1 1263.6,-287.3 1262.7,-287.7 1262,-288.3 1261.3,-288.9 
		1260.7,-289.7 1260.3,-290.6 1260,-291.5 1260,-291.8 1260,-291.9 1260,-292 1260,-292.1 1259.9,-292.2 1259.9,-292.5 
		1259.9,-292.8 1259.8,-293.3 1259.8,-293.7 1259.6,-294.9 1259.5,-296.3 1259.3,-297.9 1259.1,-299.6 1258.7,-303.2 1258.3,-306.9 
		1258.1,-308.6 1257.9,-310.2 1257.7,-311.6 1257.6,-312.7 1257.5,-313.2 1257.5,-313.7 1257.5,-314 1257.4,-314.3 1257.4,-314.4 
		1257.4,-314.5 1257.4,-314.6 1257.4,-314.7 1257.4,-314.9 1257.4,-315.9 1257.6,-316.9 1258,-317.8 1258.5,-318.6 1259.1,-319.3 
		1259.9,-319.9 1260.7,-320.3 1261.7,-320.7 1262.2,-320.8 1262.4,-320.8 1262.5,-320.8 1263.5,-320.8 1264.5,-320.6 1265.4,-320.3 
		1266.2,-319.8 1267,-319.2 1267.6,-318.5 1268.1,-317.7 1268.5,-316.8 1268.7,-315.8 	"/>
</g>
<g id="SPLINE_180_">
	<polyline class="st0" points="1227.4,-311.1 1227.4,-311 1227.5,-310.9 1227.5,-310.7 1227.5,-310.3 1227.6,-309.9 1227.6,-309.5 
		1227.8,-308.3 1227.9,-307 1228.1,-305.4 1228.3,-303.7 1228.5,-301.9 1228.9,-298.2 1229.1,-296.4 1229.3,-294.7 1229.5,-293.1 
		1229.7,-291.7 1229.8,-290.5 1229.9,-290 1229.9,-289.5 1229.9,-289.2 1230,-288.9 1230,-288.7 1230,-288.6 1230,-288.6 
		1230,-288.4 1230,-288.2 1230.1,-287.7 1229.9,-286.7 1229.6,-285.8 1229.2,-284.9 1228.6,-284.2 1228,-283.5 1227.2,-283 
		1226.3,-282.6 1225.3,-282.3 1224.3,-282.2 1223.3,-282.3 1222.4,-282.6 1221.5,-283 1220.8,-283.6 1220.1,-284.2 1219.5,-285 
		1219.1,-285.9 1218.8,-286.8 1218.8,-287.1 1218.8,-287.2 1218.8,-287.3 1218.7,-287.4 1218.7,-287.5 1218.7,-287.8 1218.7,-288.1 
		1218.6,-288.5 1218.6,-289 1218.4,-290.2 1218.3,-291.6 1218.1,-293.2 1217.9,-294.9 1217.5,-298.5 1217,-302.2 1216.9,-303.9 
		1216.7,-305.5 1216.5,-306.9 1216.4,-308 1216.3,-308.5 1216.3,-308.9 1216.2,-309.3 1216.2,-309.5 1216.2,-309.7 1216.2,-309.8 
		1216.2,-309.9 1216.2,-310 1216.1,-310.2 1216.2,-311.2 1216.4,-312.2 1216.8,-313.1 1217.3,-313.9 1217.9,-314.6 1218.7,-315.2 
		1219.5,-315.6 1220.5,-315.9 1220.9,-316 1221.2,-316.1 1221.3,-316.1 1222.3,-316.1 1223.3,-315.9 1224.2,-315.6 1225,-315.1 
		1225.7,-314.5 1226.4,-313.8 1226.9,-313 1227.2,-312.1 1227.4,-311.1 	"/>
</g>
<g id="SPLINE_181_">
	<path class="st0" d="M1754.3,756.4c0,2.3,1.9,4.3,4.3,4.3c0,0,2.3,0,4.3-1.9c0-2.3,0-2.3,0-4.7c-1.9-1.9-4.3-1.9-4.3-1.9
		C1756.2,752.1,1754.3,754,1754.3,756.4z"/>
</g>
<g id="SPLINE_182_">
	<path class="st0" d="M1831.8,756.4c0,2.3,1.9,4.3,4.3,4.3c0,0,2.3,0,4.3-1.9c0-2.3,0-2.3,0-4.7c-1.9-1.9-4.3-1.9-4.3-1.9
		C1833.7,752.1,1831.8,754,1831.8,756.4z"/>
</g>
<g id="SPLINE_183_">
	<path class="st0" d="M1757.3,548.9c-2.3,0-4.3,1.9-4.3,4.3c0,0,0,2.3,1.9,4.3c2.3,0,2.3,0,4.7,0c1.9-1.9,1.9-4.3,1.9-4.3
		C1761.6,550.8,1759.7,548.9,1757.3,548.9z"/>
</g>
<g id="SPLINE_184_">
	<path class="st0" d="M1834.8,557.4c2.3,0,4.3-1.9,4.3-4.3c0,0,0-2.3-1.9-4.3c-2.3,0-2.3,0-4.7,0c-1.9,1.9-1.9,4.3-1.9,4.3
		C1830.6,555.5,1832.5,557.4,1834.8,557.4z"/>
</g>
<g id="SPLINE_185_">
	<path class="st0" d="M1746.9,595.2c0,2.3,1.9,4.3,4.3,4.3c0,0,2.3,0,4.3-1.9c0-2.3,0-2.3,0-4.7c-1.9-1.9-4.3-1.9-4.3-1.9
		C1748.8,591,1746.9,592.9,1746.9,595.2z"/>
</g>
<g id="SPLINE_186_">
	<path class="st0" d="M1837.6,595.2c0,2.3,1.9,4.3,4.3,4.3c0,0,2.3,0,4.3-1.9c0-2.3,0-2.3,0-4.7c-1.9-1.9-4.3-1.9-4.3-1.9
		C1839.5,591,1837.6,592.9,1837.6,595.2z"/>
</g>
<g id="SPLINE_187_">
	<path class="st0" d="M1837.6,714.3c0,2.3,1.9,4.3,4.3,4.3c0,0,2.3,0,4.3-1.9c0-2.3,0-2.3,0-4.7c-1.9-1.9-4.3-1.9-4.3-1.9
		C1839.5,710,1837.6,711.9,1837.6,714.3z"/>
</g>
<g id="SPLINE_188_">
	<path class="st0" d="M1690.2,769.8c0,2.3,1.9,4.3,4.3,4.3c0,0,2.3,0,4.3-1.9c0-2.3,0-2.3,0-4.7c-1.9-1.9-4.3-1.9-4.3-1.9
		C1692.1,765.6,1690.2,767.5,1690.2,769.8z"/>
</g>
<g id="SPLINE_189_">
	<path class="st0" d="M1746.9,714.3c0,2.3,1.9,4.3,4.3,4.3c0,0,2.3,0,4.3-1.9c0-2.3,0-2.3,0-4.7c-1.9-1.9-4.3-1.9-4.3-1.9
		C1748.8,710,1746.9,711.9,1746.9,714.3z"/>
</g>
<g id="SPLINE_190_">
	<path class="st0" d="M1690.2,605.4c0,2.3,1.9,4.3,4.3,4.3c0,0,2.3,0,4.3-1.9c0-2.3,0-2.3,0-4.7c-1.9-1.9-4.3-1.9-4.3-1.9
		C1692.1,601.2,1690.2,603.1,1690.2,605.4z"/>
</g>
<g id="SPLINE_191_">
	<path class="st0" d="M1700.7,824.8v-17c0,0,0,0,133.2,0c0,17,0,17,0,17h34c0,0,0,0,0-17c17,0,17,0,17,0V501.7c0,0,0,0-17,0
		c0-17,0-17,0-17h-34c0,0,0,0,0,17c-133.2,0-133.2,0-133.2,0v-17"/>
</g>
<g id="SPLINE_192_">
	<line class="st0" x1="1683.7" y1="484.7" x2="1683.7" y2="824.8"/>
</g>
<g id="SPLINE_193_">
	<line class="st0" x1="1700.7" y1="484.7" x2="1683.7" y2="484.7"/>
</g>
<g id="SPLINE_194_">
	<line class="st0" x1="1683.7" y1="824.8" x2="1700.7" y2="824.8"/>
</g>
<g id="SPLINE_197_">
	<path class="st0" d="M476.1,1233.3h17c0,0,0,0,0-34c-17,0-17,0-17,0V1233.3z"/>
</g>
<g id="SPLINE_198_">
	<path class="st0" d="M476.1,1301.3h17c0,0,0,0,0-34c-17,0-17,0-17,0V1301.3z"/>
</g>
<g id="SPLINE_199_">
	<path class="st0" d="M476.1,825.1h17c0,0,0,0,0-34c-17,0-17,0-17,0V825.1z"/>
</g>
<g id="SPLINE_200_">
	<path class="st0" d="M476.1,1369.4h17c0,0,0,0,0-34c-17,0-17,0-17,0V1369.4z"/>
</g>
<g id="SPLINE_201_">
	<path class="st0" d="M476.1,893.1h17c0,0,0,0,0-34c-17,0-17,0-17,0V893.1z"/>
</g>
<g id="SPLINE_202_">
	<path class="st0" d="M476.1,1437.4h17c0,0,0,0,0-34c-17,0-17,0-17,0V1437.4z"/>
</g>
<g id="SPLINE_203_">
	<path class="st0" d="M476.1,961.2h17c0,0,0,0,0-34c-17,0-17,0-17,0V961.2z"/>
</g>
<g id="SPLINE_204_">
	<path class="st0" d="M476.1,1505.4h17c0,0,0,0,0-34c-17,0-17,0-17,0V1505.4z"/>
</g>
<g id="SPLINE_205_">
	<path class="st0" d="M476.1,1029.2h17c0,0,0,0,0-34c-17,0-17,0-17,0V1029.2z"/>
</g>
<g id="SPLINE_206_">
	<path class="st0" d="M476.1,1573.5h17c0,0,0,0,0-34c-17,0-17,0-17,0V1573.5z"/>
</g>
<g id="SPLINE_207_">
	<path class="st0" d="M476.1,1097.2h17c0,0,0,0,0-34c-17,0-17,0-17,0V1097.2z"/>
</g>
<g id="SPLINE_208_">
	<path class="st0" d="M476.1,1165.3h17c0,0,0,0,0-34c-17,0-17,0-17,0V1165.3z"/>
</g>
<g id="SPLINE_209_">
	<path class="st0" d="M1056.1,1233.3h-17c0,0,0,0,0-34c17,0,17,0,17,0V1233.3z"/>
</g>
<g id="SPLINE_210_">
	<path class="st0" d="M1056.1,1301.3h-17c0,0,0,0,0-34c17,0,17,0,17,0V1301.3z"/>
</g>
<g id="SPLINE_211_">
	<path class="st0" d="M1056.1,825.1h-17c0,0,0,0,0-34c17,0,17,0,17,0V825.1z"/>
</g>
<g id="SPLINE_212_">
	<path class="st0" d="M1056.1,1369.4h-17c0,0,0,0,0-34c17,0,17,0,17,0V1369.4z"/>
</g>
<g id="SPLINE_213_">
	<path class="st0" d="M1056.1,893.1h-17c0,0,0,0,0-34c17,0,17,0,17,0V893.1z"/>
</g>
<g id="SPLINE_214_">
	<path class="st0" d="M1056.1,1437.4h-17c0,0,0,0,0-34c17,0,17,0,17,0V1437.4z"/>
</g>
<g id="SPLINE_215_">
	<path class="st0" d="M1056.1,961.2h-17c0,0,0,0,0-34c17,0,17,0,17,0V961.2z"/>
</g>
<g id="SPLINE_216_">
	<path class="st0" d="M1056.1,1505.4h-17c0,0,0,0,0-34c17,0,17,0,17,0V1505.4z"/>
</g>
<g id="SPLINE_217_">
	<path class="st0" d="M1056.1,1029.2h-17c0,0,0,0,0-34c17,0,17,0,17,0V1029.2z"/>
</g>
<g id="SPLINE_218_">
	<path class="st0" d="M1056.1,1573.5h-17c0,0,0,0,0-34c17,0,17,0,17,0V1573.5z"/>
</g>
<g id="SPLINE_219_">
	<path class="st0" d="M1056.1,1097.2h-17c0,0,0,0,0-34c17,0,17,0,17,0V1097.2z"/>
</g>
<g id="SPLINE_220_">
	<path class="st0" d="M1056.1,1165.3h-17c0,0,0,0,0-34c17,0,17,0,17,0V1165.3z"/>
</g>
<g id="SPLINE_221_">
	<path class="st0" d="M985.7,1607.4v17c0,0,0,0,34,0c0-17,0-17,0-17H985.7z"/>
</g>
<g id="SPLINE_222_">
	<path class="st0" d="M917.7,1607.4v17c0,0,0,0,34,0c0-17,0-17,0-17H917.7z"/>
</g>
<g id="SPLINE_223_">
	<path class="st0" d="M849.7,1607.4v17c0,0,0,0,34,0c0-17,0-17,0-17H849.7z"/>
</g>
<g id="SPLINE_224_">
	<path class="st0" d="M781.6,1607.4v17c0,0,0,0,34,0c0-17,0-17,0-17H781.6z"/>
</g>
<g id="SPLINE_225_">
	<path class="st0" d="M713.6,1607.4v17c0,0,0,0,34,0c0-17,0-17,0-17H713.6z"/>
</g>
<g id="SPLINE_226_">
	<path class="st0" d="M645.6,1607.4v17c0,0,0,0,34,0c0-17,0-17,0-17H645.6z"/>
</g>
<g id="SPLINE_227_">
	<path class="st0" d="M577.6,1607.4v17c0,0,0,0,34,0c0-17,0-17,0-17H577.6z"/>
</g>
<g id="SPLINE_228_">
	<path class="st0" d="M509.5,1607.4v17c0,0,0,0,34,0c0-17,0-17,0-17H509.5z"/>
</g>
<g id="SPLINE_229_">
	<path class="st0" d="M853.3,893.1v17c0,0,0,0,34,0c0-17,0-17,0-17H853.3z"/>
</g>
<g id="SPLINE_230_">
	<path class="st0" d="M785.2,893.1v17c0,0,0,0,34,0c0-17,0-17,0-17H785.2z"/>
</g>
<g id="SPLINE_231_">
	<path class="st0" d="M717.2,893.1v17c0,0,0,0,34,0c0-17,0-17,0-17H717.2z"/>
</g>
<g id="SPLINE_232_">
	<path class="st0" d="M649.2,893.1v17c0,0,0,0,34,0c0-17,0-17,0-17H649.2z"/>
</g>
<g id="SPLINE_233_">
	<polyline class="st0" points="454.3,1219.1 454.3,1221.5 454.3,1228.3 454.3,1239 454.3,1253.3 454.3,1270.7 454.3,1290.7 
		454.3,1312.8 454.3,1336.6 454.3,1387.4 454.3,1439.4 454.3,1488.9 454.3,1511.7 454.3,1532.4 454.3,1550.7 454.3,1566.1 
		454.3,1578.1 454.3,1586.2 454.3,1590.2 454.3,1591.1 454.4,1593.3 455.5,1601.8 461.2,1617.4 471,1630.5 484,1640.2 499.6,1646 
		516.7,1647.1 521.7,1647.1 528,1647.1 544.5,1647.1 565.6,1647.1 590.7,1647.1 619.2,1647.1 650.4,1647.1 683.8,1647.1 
		718.5,1647.1 790,1647.1 859.8,1647.1 892.5,1647.1 922.9,1647.1 950.3,1647.1 974.2,1647.1 993.8,1647.1 1001.9,1647.1 
		1008.6,1647.1 1014,1647.1 1018,1647.1 1020.4,1647.1 1021.2,1647.1 1029.9,1646.5 1038.1,1644.6 1052.9,1637.4 1065,1626.4 
		1073.5,1612.4 1076.1,1604.5 1077.6,1596.2 1077.9,1591.9 1077.9,1590.4 1077.9,1590.2 1077.9,1586.2 1077.9,1578.1 1077.9,1566.1 
		1077.9,1550.7 1077.9,1532.4 1077.9,1511.7 1077.9,1488.9 1077.9,1439.4 1077.9,1387.4 1077.9,1336.6 1077.9,1312.8 1077.9,1290.7 
		1077.9,1270.7 1077.9,1253.3 1077.9,1239 1077.9,1228.3 1077.9,1221.5 1077.9,1219.1 	"/>
</g>
<g id="SPLINE_234_">
	<line class="st0" x1="1077.9" y1="1219.1" x2="1077.9" y2="757.5"/>
</g>
<g id="SPLINE_235_">
	<line class="st0" x1="454.3" y1="1219.1" x2="454.3" y2="723.5"/>
</g>
<g id="SPLINE_236_">
	<path class="st0" d="M1019.8,1607.4v17c0,0,0,0-34,0c0-17,0-17,0-17H1019.8z"/>
</g>
<g id="SPLINE_252_">
	<polyline class="st0" points="-619.3,-1214.4 -619.2,-1214.4 -618.8,-1214.4 -618.3,-1214.4 -617.6,-1214.4 -616.7,-1214.4 
		-615.7,-1214.4 -614.6,-1214.4 -613.5,-1214.4 -610.9,-1214.4 -608.4,-1214.4 -605.9,-1214.4 -604.8,-1214.4 -603.7,-1214.4 
		-602.8,-1214.4 -602.1,-1214.4 -601.5,-1214.4 -601.1,-1214.4 -600.9,-1214.4 -600.9,-1214.4 -600.9,-1214.6 -600.9,-1214.8 
		-600.9,-1215.1 -600.9,-1215.5 -600.9,-1216 -600.9,-1216.6 -600.9,-1217.3 -600.9,-1218 -600.9,-1219.7 -600.9,-1221.6 
		-600.9,-1223.7 -600.9,-1225.9 -600.9,-1228.2 -600.9,-1233 -600.9,-1235.4 -600.9,-1237.7 -600.9,-1239.8 -600.9,-1241.9 
		-600.9,-1243.7 -600.9,-1245.3 -600.9,-1246 -600.9,-1246.6 -600.9,-1247.1 -600.9,-1247.6 -600.9,-1247.9 -600.9,-1248.2 
		-600.9,-1248.4 -600.9,-1248.4 	"/>
</g>
<g id="SPLINE_253_">
	<polyline class="st0" points="-600.8,-670.2 -600.8,-671.6 -600.8,-675.9 -600.8,-682.8 -600.8,-692.1 -600.8,-703.6 
		-600.8,-717.2 -600.8,-732.7 -600.8,-749.9 -600.8,-768.5 -600.8,-788.5 -600.8,-831.6 -600.8,-877.7 -600.9,-925.3 -600.9,-972.9 
		-600.9,-1018.9 -600.9,-1062.1 -600.9,-1082 -600.9,-1100.7 -600.9,-1117.8 -600.9,-1133.3 -600.9,-1146.9 -600.9,-1158.5 
		-600.9,-1167.8 -600.9,-1174.7 -600.9,-1178.9 -600.9,-1180.4 -601.7,-1180.4 -603.7,-1180.4 -610.1,-1180.4 -616.4,-1180.4 
		-618.5,-1180.4 -619.3,-1180.4 -619.3,-1181.9 -619.3,-1185.7 -619.3,-1197.4 -619.3,-1209.1 -619.3,-1212.9 -619.3,-1214.4 	"/>
</g>
<g id="SPLINE_255_">
	<path class="st0" d="M-782.3-1180.4h-17c0,0,0,0,0-34c17,0,17,0,17,0v-34"/>
</g>
<g id="SPLINE_256_">
	<polyline class="st0" points="-782.3,-738.2 -782.3,-738.2 -782.4,-738.2 -782.7,-738.2 -783,-738.2 -783.4,-738.2 -783.8,-738.2 
		-784.9,-738.2 -786.2,-738.2 -787.6,-738.2 -790.8,-738.2 -793.9,-738.2 -795.3,-738.2 -796.6,-738.2 -797.7,-738.2 -798.1,-738.2 
		-798.5,-738.2 -798.8,-738.2 -799.1,-738.2 -799.2,-738.2 -799.3,-738.2 -799.3,-738.1 -799.3,-737.8 -799.3,-737.3 -799.3,-736.7 
		-799.3,-736 -799.3,-735 -799.3,-734 -799.3,-732.9 -799.3,-731.6 -799.3,-730.3 -799.3,-727.4 -799.3,-724.4 -799.3,-721.2 
		-799.3,-718 -799.3,-714.9 -799.3,-712.1 -799.3,-710.7 -799.3,-709.5 -799.3,-708.3 -799.3,-707.3 -799.3,-706.4 -799.3,-705.6 
		-799.3,-705 -799.3,-704.6 -799.3,-704.3 -799.3,-704.2 -799.2,-704.2 -799.1,-704.2 -798.8,-704.2 -798.5,-704.2 -798.1,-704.2 
		-797.7,-704.2 -796.6,-704.2 -795.3,-704.2 -793.9,-704.2 -790.8,-704.2 -787.6,-704.2 -786.2,-704.2 -784.9,-704.2 -783.8,-704.2 
		-783.4,-704.2 -783,-704.2 -782.7,-704.2 -782.4,-704.2 -782.3,-704.2 -782.3,-704.2 	"/>
</g>
<g id="SPLINE_257_">
	<path class="st0" d="M-782.3-806.2h-17c0,0,0,0,0,34c17,0,17,0,17,0v34"/>
</g>
<g id="SPLINE_258_">
	<path class="st0" d="M-782.3-874.2h-17c0,0,0,0,0,34c17,0,17,0,17,0v34"/>
</g>
<g id="SPLINE_259_">
	<path class="st0" d="M-782.3-942.3h-17c0,0,0,0,0,34c17,0,17,0,17,0v34"/>
</g>
<g id="SPLINE_260_">
	<path class="st0" d="M-782.3-1010.3h-17c0,0,0,0,0,34c17,0,17,0,17,0v34"/>
</g>
<g id="SPLINE_261_">
	<path class="st0" d="M-782.3-1078.3h-17c0,0,0,0,0,34c17,0,17,0,17,0v34"/>
</g>
<g id="SPLINE_262_">
	<path class="st0" d="M-782.3-1146.4h-17c0,0,0,0,0,34c17,0,17,0,17,0v34"/>
</g>
<g id="SPLINE_263_">
	<path class="st0" d="M-668.9-1248.4v-17c0,0,0,0,34,0c0,17,0,17,0,17h34"/>
</g>
<g id="SPLINE_264_">
	<path class="st0" d="M-736.9-1248.4v-17c0,0,0,0,34,0c0,17,0,17,0,17h34"/>
</g>
<g id="SPLINE_265_">
	<line class="st0" x1="-770.9" y1="-1248.4" x2="-736.9" y2="-1248.4"/>
</g>
<g id="SPLINE_266_">
	<line class="st0" x1="-770.9" y1="-1248.4" x2="-782.3" y2="-1248.4"/>
</g>
<g id="SPLINE_267_">
	<line class="st0" x1="-782.3" y1="-1180.4" x2="-782.3" y2="-1146.4"/>
</g>
<g id="SPLINE_268_">
	<polyline class="st0" points="-619.3,452.4 -619.2,452.4 -618.8,452.4 -618.3,452.4 -617.6,452.4 -616.7,452.4 -615.7,452.4 
		-614.6,452.4 -613.5,452.4 -610.9,452.4 -608.4,452.4 -605.9,452.4 -604.8,452.4 -603.7,452.4 -602.8,452.4 -602.1,452.4 
		-601.5,452.4 -601.1,452.4 -600.9,452.4 -600.9,452.4 -600.9,452.5 -600.9,452.7 -600.9,453.1 -600.9,453.5 -600.9,454 
		-600.9,454.6 -600.9,455.3 -600.9,456 -600.9,457.7 -600.9,459.6 -600.9,461.7 -600.9,463.9 -600.9,466.2 -600.9,471 -600.9,473.3 
		-600.9,475.6 -600.9,477.8 -600.9,479.8 -600.9,481.7 -600.9,483.2 -600.9,483.9 -600.9,484.6 -600.9,485.1 -600.9,485.5 
		-600.9,485.9 -600.9,486.2 -600.9,486.3 -600.9,486.4 	"/>
</g>
<g id="SPLINE_269_">
	<polyline class="st0" points="-600.8,-91.9 -600.8,-90.4 -600.8,-86.2 -600.8,-79.3 -600.8,-70 -600.8,-58.4 -600.8,-44.8 
		-600.9,-29.3 -600.9,-12.2 -600.9,6.5 -600.9,26.5 -600.9,69.6 -600.9,115.6 -600.9,163.2 -600.9,210.8 -600.9,256.9 -600.9,300 
		-600.9,320 -600.9,338.6 -600.9,355.8 -600.9,371.3 -600.9,384.9 -600.9,396.4 -600.9,405.7 -600.9,412.6 -600.9,416.9 
		-600.9,418.3 -601.7,418.3 -603.7,418.3 -610.1,418.3 -616.4,418.3 -618.5,418.3 -619.3,418.3 -619.3,419.8 -619.3,423.7 
		-619.3,435.4 -619.3,447 -619.3,450.9 -619.3,452.4 	"/>
</g>
<g id="SPLINE_271_">
	<path class="st0" d="M-782.3,418.3h-17c0,0,0,0,0,34c17,0,17,0,17,0v34"/>
</g>
<g id="SPLINE_272_">
	<polyline class="st0" points="-782.3,-23.9 -782.3,-23.9 -782.5,-23.9 -782.7,-23.9 -783,-23.9 -783.4,-23.9 -783.8,-23.9 
		-784.9,-23.9 -786.2,-23.9 -787.6,-23.9 -790.8,-23.9 -793.9,-23.9 -795.3,-23.9 -796.6,-23.9 -797.7,-23.9 -798.2,-23.9 
		-798.5,-23.9 -798.8,-23.9 -799.1,-23.9 -799.2,-23.9 -799.3,-23.9 -799.3,-24 -799.3,-24.2 -799.3,-24.7 -799.3,-25.3 
		-799.3,-26.1 -799.3,-27 -799.3,-28 -799.3,-29.2 -799.3,-30.4 -799.3,-31.7 -799.3,-34.6 -799.3,-37.7 -799.3,-40.9 -799.3,-44 
		-799.3,-47.1 -799.3,-50 -799.3,-51.3 -799.3,-52.6 -799.3,-53.7 -799.3,-54.7 -799.3,-55.6 -799.3,-56.4 -799.3,-57 -799.3,-57.5 
		-799.3,-57.8 -799.3,-57.9 -799.2,-57.9 -799.1,-57.9 -798.8,-57.9 -798.5,-57.9 -798.2,-57.9 -797.7,-57.9 -796.6,-57.9 
		-795.3,-57.9 -793.9,-57.9 -790.8,-57.9 -787.6,-57.9 -786.2,-57.9 -784.9,-57.9 -783.8,-57.9 -783.4,-57.9 -783,-57.9 
		-782.7,-57.9 -782.5,-57.9 -782.3,-57.9 -782.3,-57.9 	"/>
</g>
<g id="SPLINE_273_">
	<path class="st0" d="M-782.3,44.2h-17c0,0,0,0,0-34c17,0,17,0,17,0v-34"/>
</g>
<g id="SPLINE_274_">
	<path class="st0" d="M-782.3,112.2h-17c0,0,0,0,0-34c17,0,17,0,17,0v-34"/>
</g>
<g id="SPLINE_275_">
	<path class="st0" d="M-782.3,180.2h-17c0,0,0,0,0-34c17,0,17,0,17,0v-34"/>
</g>
<g id="SPLINE_276_">
	<path class="st0" d="M-782.3,248.3h-17c0,0,0,0,0-34c17,0,17,0,17,0v-34"/>
</g>
<g id="SPLINE_277_">
	<path class="st0" d="M-782.3,316.3h-17c0,0,0,0,0-34c17,0,17,0,17,0v-34"/>
</g>
<g id="SPLINE_278_">
	<path class="st0" d="M-782.3,384.3h-17c0,0,0,0,0-34c17,0,17,0,17,0v-34"/>
</g>
<g id="SPLINE_279_">
	<path class="st0" d="M-668.9,486.4v17c0,0,0,0,34,0c0-17,0-17,0-17h34"/>
</g>
<g id="SPLINE_280_">
	<path class="st0" d="M-736.9,486.4v17c0,0,0,0,34,0c0-17,0-17,0-17h34"/>
</g>
<g id="SPLINE_281_">
	<line class="st0" x1="-770.9" y1="486.4" x2="-736.9" y2="486.4"/>
</g>
<g id="SPLINE_282_">
	<line class="st0" x1="-770.9" y1="486.4" x2="-782.3" y2="486.4"/>
</g>
<g id="SPLINE_283_">
	<line class="st0" x1="-782.3" y1="418.3" x2="-782.3" y2="384.3"/>
</g>
<g id="SPLINE_284_">
	<path class="st0" d="M222.8,482.6c0-2.3,1.9-4.3,4.3-4.3c0,0,2.3,0,4.3,1.9c0,2.3,0,2.3,0,4.7c-1.9,1.9-4.3,1.9-4.3,1.9
		C224.7,486.8,222.8,484.9,222.8,482.6z"/>
</g>
<g id="SPLINE_285_">
	<path class="st0" d="M222.8,682.7c0-2.3,1.9-4.3,4.3-4.3c0,0,2.3,0,4.3,1.9c0,2.3,0,2.3,0,4.7c-1.9,1.9-4.3,1.9-4.3,1.9
		C224.7,687,222.8,685,222.8,682.7z"/>
</g>
<g id="SPLINE_286_">
	<path class="st0" d="M256.9,664.2c0-2.3,1.9-4.3,4.3-4.3c0,0,2.3,0,4.3,1.9c0,2.3,0,2.3,0,4.7c-1.9,1.9-4.3,1.9-4.3,1.9
		C258.8,668.5,256.9,666.6,256.9,664.2z"/>
</g>
<g id="SPLINE_287_">
	<path class="st0" d="M256.9,499.8c0-2.3,1.9-4.3,4.3-4.3c0,0,2.3,0,4.3,1.9c0,2.3,0,2.3,0,4.7c-1.9,1.9-4.3,1.9-4.3,1.9
		C258.8,504.1,256.9,502.1,256.9,499.8z"/>
</g>
<g id="SPLINE_288_">
	<path class="st0" d="M298.4,531.4c0-2.3,1.9-4.3,4.3-4.3c0,0,2.3,0,4.3,1.9c0,2.3,0,2.3,0,4.7c-1.9,1.9-4.3,1.9-4.3,1.9
		C300.3,535.7,298.4,533.8,298.4,531.4z"/>
</g>
<g id="SPLINE_289_">
	<path class="st0" d="M370.2,685.8c0-2.3,1.9-4.3,4.3-4.3c0,0,2.3,0,4.3,1.9c0,2.3,0,2.3,0,4.7c-1.9,1.9-4.3,1.9-4.3,1.9
		C372.1,690.1,370.2,688.2,370.2,685.8z"/>
</g>
<g id="SPLINE_290_">
	<path class="st0" d="M372.2,785v-17c0,0,0,0-133.2,0c0,17,0,17,0,17h-34c0,0,0,0,0-17c-17,0-17,0-17,0V461.8c0,0,0,0,17,0
		c0-17,0-17,0-17h34c0,0,0,0,0,17c133.2,0,133.2,0,133.2,0v-17"/>
</g>
<g id="SPLINE_291_">
	<line class="st0" x1="389.2" y1="785" x2="389.2" y2="444.8"/>
</g>
<g id="SPLINE_292_">
	<line class="st0" x1="372.2" y1="785" x2="389.2" y2="785"/>
</g>
<g id="SPLINE_293_">
	<line class="st0" x1="372.2" y1="444.8" x2="389.2" y2="444.8"/>
</g>
<g id="SPLINE_295_">
	<path class="st0" d="M-396.7,345.9h-17c0,0,0,0,0,34c17,0,17,0,17,0v34"/>
</g>
<g id="SPLINE_296_">
	<path class="st0" d="M-396.7,277.9h-17c0,0,0,0,0,34c17,0,17,0,17,0v34"/>
</g>
<g id="SPLINE_297_">
	<polyline class="st0" points="-396.7,209.9 -396.8,209.9 -396.9,209.9 -397.2,209.9 -397.5,209.9 -397.9,209.9 -398.3,209.9 
		-399.4,209.9 -400.7,209.9 -402.1,209.9 -405.3,209.9 -408.4,209.9 -409.8,209.9 -411.1,209.9 -412.2,209.9 -412.6,209.9 
		-413,209.9 -413.3,209.9 -413.6,209.9 -413.7,209.9 -413.8,209.9 -413.8,210 -413.8,210.3 -413.8,210.7 -413.8,211.3 -413.8,212.1 
		-413.8,213 -413.8,214 -413.8,215.2 -413.8,216.4 -413.8,217.8 -413.8,220.6 -413.8,223.7 -413.8,226.9 -413.8,230.1 -413.8,233.1 
		-413.8,236 -413.8,237.3 -413.8,238.6 -413.8,239.7 -413.8,240.8 -413.8,241.7 -413.8,242.4 -413.8,243.1 -413.8,243.5 
		-413.8,243.8 -413.8,243.9 -413.7,243.9 -413.6,243.9 -413.3,243.9 -413,243.9 -412.6,243.9 -412.2,243.9 -411.1,243.9 
		-409.8,243.9 -408.4,243.9 -405.3,243.9 -402.1,243.9 -400.7,243.9 -399.4,243.9 -398.3,243.9 -397.9,243.9 -397.5,243.9 
		-397.2,243.9 -396.9,243.9 -396.8,243.9 -396.7,243.9 	"/>
</g>
<g id="SPLINE_298_">
	<polyline class="st0" points="-396.7,141.8 -396.8,141.8 -396.9,141.8 -397.2,141.8 -397.5,141.8 -397.9,141.8 -398.3,141.8 
		-399.4,141.8 -400.7,141.8 -402.1,141.8 -405.3,141.8 -408.4,141.8 -409.8,141.8 -411.1,141.8 -412.2,141.8 -412.6,141.8 
		-413,141.8 -413.3,141.8 -413.6,141.8 -413.7,141.8 -413.8,141.8 -413.8,141.9 -413.8,142.2 -413.8,142.7 -413.8,143.3 
		-413.8,144.1 -413.8,145 -413.8,146 -413.8,147.2 -413.8,148.4 -413.8,149.7 -413.8,152.6 -413.8,155.7 -413.8,158.9 -413.8,162 
		-413.8,165.1 -413.8,168 -413.8,169.3 -413.8,170.5 -413.8,171.7 -413.8,172.7 -413.8,173.6 -413.8,174.4 -413.8,175 -413.8,175.5 
		-413.8,175.8 -413.8,175.9 -413.7,175.9 -413.6,175.9 -413.3,175.9 -413,175.9 -412.6,175.9 -412.2,175.9 -411.1,175.9 
		-409.8,175.9 -408.4,175.9 -405.3,175.9 -402.1,175.9 -400.7,175.9 -399.4,175.9 -398.3,175.9 -397.9,175.9 -397.5,175.9 
		-397.2,175.9 -396.9,175.9 -396.8,175.9 -396.7,175.9 	"/>
</g>
<g id="SPLINE_299_">
	<path class="st0" d="M-396.7,5.8h-17c0,0,0,0,0,34c17,0,17,0,17,0v34"/>
</g>
<g id="SPLINE_300_">
	<polyline class="st0" points="-396.7,-62.2 -396.8,-62.2 -396.9,-62.2 -397.2,-62.2 -397.5,-62.2 -397.9,-62.2 -398.3,-62.2 
		-399.4,-62.2 -400.7,-62.2 -402.1,-62.2 -405.3,-62.2 -408.4,-62.2 -409.8,-62.2 -411.1,-62.2 -412.2,-62.2 -412.6,-62.2 
		-413,-62.2 -413.3,-62.2 -413.6,-62.2 -413.7,-62.2 -413.8,-62.2 -413.8,-62.2 -413.8,-61.9 -413.8,-61.4 -413.8,-60.8 -413.8,-60 
		-413.8,-59.1 -413.8,-58.1 -413.8,-56.9 -413.8,-55.7 -413.8,-54.4 -413.8,-51.5 -413.8,-48.4 -413.8,-45.2 -413.8,-42.1 
		-413.8,-39 -413.8,-36.1 -413.8,-34.8 -413.8,-33.5 -413.8,-32.4 -413.8,-31.4 -413.8,-30.5 -413.8,-29.7 -413.8,-29.1 
		-413.8,-28.6 -413.8,-28.3 -413.8,-28.2 -413.7,-28.2 -413.6,-28.2 -413.3,-28.2 -413,-28.2 -412.6,-28.2 -412.2,-28.2 
		-411.1,-28.2 -409.8,-28.2 -408.4,-28.2 -405.3,-28.2 -402.1,-28.2 -400.7,-28.2 -399.4,-28.2 -398.3,-28.2 -397.9,-28.2 
		-397.5,-28.2 -397.2,-28.2 -396.9,-28.2 -396.8,-28.2 -396.7,-28.2 	"/>
</g>
<g id="SPLINE_301_">
	<path class="st0" d="M-396.7-79.3v-17c0,0,0,0-17,0c0-34,0-34,0-34h17"/>
</g>
<g id="SPLINE_302_">
	<path class="st0" d="M-396.7-198.3h-17c0,0,0,0,0,34c17,0,17,0,17,0v34"/>
</g>
<g id="SPLINE_303_">
	<line class="st0" x1="-396.7" y1="73.8" x2="-396.7" y2="141.8"/>
</g>
<g id="SPLINE_304_">
	<path class="st0" d="M-328.7,243.9v17c0,0,0,0,34,0c0-17,0-17,0-17H-328.7z"/>
</g>
<g id="SPLINE_305_">
	<path class="st0" d="M-328.7-79.3v17c0,0,0,0,34,0c0-17,0-17,0-17H-328.7z"/>
</g>
<g id="SPLINE_306_">
	<polyline class="st0" points="-396.8,261 -396.7,261 -396.4,261 -396,261 -395.3,261 -394.6,261 -393.6,261 -392.6,261 -391.5,261 
		-390.2,261 -388.9,260.9 -386,260.9 -382.9,260.9 -379.8,260.9 -376.6,260.9 -373.5,260.9 -370.6,260.9 -369.3,260.9 -368.1,260.9 
		-366.9,260.9 -365.9,260.9 -365,260.9 -364.2,260.9 -363.6,260.9 -363.1,260.9 -362.8,260.9 -362.7,260.9 -362.7,260.9 
		-362.7,260.7 -362.7,260.5 -362.7,260.2 -362.7,259.8 -362.7,259.3 -362.7,258.2 -362.7,257 -362.7,255.5 -362.7,252.4 
		-362.7,249.3 -362.7,247.8 -362.7,246.6 -362.7,245.5 -362.7,245 -362.7,244.6 -362.7,244.3 -362.7,244.1 -362.7,243.9 
		-362.7,243.9 -362.8,243.9 -363.1,243.9 -363.6,243.9 -364.2,243.9 -365,243.9 -365.9,243.9 -366.9,243.9 -368.1,243.9 
		-369.3,243.9 -370.6,243.9 -373.5,243.9 -376.6,243.9 -379.8,243.9 -382.9,243.9 -386,243.9 -388.9,243.9 -390.2,243.9 
		-391.5,243.9 -392.6,243.9 -393.6,244 -394.6,244 -395.3,244 -396,244 -396.4,244 -396.7,244 -396.8,244 	"/>
</g>
<g id="SPLINE_307_">
	<polyline class="st0" points="-396.7,-62.2 -396.7,-62.2 -396.4,-62.2 -395.9,-62.2 -395.3,-62.2 -394.5,-62.2 -393.6,-62.2 
		-392.6,-62.2 -391.4,-62.2 -390.2,-62.2 -388.9,-62.2 -386,-62.2 -382.9,-62.2 -379.7,-62.2 -376.6,-62.2 -373.5,-62.2 
		-370.6,-62.2 -369.3,-62.2 -368,-62.2 -366.9,-62.2 -365.9,-62.2 -365,-62.2 -364.2,-62.2 -363.6,-62.2 -363.1,-62.2 -362.8,-62.2 
		-362.7,-62.2 -362.7,-62.3 -362.7,-62.4 -362.7,-62.7 -362.7,-63 -362.7,-63.4 -362.7,-63.8 -362.7,-64.9 -362.7,-66.2 
		-362.7,-67.6 -362.7,-70.8 -362.7,-73.9 -362.7,-75.3 -362.7,-76.6 -362.7,-77.7 -362.7,-78.1 -362.7,-78.5 -362.7,-78.8 
		-362.7,-79.1 -362.7,-79.2 -362.7,-79.3 -362.8,-79.3 -363.1,-79.3 -363.6,-79.3 -364.2,-79.3 -365,-79.3 -365.9,-79.3 
		-366.9,-79.3 -368,-79.3 -369.3,-79.3 -370.6,-79.3 -373.5,-79.3 -376.6,-79.3 -379.7,-79.3 -382.9,-79.3 -386,-79.3 -388.9,-79.3 
		-390.2,-79.3 -391.4,-79.3 -392.6,-79.3 -393.6,-79.3 -394.5,-79.3 -395.3,-79.3 -395.9,-79.3 -396.4,-79.3 -396.7,-79.3 
		-396.7,-79.3 	"/>
</g>
<g id="SPLINE_308_">
	<path class="st0" d="M-260.7,243.9v17c0,0,0,0,34,0c0-17,0-17,0-17H-260.7z"/>
</g>
<g id="SPLINE_309_">
	<path class="st0" d="M-260.7-79.3v17c0,0,0,0,34,0c0-17,0-17,0-17H-260.7z"/>
</g>
<g id="SPLINE_310_">
	<polyline class="st0" points="-158.7,243.9 -158.8,243.9 -159,243.9 -159.5,243.9 -160.1,243.9 -160.9,243.9 -161.8,243.9 
		-162.8,243.9 -164,243.9 -165.2,243.9 -166.5,243.9 -169.4,243.9 -172.5,243.9 -175.7,243.9 -178.8,243.9 -181.9,243.9 
		-184.8,243.9 -186.1,243.9 -187.4,243.9 -188.5,243.9 -189.5,243.9 -190.4,243.9 -191.2,243.9 -191.8,243.9 -192.3,243.9 
		-192.6,243.9 -192.7,243.9 -192.7,243.9 -192.7,244.1 -192.7,244.3 -192.7,244.6 -192.7,245 -192.7,245.5 -192.7,246.6 
		-192.7,247.8 -192.7,249.3 -192.7,252.4 -192.7,255.5 -192.7,257 -192.7,258.2 -192.7,259.3 -192.7,259.8 -192.7,260.2 
		-192.7,260.5 -192.7,260.7 -192.7,260.9 -192.7,260.9 -192.6,260.9 -192.3,260.9 -191.8,260.9 -191.2,260.9 -190.4,260.9 
		-189.5,260.9 -188.5,260.9 -187.4,260.9 -186.1,260.9 -184.8,260.9 -181.9,260.9 -178.8,260.9 -175.7,260.9 -172.5,260.9 
		-169.4,260.9 -166.5,260.9 -165.2,260.9 -164,260.9 -162.8,260.9 -161.8,260.9 -160.9,260.9 -160.1,260.9 -159.5,260.9 -159,260.9 
		-158.8,260.9 -158.7,260.9 	"/>
</g>
<g id="SPLINE_311_">
	<polyline class="st0" points="-158.6,-79.3 -158.7,-79.3 -159,-79.3 -159.5,-79.3 -160.1,-79.3 -160.9,-79.3 -161.8,-79.3 
		-162.8,-79.3 -164,-79.3 -165.2,-79.3 -166.5,-79.3 -169.4,-79.3 -172.5,-79.3 -175.6,-79.3 -178.8,-79.3 -181.9,-79.3 
		-184.8,-79.3 -186.1,-79.3 -187.3,-79.3 -188.5,-79.3 -189.5,-79.3 -190.4,-79.3 -191.2,-79.3 -191.8,-79.3 -192.3,-79.3 
		-192.6,-79.3 -192.7,-79.3 -192.7,-79.2 -192.7,-79.1 -192.7,-78.8 -192.7,-78.5 -192.7,-78.1 -192.7,-77.7 -192.7,-76.6 
		-192.7,-75.3 -192.7,-73.9 -192.7,-70.8 -192.7,-67.6 -192.7,-66.2 -192.7,-64.9 -192.7,-63.8 -192.7,-63.4 -192.7,-63 
		-192.7,-62.7 -192.7,-62.4 -192.7,-62.3 -192.7,-62.2 -192.6,-62.2 -192.3,-62.2 -191.8,-62.2 -191.2,-62.2 -190.4,-62.2 
		-189.5,-62.2 -188.5,-62.2 -187.3,-62.2 -186.1,-62.2 -184.8,-62.2 -181.9,-62.2 -178.8,-62.2 -175.6,-62.2 -172.5,-62.2 
		-169.4,-62.2 -166.5,-62.2 -165.2,-62.2 -164,-62.2 -162.8,-62.2 -161.8,-62.2 -160.9,-62.2 -160.1,-62.2 -159.5,-62.2 -159,-62.2 
		-158.7,-62.2 -158.6,-62.2 	"/>
</g>
<g id="SPLINE_312_">
	<line class="st0" x1="-158.6" y1="380" x2="-158.6" y2="260.9"/>
</g>
<g id="SPLINE_313_">
	<line class="st0" x1="-158.6" y1="243.9" x2="-158.6" y2="-62.2"/>
</g>
<g id="SPLINE_314_">
	<line class="st0" x1="-158.6" y1="-79.3" x2="-158.6" y2="-198.3"/>
</g>
<g id="SPLINE_315_">
	<line class="st0" x1="-396.7" y1="-198.3" x2="-396.7" y2="-232.3"/>
</g>
<g id="SPLINE_317_">
	<line class="st0" x1="-396.7" y1="-28.2" x2="-396.7" y2="5.8"/>
</g>
<g id="SPLINE_318_">
	<line class="st0" x1="-396.8" y1="261" x2="-396.7" y2="277.9"/>
</g>
<g id="SPLINE_319_">
	<line class="st0" x1="-396.7" y1="209.9" x2="-396.7" y2="175.9"/>
</g>
<g id="SPLINE_320_">
	<polyline class="st0" points="-351.3,-11.5 -351.3,-11.1 -351.3,-9.8 -351.3,-7.6 -351.3,-4.7 -351.3,-1.1 -351.3,3.2 -351.3,13.6 
		-351.3,26 -351.3,40.1 -351.3,55.5 -351.3,71.7 -351.3,105.2 -351.3,121.6 -351.3,137.2 -351.3,151.8 -351.3,164.7 -351.3,175.7 
		-351.3,180.4 -351.3,184.4 -351.3,187.7 -351.3,190.3 -351.3,192.1 -351.3,193 -351.3,193.2 -351.3,193.9 -351.2,195.7 
		-350.9,199.2 -349.5,205.8 -347,212 -343.8,217.5 -339.7,222.3 -335,226.4 -329.7,229.5 -323.9,231.5 -317.7,232.5 -311.4,232.2 
		-305.3,230.8 -299.8,228.2 -294.7,224.7 -290.2,220.3 -286.5,215.2 -283.6,209.4 -281.6,203 -280.6,196.2 -280.5,194.5 
		-280.5,193.6 -280.4,193.1 -280.4,192.4 -280.4,190.9 -280.4,188.5 -280.4,185.4 -280.4,181.6 -280.4,177.1 -280.4,166.4 
		-280.4,153.7 -280.4,139.4 -280.4,123.9 -280.4,90.8 -280.4,57.8 -280.4,42.2 -280.4,27.9 -280.4,15.2 -280.4,4.5 -280.4,0.1 
		-280.4,-3.8 -280.4,-6.9 -280.4,-9.2 -280.4,-10.8 -280.4,-11.5 -280.5,-11.9 -280.5,-12.8 -280.6,-14.6 -281.6,-21.4 
		-283.6,-27.7 -286.5,-33.6 -290.2,-38.7 -294.7,-43.1 -299.8,-46.6 -305.3,-49.1 -311.4,-50.6 -314.5,-50.9 -316,-50.9 
		-316.8,-50.9 -323,-50.1 -328.9,-48.2 -334.3,-45.2 -339.1,-41.3 -343.2,-36.6 -346.6,-31.1 -349.2,-25.1 -350.8,-18.5 
		-351.3,-11.5 	"/>
</g>
<g id="SPLINE_321_">
	<path class="st0" d="M-209.7-130.3v-17c0,0,0,0,34,0c0,17,0,17,0,17H-209.7z"/>
</g>
<g id="SPLINE_322_">
	<path class="st0" d="M-209.7,328.9v-17c0,0,0,0,34,0c0,17,0,17,0,17H-209.7z"/>
</g>
<g id="SPLINE_323_">
	<path class="st0" d="M-277.7-130.3v-17c0,0,0,0,34,0c0,17,0,17,0,17H-277.7z"/>
</g>
<g id="SPLINE_324_">
	<path class="st0" d="M-277.7,328.9v-17c0,0,0,0,34,0c0,17,0,17,0,17H-277.7z"/>
</g>
<g id="ELLIPSE">
	<path class="st0" d="M-263.4-18.6c-3.9,0-7.1,3.2-7.1,7.1s3.2,7.1,7.1,7.1c3.9,0,7.1-3.2,7.1-7.1S-259.5-18.6-263.4-18.6
		L-263.4-18.6z"/>
</g>
<g id="ELLIPSE_1_">
	<path class="st0" d="M-263.4,32.4c-3.9,0-7.1,3.2-7.1,7.1s3.2,7.1,7.1,7.1c3.9,0,7.1-3.2,7.1-7.1S-259.5,32.4-263.4,32.4
		L-263.4,32.4z"/>
</g>
<g id="ELLIPSE_2_">
	<path class="st0" d="M-263.4,83.4c-3.9,0-7.1,3.2-7.1,7.1c0,3.9,3.2,7.1,7.1,7.1c3.9,0,7.1-3.2,7.1-7.1
		C-256.4,86.6-259.5,83.4-263.4,83.4L-263.4,83.4z"/>
</g>
<g id="ELLIPSE_3_">
	<path class="st0" d="M-263.4,134.4c-3.9,0-7.1,3.2-7.1,7.1s3.2,7.1,7.1,7.1c3.9,0,7.1-3.2,7.1-7.1S-259.5,134.4-263.4,134.4
		L-263.4,134.4z"/>
</g>
<g id="ELLIPSE_4_">
	<path class="st0" d="M-263.4,185.5c-3.9,0-7.1,3.2-7.1,7.1s3.2,7.1,7.1,7.1c3.9,0,7.1-3.2,7.1-7.1S-259.5,185.5-263.4,185.5
		L-263.4,185.5z"/>
</g>
<g id="SPLINE_325_">
	<polyline class="st0" points="31.7,-340.9 31.5,-340.9 31,-340.9 29.3,-340.9 26.9,-340.9 24,-340.9 21,-340.9 18.3,-340.9 
		16.1,-340.9 15.4,-340.9 14.9,-340.9 14.7,-340.9 14.7,-341.2 14.7,-342.1 14.7,-343.6 14.7,-345.5 14.7,-347.8 14.7,-353.2 
		14.7,-364.9 14.7,-367.6 14.7,-369.9 14.7,-371.9 14.7,-373.5 14.7,-374.5 14.7,-374.9 14.8,-375 15.3,-375 16.9,-375 19.3,-375 
		25.2,-375 27.9,-375 30.1,-375 30.9,-375 31.5,-375 31.7,-375 31.7,-375 31.7,-375 31.8,-374.6 32.4,-372.8 33.5,-369.5 
		35.7,-363.4 37.9,-358.1 39.9,-353.7 41.8,-350.1 43.6,-347.4 45.3,-345.5 46.9,-344.4 48.4,-344.2 49.9,-344.9 51.2,-346.4 
		52.4,-348.7 53.5,-351.9 54.5,-355.9 55.5,-360.8 56.3,-366.5 57,-373.1 57.2,-374.8 57.2,-375.1 57.2,-375.6 57.3,-376.4 
		57.7,-377.9 58.4,-379.3 59.3,-380.5 60.4,-381.6 61.7,-382.4 63.1,-383 64.6,-383.4 66.3,-383.4 67.8,-383.2 69.3,-382.7 
		70.6,-381.9 71.8,-380.9 72.8,-379.7 73.5,-378.4 74,-376.9 74.2,-375.3 74.2,-375.1 74.2,-375 74.3,-374.3 74.5,-371.2 
		74.9,-364.9 75.6,-352.4 76,-340.1 76.2,-328 76.2,-316 76,-304.2 75.5,-292.6 74.9,-281.2 74.4,-275.5 74.2,-272.9 74.2,-272.5 
		74,-270.9 73.5,-269.4 72.7,-268.1 71.7,-266.9 70.5,-265.9 69.2,-265.2 67.7,-264.6 66.1,-264.4 64.5,-264.5 63,-264.8 
		61.6,-265.5 60.3,-266.3 59.2,-267.4 58.3,-268.7 57.7,-270.1 57.3,-271.6 57.2,-272.4 57.2,-272.8 57.2,-273.1 57.1,-274 
		56.9,-275.7 56.2,-282.2 55.4,-287.8 54.4,-292.5 53.4,-296.4 52.2,-299.5 51,-301.7 49.7,-303.1 48.2,-303.6 46.7,-303.3 
		45.1,-302.2 43.4,-300.2 41.5,-297.3 39.6,-293.6 37.6,-289.1 35.5,-283.7 33.2,-277.5 32.1,-274.1 31.8,-273.2 31.7,-272.9 
		31.7,-272.9 31.7,-272.9 31.4,-272.9 30.8,-272.9 30,-272.9 27.7,-272.9 22,-272.9 19.2,-272.9 16.8,-272.9 15.9,-272.9 
		15.2,-272.9 14.8,-272.9 14.7,-272.9 14.7,-273.4 14.7,-274.5 14.7,-276.2 14.7,-278.2 14.7,-280.6 14.7,-283.3 14.7,-289.1 
		14.7,-295 14.7,-300.4 14.7,-302.6 14.7,-304.5 14.7,-305.9 14.7,-306.7 14.7,-306.9 14.9,-306.9 15.5,-306.9 16.3,-306.9 
		18.5,-306.9 21.2,-306.9 27,-306.9 29.5,-306.9 31.1,-306.9 31.6,-306.9 31.7,-306.9 31.7,-307.3 31.7,-308.3 31.7,-309.8 
		31.7,-311.8 31.7,-314.1 31.7,-319.6 31.7,-325.5 31.7,-331.3 31.7,-333.9 31.7,-336.2 31.7,-338.2 31.7,-339.6 31.7,-340.6 
		31.7,-340.9 	"/>
</g>
<g id="SPLINE_326_">
	<polyline class="st0" points="183.7,-293.2 183.9,-293.2 184.3,-293.2 186.1,-293.2 188.5,-293.2 191.4,-293.2 194.4,-293.2 
		197.1,-293.2 199.2,-293.2 200,-293.2 200.5,-293.2 200.7,-293.2 200.7,-292.9 200.7,-292 200.7,-290.5 200.7,-288.6 200.7,-286.3 
		200.7,-280.9 200.7,-269.2 200.7,-266.6 200.7,-264.2 200.7,-262.2 200.7,-260.6 200.7,-259.6 200.7,-259.2 200.6,-259.2 
		200.1,-259.2 198.5,-259.2 196.1,-259.2 190.2,-259.2 187.5,-259.2 185.3,-259.2 184.5,-259.2 183.9,-259.2 183.7,-259.2 
		183.7,-259.2 183.7,-259.2 183.6,-259.5 183,-261.3 181.9,-264.7 179.6,-270.8 177.5,-276 175.5,-280.5 173.6,-284 171.8,-286.8 
		170.1,-288.7 168.5,-289.7 166.9,-289.9 165.5,-289.2 164.2,-287.8 163,-285.4 161.9,-282.2 160.8,-278.2 159.9,-273.3 
		159.1,-267.6 158.4,-261.1 158.2,-259.3 158.2,-259 158.2,-258.6 158.1,-257.8 157.7,-256.3 157,-254.9 156.1,-253.6 155,-252.6 
		153.7,-251.7 152.3,-251.1 150.8,-250.7 149.1,-250.7 147.5,-250.9 146.1,-251.5 144.8,-252.2 143.6,-253.2 142.6,-254.4 
		141.9,-255.8 141.4,-257.3 141.2,-258.9 141.2,-259.1 141.2,-259.2 141.1,-259.8 140.9,-263 140.5,-269.3 139.8,-281.7 139.4,-294 
		139.1,-306.2 139.2,-318.1 139.4,-329.9 139.8,-341.5 140.5,-353 141,-358.6 141.2,-361.3 141.2,-361.7 141.4,-363.3 141.9,-364.7 
		142.7,-366.1 143.7,-367.2 144.8,-368.2 146.2,-369 147.7,-369.5 149.2,-369.7 150.9,-369.6 152.4,-369.3 153.8,-368.7 
		155.1,-367.8 156.2,-366.7 157.1,-365.5 157.7,-364.1 158.1,-362.5 158.2,-361.7 158.2,-361.3 158.2,-361 158.3,-360.2 
		158.4,-358.4 159.2,-352 160,-346.4 161,-341.6 162,-337.7 163.1,-334.6 164.4,-332.4 165.7,-331 167.1,-330.5 168.7,-330.8 
		170.3,-332 172,-334 173.9,-336.8 175.8,-340.5 177.8,-345 179.9,-350.4 182.2,-356.6 183.3,-360 183.6,-360.9 183.7,-361.2 
		183.7,-361.2 183.7,-361.2 184,-361.2 184.6,-361.2 185.4,-361.2 187.6,-361.2 193.4,-361.2 196.2,-361.2 198.6,-361.2 
		199.5,-361.2 200.2,-361.2 200.6,-361.2 200.7,-361.2 200.7,-360.7 200.7,-359.6 200.7,-358 200.7,-355.9 200.7,-353.5 
		200.7,-350.8 200.7,-345 200.7,-339.1 200.7,-333.8 200.7,-331.5 200.7,-329.7 200.7,-328.3 200.7,-327.4 200.7,-327.2 
		200.5,-327.2 199.9,-327.2 199.1,-327.2 196.9,-327.2 194.2,-327.2 188.3,-327.2 185.9,-327.2 184.3,-327.2 183.8,-327.2 
		183.7,-327.2 183.7,-326.8 183.7,-325.8 183.7,-324.3 183.7,-322.3 183.7,-320 183.7,-314.5 183.7,-308.6 183.7,-302.9 
		183.7,-300.2 183.7,-297.9 183.7,-296 183.7,-294.5 183.7,-293.5 183.7,-293.2 	"/>
</g>
<g id="SPLINE_327_">
	<line class="st0" x1="-135.9" y1="253" x2="-135.9" y2="338"/>
</g>
<g id="SPLINE_328_">
	<path class="st0" d="M6.7-81.2v368.5c0,0,0,24.2-24.3,43.9c-30,0-30,0-60,0c-24.3-19.6-24.3-43.9-24.3-43.9h-17c0,0,0,0,0-34
		c17,0,17,0,17,0V120c0,0,0,0-17,0c0-34,0-34,0-34h17c0,0,0,0,0-133.2c-17,0-17,0-17,0v-34c0,0,0,0,17,0c0,0,0,0,0-24.2
		c24.3-19.6,54.3-19.6,54.3-19.6C-17.6-125.1,6.7-105.5,6.7-81.2z"/>
</g>
<g id="SPLINE_329_">
	<path class="st0" d="M34.1-184.9v17c0,0,0,0,34,0c0-17,0-17,0-17h34"/>
</g>
<g id="SPLINE_330_">
	<path class="st0" d="M-22.6,395.2v-17c0,0,0,0,34,0c0,17,0,17,0,17h34"/>
</g>
<g id="SPLINE_331_">
	<path class="st0" d="M-33.9-184.9v17c0,0,0,0,34,0c0-17,0-17,0-17h34"/>
</g>
<g id="SPLINE_332_">
	<path class="st0" d="M-90.6,395.2v-17c0,0,0,0,34,0c0,17,0,17,0,17h34"/>
</g>
<g id="SPLINE_333_">
	<path class="st0" d="M-101.9-184.9v17c0,0,0,0,34,0c0-17,0-17,0-17h34"/>
</g>
<g id="SPLINE_334_">
	<polyline class="st0" points="-124.6,378.2 -124.6,378.3 -124.6,378.6 -124.6,379.1 -124.6,379.8 -124.6,380.6 -124.6,381.5 
		-124.6,382.5 -124.6,383.6 -124.6,388.3 -124.6,390.6 -124.6,391.6 -124.6,392.5 -124.6,393.4 -124.6,394.1 -124.6,394.6 
		-124.6,395 -124.6,395.2 -124.6,395.2 -124.5,395.2 -124.2,395.2 -123.9,395.2 -123.5,395.2 -123,395.2 -122.4,395.2 -121.7,395.2 
		-121,395.2 -119.3,395.2 -117.4,395.2 -115.3,395.2 -113.1,395.2 -110.8,395.2 -106,395.2 -103.7,395.2 -101.4,395.2 -99.2,395.2 
		-97.2,395.2 -95.3,395.2 -93.7,395.2 -93,395.2 -92.4,395.2 -91.9,395.2 -91.4,395.2 -91.1,395.2 -90.8,395.2 -90.7,395.2 
		-90.6,395.2 	"/>
</g>
<g id="SPLINE_335_">
	<path class="st0" d="M-135.9-16h-17c0,0,0,0,0,34c17,0,17,0,17,0v34"/>
</g>
<g id="SPLINE_336_">
	<path class="st0" d="M-135.9,52h-17c0,0,0,0,0,34c17,0,17,0,17,0v34"/>
</g>
<g id="SPLINE_337_">
	<path class="st0" d="M-135.9,120h-17c0,0,0,0,0,34c17,0,17,0,17,0v34"/>
</g>
<g id="SPLINE_338_">
	<path class="st0" d="M-135.9,188.1h-17c0,0,0,0,0,34c17,0,17,0,17,0V253"/>
</g>
<g id="SPLINE_339_">
	<polyline class="st0" points="-136,-184.9 -136,-184.4 -136,-183.1 -136,-181 -136,-178.3 -136,-175.2 -136,-171.6 -136,-163.9 
		-136,-156.2 -136,-152.7 -135.9,-149.5 -135.9,-146.8 -135.9,-144.8 -135.9,-143.4 -135.9,-143 -135.9,-142.7 -135.9,-142 
		-135.9,-140.9 -135.9,-139.3 -135.9,-137.4 -135.9,-135.1 -135.9,-129.7 -135.9,-123.3 -135.9,-116.1 -135.9,-100.5 -135.9,-84.8 
		-135.9,-77.7 -135.9,-71.2 -135.9,-65.8 -135.9,-63.5 -135.9,-61.6 -135.9,-60 -135.9,-58.9 -135.9,-58.2 -135.9,-57.9 
		-135.9,-57.5 -135.9,-56.1 -135.9,-54.1 -135.9,-51.4 -135.9,-48.2 -135.9,-44.7 -135.9,-37 -135.9,-29.3 -135.9,-25.8 
		-135.9,-22.6 -135.9,-19.9 -135.9,-17.8 -135.9,-16.5 -135.9,-16 	"/>
</g>
<g id="SPLINE_340_">
	<line class="st0" x1="-135.9" y1="338" x2="-136" y2="378.2"/>
</g>
<g id="SPLINE_341_">
	<line class="st0" x1="-101.9" y1="-184.9" x2="-136" y2="-184.9"/>
</g>
<g id="SPLINE_342_">
	<line class="st0" x1="-124.6" y1="378.2" x2="-136" y2="378.2"/>
</g>
<g id="SPLINE_343_">
	<path class="st0" d="M45.5,395.2l3.2-33.9c0,0,0,0-16.9-1.6c3.2-33.9,3.2-33.9,3.2-33.9l16.9,1.6"/>
</g>
<g id="SPLINE_344_">
	<polyline class="st0" points="52,327.5 52,326.5 52.3,323.6 52.8,319 53.4,312.7 54.2,304.8 55.1,295.5 56.1,284.8 57.3,273 
		59.9,245.9 62.9,215.3 66.2,181.9 69.6,146.6 76.8,74 80.2,38.3 83.6,4.3 86.7,-27.2 89.4,-55.3 90.6,-67.9 91.7,-79.3 92.7,-89.4 
		93.6,-98.1 94.3,-105.3 94.8,-110.9 95.2,-114.8 95.4,-116.8 95,-117.2 91.5,-117.5 81.2,-118.5 78.6,-118.8 78.6,-119.4 
		78.8,-121.9 79.7,-130.8 80.7,-141.5 81.1,-146.2 81.5,-149.8 81.7,-151.8 81.7,-152 81.7,-152.3 81.8,-152.6 82.9,-152.5 
		87.1,-152.1 97.1,-151.2 98.7,-151.1 98.8,-152.5 99.1,-155.7 99.6,-160.3 100.6,-171.1 101.5,-180.7 101.8,-183.8 101.9,-184.9 	
		"/>
</g>
<g id="ELLIPSE_5_">
	<path class="st0" d="M23.7-88.3c-3.9,0-7.1,3.2-7.1,7.1c0,3.9,3.2,7.1,7.1,7.1s7.1-3.2,7.1-7.1C30.8-85.2,27.7-88.3,23.7-88.3
		L23.7-88.3z"/>
</g>
<g id="ELLIPSE_6_">
	<path class="st0" d="M23.7-54.3c-3.9,0-7.1,3.2-7.1,7.1s3.2,7.1,7.1,7.1s7.1-3.2,7.1-7.1S27.7-54.3,23.7-54.3L23.7-54.3z"/>
</g>
<g id="ELLIPSE_7_">
	<path class="st0" d="M23.7-20.3c-3.9,0-7.1,3.2-7.1,7.1s3.2,7.1,7.1,7.1s7.1-3.2,7.1-7.1S27.7-20.3,23.7-20.3L23.7-20.3z"/>
</g>
<g id="ELLIPSE_8_">
	<path class="st0" d="M23.7,13.7c-3.9,0-7.1,3.2-7.1,7.1s3.2,7.1,7.1,7.1s7.1-3.2,7.1-7.1S27.7,13.7,23.7,13.7L23.7,13.7z"/>
</g>
<g id="ELLIPSE_9_">
	<path class="st0" d="M23.7,47.7c-3.9,0-7.1,3.2-7.1,7.1s3.2,7.1,7.1,7.1s7.1-3.2,7.1-7.1S27.7,47.7,23.7,47.7L23.7,47.7z"/>
</g>
<g id="ELLIPSE_10_">
	<path class="st0" d="M23.7,81.8c-3.9,0-7.1,3.2-7.1,7.1c0,3.9,3.2,7.1,7.1,7.1s7.1-3.2,7.1-7.1C30.8,84.9,27.7,81.8,23.7,81.8
		L23.7,81.8z"/>
</g>
<g>
	<g id="SPLINE_398_">
		<polyline class="st0" points="397.5,-395.2 397.5,-395.2 397.5,-395.4 397.5,-395.6 397.5,-395.9 397.5,-396.3 397.5,-396.8 
			397.5,-397.9 397.5,-399.1 397.5,-400.6 397.5,-403.7 397.5,-406.8 397.5,-408.3 397.5,-409.5 397.5,-410.6 397.5,-411.1 
			397.5,-411.5 397.5,-411.8 397.5,-412 397.5,-412.2 397.5,-412.2 397.4,-412.2 397.2,-412.2 396.7,-412.2 396.1,-412.2 
			395.3,-412.2 394.4,-412.2 393.4,-412.2 392.2,-412.2 391,-412.2 389.7,-412.2 386.8,-412.2 383.7,-412.2 380.5,-412.2 
			377.4,-412.2 374.3,-412.2 371.4,-412.2 370.1,-412.2 368.8,-412.2 367.7,-412.2 366.7,-412.2 365.8,-412.2 365,-412.2 
			364.4,-412.2 363.9,-412.2 363.6,-412.2 363.5,-412.2 363.5,-412.2 363.5,-412 363.5,-411.8 363.5,-411.5 363.5,-411.1 
			363.5,-410.6 363.5,-409.5 363.5,-408.3 363.5,-406.8 363.5,-403.7 363.5,-400.6 363.5,-399.1 363.5,-397.9 363.5,-396.8 
			363.5,-396.3 363.5,-395.9 363.5,-395.6 363.5,-395.4 363.5,-395.2 363.5,-395.2 		"/>
	</g>
	<g id="SPLINE_397_">
		<line class="st0" x1="363.5" y1="-395.2" x2="346.9" y2="-395.2"/>
	</g>
	<g id="SPLINE_396_">
		<path class="st0" d="M346.9-395.2l0,34c0,0,0,0-17,0c0,34,0,34,0,34h17"/>
	</g>
	<g id="SPLINE_395_">
		<line class="st0" x1="346.9" y1="-327.2" x2="346.9" y2="-310.2"/>
	</g>
	<g id="SPLINE_196_">
		<line class="st0" x1="397.5" y1="-395.2" x2="414.5" y2="-395.2"/>
	</g>
	<g id="SPLINE_195_">
		<line class="st0" x1="414.5" y1="-395.2" x2="414.5" y2="-366.8"/>
	</g>
	<g id="SPLINE_66_">
		<polyline class="st0" points="346.9,-310.2 347.1,-310.2 347.6,-310.2 348.4,-310.2 349.5,-310.2 350.9,-310.2 352.4,-310.2 
			355.9,-310.2 363.7,-310.2 367.5,-310.2 369.3,-310.2 370.8,-310.2 372.2,-310.2 373.4,-310.2 374.3,-310.2 374.9,-310.2 
			375.2,-310.2 375.3,-310.2 375.4,-310.5 375.7,-310.8 376.1,-311.4 376.6,-312.1 377.2,-312.9 377.8,-313.9 378.6,-315 
			379.5,-316.3 381.4,-319.1 383.6,-322.2 386,-325.7 388.6,-329.4 391.2,-333.2 396.7,-341.2 399.5,-345.1 402.1,-348.9 
			404.6,-352.6 407,-355.9 409.1,-359 410.9,-361.6 411.7,-362.8 412.4,-363.8 413.1,-364.7 413.6,-365.4 414,-366 414.3,-366.5 
			414.5,-366.8 414.5,-366.8 		"/>
	</g>
	<g id="SPLINE_65_">
		<path class="st0" d="M377.7-368c3.1,0,5.7,2.5,5.7,5.7c0,0,0,3.1-2.5,5.7c-3.1,0-3.1,0-6.3,0c-2.5-2.5-2.5-5.7-2.5-5.7
			C372-365.4,374.5-368,377.7-368z"/>
	</g>
</g>
<g>
	<g id="SPLINE_406_">
		<polyline class="st0" points="501.7,-395.2 501.7,-395.2 501.7,-395.4 501.7,-395.6 501.7,-395.9 501.7,-396.3 501.7,-396.8 
			501.7,-397.9 501.7,-399.1 501.7,-400.6 501.7,-403.7 501.7,-406.8 501.7,-408.3 501.7,-409.5 501.7,-410.6 501.7,-411.1 
			501.7,-411.5 501.7,-411.8 501.7,-412 501.7,-412.2 501.7,-412.2 501.6,-412.2 501.3,-412.2 500.8,-412.2 500.2,-412.2 
			499.4,-412.2 498.5,-412.2 497.5,-412.2 496.3,-412.2 495.1,-412.2 493.8,-412.2 490.9,-412.2 487.8,-412.2 484.6,-412.2 
			481.5,-412.2 478.4,-412.2 475.5,-412.2 474.2,-412.2 473,-412.2 471.8,-412.2 470.8,-412.2 469.9,-412.2 469.1,-412.2 
			468.5,-412.2 468,-412.2 467.7,-412.2 467.6,-412.2 467.6,-412.2 467.6,-412 467.6,-411.8 467.6,-411.5 467.6,-411.1 
			467.6,-410.6 467.6,-409.5 467.6,-408.3 467.6,-406.8 467.6,-403.7 467.6,-400.6 467.6,-399.1 467.6,-397.9 467.6,-396.8 
			467.6,-396.3 467.6,-395.9 467.6,-395.6 467.6,-395.4 467.6,-395.2 467.6,-395.2 		"/>
	</g>
	<g id="SPLINE_405_">
		<line class="st0" x1="467.6" y1="-395.2" x2="451.1" y2="-395.2"/>
	</g>
	<g id="SPLINE_404_">
		<path class="st0" d="M451.1-395.2l0,34c0,0,0,0-17,0c0,34,0,34,0,34h17"/>
	</g>
	<g id="SPLINE_403_">
		<line class="st0" x1="451" y1="-327.2" x2="451" y2="-310.2"/>
	</g>
	<g id="SPLINE_402_">
		<line class="st0" x1="501.7" y1="-395.2" x2="518.7" y2="-395.2"/>
	</g>
	<g id="SPLINE_401_">
		<line class="st0" x1="518.7" y1="-395.2" x2="518.7" y2="-366.8"/>
	</g>
	<g id="SPLINE_400_">
		<polyline class="st0" points="451,-310.2 451.2,-310.2 451.7,-310.2 452.6,-310.2 453.6,-310.2 455,-310.2 456.5,-310.2 
			460,-310.2 467.8,-310.2 471.6,-310.2 473.4,-310.2 474.9,-310.2 476.3,-310.2 477.5,-310.2 478.4,-310.2 479.1,-310.2 
			479.4,-310.2 479.4,-310.2 479.6,-310.5 479.8,-310.8 480.2,-311.4 480.7,-312.1 481.3,-312.9 482,-313.9 482.7,-315 
			483.6,-316.3 485.5,-319.1 487.7,-322.2 490.1,-325.7 492.7,-329.4 495.4,-333.2 500.9,-341.2 503.6,-345.1 506.2,-348.9 
			508.7,-352.6 511.1,-355.9 513.2,-359 515,-361.6 515.8,-362.8 516.6,-363.8 517.2,-364.7 517.7,-365.4 518.1,-366 518.4,-366.5 
			518.6,-366.8 518.7,-366.8 		"/>
	</g>
	<g id="SPLINE_399_">
		<path class="st0" d="M481.8-368c3.1,0,5.7,2.5,5.7,5.7c0,0,0,3.1-2.5,5.7c-3.1,0-3.1,0-6.3,0c-2.5-2.5-2.5-5.7-2.5-5.7
			C476.1-365.4,478.7-368,481.8-368z"/>
	</g>
</g>
<g>
	<g id="SPLINE_414_">
		<polyline class="st0" points="605.8,-395.2 605.8,-395.2 605.8,-395.4 605.8,-395.6 605.8,-395.9 605.8,-396.3 605.8,-396.8 
			605.8,-397.9 605.8,-399.1 605.8,-400.6 605.8,-403.7 605.8,-406.8 605.8,-408.3 605.8,-409.5 605.8,-410.6 605.8,-411.1 
			605.8,-411.5 605.8,-411.8 605.8,-412 605.8,-412.2 605.8,-412.2 605.7,-412.2 605.4,-412.2 604.9,-412.2 604.3,-412.2 
			603.5,-412.2 602.6,-412.2 601.6,-412.2 600.5,-412.2 599.2,-412.2 597.9,-412.2 595,-412.2 591.9,-412.2 588.8,-412.2 
			585.6,-412.2 582.5,-412.2 579.6,-412.2 578.3,-412.2 577.1,-412.2 575.9,-412.2 574.9,-412.2 574,-412.2 573.2,-412.2 
			572.6,-412.2 572.1,-412.2 571.9,-412.2 571.8,-412.2 571.8,-412.2 571.8,-412 571.8,-411.8 571.8,-411.5 571.8,-411.1 
			571.8,-410.6 571.8,-409.5 571.8,-408.3 571.8,-406.8 571.8,-403.7 571.8,-400.6 571.8,-399.1 571.8,-397.9 571.8,-396.8 
			571.8,-396.3 571.8,-395.9 571.8,-395.6 571.8,-395.4 571.8,-395.2 571.8,-395.2 		"/>
	</g>
	<g id="SPLINE_413_">
		<line class="st0" x1="571.8" y1="-395.2" x2="555.2" y2="-395.2"/>
	</g>
	<g id="SPLINE_412_">
		<path class="st0" d="M555.2-395.2l0,34c0,0,0,0-17,0c0,34,0,34,0,34h17"/>
	</g>
	<g id="SPLINE_411_">
		<line class="st0" x1="555.1" y1="-327.2" x2="555.1" y2="-310.2"/>
	</g>
	<g id="SPLINE_410_">
		<line class="st0" x1="605.8" y1="-395.2" x2="622.8" y2="-395.2"/>
	</g>
	<g id="SPLINE_409_">
		<line class="st0" x1="622.8" y1="-395.2" x2="622.8" y2="-366.8"/>
	</g>
	<g id="SPLINE_408_">
		<polyline class="st0" points="555.1,-310.2 555.3,-310.2 555.8,-310.2 556.7,-310.2 557.8,-310.2 559.1,-310.2 560.6,-310.2 
			564.1,-310.2 572,-310.2 575.7,-310.2 577.5,-310.2 579.1,-310.2 580.5,-310.2 581.6,-310.2 582.5,-310.2 583.2,-310.2 
			583.5,-310.2 583.5,-310.2 583.7,-310.5 583.9,-310.8 584.3,-311.4 584.8,-312.1 585.4,-312.9 586.1,-313.9 586.8,-315 
			587.7,-316.3 589.6,-319.1 591.8,-322.2 594.2,-325.7 596.8,-329.4 599.5,-333.2 605,-341.2 607.7,-345.1 610.3,-348.9 
			612.9,-352.6 615.2,-355.9 617.3,-359 619.2,-361.6 620,-362.8 620.7,-363.8 621.3,-364.7 621.8,-365.4 622.2,-366 622.5,-366.5 
			622.7,-366.8 622.8,-366.8 		"/>
	</g>
	<g id="SPLINE_407_">
		<path class="st0" d="M585.9-368c3.1,0,5.7,2.5,5.7,5.7c0,0,0,3.1-2.5,5.7c-3.1,0-3.1,0-6.3,0c-2.5-2.5-2.5-5.7-2.5-5.7
			C580.2-365.4,582.8-368,585.9-368z"/>
	</g>
</g>
<g>
	<g id="SPLINE_422_">
		<polyline class="st0" points="709.9,-395.2 709.9,-395.2 709.9,-395.4 709.9,-395.6 709.9,-395.9 709.9,-396.3 709.9,-396.8 
			709.9,-397.9 709.9,-399.1 709.9,-400.6 709.9,-403.7 709.9,-406.8 709.9,-408.3 709.9,-409.5 709.9,-410.6 709.9,-411.1 
			709.9,-411.5 709.9,-411.8 709.9,-412 709.9,-412.2 709.9,-412.2 709.8,-412.2 709.5,-412.2 709,-412.2 708.4,-412.2 
			707.7,-412.2 706.7,-412.2 705.7,-412.2 704.6,-412.2 703.3,-412.2 702,-412.2 699.1,-412.2 696,-412.2 692.9,-412.2 
			689.7,-412.2 686.6,-412.2 683.8,-412.2 682.4,-412.2 681.2,-412.2 680,-412.2 679,-412.2 678.1,-412.2 677.3,-412.2 
			676.7,-412.2 676.3,-412.2 676,-412.2 675.9,-412.2 675.9,-412.2 675.9,-412 675.9,-411.8 675.9,-411.5 675.9,-411.1 
			675.9,-410.6 675.9,-409.5 675.9,-408.3 675.9,-406.8 675.9,-403.7 675.9,-400.6 675.9,-399.1 675.9,-397.9 675.9,-396.8 
			675.9,-396.3 675.9,-395.9 675.9,-395.6 675.9,-395.4 675.9,-395.2 675.9,-395.2 		"/>
	</g>
	<g id="SPLINE_421_">
		<line class="st0" x1="675.9" y1="-395.2" x2="659.3" y2="-395.2"/>
	</g>
	<g id="SPLINE_420_">
		<path class="st0" d="M659.3-395.2l0,34c0,0,0,0-17,0c0,34,0,34,0,34h17"/>
	</g>
	<g id="SPLINE_419_">
		<line class="st0" x1="659.3" y1="-327.2" x2="659.3" y2="-310.2"/>
	</g>
	<g id="SPLINE_418_">
		<line class="st0" x1="709.9" y1="-395.2" x2="726.9" y2="-395.2"/>
	</g>
	<g id="SPLINE_417_">
		<line class="st0" x1="726.9" y1="-395.2" x2="726.9" y2="-366.8"/>
	</g>
	<g id="SPLINE_416_">
		<polyline class="st0" points="659.3,-310.2 659.4,-310.2 660,-310.2 660.8,-310.2 661.9,-310.2 663.2,-310.2 664.7,-310.2 
			668.2,-310.2 676.1,-310.2 679.9,-310.2 681.6,-310.2 683.2,-310.2 684.6,-310.2 685.7,-310.2 686.7,-310.2 687.3,-310.2 
			687.6,-310.2 687.6,-310.2 687.8,-310.5 688,-310.8 688.4,-311.4 688.9,-312.1 689.5,-312.9 690.2,-313.9 691,-315 691.8,-316.3 
			693.7,-319.1 695.9,-322.2 698.3,-325.7 700.9,-329.4 703.6,-333.2 709.1,-341.2 711.8,-345.1 714.5,-348.9 717,-352.6 
			719.3,-355.9 721.4,-359 723.3,-361.6 724.1,-362.8 724.8,-363.8 725.4,-364.7 725.9,-365.4 726.3,-366 726.6,-366.5 
			726.8,-366.8 726.9,-366.8 		"/>
	</g>
	<g id="SPLINE_415_">
		<path class="st0" d="M690-368c3.1,0,5.7,2.5,5.7,5.7c0,0,0,3.1-2.5,5.7c-3.1,0-3.1,0-6.3,0c-2.5-2.5-2.5-5.7-2.5-5.7
			C684.3-365.4,686.9-368,690-368z"/>
	</g>
</g>
<g id="SPLINE_377_">
	<line class="st0" x1="296.5" y1="-50.9" x2="296.5" y2="-136"/>
</g>
<g id="SPLINE_378_">
	<path class="st0" d="M153.8,283.3V-85.2c0,0,0-24.2,24.3-43.9c30,0,30,0,60,0c24.3,19.6,24.3,43.9,24.3,43.9h17c0,0,0,0,0,34
		c-17,0-17,0-17,0V82c0,0,0,0,17,0c0,34,0,34,0,34h-17c0,0,0,0,0,133.2c17,0,17,0,17,0v34c0,0,0,0-17,0c0,0,0,0,0,24.2
		c-24.3,19.6-54.3,19.6-54.3,19.6C178.2,327.1,153.8,307.5,153.8,283.3z"/>
</g>
<g id="SPLINE_379_">
	<path class="st0" d="M126.5,386.9v-17c0,0,0,0-34,0c0,17,0,17,0,17h-34"/>
</g>
<g id="SPLINE_380_">
	<path class="st0" d="M183.1-193.2v17c0,0,0,0-34,0c0-17,0-17,0-17h-34"/>
</g>
<g id="SPLINE_381_">
	<path class="st0" d="M194.5,386.9v-17c0,0,0,0-34,0c0,17,0,17,0,17h-34"/>
</g>
<g id="SPLINE_382_">
	<path class="st0" d="M251.2-193.2v17c0,0,0,0-34,0c0-17,0-17,0-17h-34"/>
</g>
<g id="SPLINE_383_">
	<path class="st0" d="M262.5,386.9v-17c0,0,0,0-34,0c0,17,0,17,0,17h-34"/>
</g>
<g id="SPLINE_384_">
	<polyline class="st0" points="285.2,-176.2 285.2,-176.3 285.2,-176.6 285.2,-177.1 285.2,-177.7 285.2,-178.5 285.2,-179.5 
		285.2,-180.5 285.2,-181.6 285.2,-186.3 285.2,-188.5 285.2,-189.6 285.2,-190.5 285.2,-191.4 285.2,-192.1 285.2,-192.6 
		285.2,-193 285.2,-193.2 285.2,-193.2 285,-193.2 284.8,-193.2 284.5,-193.2 284.1,-193.2 283.6,-193.2 283,-193.2 282.3,-193.2 
		281.6,-193.2 279.9,-193.2 278,-193.2 275.9,-193.2 273.7,-193.2 271.4,-193.2 266.6,-193.2 264.2,-193.2 261.9,-193.2 
		259.8,-193.2 257.7,-193.2 255.9,-193.2 254.3,-193.2 253.6,-193.2 253,-193.2 252.5,-193.2 252,-193.2 251.7,-193.2 251.4,-193.2 
		251.2,-193.2 251.2,-193.2 	"/>
</g>
<g id="SPLINE_385_">
	<path class="st0" d="M296.5,218.1h17c0,0,0,0,0-34c-17,0-17,0-17,0v-34"/>
</g>
<g id="SPLINE_386_">
	<path class="st0" d="M296.5,150h17c0,0,0,0,0-34c-17,0-17,0-17,0V82"/>
</g>
<g id="SPLINE_387_">
	<path class="st0" d="M296.5,82h17c0,0,0,0,0-34c-17,0-17,0-17,0V14"/>
</g>
<g id="SPLINE_388_">
	<path class="st0" d="M296.5,14h17c0,0,0,0,0-34c-17,0-17,0-17,0v-30.9"/>
</g>
<g id="SPLINE_389_">
	<polyline class="st0" points="296.5,386.9 296.5,386.4 296.5,385.1 296.5,383 296.5,380.3 296.5,377.2 296.5,373.6 296.5,365.9 
		296.5,358.3 296.5,354.7 296.5,351.5 296.5,348.9 296.5,346.8 296.5,345.5 296.5,345 296.5,344.8 296.5,344 296.5,342.9 
		296.5,341.3 296.5,339.4 296.5,337.2 296.5,331.7 296.5,325.3 296.5,318.1 296.5,302.5 296.5,286.9 296.5,279.7 296.5,273.2 
		296.5,267.8 296.5,265.5 296.5,263.6 296.5,262.1 296.5,260.9 296.5,260.2 296.5,260 296.5,259.5 296.5,258.2 296.5,256.1 
		296.5,253.4 296.5,250.2 296.5,246.7 296.5,239 296.5,231.3 296.5,227.8 296.5,224.6 296.5,221.9 296.5,219.9 296.5,218.5 
		296.5,218.1 	"/>
</g>
<g id="SPLINE_390_">
	<line class="st0" x1="296.5" y1="-136" x2="296.5" y2="-176.2"/>
</g>
<g id="SPLINE_391_">
	<line class="st0" x1="262.5" y1="386.9" x2="296.5" y2="386.9"/>
</g>
<g id="SPLINE_392_">
	<line class="st0" x1="285.2" y1="-176.2" x2="296.5" y2="-176.2"/>
</g>
<g id="SPLINE_393_">
	<path class="st0" d="M115.1-193.2l-3.2,33.9c0,0,0,0,16.9,1.6c-3.2,33.9-3.2,33.9-3.2,33.9l-16.9-1.6"/>
</g>
<g id="SPLINE_394_">
	<polyline class="st0" points="108.6,-125.5 108.5,-124.5 108.3,-121.6 107.8,-117 107.2,-110.7 106.4,-102.8 105.5,-93.5 
		104.5,-82.8 103.3,-70.9 100.6,-43.9 97.7,-13.3 94.4,20.1 90.9,55.4 83.8,128 80.3,163.7 77,197.7 73.9,229.2 71.2,257.4 
		69.9,269.9 68.8,281.3 67.8,291.4 67,300.1 66.3,307.3 65.7,312.9 65.4,316.8 65.2,318.9 65.5,319.2 69.1,319.6 79.4,320.6 
		82,320.8 82,321.4 81.8,323.9 80.9,332.8 79.9,343.5 79.4,348.2 79.1,351.8 78.9,353.8 78.9,354 78.8,354.3 78.8,354.7 77.7,354.6 
		73.5,354.2 63.4,353.2 61.9,353.1 61.7,354.5 61.4,357.8 61,362.3 60,373.1 59,382.8 58.7,385.8 58.6,386.9 	"/>
</g>
<g id="ELLIPSE_11_">
	<path class="st0" d="M136.8-92.3c-3.9,0-7.1,3.2-7.1,7.1c0,3.9,3.2,7.1,7.1,7.1s7.1-3.2,7.1-7.1C143.9-89.2,140.7-92.3,136.8-92.3
		L136.8-92.3z"/>
</g>
<g id="ELLIPSE_12_">
	<path class="st0" d="M136.8-58.3c-3.9,0-7.1,3.2-7.1,7.1s3.2,7.1,7.1,7.1s7.1-3.2,7.1-7.1S140.7-58.3,136.8-58.3L136.8-58.3z"/>
</g>
<g id="ELLIPSE_13_">
	<path class="st0" d="M136.8-24.3c-3.9,0-7.1,3.2-7.1,7.1s3.2,7.1,7.1,7.1s7.1-3.2,7.1-7.1S140.7-24.3,136.8-24.3L136.8-24.3z"/>
</g>
<g id="ELLIPSE_14_">
	<path class="st0" d="M136.8,9.7c-3.9,0-7.1,3.2-7.1,7.1s3.2,7.1,7.1,7.1s7.1-3.2,7.1-7.1S140.7,9.7,136.8,9.7L136.8,9.7z"/>
</g>
<g id="ELLIPSE_15_">
	<path class="st0" d="M136.8,43.7c-3.9,0-7.1,3.2-7.1,7.1s3.2,7.1,7.1,7.1s7.1-3.2,7.1-7.1S140.7,43.7,136.8,43.7L136.8,43.7z"/>
</g>
<g id="ELLIPSE_16_">
	<path class="st0" d="M136.8,77.7c-3.9,0-7.1,3.2-7.1,7.1c0,3.9,3.2,7.1,7.1,7.1s7.1-3.2,7.1-7.1C143.9,80.9,140.7,77.7,136.8,77.7
		L136.8,77.7z"/>
</g>
<circle class="st0" cx="970.6" cy="-45.3" r="41.1"/>
<circle class="st0" cx="970.6" cy="66.7" r="41.1"/>
<circle class="st0" cx="970.6" cy="286" r="41.1"/>
<circle class="st0" cx="970.6" cy="398" r="41.1"/>
<circle class="st0" cx="849.1" cy="398" r="41.1"/>
<circle class="st0" cx="740.6" cy="379" r="41.1"/>
<circle class="st0" cx="756.8" cy="277.2" r="41.1"/>
<circle class="st0" cx="717.3" cy="184" r="41.1"/>
<circle class="st0" cx="757.3" cy="19.6" r="41.1"/>
<circle class="st0" cx="868" cy="297.5" r="41.1"/>
<circle class="st0" cx="826.8" cy="203.5" r="41.1"/>
<g id="SPLINE_113_">
	<path class="st0" d="M649.6,1025.8c3.1,0,5.7,2.5,5.7,5.7c0,0,0,3.1-2.5,5.7c-3.1,0-3.1,0-6.3,0c-2.5-2.5-2.5-5.7-2.5-5.7
		C643.9,1028.4,646.4,1025.8,649.6,1025.8z"/>
</g>
<g id="SPLINE_112_">
	<path class="st0" d="M649.6,1212.9c3.1,0,5.7,2.5,5.7,5.7c0,0,0,3.1-2.5,5.7c-3.1,0-3.1,0-6.3,0c-2.5-2.5-2.5-5.7-2.5-5.7
		C643.9,1215.5,646.4,1212.9,649.6,1212.9z"/>
</g>
<g id="SPLINE_111_">
	<path class="st0" d="M865,1025.8c3.1,0,5.7,2.5,5.7,5.7c0,0,0,3.1-2.5,5.7c-3.1,0-3.1,0-6.3,0c-2.5-2.5-2.5-5.7-2.5-5.7
		C859.3,1028.4,861.9,1025.8,865,1025.8z"/>
</g>
<g id="SPLINE_109_">
	<path class="st0" d="M865,1212.9c3.1,0,5.7,2.5,5.7,5.7c0,0,0,3.1-2.5,5.7c-3.1,0-3.1,0-6.3,0c-2.5-2.5-2.5-5.7-2.5-5.7
		C859.3,1215.5,861.9,1212.9,865,1212.9z"/>
</g>
<circle class="st0" cx="970.6" cy="1062.7" r="41.1"/>
<circle class="st0" cx="970.6" cy="1174.7" r="41.1"/>
<circle class="st0" cx="970.6" cy="1394" r="41.1"/>
<circle class="st0" cx="970.6" cy="1506" r="41.1"/>
<circle class="st0" cx="849.1" cy="1506" r="41.1"/>
<circle class="st0" cx="740.6" cy="1487" r="41.1"/>
<circle class="st0" cx="756.8" cy="1385.2" r="41.1"/>
<circle class="st0" cx="717.3" cy="1292" r="41.1"/>
<circle class="st0" cx="757.3" cy="1127.6" r="41.1"/>
<circle class="st0" cx="868" cy="1405.5" r="41.1"/>
<circle class="st0" cx="826.8" cy="1311.5" r="41.1"/>
</svg>
