<?xml version="1.0" encoding="utf-8"?>
<!-- Generator: Adobe Illustrator 24.3.0, SVG Export Plug-In . SVG Version: 6.00 Build 0)  -->
<svg version="1.1" id="Layer_1" xmlns="http://www.w3.org/2000/svg" xmlns:xlink="http://www.w3.org/1999/xlink" x="0px" y="0px"
	 viewBox="0 0 1683.8 1190.6" style="enable-background:new 0 0 1683.8 1190.6;" xml:space="preserve">
<style type="text/css">
	.st0{fill:none;stroke:#000000;stroke-width:0.7087;stroke-linecap:round;stroke-linejoin:round;stroke-miterlimit:10;}
	.st1{fill:none;stroke:#ED1C24;stroke-width:0.7087;stroke-linecap:round;stroke-linejoin:round;stroke-miterlimit:10;}
</style>
<g id="POLYLINE">
	<polyline class="st0" points="973.9,738.8 959,738.8 959,679.4 973.9,679.4 973.9,649.6 944.9,643.2 941.7,657.8 883.6,645.6 
		886.8,630.4 828.4,617.9 825.5,632.8 767.2,620.5 770.4,605.1 712.3,592.3 709.1,607.5 651,595.2 654.2,579.8 639.5,579.8 
		618.7,600.8 608.1,590.4 566,632.5 576.6,642.9 534.5,685 523.9,674.4 481.8,716.5 492.4,727.1 450.3,769.2 439.7,758.6 
		397.6,800.7 408.2,811.3 391.5,828.1 408.2,844.9 397.6,855.5 439.7,897.4 450.3,887 492.4,929.1 481.8,939.5 523.9,981.6 
		534.5,971.2 576.6,1013.3 566,1023.7 608.1,1065.8 618.7,1055.4 639.5,1076.4 654.2,1076.4 651,1061.5 709.3,1049.3 712.3,1063.6 
		770.4,1051.1 767.2,1035.9 825.5,1023.7 828.4,1038.3 886.8,1025.5 883.6,1011.2 941.9,998.9 944.9,1013 973.9,1006.6 973.9,976.8 
		959,976.8 959,917.4 973.9,917.4 973.9,857.9 959,857.9 959,798.3 973.9,798.3 973.9,738.8 	"/>
</g>
<g id="POLYLINE_2_">
	<path class="st0" d="M420.5,164.9"/>
</g>
<g id="POLYLINE_3_">
	<line class="st0" x1="513.8" y1="208.1" x2="866.8" y2="208.1"/>
</g>
<g id="POLYLINE_4_">
	<line class="st0" x1="866.8" y1="208.1" x2="866.8" y2="212.6"/>
</g>
<g id="POLYLINE_5_">
	<line class="st0" x1="866.8" y1="212.6" x2="865.2" y2="212.6"/>
</g>
<g id="SPLINE">
	<path class="st0" d="M865.2,212.6c-2.4,0-4.5,1.9-4.5,4.5"/>
</g>
<g id="POLYLINE_6_">
	<line class="st0" x1="860.7" y1="216.9" x2="860.7" y2="221.4"/>
</g>
<g id="POLYLINE_7_">
	<polyline class="st0" points="860.4,221.4 853.5,221.9 847.1,223.3 842,225.4 838.8,227.8 836.4,230.2 834.8,233.1 834.3,236.1 	
		"/>
</g>
<g id="POLYLINE_8_">
	<polyline class="st0" points="834.3,236.1 834.8,239.3 836.4,241.9 838.8,244.6 842,246.7 847.1,248.8 853.5,250.4 860.4,250.7 	
		"/>
</g>
<g id="POLYLINE_9_">
	<line class="st0" x1="860.4" y1="250.7" x2="860.4" y2="254.2"/>
</g>
<g id="POLYLINE_10_">
	<polyline class="st0" points="860.4,254.2 853.5,254.4 847.1,256 842,258.2 838.8,260.3 836.4,263 834.8,265.6 834.3,268.8 	"/>
</g>
<g id="POLYLINE_11_">
	<polyline class="st0" points="834.3,268.8 834.8,271.8 836.4,274.7 838.8,277.1 842,279.2 847.1,281.6 853.5,283 860.4,283.5 	"/>
</g>
<g id="POLYLINE_12_">
	<line class="st0" x1="860.4" y1="283.5" x2="860.4" y2="286.7"/>
</g>
<g id="POLYLINE_13_">
	<polyline class="st0" points="860.4,286.7 853.5,287.2 847.1,288.5 842,290.9 838.8,293.1 836.4,295.5 834.8,298.4 834.3,301.3 	
		"/>
</g>
<g id="POLYLINE_14_">
	<polyline class="st0" points="834.3,301.3 834.8,304.5 836.4,307.2 838.8,309.9 842,312 847.1,314.4 853.5,315.7 860.4,316.3 	"/>
</g>
<g id="POLYLINE_15_">
	<line class="st0" x1="860.4" y1="316.3" x2="860.4" y2="319.5"/>
</g>
<g id="POLYLINE_16_">
	<polyline class="st0" points="860.4,319.5 853.5,319.7 847.1,321.3 842,323.5 838.8,325.8 836.4,328.2 834.8,331.2 834.3,334.1 	
		"/>
</g>
<g id="POLYLINE_17_">
	<polyline class="st0" points="834.3,334.1 834.8,337 836.4,340 838.8,342.4 842,344.8 847.1,346.9 853.5,348.5 860.4,348.8 	"/>
</g>
<g id="POLYLINE_18_">
	<line class="st0" x1="860.4" y1="348.8" x2="860.4" y2="352"/>
</g>
<g id="POLYLINE_19_">
	<polyline class="st0" points="860.4,352 853.5,352.5 847.1,353.8 842,356.2 838.8,358.4 836.4,361 834.8,363.7 834.3,366.9 	"/>
</g>
<g id="POLYLINE_20_">
	<polyline class="st0" points="860.4,381.5 853.5,381 847.1,379.7 842,377.3 838.8,375.1 836.4,372.7 834.8,369.8 834.3,366.9 	"/>
</g>
<g id="POLYLINE_21_">
	<line class="st0" x1="860.4" y1="384.7" x2="860.4" y2="381.5"/>
</g>
<g id="POLYLINE_22_">
	<polyline class="st0" points="834.3,399.4 834.8,396.5 836.4,393.5 838.8,391.1 842,389 847.1,386.6 853.5,385.3 860.4,384.7 	"/>
</g>
<g id="POLYLINE_23_">
	<polyline class="st0" points="860.4,414 853.5,413.8 847.1,412.2 842,410 838.8,407.9 836.4,405.3 834.8,402.6 834.3,399.4 	"/>
</g>
<g id="POLYLINE_24_">
	<line class="st0" x1="860.4" y1="417.5" x2="860.4" y2="414"/>
</g>
<g id="POLYLINE_25_">
	<polyline class="st0" points="834.3,432.2 834.8,429 836.4,426.3 838.8,423.6 842,421.5 847.1,419.4 853.5,417.8 860.4,417.5 	"/>
</g>
<g id="POLYLINE_26_">
	<polyline class="st0" points="860.4,446.8 853.5,446.3 847.1,445 842,442.8 838.8,440.4 836.4,438 834.8,435.1 834.3,432.2 	"/>
</g>
<g id="POLYLINE_27_">
	<line class="st0" x1="860.4" y1="450" x2="860.4" y2="446.8"/>
</g>
<g id="POLYLINE_28_">
	<polyline class="st0" points="834.3,464.9 834.8,461.7 836.4,459.1 838.8,456.4 842,454.3 847.1,451.9 853.5,450.5 860.4,450 	"/>
</g>
<g id="POLYLINE_29_">
	<polyline class="st0" points="860.4,479.6 853.5,479.1 847.1,477.7 842,475.3 838.8,473.2 836.4,470.5 834.8,467.9 834.3,464.9 	
		"/>
</g>
<g id="POLYLINE_30_">
	<line class="st0" x1="860.4" y1="482.8" x2="860.4" y2="479.6"/>
</g>
<g id="POLYLINE_31_">
	<polyline class="st0" points="834.3,497.4 834.8,494.5 836.4,491.6 838.8,489.2 842,486.8 847.1,484.7 853.5,483.3 860.4,482.8 	
		"/>
</g>
<g id="POLYLINE_32_">
	<polyline class="st0" points="860.4,512.1 853.5,511.8 847.1,510.2 842,508.1 838.8,506 836.4,503.3 834.8,500.6 834.3,497.4 	"/>
</g>
<g id="POLYLINE_33_">
	<line class="st0" x1="860.4" y1="515.6" x2="860.4" y2="512.1"/>
</g>
<g id="POLYLINE_34_">
	<polyline class="st0" points="834.3,530.2 834.8,527 836.4,524.4 838.8,521.7 842,519.6 847.1,517.4 853.5,515.8 860.4,515.6 	"/>
</g>
<g id="POLYLINE_35_">
	<polyline class="st0" points="860.4,544.9 853.5,544.3 847.1,543 842,540.6 838.8,538.5 836.4,536.1 834.8,533.1 834.3,530.2 	"/>
</g>
<g id="POLYLINE_36_">
	<line class="st0" x1="860.4" y1="549.7" x2="860.4" y2="544.9"/>
</g>
<g id="SPLINE_1_">
	<path class="st0" d="M860.4,549.7c0,2.7,2.1,4.8,4.8,4.8"/>
</g>
<g id="POLYLINE_37_">
	<line class="st0" x1="866.8" y1="554.7" x2="865.2" y2="554.7"/>
</g>
<g id="POLYLINE_38_">
	<line class="st0" x1="866.8" y1="559" x2="866.8" y2="554.7"/>
</g>
<g id="POLYLINE_39_">
	<line class="st0" x1="513.8" y1="559" x2="866.8" y2="559"/>
</g>
<g id="POLYLINE_40_">
	<path class="st0" d="M417.3,604.3"/>
</g>
<g id="POLYLINE_41_">
	<polyline class="st0" points="513.8,208.1 499.6,207.5 486.3,205.7 473.5,202.5 462.1,198.5 453,194.2 445,189.4 440.2,183.8 
		434.4,176.9 426.4,164.9 411.4,164.9 411.4,185.7 426.4,185.7 426.4,206.5 411.4,206.5 411.4,227.3 426.4,227.3 426.4,248 
		411.4,248 411.4,269.1 426.4,269.1 426.4,289.9 411.4,289.9 411.4,310.7 426.4,310.7 426.4,331.4 411.4,331.4 411.4,352.2 
		426.4,352.2 426.4,373.3 411.4,373.3 411.4,394.1 426.4,394.1 426.4,414.8 411.4,414.8 411.4,435.6 426.4,435.6 426.4,456.4 
		411.4,456.4 411.4,477.2 426.4,477.2 426.4,498.2 411.4,498.2 411.4,519 426.4,519 426.4,539.8 411.4,539.8 411.4,560.6 
		426.4,560.6 426.4,581.4 411.4,581.4 411.4,602.2 426.4,602.2 435.4,590.2 440.2,583.2 445,577.9 453,572.8 462.1,568.6 
		473.5,564.6 486.3,561.7 499.6,559.8 513.8,559 	"/>
</g>
<g id="POLYLINE_42_">
	<polyline class="st0" points="344,860.9 344,846 284.6,846 284.6,860.9 225.2,860.9 225.2,846 165.5,846 165.5,860.9 106.1,860.9 
		106.1,846 46.7,846 46.7,860.9 28.8,860.9 28.8,1069.2 46.7,1069.2 46.7,1084.2 106.1,1084.2 106.1,1069.2 165.5,1069.2 
		165.5,1084.2 225.2,1084.2 225.2,1069.2 284.6,1069.2 284.6,1084.2 344,1084.2 344,1069.2 373.9,1069.2 373.9,1048.5 359,1048.5 
		359,1024.5 373.9,1024.5 373.9,1000.8 359,1000.8 359,977 373.9,977 373.9,953.1 359,953.1 359,929.4 373.9,929.4 373.9,905.6 
		359,905.6 359,881.7 373.9,881.7 373.9,860.9 344,860.9 	"/>
</g>
<g id="POLYLINE_43_">
	<polyline class="st0" points="58.4,794.3 58.4,809.2 118.1,809.2 118.1,794.3 177.5,794.3 177.5,809.2 236.9,809.2 236.9,794.3 
		296.6,794.3 296.6,809.2 356,809.2 356,794.3 373.9,794.3 373.9,585.9 356,585.9 356,571.2 296.6,571.2 296.6,585.9 236.9,585.9 
		236.9,571.2 177.5,571.2 177.5,585.9 118.1,585.9 118.1,571.2 58.4,571.2 58.4,585.9 28.8,585.9 28.8,607 43.7,607 43.7,630.7 
		28.8,630.7 28.8,654.4 43.7,654.4 43.7,678.4 28.8,678.4 28.8,702.1 43.7,702.1 43.7,725.8 28.8,725.8 28.8,749.8 43.7,749.8 
		43.7,773.5 28.8,773.5 28.8,794.3 58.4,794.3 	"/>
</g>
<g id="SPLINE_2_">
	<path class="st0" d="M1621.1,747.6v-4.5c0-2.4,1.9-4.5,4.5-4.5h1.6V734h-357l-14.1-0.5l-13.6-1.9l-12.5-2.9l-11.7-4l-9.1-4.3
		l-8-4.8l-5.9-5.3l-4-6.4l-4.5-12.5v20.8h-14.9V733h14.9v20.8h-14.9v20.8h14.9v20.8h-14.9v20.8h14.9v20.8h-14.9v20.8h14.9v20.8
		h-14.9v20.8h14.9V920h-14.9v20.8h14.9v20.8h-14.9v20.8h14.9v20.8h-14.9v20.8h14.9v20.8h-14.9v20.8h14.9v20.8h-14.9v20.8h14.9v20.8
		l4-11.2l4.5-7.7l5.9-5.3l8-4.8l9.1-4.3l11.7-4l12.5-2.9l13.6-1.9l14.1-0.5h357v-4.5h-1.6c-2.4,0-4.5-2.1-4.5-4.5v-5.3l-6.9-0.5
		l-6.1-1.3l-5.3-2.4l-3.2-2.1l-2.4-2.4l-1.6-2.9l-0.5-2.9l0.5-2.9l1.6-2.9l2.4-2.7l3.2-2.1l5.3-2.4l6.1-1.3l6.9-0.5v-3.2l-6.9-0.5
		l-6.1-1.3l-5.3-2.4l-3.2-2.1l-2.4-2.7l-1.6-2.9l-0.5-2.9l0.5-2.9l1.6-2.9l2.4-2.4l3.2-2.1l5.3-2.4l6.1-1.3l6.9-0.5v-3.2l-6.9-0.5
		l-6.1-1.3l-5.3-2.4l-3.2-2.1l-2.4-2.4l-1.6-2.9l-0.5-2.9l0.5-2.9l1.6-2.9l2.4-2.4l3.2-2.1l5.3-2.4l6.1-1.3l6.9-0.5v-2.9l-6.9-0.5
		l-6.1-1.3l-5.3-2.4l-3.2-2.1l-2.4-2.4l-1.6-2.9l-0.5-2.9l0.5-2.9l1.6-2.9l2.4-2.4l3.2-2.1l5.3-2.4l6.1-1.3l6.9-0.5v-3.2l-6.9-0.5
		l-6.1-1.3l-5.3-2.4l-3.2-2.1l-2.4-2.7l-1.6-2.9l-0.5-2.9l0.5-2.9l1.6-2.9l2.4-2.7l3.2-2.1l5.3-2.4l6.1-1.3l6.9-0.5v-3.2l-6.9-0.5
		l-6.1-1.3l-5.3-2.4l-3.2-2.1l-2.4-2.4l-1.6-2.9l-0.5-2.9l0.5-2.9l1.6-2.9l2.4-2.7l3.2-2.1l5.3-2.4l6.1-1.3l6.9-0.5v-3.2l-6.9-0.5
		l-6.1-1.3l-5.3-2.4l-3.2-2.1l-2.4-2.4l-1.6-2.9l-0.5-2.9l0.5-2.9l1.6-2.9l2.4-2.4l3.2-2.1l5.3-2.4l6.1-1.3l6.9-0.5v-2.9l-6.9-0.5
		l-6.1-1.3l-5.3-2.4l-3.2-2.1l-2.4-2.7l-1.6-2.9l-0.5-2.9l0.5-2.9l1.6-2.9l2.4-2.7l3.2-2.1l5.3-2.4l6.1-1.3l6.9-0.5v-3.2l-6.9-0.5
		l-6.1-1.3l-5.3-2.4l-3.2-2.1l-2.4-2.4l-1.6-2.9l-0.5-2.9l0.5-2.9l1.6-2.9l2.4-2.7l3.2-2.1l5.3-2.4l6.1-1.3l6.9-0.5v-3.2l-6.9-0.5
		l-6.1-1.3l-5.3-2.4l-3.2-2.1l-2.4-2.4l-1.6-2.9l-0.5-2.9l0.5-2.9l1.6-2.9l2.4-2.4l3.2-2.1l5.3-2.4l6.1-1.3L1621.1,747.6z"/>
</g>
<g id="POLYLINE_44_">
	<polyline class="st0" points="1463.1,325.6 1448.2,325.6 1448.2,265.9 1463.1,265.9 1463.1,236.3 1433.8,229.9 1430.9,244.3 
		1372.5,232.1 1375.7,217.1 1317.6,204.3 1314.4,219.5 1256.4,207.3 1259.6,191.8 1201.5,179 1198.3,194 1139.9,181.7 1143.1,166.2 
		1128.7,166.5 1107.7,187.6 1097.3,176.9 1055.2,219 1065.6,229.7 1023.5,271.8 1013.1,261.1 971,303.2 981.4,313.9 939.3,356 
		928.9,345.3 886.8,387.4 897.2,397.8 880.4,414.8 897.2,431.6 886.8,442 928.9,484.1 939.3,473.7 981.4,515.8 971,526.2 
		1013.1,568.3 1023.5,557.9 1065.6,600 1055.2,610.4 1097.3,652.5 1107.7,641.9 1128.7,662.9 1143.1,663.2 1140.2,648.3 1198.3,636 
		1201.5,650.4 1259.6,637.9 1256.4,622.7 1314.7,610.4 1317.6,625.1 1375.7,612.3 1372.8,597.9 1430.9,585.6 1433.8,599.8 
		1463.1,593.4 1463.1,563.5 1448.2,563.5 1448.2,504.1 1463.1,504.1 1463.1,444.4 1448.2,444.4 1448.2,385 1463.1,385 1463.1,325.6 
			"/>
</g>
<g id="POLYLINE_45_">
	<polyline class="st0" points="509.8,279.5 450.1,279.5 450.1,264.6 509.8,264.6 509.8,279.5 	"/>
</g>
<g id="POLYLINE_46_">
	<polyline class="st0" points="747.7,264.6 747.7,279.5 688.3,279.5 688.3,264.6 747.7,264.6 	"/>
</g>
<g id="POLYLINE_47_">
	<polyline class="st0" points="628.6,279.5 569.2,279.5 569.2,264.6 628.6,264.6 628.6,279.5 	"/>
</g>
<g id="POLYLINE_48_">
	<polyline class="st0" points="628.6,502.8 628.6,488.1 569.2,488.1 569.2,502.8 628.6,502.8 	"/>
</g>
<g id="POLYLINE_49_">
	<polyline class="st0" points="509.8,488.1 450.1,488.1 450.1,502.8 509.8,502.8 509.8,488.1 	"/>
</g>
<g id="SPLINE_3_">
	<path class="st1" d="M438.4,379.1c-2.4,0-4.5,1.9-4.5,4.5c0,2.7,2.1,4.5,4.5,4.5s4.5-1.9,4.5-4.5
		C442.9,381,440.8,379.1,438.4,379.1z"/>
</g>
<g id="POLYLINE_50_">
	<polyline class="st0" points="747.7,488.1 688.3,488.1 688.3,502.8 747.7,502.8 747.7,488.1 	"/>
</g>
<g id="SPLINE_4_">
	<path class="st1" d="M718.1,780.4c-26.4,0-47.7,21.3-47.7,47.7c0,26.4,21.3,47.7,47.7,47.7c26.4,0,47.7-21.3,47.7-47.7
		C765.6,801.7,744.2,780.4,718.1,780.4z"/>
</g>
<g id="SPLINE_5_">
	<circle class="st1" cx="465.8" cy="828.1" r="18.9"/>
</g>
<g id="SPLINE_6_">
	<circle class="st1" cx="955" cy="414.8" r="18.9"/>
</g>
<g id="POLYLINE_51_">
	<polyline class="st1" points="808.2,805.2 808.2,753.8 793.5,753.8 793.5,805.2 808.2,805.2 	"/>
</g>
<g id="POLYLINE_52_">
	<polyline class="st1" points="808.2,902.4 808.2,851 793.5,851 793.5,902.4 808.2,902.4 	"/>
</g>
<g id="POLYLINE_53_">
	<polyline class="st1" points="736.8,750.3 756.5,757 761.3,742.8 741.6,736.2 736.8,750.3 	"/>
</g>
<g id="POLYLINE_54_">
	<polyline class="st1" points="736.8,905.9 756.5,899.2 761.3,913.4 741.6,920 736.8,905.9 	"/>
</g>
<g id="POLYLINE_55_">
	<polyline class="st1" points="679.2,909.9 644.9,875.5 634.2,885.9 668.6,920.3 679.2,909.9 	"/>
</g>
<g id="POLYLINE_56_">
	<polyline class="st1" points="736.8,967.5 709.1,939.7 698.4,950.1 726.1,977.8 736.8,967.5 	"/>
</g>
<g id="POLYLINE_58_">
	<polyline class="st1" points="586.8,817.4 576.4,828.1 604.4,856.1 614.7,845.4 597.4,828.1 617.7,807.9 607,797.2 586.8,817.4 	
		"/>
</g>
<g id="POLYLINE_59_">
	<polyline class="st1" points="647.5,778 679.2,746.3 668.6,735.6 637.1,767.4 647.5,778 	"/>
</g>
<g id="POLYLINE_60_">
	<polyline class="st1" points="709.1,716.5 736.8,688.8 726.1,678.1 698.4,705.8 709.1,716.5 	"/>
</g>
<g id="POLYLINE_61_">
	<polyline class="st1" points="1210.5,805.7 1210.5,790.8 1270.2,790.8 1270.2,805.7 1210.5,805.7 	"/>
</g>
<g id="POLYLINE_62_">
	<polyline class="st1" points="1508.1,790.8 1508.1,805.7 1448.7,805.7 1448.7,790.8 1508.1,790.8 	"/>
</g>
<g id="POLYLINE_63_">
	<polyline class="st1" points="1389,805.7 1329.6,805.7 1329.6,790.8 1389,790.8 1389,805.7 	"/>
</g>
<g id="POLYLINE_64_">
	<polyline class="st1" points="1389,1029 1389,1014.1 1329.6,1014.1 1329.6,1029 1389,1029 	"/>
</g>
<g id="POLYLINE_65_">
	<polyline class="st1" points="1270.2,1014.1 1210.5,1014.1 1210.5,1029 1270.2,1029 1270.2,1014.1 	"/>
</g>
<g id="SPLINE_7_">
	<path class="st1" d="M1201.7,905.4c-2.4,0-4.5,2.1-4.5,4.5c0,2.4,1.9,4.5,4.5,4.5c2.4,0,4.5-2.1,4.5-4.5
		C1206.3,907.2,1204.4,905.4,1201.7,905.4z"/>
</g>
<g id="POLYLINE_66_">
	<polyline class="st1" points="1508.1,1014.1 1448.7,1014.1 1448.7,1029 1508.1,1029 1508.1,1014.1 	"/>
</g>
<g>
	<g id="POLYLINE_1_">
		<polyline class="st0" points="380,338.6 365.1,338.6 365.1,314.7 380,314.7 380,290.7 365.1,290.7 365.1,269.9 350.2,269.9 
			350.2,255.2 290.5,255.2 290.5,269.9 231.1,269.9 231.1,255.2 171.6,255.2 171.6,269.9 112,269.9 112,255.2 52.5,255.2 
			52.5,269.9 37.9,269.9 37.9,290.7 22.7,290.7 22.7,314.7 37.9,314.7 37.9,338.6 22.7,338.6 22.7,362.4 37.9,362.4 37.9,385.8 
			22.7,385.8 22.7,409.8 37.9,409.8 37.9,433.8 22.7,433.8 22.7,457.7 37.9,457.7 37.9,478.3 52.5,478.3 52.5,493.2 112,493.2 
			112,478.3 171.6,478.3 171.6,493.2 231.1,493.2 231.1,478 290.5,478 290.5,493.2 350.2,493.2 350.2,478 365.1,478 365.1,457.7 
			380,457.7 380,433.8 365.1,433.8 365.1,409.8 380,409.8 380,385.8 365.1,385.8 365.1,362.4 380,362.4 380,338.6 		"/>
	</g>
	<g id="SPLINE_8_">
		<circle class="st1" cx="63.5" cy="292" r="9.3"/>
	</g>
	<g id="SPLINE_9_">
		<circle class="st1" cx="339.5" cy="292" r="9.3"/>
	</g>
	<g id="SPLINE_10_">
		<circle class="st1" cx="63.5" cy="459.9" r="9.3"/>
	</g>
	<g id="SPLINE_11_">
		<circle class="st1" cx="339.5" cy="459.9" r="9.3"/>
	</g>
</g>
<g id="Porch">
	<g id="POLYLINE_74_">
		<polyline class="st0" points="386.9,39.4 386.9,24.5 366.2,24.5 366.2,39.4 332,39.4 332,78.3 317.4,78.3 317.4,99.1 332,99.1 
			332,138 366.2,138 366.2,152.4 386.9,152.4 386.9,137.7 428.2,137.7 428.2,39.4 386.9,39.4 		"/>
	</g>
	<g id="POLYLINE_73_">
		<polyline class="st0" points="584.9,74.6 584.9,36 550.8,36 550.8,21 530,21 530,36 489,36 489,134 530,134 530,148.9 
			550.8,148.9 550.8,134.3 584.9,134.3 584.9,95.4 599.8,95.4 599.8,74.6 584.9,74.6 		"/>
	</g>
	<g id="POLYLINE_72_">
		<polyline class="st0" points="799.1,74.6 799.1,21 747.7,21 747.7,36 701.9,36 701.9,21 650.5,21 650.5,74.6 665.4,74.6 
			665.4,95.4 650.5,95.4 650.5,149.2 668.3,149.2 668.3,134.3 689.1,134.3 689.1,149.2 714.4,149.2 714.4,134.3 735.2,134.3 
			735.2,149.2 760.5,149.2 760.5,134.3 781.5,134.3 781.5,149.2 799.1,149.2 799.1,95.4 784.5,95.4 784.5,74.6 799.1,74.6 		"/>
	</g>
	<g id="POLYLINE_71_">
		<polyline class="st0" points="868.1,87.6 855.1,126.8 869.7,141.5 859.3,151.9 874,166.8 884.4,156.1 899.3,171 888.7,181.4 
			903.3,196.1 914,185.7 928.6,200.4 918.2,211 932.9,225.7 943.3,215 960.3,232.1 977.1,215 987.5,225.7 1002.4,211 991.8,200.4 
			1006.4,185.7 1017.1,196.1 1031.7,181.4 1021.3,171 1036,156.1 1046.4,166.8 1061.3,151.9 1050.7,141.5 1065.3,126.8 1052.3,87.6 
			1038.1,92.4 1031.5,72.7 1045.6,67.9 1034.7,36 1016.8,36 1016.8,21 996,21 996,36 970.7,36 970.7,21 949.9,21 949.9,36 924.6,36 
			924.6,21 903.6,21 903.6,36 885.7,36 874.8,67.9 888.9,72.7 882.3,92.4 868.1,87.6 		"/>
	</g>
	<g id="SPLINE_17_">
		<path class="st1" d="M912.6,111.4c0,26.4,21.3,47.7,47.7,47.7c26.4,0,47.7-21.3,47.7-47.7s-21.3-47.7-47.7-47.7
			C934,63.7,912.6,85,912.6,111.4z"/>
	</g>
	<g id="SPLINE_16_">
		<path class="st0" d="M1446.9,48.2v-2.9v-1.6c0-2.4,2.1-4.5,4.5-4.5v-3.5h-20V20.5l-39.2,0.5V36h-42.4V21h-44.8V36h-42.4V21H1234
			v25.6h-14.9v25.8h14.9V98h-14.9v25.6h14.9v25.6h23.7v-14.9h20.8v14.9h20.8v-14.9h20.8v14.9h20.8v-14.9h20.8v14.9h89.3v-4.5h-1.6
			c-2.4,0-4.5-2.1-4.5-4.5v-4.5l-6.4-0.5l-5.9-1.3l-4.8-2.1l-2.9-2.1l-2.1-2.4l-1.3-2.7l-0.5-2.9l0.5-2.9l1.6-2.7l2.4-2.4l2.9-1.9
			l4.8-2.1l5.9-1.3l6.4-0.3V105l-6.4-0.5l-5.9-1.3l-4.8-2.1l-2.9-2.1l-2.1-2.4l-1.3-2.7l-0.5-2.9l0.5-2.9l1.6-2.7l2.4-2.4l2.9-1.9
			l4.8-2.1l5.9-1.3l6.4-0.3v-2.9l-6.4-0.5l-5.9-1.3l-4.8-2.1l-2.9-2.1l-2.1-2.4l-1.3-2.7l-0.5-2.9l0.5-2.9l1.6-2.7l2.4-2.4l2.9-1.9
			l4.8-2.1l5.9-1.3L1446.9,48.2"/>
	</g>
	<g id="SPLINE_15_">
		<path class="st0" d="M276.1,120.2l-6.1-0.3l-5.6-1.3l-4.8-1.9l-2.9-1.9l-2.1-2.1l-1.3-2.4l-0.5-2.7l0.5-2.7l1.3-2.7l2.1-2.4
			l2.9-2.1l4.8-2.1l5.6-1.3l6.1-0.5v-2.9l-6.1-0.3l-5.6-1.3l-4.8-1.9l-2.9-1.9l-2.1-2.1l-1.3-2.4l-0.5-2.7l0.5-2.7l1.3-2.7l2.1-2.4
			l2.9-2.1l4.8-2.1L270,65l6.1-0.5v-2.9l-6.1-0.3l-5.6-1.3l-4.8-1.9l-2.9-1.9l-2.1-2.1l-1.3-2.4l-0.5-2.7l0.5-2.7l1.3-2.7l2.1-2.4
			l2.9-2.1l4.8-2.1l5.6-1.3l6.1-0.5v-5.1c0-2.7,2.1-5.1,5.1-5.1h1.1v-4h-86.3V36h-20.8V21h-20.8V36h-20.8V21h-20.8V36H92V21H53.1
			v25.6H68v25.6H53.1v25.6H68v25.6H53.1v25.6h39.7V134h42.4v14.9h48.8V134H226v14.9h39.2V134h15.7v-4.3c-2.4-0.3-4.3-2.4-4.3-5.1
			L276.1,120.2"/>
	</g>
</g>
</svg>
