<?xml version="1.0" encoding="utf-8"?>
<!-- Generator: Adobe Illustrator 25.0.0, SVG Export Plug-In . SVG Version: 6.00 Build 0)  -->
<svg version="1.1" id="Layer_1" xmlns="http://www.w3.org/2000/svg" xmlns:xlink="http://www.w3.org/1999/xlink" x="0px" y="0px"
	 viewBox="0 0 456.4 255.1" style="enable-background:new 0 0 456.4 255.1;" xml:space="preserve">
<style type="text/css">
	.st0{fill:#D3D3D3;}
	.st1{fill:#D3D3D3;stroke:#000000;stroke-width:1.4173;stroke-miterlimit:11.3386;}
</style>
<path class="st0" d="M456.4,198.4h-9v-28.3h9V85h-9V56.7h9V0h-56.7v9h-28.3V0h-129v9H214V0H85v9H56.7V0H0v56.7h9V85H0v85h9v28.3H0
	v56.7h56.7v-9H85v9h129v-9h28.3v9h129v-9h28.3v9h56.7V198.4z M385.1,75.1l-0.9-0.2l-0.8-0.4l-0.7-0.5l-0.6-0.7l-0.4-0.8l-0.3-0.8
	l-0.1-0.9l0.1-0.9l0.3-0.8l0.4-0.8l0.6-0.7l0.7-0.5l0.8-0.4l0.9-0.2h0.9l0.9,0.2l0.8,0.4l0.7,0.5l0.6,0.7l0.4,0.8l0.3,0.8l0.1,0.9
	l-0.1,0.9l-0.3,0.8l-0.4,0.8l-0.6,0.7l-0.7,0.5l-0.8,0.4l-0.9,0.2H385.1z M227.7,75.1l-0.9-0.2l-0.8-0.4l-0.7-0.5l-0.6-0.7l-0.4-0.8
	l-0.3-0.8l-0.1-0.9L224,70l0.3-0.8l0.4-0.8l0.6-0.7l0.7-0.5l0.8-0.4l0.9-0.2h0.9l0.9,0.2l0.8,0.4l0.7,0.5l0.6,0.7l0.4,0.8l0.3,0.8
	l0.1,0.9l-0.1,0.9l-0.3,0.8l-0.4,0.8L231,74l-0.7,0.5l-0.8,0.4l-0.9,0.2H227.7z M70.4,75.1l-0.9-0.2l-0.8-0.4L68,74l-0.6-0.7
	L67,72.6l-0.3-0.8l-0.1-0.9l0.1-0.9l0.3-0.8l0.4-0.8l0.6-0.7l0.7-0.5l0.8-0.4l0.9-0.2h0.9l0.9,0.2l0.8,0.4l0.7,0.5l0.6,0.7l0.4,0.8
	L75,70l0.1,0.9L75,71.8l-0.3,0.8l-0.4,0.8L73.7,74L73,74.5l-0.8,0.4l-0.9,0.2H70.4z M70.4,188.5l-0.9-0.2l-0.8-0.4l-0.7-0.5
	l-0.6-0.7L67,186l-0.3-0.8l-0.1-0.9l0.1-0.9l0.3-0.8l0.4-0.8l0.6-0.7l0.7-0.5l0.8-0.4l0.9-0.2h0.9l0.9,0.2l0.8,0.4l0.7,0.5l0.6,0.7
	l0.4,0.8l0.3,0.8l0.1,0.9l-0.1,0.9l-0.3,0.8l-0.4,0.8l-0.6,0.7l-0.7,0.5l-0.8,0.4l-0.9,0.2H70.4z M227.7,188.5l-0.9-0.2l-0.8-0.4
	l-0.7-0.5l-0.6-0.7l-0.4-0.8l-0.3-0.8l-0.1-0.9l0.1-0.9l0.3-0.8l0.4-0.8l0.6-0.7l0.7-0.5l0.8-0.4l0.9-0.2h0.9l0.9,0.2l0.8,0.4
	l0.7,0.5l0.6,0.7l0.4,0.8l0.3,0.8l0.1,0.9l-0.1,0.9l-0.3,0.8l-0.4,0.8l-0.6,0.7l-0.7,0.5l-0.8,0.4l-0.9,0.2H227.7z M385.1,188.5
	l-0.9-0.2l-0.8-0.4l-0.7-0.5l-0.6-0.7l-0.4-0.8l-0.3-0.8l-0.1-0.9l0.1-0.9l0.3-0.8l0.4-0.8l0.6-0.7l0.7-0.5l0.8-0.4l0.9-0.2h0.9
	l0.9,0.2l0.8,0.4l0.7,0.5l0.6,0.7l0.4,0.8l0.3,0.8l0.1,0.9l-0.1,0.9l-0.3,0.8l-0.4,0.8l-0.6,0.7l-0.7,0.5l-0.8,0.4l-0.9,0.2H385.1z"
	/>
<path class="st0" d="M1277.4,201.8h-9v-28.3h9v-85h-9V60.1h9V3.4h-56.7v9h-28.3v-9h-129v9H1035v-9h-129v9h-28.3v-9H821v56.7h9v28.3
	h-9v85h9v28.3h-9v56.7h56.7v-9h28.3v9h129v-9h28.3v9h129v-9h28.3v9h56.7V201.8z M1206.1,78.5l-0.9-0.2l-0.8-0.4l-0.7-0.5l-0.6-0.7
	l-0.4-0.8l-0.3-0.8l-0.1-0.9l0.1-0.9l0.3-0.8l0.4-0.8l0.6-0.7l0.7-0.5l0.8-0.4l0.9-0.2h0.9l0.9,0.2l0.8,0.4l0.7,0.5l0.6,0.7l0.4,0.8
	l0.3,0.8l0.1,0.9l-0.1,0.9l-0.3,0.8l-0.4,0.8l-0.6,0.7l-0.7,0.5l-0.8,0.4l-0.9,0.2H1206.1z M1048.8,78.5l-0.9-0.2l-0.8-0.4l-0.7-0.5
	l-0.6-0.7l-0.4-0.8l-0.3-0.8l-0.1-0.9l0.1-0.9l0.3-0.8l0.4-0.8l0.6-0.7l0.7-0.5l0.8-0.4l0.9-0.2h0.9l0.9,0.2l0.8,0.4l0.7,0.5
	l0.6,0.7l0.4,0.8l0.3,0.8l0.1,0.9l-0.1,0.9l-0.3,0.8l-0.4,0.8l-0.6,0.7l-0.7,0.5l-0.8,0.4l-0.9,0.2H1048.8z M891.4,78.5l-0.9-0.2
	l-0.8-0.4l-0.7-0.5l-0.6-0.7L888,76l-0.3-0.8l-0.1-0.9l0.1-0.9l0.3-0.8l0.4-0.8l0.6-0.7l0.7-0.5l0.8-0.4l0.9-0.2h0.9l0.9,0.2
	l0.8,0.4l0.7,0.5l0.6,0.7l0.4,0.8l0.3,0.8l0.1,0.9l-0.1,0.9l-0.3,0.8l-0.4,0.8l-0.6,0.7l-0.7,0.5l-0.8,0.4l-0.9,0.2H891.4z
	 M891.4,191.9l-0.9-0.2l-0.8-0.4l-0.7-0.5l-0.6-0.7l-0.4-0.8l-0.3-0.8l-0.1-0.9l0.1-0.9l0.3-0.8l0.4-0.8l0.6-0.7l0.7-0.5l0.8-0.4
	l0.9-0.2h0.9l0.9,0.2l0.8,0.4l0.7,0.5l0.6,0.7l0.4,0.8l0.3,0.8l0.1,0.9l-0.1,0.9l-0.3,0.8l-0.4,0.8l-0.6,0.7l-0.7,0.5l-0.8,0.4
	l-0.9,0.2H891.4z M1048.8,191.9l-0.9-0.2l-0.8-0.4l-0.7-0.5l-0.6-0.7l-0.4-0.8l-0.3-0.8l-0.1-0.9l0.1-0.9l0.3-0.8l0.4-0.8l0.6-0.7
	l0.7-0.5l0.8-0.4l0.9-0.2h0.9l0.9,0.2l0.8,0.4l0.7,0.5l0.6,0.7l0.4,0.8l0.3,0.8l0.1,0.9l-0.1,0.9l-0.3,0.8l-0.4,0.8l-0.6,0.7
	l-0.7,0.5l-0.8,0.4l-0.9,0.2H1048.8z M1206.1,191.9l-0.9-0.2l-0.8-0.4l-0.7-0.5l-0.6-0.7l-0.4-0.8l-0.3-0.8l-0.1-0.9l0.1-0.9
	l0.3-0.8l0.4-0.8l0.6-0.7l0.7-0.5l0.8-0.4l0.9-0.2h0.9l0.9,0.2l0.8,0.4l0.7,0.5l0.6,0.7l0.4,0.8l0.3,0.8l0.1,0.9l-0.1,0.9l-0.3,0.8
	l-0.4,0.8l-0.6,0.7l-0.7,0.5l-0.8,0.4l-0.9,0.2H1206.1z"/>
<path class="st0" d="M442.7,332.2h9v-28.3h-9v-14.2H395v-9h-28.3v9h-129v-9h-28.3v9h-129v-9H52v9H4.3v14.2h-9v28.3h9v14.2h438.4
	V332.2z"/>
<path class="st0" d="M412.3,472.4h9V444h-9v-14.2h-47.7v-9h-28.3v9h-129v-9h-28.3v9h-129v-9H21.6v9h-47.7V444h-9v28.3h9v14.2h438.4
	V472.4z"/>
<path class="st0" d="M581,311.5h85v9h28.3v-9h56.7v-14.2h-9V269h9V-14.5h-56.7v-9H666v9h-85v-9h-28.3v9h-56.7v47.7h9v28.3h-9v72.8h9
	v28.3h-9v72.8h9v28.3h-9v47.7h56.7v9H581V311.5z M566.4,51.6l-0.9-0.2l-0.8-0.4l-0.7-0.5l-0.6-0.7l-0.4-0.8l-0.3-0.8l-0.1-0.9
	l0.1-0.9l0.3-0.8l0.4-0.8l0.6-0.7l0.7-0.5l0.8-0.4l0.9-0.2h0.9l0.9,0.2l0.8,0.4l0.7,0.5l0.6,0.7l0.4,0.8l0.3,0.8l0.1,0.9l-0.1,0.9
	l-0.3,0.8l-0.4,0.8l-0.6,0.7l-0.7,0.5l-0.8,0.4l-0.9,0.2H566.4z M679.7,51.6l-0.9-0.2l-0.8-0.4l-0.7-0.5l-0.6-0.7l-0.4-0.8l-0.3-0.8
	l-0.1-0.9l0.1-0.9l0.3-0.8l0.4-0.8l0.6-0.7l0.7-0.5l0.8-0.4l0.9-0.2h0.9l0.9,0.2l0.8,0.4l0.7,0.5l0.6,0.7l0.4,0.8l0.3,0.8l0.1,0.9
	l-0.1,0.9l-0.3,0.8l-0.4,0.8l-0.6,0.7l-0.7,0.5l-0.8,0.4l-0.9,0.2H679.7z M566.4,152.7l-0.9-0.2l-0.8-0.4l-0.7-0.5l-0.6-0.7
	l-0.4-0.8l-0.3-0.8l-0.1-0.9l0.1-0.9l0.3-0.8l0.4-0.8l0.6-0.7l0.7-0.5l0.8-0.4l0.9-0.2h0.9l0.9,0.2l0.8,0.4l0.7,0.5l0.6,0.7l0.4,0.8
	l0.3,0.8l0.1,0.9l-0.1,0.9l-0.3,0.8l-0.4,0.8l-0.6,0.7l-0.7,0.5l-0.8,0.4l-0.9,0.2H566.4z M679.7,152.7l-0.9-0.2l-0.8-0.4l-0.7-0.5
	l-0.6-0.7l-0.4-0.8l-0.3-0.8l-0.1-0.9l0.1-0.9l0.3-0.8l0.4-0.8l0.6-0.7l0.7-0.5l0.8-0.4l0.9-0.2h0.9l0.9,0.2l0.8,0.4l0.7,0.5
	l0.6,0.7l0.4,0.8l0.3,0.8l0.1,0.9l-0.1,0.9l-0.3,0.8l-0.4,0.8l-0.6,0.7l-0.7,0.5l-0.8,0.4l-0.9,0.2H679.7z M566.4,253.9l-0.9-0.2
	l-0.8-0.4l-0.7-0.5l-0.6-0.7l-0.4-0.8l-0.3-0.8l-0.1-0.9l0.1-0.9l0.3-0.8l0.4-0.8l0.6-0.7l0.7-0.5l0.8-0.4l0.9-0.2h0.9l0.9,0.2
	l0.8,0.4l0.7,0.5l0.6,0.7l0.4,0.8l0.3,0.8l0.1,0.9l-0.1,0.9l-0.3,0.8l-0.4,0.8l-0.6,0.7l-0.7,0.5l-0.8,0.4l-0.9,0.2H566.4z
	 M679.7,253.9l-0.9-0.2l-0.8-0.4l-0.7-0.5l-0.6-0.7l-0.4-0.8l-0.3-0.8l-0.1-0.9l0.1-0.9l0.3-0.8l0.4-0.8l0.6-0.7l0.7-0.5l0.8-0.4
	l0.9-0.2h0.9l0.9,0.2l0.8,0.4l0.7,0.5l0.6,0.7l0.4,0.8l0.3,0.8l0.1,0.9l-0.1,0.9l-0.3,0.8l-0.4,0.8l-0.6,0.7l-0.7,0.5l-0.8,0.4
	l-0.9,0.2H679.7z"/>
<path class="st0" d="M569.2,686.5h85v9h28.3v-9h56.7v-14.2h-9V644h9V360.5h-56.7v-9h-28.3v9h-85v-9h-28.3v9h-56.7v47.7h9v28.3h-9
	v72.8h9v28.3h-9v72.8h9v28.3h-9v47.7h56.7v9h28.3V686.5z M554.5,426.6l-0.9-0.2l-0.8-0.4l-0.7-0.5l-0.6-0.7l-0.4-0.8l-0.3-0.8
	l-0.1-0.9l0.1-0.9l0.3-0.8l0.4-0.8l0.6-0.7l0.7-0.5l0.8-0.4l0.9-0.2h0.9l0.9,0.2l0.8,0.4l0.7,0.5l0.6,0.7l0.4,0.8l0.3,0.8l0.1,0.9
	l-0.1,0.9l-0.3,0.8l-0.4,0.8l-0.6,0.7l-0.7,0.5l-0.8,0.4l-0.9,0.2H554.5z M667.9,426.6l-0.9-0.2l-0.8-0.4l-0.7-0.5l-0.6-0.7
	l-0.4-0.8l-0.3-0.8l-0.1-0.9l0.1-0.9l0.3-0.8l0.4-0.8l0.6-0.7l0.7-0.5l0.8-0.4l0.9-0.2h0.9l0.9,0.2l0.8,0.4l0.7,0.5l0.6,0.7l0.4,0.8
	l0.3,0.8l0.1,0.9l-0.1,0.9l-0.3,0.8l-0.4,0.8l-0.6,0.7l-0.7,0.5l-0.8,0.4l-0.9,0.2H667.9z M554.5,527.8l-0.9-0.2l-0.8-0.4l-0.7-0.5
	l-0.6-0.7l-0.4-0.8l-0.3-0.8l-0.1-0.9l0.1-0.9l0.3-0.8l0.4-0.8l0.6-0.7l0.7-0.5l0.8-0.4l0.9-0.2h0.9l0.9,0.2l0.8,0.4l0.7,0.5
	l0.6,0.7l0.4,0.8l0.3,0.8l0.1,0.9l-0.1,0.9l-0.3,0.8l-0.4,0.8l-0.6,0.7l-0.7,0.5l-0.8,0.4l-0.9,0.2H554.5z M667.9,527.8l-0.9-0.2
	l-0.8-0.4l-0.7-0.5l-0.6-0.7l-0.4-0.8l-0.3-0.8l-0.1-0.9l0.1-0.9l0.3-0.8l0.4-0.8l0.6-0.7l0.7-0.5l0.8-0.4l0.9-0.2h0.9l0.9,0.2
	l0.8,0.4l0.7,0.5l0.6,0.7l0.4,0.8l0.3,0.8l0.1,0.9l-0.1,0.9l-0.3,0.8l-0.4,0.8l-0.6,0.7l-0.7,0.5l-0.8,0.4l-0.9,0.2H667.9z
	 M554.5,628.9l-0.9-0.2l-0.8-0.4l-0.7-0.5l-0.6-0.7l-0.4-0.8l-0.3-0.8l-0.1-0.9l0.1-0.9l0.3-0.8l0.4-0.8l0.6-0.7l0.7-0.5l0.8-0.4
	l0.9-0.2h0.9l0.9,0.2l0.8,0.4l0.7,0.5l0.6,0.7l0.4,0.8l0.3,0.8l0.1,0.9l-0.1,0.9l-0.3,0.8l-0.4,0.8l-0.6,0.7l-0.7,0.5l-0.8,0.4
	l-0.9,0.2H554.5z M667.9,628.9l-0.9-0.2l-0.8-0.4l-0.7-0.5l-0.6-0.7l-0.4-0.8l-0.3-0.8l-0.1-0.9l0.1-0.9l0.3-0.8l0.4-0.8l0.6-0.7
	l0.7-0.5l0.8-0.4l0.9-0.2h0.9l0.9,0.2l0.8,0.4l0.7,0.5l0.6,0.7l0.4,0.8l0.3,0.8l0.1,0.9l-0.1,0.9l-0.3,0.8l-0.4,0.8l-0.6,0.7
	l-0.7,0.5l-0.8,0.4l-0.9,0.2H667.9z"/>
<path class="st0" d="M-220,254.7h85v9h28.3v-9h56.7v-14.2h-9v-28.3h9V207L-291,25.3h-14.1v52.2h9v28.3h-9v72.8h9V207h-9v47.7h56.7v9
	h28.3V254.7z M-234.6,95.9l-0.9-0.2l-0.8-0.4l-0.7-0.5l-0.6-0.7l-0.4-0.8l-0.3-0.8l-0.1-0.9l0.1-0.9l0.3-0.8l0.4-0.8l0.6-0.7
	l0.7-0.5l0.8-0.4l0.9-0.2h0.9l0.9,0.2l0.8,0.4l0.7,0.5l0.6,0.7l0.4,0.8l0.3,0.8l0.1,0.9l-0.1,0.9l-0.3,0.8l-0.4,0.8l-0.6,0.7
	l-0.7,0.5l-0.8,0.4l-0.9,0.2H-234.6z M-234.6,197l-0.9-0.2l-0.8-0.4l-0.7-0.5l-0.6-0.7l-0.4-0.8l-0.3-0.8l-0.1-0.9l0.1-0.9l0.3-0.8
	l0.4-0.8l0.6-0.7l0.7-0.5l0.8-0.4l0.9-0.2h0.9l0.9,0.2l0.8,0.4l0.7,0.5l0.6,0.7l0.4,0.8l0.3,0.8l0.1,0.9l-0.1,0.9l-0.3,0.8l-0.4,0.8
	l-0.6,0.7l-0.7,0.5l-0.8,0.4l-0.9,0.2H-234.6z M-121.3,197l-0.9-0.2l-0.8-0.4l-0.7-0.5l-0.6-0.7l-0.4-0.8l-0.3-0.8l-0.1-0.9l0.1-0.9
	l0.3-0.8l0.4-0.8l0.6-0.7l0.7-0.5l0.8-0.4l0.9-0.2h0.9l0.9,0.2l0.8,0.4l0.7,0.5l0.6,0.7l0.4,0.8l0.3,0.8l0.1,0.9l-0.1,0.9l-0.3,0.8
	l-0.4,0.8l-0.6,0.7l-0.7,0.5l-0.8,0.4l-0.9,0.2H-121.3z"/>
<path class="st0" d="M-566.3,256.4h85v9h28.3v-9h56.7v-14.2h-9v-28.3h9v-5.2L-637.3,27h-14.1v52.2h9v28.3h-9v72.8h9v28.3h-9v47.7
	h56.7v9h28.3V256.4z M-581,97.6l-0.9-0.2l-0.8-0.4l-0.7-0.5l-0.6-0.7l-0.4-0.8l-0.3-0.8l-0.1-0.9l0.1-0.9l0.3-0.8l0.4-0.8l0.6-0.7
	l0.7-0.5l0.8-0.4l0.9-0.2h0.9l0.9,0.2l0.8,0.4l0.7,0.5l0.6,0.7l0.4,0.8l0.3,0.8l0.1,0.9l-0.1,0.9l-0.3,0.8l-0.4,0.8l-0.6,0.7
	l-0.7,0.5l-0.8,0.4l-0.9,0.2H-581z M-581,198.7l-0.9-0.2l-0.8-0.4l-0.7-0.5l-0.6-0.7l-0.4-0.8l-0.3-0.8l-0.1-0.9l0.1-0.9l0.3-0.8
	l0.4-0.8l0.6-0.7l0.7-0.5l0.8-0.4l0.9-0.2h0.9l0.9,0.2l0.8,0.4l0.7,0.5l0.6,0.7l0.4,0.8l0.3,0.8l0.1,0.9l-0.1,0.9l-0.3,0.8l-0.4,0.8
	l-0.6,0.7l-0.7,0.5l-0.8,0.4l-0.9,0.2H-581z M-467.6,198.7l-0.9-0.2l-0.8-0.4l-0.7-0.5l-0.6-0.7l-0.4-0.8l-0.3-0.8l-0.1-0.9l0.1-0.9
	l0.3-0.8l0.4-0.8l0.6-0.7l0.7-0.5l0.8-0.4l0.9-0.2h0.9l0.9,0.2l0.8,0.4l0.7,0.5l0.6,0.7l0.4,0.8l0.3,0.8l0.1,0.9l-0.1,0.9l-0.3,0.8
	l-0.4,0.8l-0.6,0.7l-0.7,0.5l-0.8,0.4l-0.9,0.2H-467.6z"/>
<path class="st1" d="M89.4-44.5h129v9h28.3v-9h129v9H404v-9h47.7v-47.7h9v-28.3h-9v-72.8h9v-28.3h-9v-72.8h9v-28.3h-9v-47.7H404v-9
	h-28.3v9h-129v-9h-28.3v9h-129v-9H61v9H13.3v47.7h-9v28.3h9v72.8h-9v28.3h9v72.8h-9v28.3h9v47.7H61v9h28.3V-44.5z M74.7-304.4
	l-0.9-0.2l-0.8-0.4l-0.7-0.5l-0.6-0.7l-0.4-0.8l-0.3-0.8l-0.1-0.9l0.1-0.9l0.3-0.8l0.4-0.8l0.6-0.7l0.7-0.5l0.8-0.4l0.9-0.2h0.9
	l0.9,0.2l0.8,0.4l0.7,0.5l0.6,0.7l0.4,0.8l0.3,0.8l0.1,0.9l-0.1,0.9l-0.3,0.8l-0.4,0.8l-0.6,0.7l-0.7,0.5l-0.8,0.4l-0.9,0.2H74.7z
	 M232.1-304.4l-0.9-0.2l-0.8-0.4l-0.7-0.5l-0.6-0.7l-0.4-0.8l-0.3-0.8l-0.1-0.9l0.1-0.9l0.3-0.8l0.4-0.8l0.6-0.7l0.7-0.5l0.8-0.4
	l0.9-0.2h0.9l0.9,0.2l0.8,0.4l0.7,0.5l0.6,0.7l0.4,0.8l0.3,0.8l0.1,0.9l-0.1,0.9l-0.3,0.8l-0.4,0.8l-0.6,0.7l-0.7,0.5l-0.8,0.4
	l-0.9,0.2H232.1z M389.4-304.4l-0.9-0.2l-0.8-0.4l-0.7-0.5l-0.6-0.7l-0.4-0.8l-0.3-0.8l-0.1-0.9l0.1-0.9l0.3-0.8l0.4-0.8l0.6-0.7
	l0.7-0.5l0.8-0.4l0.9-0.2h0.9l0.9,0.2l0.8,0.4l0.7,0.5l0.6,0.7l0.4,0.8l0.3,0.8l0.1,0.9l-0.1,0.9l-0.3,0.8l-0.4,0.8l-0.6,0.7
	l-0.7,0.5l-0.8,0.4l-0.9,0.2H389.4z M389.4-203.3l-0.9-0.2l-0.8-0.4l-0.7-0.5l-0.6-0.7l-0.4-0.8l-0.3-0.8l-0.1-0.9l0.1-0.9l0.3-0.8
	l0.4-0.8l0.6-0.7l0.7-0.5l0.8-0.4l0.9-0.2h0.9l0.9,0.2l0.8,0.4l0.7,0.5l0.6,0.7l0.4,0.8l0.3,0.8l0.1,0.9l-0.1,0.9l-0.3,0.8l-0.4,0.8
	l-0.6,0.7l-0.7,0.5l-0.8,0.4l-0.9,0.2H389.4z M232.1-203.3l-0.9-0.2l-0.8-0.4l-0.7-0.5l-0.6-0.7l-0.4-0.8l-0.3-0.8l-0.1-0.9l0.1-0.9
	l0.3-0.8l0.4-0.8l0.6-0.7l0.7-0.5l0.8-0.4l0.9-0.2h0.9l0.9,0.2l0.8,0.4l0.7,0.5l0.6,0.7l0.4,0.8l0.3,0.8l0.1,0.9l-0.1,0.9l-0.3,0.8
	l-0.4,0.8l-0.6,0.7l-0.7,0.5l-0.8,0.4l-0.9,0.2H232.1z M74.7-203.3l-0.9-0.2l-0.8-0.4l-0.7-0.5l-0.6-0.7l-0.4-0.8l-0.3-0.8l-0.1-0.9
	l0.1-0.9l0.3-0.8l0.4-0.8l0.6-0.7l0.7-0.5l0.8-0.4l0.9-0.2h0.9l0.9,0.2l0.8,0.4l0.7,0.5l0.6,0.7l0.4,0.8l0.3,0.8l0.1,0.9l-0.1,0.9
	l-0.3,0.8l-0.4,0.8l-0.6,0.7l-0.7,0.5l-0.8,0.4l-0.9,0.2H74.7z M389.4-102.1l-0.9-0.2l-0.8-0.4l-0.7-0.5l-0.6-0.7l-0.4-0.8l-0.3-0.8
	l-0.1-0.9l0.1-0.9l0.3-0.8l0.4-0.8l0.6-0.7l0.7-0.5l0.8-0.4l0.9-0.2h0.9l0.9,0.2l0.8,0.4l0.7,0.5l0.6,0.7l0.4,0.8l0.3,0.8l0.1,0.9
	l-0.1,0.9l-0.3,0.8l-0.4,0.8l-0.6,0.7l-0.7,0.5l-0.8,0.4l-0.9,0.2H389.4z M232.1-102.1l-0.9-0.2l-0.8-0.4l-0.7-0.5l-0.6-0.7
	l-0.4-0.8l-0.3-0.8l-0.1-0.9l0.1-0.9l0.3-0.8l0.4-0.8l0.6-0.7l0.7-0.5l0.8-0.4l0.9-0.2h0.9l0.9,0.2l0.8,0.4l0.7,0.5l0.6,0.7l0.4,0.8
	l0.3,0.8l0.1,0.9l-0.1,0.9l-0.3,0.8l-0.4,0.8l-0.6,0.7l-0.7,0.5l-0.8,0.4l-0.9,0.2H232.1z M74.7-102.1l-0.9-0.2l-0.8-0.4l-0.7-0.5
	l-0.6-0.7l-0.4-0.8l-0.3-0.8l-0.1-0.9l0.1-0.9l0.3-0.8l0.4-0.8l0.6-0.7l0.7-0.5l0.8-0.4l0.9-0.2h0.9l0.9,0.2l0.8,0.4l0.7,0.5
	l0.6,0.7l0.4,0.8l0.3,0.8l0.1,0.9l-0.1,0.9l-0.3,0.8l-0.4,0.8l-0.6,0.7l-0.7,0.5l-0.8,0.4l-0.9,0.2H74.7z"/>
<path class="st1" d="M583.3-87.8h129v9h28.3v-9h129v9H898v-9h47.7v-47.7h9v-28.3h-9v-72.8h9v-28.3h-9v-52.2H507.3v52.2h-9v28.3h9
	v72.8h-9v28.3h9v47.7H555v9h28.3V-87.8z M568.7-246.5l-0.9-0.2l-0.8-0.4l-0.7-0.5l-0.6-0.7l-0.4-0.8l-0.3-0.8l-0.1-0.9l0.1-0.9
	l0.3-0.8l0.4-0.8l0.6-0.7l0.7-0.5l0.8-0.4l0.9-0.2h0.9l0.9,0.2l0.8,0.4l0.7,0.5l0.6,0.7l0.4,0.8l0.3,0.8l0.1,0.9l-0.1,0.9l-0.3,0.8
	l-0.4,0.8l-0.6,0.7l-0.7,0.5l-0.8,0.4l-0.9,0.2H568.7z M726.1-246.5l-0.9-0.2l-0.8-0.4l-0.7-0.5l-0.6-0.7l-0.4-0.8l-0.3-0.8
	l-0.1-0.9l0.1-0.9l0.3-0.8l0.4-0.8l0.6-0.7l0.7-0.5l0.8-0.4l0.9-0.2h0.9l0.9,0.2l0.8,0.4l0.7,0.5l0.6,0.7l0.4,0.8l0.3,0.8l0.1,0.9
	l-0.1,0.9l-0.3,0.8l-0.4,0.8l-0.6,0.7l-0.7,0.5l-0.8,0.4l-0.9,0.2H726.1z M883.4-246.5l-0.9-0.2l-0.8-0.4l-0.7-0.5l-0.6-0.7
	l-0.4-0.8l-0.3-0.8l-0.1-0.9l0.1-0.9l0.3-0.8l0.4-0.8l0.6-0.7l0.7-0.5l0.8-0.4l0.9-0.2h0.9l0.9,0.2l0.8,0.4l0.7,0.5l0.6,0.7l0.4,0.8
	l0.3,0.8l0.1,0.9l-0.1,0.9l-0.3,0.8l-0.4,0.8l-0.6,0.7l-0.7,0.5l-0.8,0.4l-0.9,0.2H883.4z M568.7-145.4l-0.9-0.2l-0.8-0.4l-0.7-0.5
	l-0.6-0.7l-0.4-0.8l-0.3-0.8l-0.1-0.9l0.1-0.9l0.3-0.8l0.4-0.8l0.6-0.7l0.7-0.5l0.8-0.4l0.9-0.2h0.9l0.9,0.2l0.8,0.4l0.7,0.5
	l0.6,0.7l0.4,0.8l0.3,0.8l0.1,0.9l-0.1,0.9l-0.3,0.8l-0.4,0.8l-0.6,0.7l-0.7,0.5l-0.8,0.4l-0.9,0.2H568.7z M726.1-145.4l-0.9-0.2
	l-0.8-0.4l-0.7-0.5l-0.6-0.7l-0.4-0.8l-0.3-0.8l-0.1-0.9l0.1-0.9l0.3-0.8l0.4-0.8l0.6-0.7l0.7-0.5l0.8-0.4l0.9-0.2h0.9l0.9,0.2
	l0.8,0.4l0.7,0.5l0.6,0.7l0.4,0.8l0.3,0.8l0.1,0.9l-0.1,0.9l-0.3,0.8l-0.4,0.8l-0.6,0.7l-0.7,0.5l-0.8,0.4l-0.9,0.2H726.1z
	 M883.4-145.4l-0.9-0.2l-0.8-0.4l-0.7-0.5l-0.6-0.7l-0.4-0.8l-0.3-0.8l-0.1-0.9l0.1-0.9l0.3-0.8l0.4-0.8l0.6-0.7l0.7-0.5l0.8-0.4
	l0.9-0.2h0.9l0.9,0.2l0.8,0.4l0.7,0.5l0.6,0.7l0.4,0.8l0.3,0.8l0.1,0.9l-0.1,0.9l-0.3,0.8l-0.4,0.8l-0.6,0.7l-0.7,0.5l-0.8,0.4
	l-0.9,0.2H883.4z"/>
<path class="st0" d="M-89.6-137.5h-9v-28.3h9v-85h-9v-28.3h9v-56.7h-56.7v9h-28.3v-9h-129v9H-332v-9h-129v9h-28.3v-9H-546v56.7h9
	v28.3h-9v85h9v28.3h-9v56.7h456.4V-137.5z M-475.6-260.8l-0.9-0.2l-0.8-0.4l-0.7-0.5l-0.6-0.7l-0.4-0.8l-0.3-0.8l-0.1-0.9l0.1-0.9
	l0.3-0.8l0.4-0.8l0.6-0.7l0.7-0.5l0.8-0.4l0.9-0.2h0.9l0.9,0.2l0.8,0.4l0.7,0.5l0.6,0.7l0.4,0.8l0.3,0.8l0.1,0.9l-0.1,0.9l-0.3,0.8
	l-0.4,0.8l-0.6,0.7l-0.7,0.5l-0.8,0.4l-0.9,0.2H-475.6z M-318.3-260.8l-0.9-0.2l-0.8-0.4l-0.7-0.5l-0.6-0.7l-0.4-0.8l-0.3-0.8
	l-0.1-0.9l0.1-0.9l0.3-0.8l0.4-0.8l0.6-0.7l0.7-0.5l0.8-0.4l0.9-0.2h0.9l0.9,0.2l0.8,0.4l0.7,0.5l0.6,0.7l0.4,0.8l0.3,0.8l0.1,0.9
	l-0.1,0.9l-0.3,0.8l-0.4,0.8l-0.6,0.7l-0.7,0.5l-0.8,0.4l-0.9,0.2H-318.3z M-160.9-260.8l-0.9-0.2l-0.8-0.4l-0.7-0.5l-0.6-0.7
	l-0.4-0.8l-0.3-0.8l-0.1-0.9l0.1-0.9l0.3-0.8l0.4-0.8l0.6-0.7l0.7-0.5l0.8-0.4l0.9-0.2h0.9l0.9,0.2l0.8,0.4l0.7,0.5l0.6,0.7l0.4,0.8
	l0.3,0.8l0.1,0.9l-0.1,0.9l-0.3,0.8l-0.4,0.8l-0.6,0.7l-0.7,0.5l-0.8,0.4l-0.9,0.2H-160.9z M-475.6-147.4l-0.9-0.2l-0.8-0.4
	l-0.7-0.5l-0.6-0.7l-0.4-0.8l-0.3-0.8l-0.1-0.9l0.1-0.9l0.3-0.8l0.4-0.8l0.6-0.7l0.7-0.5l0.8-0.4l0.9-0.2h0.9l0.9,0.2l0.8,0.4
	l0.7,0.5l0.6,0.7l0.4,0.8l0.3,0.8l0.1,0.9l-0.1,0.9l-0.3,0.8l-0.4,0.8l-0.6,0.7l-0.7,0.5l-0.8,0.4l-0.9,0.2H-475.6z M-318.3-147.4
	l-0.9-0.2l-0.8-0.4l-0.7-0.5l-0.6-0.7l-0.4-0.8l-0.3-0.8l-0.1-0.9l0.1-0.9l0.3-0.8l0.4-0.8l0.6-0.7l0.7-0.5l0.8-0.4l0.9-0.2h0.9
	l0.9,0.2l0.8,0.4l0.7,0.5l0.6,0.7l0.4,0.8l0.3,0.8l0.1,0.9l-0.1,0.9l-0.3,0.8l-0.4,0.8l-0.6,0.7l-0.7,0.5l-0.8,0.4l-0.9,0.2H-318.3z
	 M-160.9-147.4l-0.9-0.2l-0.8-0.4l-0.7-0.5l-0.6-0.7l-0.4-0.8l-0.3-0.8l-0.1-0.9l0.1-0.9l0.3-0.8l0.4-0.8l0.6-0.7l0.7-0.5l0.8-0.4
	l0.9-0.2h0.9l0.9,0.2l0.8,0.4l0.7,0.5l0.6,0.7l0.4,0.8l0.3,0.8l0.1,0.9l-0.1,0.9l-0.3,0.8l-0.4,0.8l-0.6,0.7l-0.7,0.5l-0.8,0.4
	l-0.9,0.2H-160.9z"/>
</svg>
