<?xml version="1.0" ?>
<svg baseProfile="full" height="595.3" version="1.1" viewBox="0 0 841.9 595.3" width="841.9" xmlns="http://www.w3.org/2000/svg" xmlns:ev="http://www.w3.org/2001/xml-events" xmlns:xlink="http://www.w3.org/1999/xlink">
	<defs/>
	<path d="M 382.7,305.1 C 381.9,300.90000000000003 378.3,297.70000000000005 374.0,297.5" fill="none" stroke="#ff0000" stroke-linecap="round" stroke-linejoin="round" stroke-miterlimit="10" stroke-width="0.5"/>
	<path d="M 382.7,309.4 L 382.7,309.6 L 382.7,309.8 L 382.7,310.0 L 382.7,310.2 L 382.7,310.4 L 382.7,310.6 L 382.7,310.8 L 382.7,311.0 L 382.7,311.2 L 382.7,311.4 L 382.7,311.6 L 382.7,311.8 L 382.7,312.3 L 382.6,312.8 L 382.6,313.3 L 382.5,313.8 L 382.4,314.3 L 382.3,314.8 L 382.1,315.3 L 381.9,315.7 L 381.7,316.2 L 381.5,316.6 L 381.2,316.9 L 380.9,317.3 L 380.6,317.6 L 380.3,317.8 L 379.9,318.0 L 379.6,318.2 L 379.2,318.4 L 378.7,318.5 L 378.3,318.7 L 377.8,318.8 L 377.4,318.9 L 376.9,319.0 L 376.5,319.1 L 376.0,319.2" fill="none" stroke="#ff0000" stroke-linecap="round" stroke-linejoin="round" stroke-miterlimit="10" stroke-width="0.5"/>
	<path d="M 382.7,305.1 L 382.7,309.4" fill="none" stroke="#ff0000" stroke-linecap="round" stroke-linejoin="round" stroke-miterlimit="10" stroke-width="0.5"/>
	<path d="M 376.0,319.2 L 348.2,322.6" fill="none" stroke="#ff0000" stroke-linecap="round" stroke-linejoin="round" stroke-miterlimit="10" stroke-width="0.5"/>
	<path d="M 357.8,297.5 L 357.5,297.1 L 348.5,297.1 L 348.2,297.5" fill="none" stroke="#ff0000" stroke-linecap="round" stroke-linejoin="round" stroke-miterlimit="10" stroke-width="0.5"/>
	<path d="M 348.2,297.5 L 348.2,297.5" fill="none" stroke="#ff0000" stroke-linecap="round" stroke-linejoin="round" stroke-miterlimit="10" stroke-width="0.5"/>
	<path d="M 374.0,297.5 L 357.8,297.5" fill="none" stroke="#ff0000" stroke-linecap="round" stroke-linejoin="round" stroke-miterlimit="10" stroke-width="0.5"/>
	<path d="M 290.2,297.5 C 285.9,297.7 282.3,300.8 281.5,305.1" fill="none" stroke="#ff0000" stroke-linecap="round" stroke-linejoin="round" stroke-miterlimit="10" stroke-width="0.5"/>
	<path d="M 306.4,297.5 L 306.7,297.1 L 315.6,297.1 L 315.9,297.5" fill="none" stroke="#ff0000" stroke-linecap="round" stroke-linejoin="round" stroke-miterlimit="10" stroke-width="0.5"/>
	<path d="M 336.9,311.1 L 336.9,297.5" fill="none" stroke="#ff0000" stroke-linecap="round" stroke-linejoin="round" stroke-miterlimit="10" stroke-width="0.5"/>
	<path d="M 327.3,311.1 L 336.9,311.1" fill="none" stroke="#ff0000" stroke-linecap="round" stroke-linejoin="round" stroke-miterlimit="10" stroke-width="0.5"/>
	<path d="M 327.3,297.5 L 327.3,311.1" fill="none" stroke="#ff0000" stroke-linecap="round" stroke-linejoin="round" stroke-miterlimit="10" stroke-width="0.5"/>
	<path d="M 315.9,297.5 L 327.3,297.5" fill="none" stroke="#ff0000" stroke-linecap="round" stroke-linejoin="round" stroke-miterlimit="10" stroke-width="0.5"/>
	<path d="M 290.2,297.5 L 306.4,297.5" fill="none" stroke="#ff0000" stroke-linecap="round" stroke-linejoin="round" stroke-miterlimit="10" stroke-width="0.5"/>
	<path d="M 348.2,297.5 L 336.9,297.5" fill="none" stroke="#ff0000" stroke-linecap="round" stroke-linejoin="round" stroke-miterlimit="10" stroke-width="0.5"/>
	<path d="M 281.4,309.4 L 281.4,309.6 L 281.4,309.8 L 281.4,310.0 L 281.4,310.2 L 281.4,310.4 L 281.4,310.6 L 281.4,310.8 L 281.4,311.0 L 281.4,311.2 L 281.4,311.4 L 281.4,311.6 L 281.4,311.8 L 281.5,312.3 L 281.5,312.8 L 281.6,313.3 L 281.7,313.8 L 281.8,314.3 L 281.9,314.8 L 282.0,315.3 L 282.2,315.7 L 282.4,316.2 L 282.6,316.6 L 282.9,316.9 L 283.2,317.3 L 283.5,317.6 L 283.8,317.8 L 284.2,318.0 L 284.6,318.2 L 285.0,318.4 L 285.4,318.5 L 285.8,318.7 L 286.3,318.8 L 286.8,318.9 L 287.2,319.0 L 287.7,319.1 L 288.2,319.2" fill="none" stroke="#ff0000" stroke-linecap="round" stroke-linejoin="round" stroke-miterlimit="10" stroke-width="0.5"/>
	<path d="M 281.4,305.1 L 281.4,309.4" fill="none" stroke="#ff0000" stroke-linecap="round" stroke-linejoin="round" stroke-miterlimit="10" stroke-width="0.5"/>
	<path d="M 288.2,319.2 L 326.1,323.8" fill="none" stroke="#ff0000" stroke-linecap="round" stroke-linejoin="round" stroke-miterlimit="10" stroke-width="0.5"/>
	<path d="M 326.1,323.8 L 327.2,324.6" fill="none" stroke="#ff0000" stroke-linecap="round" stroke-linejoin="round" stroke-miterlimit="10" stroke-width="0.5"/>
	<path d="M 338.0,323.8 L 336.9,324.6" fill="none" stroke="#ff0000" stroke-linecap="round" stroke-linejoin="round" stroke-miterlimit="10" stroke-width="0.5"/>
	<path d="M 327.2,324.6 L 336.9,324.6" fill="none" stroke="#ff0000" stroke-linecap="round" stroke-linejoin="round" stroke-miterlimit="10" stroke-width="0.5"/>
	<path d="M 348.2,322.6 L 338.0,323.8" fill="none" stroke="#ff0000" stroke-linecap="round" stroke-linejoin="round" stroke-miterlimit="10" stroke-width="0.5"/>
</svg>
