<?xml version="1.0" ?>
<svg baseProfile="full" height="595.3" version="1.1" viewBox="0 0 841.9 595.3" width="841.9" xmlns="http://www.w3.org/2000/svg" xmlns:ev="http://www.w3.org/2001/xml-events" xmlns:xlink="http://www.w3.org/1999/xlink">
	<defs/>
	<path d="M 415.1,322.6 C 415.20000000000005,322.1 414.90000000000003,321.70000000000005 414.40000000000003,321.6 C 414.00000000000006,321.5 413.50000000000006,321.8 413.40000000000003,322.20000000000005" fill="none" stroke="#ff0000" stroke-linecap="round" stroke-linejoin="round" stroke-miterlimit="10" stroke-width="0.5"/>
	<path d="M 415.1,322.6 L 416.7,323.0 L 418.3,323.4 L 419.9,323.8 L 421.5,324.2 L 423.1,324.6 L 424.7,325.0 L 426.2,325.3" fill="none" stroke="#ff0000" stroke-linecap="round" stroke-linejoin="round" stroke-miterlimit="10" stroke-width="0.5"/>
	<path d="M 496.1,334.7 L 495.0,334.7 L 493.9,334.7 L 492.8,334.7 L 491.7,334.6 L 490.6,334.6 L 489.5,334.6 L 488.4,334.5 L 487.4,334.5 L 486.3,334.4 L 485.2,334.3 L 484.1,334.3 L 483.0,334.2 L 481.6,334.1 L 480.3,334.0 L 478.9,333.8 L 477.6,333.7 L 476.2,333.6 L 474.9,333.4 L 473.5,333.2 L 472.2,333.1 L 470.8,332.9 L 469.5,332.7 L 468.1,332.5 L 466.8,332.4" fill="none" stroke="#ff0000" stroke-linecap="round" stroke-linejoin="round" stroke-miterlimit="10" stroke-width="0.5"/>
	<path d="M 496.1,334.7 L 519.6,334.8 L 519.6,333.1" fill="none" stroke="#ff0000" stroke-linecap="round" stroke-linejoin="round" stroke-miterlimit="10" stroke-width="0.5"/>
	<path d="M 426.4,325.2 L 466.8,332.4" fill="none" stroke="#ff0000" stroke-linecap="round" stroke-linejoin="round" stroke-miterlimit="10" stroke-width="0.5"/>
	<path d="M 426.2,325.3 L 426.4,325.2" fill="none" stroke="#ff0000" stroke-linecap="round" stroke-linejoin="round" stroke-miterlimit="10" stroke-width="0.5"/>
	<path d="M 345.5,328.0 L 346.3,327.8 L 347.2,327.7 L 348.2,327.6" fill="none" stroke="#ff0000" stroke-linecap="round" stroke-linejoin="round" stroke-miterlimit="10" stroke-width="0.5"/>
	<path d="M 348.2,327.6 L 348.9,327.5 L 349.7,327.3 L 350.6,327.2 L 351.5,327.1 L 352.3,327.0 L 353.2,326.9 L 354.0,326.8 L 354.9,326.7 L 355.7,326.6 L 357.6,326.4 L 359.5,326.3 L 361.3,326.2 L 363.2,326.1 L 365.1,326.0 L 367.0,325.9 L 368.9,325.9 L 370.7,325.8 L 372.6,325.8 L 374.5,325.8 L 376.4,325.8 L 378.3,325.8" fill="none" stroke="#ff0000" stroke-linecap="round" stroke-linejoin="round" stroke-miterlimit="10" stroke-width="0.5"/>
	<path d="M 299.5,332.3 L 345.5,328.0" fill="none" stroke="#ff0000" stroke-linecap="round" stroke-linejoin="round" stroke-miterlimit="10" stroke-width="0.5"/>
	<path d="M 392.7,320.0 L 392.9,320.0 L 393.1,319.9 L 393.3,319.8 L 393.4,319.8 L 393.6,319.7 L 393.8,319.6 L 394.0,319.6 L 394.2,319.5 L 394.4,319.5 L 394.6,319.4 L 394.8,319.4 L 395.0,319.3 L 395.4,319.3 L 395.8,319.2 L 396.2,319.2 L 396.6,319.2 L 397.0,319.1 L 397.5,319.1 L 397.9,319.2 L 398.3,319.2 L 398.7,319.2 L 399.1,319.3 L 399.6,319.3 L 400.0,319.3 L 400.6,319.4 L 401.2,319.5 L 401.8,319.6 L 402.4,319.7 L 403.0,319.8 L 403.6,319.9 L 404.2,320.1 L 404.8,320.2 L 405.4,320.3 L 406.0,320.4 L 406.5,320.6 L 407.1,320.7 L 408.7,321.1 L 410.3,321.4 L 411.9,321.8 L 413.5,322.2" fill="none" stroke="#ff0000" stroke-linecap="round" stroke-linejoin="round" stroke-miterlimit="10" stroke-width="0.5"/>
	<path d="M 378.5,325.8 L 392.7,320.0" fill="none" stroke="#ff0000" stroke-linecap="round" stroke-linejoin="round" stroke-miterlimit="10" stroke-width="0.5"/>
	<path d="M 378.5,325.8 L 378.2,325.8" fill="none" stroke="#ff0000" stroke-linecap="round" stroke-linejoin="round" stroke-miterlimit="10" stroke-width="0.5"/>
	<path d="M 283.9,336.6 L 284.0,336.4 L 284.1,336.2 L 284.1,336.1 L 284.2,335.9 L 284.2,335.8 L 284.3,335.6 L 284.4,335.5 L 284.4,335.3 L 284.5,335.2 L 284.6,335.0 L 284.6,334.9 L 284.7,334.7 L 284.9,334.5 L 285.0,334.3 L 285.2,334.1 L 285.4,333.9 L 285.6,333.7 L 285.8,333.5 L 286.0,333.3 L 286.2,333.1 L 286.4,333.0 L 286.6,332.8 L 286.9,332.7 L 287.1,332.6 L 287.3,332.5 L 287.6,332.5 L 287.8,332.4 L 288.1,332.4 L 288.3,332.3 L 288.6,332.3 L 288.9,332.3 L 289.1,332.3 L 289.4,332.3 L 289.6,332.3 L 289.9,332.3 L 290.2,332.3" fill="none" stroke="#ff0000" stroke-linecap="round" stroke-linejoin="round" stroke-miterlimit="10" stroke-width="0.5"/>
	<path d="M 299.5,332.3 L 290.2,332.3" fill="none" stroke="#ff0000" stroke-linecap="round" stroke-linejoin="round" stroke-miterlimit="10" stroke-width="0.5"/>
	<path d="M 283.9,340.7 L 283.3,340.8 L 282.6,340.8 L 281.9,340.9 L 281.1,341.0 L 280.4,341.1 L 279.7,341.2 L 278.9,341.3 L 278.2,341.5 L 277.4,341.6 L 276.6,341.8 L 275.8,342.0 L 275.0,342.3 L 274.0,342.7 L 272.9,343.0 L 271.9,343.5 L 270.9,344.0 L 270.0,344.5 L 269.1,345.0 L 268.3,345.6 L 267.6,346.1 L 267.0,346.7 L 266.5,347.4 L 266.3,348.0 L 266.1,348.6 L 266.2,349.3 L 266.5,349.9 L 266.9,350.6 L 267.5,351.2 L 268.3,351.8 L 269.1,352.4 L 270.0,353.0 L 271.0,353.5 L 272.0,354.0 L 273.1,354.5 L 274.1,354.9 L 275.2,355.3 L 276.0,355.5 L 276.7,355.7 L 277.5,355.9 L 278.2,356.1 L 279.0,356.2 L 279.7,356.3 L 280.4,356.4 L 281.1,356.5 L 281.8,356.6 L 282.4,356.6 L 283.1,356.7 L 283.9,356.7" fill="none" stroke="#ff0000" stroke-linecap="round" stroke-linejoin="round" stroke-miterlimit="10" stroke-width="0.5"/>
	<path d="M 283.9,336.6 L 283.9,340.7" fill="none" stroke="#ff0000" stroke-linecap="round" stroke-linejoin="round" stroke-miterlimit="10" stroke-width="0.5"/>
	<path d="M 300.9,364.2 L 343.9,365.8" fill="none" stroke="#ff0000" stroke-linecap="round" stroke-linejoin="round" stroke-miterlimit="10" stroke-width="0.5"/>
	<path d="M 283.9,359.8 L 284.0,360.0 L 284.0,360.2 L 284.1,360.4 L 284.1,360.6 L 284.2,360.8 L 284.2,360.9 L 284.3,361.1 L 284.4,361.3 L 284.5,361.5 L 284.5,361.7 L 284.6,361.9 L 284.7,362.0 L 284.9,362.2 L 285.0,362.4 L 285.2,362.6 L 285.4,362.8 L 285.6,363.0 L 285.8,363.1 L 286.0,363.3 L 286.2,363.4 L 286.4,363.5 L 286.6,363.6 L 286.9,363.7 L 287.1,363.8 L 287.3,363.9 L 287.5,363.9 L 287.7,364.0 L 287.9,364.0 L 288.1,364.1 L 288.3,364.1 L 288.5,364.1 L 288.7,364.2 L 288.9,364.2 L 289.1,364.2 L 289.3,364.2 L 289.5,364.2" fill="none" stroke="#ff0000" stroke-linecap="round" stroke-linejoin="round" stroke-miterlimit="10" stroke-width="0.5"/>
	<path d="M 300.9,364.2 L 289.5,364.2" fill="none" stroke="#ff0000" stroke-linecap="round" stroke-linejoin="round" stroke-miterlimit="10" stroke-width="0.5"/>
	<path d="M 346.7,356.0 L 343.9,365.8" fill="none" stroke="#ff0000" stroke-linecap="round" stroke-linejoin="round" stroke-miterlimit="10" stroke-width="0.5"/>
	<path d="M 283.9,356.7 L 283.9,359.8" fill="none" stroke="#ff0000" stroke-linecap="round" stroke-linejoin="round" stroke-miterlimit="10" stroke-width="0.5"/>
	<path d="M 346.7,356.0 L 348.2,356.0" fill="none" stroke="#ff0000" stroke-linecap="round" stroke-linejoin="round" stroke-miterlimit="10" stroke-width="0.5"/>
	<path d="M 362.9,356.0 L 362.9,365.8" fill="none" stroke="#ff0000" stroke-linecap="round" stroke-linejoin="round" stroke-miterlimit="10" stroke-width="0.5"/>
	<path d="M 362.9,365.8 L 380.3,365.8" fill="none" stroke="#ff0000" stroke-linecap="round" stroke-linejoin="round" stroke-miterlimit="10" stroke-width="0.5"/>
	<path d="M 413.2,365.4 L 415.4,365.3 L 415.8,365.1 L 419.1,364.9 L 422.4,364.7 L 425.7,364.5 L 429.0,364.3" fill="none" stroke="#ff0000" stroke-linecap="round" stroke-linejoin="round" stroke-miterlimit="10" stroke-width="0.5"/>
	<path d="M 533.7,353.4 C 533.2,353.5 532.8000000000001,354.0 532.9000000000001,354.5" fill="none" stroke="#ff0000" stroke-linecap="round" stroke-linejoin="round" stroke-miterlimit="10" stroke-width="0.5"/>
	<path d="M 544.1,353.4 C 544.0,352.9 543.5,352.5 543.0,352.59999999999997" fill="none" stroke="#ff0000" stroke-linecap="round" stroke-linejoin="round" stroke-miterlimit="10" stroke-width="0.5"/>
	<path d="M 534.2,353.4 C 534.4000000000001,355.79999999999995 536.5,357.5 538.9000000000001,357.29999999999995 C 541.2,357.09999999999997 543.0000000000001,354.99999999999994 542.8000000000001,352.69999999999993" fill="none" stroke="#ff0000" stroke-linecap="round" stroke-linejoin="round" stroke-miterlimit="10" stroke-width="0.5"/>
	<path d="M 429.0,364.3 L 532.9,354.5" fill="none" stroke="#ff0000" stroke-linecap="round" stroke-linejoin="round" stroke-miterlimit="10" stroke-width="0.5"/>
	<path d="M 413.2,365.4 L 410.3,356.0" fill="none" stroke="#ff0000" stroke-linecap="round" stroke-linejoin="round" stroke-miterlimit="10" stroke-width="0.5"/>
	<path d="M 410.3,356.0 L 380.3,356.0" fill="none" stroke="#ff0000" stroke-linecap="round" stroke-linejoin="round" stroke-miterlimit="10" stroke-width="0.5"/>
	<path d="M 561.7,313.4 C 560.1,306.9 554.6,302.09999999999997 547.9000000000001,301.4" fill="none" stroke="#ff0000" stroke-linecap="round" stroke-linejoin="round" stroke-miterlimit="10" stroke-width="0.5"/>
	<path d="M 563.6,325.3 L 564.4,325.3 L 566.0,335.9 L 565.4,335.9" fill="none" stroke="#ff0000" stroke-linecap="round" stroke-linejoin="round" stroke-miterlimit="10" stroke-width="0.5"/>
	<path d="M 561.7,313.4 L 563.6,325.3" fill="none" stroke="#ff0000" stroke-linecap="round" stroke-linejoin="round" stroke-miterlimit="10" stroke-width="0.5"/>
	<path d="M 540.2,301.4 C 535.6,302.59999999999997 531.9000000000001,305.7 529.9000000000001,310.0" fill="none" stroke="#ff0000" stroke-linecap="round" stroke-linejoin="round" stroke-miterlimit="10" stroke-width="0.5"/>
	<path d="M 519.6,323.5 L 519.6,321.9 L 529.9,310.0" fill="none" stroke="#ff0000" stroke-linecap="round" stroke-linejoin="round" stroke-miterlimit="10" stroke-width="0.5"/>
	<path d="M 547.9,301.4 L 540.2,301.4" fill="none" stroke="#ff0000" stroke-linecap="round" stroke-linejoin="round" stroke-miterlimit="10" stroke-width="0.5"/>
	<path d="M 566.1,339.9 L 566.1,340.3 L 566.0,340.7 L 565.9,341.0 L 565.9,341.4 L 565.8,341.8 L 565.7,342.1 L 565.7,342.5 L 565.6,342.9 L 565.5,343.2 L 565.4,343.6 L 565.3,343.9 L 565.2,344.2 L 565.0,344.7 L 564.8,345.1 L 564.6,345.5 L 564.4,345.8 L 564.1,346.2 L 563.8,346.6 L 563.5,346.9 L 563.2,347.3 L 562.9,347.6 L 562.5,347.9 L 562.1,348.3 L 561.6,348.6 L 560.6,349.2 L 559.4,349.8 L 558.2,350.4 L 556.9,350.9 L 555.6,351.3 L 554.4,351.7 L 553.2,352.1 L 552.2,352.4 L 551.3,352.6 L 550.6,352.8 L 550.2,352.9 L 550.0,352.9" fill="none" stroke="#ff0000" stroke-linecap="round" stroke-linejoin="round" stroke-miterlimit="10" stroke-width="0.5"/>
	<path d="M 565.4,335.9 L 566.1,339.9" fill="none" stroke="#ff0000" stroke-linecap="round" stroke-linejoin="round" stroke-miterlimit="10" stroke-width="0.5"/>
	<path d="M 544.1,353.4 L 550.0,352.9" fill="none" stroke="#ff0000" stroke-linecap="round" stroke-linejoin="round" stroke-miterlimit="10" stroke-width="0.5"/>
	<path d="M 533.7,353.4 L 534.2,353.4" fill="none" stroke="#ff0000" stroke-linecap="round" stroke-linejoin="round" stroke-miterlimit="10" stroke-width="0.5"/>
	<path d="M 542.8,352.7 L 543.0,352.7" fill="none" stroke="#ff0000" stroke-linecap="round" stroke-linejoin="round" stroke-miterlimit="10" stroke-width="0.5"/>
	<path d="M 380.3,365.8 L 380.3,356.0" fill="none" stroke="#ff0000" stroke-linecap="round" stroke-linejoin="round" stroke-miterlimit="10" stroke-width="0.5"/>
	<path d="M 348.2,356.0 L 362.9,356.0" fill="none" stroke="#ff0000" stroke-linecap="round" stroke-linejoin="round" stroke-miterlimit="10" stroke-width="0.5"/>
	<path d="M 533.2,323.5 L 519.6,323.5" fill="none" stroke="#ff0000" stroke-linecap="round" stroke-linejoin="round" stroke-miterlimit="10" stroke-width="0.5"/>
	<path d="M 533.2,333.1 L 533.2,323.5" fill="none" stroke="#ff0000" stroke-linecap="round" stroke-linejoin="round" stroke-miterlimit="10" stroke-width="0.5"/>
	<path d="M 519.6,333.1 L 533.2,333.1" fill="none" stroke="#ff0000" stroke-linecap="round" stroke-linejoin="round" stroke-miterlimit="10" stroke-width="0.5"/>
</svg>
