<?xml version="1.0" ?>
<svg baseProfile="full" height="595.3" version="1.1" viewBox="0 0 841.9 595.3" width="841.9" xmlns="http://www.w3.org/2000/svg" xmlns:ev="http://www.w3.org/2001/xml-events" xmlns:xlink="http://www.w3.org/1999/xlink">
	<defs/>
	<path d="M 276.1,243.7 L 276.0,243.7 L 275.9,243.7 L 275.8,243.7 L 275.7,243.7 L 275.6,243.7 L 275.5,243.7 L 275.4,243.7 L 275.3,243.8 L 275.2,243.8 L 275.1,243.8 L 275.0,243.8 L 274.9,243.8 L 274.8,243.9 L 274.8,243.9 L 274.7,243.9 L 274.6,244.0 L 274.5,244.0 L 274.4,244.0 L 274.3,244.1 L 274.2,244.1 L 274.1,244.2 L 274.0,244.2 L 273.9,244.2 L 273.9,244.3 L 273.8,244.3 L 273.7,244.4 L 273.6,244.4 L 273.6,244.5 L 273.5,244.5 L 273.4,244.6 L 273.3,244.6 L 273.3,244.7 L 273.2,244.7 L 273.1,244.7 L 273.0,244.8 L 273.0,244.8 L 272.9,244.9 L 272.8,244.9 L 272.7,245.0 L 272.6,245.0 L 272.5,245.1 L 272.5,245.1 L 272.4,245.1 L 272.3,245.2 L 272.2,245.2 L 272.1,245.3 L 272.0,245.3 L 272.0,245.4 L 271.8,245.5 L 271.7,245.5 L 271.6,245.6 L 271.5,245.7 L 271.4,245.8 L 271.3,245.9 L 271.2,246.0 L 271.1,246.1 L 271.0,246.2 L 270.9,246.3 L 270.8,246.4 L 270.7,246.5 L 270.6,246.6 L 270.5,246.7 L 270.3,246.8 L 270.2,246.9 L 270.1,247.0 L 270.0,247.2 L 269.8,247.3 L 269.7,247.4 L 269.6,247.5 L 269.5,247.6 L 269.4,247.8 L 269.3,247.9 L 269.2,248.0 L 269.1,248.1 L 269.0,248.2 L 268.9,248.4 L 268.8,248.5 L 268.7,248.6 L 268.6,248.7 L 268.5,248.8 L 268.4,249.0 L 268.3,249.1 L 268.3,249.2 L 268.2,249.3 L 268.0,249.6 L 267.8,250.0 L 267.6,250.3 L 267.5,250.6 L 267.3,251.0 L 267.2,251.3 L 267.1,251.6 L 266.9,252.0 L 266.8,252.3 L 266.7,252.7 L 266.6,253.0 L 266.6,253.4 L 266.5,253.8 L 266.4,254.2 L 266.3,254.6 L 266.3,255.0 L 266.3,255.4 L 266.2,255.8 L 266.2,256.2 L 266.2,256.6 L 266.1,257.0 L 266.1,257.4 L 266.1,257.8 L 266.1,258.3 L 266.1,258.8 L 266.1,259.3 L 266.1,259.8 L 266.1,260.3 L 266.1,260.8 L 266.1,261.3 L 266.2,261.8 L 266.2,262.3 L 266.2,262.8 L 266.3,263.3 L 266.3,263.8 L 266.4,264.3 L 266.5,264.9 L 266.6,265.5 L 266.7,266.1 L 266.8,266.7 L 266.9,267.3 L 267.1,267.9 L 267.3,268.5 L 267.4,269.1 L 267.6,269.7 L 267.8,270.2 L 268.0,270.8 L 268.2,271.4 L 268.3,271.7 L 268.4,272.1 L 268.5,272.4 L 268.7,272.7 L 268.8,273.0 L 268.9,273.4 L 269.1,273.7 L 269.2,274.0 L 269.4,274.3 L 269.5,274.7 L 269.6,275.0 L 269.8,275.3 L 270.0,275.6 L 270.1,275.9 L 270.3,276.2 L 270.5,276.5 L 270.7,276.8 L 270.8,277.1 L 271.0,277.4 L 271.2,277.7 L 271.4,278.0 L 271.6,278.3 L 271.8,278.6 L 272.1,278.9 L 272.2,279.1 L 272.4,279.4 L 272.6,279.6 L 272.8,279.8 L 273.1,280.1 L 273.3,280.3 L 273.5,280.5 L 273.7,280.7 L 273.9,280.9 L 274.2,281.1 L 274.4,281.3 L 274.7,281.5 L 275.1,281.8 L 275.5,282.0 L 276.0,282.3 L 276.5,282.5 L 277.0,282.7 L 277.5,282.8 L 278.0,283.0 L 278.5,283.1 L 279.0,283.3 L 279.5,283.4 L 280.0,283.5 L 280.6,283.7" fill="none" stroke="#ff0000" stroke-linecap="round" stroke-linejoin="round" stroke-miterlimit="10" stroke-width="0.5"/>
	<path d="M 276.1,243.7 L 348.2,236.3" fill="none" stroke="#ff0000" stroke-linecap="round" stroke-linejoin="round" stroke-miterlimit="10" stroke-width="0.5"/>
	<path d="M 280.8,283.7 L 348.2,291.4" fill="none" stroke="#ff0000" stroke-linecap="round" stroke-linejoin="round" stroke-miterlimit="10" stroke-width="0.5"/>
	<path d="M 565.9,243.7 L 566.0,243.7 L 566.1,243.7 L 566.2,243.7 L 566.3,243.7 L 566.4,243.7 L 566.5,243.7 L 566.6,243.7 L 566.7,243.8 L 566.8,243.8 L 566.9,243.8 L 567.0,243.8 L 567.1,243.8 L 567.2,243.9 L 567.2,243.9 L 567.3,243.9 L 567.4,244.0 L 567.5,244.0 L 567.6,244.0 L 567.7,244.1 L 567.8,244.1 L 567.9,244.2 L 568.0,244.2 L 568.1,244.2 L 568.1,244.3 L 568.2,244.3 L 568.3,244.4 L 568.4,244.4 L 568.4,244.5 L 568.5,244.5 L 568.6,244.6 L 568.7,244.6 L 568.7,244.7 L 568.8,244.7 L 568.9,244.7 L 569.0,244.8 L 569.0,244.8 L 569.1,244.9 L 569.2,244.9 L 569.3,245.0 L 569.4,245.0 L 569.5,245.1 L 569.5,245.1 L 569.6,245.1 L 569.7,245.2 L 569.8,245.2 L 569.9,245.3 L 570.0,245.3 L 570.0,245.4 L 570.1,245.5 L 570.3,245.5 L 570.4,245.6 L 570.5,245.7 L 570.6,245.8 L 570.7,245.9 L 570.8,246.0 L 570.9,246.1 L 571.0,246.2 L 571.1,246.3 L 571.2,246.4 L 571.3,246.5 L 571.4,246.6 L 571.5,246.7 L 571.7,246.8 L 571.8,246.9 L 571.9,247.0 L 572.0,247.2 L 572.2,247.3 L 572.3,247.4 L 572.4,247.5 L 572.5,247.6 L 572.6,247.8 L 572.7,247.9 L 572.8,248.0 L 572.9,248.1 L 573.0,248.2 L 573.1,248.4 L 573.2,248.5 L 573.3,248.6 L 573.4,248.7 L 573.5,248.8 L 573.6,249.0 L 573.7,249.1 L 573.7,249.2 L 573.8,249.3 L 574.0,249.6 L 574.2,250.0 L 574.4,250.3 L 574.5,250.6 L 574.7,251.0 L 574.8,251.3 L 574.9,251.6 L 575.1,252.0 L 575.2,252.3 L 575.3,252.7 L 575.4,253.0 L 575.4,253.4 L 575.5,253.8 L 575.6,254.2 L 575.7,254.6 L 575.7,255.0 L 575.7,255.4 L 575.8,255.8 L 575.8,256.2 L 575.8,256.6 L 575.9,257.0 L 575.9,257.4 L 575.9,257.8 L 575.9,258.3 L 575.9,258.8 L 575.9,259.3 L 575.9,259.8 L 575.9,260.3 L 575.9,260.8 L 575.9,261.3 L 575.8,261.8 L 575.8,262.3 L 575.8,262.8 L 575.7,263.3 L 575.7,263.8 L 575.6,264.3 L 575.5,264.9 L 575.4,265.5 L 575.3,266.1 L 575.2,266.7 L 575.1,267.3 L 574.9,267.9 L 574.7,268.5 L 574.6,269.1 L 574.4,269.7 L 574.2,270.2 L 574.0,270.8 L 573.8,271.4 L 573.7,271.7 L 573.6,272.1 L 573.5,272.4 L 573.3,272.7 L 573.2,273.0 L 573.1,273.4 L 572.9,273.7 L 572.8,274.0 L 572.6,274.3 L 572.5,274.7 L 572.3,275.0 L 572.2,275.3 L 572.0,275.6 L 571.9,275.9 L 571.7,276.2 L 571.5,276.5 L 571.3,276.8 L 571.2,277.1 L 571.0,277.4 L 570.8,277.7 L 570.6,278.0 L 570.4,278.3 L 570.2,278.6 L 569.9,278.9 L 569.8,279.1 L 569.6,279.4 L 569.4,279.6 L 569.1,279.8 L 568.9,280.1 L 568.7,280.3 L 568.5,280.5 L 568.3,280.7 L 568.1,280.9 L 567.8,281.1 L 567.6,281.3 L 567.3,281.5 L 566.9,281.8 L 566.5,282.0 L 566.0,282.3 L 565.5,282.5 L 565.0,282.7 L 564.5,282.8 L 564.0,283.0 L 563.5,283.1 L 563.0,283.3 L 562.5,283.4 L 562.0,283.5 L 561.4,283.7" fill="none" stroke="#ff0000" stroke-linecap="round" stroke-linejoin="round" stroke-miterlimit="10" stroke-width="0.5"/>
	<path d="M 441.3,229.2 L 425.8,227.7" fill="none" stroke="#ff0000" stroke-linecap="round" stroke-linejoin="round" stroke-miterlimit="10" stroke-width="0.5"/>
	<path d="M 448.8,231.8 L 441.3,229.2" fill="none" stroke="#ff0000" stroke-linecap="round" stroke-linejoin="round" stroke-miterlimit="10" stroke-width="0.5"/>
	<path d="M 565.9,243.7 L 448.8,231.8" fill="none" stroke="#ff0000" stroke-linecap="round" stroke-linejoin="round" stroke-miterlimit="10" stroke-width="0.5"/>
	<path d="M 441.0,297.5 C 432.8,301.7 427.3,310.6 426.1,319.7 L 425.8,319.7" fill="none" stroke="#ff0000" stroke-linecap="round" stroke-linejoin="round" stroke-miterlimit="10" stroke-width="0.5"/>
	<path d="M 561.2,283.7 L 441.0,297.5" fill="none" stroke="#ff0000" stroke-linecap="round" stroke-linejoin="round" stroke-miterlimit="10" stroke-width="0.5"/>
	<path d="M 425.8,319.7 L 425.8,297.5" fill="none" stroke="#ff0000" stroke-linecap="round" stroke-linejoin="round" stroke-miterlimit="10" stroke-width="0.5"/>
	<path d="M 425.8,297.5 L 416.2,297.5" fill="none" stroke="#ff0000" stroke-linecap="round" stroke-linejoin="round" stroke-miterlimit="10" stroke-width="0.5"/>
	<path d="M 416.2,319.7 L 415.7,319.7 C 414.4,310.59999999999997 409.2,301.7 401.09999999999997,297.5" fill="none" stroke="#ff0000" stroke-linecap="round" stroke-linejoin="round" stroke-miterlimit="10" stroke-width="0.5"/>
	<path d="M 416.2,297.5 L 416.2,319.7" fill="none" stroke="#ff0000" stroke-linecap="round" stroke-linejoin="round" stroke-miterlimit="10" stroke-width="0.5"/>
	<path d="M 425.8,227.7 L 425.8,233.9" fill="none" stroke="#ff0000" stroke-linecap="round" stroke-linejoin="round" stroke-miterlimit="10" stroke-width="0.5"/>
	<path d="M 425.8,233.9 L 416.2,233.9" fill="none" stroke="#ff0000" stroke-linecap="round" stroke-linejoin="round" stroke-miterlimit="10" stroke-width="0.5"/>
	<path d="M 400.6,229.2 L 416.2,227.7" fill="none" stroke="#ff0000" stroke-linecap="round" stroke-linejoin="round" stroke-miterlimit="10" stroke-width="0.5"/>
	<path d="M 393.2,231.8 L 400.6,229.2" fill="none" stroke="#ff0000" stroke-linecap="round" stroke-linejoin="round" stroke-miterlimit="10" stroke-width="0.5"/>
	<path d="M 416.2,233.9 L 416.2,227.7" fill="none" stroke="#ff0000" stroke-linecap="round" stroke-linejoin="round" stroke-miterlimit="10" stroke-width="0.5"/>
	<path d="M 348.2,236.3 L 393.2,231.8" fill="none" stroke="#ff0000" stroke-linecap="round" stroke-linejoin="round" stroke-miterlimit="10" stroke-width="0.5"/>
	<path d="M 348.2,291.4 L 401.0,297.5" fill="none" stroke="#ff0000" stroke-linecap="round" stroke-linejoin="round" stroke-miterlimit="10" stroke-width="0.5"/>
	<path d="M 416.2,250.2 L 416.2,267.6" fill="none" stroke="#ff0000" stroke-linecap="round" stroke-linejoin="round" stroke-miterlimit="10" stroke-width="0.5"/>
	<path d="M 416.2,267.6 L 425.8,267.6" fill="none" stroke="#ff0000" stroke-linecap="round" stroke-linejoin="round" stroke-miterlimit="10" stroke-width="0.5"/>
	<path d="M 425.8,267.6 L 425.8,250.2" fill="none" stroke="#ff0000" stroke-linecap="round" stroke-linejoin="round" stroke-miterlimit="10" stroke-width="0.5"/>
	<path d="M 425.8,250.2 L 416.2,250.2" fill="none" stroke="#ff0000" stroke-linecap="round" stroke-linejoin="round" stroke-miterlimit="10" stroke-width="0.5"/>
	<path d="M 465.6,286.0 L 465.6,272.5" fill="none" stroke="#ff0000" stroke-linecap="round" stroke-linejoin="round" stroke-miterlimit="10" stroke-width="0.5"/>
	<path d="M 456.0,286.0 L 465.6,286.0" fill="none" stroke="#ff0000" stroke-linecap="round" stroke-linejoin="round" stroke-miterlimit="10" stroke-width="0.5"/>
	<path d="M 456.0,272.5 L 456.0,286.0" fill="none" stroke="#ff0000" stroke-linecap="round" stroke-linejoin="round" stroke-miterlimit="10" stroke-width="0.5"/>
</svg>
