<?xml version="1.0" ?>
<svg baseProfile="full" height="166.02980000000002" version="1.1" viewBox="234.96510000000004 212.7351 371.06979999999993 166.02980000000002" width="371.06979999999993" xmlns="http://www.w3.org/2000/svg" xmlns:ev="http://www.w3.org/2001/xml-events" xmlns:xlink="http://www.w3.org/1999/xlink">
	<defs/>
	<path d="M 561.7,313.4 C 560.1,306.9 554.6,302.09999999999997 547.9000000000001,301.4" fill="none" stroke="#ff0000" stroke-linecap="round" stroke-linejoin="round" stroke-miterlimit="10" stroke-width="0.5"/>
	<path d="M 540.2,301.4 C 535.6,302.59999999999997 531.9000000000001,305.7 529.9000000000001,310.0" fill="none" stroke="#ff0000" stroke-linecap="round" stroke-linejoin="round" stroke-miterlimit="10" stroke-width="0.5"/>
	<path d="M 533.7,353.4 C 533.2,353.5 532.8000000000001,354.0 532.9000000000001,354.5" fill="none" stroke="#ff0000" stroke-linecap="round" stroke-linejoin="round" stroke-miterlimit="10" stroke-width="0.5"/>
	<path d="M 415.1,322.6 C 415.20000000000005,322.1 414.90000000000003,321.70000000000005 414.40000000000003,321.6 C 414.00000000000006,321.5 413.50000000000006,321.8 413.40000000000003,322.20000000000005" fill="none" stroke="#ff0000" stroke-linecap="round" stroke-linejoin="round" stroke-miterlimit="10" stroke-width="0.5"/>
	<path d="M 441.0,297.5 C 432.8,301.7 427.3,310.6 426.1,319.7 L 425.8,319.7" fill="none" stroke="#ff0000" stroke-linecap="round" stroke-linejoin="round" stroke-miterlimit="10" stroke-width="0.5"/>
	<path d="M 416.2,319.7 L 415.7,319.7 C 414.4,310.59999999999997 409.2,301.7 401.09999999999997,297.5" fill="none" stroke="#ff0000" stroke-linecap="round" stroke-linejoin="round" stroke-miterlimit="10" stroke-width="0.5"/>
	<path d="M 290.2,297.5 C 285.9,297.7 282.3,300.8 281.5,305.1" fill="none" stroke="#ff0000" stroke-linecap="round" stroke-linejoin="round" stroke-miterlimit="10" stroke-width="0.5"/>
	<path d="M 382.7,305.1 C 381.9,300.90000000000003 378.3,297.70000000000005 374.0,297.5" fill="none" stroke="#ff0000" stroke-linecap="round" stroke-linejoin="round" stroke-miterlimit="10" stroke-width="0.5"/>
	<path d="M 544.1,353.4 C 544.0,352.9 543.5,352.5 543.0,352.59999999999997" fill="none" stroke="#ff0000" stroke-linecap="round" stroke-linejoin="round" stroke-miterlimit="10" stroke-width="0.5"/>
	<path d="M 534.2,353.4 C 534.4000000000001,355.79999999999995 536.5,357.5 538.9000000000001,357.29999999999995 C 541.2,357.09999999999997 543.0000000000001,354.99999999999994 542.8000000000001,352.69999999999993" fill="none" stroke="#ff0000" stroke-linecap="round" stroke-linejoin="round" stroke-miterlimit="10" stroke-width="0.5"/>
	<path d="M 345.5,328.0 L 346.3,327.8 L 347.2,327.7 L 348.2,327.6" fill="none" stroke="#ff0000" stroke-linecap="round" stroke-linejoin="round" stroke-miterlimit="10" stroke-width="0.5"/>
	<path d="M 519.6,323.5 L 519.6,321.9 L 529.9,310.0" fill="none" stroke="#ff0000" stroke-linecap="round" stroke-linejoin="round" stroke-miterlimit="10" stroke-width="0.5"/>
	<path d="M 496.1,334.7 L 495.0,334.7 L 493.9,334.7 L 492.8,334.7 L 491.7,334.6 L 490.6,334.6 L 489.5,334.6 L 488.4,334.5 L 487.4,334.5 L 486.3,334.4 L 485.2,334.3 L 484.1,334.3 L 483.0,334.2 L 481.6,334.1 L 480.3,334.0 L 478.9,333.8 L 477.6,333.7 L 476.2,333.6 L 474.9,333.4 L 473.5,333.2 L 472.2,333.1 L 470.8,332.9 L 469.5,332.7 L 468.1,332.5 L 466.8,332.4" fill="none" stroke="#ff0000" stroke-linecap="round" stroke-linejoin="round" stroke-miterlimit="10" stroke-width="0.5"/>
	<path d="M 392.7,320.0 L 392.9,320.0 L 393.1,319.9 L 393.3,319.8 L 393.4,319.8 L 393.6,319.7 L 393.8,319.6 L 394.0,319.6 L 394.2,319.5 L 394.4,319.5 L 394.6,319.4 L 394.8,319.4 L 395.0,319.3 L 395.4,319.3 L 395.8,319.2 L 396.2,319.2 L 396.6,319.2 L 397.0,319.1 L 397.5,319.1 L 397.9,319.2 L 398.3,319.2 L 398.7,319.2 L 399.1,319.3 L 399.6,319.3 L 400.0,319.3 L 400.6,319.4 L 401.2,319.5 L 401.8,319.6 L 402.4,319.7 L 403.0,319.8 L 403.6,319.9 L 404.2,320.1 L 404.8,320.2 L 405.4,320.3 L 406.0,320.4 L 406.5,320.6 L 407.1,320.7 L 408.7,321.1 L 410.3,321.4 L 411.9,321.8 L 413.5,322.2" fill="none" stroke="#ff0000" stroke-linecap="round" stroke-linejoin="round" stroke-miterlimit="10" stroke-width="0.5"/>
	<path d="M 563.6,325.3 L 564.4,325.3 L 566.0,335.9 L 565.4,335.9" fill="none" stroke="#ff0000" stroke-linecap="round" stroke-linejoin="round" stroke-miterlimit="10" stroke-width="0.5"/>
	<path d="M 283.9,336.6 L 284.0,336.4 L 284.1,336.2 L 284.1,336.1 L 284.2,335.9 L 284.2,335.8 L 284.3,335.6 L 284.4,335.5 L 284.4,335.3 L 284.5,335.2 L 284.6,335.0 L 284.6,334.9 L 284.7,334.7 L 284.9,334.5 L 285.0,334.3 L 285.2,334.1 L 285.4,333.9 L 285.6,333.7 L 285.8,333.5 L 286.0,333.3 L 286.2,333.1 L 286.4,333.0 L 286.6,332.8 L 286.9,332.7 L 287.1,332.6 L 287.3,332.5 L 287.6,332.5 L 287.8,332.4 L 288.1,332.4 L 288.3,332.3 L 288.6,332.3 L 288.9,332.3 L 289.1,332.3 L 289.4,332.3 L 289.6,332.3 L 289.9,332.3 L 290.2,332.3" fill="none" stroke="#ff0000" stroke-linecap="round" stroke-linejoin="round" stroke-miterlimit="10" stroke-width="0.5"/>
	<path d="M 283.9,359.8 L 284.0,360.0 L 284.0,360.2 L 284.1,360.4 L 284.1,360.6 L 284.2,360.8 L 284.2,360.9 L 284.3,361.1 L 284.4,361.3 L 284.5,361.5 L 284.5,361.7 L 284.6,361.9 L 284.7,362.0 L 284.9,362.2 L 285.0,362.4 L 285.2,362.6 L 285.4,362.8 L 285.6,363.0 L 285.8,363.1 L 286.0,363.3 L 286.2,363.4 L 286.4,363.5 L 286.6,363.6 L 286.9,363.7 L 287.1,363.8 L 287.3,363.9 L 287.5,363.9 L 287.7,364.0 L 287.9,364.0 L 288.1,364.1 L 288.3,364.1 L 288.5,364.1 L 288.7,364.2 L 288.9,364.2 L 289.1,364.2 L 289.3,364.2 L 289.5,364.2" fill="none" stroke="#ff0000" stroke-linecap="round" stroke-linejoin="round" stroke-miterlimit="10" stroke-width="0.5"/>
	<path d="M 413.2,365.4 L 415.4,365.3 L 415.8,365.1 L 419.1,364.9 L 422.4,364.7 L 425.7,364.5 L 429.0,364.3" fill="none" stroke="#ff0000" stroke-linecap="round" stroke-linejoin="round" stroke-miterlimit="10" stroke-width="0.5"/>
	<path d="M 283.9,340.7 L 283.3,340.8 L 282.6,340.8 L 281.9,340.9 L 281.1,341.0 L 280.4,341.1 L 279.7,341.2 L 278.9,341.3 L 278.2,341.5 L 277.4,341.6 L 276.6,341.8 L 275.8,342.0 L 275.0,342.3 L 274.0,342.7 L 272.9,343.0 L 271.9,343.5 L 270.9,344.0 L 270.0,344.5 L 269.1,345.0 L 268.3,345.6 L 267.6,346.1 L 267.0,346.7 L 266.5,347.4 L 266.3,348.0 L 266.1,348.6 L 266.2,349.3 L 266.5,349.9 L 266.9,350.6 L 267.5,351.2 L 268.3,351.8 L 269.1,352.4 L 270.0,353.0 L 271.0,353.5 L 272.0,354.0 L 273.1,354.5 L 274.1,354.9 L 275.2,355.3 L 276.0,355.5 L 276.7,355.7 L 277.5,355.9 L 278.2,356.1 L 279.0,356.2 L 279.7,356.3 L 280.4,356.4 L 281.1,356.5 L 281.8,356.6 L 282.4,356.6 L 283.1,356.7 L 283.9,356.7" fill="none" stroke="#ff0000" stroke-linecap="round" stroke-linejoin="round" stroke-miterlimit="10" stroke-width="0.5"/>
	<path d="M 415.1,322.6 L 416.7,323.0 L 418.3,323.4 L 419.9,323.8 L 421.5,324.2 L 423.1,324.6 L 424.7,325.0 L 426.2,325.3" fill="none" stroke="#ff0000" stroke-linecap="round" stroke-linejoin="round" stroke-miterlimit="10" stroke-width="0.5"/>
	<path d="M 496.1,334.7 L 519.6,334.8 L 519.6,333.1" fill="none" stroke="#ff0000" stroke-linecap="round" stroke-linejoin="round" stroke-miterlimit="10" stroke-width="0.5"/>
	<path d="M 565.9,243.7 L 566.0,243.7 L 566.1,243.7 L 566.2,243.7 L 566.3,243.7 L 566.4,243.7 L 566.5,243.7 L 566.6,243.7 L 566.7,243.8 L 566.8,243.8 L 566.9,243.8 L 567.0,243.8 L 567.1,243.8 L 567.2,243.9 L 567.2,243.9 L 567.3,243.9 L 567.4,244.0 L 567.5,244.0 L 567.6,244.0 L 567.7,244.1 L 567.8,244.1 L 567.9,244.2 L 568.0,244.2 L 568.1,244.2 L 568.1,244.3 L 568.2,244.3 L 568.3,244.4 L 568.4,244.4 L 568.4,244.5 L 568.5,244.5 L 568.6,244.6 L 568.7,244.6 L 568.7,244.7 L 568.8,244.7 L 568.9,244.7 L 569.0,244.8 L 569.0,244.8 L 569.1,244.9 L 569.2,244.9 L 569.3,245.0 L 569.4,245.0 L 569.5,245.1 L 569.5,245.1 L 569.6,245.1 L 569.7,245.2 L 569.8,245.2 L 569.9,245.3 L 570.0,245.3 L 570.0,245.4 L 570.1,245.5 L 570.3,245.5 L 570.4,245.6 L 570.5,245.7 L 570.6,245.8 L 570.7,245.9 L 570.8,246.0 L 570.9,246.1 L 571.0,246.2 L 571.1,246.3 L 571.2,246.4 L 571.3,246.5 L 571.4,246.6 L 571.5,246.7 L 571.7,246.8 L 571.8,246.9 L 571.9,247.0 L 572.0,247.2 L 572.2,247.3 L 572.3,247.4 L 572.4,247.5 L 572.5,247.6 L 572.6,247.8 L 572.7,247.9 L 572.8,248.0 L 572.9,248.1 L 573.0,248.2 L 573.1,248.4 L 573.2,248.5 L 573.3,248.6 L 573.4,248.7 L 573.5,248.8 L 573.6,249.0 L 573.7,249.1 L 573.7,249.2 L 573.8,249.3 L 574.0,249.6 L 574.2,250.0 L 574.4,250.3 L 574.5,250.6 L 574.7,251.0 L 574.8,251.3 L 574.9,251.6 L 575.1,252.0 L 575.2,252.3 L 575.3,252.7 L 575.4,253.0 L 575.4,253.4 L 575.5,253.8 L 575.6,254.2 L 575.7,254.6 L 575.7,255.0 L 575.7,255.4 L 575.8,255.8 L 575.8,256.2 L 575.8,256.6 L 575.9,257.0 L 575.9,257.4 L 575.9,257.8 L 575.9,258.3 L 575.9,258.8 L 575.9,259.3 L 575.9,259.8 L 575.9,260.3 L 575.9,260.8 L 575.9,261.3 L 575.8,261.8 L 575.8,262.3 L 575.8,262.8 L 575.7,263.3 L 575.7,263.8 L 575.6,264.3 L 575.5,264.9 L 575.4,265.5 L 575.3,266.1 L 575.2,266.7 L 575.1,267.3 L 574.9,267.9 L 574.7,268.5 L 574.6,269.1 L 574.4,269.7 L 574.2,270.2 L 574.0,270.8 L 573.8,271.4 L 573.7,271.7 L 573.6,272.1 L 573.5,272.4 L 573.3,272.7 L 573.2,273.0 L 573.1,273.4 L 572.9,273.7 L 572.8,274.0 L 572.6,274.3 L 572.5,274.7 L 572.3,275.0 L 572.2,275.3 L 572.0,275.6 L 571.9,275.9 L 571.7,276.2 L 571.5,276.5 L 571.3,276.8 L 571.2,277.1 L 571.0,277.4 L 570.8,277.7 L 570.6,278.0 L 570.4,278.3 L 570.2,278.6 L 569.9,278.9 L 569.8,279.1 L 569.6,279.4 L 569.4,279.6 L 569.1,279.8 L 568.9,280.1 L 568.7,280.3 L 568.5,280.5 L 568.3,280.7 L 568.1,280.9 L 567.8,281.1 L 567.6,281.3 L 567.3,281.5 L 566.9,281.8 L 566.5,282.0 L 566.0,282.3 L 565.5,282.5 L 565.0,282.7 L 564.5,282.8 L 564.0,283.0 L 563.5,283.1 L 563.0,283.3 L 562.5,283.4 L 562.0,283.5 L 561.4,283.7" fill="none" stroke="#ff0000" stroke-linecap="round" stroke-linejoin="round" stroke-miterlimit="10" stroke-width="0.5"/>
	<path d="M 276.1,243.7 L 276.0,243.7 L 275.9,243.7 L 275.8,243.7 L 275.7,243.7 L 275.6,243.7 L 275.5,243.7 L 275.4,243.7 L 275.3,243.8 L 275.2,243.8 L 275.1,243.8 L 275.0,243.8 L 274.9,243.8 L 274.8,243.9 L 274.8,243.9 L 274.7,243.9 L 274.6,244.0 L 274.5,244.0 L 274.4,244.0 L 274.3,244.1 L 274.2,244.1 L 274.1,244.2 L 274.0,244.2 L 273.9,244.2 L 273.9,244.3 L 273.8,244.3 L 273.7,244.4 L 273.6,244.4 L 273.6,244.5 L 273.5,244.5 L 273.4,244.6 L 273.3,244.6 L 273.3,244.7 L 273.2,244.7 L 273.1,244.7 L 273.0,244.8 L 273.0,244.8 L 272.9,244.9 L 272.8,244.9 L 272.7,245.0 L 272.6,245.0 L 272.5,245.1 L 272.5,245.1 L 272.4,245.1 L 272.3,245.2 L 272.2,245.2 L 272.1,245.3 L 272.0,245.3 L 272.0,245.4 L 271.8,245.5 L 271.7,245.5 L 271.6,245.6 L 271.5,245.7 L 271.4,245.8 L 271.3,245.9 L 271.2,246.0 L 271.1,246.1 L 271.0,246.2 L 270.9,246.3 L 270.8,246.4 L 270.7,246.5 L 270.6,246.6 L 270.5,246.7 L 270.3,246.8 L 270.2,246.9 L 270.1,247.0 L 270.0,247.2 L 269.8,247.3 L 269.7,247.4 L 269.6,247.5 L 269.5,247.6 L 269.4,247.8 L 269.3,247.9 L 269.2,248.0 L 269.1,248.1 L 269.0,248.2 L 268.9,248.4 L 268.8,248.5 L 268.7,248.6 L 268.6,248.7 L 268.5,248.8 L 268.4,249.0 L 268.3,249.1 L 268.3,249.2 L 268.2,249.3 L 268.0,249.6 L 267.8,250.0 L 267.6,250.3 L 267.5,250.6 L 267.3,251.0 L 267.2,251.3 L 267.1,251.6 L 266.9,252.0 L 266.8,252.3 L 266.7,252.7 L 266.6,253.0 L 266.6,253.4 L 266.5,253.8 L 266.4,254.2 L 266.3,254.6 L 266.3,255.0 L 266.3,255.4 L 266.2,255.8 L 266.2,256.2 L 266.2,256.6 L 266.1,257.0 L 266.1,257.4 L 266.1,257.8 L 266.1,258.3 L 266.1,258.8 L 266.1,259.3 L 266.1,259.8 L 266.1,260.3 L 266.1,260.8 L 266.1,261.3 L 266.2,261.8 L 266.2,262.3 L 266.2,262.8 L 266.3,263.3 L 266.3,263.8 L 266.4,264.3 L 266.5,264.9 L 266.6,265.5 L 266.7,266.1 L 266.8,266.7 L 266.9,267.3 L 267.1,267.9 L 267.3,268.5 L 267.4,269.1 L 267.6,269.7 L 267.8,270.2 L 268.0,270.8 L 268.2,271.4 L 268.3,271.7 L 268.4,272.1 L 268.5,272.4 L 268.7,272.7 L 268.8,273.0 L 268.9,273.4 L 269.1,273.7 L 269.2,274.0 L 269.4,274.3 L 269.5,274.7 L 269.6,275.0 L 269.8,275.3 L 270.0,275.6 L 270.1,275.9 L 270.3,276.2 L 270.5,276.5 L 270.7,276.8 L 270.8,277.1 L 271.0,277.4 L 271.2,277.7 L 271.4,278.0 L 271.6,278.3 L 271.8,278.6 L 272.1,278.9 L 272.2,279.1 L 272.4,279.4 L 272.6,279.6 L 272.8,279.8 L 273.1,280.1 L 273.3,280.3 L 273.5,280.5 L 273.7,280.7 L 273.9,280.9 L 274.2,281.1 L 274.4,281.3 L 274.7,281.5 L 275.1,281.8 L 275.5,282.0 L 276.0,282.3 L 276.5,282.5 L 277.0,282.7 L 277.5,282.8 L 278.0,283.0 L 278.5,283.1 L 279.0,283.3 L 279.5,283.4 L 280.0,283.5 L 280.6,283.7" fill="none" stroke="#ff0000" stroke-linecap="round" stroke-linejoin="round" stroke-miterlimit="10" stroke-width="0.5"/>
	<path d="M 281.4,309.4 L 281.4,309.6 L 281.4,309.8 L 281.4,310.0 L 281.4,310.2 L 281.4,310.4 L 281.4,310.6 L 281.4,310.8 L 281.4,311.0 L 281.4,311.2 L 281.4,311.4 L 281.4,311.6 L 281.4,311.8 L 281.5,312.3 L 281.5,312.8 L 281.6,313.3 L 281.7,313.8 L 281.8,314.3 L 281.9,314.8 L 282.0,315.3 L 282.2,315.7 L 282.4,316.2 L 282.6,316.6 L 282.9,316.9 L 283.2,317.3 L 283.5,317.6 L 283.8,317.8 L 284.2,318.0 L 284.6,318.2 L 285.0,318.4 L 285.4,318.5 L 285.8,318.7 L 286.3,318.8 L 286.8,318.9 L 287.2,319.0 L 287.7,319.1 L 288.2,319.2" fill="none" stroke="#ff0000" stroke-linecap="round" stroke-linejoin="round" stroke-miterlimit="10" stroke-width="0.5"/>
	<path d="M 306.4,297.5 L 306.7,297.1 L 315.6,297.1 L 315.9,297.5" fill="none" stroke="#ff0000" stroke-linecap="round" stroke-linejoin="round" stroke-miterlimit="10" stroke-width="0.5"/>
	<path d="M 382.7,309.4 L 382.7,309.6 L 382.7,309.8 L 382.7,310.0 L 382.7,310.2 L 382.7,310.4 L 382.7,310.6 L 382.7,310.8 L 382.7,311.0 L 382.7,311.2 L 382.7,311.4 L 382.7,311.6 L 382.7,311.8 L 382.7,312.3 L 382.6,312.8 L 382.6,313.3 L 382.5,313.8 L 382.4,314.3 L 382.3,314.8 L 382.1,315.3 L 381.9,315.7 L 381.7,316.2 L 381.5,316.6 L 381.2,316.9 L 380.9,317.3 L 380.6,317.6 L 380.3,317.8 L 379.9,318.0 L 379.6,318.2 L 379.2,318.4 L 378.7,318.5 L 378.3,318.7 L 377.8,318.8 L 377.4,318.9 L 376.9,319.0 L 376.5,319.1 L 376.0,319.2" fill="none" stroke="#ff0000" stroke-linecap="round" stroke-linejoin="round" stroke-miterlimit="10" stroke-width="0.5"/>
	<path d="M 357.8,297.5 L 357.5,297.1 L 348.5,297.1 L 348.2,297.5" fill="none" stroke="#ff0000" stroke-linecap="round" stroke-linejoin="round" stroke-miterlimit="10" stroke-width="0.5"/>
	<path d="M 566.1,339.9 L 566.1,340.3 L 566.0,340.7 L 565.9,341.0 L 565.9,341.4 L 565.8,341.8 L 565.7,342.1 L 565.7,342.5 L 565.6,342.9 L 565.5,343.2 L 565.4,343.6 L 565.3,343.9 L 565.2,344.2 L 565.0,344.7 L 564.8,345.1 L 564.6,345.5 L 564.4,345.8 L 564.1,346.2 L 563.8,346.6 L 563.5,346.9 L 563.2,347.3 L 562.9,347.6 L 562.5,347.9 L 562.1,348.3 L 561.6,348.6 L 560.6,349.2 L 559.4,349.8 L 558.2,350.4 L 556.9,350.9 L 555.6,351.3 L 554.4,351.7 L 553.2,352.1 L 552.2,352.4 L 551.3,352.6 L 550.6,352.8 L 550.2,352.9 L 550.0,352.9" fill="none" stroke="#ff0000" stroke-linecap="round" stroke-linejoin="round" stroke-miterlimit="10" stroke-width="0.5"/>
	<path d="M 348.2,327.6 L 348.9,327.5 L 349.7,327.3 L 350.6,327.2 L 351.5,327.1 L 352.3,327.0 L 353.2,326.9 L 354.0,326.8 L 354.9,326.7 L 355.7,326.6 L 357.6,326.4 L 359.5,326.3 L 361.3,326.2 L 363.2,326.1 L 365.1,326.0 L 367.0,325.9 L 368.9,325.9 L 370.7,325.8 L 372.6,325.8 L 374.5,325.8 L 376.4,325.8 L 378.3,325.8" fill="none" stroke="#ff0000" stroke-linecap="round" stroke-linejoin="round" stroke-miterlimit="10" stroke-width="0.5"/>
	<path d="M 299.5,332.3 L 345.5,328.0" fill="none" stroke="#ff0000" stroke-linecap="round" stroke-linejoin="round" stroke-miterlimit="10" stroke-width="0.5"/>
	<path d="M 378.5,325.8 L 392.7,320.0" fill="none" stroke="#ff0000" stroke-linecap="round" stroke-linejoin="round" stroke-miterlimit="10" stroke-width="0.5"/>
	<path d="M 426.4,325.2 L 466.8,332.4" fill="none" stroke="#ff0000" stroke-linecap="round" stroke-linejoin="round" stroke-miterlimit="10" stroke-width="0.5"/>
	<path d="M 300.9,364.2 L 343.9,365.8" fill="none" stroke="#ff0000" stroke-linecap="round" stroke-linejoin="round" stroke-miterlimit="10" stroke-width="0.5"/>
	<path d="M 561.7,313.4 L 563.6,325.3" fill="none" stroke="#ff0000" stroke-linecap="round" stroke-linejoin="round" stroke-miterlimit="10" stroke-width="0.5"/>
	<path d="M 547.9,301.4 L 540.2,301.4" fill="none" stroke="#ff0000" stroke-linecap="round" stroke-linejoin="round" stroke-miterlimit="10" stroke-width="0.5"/>
	<path d="M 378.5,325.8 L 378.2,325.8" fill="none" stroke="#ff0000" stroke-linecap="round" stroke-linejoin="round" stroke-miterlimit="10" stroke-width="0.5"/>
	<path d="M 299.5,332.3 L 290.2,332.3" fill="none" stroke="#ff0000" stroke-linecap="round" stroke-linejoin="round" stroke-miterlimit="10" stroke-width="0.5"/>
	<path d="M 300.9,364.2 L 289.5,364.2" fill="none" stroke="#ff0000" stroke-linecap="round" stroke-linejoin="round" stroke-miterlimit="10" stroke-width="0.5"/>
	<path d="M 283.9,336.6 L 283.9,340.7" fill="none" stroke="#ff0000" stroke-linecap="round" stroke-linejoin="round" stroke-miterlimit="10" stroke-width="0.5"/>
	<path d="M 429.0,364.3 L 532.9,354.5" fill="none" stroke="#ff0000" stroke-linecap="round" stroke-linejoin="round" stroke-miterlimit="10" stroke-width="0.5"/>
	<path d="M 426.2,325.3 L 426.4,325.2" fill="none" stroke="#ff0000" stroke-linecap="round" stroke-linejoin="round" stroke-miterlimit="10" stroke-width="0.5"/>
	<path d="M 565.4,335.9 L 566.1,339.9" fill="none" stroke="#ff0000" stroke-linecap="round" stroke-linejoin="round" stroke-miterlimit="10" stroke-width="0.5"/>
	<path d="M 441.3,229.2 L 425.8,227.7" fill="none" stroke="#ff0000" stroke-linecap="round" stroke-linejoin="round" stroke-miterlimit="10" stroke-width="0.5"/>
	<path d="M 448.8,231.8 L 441.3,229.2" fill="none" stroke="#ff0000" stroke-linecap="round" stroke-linejoin="round" stroke-miterlimit="10" stroke-width="0.5"/>
	<path d="M 565.9,243.7 L 448.8,231.8" fill="none" stroke="#ff0000" stroke-linecap="round" stroke-linejoin="round" stroke-miterlimit="10" stroke-width="0.5"/>
	<path d="M 561.2,283.7 L 441.0,297.5" fill="none" stroke="#ff0000" stroke-linecap="round" stroke-linejoin="round" stroke-miterlimit="10" stroke-width="0.5"/>
	<path d="M 400.6,229.2 L 416.2,227.7" fill="none" stroke="#ff0000" stroke-linecap="round" stroke-linejoin="round" stroke-miterlimit="10" stroke-width="0.5"/>
	<path d="M 393.2,231.8 L 400.6,229.2" fill="none" stroke="#ff0000" stroke-linecap="round" stroke-linejoin="round" stroke-miterlimit="10" stroke-width="0.5"/>
	<path d="M 276.1,243.7 L 348.2,236.3" fill="none" stroke="#ff0000" stroke-linecap="round" stroke-linejoin="round" stroke-miterlimit="10" stroke-width="0.5"/>
	<path d="M 280.8,283.7 L 348.2,291.4" fill="none" stroke="#ff0000" stroke-linecap="round" stroke-linejoin="round" stroke-miterlimit="10" stroke-width="0.5"/>
	<path d="M 348.2,297.5 L 348.2,297.5" fill="none" stroke="#ff0000" stroke-linecap="round" stroke-linejoin="round" stroke-miterlimit="10" stroke-width="0.5"/>
	<path d="M 336.9,311.1 L 336.9,297.5" fill="none" stroke="#ff0000" stroke-linecap="round" stroke-linejoin="round" stroke-miterlimit="10" stroke-width="0.5"/>
	<path d="M 327.3,311.1 L 336.9,311.1" fill="none" stroke="#ff0000" stroke-linecap="round" stroke-linejoin="round" stroke-miterlimit="10" stroke-width="0.5"/>
	<path d="M 327.3,297.5 L 327.3,311.1" fill="none" stroke="#ff0000" stroke-linecap="round" stroke-linejoin="round" stroke-miterlimit="10" stroke-width="0.5"/>
	<path d="M 315.9,297.5 L 327.3,297.5" fill="none" stroke="#ff0000" stroke-linecap="round" stroke-linejoin="round" stroke-miterlimit="10" stroke-width="0.5"/>
	<path d="M 281.4,305.1 L 281.4,309.4" fill="none" stroke="#ff0000" stroke-linecap="round" stroke-linejoin="round" stroke-miterlimit="10" stroke-width="0.5"/>
	<path d="M 288.2,319.2 L 326.1,323.8" fill="none" stroke="#ff0000" stroke-linecap="round" stroke-linejoin="round" stroke-miterlimit="10" stroke-width="0.5"/>
	<path d="M 290.2,297.5 L 306.4,297.5" fill="none" stroke="#ff0000" stroke-linecap="round" stroke-linejoin="round" stroke-miterlimit="10" stroke-width="0.5"/>
	<path d="M 382.7,305.1 L 382.7,309.4" fill="none" stroke="#ff0000" stroke-linecap="round" stroke-linejoin="round" stroke-miterlimit="10" stroke-width="0.5"/>
	<path d="M 376.0,319.2 L 348.2,322.6" fill="none" stroke="#ff0000" stroke-linecap="round" stroke-linejoin="round" stroke-miterlimit="10" stroke-width="0.5"/>
	<path d="M 374.0,297.5 L 357.8,297.5" fill="none" stroke="#ff0000" stroke-linecap="round" stroke-linejoin="round" stroke-miterlimit="10" stroke-width="0.5"/>
	<path d="M 326.1,323.8 L 327.2,324.6" fill="none" stroke="#ff0000" stroke-linecap="round" stroke-linejoin="round" stroke-miterlimit="10" stroke-width="0.5"/>
	<path d="M 338.0,323.8 L 336.9,324.6" fill="none" stroke="#ff0000" stroke-linecap="round" stroke-linejoin="round" stroke-miterlimit="10" stroke-width="0.5"/>
	<path d="M 327.2,324.6 L 336.9,324.6" fill="none" stroke="#ff0000" stroke-linecap="round" stroke-linejoin="round" stroke-miterlimit="10" stroke-width="0.5"/>
	<path d="M 413.2,365.4 L 410.3,356.0" fill="none" stroke="#ff0000" stroke-linecap="round" stroke-linejoin="round" stroke-miterlimit="10" stroke-width="0.5"/>
	<path d="M 410.3,356.0 L 380.3,356.0" fill="none" stroke="#ff0000" stroke-linecap="round" stroke-linejoin="round" stroke-miterlimit="10" stroke-width="0.5"/>
	<path d="M 346.7,356.0 L 343.9,365.8" fill="none" stroke="#ff0000" stroke-linecap="round" stroke-linejoin="round" stroke-miterlimit="10" stroke-width="0.5"/>
	<path d="M 425.8,319.7 L 425.8,297.5" fill="none" stroke="#ff0000" stroke-linecap="round" stroke-linejoin="round" stroke-miterlimit="10" stroke-width="0.5"/>
	<path d="M 425.8,297.5 L 416.2,297.5" fill="none" stroke="#ff0000" stroke-linecap="round" stroke-linejoin="round" stroke-miterlimit="10" stroke-width="0.5"/>
	<path d="M 416.2,297.5 L 416.2,319.7" fill="none" stroke="#ff0000" stroke-linecap="round" stroke-linejoin="round" stroke-miterlimit="10" stroke-width="0.5"/>
	<path d="M 425.8,227.7 L 425.8,233.9" fill="none" stroke="#ff0000" stroke-linecap="round" stroke-linejoin="round" stroke-miterlimit="10" stroke-width="0.5"/>
	<path d="M 425.8,233.9 L 416.2,233.9" fill="none" stroke="#ff0000" stroke-linecap="round" stroke-linejoin="round" stroke-miterlimit="10" stroke-width="0.5"/>
	<path d="M 416.2,233.9 L 416.2,227.7" fill="none" stroke="#ff0000" stroke-linecap="round" stroke-linejoin="round" stroke-miterlimit="10" stroke-width="0.5"/>
	<path d="M 283.9,356.7 L 283.9,359.8" fill="none" stroke="#ff0000" stroke-linecap="round" stroke-linejoin="round" stroke-miterlimit="10" stroke-width="0.5"/>
	<path d="M 544.1,353.4 L 550.0,352.9" fill="none" stroke="#ff0000" stroke-linecap="round" stroke-linejoin="round" stroke-miterlimit="10" stroke-width="0.5"/>
	<path d="M 533.7,353.4 L 534.2,353.4" fill="none" stroke="#ff0000" stroke-linecap="round" stroke-linejoin="round" stroke-miterlimit="10" stroke-width="0.5"/>
	<path d="M 542.8,352.7 L 543.0,352.7" fill="none" stroke="#ff0000" stroke-linecap="round" stroke-linejoin="round" stroke-miterlimit="10" stroke-width="0.5"/>
	<path d="M 362.9,356.0 L 362.9,365.8" fill="none" stroke="#ff0000" stroke-linecap="round" stroke-linejoin="round" stroke-miterlimit="10" stroke-width="0.5"/>
	<path d="M 362.9,365.8 L 380.3,365.8" fill="none" stroke="#ff0000" stroke-linecap="round" stroke-linejoin="round" stroke-miterlimit="10" stroke-width="0.5"/>
	<path d="M 380.3,365.8 L 380.3,356.0" fill="none" stroke="#ff0000" stroke-linecap="round" stroke-linejoin="round" stroke-miterlimit="10" stroke-width="0.5"/>
	<path d="M 416.2,250.2 L 416.2,267.6" fill="none" stroke="#ff0000" stroke-linecap="round" stroke-linejoin="round" stroke-miterlimit="10" stroke-width="0.5"/>
	<path d="M 416.2,267.6 L 425.8,267.6" fill="none" stroke="#ff0000" stroke-linecap="round" stroke-linejoin="round" stroke-miterlimit="10" stroke-width="0.5"/>
	<path d="M 425.8,267.6 L 425.8,250.2" fill="none" stroke="#ff0000" stroke-linecap="round" stroke-linejoin="round" stroke-miterlimit="10" stroke-width="0.5"/>
	<path d="M 425.8,250.2 L 416.2,250.2" fill="none" stroke="#ff0000" stroke-linecap="round" stroke-linejoin="round" stroke-miterlimit="10" stroke-width="0.5"/>
	<path d="M 346.7,356.0 L 348.2,356.0" fill="none" stroke="#ff0000" stroke-linecap="round" stroke-linejoin="round" stroke-miterlimit="10" stroke-width="0.5"/>
	<path d="M 348.2,236.3 L 393.2,231.8" fill="none" stroke="#ff0000" stroke-linecap="round" stroke-linejoin="round" stroke-miterlimit="10" stroke-width="0.5"/>
	<path d="M 348.2,291.4 L 401.0,297.5" fill="none" stroke="#ff0000" stroke-linecap="round" stroke-linejoin="round" stroke-miterlimit="10" stroke-width="0.5"/>
	<path d="M 348.2,297.5 L 336.9,297.5" fill="none" stroke="#ff0000" stroke-linecap="round" stroke-linejoin="round" stroke-miterlimit="10" stroke-width="0.5"/>
	<path d="M 348.2,322.6 L 338.0,323.8" fill="none" stroke="#ff0000" stroke-linecap="round" stroke-linejoin="round" stroke-miterlimit="10" stroke-width="0.5"/>
	<path d="M 348.2,356.0 L 362.9,356.0" fill="none" stroke="#ff0000" stroke-linecap="round" stroke-linejoin="round" stroke-miterlimit="10" stroke-width="0.5"/>
	<path d="M 465.6,286.0 L 465.6,272.5" fill="none" stroke="#ff0000" stroke-linecap="round" stroke-linejoin="round" stroke-miterlimit="10" stroke-width="0.5"/>
	<path d="M 456.0,286.0 L 465.6,286.0" fill="none" stroke="#ff0000" stroke-linecap="round" stroke-linejoin="round" stroke-miterlimit="10" stroke-width="0.5"/>
	<path d="M 456.0,272.5 L 456.0,286.0" fill="none" stroke="#ff0000" stroke-linecap="round" stroke-linejoin="round" stroke-miterlimit="10" stroke-width="0.5"/>
	<path d="M 533.2,323.5 L 519.6,323.5" fill="none" stroke="#ff0000" stroke-linecap="round" stroke-linejoin="round" stroke-miterlimit="10" stroke-width="0.5"/>
	<path d="M 533.2,333.1 L 533.2,323.5" fill="none" stroke="#ff0000" stroke-linecap="round" stroke-linejoin="round" stroke-miterlimit="10" stroke-width="0.5"/>
	<path d="M 519.6,333.1 L 533.2,333.1" fill="none" stroke="#ff0000" stroke-linecap="round" stroke-linejoin="round" stroke-miterlimit="10" stroke-width="0.5"/>
</svg>
