<?xml version="1.0" encoding="utf-8"?>
<!-- Generator: Adobe Illustrator 27.5.0, SVG Export Plug-In . SVG Version: 6.00 Build 0)  -->
<svg version="1.1" id="Layer_1" xmlns="http://www.w3.org/2000/svg" xmlns:xlink="http://www.w3.org/1999/xlink" x="0px" y="0px"
	 viewBox="0 0 566.93 212.6" style="enable-background:new 0 0 566.93 212.6;" xml:space="preserve">
<style type="text/css">
	.st0{fill:#FFFFFF;stroke:#000000;stroke-miterlimit:10;}
</style>
<rect x="7.09" y="7.09" class="st0" width="42.52" height="42.52"/>
<rect x="63.78" y="7.09" class="st0" width="42.52" height="42.52"/>
<rect x="120.47" y="7.09" class="st0" width="42.52" height="42.52"/>
<rect x="177.17" y="7.09" class="st0" width="42.52" height="42.52"/>
<rect x="233.86" y="7.09" class="st0" width="42.52" height="42.52"/>
<rect x="290.55" y="7.09" class="st0" width="42.52" height="42.52"/>
<rect x="347.24" y="7.09" class="st0" width="42.52" height="42.52"/>
<rect x="403.94" y="7.09" class="st0" width="42.52" height="42.52"/>
<rect x="460.63" y="7.09" class="st0" width="42.52" height="42.52"/>
<rect x="517.32" y="7.09" class="st0" width="42.52" height="42.52"/>
<rect x="7.09" y="56.69" class="st0" width="42.52" height="42.52"/>
<rect x="63.78" y="56.69" class="st0" width="42.52" height="42.52"/>
<rect x="120.47" y="56.69" class="st0" width="42.52" height="42.52"/>
<rect x="177.17" y="56.69" class="st0" width="42.52" height="42.52"/>
<rect x="233.86" y="56.69" class="st0" width="42.52" height="42.52"/>
<rect x="290.55" y="56.69" class="st0" width="42.52" height="42.52"/>
<rect x="347.24" y="56.69" class="st0" width="42.52" height="42.52"/>
<rect x="403.94" y="56.69" class="st0" width="42.52" height="42.52"/>
<rect x="460.63" y="56.69" class="st0" width="42.52" height="42.52"/>
<rect x="517.32" y="56.69" class="st0" width="42.52" height="42.52"/>
<rect x="7.09" y="106.3" class="st0" width="42.52" height="42.52"/>
<rect x="63.78" y="106.3" class="st0" width="42.52" height="42.52"/>
<rect x="120.47" y="106.3" class="st0" width="42.52" height="42.52"/>
<rect x="177.17" y="106.3" class="st0" width="42.52" height="42.52"/>
<rect x="233.86" y="106.3" class="st0" width="42.52" height="42.52"/>
<rect x="290.55" y="106.3" class="st0" width="42.52" height="42.52"/>
<rect x="347.24" y="106.3" class="st0" width="42.52" height="42.52"/>
<rect x="403.94" y="106.3" class="st0" width="42.52" height="42.52"/>
<rect x="460.63" y="106.3" class="st0" width="42.52" height="42.52"/>
<rect x="517.32" y="106.3" class="st0" width="42.52" height="42.52"/>
<rect x="7.09" y="155.91" class="st0" width="42.52" height="42.52"/>
<rect x="63.78" y="155.91" class="st0" width="42.52" height="42.52"/>
<rect x="120.47" y="155.91" class="st0" width="42.52" height="42.52"/>
<rect x="177.17" y="155.91" class="st0" width="42.52" height="42.52"/>
<rect x="233.86" y="155.91" class="st0" width="42.52" height="42.52"/>
<rect x="290.55" y="155.91" class="st0" width="42.52" height="42.52"/>
<rect x="347.24" y="155.91" class="st0" width="42.52" height="42.52"/>
<rect x="403.94" y="155.91" class="st0" width="42.52" height="42.52"/>
<rect x="460.63" y="155.91" class="st0" width="42.52" height="42.52"/>
<rect x="517.32" y="155.91" class="st0" width="42.52" height="42.52"/>
</svg>
