<?xml version="1.0" encoding="utf-8"?>
<!-- Generator: Adobe Illustrator 24.3.0, SVG Export Plug-In . SVG Version: 6.00 Build 0)  -->
<svg version="1.1" id="Layer_1" xmlns="http://www.w3.org/2000/svg" xmlns:xlink="http://www.w3.org/1999/xlink" x="0px" y="0px"
	 viewBox="0 0 2592 1728" style="enable-background:new 0 0 2592 1728;" xml:space="preserve">
<style type="text/css">
	.st0{fill:none;stroke:#000000;stroke-width:0.25;stroke-linecap:round;stroke-linejoin:round;stroke-miterlimit:10;}
	.st1{fill:none;stroke:#FF0000;stroke-width:0.25;stroke-miterlimit:10;}
</style>
<g>
	<g id="LWPOLYLINE">
		<polygon class="st0" points="1491,641.4 1491,581.1 1095,581.1 1095,641.4 1080.8,641.4 1080.8,669.8 1080.8,698.1 1095,698.1 
			1095,740.4 1080.8,740.4 1080.8,768.8 1080.8,797.1 1095,797.1 1095,839.4 1080.8,839.4 1080.8,867.8 1080.8,896.1 1095,896.1 
			1095,966.8 1165.7,966.8 1165.7,980.9 1194,980.9 1222.3,980.9 1222.3,966.8 1264.7,966.8 1264.7,980.9 1293,980.9 1321.3,980.9 
			1321.3,966.8 1363.7,966.8 1363.7,980.9 1392,980.9 1420.3,980.9 1420.3,966.8 1491,966.8 1491,896.1 1505.2,896.1 1505.2,867.8 
			1505.2,839.4 1491,839.4 1491,797.1 1505.2,797.1 1505.2,768.8 1505.2,740.4 1491,740.4 1491,698.1 1505.2,698.1 1505.2,669.8 
			1505.2,641.4 		"/>
	</g>
	<g id="LINE">
		<line class="st0" x1="1491" y1="896.1" x2="1491" y2="966.8"/>
	</g>
	<g id="LINE_1_">
		<line class="st0" x1="1491" y1="839.4" x2="1491" y2="797.1"/>
	</g>
	<g id="LINE_2_">
		<line class="st0" x1="1491" y1="740.4" x2="1491" y2="698.1"/>
	</g>
	<g id="LINE_3_">
		<line class="st0" x1="1491" y1="641.4" x2="1491" y2="581.1"/>
	</g>
	<g id="LINE_4_">
		<line class="st0" x1="1095" y1="839.4" x2="1095" y2="797.1"/>
	</g>
	<g id="LINE_5_">
		<line class="st0" x1="1095" y1="740.4" x2="1095" y2="698.1"/>
	</g>
	<g id="LINE_6_">
		<line class="st0" x1="1363.7" y1="966.8" x2="1321.3" y2="966.8"/>
	</g>
	<g id="LINE_7_">
		<line class="st0" x1="1264.7" y1="966.8" x2="1222.3" y2="966.8"/>
	</g>
	<g id="LINE_8_">
		<line class="st0" x1="1095" y1="797.1" x2="1095" y2="839.4"/>
	</g>
	<g id="LINE_9_">
		<line class="st0" x1="1095" y1="698.1" x2="1095" y2="740.4"/>
	</g>
	<g id="LINE_10_">
		<line class="st0" x1="1222.3" y1="966.8" x2="1264.7" y2="966.8"/>
	</g>
	<g id="LINE_11_">
		<line class="st0" x1="1321.3" y1="966.8" x2="1363.7" y2="966.8"/>
	</g>
	<g id="CIRCLE">
		<path class="st0" d="M1125.3,642.8c0-3.1,2.5-5.7,5.7-5.7s5.7,2.5,5.7,5.7s-2.5,5.7-5.7,5.7S1125.3,645.9,1125.3,642.8
			L1125.3,642.8z"/>
	</g>
	<g id="CIRCLE_1_">
		<path class="st0" d="M1449.3,642.8c0-3.1,2.5-5.7,5.7-5.7s5.7,2.5,5.7,5.7s-2.5,5.7-5.7,5.7S1449.3,645.9,1449.3,642.8
			L1449.3,642.8z"/>
	</g>
	<g id="LINE_89_">
		<line class="st0" x1="659" y1="364.9" x2="729.7" y2="364.9"/>
	</g>
	<g id="LINE_88_">
		<line class="st0" x1="786.3" y1="364.9" x2="828.7" y2="364.9"/>
	</g>
	<g id="LINE_87_">
		<line class="st0" x1="885.3" y1="364.9" x2="927.7" y2="364.9"/>
	</g>
	<g id="LINE_86_">
		<line class="st0" x1="984.3" y1="364.9" x2="1055" y2="364.9"/>
	</g>
	<g id="LINE_85_">
		<line class="st0" x1="659" y1="364.9" x2="729.7" y2="364.9"/>
	</g>
	<g id="LINE_84_">
		<line class="st0" x1="786.3" y1="364.9" x2="828.7" y2="364.9"/>
	</g>
	<g id="LINE_83_">
		<line class="st0" x1="885.3" y1="364.9" x2="927.7" y2="364.9"/>
	</g>
	<g id="LINE_82_">
		<line class="st0" x1="984.3" y1="364.9" x2="1055" y2="364.9"/>
	</g>
	<g id="LINE_81_">
		<line class="st0" x1="729.7" y1="379.1" x2="729.7" y2="364.9"/>
	</g>
	<g id="LINE_80_">
		<line class="st0" x1="758" y1="379.1" x2="729.7" y2="379.1"/>
	</g>
	<g id="LINE_79_">
		<line class="st0" x1="758" y1="379.1" x2="786.3" y2="379.1"/>
	</g>
	<g id="LINE_78_">
		<line class="st0" x1="786.3" y1="379.1" x2="786.3" y2="364.9"/>
	</g>
	<g id="LINE_12_">
		<line class="st0" x1="828.7" y1="379.1" x2="828.7" y2="364.9"/>
	</g>
	<g id="LINE_13_">
		<line class="st0" x1="857" y1="379.1" x2="828.7" y2="379.1"/>
	</g>
	<g id="LINE_14_">
		<line class="st0" x1="857" y1="379.1" x2="885.3" y2="379.1"/>
	</g>
	<g id="LINE_15_">
		<line class="st0" x1="885.3" y1="379.1" x2="885.3" y2="364.9"/>
	</g>
	<g id="LINE_16_">
		<line class="st0" x1="927.7" y1="379.1" x2="927.7" y2="364.9"/>
	</g>
	<g id="LINE_17_">
		<line class="st0" x1="956" y1="379.1" x2="927.7" y2="379.1"/>
	</g>
	<g id="LINE_18_">
		<line class="st0" x1="956" y1="379.1" x2="984.3" y2="379.1"/>
	</g>
	<g id="LINE_19_">
		<line class="st0" x1="984.3" y1="379.1" x2="984.3" y2="364.9"/>
	</g>
	<g id="LINE_20_">
		<line class="st0" x1="786.3" y1="652.7" x2="786.3" y2="652.9"/>
	</g>
	<g id="LINE_21_">
		<line class="st0" x1="828.7" y1="652.7" x2="828.7" y2="652.9"/>
	</g>
	<g id="LINE_22_">
		<line class="st0" x1="659" y1="652.9" x2="659" y2="595.1"/>
	</g>
	<g id="LINE_23_">
		<line class="st0" x1="659" y1="566.7" x2="659" y2="523.1"/>
	</g>
	<g id="LINE_24_">
		<line class="st0" x1="659" y1="494.7" x2="659" y2="451.1"/>
	</g>
	<g id="LINE_25_">
		<line class="st0" x1="659" y1="422.7" x2="659" y2="364.9"/>
	</g>
	<g id="LINE_27_">
		<line class="st0" x1="644.8" y1="580.9" x2="644.8" y2="566.7"/>
	</g>
	<g id="LINE_28_">
		<line class="st0" x1="644.8" y1="580.9" x2="644.8" y2="595.1"/>
	</g>
	<g id="LINE_29_">
		<line class="st0" x1="644.8" y1="508.9" x2="644.8" y2="523.1"/>
	</g>
	<g id="LINE_30_">
		<line class="st0" x1="644.8" y1="508.9" x2="644.8" y2="494.7"/>
	</g>
	<g id="LINE_31_">
		<line class="st0" x1="644.8" y1="436.9" x2="644.8" y2="451.1"/>
	</g>
	<g id="LINE_32_">
		<line class="st0" x1="644.8" y1="436.9" x2="644.8" y2="422.7"/>
	</g>
	<g id="LINE_33_">
		<line class="st0" x1="644.8" y1="451.1" x2="659" y2="451.1"/>
	</g>
	<g id="LINE_34_">
		<line class="st0" x1="644.8" y1="422.7" x2="659" y2="422.7"/>
	</g>
	<g id="LINE_35_">
		<line class="st0" x1="644.8" y1="523.1" x2="659" y2="523.1"/>
	</g>
	<g id="LINE_36_">
		<line class="st0" x1="644.8" y1="494.7" x2="659" y2="494.7"/>
	</g>
	<g id="LINE_37_">
		<line class="st0" x1="644.8" y1="595.1" x2="659" y2="595.1"/>
	</g>
	<g id="LINE_38_">
		<line class="st0" x1="644.8" y1="566.7" x2="659" y2="566.7"/>
	</g>
	<g id="LINE_39_">
		<line class="st0" x1="659" y1="652.9" x2="659" y2="595.1"/>
	</g>
	<g id="LINE_40_">
		<line class="st0" x1="659" y1="566.7" x2="659" y2="523.1"/>
	</g>
	<g id="LINE_41_">
		<line class="st0" x1="659" y1="494.7" x2="659" y2="451.1"/>
	</g>
	<g id="LINE_42_">
		<line class="st0" x1="659" y1="422.7" x2="659" y2="364.9"/>
	</g>
	<g id="LINE_43_">
		<line class="st0" x1="1069.2" y1="523.1" x2="1055" y2="523.1"/>
	</g>
	<g id="LINE_44_">
		<line class="st0" x1="1069.2" y1="566.7" x2="1055" y2="566.7"/>
	</g>
	<g id="LINE_45_">
		<line class="st0" x1="1069.2" y1="494.7" x2="1055" y2="494.7"/>
	</g>
	<g id="LINE_46_">
		<line class="st0" x1="1069.2" y1="508.9" x2="1069.2" y2="494.7"/>
	</g>
	<g id="LINE_47_">
		<line class="st0" x1="1069.2" y1="595.1" x2="1055" y2="595.1"/>
	</g>
	<g id="LINE_48_">
		<line class="st0" x1="1055" y1="566.7" x2="1055" y2="523.1"/>
	</g>
	<g id="LINE_49_">
		<line class="st0" x1="1069.2" y1="422.7" x2="1055" y2="422.7"/>
	</g>
	<g id="LINE_50_">
		<line class="st0" x1="1069.2" y1="451.1" x2="1055" y2="451.1"/>
	</g>
	<g id="LINE_51_">
		<line class="st0" x1="1069.2" y1="436.9" x2="1069.2" y2="422.7"/>
	</g>
	<g id="LINE_52_">
		<line class="st0" x1="1055" y1="494.7" x2="1055" y2="451.1"/>
	</g>
	<g id="LINE_53_">
		<line class="st0" x1="1069.2" y1="436.9" x2="1069.2" y2="451.1"/>
	</g>
	<g id="LINE_54_">
		<line class="st0" x1="1069.2" y1="580.9" x2="1069.2" y2="595.1"/>
	</g>
	<g id="LINE_55_">
		<line class="st0" x1="1069.2" y1="508.9" x2="1069.2" y2="523.1"/>
	</g>
	<g id="LINE_56_">
		<line class="st0" x1="1055" y1="566.7" x2="1055" y2="523.1"/>
	</g>
	<g id="LINE_57_">
		<line class="st0" x1="1055" y1="494.7" x2="1055" y2="451.1"/>
	</g>
	<g id="LINE_58_">
		<line class="st0" x1="1069.2" y1="580.9" x2="1069.2" y2="566.7"/>
	</g>
	<g id="LINE_59_">
		<line class="st0" x1="1055" y1="422.7" x2="1055" y2="364.9"/>
	</g>
	<g id="LINE_60_">
		<line class="st0" x1="1055" y1="494.7" x2="1055" y2="451.1"/>
	</g>
	<g id="LINE_61_">
		<line class="st0" x1="1055" y1="652.9" x2="1055" y2="595.1"/>
	</g>
	<g id="LINE_62_">
		<line class="st0" x1="1055" y1="566.7" x2="1055" y2="523.1"/>
	</g>
	<g id="LINE_63_">
		<line class="st0" x1="1055" y1="652.9" x2="1055" y2="667.1"/>
	</g>
	<g id="LINE_64_">
		<line class="st0" x1="659" y1="652.9" x2="659" y2="667.1"/>
	</g>
	<g id="LINE_65_">
		<line class="st0" x1="984.3" y1="652.9" x2="984.3" y2="667.1"/>
	</g>
	<g id="LINE_66_">
		<line class="st0" x1="927.7" y1="652.9" x2="927.7" y2="667.1"/>
	</g>
	<g id="LINE_67_">
		<line class="st0" x1="885.3" y1="652.9" x2="885.3" y2="667.1"/>
	</g>
	<g id="LINE_68_">
		<line class="st0" x1="828.7" y1="652.7" x2="828.7" y2="667.1"/>
	</g>
	<g id="LINE_69_">
		<line class="st0" x1="786.3" y1="652.7" x2="786.3" y2="667.1"/>
	</g>
	<g id="LINE_70_">
		<line class="st0" x1="729.7" y1="652.9" x2="729.7" y2="667.1"/>
	</g>
	<g id="LINE_71_">
		<line class="st0" x1="729.7" y1="652.9" x2="786.3" y2="652.7"/>
	</g>
	<g id="LINE_72_">
		<line class="st0" x1="828.7" y1="652.7" x2="885.3" y2="652.9"/>
	</g>
	<g id="LINE_73_">
		<line class="st0" x1="927.7" y1="652.9" x2="984.3" y2="652.9"/>
	</g>
	<g id="LINE_74_">
		<line class="st0" x1="984.3" y1="667.1" x2="1055" y2="667.1"/>
	</g>
	<g id="LINE_75_">
		<line class="st0" x1="885.3" y1="667.1" x2="927.7" y2="667.1"/>
	</g>
	<g id="LINE_76_">
		<line class="st0" x1="659" y1="667.1" x2="729.7" y2="667.1"/>
	</g>
	<g id="LINE_77_">
		<line class="st0" x1="786.3" y1="667.1" x2="828.7" y2="667.1"/>
	</g>
	<g>
		<g id="LWPOLYLINE_1_">
			<polygon class="st0" points="1808.7,581.1 1535.1,776.6 1535.1,848.4 1520.9,848.4 1520.9,905.1 1535.1,905.1 1535.1,980.9 
				1592.9,980.9 1592.9,966.8 1607.1,966.8 1621.3,966.8 1621.3,980.9 1664.9,980.9 1664.9,966.8 1679.1,966.8 1693.3,966.8 
				1693.3,980.9 1736.9,980.9 1736.9,966.8 1751.1,966.8 1765.3,966.8 1765.3,980.9 1823.1,980.9 1823.1,966.8 1823.1,896.1 
				1808.9,896.1 1808.9,867.8 1808.9,839.4 1823.1,839.4 1823.1,797.1 1808.9,797.1 1808.9,768.8 1808.9,740.4 1823.1,740.4 
				1823.1,698.1 1808.9,698.1 1808.9,669.8 1808.9,641.4 1823.1,641.4 1823.1,581.1 			"/>
		</g>
		<g id="LINE_139_">
			<line class="st0" x1="1823.1" y1="896.1" x2="1823.1" y2="966.8"/>
		</g>
		<g id="LINE_138_">
			<line class="st0" x1="1823.1" y1="797.1" x2="1823.1" y2="839.4"/>
		</g>
		<g id="LINE_137_">
			<line class="st0" x1="1823.1" y1="581.1" x2="1823.1" y2="641.4"/>
		</g>
		<g id="LINE_136_">
			<line class="st0" x1="1823.1" y1="698.1" x2="1823.1" y2="740.4"/>
		</g>
		<g id="LINE_135_">
			<line class="st0" x1="1823.1" y1="980.9" x2="1765.3" y2="980.9"/>
		</g>
		<g id="LINE_134_">
			<line class="st0" x1="1736.9" y1="980.9" x2="1693.3" y2="980.9"/>
		</g>
		<g id="LINE_133_">
			<line class="st0" x1="1664.9" y1="980.9" x2="1621.3" y2="980.9"/>
		</g>
		<g id="LINE_132_">
			<line class="st0" x1="1535.1" y1="980.9" x2="1592.9" y2="980.9"/>
		</g>
	</g>
	<g>
		<g id="LWPOLYLINE_2_">
			<polygon class="st0" points="1542.3,760.9 1815.9,565.4 1815.9,493.6 1830.1,493.6 1830.1,436.9 1815.9,436.9 1815.9,361.1 
				1758.1,361.1 1758.1,375.2 1743.9,375.2 1729.7,375.2 1729.7,361.1 1686.1,361.1 1686.1,375.2 1671.9,375.2 1657.7,375.2 
				1657.7,361.1 1614.1,361.1 1614.1,375.2 1599.9,375.2 1585.7,375.2 1585.7,361.1 1527.9,361.1 1527.9,375.2 1527.9,445.9 
				1542.1,445.9 1542.1,474.2 1542.1,502.6 1527.9,502.6 1527.9,544.9 1542.1,544.9 1542.1,573.2 1542.1,601.6 1527.9,601.6 
				1527.9,643.9 1542.1,643.9 1542.1,672.2 1542.1,700.6 1527.9,700.6 1527.9,760.9 			"/>
		</g>
		<g id="LINE_147_">
			<line class="st0" x1="1527.9" y1="445.9" x2="1527.9" y2="375.2"/>
		</g>
		<g id="LINE_146_">
			<line class="st0" x1="1527.9" y1="544.9" x2="1527.9" y2="502.6"/>
		</g>
		<g id="LINE_145_">
			<line class="st0" x1="1527.9" y1="760.9" x2="1527.9" y2="700.6"/>
		</g>
		<g id="LINE_144_">
			<line class="st0" x1="1527.9" y1="643.9" x2="1527.9" y2="601.6"/>
		</g>
		<g id="LINE_143_">
			<line class="st0" x1="1527.9" y1="361.1" x2="1585.7" y2="361.1"/>
		</g>
		<g id="LINE_142_">
			<line class="st0" x1="1614.1" y1="361.1" x2="1657.7" y2="361.1"/>
		</g>
		<g id="LINE_141_">
			<line class="st0" x1="1686.1" y1="361.1" x2="1729.7" y2="361.1"/>
		</g>
		<g id="LINE_140_">
			<line class="st0" x1="1815.9" y1="361.1" x2="1758.1" y2="361.1"/>
		</g>
	</g>
	<g>
		<g id="LINE_131_">
			<line class="st0" x1="1098" y1="553.4" x2="1168.7" y2="553.4"/>
		</g>
		<g id="LINE_130_">
			<line class="st0" x1="1225.3" y1="553.4" x2="1267.7" y2="553.4"/>
		</g>
		<g id="LINE_129_">
			<line class="st0" x1="1324.3" y1="553.4" x2="1366.7" y2="553.4"/>
		</g>
		<g id="LINE_128_">
			<line class="st0" x1="1423.3" y1="553.4" x2="1494" y2="553.4"/>
		</g>
		<g id="LINE_127_">
			<line class="st0" x1="1197" y1="567.6" x2="1225.3" y2="567.6"/>
		</g>
		<g id="LINE_126_">
			<line class="st0" x1="1197" y1="567.6" x2="1168.7" y2="567.6"/>
		</g>
		<g id="LINE_125_">
			<line class="st0" x1="1296" y1="567.6" x2="1324.3" y2="567.6"/>
		</g>
		<g id="LINE_124_">
			<line class="st0" x1="1296" y1="567.6" x2="1267.7" y2="567.6"/>
		</g>
		<g id="LINE_123_">
			<line class="st0" x1="1395" y1="567.6" x2="1423.3" y2="567.6"/>
		</g>
		<g id="LINE_122_">
			<line class="st0" x1="1395" y1="567.6" x2="1366.7" y2="567.6"/>
		</g>
		<g id="LINE_121_">
			<line class="st0" x1="1366.7" y1="567.6" x2="1366.7" y2="553.4"/>
		</g>
		<g id="LINE_120_">
			<line class="st0" x1="1423.3" y1="567.6" x2="1423.3" y2="553.4"/>
		</g>
		<g id="LINE_119_">
			<line class="st0" x1="1324.3" y1="567.6" x2="1324.3" y2="553.4"/>
		</g>
		<g id="LINE_118_">
			<line class="st0" x1="1267.7" y1="567.6" x2="1267.7" y2="553.4"/>
		</g>
		<g id="LINE_117_">
			<line class="st0" x1="1225.3" y1="567.6" x2="1225.3" y2="553.4"/>
		</g>
		<g id="LINE_116_">
			<line class="st0" x1="1168.7" y1="567.6" x2="1168.7" y2="565.2"/>
		</g>
		<g id="LINE_115_">
			<line class="st0" x1="1168.7" y1="565.2" x2="1168.7" y2="553.4"/>
		</g>
		<g id="LINE_114_">
			<line class="st0" x1="1098" y1="553.4" x2="1168.7" y2="553.4"/>
		</g>
		<g id="LINE_113_">
			<line class="st0" x1="1225.3" y1="553.4" x2="1267.7" y2="553.4"/>
		</g>
		<g id="LINE_112_">
			<line class="st0" x1="1324.3" y1="553.4" x2="1366.7" y2="553.4"/>
		</g>
		<g id="LINE_111_">
			<line class="st0" x1="1423.3" y1="553.4" x2="1494" y2="553.4"/>
		</g>
		<g id="LINE_110_">
			<line class="st0" x1="1494" y1="477.6" x2="1494" y2="435.1"/>
		</g>
		<g id="LINE_109_">
			<line class="st0" x1="1508.2" y1="363.3" x2="1508.2" y2="420.9"/>
		</g>
		<g id="LINE_108_">
			<line class="st0" x1="1508.2" y1="491.8" x2="1508.2" y2="553.4"/>
		</g>
		<g id="LINE_107_">
			<line class="st0" x1="1098" y1="435.1" x2="1098" y2="477.6"/>
		</g>
		<g id="LINE_106_">
			<line class="st0" x1="1083.8" y1="363.3" x2="1083.8" y2="420.9"/>
		</g>
		<g id="LINE_105_">
			<line class="st0" x1="1083.8" y1="491.8" x2="1083.8" y2="553.4"/>
		</g>
		<g id="LINE_104_">
			<line class="st0" x1="1098" y1="477.6" x2="1098" y2="491.8"/>
		</g>
		<g id="LINE_103_">
			<line class="st0" x1="1098" y1="491.8" x2="1083.8" y2="491.8"/>
		</g>
		<g id="LINE_102_">
			<line class="st0" x1="1083.8" y1="420.9" x2="1083.8" y2="435.1"/>
		</g>
		<g id="LINE_101_">
			<line class="st0" x1="1083.8" y1="435.1" x2="1098" y2="435.1"/>
		</g>
		<g id="LINE_100_">
			<line class="st0" x1="1508.2" y1="420.9" x2="1508.2" y2="435.1"/>
		</g>
		<g id="LINE_99_">
			<line class="st0" x1="1508.2" y1="435.1" x2="1494" y2="435.1"/>
		</g>
		<g id="LINE_98_">
			<line class="st0" x1="1494" y1="477.6" x2="1494" y2="491.8"/>
		</g>
		<g id="LINE_97_">
			<line class="st0" x1="1494" y1="491.8" x2="1508.2" y2="491.8"/>
		</g>
		<g id="LINE_96_">
			<line class="st0" x1="1098" y1="553.4" x2="1098" y2="567.6"/>
		</g>
		<g id="LINE_95_">
			<line class="st0" x1="1098" y1="567.6" x2="1083.8" y2="567.6"/>
		</g>
		<g id="LINE_94_">
			<line class="st0" x1="1083.8" y1="567.6" x2="1083.8" y2="553.4"/>
		</g>
		<g id="LINE_93_">
			<line class="st0" x1="1508.2" y1="553.4" x2="1508.2" y2="567.6"/>
		</g>
		<g id="LINE_92_">
			<line class="st0" x1="1508.2" y1="567.6" x2="1494" y2="567.6"/>
		</g>
		<g id="LINE_91_">
			<line class="st0" x1="1494" y1="567.6" x2="1494" y2="553.4"/>
		</g>
		<g id="LINE_90_">
			<line class="st0" x1="1083.8" y1="363.3" x2="1508.2" y2="363.3"/>
		</g>
		<g>
			<path class="st1" d="M1224.2,466.2c0.5,0.5,0.8,1.2,0.8,2v17.9c0,0.8-0.3,1.5-0.8,2c-4.5,4.1-10.3,6.2-17.6,6.2
				c-5.1,0-9.8-1.3-14-3.9s-7.7-6.1-10.2-10.5c-2.5-4.4-3.8-9.2-3.8-14.5c0-5.2,1.2-10,3.7-14.4c2.5-4.4,5.9-7.9,10.2-10.5
				c4.3-2.6,9-3.9,14.1-3.9c3.5,0,6.6,0.5,9.4,1.5c2.8,1,5.6,2.6,8.2,4.8c0.5,0.4,0.8,0.9,0.8,1.7c0,0.4-0.1,0.7-0.3,1
				c-0.2,0.3-0.5,0.5-0.8,0.7c-0.1,0.3-0.3,0.6-0.6,0.8c-0.3,0.2-0.7,0.3-1.1,0.3c-0.7,0-1.3-0.2-1.8-0.7c-1.9-1.7-3.9-2.9-6.1-3.7
				c-2.2-0.8-4.8-1.2-7.7-1.2c-4,0-7.8,1.1-11.2,3.2c-3.5,2.1-6.2,5-8.2,8.6c-2,3.6-3.1,7.5-3.1,11.7c0,4.3,1,8.2,3,11.8
				c2,3.6,4.8,6.5,8.2,8.6c3.5,2.1,7.2,3.2,11.3,3.2c4.7,0,9-1.4,13-4.1v-14.4h-11.2c-0.8,0-1.5-0.2-2-0.7c-0.5-0.5-0.8-1.1-0.8-1.8
				c0-0.7,0.3-1.3,0.8-1.8c0.5-0.5,1.2-0.7,2-0.7h13.9C1223,465.5,1223.7,465.7,1224.2,466.2z"/>
			<path class="st1" d="M1237.4,490.1c-1.8-2.3-2.8-5.3-2.8-9v-41c0-0.8,0.3-1.5,0.8-2c0.5-0.5,1.2-0.8,1.9-0.8c0.8,0,1.5,0.3,2,0.8
				s0.8,1.2,0.8,2v41c0,2.1,0.4,3.7,1.3,5c0.8,1.3,1.9,1.9,3.2,1.9h1.8c0.7,0,1.3,0.3,1.7,0.8c0.4,0.5,0.6,1.2,0.6,2
				c0,0.8-0.3,1.5-0.9,2c-0.6,0.5-1.4,0.8-2.3,0.8h-0.9C1241.6,493.6,1239.2,492.4,1237.4,490.1z"/>
			<path class="st1" d="M1262.7,491.3c-3-1.7-5.4-4.1-7.2-7.2c-1.7-3-2.6-6.5-2.6-10.3c0-3.8,0.9-7.2,2.6-10.3
				c1.7-3.1,4.1-5.5,7.2-7.2c3-1.7,6.5-2.6,10.3-2.6c3.8,0,7.2,0.9,10.2,2.6c3,1.7,5.4,4.1,7.2,7.2c1.8,3.1,2.6,6.5,2.6,10.3
				c0,3.8-0.9,7.2-2.6,10.3c-1.7,3-4.1,5.4-7.2,7.2c-3,1.7-6.5,2.6-10.3,2.6C1269.2,493.9,1265.8,493.1,1262.7,491.3z M1280.5,486.9
				c2.2-1.3,3.9-3.1,5.2-5.4c1.2-2.3,1.9-4.8,1.9-7.7c0-2.9-0.6-5.5-1.9-7.7c-1.2-2.3-3-4.1-5.2-5.4c-2.2-1.3-4.7-1.9-7.5-1.9
				c-2.7,0-5.2,0.6-7.5,1.9c-2.2,1.3-4,3.1-5.3,5.4c-1.3,2.3-1.9,4.9-1.9,7.7c0,2.8,0.6,5.4,1.9,7.7c1.3,2.3,3,4.1,5.3,5.4
				s4.7,1.9,7.5,1.9C1275.8,488.9,1278.3,488.2,1280.5,486.9z"/>
			<path class="st1" d="M1334.3,456.7c0,0.3-0.1,0.6-0.2,1l-15.8,34c-0.6,1.2-1.5,1.9-2.7,1.9c-1.2,0-2-0.6-2.6-1.9l-16-33.9
				c-0.1-0.3-0.2-0.6-0.2-1c0-1,0.5-1.8,1.6-2.3c0.3-0.2,0.7-0.3,1.2-0.3c0.5,0,0.9,0.1,1.3,0.4c0.4,0.2,0.7,0.6,0.9,1.1l13.8,30
				l13.7-30c0.2-0.5,0.5-0.9,0.9-1.1c0.4-0.3,0.9-0.4,1.4-0.4c0.4,0,0.8,0.1,1.2,0.3C1333.8,454.9,1334.3,455.6,1334.3,456.7z"/>
			<path class="st1" d="M1366.2,456.3c2.7,1.7,4.9,3.9,6.4,6.9c1.5,2.9,2.3,6.3,2.3,10c0,0.8-0.2,1.4-0.7,1.8
				c-0.5,0.5-1.1,0.7-1.9,0.7h-29.1c0.4,3.9,1.9,7.1,4.6,9.6c2.7,2.4,6,3.7,10.1,3.7c1.7,0,3.5-0.3,5.2-0.9c1.8-0.6,3.2-1.4,4.2-2.3
				c0.6-0.5,1.3-0.7,1.9-0.7c0.5,0,1.1,0.2,1.6,0.6c0.6,0.6,0.9,1.2,0.9,1.9c0,0.6-0.3,1.2-0.8,1.7c-1.6,1.3-3.6,2.5-6,3.3
				c-2.4,0.9-4.8,1.3-7.1,1.3c-3.8,0-7.3-0.9-10.3-2.6c-3-1.7-5.4-4.1-7.1-7.1c-1.7-3-2.6-6.5-2.6-10.3c0-3.9,0.8-7.4,2.4-10.4
				c1.6-3,3.8-5.4,6.7-7.1c2.9-1.7,6.1-2.6,9.8-2.6C1360.4,453.8,1363.5,454.6,1366.2,456.3z M1347.7,462.2
				c-2.4,2.3-3.9,5.2-4.4,8.9h26.4c-0.4-3.7-1.7-6.7-4-8.9c-2.3-2.3-5.3-3.4-8.9-3.4C1353.2,458.8,1350.1,459.9,1347.7,462.2z"/>
			<path class="st1" d="M1389.4,492.4c-2.7-1-4.9-2.4-6.6-4.2c-0.5-0.6-0.7-1.1-0.7-1.7c0-0.8,0.4-1.5,1.2-2.2
				c0.6-0.4,1.2-0.6,1.8-0.6c0.8,0,1.5,0.3,2.1,1c1.2,1.3,2.7,2.4,4.6,3.1c1.9,0.7,4,1.1,6.3,1.1c3.4,0,5.9-0.6,7.6-1.7
				c1.7-1.2,2.5-2.7,2.6-4.5c0-1.7-0.8-3.2-2.5-4.3c-1.7-1.2-4.3-2-8-2.6c-4.7-0.8-8.2-2.1-10.5-4c-2.3-1.9-3.5-4.2-3.5-6.9
				c0-3.5,1.4-6.2,4.1-8.1c2.7-1.9,6.1-2.9,10.2-2.9c3.2,0,5.9,0.5,8.3,1.6c2.4,1.1,4.2,2.6,5.7,4.5c0.4,0.6,0.6,1.2,0.6,1.7
				c0,0.8-0.4,1.5-1.2,1.9c-0.3,0.2-0.8,0.4-1.4,0.4c-1,0-1.8-0.4-2.5-1.1c-2.4-2.7-5.6-4-9.6-4c-2.6,0-4.8,0.5-6.3,1.6
				c-1.6,1.1-2.4,2.4-2.4,4.1c0,1.7,0.7,3.1,2.2,4.1c1.5,1,4.1,1.9,7.9,2.5c5.1,0.9,8.8,2.3,11,4.2c2.2,1.9,3.3,4.4,3.3,7.2
				c0,2.2-0.7,4.2-2,5.9c-1.3,1.7-3.2,3.1-5.5,4c-2.4,1-5,1.4-8,1.4C1395,493.9,1392.2,493.4,1389.4,492.4z"/>
		</g>
	</g>
</g>
</svg>
