<?xml version="1.0" encoding="utf-8"?>
<!-- Generator: Adobe Illustrator 24.2.3, SVG Export Plug-In . SVG Version: 6.00 Build 0)  -->
<svg version="1.1"
	 id="svg4" xmlns:cc="http://creativecommons.org/ns#" xmlns:dc="http://purl.org/dc/elements/1.1/" xmlns:rdf="http://www.w3.org/1999/02/22-rdf-syntax-ns#" xmlns:svg="http://www.w3.org/2000/svg"
	 xmlns="http://www.w3.org/2000/svg" xmlns:xlink="http://www.w3.org/1999/xlink" x="0px" y="0px" viewBox="0 0 595.3 841.9"
	 style="enable-background:new 0 0 595.3 841.9;" xml:space="preserve">
<style type="text/css">
	.st0{fill-rule:evenodd;clip-rule:evenodd;fill:#FFFFFF;stroke:#FF0000;stroke-width:0.216;}
</style>
<path class="st0" d="M-19-85H6.1c3.1,0,5.7,2.6,5.7,5.7V-68c0,3.1-2.6,5.7-5.7,5.7H0.6v-11.3h-13.8v11.3H-19c-3.1,0-5.7-2.6-5.7-5.7
	v-11.3C-24.6-82.4-22.1-85-19-85z"/>
<path class="st0" d="M-19-57H6.1c3.1,0,5.7,2.6,5.7,5.7V-40c0,3.1-2.6,5.7-5.7,5.7H0.6v-11.3h-13.8v11.3H-19c-3.1,0-5.7-2.6-5.7-5.7
	v-11.3C-24.6-54.4-22.1-57-19-57z"/>
<polygon class="st0" points="-79.5,-162.8 -64,-162.8 -64,-174.1 -62.5,-174.1 -62.5,-185.5 -64,-185.5 -64,-185.6 -64,-189.7 
	-61,-191.5 -49.6,-191.5 -47,-189.5 -47,-185.6 -47,-185.5 -48.8,-185.5 -48.8,-174.1 -47,-174.1 -47,-162.8 -31.5,-162.8 
	-31.5,-64.8 -47,-64.8 -47,-53.5 -48.5,-53.5 -48.5,-42.1 -47,-42.1 -47,-42 -47,-37.9 -50,-36 -61.4,-36 -64,-38.1 -64,-42 
	-64,-42.1 -62.3,-42.1 -62.3,-53.5 -64,-53.5 -64,-64.8 -79.5,-64.8 "/>
<path class="st0" d="M-159,127h25.1c3.1,0,5.7,2.6,5.7,5.7V144c0,3.1-2.6,5.7-5.7,5.7h-5.5v-11.3h-13.8v11.3h-5.8
	c-3.1,0-5.7-2.6-5.7-5.7v-11.3C-164.6,129.6-162.1,127-159,127L-159,127z"/>
<path class="st0" d="M-159,155h25.1c3.1,0,5.7,2.6,5.7,5.7V172c0,3.1-2.6,5.7-5.7,5.7h-5.5v-11.3h-13.8v11.3h-5.8
	c-3.1,0-5.7-2.6-5.7-5.7v-11.3C-164.6,157.6-162.1,155-159,155L-159,155z"/>
<polygon class="st0" points="-219.5,49.2 -204,49.2 -204,37.9 -202.5,37.9 -202.5,26.5 -204,26.5 -204,26.4 -204,22.3 -201,20.5 
	-189.6,20.5 -187,22.5 -187,26.4 -187,26.5 -188.8,26.5 -188.8,37.9 -187,37.9 -187,49.2 -171.5,49.2 -171.5,147.2 -187,147.2 
	-187,158.5 -188.5,158.5 -188.5,169.9 -187,169.9 -187,170 -187,174.1 -190,176 -201.4,176 -204,173.9 -204,170 -204,169.9 
	-202.3,169.9 -202.3,158.5 -204,158.5 -204,147.2 -219.5,147.2 "/>
<path class="st0" d="M-315,71h25.1c3.1,0,5.7,2.6,5.7,5.7V88c0,3.1-2.6,5.7-5.7,5.7h-5.5V82.4h-13.8v11.3h-5.8
	c-3.1,0-5.7-2.6-5.7-5.7V76.7C-320.6,73.6-318.1,71-315,71z"/>
<path class="st0" d="M-315,99h25.1c3.1,0,5.7,2.6,5.7,5.7V116c0,3.1-2.6,5.7-5.7,5.7h-5.5v-11.3h-13.8v11.3h-5.8
	c-3.1,0-5.7-2.6-5.7-5.7v-11.3C-320.6,101.6-318.1,99-315,99z"/>
<polygon class="st0" points="-375.5,-6.8 -360,-6.8 -360,-18.1 -358.5,-18.1 -358.5,-29.5 -360,-29.5 -360,-29.6 -360,-33.7 
	-357,-35.5 -345.6,-35.5 -343,-33.5 -343,-29.6 -343,-29.5 -344.8,-29.5 -344.8,-18.1 -343,-18.1 -343,-6.8 -327.5,-6.8 
	-327.5,91.2 -343,91.2 -343,102.5 -344.5,102.5 -344.5,113.9 -343,113.9 -343,114 -343,118.1 -346,120 -357.4,120 -360,117.9 
	-360,114 -360,113.9 -358.3,113.9 -358.3,102.5 -360,102.5 -360,91.2 -375.5,91.2 "/>
<path class="st0" d="M-193.8-87.5h25.1c3.1,0,5.7,2.6,5.7,5.7v11.3c0,3.1-2.6,5.7-5.7,5.7h-5.5v-11.3h-13.8v11.3h-5.8
	c-3.1,0-5.7-2.6-5.7-5.7v-11.3C-199.5-84.9-197-87.5-193.8-87.5z"/>
<path class="st0" d="M-193.8-59.5h25.1c3.1,0,5.7,2.6,5.7,5.7v11.3c0,3.1-2.6,5.7-5.7,5.7h-5.5v-11.3h-13.8v11.3h-5.8
	c-3.1,0-5.7-2.6-5.7-5.7v-11.3C-199.5-56.9-197-59.5-193.8-59.5z"/>
<polygon class="st0" points="-254.4,-165.3 -238.9,-165.3 -238.9,-176.6 -237.4,-176.6 -237.4,-188 -238.9,-188 -238.9,-188.1 
	-238.9,-192.2 -235.9,-194 -224.5,-194 -221.9,-192 -221.9,-188.1 -221.9,-188 -223.6,-188 -223.6,-176.6 -221.9,-176.6 
	-221.9,-165.3 -206.4,-165.3 -206.4,-67.3 -221.9,-67.3 -221.9,-55.9 -223.4,-55.9 -223.4,-44.6 -221.9,-44.6 -221.9,-44.5 
	-221.9,-40.3 -224.9,-38.5 -236.3,-38.5 -238.9,-40.6 -238.9,-44.5 -238.9,-44.6 -237.1,-44.6 -237.1,-55.9 -238.9,-55.9 
	-238.9,-67.3 -254.4,-67.3 "/>
<rect x="-528.8" y="-1149.9" transform="matrix(0.9963 -8.650077e-02 8.650077e-02 0.9963 97.0268 -49.2942)" class="st0" width="17" height="11.3"/>
<rect x="-618.1" y="-1287.6" transform="matrix(0.4411 -0.8974 0.8974 0.4411 809.7658 -1263.5146)" class="st0" width="17" height="11.3"/>
<rect x="-840.6" y="-1295" transform="matrix(0.911 -0.4125 0.4125 0.911 456.3497 -458.9724)" class="st0" width="11.3" height="17"/>
<rect x="-560.8" y="-940.7" transform="matrix(0.4532 -0.8914 0.8914 0.4532 527.4119 -1004.6266)" class="st0" width="11.3" height="17"/>
<path class="st0" d="M-707.2-853.4c-9.4-23.9,31.8-72.7,48.9-85c23-16.5,39.7-38,51.2-66.1c32.5-79.7,0.3-168.1-79.4-200.6
	c-38.6-15.8-87.8-17.9-123.8-3.8c-64.5,25.4-115.5,4.9-120.9-37.8c40.3-79.7,115.4-132.3,171.4-147.3
	c62.3-16.2,133.2-7.4,189.9,14.1c139.6,52.8,201.6,224.6,152.5,354.3c-49.1,129.8-166.9,188.8-288.8,172.3L-707.2-853.4z"/>
<path class="st0" d="M-331.5-130h25.1c3.1,0,5.7,2.6,5.7,5.7v11.3c0,3.1-2.6,5.7-5.7,5.7h-5.5v-11.3h-13.8v11.3h-5.8
	c-3.1,0-5.7-2.6-5.7-5.7v-11.3C-337.1-127.4-334.6-130-331.5-130z"/>
<path class="st0" d="M-331.5-102h25.1c3.1,0,5.7,2.6,5.7,5.7V-85c0,3.1-2.6,5.7-5.7,5.7h-5.5v-11.3h-13.8v11.3h-5.8
	c-3.1,0-5.7-2.6-5.7-5.7v-11.3C-337.1-99.4-334.6-102-331.5-102z"/>
<polygon class="st0" points="-392,-207.8 -376.5,-207.8 -376.5,-219.1 -375,-219.1 -375,-230.5 -376.5,-230.5 -376.5,-230.6 
	-376.5,-234.7 -373.5,-236.5 -362.1,-236.5 -359.5,-234.5 -359.5,-230.6 -359.5,-230.5 -361.3,-230.5 -361.3,-219.1 -359.5,-219.1 
	-359.5,-207.8 -344,-207.8 -344,-109.8 -359.5,-109.8 -359.5,-98.5 -361,-98.5 -361,-87.1 -359.5,-87.1 -359.5,-87 -359.5,-82.9 
	-362.5,-81 -373.9,-81 -376.5,-83.1 -376.5,-87 -376.5,-87.1 -374.8,-87.1 -374.8,-98.5 -376.5,-98.5 -376.5,-109.8 -392,-109.8 "/>
<path class="st0" d="M-775.3-1070.8l37.7-19.6l5.2,10c15-6.6,30.3-11.8,45.7-15.8v0l-0.4,0.1l7.6,31.5c-0.4,0.1-0.8,0.2-1.3,0.3
	c16.5,21.8-4.7,77.4-17.2,96.2c-15.6,23.6-25,51.7-25.8,82c-2.2,86.1,65.7,157.7,151.8,159.9c41.7,1.1,80-14.3,108.7-40.3
	c51.4-46.5,107.7-39.8,127.8-1.7c-9.6,88.8-61.9,171.3-147.1,215.6c-22.1,11.5-45,19.7-68.3,24.8l7.3,30.6
	c-16.4,3.6-32.9,5.8-49.4,6.7l-0.2,11.2l-42.5-0.7l0.2-11.2c-32.5-2.8-64.3-10.7-94.2-23.4l-5.1,10l-37.9-19.3l5.1-10
	c-27.6-16.5-52.7-37.3-74.4-62.3l-9,6.7l-25.6-33.9l9-6.7c-5.4-8.3-10.5-17-15.2-26c-10.6-20.4-18.7-41.4-24.4-62.8l-11,2.2
	l-8.1-41.7l11-2.2c-4-32.6-2.7-65.3,3.5-96.9l-10.8-3l11.1-41.1l10.8,3c10.6-30.9,26.2-60.1,46.2-86.3l-10.7-7.7l26.7-33.1l12.1,8.7
	c16.7-16.5,35.5-31.3,56.3-44L-775.3-1070.8z"/>
<path class="st0" d="M-562.6-9.8l37.7-19.6l5.2,10c15-6.6,30.3-11.8,45.7-15.8v0l-0.4,0.1l7.6,31.5c-0.4,0.1-0.8,0.2-1.3,0.3
	c16.5,21.8-4.7,77.4-17.2,96.2c-15.6,23.6-25,51.7-25.8,82c-2.2,86.1,65.7,157.7,151.8,159.9c41.7,1.1,80-14.3,108.7-40.3
	c51.4-46.5,107.7-39.8,127.8-1.7c-9.6,88.8-61.9,171.3-147.1,215.6c-22.1,11.5-45,19.7-68.3,24.8l7.3,30.6
	c-16.4,3.6-32.9,5.8-49.4,6.7l-0.2,11.2l-42.5-0.7l0.2-11.2c-32.5-2.8-64.3-10.7-94.2-23.4l-5.1,10l-37.9-19.3l5.1-10
	c-27.6-16.5-52.7-37.3-74.4-62.3l-9,6.7l-25.6-33.9l9-6.7c-5.4-8.3-10.5-17-15.2-26c-10.6-20.4-18.7-41.4-24.4-62.8l-11,2.2
	l-8.1-41.7l11-2.2c-4-32.6-2.7-65.3,3.5-96.9l-10.8-3l11.1-41.1l10.8,3c10.6-30.9,26.2-60.1,46.2-86.3l-10.7-7.7l26.7-33.1l12.1,8.7
	c16.7-16.5,35.5-31.3,56.3-44L-562.6-9.8z"/>
<path class="st0" d="M431.2,459.7c-12.3,11.1-25.4,21-39.2,29.8l5.2,9.9L360,519.9l-5.2-9.9c-29.7,13.7-61.3,22.5-93.6,26.3
	l0.5,11.2l-42.5,2l-0.5-11.2c-32.2-0.7-64.4-6.4-95.5-17.4l-4.4,10.3l-39-16.9l4.4-10.3c-12.4-6.4-24.5-13.8-36.2-22
	C32.6,471.2,18.6,459.3,6,446.4l-8.5,7.3l-27.7-32.3l8.5-7.3c-19.6-26.4-34.6-55.4-44.8-86l-10.9,2.7l-10.7-41.2l10.9-2.7
	c-6-31.9-6.9-64.7-2.6-97.1l-11-2.2l8.5-41.7l11,2.2c8.5-30.7,21.9-60.5,40.4-88.4l-9-6.7L-14,19.4l9,6.7c10.6-12,22-23,34-33
	L49.6,17C31.3,32.2,14.6,50,0.3,70.3C-87.7,194.8-58,367.1,66.5,455c107.2,75.7,249.8,64.3,343.5-19.9L431.2,459.7z"/>
<path class="st0" d="M48.8-191.9c16.6-0.3,33,0.7,49.1,2.9l2.5-10.9L142-191l-2.5,10.9c31.4,9,61.2,23,88.1,41.2l6.9-8.9l33.5,26.2
	l-6.9,8.8c23.9,21.5,44.6,46.9,61,75.5l10-4.9l18.6,38.3l-10.1,4.9c5.2,13,9.6,26.4,13.1,40.4c4.5,18.1,7.3,36.3,8.6,54.3l11.2,0
	l-0.1,42.5l-11.2,0c-2.4,32.8-10,64.6-22.2,94.4l10,5l-18.8,38.2l-10.1-5c-16.3,28.1-37,53.5-61.4,75.3l6.9,8.8l-33.6,26l-6.9-8.8
	c-26.5,17.7-56.1,31.6-88.3,40.6l2.4,11l-41.6,8.6l-2.5-11c-15.9,2.2-31.6,3.1-47.3,2.8l0-31.5c23.8,0.4,48-2.2,72.1-8.2
	C269,347.4,358.9,197.6,322,49.7C290.2-77.7,174.7-162,48.8-159.4L48.8-191.9z"/>
<path class="st0" d="M269.8-182.6c16.6-0.3,33,0.7,49.1,2.9l2.5-10.9l41.6,8.9l-2.5,10.9c31.4,9,61.2,23,88.1,41.2l6.9-8.9
	l33.5,26.2l-6.9,8.8c23.9,21.5,44.6,46.9,61,75.5l10-4.9l18.6,38.3l-10.1,4.9c5.2,13,9.6,26.4,13.1,40.4c4.5,18.1,7.3,36.3,8.6,54.3
	l11.2,0l-0.1,42.5l-11.2,0c-2.4,32.8-10,64.6-22.2,94.4l10,5l-18.8,38.2l-10.1-5c-16.3,28.1-37,53.5-61.4,75.3l6.9,8.8l-33.6,26
	l-6.9-8.8c-26.5,17.7-56.1,31.6-88.3,40.6l2.4,11l-41.6,8.6l-2.5-11c-15.9,2.2-31.6,3.1-47.3,2.8l0-31.5c23.8,0.4,48-2.2,72.1-8.2
	C490.1,356.7,580,206.9,543.1,58.9C511.2-68.4,395.7-152.8,269.8-150.2L269.8-182.6z"/>
<path class="st0" d="M3049-1316.3c2.3,0,4.6,0.1,7,0.2c0.4,0,0.8,0.1,1.4,0.1v0c147.4,5.5,279.6,107.2,317.1,257.5
	c45.5,182.3-65.3,366.9-247.6,412.5c-29.6,7.4-59.2,10.6-88.3,10.2v-671.2C3039.6-1312,3043.8-1315.7,3049-1316.3L3049-1316.3z"/>
<rect x="3103.9" y="-1303.4" transform="matrix(0.2082 -0.9781 0.9781 0.2082 3716.1929 2026.2367)" class="st0" width="11.3" height="42.5"/>
<rect x="3231.6" y="-1243.7" transform="matrix(0.6165 -0.7873 0.7873 0.6165 2203.9553 2080.0757)" class="st0" width="11.3" height="42.5"/>
<rect x="3320.2" y="-1134" transform="matrix(0.8996 -0.4367 0.4367 0.8996 819.7667 1340.6221)" class="st0" width="11.3" height="42.5"/>
<rect x="3336" y="-981" transform="matrix(2.675680e-03 -1 1 2.675680e-03 4323.604 2384.551)" class="st0" width="42.5" height="11.3"/>
<rect x="3303.9" y="-843.7" transform="matrix(0.4415 -0.8973 0.8973 0.4415 2609.0312 2515.4656)" class="st0" width="42.5" height="11.3"/>
<rect x="3214.7" y="-734.5" transform="matrix(0.7906 -0.6123 0.6123 0.7906 1123.7677 1828.7772)" class="st0" width="42.5" height="11.3"/>
<rect x="3086.7" y="-675.5" transform="matrix(0.9792 -0.2029 0.2029 0.9792 200.6163 616.8007)" class="st0" width="42.5" height="11.3"/>
<path class="st0" d="M3796.4-1325.9c2.3,0,4.6,0.1,7,0.2c0.4,0,0.8,0.1,1.4,0.1v0c147.4,5.5,279.6,107.2,317.1,257.5
	c45.5,182.3-65.3,366.9-247.6,412.5c-29.6,7.4-59.2,10.6-88.3,10.2v-671.2C3787-1321.6,3791.2-1325.3,3796.4-1325.9L3796.4-1325.9z"
	/>
<rect x="3851.3" y="-1312.9" transform="matrix(0.2082 -0.9781 0.9781 0.2082 4317.3062 2749.6731)" class="st0" width="11.3" height="42.5"/>
<rect x="3979" y="-1253.3" transform="matrix(0.6165 -0.7873 0.7873 0.6165 2498.0833 2664.8572)" class="st0" width="11.3" height="42.5"/>
<rect x="4067.6" y="-1143.6" transform="matrix(0.8996 -0.4367 0.4367 0.8996 898.9552 1666.022)" class="st0" width="11.3" height="42.5"/>
<rect x="4083.4" y="-990.5" transform="matrix(2.675680e-03 -1 1 2.675680e-03 5078.519 3122.4026)" class="st0" width="42.5" height="11.3"/>
<rect x="4051.2" y="-853.3" transform="matrix(0.4415 -0.8973 0.8973 0.4415 3034.9958 3180.7222)" class="st0" width="42.5" height="11.3"/>
<rect x="3962.1" y="-744" transform="matrix(0.7906 -0.6123 0.6123 0.7906 1286.0875 2284.3899)" class="st0" width="42.5" height="11.3"/>
<rect x="3834" y="-685" transform="matrix(0.9792 -0.2029 0.2029 0.9792 218.1058 768.2778)" class="st0" width="42.5" height="11.3"/>
<rect x="893.2" y="-758.9" transform="matrix(0.4344 -0.9007 0.9007 0.4344 1187.2472 381.5463)" class="st0" width="8.5" height="8.5"/>
<rect x="1005.8" y="-992.2" transform="matrix(0.4344 -0.9007 0.9007 0.4344 1461.1128 350.9428)" class="st0" width="8.5" height="8.5"/>
<rect x="999.1" y="-1026.6" transform="matrix(0.8744 -0.4853 0.4853 0.8744 622.1782 358.4598)" class="st0" width="8.5" height="8.5"/>
<rect x="873.4" y="-1253.2" transform="matrix(0.8744 -0.4853 0.4853 0.8744 716.346 268.982)" class="st0" width="8.5" height="8.5"/>
<rect x="841.5" y="-1267.6" transform="matrix(0.1079 -0.9942 0.9942 0.1079 2010.5079 -286.3003)" class="st0" width="8.5" height="8.5"/>
<rect x="583.9" y="-1295.6" transform="matrix(0.1079 -0.9942 0.9942 0.1079 1808.4827 -567.3477)" class="st0" width="8.5" height="8.5"/>
<rect x="553.7" y="-1277.8" transform="matrix(0.6615 -0.7499 0.7499 0.6615 1143.9491 -12.6823)" class="st0" width="8.5" height="8.5"/>
<rect x="382.3" y="-1083.5" transform="matrix(0.6615 -0.7499 0.7499 0.6615 940.1913 -75.4525)" class="st0" width="8.5" height="8.5"/>
<rect x="379.3" y="-1048.6" transform="matrix(0.9729 -0.2311 0.2311 0.9729 251.7013 60.3739)" class="st0" width="8.5" height="8.5"/>
<rect x="439.2" y="-796.5" transform="matrix(0.9729 -0.2311 0.2311 0.9729 195.0979 81.0417)" class="st0" width="8.5" height="8.5"/>
<rect x="466.1" y="-774" transform="matrix(0.3724 -0.9281 0.9281 0.3724 1009.5634 -46.6221)" class="st0" width="8.5" height="8.5"/>
<rect x="706.5" y="-677.5" transform="matrix(0.3724 -0.9281 0.9281 0.3724 1070.9628 237.1233)" class="st0" width="8.5" height="8.5"/>
<path class="st0" d="M3798.8-1317c1.6,0,2.8,1.3,2.8,2.8s-1.3,2.8-2.8,2.8s-2.8-1.3-2.8-2.8C3796-1315.8,3797.2-1317,3798.8-1317z"
	/>
<path class="st0" d="M3662.8-1313.9c25.6-6.4,51.3-9.7,76.6-10.2v680.3c-150.2-2.5-286-105-324.1-257.7
	C3369.7-1083.7,3480.5-1268.4,3662.8-1313.9z"/>
<rect x="3648.2" y="-1293.1" transform="matrix(0.9702 -0.2424 0.2424 0.9702 421.5464 851.1353)" class="st0" width="42.5" height="11.3"/>
<rect x="3662.1" y="-702.1" transform="matrix(0.2476 -0.9689 0.9689 0.2476 3419.2158 3041.3225)" class="st0" width="11.3" height="42.5"/>
<rect x="3536.9" y="-766.9" transform="matrix(0.6479 -0.7617 0.7617 0.6479 1815.3534 2435.9648)" class="st0" width="11.3" height="42.5"/>
<rect x="3452.8" y="-880.1" transform="matrix(0.9166 -0.3999 0.3999 0.9166 632.032 1311.4147)" class="st0" width="11.3" height="42.5"/>
<rect x="3411.4" y="-1003.1" transform="matrix(4.316712e-02 -0.9991 0.9991 4.316712e-02 4281.0117 2475.1477)" class="st0" width="42.5" height="11.3"/>
<rect x="3449.1" y="-1138.9" transform="matrix(0.4775 -0.8787 0.8787 0.4775 2809.1458 2457.0723)" class="st0" width="42.5" height="11.3"/>
<rect x="3540.8" y="-1246.6" transform="matrix(0.791 -0.6119 0.6119 0.791 1503.8733 1920.0602)" class="st0" width="42.5" height="11.3"/>
<path class="st0" d="M3051.4-1307.5c1.6,0,2.8,1.3,2.8,2.8s-1.3,2.8-2.8,2.8s-2.8-1.3-2.8-2.8
	C3048.6-1306.2,3049.9-1307.5,3051.4-1307.5z"/>
<path class="st0" d="M2943.7-1302.8c25.6-6.4,51.3-9.7,76.6-10.2v680.3c-150.2-2.5-286-105-324.1-257.7
	C2650.6-1072.5,2761.4-1257.2,2943.7-1302.8L2943.7-1302.8z"/>
<rect x="2929.1" y="-1281.9" transform="matrix(0.9702 -0.2424 0.2424 0.9702 397.3889 677.1451)" class="st0" width="42.5" height="11.3"/>
<rect x="2943" y="-690.9" transform="matrix(0.2476 -0.9689 0.9689 0.2476 2867.3528 2353.0222)" class="st0" width="11.3" height="42.5"/>
<rect x="2817.8" y="-755.7" transform="matrix(0.6479 -0.7617 0.7617 0.6479 1553.6398 1892.134)" class="st0" width="11.3" height="42.5"/>
<rect x="2733.8" y="-868.9" transform="matrix(0.9166 -0.3999 0.3999 0.9166 567.5612 1024.7764)" class="st0" width="11.3" height="42.5"/>
<rect x="2692.3" y="-991.9" transform="matrix(4.316712e-02 -0.9991 0.9991 4.316712e-02 3581.7954 1767.4083)" class="st0" width="42.5" height="11.3"/>
<rect x="2730" y="-1127.8" transform="matrix(0.4775 -0.8787 0.8787 0.4775 2423.5776 1831.0736)" class="st0" width="42.5" height="11.3"/>
<rect x="2821.7" y="-1235.5" transform="matrix(0.791 -0.6119 0.6119 0.791 1346.7146 1482.4044)" class="st0" width="42.5" height="11.3"/>
<path class="st0" d="M965.1-520.7c1.6,0,2.8-1.3,2.8-2.8v-10"/>
<polyline class="st0" points="965.1,-536.4 959.5,-536.4 959.5,-530.7 951,-530.7 951,-536.3 934,-536.3 934,-525 945.3,-525 
	945.3,-520.7 "/>
<path class="st0" d="M968-533.6c0-0.8-0.3-1.5-0.8-2s-1.3-0.8-2-0.8"/>
<path class="st0" d="M945.3-520.7h19.8H945.3z"/>
<circle class="st0" cx="2284.5" cy="-969.7" r="340.2"/>
<path class="st0" d="M2292-1300.6c1.3,0,2.4,1.1,2.4,2.4c0,1.3-1.1,2.4-2.4,2.4s-2.4-1.1-2.4-2.4S2290.7-1300.6,2292-1300.6z"/>
<polygon class="st0" points="1544,565.4 1494.4,565.4 1494.4,576.7 1451.9,576.7 1451.9,565.4 1402.3,565.4 1402.3,-568.5 
	1451.9,-568.5 1451.9,-579.8 1494.4,-579.8 1494.4,-568.5 1544,-568.5 "/>
<rect x="1451.9" y="-315.2" class="st0" width="42.5" height="11.3"/>
<rect x="1451.9" y="-7.2" class="st0" width="42.5" height="11.3"/>
<rect x="1451.9" y="300.8" class="st0" width="42.5" height="11.3"/>
<polygon class="st0" points="1392.3,565.4 1366.9,565.4 1366.9,576.7 1324.4,576.7 1324.4,565.4 1275.2,565.4 1275.2,-568.4 
	1323.9,-568.5 1323.9,-579.8 1366.4,-579.8 1366.4,-568.5 1392.3,-568.5 "/>
<rect x="1324.4" y="-315.2" class="st0" width="42.5" height="11.3"/>
<rect x="1324.4" y="-7.2" class="st0" width="42.5" height="11.3"/>
<rect x="1324.4" y="300.8" class="st0" width="42.5" height="11.3"/>
<polygon class="st0" points="1695.7,565.4 1646.1,565.4 1646.1,576.7 1603.6,576.7 1603.6,565.4 1554,565.4 1554,-568.5 
	1603.6,-568.5 1603.6,-579.8 1646.1,-579.8 1646.1,-568.5 1695.7,-568.5 "/>
<polygon class="st0" points="1847.5,565.4 1797.9,565.4 1797.9,576.7 1755.3,576.7 1755.3,565.4 1705.7,565.4 1705.7,-568.5 
	1755.3,-568.5 1755.3,-579.8 1797.9,-579.8 1797.9,-568.5 1847.5,-568.5 "/>
<polygon class="st0" points="1999.2,565.4 1949.6,565.4 1949.6,576.7 1907.1,576.7 1907.1,565.4 1857.5,565.4 1857.5,-568.5 
	1907.1,-568.5 1907.1,-579.8 1949.6,-579.8 1949.6,-568.5 1999.2,-568.5 "/>
<polygon class="st0" points="2150.9,565.4 2101.3,565.4 2101.3,576.7 2058.8,576.7 2058.8,565.4 2009.2,565.4 2009.2,-568.5 
	2058.8,-568.5 2058.8,-579.8 2101.3,-579.8 2101.3,-568.5 2150.9,-568.5 "/>
<polygon class="st0" points="2302.7,565.4 2253.1,565.4 2253.1,576.7 2210.5,576.7 2210.5,565.4 2160.9,565.4 2160.9,-568.5 
	2210.5,-568.5 2210.5,-579.8 2253.1,-579.8 2253.1,-568.5 2302.7,-568.5 "/>
<polygon class="st0" points="2454.4,565.4 2404.8,565.4 2404.8,576.7 2362.3,576.7 2362.3,565.4 2312.7,565.4 2312.7,-568.5 
	2362.3,-568.5 2362.3,-579.8 2404.8,-579.8 2404.8,-568.5 2454.4,-568.5 "/>
<polygon class="st0" points="2606.1,565.4 2556.5,565.4 2556.5,576.7 2514,576.7 2514,565.4 2464.4,565.4 2464.4,-568.5 
	2514,-568.5 2514,-579.8 2556.5,-579.8 2556.5,-568.5 2606.1,-568.5 "/>
<polygon class="st0" points="2757.9,565.4 2708.3,565.4 2708.3,576.7 2665.7,576.7 2665.7,565.4 2616.1,565.4 2616.1,-568.5 
	2665.7,-568.5 2665.7,-579.8 2708.3,-579.8 2708.3,-568.5 2757.9,-568.5 "/>
<polygon class="st0" points="2909.6,565.4 2860,565.4 2860,576.7 2817.5,576.7 2817.5,565.4 2767.9,565.4 2767.9,-568.5 
	2817.5,-568.5 2817.5,-579.8 2860,-579.8 2860,-568.5 2909.6,-568.5 "/>
<polygon class="st0" points="3061.3,565.4 3011.7,565.4 3011.7,576.7 2969.2,576.7 2969.2,565.4 2919.6,565.4 2919.6,-568.5 
	2969.2,-568.5 2969.2,-579.8 3011.7,-579.8 3011.7,-568.5 3061.3,-568.5 "/>
<polygon class="st0" points="3213.1,565.4 3163.4,565.4 3163.4,576.7 3120.9,576.7 3120.9,565.4 3071.3,565.4 3071.3,-568.5 
	3120.9,-568.5 3120.9,-579.8 3163.4,-579.8 3163.4,-568.5 3213.1,-568.5 "/>
<polygon class="st0" points="3223.1,565.4 3223.1,-568.5 3272.7,-568.5 3272.7,-579.8 3315.2,-579.8 3315.2,-568.5 3364.8,-568.5 
	3364.8,565.4 3315.2,565.4 3315.2,576.7 3272.7,576.7 3272.7,565.4 "/>
<rect x="1603.6" y="-315.2" class="st0" width="42.5" height="11.3"/>
<rect x="1755.3" y="-315.2" class="st0" width="42.5" height="11.3"/>
<rect x="1907.1" y="-315.2" class="st0" width="42.5" height="11.3"/>
<rect x="2058.8" y="-315.2" class="st0" width="42.5" height="11.3"/>
<rect x="2210.5" y="-315.2" class="st0" width="42.5" height="11.3"/>
<rect x="2362.3" y="-315.2" class="st0" width="42.5" height="11.3"/>
<rect x="2514" y="-315.2" class="st0" width="42.5" height="11.3"/>
<rect x="2665.7" y="-315.2" class="st0" width="42.5" height="11.3"/>
<rect x="2817.5" y="-315.2" class="st0" width="42.5" height="11.3"/>
<rect x="2969.2" y="-315.2" class="st0" width="42.5" height="11.3"/>
<rect x="3120.9" y="-315.2" class="st0" width="42.5" height="11.3"/>
<rect x="3272.7" y="-315.2" class="st0" width="42.5" height="11.3"/>
<rect x="1603.6" y="-7.2" class="st0" width="42.5" height="11.3"/>
<rect x="1755.3" y="-7.2" class="st0" width="42.5" height="11.3"/>
<rect x="1907.1" y="-7.2" class="st0" width="42.5" height="11.3"/>
<rect x="2058.8" y="-7.2" class="st0" width="42.5" height="11.3"/>
<rect x="2210.5" y="-7.2" class="st0" width="42.5" height="11.3"/>
<rect x="2362.3" y="-7.2" class="st0" width="42.5" height="11.3"/>
<rect x="2514" y="-7.2" class="st0" width="42.5" height="11.3"/>
<rect x="2665.7" y="-7.2" class="st0" width="42.5" height="11.3"/>
<rect x="2817.5" y="-7.2" class="st0" width="42.5" height="11.3"/>
<rect x="2969.2" y="-7.2" class="st0" width="42.5" height="11.3"/>
<rect x="3120.9" y="-7.2" class="st0" width="42.5" height="11.3"/>
<rect x="3272.7" y="-7.2" class="st0" width="42.5" height="11.3"/>
<rect x="1603.6" y="300.8" class="st0" width="42.5" height="11.3"/>
<rect x="1755.3" y="300.8" class="st0" width="42.5" height="11.3"/>
<rect x="1907.1" y="300.8" class="st0" width="42.5" height="11.3"/>
<rect x="2058.8" y="300.8" class="st0" width="42.5" height="11.3"/>
<rect x="2210.5" y="300.8" class="st0" width="42.5" height="11.3"/>
<rect x="2362.3" y="300.8" class="st0" width="42.5" height="11.3"/>
<rect x="2514" y="300.8" class="st0" width="42.5" height="11.3"/>
<rect x="2665.7" y="300.8" class="st0" width="42.5" height="11.3"/>
<rect x="2817.5" y="300.8" class="st0" width="42.5" height="11.3"/>
<rect x="2969.2" y="300.8" class="st0" width="42.5" height="11.3"/>
<rect x="3120.9" y="300.8" class="st0" width="42.5" height="11.3"/>
<rect x="3272.7" y="300.8" class="st0" width="42.5" height="11.3"/>
<path class="st0" d="M1875.2-1046.4c0,219.2-177.7,396.9-396.9,396.9s-396.9-177.7-396.9-396.9s177.7-396.9,396.9-396.9
	S1875.2-1265.6,1875.2-1046.4L1875.2-1046.4z"/>
<path class="st0" d="M1809.2-1039c0,1.3-1.1,2.4-2.4,2.4s-2.4-1.1-2.4-2.4s1.1-2.4,2.4-2.4C1808.1-1041.4,1809.2-1040.3,1809.2-1039
	z"/>
<path class="st0" d="M271.2-987.9C271.2-800,118.9-647.7-69-647.7S-409.1-800-409.1-987.9S-256.8-1328-69-1328
	S271.2-1175.8,271.2-987.9L271.2-987.9z"/>
<path class="st0" d="M261.8-980.4c0,1.3-1.1,2.4-2.4,2.4s-2.4-1.1-2.4-2.4s1.1-2.4,2.4-2.4S261.8-981.8,261.8-980.4z"/>
<polygon class="st0" points="979.9,-556.4 988.4,-556.4 988.4,-494.6 1107.6,-494.6 1107.6,-556.4 1116.1,-556.4 1116.1,-494.6 
	1116.1,-485.8 1116.1,-431.5 1116.1,-422.7 1116.1,-368.4 1116.1,-359.6 1116.1,-305.3 1116.1,-296.5 1116.1,-242.2 1116.1,-233.4 
	1116.1,-179 1116.1,-170.3 1116.1,-115.9 1116.1,-107.2 1116.1,-52.8 1116.1,-44.1 1116.1,10.3 1116.1,19.1 1116.1,73.4 
	1116.1,82.2 1116.1,136.5 1116.1,145.3 1116.1,199.6 1116.1,208.4 1116.1,262.8 1116.1,271.5 1116.1,325.9 1116.1,334.6 1116.1,389 
	1116.1,397.7 1116.1,452.1 1116.1,460.9 1116.1,515.2 1116.1,524 1116.1,553.5 1107.6,553.5 1107.6,524 988.4,524 988.4,553.5 
	979.9,553.5 979.9,524 979.9,515.2 979.9,460.9 979.9,452.1 979.9,397.7 979.9,389 979.9,334.6 979.9,325.9 979.9,271.5 
	979.9,262.8 979.9,208.4 979.9,199.6 979.9,145.3 979.9,136.5 979.9,82.2 979.9,73.4 979.9,19.1 979.9,10.3 979.9,-44.1 
	979.9,-52.8 979.9,-107.2 979.9,-115.9 979.9,-170.3 979.9,-179 979.9,-233.4 979.9,-242.2 979.9,-296.5 979.9,-305.3 979.9,-359.6 
	979.9,-368.4 979.9,-422.7 979.9,-431.5 979.9,-485.8 979.9,-494.6 "/>
<rect x="988.4" y="460.9" class="st0" width="119.2" height="54.4"/>
<rect x="988.4" y="397.7" class="st0" width="119.2" height="54.4"/>
<rect x="988.4" y="334.6" class="st0" width="119.2" height="54.4"/>
<rect x="988.4" y="271.5" class="st0" width="119.2" height="54.4"/>
<rect x="988.4" y="208.4" class="st0" width="119.2" height="54.4"/>
<rect x="988.4" y="145.3" class="st0" width="119.2" height="54.4"/>
<rect x="988.4" y="82.2" class="st0" width="119.2" height="54.4"/>
<rect x="988.4" y="19.1" class="st0" width="119.2" height="54.4"/>
<rect x="988.4" y="-44.1" class="st0" width="119.2" height="54.4"/>
<rect x="988.4" y="-107.2" class="st0" width="119.2" height="54.4"/>
<rect x="988.4" y="-170.3" class="st0" width="119.2" height="54.4"/>
<rect x="988.4" y="-233.4" class="st0" width="119.2" height="54.4"/>
<rect x="988.4" y="-296.5" class="st0" width="119.2" height="54.4"/>
<rect x="988.4" y="-359.6" class="st0" width="119.2" height="54.4"/>
<rect x="988.4" y="-422.7" class="st0" width="119.2" height="54.4"/>
<rect x="988.4" y="-485.8" class="st0" width="119.2" height="54.4"/>
<circle class="st0" cx="692" cy="-990.7" r="340.2"/>
<polygon class="st0" points="626.7,-297.6 635.2,-297.6 714.9,-297.6 723.4,-297.6 806.6,-297.6 815.1,-297.6 885.9,-297.6 
	894.4,-297.6 894.4,-289.1 894.4,-213.6 894.4,-205.1 894.4,-178.1 885.9,-178.1 885.9,-205.1 815.1,-205.1 806.6,-205.1 
	723.4,-205.1 714.9,-205.1 635.2,-205.1 635.2,-178.1 626.7,-178.1 626.7,-205.1 626.7,-213.6 626.7,-289.1 "/>
<rect x="635.2" y="-289.1" class="st0" width="79.7" height="75.5"/>
<rect x="723.4" y="-289.1" class="st0" width="83.2" height="75.5"/>
<rect x="815.1" y="-289.1" class="st0" width="70.7" height="75.5"/>
<circle class="st0" cx="319" cy="-487.9" r="248.6"/>
<path class="st0" d="M-155.8-525.3c72.7,0,131.6,58.9,131.6,131.6c0,72.7-58.9,131.6-131.6,131.6c-72.7,0-131.6-58.9-131.6-131.6
	C-287.4-466.4-228.5-525.3-155.8-525.3L-155.8-525.3z"/>
<rect x="1470.1" y="-423.4" class="st0" width="11.3" height="11.3"/>
<rect x="1613.6" y="-423.4" class="st0" width="11.3" height="11.3"/>
<rect x="1470.1" y="25.1" class="st0" width="11.3" height="11.3"/>
<rect x="1613.6" y="25.1" class="st0" width="11.3" height="11.3"/>
<rect x="1470.1" y="467.6" class="st0" width="11.3" height="11.3"/>
<rect x="1613.6" y="467.6" class="st0" width="11.3" height="11.3"/>
<path class="st0" d="M965.1-497.7c1.6,0,2.8-1.3,2.8-2.8v-10"/>
<polyline class="st0" points="965.1,-513.4 959.5,-513.4 959.5,-507.6 951,-507.6 951,-513.3 934,-513.3 934,-501.9 945.3,-501.9 
	945.3,-497.7 "/>
<path class="st0" d="M968-510.5c0-0.8-0.3-1.5-0.8-2s-1.3-0.8-2-0.8"/>
<line class="st0" x1="945.3" y1="-497.7" x2="965.1" y2="-497.7"/>
<path class="st0" d="M965.1-474.7c1.6,0,2.8-1.3,2.8-2.8v-10"/>
<polyline class="st0" points="965.1,-490.3 959.5,-490.3 959.5,-484.6 951,-484.6 951,-490.2 934,-490.2 934,-478.9 945.3,-478.9 
	945.3,-474.7 "/>
<path class="st0" d="M968-487.5c0-0.8-0.3-1.5-0.8-2s-1.3-0.8-2-0.8"/>
<line class="st0" x1="945.3" y1="-474.7" x2="965.1" y2="-474.7"/>
<path class="st0" d="M965.1-451.6c1.6,0,2.8-1.3,2.8-2.8v-10"/>
<polyline class="st0" points="965.1,-467.3 959.5,-467.3 959.5,-461.6 951,-461.6 951,-467.2 934,-467.2 934,-455.9 945.3,-455.9 
	945.3,-451.6 "/>
<path class="st0" d="M968-464.5c0-0.8-0.3-1.5-0.8-2s-1.3-0.8-2-0.8"/>
<line class="st0" x1="945.3" y1="-451.6" x2="965.1" y2="-451.6"/>
<path class="st0" d="M965.1-428.6c1.6,0,2.8-1.3,2.8-2.8v-10"/>
<polyline class="st0" points="965.1,-444.3 959.5,-444.3 959.5,-438.5 951,-438.5 951,-444.2 934,-444.2 934,-432.8 945.3,-432.8 
	945.3,-428.6 "/>
<path class="st0" d="M968-441.4c0-0.8-0.3-1.5-0.8-2s-1.3-0.8-2-0.8"/>
<line class="st0" x1="945.3" y1="-428.6" x2="965.1" y2="-428.6"/>
<path class="st0" d="M965.1-405.6c1.6,0,2.8-1.3,2.8-2.8v-10"/>
<polyline class="st0" points="965.1,-421.2 959.5,-421.2 959.5,-415.5 951,-415.5 951,-421.2 934,-421.2 934,-409.8 945.3,-409.8 
	945.3,-405.6 "/>
<path class="st0" d="M968-418.4c0-0.8-0.3-1.5-0.8-2s-1.3-0.8-2-0.8"/>
<line class="st0" x1="945.3" y1="-405.6" x2="965.1" y2="-405.6"/>
<path class="st0" d="M965.1-382.5c1.6,0,2.8-1.3,2.8-2.8v-10"/>
<polyline class="st0" points="965.1,-398.2 959.5,-398.2 959.5,-392.5 951,-392.5 951,-398.1 934,-398.1 934,-386.8 945.3,-386.8 
	945.3,-382.5 "/>
<path class="st0" d="M968-395.4c0-0.8-0.3-1.5-0.8-2s-1.3-0.8-2-0.8"/>
<path class="st0" d="M945.3-382.5h19.8H945.3z"/>
<polygon class="st0" points="626.7,-141.9 635.2,-141.9 714.9,-141.9 723.4,-141.9 806.6,-141.9 815.1,-141.9 885.9,-141.9 
	894.4,-141.9 894.4,-133.4 894.4,-57.9 894.4,-49.4 894.4,-22.3 885.9,-22.3 885.9,-49.4 815.1,-49.4 806.6,-49.4 723.4,-49.4 
	714.9,-49.4 635.2,-49.4 635.2,-22.3 626.7,-22.3 626.7,-49.4 626.7,-57.9 626.7,-133.4 "/>
<rect x="635.2" y="-133.4" class="st0" width="79.7" height="75.5"/>
<rect x="723.4" y="-133.4" class="st0" width="83.2" height="75.5"/>
<rect x="815.1" y="-133.4" class="st0" width="70.7" height="75.5"/>
<polygon class="st0" points="626.7,2.1 635.2,2.1 714.9,2.1 723.4,2.1 806.6,2.1 815.1,2.1 885.9,2.1 894.4,2.1 894.4,10.6 
	894.4,86.1 894.4,94.6 894.4,121.7 885.9,121.7 885.9,94.6 815.1,94.6 806.6,94.6 723.4,94.6 714.9,94.6 635.2,94.6 635.2,121.7 
	626.7,121.7 626.7,94.6 626.7,86.1 626.7,10.6 "/>
<rect x="635.2" y="10.6" class="st0" width="79.7" height="75.5"/>
<rect x="723.4" y="10.6" class="st0" width="83.2" height="75.5"/>
<rect x="815.1" y="10.6" class="st0" width="70.7" height="75.5"/>
<polygon class="st0" points="626.7,146.1 635.2,146.1 714.9,146.1 723.4,146.1 806.6,146.1 815.1,146.1 885.9,146.1 894.4,146.1 
	894.4,154.6 894.4,230.1 894.4,238.6 894.4,265.7 885.9,265.7 885.9,238.6 815.1,238.6 806.6,238.6 723.4,238.6 714.9,238.6 
	635.2,238.6 635.2,265.7 626.7,265.7 626.7,238.6 626.7,230.1 626.7,154.6 "/>
<rect x="635.2" y="154.6" class="st0" width="79.7" height="75.5"/>
<rect x="723.4" y="154.6" class="st0" width="83.2" height="75.5"/>
<rect x="815.1" y="154.6" class="st0" width="70.7" height="75.5"/>
<polygon class="st0" points="626.7,290.1 635.2,290.1 714.9,290.1 723.4,290.1 806.6,290.1 815.1,290.1 885.9,290.1 894.4,290.1 
	894.4,298.6 894.4,374.1 894.4,382.6 894.4,409.7 885.9,409.7 885.9,382.6 815.1,382.6 806.6,382.6 723.4,382.6 714.9,382.6 
	635.2,382.6 635.2,409.7 626.7,409.7 626.7,382.6 626.7,374.1 626.7,298.6 "/>
<rect x="635.2" y="298.6" class="st0" width="79.7" height="75.5"/>
<rect x="723.4" y="298.6" class="st0" width="83.2" height="75.5"/>
<rect x="815.1" y="298.6" class="st0" width="70.7" height="75.5"/>
<polygon class="st0" points="626.7,434.1 635.2,434.1 714.9,434.1 723.4,434.1 806.6,434.1 815.1,434.1 885.9,434.1 894.4,434.1 
	894.4,442.6 894.4,518.1 894.4,526.6 894.4,553.7 885.9,553.7 885.9,526.6 815.1,526.6 806.6,526.6 723.4,526.6 714.9,526.6 
	635.2,526.6 635.2,553.7 626.7,553.7 626.7,526.6 626.7,518.1 626.7,442.6 "/>
<rect x="635.2" y="442.6" class="st0" width="79.7" height="75.5"/>
<rect x="723.4" y="442.6" class="st0" width="83.2" height="75.5"/>
<rect x="815.1" y="442.6" class="st0" width="70.7" height="75.5"/>
<rect x="-830.6" y="-250.4" transform="matrix(0.6734 -0.7393 0.7393 0.6734 -87.5836 -687.6223)" class="st0" width="17" height="11.3"/>
<rect x="-668.7" y="-212.6" transform="matrix(0.9587 -0.2845 0.2845 0.9587 30.6624 -197.0782)" class="st0" width="11.3" height="17"/>
<rect x="-500" y="-362" transform="matrix(0.3896 -0.921 0.921 0.3896 23.8638 -671.0432)" class="st0" width="11.3" height="17"/>
<rect x="-948.7" y="-429.8" transform="matrix(0.9624 -0.2716 0.2716 0.9624 79.8473 -271.2746)" class="st0" width="17" height="11.3"/>
<ellipse transform="matrix(0.2051 -0.9787 0.9787 0.2051 -218.0745 -758.7907)" class="st0" cx="-576.2" cy="-245.1" rx="73.3" ry="73.3"/>
<ellipse transform="matrix(0.5653 -0.8249 0.8249 0.5653 -177.7948 -705.6119)" class="st0" cx="-758.4" cy="-184.1" rx="73.3" ry="73.3"/>
<ellipse transform="matrix(0.9363 -0.3513 0.3513 0.9363 46.995 -333.9187)" class="st0" cx="-896.7" cy="-296.5" rx="73.3" ry="73.3"/>
<path class="st0" d="M-971.4-554l27.1-32.8l8.7,7.2c11.3-11.9,23.3-22.7,36-32.4l0,0l-0.3,0.2l19.2,26.1c-0.3,0.3-0.7,0.5-1,0.8
	c23.7,13.7,25.8,73.1,21.6,95.3c-5.2,27.8-3,57.3,8.1,85.6c31.5,80.2,121.9,119.6,202.1,88.2c38.8-15.2,68.1-44.4,84.4-79.4
	c29.2-62.9,83.7-78.5,117.1-51.3c25.8,85.5,9.6,181.9-51.6,255.9c-15.9,19.2-33.8,35.7-53.2,49.4l18.7,25.4
	c-13.7,9.7-28.1,18.2-42.9,25.4l4.2,10.4l-39.4,15.9l-4.2-10.4c-31,10.1-63.4,15.2-95.9,15.2l-0.8,11.2l-42.4-3l0.8-11.2
	c-31.8-4.4-63.1-13.9-92.7-28.4l-5.7,9.6l-36.8-21.3l5.7-9.7c-8.2-5.6-16.3-11.6-24.1-18c-17.7-14.7-33.4-30.9-46.9-48.3l-9.3,6.3
	l-23.7-35.3l9.3-6.2c-16.4-28.4-27.9-59.1-34.5-90.6l-11.2,1.5l-5.8-42.1l11.1-1.5c-2.2-32.6,0.7-65.5,8.9-97.5l-12.8-2.9l11.7-40.9
	l14.6,3.3c8.9-21.7,20.5-42.7,34.7-62.5L-971.4-554z"/>
</svg>
