<?xml version="1.0" encoding="utf-8"?>
<!-- Generator: Adobe Illustrator 25.0.0, SVG Export Plug-In . SVG Version: 6.00 Build 0)  -->
<svg version="1.1" id="Layer_1" xmlns="http://www.w3.org/2000/svg" xmlns:xlink="http://www.w3.org/1999/xlink" x="0px" y="0px"
	 viewBox="0 0 841.9 595.3" style="enable-background:new 0 0 841.9 595.3;" xml:space="preserve">
<style type="text/css">
	.st0{fill:none;stroke:#3A53A4;stroke-width:8.504000e-03;}
</style>
<g>
	<path class="st0" d="M409.3-23.7V-7c0,0.8-0.6,1.4-1.4,1.4h-14.4c-0.8,0-1.4-0.6-1.4-1.4v-16.7h-74.9c-7.5,78.5-73.6,140-154.1,140
		c-59.2,0-110.6-33.2-136.6-82H9.2v-4.1c-2.5-0.3-23.1-3-38.1-8.6c-16-6-26.2-11.5-40-26l-8.3-11.7l-65.3-7.5h-24.2V-7
		c0,0.8-0.6,1.4-1.4,1.4h-14.4c-0.8,0-1.4-0.6-1.4-1.4v-16.7h-379.7V-7c0,0.8-0.6,1.4-1.4,1.4h-14.4c-0.8,0-1.4-0.6-1.4-1.4v-16.7
		h-33.7v0.1h-36.7v13.3c0.5,6.5,8.5,8.7,11.8,3.1c0-0.6,0-1.1,0-1.7c0-0.8,0.6-1.5,1.4-1.5h4c0.7,0,1.1,0.3,1.4,0.9
		c1.1,5.4,7.5,7.2,10.9,3.2c1.9,8.8,9,15,17.3,15v0c1.6,23.4,19.5,41.5,41,41.5V50c11.6-14.3,18.4-24.6,27.3-32.7
		c8.9-8.2,19.9-14.3,33.8-17.3c13.8-3,30.5-2.7,47.9-1.4c17.4,1.3,35.6,3.7,52.6,10.3c17.1,6.6,33.1,12.4,48.1,23.5
		c15,11.1,29.1,22.4,40.2,29.3c11.1,7,19.3,9.5,27,10.7c7.7,1.3,14.8,1.3,21.7,0.1c6.9-1.1,13.6-3.4,19.7-8
		c6.1-4.5,11.9-11.2,14.3-20.9V41c10.1,3.1,20.1-3.3,22.7-13.4h11.1v2.3c12.1,20.5,33.4,17.4,43.4-2.3h11.8c1.4,3.5,3.2,6.5,5.9,8.8
		c5.3,4.7,12,8.7,16.7,9.3c7.3,1,19,1.6,25.2,2.6c6.2,1,11.7,2.1,17,3.7c5.5,1.7,10.9,3.9,15.1,6.6c4.3,2.6,6,3.7,9.1,6.8
		c3.2,3.1,7.5,6.9,10.5,10c3,3.1,7.7,7.8,11,11c3.2,3.2,7.1,8.4,12,12c7.2,5.3,16.4,7.9,26.2,4.2c37.6,41.8,91.7,68.4,152.1,69.7
		c7.2,6.5,2.5,11.8,2.5,11.8c-26.9,44.5-26.4,93.1,6.9,134.8c33.3,41.7,61.3,38.2,108.2,70.7c60.1,41.5,80.6,84.3,80.6,126.2
		c0,78.1-47.2,96.9-72.4,100v-0.1c-1.8-3.3-3.5-6.7-5.3-10h-6v-3c-3.5-7.2-14.5-7.2-18,0v3c-2,0-4,0-6.1,0c-2,3.3-4,6.7-6,10h-10.9
		v0c0.2-3.3-2.1-6-5.2-6.6c-0.5-4.1-3.9-7.4-8.1-7.7v-9.5c-12.7-9-20.2-22.9-20.2-37.8v-40.9c-12.4,2.1-17.2,5.4-17.7,12v50.4
		c-0.7,3.3-1,5.2-1.3,6.6c-0.3,1.4-0.7,2.4-1.1,3.4c-0.4,1-0.9,1.9-1.4,2.8c-0.6,0.9-1.3,1.7-1.9,2.3c-0.7,0.6-1.3,1-2,1.4
		c-0.6,0.4-1.2,0.7-1.9,1.2c-0.7,0.4-1.5,1-2.2,1.8c-0.7,0.8-1.2,2-1.6,3.7c-0.4,1.7-0.7,3.9-1.2,8.5v0.3c-3.4,0-6.2,2.9-5.9,6.3
		v1.1h-30.3c0.1-4.1-1.9-6.3-7-7.7c-0.2-0.7-0.4-1.3-0.6-1.9c-0.6-1.6-1.5-3.1-2.5-4.5c-1-1.4-2.1-2.7-3.6-3.4
		c-1.5-0.7-3.5-0.8-5.2-0.5c-1.7,0.3-3.2,0.9-3.9,2.7c-1.6,0-3.1,0-4.7,0c-1.9-1.7-3.8-3.3-5.8-5h-5.2c0-4-3.4-7.1-7.7-7.1
		c-4.2,0-7.7,3.2-7.7,7.2v0.1H71v0.1c-2,5-4,9.9-6,14.9v0.6c-75.7,0-151.5,0-227.2,0c-2.8,1.2-1.3,5-0.9,9c0.8,8,1.1,13.8,1.1,18.3
		h-2c-2.7-6.4-12.3-11.8-16.4-11.2c-6.8,1-19.4,3.9-27.1,5.8c-7.8,1.9-33.9,9.7-33.9,9.7c0,0,25.2,7.8,31,9.7
		c5.8,1.9,26.2,6.8,31,5.8c4.4-0.9,10.3-4.1,14.3-11.1h2.6c-1,7.5-2.9,10.6-1.8,23.9c0.3,4,2.7,3.1,2.5,3.8H65v0.6c2,5,4,9.9,6,14.9
		v0.1h5.3v0.1c0,3.9,3.5,7.2,7.7,7.2c4.2,0,7.7-3.2,7.7-7.1h5.2c1.9-1.7,3.8-3.3,5.8-5h4.7c0.7,1.9,2.2,2.5,3.9,2.8
		c1.7,0.3,3.7,0.2,5.2-0.5c1.5-0.7,2.6-2,3.6-3.4c1-1.4,1.9-2.9,2.5-4.5c0.2-0.6,0.4-1.2,0.6-1.9c5.1-1.3,7.1-3.5,7-7.7
		c10.1,0,20.2,0,30.3,0v1.1c-0.3,3.5,2.5,6.3,5.9,6.3v0.3c0.6,4.6,0.8,6.9,1.2,8.6c0.4,1.7,1,2.9,1.6,3.7c0.7,0.8,1.5,1.4,2.2,1.8
		c0.7,0.4,1.3,0.8,1.9,1.2c0.6,0.4,1.3,0.8,2,1.4c0.6,0.6,1.3,1.4,1.9,2.3c0.6,0.9,1,1.8,1.4,2.8c0.4,1,0.8,2,1.1,3.4
		c0.3,1.4,0.7,3.2,1.3,6.6v50.4c0.5,6.7,5.3,10,17.7,12v-40.9c0.1-14.9,7.5-28.9,20.2-37.8v-9.5c4.2-0.3,7.6-3.6,8.1-7.7
		c3.1-0.5,5.4-3.3,5.2-6.6h10.9c2,3.3,4,6.7,6,10h6.1v2.9c3.5,7.2,14.5,7.2,18,0V679h6c1.8-3.3,3.5-6.7,5.3-10v-1.1
		C324.1,665,408,640.1,408,517.6c0-67.9-31.9-132.4-109.8-176.9c-52.3-29.9-87.9-36.9-97.2-78.4c-7.1-31.7,9.4-76.6,68.4-108.4
		c0,0,4.8-4.3,2.9-11.9c42-25.4,74.5-65,90.7-112.2h9c2.1,3.5,5.3,6.6,9.7,9.5v0.3c3.5,22,38.9,19.7,38.9-2.6V34
		c0,0,15.1-21.7,42.5-30c0,0,28-12.1,44.5,15c22.4,0,41.1-18.6,43.3-42.8H409.3z M-201.9,1.4c0,0.8-0.6,1.4-1.4,1.4h-15.1
		c-0.8,0-1.4-0.6-1.4-1.4v-6.1c0-0.8,0.6-1.4,1.4-1.4h15.1c0.8,0,1.4,0.6,1.4,1.4V1.4z M374.1,1.4c0,0.8-0.6,1.4-1.4,1.4h-15.1
		c-0.8,0-1.4-0.6-1.4-1.4v-6.1c0-0.8,0.6-1.4,1.4-1.4h15.1c0.8,0,1.4,0.6,1.4,1.4V1.4z"/>
</g>
<g>
	<path class="st0" d="M1470.2,782c0,0.6,0,1.1,0,1.7c0,0.8-0.6,1.5-1.4,1.5h-4c-0.7,0-1.1-0.3-1.4-0.9c-1.1-5.4-7.5-7.2-10.9-3.2
		c-1.9-8.8-9-15-17.3-15v0c-1.6-23.4-19.5-41.5-41-41.5v0.3c-11.6,14.3-18.4,24.6-27.3,32.7c-8.9,8.2-19.9,14.3-33.8,17.3
		c-13.8,3-30.5,2.7-47.9,1.4c-17.4-1.3-35.6-3.7-52.6-10.3c-17.1-6.6-33.1-12.4-48.1-23.5c-15-11.1-29.1-22.4-40.2-29.3
		c-11.1-7-19.3-9.5-27-10.7c-7.7-1.3-14.8-1.3-21.7-0.1c-6.9,1.1-13.6,3.4-19.7,8c-6.1,4.5-11.9,11.2-14.3,20.9v2.7
		c-10.1-3.1-20.1,3.3-22.7,13.4h-11.1v-2.3c-12.1-20.5-33.4-17.4-43.4,2.3h-11.8c-1.4-3.5-3.2-6.5-5.9-8.8c-5.3-4.7-12-8.7-16.7-9.3
		c-7.3-1-19-1.6-25.2-2.6c-6.2-1-11.7-2.1-17-3.7c-5.5-1.7-10.9-3.9-15.1-6.6c-4.3-2.6-6-3.7-9.1-6.8c-3.2-3.1-7.5-6.9-10.5-10
		c-3-3.1-7.7-7.8-11-11c-3.2-3.2-7.1-8.4-12-12c-7.2-5.2-16.4-7.9-26.2-4.2c-37.6-41.8-91.7-68.4-152.1-69.7
		c-7.2-6.5-2.5-11.8-2.5-11.8c26.9-44.5,26.4-93.1-6.9-134.8c-33.3-41.7-61.3-38.2-108.2-70.7c-60.1-41.5-80.6-84.3-80.6-126.2
		c0-78.1,47.2-96.9,72.4-100v0.1c1.8,3.3,3.5,6.7,5.3,10h6v3c3.5,7.2,14.5,7.2,18,0v-3h6.1c2-3.3,4-6.7,6-10h10.9v0
		c-0.2,3.3,2.1,6,5.2,6.6c0.5,4.1,3.9,7.4,8.1,7.7v9.5c12.7,9,20.2,22.9,20.2,37.8v40.9c12.4-2.1,17.2-5.4,17.7-12v-50.4
		c0.7-3.3,1-5.2,1.3-6.6c0.3-1.4,0.7-2.4,1.1-3.4c0.4-1,0.9-1.9,1.4-2.8c0.6-0.9,1.3-1.7,1.9-2.3c0.7-0.6,1.3-1,2-1.4
		c0.6-0.4,1.2-0.7,1.9-1.2c0.7-0.4,1.5-1,2.2-1.8c0.7-0.8,1.2-2,1.6-3.7c0.4-1.7,0.7-3.9,1.2-8.5v-0.3c3.4,0,6.2-2.9,5.9-6.3v-1.1
		h30.3c-0.1,4.1,1.9,6.3,7,7.7c0.2,0.7,0.4,1.3,0.6,1.9c0.6,1.6,1.5,3.1,2.5,4.5c1,1.4,2.1,2.7,3.6,3.4c1.5,0.7,3.5,0.8,5.2,0.5
		c1.7-0.3,3.2-0.9,3.9-2.7c1.6,0,3.1,0,4.7,0c1.9,1.7,3.8,3.3,5.8,5h5.2c0,4,3.4,7.1,7.7,7.1c4.2,0,7.7-3.2,7.7-7.2v-0.1h5.3v-0.1
		c2-5,4-9.9,6-14.9v-0.6h227.2c2.8-1.2,1.3-5,0.9-9c-0.8-8-1.1-13.8-1.1-18.3h2c2.7,6.4,12.3,11.8,16.4,11.2
		c6.8-1,19.4-3.9,27.1-5.8c7.8-1.9,33.9-9.7,33.9-9.7c0,0-25.2-7.8-31-9.7c-5.8-1.9-26.2-6.8-31-5.8c-4.4,0.9-10.3,4.1-14.3,11.1
		h-2.6c1-7.5,2.9-10.6,1.8-23.9c-0.3-4-2.7-3.1-2.5-3.8H765.6V100c-2-5-4-9.9-6-14.9v-0.1h-5.3V85c0-3.9-3.5-7.2-7.7-7.2
		c-4.2,0-7.7,3.2-7.7,7.1h-5.2c-1.9,1.7-3.8,3.3-5.8,5h-4.7c-0.7-1.9-2.2-2.5-3.9-2.8c-1.7-0.3-3.7-0.2-5.2,0.5
		c-1.5,0.7-2.6,2-3.6,3.4c-1,1.4-1.9,2.9-2.5,4.5c-0.2,0.6-0.4,1.2-0.6,1.9c-5.1,1.3-7.1,3.5-7,7.7h-30.3v-1.1
		c0.3-3.5-2.5-6.3-5.9-6.3v-0.3c-0.6-4.6-0.8-6.9-1.2-8.6c-0.4-1.7-1-2.9-1.6-3.7c-0.7-0.8-1.5-1.4-2.2-1.8
		c-0.7-0.4-1.3-0.8-1.9-1.2c-0.6-0.4-1.3-0.8-2-1.4c-0.6-0.6-1.3-1.4-1.9-2.3c-0.6-0.9-1-1.8-1.4-2.8c-0.4-1-0.8-2-1.1-3.4
		c-0.3-1.4-0.7-3.2-1.3-6.6V15.3c-0.5-6.7-5.3-10-17.7-12v40.9C631.7,59,624.2,73,611.5,82v9.5c-4.2,0.3-7.6,3.6-8.1,7.7
		c-3.1,0.5-5.4,3.3-5.2,6.6h-10.9c-2-3.3-4-6.7-6-10h-6.1v-2.9c-3.5-7.2-14.5-7.2-18,0v2.9h-6c-1.8,3.3-3.5,6.7-5.3,10v1.1
		c-39.3,2.8-123.2,27.8-123.2,150.2c0,67.9,31.9,132.4,109.8,176.9c52.3,29.9,87.9,36.9,97.2,78.4c7.1,31.7-9.4,76.6-68.4,108.4
		c0,0-4.8,4.3-2.9,11.9c-42,25.4-74.5,65-90.7,112.2h-9c-2.1-3.5-5.3-6.6-9.7-9.5v-0.3c-3.5-22-38.9-19.7-38.9,2.6v3.1
		c0,0-15.1,21.7-42.5,30c0,0-28,12.1-44.5-15c-22.4,0-41.1,18.6-43.3,42.8h141.5v-16.7c0-0.8,0.6-1.4,1.4-1.4h14.4
		c0.8,0,1.4,0.6,1.4,1.4v16.7h74.9c7.5-78.5,73.6-140,154.1-140c59.2,0,110.6,33.2,136.6,82h17.2v4.1c2.5,0.3,23.1,3,38.1,8.6
		c16,6,26.2,11.5,40,26l8.3,11.7l65.3,7.5h24.2v-16.7c0-0.8,0.6-1.4,1.4-1.4h14.4c0.8,0,1.4,0.6,1.4,1.4v16.7h379.7v-16.7
		c0-0.8,0.6-1.4,1.4-1.4h14.4c0.8,0,1.4,0.6,1.4,1.4v16.7h33.7v-0.1h36.7v-13.3C1481.4,778.6,1473.5,776.5,1470.2,782z M474.6,779.5
		c0,0.8-0.6,1.4-1.4,1.4H458c-0.8,0-1.4-0.6-1.4-1.4v-6.1c0-0.8,0.6-1.4,1.4-1.4h15.1c0.8,0,1.4,0.6,1.4,1.4V779.5z M1050.6,779.5
		c0,0.8-0.6,1.4-1.4,1.4H1034c-0.8,0-1.4-0.6-1.4-1.4v-6.1c0-0.8,0.6-1.4,1.4-1.4h15.1c0.8,0,1.4,0.6,1.4,1.4V779.5z"/>
</g>
<g>
	<path class="st0" d="M1351.7-203.5v16.7c0,0.8-0.6,1.4-1.4,1.4h-14.4c-0.8,0-1.4-0.6-1.4-1.4v-16.7h-74.9
		c-7.5,78.5-73.6,140-154.1,140c-59.2,0-110.6-33.2-136.6-82h-17.2v-4.1c-2.5-0.3-23.1-3-38.1-8.6c-16-6-26.2-11.5-40-26l-8.3-11.7
		l-65.3-7.5h-24.2v16.7c0,0.8-0.6,1.4-1.4,1.4h-14.4c-0.8,0-1.4-0.6-1.4-1.4v-16.7H378.7v16.7c0,0.8-0.6,1.4-1.4,1.4h-14.4
		c-0.8,0-1.4-0.6-1.4-1.4v-16.7h-33.7v0.1H291v13.3c0.5,6.5,8.5,8.7,11.8,3.1c0-0.6,0-1.1,0-1.7c0-0.8,0.6-1.5,1.4-1.5h4
		c0.7,0,1.1,0.3,1.4,0.9c1.1,5.4,7.5,7.2,10.9,3.2c1.9,8.8,9,15,17.3,15v0c1.6,23.4,19.5,41.5,41,41.5v-0.3
		c11.6-14.3,18.4-24.6,27.3-32.7c8.9-8.2,19.9-14.3,33.8-17.3c13.8-3,30.5-2.7,47.9-1.4c17.4,1.3,35.6,3.7,52.6,10.3
		c17.1,6.6,33.1,12.4,48.1,23.5c15,11.1,29.1,22.4,40.2,29.3c11.1,7,19.3,9.5,27,10.7c7.7,1.3,14.8,1.3,21.7,0.1
		c6.9-1.1,13.6-3.4,19.7-8c6.1-4.5,11.9-11.2,14.3-20.9v-2.7c10.1,3.1,20.1-3.3,22.7-13.4h11.1v2.3c12.1,20.5,33.4,17.4,43.4-2.3
		h11.8c1.4,3.5,3.2,6.5,5.9,8.8c5.3,4.7,12,8.7,16.7,9.3c7.3,1,19,1.6,25.2,2.6c6.2,1,11.7,2.1,17,3.7c5.5,1.7,10.9,3.9,15.1,6.6
		c4.3,2.6,6,3.7,9.1,6.8c3.2,3.1,7.5,6.9,10.5,10c3,3.1,7.7,7.8,11,11c3.2,3.2,7.1,8.4,12,12c7.2,5.3,16.4,7.9,26.2,4.2
		c37.6,41.8,91.7,68.4,152.1,69.7c7.2,6.5,2.5,11.8,2.5,11.8c-26.9,44.5-26.4,93.1,6.9,134.8c33.3,41.7,61.3,38.2,108.2,70.7
		c60.1,41.5,80.6,84.3,80.6,126.2c0,78.1-47.2,96.9-72.4,100v-0.1c-1.8-3.3-3.5-6.7-5.3-10h-6v-3c-3.5-7.2-14.5-7.2-18,0v3h-6.1
		c-2,3.3-4,6.7-6,10h-10.9v0c0.2-3.3-2.1-6.1-5.2-6.6c-0.5-4.1-3.9-7.4-8.1-7.7v-9.5c-12.7-9-20.2-22.9-20.2-37.8v-40.9
		c-12.4,2.1-17.2,5.4-17.7,12v50.4c-0.7,3.3-1,5.2-1.3,6.6c-0.3,1.4-0.7,2.4-1.1,3.4c-0.4,1-0.9,1.9-1.4,2.8
		c-0.6,0.9-1.3,1.7-1.9,2.3c-0.7,0.6-1.3,1-2,1.4c-0.6,0.4-1.2,0.7-1.9,1.2c-0.7,0.4-1.5,1-2.2,1.8c-0.7,0.8-1.2,2-1.6,3.7
		c-0.4,1.7-0.7,3.9-1.2,8.5v0.3c-3.4,0-6.2,2.9-5.9,6.3v1.1h-30.3c0.1-4.2-1.9-6.3-7-7.7c-0.2-0.7-0.4-1.3-0.6-1.9
		c-0.6-1.6-1.5-3.1-2.5-4.5c-1-1.4-2.1-2.7-3.6-3.4c-1.5-0.7-3.5-0.8-5.2-0.5c-1.7,0.3-3.2,0.9-3.9,2.7c-1.6,0-3.1,0-4.7,0
		c-1.9-1.7-3.8-3.3-5.8-5h-5.2c0-3.9-3.4-7.1-7.7-7.1c-4.2,0-7.7,3.2-7.7,7.2v0.1h-5.3v0.1c-2,5-4,9.9-6,14.9v0.6H780.1
		c-2.8,1.2-1.3,5-0.9,9c0.8,8,1.1,13.8,1.1,18.3h-2c-2.7-6.4-12.3-11.8-16.4-11.2c-6.8,1-19.4,3.9-27.1,5.8
		c-7.8,1.9-33.9,9.7-33.9,9.7c0,0,25.2,7.8,31,9.7c5.8,1.9,26.2,6.8,31,5.8c4.4-0.9,10.3-4.1,14.3-11.1h2.6
		c-1,7.5-2.9,10.6-1.8,23.9c0.3,4,2.7,3.1,2.5,3.8h226.9v0.6c2,5,4,9.9,6,14.9v0.1h5.3v0.1c0,3.9,3.5,7.2,7.7,7.2
		c4.2,0,7.7-3.2,7.7-7.1h5.2c1.9-1.7,3.8-3.3,5.8-5h4.7c0.7,1.9,2.2,2.5,3.9,2.8c1.7,0.3,3.7,0.2,5.2-0.5c1.5-0.7,2.6-2,3.6-3.4
		c1-1.4,1.9-2.9,2.5-4.5c0.2-0.6,0.4-1.2,0.6-1.9c5.1-1.3,7.1-3.5,7-7.7h30.3v1.1c-0.3,3.5,2.5,6.3,5.9,6.3v0.3
		c0.6,4.6,0.8,6.9,1.2,8.6c0.4,1.7,1,2.9,1.6,3.7c0.7,0.8,1.5,1.4,2.2,1.8c0.7,0.4,1.3,0.8,1.9,1.2c0.6,0.4,1.3,0.8,2,1.4
		c0.6,0.6,1.3,1.4,1.9,2.3c0.6,0.9,1,1.8,1.4,2.8c0.4,1,0.8,2,1.1,3.4c0.3,1.4,0.7,3.2,1.3,6.6v50.4c0.5,6.7,5.3,10,17.7,12v-40.9
		c0.1-14.9,7.5-28.9,20.2-37.8v-9.5c4.2-0.3,7.6-3.6,8.1-7.7c3.1-0.5,5.4-3.3,5.2-6.6h10.9c2,3.3,4,6.7,6,10h6.1v2.9
		c3.5,7.2,14.5,7.2,18,0v-2.9h6c1.8-3.3,3.5-6.7,5.3-10v-1.1c39.3-2.8,123.2-27.8,123.2-150.2c0-67.9-31.9-132.4-109.8-176.9
		c-52.3-29.9-87.9-36.9-97.2-78.4c-7.1-31.7,9.4-76.6,68.4-108.4c0,0,4.8-4.3,2.9-11.9c42-25.4,74.5-65,90.7-112.2h9
		c2.1,3.5,5.3,6.6,9.7,9.5v0.3c3.5,22,38.9,19.7,38.9-2.6v-3.1c0,0,15.1-21.7,42.5-30c0,0,28-12.1,44.5,15
		c22.4,0,41.1-18.6,43.3-42.8H1351.7z M740.4-178.4c0,0.8-0.6,1.4-1.4,1.4h-15.1c-0.8,0-1.4-0.6-1.4-1.4v-6.1c0-0.8,0.6-1.4,1.4-1.4
		H739c0.8,0,1.4,0.6,1.4,1.4V-178.4z M1316.4-178.4c0,0.8-0.6,1.4-1.4,1.4h-15.1c-0.8,0-1.4-0.6-1.4-1.4v-6.1c0-0.8,0.6-1.4,1.4-1.4
		h15.1c0.8,0,1.4,0.6,1.4,1.4V-178.4z"/>
</g>
<g>
	<path class="st0" d="M-411.3,1048.5c0.4-0.7,1.3-0.9,2-0.5c7.3,4.1,14.5,8.2,21.8,12.3c2.7,2.7,5.7,4.4,9.4,5.3
		c8.1-19,8.1-40.5,0-59.5c-3.7,0.9-6.7,2.6-9.4,5.3c-7.3,4.1-14.5,8.2-21.8,12.3c-0.7,0.4-1.6,0.2-2-0.5c-2.4-4.2-4.8-8.3-7.2-12.5
		c-0.4-0.7-0.2-1.6,0.5-2c7.2-4.2,14.4-8.5,21.6-12.7c3.7-1,6.6-2.7,9.3-5.5c-12.4-16.5-31-27.3-51.5-29.7c-1,3.7-1.1,7.1-0.1,10.8
		c-0.1,8.3-0.2,16.7-0.2,25c0,0.8-0.7,1.4-1.4,1.4h-14.4c-0.8,0-1.4-0.6-1.4-1.4c-0.1-8.3-0.2-16.7-0.2-25c1-3.7,0.9-7.1-0.1-10.8
		c-20.5,2.5-39.1,13.2-51.5,29.7c2.7,2.8,5.6,4.5,9.3,5.5c7.2,4.2,14.4,8.5,21.6,12.7c0.7,0.4,0.9,1.3,0.5,2
		c-2.4,4.2-4.8,8.3-7.2,12.5c-0.4,0.7-1.3,0.9-2,0.5c-7.3-4.1-14.5-8.2-21.8-12.3c-2.7-2.7-5.7-4.4-9.4-5.3c-8.1,19-8.1,40.5,0,59.5
		c3.7-0.9,6.7-2.6,9.4-5.3c7.3-4.1,14.5-8.2,21.8-12.3c0.7-0.4,1.6-0.2,2,0.5c2.4,4.2,4.8,8.3,7.2,12.5c0.4,0.7,0.2,1.6-0.5,2
		c-7.2,4.2-14.4,8.5-21.6,12.7c-3.7,1-6.6,2.7-9.3,5.5c12.4,16.5,31,27.3,51.5,29.7c1-3.7,1.1-7.1,0.1-10.8c0.1-8.3,0.2-16.7,0.2-25
		c0-0.8,0.7-1.4,1.4-1.4h14.4c0.8,0,1.4,0.6,1.4,1.4c0.1,8.3,0.2,16.7,0.2,25c-1,3.7-0.9,7.1,0.1,10.8c20.5-2.5,39.1-13.2,51.5-29.7
		c-2.7-2.8-5.6-4.5-9.3-5.5c-7.2-4.2-14.4-8.5-21.6-12.7c-0.7-0.4-0.9-1.3-0.5-2C-416.1,1056.9-413.7,1052.7-411.3,1048.5z
		 M-447.6,1045.9c-5.6,0-10.1-4.5-10.1-10.1c0-5.6,4.5-10.1,10.1-10.1c5.6,0,10.1,4.5,10.1,10.1
		C-437.5,1041.4-442.1,1045.9-447.6,1045.9z"/>
</g>
<g>
	<path class="st0" d="M142.3,958c-42.2,0-76.5,34.2-76.5,76.5c0,42.2,34.2,76.5,76.5,76.5s76.5-34.2,76.5-76.5
		C218.8,992.3,184.5,958,142.3,958z M142.3,1079.5c-24.9,0-45-20.1-45-45c0-24.9,20.1-45,45-45s45,20.1,45,45
		C187.3,1059.4,167.1,1079.5,142.3,1079.5z"/>
</g>
<g>
	<path class="st0" d="M541.1,1146v16.7c0,0.8-0.6,1.4-1.4,1.4h-14.4c-0.8,0-1.4-0.6-1.4-1.4V1146h-74.9
		c-7.5,78.5-73.6,140-154.1,140c-59.2,0-110.6-33.2-136.6-82H141v-4.1c-2.5-0.3-23.1-3-38.1-8.6c-16-6-26.2-11.5-40-26l-8.3-11.7
		l-65.3-7.5h-24.2v16.7c0,0.8-0.6,1.4-1.4,1.4h-14.4c-0.8,0-1.4-0.6-1.4-1.4V1146h-379.7v16.7c0,0.8-0.6,1.4-1.4,1.4h-14.4
		c-0.8,0-1.4-0.6-1.4-1.4V1146h-33.7v0.1h-36.7v13.3c0.5,6.5,8.5,8.7,11.8,3.1c0-0.6,0-1.1,0-1.7c0-0.8,0.6-1.5,1.4-1.5h4
		c0.7,0,1.1,0.3,1.4,0.9c1.1,5.4,7.5,7.2,10.9,3.2c1.9,8.8,9,15,17.3,15v0c1.6,23.4,19.5,41.5,41,41.5v-0.3
		c11.6-14.3,18.4-24.6,27.3-32.7c8.9-8.2,19.9-14.3,33.8-17.3c13.8-3,30.5-2.7,47.9-1.4c17.4,1.3,35.6,3.7,52.6,10.3
		c17.1,6.6,33.1,12.4,48.1,23.5c15,11.1,29.1,22.4,40.2,29.3c11.1,7,19.3,9.5,27,10.7c7.7,1.3,14.8,1.3,21.7,0.1
		c6.9-1.1,13.6-3.4,19.7-8c6.1-4.5,11.9-11.2,14.3-20.9v-2.7c10.1,3.1,20.1-3.3,22.7-13.4h11.1v2.3c12.1,20.5,33.4,17.4,43.4-2.3
		h11.8c1.4,3.5,3.2,6.5,5.9,8.8c5.3,4.7,12,8.7,16.7,9.3c7.3,1,19,1.6,25.2,2.6c6.2,1,11.7,2.1,17,3.7c5.5,1.7,10.9,3.9,15.1,6.6
		c4.3,2.6,6,3.7,9.1,6.8c3.2,3.1,7.5,6.9,10.5,10c3,3.1,7.7,7.8,11,11c3.2,3.2,7.1,8.4,12,12c7.2,5.3,16.4,7.9,26.2,4.2
		c37.6,41.8,91.7,68.4,152.1,69.7c7.2,6.5,2.5,11.8,2.5,11.8c-26.9,44.5-26.4,93.1,6.9,134.8c33.3,41.7,61.3,38.2,108.2,70.7
		c60.1,41.5,80.6,84.3,80.6,126.2c0,78.1-47.2,96.9-72.4,100v-0.1c-1.8-3.3-3.5-6.7-5.3-10h-6v-3c-3.5-7.2-14.5-7.2-18,0v3
		c-2,0-4,0-6.1,0c-2,3.3-4,6.7-6,10h-10.9v0c0.2-3.3-2.1-6-5.2-6.6c-0.5-4.1-3.9-7.4-8.1-7.7v-9.5c-12.7-9-20.2-22.9-20.2-37.8
		v-40.9c-12.4,2.1-17.2,5.4-17.7,12v50.4c-0.7,3.3-1,5.2-1.3,6.6c-0.3,1.4-0.7,2.4-1.1,3.4c-0.4,1-0.9,1.9-1.4,2.8
		c-0.6,0.9-1.3,1.7-1.9,2.3c-0.7,0.6-1.3,1-2,1.4c-0.6,0.4-1.2,0.7-1.9,1.2c-0.7,0.4-1.5,1-2.2,1.8c-0.7,0.8-1.2,2-1.6,3.7
		c-0.4,1.7-0.7,3.9-1.2,8.5v0.3c-3.4,0-6.2,2.9-5.9,6.3v1.1H262c0.1-4.1-1.9-6.3-7-7.7c-0.2-0.7-0.4-1.3-0.6-1.9
		c-0.6-1.6-1.5-3.1-2.5-4.5c-1-1.4-2.1-2.7-3.6-3.4c-1.5-0.7-3.5-0.8-5.2-0.5c-1.7,0.3-3.2,0.9-3.9,2.7c-1.6,0-3.1,0-4.7,0
		c-1.9-1.7-3.8-3.3-5.8-5h-5.2c0-4-3.4-7.1-7.7-7.1c-4.2,0-7.7,3.2-7.7,7.2v0.1h-5.3v0.1c-2,5-4,9.9-6,14.9v0.6
		c-75.7,0-151.5,0-227.2,0c-2.8,1.2-1.3,5-0.9,9c0.8,8,1.1,13.8,1.1,18.3h-2c-2.7-6.4-12.3-11.8-16.4-11.2c-6.8,1-19.4,3.9-27.1,5.8
		c-7.8,1.9-33.9,9.7-33.9,9.7c0,0,25.2,7.8,31,9.7c5.8,1.9,26.2,6.8,31,5.8c4.4-0.9,10.3-4.1,14.3-11.1h2.6
		c-1,7.5-2.9,10.6-1.8,23.9c0.3,4,2.7,3.1,2.5,3.8h226.9v0.6c2,5,4,9.9,6,14.9v0.1h5.3v0.1c0,3.9,3.5,7.2,7.7,7.2
		c4.2,0,7.7-3.2,7.7-7.1h5.2c1.9-1.7,3.8-3.3,5.8-5h4.7c0.7,1.9,2.2,2.5,3.9,2.8c1.7,0.3,3.7,0.2,5.2-0.5c1.5-0.7,2.6-2,3.6-3.4
		c1-1.4,1.9-2.9,2.5-4.5c0.2-0.6,0.4-1.2,0.6-1.9c5.1-1.3,7.1-3.5,7-7.7c10.1,0,20.2,0,30.3,0v1.1c-0.3,3.5,2.5,6.3,5.9,6.3v0.3
		c0.6,4.6,0.8,6.9,1.2,8.6c0.4,1.7,1,2.9,1.6,3.7c0.7,0.8,1.5,1.4,2.2,1.8c0.7,0.4,1.3,0.8,1.9,1.2c0.6,0.4,1.3,0.8,2,1.4
		c0.6,0.6,1.3,1.4,1.9,2.3c0.6,0.9,1,1.8,1.4,2.8c0.4,1,0.8,2,1.1,3.4c0.3,1.4,0.7,3.2,1.3,6.6v50.4c0.5,6.7,5.3,10,17.7,12v-40.9
		c0.1-14.9,7.5-28.9,20.2-37.8v-9.5c4.2-0.3,7.6-3.6,8.1-7.7c3.1-0.5,5.4-3.3,5.2-6.6h10.9c2,3.3,4,6.7,6,10h6.1v2.9
		c3.5,7.2,14.5,7.2,18,0v-2.9h6c1.8-3.3,3.5-6.7,5.3-10v-1.1c39.3-2.8,123.2-27.8,123.2-150.2c0-67.9-31.9-132.4-109.8-176.9
		c-52.3-29.9-87.9-36.9-97.2-78.4c-7.1-31.7,9.4-76.6,68.4-108.4c0,0,4.8-4.3,2.9-11.9c42-25.4,74.5-65,90.7-112.2h9
		c2.1,3.5,5.3,6.6,9.7,9.5v0.3c3.5,22,38.9,19.7,38.9-2.6v-3.1c0,0,15.1-21.7,42.5-30c0,0,28-12.1,44.5,15
		c22.4,0,41.1-18.6,43.3-42.8H541.1z M-70.2,1171.1c0,0.8-0.6,1.4-1.4,1.4h-15.1c-0.8,0-1.4-0.6-1.4-1.4v-6.1c0-0.8,0.6-1.4,1.4-1.4
		h15.1c0.8,0,1.4,0.6,1.4,1.4V1171.1z M505.8,1171.1c0,0.8-0.6,1.4-1.4,1.4h-15.1c-0.8,0-1.4-0.6-1.4-1.4v-6.1
		c0-0.8,0.6-1.4,1.4-1.4h15.1c0.8,0,1.4,0.6,1.4,1.4V1171.1z"/>
</g>
<g>
	<path class="st0" d="M1602,1951.7c0,0.6,0,1.1,0,1.7c0,0.8-0.6,1.5-1.4,1.5h-4c-0.7,0-1.1-0.3-1.4-0.9c-1.1-5.4-7.5-7.2-10.9-3.2
		c-1.9-8.8-9-15-17.3-15v0c-1.6-23.4-19.5-41.5-41-41.5v0.3c-11.6,14.3-18.4,24.6-27.3,32.7c-8.9,8.2-19.9,14.3-33.8,17.3
		c-13.8,3-30.5,2.7-47.9,1.4c-17.4-1.3-35.6-3.7-52.6-10.3c-17.1-6.6-33.1-12.4-48.1-23.5c-15-11.1-29.1-22.4-40.2-29.3
		c-11.1-7-19.3-9.5-27-10.7c-7.7-1.3-14.8-1.3-21.7-0.1c-6.9,1.1-13.6,3.4-19.7,8c-6.1,4.5-11.9,11.2-14.3,20.9v2.7
		c-10.1-3.1-20.1,3.3-22.7,13.4h-11.1v-2.3c-12.1-20.5-33.4-17.4-43.4,2.3h-11.8c-1.4-3.5-3.2-6.5-5.9-8.8c-5.3-4.7-12-8.7-16.7-9.3
		c-7.3-1-19-1.6-25.2-2.6c-6.2-1-11.7-2.1-17-3.7c-5.5-1.7-10.9-3.9-15.1-6.6c-4.3-2.6-6-3.7-9.1-6.8c-3.2-3.1-7.5-6.9-10.5-10
		c-3-3.1-7.7-7.8-11-11c-3.2-3.2-7.1-8.4-12-12c-7.2-5.2-16.4-7.9-26.2-4.2c-37.6-41.8-91.7-68.4-152.1-69.7
		c-7.2-6.5-2.5-11.8-2.5-11.8c26.9-44.5,26.4-93.1-6.9-134.8c-33.3-41.7-61.3-38.2-108.2-70.7c-60.1-41.5-80.6-84.3-80.6-126.2
		c0-78.1,47.2-96.9,72.4-100v0.1c1.8,3.3,3.5,6.7,5.3,10h6v3c3.5,7.2,14.5,7.2,18,0v-3h6.1c2-3.3,4-6.7,6-10h10.9v0
		c-0.2,3.3,2.1,6,5.2,6.6c0.5,4.1,3.9,7.4,8.1,7.7v9.5c12.7,9,20.2,22.9,20.2,37.8v40.9c12.4-2.1,17.2-5.4,17.7-12v-50.4
		c0.7-3.3,1-5.2,1.3-6.6c0.3-1.4,0.7-2.4,1.1-3.4c0.4-1,0.9-1.9,1.4-2.8c0.6-0.9,1.3-1.7,1.9-2.3c0.7-0.6,1.3-1,2-1.4
		c0.6-0.4,1.2-0.7,1.9-1.2c0.7-0.4,1.5-1,2.2-1.8c0.7-0.8,1.2-2,1.6-3.7c0.4-1.7,0.7-3.9,1.2-8.5v-0.3c3.4,0,6.2-2.9,5.9-6.3v-1.1
		h30.3c-0.1,4.1,1.9,6.3,7,7.7c0.2,0.7,0.4,1.3,0.6,1.9c0.6,1.6,1.5,3.1,2.5,4.5c1,1.4,2.1,2.7,3.6,3.4c1.5,0.7,3.5,0.8,5.2,0.5
		c1.7-0.3,3.2-0.9,3.9-2.7c1.6,0,3.1,0,4.7,0c1.9,1.7,3.8,3.3,5.8,5h5.2c0,4,3.4,7.1,7.7,7.1c4.2,0,7.7-3.2,7.7-7.2v-0.1h5.3v-0.1
		c2-5,4-9.9,6-14.9v-0.6h227.2c2.8-1.2,1.3-5,0.9-9c-0.8-8-1.1-13.8-1.1-18.3h2c2.7,6.4,12.3,11.8,16.4,11.2
		c6.8-1,19.4-3.9,27.1-5.8c7.8-1.9,33.9-9.7,33.9-9.7c0,0-25.2-7.8-31-9.7c-5.8-1.9-26.2-6.8-31-5.8c-4.4,0.9-10.3,4.1-14.3,11.1
		h-2.6c1-7.5,2.9-10.6,1.8-23.9c-0.3-4-2.7-3.1-2.5-3.8H897.4v-0.6c-2-5-4-9.9-6-14.9v-0.1h-5.3v-0.1c0-3.9-3.5-7.2-7.7-7.2
		c-4.2,0-7.7,3.2-7.7,7.1h-5.2c-1.9,1.7-3.8,3.3-5.8,5h-4.7c-0.7-1.9-2.2-2.5-3.9-2.8c-1.7-0.3-3.7-0.2-5.2,0.5
		c-1.5,0.7-2.6,2-3.6,3.4c-1,1.4-1.9,2.9-2.5,4.5c-0.2,0.6-0.4,1.2-0.6,1.9c-5.1,1.3-7.1,3.5-7,7.7h-30.3v-1.1
		c0.3-3.5-2.5-6.3-5.9-6.3v-0.3c-0.6-4.6-0.8-6.9-1.2-8.6c-0.4-1.7-1-2.9-1.6-3.7c-0.7-0.8-1.5-1.4-2.2-1.8
		c-0.7-0.4-1.3-0.8-1.9-1.2c-0.6-0.4-1.3-0.8-2-1.4c-0.6-0.6-1.3-1.4-1.9-2.3c-0.6-0.9-1-1.8-1.4-2.8c-0.4-1-0.8-2-1.1-3.4
		c-0.3-1.4-0.7-3.2-1.3-6.6V1185c-0.5-6.7-5.3-10-17.7-12v40.9c-0.1,14.9-7.5,28.9-20.2,37.8v9.5c-4.2,0.3-7.6,3.6-8.1,7.7
		c-3.1,0.5-5.4,3.3-5.2,6.6H719c-2-3.3-4-6.7-6-10H707v-2.9c-3.5-7.2-14.5-7.2-18,0v2.9h-6c-1.8,3.3-3.5,6.7-5.3,10v1.1
		c-39.3,2.8-123.2,27.8-123.2,150.2c0,67.9,31.9,132.4,109.8,176.9c52.3,29.9,87.9,36.9,97.2,78.4c7.1,31.7-9.4,76.6-68.4,108.4
		c0,0-4.8,4.3-2.9,11.9c-42,25.4-74.5,65-90.7,112.2h-9c-2.1-3.5-5.3-6.6-9.7-9.5v-0.3c-3.5-22-38.9-19.7-38.9,2.6v3.1
		c0,0-15.1,21.7-42.5,30c0,0-28,12.1-44.5-15c-22.4,0-41.1,18.6-43.3,42.8h141.5v-16.7c0-0.8,0.6-1.4,1.4-1.4h14.4
		c0.8,0,1.4,0.6,1.4,1.4v16.7h74.9c7.5-78.5,73.6-140,154.1-140c59.2,0,110.6,33.2,136.6,82h17.2v4.1c2.5,0.3,23.1,3,38.1,8.6
		c16,6,26.2,11.5,40,26l8.3,11.7l65.3,7.5h24.2v-16.7c0-0.8,0.6-1.4,1.4-1.4h14.4c0.8,0,1.4,0.6,1.4,1.4v16.7h379.7v-16.7
		c0-0.8,0.6-1.4,1.4-1.4h14.4c0.8,0,1.4,0.6,1.4,1.4v16.7h33.7v-0.1h36.7v-13.3C1613.2,1948.3,1605.2,1946.2,1602,1951.7z
		 M606.3,1949.2c0,0.8-0.6,1.4-1.4,1.4h-15.1c-0.8,0-1.4-0.6-1.4-1.4v-6.1c0-0.8,0.6-1.4,1.4-1.4h15.1c0.8,0,1.4,0.6,1.4,1.4V1949.2
		z M1182.3,1949.2c0,0.8-0.6,1.4-1.4,1.4h-15.1c-0.8,0-1.4-0.6-1.4-1.4v-6.1c0-0.8,0.6-1.4,1.4-1.4h15.1c0.8,0,1.4,0.6,1.4,1.4
		V1949.2z"/>
</g>
<g>
	<path class="st0" d="M1483.4,966.2v16.7c0,0.8-0.6,1.4-1.4,1.4h-14.4c-0.8,0-1.4-0.6-1.4-1.4v-16.7h-74.9
		c-7.5,78.5-73.6,140-154.1,140c-59.2,0-110.6-33.2-136.6-82h-17.2v-4.1c-2.5-0.3-23.1-3-38.1-8.6c-16-6-26.2-11.5-40-26l-8.3-11.7
		l-65.3-7.5h-24.2v16.7c0,0.8-0.6,1.4-1.4,1.4h-14.4c-0.8,0-1.4-0.6-1.4-1.4v-16.7H510.4v16.7c0,0.8-0.6,1.4-1.4,1.4h-14.4
		c-0.8,0-1.4-0.6-1.4-1.4v-16.7h-33.7v0.1h-36.7v13.3c0.5,6.5,8.5,8.7,11.8,3.1c0-0.6,0-1.1,0-1.7c0-0.8,0.6-1.5,1.4-1.5h4
		c0.7,0,1.1,0.3,1.4,0.9c1.1,5.4,7.5,7.2,10.9,3.2c1.9,8.8,9,15,17.3,15v0c1.6,23.4,19.5,41.5,41,41.5v-0.3
		c11.6-14.3,18.4-24.6,27.3-32.7c8.9-8.2,19.9-14.3,33.8-17.3c13.8-3,30.5-2.7,47.9-1.4c17.4,1.3,35.6,3.7,52.6,10.3
		c17.1,6.6,33.1,12.4,48.1,23.5c15,11.1,29.1,22.4,40.2,29.3c11.1,7,19.3,9.5,27,10.7c7.7,1.3,14.8,1.3,21.7,0.1
		c6.9-1.1,13.6-3.4,19.7-8c6.1-4.5,11.9-11.2,14.3-20.9v-2.7c10.1,3.1,20.1-3.3,22.7-13.4h11.1v2.3c12.1,20.5,33.4,17.4,43.4-2.3
		h11.8c1.4,3.5,3.2,6.5,5.9,8.8c5.3,4.7,12,8.7,16.7,9.3c7.3,1,19,1.6,25.2,2.6c6.2,1,11.7,2.1,17,3.7c5.5,1.7,10.9,3.9,15.1,6.6
		c4.3,2.6,6,3.7,9.1,6.8c3.2,3.1,7.5,6.9,10.5,10c3,3.1,7.7,7.8,11,11c3.2,3.2,7.1,8.4,12,12c7.2,5.3,16.4,7.9,26.2,4.2
		c37.6,41.8,91.7,68.4,152.1,69.7c7.2,6.5,2.5,11.8,2.5,11.8c-26.9,44.5-26.4,93.1,6.9,134.8c33.3,41.7,61.3,38.2,108.2,70.7
		c60.1,41.5,80.6,84.3,80.6,126.2c0,78.1-47.2,96.9-72.4,100v-0.1c-1.8-3.3-3.5-6.7-5.3-10h-6v-3c-3.5-7.2-14.5-7.2-18,0v3h-6.1
		c-2,3.3-4,6.7-6,10h-10.9v0c0.2-3.3-2.1-6.1-5.2-6.6c-0.5-4.1-3.9-7.4-8.1-7.7v-9.5c-12.7-9-20.2-22.9-20.2-37.8V1503
		c-12.4,2.1-17.2,5.4-17.7,12v50.4c-0.7,3.3-1,5.2-1.3,6.6c-0.3,1.4-0.7,2.4-1.1,3.4c-0.4,1-0.9,1.9-1.4,2.8
		c-0.6,0.9-1.3,1.7-1.9,2.3c-0.7,0.6-1.3,1-2,1.4c-0.6,0.4-1.2,0.7-1.9,1.2c-0.7,0.4-1.5,1-2.2,1.8c-0.7,0.8-1.2,2-1.6,3.7
		c-0.4,1.7-0.7,3.9-1.2,8.5v0.3c-3.4,0-6.2,2.9-5.9,6.3v1.1h-30.3c0.1-4.2-1.9-6.3-7-7.7c-0.2-0.7-0.4-1.3-0.6-1.9
		c-0.6-1.6-1.5-3.1-2.5-4.5c-1-1.4-2.1-2.7-3.6-3.4c-1.5-0.7-3.5-0.8-5.2-0.5c-1.7,0.3-3.2,0.9-3.9,2.7c-1.6,0-3.1,0-4.7,0
		c-1.9-1.7-3.8-3.3-5.8-5h-5.2c0-3.9-3.4-7.1-7.7-7.1c-4.2,0-7.7,3.2-7.7,7.2v0.1h-5.3v0.1c-2,5-4,9.9-6,14.9v0.6H911.9
		c-2.8,1.2-1.3,5-0.9,9c0.8,8,1.1,13.8,1.1,18.3h-2c-2.7-6.4-12.3-11.8-16.4-11.2c-6.8,1-19.4,3.9-27.1,5.8
		c-7.8,1.9-33.9,9.7-33.9,9.7c0,0,25.2,7.8,31,9.7c5.8,1.9,26.2,6.8,31,5.8c4.4-0.9,10.3-4.1,14.3-11.1h2.6
		c-1,7.5-2.9,10.6-1.8,23.9c0.3,4,2.7,3.1,2.5,3.8h226.9v0.6c2,5,4,9.9,6,14.9v0.1h5.3v0.1c0,3.9,3.5,7.2,7.7,7.2
		c4.2,0,7.7-3.2,7.7-7.1h5.2c1.9-1.7,3.8-3.3,5.8-5h4.7c0.7,1.9,2.2,2.5,3.9,2.8c1.7,0.3,3.7,0.2,5.2-0.5c1.5-0.7,2.6-2,3.6-3.4
		c1-1.4,1.9-2.9,2.5-4.5c0.2-0.6,0.4-1.2,0.6-1.9c5.1-1.3,7.1-3.5,7-7.7h30.3v1.1c-0.3,3.5,2.5,6.3,5.9,6.3v0.3
		c0.6,4.6,0.8,6.9,1.2,8.6c0.4,1.7,1,2.9,1.6,3.7c0.7,0.8,1.5,1.4,2.2,1.8c0.7,0.4,1.3,0.8,1.9,1.2c0.6,0.4,1.3,0.8,2,1.4
		c0.6,0.6,1.3,1.4,1.9,2.3c0.6,0.9,1,1.8,1.4,2.8c0.4,1,0.8,2,1.1,3.4c0.3,1.4,0.7,3.2,1.3,6.6v50.4c0.5,6.7,5.3,10,17.7,12v-40.9
		c0.1-14.9,7.5-28.9,20.2-37.8v-9.5c4.2-0.3,7.6-3.6,8.1-7.7c3.1-0.5,5.4-3.3,5.2-6.6h10.9c2,3.3,4,6.7,6,10h6.1v2.9
		c3.5,7.2,14.5,7.2,18,0v-2.9h6c1.8-3.3,3.5-6.7,5.3-10v-1.1c39.3-2.8,123.2-27.8,123.2-150.2c0-67.9-31.9-132.4-109.8-176.9
		c-52.3-29.9-87.9-36.9-97.2-78.4c-7.1-31.7,9.4-76.6,68.4-108.4c0,0,4.8-4.3,2.9-11.9c42-25.4,74.5-65,90.7-112.2h9
		c2.1,3.5,5.3,6.6,9.7,9.5v0.3c3.5,22,38.9,19.7,38.9-2.6v-3.1c0,0,15.1-21.7,42.5-30c0,0,28-12.1,44.5,15
		c22.4,0,41.1-18.6,43.3-42.8H1483.4z M872.2,991.3c0,0.8-0.6,1.4-1.4,1.4h-15.1c-0.8,0-1.4-0.6-1.4-1.4v-6.1c0-0.8,0.6-1.4,1.4-1.4
		h15.1c0.8,0,1.4,0.6,1.4,1.4V991.3z M1448.2,991.3c0,0.8-0.6,1.4-1.4,1.4h-15.1c-0.8,0-1.4-0.6-1.4-1.4v-6.1c0-0.8,0.6-1.4,1.4-1.4
		h15.1c0.8,0,1.4,0.6,1.4,1.4V991.3z"/>
</g>
<g>
	<path class="st0" d="M-13.3,1048.5c0.4-0.7,1.3-0.9,2-0.5c7.3,4.1,14.5,8.2,21.8,12.3c2.7,2.7,5.7,4.4,9.4,5.3
		c8.1-19,8.1-40.5,0-59.5c-3.7,0.9-6.7,2.6-9.4,5.3c-7.3,4.1-14.5,8.2-21.8,12.3c-0.7,0.4-1.6,0.2-2-0.5c-2.4-4.2-4.8-8.3-7.2-12.5
		c-0.4-0.7-0.2-1.6,0.5-2c7.2-4.2,14.4-8.5,21.6-12.7c3.7-1,6.6-2.7,9.3-5.5c-12.4-16.5-31-27.3-51.5-29.7c-1,3.7-1.1,7.1-0.1,10.8
		c-0.1,8.3-0.2,16.7-0.2,25c0,0.8-0.7,1.4-1.4,1.4h-14.4c-0.8,0-1.4-0.6-1.4-1.4c-0.1-8.3-0.2-16.7-0.2-25c1-3.7,0.9-7.1-0.1-10.8
		c-20.5,2.5-39.1,13.2-51.5,29.7c2.7,2.8,5.6,4.5,9.3,5.5c7.2,4.2,14.4,8.5,21.6,12.7c0.7,0.4,0.9,1.3,0.5,2
		c-2.4,4.2-4.8,8.3-7.2,12.5c-0.4,0.7-1.3,0.9-2,0.5c-7.3-4.1-14.5-8.2-21.8-12.3c-2.7-2.7-5.7-4.4-9.4-5.3c-8.1,19-8.1,40.5,0,59.5
		c3.7-0.9,6.7-2.6,9.4-5.3c7.3-4.1,14.5-8.2,21.8-12.3c0.7-0.4,1.6-0.2,2,0.5c2.4,4.2,4.8,8.3,7.2,12.5c0.4,0.7,0.2,1.6-0.5,2
		c-7.2,4.2-14.4,8.5-21.6,12.7c-3.7,1-6.6,2.7-9.3,5.5c12.4,16.5,31,27.3,51.5,29.7c1-3.7,1.1-7.1,0.1-10.8c0.1-8.3,0.2-16.7,0.2-25
		c0-0.8,0.7-1.4,1.4-1.4h14.4c0.8,0,1.4,0.6,1.4,1.4c0.1,8.3,0.2,16.7,0.2,25c-1,3.7-0.9,7.1,0.1,10.8c20.5-2.5,39.1-13.2,51.5-29.7
		c-2.7-2.8-5.6-4.5-9.3-5.5c-7.2-4.2-14.4-8.5-21.6-12.7c-0.7-0.4-0.9-1.3-0.5-2C-18.1,1056.8-15.7,1052.7-13.3,1048.5z
		 M-49.6,1045.9c-5.6,0-10.1-4.5-10.1-10.1c0-5.6,4.5-10.1,10.1-10.1s10.1,4.5,10.1,10.1C-39.5,1041.4-44.1,1045.9-49.6,1045.9z"/>
</g>
<g>
	<path class="st0" d="M-214.6,1048.6c0.4-0.7,1.3-0.9,2-0.5c7.3,4.1,14.5,8.2,21.8,12.3c2.7,2.7,5.7,4.4,9.4,5.3
		c8.1-19,8.1-40.5,0-59.5c-3.7,0.9-6.7,2.6-9.4,5.3c-7.3,4.1-14.5,8.2-21.8,12.3c-0.7,0.4-1.6,0.2-2-0.5c-2.4-4.2-4.8-8.3-7.2-12.5
		c-0.4-0.7-0.2-1.6,0.5-2c7.2-4.2,14.4-8.5,21.6-12.7c3.7-1,6.6-2.7,9.3-5.5c-12.4-16.5-31-27.3-51.5-29.7c-1,3.7-1.1,7.1-0.1,10.8
		c-0.1,8.3-0.2,16.7-0.2,25c0,0.8-0.7,1.4-1.4,1.4h-14.4c-0.8,0-1.4-0.6-1.4-1.4c-0.1-8.3-0.2-16.7-0.2-25c1-3.7,0.9-7.1-0.1-10.8
		c-20.5,2.5-39.1,13.2-51.5,29.7c2.7,2.8,5.6,4.5,9.3,5.5c7.2,4.2,14.4,8.5,21.6,12.7c0.7,0.4,0.9,1.3,0.5,2
		c-2.4,4.2-4.8,8.3-7.2,12.5c-0.4,0.7-1.3,0.9-2,0.5c-7.3-4.1-14.5-8.2-21.8-12.3c-2.7-2.7-5.7-4.4-9.4-5.3c-8.1,19-8.1,40.5,0,59.5
		c3.7-0.9,6.7-2.6,9.4-5.3c7.3-4.1,14.5-8.2,21.8-12.3c0.7-0.4,1.6-0.2,2,0.5c2.4,4.2,4.8,8.3,7.2,12.5c0.4,0.7,0.2,1.6-0.5,2
		c-7.2,4.2-14.4,8.5-21.6,12.7c-3.7,1-6.6,2.7-9.3,5.5c12.4,16.5,31,27.3,51.5,29.7c1-3.7,1.1-7.1,0.1-10.8c0.1-8.3,0.2-16.7,0.2-25
		c0-0.8,0.7-1.4,1.4-1.4h14.4c0.8,0,1.4,0.6,1.4,1.4c0.1,8.3,0.2,16.7,0.2,25c-1,3.7-0.9,7.1,0.1,10.8c20.5-2.5,39.1-13.2,51.5-29.7
		c-2.7-2.8-5.6-4.5-9.3-5.5c-7.2-4.2-14.4-8.5-21.6-12.7c-0.7-0.4-0.9-1.3-0.5-2C-219.4,1057-217,1052.8-214.6,1048.6z
		 M-250.9,1046.1c-5.6,0-10.1-4.5-10.1-10.1c0-5.6,4.5-10.1,10.1-10.1c5.6,0,10.1,4.5,10.1,10.1
		C-240.9,1041.6-245.4,1046.1-250.9,1046.1z"/>
</g>
</svg>
