<?xml version="1.0" encoding="utf-8"?>
<!-- Generator: Adobe Illustrator 24.3.0, SVG Export Plug-In . SVG Version: 6.00 Build 0)  -->
<svg version="1.1" id="Layer_1" xmlns="http://www.w3.org/2000/svg" xmlns:xlink="http://www.w3.org/1999/xlink" x="0px" y="0px"
	 viewBox="0 0 141.7 141.7" style="enable-background:new 0 0 141.7 141.7;" xml:space="preserve">
<style type="text/css">
	.st0{fill:none;stroke:#BFBFBF;stroke-width:0.51;stroke-linecap:round;stroke-linejoin:round;stroke-miterlimit:10;}
	.st1{fill:none;stroke:#030304;stroke-width:2.830000e-02;stroke-linejoin:bevel;stroke-miterlimit:22.9256;}
</style>
<path class="st0" d="M-154.8,356.7v6.2 M9,356.7v6.2 M172.8,356.7v6.2"/>
<path class="st1" d="M39.2,1.7c0.2,0,0.4,0,0.6,0c1.3,0.1,2.4,0.1,3.5,0.2c1.1,0.3,2.5,0,3.2,0.5c1-0.2,3.5,0.3,4.7,0.2
	c1.5,0.1,2.6,0.6,3.8,0.7c0.9,0.1,1.9,0.6,2.7,0.5c0.9,0.5,1.2,0.1,2.3-0.1c0.2,0.5,2.1-0.5,2.9-0.1c1.6-0.3,3.6,0.3,4.9,1.2
	c0.2,0.7,0.8,0.5,1.4,1.3c0.5,0.9,1.2,1.3,1.7,2.3c0.9,0.6,0.8,1.9,1.4,2.2c0.7,1.1,1.1,2.4,1.8,3.6c0.6,0.5,0.3,1.1,0.8,1.1
	c0.7,1,1.3,2,1.9,3.1c0.8,0.8,1.1,2.3,1.6,3c0.4,1.5,0.7,2.9,0.9,4.4c0,0.8,0.2,1.3,0.4,2.2c0.2,1.7,0.5,3.5,0.7,5.3
	c0.3,2.3,0.6,4.6,0.7,7c0.3,2.2,0.1,5.1,0,6.9c-0.4,2-0.2,4.2-1.2,6.1c-0.5,1.9-1.7,3.5-2.8,5c-0.9,0.8-2.3,1.5-3.4,1.9
	c-1.7,1-3.8,0.1-2-1.7c-2.2-3,1.5-1.7,3.2-2.8c1.2-1.9,1.3-4.2,1.8-6.3c0.1-2.9-0.6-5.7-1.3-8.5c-0.3-1.2-1-6.2-2.4-4
	c-1.3-0.4-2.4-3.1-4.6-2.2C65.4,34.3,62,35,59.7,33c-1.7-0.8-2.2-2.7-3.9-3.3c-1.7-0.5-2.4,6.5-5.7,8.2c-0.5,0.3-1.2,0.5-2.1,0.6
	V17.2h-2.6v21.5c-4.4,0.2-10-0.4-12,0.2c-2.2,0.4-4.9,1.1-7.1,1.5c-1.8,1-4-0.1-6.1,0.2c-1.8-0.4-3.5-0.2-5.3-0.4V22.4h-2.6v17.2
	c-2.7-0.1-2.4-2-3.5-4c-0.6-2.8-1.4-3.2-1.2-6c-0.6-3.3-3.3,2.6-2.2,4c0.5,4.8-0.5,9.6,0.1,14.4c0,2.2,0.3,4.7,1.3,6.6
	c0,1.6-0.3,4.8-2.3,4.7c-0.4-1.6-1.1-2.4-1.7-0.1C1,58.7,0.3,56,1,54.5c0.8-2.3,1.4-4.6,1.8-6.9c-0.1-2.5-0.1-5.1-0.4-7.6
	c-0.2-3.5-0.6-7-1-10.5c0.3-2.2,0.4-4.5,1.6-6.4c0.2-0.8,0.9-1.5,1-2.3c0.8-1.1,1.3-2.6,2.3-3.7c1.4-2.4,3.3-4.3,5.5-6
	c1.1-1.3,2.4-2.4,3.9-3.2c0.8-0.5,1.8-1,2.6-1.3c0.9-0.5,2.1-1.3,3.2-1.6c0.8-0.2,1.6-0.4,2-0.8c1.7-0.6,4.7-1.3,6.4-1.7
	c2.3,0.3,3.3-0.9,5.6-0.5C37,1.9,37.8,1.6,39.2,1.7z"/>
<path class="st1" d="M10.6,66l0,31.1c-1.4,0-2.4-0.1-3.5-0.9c-2-1.5,0.6-4.9-1.2-6.7c-0.6-4.2,0.5-8.3,1.4-12.3
	C7.9,75,6.9,73,6.4,70.8c-0.6-2.8-0.8-6.8-0.6-9.7c1.8-6.3,0.9-3.5,3.6-7.7c1.6-2.7,3.8-4.3,6.1-6.2c2.5-1.3,5.1-3.3,7.6-4.6
	c2.6-0.6,5.9-2.1,7.5-2.5c1-0.2,7.2-0.1,8.4-0.3c1.5,0.1,11.7,0.3,13,0.4c7.3,0.3,4.5-0.9,11.6,1.9c0.2,0.2,4.1,3.8,4.7,4.6
	c0.5,0.9,2.4,5.6,2.2,9.3c-2.4,3.2-1.8,5.2-0.3,7.6c1,2.3,2.4,5.8,0.6,5.7c-1.5-0.1-1.7-1.8-3.3-1.9c-1.8-0.2-3.6-0.4-7.2-0.6
	c-4.2-1.7-4.8-4-6.5-4.5c-2.1,1.2-1.8,3.9-1.8,6c0.1,1.6-0.4,3.5-0.3,4.8c-0.6,1.3-0.2,2.5-0.7,4c-0.5,0.6-0.3,1.6-0.5,2.3
	c-0.3,2.2-1,4.4-1.1,6.5c-0.5,2.1,1.5,3.6,2,5.5c1.3,1.3,1.5,5.3-0.7,5.6h-4.4l0-31.3h-2.6v31.3h-1.4c-2.8-0.5-3.1-2-3.7-4.2
	c0.3-2,0.3-4-0.1-5.8c0-3.9,0.4-7.9,0.9-11.8c0.9-2.8-0.9-5.1-3.8-4.2c-2.2,0.4-4.3,0.1-6.6,0.5c-1.8,1-3.8,1.7-5.9,2
	c-2.3,0.4-5.1,1.4-5,4.2c-1,1.7-1.7,3.6-1.6,5.6c-0.3,1.9-1,3.8-0.2,5.7c0.8,1.9,2.3,3.8,2.7,5.7c0.2,2.3-1.8,2-3.4,2.2
	c-1.3,0-2.3,0-2.3,0V66H10.6"/>
<path class="st1" d="M24.7,105.5l0-31.1c-1.4,0-2.4,0.1-3.5,0.9c-2,1.5,0.6,4.9-1.2,6.7c-0.6,4.2,0.5,8.3,1.4,12.3
	c0.5,2.1-0.5,4.2-0.9,6.4c-0.6,2.8-0.8,6.8-0.6,9.7c1.8,6.3,0.9,3.5,3.6,7.7c1.6,2.7,3.8,4.3,6.1,6.2c2.5,1.3,5.1,3.3,7.6,4.6
	c2.6,0.6,5.9,2.1,7.5,2.5c1,0.2,7.2,0.1,8.4,0.3c1.5-0.1,11.7-0.3,13-0.4c7.3-0.3,4.5,0.9,11.6-1.9c0.2-0.2,4.1-3.8,4.7-4.6
	c0.5-0.9,2.4-5.6,2.2-9.3c-2.4-3.2-1.8-5.2-0.3-7.6c1-2.3,2.4-5.8,0.6-5.7c-1.5,0.1-1.7,1.8-3.3,1.9c-1.8,0.2-3.6,0.4-7.2,0.6
	c-4.2,1.7-4.8,4-6.5,4.5c-2.1-1.2-1.8-3.9-1.8-6c0.1-1.6-0.4-3.5-0.3-4.8c-0.6-1.3-0.2-2.5-0.7-4c-0.5-0.6-0.3-1.6-0.5-2.3
	c-0.3-2.2-1-4.4-1.1-6.5c-0.5-2.1,1.5-3.6,2-5.5c1.3-1.3,1.5-5.3-0.7-5.6h-4.4l0,31.3h-2.6V74.5h-1.4c-2.8,0.5-3.1,2-3.7,4.2
	c0.3,2,0.3,4-0.1,5.8c0,3.9,0.4,7.9,0.9,11.8c0.9,2.8-0.9,5.1-3.8,4.2c-2.2-0.4-4.3-0.1-6.6-0.5c-1.8-1-3.8-1.7-5.9-2
	c-2.3-0.4-5.1-1.4-5-4.2c-1-1.7-1.7-3.6-1.6-5.6c-0.3-1.9-1-3.8-0.2-5.7c0.8-1.9,2.3-3.8,2.7-5.7c0.2-2.3-1.8-2-3.4-2.2
	c-1.3,0-2.3,0-2.3,0v31.1H24.7"/>
<path class="st1" d="M97.2,1.5V15h2.6V1.6c2.7,0.2,6,0.6,6.9,1c0.6,0.3,1,0.5,1.5,0.8v30.6h2.7v-29c0.4,0.4,0.7,0.8,1.1,1.3
	c2.4,2.8,3.9,6,3.6,10.6c-1.2,8.3-0.6,11.5-1,20c0,1.9-1.4,12.3-0.1,14c0.8,1.3,1.1,5.8-0.1,7.5c-1.8,0.3-3.3,0.2-5.1,0
	c-1.5-0.6-2.9,0.8-4.3-0.2c-1.3-1.7-1.3-6.8-0.3-8.7c-0.1-3.5,0.1-8.3,0.4-11.8c-0.1-2.7,0.4-4.6-1.8-10c-1.2-2.6-2.9-2.5-4.9-2.6
	c-1.8,0-4-0.4-5.2,2.2c-1.3,4.4-1.5,8.5-1.6,11.1c0.3,3.5,0.5,8.3,0.4,11.8c1,1.9,1.4,6.2,0.1,8c-1.4,1-3-0.3-4.5,0.3
	c-1.9,0.1-3.7,0.3-5.6,0c-1.2-1.7-0.6-5.5,0.2-6.9c1.3-1.7,0-12.1-0.1-14c-0.4-8.5,0.2-11.6-1-20c-0.3-4.6,2-9.1,3.2-10.8
	c0.3-0.6,1-1.3,1.6-1.9V34h2.4V3.3C89,3,89,3,90.1,2.7C91.2,2.1,94.2,1.6,97.2,1.5z"/>
<path class="st1" d="M95.2,104.5v-13h2.7v12.9c2-0.3,3.8-0.9,4.6-1.2c1.4-0.5,2.8-1.1,4.1-2v-21h2.6v18.3c1-1.9,2.1-4.3,2.5-5.9
	c0-2.4,1.4-9.4,1-16.1c0-1.5-1.4-9.8-0.1-11.1c0.8-1,1.1-4.6-0.1-6c-1.8-0.3-3.3-0.1-5.1,0c-1.5,0.4-2.9-0.6-4.3,0.2
	c-1.3,1.4-1.3,5.4-0.3,6.9c-0.1,2.8,0.1,6.5,0.4,9.3c-0.1,2.1,0.4,3.6-1.8,7.9c-1.2,2.1-2.9,2-5,2c-1.8,0-4,0.3-5.2-1.8
	c-1.3-3.5-1.5-6.7-1.6-8.8c0.3-2.8,0.5-6.6,0.4-9.3c1-1.5,1.4-4.9,0.1-6.3c-1.4-0.8-3,0.2-4.5-0.2c-1.9-0.1-3.7-0.2-5.6,0
	c-1.2,1.4-0.6,4.4,0.2,5.4c1.3,1.3,0,9.5-0.1,11.1c-0.4,6.7,1.4,14.7,1.4,17c0.6,2,1.4,4,2.2,5.7V80.2h2.4V102
	c0.8,0.6,1.7,1.1,2.7,1.2C90.1,103.6,92.3,104.4,95.2,104.5z"/>
</svg>
