<?xml version="1.0" encoding="utf-8"?>
<!-- Generator: Adobe Illustrator 24.3.0, SVG Export Plug-In . SVG Version: 6.00 Build 0)  -->
<svg version="1.1" id="Layer_1" xmlns="http://www.w3.org/2000/svg" xmlns:xlink="http://www.w3.org/1999/xlink" x="0px" y="0px"
	 viewBox="0 0 396.9 283.5" style="enable-background:new 0 0 396.9 283.5;" xml:space="preserve">
<style type="text/css">
	.st0{fill:none;stroke:#000000;stroke-width:2.830000e-02;stroke-linejoin:bevel;stroke-miterlimit:22.9256;}
	.st1{fill:none;stroke:#000000;stroke-width:2.830000e-02;stroke-miterlimit:22.9256;}
</style>
<path class="st0" d="M38.2,44.8l1.1,0.1h1.1l1-0.2l1.1-0.2l1-0.4l0.9-0.5l0.9-0.6L45.1,39l0.1-4.1l0.3-0.5l0.2-0.6l0-0.6l-0.1-0.6
	l-0.2-0.6l-0.3-0.5l-0.4-0.5l-0.5-0.4l-0.6-0.2l-0.6-0.1h-0.6L42,30.5l-0.6,0.2L41,31.1l-1,1l-0.9,1.1l-0.8,1.2l-0.7,0.9L36.8,36
	l-0.9,0.6l-1,0.5l-1.1,0.5l-0.9,0.7L32,39.1l-0.8,0.9l-0.6,1L30.2,42l-0.2,0.8l-0.1,0.8l0.1,0.8l0.2,0.8l0.3,0.7l0.5,0.7l0.5,0.6
	l0.5,0.3l0.6,0.2l0.6,0.1h0.8l0.8-0.1l0.8-0.2l0.7-0.4l0.7-0.5l0.6-0.5l0.5-0.7L38.2,44.8z M47.1,15.5L47.1,15.5l2.4,4.2l3.8,6.3
	l0.6,1.2l0.5,1.2l0.4,1.3l0.2,1.3l0,1.3l-0.7,0.7l-0.6,0.8l-0.5,0.9l-0.3,1l-0.2,1v1l0.1,1l0.6,1.3l0.5,1.4l0.3,1.4l0.3,1.4l0.1,1.4
	V47l-0.1,1.5L54.1,50l-0.4,1.4l-0.5,1.4l-0.6,1.4l-0.7,1.3l-0.8,1.2l-0.9,1.2l-1,1.1l-1.1,1l-1.2,0.9l-1.2,0.9l-1.6,0.6L43,63.1
	l-1.4,0.9l-1.4,1L38.8,66l-1.2,1.2l-1.1,1.2l-1,1.4L35.1,71l-0.6,1.2l-0.7,1.1l-0.8,1.1l-0.9,1l-1,0.9l-1,0.8l-1.1,0.7l-1.2,0.6
	l-1.2,0.5L25.5,79l-1.3,0.2l-1.3,0.1h-1.3l-1.3-0.1l-1.2-0.2l-1.2-0.4l-1.2-0.5l-1.5-0.8l-1.4-0.9l-1.3-1.1l-1.2-1.2L10.2,73l-1.4-2
	l-0.6-0.9l-0.9-1.3l-0.8-1.5l-0.7-1.5l-0.6-1.5l-0.5-1.6L4.3,61l-0.2-1.7L4,57.7l0-1.6l0.2-1.7l0.3-1.6l0.4-1.6L6,50.4l1-0.9l0.9-1
	l0.8-1l0.7-1.1l0.6-1.2l0.5-1.2l0.4-1.3l0.3-1.3l0.1-1.3v-1.3l-0.2-1.3l-0.2-1.3l-0.4-1.3L10,33.6l-0.9-1.7l-0.9-1.2l-0.8-1
	l-0.7-1.1l-0.5-1.1l-0.5-1.2l-0.3-1.2L5.3,24l0-1.2l0-1.2l0.2-1.2l0.3-1.2L6.2,18l0.5-1.1l0.6-1.1l0.7-1l0.8-0.9l0.9-0.8l1-0.7
	l1.5-0.9l1.5-0.7l1.5-0.6l1.6-0.5l1.6-0.4l1.6-0.2l1.7,0l1.6,0.1l1.7,0.2l1.1,0.3l1.1,0.2l1.1,0l1.2-0.1l1.1-0.2l1.1-0.3l1.1-0.5
	l1-0.6l0.9-0.7l0.4-0.6l0.5-0.5l0.5-0.4l0.6-0.3l0.7-0.2l0.7-0.1h0.7l0.7,0.1l0.7,0.2l0.6,0.3l0.5,0.5l0.5,0.5l0.4,0.6l2.9,5.5
	l-14.6,9.1l1.7,2.7L47.1,15.5z"/>
<path class="st0" d="M79.6,67.8L79,67.1l-0.7-1L77.7,65l-0.5-1.2l-0.4-1.2l-0.3-1.2l-0.1-1.2l0.2-1.5v-1.5l-0.1-1.5l-0.2-1.5
	L76,52.8l-0.5-1.4L75,49.9l-0.7-1.3l-0.8-1.3l-0.9-1.2L71.5,45l-1.1-1l-1.2-0.9l-1.3-0.8l-1.3-0.7l-5.1-2.2l-1-1.7L59.5,36l-0.8-1.8
	L58,32.3l-0.5-1.9l-0.4-1.9l-0.3-2l-0.1-2v-2l0.2-2l0.3-2l0.5-1.9l0.4-1.2l0.5-1.2l0.6-1.2l0.7-1.1l0.8-1l0.9-1l1-0.9l1.1-0.8
	l1.2-0.7l1.2-0.5l1.2-0.4l1.3-0.3L70,6.2l1.3,0l1.3,0.1l1.3,0.2l1.3,0.3L77.6,8L80,9.1l2.5,1l2.6,0.8l2.6,0.6l1.5-0.2l1.5-0.1l1.5,0
	l1.5,0.1l1.5,0.3l1.5,0.4l1.5,0.5l1.4,0.6l1.4,0.7l1.3,0.8l1.2,0.9l1.2,1l1.1,1.1l1,1.2l0.9,1.2l0.8,1.3l0.7,1.4l0.6,1.4l0.5,1.4
	l0.4,1.5l0.3,1.5l0.7,1.1l0.8,1l0.9,0.9l1,0.8l1.1,0.7l1.1,0.6l0.5,0.3l0.4,0.4l0.3,0.5l0.3,0.9l0.1,0.8l0,0.9l-0.7,14.1l-16.7-0.9
	l-0.1,3.2l16.8,0.9l0.1,3l0,2l0,0.8l-0.2,0.8l-0.3,0.8l-0.4,0.7l-0.5,0.7l-0.6,0.6l-0.7,0.5l-0.8,0.4l-0.8,0.2l-0.8,0.1l-1.2-0.4
	l-1.2-0.3l-1.2-0.1h-1.2l-1.2,0.1l-1.2,0.2l-1.1,0.3l-1.1,0.5l-1.3,1.1l-1.5,1.1L99,68.5l-1.6,0.8L95.8,70l-1.7,0.6L92.4,71
	l-1.7,0.3l-1.8,0.1h-1.2l-1.2-0.1L85.2,71L84,70.6l-1.2-0.5l-1.1-0.6l-1-0.7L79.9,68 M106.8,36.3l0.3,0.5l0.2,0.6l0.1,0.6l0,0.6
	l-0.2,0.6l-0.3,0.5l-0.3,0.5l-0.5,0.4l-0.5,0.3l-0.6,0.2l-0.6,0.1l-0.7-0.1l-0.6-0.2l-0.6-0.3L102,40l-0.9-0.7l-1-0.5l-1-0.4
	L98,38.1L96.9,38h-1.1L94,38.3l-1.4,0.3h-0.7l-0.8-0.1l-0.7-0.2L89.8,38l-0.6-0.4l-0.5-0.5l-0.5-0.6l-0.3-0.6l-0.2-0.7l-0.1-0.7
	v-0.8l0.1-0.7l0.2-0.7l0.4-0.7l0.5-0.6l0.5-0.5l0.6-0.4l0.7-0.3l0.7-0.2l0.7-0.1h0.8l0.7,0.2l0.7,0.2l0.8,0.1l0.8-0.1l0.7-0.2l1.9-1
	l0.7-0.2l0.8-0.1l0.8,0l0.7,0.2l0.7,0.3l0.6,0.4l0.6,0.5l0.4,0.6l0.3,0.7l0.2,0.7l0.2,0.9l0.4,0.8l0.5,0.7L106.8,36.3z"/>
<polygon class="st1" points="125.7,58.6 126.1,59.2 126.6,59.6 127.2,60 127.8,60.2 128.5,60.3 129.1,60.3 129.7,60.2 130.3,59.9 
	130.9,59.3 131.4,58.8 132.1,58.4 132.8,58.1 133.6,57.9 134.3,57.8 135.1,57.9 135.8,58 136.5,58.3 137.2,58.7 137.8,59.2 
	138.3,59.7 139.9,59.8 141.4,59.8 142.9,59.6 144.4,59.3 145.8,58.9 147.3,58.3 150,57.7 152.7,57.2 155.5,56.8 158.2,56.5 
	160.9,56.4 163.7,56.4 166.5,56.5 169.3,56.8 172,57.3 172.7,57 173.5,56.7 174.2,56.2 174.8,55.6 175.3,55 175.7,54.3 176,53.5 
	176.2,52.7 176.3,51.9 176.3,51.1 176.1,50.3 175.8,49.5 175.9,48.7 159.4,48.9 159.4,45.7 176.2,45.6 176.5,44.6 176.8,43.6 
	177.3,42.7 178,41.9 178.7,41.2 179.6,40.6 180.5,40.1 181,39.1 181.3,38.1 181.5,37.1 181.6,36.1 181.5,35 181.3,33.9 181,32.9 
	180.5,31.9 180,31.1 179.6,30.4 162.2,34.4 161.5,31.4 178.1,27.7 177.7,27 178.1,26.1 178.4,25.1 178.5,24.1 178.5,23.1 
	178.4,22.1 178.2,21.1 177.8,20.2 177.3,19.3 176.7,18.5 175.9,17.8 175.1,17.2 174.2,16.7 172.4,15.8 171.9,15.4 171.5,14.9 
	171.1,14.4 170.6,13.9 169.9,13.2 154.2,19.3 153,16.7 168.7,10.4 168.6,10.1 168.4,9.2 168.1,8.4 167.7,7.6 167.2,6.8 166.6,6.2 
	165.8,5.6 165,5.1 164.2,4.8 163.3,4.6 162.4,4.5 161.5,4.5 160.6,4.6 159.7,4.9 158.9,5.3 158.1,5.8 157.5,6.5 155.1,7.8 
	152.6,9.1 150,10.2 147.4,11.2 144.8,12.1 142.1,12.8 139.3,13.4 136.6,13.9 133.8,14.2 132.9,14.3 131.9,14.6 131.1,15 130.4,15.6 
	129.9,16.4 129.5,17.2 129,17.9 128.4,18.5 127.7,19.1 126.9,19.5 126.1,19.8 125.2,20 124.3,20.1 123.5,20 122.6,19.9 121.8,19.6 
	121.1,19.6 120.5,19.7 119.9,20 119.4,20.4 118.9,20.9 118.6,21.5 118.3,22 118.2,22.7 118.2,23.4 118.3,24 118.5,24.6 118.9,25.2 
	119.3,25.7 119.8,26.1 120.5,26.4 121.1,26.5 121.7,26.6 121.7,28.5 133.6,29.1 133.5,32.1 122.1,31.5 122.2,32.5 121.6,33.4 
	121.1,34.3 120.7,35.4 120.4,36.4 120.3,37.5 120.2,38.6 120.3,39.7 120.6,40.8 120.9,41.8 121.4,42.8 122,43.6 122.7,44.5 
	123.5,45.2 124.4,45.9 125.3,46.4 126.4,46.9 126.4,47.7 135.9,42.5 137.4,45.3 126.5,51.1 126.6,51.2 126.6,53.5 126.5,54.2 
	126.1,54.9 125.7,55.4 125.5,56 125.3,56.7 125.3,57.4 125.5,58 "/>
<polygon class="st0" points="352.9,144.4 352.7,144 352.4,143.6 352.1,143.3 351.6,143 351.2,142.9 350.7,142.9 350.2,143.1 
	349.8,143.4 349.5,143.8 349.3,144.2 349.2,144.7 349.3,145.2 349.4,145.6 349.5,147.5 349.4,149.3 349.1,151.2 348.8,153 
	348.3,154.8 347.8,156.5 347.1,158.3 346.4,159.9 345.4,161.6 344.5,163.1 343.4,164.6 342.2,166.1 340.9,167.4 339.5,168.7 
	338.1,169.8 336.6,170.9 335,171.9 333.4,172.8 331.7,173.5 330,174.1 328.2,174.7 326.4,175.1 324.6,175.5 322.7,175.6 
	320.9,175.7 319.1,175.7 317.2,175.5 315.4,175.3 313.6,174.9 311.8,174.4 310.1,173.7 308.4,173 306.7,172.2 305.1,171.3 
	303.6,170.2 302.1,169.1 300.7,167.9 299.4,166.5 298.2,165.1 297.1,163.7 296.1,162.1 295.1,160.5 294.3,158.9 293.6,157.2 
	293,155.4 292.5,153.6 292.1,151.8 291.9,150 291.7,148.1 291.7,146.3 291.8,144.4 292,142.6 292.3,140.8 292.8,139 293.3,137.2 
	294,135.5 294.7,133.8 295.3,132.4 296,130.8 296.9,129.2 298,127.5 299.1,126 300.4,124.6 301.7,123.2 303.1,121.9 304.6,120.7 
	306.1,119.6 307.8,118.5 309.5,117.7 311.2,116.9 313,116.2 314.8,115.6 316.7,115.1 318.6,114.8 320.5,114.6 322.4,114.5 
	324.3,114.5 326.2,114.7 326.9,114.8 327.6,115 328.2,115.3 328.8,115.7 329.3,116.4 329.6,117.3 329.7,118.1 329.8,118.9 
	329.8,119.6 330,120.3 330.4,121 330.9,121.6 331.4,122.2 332,122.6 332.7,122.9 333.5,123.1 334.2,123.1 335,123 335.7,122.8 
	337.5,122.7 339.2,122.7 340.9,122.9 342.6,123.2 344.3,123.6 346,124.2 347.6,124.8 349.2,125.6 350.7,126.5 351.5,126.9 
	352.3,127.2 353,127.4 353.8,127.4 354.6,127.3 355.3,127 356,126.7 356.6,126.2 357.1,125.6 357.5,124.9 357.8,124.2 358,123.5 
	358,122.7 357.9,121.9 357.7,121.1 357.3,120.4 354.3,109.9 344.7,113.2 343.7,110.3 353.3,107 353.1,105.9 352.6,103.7 
	351.9,101.4 351.2,99.2 350.3,97.1 349.2,97.4 348,97.6 346.9,97.7 345.7,97.7 344.5,97.6 343.4,97.3 342.3,96.9 341.2,96.4 
	340.2,95.8 338.7,94.9 337.8,94.6 337.2,94.5 336.5,94.6 336,94.9 335.4,95.2 334.9,95.7 334.6,96.2 334.3,96.8 334.3,97.4 
	334.3,98.1 333.8,98.7 333.1,99.3 332.4,99.7 331.7,100 330.9,100.3 330,100.4 329.2,100.4 328.3,100.2 327.5,99.9 325.2,99.9 
	322.9,100.1 320.6,100.3 318.4,100.6 316.1,101.1 313.8,101.7 311.7,102.3 309.5,103.2 307.4,104.1 305.3,105.1 303.3,106.2 
	301.3,107.4 299.4,108.8 297.6,110.2 295.9,111.8 294.2,113.4 292.6,115 291.1,116.8 289.7,118.6 288.4,120.5 287.2,122.5 
	286.1,124.5 285.1,126.6 284.2,128.8 283.4,130.9 282.7,133.1 282.2,135.4 281.8,137.7 281.6,140 281.5,142.3 281.5,144.7 
	281.6,147 281.8,149.3 282.2,151.6 282.7,153.9 283.3,156.2 284,158.4 284.8,160.6 285.8,162.7 286.8,164.8 288,166.8 289.3,168.8 
	290.7,170.6 292.1,172.5 293.7,174.2 295.3,175.9 297,177.4 298.9,178.9 300.7,180.3 302.7,181.5 303.9,182.2 305.6,182.9 
	307.6,183.5 309.6,184.1 311.6,184.5 313.7,184.8 315.8,185 317.9,185 320,184.9 322.1,184.7 324.1,184.4 326.2,184 328.1,183.4 
	330.1,182.7 332.1,181.9 333.9,181 335.8,180 337.6,178.9 339.3,177.7 340.9,176.4 342.4,175 343.8,173.5 345.2,171.9 346.5,170.2 
	347.7,168.5 348.7,166.7 349.7,164.8 350.5,162.9 351.3,160.9 351.9,159 352.4,156.9 352.8,154.9 353.1,152.8 353.2,150.7 
	353.2,148.6 353.1,146.5 "/>
<polygon class="st0" points="284.3,73.5 283.6,73.1 278.2,69.6 273,66.2 279.3,58.1 276.7,56.2 270.8,64.1 270.3,63.5 269,63.1 
	267.8,62.5 266.7,61.8 265.7,61 264.8,60 264,58.9 263.4,57.8 263.4,57.1 263.5,56.4 264.9,49.7 264.9,48.3 264.7,47 264.7,46.3 
	264.8,45.6 265,44.9 265.4,44.2 265.8,43.7 266.4,43.2 267,42.9 267.7,42.6 268.5,42.6 269.2,42.5 269.8,42.4 270.4,42.2 
	270.9,41.9 271.4,41.5 271.8,40.7 272.2,39.8 272.4,39 273,36.8 273.8,34.6 274.6,32.4 275.6,30.4 276.6,28.3 277.8,26.4 279,24.5 
	280.4,22.6 281.8,20.8 283.4,19.2 285,17.6 286.7,16 288.5,14.6 290.4,13.3 292.3,12.1 294.3,10.9 296.3,9.9 298.4,9 300.6,8.2 
	302.8,7.5 305,6.9 307.2,6.5 309.5,6.1 311.8,5.9 314.1,5.8 316.4,5.9 318.6,6 320.9,6.3 323.2,6.7 325.4,7.2 327.6,7.8 329.8,8.5 
	331.9,9.3 334,10.3 336,11.4 338,12.5 339.9,13.8 341.7,15.1 343.5,16.6 345.2,18.1 346.8,19.8 348.3,21.5 349.7,23.3 351.1,25.1 
	352.3,27.1 353.4,29.1 354.4,31.1 355.4,33.2 356,35.1 356.6,37.1 357.1,39 357.4,41 357.7,43 357.8,45 357.8,47 357.6,49.1 
	357.4,51.1 357,53.1 356.5,55 356,57 355.3,58.8 354.4,60.7 353.5,62.5 352.5,64.2 351.3,65.9 350.1,67.5 348.8,69 347.4,70.5 
	345.9,71.8 344.3,73.1 342.7,74.3 341,75.4 339.2,76.3 337.4,77.2 335.5,77.9 333.6,78.6 331.6,79.1 329.6,79.6 327.6,79.9 
	325.6,80.1 323.6,80.1 321.6,80 319.6,79.8 317.6,79.5 315.3,79.2 313,78.7 310.8,78 308.6,77.2 306.5,76.2 305.8,75.8 305.3,75.2 
	305.2,74.7 305.2,74.3 305.4,73.8 305.9,73.4 306.5,73.1 307,73.1 307.4,73.3 308,73.6 314,74.7 315.9,75 317.7,75.2 319.6,75.3 
	321.5,75.2 323.4,75 325.3,74.7 327.1,74.3 328.9,73.8 330.7,73.1 332.4,72.3 334.1,71.5 335.7,70.5 337.2,69.4 338.7,68.2 
	340.1,66.9 341.4,65.6 342.6,64.1 343.7,62.6 344.7,61 345.6,59.3 346.4,57.7 347.1,55.9 347.6,54.1 348.1,52.3 348.4,50.4 
	348.6,48.5 348.7,46.6 348.6,44.8 348.5,42.9 348.2,41 347.8,39.2 347.2,37.4 346.6,35.6 345.8,33.9 345,32.2 344,30.6 342.9,29.1 
	341.7,27.6 340.5,26.2 339.1,24.9 337.6,23.6 336,22.4 334.4,21.3 332.7,20.3 330.9,19.5 329.1,18.7 327.2,18 325.3,17.5 
	323.4,17.1 321.5,16.8 319.5,16.6 317.5,16.6 315.6,16.7 313.6,16.9 311.7,17.2 309.8,17.6 307.8,18.2 306,18.8 304.2,19.6 
	302.4,20.5 300.7,21.5 299.1,22.6 297.5,23.8 296,25 294.6,26.5 293.3,27.9 292.1,29.5 290.9,31.1 289.9,32.7 289,34.5 288.2,36.3 
	287.5,38.1 286.9,40 286.7,40.8 286.7,41.5 286.9,42.3 287.1,43 287.6,43.7 288.1,44.3 288.7,44.7 289.4,45.1 290.1,45.2 
	290.7,45.4 291.3,45.7 291.8,46.2 292.3,46.7 292.6,47.4 292.8,48 292.9,48.8 292.8,49.4 292.6,50.1 291.7,51.4 290.9,52.9 
	290.2,54.3 289.7,55.9 289.3,57.5 289.1,59 289,60.6 289,62.2 289.1,63.8 289.4,65.5 289.9,67 290.2,67.7 290.5,68.4 290.5,69.2 
	290.5,69.9 290.3,70.6 290,71.3 289.6,72 289.1,72.5 288.6,73 287.9,73.4 287.2,73.6 286.5,73.8 285.8,73.8 285,73.7 "/>
<polygon class="st0" points="260.2,42 260.7,41.2 261,40.2 261.2,39.3 261.3,38.3 260.5,36.6 259.9,34.7 259.4,32.9 259,31 
	258.6,29 258.5,27.1 258.4,25.2 258.5,23.3 258.7,21.3 259,19.4 259.4,17.5 260,15.7 260.7,13.8 260.6,12.7 260.3,11.7 260,10.6 
	259.5,9.6 258.9,8.7 258.2,7.8 257.5,7 256.6,6.3 255.7,5.6 254.7,5.1 253.7,4.7 252.6,4.4 251.5,4.2 250.4,4.1 249.3,4.2 
	248.2,4.3 247.1,4.6 246.1,5 245.1,5.5 244.2,6.1 243.3,6.8 242.5,7.6 241.8,8.4 241.2,9.1 240.5,9.6 239.7,9.9 238.8,10.2 
	238,10.4 237.1,10.4 236.2,10.4 235.3,10.2 234.5,9.9 233.7,9.5 233,8.9 232.4,8.3 231.8,7.6 231.4,6.8 230.6,6.2 229.7,5.7 
	228.8,5.2 227.8,5 226.8,4.8 225.8,4.8 224.8,4.9 223.8,5.2 222.8,5.6 222.9,5.3 223.1,20.5 220.1,20.4 220,5.5 218.9,5.5 
	218.1,5.2 217.3,4.9 216.4,4.8 215.5,4.8 214.6,4.9 213.7,5 212.9,5.4 212.1,5.8 211.4,6.3 210.7,7 210.1,7.7 209.7,8.4 209.3,9.3 
	208.3,10 207.2,10.6 206,11 204.9,11.3 203.7,11.6 202.4,11.7 201.2,11.6 200,11.5 198.7,11.2 197.6,10.8 196.5,10.2 195.5,9.6 
	194.5,8.8 193.6,8 192.9,7.4 192.1,6.9 191.3,6.5 190.4,6.3 189.5,6.1 188.6,6.1 187.7,6.1 186.8,6.4 185.9,6.7 185.1,7.1 
	184.4,7.6 183.7,8.3 183.1,9 182.6,9.8 182.3,10.6 182,11.5 181.9,12.4 181.8,13.3 181.9,14.2 182.2,15.1 182.4,15.9 183,17.9 
	183.5,20 183.8,22 184,24.1 184,26.2 184,28.2 183.8,30.3 183.5,32.3 183.1,34.4 182.6,36.4 181.9,38.3 181.8,39.3 181.7,40.2 
	181.9,41.2 182.2,42 182.6,42.9 183.1,43.7 183.7,44.4 184.4,45 185.2,45.5 186,45.9 186.9,46.2 187.9,46.3 188.3,46.4 188.9,29.5 
	192,29.7 191.4,46.2 198.3,45.7 199.2,45.8 200.1,45.7 201,45.5 201.8,45.2 202.6,44.7 203.3,44.2 204,43.6 204.5,42.9 205,42.1 
	205.3,41.3 206.2,39.3 207,38.2 207.6,37.7 208.3,37.3 209.1,37 209.9,36.8 210.7,36.7 211.5,36.8 212.3,37 213.1,37.3 213.7,37.7 
	214.4,38.2 214.9,38.8 215.6,39.6 216.4,40.3 217.3,40.8 218.2,41.3 219.2,41.5 220.2,41.7 221.2,41.8 222.3,41.7 223.2,41.5 
	224.2,41.1 225.1,40.6 226,40.1 226.7,39.4 227.4,38.6 228,37.7 228.6,37.2 229.3,36.7 230.1,36.4 230.8,36.2 231.7,36.1 
	232.5,36.1 233.3,36.2 234.1,36.5 234.8,36.9 235.5,37.4 236.1,38 236.6,38.6 237,39.3 237.3,40.1 237.5,41 238.4,41.9 239.3,42.7 
	240.4,43.4 241.5,44 242.6,44.5 243.8,45 245.1,45.2 246.4,45.4 247.7,45.5 248.9,45.4 249.3,45.4 249.5,29.5 252.8,29.5 
	252.6,45.4 253.6,45.5 254.5,45.5 255.5,45.3 256.4,45 257.3,44.7 258.2,44.2 258.9,43.5 259.6,42.8 "/>
<polygon class="st0" points="240,188.9 240.3,188.9 240.8,189.3 241.3,189.9 242.2,191.5 243,193.1 243.3,194.1 243.9,195 
	244.5,195.8 245.2,196.6 250.4,202.1 252.8,204 255.2,205.8 257.8,207.5 260.3,208.9 263,210.1 265.7,211.2 268.4,212.2 
	270.7,212.9 273.1,213.4 275.5,213.7 277.9,213.9 280.9,213.6 283.9,213.1 284.8,212.9 285.7,212.6 286.6,212.2 287.4,211.7 
	288.1,211.1 290.6,207.8 296.9,211.9 298.5,209.3 292.2,205.2 293.6,203.2 293.8,202.9 294.2,202 294.4,201.1 294.5,199.8 
	294.4,198.5 293.6,193.1 293.4,191.8 293,190.4 292.5,189.1 291.8,187.9 291.1,186.7 289.8,185.1 288.4,183.4 286.9,181.9 
	285.3,180.5 283.6,179.1 281.2,177.2 278.7,175.4 276.2,173.7 273.5,172.1 271.8,171.3 270,170.5 268.1,169.9 266.2,169.5 
	264.3,169.1 262.4,169 260.4,168.7 258.4,168.2 256.5,167.6 254.6,166.8 253.4,166.1 253.1,165.7 252.9,165.3 252.8,164.9 
	253,164.5 253.4,164 253.9,163.7 255.5,163.1 257.1,162.7 258.8,162.3 260.6,162.1 262.4,161.9 264.2,161.9 266,162 267.8,162.2 
	269.6,162.6 273.2,163.7 276.7,165 280.1,166.4 282,167.3 283.8,168.3 285.6,169.4 287.3,170.6 288.9,172 290.4,173.4 291.9,174.9 
	293.2,176.5 296.2,180.8 297.9,183 299.5,185.3 301,187.6 301.6,188.9 302.1,190.3 302.4,191.7 302.6,193.1 302.6,194.5 
	302.5,195.9 302.3,197.4 302.1,198.2 302.1,199.1 302.2,199.9 302.4,200.7 302.8,201.5 303.2,202.2 304.1,203 305.1,203.7 
	306.1,204.3 307.2,204.8 311.3,206.4 313,206.8 314,207.1 314.8,207.5 315.4,208.1 315.9,208.7 316.9,210.4 305.3,227.8 
	304.6,227.9 304,227.8 303.3,227.6 302.6,227.2 301.9,226.6 301.3,226 299.7,224 296.4,220 295.3,219 294.1,218.3 293.4,218 
	292.7,218 292,218 291.3,218.2 290.6,218.5 289.6,219.2 288.4,220.1 287.1,220.8 285.8,221.5 284.4,222 282.9,222.4 281.4,222.6 
	279.9,222.7 278.4,222.7 274.3,222.3 270.1,221.7 268,221.4 265.8,221 263.7,220.5 261.6,219.8 259.5,219 257.5,218.1 255.6,217 
	253.8,215.8 252,214.5 250,213 248.2,211.4 246.4,209.6 244.7,207.8 241,203.1 239.5,199.7 238.5,197.4 237.6,195.2 237.1,193.5 
	236.8,191.8 236.7,190.1 236.8,189.5 237,188.9 237.3,188.5 237.8,188.3 238.7,188.3 239.4,188.5 "/>
<polygon class="st0" points="359.7,66 359.5,65.6 359.2,65.2 358.7,64.8 358.2,64.6 357.7,64.5 357.2,64.6 356.7,64.7 356.2,65 
	355.8,65.4 355.2,66.4 354.7,67.4 354.3,68.4 353.3,70.2 352.1,72.1 350.9,73.8 349.6,75.4 348.2,77 346.6,78.5 345,79.9 
	343.3,81.1 341.6,82.3 339.8,83.4 337.9,84.4 335.9,85.2 333.9,86 331.9,86.6 329.8,87.1 327.7,87.5 325.6,87.7 323.6,87.9 
	321.4,87.8 319.9,87.7 318.4,87.5 316.9,87.2 315.5,86.7 314.1,86.1 312.7,85.5 311.4,84.6 310.2,83.8 309,82.8 308,81.7 307,80.6 
	305.8,78.8 299.8,81.6 298.3,78.6 304.5,75.8 303.1,72.8 302.9,69.7 302.8,68.2 302.9,66.7 303.1,65.1 303.5,63.6 304,62.1 
	304.6,60.7 305.4,59.4 306.6,57.7 307.8,56 309.1,54.4 310.5,52.9 312,51.5 313.6,50.1 315.3,48.9 317,47.8 318.8,46.8 320.7,45.8 
	322.6,45 324.5,44.3 326.5,43.8 328.6,43.3 330.6,42.9 332.7,42.7 334.7,42.6 336.8,42.7 338.9,42.8 340.9,43 343,43.4 345.2,43.7 
	346,43.6 346.4,43.3 346.8,43 347.1,42.5 347.3,42 347.4,41.5 347.3,40.9 347.1,40.4 346.8,40 346.4,39.6 345.9,39.4 343.9,38.5 
	341.8,37.9 339.6,37.3 337.5,36.8 335.3,36.6 333,36.4 330.9,36.4 328.6,36.5 326.4,36.7 324.2,37.1 322.1,37.6 319.9,38.2 
	317.8,39 315.9,39.8 314,40.7 312.1,41.8 310.4,42.9 308.6,44.1 307,45.5 305.4,46.9 303.9,48.4 302.6,50 301.3,51.7 300.1,53.5 
	298.9,55.2 298,57.1 297.1,59.1 296.3,61 295.6,63.1 295.1,65.1 294.6,67.2 294.3,69.3 294.2,71.4 293.4,72.2 292.4,73 291.5,73.7 
	290.4,74.2 289.4,74.6 288.2,74.9 287,75.1 285.9,75.1 284.9,75.1 283,75 282.3,75 281.6,75.1 280.9,75.3 280.3,75.7 279.8,76.2 
	279.4,76.8 279.1,77.4 278.9,78.1 278.9,78.8 278.9,79.5 279.2,80.2 286.6,95.8 287.4,96 288.2,96.1 289.1,96.1 289.9,96 
	290.7,95.8 291.4,95.5 292.1,95 292.7,94.5 293.2,93.8 294.5,92.5 295.3,91.6 296,90.9 296.8,90.2 297.7,89.7 298.7,89.2 
	299.6,88.9 300.6,88.7 301.7,88.6 303.4,89.7 305.2,90.9 307,91.9 308.9,92.7 310.8,93.5 312.8,94.2 314.8,94.7 316.9,95.2 
	319,95.5 321,95.7 323.1,95.8 325.2,95.8 327.3,95.6 329.4,95.3 331.5,94.9 333.5,94.4 335.5,93.8 337.4,93.1 339.4,92.3 
	341.2,91.4 343,90.3 344.8,89.2 346.5,87.9 348.1,86.6 349.7,85.2 351.1,83.6 352.4,82.1 353.7,80.4 354.9,78.7 356,76.9 356.9,75 
	357.8,73.1 358.5,71.2 359.2,69.2 359.7,67.2 359.8,66.6 "/>
<polygon class="st0" points="189.4,137.3 189.8,137.1 191,136 192,134.8 192.9,133.6 193.8,132.3 194.6,130.9 195.3,129.5 
	195.8,128 196.2,126.5 196.6,125 196.8,123.4 196.9,121.8 196.9,120.2 196.7,118.5 196.4,116.7 196,114.9 195.5,113.2 194.8,111.5 
	194.1,109.9 193.2,108.4 192.2,106.9 191.1,105.4 189.9,104.1 188.7,102.9 187.3,101.7 185.9,100.6 184.3,99.6 182.8,98.9 
	181.1,98.1 180,97.9 179,97.5 178,97 177.1,96.3 176.7,95.9 176.5,95.3 176.4,94.5 176.4,93.6 176.8,90.6 177.4,87.6 177.9,85.3 
	178,84.9 178.2,84.2 178.2,83.5 178.1,82.7 177.9,82 177.6,81.3 177.1,80.7 176.6,80.2 176,79.8 175.3,79.5 174.6,79.3 173.8,79.2 
	173.1,79.3 159.8,81.3 158.9,81.5 158.1,81.8 157.4,82.2 156.8,82.8 156.2,83.4 155.8,84.1 155.4,84.9 155.2,85.8 155.2,86.6 
	155.2,87.5 155.4,88.3 155.7,89.1 159.3,96 159.6,96.7 159.7,97.4 159.7,98.2 159.6,98.9 159.4,99.6 159,100.2 158.5,100.8 
	157.1,101.7 155.7,102.6 154.4,103.7 153.2,104.9 152,106.2 151,107.5 150,109 149.2,110.5 148.5,112 147.9,113.6 147.4,115.2 
	147,116.9 146.8,118.5 146.6,120.3 146.6,122 146.8,123.7 147,125.3 147.4,127 147.8,128.7 148.4,130.2 149.2,131.8 150,133.3 
	150.9,134.7 152,136.1 153.1,137.3 154.3,138.5 155.6,139.6 157,140.6 158.4,141.5 158.9,141.7 159.4,141.8 160,141.8 160.5,141.7 
	161,141.4 161.4,141.1 161.7,140.6 162,140.1 162.1,139.6 162.1,139.1 162,138.6 161.6,137.9 159.9,136.1 158.8,135.1 157.9,134 
	157,132.8 156.3,131.5 155.6,130.3 155.1,128.9 154.7,127.5 154.4,126.1 154.2,124.7 154.1,123.2 154.2,121.8 154.4,120.4 
	154.7,118.9 155.1,117.6 155.6,116.2 156.3,114.9 157,113.7 157.8,112.5 158.8,111.4 159.8,110.4 160.9,109.4 162.1,108.6 
	163.3,107.8 164.6,107.2 165.9,106.6 167.3,106.2 167.7,106.2 167.2,100.8 170.5,100.5 171,106.4 171.6,106.4 172.4,106.4 
	173.9,106.4 175.3,106.6 176.8,106.8 178.2,107.3 179.5,107.8 180.9,108.4 182.1,109.1 183.4,110 184.5,110.9 185.5,112 
	186.5,113.1 187.3,114.2 188.1,115.5 188.7,116.8 189.3,118.2 189.7,119.6 190,121 190.1,122.5 190.2,124 190.1,125.4 189.9,126.9 
	189.6,128.3 189.1,129.7 188.6,131.1 187.9,132.4 187.1,133.6 186.7,133.9 186.4,134.4 186.2,134.8 186.1,135.3 186.2,135.8 
	186.4,136.3 186.6,136.8 187,137.1 187.4,137.4 187.9,137.5 188.4,137.6 188.9,137.5 "/>
<polygon class="st0" points="171.5,112.5 172,112.6 172.5,112.7 172.9,113 173.3,113.4 173.6,113.9 173.8,114.4 173.8,114.9 
	173.8,115.4 173.6,115.9 173.3,116.4 172.2,117.4 170.6,119 169.9,120.1 169.3,121.2 168.8,122.3 168.4,123.5 168.1,124.7 168,126 
	167.9,127.2 168,128.4 168.2,129.7 168.5,130.9 169,132 169.5,133.1 170.2,134.2 171,135.2 171.8,136.1 172.7,136.9 173.8,137.7 
	174.8,138.3 176,138.8 177.1,139.2 178.4,139.5 179.6,139.7 180.9,139.8 182.1,139.7 183.3,139.5 184.5,139.2 185.7,138.8 
	185.7,138.8 186.7,145.9 189.8,145.5 188.7,138.7 190.2,138.7 191.5,138.8 192.7,138.8 193.9,138.6 195.1,138.3 196.3,137.9 
	197.4,137.3 198.4,136.7 199.5,136 200.4,135.1 201.2,134.3 202,133.3 202.6,132.2 203.2,131.1 203.6,130 203.9,128.7 204.1,127.6 
	204.2,126.3 204.2,125.1 204.1,123.9 203.8,122.6 203.4,121.4 202.9,120.3 202.4,119.3 201.7,118.2 200.9,117.3 200,116.4 
	199.1,115.8 198.3,115.4 197.8,114.7 197.3,114 197.1,113.5 197.1,112.9 197.2,112.3 197.4,111.8 197.7,111.3 198.2,111 
	198.7,110.8 199.3,110.7 199.9,110.7 200.4,110.9 202.1,111.7 203.8,112.7 205.3,113.9 206.7,115.2 207.7,116.3 208.6,117.5 
	209.4,118.7 210,120 210.6,121.4 211.1,122.8 211.4,124.2 211.6,125.7 211.8,127.1 211.8,128.6 211.6,130.1 211.4,131.6 211,133 
	210.5,134.3 209.9,135.7 209.2,137 208.4,138.3 207.5,139.4 206.5,140.5 205.5,141.5 204.3,142.4 203.1,143.2 201.8,144 
	200.5,144.6 199.1,145.1 197.6,145.4 197.1,145.8 196.7,146.3 196.3,146.9 196,147.5 195.9,148.1 195.9,148.8 196,149.5 
	196.2,150.1 196.6,150.7 197,151.2 198.3,152.4 199.4,153.5 199.8,154.1 200.1,154.7 200.3,155.4 200.4,156.1 200.4,156.8 
	200.2,157.5 200,158.1 199.6,158.7 199.1,159.2 198.6,159.7 198,160 197.3,160.3 196.6,160.4 182.3,161.9 181.6,161.9 180.8,161.8 
	180.1,161.5 179.4,161.2 178.8,160.8 178.3,160.2 177.8,159.6 177.5,158.9 177.3,158.2 177.2,157.5 177.2,156.7 177.3,156 
	177.6,155.3 178.3,153.9 179.3,152.5 179.6,152 179.8,151.3 179.9,150.7 179.8,150 179.7,149.4 179.4,148.8 179,148.3 178.4,147.9 
	177.8,147.7 177.2,147.5 176.5,147.3 174.4,146.8 173,146.3 171.5,145.7 170.2,144.9 168.9,144.1 167.7,143.1 166.6,142.1 
	165.5,141 164.6,139.7 163.7,138.5 163,137.1 162.3,135.7 161.8,134.2 161.4,132.8 161.1,131.3 160.9,129.7 160.9,128.2 161,126.6 
	161.2,125.1 161.5,123.6 162,122.1 162.5,120.7 163.4,119.2 164.7,117.4 166,116 167.4,114.8 168.8,113.7 170.4,112.8 171,112.6 "/>
<polygon class="st0" points="36.7,83.5 37.1,83.7 37.7,83.7 38.1,83.6 38.6,83.4 39,83.1 39.3,82.7 39.6,82.2 39.8,80.7 40,79.3 
	40.3,78.2 40.8,77.2 41.3,76.3 42,75.4 42.8,74.6 43.6,73.9 44.5,73.3 45.5,72.8 46.5,72.4 47.5,72.2 48.6,72 49.7,72 50.8,72.1 
	51.9,72.3 52.9,72.6 53.9,73 54.3,73.2 54.9,73.6 57.8,67.2 60.5,68.6 57.8,74.8 60.4,75.9 61.3,76.5 62.2,77.2 63,78 63.7,78.9 
	64.3,79.8 64.8,80.8 65.1,81.9 65.4,83 65.5,84.1 65.4,85.3 65.3,86.4 65,87.5 64.6,88.5 64.1,89.5 63.5,90.5 62.8,91.3 61.9,92.1 
	61.7,92.6 61.6,93.2 61.6,93.8 61.8,94.4 62.1,94.9 62.5,95.3 63,95.7 63.5,95.9 64.1,96 64.7,95.9 65.3,95.8 66.4,95.2 67.6,94.5 
	68.7,93.7 69.7,92.9 70.6,91.9 71.4,90.8 72.1,89.7 72.7,88.5 73.2,87.2 73.6,85.9 73.9,84.6 73.9,83.3 74,82 73.8,80.6 73.6,79.3 
	73.1,78 72.7,76.8 72,75.6 71.3,74.5 70.5,73.4 69.5,72.5 68.3,71 67.8,70.2 67.8,69.5 67.8,68.9 68,68.3 68.2,67.7 68.6,67.2 
	69.1,66.7 70.3,65.5 70.9,64.8 75.1,60.9 75.5,60.3 75.9,59.6 76.1,58.9 76.2,58.1 76.2,57.4 76,56.6 75.8,55.9 75.4,55.3 
	74.8,54.7 74.3,54.2 73.6,53.8 60.7,47.9 60,47.6 59.2,47.5 58.5,47.5 57.7,47.6 57,47.9 56.3,48.2 55.7,48.7 55.2,49.2 54.8,49.8 
	54.5,50.5 54.3,51.2 54.2,51.9 54.2,52.4 54,55 53.7,57.1 53.4,59.1 52.9,61.2 52.7,61.7 52.4,62.3 51.9,62.7 51.4,62.9 50.8,63 
	49.5,63.1 48.2,63.1 46.8,63.2 45.5,63.5 44.2,63.8 43,64.3 41.8,64.9 40.6,65.6 39.6,66.5 38.6,67.4 37.7,68.4 36.9,69.5 
	36.2,70.7 35.7,71.9 35.2,73.1 34.9,74.5 34.7,75.8 34.6,77.1 34.7,78.5 34.9,79.8 35.2,81.1 35.6,82.4 35.9,82.8 36.3,83.2 "/>
<polygon class="st0" points="67.5,221.4 67.4,222.9 67.5,224.4 67.7,225.9 68.1,227.4 68.5,228.8 69,229.8 69.5,230.7 70.2,231.4 
	71,232.1 71.9,232.7 74.2,233.6 76.7,234.3 78.6,234.6 80.7,234.8 82.7,235 84.7,235 86.7,234.8 88.7,234.6 90.7,234.3 94.6,233.4 
	98.6,232.8 99.9,232.7 101.2,232.7 102.5,232.8 103.8,233.1 105,233.5 106.2,234 107.4,234.6 108.4,235.4 109.2,236 110.1,236.4 
	111.1,236.7 112.1,236.8 113.6,236.7 115.1,236.4 116.5,235.9 118.6,235 120.8,234.4 121.7,234.3 122.6,234.2 123.5,234.4 
	124.3,234.7 125.1,235.1 125.8,235.7 126.6,236.3 127.5,236.8 128.6,237.1 129.7,237.4 130.8,237.3 131.9,237.2 133,236.9 
	135.9,235.8 138.7,234.6 140.1,234.1 141.6,233.7 143.1,233.5 144.6,233.4 146.6,233.5 154.6,233.1 156.3,233 158,233.1 
	159.7,233.4 161.3,233.8 162.9,234.4 164.5,235.1 165.4,235.6 166.4,235.9 167.5,236.1 168.7,236.1 169.8,236 170.9,235.8 
	172,235.5 177.4,233.8 178.5,233.7 179.7,233.6 180.9,233.7 182.5,234.3 183.9,235.1 185.1,236.2 187.5,238.6 188.5,239.6 
	189.6,240.4 190.7,241.2 191.9,241.9 193.1,242.2 194.3,242.4 195.5,242.4 196.7,242.3 197.9,242.1 199.1,241.8 200.2,241.4 
	201.3,240.8 202.3,240.1 203.2,239.4 204.2,238.5 205.1,237.5 205.9,236.4 206.5,235.2 207,234 207.3,232.7 208.2,229.4 
	209.2,226.2 210.4,223 211.7,219.9 213.1,216.9 214.6,213.8 218.6,206.9 219.7,205.3 220.9,204 221.6,203.1 222.1,202.2 
	222.5,201.2 222.7,200.2 222.8,199.1 222.7,198.4 222.5,197.8 222.2,197.1 221.8,196.6 221.3,196.2 220.7,195.8 220.1,195.5 
	219.5,195.2 218.8,195.1 218.1,195.1 217.3,195.2 216.7,195.4 216.1,195.7 215.3,196.3 214.7,197.1 214.2,197.8 213.8,198.8 
	213.6,199.6 213.4,201.4 213.3,202 213,202.6 212.6,203.1 212.1,203.5 210.9,204 209.6,204.3 208.3,204.6 207,205.1 206.3,204.8 
	205.3,204.3 199.8,220.3 197.1,219.3 202.7,203.1 201,202.8 200.2,202 199.3,201.2 198.4,200.6 197.4,200.1 196.3,199.7 
	195.8,199.5 195.2,199.5 194.8,199.6 194.3,199.9 193.9,200.2 193.3,201.1 192.8,202 192.5,203 192.3,204.5 192.2,205.9 
	192.2,207.4 192.2,208.5 192.1,209.7 191.8,210.8 191.4,211.9 190.4,213.9 189.2,215.9 188.7,216.7 188.4,217.1 187.6,217.7 
	186.7,218.2 185.8,218.6 184.8,218.9 183.9,219 182.9,219.1 182,219 181.4,218.8 180.8,218.5 180.3,218.2 179.8,217.7 179.5,217.1 
	178.3,215.9 177.5,215.4 176.6,215 175.8,214.7 174.9,214.6 174,214.6 173.1,214.7 172.2,215 170.4,215.8 168.7,216.7 167.1,217.7 
	164.9,219.2 162.6,220.6 160.4,221.9 159.3,222.4 158.1,222.8 157,223 155.8,223.2 154.6,223.2 152.7,223.2 144.7,223.4 
	143.3,223.4 142,223.2 140.7,222.8 139.5,222.4 138.3,221.8 137.1,221.1 136.1,220.3 134.3,218.7 133.6,218.3 132.9,218 
	132.2,217.7 131.4,217.7 130.6,217.7 129.9,217.9 128.2,218.5 126.5,219.3 125.1,220 123.7,220.7 122.2,221.2 121.5,221.3 
	120.7,221.3 120,221.1 119.3,220.9 118.6,220.6 118,220.1 117.3,219.5 116.4,219.1 115.5,218.8 114.4,218.8 113.3,218.9 
	112.2,219.1 111.2,219.5 108.4,220.9 105.8,222.4 104.5,223.1 103.1,223.7 101.7,224.1 100.2,224.3 98.2,224.3 96.2,224.1 
	94.2,223.8 90.2,223 86.2,222.5 84.9,222.4 83.6,222.5 82.4,222.7 81.2,223.2 80.7,223.3 80.1,223.3 79.6,223.2 79.1,223 
	78.4,222.5 77.8,221.9 76.6,220.3 75.5,218.5 74.2,216.4 72.7,214.4 72.3,213.9 71.7,213.5 71.2,213.5 70.7,213.6 70.1,214 
	69.1,215.6 68.5,217 68.1,218.4 67.7,219.9 "/>
<polygon class="st0" points="226.4,104.2 227,103.8 227.5,103.2 227.9,102.6 228.2,101.8 228.4,101.1 228.4,100.4 228.3,99.6 
	228.1,98.8 227.8,97.9 226.2,94.7 224.8,91.5 223.6,88.3 222.5,84.9 221.5,81.5 220.6,78.2 219.9,74.7 219.3,71.3 218.8,67.8 
	218.9,66.6 218.9,65.4 218.7,64.2 218.4,63 218,61.9 217.6,60.8 216.9,59.7 216.2,58.7 215.5,57.8 214.6,57 213.6,56.3 212.6,55.6 
	211.5,55.1 210.3,54.7 209.2,54.4 208,54.2 206.8,54.1 205.5,54.1 204.4,54.3 203.2,54.6 202.1,55 201,55.5 199.9,56.1 199.3,56.9 
	198.5,57.6 197.6,58.2 196.7,58.7 195.7,59.1 194.7,59.3 193.7,59.5 192.7,59.5 191.6,59.4 190.7,59.2 189.7,58.9 188.7,58.4 
	187.9,57.9 187.1,57.2 186.5,56.6 185.8,56.1 185.2,55.6 184.4,55.3 183.6,55 182.8,54.9 181.9,54.9 181.1,55.1 180.3,55.3 
	179.1,56 177.5,57.4 175.6,59.2 173.7,60.8 171.7,62.4 169.6,63.9 167.5,65.3 165.3,66.5 163,67.7 160.7,68.7 158.3,69.7 
	155.9,70.5 153.4,71.1 150.9,71.6 148.4,72.1 145.8,72.3 143.3,72.5 140.7,72.5 139.7,72.3 138.6,72.2 137.5,72.2 136.5,72.4 
	135.4,72.7 134.4,73.1 133.5,73.7 132.7,74.4 131.9,75.2 131.3,75.8 130.8,76.1 130.3,76.2 129.8,76.2 129.3,76.1 128.4,75.5 
	127.5,74.8 126.9,74.2 126.2,73.8 125.4,73.5 124.6,73.4 123.8,73.3 123,73.4 121.7,73.7 120.5,74.3 118.9,75.1 117.3,75.8 
	115.6,76.4 113.9,76.8 112.1,77.1 110.3,77.2 108.6,77.3 106.8,77.2 105,76.9 103.3,76.6 101.6,76.1 99.9,75.5 98.3,74.7 97.6,74.3 
	96.9,73.9 96.1,73.7 95.3,73.6 94.5,73.6 93.6,73.8 92.9,74 92.1,74.5 91.5,74.9 90.4,75.7 89.9,75.9 89.4,75.9 89,75.7 88.4,75.2 
	88,74.6 87.6,74.1 87.1,73.5 86.5,73.1 85.8,72.8 85.1,72.7 84.3,72.7 83.7,72.9 83.1,73.3 82.3,74.1 82,74.3 81.6,74.4 81.2,74.5 
	80,74.4 79.1,74.6 78.3,74.8 77.6,75.2 77,75.9 76.6,76.6 76.3,77.3 76.2,78.1 74.7,90.9 74.7,91.6 74.9,92.2 75.1,92.8 75.5,93.3 
	76,93.7 76.5,94 77.2,94.1 77.8,94.1 78.4,94 79,93.8 79.5,93.4 80,92.9 80.3,92 80.6,91.2 80.8,90.6 81.1,90.1 81.5,89.6 82,89.3 
	82.6,89.1 83.2,88.9 83.8,88.9 84.4,88.8 84.9,88.6 85.3,88.1 85.6,87.6 86.3,85.9 86.6,85.4 87,85.1 87.5,84.9 88,84.8 88.6,84.9 
	89.5,85.2 90.3,85.7 91.1,86.3 91.8,87 92.6,87.5 93.5,87.8 94.4,88 95.3,88 96.4,87.8 97.9,87.2 99.3,86.6 100.7,86.2 102.2,85.8 
	103.6,85.6 105.1,85.5 106.6,85.5 108.1,85.7 109.6,86 111,86.4 112.4,86.9 113.8,87.6 115,88.3 116,89 118.2,90.9 118.9,91.4 
	119.7,91.9 120.6,92.2 121.6,92.4 122.5,92.4 123.4,92.3 124.3,92.1 125.2,91.7 126,91.3 126.7,90.7 127.4,90 128.2,89.1 
	128.6,88.9 129.1,88.8 129.6,88.7 130,88.8 130.9,89.3 131.6,90 132.3,90.7 133,91.2 133.8,91.5 134.7,91.8 135.6,91.9 136.4,91.9 
	137.3,91.7 138.2,91.5 139,91.1 139.9,90.5 140.7,89.8 141.3,89 142,88.2 142.5,87.2 144.3,85.9 146.2,84.6 148.2,83.5 150.2,82.5 
	152.3,81.6 154.4,80.7 156.5,80 158.7,79.4 160.9,78.9 163.2,78.6 165.4,78.3 167.7,78.2 170,78.1 172.2,78.2 174.4,78.5 
	176.7,78.8 178.9,79.3 179.9,79.6 181,79.8 182,79.9 183.1,79.8 184.1,79.6 185.1,79.3 186.1,78.8 187,78.2 187.8,77.5 188.5,76.7 
	188.8,76.1 189.1,75.4 189.5,74.9 190,74.5 190.6,74.1 191.3,73.8 192,73.7 192.7,73.6 193.4,73.7 194.1,73.9 194.7,74.2 
	195.2,74.6 195.7,75.1 196.1,75.7 196.9,77.1 197.5,78.7 198.1,80.2 198.5,81.8 198.7,83.5 198.9,85.1 198.9,86.7 198.8,88.4 
	198.5,90 198.3,90.8 198.2,91.6 198.3,92.4 198.4,93.1 198.8,93.9 199.2,94.5 199.7,95.1 200.3,95.6 200.8,95.9 201.4,96.1 
	202,96.1 203.1,95.7 209,92.9 209.4,92.8 206.4,77 209.3,76.4 212.3,92.9 212.7,92.8 213.7,93.2 214.6,93.6 215.5,94.2 216.4,94.8 
	217.1,95.6 217.8,96.4 218.4,97.3 218.8,98.2 219.1,99.2 219.4,100.3 219.4,101.1 219.6,101.8 219.9,102.5 220.3,103.2 220.7,103.7 
	221.3,104.2 222,104.6 222.7,104.9 223.5,105 224.2,105 225,104.8 225.7,104.6 "/>
<polygon class="st0" points="46.5,91.5 46.9,92.4 47.1,93.4 47.2,94.4 47.1,95.4 46.9,96.4 46.7,97.4 46.3,98.2 45.9,99 45.3,99.7 
	44.7,100.3 44.3,100.5 43.8,100.7 43.3,100.7 42.8,100.6 42.4,100.4 40.8,99.5 39.1,98.7 38,98.4 36.8,98.3 36.3,98.4 35.9,98.6 
	35.5,98.9 35.1,99.4 34.9,100.1 34.9,100.7 34.4,104 34.2,105.1 33.8,106.1 33.3,107 32.6,107.8 31.8,108.5 31,109.1 30.1,109.8 
	28.6,110.9 27.9,111.8 27.3,112.8 26.8,113.9 26.5,115 26.5,115.8 26.4,116.6 26.5,117.5 27,119.1 27.8,120.6 28.6,122.6 
	28.7,123.1 28.7,123.7 28.5,124.2 27.9,124.9 24.6,127.2 24,127.7 23.5,128.3 23.3,128.7 23.2,129.2 23.3,129.6 23.5,130.1 
	23.9,130.8 24.5,131.4 25,131.9 25.4,132.6 25.7,133.3 25.8,134.1 25.7,134.8 25.3,136.3 24.7,137.7 24.1,139.1 23.6,140.6 
	23.4,144.2 23.5,147.8 23.8,151.4 24,152.4 24.5,153.3 25.1,154.2 27,156.7 27.4,157.3 27.7,158 27.8,158.7 27.8,159.4 27.5,160.5 
	27,161.5 26.7,162.7 26.6,163.8 26.8,164.6 27.1,165.3 27.6,166 28.2,166.5 29.3,167.3 30.6,167.9 31.2,168.2 31.9,168.6 
	32.3,169.2 32.6,169.8 32.8,170.5 32.8,171.4 32.6,172.3 32.4,173.1 32,173.9 31.2,175.3 30.3,176.5 29.5,177.6 28.9,178.7 
	28.4,180 28,181.2 27.7,182.5 27.3,184.6 27,186.8 26.9,189 27,191.1 27.3,193.2 27.6,195.2 28.1,197.3 28.8,198.9 29.7,200.6 
	30.7,202.2 31.5,203.8 32.3,205.4 32.3,206.1 32.3,206.7 32.1,207.3 31.3,208.3 30.4,209.2 28.9,210.7 28.5,211.2 28.3,211.9 
	28.3,212.5 28.6,213.1 29,213.6 29.6,214.4 30.2,215.3 30.5,216.3 30.7,217.4 30.6,218 30.5,218.7 30.2,219.3 29.8,219.8 
	29.3,220.3 28.8,220.6 27.2,221.2 26.6,221.4 26,221.8 25.6,222.3 25.2,222.9 24.8,224.1 24.5,225.4 23.9,227.3 23.7,227.8 
	23.4,228.2 22.9,228.5 22.4,228.7 20.7,228.7 14.6,227.8 13.1,227.7 11.6,227.7 10.5,227.7 9.5,227.6 8.4,227.4 7.5,227 6.5,226.6 
	5.9,226 5.4,225.4 5.4,224.9 5.4,224.5 5.6,224.1 6.2,223.5 6.8,223 8.1,222.3 9.5,221.8 10.9,221.4 12.2,220.9 13.5,220.2 
	14,219.7 14.4,219 14.7,218.3 15,217.4 15.5,216.6 16.1,216 18.7,214 19.7,213 20,212.6 20,212.1 20,211.6 19.8,211.1 18.7,209.8 
	17.4,208.3 16.2,206.6 15.8,205.9 15.6,205.1 15.6,204.2 15.7,203.4 16,202.6 16.7,201 17.2,199.4 17.6,197.8 17.8,196.1 
	17.8,194.5 17.9,191.9 17.9,190.5 17.8,189 17.5,187 17.1,185.1 16.5,183.1 15.8,181.2 14.7,178.5 13.6,176.8 12.5,175.2 
	11.9,174.3 11.4,173.4 11,172.4 11,171.8 11,171.2 11.2,170.6 11.4,170.1 11.8,169.7 13.7,167.9 14,167.4 14.3,166.8 14.3,166.2 
	14.2,165.5 13.9,164.8 13.4,164.3 12.6,163.7 11.7,163.3 11.1,163 10.6,162.7 10.3,162.3 10.1,161.9 10,160.9 10,159.8 10.1,158.7 
	10.4,157.7 11.9,153.5 12.1,152.1 12.2,150.7 12.2,149.2 12.1,147.5 12,145.7 11.7,144.1 11.3,142.4 10.7,140.8 10.1,139.2 
	9.3,137.7 7.9,135.5 6.5,133.5 4.8,131.6 4.3,130.9 3.9,130.2 3.7,129.3 3.5,128.5 3.5,127.6 3.7,126.8 3.9,126 4.2,125.1 
	4.6,124.3 5.2,123.5 5.9,122.9 6.6,122.3 7.4,121.9 8.3,121.5 9.1,121 9.4,120.6 9.7,120.2 9.7,119.7 9.6,119 9.3,118.3 8,116.9 
	7.4,116.3 7,115.5 6.9,115 7,114.5 7.1,113.9 9.2,109.4 9.6,108.1 9.6,107.5 9.5,106.9 9.3,106.3 8.7,105.6 8.4,105.2 7.3,104 
	6.2,102.7 5.9,102.1 5.7,101.5 5.7,100.8 5.7,100.2 6,99.6 6.8,97.9 7.8,96.3 8.9,94.8 9.7,93.7 10.5,92.4 11.1,91 11.5,89.6 
	11.8,87.9 12.3,86.1 12.6,85.5 13,84.9 13.4,84.4 14,84 14.8,83.7 15.6,83.5 16.4,83.5 17.3,83.6 18,83.8 18.6,84.2 19.1,84.7 
	20.3,84.9 18.2,102.6 21.2,102.9 23.2,85.5 24.5,86.1 25.4,86 26.2,86 29.4,86.4 30.7,86.5 32,86.4 34.3,85.9 35.7,85.6 37.1,85.5 
	38.4,85.6 39.8,85.7 41.2,86.1 42.2,86.5 43.2,87.1 44.1,87.8 44.8,88.6 45.5,89.5 46.1,90.5 "/>
<polygon class="st0" points="146.7,139.8 147.2,139.1 147.6,138.3 147.8,137.4 148,136.5 148,135.6 147.1,133 146.3,130.3 
	145.7,127.6 145.2,124.9 144.8,122.2 144.6,119.4 144.5,116.6 144.6,113.8 144.8,111.1 145.1,108.3 145.4,107.2 145.6,106.1 
	145.6,105 145.5,103.9 145.4,102.8 145.1,101.7 144.6,100.7 144.1,99.7 143.4,98.9 142.6,98 141.8,97.3 140.9,96.6 139.9,96.1 
	138.9,95.7 137.8,95.4 136.7,95.2 135.6,95.2 134.5,95.3 133.4,95.5 132.3,95.8 131.3,96.3 130.3,96.8 129.4,97.5 128.6,98.2 
	127.9,99.1 127.2,100 126.8,101 126.3,102 125.7,102.9 125,103.8 124.1,104.5 123.3,105.2 122.3,105.8 121.3,106.2 120.2,106.6 
	119.1,106.7 118,106.8 109.6,106.9 107.1,106.8 106,106.8 106,122 103,122 103.1,106.7 102,106.7 99.9,106.7 92.1,106.8 90.9,106.8 
	89.7,106.6 88.5,106.4 87.3,105.9 86.2,105.4 85.1,104.8 84.1,104.1 83.1,103.2 82.2,102.3 81.9,101.3 81.4,100.3 80.8,99.4 
	80.1,98.5 79.4,97.7 78.5,97.1 77.5,96.5 76.6,96 75.5,95.7 74.5,95.4 73.4,95.4 72.3,95.4 71.2,95.5 70.1,95.8 69.1,96.2 
	68.1,96.7 67.2,97.3 66.4,98 65.6,98.8 65,99.7 64.4,100.6 63.9,101.6 63.6,102.7 63.4,103.8 63.4,104.9 63.9,107.3 64.3,109.9 
	64.6,112.4 64.7,115 64.7,117.6 64.6,120.2 64.4,122.7 64,125.2 63.5,127.8 62.8,130.3 62.1,132.7 61.7,133.5 61.3,134.4 
	61.1,135.3 61.1,136.2 61.1,137.2 61.4,138 61.7,139 62.1,139.8 62.7,140.5 63.3,141.2 64,141.8 64.8,142.2 65.7,142.6 66.6,142.8 
	70.3,142.9 71.8,121.6 74.8,121.7 73.1,143 78.9,142.8 79.8,142.5 80.7,141.9 81.5,141.1 82.2,140.4 82.8,139.4 82.9,138.5 
	83.2,137.7 83.6,136.9 84.1,136.1 84.6,135.5 85.3,134.9 86.1,134.5 87,134.1 87.8,133.9 88.7,133.9 89.6,134 90.5,134.2 
	91.4,134.5 92.4,135.2 94.2,137.1 95.1,138.1 96.1,139 97.2,139.8 98.3,140.5 99.6,141.1 100.8,141.6 102.1,142 103.5,142.2 
	104.9,142.3 106.2,142.3 107.6,142.1 108.9,141.8 110.2,141.4 111.5,140.9 112.7,140.2 113.8,139.5 114.9,138.6 115.8,137.7 
	116.2,136.9 116.7,136.2 117.4,135.6 118.1,135.1 118.8,134.7 119.6,134.4 120.5,134.2 121.3,134.1 122.1,134.2 123,134.3 
	123.8,134.6 124.6,135 125.3,135.5 125.9,136 126.4,136.7 126.9,137.5 127.2,138.2 127.3,139.1 127.6,140 128,140.8 128.5,141.5 
	129.1,142.1 129.9,142.7 134.4,142.5 135.8,142.5 134.5,121.9 137.8,121.8 138.8,142.4 143.9,142.1 144.7,141.7 145.4,141.1 
	146.1,140.5 "/>
<polygon class="st0" points="238.7,83.2 238.2,83.2 237.7,83.4 237.2,83.6 236.7,83.9 236.4,84.3 236.2,84.8 236,85.4 236,85.9 
	236.2,86.4 236.4,86.9 236.7,87.3 237.1,87.7 237.6,88 239.6,88.6 240.7,88.9 242.7,89.6 244.6,90.4 246.4,91.4 248.3,92.4 
	250.1,93.6 251.7,94.9 253.3,96.2 254.8,97.7 256.2,99.2 257.6,100.8 258.8,102.5 259.9,104.3 261,106.1 261.9,108 262.7,109.9 
	263.3,111.9 263.9,114 264.3,116 264.6,118.1 264.8,120.2 264.9,122.3 264.8,124.4 264.6,126.5 259.2,133.2 259.4,133.7 
	263.3,139.3 261,141.1 256.9,135.3 255.3,136.4 253.9,137 252.6,137.5 251.1,137.9 249.7,138.2 248.2,138.3 246.6,138.3 
	245.2,138.2 243.7,138 242.3,137.7 240.8,137.2 239.5,136.7 237.5,135.7 235.7,134.7 233.9,133.6 232.2,132.3 230.6,130.9 
	229,129.5 227.6,128 226.2,126.4 224.9,124.7 223.7,122.9 222.6,121.1 221.7,119.2 220.9,117.2 220.1,115.3 219.5,113.3 219,111.2 
	218.7,109.1 218.4,107 218.3,104.9 218.1,102.6 217.8,101.9 217.4,101.5 216.9,101.1 216.4,100.9 215.8,100.9 215.2,100.9 
	214.6,101.1 214.2,101.5 213.7,101.9 213.4,102.4 213.2,102.9 213,105.1 212.8,107.2 212.7,109.4 212.8,111.5 213,113.7 
	213.3,115.8 213.7,117.9 214.3,120 215,122 215.8,124 216.7,126 217.7,127.9 218.8,129.7 220,131.5 221.3,133.2 222.7,134.8 
	224.2,136.4 225.8,137.8 227.5,139.2 229.2,140.5 231,141.6 232.9,142.7 234.8,143.6 236.8,144.5 238.9,145.2 240.9,145.8 
	243,146.3 245.2,146.7 247.3,146.9 249.4,147 251.6,147 253.7,146.9 255.9,146.7 256.5,147 257.2,147.5 257.7,148 258.2,148.6 
	258.5,149.3 258.7,150 258.8,150.8 259.4,153 259.7,154.4 260.2,155.8 260.9,157.2 261.6,158.4 261.9,158.9 262.4,159.2 
	262.9,159.4 263.4,159.5 264,159.4 264.9,159.2 265.6,158.7 278.9,148.9 279.4,148.4 279.8,147.9 280.1,147.4 280.3,146.7 
	280.4,146.1 280.3,145.4 280.1,144.8 279.8,144.2 279.4,143.7 279,143.3 278.4,142.9 277.8,142.7 275.5,141.6 273.3,140.4 
	271.1,139.1 269.1,137.7 270,135.7 270.8,133.6 271.5,131.5 272.1,129.3 272.5,127.1 272.8,124.9 273,122.6 273.1,120.4 273,118.2 
	272.8,115.9 272.4,113.7 271.9,111.5 271.3,109.4 270.6,107.2 269.7,105.2 268.8,103.2 267.8,101.4 266.7,99.6 265.5,97.9 
	264.2,96.3 262.8,94.7 261.3,93.2 259.7,91.8 258.1,90.5 256.4,89.3 254.6,88.2 252.8,87.2 250.9,86.3 248.9,85.5 247,84.8 
	245,84.2 242.9,83.8 240.8,83.4 "/>
<polygon class="st0" points="247.7,119.8 245.9,119 244.1,118.1 242.4,117.1 240.7,116 239.1,114.8 237.7,113.4 236.2,112 
	234.9,110.6 233.7,109 232.5,107.3 231.5,105.6 230.6,103.9 229.8,102.1 229.1,100.2 228.6,98.3 228.1,96.4 227.7,94.4 227.5,92.4 
	227.4,90.4 227.4,88.5 227.6,86.5 227.8,84.5 228.2,82.6 228.7,80.7 229.3,78.7 230.1,76.9 230.9,75.1 231.9,73.4 232.8,72.3 
	233.5,71.1 234.1,69.9 234.5,68.6 234.6,67.6 234.3,66.8 233.7,66.1 229.4,61.5 227.7,59.8 227.4,59.5 226.9,59 226.5,58.5 
	226.2,57.9 226,57.2 225.9,56.5 226,55.9 226.2,55.2 226.5,54.6 227,54 227.5,53.6 228.1,53.3 241.7,46.8 242.4,46.5 243.2,46.4 
	244,46.4 244.8,46.5 245.5,46.8 246.2,47.2 246.8,47.7 247.3,48.3 247.7,49 247.9,49.8 248.3,52.1 248.6,54.5 248.7,55.8 
	248.8,57.2 249,58.2 249.2,59.2 249.6,60.1 250.1,61 250.7,61.8 251.4,62.5 253.4,62.7 255.3,63 257.3,63.4 259.2,64 261.1,64.6 
	262.9,65.4 264.7,66.3 266.4,67.3 268.1,68.4 269.7,69.6 271.2,70.9 272.6,72.3 274,73.8 275.2,75.4 276.3,77 277.3,78.7 
	278.2,80.5 279.1,82.3 279.8,84.2 280.4,86.1 280.8,88 281.2,90 281.4,92 281.5,94 281.4,96.2 281.2,98.2 281,100.3 280.5,102.3 
	280,104.3 279.3,106.3 278.5,108.2 278.2,108.7 277.7,109.1 277.3,109.4 276.7,109.6 276.1,109.5 275.6,109.5 275,109.2 
	274.6,108.8 274.3,108.4 274.1,107.8 274,107.2 274.2,105.5 274.6,103.5 274.8,101.6 274.9,99.6 274.9,97.6 274.8,95.6 274.6,93.6 
	274.1,91.7 273.6,89.8 273,87.9 272.3,86.1 271.4,84.3 270.4,82.6 269.4,80.9 268.2,79.3 266.9,77.8 265.5,76.4 264.4,75.4 
	263.2,74.5 261.9,73.7 260.6,73 259.3,72.4 257.9,72 256.4,71.6 254.9,71.4 253.5,71.3 252,71.3 250.5,71.5 249,71.8 248,72 
	247.5,72.3 244.5,66 241.8,67.4 244.9,73.5 244.6,73.8 242.9,74.6 241.7,75.5 240.5,76.5 239.5,77.6 238.5,78.8 237.6,80 
	236.8,81.4 236.2,82.8 235.7,84.2 235.3,85.7 235,87.2 234.9,88.8 234.9,90.3 235.1,92.3 235.4,94.2 235.8,96.1 236.3,98 237,99.8 
	237.8,101.7 238.7,103.4 239.7,105.1 240.8,106.7 241.9,108.3 243.2,109.8 244.6,111.2 246.1,112.5 247.6,113.7 249.2,114.8 
	250.1,115.3 251.1,115.9 251.9,116.5 252.3,116.9 252.5,117.4 252.7,118 252.7,118.5 252.6,119 252.3,119.5 252,119.9 251.6,120.3 
	251.1,120.5 250.6,120.6 250.1,120.6 249.5,120.5 "/>
<polygon class="st0" points="34.6,254.5 33.6,254.2 32.6,253.7 31.7,253.2 30.9,252.5 30.2,251.8 29.5,250.9 29,250 28.6,249.1 
	28.3,248.1 28,247 27.9,246 28,245 28.1,243.9 28.3,243.2 28.7,242.7 29.1,242.2 29.6,241.8 30.2,241.5 30.8,241.3 31.5,241.3 
	32.2,241.4 32.8,241.7 33.3,242 33.8,242.4 34.3,242.7 34.9,242.8 35.5,242.7 36,242.6 36.5,242.3 36.9,242 37.3,241.5 37.5,241 
	37.6,240.4 37.6,239.9 37.5,239.4 37.3,238.8 37,238.4 36.8,237.4 36.6,236.4 36.7,235.4 36.8,234.3 37.1,233.3 37.5,232.4 
	37.9,231.5 39.2,229.3 39.6,228.1 39.8,227 39.9,225.8 39.8,224.7 39.7,223.6 39.3,222.5 38.9,221.5 38.3,220.5 37.6,219.6 
	36.8,218.8 35.9,218.1 35,217.5 34.6,216.9 34.3,216.2 34.2,215.4 34.2,214.6 34.3,213.9 34.5,213.2 34.8,212.5 35.3,211.9 
	35.9,211.4 36.9,210.5 37.1,210 37.2,209.5 37.2,209 37.1,208.4 36.9,207.9 36.5,207.4 35.1,206.7 34.6,206.5 34,206.1 33.5,205.7 
	33,205.1 32.6,204.5 32.4,203.8 32.2,203.1 32.2,202.4 32.4,201.7 32.6,201 32.9,200.4 33.4,199.8 33.9,199.4 34.5,199 35.6,197.9 
	36.5,196.7 37.4,195.4 38.1,194.2 38.7,192.8 39.2,191.4 39.6,189.9 39.8,188.4 40,186.9 40,185.4 39.8,183.9 39.6,182.4 39.3,181 
	38.8,179.6 38.2,178.2 37.5,176.9 37.2,175.9 37.1,174.9 37.1,173.9 37.2,172.8 37.5,171.9 38,170.9 38.3,170.3 38.5,169.7 
	38.5,168.9 38.4,168.2 38,167.7 37.5,167.1 37,166.7 36.4,166.4 35.8,166.2 35.1,166 34.4,165.6 33.9,165.1 33.4,164.6 33,163.9 
	32.7,163.2 32.6,162.5 32.5,161.7 32.6,161 32.8,160.3 33.2,159.6 33.6,159 34.2,158.5 35.4,157.2 36.5,155.7 37.5,154.2 
	38.4,152.6 39.2,151 39.9,149.3 40.4,147.6 40.8,145.8 41.1,144 41.3,142.2 41.3,140.4 41.2,138.6 41,136.8 40.7,135 40.2,133.3 
	39.6,131.5 39.3,130.2 39.2,128.9 39.4,128.2 39.7,127.4 40.1,126.7 40.6,126.1 41.1,125.6 41.8,125.2 42.3,124.9 42.7,124.5 
	43,124 43.2,123.4 43.2,122.8 43,122.3 42.7,121.4 42.1,120.6 41.5,119.9 41.1,119.3 40.8,118.7 40.6,118.1 40.5,117.4 40.6,116.7 
	40.8,116.1 41.1,115.5 41.6,115 42.1,114.6 42.7,114.2 43.4,113.7 44,113.1 44.4,112.4 44.8,111.6 45,110.8 45.1,110 45.1,109.1 
	44.9,108.3 44.6,107.5 44.2,106.7 43.7,106 43.6,105.2 43.7,104.4 43.9,103.7 44.2,102.9 44.7,102.2 45.2,101.6 45.8,101.1 
	46.5,100.6 47.2,100.3 58.1,96.4 58.8,96.3 59.4,96.3 60,96.4 60.6,96.7 61.1,97 61.5,97.5 61.8,98.1 62,98.7 62.1,99.3 62,100.3 
	61.6,101.4 61.1,101.8 60.1,102.2 59.1,102.7 58.2,103.4 57.4,104 56.6,104.8 56,105.7 55.4,106.6 55,107.6 54.7,108.7 54.5,109.8 
	54.4,110.8 54.4,111.9 54.6,113 54.8,114.1 55.1,115.1 55.3,116.1 55.4,117.2 55.3,117.8 55.1,118.4 54.7,118.9 54.3,119.3 
	53.7,119.6 53.2,120 52.8,120.4 52.4,121 52.2,121.6 52.1,122.2 52.1,122.8 52.2,123.4 52.5,124 52.9,124.5 53.4,124.9 53.8,125.7 
	54.2,126.6 54.5,127.5 54.6,128.5 54.6,129.4 54.5,130.4 54.3,131.3 53.9,132.2 53.5,133 53,133.8 52.2,135.6 51.7,137.5 
	51.2,139.5 50.9,141.5 50.7,143.5 50.6,145.5 50.6,147.5 50.8,149.5 51.1,151.4 51.6,153.4 52.1,155.3 52.8,157.2 53.6,159 
	53.6,159.9 53.5,160.8 53.2,161.6 52.8,162.4 52.3,163.1 51.6,163.7 50.8,164.1 50.3,164.3 50,164.7 49.7,165.1 49.6,165.6 
	49.6,166.1 49.7,166.6 50,167.1 50.4,167.5 51.4,168.1 52.1,168.5 52.7,169.1 53.2,169.7 53.6,170.4 54,171.1 54.2,171.9 
	54.3,172.7 54.3,173.5 54.2,174.3 53.9,175.1 53.6,175.8 53,176.5 52.5,177.1 51.9,178.7 51.3,180.4 50.9,182.1 50.7,183.8 
	50.5,185.5 50.5,187.3 50.6,189 50.9,190.8 51.3,192.5 51.8,194.1 52.4,195.8 53.1,197.3 54,198.9 55,200.3 55.8,201.8 56.2,203.4 
	56.3,204.4 56.2,205.4 56,206.4 55.6,207.4 55.1,208.3 54.5,209.1 54.1,209.7 53.8,210.3 53.6,211 53.5,211.7 53.6,212.2 
	53.9,212.6 54.2,213 54.7,213.3 55.1,213.4 55.9,213.6 56.4,213.6 56.9,213.8 57.3,214.2 57.6,214.5 57.9,215 58,215.5 58,216 
	57.9,216.6 57.7,217 57.3,217.4 57,218 56.6,218.7 56.4,219.3 56.4,220.1 56.4,220.8 56.5,221.5 56.8,222.2 57.2,222.8 57.6,223.4 
	58.2,223.8 58.8,224.2 59.5,224.4 60.2,224.6 60.9,224.7 61.7,224.9 62.3,225.2 63,225.6 63.6,226.1 64,226.7 64.4,227.4 
	64.6,228.1 64.7,228.9 64.6,229.7 64.4,230.4 64.1,231.1 63.8,232.8 63.5,234.6 63.4,236.3 63.4,238.1 63.5,239.8 63.8,241.6 
	64.1,243.3 64,244.1 63.7,244.9 63.3,245.6 62.8,246.2 62.1,246.8 61.4,247.2 60.7,247.5 59.9,247.7 59.1,247.7 58.3,247.6 
	57.6,247.5 53.1,235.3 50,236.1 54.5,248.1 54.4,248.2 52.7,248.3 51.1,248.6 49.4,249 47.8,249.5 46.3,250.2 44.8,251 43.3,251.9 
	42,252.9 40.7,254 39.8,254.4 38.7,254.7 37.7,254.8 36.6,254.9 35.6,254.7 "/>
<polygon class="st0" points="85.8,141.9 84.5,142.3 83.3,142.9 82.2,143.5 81.1,144.2 80.1,145.1 79.2,146 78.3,147 77.6,148.1 
	76.9,149.2 76.4,150.4 75.3,151.7 74.1,152.9 72.8,154 71.4,154.9 70,155.8 68.5,156.5 66.9,157.1 65.3,157.5 64.1,158.4 
	62.9,159.3 61.9,160.3 60.9,161.4 60,162.6 59.2,163.8 58.5,165.1 57.9,166.4 57.4,167.8 57,169.3 56.7,170.7 56.5,172.2 
	56.5,173.7 56.6,175.1 56.9,176.6 57.2,178 57.6,179.4 58.2,180.8 57.9,181.5 57.6,182.2 57.5,183 57.5,183.8 57.6,184.5 
	57.8,185.3 58.2,186 67.5,201.7 67.6,202.2 82.9,193.6 84.3,196.3 69.3,204.8 69.9,205 70.2,206.1 70.5,207.1 71.1,208 71.6,208.9 
	72.4,209.7 73.1,210.4 74,211 74.9,211.5 75.9,211.9 77,212.2 77.7,211.8 78.6,211.6 79.5,211.4 80.3,211.4 81.3,211.5 82.1,211.8 
	82.9,212.1 83.7,212.6 84.4,213.2 85.5,213.7 86.8,214.1 88.1,214.4 89.4,214.6 90.6,214.7 92,214.6 93.3,214.4 94.5,214.1 
	95.8,213.7 96.9,213.2 98.1,212.5 99.2,211.8 100.2,210.9 101.1,210 101.9,209 102.7,208 103.3,206.8 103.9,205.6 104.3,204.4 
	104.6,203.1 104.8,201.8 104.9,200.5 104.8,199.2 104.8,198.5 104.9,197.7 105.2,197.1 105.5,196.4 106,195.8 106.6,195.3 
	107.2,194.9 107.9,194.6 108.6,194.5 109.3,194.4 110,194.5 110.8,194.6 111.5,194.9 112.1,195.3 112.7,195.8 113.1,196.4 
	113.5,197 113.7,197.7 113.9,198.5 113.9,199.2 113.8,199.9 113.4,201.4 112.9,203 112.7,204 112.7,205 112.9,206 113.1,207 
	113.5,207.9 114,208.7 114.5,209.5 115.2,210.2 116,210.8 116.8,211.3 117.8,211.7 118.7,212 119.7,212.1 120.7,212.2 123.6,211.8 
	122,196.9 125,196.6 126.4,211.3 126.9,211.3 127.8,211.5 128.6,211.6 129.5,211.6 130.3,211.4 131.2,211.1 131.9,210.7 
	132.6,210.2 133.2,209.6 133.8,209 134.2,208.2 134.5,207.4 134.7,206.6 134.8,205.7 134.7,204.8 134.6,203.3 134.4,201.6 
	134.2,197.6 134,193.6 134,189.6 134.1,189 134.3,188.4 134.6,187.8 135,187.4 135.5,187 136.1,186.8 136.7,186.6 137.4,186.6 
	138,186.7 138.6,186.9 139.1,187.3 139.5,187.8 139.8,188.3 140.5,189.6 141.2,190.3 141.7,190.6 142.3,190.7 142.9,190.8 
	143.5,190.7 144,190.5 144.5,190.2 145,189.8 145.3,189.2 145.5,188.7 146.1,187.1 146.3,186.6 146.7,186.2 147.1,185.8 
	147.6,185.5 148.2,185.3 148.8,185.3 149.4,185.4 150,185.6 150.5,185.9 150.9,186.3 151.2,186.8 151.4,187.4 151.6,188 
	151.9,188.5 152.4,189 153,189.3 153.6,189.5 154.3,189.6 154.9,189.6 155.5,189.4 156.1,189.1 156.6,188.7 157,188.2 157.3,187.6 
	158.2,185.8 158.8,185.1 159.3,184.7 159.9,184.5 160.6,184.4 161.2,184.4 161.8,184.6 162.4,184.8 162.8,185.3 163.3,185.8 
	163.5,186.3 163.7,186.9 163.7,187.5 164,188.1 164.4,188.6 164.9,189 165.4,189.3 166.1,189.5 166.7,189.6 167.3,189.5 
	167.9,189.2 168.4,188.9 168.9,188.4 169.3,187.9 169.5,187.3 169.8,186.8 170.2,186.3 170.7,185.9 171.3,185.7 171.9,185.5 
	172.5,185.5 173.1,185.6 173.7,185.8 174.2,186.2 174.7,186.6 175,187.1 175.3,187.7 175.9,189.6 176.2,190.1 176.7,190.5 
	177.3,190.8 177.9,191 178.6,191 179.2,190.8 179.8,190.6 180.3,190.2 180.7,189.7 181.1,189.2 181.4,188.7 181.9,188.3 
	182.4,187.9 183,187.8 183.6,187.7 184.2,187.7 184.8,187.9 185.3,188.1 185.8,188.5 186.2,188.9 186.5,189.5 186.7,190.1 
	187.2,191.9 187.4,192.3 187.8,192.8 188.3,193.2 188.9,193.5 189.5,193.7 190.1,193.7 190.7,193.6 191.3,193.4 191.9,193 
	192.3,192.5 192.6,192 192.8,191.4 193.1,190.8 193.5,190.3 194,189.9 194.6,189.6 195.1,189.5 195.8,189.4 196.4,189.5 197,189.6 
	197.6,189.9 198,190.3 198.5,190.8 198.8,191.4 198.9,192 199,192.6 199.4,193.1 199.9,193.6 200.4,193.9 201,194.1 201.6,194.3 
	202.2,194.3 202.9,194.2 203.5,194 204,193.6 204.5,193.2 204.8,192.6 205.2,191.9 205.5,191.2 205.9,190.6 206.3,190.2 
	206.9,189.9 207.5,189.7 208.1,189.7 208.7,189.8 209.3,190 209.7,190.3 210.2,190.8 210.5,191.3 210.7,191.8 210.8,192.5 211,193 
	211.4,193.5 211.8,194 212.3,194.3 212.9,194.6 213.4,194.7 214.1,194.7 214.7,194.6 215.2,194.4 215.8,194 216.2,193.6 
	216.6,193.1 217.3,192.1 218.1,191.2 218.6,190.9 219.1,190.7 219.5,190.7 220,190.9 220.3,191.3 220.5,191.8 221,192.7 
	221.7,193.6 222.4,194.5 223.3,195.2 224.2,195.8 225.2,196.2 226.3,196.5 227.1,196.7 228,196.7 228.8,196.5 229.6,196.2 
	230.4,195.9 231,195.3 231.7,194.7 232.2,194 232.5,193.2 232.8,192.4 234,186.3 234,186.3 220.3,180.5 220.8,177.5 234.6,183.4 
	234.6,182.1 235.5,181.6 236.5,181.2 237.6,180.9 238.7,180.7 239.8,180.7 240.9,180.8 242,180.9 243,181.3 244,181.7 245,182.2 
	245.9,182.9 246.7,183.6 248.9,186 250.9,188.4 252.9,190.9 254.8,193.5 256.5,196.2 258.1,199 259.6,201.8 261.1,204.7 
	261.4,205.1 261.9,205.5 262.5,205.7 263,205.9 263.6,205.9 264.2,205.8 264.8,205.5 265.3,205.2 265.7,204.8 266,204.2 
	266.1,203.7 266.2,203.1 266.1,202.5 265.5,200 264.8,197.7 263.9,195.3 262.9,193 261.8,190.7 260.6,188.5 259.3,186.4 
	257.9,184.3 256.4,182.3 254.8,180.4 253.1,178.5 251.3,176.8 249.5,175.1 247.5,173.5 245.5,172 243.4,170.6 241.3,169.3 
	239,168.1 238.2,167.7 237.2,167.4 236.7,167.3 236.1,167.5 235.6,167.8 235.2,168.2 234.9,168.6 234.4,168.9 233.9,169 
	233.4,169.1 232.8,169 232.3,168.8 231.9,168.5 231.6,168 231.3,167.5 231.2,167.1 231.2,166.5 231.4,166 231.2,165.4 231,164.8 
	230.7,164.2 230.2,163.8 229.7,163.5 229.1,163.2 228.5,163.1 227.8,163.2 227.2,163.4 226.7,163.7 226.2,164.1 225.8,164.6 
	225.5,165.1 225.1,165.6 224.6,166 224,166.3 223.4,166.5 222.8,166.5 222.2,166.4 221.6,166.2 221,165.8 220.6,165.4 220.2,164.8 
	220,164.2 219.9,163.6 219.8,162.4 219.4,161.1 219.1,160.6 218.6,160.2 218,160 217.3,160 216.5,160.1 215.9,160.4 215.2,160.8 
	214.6,161.3 214.1,162 213.8,162.6 213.5,163.4 213.3,164.1 212.9,164.8 212.5,165.4 212,165.9 211.4,166.3 210.7,166.6 210,166.8 
	209.2,166.8 208.5,166.7 207.8,166.6 207.1,166.2 206.5,165.8 206,165.3 205.6,164.7 205.3,164 205.2,163.3 205.1,162.6 
	205.2,161.8 204.8,161.3 204.3,160.8 203.8,160.5 203.1,160.2 202.5,160.1 201.8,160 201.2,160.1 200.5,160.3 199.9,160.7 
	199.4,161.1 199,161.6 198.7,162.3 198.5,162.9 198.4,163.7 198.5,164.6 198.6,165.4 198.4,166.3 198.3,166.8 198,167.3 
	197.6,167.6 197.3,167.9 195.9,168 196.8,176.2 193.9,177 193,168.8 191.3,169.2 188.4,169.3 183.4,168.9 184.1,176 181.3,176.5 
	180.1,168.7 179.6,168.7 170.6,167.6 171.1,174.1 168.2,174.7 167.5,167.2 157.2,166.1 157.6,173 154.6,173.4 154.6,166 
	153.5,165.9 144.1,166.1 143.4,166.2 144.7,173.6 141.5,174 140.7,166.6 132.3,168.1 130.9,168.5 132.5,176.3 129.4,176.6 
	128,169.5 116.2,173.4 117.6,181.5 114.5,182 113.2,174.5 112.9,174.8 112.4,175 112.1,175.1 111.1,175.8 110.4,176.1 109.7,176.4 
	109.1,176.4 108.4,176.4 107.7,176.3 107.1,176 106.6,175.6 106.1,175.1 105.7,174.5 105.4,173.9 105.3,173.3 105.2,172.6 
	105.4,171.9 105.5,171.3 105.9,170.7 106.3,170.2 106.6,168.3 106.8,166.5 106.9,164.7 106.8,162.9 106.7,161.1 106.4,159.3 
	106,157.5 105.5,155.7 104.8,154 104.1,152.4 103.2,150.7 102.3,149.2 101.2,147.7 100,146.3 99.2,145.3 98.2,144.5 97.1,143.7 
	96,143 94.8,142.5 93.5,142.1 92.3,141.8 91,141.6 89.7,141.4 88.4,141.5 87.1,141.7 "/>
</svg>
