<?xml version="1.0" encoding="utf-8"?>
<!-- Generator: Adobe Illustrator 24.3.0, SVG Export Plug-In . SVG Version: 6.00 Build 0)  -->
<svg version="1.1"
	 id="svg4260" xmlns:cc="http://creativecommons.org/ns#" xmlns:dc="http://purl.org/dc/elements/1.1/" xmlns:inkscape="http://www.inkscape.org/namespaces/inkscape" xmlns:rdf="http://www.w3.org/1999/02/22-rdf-syntax-ns#" xmlns:sodipodi="http://sodipodi.sourceforge.net/DTD/sodipodi-0.dtd" xmlns:svg="http://www.w3.org/2000/svg"
	 xmlns="http://www.w3.org/2000/svg" xmlns:xlink="http://www.w3.org/1999/xlink" x="0px" y="0px" viewBox="0 0 1207 831"
	 style="enable-background:new 0 0 1207 831;" xml:space="preserve">
<style type="text/css">
	.st0{fill:none;stroke:#000000;stroke-linecap:round;stroke-linejoin:round;}
	.st1{fill:none;stroke:#000000;stroke-linecap:round;stroke-linejoin:round;stroke-miterlimit:10;}
	.st2{fill-rule:evenodd;clip-rule:evenodd;fill:#CCCCCC;}
	.st3{fill-rule:evenodd;clip-rule:evenodd;fill:#B3B3B3;}
</style>
<sodipodi:namedview  bordercolor="#666666" borderopacity="1.0" id="namedview4264" inkscape:current-layer="layer1" inkscape:cx="267.94492" inkscape:cy="287.70967" inkscape:document-units="mm" inkscape:pageopacity="0.0" inkscape:pageshadow="2" inkscape:window-height="716" inkscape:window-maximized="1" inkscape:window-width="1366" inkscape:window-x="-8" inkscape:window-y="-8" inkscape:zoom="0.43415836" pagecolor="#ffffff" showgrid="false">
	</sodipodi:namedview>
<path id="path16_3_" inkscape:connector-curvature="0" class="st0" d="M211.3,789L211.3,789"/>
<path class="st0" d="M459.6,635c-61-7.4-119-30.6-168.2-67.3l-0.6-0.2H257v33.7h11.3v45H257v33.7h49.4v11.3h45v-11.3H417l0,11.3h45
	v-11.3h31.2v-22.5h11.3V635H459.6z"/>
<path id="path24" inkscape:connector-curvature="0" class="st1" d="M485.4,14c-21.2,28.4-54.6,45.1-90.1,45.1l0,0
	c-35.4,0-68.8-16.7-90-45.1H283v45h-11.3v45H283v45h-11.3v45H283v45h-11.3v45H283v45h-11.3v45H283v45h-11.3v135h101.2v11.3h45V554
	h90v-45h11.3v-45h-11.3v-45h11.3v-45h-11.3v-44.4h11.3V284h-11.3v-45h11.3v-45h-11.3v-45h11.3v-45h-11.3V59h11.3V14H485.4L485.4,14z
	"/>
<path id="polygon26" class="st1" d="M390.6,274.9L303,224.2l5.6-9.7l87.7,50.7L390.6,274.9z"/>
<path id="polygon28" class="st1" d="M403.1,139.9l-5.6-9.7l87.7-50.7l5.6,9.7L403.1,139.9z"/>
<path id="polygon30" class="st1" d="M371.6,452.7l-5.6-9.8l117-67.5l5.6,9.8L371.6,452.7z"/>
<path id="polygon58" class="st1" d="M900.3,792.4h22.5v-78.7h11.8v-45h-11.8V590h-22.5v11.3h-22.5v180h22.5V792.4z"/>
<path id="polygon62" class="st1" d="M1032.6,763.9h11.3v11.3h135v-11.3h11.3v-225h-11.3v-11.2h-135v11.2h-11.3V763.9z"/>
<path id="polygon66" class="st1" d="M1037.1,250.2h11.3v11.2h101.2v-11.2h11.3v-225h-11.3V13.9h-101.2v11.3h-11.3V250.2z"/>
<path id="polygon70" class="st1" d="M1037.1,507h11.2v11.3h101.3V507h11.2V282h-11.2v-11.2h-101.3V282h-11.2V507z"/>
<path id="path24-7" inkscape:connector-curvature="0" class="st1" d="M50.9,14c21.2,28.4,54.6,45.1,90.1,45.1l0,0
	c35.4,0,68.8-16.7,90-45.1h22.4v45h11.3v45h-11.3v45h11.3v45h-11.3v45h11.3v45h-11.3v45h11.3v45h-11.3v45h11.3v135H163.4v11.3h-45
	V554h-90v-45H17.1v-45h11.3v-45H17.1v-45h11.3v-44.4H17.1V284h11.3v-45H17.1v-45h11.3v-45H17.1v-45h11.3V59H17.1V14H50.9L50.9,14z"
	/>
<path id="polygon26-4" class="st1" d="M145.7,274.9l87.7-50.7l-5.6-9.7l-87.7,50.7L145.7,274.9z"/>
<path id="polygon28-0" class="st1" d="M133.2,139.9l5.6-9.7L51.2,79.4l-5.6,9.7L133.2,139.9z"/>
<path id="polygon30-9" class="st1" d="M164.7,452.7l5.6-9.8l-117-67.5l-5.6,9.8L164.7,452.7z"/>
<g id="g3115" transform="translate(7375.8552,-237.85378)">
	<path id="polygon40" class="st1" d="M-6848.8,767.4h11.2v45h-11.2v101.2h247.5V812.5h-11.3v-45h11.3V666.2h-101.3v11.2h-44.9v-11.2
		h-101.2v101.2H-6848.8z"/>
	<path id="path42" inkscape:connector-curvature="0" class="st1" d="M-6752.1,826.5c0-1.5,1.2-2.8,2.8-2.8h48.4l0,0
		c1.5,0,2.8,1.2,2.8,2.8v12.4c0,1.5-1.2,2.8-2.8,2.8h-48.4l0,0c-1.5,0-2.8-1.2-2.8-2.8V826.5z"/>
</g>
<path id="path46-4" inkscape:connector-curvature="0" sodipodi:nodetypes="ccccccccccccccccccccccccccccccccccccccccccccccc" class="st1" d="
	M650.7,402.4c-27.1,0-53.9,5.6-78.7,16.6h-45.7v-45h11.3v-45h-11.3v-45h11.3v-45h-11.3v-45h11.3v-45h-11.3v-45h11.3V59h-11.3V14
	h33.8c21.2,28.5,54.5,45.2,90,45.2h0.7h0.7c35.4,0,68.7-16.7,90-45.2h33.8v45H764v45h11.3v45H764v45h11.3v45H764v45h11.3v45H764v45
	h11.3v45h-45.7c-24.8-10.9-51.7-16.6-78.7-16.6H650.7L650.7,402.4z"/>
<path id="path12-8" inkscape:connector-curvature="0" sodipodi:nodetypes="ccccccccccccccccccccccccccccccccccccccccccccccccccccccccccc" class="st0" d="
	M928.8,565.3V554H1030v-45h-11.3v-45h11.3v-45h-11.3v-45h11.3v-45h-11.3v-45h11.3v-45h-11.3v-45h11.3v-45h-11.3v-45h11.3V59h-11.3
	V14h-22.4c-21.2,28.4-54.5,45.1-90,45.1h-0.2H906c-35.4,0-68.8-16.7-90-45.1h-22.4v45h-11.3v45h11.3v45h-11.3v45h11.3v45h-11.3v45
	h11.3v45h-11.3v45h11.3v45h-11.3v45h11.3v45h-11.3v45h101.2v11.3h22.6H928.8z"/>
<path class="st0" d="M459.6,757.5c-61,7.4-119,30.6-168.2,67.3l-0.6,0.2H257v-33.7h11.3v-45H257v-33.7h49.4v-11.3h45v11.3H417
	l0-11.3h45v11.3h31.2v22.5h11.3v22.4H459.6z"/>
<polygon class="st1" points="241.2,777.3 241.2,732.3 252.4,732.3 252.4,723.8 252.5,723.8 252.5,678.8 252.5,678.8 252.5,670 
	241.2,670 241.2,625 252.5,625 252.5,600.1 211.1,600.1 211.1,611.4 166.1,611.4 166.1,600.1 151.2,600.1 106.2,600.1 100.7,600.1 
	100.7,611.4 55.7,611.4 55.7,600.1 5,600.1 5,678.8 16.2,678.8 16.2,723.8 5,723.8 5,802.5 54.4,802.5 54.4,791.2 99.4,791.2 
	99.4,802.5 106.2,802.5 151.2,802.5 165,802.5 165,791.2 210,791.2 210,802.5 252.4,802.5 252.4,777.3 "/>
<polyline class="st1" points="628.3,803.7 681.8,803.7 681.8,815 726.8,815 726.8,803.7 740.8,803.7 740.8,770 752,770 752,815 
	774.5,815 774.5,691.2 752,691.2 752,725 740.8,725 740.8,691.2 684.5,691.2 650.7,713.7 617,691.2 560.7,691.2 560.7,725 
	549.5,725 549.5,691.2 527,691.2 527,815 549.5,815 549.5,770 560.8,770 560.8,803.7 574.5,803.7 574.5,815 619.5,815 619.5,803.7 
	628.3,803.7 "/>
<path id="path3273-5" inkscape:connector-curvature="0" sodipodi:nodetypes="cscccsccsccscccccssccsssccsscccccsccssscscccccscscsscscssccccccsccsccsccsccccccsscscscccscscscscsccsccsss" class="st2" d="
	M615.9,387.4c0,0-27.9-56.5-46.7-51.6s-17.4,75.5-17.4,75.5C571.7,393.6,593.4,387.8,615.9,387.4L615.9,387.4z M684.4,387.4
	c0,0,27.9-56.5,46.7-51.6c18.8,4.9,17.4,75.5,17.4,75.5C728.6,393.6,706.9,387.8,684.4,387.4L684.4,387.4z M586.1,109.7
	c-21.9,0.2-42,41.5-42,41.5v33c0,0,18.5-45,40-48.2c13.8-2,29.6,16.5,44,29.9c0.4,3,0.6,6.2,0.7,9.5c-24.8-8.6-65.4-4.8-84.7,14.2
	v18.9c5.6,10.4,53.7,41.6,84.2-20.1c-1.8,21-8.3,43.5-16.4,55.3c-11.4,16.8-18.1,19.4-33.8,18.4c-15.7-1.1-34-45.4-34-45.4v151.2
	c4.7-33.4,17.5-41.3,30.1-43.2c21.7-3.3,33.4,56.1,76,56.1s54.3-59.5,76-56.1c12.6,1.9,26.6,9.8,31.3,43.2V216.8
	c0,0-19.6,44.4-35.3,45.4c-15.7,1-22.4-1.6-33.8-18.4c-8.1-11.8-14.6-34.3-16.4-55.3c30.5,61.6,79.8,30.4,85.4,20v-18.9
	c-19.2-19-61.1-22.8-85.9-14.2c0.1-3.3,0.3-6.5,0.7-9.6c14.4-13.4,30.2-31.9,44-29.9c21.5,3.2,41.2,48.2,41.2,48.2v-33
	c0,0-21.3-41.3-43.2-41.5s-52.1,50.2-64.1,50.2C638.2,159.9,608,109.6,586.1,109.7L586.1,109.7z M641.7,172.8c0,0,5.6,4,8.4,4
	s8.4-4,8.4-4L664,223c-4.1,0.4-10.1,5.6-13.9,11.4c-3.8-5.8-9.8-11-13.9-11.4L641.7,172.8z M599,185.1c5.3,0,10.7,0.5,15.9,1.1
	c-11.6,14.5-20.7,23.9-31.8,24.8c-11.1,0.9-27.2-2.5-29.8-11.9C567.2,188.3,583,185,599,185.1z M701.3,185.1
	c16-0.1,31.8,3.2,45.7,14.1c-2.6,9.4-18.7,12.8-29.8,11.9c-11.1-0.9-20.2-10.4-31.8-24.8C690.7,185.5,696,185.1,701.3,185.1z
	 M635.7,236c4.2-0.1,8.7,4.3,14.5,9.3c7.1-6.2,12.2-11.4,17.4-8.5l2,19.4c-7-0.3-15.5,5.4-19.4,12.9c-3.9-7.5-12.4-13.2-19.4-12.9
	l2-19.4C633.7,236.3,634.7,236.1,635.7,236z M544.1,251.8c19.8,28,44.1,53.5,74.2,5c0,0-19.6,62.3-38.2,59.6
	C563.8,314,544.1,251.8,544.1,251.8z M752,251.8c0,0-15.5,62.2-31.8,64.6c-18.7,2.7-38.2-59.6-38.2-59.6
	C712.1,305.3,732.2,279.7,752,251.8z M631.6,272.3c5.4,0,11.2,1.4,18.5,8.8c9.8-9.8,16.8-9,23.8-8.4l1.5,16.4
	c-11.8,5.8-19.6,14.1-25.3,23.8c-5.7-9.8-13.5-18-25.3-23.8l1.5-16.4C628.1,272.5,629.8,272.3,631.6,272.3z M616.9,298
	c11.6,0,18.7,13.1,33.3,32.8c14.6-19.7,21.7-32.7,33.3-32.8c11.6,0,17.7,28.1,7.9,42.2c-3.1-7.2-6.1-15-15.4-7s-8.6,18.2-8,29.3
	l-17.9,4.5l-17.9-4.5c0.6-11.1,1.3-21.3-7.9-29.3c-9.2-8-12.3-0.2-15.4,7C599.1,326.1,605.3,297.9,616.9,298z M680,61.6
	c-18.3-2.2-20.9,6.5-29.8,6.5c-8.9,0-11.5-8.7-29.8-6.5c12.2,11.9,21.4,35.3,29.8,35.3C658.6,96.9,667.8,73.4,680,61.6z M581.6,88.9
	c-23.3,0-37.5,37.2-37.5,37.2V22.3c31.3,0,89.9,89.9,106,89.9s76-89.9,107.3-89.9v103.8c0,0-15.5-37.2-38.7-37.2
	c-23.2,0-42.3,37.2-68.5,37.2C624,126.1,604.9,88.9,581.6,88.9z"/>
<path id="path3358-2" inkscape:connector-curvature="0" class="st3" d="M574.1,709.6c-1.9-0.1-3.7,0.5-5.2,1.6
	c-2.6,1.9-4,4.9-5.1,8.5c-2.1,7-2.5,16.7-1.8,26.6c0.8,9.9,2.7,19.8,5.9,27.3c1.6,3.7,3.4,6.9,5.9,9.1c2.5,2.2,6,3.3,9.4,2.2
	c31.3-10.2,40.9-13.9,67.6-13.9c26.7,0,36.3,3.7,67.5,13.9c3.3,1.1,6.9,0,9.4-2.2s4.3-5.3,5.9-9.1c3.2-7.5,5.1-17.4,5.9-27.3
	c0.8-9.9,0.4-19.5-1.8-26.6c-1.1-3.5-2.5-6.5-5.1-8.5c-2.6-1.9-6.3-2.1-9.6-0.4c-19.9,10.5-40,18.6-72.3,18.6s-52.4-8.1-72.3-18.6
	C577.1,710.1,575.5,709.7,574.1,709.6L574.1,709.6z M573.7,715.4c0.4,0,1,0.2,1.9,0.7c1.1,0.6,2.1,1.1,3.2,1.7
	c-1.7,13.3-0.9,25.7,0.9,37.4c-3.4,0.6-6.8,1.3-10.1,2.2c-0.7-3.8-1.2-7.7-1.5-11.6c-0.7-9.4-0.2-18.6,1.5-24.4
	c0.9-2.9,2.1-4.7,2.9-5.4C573,715.7,573.3,715.5,573.7,715.4z M727.9,715.4c0.4,0,0.8,0.2,1.2,0.5c0.9,0.7,2.1,2.5,2.9,5.4
	c1.7,5.7,2.3,15,1.5,24.4c-0.3,3.9-0.8,7.9-1.5,11.6c-3.4-0.9-6.8-1.6-10.1-2.2c1.8-11.7,2.6-24.1,0.9-37.4c1.1-0.6,2.2-1.1,3.2-1.7
	C726.9,715.6,727.4,715.4,727.9,715.4z M584.6,720.6c7.9,3.8,16.3,7.1,25.6,9.7c0,7.5,0.4,14.8,0.9,22.2c-8.4,0.1-16.9,0.6-25.4,1.7
	C584,743.5,583.3,732.4,584.6,720.6L584.6,720.6z M717,720.6c1.3,11.8,0.6,22.9-1.1,33.6c-8.5-1.2-17-1.6-25.4-1.7
	c0.5-7.3,0.9-14.7,0.9-22.2C700.7,727.8,709.1,724.4,717,720.6L717,720.6z M616.2,731.8c9.4,2.1,19.8,3.4,31.7,3.6l-0.2,16.9
	c-10.2,0.3-20.4,0.1-30.7,0.1C616.7,745.5,616.3,738.7,616.2,731.8z M685.4,731.8c0,6.9-0.4,13.7-0.9,20.6
	c-10.3,0-20.5,0.2-30.7-0.1l0.2-16.9C665.8,735.2,676.1,733.9,685.4,731.8z M653.7,758.3c10.2,0.3,20.4,0.1,30.4,0.1
	c-0.2,3.2-0.4,6.4-0.6,9.6c-9.1-2-17.9-3-29.8-3.2L653.7,758.3z M647.7,758.3l-0.1,6.6c-11.8,0.1-20.5,1.1-29.5,3.2
	c-0.2-3.2-0.4-6.4-0.6-9.6C627.5,758.4,637.5,758.6,647.7,758.3L647.7,758.3z M611.5,758.5c0.2,3.7,0.5,7.3,0.7,11
	c-6.5,1.7-13.6,4-22.1,6.8c-1.2-5.3-2.4-10.7-3.4-16.1C594.9,759.1,603.2,758.7,611.5,758.5L611.5,758.5z M690.1,758.5
	c8.3,0.1,16.6,0.5,24.8,1.6c-1,5.5-2.2,10.8-3.4,16.1c-8.6-2.8-15.7-5-22.1-6.8C689.6,765.9,689.9,762.2,690.1,758.5L690.1,758.5z
	 M580.8,761.1c1.1,5.8,2.3,11.5,3.6,17c-1,0.3-1.9,0.6-2.9,0.9c-1.3,0.4-2.1,0.2-3.5-1s-3-3.7-4.4-6.9c-1-2.3-1.8-5-2.6-7.9
	C574.2,762.4,577.5,761.7,580.8,761.1z M720.9,761.1c3.3,0.6,6.6,1.3,9.8,2.2c-0.8,2.9-1.6,5.6-2.6,7.9c-1.4,3.2-3,5.7-4.4,6.9
	s-2.2,1.5-3.5,1c-1-0.3-1.9-0.6-2.9-0.9C718.6,772.6,719.8,766.9,720.9,761.1z"/>
</svg>
