<?xml version="1.0" encoding="utf-8"?>
<!-- Generator: Adobe Illustrator 24.3.0, SVG Export Plug-In . SVG Version: 6.00 Build 0)  -->
<svg version="1.1" id="Layer_2" xmlns="http://www.w3.org/2000/svg" xmlns:xlink="http://www.w3.org/1999/xlink" x="0px" y="0px"
	 viewBox="0 0 361.8 331.8" style="enable-background:new 0 0 361.8 331.8;" xml:space="preserve">
<style type="text/css">
	.st0{fill:none;stroke:#ED1F24;stroke-width:0.25;stroke-miterlimit:10;}
	.st1{fill:none;stroke:#ED1D24;stroke-width:0.25;stroke-miterlimit:10;}
	.st2{fill:none;stroke:#3952A3;stroke-width:0.25;stroke-miterlimit:10;}
</style>
<path class="st0" d="M190.6,21.2c2.5,3.6,3.8,10.7,3.8,23.8c0,21.4,1.6,35.6,12.4,44c10.8,8.4,32.4,1.6,24.5-16.3
	c0,0-1.6,9.5-11.3,9.5s-14.8-24.8,5.8-24.8s26.9,24.3,14.5,36.4c0,0,14.5-3.7,24.5,6.9c10,10.5,7.1,25.8,7.1,25.8
	s32.2-40.3,60.6-40.3c28.5,0,30.3,20.3,28.7,29.8c-1.3,8.1-6.9,19.8-25.6,19.8c-18.7,0-21.6-28.7-6.6-28.7c15,0,12.4,14.8,9,15.8
	c0,0,10-1.6,10-12.1c0-10.5-8.7-14-17.7-14s-15.3,4.2-24.5,12.7c-9.2,8.4-23.7,24.5-27.7,27.2c0,0,33.2-1.8,33.2,28.5
	c0,30.3-50.3,33-50.3,7.4s33.7-13.2,19,5.8c0,0,19.5-0.5,19.5-15c0-14.5-12.7-21.6-27.4-12.4c-14.8,9.2-58.8,27.7-87.3-7.9
	c-3.6-3.6-8,0-8,0c-28.5,35.6-72.5,17.1-87.3,7.9c-14.8-9.2-27.4-2.1-27.4,12.4c0,14.5,19.5,15,19.5,15c-14.8-19,19-31.4,19-5.8
	s-50.3,22.9-50.3-7.4c0-30.3,33.2-28.5,33.2-28.5c-4-2.6-18.5-18.7-27.7-27.2c-9.2-8.4-15.6-12.7-24.5-12.7c-9,0-17.7,3.4-17.7,14
	c0,10.5,10,12.1,10,12.1c-3.4-1.1-6.1-15.8,9-15.8c15,0,12.1,28.7-6.6,28.7c-18.7,0-24.2-11.7-25.6-19.8
	c-1.6-9.5,0.3-29.8,28.7-29.8s60.6,40.3,60.6,40.3S87,111.2,97,100.6c10-10.5,24.5-6.9,24.5-6.9c-12.4-12.1-6.1-36.4,14.5-36.4
	c20.6,0,15.6,24.8,5.8,24.8c-9.8,0-11.3-9.5-11.3-9.5C122.6,90.6,144.2,97.5,155,89c10.8-8.4,12.4-22.7,12.4-44
	c0-10.3,1.7-16.9,4.1-21c0,0,3.2-2.3,5,0.5V91l8.8-0.2V23.8C185.4,23.8,185.5,21.2,190.6,21.2z"/>
<path class="st1" d="M124.7,122.2c6.6-3.4,5.5-19-9.2-19c-14.8,0-20,19.5-10.8,33.5c9.2,14,31.4,16.9,49.6,7.4
	c18.2-9.5,15.3-26.4,11.9-32.7c-3.4-6.3-12.9-6.6-14.8-1.1c0,0,11.9-4,12.4,8.2c0.5,11.6-15.8,12.7-19.8,6.6
	c-7.3-11.3-0.8-20.6-0.8-20.6l-7.1-2.1c0,0,8.9,21.1-5.3,29.3c-14.2,8.2-25.9-1.2-25-10.5C106.8,109.1,123.6,108,124.7,122.2z"/>
<circle class="st0" cx="31.4" cy="117" r="4"/>
<path class="st2" d="M143.7,70c0,2-1.7,3.7-3.7,3.7c-2,0-3.7-1.7-3.7-3.7c0-2,1.7-3.7,3.7-3.7C142,66.4,143.7,68,143.7,70z"/>
<path class="st2" d="M119.2,123c0,2.2-1.8,4-4,4s-4-1.8-4-4c0-2.2,1.8-4,4-4S119.2,120.8,119.2,123z"/>
<path class="st2" d="M157.9,118.5c0,1.7-1.4,3.2-3.2,3.2c-1.7,0-3.2-1.4-3.2-3.2c0-1.7,1.4-3.2,3.2-3.2
	C156.5,115.4,157.9,116.8,157.9,118.5z"/>
<path class="st1" d="M95.2,168.4c0,2.3-1.9,4.2-4.2,4.2c-2.3,0-4.2-1.9-4.2-4.2s1.9-4.2,4.2-4.2C93.3,164.2,95.2,166,95.2,168.4z"/>
<path class="st1" d="M237.1,122.2c-6.6-3.4-5.5-19,9.2-19c14.8,0,20,19.5,10.8,33.5c-9.2,14-31.4,16.9-49.6,7.4
	c-18.2-9.5-15.3-26.4-11.9-32.7c3.4-6.3,12.9-6.6,14.8-1.1c0,0-11.9-4-12.4,8.2c-0.5,11.6,15.8,12.7,19.8,6.6
	c7.3-11.3,0.8-20.6,0.8-20.6l7.1-2.1c0,0-8.9,21.1,5.3,29.3c14.2,8.2,25.9-1.2,25-10.5C255,109.1,238.1,108,237.1,122.2z"/>
<circle class="st0" cx="330.4" cy="117" r="4"/>
<path class="st2" d="M218.1,70c0,2,1.7,3.7,3.7,3.7c2,0,3.7-1.7,3.7-3.7c0-2-1.7-3.7-3.7-3.7C219.7,66.4,218.1,68,218.1,70z"/>
<path class="st2" d="M242.6,123c0,2.2,1.8,4,4,4c2.2,0,4-1.8,4-4c0-2.2-1.8-4-4-4C244.4,119.1,242.6,120.8,242.6,123z"/>
<path class="st2" d="M203.9,118.5c0,1.7,1.4,3.2,3.2,3.2c1.7,0,3.2-1.4,3.2-3.2c0-1.7-1.4-3.2-3.2-3.2
	C205.3,115.4,203.9,116.8,203.9,118.5z"/>
<path class="st0" d="M266.6,168.4c0,2.3,1.9,4.2,4.2,4.2c2.3,0,4.2-1.9,4.2-4.2s-1.9-4.2-4.2-4.2C268.5,164.2,266.6,166,266.6,168.4
	z"/>
<path class="st1" d="M124.7,264.2c6.6-3.4,5.5-19-9.2-19c-14.8,0-20,19.5-10.8,33.5c9.2,14,31.4,16.9,49.6,7.4
	c18.2-9.5,15.3-26.4,11.9-32.7c-3.4-6.3-12.9-6.6-14.8-1.1c0,0,11.9-4,12.4,8.2c0.5,11.6-15.8,12.7-19.8,6.6
	c-7.3-11.3-0.8-20.6-0.8-20.6l-7.1-2.1c0,0,8.9,21.1-5.3,29.3c-14.2,8.2-25.9-1.2-25-10.5C106.8,251,123.6,249.9,124.7,264.2z"/>
<circle class="st0" cx="31.4" cy="258.9" r="4"/>
<path class="st2" d="M143.7,212c0,2-1.7,3.7-3.7,3.7c-2,0-3.7-1.7-3.7-3.7c0-2,1.7-3.7,3.7-3.7C142,208.3,143.7,209.9,143.7,212z"/>
<path class="st2" d="M119.2,265c0,2.2-1.8,4-4,4s-4-1.8-4-4c0-2.2,1.8-4,4-4S119.2,262.8,119.2,265z"/>
<path class="st2" d="M157.9,260.5c0,1.7-1.4,3.2-3.2,3.2c-1.7,0-3.2-1.4-3.2-3.2c0-1.7,1.4-3.2,3.2-3.2
	C156.5,257.3,157.9,258.7,157.9,260.5z"/>
<path class="st0" d="M95.2,310.3c0,2.3-1.9,4.2-4.2,4.2c-2.3,0-4.2-1.9-4.2-4.2s1.9-4.2,4.2-4.2C93.3,306.1,95.2,308,95.2,310.3z"/>
<path class="st1" d="M237.1,264.2c-6.6-3.4-5.5-19,9.2-19c14.8,0,20,19.5,10.8,33.5c-9.2,14-31.4,16.9-49.6,7.4
	c-18.2-9.5-15.3-26.4-11.9-32.7c3.4-6.3,12.9-6.6,14.8-1.1c0,0-11.9-4-12.4,8.2c-0.5,11.6,15.8,12.7,19.8,6.6
	c7.3-11.3,0.8-20.6,0.8-20.6l7.1-2.1c0,0-8.9,21.1,5.3,29.3c14.2,8.2,25.9-1.2,25-10.5C255,251,238.1,249.9,237.1,264.2z"/>
<circle class="st0" cx="330.4" cy="258.9" r="4"/>
<path class="st2" d="M218.1,212c0,2,1.7,3.7,3.7,3.7c2,0,3.7-1.7,3.7-3.7c0-2-1.7-3.7-3.7-3.7C219.7,208.3,218.1,209.9,218.1,212z"
	/>
<path class="st2" d="M242.6,265c0,2.2,1.8,4,4,4c2.2,0,4-1.8,4-4c0-2.2-1.8-4-4-4C244.4,261,242.6,262.8,242.6,265z"/>
<path class="st2" d="M203.9,260.5c0,1.7,1.4,3.2,3.2,3.2c1.7,0,3.2-1.4,3.2-3.2c0-1.7-1.4-3.2-3.2-3.2
	C205.3,257.3,203.9,258.7,203.9,260.5z"/>
<path class="st0" d="M266.6,310.3c0,2.3,1.9,4.2,4.2,4.2c2.3,0,4.2-1.9,4.2-4.2s-1.9-4.2-4.2-4.2C268.5,306.1,266.6,308,266.6,310.3
	z"/>
<path class="st1" d="M185.1,285.6c28.5,34.4,72.4,16.2,87.1,7c14.8-9.2,27.4-2.1,27.4,12.4c0,14.5-19.5,15-19.5,15
	c14.8-19-19-31.4-19-5.8c0,25.6,50.3,22.9,50.3-7.4c0-30.3-33.2-28.5-33.2-28.5c4-2.6,18.5-18.7,27.7-27.2
	c9.2-8.4,15.6-12.7,24.5-12.7s17.7,3.4,17.7,14c0,10.5-10,12.1-10,12.1c3.4-1.1,6.1-15.8-9-15.8c-15,0-12.1,28.7,6.6,28.7
	c18.7,0,24.2-11.7,25.6-19.8c1.6-9.5-0.3-29.8-28.7-29.8c-28.5,0-60.6,40.3-60.6,40.3s2.9-15.3-7.1-25.8c-10-10.5-24.5-6.9-24.5-6.9
	c12.4-12.1,6.1-36.4-14.5-36.4s-15.6,24.8-5.8,24.8s11.3-9.5,11.3-9.5c7.9,17.9-13.7,24.8-24.5,16.3c-10.8-8.4-12.4-22.7-12.4-44
	c0-21.4-3.4-26.9-10-26.9h-3.3c-6.4,0-13.7,5.5-13.7,26.9c0,21.4-1.6,35.6-12.4,44c-10.8,8.4-32.4,1.6-24.5-16.3
	c0,0,1.6,9.5,11.3,9.5c9.8,0,14.8-24.8-5.8-24.8c-20.6,0-26.9,24.3-14.5,36.4c0,0-14.5-3.7-24.5,6.9c-10,10.5-7.1,25.8-7.1,25.8
	s-32.2-40.3-60.6-40.3s-30.3,20.3-28.7,29.8c1.3,8.1,6.9,19.8,25.6,19.8c18.7,0,21.6-28.7,6.6-28.7c-15,0-12.4,14.8-9,15.8
	c0,0-10-1.6-10-12.1c0-10.5,8.7-14,17.7-14c9,0,15.3,4.2,24.5,12.7c9.2,8.4,23.7,24.5,27.7,27.2c0,0-33.2-1.8-33.2,28.5
	c0,30.3,50.3,33,50.3,7.4c0-25.6-33.7-13.2-19,5.8c0,0-19.5-0.5-19.5-15c0-14.5,12.7-21.6,27.4-12.4c14.6,9.1,57.9,27.3,86.4-6.8
	l0.4-1.1v-52h8.5v52.1L185.1,285.6z"/>
<path class="st0" d="M183.5,167.9c0,1.1-0.9,2-2,2c-1.1,0-2-0.9-2-2c0-1.1,0.9-2,2-2C182.6,165.9,183.5,166.8,183.5,167.9z"/>
</svg>
