<?xml version="1.0" encoding="utf-8"?>
<!-- Generator: Adobe Illustrator 24.3.0, SVG Export Plug-In . SVG Version: 6.00 Build 0)  -->
<svg version="1.1" id="Layer_1" xmlns="http://www.w3.org/2000/svg" xmlns:xlink="http://www.w3.org/1999/xlink" x="0px" y="0px"
	 viewBox="0 0 1133.9 850.4" style="enable-background:new 0 0 1133.9 850.4;" xml:space="preserve">
<style type="text/css">
	.st0{fill:none;stroke:#000000;stroke-width:7.200000e-02;}
</style>
<line class="st0" x1="12.6" y1="790.2" x2="12.6" y2="639.2"/>
<line class="st0" x1="12.6" y1="639.2" x2="21.3" y2="639.2"/>
<line class="st0" x1="21.3" y1="639.2" x2="21.3" y2="601.4"/>
<line class="st0" x1="21.3" y1="601.4" x2="63.7" y2="601.4"/>
<line class="st0" x1="63.7" y1="601.4" x2="63.7" y2="606.8"/>
<line class="st0" x1="63.7" y1="606.8" x2="65.3" y2="617.1"/>
<line class="st0" x1="65.3" y1="617.1" x2="68.4" y2="626.1"/>
<line class="st0" x1="68.4" y1="626.1" x2="70.7" y2="629.7"/>
<line class="st0" x1="70.7" y1="629.7" x2="70.7" y2="745.8"/>
<line class="st0" x1="70.7" y1="745.8" x2="73.2" y2="750.6"/>
<line class="st0" x1="73.2" y1="750.6" x2="77.7" y2="753.7"/>
<line class="st0" x1="77.7" y1="753.7" x2="83" y2="754.4"/>
<line class="st0" x1="83" y1="754.4" x2="88.1" y2="752.5"/>
<line class="st0" x1="88.1" y1="752.5" x2="91.7" y2="748.4"/>
<line class="st0" x1="91.7" y1="748.4" x2="93" y2="743.1"/>
<line class="st0" x1="93" y1="743.1" x2="93" y2="629.7"/>
<line class="st0" x1="93" y1="629.7" x2="96.7" y2="621.8"/>
<line class="st0" x1="96.7" y1="621.8" x2="99" y2="612.1"/>
<line class="st0" x1="99" y1="612.1" x2="99.8" y2="601.4"/>
<line class="st0" x1="99.8" y1="601.4" x2="132.8" y2="601.4"/>
<line class="st0" x1="132.8" y1="601.4" x2="132.8" y2="606.8"/>
<line class="st0" x1="132.8" y1="606.8" x2="134.4" y2="617.1"/>
<line class="st0" x1="134.4" y1="617.1" x2="137.5" y2="626.1"/>
<line class="st0" x1="137.5" y1="626.1" x2="139.8" y2="629.7"/>
<line class="st0" x1="139.8" y1="629.7" x2="139.8" y2="745.8"/>
<line class="st0" x1="139.8" y1="745.8" x2="142.3" y2="750.6"/>
<line class="st0" x1="142.3" y1="750.6" x2="146.8" y2="753.7"/>
<line class="st0" x1="146.8" y1="753.7" x2="152.1" y2="754.4"/>
<line class="st0" x1="152.1" y1="754.4" x2="157.2" y2="752.5"/>
<line class="st0" x1="157.2" y1="752.5" x2="160.8" y2="748.4"/>
<line class="st0" x1="160.8" y1="748.4" x2="162.1" y2="743.1"/>
<line class="st0" x1="162.1" y1="743.1" x2="162.1" y2="629.7"/>
<line class="st0" x1="162.1" y1="629.7" x2="165.8" y2="621.8"/>
<line class="st0" x1="165.8" y1="621.8" x2="168.1" y2="612.1"/>
<line class="st0" x1="168.1" y1="612.1" x2="168.9" y2="601.4"/>
<line class="st0" x1="168.9" y1="601.4" x2="201.9" y2="601.4"/>
<line class="st0" x1="201.9" y1="601.4" x2="201.9" y2="606.8"/>
<line class="st0" x1="201.9" y1="606.8" x2="203.5" y2="617.1"/>
<line class="st0" x1="203.5" y1="617.1" x2="206.6" y2="626.1"/>
<line class="st0" x1="206.6" y1="626.1" x2="208.9" y2="629.7"/>
<line class="st0" x1="208.9" y1="629.7" x2="208.9" y2="745.8"/>
<line class="st0" x1="208.9" y1="745.8" x2="211.4" y2="750.6"/>
<line class="st0" x1="211.4" y1="750.6" x2="215.8" y2="753.7"/>
<line class="st0" x1="215.8" y1="753.7" x2="221.2" y2="754.4"/>
<line class="st0" x1="221.2" y1="754.4" x2="226.3" y2="752.5"/>
<line class="st0" x1="226.3" y1="752.5" x2="229.9" y2="748.4"/>
<line class="st0" x1="229.9" y1="748.4" x2="231.2" y2="743.1"/>
<line class="st0" x1="231.2" y1="743.1" x2="231.2" y2="629.7"/>
<line class="st0" x1="231.2" y1="629.7" x2="234.9" y2="621.8"/>
<line class="st0" x1="234.9" y1="621.8" x2="237.2" y2="612.1"/>
<line class="st0" x1="237.2" y1="612.1" x2="238" y2="601.4"/>
<line class="st0" x1="238" y1="601.4" x2="271" y2="601.4"/>
<line class="st0" x1="271" y1="601.4" x2="271" y2="606.8"/>
<line class="st0" x1="271" y1="606.8" x2="272.6" y2="617.1"/>
<line class="st0" x1="272.6" y1="617.1" x2="275.7" y2="626.1"/>
<line class="st0" x1="275.7" y1="626.1" x2="278" y2="629.7"/>
<line class="st0" x1="278" y1="629.7" x2="278" y2="745.8"/>
<line class="st0" x1="278" y1="745.8" x2="280.5" y2="750.6"/>
<line class="st0" x1="280.5" y1="750.6" x2="284.9" y2="753.7"/>
<line class="st0" x1="284.9" y1="753.7" x2="290.3" y2="754.4"/>
<line class="st0" x1="290.3" y1="754.4" x2="295.4" y2="752.5"/>
<line class="st0" x1="295.4" y1="752.5" x2="299" y2="748.4"/>
<line class="st0" x1="299" y1="748.4" x2="300.3" y2="743.1"/>
<line class="st0" x1="300.3" y1="743.1" x2="300.3" y2="629.7"/>
<line class="st0" x1="300.3" y1="629.7" x2="304" y2="621.8"/>
<line class="st0" x1="304" y1="621.8" x2="306.3" y2="612.1"/>
<line class="st0" x1="306.3" y1="612.1" x2="307.1" y2="601.4"/>
<line class="st0" x1="307.1" y1="601.4" x2="340.1" y2="601.4"/>
<line class="st0" x1="340.1" y1="601.4" x2="340.1" y2="606.8"/>
<line class="st0" x1="340.1" y1="606.8" x2="341.7" y2="617.1"/>
<line class="st0" x1="341.7" y1="617.1" x2="344.8" y2="626.1"/>
<line class="st0" x1="344.8" y1="626.1" x2="347" y2="629.7"/>
<line class="st0" x1="347" y1="629.7" x2="347" y2="745.8"/>
<line class="st0" x1="347" y1="745.8" x2="349.6" y2="750.6"/>
<line class="st0" x1="349.6" y1="750.6" x2="354" y2="753.7"/>
<line class="st0" x1="354" y1="753.7" x2="359.4" y2="754.4"/>
<line class="st0" x1="359.4" y1="754.4" x2="364.5" y2="752.5"/>
<line class="st0" x1="364.5" y1="752.5" x2="368.1" y2="748.4"/>
<line class="st0" x1="368.1" y1="748.4" x2="369.4" y2="743.1"/>
<line class="st0" x1="369.4" y1="743.1" x2="369.4" y2="629.7"/>
<line class="st0" x1="369.4" y1="629.7" x2="373" y2="621.8"/>
<line class="st0" x1="373" y1="621.8" x2="375.4" y2="612.1"/>
<line class="st0" x1="375.4" y1="612.1" x2="376.2" y2="601.4"/>
<line class="st0" x1="376.2" y1="601.4" x2="409.2" y2="601.4"/>
<line class="st0" x1="409.2" y1="601.4" x2="409.2" y2="606.8"/>
<line class="st0" x1="409.2" y1="606.8" x2="410.8" y2="617.1"/>
<line class="st0" x1="410.8" y1="617.1" x2="413.9" y2="626.1"/>
<line class="st0" x1="413.9" y1="626.1" x2="416.1" y2="629.7"/>
<line class="st0" x1="416.1" y1="629.7" x2="416.1" y2="745.8"/>
<line class="st0" x1="416.1" y1="745.8" x2="418.7" y2="750.6"/>
<line class="st0" x1="418.7" y1="750.6" x2="423.1" y2="753.7"/>
<line class="st0" x1="423.1" y1="753.7" x2="428.5" y2="754.4"/>
<line class="st0" x1="428.5" y1="754.4" x2="433.6" y2="752.5"/>
<line class="st0" x1="433.6" y1="752.5" x2="437.2" y2="748.4"/>
<line class="st0" x1="437.2" y1="748.4" x2="438.5" y2="743.1"/>
<line class="st0" x1="438.5" y1="743.1" x2="438.5" y2="629.7"/>
<line class="st0" x1="438.5" y1="629.7" x2="442.1" y2="621.8"/>
<line class="st0" x1="442.1" y1="621.8" x2="444.5" y2="612.1"/>
<line class="st0" x1="444.5" y1="612.1" x2="445.3" y2="601.4"/>
<line class="st0" x1="445.3" y1="601.4" x2="483.8" y2="601.4"/>
<line class="st0" x1="483.8" y1="601.4" x2="485" y2="612.2"/>
<line class="st0" x1="485" y1="612.2" x2="488.5" y2="620.9"/>
<line class="st0" x1="488.5" y1="620.9" x2="488.9" y2="621.3"/>
<line class="st0" x1="488.9" y1="621.3" x2="488.9" y2="745.8"/>
<line class="st0" x1="488.9" y1="745.8" x2="492.3" y2="749.9"/>
<line class="st0" x1="492.3" y1="749.9" x2="497.6" y2="750.8"/>
<line class="st0" x1="497.6" y1="750.8" x2="502.2" y2="748.1"/>
<line class="st0" x1="502.2" y1="748.1" x2="504" y2="743.1"/>
<line class="st0" x1="504" y1="743.1" x2="504" y2="620.8"/>
<line class="st0" x1="504" y1="620.8" x2="507.5" y2="612.2"/>
<line class="st0" x1="507.5" y1="612.2" x2="508.7" y2="601.4"/>
<line class="st0" x1="508.7" y1="601.4" x2="552.9" y2="601.4"/>
<line class="st0" x1="552.9" y1="601.4" x2="554.1" y2="612.2"/>
<line class="st0" x1="554.1" y1="612.2" x2="557.6" y2="620.9"/>
<line class="st0" x1="557.6" y1="620.9" x2="558" y2="621.3"/>
<line class="st0" x1="558" y1="621.3" x2="558" y2="745.8"/>
<line class="st0" x1="558" y1="745.8" x2="561.4" y2="749.9"/>
<line class="st0" x1="561.4" y1="749.9" x2="566.7" y2="750.8"/>
<line class="st0" x1="566.7" y1="750.8" x2="571.3" y2="748.1"/>
<line class="st0" x1="571.3" y1="748.1" x2="573.1" y2="743.1"/>
<line class="st0" x1="573.1" y1="743.1" x2="573.1" y2="620.8"/>
<line class="st0" x1="573.1" y1="620.8" x2="576.6" y2="612.2"/>
<line class="st0" x1="576.6" y1="612.2" x2="577.8" y2="601.4"/>
<line class="st0" x1="577.8" y1="601.4" x2="622" y2="601.4"/>
<line class="st0" x1="622" y1="601.4" x2="623.2" y2="612.2"/>
<line class="st0" x1="623.2" y1="612.2" x2="626.7" y2="620.9"/>
<line class="st0" x1="626.7" y1="620.9" x2="627.1" y2="621.3"/>
<line class="st0" x1="627.1" y1="621.3" x2="627.1" y2="745.8"/>
<line class="st0" x1="627.1" y1="745.8" x2="630.5" y2="749.9"/>
<line class="st0" x1="630.5" y1="749.9" x2="635.8" y2="750.8"/>
<line class="st0" x1="635.8" y1="750.8" x2="640.4" y2="748.1"/>
<line class="st0" x1="640.4" y1="748.1" x2="642.2" y2="743.1"/>
<line class="st0" x1="642.2" y1="743.1" x2="642.2" y2="620.8"/>
<line class="st0" x1="642.2" y1="620.8" x2="645.7" y2="612.2"/>
<line class="st0" x1="645.7" y1="612.2" x2="646.9" y2="601.4"/>
<line class="st0" x1="646.9" y1="601.4" x2="691.1" y2="601.4"/>
<line class="st0" x1="691.1" y1="601.4" x2="692.3" y2="612.2"/>
<line class="st0" x1="692.3" y1="612.2" x2="695.8" y2="620.9"/>
<line class="st0" x1="695.8" y1="620.9" x2="696.2" y2="621.3"/>
<line class="st0" x1="696.2" y1="621.3" x2="696.2" y2="745.8"/>
<line class="st0" x1="696.2" y1="745.8" x2="699.6" y2="749.9"/>
<line class="st0" x1="699.6" y1="749.9" x2="704.9" y2="750.8"/>
<line class="st0" x1="704.9" y1="750.8" x2="709.5" y2="748.1"/>
<line class="st0" x1="709.5" y1="748.1" x2="711.3" y2="743.1"/>
<line class="st0" x1="711.3" y1="743.1" x2="711.3" y2="620.8"/>
<line class="st0" x1="711.3" y1="620.8" x2="714.8" y2="612.2"/>
<line class="st0" x1="714.8" y1="612.2" x2="716" y2="601.4"/>
<line class="st0" x1="716" y1="601.4" x2="760.2" y2="601.4"/>
<line class="st0" x1="760.2" y1="601.4" x2="761.4" y2="612.2"/>
<line class="st0" x1="761.4" y1="612.2" x2="764.8" y2="620.9"/>
<line class="st0" x1="764.8" y1="620.9" x2="765.3" y2="621.3"/>
<line class="st0" x1="765.3" y1="621.3" x2="765.3" y2="745.8"/>
<line class="st0" x1="765.3" y1="745.8" x2="768.7" y2="749.9"/>
<line class="st0" x1="768.7" y1="749.9" x2="774" y2="750.8"/>
<line class="st0" x1="774" y1="750.8" x2="778.6" y2="748.1"/>
<line class="st0" x1="778.6" y1="748.1" x2="780.4" y2="743.1"/>
<line class="st0" x1="780.4" y1="743.1" x2="780.4" y2="620.8"/>
<line class="st0" x1="780.4" y1="620.8" x2="783.9" y2="612.2"/>
<line class="st0" x1="783.9" y1="612.2" x2="785.1" y2="601.4"/>
<line class="st0" x1="785.1" y1="601.4" x2="829.2" y2="601.4"/>
<line class="st0" x1="829.2" y1="601.4" x2="830.5" y2="612.2"/>
<line class="st0" x1="830.5" y1="612.2" x2="833.9" y2="620.9"/>
<line class="st0" x1="833.9" y1="620.9" x2="834.4" y2="621.3"/>
<line class="st0" x1="834.4" y1="621.3" x2="834.4" y2="745.8"/>
<line class="st0" x1="834.4" y1="745.8" x2="837.8" y2="749.9"/>
<line class="st0" x1="837.8" y1="749.9" x2="843.1" y2="750.8"/>
<line class="st0" x1="843.1" y1="750.8" x2="847.7" y2="748.1"/>
<line class="st0" x1="847.7" y1="748.1" x2="849.5" y2="743.1"/>
<line class="st0" x1="849.5" y1="743.1" x2="849.5" y2="620.8"/>
<line class="st0" x1="849.5" y1="620.8" x2="853" y2="612.2"/>
<line class="st0" x1="853" y1="612.2" x2="854.2" y2="601.4"/>
<line class="st0" x1="854.2" y1="601.4" x2="898.3" y2="601.4"/>
<line class="st0" x1="898.3" y1="601.4" x2="899.6" y2="612.2"/>
<line class="st0" x1="899.6" y1="612.2" x2="903" y2="620.9"/>
<line class="st0" x1="903" y1="620.9" x2="903.5" y2="621.3"/>
<line class="st0" x1="903.5" y1="621.3" x2="903.5" y2="745.8"/>
<line class="st0" x1="903.5" y1="745.8" x2="906.9" y2="749.9"/>
<line class="st0" x1="906.9" y1="749.9" x2="912.2" y2="750.8"/>
<line class="st0" x1="912.2" y1="750.8" x2="916.8" y2="748.1"/>
<line class="st0" x1="916.8" y1="748.1" x2="918.6" y2="743.1"/>
<line class="st0" x1="918.6" y1="743.1" x2="918.6" y2="620.8"/>
<line class="st0" x1="918.6" y1="620.8" x2="922.1" y2="612.2"/>
<line class="st0" x1="922.1" y1="612.2" x2="923.3" y2="601.4"/>
<line class="st0" x1="923.3" y1="601.4" x2="967.4" y2="601.4"/>
<line class="st0" x1="967.4" y1="601.4" x2="968.7" y2="612.2"/>
<line class="st0" x1="968.7" y1="612.2" x2="972.1" y2="620.9"/>
<line class="st0" x1="972.1" y1="620.9" x2="972.6" y2="621.3"/>
<line class="st0" x1="972.6" y1="621.3" x2="972.6" y2="745.8"/>
<line class="st0" x1="972.6" y1="745.8" x2="976" y2="749.9"/>
<line class="st0" x1="976" y1="749.9" x2="981.3" y2="750.8"/>
<line class="st0" x1="981.3" y1="750.8" x2="985.9" y2="748.1"/>
<line class="st0" x1="985.9" y1="748.1" x2="987.7" y2="743.1"/>
<line class="st0" x1="987.7" y1="743.1" x2="987.7" y2="620.8"/>
<line class="st0" x1="987.7" y1="620.8" x2="991.1" y2="612.2"/>
<line class="st0" x1="991.1" y1="612.2" x2="992.4" y2="601.4"/>
<line class="st0" x1="992.4" y1="601.4" x2="1036.5" y2="601.4"/>
<line class="st0" x1="1036.5" y1="601.4" x2="1037.8" y2="612.2"/>
<line class="st0" x1="1037.8" y1="612.2" x2="1041.2" y2="620.9"/>
<line class="st0" x1="1041.2" y1="620.9" x2="1041.7" y2="621.3"/>
<line class="st0" x1="1041.7" y1="621.3" x2="1041.7" y2="745.8"/>
<line class="st0" x1="1041.7" y1="745.8" x2="1045.1" y2="749.9"/>
<line class="st0" x1="1045.1" y1="749.9" x2="1050.4" y2="750.8"/>
<line class="st0" x1="1050.4" y1="750.8" x2="1055" y2="748.1"/>
<line class="st0" x1="1055" y1="748.1" x2="1056.8" y2="743.1"/>
<line class="st0" x1="1056.8" y1="743.1" x2="1056.8" y2="620.8"/>
<line class="st0" x1="1056.8" y1="620.8" x2="1060.2" y2="612.2"/>
<line class="st0" x1="1060.2" y1="612.2" x2="1061.5" y2="601.4"/>
<line class="st0" x1="1061.5" y1="601.4" x2="1109.4" y2="601.4"/>
<line class="st0" x1="1109.4" y1="601.4" x2="1109.4" y2="639.2"/>
<line class="st0" x1="1109.4" y1="639.2" x2="1118.1" y2="639.2"/>
<line class="st0" x1="1118.1" y1="639.2" x2="1118.1" y2="790.2"/>
<line class="st0" x1="1118.1" y1="790.2" x2="1109.4" y2="790.2"/>
<line class="st0" x1="1109.4" y1="790.2" x2="1109.4" y2="828.2"/>
<line class="st0" x1="1109.4" y1="828.2" x2="21.3" y2="828.2"/>
<line class="st0" x1="21.3" y1="828.2" x2="21.3" y2="790.2"/>
<line class="st0" x1="21.3" y1="790.2" x2="12.6" y2="790.2"/>
<line class="st0" x1="12.6" y1="552.1" x2="12.6" y2="401.1"/>
<line class="st0" x1="12.6" y1="401.1" x2="21.3" y2="401.1"/>
<line class="st0" x1="21.3" y1="401.1" x2="21.3" y2="363.3"/>
<line class="st0" x1="21.3" y1="363.3" x2="1109.4" y2="363.3"/>
<line class="st0" x1="1109.4" y1="363.3" x2="1109.4" y2="401.1"/>
<line class="st0" x1="1109.4" y1="401.1" x2="1118.1" y2="401.1"/>
<line class="st0" x1="1118.1" y1="401.1" x2="1118.1" y2="552.1"/>
<line class="st0" x1="1118.1" y1="552.1" x2="1109.4" y2="552.1"/>
<line class="st0" x1="1109.4" y1="552.1" x2="1109.4" y2="590.1"/>
<line class="st0" x1="1109.4" y1="590.1" x2="21.3" y2="590.1"/>
<line class="st0" x1="21.3" y1="590.1" x2="21.3" y2="552.1"/>
<line class="st0" x1="21.3" y1="552.1" x2="12.6" y2="552.1"/>
<line class="st0" x1="256.8" y1="349.4" x2="216.5" y2="349.4"/>
<line class="st0" x1="216.5" y1="349.4" x2="216.5" y2="340.9"/>
<line class="st0" x1="216.5" y1="340.9" x2="64.9" y2="340.9"/>
<line class="st0" x1="64.9" y1="340.9" x2="64.9" y2="349.4"/>
<line class="st0" x1="64.9" y1="349.4" x2="24.5" y2="349.4"/>
<line class="st0" x1="24.5" y1="349.4" x2="19.2" y2="347.6"/>
<line class="st0" x1="19.2" y1="347.6" x2="14.8" y2="344.1"/>
<line class="st0" x1="14.8" y1="344.1" x2="11.7" y2="339.5"/>
<line class="st0" x1="11.7" y1="339.5" x2="10.3" y2="334"/>
<line class="st0" x1="10.3" y1="334" x2="10.8" y2="328.4"/>
<line class="st0" x1="10.8" y1="328.4" x2="13" y2="323.3"/>
<line class="st0" x1="13" y1="323.3" x2="111.7" y2="101.4"/>
<line class="st0" x1="111.7" y1="101.4" x2="115.5" y2="97.3"/>
<line class="st0" x1="115.5" y1="97.3" x2="120.4" y2="94.6"/>
<line class="st0" x1="120.4" y1="94.6" x2="125.9" y2="93.7"/>
<line class="st0" x1="125.9" y1="93.7" x2="131.5" y2="94.6"/>
<line class="st0" x1="131.5" y1="94.6" x2="136.4" y2="97.3"/>
<line class="st0" x1="136.4" y1="97.3" x2="140.2" y2="101.4"/>
<line class="st0" x1="140.2" y1="101.4" x2="268.3" y2="323.3"/>
<line class="st0" x1="268.3" y1="323.3" x2="270.5" y2="328.4"/>
<line class="st0" x1="270.5" y1="328.4" x2="271" y2="334"/>
<line class="st0" x1="271" y1="334" x2="269.6" y2="339.5"/>
<line class="st0" x1="269.6" y1="339.5" x2="266.6" y2="344.1"/>
<line class="st0" x1="266.6" y1="344.1" x2="262.1" y2="347.6"/>
<line class="st0" x1="262.1" y1="347.6" x2="256.8" y2="349.4"/>
<line class="st0" x1="213.3" y1="279" x2="137.5" y2="147.7"/>
<line class="st0" x1="137.5" y1="147.7" x2="145.2" y2="143.2"/>
<line class="st0" x1="145.2" y1="143.2" x2="221" y2="274.5"/>
<line class="st0" x1="221" y1="274.5" x2="213.3" y2="279"/>
<line class="st0" x1="180.2" y1="91.5" x2="220.5" y2="91.5"/>
<line class="st0" x1="220.5" y1="91.5" x2="220.5" y2="100"/>
<line class="st0" x1="220.5" y1="100" x2="372.2" y2="100"/>
<line class="st0" x1="372.2" y1="100" x2="372.2" y2="91.5"/>
<line class="st0" x1="372.2" y1="91.5" x2="412.5" y2="91.5"/>
<line class="st0" x1="412.5" y1="91.5" x2="417.8" y2="93.3"/>
<line class="st0" x1="417.8" y1="93.3" x2="422.2" y2="96.7"/>
<line class="st0" x1="422.2" y1="96.7" x2="425.3" y2="101.4"/>
<line class="st0" x1="425.3" y1="101.4" x2="426.7" y2="106.8"/>
<line class="st0" x1="426.7" y1="106.8" x2="426.2" y2="112.4"/>
<line class="st0" x1="426.2" y1="112.4" x2="424" y2="117.6"/>
<line class="st0" x1="424" y1="117.6" x2="325.3" y2="339.5"/>
<line class="st0" x1="325.3" y1="339.5" x2="321.5" y2="343.6"/>
<line class="st0" x1="321.5" y1="343.6" x2="316.6" y2="346.2"/>
<line class="st0" x1="316.6" y1="346.2" x2="311.1" y2="347.2"/>
<line class="st0" x1="311.1" y1="347.2" x2="305.6" y2="346.2"/>
<line class="st0" x1="305.6" y1="346.2" x2="300.6" y2="343.6"/>
<line class="st0" x1="300.6" y1="343.6" x2="296.8" y2="339.5"/>
<line class="st0" x1="296.8" y1="339.5" x2="168.7" y2="117.6"/>
<line class="st0" x1="168.7" y1="117.6" x2="166.5" y2="112.4"/>
<line class="st0" x1="166.5" y1="112.4" x2="166" y2="106.8"/>
<line class="st0" x1="166" y1="106.8" x2="167.4" y2="101.4"/>
<line class="st0" x1="167.4" y1="101.4" x2="170.5" y2="96.7"/>
<line class="st0" x1="170.5" y1="96.7" x2="174.9" y2="93.3"/>
<line class="st0" x1="174.9" y1="93.3" x2="180.2" y2="91.5"/>
<line class="st0" x1="223.7" y1="161.9" x2="299.6" y2="293.2"/>
<line class="st0" x1="299.6" y1="293.2" x2="291.8" y2="297.6"/>
<line class="st0" x1="291.8" y1="297.6" x2="216" y2="166.3"/>
<line class="st0" x1="216" y1="166.3" x2="223.7" y2="161.9"/>
</svg>
