<?xml version="1.0" encoding="utf-8"?>
<!-- Generator: Adobe Illustrator 24.2.3, SVG Export Plug-In . SVG Version: 6.00 Build 0)  -->
<svg version="1.1" xmlns="http://www.w3.org/2000/svg" xmlns:xlink="http://www.w3.org/1999/xlink" x="0px" y="0px"
	 viewBox="0 0 3401.6 2267.7" style="enable-background:new 0 0 3401.6 2267.7;" xml:space="preserve">
<style type="text/css">
	.st0{fill:none;stroke:#000000;stroke-miterlimit:10;}
	.st1{fill:none;stroke:#000000;stroke-width:0.1;stroke-miterlimit:10;}
	.st2{fill:none;stroke:#E13032;stroke-miterlimit:10;}
</style>
<g id="Corte">
	<path id="XMLID_19_" class="st0" d="M81.4,403.2"/>
	<polygon id="XMLID_124_" class="st1" points="2109.7,410.8 2138.6,410.8 2138.6,382.5 2166.1,382.5 2166.1,410.8 3300.5,410.8 
		3300.5,382.5 3328.3,382.5 3328.3,410.8 3356.9,410.8 3385.3,410.8 3385.3,325.8 3356.9,325.8 3328.3,325.8 3328.3,354.1 
		3300.5,354.1 3300.5,325.8 2166.1,325.8 2166.1,354.1 2138.3,354.1 2138.3,325.8 2109.7,325.8 2081.3,325.8 2081.3,410.8 	"/>
	<polygon id="XMLID_123_" class="st1" points="2109.7,501.8 2138.6,501.8 2138.6,473.5 2166.1,473.5 2166.1,501.8 3300.5,501.8 
		3300.5,473.5 3328.3,473.5 3328.3,501.8 3356.9,501.8 3385.3,501.8 3385.3,416.8 3356.9,416.8 3328.3,416.8 3328.3,445.1 
		3300.5,445.1 3300.5,416.8 2166.1,416.8 2166.1,445.1 2138.3,445.1 2138.3,416.8 2109.7,416.8 2081.3,416.8 2081.3,501.8 	"/>
	<polygon id="XMLID_131_" class="st1" points="42.4,408.6 71.3,408.6 71.3,380.3 98.8,380.2 98.8,408.6 1233.2,407.4 1233.2,379 
		1261,379 1261,407.3 1289.6,407.3 1318,407.3 1317.9,322.3 1289.5,322.3 1260.9,322.3 1260.9,350.7 1233.2,350.7 1233.1,322.3 
		98.7,323.5 98.7,351.9 71,351.9 70.9,323.6 42.3,323.6 14,323.6 14,408.7 	"/>
	<polygon id="XMLID_130_" class="st1" points="42.3,499.4 71.3,499.4 71.3,471 98.8,471 98.8,499.4 1233.2,499.4 1233.2,471 
		1261,471 1261,499.4 1289.6,499.4 1317.9,499.4 1317.9,414.4 1289.6,414.4 1261,414.4 1261,442.7 1233.2,442.7 1233.2,414.4 
		98.8,414.4 98.8,442.7 71,442.7 71,414.4 42.3,414.4 14,414.4 14,499.4 	"/>
	<polyline id="XMLID_100_" class="st1" points="1216.4,2941.1 1216.4,2912.8 1243.9,2912.8 1243.9,2941.1 	"/>
	<line id="XMLID_99_" class="st1" x1="1159.2" y1="2856.1" x2="1159.2" y2="2941.1"/>
	<polyline id="XMLID_98_" class="st1" points="1243.9,2856.1 1243.9,2884.4 1216.1,2884.4 1216.1,2856.1 	"/>
	<polyline id="XMLID_68_" class="st1" points="2406.1,2856.1 2406.1,2884.4 2378.3,2884.4 2378.3,2856.1 	"/>
	<line id="XMLID_67_" class="st1" x1="2463.1" y1="2941.1" x2="2463.1" y2="2856.1"/>
	<polyline id="XMLID_66_" class="st1" points="2378.3,2941.1 2378.3,2912.8 2406.1,2912.8 2406.1,2941.1 	"/>
	<polyline id="XMLID_97_" class="st1" points="1216.4,3026.1 1216.4,2997.8 1243.9,2997.8 1243.9,3026.1 	"/>
	<line id="XMLID_96_" class="st1" x1="1159.2" y1="2941.1" x2="1159.2" y2="3026.1"/>
	<polyline id="XMLID_95_" class="st1" points="1243.9,2941.1 1243.9,2969.5 1216.1,2969.5 1216.1,2941.1 	"/>
	<polyline id="XMLID_65_" class="st1" points="2406.1,2941.1 2406.1,2969.5 2378.3,2969.5 2378.3,2941.1 	"/>
	<polyline id="XMLID_39_" class="st1" points="2378.3,2771 2378.3,2685.7 2406.1,2685.7 2406.1,2771 	"/>
	<polyline id="XMLID_28_" class="st1" points="2406.1,2771 2406.1,2799.4 2378.3,2799.4 2378.3,2771 	"/>
	<line id="XMLID_64_" class="st1" x1="2463.1" y1="3026.1" x2="2463.1" y2="2941.1"/>
	<polyline id="XMLID_63_" class="st1" points="2378.3,3026.1 2378.3,2997.8 2406.1,2997.8 2406.1,3026.1 	"/>
	<polyline id="XMLID_94_" class="st1" points="1216.4,3111.2 1216.4,3082.8 1243.9,3082.8 1243.9,3111.2 	"/>
	<line id="XMLID_93_" class="st1" x1="1159.2" y1="3026.1" x2="1159.2" y2="3111.2"/>
	<polyline id="XMLID_92_" class="st1" points="1243.9,3026.1 1243.9,3054.5 1216.1,3054.5 1216.1,3026.1 	"/>
	<polyline id="XMLID_62_" class="st1" points="2406.1,3026.1 2406.1,3054.5 2378.3,3054.5 2378.3,3026.1 	"/>
	<line id="XMLID_61_" class="st1" x1="2463.1" y1="3111.2" x2="2463.1" y2="3026.1"/>
	<polyline id="XMLID_60_" class="st1" points="2378.3,3111.2 2378.3,3082.8 2406.1,3082.8 2406.1,3111.2 	"/>
	<polyline id="XMLID_91_" class="st1" points="1216.4,3196.2 1216.4,3167.9 1243.9,3167.9 1243.9,3196.2 	"/>
	<line id="XMLID_90_" class="st1" x1="1159.2" y1="3111.2" x2="1159.2" y2="3196.2"/>
	<polyline id="XMLID_89_" class="st1" points="1243.9,3111.2 1243.9,3139.5 1216.1,3139.5 1216.1,3111.2 	"/>
	<polyline id="XMLID_59_" class="st1" points="2406.1,3111.2 2406.1,3139.5 2378.3,3139.5 2378.3,3111.2 	"/>
	<line id="XMLID_58_" class="st1" x1="2463.1" y1="3196.2" x2="2463.1" y2="3111.2"/>
	<polyline id="XMLID_57_" class="st1" points="2378.3,3196.2 2378.3,3167.9 2406.1,3167.9 2406.1,3196.2 	"/>
	<polyline id="XMLID_88_" class="st1" points="1216.4,3281.3 1216.4,3252.9 1243.9,3252.9 1243.9,3281.3 	"/>
	<line id="XMLID_87_" class="st1" x1="1159.2" y1="3196.2" x2="1159.2" y2="3281.3"/>
	<polyline id="XMLID_83_" class="st1" points="1243.9,3196.2 1243.9,3224.6 1216.1,3224.6 1216.1,3196.2 	"/>
	<polyline id="XMLID_56_" class="st1" points="2406.1,3196.2 2406.1,3224.6 2378.3,3224.6 2378.3,3196.2 	"/>
	<line id="XMLID_55_" class="st1" x1="2463.1" y1="3281.3" x2="2463.1" y2="3196.2"/>
	<polyline id="XMLID_54_" class="st1" points="2378.3,3281.3 2378.3,3252.9 2406.1,3252.9 2406.1,3281.3 	"/>
	<polyline id="XMLID_80_" class="st1" points="1216.4,3366.3 1216.4,3338 1243.9,3338 1243.9,3366.3 	"/>
	<line id="XMLID_78_" class="st1" x1="1159.2" y1="3281.3" x2="1159.2" y2="3366.3"/>
	<polyline id="XMLID_77_" class="st1" points="1243.9,3281.3 1243.9,3309.6 1216.1,3309.6 1216.1,3281.3 	"/>
	<polyline id="XMLID_53_" class="st1" points="2406.1,3281.3 2406.1,3309.6 2378.3,3309.6 2378.3,3281.3 	"/>
	<line id="XMLID_52_" class="st1" x1="2463.1" y1="3366.3" x2="2463.1" y2="3281.3"/>
	<polyline id="XMLID_51_" class="st1" points="2378.3,3366.3 2378.3,3338 2406.1,3338 2406.1,3366.3 	"/>
	<polyline id="XMLID_76_" class="st1" points="1216.4,3451.3 1216.4,3423 1243.9,3423 1243.9,3451.3 	"/>
	<line id="XMLID_71_" class="st1" x1="1159.2" y1="3366.3" x2="1159.2" y2="3451.3"/>
	<polyline id="XMLID_70_" class="st1" points="1243.9,3366.3 1243.9,3394.7 1216.1,3394.7 1216.1,3366.3 	"/>
	<polyline id="XMLID_50_" class="st1" points="2406.1,3366.3 2406.1,3394.7 2378.3,3394.7 2378.3,3366.3 	"/>
	<line id="XMLID_49_" class="st1" x1="2463.1" y1="3451.3" x2="2463.1" y2="3366.3"/>
	<polyline id="XMLID_48_" class="st1" points="2378.3,3451.3 2378.3,3423 2406.1,3423 2406.1,3451.3 	"/>
	<polyline id="XMLID_69_" class="st1" points="1216.4,3536.4 1216.4,3508 1243.9,3508 1243.9,3536.4 	"/>
	<line id="XMLID_42_" class="st1" x1="1159.2" y1="3451.3" x2="1159.2" y2="3536.4"/>
	<polyline id="XMLID_40_" class="st1" points="1243.9,3451.3 1243.9,3479.7 1216.1,3479.7 1216.1,3451.3 	"/>
	<polyline id="XMLID_47_" class="st1" points="2406.1,3451.3 2406.1,3479.7 2378.3,3479.7 2378.3,3451.3 	"/>
	<line id="XMLID_46_" class="st1" x1="2463.1" y1="3536.4" x2="2463.1" y2="3451.3"/>
	<polyline id="XMLID_45_" class="st1" points="2378.3,3536.4 2378.3,3508 2406.1,3508 2406.1,3536.4 	"/>
	<polyline id="XMLID_37_" class="st1" points="1216.4,3621.4 1216.4,3593.1 1243.9,3593.1 1243.9,3621.4 	"/>
	<line id="XMLID_32_" class="st1" x1="1159.2" y1="3536.4" x2="1159.2" y2="3621.4"/>
	<polyline id="XMLID_29_" class="st1" points="1243.9,3536.4 1243.9,3564.7 1216.1,3564.7 1216.1,3536.4 	"/>
	<polyline id="XMLID_10_" class="st1" points="2406.1,3536.4 2406.1,3564.7 2378.3,3564.7 2378.3,3536.4 	"/>
	<line id="XMLID_9_" class="st1" x1="2463.1" y1="3621.4" x2="2463.1" y2="3536.4"/>
	<polyline id="XMLID_8_" class="st1" points="2378.3,3621.4 2378.3,3593.1 2406.1,3593.1 2406.1,3621.4 	"/>
	<polyline id="XMLID_27_" class="st1" points="1216.4,3706.5 1216.4,3678.1 1243.9,3678.1 1243.9,3706.5 	"/>
	<line id="XMLID_21_" class="st1" x1="1159.2" y1="3621.4" x2="1159.2" y2="3706.5"/>
	<polyline id="XMLID_18_" class="st1" points="1243.9,3621.4 1243.9,3649.8 1216.1,3649.8 1216.1,3621.4 	"/>
	<polyline id="XMLID_7_" class="st1" points="2406.1,3621.4 2406.1,3649.8 2378.3,3649.8 2378.3,3621.4 	"/>
	<line id="XMLID_6_" class="st1" x1="2463.1" y1="3766.5" x2="2463.1" y2="3621.4"/>
	<polyline id="XMLID_5_" class="st1" points="2378.3,3706.5 2378.3,3678.1 2406.1,3678.1 2406.1,3706.5 	"/>
	<polyline id="XMLID_4_" class="st1" points="2406.1,3706.5 2406.1,3734.8 2378.3,3734.8 2378.3,3706.5 	"/>
	<rect id="XMLID_44_" x="2378.3" y="3763.2" class="st1" width="27.8" height="28.3"/>
	<path id="XMLID_41_" class="st1" d="M2463.1,3763.2"/>
	<path id="XMLID_36_" class="st1" d="M1159.2,3706.5"/>
	<polyline id="XMLID_14_" class="st1" points="1243.9,3706.5 1243.9,3734.8 1216.1,3734.8 1216.1,3706.5 	"/>
	<polygon id="XMLID_111_" class="st1" points="185.1,1290 214,1290 214,1261.6 241.5,1261.6 241.5,1290 1375.9,1290 1375.9,1261.6 
		1403.7,1261.6 1403.7,1290 1432.3,1290 1460.7,1290 1460.7,1204.9 1432.3,1204.9 1403.7,1204.9 1403.7,1233.3 1375.9,1233.3 
		1375.9,1204.9 241.5,1204.9 241.5,1233.3 213.7,1233.3 213.7,1204.9 185.1,1204.9 156.7,1204.9 156.7,1290 	"/>
	<polygon id="XMLID_110_" class="st1" points="185.1,1379.4 214,1379.4 214,1351 241.5,1351 241.5,1379.4 1375.9,1379.4 
		1375.9,1351 1403.7,1351 1403.7,1379.4 1432.3,1379.4 1460.7,1379.4 1460.7,1294.3 1432.3,1294.3 1403.7,1294.3 1403.7,1322.7 
		1375.9,1322.7 1375.9,1294.3 241.5,1294.3 241.5,1322.7 213.7,1322.7 213.7,1294.3 185.1,1294.3 156.7,1294.3 156.7,1379.4 	"/>
	<polygon id="XMLID_86_" class="st1" points="185.1,1470.4 214,1470.4 214,1442.1 241.5,1442.1 241.5,1470.4 1375.9,1470.4 
		1375.9,1442.1 1403.7,1442.1 1403.7,1470.4 1432.3,1470.4 1460.7,1470.4 1460.7,1385.4 1432.3,1385.4 1403.7,1385.4 1403.7,1413.7 
		1375.9,1413.7 1375.9,1385.4 241.5,1385.4 241.5,1413.7 213.7,1413.7 213.7,1385.4 185.1,1385.4 156.7,1385.4 156.7,1470.4 	"/>
	<polygon id="XMLID_85_" class="st1" points="185.1,1561.1 214,1561.1 214,1532.7 241.5,1532.7 241.5,1561.1 1375.9,1561.1 
		1375.9,1532.7 1403.7,1532.7 1403.7,1561.1 1432.3,1561.1 1460.7,1561.1 1460.7,1476 1432.3,1476 1403.7,1476 1403.7,1504.4 
		1375.9,1504.4 1375.9,1476 241.5,1476 241.5,1504.4 213.7,1504.4 213.7,1476 185.1,1476 156.7,1476 156.7,1561.1 	"/>
	<g id="XMLID_81_">
		<path id="XMLID_84_" class="st1" d="M156.7,1608.6c0,23.5,19,42.5,42.5,42.5l14.5,0v-28.3h27.8v28.3h1134.4v-28.3h27.8v28.3
			l14.5,0c23.5,0,42.5-19,42.5-42.5v-42.5h-28.3h-28.6v28.3h-27.8v-28.3H241.5v28.3h-27.8v-28.3h-28.6h-28.3V1608.6"/>
		<line id="XMLID_82_" class="st1" x1="156.7" y1="1608.6" x2="156.7" y2="1608.6"/>
	</g>
	<g id="XMLID_161_">
		<path id="XMLID_163_" class="st1" d="M1934.7,1608c0,23.5,19,42.5,42.5,42.5l14.5,0v-28.3h27.8v28.3h1134.4v-28.3h27.8v28.3
			l14.5,0c23.5,0,42.5-19,42.5-42.5v-42.5h-28.3h-28.6v28.3h-27.8v-28.3H2019.4v28.3h-27.8v-28.3H1963h-28.3V1608"/>
		<line id="XMLID_162_" class="st1" x1="1934.7" y1="1608" x2="1934.7" y2="1608"/>
	</g>
	<g id="XMLID_26_">
		<line id="XMLID_2_" class="st1" x1="2463.1" y1="2856.1" x2="2463.1" y2="2841.9"/>
		<polyline id="XMLID_1_" class="st1" points="2378.3,2856.1 2378.3,2827.7 2406.1,2827.7 2406.1,2856.1 		"/>
		<polyline id="XMLID_13_" class="st1" points="1216.1,2856.1 1216.1,2827.7 1243.9,2827.7 1243.9,2856.1 		"/>
		<path id="XMLID_11_" class="st1" d="M1159.2,2856.1v-14.2c0-23.5,19-42.5,42.5-42.5l14.5,0l1129.2,0"/>
		<path id="XMLID_3_" class="st1" d="M2345.3,2799.4l13-130h62.3c23.5,0,42.5,19,42.5,42.5v130v0"/>
	</g>
	<g id="XMLID_33_">
		<path id="XMLID_38_" class="st1" d="M3228.7,705.4c0-23.5-19-42.5-42.5-42.5l-14.5,0v28.3h-27.8v-28.3H2009.5v28.3h-27.8v-28.3
			l-14.5,0c-23.5,0-42.5,19-42.5,42.5v42.5h28.3h28.6v-28.3h27.8v28.3h1134.4v-28.3h27.8v28.3h28.6h28.3V705.4"/>
		<line id="XMLID_34_" class="st1" x1="3228.7" y1="705.4" x2="3228.7" y2="705.4"/>
	</g>
	<polygon id="XMLID_35_" class="st1" points="1953.1,836 1982,836 1982,807.6 2009.5,807.6 2009.5,836 3143.9,836 3143.9,807.6 
		3171.7,807.6 3171.7,836 3200.3,836 3228.7,836 3228.7,750.9 3200.3,750.9 3171.7,750.9 3171.7,779.3 3143.9,779.3 3143.9,750.9 
		2009.5,750.9 2009.5,779.3 1981.7,779.3 1981.7,750.9 1953.1,750.9 1924.7,750.9 1924.7,836 	"/>
	<g id="XMLID_24_">
		<path id="XMLID_25_" class="st1" d="M65.7,506.9C34.4,506.9,9,532.3,9,563.6v0.3h601.9v27.8H9v1134.4h601.9v27.8H9
			c0,31.6,25.4,57,56.7,57l1147,0v-141.7H221.6c-39,0-70.9-31.9-70.9-70.9V719.5c0-39,31.9-70.9,70.9-70.9h991.1V506.9L65.7,506.9z"
			/>
	</g>
	<polygon id="XMLID_43_" class="st1" points="2204.9,1812.5 2204.9,1812.5 2204.9,1812.5 	"/>
	<path id="XMLID_31_" class="st1" d="M2204.9,508.6h1132.5c32.1,0,58.1,25.4,58.1,56.9h-355.8v27.8h355.8l0.1,1134.5h-355.8
		l-0.1,27.8h355.8c0,31.6-26,57-58.1,57l-1132.5,0h0c-23.5,0-42.5-19-42.5-42.5v0v-14.4h287.1v-27.8h-287.1v-57h1015.3
		c39.9,0,72.6-31.9,72.6-70.9V721.2c0-39-32.7-70.9-72.6-70.9H2162.4v-57h287.1v-27.8h-287.1v-14.5
		C2162.4,527.6,2181.4,508.6,2204.9,508.6"/>
	<path id="XMLID_578_" class="st1" d="M602.4,1916l-2.4,27.7l-307.6-26.9v114.5l607.8,0.2l0-28.3H928v28.3h57.3v-28.3h27.8l0,28.3
		h57.2l0-28.3l27.8,0l0,28.3h57.3v-28.3h28.1v28.3h57v-28.3h27.8v28.3l57.3,0v-28.3h27.8v28.3l28.6,0c38.9,0,70.7-31.8,70.9-70.7
		v-71.4c-0.1-37.5-29.8-68.4-66.9-70.5l-1093.4-0.2v70.2L602.4,1916z"/>
	<path id="XMLID_160_" class="st1" d="M2800.9,1916l2.4,27.7l307.6-26.9v114.5l-607.8,0.2v-28.3h-27.8v28.3h-57.3v-28.3h-27.8v28.3
		h-57.2v-28.3l-27.8,0v28.3H2248v-28.3H2220v28.3h-57v-28.3h-27.8v28.3l-57.3,0v-28.3h-27.8v28.3l-28.6,0
		c-38.9,0-70.7-31.8-70.9-70.7v-71.4c0.1-37.5,29.8-68.4,66.9-70.5l1093.4-0.2v70.2L2800.9,1916z"/>
	<path id="XMLID_23_" class="st1" d="M1681.9,2178.8v-42.9h-27.3v-27.8h27.3v-57.2h-27.3v-27.8h27.3v-57.3h-27.3v-27.8h27.3v-57.3
		h-27.3l0-27.8h27.3v-57.3h-27.3V1768h27.3v-42.9l0-14.3h-27.3l0-27.8h27.3v-57.3h-27.3V1598h27.3v-57.3h-27.3v-27.8h27.3v-57.3
		h-27.3v-27.8h27.3v-57.3h-27.3v-27.8h27.3v-57.3h-27.3v-27.8h27.3v-57.3h-27.3v-27.8h27.3v-29.2l-97.9,8.5l-10-114.1h-280.9v-27.8
		h278.4l-6.1-69.9l-97.6,8.3c-0.4,0-0.9,0.1-1.3,0.1l-9.6,0.2c-2.7-0.1-5.4-0.4-8-0.8l-1042.9-103l0.1,212.3l1005.1,103.6
		c32.2,6.6,56.7,35.3,56.7,69.4l0.1,735.7c0,39-31.9,70.9-70.9,70.9H406.2v92.4H1008v27.8H406.2v92.4h1204.9
		C1650,2249.6,1681.9,2217.8,1681.9,2178.8z"/>
	<path id="XMLID_106_" class="st1" d="M1711,2178.8v-4.3v-38.6h28.3v-27.8H1711v-57.2h28.3v-27.8H1711v-57.3h28.3v-27.8H1711v-57.3
		h28.3l0-27.8H1711v-57.3h28.3V1768H1711l0-57.3h28.3l0-27.8H1711v-57.3h28.3V1598H1711v-57.3h28.3v-27.8H1711v-57.3h28.3v-27.8
		H1711v-57.3h28.3v-27.8H1711v-57.3h28.3v-27.8H1711v-57.3h28.3v-27.8H1711v-29.2v0l97.9,8.5l10-114.1h280.9v-27.8h-278.4l6.1-69.9
		l97.6,8.3c0.4,0,0.9,0.1,1.3,0.1l9.6,0.2c2.7-0.1,5.4-0.4,8-0.8l1042.9-103l-0.1,212.3l-1005.1,103.6
		c-32.2,6.6-56.7,35.3-56.7,69.4l-0.1,735.7c0,39,31.9,70.9,70.9,70.9h991.1v92.4h-601.9v27.8h601.9v92.4H1781.9
		C1742.9,2249.6,1711,2217.8,1711,2178.8z"/>
	<polygon id="XMLID_75_" class="st1" points="1963,1287.3 1992,1287.3 1992,1259 2019.4,1259 2019.4,1287.3 3153.9,1287.3 
		3153.9,1259 3181.6,1259 3181.6,1287.3 3210.3,1287.3 3238.6,1287.3 3238.6,1202.3 3210.3,1202.3 3181.6,1202.3 3181.6,1230.6 
		3153.9,1230.6 3153.9,1202.3 2019.4,1202.3 2019.4,1230.6 1991.7,1230.6 1991.7,1202.3 1963,1202.3 1934.7,1202.3 1934.7,1287.3 	
		"/>
	<polygon id="XMLID_74_" class="st1" points="1963,1377.4 1992,1377.4 1992,1349 2019.4,1349 2019.4,1377.4 3153.9,1377.4 
		3153.9,1349 3181.6,1349 3181.6,1377.4 3210.3,1377.4 3238.6,1377.4 3238.6,1292.3 3210.3,1292.3 3181.6,1292.3 3181.6,1320.7 
		3153.9,1320.7 3153.9,1292.3 2019.4,1292.3 2019.4,1320.7 1991.7,1320.7 1991.7,1292.3 1963,1292.3 1934.7,1292.3 1934.7,1377.4 	
		"/>
	<polygon id="XMLID_73_" class="st1" points="1963,1467.4 1992,1467.4 1992,1439.1 2019.4,1439.1 2019.4,1467.4 3153.9,1467.4 
		3153.9,1439.1 3181.6,1439.1 3181.6,1467.4 3210.3,1467.4 3238.6,1467.4 3238.6,1382.4 3210.3,1382.4 3181.6,1382.4 3181.6,1410.7 
		3153.9,1410.7 3153.9,1382.4 2019.4,1382.4 2019.4,1410.7 1991.7,1410.7 1991.7,1382.4 1963,1382.4 1934.7,1382.4 1934.7,1467.4 	
		"/>
	<polygon id="XMLID_72_" class="st1" points="1963,1558.4 1992,1558.4 1992,1530.1 2019.4,1530.1 2019.4,1558.4 3153.9,1558.4 
		3153.9,1530.1 3181.6,1530.1 3181.6,1558.4 3210.3,1558.4 3238.6,1558.4 3238.6,1473.4 3210.3,1473.4 3181.6,1473.4 3181.6,1501.8 
		3153.9,1501.8 3153.9,1473.4 2019.4,1473.4 2019.4,1501.8 1991.7,1501.8 1991.7,1473.4 1963,1473.4 1934.7,1473.4 1934.7,1558.4 	
		"/>
	<g id="XMLID_12_">
		<line id="XMLID_30_" class="st1" x1="1159.2" y1="3706.5" x2="1159.2" y2="3720.6"/>
		<path id="XMLID_20_" class="st1" d="M2463.1,3766.5v14.2c0,23.5-19,42.5-42.5,42.5l-14.5,0l-72.4,0l-20.3-60l-1097.4,0"/>
		<path id="XMLID_17_" class="st1" d="M1159.2,3720.6c0,23.5,19,42.5,42.5,42.5l14.5,0v0"/>
		<line id="XMLID_15_" class="st1" x1="1159.2" y1="3720.6" x2="1159.2" y2="3720.6"/>
	</g>
	<polygon id="XMLID_22_" class="st1" points="286.9,3692.5 754.7,3692.5 782.1,3692.5 782.1,3635.4 754.7,3635.4 754.7,3607.6 
		782.1,3607.6 782.1,3550.3 754.7,3550.3 754.7,3522.5 782.1,3522.5 782.1,3465.3 754.7,3465.3 754.7,3437.5 782.1,3437.5 
		782.1,3380.2 754.7,3380.2 754.7,3352.5 782.1,3352.5 782.1,3309.5 782.1,3295.2 754.7,3295.2 754.7,3267.4 782.1,3267.4 
		782.1,3210.2 754.7,3210.2 754.7,3182.4 782.1,3182.4 782.1,3125.1 754.7,3125.1 754.7,3097.3 782.1,3097.3 782.1,3040.1 
		754.7,3040.1 754.7,3012.3 782.1,3012.3 782.1,2955 754.7,2955 754.7,2927.3 782.1,2927.3 782.1,2870 754.7,2870 754.7,2842.2 
		782.1,2842.2 782.1,2785 286.9,2785 	"/>
	<path id="XMLID_16_" class="st1" d="M3340.1,3783.3l-797.9,8.5v-29.2h27.3v-27.8h-27.3v-57.3h27.3v-27.8h-27.3v-57.3h27.3v-27.8
		h-27.3v-57.3h27.3v-27.8h-27.3v-57.3h27.3v-27.8h-27.3v-57.3h27.3v-27.8h-27.3v-57.3h27.3l0-27.8h-27.3l0-14.3v-42.9h27.3v-27.8
		h-27.3v-57.3h27.3v-27.8h-27.3v-57.3h27.3v-27.8h-27.3v-57.3h27.3v-27.8h-27.3v-57.2h27.3v-27.8h-27.3v-42.9
		c0-39,31.9-70.9,70.9-70.9h727V3783.3z"/>
</g>
<g id="Grabado">
</g>
<g id="divisor">
	<line id="XMLID_179_" class="st2" x1="1700.8" y1="2267.7" x2="1700.8" y2="0"/>
</g>
</svg>
