<?xml version="1.0" encoding="utf-8"?>
<!-- Generator: Adobe Illustrator 24.2.3, SVG Export Plug-In . SVG Version: 6.00 Build 0)  -->
<svg version="1.1"
	 id="svg4" xmlns:cc="http://creativecommons.org/ns#" xmlns:dc="http://purl.org/dc/elements/1.1/" xmlns:rdf="http://www.w3.org/1999/02/22-rdf-syntax-ns#" xmlns:svg="http://www.w3.org/2000/svg"
	 xmlns="http://www.w3.org/2000/svg" xmlns:xlink="http://www.w3.org/1999/xlink" x="0px" y="0px" viewBox="0 0 595.3 841.9"
	 style="enable-background:new 0 0 595.3 841.9;" xml:space="preserve">
<style type="text/css">
	.st0{fill:none;stroke:#1B1918;stroke-width:0.5669;}
</style>
<path id="path2" class="st0" d="M-430.4-451.4h892.9v170.1h0v85h-17v85h17v85H334.9v-17H207.4v17H79.8v-17H-47.8v17h-127.6v-17
	h-127.6v17h-127.6v-85h17v-85h-17v-85L-430.4-451.4z M462.5,801.5v56.7h-892.9v-56.7 M-53.3,1160.8v56.7h-243.8v-56.7v-85h-17v-85
	h17v-68h100.9v-17h85v17h57.8l0,68h17v85h-17L-53.3,1160.8L-53.3,1160.8z M292.3,1165.6v56.7H48.5v-56.7v-85h-17v-85h17v-68h100.9
	v-17h85v17h57.8l0,68h17v85h-17L292.3,1165.6z M-1150.7,250.8c-5.1,0-9.2,4.1-9.2,9.2c0,5.1,4.1,9.2,9.2,9.2c5.1,0,9.2-4.1,9.2-9.2
	C-1141.5,255-1145.6,250.8-1150.7,250.8L-1150.7,250.8z M-1159.9,260.1L-1159.9,260.1 M-1150.7,269.3L-1150.7,269.3L-1150.7,269.3z
	 M-1150.7,250.8c-5.1,0-9.2,4.1-9.2,9.2c0,5.1,4.1,9.2,9.2,9.2c5.1,0,9.2-4.1,9.2-9.2C-1141.5,255-1145.6,250.8-1150.7,250.8z
	 M-1150.7,250.8c-5.1,0-9.2,4.1-9.2,9.2c0,5.1,4.1,9.2,9.2,9.2c5.1,0,9.2-4.1,9.2-9.2C-1141.5,255-1145.6,250.8-1150.7,250.8z
	 M-1150.7,250.8c-5.1,0-9.2,4.1-9.2,9.2c0,5.1,4.1,9.2,9.2,9.2c5.1,0,9.2-4.1,9.2-9.2C-1141.5,255-1145.6,250.8-1150.7,250.8z
	 M-1150.7,250.8c-5.1,0-9.2,4.1-9.2,9.2c0,5.1,4.1,9.2,9.2,9.2c5.1,0,9.2-4.1,9.2-9.2C-1141.5,255-1145.6,250.8-1150.7,250.8z
	 M-1150.7,250.8c-5.1,0-9.2,4.1-9.2,9.2c0,5.1,4.1,9.2,9.2,9.2c5.1,0,9.2-4.1,9.2-9.2C-1141.5,255-1145.6,250.8-1150.7,250.8z
	 M-1150.7,250.8c-5.1,0-9.2,4.1-9.2,9.2c0,5.1,4.1,9.2,9.2,9.2c5.1,0,9.2-4.1,9.2-9.2C-1141.5,255-1145.6,250.8-1150.7,250.8z
	 M-1150.7,250.8c-5.1,0-9.2,4.1-9.2,9.2c0,5.1,4.1,9.2,9.2,9.2c5.1,0,9.2-4.1,9.2-9.2C-1141.5,255-1145.6,250.8-1150.7,250.8z
	 M-1150.7,250.8c-5.1,0-9.2,4.1-9.2,9.2c0,5.1,4.1,9.2,9.2,9.2c5.1,0,9.2-4.1,9.2-9.2C-1141.5,255-1145.6,250.8-1150.7,250.8z
	 M-1150.7,250.8c-5.1,0-9.2,4.1-9.2,9.2c0,5.1,4.1,9.2,9.2,9.2c5.1,0,9.2-4.1,9.2-9.2C-1141.5,255-1145.6,250.8-1150.7,250.8z
	 M-1150.7,250.8c-5.1,0-9.2,4.1-9.2,9.2c0,5.1,4.1,9.2,9.2,9.2c5.1,0,9.2-4.1,9.2-9.2C-1141.5,255-1145.6,250.8-1150.7,250.8z
	 M-1150.7,250.8c-5.1,0-9.2,4.1-9.2,9.2c0,5.1,4.1,9.2,9.2,9.2c5.1,0,9.2-4.1,9.2-9.2C-1141.5,255-1145.6,250.8-1150.7,250.8z
	 M-1150.7,250.8c-5.1,0-9.2,4.1-9.2,9.2c0,5.1,4.1,9.2,9.2,9.2c5.1,0,9.2-4.1,9.2-9.2C-1141.5,255-1145.6,250.8-1150.7,250.8z
	 M-1150.7,250.8c-5.1,0-9.2,4.1-9.2,9.2c0,5.1,4.1,9.2,9.2,9.2c5.1,0,9.2-4.1,9.2-9.2C-1141.5,255-1145.6,250.8-1150.7,250.8z
	 M-1150.7,250.8c-5.1,0-9.2,4.1-9.2,9.2c0,5.1,4.1,9.2,9.2,9.2c5.1,0,9.2-4.1,9.2-9.2C-1141.5,255-1145.6,250.8-1150.7,250.8z
	 M-1150.7,250.8c-5.1,0-9.2,4.1-9.2,9.2c0,5.1,4.1,9.2,9.2,9.2c5.1,0,9.2-4.1,9.2-9.2C-1141.5,255-1145.6,250.8-1150.7,250.8z
	 M-1150.7,250.8c-5.1,0-9.2,4.1-9.2,9.2c0,5.1,4.1,9.2,9.2,9.2c5.1,0,9.2-4.1,9.2-9.2C-1141.5,255-1145.6,250.8-1150.7,250.8z
	 M-1150.7,250.8c-5.1,0-9.2,4.1-9.2,9.2c0,5.1,4.1,9.2,9.2,9.2c5.1,0,9.2-4.1,9.2-9.2C-1141.5,255-1145.6,250.8-1150.7,250.8z
	 M-1150.7,250.8c-5.1,0-9.2,4.1-9.2,9.2c0,5.1,4.1,9.2,9.2,9.2c5.1,0,9.2-4.1,9.2-9.2C-1141.5,255-1145.6,250.8-1150.7,250.8z
	 M-1150.7,250.8c-5.1,0-9.2,4.1-9.2,9.2c0,5.1,4.1,9.2,9.2,9.2c5.1,0,9.2-4.1,9.2-9.2C-1141.5,255-1145.6,250.8-1150.7,250.8z
	 M-1150.7,250.8c-5.1,0-9.2,4.1-9.2,9.2c0,5.1,4.1,9.2,9.2,9.2c5.1,0,9.2-4.1,9.2-9.2C-1141.5,255-1145.6,250.8-1150.7,250.8z
	 M1176,250.8c-5.1,0-9.2,4.1-9.2,9.2c0,5.1,4.1,9.2,9.2,9.2c5.1,0,9.2-4.1,9.2-9.2C1185.2,255,1181.1,250.8,1176,250.8L1176,250.8z
	 M1166.8,260.1L1166.8,260.1 M1176,269.3L1176,269.3L1176,269.3z M1176,250.8c-5.1,0-9.2,4.1-9.2,9.2c0,5.1,4.1,9.2,9.2,9.2
	c5.1,0,9.2-4.1,9.2-9.2C1185.2,255,1181.1,250.8,1176,250.8z M1176,250.8c-5.1,0-9.2,4.1-9.2,9.2c0,5.1,4.1,9.2,9.2,9.2
	c5.1,0,9.2-4.1,9.2-9.2C1185.2,255,1181.1,250.8,1176,250.8z M1176,250.8c-5.1,0-9.2,4.1-9.2,9.2c0,5.1,4.1,9.2,9.2,9.2
	c5.1,0,9.2-4.1,9.2-9.2C1185.2,255,1181.1,250.8,1176,250.8z M1176,250.8c-5.1,0-9.2,4.1-9.2,9.2c0,5.1,4.1,9.2,9.2,9.2
	c5.1,0,9.2-4.1,9.2-9.2C1185.2,255,1181.1,250.8,1176,250.8z M1176,250.8c-5.1,0-9.2,4.1-9.2,9.2c0,5.1,4.1,9.2,9.2,9.2
	c5.1,0,9.2-4.1,9.2-9.2C1185.2,255,1181.1,250.8,1176,250.8z M1176,250.8c-5.1,0-9.2,4.1-9.2,9.2c0,5.1,4.1,9.2,9.2,9.2
	c5.1,0,9.2-4.1,9.2-9.2C1185.2,255,1181.1,250.8,1176,250.8z M1176,250.8c-5.1,0-9.2,4.1-9.2,9.2c0,5.1,4.1,9.2,9.2,9.2
	c5.1,0,9.2-4.1,9.2-9.2C1185.2,255,1181.1,250.8,1176,250.8z M1176,250.8c-5.1,0-9.2,4.1-9.2,9.2c0,5.1,4.1,9.2,9.2,9.2
	c5.1,0,9.2-4.1,9.2-9.2C1185.2,255,1181.1,250.8,1176,250.8z M1176,250.8c-5.1,0-9.2,4.1-9.2,9.2c0,5.1,4.1,9.2,9.2,9.2
	c5.1,0,9.2-4.1,9.2-9.2C1185.2,255,1181.1,250.8,1176,250.8z M1176,250.8c-5.1,0-9.2,4.1-9.2,9.2c0,5.1,4.1,9.2,9.2,9.2
	c5.1,0,9.2-4.1,9.2-9.2C1185.2,255,1181.1,250.8,1176,250.8z M1176,250.8c-5.1,0-9.2,4.1-9.2,9.2c0,5.1,4.1,9.2,9.2,9.2
	c5.1,0,9.2-4.1,9.2-9.2C1185.2,255,1181.1,250.8,1176,250.8z M1176,250.8c-5.1,0-9.2,4.1-9.2,9.2c0,5.1,4.1,9.2,9.2,9.2
	c5.1,0,9.2-4.1,9.2-9.2C1185.2,255,1181.1,250.8,1176,250.8z M1176,250.8c-5.1,0-9.2,4.1-9.2,9.2c0,5.1,4.1,9.2,9.2,9.2
	c5.1,0,9.2-4.1,9.2-9.2C1185.2,255,1181.1,250.8,1176,250.8z M1176,250.8c-5.1,0-9.2,4.1-9.2,9.2c0,5.1,4.1,9.2,9.2,9.2
	c5.1,0,9.2-4.1,9.2-9.2C1185.2,255,1181.1,250.8,1176,250.8z M1176,250.8c-5.1,0-9.2,4.1-9.2,9.2c0,5.1,4.1,9.2,9.2,9.2
	c5.1,0,9.2-4.1,9.2-9.2C1185.2,255,1181.1,250.8,1176,250.8z M1176,250.8c-5.1,0-9.2,4.1-9.2,9.2c0,5.1,4.1,9.2,9.2,9.2
	c5.1,0,9.2-4.1,9.2-9.2C1185.2,255,1181.1,250.8,1176,250.8z M1176,250.8c-5.1,0-9.2,4.1-9.2,9.2c0,5.1,4.1,9.2,9.2,9.2
	c5.1,0,9.2-4.1,9.2-9.2C1185.2,255,1181.1,250.8,1176,250.8z M1176,250.8c-5.1,0-9.2,4.1-9.2,9.2c0,5.1,4.1,9.2,9.2,9.2
	c5.1,0,9.2-4.1,9.2-9.2C1185.2,255,1181.1,250.8,1176,250.8z M1176,250.8c-5.1,0-9.2,4.1-9.2,9.2c0,5.1,4.1,9.2,9.2,9.2
	c5.1,0,9.2-4.1,9.2-9.2C1185.2,255,1181.1,250.8,1176,250.8z M1176,250.8c-5.1,0-9.2,4.1-9.2,9.2c0,5.1,4.1,9.2,9.2,9.2
	c5.1,0,9.2-4.1,9.2-9.2C1185.2,255,1181.1,250.8,1176,250.8z M-413.4,512.3h110.6v17h127.6v-17h127.6v17H79.8v-17h127.6v17h127.6
	v-17h110.6V411.4h17V310.5h-17V209.6h17V108.7h-17V7.8H334.9v-17H207.4v17H79.8v-17H-47.8v17h-127.6v-17h-127.6v17h-110.6v100.9h-17
	v100.9h17v100.9h-17v100.9h17L-413.4,512.3L-413.4,512.3z M-175.3,268.6h127.6v-17h-127.6V268.6z M79.8,268.6h127.6v-17H79.8
	C79.8,251.5,79.8,268.6,79.8,268.6z M462.5,801.5v-85h-17v-85h17v-85H334.9v17H207.4v-17H79.8v17H-47.8v-17h-127.6v17h-127.6v-17
	h-127.6v85h17v85h-17v85 M-702.6,268.6h85v-17h-85V268.6z M-790.2,175h70.9v70.9h-70.9V175z M-889.4,274.2h70.9v70.9h-70.9V274.2z
	 M-790.2,274.2h70.9v70.9h-70.9V274.2z M-889.4,175h70.9v70.9h-70.9V175z M938.7,954.5v17h858.9v-17v-68v-85h17v-85h-17v-85v-68
	H1687h-127.6v-17h-127.6v17h-127.6v-17h-127.6v17h-127.6H938.7v68v85h-17v85h17v85L938.7,954.5L938.7,954.5z M-135.6,716.4h17v-85
	h-17V716.4L-135.6,716.4L-135.6,716.4z M150.7,716.4h17v-85h-17V716.4L150.7,716.4L150.7,716.4z M-135.6,411.4h17v-85h-17V411.4
	L-135.6,411.4z M150.7,411.4h17v-85h-17V411.4L150.7,411.4z M1216.5,716.4h17v-85h-17V716.4L1216.5,716.4L1216.5,716.4z
	 M1502.8,716.4h17v-85h-17V716.4L1502.8,716.4L1502.8,716.4z M-1207.7,237.3l335-229.5h255.1v-17h85v17h85v100.9h-17v100.9h17v100.9
	h-17v100.9h17v100.9h-85v17h-85v-17h-255.1l-332.2-227.6c-8.6-4.9-14.3-14.1-14.3-24.6C-1219.2,250.7-1214.6,242.4-1207.7,237.3
	L-1207.7,237.3z M727.8,268.6h-85v-17h85V268.6z M815.5,175h-70.9v70.9h70.9V175z M914.7,274.2h-70.9v70.9h70.9V274.2z M815.5,274.2
	h-70.9v70.9h70.9V274.2z M914.7,175h-70.9v70.9h70.9V175z M1232.9,237.3L897.9,7.8H642.8v-17h-85v17h-85v100.9h17v100.9h-17v100.9
	h17v100.9h-17v100.9h85v17h85v-17h255.1l332.2-227.6c8.6-4.9,14.3-14.1,14.3-24.6C1244.4,250.7,1239.9,242.4,1232.9,237.3
	L1232.9,237.3z"/>
</svg>
