<?xml version="1.0" encoding="utf-8"?>
<!-- Generator: Adobe Illustrator 24.2.1, SVG Export Plug-In . SVG Version: 6.00 Build 0)  -->
<svg version="1.1" id="_x30_" xmlns="http://www.w3.org/2000/svg" xmlns:xlink="http://www.w3.org/1999/xlink" x="0px" y="0px"
	 viewBox="0 0 841.9 595.3" style="enable-background:new 0 0 841.9 595.3;" xml:space="preserve">
<style type="text/css">
	.st0{fill:none;stroke:#000000;stroke-width:0.7087;stroke-linecap:round;stroke-linejoin:round;stroke-miterlimit:10;}
</style>
<g id="SPLINE">
	<path class="st0" d="M237.7,151.1c-1.2,1.3-1.7,3-2.4,4.7c-0.4,0.9-0.9,1.8-1.2,2.7"/>
</g>
<g id="SPLINE_1_">
	<path class="st0" d="M581.5,309.5c-0.5-0.6-1-1.1-1.3-1.7c-0.5-0.9-0.6-2-0.6-3.1c0.1-1,0.3-2,0.7-2.8c0.2-0.4,0.4-0.8,0.7-1.2
		c0.4-0.7,0.7-1.4,1.2-1.9c0.7-0.7,1.7-1,2.6-1.5c0.7-0.4,1.4-0.9,2.1-1.2c1.2-0.6,2.7-0.6,3.9-1.3c0.7-0.4,1.4-1,2.2-1.1
		c0.9-0.2,1.8,0.4,2.8,0.8c1.2,0.5,2.4,0.8,3.2,1.6c0.7,0.7,1.1,1.8,1.4,3c0.1,0.5,0.3,1.1,0.2,1.5c-0.1,0.8-0.9,1.5-1.2,2.2
		c-0.4,1.1,0.1,2.4,0.1,3.7c0,1.4-0.6,2.8-0.2,4c0.2,0.5,0.6,1,0.8,1.5s0.2,1.1,0.1,1.7c-0.2,1-0.5,2-1.2,2.7
		c-1,0.8-2.7,1.1-3.7,0.5c-0.8-0.4-1.3-1.3-1.9-2c-0.5-0.5-1.1-0.9-1.8-1.2c-0.9-0.5-2-0.8-3-1.1
		C586.2,311.5,583.9,310.5,581.5,309.5z"/>
</g>
<g id="LINE">
	<line class="st0" x1="291.2" y1="440.6" x2="269.1" y2="437.3"/>
</g>
<g id="LINE_1_">
	<line class="st0" x1="270.5" y1="428.3" x2="291.7" y2="431.5"/>
</g>
<g id="LINE_2_">
	<line class="st0" x1="242.6" y1="143.5" x2="268.6" y2="159.6"/>
</g>
<g id="LINE_3_">
	<line class="st0" x1="268.6" y1="159.6" x2="263.8" y2="167.3"/>
</g>
<g id="LINE_4_">
	<line class="st0" x1="263.8" y1="167.3" x2="237.7" y2="151.1"/>
</g>
<g id="LINE_5_">
	<line class="st0" x1="313.3" y1="145.5" x2="295" y2="134.1"/>
</g>
<g id="LINE_6_">
	<line class="st0" x1="295" y1="134.1" x2="290.2" y2="141.8"/>
</g>
<g id="LINE_7_">
	<line class="st0" x1="290.2" y1="141.8" x2="307.9" y2="152.9"/>
</g>
<g id="LINE_8_">
	<line class="st0" x1="269.1" y1="437.3" x2="270" y2="431.4"/>
</g>
<g id="SPLINE_2_">
	<path class="st0" d="M336.3,419.5c-0.9-0.9-1.8-1.7-2.6-2.7c-0.9-1-1.6-2.1-2.3-3.2c-0.5-0.9-1-1.8-1.4-2.7
		c-0.3-0.6-0.5-1.3-0.6-1.9c-0.3-1.2-0.3-2.5-0.6-3.7c-0.3-1.2-0.9-2.4-1.6-3.5c-0.5-0.8-1-1.6-1.6-2.3c-1.2-1.2-2.8-1.9-4.5-2.2
		c-1.5-0.2-3.1,0-4.3,0.7c-1,0.7-1.8,1.8-2.6,2.7c-0.7,0.9-1.6,1.6-2.3,2.5c-0.9,1-1.6,2.2-2.3,3.3c-0.7,1.1-1.3,2.1-1.9,3.2
		c-1.1,2.1-1.8,4.4-2.9,6.5c-0.4,0.7-0.8,1.4-0.9,2.3c-0.2,0.8-0.2,1.7,0.1,2.5c0.4,0.9,1.3,1.5,2.1,2.2c1,0.8,1.9,1.7,3,2.4
		c3,1.9,6.8,2.3,10.3,3.4c2,0.6,3.8,1.3,5.7,2.1c2,0.8,4,1.6,5.7,2.7c1.2,0.8,2.4,1.8,3.4,2.9c1.4,1.5,2.5,3.3,3.5,5.1
		c0.8,1.6,1.5,3.2,2.3,4.7c0.6,1.1,1.2,2.2,1.6,3.6c0.4,1.6,0.4,3.7,1.6,4.3"/>
</g>
<g id="LINE_9_">
	<line class="st0" x1="363.7" y1="458.4" x2="341.2" y2="464.2"/>
</g>
<g id="LINE_10_">
	<line class="st0" x1="361.4" y1="449.6" x2="343.2" y2="454.3"/>
</g>
<g id="SPLINE_3_">
	<path class="st0" d="M341.2,464.2c0,0.1,0,0.2,0.1,0.4c0.2,1.2,0.6,2.3,0.8,3.4c0.2,0.8,0.3,1.6,0.6,2.4c0.4,0.9,0.9,1.7,1.7,2.4
		c1.4,1.2,3.4,1.9,5.2,1.6c1.3-0.2,2.5-1,3.8-1.1c0.5,0,1,0,1.5,0c2.4,0,4.8-1.5,7-1c1,0.2,2,0.9,3,1.6c1.8,1.2,3.8,2.2,5.9,2.3
		c0.9,0,1.7-0.1,2.6-0.4c1.3-0.4,2.5-1,3.3-1.9c0.8-1,1.2-2.4,1.6-3.7c0.4-1.1,0.9-2.2,1.7-3.1c0.5-0.5,1.1-1,1.7-1.2
		c1.3-0.4,2.8,0.5,4.2,0.6c0.9,0.1,1.7-0.1,2.6-0.3c1-0.3,2-0.6,2.8-1.2c1.3-1.1,1.7-3.1,1.8-5c0.2-2.8-0.3-5.2-1.2-7.7
		c-0.6-1.6-1.3-3.2-1.5-4.9c-0.2-2,0.6-4,1.5-5.9c0.5-1,1.1-2,1.7-3c0.9-1.6,1.7-3.3,2.5-5.1c0.8-1.8,1.5-3.7,2.8-5
		c1.4-1.5,3.5-2.2,5.2-3.7c1.4-1.2,2.6-2.8,4.2-3c1.8-0.2,4,1.4,5.7,0.7c0.7-0.3,1.2-0.8,1.9-1.3c1-0.7,2.2-1,3.3-1.1
		c2.1-0.1,4,0.5,6.1,1s4.3,0.8,6.2,0.1c1.3-0.4,2.5-1.4,3.8-2.3c0.9-0.6,1.8-1.3,2.8-1.5c1.4-0.3,2.9,0.3,4.3,1
		c1.4,0.6,2.6,1.4,3.6,2.4c0.7,0.7,1.3,1.5,1.6,2.4c0.4,1.2,0.3,2.5,0.3,3.8c0,1.7,0,3.4,1,4.8c0.5,0.7,1.3,1.4,2.2,1.6
		c1,0.2,2.1-0.3,3.2,0.1c0.3,0.1,0.6,0.3,0.9,0.3c1,0.2,1.8-1.5,1.9-2.7c0.1-1-0.2-1.7-0.3-2.6c-0.1-0.8-0.1-1.6,0-2.4
		c0.1-1.3,0.2-2.7,0-4c-0.3-1.5-1-2.9-1.1-4.4c-0.1-1.2,0.1-2.5-0.2-3.6c-0.2-0.8-0.8-1.6-1.4-2.1c-0.5-0.4-1.2-0.6-1.8-0.9
		c-1-0.4-2-0.8-2.6-1.7c-0.3-0.4-0.5-0.8-0.8-1.2c-0.4-0.3-0.9-0.5-1.3-0.8c-0.3-0.3-0.5-0.8-0.8-1.2c-0.2-0.3-0.5-0.6-0.8-0.9
		c-0.7-0.5-1.7-0.5-2.6-0.4c-1,0.1-2,0.4-3,0.4c-1.1-0.1-2.1-0.6-3.2-0.9c-1-0.3-1.9-0.4-2.9-0.7c-1.2-0.3-2.3-0.8-3.5-0.9
		c-2-0.1-3.9,1-5.8,2.1c-0.9,0.5-1.7,0.9-2.5,1.3"/>
</g>
<g id="LINE_11_">
	<line class="st0" x1="363.7" y1="458.4" x2="361.4" y2="449.6"/>
</g>
<g id="LINE_12_">
	<line class="st0" x1="275.1" y1="206" x2="257.2" y2="194.9"/>
</g>
<g id="LINE_13_">
	<line class="st0" x1="252.4" y1="202.6" x2="271" y2="214.1"/>
</g>
<g id="LINE_14_">
	<line class="st0" x1="257.2" y1="194.9" x2="252.4" y2="202.6"/>
</g>
<g id="SPLINE_4_">
	<path class="st0" d="M275.1,206c0.1-0.3,0.3-0.6,0.4-0.9c0.4-0.8,0.7-1.4,0.9-2c0.3-1,0.2-2.2,0-3.3c-0.1-1.2-0.2-2.5-0.9-3.3
		c-0.5-0.5-1.1-0.9-1.7-1.4c-0.5-0.3-0.9-0.7-1.2-1.2c-0.7-0.8-1.4-1.7-1.8-2.8c-0.3-1-0.3-2.2,0-3.3c0.2-0.7,0.6-1.4,1.1-1.9
		c1.3-1.3,3.8-1.2,5.4-2.3c0.7-0.5,1.3-1.4,1.9-2s1.3-1.1,1.9-1.6c1.9-1.5,3.6-3.5,4.3-5.8c0.2-0.7,0.3-1.4,0.4-2.1
		c0.2-2.6-0.2-5.2,0.7-7.7c0.2-0.6,0.5-1.2,0.6-1.8c0.2-0.7,0.1-1.5,0.3-2.3c0.5-2.1,2.7-3.9,4.8-4.3c2.3-0.5,4.5,0.7,7,1.2
		c1.5,0.3,3,0.4,4.1-0.2c1-0.5,1.6-1.4,2.6-2.4c0.6-0.6,1.3-1.1,1.9-1.7"/>
</g>
<g id="SPLINE_5_">
	<path class="st0" d="M313.3,145.5c0.4-0.5,0.7-1,1-1.5c1-1.7,1.3-3.1,1.9-4.7c0.7-1.9,1.9-4.1,1.3-6c-0.3-0.8-0.8-1.5-1.5-2.1
		c-1-0.8-2.1-1.2-3.3-1.5c-2.1-0.5-4.4-0.3-6.5-0.6c-3.1-0.4-6-1.5-9-2.5c-1.4-0.4-2.8-0.8-4-1.6c-1.2-0.8-2.2-1.9-3.3-2.9
		c-1-0.9-2.2-1.6-3.2-2.4c-1.5-1.1-3-2.4-4.5-3.5c-1.1-0.8-2.2-1.5-3.4-1.9c-1.4-0.4-2.9-0.4-4.4-0.5c-1.2-0.1-2.5-0.2-3.7,0
		c-1.8,0.3-3.4,1.1-5,2.1c-0.9,0.6-1.9,1.2-2.5,2.1c-0.8,0.9-1.2,2.2-1.6,3.4c-0.5,1.6-0.8,3.2-0.7,4.9c0.1,1.4,0.5,3,0,4.2
		c-0.5,1.3-2.1,2.2-3.5,3.1c-1.1,0.7-2,1.4-3.2,1.7s-2.7,0-3.8,0.5c-1.3,0.5-2.2,1.7-3.3,2.7c-0.5,0.4-1,0.8-1.5,1.2
		c-0.9,0.9-1.3,2.2-2.3,3.2c-0.2,0.2-0.4,0.4-0.7,0.6"/>
</g>
<g id="LINE_16_">
	<line class="st0" x1="251.7" y1="449.7" x2="260.5" y2="452.2"/>
</g>
<g id="LINE_17_">
	<line class="st0" x1="248" y1="463.2" x2="248" y2="463.2"/>
</g>
<g id="LINE_18_">
	<line class="st0" x1="251.7" y1="449.7" x2="248" y2="463.2"/>
</g>
<g id="LINE_19_">
	<line class="st0" x1="260.5" y1="452.2" x2="256.8" y2="465.2"/>
</g>
<g id="SPLINE_6_">
	<path class="st0" d="M256.8,465.2c0.4,0.2,0.7,0.4,1.1,0.6c1.9,0.9,3.8,1.2,5.6,1.5c2,0.4,3.9,0.8,6.1,1.4c1.7,0.4,3.6,1,4.7,0.4
		c1.8-0.8,2-4,2.1-6.9c0.1-3,0-5.6,1.5-7.3c1.3-1.4,3.7-2.1,5.4-3.3c1.7-1.2,2.8-2.9,4.1-4.4c1.5-1.7,3.3-3.1,3.7-5.3
		c0.1-0.4,0.1-0.9,0.1-1.3"/>
</g>
<g id="LINE_20_">
	<line class="st0" x1="576.9" y1="457.7" x2="555.1" y2="460.2"/>
</g>
<g id="LINE_21_">
	<line class="st0" x1="555.1" y1="460.2" x2="556.2" y2="469.2"/>
</g>
<g id="LINE_22_">
	<line class="st0" x1="556.2" y1="469.2" x2="574.6" y2="467.1"/>
</g>
<g id="LINE_23_">
	<line class="st0" x1="304.9" y1="262.3" x2="284" y2="250.4"/>
</g>
<g id="LINE_24_">
	<line class="st0" x1="284" y1="250.4" x2="282.2" y2="253.5"/>
</g>
<g id="LINE_25_">
	<line class="st0" x1="279.5" y1="258.2" x2="302.4" y2="271.3"/>
</g>
<g id="SPLINE_7_">
	<path class="st0" d="M580.7,466.3c0.1,0.6,0.1,1.3,0.1,2c-0.1,2.1-0.8,3.8-1,5.6c-0.2,1.5,0,3-0.1,4.6c0,0.9-0.1,1.7-0.5,2.5
		c-0.6,1.4-2.1,2.4-3.5,2.8c-0.8,0.2-1.6,0.2-2.4,0.2c-1.6-0.1-3.1-0.4-4.6-0.9c-1.8-0.6-3.5-1.5-5.3-2.1c-2.1-0.7-4.3-1-6.3-1.7
		c-1.2-0.4-2.4-1.1-3.6-1.5c-2.1-0.8-4.4-1-6.7-1.3c-1.7-0.3-3.5-0.6-5.2-0.7c-1.2,0-2.5,0.1-3.7,0.1c-1.2,0.1-2.3,0.2-3.5,0.2
		c-2.5,0.2-5.4,0.4-7.2-1.1c-1-0.8-1.7-2-2.5-3s-1.7-1.9-2.8-2.5c-1-0.6-2.2-1-3.3-1.5c-1.2-0.4-2.4-0.9-3.5-1.4
		c-1.6-0.7-3.3-1.4-4.9-2.2c-0.8-0.4-1.6-0.7-2.4-1c-1.1-0.4-2.3-0.5-3.4-0.9c-1.5-0.5-2.8-1.5-4.4-1.7c-1.3-0.2-2.8,0.1-3.8,0.9
		c-1.1,1-1.4,2.7-2.4,3.7c-0.4,0.4-0.9,0.7-1.4,1c-0.9,0.6-1.8,1.4-2.8,1.6c-0.9,0.1-1.9-0.4-2.9-0.7c-0.7-0.2-1.5-0.3-2.2-0.4
		c-1.2-0.1-2.3-0.3-3.5-0.4s-2.3-0.1-3.5,0.2c-0.9,0.2-1.9,0.6-2.8,0.9c-1.6,0.6-3.3,1.2-4.4,2.4c-0.4,0.4-0.8,0.9-1.1,1.4
		c-0.9,1.2-1.8,2.4-2.9,3.2c-1.4,1-3.3,1.4-5.1,1.8c-1.2,0.3-2.4,0.6-3.6,0.5c-0.8,0-1.6-0.3-2.5-0.5c-0.8-0.2-1.6-0.3-2.3-0.1
		c-1.7,0.4-2.5,2.7-3.9,3.9c-1.4,1.1-3.5,1.3-5.3,1c-1.3-0.2-2.5-0.5-3.7-1c-1.2-0.4-2.4-0.9-3.6-1.1c-0.7-0.1-1.5-0.2-2.3-0.2
		c-1-0.1-2.1-0.2-2.8,0.5c-0.3,0.3-0.5,0.7-0.8,0.9c-0.7,0.6-1.9-0.4-3.2-0.6c-1-0.2-2.1,0.2-2.6-0.4c-0.2-0.2-0.2-0.6-0.3-1
		c-0.5-1.6-1.7-2.6-2.5-3.9s-1.1-2.8-1.4-4.3c-0.3-1.2-0.6-2.4-1-3.5c-0.5-1.5-1-2.9-1.6-4.3"/>
</g>
<g id="SPLINE_8_">
	<path class="st0" d="M417.6,462.4c3.1-1.8,6.2-3.7,8.5-2.2c0.5,0.3,1,0.8,1.5,1.2c1.2,0.9,2.6,1.4,4,1.7c0.4,0.1,0.7,0.1,1.1,0.2
		c2.3,0.2,4.7-0.1,6.9,0.2c1.5,0.2,3,0.7,4.5,1.2c0.7,0.2,1.3,0.5,2,0.6s1.5,0.1,2.2,0c0.5-0.1,1-0.3,1.4-0.5c1.5-1,1.6-3.3,2.7-4.8
		c0.7-1,1.9-1.6,3.1-1.9c0.7-0.2,1.4-0.3,2.1-0.4c1-0.1,2.1-0.2,3.2,0c0.5,0.1,0.9,0.2,1.4,0.3c2.9,0.5,6.8-1.9,9.4-3.8"/>
</g>
<g id="SPLINE_9_">
	<path class="st0" d="M304.9,262.3c0.1,0,0.1,0,0.2,0c1.4-0.3,2.7-0.9,3.8-1.7c2.3-1.6,3.9-4,5.6-6.2c1.8-2.4,3.6-4.7,5.8-6.6
		c1.4-1.3,3-2.4,4.7-3.2s3.6-1.2,5.5-1.5s3.8-0.6,5.5-0.3c1.7,0.2,3.2,0.9,4.9,1.6c1.6,0.7,3.3,1.4,4.9,0.9c0.7-0.2,1.4-0.7,1.9-1.3
		c0.6-0.7,0.8-1.6,1-2.6c0.1-0.7,0.2-1.4,0-2.1c-0.3-1-1.2-1.8-2.2-2.3c-1.6-0.9-3.3-1.2-5-1.2c-1.2,0-2.5,0.2-3.7,0.2
		c-3,0-6.1-1.3-9-1.2c-1.8,0.1-3.6,0.7-5.4,1c-1.7,0.4-3.3,0.6-4.9,1.1c-0.8,0.3-1.5,0.6-2.2,1.1c-2.2,1.5-4.3,4.4-6.6,4.1
		c-0.9-0.1-1.8-0.7-2.7-1.2c-1.5-0.8-3-1.6-3.6-3c-0.3-0.6-0.4-1.3-0.3-1.9c0.1-1.2,0.6-2.4,1.3-3.4c1.3-1.8,3.1-3.2,5.2-4.1
		c1.6-0.7,3.4-1.2,5-2c1.2-0.6,2.4-1.5,3.6-2.2c1.5-0.8,3.1-1.4,4.7-1.9c2.4-0.8,4.9-1.3,7.3-2.3c2.6-1,5-2.5,7.7-2.8
		c1.8-0.2,3.7,0.2,5.4-0.3c2-0.6,3.9-2.3,5.9-2.3c1.3,0,2.8,0.8,3.9,1.7c1.2,1,2.1,2.1,3.5,2.7c0.9,0.4,1.9,0.6,2.8,0.3
		c1-0.3,1.9-1.1,2.5-2c0.7-1,1.2-2.1,1.5-3.4c0.2-1,0.3-2.2,1.1-2.8c0.8-0.7,2.5-0.7,3.5-0.1c0.9,0.6,1.3,1.6,1.7,2.7
		c0.4,0.9,0.8,1.8,1.6,2.2c0.8,0.4,1.9,0.3,3,0.3c0.7,0,1.5,0.1,2.1-0.1c1.5-0.5,2.4-2.5,2.7-4.4c0.3-1.3,0.3-2.6,1.1-3.5
		c1-1.1,3.1-1.6,4.3-0.9c0.7,0.4,1.1,1.4,1.5,2.3c0.7,1.6,1.7,3.1,3.1,3.5c1.1,0.3,2.5,0,3.7-0.8c1-0.6,1.8-1.5,2-2.5
		c0.1-0.9-0.4-1.9-0.4-3c0-1.8,1.7-3.7,3.4-3.9c0.9-0.1,1.8,0.3,2.6,0.7c1.2,0.6,2.2,1.4,3.3,1.9c1,0.5,2.1,0.9,3.2,0.8
		c1.1,0,2.2-0.4,2.8-1.1c0.9-1,0.7-2.7,0.9-4.2c0.2-1.7,0.8-3,1.1-4.7c0.1-0.4,0.1-0.8,0.3-1.1c0.4-0.6,1.6-0.6,2.5-0.4
		c1.4,0.3,2.2,1.2,3.3,2c1.1,0.9,2.4,1.8,3.7,1.8c1.8-0.1,3.6-2.1,3.9-3.9c0.3-1.4-0.2-2.8-0.3-4.2c-0.1-1.5,0.2-3.1,1-4.3
		c0.4-0.6,1-1.2,1.7-1.5c0.8-0.4,1.7-0.5,2.6-0.4c0.8,0.1,1.4,0.3,2.3,0.4c1.6,0.3,3.9,0.6,4.4-0.4c0.4-0.7-0.1-2-0.2-3.1
		c-0.2-1.6,0.3-2.7,0-4.4c-0.2-1.2-0.8-2.7-0.2-3.2c0.4-0.3,1.4-0.1,2.3-0.1c1.8,0,3-0.7,4.5-1.1c0.9-0.3,1.8-0.5,2.5-1
		c1.1-0.8,1.6-2.5,1.4-4c-0.2-1.2-0.7-2.4-0.3-3.2c0.3-0.6,0.9-1,1.5-1.5c0.9-0.7,1.5-1.5,2.1-2.4c1.2-1.6,2.3-3.4,3.1-5.4
		c1.1-2.6,1.6-5.4,2.4-8c0.6-1.7,1.3-3.4,1.7-5.2c0.2-0.6,0.3-1.3,0.5-1.9c0.6-2.4,1.3-4.7,2.1-7.1c0.3-1,0.7-2,0.6-3
		c0-0.4-0.1-0.7-0.1-1.1c-0.1-1.4,0.5-3.1,0.1-4.3c-0.4-1.1-1.5-1.8-2.7-2.5"/>
</g>
<g id="SPLINE_10_">
	<path class="st0" d="M291.7,431.5c0.2-0.4,0.4-0.8,0.6-1.2c0.7-1.8,0.7-3.6,0.8-5.4c0.2-2.7,0.6-5.6-0.5-7.8c-1-1.8-3.1-3-5.1-4.2
		c-2.3-1.3-4.4-2.5-6.7-3.5c-2.3-1-4.8-1.7-7-3c-1.9-1.1-3.5-2.7-4.7-4.5c-1.4-2.2-1.9-4.9-2.4-7.5c-0.2-1.3-0.5-2.7-1-3.9
		c-1.1-2.8-3.7-4.8-5.2-7.6c-0.4-0.7-0.7-1.4-0.7-2.1c-0.2-2.2,1.9-4.4,2.1-6.7c0.1-0.8-0.1-1.6-0.3-2.4c-0.6-1.9-1.6-3.6-3.1-5.2
		c-0.5-0.5-1-1-1.2-1.4c-0.9-1.8,2.5-3.7,4.4-5.9c1.4-1.7,2-3.6,1.5-5.3c-0.4-1.4-1.5-2.5-2.1-4c-0.4-0.9-0.5-2-0.3-2.9
		c0.3-1.1,1.1-1.9,2.1-2.6c0.8-0.6,1.8-1,2.2-1.8c0.3-0.8,0.1-1.9-0.4-2.8c-0.9-1.8-2.7-2.7-3.3-4.4c-0.5-1.4-0.1-3.3,0.9-4.6
		c0.9-1.1,2.3-1.8,3.1-2.8c1-1.4,1-3.5,0.1-5.2c-0.2-0.5-0.5-0.9-0.8-1.4l-1.1-1.4"/>
</g>
<g id="SPLINE_11_">
	<path class="st0" d="M482.1,255.2c1.3-0.5,2.7-1.1,3.6-2c0.8-0.9,1.3-2.1,1.9-3.2c0.2-0.4,0.5-0.9,0.6-1.3c0.2-0.5,0.3-1.1,0.3-1.7
		c0.1-1,0-2.1-0.3-3.1c-0.4-1.1-1.1-2-1.9-3c-0.9-1.2-1.8-2.4-2.7-3.7c-1.6-2.3-3.3-4.7-5.5-6.3c-1.4-1-2.9-1.7-4.5-2.6
		c-1.6-0.9-3.1-1.9-4.8-2.2c-1.3-0.2-2.7,0-3.9,0.6c-1.7,0.8-2.9,2.5-3.8,4.2c-1.6,3-2.4,6.4-1.6,9.5c0.2,0.7,0.4,1.4,0.4,2.1
		c0,0.5-0.2,1.1-0.4,1.6c-0.6,1.4-1.7,2.4-2.7,3.5c-0.7,0.7-1.4,1.4-2,2.1c-1.4,1.5-2.7,3.1-3.9,4.8c-0.9,1.3-1.6,2.7-2.2,4.1
		s-1,2.9-1.3,4.4c-0.4,1.9-0.7,3.8-0.9,5.9c-0.1,1.1-0.2,2.3-0.7,3.2c-0.7,1.2-2,2-3.4,2.4c-2.2,0.5-4.4-0.3-6.8-0.6
		c-1.4-0.2-2.9-0.1-4,0.5c-0.9,0.5-1.6,1.5-2.5,2.3c-0.8,0.7-1.8,1.3-2.7,1.2c-1.3-0.1-2.2-1.5-3.1-2.8c-1.4-1.9-2.6-3.6-4.5-4.5
		c-0.9-0.4-1.9-0.7-2.9-0.6c-1.1,0.1-2,0.6-3.1,1.1c-1.3,0.7-2.8,1.5-3.8,1.1c-0.8-0.3-1.4-1.3-2-2.1c-0.8-1-1.6-1.7-2.5-2.3
		c-1.2-0.8-2.6-1.5-4.1-2c-1-0.4-2.1-0.7-3.2-0.5c-2.2,0.4-4.4,3.1-6.2,2.4c-0.6-0.2-1.2-0.9-1.8-1.4c-0.6-0.6-1.2-1.1-1.9-1.5
		c-1-0.7-2.1-1.3-3.2-1.3c-0.8,0-1.5,0.2-2.2,0.6c-1.7,0.9-3,2.5-3.8,4.2c-0.3,0.7-0.5,1.4-0.8,2c-1.1,2.5-3.2,4.6-5.4,6.3
		c-2.3,1.8-4.9,3.2-7.6,4.1c-0.7,0.2-1.4,0.4-2.1,0.7c-2.3,0.8-4.3,2.2-6.3,3.7c-0.6,0.5-1.2,0.9-1.8,1.1c-0.6,0.1-1.3,0-1.9,0.1
		c-0.5,0-1,0.2-1.5,0.2c-0.8,0.1-1.6,0-2.2,0.4c-0.3,0.2-0.5,0.6-0.7,1c-0.4,0.8-0.8,1.6-1.2,2.3c-0.3,0.5-0.6,1-1,1.5
		c-0.4,0.6-1,1.1-1.3,1.8c-0.4,0.7-0.6,1.4-0.6,2.2c0,0.8,0.1,1.6,0.3,2.3c0.3,1.3,0.7,2.6,0.9,3.9c0.5,2.7,0.4,5.4,1.2,8.3
		c0.4,1.3,0.9,2.6,1.9,3.1c0.1,0.1,1.1,0,1.2,0.1"/>
</g>
<g id="LINE_26_">
	<line class="st0" x1="439.6" y1="291.4" x2="438.5" y2="282.4"/>
</g>
<g id="LINE_27_">
	<line class="st0" x1="457.2" y1="289.3" x2="439.6" y2="291.4"/>
</g>
<g id="LINE_28_">
	<line class="st0" x1="438.5" y1="282.4" x2="453.8" y2="280.5"/>
</g>
<g id="SPLINE_12_">
	<path class="st0" d="M453.8,280.5c0-0.1,0-0.3,0-0.4c0.3-2.5,1.1-4.6,2.2-6.5c0.5-0.8,1-1.6,1.5-2.4c0.9-1.4,1.6-2.8,2.4-4.3
		c0.5-0.8,1-1.7,1.6-2.4c0.6-0.7,1.3-1.4,2-2c1.5-1.3,3-2.5,4.7-3.5c0.1,0,1-0.5,1-0.5"/>
</g>
<g id="SPLINE_13_">
	<path class="st0" d="M466.5,127.7c0.5-1.5,1-3,2.1-4.3c0.7-0.9,1.8-1.7,2.8-1.8c1-0.1,2,0.6,3,1.3"/>
</g>
<g id="LINE_29_">
	<line class="st0" x1="494.4" y1="131.4" x2="482.8" y2="153.7"/>
</g>
<g id="LINE_30_">
	<line class="st0" x1="482.8" y1="153.7" x2="474.8" y2="149.5"/>
</g>
<g id="LINE_31_">
	<line class="st0" x1="474.8" y1="149.5" x2="485.9" y2="128.1"/>
</g>
<g id="SPLINE_14_">
	<path class="st0" d="M494.4,131.4c0.7,0.4,1.4,1,2,1.5c0.9,0.7,1.6,1.2,2.4,1.7c1.8,1.3,3.7,2.8,5.5,4.5c1.2,1,2.3,2.1,2.7,3.5
		c0.3,1.1,0.3,2.3,0,3.4c-0.6,2.4-2.3,4.3-4.1,5.9c-2.3,1.9-4.8,3.3-7.3,4.7c-2.8,1.6-5.6,3.2-8.4,5.1c-2.1,1.4-4.2,2.9-5.7,4.9
		c-1.3,1.7-2.2,3.8-3.1,5.8c-1.3,2.9-2.6,5.7-3.8,8.6c-0.7,1.7-1.4,3.4-1.9,5.2c-0.6,2-0.9,4-1,6.1c-0.1,1.4,0,2.8-0.5,4.1
		c-0.3,0.8-0.9,1.6-1.5,2.2c-0.9,1-2,1.8-3.2,2.2s-2.6,0.3-3.9,0.5s-2.7,0.6-3.6,1.5c-0.5,0.5-0.8,1-1.2,1.6
		c-0.6,0.8-1.2,1.6-1.6,2.5c-0.5,1.1-0.6,2.4-1.4,3.1c-0.6,0.6-1.4,0.8-2.3,1c-5.2,1.2-10,0-15-0.5c-1.9-0.2-3.9-0.4-5.8,0.2
		c-0.9,0.3-1.8,0.7-2.5,1.2c-1.6,1.2-2.5,3-3.7,4.7c-1.1,1.5-2.5,2.9-4.1,3.6c-1.5,0.7-3.2,0.8-5,1c-1.3,0.2-2.7,0.4-3.7,1.1
		c-1.1,0.8-1.7,2.1-2.2,3.4c-0.6,1.7-1,3.4-1.3,5.1c-0.2,1-0.4,1.9-0.7,2.9c-0.6,1.8-1.8,3.3-2.6,5c-0.6,1.4-1,2.8-0.8,4.3
		c0.1,1.2,0.6,2.3,1.5,3.1c0.8,0.7,2,1.1,2.6,2c1,1.4,0.5,4.2-0.9,5.4c-0.8,0.6-1.8,0.8-2.8,0.7c-1.8-0.2-3.2-1.3-4.6-2.4
		c-1.7-1.3-3.3-2.5-4.9-3.8c-1-0.8-2-1.6-2.8-2.6c-1-1.2-1.8-2.6-2.2-4.2c-0.4-1.4-0.5-2.8-0.1-4.2c0.5-1.8,1.9-3.3,2.1-5.1
		c0.2-1.3-0.3-2.7-0.4-4.1c-0.1-1.8,0.3-3.5,0.6-5.3c0.1-0.9,0.2-1.9,0.6-2.7c0.6-1.2,2.2-1.7,3.6-2.3c1.1-0.4,2.1-0.9,2.8-1.6
		c1.5-1.5,1.9-4.1,3.4-5.9c0.5-0.7,1.2-1.2,2-1.6c1.3-0.8,2.7-1.3,4.2-1.5c1.7-0.2,3.5,0,5.2-0.2c1.6-0.3,3.2-1,4.7-1.7
		c2.2-1.1,4.4-2.2,6.2-3.7c1.6-1.4,2.9-3.2,4.1-5.2c1.3-2.2,2.4-4.8,4.5-5.5c1.2-0.4,2.8-0.2,4.2,0.4c1.5,0.6,2.9,1.5,4,1.3
		c1.4-0.3,2.4-2.3,2.9-4.1c0.1-0.3,0.1-0.6,0.2-0.9"/>
</g>
<g id="SPLINE_15_">
	<path class="st0" d="M474.4,122.8c1.7,0.4,3.5,0.9,5,1.7c1.4,0.7,2.6,1.8,3.9,2.4c0.8,0.4,1.6,0.7,2.5,1.1h0.1"/>
</g>
<g id="LINE_32_">
	<line class="st0" x1="584.7" y1="427.7" x2="570" y2="406.2"/>
</g>
<g id="LINE_33_">
	<line class="st0" x1="570" y1="406.2" x2="562.5" y2="411.3"/>
</g>
<g id="LINE_34_">
	<line class="st0" x1="562.5" y1="411.3" x2="576.9" y2="432.3"/>
</g>
<g id="SPLINE_16_">
	<path class="st0" d="M604.5,406.9c-1.3,0.4-2.6,0.8-3.9,1.2c-1.4,0.5-2.7,1.1-4.1,1.6c-1,0.4-2,0.7-2.8,1.4c-0.4,0.4-0.7,0.9-1,1.5
		c-1.5,3.2-1,7.2-2.6,9.9c-0.5,0.9-1.2,1.6-2.1,2.5c-1,1-2.1,2.1-3.2,2.7"/>
</g>
<g id="LINE_35_">
	<line class="st0" x1="572.2" y1="358.7" x2="587.1" y2="380.5"/>
</g>
<g id="LINE_36_">
	<line class="st0" x1="587.1" y1="380.5" x2="594.6" y2="375.4"/>
</g>
<g id="LINE_37_">
	<line class="st0" x1="594.6" y1="375.4" x2="580.5" y2="354.8"/>
</g>
<g id="LINE_38_">
	<line class="st0" x1="510.3" y1="401.5" x2="525" y2="422.9"/>
</g>
<g id="LINE_39_">
	<line class="st0" x1="525" y1="422.9" x2="532.5" y2="417.8"/>
</g>
<g id="LINE_40_">
	<line class="st0" x1="532.5" y1="417.8" x2="532.4" y2="417.7"/>
</g>
<g id="SPLINE_17_">
	<path class="st0" d="M580.5,354.8c0.2-0.2,0.3-0.3,0.5-0.5c1.1-1,2.2-1.8,3.5-2.4c1.5-0.7,3.2-1,4.8-0.7c1.3,0.2,2.5,0.8,3.5,1.7
		c1.7,1.4,2.8,3.5,3.5,5.6c0.4,1.2,0.7,2.4,0.8,3.6c0.2,1.1,0.3,2.3,0.5,3.4c0.2,1.2,0.5,2.3,0.8,3.5c0.2,1.2,0.4,2.4,0.7,3.6
		c0.3,1.1,0.9,2.2,1.6,3.2c0.3,0.4,0.7,0.9,1.1,1.3c0.5,0.7,1,1.5,1.5,2.2c0.8,1.1,1.9,2.1,3.1,2.8c1.1,0.6,2.3,1.1,3.2,1.9
		s1.5,2,2.1,3.2s1.3,2.3,1.6,3.6c0.3,0.9,0.4,1.8,0.5,2.7c0.2,2.3,0,4.7-1,6.8c-0.6,1.1-1.4,2.2-2.3,3c-1.2,1.1-2.7,1.8-4.1,2.6
		c-0.6,0.3-1.3,0.7-1.9,1"/>
</g>
<g id="SPLINE_18_">
	<path class="st0" d="M518.1,396.8c1-1,2.2-1.5,3.5-1.9c1.4-0.4,2.9-0.6,4.2-0.1c1.2,0.4,2.3,1.4,3.4,2.2c1.1,0.8,2.2,1.4,3.4,2
		c0.8,0.5,1.7,0.9,2.6,1.1c1,0.2,2,0.1,3.2-0.2c1.9-0.5,4.1-1.4,4-3c0-0.2-0.1-0.4-0.1-0.6c-0.3-1.6,0.3-3.2,1.2-4.7s2-2.8,3.3-3.9
		c1.7-1.5,3.7-2.5,5.7-3.9c1.9-1.3,3.8-2.9,5.9-3.2c1.4-0.2,2.8,0.2,4.3,0.2c1.8,0.1,3.7-0.2,4.9-1.3c0.8-0.7,1.3-1.7,1.6-2.7
		s0.2-2.1,0-3.1c-0.3-1.4-0.9-2.7-1.6-4c-0.6-1-1.3-2-1.5-3.2c-0.3-1.1-0.2-2.4,0.4-3.3c0.5-0.9,1.4-1.5,2.2-2.1
		c1.1-0.8,2-1.7,3.2-2.4c0.1-0.1,0.2-0.1,0.3-0.2"/>
</g>
<g id="SPLINE_19_">
	<path class="st0" d="M576.9,432.3c-0.8,0.7-2,1-3.1,1.4c-1.8,0.7-3.3,1.7-5,2c-1.5,0.3-3.1,0.1-4.6-0.4c-1.4-0.5-2.8-1.2-4.2-1
		c-0.9,0.1-1.7,0.6-2.5,1.2c-0.7,0.5-1.3,1.2-1.8,1.9c-0.5,0.9-0.8,2-1.3,3s-1.2,1.9-2,2.8c-1.3,1.4-2.6,2.8-4.2,3.8
		c-1.2,0.8-2.6,1.3-4,1.9c-1.5,0.6-3,1.3-4.6,1.5c-2.3,0.2-4.7-0.8-6.6-2.2c-0.8-0.6-1.6-1.3-2.2-2.1c-1.3-1.6-2.3-3.5-3.3-5.3
		c-1-2-2-3.9-3-5.9c-0.6-1.2-1.1-2.4-1.7-3.5c-1.2-2.2-2.9-4.3-4.9-5.8c-1.7-1.2-3.6-2.1-5.5-3.1c-2.1-1.1-4-2.3-5.8-3.9
		c-0.8-0.7-1.5-1.4-2-2.2c-0.7-1.2-1.1-2.5-1.3-4c-0.2-1.8-0.2-3.7,0.6-5c0.8-1.2,2.3-2,3.5-3.1c1-0.9,1.9-2,2.9-2.5"/>
</g>
<g id="LINE_41_">
	<line class="st0" x1="571.4" y1="218.4" x2="564.8" y2="238"/>
</g>
<g id="LINE_42_">
	<line class="st0" x1="564.8" y1="238" x2="573.4" y2="240.9"/>
</g>
<g id="LINE_43_">
	<line class="st0" x1="573.4" y1="240.9" x2="579.8" y2="221.7"/>
</g>
<g id="SPLINE_20_">
	<path class="st0" d="M579.8,221.7c2,0.7,3.9,1.9,5.9,2.8c1.8,0.8,3.6,1.3,5.5,2.3c2.2,1.2,4.5,3,4.6,5.3c0.1,1.1-0.3,2.3-1,3.2
		c-0.8,1.1-2.1,1.9-2.9,2.9c-1.1,1.3-1.5,3.1-2.2,4.8c-0.7,1.5-1.6,2.9-1.4,4.3c0.1,1,0.8,1.9,1.5,2.8c0.4,0.5,0.8,1,1.3,1.5
		c0.9,0.8,2,1.4,3.1,2c1.3,0.7,2.7,1.5,4.1,1.7c1.4,0.3,3,0.1,4.4,0.4c0.7,0.2,1.4,0.5,2.2,0.9c1.9,1,4.4,2.4,4.4,4
		c0,1.3-1.6,2.8-2.4,4.3c-0.4,0.8-0.6,1.6-0.7,2.4c-0.2,1.5-0.1,3.1,0.2,4.7c0.3,1.4,0.7,2.7,1.3,3.9c0.7,1.5,1.8,2.8,2.8,4.1
		c2.1,2.5,4.4,4.8,6.9,7c0.6,0.5,1.2,1.1,1.8,1.6c0.9,1,1.6,2.1,2.2,3.3c1.5,3.2,1.9,7.1,0.9,10.3c-0.5,1.4-1.2,2.7-2,4
		c-1.5,2.4-3.1,4.7-5.4,6.2c-1.5,1-3.2,1.6-4.3,3.1c-1,1.3-1.4,3.2-0.9,4.5c0.6,1.4,2.4,2,4.2,2.6c1.4,0.4,2.7,0.8,3.4,1.8
		c0.3,0.4,0.6,1,0.7,1.6c0.2,0.8,0.2,1.7,0,2.4c-0.2,0.5-0.5,1-0.9,1.5c-0.7,0.8-1.5,1.5-2.4,2.2c-0.8,0.6-1.6,1.2-2.4,1.7
		c-1.4,0.9-2.9,1.6-4.4,2.3c-1.3,0.5-2.7,1-4,1.5c-1,0.4-2,0.9-3.1,1.2c-2.3,0.5-4.9-0.3-7.1-1.5c-1.4-0.8-2.7-1.8-3.9-2.9
		c-1.9-1.6-3.8-3.4-4.9-5.6c-0.4-0.8-0.7-1.6-1.2-2.4c-0.4-0.6-0.8-1.2-1.2-1.8c-0.7-1-1.4-2-2-3.1c-0.7-1.3-1.4-2.8-2.6-3.6
		c-0.8-0.5-1.9-0.8-2.9-0.9c-1.6-0.2-3.3,0-4.8,0.4c-1.7,0.5-3.4,1.3-5.2,1.5c-0.8,0.1-1.6,0.1-2.4-0.1c-1.1-0.4-2-1.2-2.5-2.2
		c-0.2-0.5-0.4-1.1-0.4-1.7c0-0.3,0-3.1,0-2"/>
</g>
<g id="LINE_44_">
	<line class="st0" x1="539" y1="225.9" x2="552.2" y2="252.7"/>
</g>
<g id="LINE_45_">
	<line class="st0" x1="552.2" y1="252.7" x2="560.3" y2="248.7"/>
</g>
<g id="LINE_46_">
	<line class="st0" x1="560.3" y1="248.7" x2="547.1" y2="221.9"/>
</g>
<g id="SPLINE_21_">
	<path class="st0" d="M547.1,221.9c0.7-0.2,1.5-0.4,2.1-0.6c1.7-0.4,2.9-1,4.3-1.6c0.5-0.2,0.9-0.4,1.4-0.5c1.1-0.5,2.3-1,3.5-1.1
		c0.9-0.1,1.9,0,2.8,0.2c1.3,0.2,2.5,0.4,4,0.2c2.2-0.2,5.2-1.2,6.1-0.1"/>
</g>
<g id="SPLINE_22_">
	<path class="st0" d="M562.9,308.1c0.5-0.5,1.1-1,1.7-1.5c1.8-1.5,4.4-2.9,4.9-4.9c0.3-1.3-0.2-3-0.3-4.6c0-1.2,0.2-2.3-0.1-3.3
		s-1.3-1.9-1.9-2.8c-0.4-0.7-0.7-1.4-1.1-2.1c-0.7-1.1-1.7-2.1-2.7-3c-1.4-1.2-2.7-2.4-4-3.6c-1.5-1.5-2.9-3.2-4.4-4.8
		c-1.6-1.8-3.2-3.6-4.6-5.6c-0.9-1.1-1.7-2.3-2.5-3.5c-0.6-0.9-1.1-1.7-1.7-2.6c-0.5-0.8-1-1.6-1.5-2.5c-1.1-2-1.8-4.2-2.8-6.2
		c-0.8-1.5-1.7-3-2.6-4.5c-0.9-1.5-1.6-3-2.3-4.6s-1.4-3.3-2.1-4.9c-0.6-1.3-1.3-2.7-1.4-4.1c-0.1-1,0.1-2.1,0.2-3.2
		c0.1-1.7,0-3.5,0.7-4.9c0.4-0.8,1.1-1.4,1.7-2.1c0.9-1.1,1.8-2.3,2.9-2.9"/>
</g>
<g id="LINE_47_">
	<line class="st0" x1="312.8" y1="363.2" x2="311.9" y2="354.2"/>
</g>
<g id="LINE_48_">
	<line class="st0" x1="311.9" y1="354.2" x2="266.6" y2="358.7"/>
</g>
<g id="LINE_49_">
	<line class="st0" x1="312.8" y1="363.2" x2="266.9" y2="367.8"/>
</g>
<g id="SPLINE_23_">
	<path class="st0" d="M266.9,367.8c0.2,1.4,0.9,3.2,1.2,4.8c0.3,1.3,0.2,2.5,0.4,3.6c0.2,1.1,0.7,2.3,1.3,3.4c1,1.8,2.5,3.4,4.4,4.1
		c1.4,0.5,3,0.6,4.4,0.1c1-0.4,2-1,2.8-1.8c0.6-0.5,1.2-1.1,1.8-1.4c1.9-1,4.4,0.2,6.7,1.3c2.3,1.1,4.4,2.3,6.5,1.9
		c0.7-0.1,1.5-0.5,2.2-0.8c1.6-0.8,3-1.9,4.5-2.8s3.2-1.7,5-2c1.7-0.2,3.5,0,4.9,0.8c1.8,1.1,2.9,3.1,3.8,5.1
		c0.8,1.9,1.5,3.7,2.4,5.4c0.9,1.6,2.1,3.1,3.2,4.8c0.9,1.3,1.7,2.6,2.9,3.5c1.1,0.8,2.4,1.3,3.7,1.7c2.7,0.9,5.3,1.8,8.1,2.6
		c2.1,0.6,4.3,1.2,6,2.5c0.8,0.6,1.5,1.4,2.1,2.1c1.2,1.2,2.4,2.3,3.6,3.5c0.5,0.5,1,1,1.4,1.5c0.8,0.9,1.6,2,2.2,3.1
		c0.5,0.9,1,1.8,1.4,2.8c0.1,0.3,0.7,1.3,0.8,1.6"/>
</g>
<g id="LINE_50_">
	<line class="st0" x1="558.5" y1="176" x2="565.2" y2="170"/>
</g>
<g id="SPLINE_24_">
	<path class="st0" d="M360.3,431.3c1.3,0.5,2.5,0.9,3.6,0.5c0.5-0.2,0.9-0.5,1.3-0.9c0.5-0.5,0.8-1,1.1-1.6c0.9-1.9,0.9-4.1,0.8-6.3
		c-0.1-1-0.2-2.1-0.4-3.1c-0.5-2.4-1.4-4.8-2.5-7c-0.7-1.5-1.5-3-2.3-4.4c-0.8-1.3-1.6-2.6-2.5-3.8c-1.8-2.2-3.9-4.1-6-6.1
		s-4-4.1-6.4-5.7c-1.6-1.2-3.5-2.1-5-3.3c-0.7-0.6-1.4-1.2-2-1.9c-1-1.2-1.8-2.8-1.9-4.4c0-1,0.2-2,0.7-2.9c0.7-1.3,2-2.2,3.3-2.9
		c1.3-0.7,2.7-1.2,4.1-1.6c2.3-0.8,4.5-1.7,6.8-2.6c2.4-0.9,4.9-1.9,6.9-3.4c1.1-0.8,2-1.8,2.9-2.9c1-1.3,1.9-2.6,2.4-4.1
		c0.8-2.3,0.8-4.9,0.2-7.3c-0.2-1-0.5-2-0.9-2.9c-0.7-1.6-1.5-3.1-2.5-4.6c-1.4-2.2-3-4.3-4.8-6.4c-1.1-1.2-2.1-3.2-2.6-4.6"/>
</g>
<g id="LINE_51_">
	<line class="st0" x1="565.2" y1="170" x2="595.7" y2="203.8"/>
</g>
<g id="LINE_52_">
	<line class="st0" x1="558.5" y1="176" x2="589.3" y2="210.3"/>
</g>
<g id="SPLINE_25_">
	<path class="st0" d="M589.3,210.3c-1.1,0.9-2.8,1.8-4.1,2.7c-1.1,0.8-1.8,1.7-2.8,2.4c-0.9,0.7-2,1.2-3.2,1.6c-2,0.6-4.1,0.8-6,0.1
		c-1.4-0.5-2.6-1.6-3.3-2.9c-0.5-1-0.7-2.1-0.9-3.2c-0.1-0.8-0.1-1.6-0.4-2.3c-0.8-2-3.4-2.8-5.8-3.5c-2.4-0.7-4.7-1.3-6.1-3
		c-0.5-0.6-0.8-1.4-1.1-2.1c-0.6-1.7-0.9-3.4-1.4-5.2c-0.5-1.7-1.2-3.4-2.3-4.8c-1.1-1.3-2.6-2.4-4.2-2.7c-1-0.2-2.8,0.1-3.8,0.3"/>
</g>
<g id="SPLINE_26_">
	<path class="st0" d="M477.5,194.3c-1.2-0.5-2.5-1-3-2.1c-0.2-0.4-0.3-1-0.4-1.5c0-0.7,0.1-1.3,0.2-1.9c0.6-2,2.1-3.7,3.7-5.1
		c0.8-0.7,1.5-1.4,2.4-2c2-1.5,4.3-2.6,6.6-3.5c1.5-0.6,3.1-1.2,4.6-1.7c1.4-0.5,2.9-0.8,4.4-1.1c2.8-0.5,5.7-0.4,8.5-0.4
		c2.9-0.1,5.7-0.3,8.6,0.1c2,0.2,4,0.8,6,0.9c0.9,0.1,1.9,0.1,2.8-0.1c1.6-0.2,3.2-0.8,4.3-2c0.7-0.7,1.2-1.6,1.4-2.6
		c0.3-1.4,0-3-0.5-4.4s-1.2-2.7-1.9-4c-1.1-2.1-2.2-4.3-3.3-6.5c-1.1-2.3-2.3-4.7-2.8-7.2c-0.2-1.3-0.3-2.7-0.2-4.1
		c0.1-1.6,0.4-3.2,1-4.7c0.9-2.3,2.7-4.2,4.8-5.6c0.8-0.6,1.7-1.1,2.6-1.5c1.6-0.7,3.2-1.3,4.9-1.7c2.5-0.7,5.1-1.2,7.8-1.5
		c1.9-0.2,4-0.4,5.4-1.6c0.6-0.5,1-1.1,1.6-1.6c0.8-0.8,1.9-1.2,3-1.7c1.4-0.6,2.7-1.4,4.2-1.3c1,0,2,0.4,2.9,0.9
		c1,0.7,1.9,1.6,2.4,2.7c0.7,1.4,0.9,2.9,0.7,4.4c-0.3,2.5-1.7,4.8-2.6,7.2c-0.5,1.5-0.8,3-1.2,4.7c-0.3,1.6-0.6,3.2,0,4.5
		c0.6,1.2,1.9,2.1,3.3,2.5c1,0.3,2,0.3,2.8,0.1c1.4-0.4,2.5-1.7,3.8-2.7c1.7-1.4,3.7-2.2,5.4-3.3c1.6-1,3.1-2.4,4.8-3.5
		c1.8-1.2,3.8-2.1,5.9-2.3c1.3-0.1,2.7,0.1,4.1,0.5c1.5,0.5,3,1.2,4,2.2c1.1,1.1,1.7,2.7,2.2,4.2s0.9,2.9,1.2,4.4
		c0.3,2.3,0.2,4.7,0.8,6.9c0.4,1.4,1.1,2.8,1.6,4.2c0.8,2,1.2,4.2,1.9,6.2c0.6,1.7,1.5,3.3,2.1,5c0.6,1.9,0.8,4,1.1,6
		c0.3,2.2,0.7,4.3,1.3,6.4c0.2,0.5,0.3,1,0.4,1.5c0.5,2.3-0.3,4.8-1.4,6.8c-1,1.9-2.3,3.5-3.3,5.5c-0.8,1.7-1.4,3.8-2.6,4.9"/>
</g>
<g id="LINE_53_">
	<line class="st0" x1="559.1" y1="316.6" x2="518" y2="324.2"/>
</g>
<g id="LINE_54_">
	<line class="st0" x1="516.4" y1="315.3" x2="561.9" y2="306.9"/>
</g>
<g id="LINE_55_">
	<line class="st0" x1="535.1" y1="345.5" x2="534.5" y2="336.5"/>
</g>
<g id="LINE_56_">
	<line class="st0" x1="534.5" y1="336.5" x2="573" y2="334.3"/>
</g>
<g id="LINE_57_">
	<line class="st0" x1="535.1" y1="345.5" x2="575.8" y2="343.2"/>
</g>
<g id="LINE_58_">
	<line class="st0" x1="518" y1="324.2" x2="516.4" y2="315.3"/>
</g>
<g id="SPLINE_27_">
	<path class="st0" d="M559.1,316.6c0.1,0.1,0.2,0.2,0.3,0.3c2.3,2.1,4.5,4.1,7.4,4.9c2.5,0.7,5.6,0.5,7.3,2.1c1.2,1.1,1.7,3.1,1.6,5
		c-0.1,2.1-1.1,4.1-2.5,5.4c-0.1,0-0.1,0.1-0.2,0.1"/>
</g>
<g id="SPLINE_28_">
	<path class="st0" d="M575.8,343.2c0,0.1,0,0.2,0,0.4c0.1,2.1-0.2,3.9-0.6,5.8c-0.5,2.1-1.1,4.3-2.6,5.7c-1.4,1.3-3.5,1.7-5.2,2.7
		c-1,0.6-1.8,1.3-2.6,5"/>
</g>
<g id="LINE_59_">
	<line class="st0" x1="564.8" y1="362.7" x2="520.1" y2="359.6"/>
</g>
<g id="LINE_60_">
	<line class="st0" x1="519.4" y1="368.7" x2="565.6" y2="371.9"/>
</g>
<g id="LINE_61_">
	<line class="st0" x1="520.1" y1="359.6" x2="519.4" y2="368.7"/>
</g>
<g id="SPLINE_29_">
	<path class="st0" d="M565.6,371.9L565.6,371.9c-0.2,1.4-0.2,1.3-0.4,1.8c-0.2,0.6-0.5,2.3-1.6,3.5c-0.6,0.7-1.5,1.3-2.5,1.7
		c-1.1,0.6-2.2,1-3.4,1c-0.7,0-1.3-0.2-2-0.4c-0.8-0.2-1.5-0.4-2.2-0.2c-0.4,0.1-0.8,0.3-1.1,0.5c-2,0.8-2.9-0.7-5-1.3
		c-1.6-0.4-3.8-0.3-5.6,0.1c-0.9,0.2-1.7,0.6-2.3,0.9c-1.9,1.1-2.5,2.4-3.4,4.7c-0.3,0.8-0.7,1.8-1.3,2.7c-1.4,2.4-3.9,4.8-6.3,4.7
		c-1.9,0-3.8-1.6-5.2-3.5c-1.6-2.2-2.5-4.9-4.7-5.3c-1.3-0.2-2.9,0.3-3.9,1.3c-0.8,0.8-1,2-1.3,3.1c-0.3,1.4-0.7,2.6-1.2,4
		c-0.7,1.8-1.6,3.7-3.2,4.9c-1.8,1.3-4.5,1.8-6.6,1.1c-2.3-0.7-3.9-2.7-5.5-4.6c-1.4-1.8-2.6-3.5-3.4-5.8c-0.4-1.2-0.7-2.5-1.3-3.3
		c-1.3-1.5-4-0.6-5.6,1.1c-0.8,0.8-1.3,1.8-1.9,2.7c-0.7,1.2-1.7,2.3-2.7,3.1c-1.7,1.3-3.8,1.7-5.5,0.9c-1.6-0.8-2.8-3.4-3.6-5.4"/>
</g>
<g id="LINE_62_">
	<line class="st0" x1="246.2" y1="398.4" x2="246.5" y2="389.4"/>
</g>
<g id="LINE_63_">
	<line class="st0" x1="243.1" y1="375.3" x2="243.4" y2="366.2"/>
</g>
<g id="LINE_64_">
	<line class="st0" x1="241.4" y1="352.7" x2="241.7" y2="343.6"/>
</g>
<g id="LINE_65_">
	<line class="st0" x1="243.2" y1="332.2" x2="243.4" y2="323.1"/>
</g>
<g id="LINE_66_">
	<line class="st0" x1="246.6" y1="311.8" x2="246.9" y2="302.8"/>
</g>
<g id="LINE_67_">
	<line class="st0" x1="231.7" y1="331.8" x2="243.2" y2="332.2"/>
</g>
<g id="LINE_68_">
	<line class="st0" x1="234.8" y1="311.5" x2="246.6" y2="311.8"/>
</g>
<g id="LINE_69_">
	<line class="st0" x1="246.9" y1="302.8" x2="237.1" y2="302.5"/>
</g>
<g id="LINE_70_">
	<line class="st0" x1="228.8" y1="352.3" x2="241.4" y2="352.7"/>
</g>
<g id="LINE_71_">
	<line class="st0" x1="228.5" y1="397.9" x2="246.2" y2="398.4"/>
</g>
<g id="LINE_72_">
	<line class="st0" x1="246.5" y1="389.4" x2="232.9" y2="388.9"/>
</g>
<g id="LINE_73_">
	<line class="st0" x1="241.7" y1="343.6" x2="230.8" y2="343.3"/>
</g>
<g id="LINE_74_">
	<line class="st0" x1="230.1" y1="374.9" x2="243.1" y2="375.3"/>
</g>
<g id="SPLINE_30_">
	<path class="st0" d="M228.5,397.9c-0.2,0.3-0.5,0.5-0.7,0.7c-1.1,1-2.3,1.6-3.1,2.8c-1.4,2.2-1.2,6.2,0.4,7.6
		c1.4,1.2,3.8,0.4,6.6,0.5c2.4,0.1,5.1,1,5.4,2.1c0.4,1.4-3.4,3.1-6.1,4.8l-0.9,0.6"/>
</g>
<g id="LINE_75_">
	<line class="st0" x1="243.4" y1="366.2" x2="229.5" y2="365.8"/>
</g>
<g id="LINE_76_">
	<line class="st0" x1="243.4" y1="323.1" x2="233.3" y2="322.8"/>
</g>
<g id="SPLINE_31_">
	<path class="st0" d="M230.1,374.9c0,1.3,0.2,3,0.3,4.6c0.3,3.7,0,7,1.7,8.7c0.3,0.3,0.6,0.5,0.9,0.7"/>
</g>
<g id="SPLINE_32_">
	<path class="st0" d="M228.8,352.3c0.3,1.6,1.3,4,1.5,6.2c0.2,2.9-1,5.5-0.7,7.3"/>
</g>
<g id="SPLINE_33_">
	<path class="st0" d="M231.7,331.8c0,0.1-0.1,0.2-0.1,0.2c-0.6,2.1,0.2,4,0.1,6.4c-0.1,1.6-0.7,3.4-0.8,4.8"/>
</g>
<g id="SPLINE_34_">
	<path class="st0" d="M234.8,311.5C234.7,311.5,234.7,311.5,234.8,311.5c-1.1,1.5-1.3,3.4-1.4,5.2c-0.1,1.7-0.2,3.2-0.1,5
		c0,0.4,0,0.7,0.1,1.1"/>
</g>
<g id="SPLINE_35_">
	<path class="st0" d="M458.4,121.9c-0.1-0.1,0-0.2-0.8-0.4c-1-0.6-2.5-0.1-3.7,0.5c-1.4,0.7-2.2,2-2.9,3.2c-0.8,1.4-1.4,2.9-2,4.4
		c-0.7,2-1.3,4-2.2,5.9c-0.7,1.5-1.5,2.8-2.3,4.2c-0.5,0.9-1,1.9-1.6,2.8c-2.3,3.5-6.3,5.9-8.5,9.5c-0.7,1.1-1.2,2.3-1.5,3.5
		c-0.4,1.5-0.5,3-1.2,4.5c-0.6,1.3-1.6,2.5-2.8,3c-1.2,0.6-2.6,0.5-4.2,0.2c-1.5-0.2-3.1-0.5-3.9,0.2c-0.5,0.5-0.7,1.4-1,2.2
		c-0.4,1.4-0.9,2.5-1.5,3.8c-0.6,1.2-1.4,2.5-2.5,3s-2.5,0.2-3.8-0.4c-1.7-0.8-3.1-2.1-4.6-1.9c-1.1,0.2-2.2,1.2-2.9,2.3
		c-1,1.6-0.9,3.4-1.6,5.1c-0.5,1.4-1.5,2.8-2.8,3.2c-0.9,0.3-1.9,0.2-2.8-0.1c-0.8-0.2-1.5-0.6-2.2-1.2c-1.2-1-2.3-2.6-3.6-2.7
		c-0.9,0-1.9,0.7-2.8,1.4c-1,0.8-1.9,1.5-2.5,2.4c-0.5,0.9-0.8,1.9-1.2,3c-0.5,1.4-1.4,3-2.2,3.2c-1.3,0.3-2.4-2.9-3.9-4.7
		c-1-1.1-2.1-1.7-3.3-2c-1.3-0.3-2.8-0.3-4,0.2c-1.4,0.6-2.4,1.8-3.2,3.1c-0.5,0.9-1,1.9-1.7,2.6c-0.5,0.5-1.1,0.8-1.7,1
		s-1.2,0.2-1.7,0.1c-1.5-0.3-2.5-1.9-3.4-3.3c-0.6-0.9-1.1-1.8-1.9-2.6c-0.5-0.6-1.2-1.2-1.9-1.4c-1.5-0.4-3.3,0.7-4.2,2.1
		c-1.3,2-0.7,4.6-2,6.6c-0.9,1.3-2.6,2.3-4,2c-1-0.2-1.8-1-2.5-1.8c-0.7-0.9-1.1-2-1.8-2.8c-0.7-0.8-1.7-1.4-2.8-1.6
		c-0.6-0.1-1.3-0.1-1.8,0.2c-0.6,0.3-1,1-1.3,1.6c-0.9,1.5-1.6,2.9-2.3,4.5c-0.5,1.3-1,2.7-2.2,3.7c-1,0.8-2.4,1.2-3.4,0.8
		c-1.3-0.4-2-2.1-2.9-3.5c-1.1-1.6-2.6-2.7-4.4-2.8c-0.9,0-1.8,0.2-2.5,0.7c-1.2,0.9-1.6,2.5-1.9,4c-0.3,1.3-0.6,2.5-0.7,3.7
		c-0.1,1-0.1,2.1-0.7,2.9c-0.4,0.7-1.2,1.2-1.9,1.3c-1.4,0.2-2.7-1.1-3.7-2.4c-0.8-1.1-1.4-2.1-2.5-2.7c-1.2-0.7-3-0.7-4.4,0
		c-1.2,0.6-2.1,1.7-2.2,2.9c-0.1,0.9,0.1,1.8,0.3,2.7c0.4,2,0.6,4.3-0.6,5.6c-0.7,0.8-1.8,1.2-2.9,1.3c-2.6,0.2-4.7-1.7-6.9-3.5
		c-1-0.9-2.1-1.7-3.2-1.7c-0.8,0-1.7,0.5-2.4,1.1c-0.7,0.6-1.2,1.4-1.4,2.2c-0.3,1.3,0.3,2.9,0.9,4.2c0.4,0.9,0.8,1.7,1,2.7
		c0.2,1.3-0.1,2.9-1,3.7s-2.4,0.7-3.8,0.4c-1.9-0.4-3.3-1.2-5.3-1.6c-1.4-0.3-3.1-0.5-4,0.2c-1.3,1-1.2,3.5-0.8,5.4
		c0.1,0.7,0.3,1.3,0.6,1.9c0.3,0.7,0.7,1.5,0.7,2.3c0,1.4-0.9,3.1-2,3.6c-2.5,1.1-5.4-4.1-8.7-4c-1.7,0.1-3.5,1.6-4,3.2
		c-0.4,1.6,0.5,3.1,1.6,4.9c1.3,2.1,2.6,4.5,1.5,6.2c-0.4,0.6-1.1,1.1-1.8,1.3c-1.9,0.6-3.9-1-6-0.8c-2.2,0.2-4.6,2.4-4.7,4.3
		c-0.1,2.1,2.5,3.7,3.3,6.3c0.5,1.5,0.3,3.4-0.5,4.3c-1.3,1.3-4.2,0-6.8,0c-1.8,0-3.5,0.5-4.4,1.8c-1.3,1.8-1.2,5.1,0,6.8
		c0.9,1.3,2.5,1.8,3.8,3.2c1.3,1.4,2.4,3.8,1.5,4.7c-0.5,0.5-1.7,0.6-2.7,0.5c-2.5,0-4.4-0.4-6.5,0.3c-1.1,0.4-2.2,1.1-2.7,2.1
		c-0.7,1.5-0.3,3.6,0.8,4.8c1.1,1.2,2.8,1.4,4.8,2c1.6,0.5,3.3,1.3,3.7,2.1c0.7,1.5-3.8,2.8-7.3,3.8c-2.6,0.8-4.6,1.4-5.3,3
		c-0.8,2,0.5,5.6,2.9,6.9c1.5,0.8,3.4,0.6,4.3,1.7c0.6,0.7,0.7,2.1,0.8,3.4"/>
</g>
<g id="LINE_77_">
	<line class="st0" x1="411.2" y1="142.2" x2="409.1" y2="133.3"/>
</g>
<g id="LINE_78_">
	<line class="st0" x1="375.5" y1="373" x2="381.4" y2="379.9"/>
</g>
<g id="LINE_79_">
	<line class="st0" x1="483.2" y1="420.2" x2="482.7" y2="411.1"/>
</g>
<g id="LINE_80_">
	<line class="st0" x1="322.9" y1="282.3" x2="323.4" y2="291.3"/>
</g>
<g id="LINE_81_">
	<line class="st0" x1="409.1" y1="133.3" x2="395.9" y2="136.4"/>
</g>
<g id="LINE_82_">
	<line class="st0" x1="399.1" y1="145" x2="411.2" y2="142.2"/>
</g>
<g id="LINE_83_">
	<line class="st0" x1="507.3" y1="226.5" x2="514.3" y2="220.2"/>
</g>
<g id="LINE_84_">
	<line class="st0" x1="471.7" y1="420.8" x2="483.2" y2="420.2"/>
</g>
<g id="LINE_85_">
	<line class="st0" x1="381.4" y1="379.9" x2="390.8" y2="371.8"/>
</g>
<g id="LINE_86_">
	<line class="st0" x1="514.3" y1="220.2" x2="508.3" y2="213.5"/>
</g>
<g id="LINE_87_">
	<line class="st0" x1="334.9" y1="281.6" x2="322.9" y2="282.3"/>
</g>
<g id="LINE_88_">
	<line class="st0" x1="482.7" y1="411.1" x2="471" y2="411.8"/>
</g>
<g id="LINE_89_">
	<line class="st0" x1="508.3" y1="213.5" x2="500.9" y2="220"/>
</g>
<g id="LINE_90_">
	<line class="st0" x1="323.4" y1="291.3" x2="335.7" y2="290.6"/>
</g>
<g id="LINE_91_">
	<line class="st0" x1="384" y1="365.7" x2="375.5" y2="373"/>
</g>
<g id="SPLINE_36_">
	<path class="st0" d="M507.3,226.5c1,1.3,1.8,2.7,2.6,4.1c1,1.8,1.9,3.7,2.8,5.6c1.1,2.3,2.1,4.7,2.4,7.1c0.2,1.7,0,3.6-0.4,5.3
		c-0.3,1.3-0.6,2.6-1.1,3.8c-0.3,0.9-0.8,1.8-1.2,2.7c-0.6,1.3-1.2,2.6-2.1,3.8c-1.4,1.8-3.4,3.1-5,4.7c-0.6,0.6-1.1,1.2-1.7,1.7
		c-1.5,1.5-3.4,2.7-5.4,3.6c-1.6,0.8-3.2,1.4-4.8,2.1c-2.9,1.2-5.6,2.7-8.5,3.8c-2.9,1.1-5.9,2-8.8,3.1c-1.4,0.6-2.7,1.2-4.1,1.7
		c-1.8,0.7-3.7,1.3-5.6,1.8c-1.5,0.4-3,0.8-4.4,1.5c-0.9,0.4-1.7,1-2.5,1.5"/>
</g>
<g id="SPLINE_37_">
	<path class="st0" d="M459.8,284.2c-0.6,1-1.2,1.9-1.4,3.1c-0.2,1-0.1,2,0.4,2.8c0.3,0.4,0.8,0.7,1.2,0.9c0.8,0.5,1.6,0.9,2.5,1
		c0.7,0.1,1.4,0,2.1-0.1c0.8-0.1,1.6-0.2,2.4-0.3c2.7-0.4,5.4-1.5,8-2.4c1.5-0.5,3-1,4.5-1.5c4.9-1.7,9.7-3.8,14.3-6.2
		c2.8-1.5,5.6-3,8.4-4.6c1.7-1,3.3-1.9,4.8-3.1c1.4-1.1,2.7-2.4,4.1-3.5c1.4-1.1,2.9-2.1,4.2-3.2c1.1-0.9,2.1-1.9,3.1-3
		c2-2.1,4-4.3,5.5-6.8c0.8-1.3,1.4-2.8,1.8-4.2c0.3-1,0.5-1.9,0.6-2.9c0.2-2.1,0-4.3-0.5-6.3c-0.8-3.6-2.5-7.1-4-10.4
		c-0.8-1.7-1.5-3.3-1.9-5.4c-0.2-1.2-0.4-2.6,0.3-3.4c0.4-0.5,1-0.8,1.5-1.1c3-1.5,6.1-2.3,9.1-3.5c0.6-0.2,1.2-0.5,1.8-0.8
		c0.5-0.2,0.9-0.4,1.3-0.7c0.8-0.6,1.4-1.3,1.7-2.2s0.3-2,0.1-2.9c-0.4-1.5-1.5-2.7-2.5-3.9c-1.4-1.7-2.6-3.4-3.9-5.1
		c-1.1-1.4-2.2-2.8-3.4-4c-0.9-0.9-1.8-1.7-2.6-2.6c-1.4-1.6-2.6-3.7-4.6-4.5c-0.9-0.4-1.9-0.5-2.9-0.3c-1.6,0.3-2.9,1.3-4,2.4
		c-1.5,1.5-2.4,3.2-3.3,5.3c-1.1,2.6-2.2,5.8-4.7,6.2c-0.5,0.1-1.1,0.1-1.6-0.1c-1.1-0.4-1.8-1.3-2.7-2c-1.4-1.1-3.1-1.6-4.6-2.5
		c-1.2-0.7-2.2-1.7-3.4-2.3c-1-0.5-2-0.8-3.1-1.2c-1.3-0.5-2.5-1-3.8-1.3c-0.8-0.1-1.7-0.1-2.6-0.1c-1.8,0.1-3.6,0.5-5.5,0.8
		c-0.7,0.1-1.3,0.2-2,0.3c-3.2,0.6-6,2.6-8.5,4.7c-1.3,1.2-2.6,2.4-3.8,3.7c-1.6,1.7-3.1,3.6-4.7,5.3c-1.8,2.1-3.7,4.1-5.4,6.3
		c-1.4,1.8-2.8,3.6-4.1,5.4c-0.5,0.7-1,1.5-1.5,2.2"/>
</g>
<g id="SPLINE_38_">
	<path class="st0" d="M335.7,290.6c0.7,2.8,1.6,5.5,2.1,8.6c0.5,3.5,0.4,7.4,2.6,9.9c0.5,0.5,1,1,1.6,1.5c1,0.8,1.9,1.6,2.9,2.3
		c1,0.6,3.1,1.2,4.3,1.5"/>
</g>
<g id="SPLINE_39_">
	<path class="st0" d="M471.7,420.8c-0.1,1.4-0.3,2.8-0.5,4.2c-0.1,1.3-0.2,2.6-0.4,3.9c-0.2,1.3-0.6,2.7-1,4c-0.3,1-0.5,1.9-1,2.8
		c-0.6,1-1.6,1.8-2.5,2.6c-0.8,0.7-1.5,1.5-2.4,2.1c-1.1,0.8-2.5,1.3-3.9,1.7c-1.2,0.4-2.4,0.7-3.6,0.9c-2.2,0.5-4.3,1-6.6,1.2
		c-2.4,0.2-4.9,0.1-7.3,0c-2.5-0.1-4.9-0.2-7.4-0.5c-1.5-0.2-2.9-0.4-4.3-0.6c-1.8-0.3-3.6-0.7-5.4-1.1c-1.2-0.2-2.3-0.4-3.5-0.7
		c-4-0.8-8-1.7-11.9-3.4c-1.4-0.6-2.7-1.3-4.2-1.4c-0.8-0.1-1.7,0-2.4,0.2c-0.8,0.2-1.5,0.6-2.3,0.9c-0.7,0.3-1.4,0.6-1.7,1.2
		c-0.3,0.6-0.3,1.4-0.1,2.1c0.2,1.1,0.6,2.1,1.3,2.9c1.4,1.7,3.9,2.5,6.2,3.2c2.6,0.8,5,1.6,7.4,2.3c1.9,0.5,3.9,1,5.9,1.5
		c1.7,0.4,3.4,0.9,5.2,1.2c2.2,0.4,4.4,0.4,6.5,0.8c1.9,0.3,3.9,0.8,5.8,0.9c2,0.1,4-0.3,6-0.3s4,0.4,6,0.4c3.3,0.1,6.6-0.7,10-1.2
		c3.1-0.5,6.2-0.7,9-1.8c1.9-0.7,3.7-1.9,5.5-3.1c1.1-0.8,2.2-1.6,3-2.7c0.5-0.7,0.8-1.4,1.1-2.2c0.5-1.4,0.9-2.8,1.3-4.2
		c0.8-2.6,1.7-5.1,2.2-7.9c0.1-0.9,0.2-1.7,0.7-2.4c0.7-1,2.1-1.6,3.4-1.7c1.4-0.1,2.7,0.3,3.9,0.8c1.3,0.6,2.6,1.3,3.9,1.9
		c0.8,0.3,1.6,0.6,2.4,0.8c1,0.2,1.9,0.3,3,0.2c0.9-0.1,1.9-0.5,2.4-1.1c0.4-0.6,0.3-1.5,0.5-2.3c0.3-1,1.1-1.7,1.2-2.6
		c0-0.5-0.2-1.1-0.4-1.7c-1.3-4-0.7-7.6-0.1-12c0.5-3.6,0.9-7.7-1.5-9.7c-1.2-1-3.1-1.4-4.8-1.1c-1.7,0.2-3.1,1.2-4.7,1.8
		c-1.2,0.5-2.4,0.9-3.6,1.3c-1.2,0.5-2.3,1.1-3.5,1.3c-0.7,0.1-1.4,0.2-2.2,0c-1.8-0.3-3.5-1.7-4.3-3.4c-0.7-1.5-0.6-3.3-1.1-4.9
		c-0.5-1.8-1.6-3.4-2.9-4.9c-2.2-2.7-4.7-5.1-7.7-6.7c-2-1-4.3-1.7-6.5-2.2c-3.1-0.8-6.2-1.4-9.4-1.6c-2.1-0.1-4.3-0.1-6.5,0.1
		c-2.9,0.2-5.8,0.6-8.7,1.1c-2.8,0.4-5.5,1-8.2,1.8c-2.1,0.7-4.1,1.5-6.2,2.1c-0.8,0.2-1.6,0.4-2.4,0.6"/>
</g>
<g id="SPLINE_40_">
	<path class="st0" d="M411.1,305c0.7,0.6,1.5,1.2,1.8,2c0.3,0.7,0.4,1.5,0.3,2.4c-0.1,1-0.4,1.9-0.9,2.7c-0.4,0.5-1,0.9-1.5,1.2
		c-1.2,0.7-2.5,1-3.8,1.6c-0.2,0.1-0.4,0.2-0.6,0.3c-1.4,0.7-2.9,1.1-4.4,1.5c-0.9,0.3-1.8,0.6-2.7,0.8c-9.5,3-19.4,5.3-29.4,6.3
		c-4.3,0.4-8.7,0.6-13,0.6c-5.5,0.1-11.1,0-16.5-1.7c-3.9-1.2-7.7-3.2-10.1-6.4c-0.6-0.8-1.1-1.6-1.5-2.5"/>
</g>
<g id="SPLINE_41_">
	<path class="st0" d="M400.4,394.3c-1.1,0.5-2.1,1.1-2.7,2c-0.3,0.5-0.4,1.2-0.4,1.8c0,1,0.4,1.9,0.9,2.8c0.4,0.7,0.8,1.4,1.4,1.8
		c0.9,0.6,2.3,0.2,3.5-0.2c2.3-0.7,4.2-1.4,6.1-2.2c2.3-1,4.6-2.2,7-3.1c1.7-0.7,3.4-1.2,5.1-1.9c0.8-0.3,1.6-0.6,2.4-0.9
		c0.9-0.3,1.9-0.4,2.8-0.6c1.3-0.3,2.6-0.7,3.9-1.1c1.1-0.3,2.2-0.7,3.3-0.9c1.1-0.2,2.2-0.3,3.4-0.4c2-0.2,3.9-0.7,5.8-0.9
		c1.6-0.2,3.2-0.3,4.8-0.3c1.4,0,2.8,0.1,4.2,0.2c2.1,0.2,4.1,0.7,6.1,1.3c2,0.6,4,1.5,5.7,2.7c1.7,1.3,3.1,3,4,4.9
		c0.9,1.8,1.4,3.7,1.8,5.6c0.4,1.7,0.6,3.4,1,5.1c0.1,0.5,0.3,1.1,0.4,1.6"/>
</g>
<g id="SPLINE_42_">
	<path class="st0" d="M384,365.7c-0.3-0.3-0.5-0.5-0.8-0.8"/>
</g>
<g id="SPLINE_43_">
	<path class="st0" d="M399.1,145c0.1,0.3,0.2,0.7,0.3,1"/>
</g>
<g id="SPLINE_44_">
	<path class="st0" d="M383.2,364.9c-1.1-1.6-2.1-3.1-3-4.8c-0.5-0.8-0.9-1.7-1.3-2.5s-0.9-1.5-1.1-2.3c-0.3-1.1-0.3-2.3-0.1-3.5
		c0.2-0.9,0.4-1.7,0.8-2.5c0.5-1.2,1.4-2.2,2.2-3.1c1-1,2-2,3-3c1.8-1.8,3.5-3.7,5.4-5.4c1.2-1.1,2.4-2.1,3.6-3
		c3.6-2.9,7.2-5.8,11.2-7.9c3-1.6,6.3-2.8,9.3-4.2c1.6-0.8,3.2-1.6,4.8-2.7c1-0.6,1.9-1.4,2.3-2.4c0.5-1.2,0-2.9-1-4
		c-0.6-0.7-1.5-1.2-2.3-1.3c-1.7-0.3-3.5,0.7-5.3,1.5c-1.4,0.6-2.8,1-4.1,1.6c-1.6,0.7-3,1.7-4.5,2.6c-2.2,1.4-4.4,2.7-6.6,4.1
		c-2,1.3-4,2.7-5.9,4.1c-2.1,1.5-4.1,3.2-6,4.8c-1.5,1.3-3,2.6-4.5,3.9c-2.1,1.8-4.2,3.7-6.1,5.6c-1.4,1.4-2.7,2.9-3.8,4.6
		c-1.3,1.9-2.3,4.1-2.7,6.4c-0.3,1.7-0.4,3.5,0,5.2c0.4,2,1.4,3.8,2.2,5.6c0.5,1.1,0.9,2.1,1,3.4c0.1,0.9,0,1.8-0.4,2.5
		c-0.6,1-2.1,1.3-3.3,1.8c-1.3,0.6-2.4,1.5-3.7,1.9c-0.6,0.2-1.3,0.4-2,0.5c-1.8,0.4-3.4,1.2-5.1,1.9c-1.1,0.5-2.2,1-3.1,1.7
		c-0.8,0.7-1.5,1.5-1.8,2.5c-0.7,1.7-0.5,3.7,0.1,5.5c0.7,1.9,1.9,3.4,3.3,4.8c2,2.1,4.4,3.8,6.4,5.8c2.2,2.2,4,4.8,6.5,6.8
		c0.9,0.7,1.9,1.3,2.9,1.5c1.1,0.2,2.4,0,3.4-0.6c1.4-0.8,2.3-2.3,3.2-3.8c1-1.7,2.1-3.3,2.9-5.2c1-2.4,1.7-5.3,3.8-6.6
		c1.3-0.8,3.1-1.1,4.6-0.7s2.7,1.5,4,2.3c1.9,1.2,4.1,1.8,6.4,1.9c1.7,0.1,3.5-0.1,5.2-0.3c2.3-0.3,4.5-0.8,6.6-1.7
		c2.2-1,4.2-2.5,6.1-4c4.8-3.9,9.3-8,13.4-12.5c2-2.2,3.9-4.5,5.8-6.7c2.5-3.1,5-6.2,7.2-9.5c1.3-2,2.4-4.2,3-6.5
		c0.3-1.5,0.5-3-0.2-4.4c-0.6-1.1-1.7-2.1-2.8-2.2c-1.5-0.2-2.9,1.3-4.1,2.6c-1.8,2.1-3.2,3.9-4.6,5.9c-1.7,2.5-3.4,5.2-5.2,7.7
		c-1,1.4-2.1,2.7-3.1,4c-1.1,1.3-2.1,2.6-3.2,3.9c-1.3,1.5-2.6,3-4.1,4.3c-1.7,1.6-3.5,3-5.5,4.3c-1.4,0.9-2.8,1.6-4.3,2.4
		c-1.1,0.5-2.2,1-3.4,1.2c-0.9,0.1-1.8,0-2.7-0.1c-1.2-0.2-2.4-0.4-3.5-0.7c-1.2-0.4-2.3-1.1-3.3-1.8"/>
</g>
<g id="SPLINE_45_">
	<path class="st0" d="M399.4,146c0.2,1.9,0.4,3.7,0.5,5.6c0,1,0,1.9,0,2.9c0,0.9,0.1,1.7-0.1,2.6c-0.2,1.1-0.8,2.2-1.5,3.1
		c-0.5,0.7-1.1,1.4-1.8,1.9c-1,0.8-2.2,1.3-3.4,1.8c-1.3,0.5-2.7,0.8-4.1,1.3c-2.4,0.7-4.8,1.7-7.2,2.3c-1.5,0.4-3.1,0.7-4.6,1
		c-4.5,0.9-9,1.8-13.6,1.9c-3.4,0-6.9-0.5-10.2-0.6c-1.8-0.1-3.6-0.1-5.5,0.2c-1.2,0.1-2.4,0.3-3.1,1c-1,0.9-1.3,2.6-1,3.9
		c0.2,0.9,0.8,1.7,1.5,2.2c1.4,1.1,3.5,1,5.4,1.1c1.5,0.1,2.9,0.4,4.4,0.4c1.7,0.1,3.5-0.1,5.2-0.2c2.6-0.2,5.2-0.4,7.7-0.6
		c2.4-0.2,4.7-0.5,7.1-0.9c2.5-0.4,5.1-0.9,7.6-1.5c1.9-0.4,3.9-0.9,5.8-1.4c2.7-0.7,5.4-1.3,8-2.2c1.9-0.6,3.7-1.4,5.5-2.3
		c2-1.1,3.9-2.6,5.4-4.4c1.1-1.4,2-2.9,2.4-4.6c0.5-1.9,0.5-4,0.7-6c0.1-1.2,0.2-2.3,0.7-3.4c0.3-0.8,0.8-1.6,1.5-2
		c1-0.6,2.4-0.2,3.8-0.1c1.5,0.1,2.8-0.2,4.1,0c0.7,0.1,1.3,0.3,2,0.4c1.8,0.4,3.6,0.5,5.4,0.7c1.2,0.1,2.4,0.2,3.6-0.1
		c1-0.2,2-0.7,2.8-1.4c1.4-1.2,2.2-3.1,2.4-4.9c0.2-2-0.1-3.9-0.7-5.8c-0.9-2.8-2.2-5.4-3-8.1c-0.9-3-1.3-6.1-2.6-9
		c-0.5-1-1.1-2-1.9-2.7c-0.9-0.7-2.1-1.1-3.3-1c-1.6,0.1-3.1,1-4.6,1.9c-1.7,1-3.4,2-4.9,3.3c-2,1.7-3.9,3.9-6.4,4.1
		c-1.5,0.1-3.3-0.5-4.4-1.5c-1.1-1.1-1.7-2.6-2.5-3.9c-1.2-1.9-2.8-3.5-4.7-4.6c-1.5-0.9-3.1-1.5-4.8-2.1c-2.2-0.7-4.4-1.4-6.7-1.5
		c-2.4-0.2-4.8,0.3-7.3,0.7c-6.1,1.2-12,2.8-17.7,4.9c-2.8,1-5.5,2.1-8.3,3.3c-1.1,0.5-2.3,1-3.4,1.5"/>
</g>
<g id="SPLINE_46_">
	<path class="st0" d="M471.6,454.2c2.9-2.4,5.7-5.6,8.4-8c0.5-0.4,1-0.8,1.4-1.3s0.8-1,1.2-1.4c1.8-1.4,4.6,0.7,7.3,1.5
		c1.7,0.5,3.4,0.4,4.6-0.5c0.6-0.4,1-1,1.4-1.6c1-1.8,1.4-4,2.7-5.4c0.9-0.9,2.2-1.5,3.6-1.8c1.7-0.3,3.5-0.1,4.9,0.8
		c0.6,0.3,1.1,0.8,1.5,1.3c0.5,0.6,0.9,1.2,1.4,1.7c1.4,1.6,3.2,2.9,5,4c1,0.5,1.9,1,2.9,1.5c1.2,0.7,2.4,1.5,3.6,2.2
		c1.4,0.7,2.8,1.3,4.2,2c1.3,0.6,2.6,1.2,3.9,1.6c3.3,1.1,6.8,1,10.3,0.8c2.4-0.1,4.8-0.3,7.1-1c1.8-0.6,3.5-1.5,5.3-2.1
		c1.2-0.4,2.4-0.7,3.6-1c1.5-0.4,2.9-0.8,4.3-1.4c1.6-0.8,3.1-2,4.8-2.4c1.3-0.3,2.6-0.3,4-0.1c1.3,0.2,2.7,0.7,3.7,1.5
		s1.7,1.9,2.1,3c0.6,1.6,0.7,3.4,1.1,5c0.3,0.9,0.7,1.8,0.9,2.8c0.1,0.6,0.1,1.2,0.1,1.8"/>
</g>
<g id="SPLINE_47_">
	<path class="st0" d="M230.1,417c-1.2,0.9-2.1,1.9-2.3,3.1c-0.3,1.9,0.7,4.4,2.3,5.3c1.8,0.9,4.5-0.4,6.4,0.5c1.7,0.7,2.9,3,2.7,4.8
		c-0.2,1.5-1.5,2.6-2.9,3.7c-1.5,1.1-3.1,2.2-3.3,3.6c-0.2,1.1,0.5,2.3,0.9,3.6c0.7,2,0.8,4,0.4,5.9c-0.3,1.5-1,2.9-1.3,4.5
		c-0.4,2.2,0,4.8,1.3,6.2c1.5,1.6,4.1,1.5,6.7,2.5c2.6,1,5.1,2.9,6.9,2.7"/>
</g>
<g id="LINE_96_">
	<line class="st0" x1="270" y1="431.4" x2="270.5" y2="428.3"/>
</g>
<g id="SPLINE_48_">
	<path class="st0" d="M559.7,312.9c0.2-1,0.6-2,1.2-2.8c0.5-0.8,1.2-1.4,1.9-2"/>
</g>
<g id="LINE_97_">
	<line class="st0" x1="532.5" y1="417.8" x2="518.1" y2="396.8"/>
</g>
<g id="SPLINE_49_">
	<path class="st0" d="M469.2,258.5c1.4-0.8,3-1.4,4.6-1.7c1.2-0.3,2.4-0.4,3.5-0.6c1.6-0.3,3.2-0.6,4.7-1"/>
</g>
<g id="LINE_98_">
	<line class="st0" x1="574.6" y1="467.1" x2="580.7" y2="466.3"/>
</g>
<g id="SPLINE_50_">
	<path class="st0" d="M263.6,320c-0.7-0.9-1.3-1.8-1.1-2.8c0.1-0.8,0.6-1.6,1.4-2.3c1.7-1.7,4.3-2.6,4.6-4.3
		c0.2-1.3-0.9-2.9-1.6-4.5c-1.3-2.8-1.5-5.4-1.4-8.1c0.1-1.6,0.3-3.2,0.6-4.8c0.3-1.2,0.7-2.4,0.9-3.6c0.3-1.5,0.6-3,1.4-4.2
		c0.7-1,1.9-1.7,3.1-2.2c1.4-0.6,2.9-0.9,4.5-1c1.9-0.1,4,0,5.3,1.1c1.2,1,1.8,2.7,2.4,4.3c1,2.4,2.4,4.4,3.1,6.7
		c0.5,1.5,0.7,3.2,0.8,4.8c0.1,1.4,0.3,2.7,0.5,4.1c0.3,2.1,0.9,4.4,0.4,6.3s-2.2,3.4-3.5,5.1c-1.2,1.5-2.2,3.1-2.4,5
		c-0.1,1.3,0.3,2.7,1,3.7c1.5,2,4.8,2.4,7.5,2c1.6-0.2,2.9-0.7,4.3-1.3c3-1.2,5.9-2.7,8.5-4.6c1.3-1,2.5-2.1,3.5-3.4s1.8-3,1.8-4.5
		c0-2.5-2.2-4.7-4.2-6.7c-1.2-1.3-2.3-2.4-3.5-3.6c-1.2-1.3-2.5-2.5-3.7-3.9c-1.1-1.3-2.2-2.6-2.8-4.1c-0.5-1.4-0.7-2.9-0.7-4.4
		c-0.1-1.3,0-2.5,0.2-3.7c0.8-4,4-6.9,6.4-10.8c0.6-1,1.2-2.1,1.4-3.2"/>
</g>
<g id="SPLINE_51_">
	<path class="st0" d="M472.9,385.9c-0.6-2-0.7-4.1,0.2-6.5c0.8-2,2.3-4.2,1.5-5.3c-0.5-0.7-2.2-0.9-3.6-1.4c-2-0.7-3.5-1.9-5.1-1.8
		c-1.4,0.1-2.8,1.2-4.3,2c-1.3,0.6-2.7,1-3.9,0.7c-1.7-0.4-3-2.2-3.6-4.1c-0.7-2-0.5-4.2,0.3-5.9c1.2-2.5,3.8-4.2,4.9-7.1
		c0.5-1.3,0.6-2.9,0-3.9c-0.7-1.2-2.5-1.6-4-2.1s-2.8-1-4.1-1.7c-1.5-0.8-3.2-1.7-3.9-3.2c-0.9-1.7-0.6-4,0.4-5.8s2.8-3,4.8-3.7
		c2-0.8,4.3-1.2,5.6-2.8c0.9-1,1.4-2.6,1.1-4c-0.1-0.6-0.4-1.2-0.7-1.7c-1-1.6-2.7-2.7-4.2-4c-1.3-1.1-2.4-2.4-2.8-3.9
		c-0.1-0.2-0.1-0.4-0.1-0.7"/>
</g>
<g id="SPLINE_52_">
	<path class="st0" d="M445.8,187.3c0.2-1.3,0.1-3.5,0.4-4.7c0.1-0.3,0.2-0.7,0.3-1c0.6-1.6,1.3-3.2,2.5-4.4c0.8-0.8,1.8-1.4,2.8-2.1
		c0.7-0.5,1.4-1.1,2.1-1.7c0.9-0.7,1.8-1.3,2.7-2c2.5-2.1,4.2-4.9,5.7-7.8c1.8-3.5,3.2-7.1,3.9-10.9c0.4-2.3,0.6-4.6,0.5-7
		c-0.1-2.3-0.5-4.6-0.6-6.9c-0.1-1.4-0.1-2.7,0-4.1c0.1-2.4,0.2-4.7,0.4-7.1"/>
</g>
<g id="LINE_99_">
	<line class="st0" x1="282.2" y1="253.5" x2="279.5" y2="258.2"/>
</g>
<g id="SPLINE_53_">
	<path class="st0" d="M451.4,319c0.1-1.2,0.3-3.3,1-4.4c1.2-1.8,3.1-3.2,5.1-3.3c1.1-0.1,2.3,0.3,3.4,0.4c2,0.2,3.9-0.4,6-0.4
		c0.6,0,1.3,0.1,1.8-0.1c1.5-0.5,1.8-2.9,1.9-4.7c0.1-1,0.1-1.8-0.1-2.7c-0.3-2.1-1.4-4.3-1.2-6.4c0.1-1.2,0.6-2.4,1.4-3.4
		c1.4-1.8,3.6-3.2,5.7-3c1,0.1,1.9,0.6,2.7,1.1c1.5,0.9,2.8,2.1,4,3.2c1,0.9,2,1.9,3.4,2.4c1,0.3,2.3,0.5,2.9,0
		c0.8-0.7,0.5-2.5,1-3.6c0.5-1.2,2-1.6,2.8-2.5c1.3-1.3,1.3-3.5,2.4-5c1.2-1.6,3.5-2.4,5.5-2.1c1.5,0.2,2.9,1,4,2.1
		c0.8,0.8,1.4,1.8,1.8,2.9c0.4,1,0.7,2,1.2,3c0.7,1.6,1.9,3.2,3.5,3.6c1,0.3,2.3,0.1,3.2-0.4c1.5-0.8,2.5-2.3,3.9-3.3
		c1.7-1.2,3.9-1.7,6-1.4c1.4,0.2,2.7,0.9,3.6,1.9c1.7,1.9,2.1,5.1,4.1,6.2c1.9,1,5.1,0.3,6.5-0.3c0.4-0.2,0.6-0.3,1-0.3
		c0.5,0,1.3,0.3,2,0.4c0.7,0.2,1.4,0.2,2,0.3c1.1,0.1,2.1,0.2,3.1,0c0.8-0.2,1.4-0.5,2.2-1c0.5-0.3,1-0.7,1.6-0.9
		c0.6-0.1,1.3,0.1,2,0.1c1.3,0.1,2.5-0.2,3.7-0.2c0.8,0,1.7,0.2,2.3,0.7c1.3,0.9,1.5,3,1.8,4.7c0.1,0.9,0.3,1.7,0.6,2.6
		c0.2,0.5,0.3,1.1,0.4,1.6"/>
</g>
<g id="SPLINE_54_">
	<path class="st0" d="M354.6,419.2c1,2.3,1.9,4.6,2.7,7c0.4,1.4,0.8,2.9,1.7,3.9c0.4,0.4,0.8,0.8,1.3,1.2"/>
</g>
<g id="SPLINE_55_">
	<path class="st0" d="M234.1,158.5c0,0.1-0.4,1-0.5,1.1c-0.3,1.2-0.2,2.5,0.1,3.7c0.3,1.4,1,2.7,1.1,4.1c0,0.5-0.1,1-0.2,1.5
		c-0.3,1-0.7,2-1.3,2.9c-2.6,3.7-7.3,5.7-9.6,9.5c-0.9,1.5-1.4,3.3-1.6,5.2c-0.3,3.1,0.4,6.4,2.2,8.7c1,1.3,2.3,2.3,3.6,3.2
		c1.4,1,2.8,2.1,4.4,2.8c1.3,0.6,2.7,1.1,4.1,1.5c1.1,0.3,2.1,0.5,3.2,0.8c1.6,0.4,3.2,1.1,4.4,2.1c0.4,0.3,0.7,0.6,1,1
		c2.4,2.5,4.8,5,6.9,7.8c0.5,0.7,1,1.4,1.6,2c1.2,1.3,2.6,2.4,3.8,3.7c0.6,0.6,1.2,1.3,1.9,1.6c0.9,0.5,2.1,0.4,3.3,0.3
		c1-0.1,2-0.4,2.9-0.8c1.5-0.7,3-1.9,3.8-3.3c0.4-0.7,0.6-1.5,1-2.3c0.3-0.5,0.6-1,0.9-1.5"/>
</g>
<g id="SPLINE_56_">
	<path class="st0" d="M354.6,337.1C354.6,337.1,354.6,337,354.6,337.1c-0.1-0.8,0-1.6-0.1-2.3c-0.1-1.1-0.6-2.2-1.1-3.3
		c-0.6-1.4-1.1-2.8-2.2-3.8c-0.7-0.7-1.7-1.1-2.7-1.2c-1.2-0.2-2.5-0.1-3.6,0.4c-1.4,0.6-2.6,1.6-3.5,2.8c-1.5,2.1-2,4.7-2.9,7
		c-0.6,1.5-1.4,2.8-2.3,4.3c-0.8,1.4-1.7,2.8-3,3.4c-1.2,0.5-2.8,0.2-4.1-0.4c-0.9-0.4-1.7-1.1-2.2-1.9c-0.8-1.3-0.7-3-1-4.5
		c-0.3-2.2-1.2-4.1-1.8-6.1c-0.5-1.9-0.7-3.8-1.2-5.8c-0.5-2.1-1.4-4.1-2.8-5.6c-0.9-1-2.1-1.8-3.3-2.4c-1.4-0.7-3-1.1-4.5-1
		s-3,0.8-4.4,1.6c-1.4,0.7-2.7,1.5-3.9,2.5c-1.8,1.4-3.3,3.3-5.2,4.5c-1.2,0.8-2.6,1.3-4,2c-1.9,1-3.7,2.3-5.6,3.3
		c-1.6,0.8-3.3,1.4-4.9,2.3c-1.8,1-3.3,2.4-4.9,3.7c-1.7,1.4-3.4,2.7-5.3,3.8c-0.5,0.3-0.9,0.5-1.3,0.8c-1.9,1.4-3,3.7-3.6,6
		c-0.5,2.1-0.6,4.1-1.3,6.3c-0.6,1.8-1.6,3.7-1.4,5.4"/>
</g>
<g id="SPLINE_57_">
	<path class="st0" d="M328.8,313.8c-0.3-0.9-1-2.6-1.1-3.6c-0.5-3.4,0.1-7.2-2-9.7c-0.5-0.6-1.2-1.1-1.9-1.4
		c-1.2-0.5-2.5-0.3-3.8-0.1c-2.8,0.4-5.4,1.1-8.1,1.9c-1.9,0.6-3.9,1.3-6,1c-1-0.1-2.1-0.4-2.7-1.1c-0.5-0.6-0.7-1.5-0.9-2.4
		c-1.4-7.4-3.2-14.4-1.2-21.1c0.3-1,0.7-2,1.3-2.9c1.1-1.5,3-2.7,4.8-2.9c1.9-0.2,3.8,0.5,5.6,1.3c1.9,0.8,3.8,1.5,5.9,1.7
		c1.1,0.1,2.3,0,3.3-0.6c0.7-0.4,1.3-1.1,1.8-1.8c1.2-1.9,1.5-4.2,2-6.5c0.3-1.3,0.6-2.7,1.2-3.9c1-2.2,2.7-4.2,4.5-5.8
		c1.4-1.3,3-2.4,4.6-3.4c2.4-1.6,4.9-3.1,7.6-3.8c1.9-0.5,4-0.5,6-0.8c4.3-0.5,8.5-1.7,12.7-1.6c1.4,0,2.7,0.2,4.1,0.3
		c1.7,0.1,3.4-0.1,5.1-0.1c1.8,0,3.5,0.3,5.3,0.6c1.5,0.2,3,0.4,4.5,0.7c1.8,0.3,3.6,0.7,5.3,1.1c4,1.1,7.9,2.6,11.7,4.2
		c2,0.8,4,1.6,6,2.3c1.7,0.6,3.3,1.1,4.9,1.8c1.2,0.6,2.4,1.4,3.6,2.1c1,0.6,2,1.2,2.7,2c0.7,0.7,1.2,1.6,1.2,2.6
		c0,0.4,0,0.7-0.1,1.1c-0.3,1.1-1.2,2-2.2,2.6c-0.8,0.5-1.7,0.8-2.6,0.8c-0.6,0-1.3-0.2-1.9-0.4c-0.9-0.2-1.7-0.4-2.6-0.7
		c-1.4-0.4-2.7-0.8-4-1.4c-0.7-0.3-1.4-0.6-2.1-0.9c-2.5-1.1-5-2.2-7.5-3.2c-6.5-2.5-13.4-4.1-20.3-5c-3.4-0.4-6.8-0.7-10.2-0.7
		c-1,0-2,0-3,0c-1.2,0-2.4,0-3.6,0.1c-2.8,0.1-5.6,0.6-8.4,1.2c-2.5,0.5-5.2,1.2-7,2.8c-1.2,1.1-2,2.6-2.8,4.2
		c-0.9,1.8-1.7,3.5-2.2,5.3c-0.8,2.7-1,5.5-1.1,8.4c-0.1,1.2-0.1,2.3-0.2,3.5"/>
</g>
<g id="SPLINE_58_">
	<path class="st0" d="M396.1,376.1c-0.2-0.1-1-0.9-1.2-1c-0.9-0.7-1.7-1.4-2.6-2c-0.5-0.4-1.1-0.8-1.6-1.2"/>
</g>
<g id="SPLINE_59_">
	<path class="st0" d="M349.6,123.2c-2.2,1-5.6,2.3-7.8,3.6c-2.1,1.2-4,2.6-5.6,4.4c-1,1.1-1.8,2.5-1.8,4c0,1.3,0.6,2.7,1.5,3.3
		c1.3,0.8,3.2,0.2,4.9-0.4c2.6-1,4.6-2,6.8-3.1c2.6-1.4,5.4-3.1,8.2-4.5c1.5-0.8,3.1-1.4,4.6-2.1c1.5-0.7,3.1-1.3,4.7-1.9
		c1.8-0.7,3.7-1.4,5.6-2c2.2-0.6,4.5-1.1,6.8-1.3c1.6-0.1,3.2-0.2,4.9-0.1c1.2,0,2.5,0.1,3.6,0.5c0.8,0.3,1.6,0.8,2.3,1.3
		c1,0.7,1.9,1.4,2.7,2.3c1.2,1.3,2,2.8,2.8,4.4c0.5,1,0.9,2,1.4,3c0.3,0.6,0.6,1.3,0.9,1.9"/>
</g>
<g id="SPLINE_60_">
	<path class="st0" d="M446.5,226.2c-0.9,1.4-2.1,3.5-3,4.8c-1.3,2.1-2.7,4.1-4,6.2c-1.4,2.2-2.9,4.4-4.1,6.8
		c-0.9,1.7-1.7,3.4-2.5,5.2c-0.9,1.9-1.8,3.8-2,5.8c-0.1,0.9,0,1.8,0.3,2.7c0.4,1.2,1.3,2.4,2.5,2.8s2.6,0.3,3.7-0.3
		c1.5-0.8,2.5-2.4,3.4-3.8c1.1-1.8,2.3-3.5,3.2-5.4c1-2,1.9-4.1,2.9-6.2c0.5-1.1,1.1-2.2,1.8-3.3c0.9-1.5,2-2.9,2.9-4.4
		c0.8-1.3,1.5-2.6,2.3-4c0.5-0.8,1-1.7,1.6-2.5c0.8-1.1,1.6-2.1,2.5-3.1c1.4-1.7,2.9-3.3,4.3-5c1.4-1.6,2.7-3.3,4.5-4.6
		c0.8-0.6,1.7-1.1,2.4-1.9c0.4-0.4,0.7-0.9,1-1.4c0.8-0.9,1.9-1.5,3-2c2.3-1.2,4.6-2.3,7.1-2.7c1.2-0.2,2.5-0.2,3.8,0s2.7,0.5,3.9,1
		c1.8,0.9,3.4,2.3,5.1,3.3c0.5,0.3,0.9,0.5,1.4,0.7c2.3,1.3,4.3,3,6.3,4.7c0.1,0.1,0.1,0.1,0.2,0.2"/>
</g>
<g id="SPLINE_61_">
	<path class="st0" d="M422.5,406.1c-0.5,0.2-2.1,1.3-2.6,1.4c-2.8,0.4-5.8-0.9-8.8-0.8c-1,0-2,0.2-3,0.2c-0.9,0-1.8-0.2-2.8-0.4
		c-2.5-0.4-5-0.1-7.5,0.2c-3.9,0.5-7.8,1.2-11.4,2.7c-0.8,0.3-1.5,0.7-2.2,1.2c-1.1,0.8-1.9,1.9-2.8,2.9c-0.9,1.1-1.8,2.2-2.4,3.4
		c-1.1,2.2-1.3,5-1.5,6.5c-0.1,0.6-0.2,1-0.2,1.7s-0.1,1.8,0.2,2.9c0.2,0.8,0.4,1.6,0.5,2.2c0.1,2.1-3.1,1.3-3.9,1.7
		c-0.3,0.2-0.3,0.6-1,0.8c-0.5,0.2-1.5,0.4-2.1,0.8s-0.7,0.9-1,1.5c-0.4,0.9-1.2,1.6-1.8,2c-0.8,0.4-1.5,0.2-2.6,0.4
		c-0.6,0.1-1.4,0.4-2.1,0.3c-0.3,0-0.6-0.1-0.9-0.1c-1.3-0.1-2.3,0.7-3.6,0.9c-0.9,0.1-2.1-0.1-3,0c-1.3,0-2.1,0.5-3.3-0.1
		c-0.7-0.4-1.6-1.1-2.3-1.5c-0.6-0.3-1-0.3-1.5-0.5c-1.2-0.5-1.8-2.5-2.1-4.4c-0.1-0.8-0.2-1.7-0.5-2.4c-0.4-1.4-1.4-2.6-2.4-3.7
		c-0.7-0.8-1.4-1.5-2.1-2.2c-0.5-0.5-1-0.9-1.5-1.3c-1.3-1-2.6-2-4-3"/>
</g>
<g id="SPLINE_62_">
	<path class="st0" d="M418.4,386.2c-0.4,0.1-1.5,0.5-1.9,0.6c-2.8,0.8-5.5,1.9-8,3.2c-1.7,0.9-3.4,1.8-5.1,2.7c-1,0.5-2,1-3,1.5"/>
</g>
<g id="SPLINE_63_">
	<path class="st0" d="M543.9,187.7c-0.8,0.3-1.7,0.6-2.5,0.9c-1.9,0.8-3.6,1.7-5.5,2.4c-1.8,0.6-3.7,0.9-5.5,1.4
		c-1.5,0.4-3,0.8-4.5,0.6c-1.3-0.1-2.6-0.7-3.9-1.2c-2.6-1.2-5.1-2.3-7.7-3.5c-2-1-4-2-6.1-2.2c-1-0.1-2,0-3,0.1
		c-1.7,0.1-3.4,0.1-5,0.2c-0.7,0-1.4,0.1-2,0.2c-1.2,0.1-2.5,0.4-3.7,0.8c-1,0.3-2,0.7-2.9,1.1c-2.9,1.2-5.7,2.5-8.4,4.1
		c-1.3,0.7-2.5,1.6-3.9,1.7c-0.6,0.1-1.2,0-1.7,0"/>
</g>
<g id="LINE_100_">
	<line class="st0" x1="386.2" y1="137.1" x2="376.4" y2="140.4"/>
</g>
<g id="LINE_101_">
	<line class="st0" x1="376.4" y1="140.4" x2="379.4" y2="149"/>
</g>
<g id="LINE_102_">
	<line class="st0" x1="379.4" y1="149" x2="387.9" y2="146.1"/>
</g>
<g id="LINE_103_">
	<line class="st0" x1="316.4" y1="159.2" x2="325.3" y2="156.1"/>
</g>
<g id="LINE_104_">
	<line class="st0" x1="325.3" y1="156.1" x2="328.2" y2="164.7"/>
</g>
<g id="LINE_105_">
	<line class="st0" x1="328.2" y1="164.7" x2="318.9" y2="167.9"/>
</g>
<g id="SPLINE_64_">
	<path class="st0" d="M316.4,159.2c-0.2-1-0.3-2.1-0.5-3.1c-0.3-1.5-0.9-2.6-1.3-3.9c-0.5-1.6-0.7-3.3-0.5-4.5
		c0.1-0.8,0.4-1.3,1.1-2c0.5-0.5,1.2-1,2-1.3c1.4-0.5,3,0.2,4,0.9c0.8,0.5,1.2,1.1,2.1,1.6c0.5,0.3,1.2,0.5,1.9,0.6
		c0.8,0.1,1.6-0.1,2.4-0.3c1.4-0.3,2.8-0.3,4.2-0.6c2-0.4,3.8-1.1,5.7-1.6c2.2-0.6,4.3-0.9,6.4-1.4"/>
</g>
<g id="SPLINE_65_">
	<path class="st0" d="M387.9,146.1c0.1,0.1,0.1,0.2,0.2,0.3c0.9,1.6,0.5,3.6,0.8,5.2c0.2,1.1,0.8,2.1,1,3c0.4,1.3-0.1,2.4-0.8,3.4
		c-0.6,0.9-1.3,1.7-2.3,2.4c-0.8,0.5-1.8,0.8-2.8,1.1c-1.1,0.3-2.2,0.4-3.3,0.1c-1.5-0.5-2.9-1.9-4.6-2.2c-0.9-0.2-1.9-0.1-2.8,0.1
		c-1.1,0.2-2,0.6-3,0.9c-1.7,0.5-3.4,0.9-5,1.4c-2.8,0.8-5.6,1.9-8.4,2.7c-2.4,0.7-4.8,1.1-7.2,1.5c-2.1,0.3-4.2,0.4-6,0.8
		c-1.5,0.3-2.7,0.8-4.3,1.7c-1.9,1-4.3,2.6-5.7,3.8c-1.3,1.2-1.7,2.1-2.2,3.1c-0.6,1.2-1.5,2.6-2.8,3.3c-0.8,0.4-1.7,0.6-2.8,0.7
		c-1,0.1-2.1,0.1-2.8-0.4c-1-0.6-1-2.3-1.6-3.7c-0.8-2.1-2.6-3.8-2.7-6.3c0-0.3,0-0.6,0-1"/>
</g>
<g id="SPLINE_66_">
	<path class="st0" d="M325.7,163.6L325.7,163.6"/>
</g>
<g id="SPLINE_67_">
	<path class="st0" d="M343.9,143.7c1.2-0.3,1.5-0.4,1.8-0.5c3.1-0.7,6.1-1.4,9-2.5c1.3-0.5,2.6-1.1,3.9-1.6c3.1-1.3,6.3-2.2,9.3-4
		c1.3-0.8,2.6-1.9,3.4-3c0.4-0.6,0.7-1.2,0.9-2c0.2-0.6,0.5-1.4,0.9-1.9c0.7-0.8,1.8-0.9,3-1.1c0.8-0.1,1.6-0.4,2.3-0.4
		c1.2-0.1,1.7,0.2,2.4,1.2c0.6,0.8,1.3,1.9,2.1,3c1.5,2,3.3,3.9,3.5,6.3"/>
</g>
<g id="SPLINE_68_">
	<path class="st0" d="M349.2,313.4c0.5,0,1,0,1.5-0.2c0.7-0.2,1.3-0.7,1.9-1.2c0.7-0.6,1.3-1.4,1.5-2.2c0.5-1.6-0.3-3.4-0.1-5.1
		c0.1-0.7,0.4-1.4,0.3-2c0-0.6-0.3-1.1-0.3-1.7c-0.1-0.9,0.2-1.9,0.9-2.6c0.6-0.7,1.6-1,2.5-1c1.8-0.1,3.5,0.6,5.2,0.8
		c0.5,0,1,0,1.4,0c1-0.1,2-0.5,2.8-1.1c0.6-0.5,1.1-1,1.7-1.6c1.5-1.3,3.3-2.3,5.1-3.2c1.1-0.6,2.2-1.2,3.5-1.5
		c0.8-0.2,1.5-0.2,2.3-0.4c1-0.3,2-0.9,3.1-1.1c0.4-0.1,0.8-0.2,1.2-0.3c0.9-0.3,1.8-0.8,2.7-1.3c0.9-0.5,1.8-1,2.4-1.8
		c0.2-0.2,0.4-0.5,0.6-0.8c0.5-0.7,1.1-1.2,1.6-2c0.3-0.5,0.6-1,0.9-1.2c0.5-0.2,1.2,0.5,1.8,1c1.3,1,2.4,1.5,3.3,2.5
		c0.5,0.5,0.8,1.1,1.3,1.7c2.2,3,5,5.1,7,8.1c1.8,2.7,3,6.1,5.6,7.8c1.3,0.9,3.1,1.3,4.7,1.2c0.3,0,0.7,0,1-0.1
		c1.8-0.3,4-1.4,5.4-0.5c0.6,0.3,1,1,1.5,1.5c1.6,1.8,3.5,3.1,4.5,5.3c0.2,0.4,0.3,0.9,0.6,1.2c0.7,0.9,2.2,0.8,3.5,0.5
		c2.4-0.4,4.2-1.4,5.9-2.8c1-0.8,2-1.8,3.1-2.4c0.5-0.3,1-0.5,1.5-0.6c0.9-0.2,1.7-0.1,2.6,0c2.1,0.3,4.1,0.8,6.3,0.8
		c1.8,0,3.7-0.4,5-1.5c0.8-0.7,1.4-1.7,1.8-2.8c0.5-1.6,0.6-3.2,0.4-4.8c-0.2-1.4-0.7-2.7-0.9-4.2c-0.2-1.2-0.2-2.5-0.4-3.7
		c-0.1-0.3-0.1-0.6-0.2-0.8"/>
</g>
<g id="SPLINE_69_">
	<path class="st0" d="M349.2,314.4c2,0.4,4.1,0.3,6.1,0.1c1.5-0.1,2.9-0.3,4.4-0.4c5.9-0.6,11.8-0.5,17.7-1.2
		c3.8-0.5,7.6-1.3,11.3-2.5c3.4-1.1,6.6-2.6,9.9-3.6c1.2-0.4,2.4-0.7,3.6-1.2c2.1-0.8,4.3-1.8,6.4-1.4c0.3,0.1,0.6,0.1,0.9,0.2
		c0.5,0.2,1,0.4,1.6,0.6"/>
</g>
</svg>
