<?xml version="1.0" encoding="utf-8"?>
<!-- Generator: Adobe Illustrator 24.3.0, SVG Export Plug-In . SVG Version: 6.00 Build 0)  -->
<svg version="1.1" id="_x30_" xmlns="http://www.w3.org/2000/svg" xmlns:xlink="http://www.w3.org/1999/xlink" x="0px" y="0px"
	 viewBox="0 0 841.9 595.3" style="enable-background:new 0 0 841.9 595.3;" xml:space="preserve">
<style type="text/css">
	.st0{fill:none;stroke:#000000;stroke-width:0.7087;stroke-linecap:round;stroke-linejoin:round;stroke-miterlimit:10;}
</style>
<g id="LWPOLYLINE">
	<line class="st0" x1="299.5" y1="332.3" x2="345.5" y2="328"/>
</g>
<g id="LWPOLYLINE_1_">
	<line class="st0" x1="378.5" y1="325.8" x2="392.7" y2="320"/>
</g>
<g id="LWPOLYLINE_2_">
	<polyline class="st0" points="345.5,328 346.3,327.8 347.2,327.7 348.2,327.6 	"/>
</g>
<g id="LWPOLYLINE_3_">
	<line class="st0" x1="426.4" y1="325.2" x2="466.8" y2="332.4"/>
</g>
<g id="LWPOLYLINE_4_">
	<line class="st0" x1="300.9" y1="364.2" x2="343.9" y2="365.8"/>
</g>
<g id="LWPOLYLINE_5_">
	<line class="st0" x1="561.7" y1="313.4" x2="563.6" y2="325.3"/>
</g>
<g id="LWPOLYLINE_6_">
	<line class="st0" x1="547.9" y1="301.4" x2="540.2" y2="301.4"/>
</g>
<g id="LWPOLYLINE_7_">
	<polyline class="st0" points="519.6,323.5 519.6,321.9 529.9,310 	"/>
</g>
<g id="ARC">
	<path class="st0" d="M561.7,313.4c-1.6-6.5-7.1-11.3-13.8-12"/>
</g>
<g id="ARC_1_">
	<path class="st0" d="M540.2,301.4c-4.6,1.2-8.3,4.3-10.3,8.6"/>
</g>
<g id="LWPOLYLINE_8_">
	<polyline class="st0" points="496.1,334.7 495,334.7 493.9,334.7 492.8,334.7 491.7,334.6 490.6,334.6 489.5,334.6 488.4,334.5 
		487.4,334.5 486.3,334.4 485.2,334.3 484.1,334.3 483,334.2 481.6,334.1 480.3,334 478.9,333.8 477.6,333.7 476.2,333.6 
		474.9,333.4 473.5,333.2 472.2,333.1 470.8,332.9 469.5,332.7 468.1,332.5 466.8,332.4 	"/>
</g>
<g id="LWPOLYLINE_9_">
	<polyline class="st0" points="392.7,320 392.9,320 393.1,319.9 393.3,319.8 393.4,319.8 393.6,319.7 393.8,319.6 394,319.6 
		394.2,319.5 394.4,319.5 394.6,319.4 394.8,319.4 395,319.3 395.4,319.3 395.8,319.2 396.2,319.2 396.6,319.2 397,319.1 
		397.5,319.1 397.9,319.2 398.3,319.2 398.7,319.2 399.1,319.3 399.6,319.3 400,319.3 400.6,319.4 401.2,319.5 401.8,319.6 
		402.4,319.7 403,319.8 403.6,319.9 404.2,320.1 404.8,320.2 405.4,320.3 406,320.4 406.5,320.6 407.1,320.7 408.7,321.1 
		410.3,321.4 411.9,321.8 413.5,322.2 	"/>
</g>
<g id="LWPOLYLINE_10_">
	<polyline class="st0" points="563.6,325.3 564.4,325.3 566,335.9 565.4,335.9 	"/>
</g>
<g id="LWPOLYLINE_11_">
	<line class="st0" x1="378.5" y1="325.8" x2="378.2" y2="325.8"/>
</g>
<g id="LWPOLYLINE_12_">
	<line class="st0" x1="299.5" y1="332.3" x2="290.2" y2="332.3"/>
</g>
<g id="LWPOLYLINE_13_">
	<line class="st0" x1="300.9" y1="364.2" x2="289.5" y2="364.2"/>
</g>
<g id="LWPOLYLINE_14_">
	<polyline class="st0" points="283.9,336.6 284,336.4 284.1,336.2 284.1,336.1 284.2,335.9 284.2,335.8 284.3,335.6 284.4,335.5 
		284.4,335.3 284.5,335.2 284.6,335 284.6,334.9 284.7,334.7 284.9,334.5 285,334.3 285.2,334.1 285.4,333.9 285.6,333.7 
		285.8,333.5 286,333.3 286.2,333.1 286.4,333 286.6,332.8 286.9,332.7 287.1,332.6 287.3,332.5 287.6,332.5 287.8,332.4 
		288.1,332.4 288.3,332.3 288.6,332.3 288.9,332.3 289.1,332.3 289.4,332.3 289.6,332.3 289.9,332.3 290.2,332.3 	"/>
</g>
<g id="LWPOLYLINE_15_">
	<polyline class="st0" points="283.9,359.8 284,360 284,360.2 284.1,360.4 284.1,360.6 284.2,360.8 284.2,360.9 284.3,361.1 
		284.4,361.3 284.5,361.5 284.5,361.7 284.6,361.9 284.7,362 284.9,362.2 285,362.4 285.2,362.6 285.4,362.8 285.6,363 285.8,363.1 
		286,363.3 286.2,363.4 286.4,363.5 286.6,363.6 286.9,363.7 287.1,363.8 287.3,363.9 287.5,363.9 287.7,364 287.9,364 288.1,364.1 
		288.3,364.1 288.5,364.1 288.7,364.2 288.9,364.2 289.1,364.2 289.3,364.2 289.5,364.2 	"/>
</g>
<g id="LWPOLYLINE_16_">
	<line class="st0" x1="283.9" y1="336.6" x2="283.9" y2="340.7"/>
</g>
<g id="LWPOLYLINE_17_">
	<polyline class="st0" points="413.2,365.4 415.4,365.3 415.8,365.1 419.1,364.9 422.4,364.7 425.7,364.5 429,364.3 	"/>
</g>
<g id="LWPOLYLINE_18_">
	<line class="st0" x1="429" y1="364.3" x2="532.9" y2="354.5"/>
</g>
<g id="ARC_2_">
	<path class="st0" d="M533.7,353.4c-0.5,0.1-0.9,0.6-0.8,1.1"/>
</g>
<g id="ARC_3_">
	<path class="st0" d="M415.1,322.6c0.1-0.5-0.2-0.9-0.7-1c-0.4-0.1-0.9,0.2-1,0.6"/>
</g>
<g id="LWPOLYLINE_19_">
	<polyline class="st0" points="283.9,340.7 283.3,340.8 282.6,340.8 281.9,340.9 281.1,341 280.4,341.1 279.7,341.2 278.9,341.3 
		278.2,341.5 277.4,341.6 276.6,341.8 275.8,342 275,342.3 274,342.7 272.9,343 271.9,343.5 270.9,344 270,344.5 269.1,345 
		268.3,345.6 267.6,346.1 267,346.7 266.5,347.4 266.3,348 266.1,348.6 266.2,349.3 266.5,349.9 266.9,350.6 267.5,351.2 
		268.3,351.8 269.1,352.4 270,353 271,353.5 272,354 273.1,354.5 274.1,354.9 275.2,355.3 276,355.5 276.7,355.7 277.5,355.9 
		278.2,356.1 279,356.2 279.7,356.3 280.4,356.4 281.1,356.5 281.8,356.6 282.4,356.6 283.1,356.7 283.9,356.7 	"/>
</g>
<g id="LWPOLYLINE_20_">
	<polyline class="st0" points="415.1,322.6 416.7,323 418.3,323.4 419.9,323.8 421.5,324.2 423.1,324.6 424.7,325 426.2,325.3 	"/>
</g>
<g id="LWPOLYLINE_21_">
	<line class="st0" x1="426.2" y1="325.3" x2="426.4" y2="325.2"/>
</g>
<g id="LWPOLYLINE_22_">
	<line class="st0" x1="565.4" y1="335.9" x2="566.1" y2="339.9"/>
</g>
<g id="LINE">
	<polyline class="st0" points="496.1,334.7 519.6,334.8 519.6,333.1 	"/>
</g>
<g id="LINE_1_">
	<line class="st0" x1="441.3" y1="229.2" x2="425.8" y2="227.7"/>
</g>
<g id="LWPOLYLINE_23_">
	<line class="st0" x1="448.8" y1="231.8" x2="441.3" y2="229.2"/>
</g>
<g id="LWPOLYLINE_24_">
	<line class="st0" x1="565.9" y1="243.7" x2="448.8" y2="231.8"/>
</g>
<g id="LWPOLYLINE_25_">
	<line class="st0" x1="561.2" y1="283.7" x2="441" y2="297.5"/>
</g>
<g id="LWPOLYLINE_26_">
	<polyline class="st0" points="565.9,243.7 566,243.7 566.1,243.7 566.2,243.7 566.3,243.7 566.4,243.7 566.5,243.7 566.6,243.7 
		566.7,243.8 566.8,243.8 566.9,243.8 567,243.8 567.1,243.8 567.2,243.9 567.2,243.9 567.3,243.9 567.4,244 567.5,244 567.6,244 
		567.7,244.1 567.8,244.1 567.9,244.2 568,244.2 568.1,244.2 568.1,244.3 568.2,244.3 568.3,244.4 568.4,244.4 568.4,244.5 
		568.5,244.5 568.6,244.6 568.7,244.6 568.7,244.7 568.8,244.7 568.9,244.7 569,244.8 569,244.8 569.1,244.9 569.2,244.9 569.3,245 
		569.4,245 569.5,245.1 569.5,245.1 569.6,245.1 569.7,245.2 569.8,245.2 569.9,245.3 570,245.3 570,245.4 570.1,245.5 570.3,245.5 
		570.4,245.6 570.5,245.7 570.6,245.8 570.7,245.9 570.8,246 570.9,246.1 571,246.2 571.1,246.3 571.2,246.4 571.3,246.5 
		571.4,246.6 571.5,246.7 571.7,246.8 571.8,246.9 571.9,247 572,247.2 572.2,247.3 572.3,247.4 572.4,247.5 572.5,247.6 
		572.6,247.8 572.7,247.9 572.8,248 572.9,248.1 573,248.2 573.1,248.4 573.2,248.5 573.3,248.6 573.4,248.7 573.5,248.8 573.6,249 
		573.7,249.1 573.7,249.2 573.8,249.3 574,249.6 574.2,250 574.4,250.3 574.5,250.6 574.7,251 574.8,251.3 574.9,251.6 575.1,252 
		575.2,252.3 575.3,252.7 575.4,253 575.4,253.4 575.5,253.8 575.6,254.2 575.7,254.6 575.7,255 575.7,255.4 575.8,255.8 
		575.8,256.2 575.8,256.6 575.9,257 575.9,257.4 575.9,257.8 575.9,258.3 575.9,258.8 575.9,259.3 575.9,259.8 575.9,260.3 
		575.9,260.8 575.9,261.3 575.8,261.8 575.8,262.3 575.8,262.8 575.7,263.3 575.7,263.8 575.6,264.3 575.5,264.9 575.4,265.5 
		575.3,266.1 575.2,266.7 575.1,267.3 574.9,267.9 574.7,268.5 574.6,269.1 574.4,269.7 574.2,270.2 574,270.8 573.8,271.4 
		573.7,271.7 573.6,272.1 573.5,272.4 573.3,272.7 573.2,273 573.1,273.4 572.9,273.7 572.8,274 572.6,274.3 572.5,274.7 572.3,275 
		572.2,275.3 572,275.6 571.9,275.9 571.7,276.2 571.5,276.5 571.3,276.8 571.2,277.1 571,277.4 570.8,277.7 570.6,278 570.4,278.3 
		570.2,278.6 569.9,278.9 569.8,279.1 569.6,279.4 569.4,279.6 569.1,279.8 568.9,280.1 568.7,280.3 568.5,280.5 568.3,280.7 
		568.1,280.9 567.8,281.1 567.6,281.3 567.3,281.5 566.9,281.8 566.5,282 566,282.3 565.5,282.5 565,282.7 564.5,282.8 564,283 
		563.5,283.1 563,283.3 562.5,283.4 562,283.5 561.4,283.7 	"/>
</g>
<g id="ARC_4_">
	<path class="st0" d="M441,297.5c-8.2,4.2-13.7,13.1-14.9,22.2h-0.3"/>
</g>
<g id="LINE_2_">
	<line class="st0" x1="400.6" y1="229.2" x2="416.2" y2="227.7"/>
</g>
<g id="LWPOLYLINE_27_">
	<line class="st0" x1="393.2" y1="231.8" x2="400.6" y2="229.2"/>
</g>
<g id="LWPOLYLINE_28_">
	<line class="st0" x1="276.1" y1="243.7" x2="348.2" y2="236.3"/>
</g>
<g id="LWPOLYLINE_29_">
	<line class="st0" x1="280.8" y1="283.7" x2="348.2" y2="291.4"/>
</g>
<g id="LWPOLYLINE_30_">
	<polyline class="st0" points="276.1,243.7 276,243.7 275.9,243.7 275.8,243.7 275.7,243.7 275.6,243.7 275.5,243.7 275.4,243.7 
		275.3,243.8 275.2,243.8 275.1,243.8 275,243.8 274.9,243.8 274.8,243.9 274.8,243.9 274.7,243.9 274.6,244 274.5,244 274.4,244 
		274.3,244.1 274.2,244.1 274.1,244.2 274,244.2 273.9,244.2 273.9,244.3 273.8,244.3 273.7,244.4 273.6,244.4 273.6,244.5 
		273.5,244.5 273.4,244.6 273.3,244.6 273.3,244.7 273.2,244.7 273.1,244.7 273,244.8 273,244.8 272.9,244.9 272.8,244.9 272.7,245 
		272.6,245 272.5,245.1 272.5,245.1 272.4,245.1 272.3,245.2 272.2,245.2 272.1,245.3 272,245.3 272,245.4 271.8,245.5 271.7,245.5 
		271.6,245.6 271.5,245.7 271.4,245.8 271.3,245.9 271.2,246 271.1,246.1 271,246.2 270.9,246.3 270.8,246.4 270.7,246.5 
		270.6,246.6 270.5,246.7 270.3,246.8 270.2,246.9 270.1,247 270,247.2 269.8,247.3 269.7,247.4 269.6,247.5 269.5,247.6 
		269.4,247.8 269.3,247.9 269.2,248 269.1,248.1 269,248.2 268.9,248.4 268.8,248.5 268.7,248.6 268.6,248.7 268.5,248.8 268.4,249 
		268.3,249.1 268.3,249.2 268.2,249.3 268,249.6 267.8,250 267.6,250.3 267.5,250.6 267.3,251 267.2,251.3 267.1,251.6 266.9,252 
		266.8,252.3 266.7,252.7 266.6,253 266.6,253.4 266.5,253.8 266.4,254.2 266.3,254.6 266.3,255 266.3,255.4 266.2,255.8 
		266.2,256.2 266.2,256.6 266.1,257 266.1,257.4 266.1,257.8 266.1,258.3 266.1,258.8 266.1,259.3 266.1,259.8 266.1,260.3 
		266.1,260.8 266.1,261.3 266.2,261.8 266.2,262.3 266.2,262.8 266.3,263.3 266.3,263.8 266.4,264.3 266.5,264.9 266.6,265.5 
		266.7,266.1 266.8,266.7 266.9,267.3 267.1,267.9 267.3,268.5 267.4,269.1 267.6,269.7 267.8,270.2 268,270.8 268.2,271.4 
		268.3,271.7 268.4,272.1 268.5,272.4 268.7,272.7 268.8,273 268.9,273.4 269.1,273.7 269.2,274 269.4,274.3 269.5,274.7 269.6,275 
		269.8,275.3 270,275.6 270.1,275.9 270.3,276.2 270.5,276.5 270.7,276.8 270.8,277.1 271,277.4 271.2,277.7 271.4,278 271.6,278.3 
		271.8,278.6 272.1,278.9 272.2,279.1 272.4,279.4 272.6,279.6 272.8,279.8 273.1,280.1 273.3,280.3 273.5,280.5 273.7,280.7 
		273.9,280.9 274.2,281.1 274.4,281.3 274.7,281.5 275.1,281.8 275.5,282 276,282.3 276.5,282.5 277,282.7 277.5,282.8 278,283 
		278.5,283.1 279,283.3 279.5,283.4 280,283.5 280.6,283.7 	"/>
</g>
<g id="ARC_5_">
	<path class="st0" d="M416.2,319.7h-0.5c-1.3-9.1-6.5-18-14.6-22.2"/>
</g>
<g id="LWPOLYLINE_31_">
	<line class="st0" x1="348.2" y1="297.5" x2="348.2" y2="297.5"/>
</g>
<g id="LINE_5_">
	<line class="st0" x1="336.9" y1="311.1" x2="336.9" y2="297.5"/>
</g>
<g id="LINE_6_">
	<line class="st0" x1="327.3" y1="311.1" x2="336.9" y2="311.1"/>
</g>
<g id="LINE_7_">
	<line class="st0" x1="327.3" y1="297.5" x2="327.3" y2="311.1"/>
</g>
<g id="LWPOLYLINE_32_">
	<line class="st0" x1="315.9" y1="297.5" x2="327.3" y2="297.5"/>
</g>
<g id="LWPOLYLINE_33_">
	<line class="st0" x1="281.4" y1="305.1" x2="281.4" y2="309.4"/>
</g>
<g id="LWPOLYLINE_34_">
	<polyline class="st0" points="281.4,309.4 281.4,309.6 281.4,309.8 281.4,310 281.4,310.2 281.4,310.4 281.4,310.6 281.4,310.8 
		281.4,311 281.4,311.2 281.4,311.4 281.4,311.6 281.4,311.8 281.5,312.3 281.5,312.8 281.6,313.3 281.7,313.8 281.8,314.3 
		281.9,314.8 282,315.3 282.2,315.7 282.4,316.2 282.6,316.6 282.9,316.9 283.2,317.3 283.5,317.6 283.8,317.8 284.2,318 
		284.6,318.2 285,318.4 285.4,318.5 285.8,318.7 286.3,318.8 286.8,318.9 287.2,319 287.7,319.1 288.2,319.2 	"/>
</g>
<g id="LWPOLYLINE_35_">
	<line class="st0" x1="288.2" y1="319.2" x2="326.1" y2="323.8"/>
</g>
<g id="ARC_6_">
	<path class="st0" d="M290.2,297.5c-4.3,0.2-7.9,3.3-8.7,7.6"/>
</g>
<g id="LWPOLYLINE_36_">
	<polyline class="st0" points="306.4,297.5 306.7,297.1 315.6,297.1 315.9,297.5 	"/>
</g>
<g id="LWPOLYLINE_37_">
	<line class="st0" x1="290.2" y1="297.5" x2="306.4" y2="297.5"/>
</g>
<g id="LWPOLYLINE_38_">
	<line class="st0" x1="382.7" y1="305.1" x2="382.7" y2="309.4"/>
</g>
<g id="LWPOLYLINE_39_">
	<polyline class="st0" points="382.7,309.4 382.7,309.6 382.7,309.8 382.7,310 382.7,310.2 382.7,310.4 382.7,310.6 382.7,310.8 
		382.7,311 382.7,311.2 382.7,311.4 382.7,311.6 382.7,311.8 382.7,312.3 382.6,312.8 382.6,313.3 382.5,313.8 382.4,314.3 
		382.3,314.8 382.1,315.3 381.9,315.7 381.7,316.2 381.5,316.6 381.2,316.9 380.9,317.3 380.6,317.6 380.3,317.8 379.9,318 
		379.6,318.2 379.2,318.4 378.7,318.5 378.3,318.7 377.8,318.8 377.4,318.9 376.9,319 376.5,319.1 376,319.2 	"/>
</g>
<g id="LWPOLYLINE_40_">
	<line class="st0" x1="376" y1="319.2" x2="348.2" y2="322.6"/>
</g>
<g id="ARC_7_">
	<path class="st0" d="M382.7,305.1c-0.8-4.2-4.4-7.4-8.7-7.6"/>
</g>
<g id="LWPOLYLINE_41_">
	<polyline class="st0" points="357.8,297.5 357.5,297.1 348.5,297.1 348.2,297.5 	"/>
</g>
<g id="LWPOLYLINE_42_">
	<line class="st0" x1="374" y1="297.5" x2="357.8" y2="297.5"/>
</g>
<g id="LWPOLYLINE_43_">
	<line class="st0" x1="326.1" y1="323.8" x2="327.2" y2="324.6"/>
</g>
<g id="LWPOLYLINE_44_">
	<line class="st0" x1="338" y1="323.8" x2="336.9" y2="324.6"/>
</g>
<g id="LINE_8_">
	<line class="st0" x1="327.2" y1="324.6" x2="336.9" y2="324.6"/>
</g>
<g id="LINE_9_">
	<line class="st0" x1="413.2" y1="365.4" x2="410.3" y2="356"/>
</g>
<g id="LINE_10_">
	<line class="st0" x1="410.3" y1="356" x2="380.3" y2="356"/>
</g>
<g id="LINE_11_">
	<line class="st0" x1="346.7" y1="356" x2="343.9" y2="365.8"/>
</g>
<g id="LINE_12_">
	<line class="st0" x1="425.8" y1="319.7" x2="425.8" y2="297.5"/>
</g>
<g id="LINE_13_">
	<line class="st0" x1="425.8" y1="297.5" x2="416.2" y2="297.5"/>
</g>
<g id="LINE_14_">
	<line class="st0" x1="416.2" y1="297.5" x2="416.2" y2="319.7"/>
</g>
<g id="LINE_15_">
	<line class="st0" x1="425.8" y1="227.7" x2="425.8" y2="233.9"/>
</g>
<g id="LINE_16_">
	<line class="st0" x1="425.8" y1="233.9" x2="416.2" y2="233.9"/>
</g>
<g id="LINE_17_">
	<line class="st0" x1="416.2" y1="233.9" x2="416.2" y2="227.7"/>
</g>
<g id="LWPOLYLINE_45_">
	<line class="st0" x1="283.9" y1="356.7" x2="283.9" y2="359.8"/>
</g>
<g id="LWPOLYLINE_46_">
	<line class="st0" x1="544.1" y1="353.4" x2="550" y2="352.9"/>
</g>
<g id="LWPOLYLINE_47_">
	<line class="st0" x1="533.7" y1="353.4" x2="534.2" y2="353.4"/>
</g>
<g id="ARC_8_">
	<path class="st0" d="M544.1,353.4c-0.1-0.5-0.6-0.9-1.1-0.8"/>
</g>
<g id="ARC_9_">
	<path class="st0" d="M534.2,353.4c0.2,2.4,2.3,4.1,4.7,3.9c2.3-0.2,4.1-2.3,3.9-4.6"/>
</g>
<g id="LWPOLYLINE_48_">
	<line class="st0" x1="542.8" y1="352.7" x2="543" y2="352.7"/>
</g>
<g id="LWPOLYLINE_49_">
	<polyline class="st0" points="566.1,339.9 566.1,340.3 566,340.7 565.9,341 565.9,341.4 565.8,341.8 565.7,342.1 565.7,342.5 
		565.6,342.9 565.5,343.2 565.4,343.6 565.3,343.9 565.2,344.2 565,344.7 564.8,345.1 564.6,345.5 564.4,345.8 564.1,346.2 
		563.8,346.6 563.5,346.9 563.2,347.3 562.9,347.6 562.5,347.9 562.1,348.3 561.6,348.6 560.6,349.2 559.4,349.8 558.2,350.4 
		556.9,350.9 555.6,351.3 554.4,351.7 553.2,352.1 552.2,352.4 551.3,352.6 550.6,352.8 550.2,352.9 550,352.9 	"/>
</g>
<g id="LINE_18_">
	<line class="st0" x1="362.9" y1="356" x2="362.9" y2="365.8"/>
</g>
<g id="LINE_19_">
	<line class="st0" x1="362.9" y1="365.8" x2="380.3" y2="365.8"/>
</g>
<g id="LINE_20_">
	<line class="st0" x1="380.3" y1="365.8" x2="380.3" y2="356"/>
</g>
<g id="LINE_21_">
	<line class="st0" x1="416.2" y1="250.2" x2="416.2" y2="267.6"/>
</g>
<g id="LINE_22_">
	<line class="st0" x1="416.2" y1="267.6" x2="425.8" y2="267.6"/>
</g>
<g id="LINE_23_">
	<line class="st0" x1="425.8" y1="267.6" x2="425.8" y2="250.2"/>
</g>
<g id="LINE_24_">
	<line class="st0" x1="425.8" y1="250.2" x2="416.2" y2="250.2"/>
</g>
<g id="LINE_25_">
	<line class="st0" x1="346.7" y1="356" x2="348.2" y2="356"/>
</g>
<g id="LWPOLYLINE_50_">
	<line class="st0" x1="348.2" y1="236.3" x2="393.2" y2="231.8"/>
</g>
<g id="LWPOLYLINE_51_">
	<line class="st0" x1="348.2" y1="291.4" x2="401" y2="297.5"/>
</g>
<g id="LWPOLYLINE_52_">
	<line class="st0" x1="348.2" y1="297.5" x2="336.9" y2="297.5"/>
</g>
<g id="LWPOLYLINE_53_">
	<line class="st0" x1="348.2" y1="322.6" x2="338" y2="323.8"/>
</g>
<g id="LWPOLYLINE_54_">
	<polyline class="st0" points="348.2,327.6 348.9,327.5 349.7,327.3 350.6,327.2 351.5,327.1 352.3,327 353.2,326.9 354,326.8 
		354.9,326.7 355.7,326.6 357.6,326.4 359.5,326.3 361.3,326.2 363.2,326.1 365.1,326 367,325.9 368.9,325.9 370.7,325.8 
		372.6,325.8 374.5,325.8 376.4,325.8 378.3,325.8 	"/>
</g>
<g id="LINE_26_">
	<line class="st0" x1="348.2" y1="356" x2="362.9" y2="356"/>
</g>
<line class="st0" x1="465.6" y1="286" x2="465.6" y2="272.5"/>
<g id="LINE_27_">
	<line class="st0" x1="456" y1="286" x2="465.6" y2="286"/>
</g>
<line class="st0" x1="456" y1="272.5" x2="456" y2="286"/>
<line class="st0" x1="533.2" y1="323.5" x2="519.6" y2="323.5"/>
<g id="LINE_28_">
	<line class="st0" x1="533.2" y1="333.1" x2="533.2" y2="323.5"/>
</g>
<line class="st0" x1="519.6" y1="333.1" x2="533.2" y2="333.1"/>
</svg>
