<?xml version="1.0" encoding="utf-8"?>
<!-- Generator: Adobe Illustrator 24.3.0, SVG Export Plug-In . SVG Version: 6.00 Build 0)  -->
<svg version="1.1" id="Layer_1" xmlns="http://www.w3.org/2000/svg" xmlns:xlink="http://www.w3.org/1999/xlink" x="0px" y="0px"
	 viewBox="0 0 841.9 595.3" style="enable-background:new 0 0 841.9 595.3;" xml:space="preserve">
<style type="text/css">
	.st0{fill:none;stroke:#0000FF;stroke-width:0;stroke-miterlimit:10;}
</style>
<g>
	<polyline class="st0" points="-334.5,898.3 -334.3,897.5 -334,895.9 -334,895.9 -334,895.9 -334,893.6 -333.9,893.3 -333.9,893 
		-333.9,893 -333.9,893 -333.2,892.6 -332.9,892.3 -332.7,892 -332.3,891.4 -331.5,889.4 -331.5,889.4 -331.5,889.4 -331.1,887.9 
		-330.1,884.6 -329.4,882 -329.1,880.7 -328.8,879 -328.5,876.9 -328.3,875.4 -328.2,874.8 -327.7,868.3 -327.7,868.2 -327.7,868.2 
		-327.7,868.2 -327.8,865.6 -327.7,864.1 -327.7,864.1 -327.2,860.8 -327.2,860.8 -327.2,860.8 -325.8,855.9 -325.3,854.7 
		-325.2,854.5 -325.2,854.5 -325.2,854.5 -325.2,854.5 -322.4,849.1 -321.8,848.1 -317.2,839.4 -317.2,839.3 -316.8,838.4 
		-314.6,833.9 -313.8,832.3 -313.4,831.6 -313.1,831.1 -312.9,830.9 -312.2,830 -311.5,829.3 -311.5,829.3 -310.3,828.7 
		-310.3,828.7 -306.3,828.1 -306.3,828.1 -305.6,827.8 -305.6,827.8 -305.5,827.8 -304.6,827.4 -304.6,827.4 -303.2,826.1 
		-303.2,826.1 -301.8,824.3 -301.7,824.2 -300.2,821.6 -300.2,821.6 -298.8,818.7 -298.8,818.7 -296.6,813.3 -296.6,813.2 
		-296.6,813.2 -296.4,812.4 -296.5,812 -351.4,812 -351.4,804.1 -293.5,804.1 -292.8,802.2 -292.7,801.8 -289,791 -289,791 
		-289,791 -288.2,788.2 -287,784.2 -286.2,781.2 -284.8,775.9 -284.1,773.5 -283.9,772.2 -283.6,771.2 -283.4,770.3 -282.8,767.7 
		-281.7,762.7 -281.7,762.7 -281.7,762.7 -281.1,759.3 -281.2,758.8 -356.6,758.8 -356.6,750.9 -279.9,750.9 -279.8,750.5 
		-279.5,748.4 -279.5,748.3 -279.5,748.1 -279.1,744.3 -279,743.3 -279,742.7 -278.9,741.4 -278.8,739 -278.7,736.8 -278.6,735.7 
		-278.1,729.4 -278.1,729.4 -278.1,729.3 -278,723.7 -278,720.6 -278,717.6 -278,714.4 -278,712.9 -278,708.4 -278,707.3 
		-278,706.1 -278.2,705.7 -357.6,705.7 -357.6,697.8 -278.2,697.8 -278,697.3 -278,697.2 -278,695.9 -278,692.9 -278,689.3 
		-278,687.5 -278,683.8 -278,681.7 -278,680.4 -278,676.6 -278,672.8 -278,672.4 -278.1,668.1 -278.1,666.2 -278.1,662.1 
		-278.1,656.9 -278.1,655.3 -278.2,653.7 -278.2,653 -278.3,652.5 -353.3,652.5 -353.3,644.6 -278.7,644.6 -278.6,644.2 
		-278.9,640.3 -279,639.4 -279.1,637.8 -279.7,631.7 -279.7,631.6 -279.7,631.6 -280.4,626.2 -281,623 -281,623 -281.4,620.4 
		-281.9,617.7 -282.4,615 -283.2,611.8 -284,606.9 -284.1,606.8 -284.1,606.5 -284.6,602.9 -284.9,600.5 -285,599.8 -285.1,599.4 
		-343.1,599.4 -343.1,591.5 -286.7,591.5 -286.6,591 -286.8,590.1 -287.8,586 -288.3,583.8 -288.8,581.9 -289.3,580.4 -289.6,579.5 
		-290.2,578.2 -290.4,577.8 -291,576.8 -291,576.8 -291.6,576 -292.3,575.3 -292.3,575.3 -292.3,575.3 -294.3,573.7 -294.4,573.7 
		-294.4,573.7 -296.5,572.7 -296.6,572.7 -299.2,572.1 -299.2,572.1 -299.2,572.1 -300.8,571.7 -300.9,571.6 -301,571.4 -301,571.1 
		-301,571 -300.9,570.3 -300.5,567.6 -300.3,564.1 -300.2,563.4 -300.2,559.9 -300,552.3 -300,550.4 -300,546.7 -300.1,546.2 
		-328.4,546.2 -328.4,538.3 -299.5,538.3 -299.4,537.9 -299.3,537.5 -299,535.6 -298.2,531.2 -297.9,529.6 -297.9,529.3 
		-297.9,528.1 -297.9,527.2 -298.1,526.2 -298.3,525.6 -298.4,525.2 -298.7,524.8 -299.3,523.9 -299.4,523.8 -299.4,523.8 
		-300.1,523.2 -300.1,523.2 -301.3,522.5 -302.8,521.9 -302.8,521.9 -302.8,521.9 -302.8,521.9 -304.4,522 -305.1,522.1 
		-305.8,522.4 -306.8,522.8 -306.8,522.8 -307.5,523.2 -308.1,523.5 -308.1,523.5 -308.2,523.6 -312.7,526.9 -313.4,527.4 
		-313.8,527.8 -316,529.8 -316.2,529.9 -316.6,530.4 -318.8,532.8 -319.6,533.7 -319.6,533.7 -320.4,534.2 -320.6,534.3 
		-320.8,534.2 -321.1,534.3 -321.7,534.2 -321.7,534.2 -321.7,534.2 -321.7,534.2 -322.4,533.7 -323,533.2 -323,533.2 -323.1,533.1 
		-323.6,532 -323.8,531.2 -325.6,524.8 -325.6,524.8 -325.6,524.8 -325.6,524.8 -325.6,524.8 -326.3,523 -326.5,522.7 -326.8,522.4 
		-327.4,521.4 -328.4,520.4 -329.3,519.5 -329.9,519.1 -330.8,518.6 -330.8,518.6 -330.8,518.6 -330.8,518.6 -332.6,517.9 
		-333,517.8 -333.8,517.7 -334.3,517.6 -336,517.6 -336,517.6 -336,517.6 -337.5,517.8 -338.4,518.2 -338.6,518.2 -338.7,518.3 
		-338.7,518.3 -339.9,518.9 -340,519 -340,519 -340.2,519.1 -341.5,520.1 -341.6,520.1 -341.6,520.2 -343.2,521.7 -344.2,523 
		-348.2,529.1 -348.3,529.2 -348.3,529.3 -350.2,532.5 -351.6,534.6 -353.4,537.3 -353.9,538.2 -355.9,541.6 -356,541.7 -356,541.7 
		-356,541.7 -357.9,544.1 -359,545.4 -359,545.4 -359,545.4 -361.9,548.3 -364.4,551 -368.1,555 -368.8,555.8 -373.4,560.7 
		-375.2,562.6 -375.3,562.6 -380,567.8 -381.9,570 -383.4,571.7 -384.8,573.3 -388.1,577.3 -389.9,579.6 -391.5,581.6 -393.3,584 
		-394.1,585.1 -394.9,586.2 -396.4,588.3 -398.4,591.1 -399,592.1 -400.4,594.1 -400.4,594.2 -402.7,598.4 -402.7,598.4 
		-402.7,598.4 -403.5,599.7 -403.5,599.7 -404.3,600.6 -404.5,600.9 -405.5,601.7 -407.6,603.5 -409.6,605.3 -409.6,605.3 
		-411.3,607.1 -411.8,607.7 -413.3,609.7 -413.3,609.7 -415.1,612.3 -415.2,612.5 -415.3,612.7 -417.1,615.9 -417.1,616 
		-418.3,618.6 -418.5,619.2 -419.3,621.2 -419.7,622.5 -421.8,628.9 -422.8,632 -424.4,636.6 -424.5,636.6 -424.5,636.6 
		-424.5,636.6 -427.1,643.2 -427.9,645.2 -428.4,646.5 -429.1,649.1 -429.1,649.1 -429.1,649.1 -429.6,651.9 -429.6,653.8 
		-429.6,654.6 -429.7,654.8 -430.2,656.3 -430.2,656.3 -430.2,656.3 -431,658 -431,658 -432.1,661.1 -432.1,661.2 -433.1,665.1 
		-433.5,666.7 -434.2,670.1 -435.3,676.2 -435.8,679.2 -436.7,685.8 -436.7,685.8 -436.7,685.8 -437.3,691.1 -437.5,692.6 
		-437.6,694.2 -437.7,695.2 -437.7,695.9 -437.8,698.3 -437.9,699.8 -437.9,700.6 -437.9,701.1 -437.7,702.8 -437.7,702.9 
		-437.6,702.9 -437,705.2 -437,705.2 -436.9,706 -437,706.4 -437.7,707.8 -437.9,708.3 -438.5,710.3 -438.5,710.3 -438.5,710.3 
		-439,714.4 -439.2,716.7 -439.2,716.7 -439.2,716.7 -439.2,719.1 -439.2,721 -439.1,721.7 -438.8,726.7 -438.6,727.9 -438.2,731.7 
		-438,732.7 -437.1,738.5 -436.6,741.3 -435.7,745.7 -435.6,746.6 -435.5,746.8 -435.4,747.1 -435.3,747.7 -432.8,756.9 -432,759.4 
		-431.6,760.7 -430.1,764.9 -430.1,764.9 -430.1,764.9 -428.9,767.8 -428.6,768.3 -427.7,770.3 -427.7,770.3 -426.7,771.5 
		-425.5,772.9 -425.5,772.9 -425.5,772.9 -425.3,773.3 -425.2,773.6 -425.4,774.7 -425.7,776.2 -425.8,777 -425.8,777.1 
		-425.6,778.5 -425.6,778.7 -425.5,779.1 -425.1,780.6 -424.6,782.2 -424.5,782.4 -424.4,782.6 -423.9,783.6 -422.9,785.8 
		-422.8,785.8 -422.8,786 -421.2,788.3 -417.5,793.7 -413.7,799.2 -412.8,800.8 -411.4,802.9 -407.9,809.8 -407.9,809.8 
		-407.8,809.8 -405.6,813.7 -404.1,816.2 -400.4,822.3 -399.1,824.3 -396.9,827.7 -396.5,828.1 -396,828.5 -395.8,828.6 
		-395.8,828.6 -395.8,828.6 -394.2,829.4 -393.7,830 -393.7,830 -393.7,830 -392.6,832.4 -392.6,832.4 -392,834.3 -392,834.3 
		-391.8,835.5 -391.8,836.5 -391.8,837.6 -391.5,839 -391.5,839 -391.5,839 -391.5,839 -390.9,840.3 -390.9,840.4 -390,841.8 
		-389.7,842.4 -389.1,843.7 -388.2,845 -388.1,845.2 -388.1,845.2 -388,845.3 -387.4,846.2 -387.4,846.3 -387,846.5 -386.7,846.6 
		-386.4,846.7 -385.2,846.8 -385.1,846.8 -385,846.8 -384.4,847.1 -384.4,847.2 -384.4,847.2 -383.9,847.7 -383.9,847.8 
		-383.9,848.5 -383.9,848.6 -384,849.6 -384.3,850.5 -384.8,852 -386.1,856.1 -386.1,856.1 -386.1,856.1 -387.7,861.5 -389.1,865.1 
		-389.1,865.1 -390.9,870.2 -391.4,872 -391.4,872 -391.4,872.1 -391.4,872.1 -391.7,874.8 -391.7,876.2 -391.7,876.2 -391.4,877.3 
		-391.4,877.3 -391.4,877.3 -390.9,878.7 -390.9,879.3 -390.8,879.8 -391,882.1 -391,882.1 -391,882.1 -391,882.1 -393.4,895 
		-393.4,895 -393.4,895 -393.7,897.3 -394,900 -394.3,903.3 -394.6,907.2 -394.6,907.3 -394.6,907.3 -394.6,910.9 -394.5,913.3 
		-394.5,913.3 -394.5,913.3 -394.3,916.1 -394.1,917.1 -393.7,919.6 -393.7,919.7 -393.7,919.7 -393.1,921.6 -393,922.2 
		-392.6,923.5 -391.8,925.8 -391.1,929.4 -391.1,929.4 -391.1,929.4 -390.5,931.3 -389.8,933.2 -389.8,933.2 -389.8,933.3 
		-389.4,934.1 -388.4,936.3 -387.9,937.2 -387.2,938.1 -387.2,938.1 -387.2,938.2 -386.1,939.2 -384.8,940 -384.8,940 -383.7,940.5 
		-383.7,940.5 -382.6,940.8 -382.3,940.8 -380.5,940.9 -380.5,940.9 -380.5,940.9 -376.4,940.5 -374.5,940.5 -372.8,940.4 
		-371.3,940.3 -370.3,940.3 -369.3,940.3 -368.7,940.4 -368.4,940.3 -366.1,939.7 -366.1,939.7 -366.1,939.7 -365.6,939.3 
		-365.2,938.2 -365.2,938.2 -364.8,937.6 -364.4,937.5 -364.4,937.5 -364.4,937.5 -359.6,937.2 -359.6,937.2 -359.6,937.2 
		-358.7,937 -357.6,936.5 -357.5,936.5 -357.5,936.5 -356.9,935.7 -355.9,934.2 -355.9,934.1 -355.9,934.1 -354.6,932.4 
		-353.9,931.7 -352.7,930.5 -351.6,929.5 -350.4,928.4 -349.4,927.5 -348.2,926.3 -348.2,926.3 -345.9,923.3 -345.9,923.3 
		-345.6,922.9 -344,920.5 -344,920.5 -343.9,920.3 -342.1,917.3 -339.4,911.7 -339.4,911.7 -339.4,911.7 -335.3,901 -334.9,899.8 
		-334.6,899.1 -334.5,898.3 	"/>
	<polyline class="st0" points="-381,507.4 -380.9,507.4 -380.8,507.3 -379.8,506.6 -379.4,506.2 -379,505.9 -378.6,505.4 
		-377.5,503.8 -377.3,503.4 -377.2,503.2 -376.1,500.9 -375.3,499 -373.7,495 -372.8,493 -372.5,492.4 -372.5,492.3 -372.1,491.8 
		-371.5,490.5 -370.3,488.8 -369.8,488 -368.9,487 -368.5,486.5 -366.4,484.8 -366.3,484.7 -366.1,484.6 -365.2,484.1 -364.7,483.9 
		-364.1,483.6 -363.8,483.6 -363.4,483.5 -362.8,483.5 -362.4,483.6 -362,483.7 -361.5,483.9 -361.1,484.1 -360.1,484.8 
		-358.8,485.9 -358.5,486.1 -357.2,487.1 -356,487.6 -355.7,487.7 -354.3,488.1 -353.7,488.3 -353.5,488.3 -351.7,488.5 
		-350.9,488.5 -349.6,488.3 -349.5,488.3 -349.3,488.2 -345.2,487.2 -343,486.7 -342.7,486.6 -342.6,486.6 -341,486.1 -340.9,486 
		-340.8,485.9 -338.2,484.4 -337.7,484.3 -336.4,483.7 -335.4,483.4 -333.9,482.9 -333.2,482.5 -331.8,482 -331.6,481.8 
		-331.4,481.6 -329.9,480.8 -328.3,479.4 -328,479.2 -327.4,478.6 -326.8,477.6 -326.4,477.1 -326.5,476.7 -363.5,476.7 
		-363.5,468.7 -320.9,468.7 -320.7,468.4 -320.4,467.6 -318.5,462.4 -317.6,460.2 -316.8,458.2 -316.5,457.1 -315.2,452.8 
		-314.9,452.1 -314.9,451.9 -314.6,450.8 -314.5,449.2 -314.5,449.2 -314.3,448.8 -314.3,448.7 -314.2,448.6 -313.6,447.4 
		-313.1,446 -311.8,442 -310.2,436.5 -309.4,434.1 -308.2,430.1 -307.4,427.2 -307,425.6 -306.6,424.4 -306.5,423.9 -306.7,423.5 
		-367.1,423.5 -367.1,415.6 -304.9,415.6 -304.8,415.2 -304.8,415 -304.7,414.5 -304.6,414 -303.7,407.7 -302.8,400.8 -302.7,400.1 
		-302.5,397.8 -301.3,387.1 -301.1,384.5 -301,382.9 -300.9,382 -300.9,381.4 -300.9,380.6 -300.8,379.9 -300.6,376.9 -300.4,374.7 
		-300.3,370.8 -300.4,370.4 -369.4,370.4 -369.4,362.4 -300.2,362.4 -300.1,362 -300.1,358.5 -300.2,354 -300.3,344.2 -300.3,339 
		-300.5,330.1 -300.6,328.1 -300.7,326.2 -300.8,324.4 -301,322.8 -301.1,320.6 -301.4,317.6 -301.5,317.2 -366.7,317.2 
		-366.7,309.3 -302.4,309.3 -302.3,308.9 -302.4,308.2 -302.5,306.3 -302.8,303.1 -302.8,301.6 -303.2,297.2 -303.3,296.2 
		-303.6,293.6 -304.3,289.3 -305.1,283.7 -305.6,281.3 -306.2,278.2 -306.8,275.1 -308,270.4 -308.6,267.8 -309.8,264.1 
		-356.8,264.1 -356.8,256.1 -314.9,256.1 -314.8,255.7 -315.1,255.4 -315.1,255.4 -316.4,254.3 -316.6,254.1 -316.8,254 
		-317.9,252.9 -318.5,252.2 -319.7,250.5 -320,249.9 -321,247.9 -321.4,247 -322,245.3 -322.3,244.6 -323,242.9 -323.1,242.8 
		-323.9,241.7 -324.1,241.4 -324.7,240.9 -325.4,240.3 -326.4,239.8 -327.6,239.1 -327.8,239 -328.1,238.9 -329.3,238.3 
		-329.7,238.2 -330.5,238 -331,237.9 -333.7,237.4 -334.1,237.3 -336.3,237 -336.5,236.9 -337.7,236.5 -337.7,236.5 -338.8,235.7 
		-338.9,235.6 -339.6,234.8 -339.8,234.4 -340,234 -340.5,232.4 -340.5,232.4 -340.5,232.3 -340.9,229 -341.1,227.7 -341.2,226.8 
		-341.2,226.4 -341.4,224.4 -342.1,218.9 -342.9,212.6 -343,211.6 -343,211.4 -343.2,210.9 -355,210.9 -355,203 -344.9,203 
		-344.8,202.6 -344.8,202.4 -344.9,202.2 -345.3,201 -346.1,199.6 -346.2,199.5 -346.4,199.2 -347,198.3 -347.3,197.9 -348,197 
		-348.5,196.6 -349,196.3 -349.9,195.5 -350.4,195.2 -351.1,194.9 -351.4,194.8 -351.8,194.7 -352.8,194.6 -353.7,194.6 -354,194.6 
		-355,194.9 -355.2,195 -356.7,195.7 -358,196.7 -358.4,196.9 -358.7,197.2 -359,197.5 -360.2,198.6 -360.5,199.1 -361.7,200.6 
		-362.2,201.2 -363,202.3 -364.8,205.4 -365.1,205.9 -367.4,209.6 -367.5,209.8 -368.6,211.8 -369.5,213 -370.9,215.4 -373.5,220 
		-376,224.5 -380.4,232 -380.7,232.4 -381.2,233.5 -382.1,235.4 -382.2,235.7 -382.5,236.1 -382.8,236.6 -383.7,237.9 -384.5,238.6 
		-385.7,239.9 -386.5,240.6 -388.2,242.6 -391.9,247.1 -392.6,248 -394.9,251 -395.6,252 -400.1,258.4 -401.3,260.1 -403.1,262.6 
		-405.5,266.2 -405.7,266.6 -407.7,269.8 -409.3,272.7 -411.3,276.1 -412.4,278.3 -414.4,282.2 -415.9,285.1 -418.1,289.8 
		-419.5,292.8 -420.4,294.2 -420.4,294.2 -420.6,294.6 -421.1,295.7 -421.2,295.8 -421.9,296.3 -422.5,296.9 -422.7,297 
		-423.1,297.4 -423.7,298.2 -424,298.7 -425,300.1 -425.7,301.3 -426.7,303 -427.8,305.3 -429,307.8 -429.3,308.7 -429.7,309.6 
		-430.4,311.3 -431.4,313.9 -432.1,315.8 -432.3,316.3 -432.9,318.2 -433.6,320.6 -434.2,322.5 -434.5,323.6 -434.9,325.6 
		-435.3,327.5 -435.6,329.3 -436,332.4 -436,332.9 -436,333.1 -436.1,336.2 -436,338.2 -436.1,338.3 -436.1,338.7 -436.8,340.2 
		-437.3,341.6 -437.4,342.2 -437.6,343.5 -438.2,346.8 -438.3,348.1 -438.6,350.2 -438.7,351.7 -438.8,353.2 -439.1,359.9 
		-439.2,361.2 -439.2,365.6 -439.2,367.6 -439.1,370.5 -439,374.1 -438.6,379.4 -438.4,382.2 -438,385.4 -437.9,386.1 -437.8,386.7 
		-437.3,389.4 -436.7,392 -436.2,394 -435.6,396 -434.6,398.9 -434.4,399.2 -433.9,400.2 -433.7,400.5 -433.6,401.1 -433.5,401.6 
		-433.4,403.6 -433.4,404 -433.3,405.1 -433.1,406 -432.5,408.3 -432,409.8 -431.4,411.6 -430.9,412.8 -428.8,417.6 -428.2,419.1 
		-427.3,421.6 -426.7,423.4 -424.8,429.2 -424.2,430.6 -420.8,438.6 -419,442.9 -417.2,447 -415.5,450.8 -414.6,452.9 -414,454.3 
		-413.1,456.2 -413,456.5 -412.8,457.2 -411.4,460.2 -411.2,460.6 -410.4,462 -410.3,462.3 -409,464.2 -408.6,464.7 -406.4,467.5 
		-405,470.2 -404.8,470.3 -404.7,470.6 -402.2,475.1 -402.2,475.2 -402,475.6 -401.9,476.2 -401.8,476.2 -401.9,476.3 -401.9,476.7 
		-401.9,479.2 -401.9,479.5 -401.7,480.5 -401.6,480.8 -399.9,485.8 -399.5,486.8 -398.3,489.9 -396.2,496 -395.5,497.8 
		-393.9,502.3 -393.3,503.5 -393.2,503.8 -393.2,503.9 -393.1,503.9 -392.5,504.9 -392.2,505.3 -391.4,506.1 -390.6,506.9 
		-390.5,507 -389.3,507.7 -388.5,508 -386.4,508.4 -386,508.5 -384.2,508.5 -384,508.5 -383.8,508.4 -382.9,508.2 -382.1,507.9 
		-381.1,507.5 -381,507.4 	"/>
	<polyline class="st0" points="-380.7,184.2 -379.9,183.7 -378.9,182.7 -378.5,182.2 -377.7,181.1 -377.4,180.7 -376.5,178.7 
		-374.9,175 -373.6,171.7 -372.2,168.8 -372.2,168.7 -372.1,168.7 -372.1,168.7 -370.8,166.4 -370.3,165.7 -369.4,164.5 
		-368.9,163.9 -368.6,163.5 -368.2,163.3 -366.9,162.2 -366.6,161.9 -365.5,161.3 -364.8,160.8 -364,160.6 -363.6,160.5 
		-363.6,160.5 -362.6,160.6 -362.2,160.7 -361.6,160.9 -361.2,161.1 -359.8,162 -358.8,162.9 -358.5,163.1 -357.3,164 -356.1,164.6 
		-355.8,164.7 -354.8,164.9 -353.7,165.3 -353.3,165.4 -352.1,165.6 -350.5,165.5 -350,165.4 -347.3,164.7 -345.6,164.4 
		-345.2,164.2 -343.4,163.8 -342.9,163.6 -341,163.1 -339.9,162.5 -338.2,161.5 -337.6,161.2 -335.1,160.2 -334.9,160.2 
		-334.8,160.2 -334.5,160.1 -333.5,159.7 -333.2,159.4 -331.9,159 -331.3,158.5 -330.3,158 -329.7,157.7 -328.2,156.3 -328,156 
		-327,155 -326.8,154.7 -326.4,154.1 -326.5,153.7 -363.6,153.7 -363.6,145.7 -320.9,145.7 -320.7,145.3 -320.2,144.3 -319.8,143.3 
		-317.7,137.5 -316.9,135.4 -316.5,134 -316.2,133 -315,129.2 -314.6,127.9 -314.5,126.2 -314.5,126.2 -313.7,124.7 -313.5,124.2 
		-313.5,124.2 -313.1,122.8 -310.7,115.2 -309.9,112.7 -309.7,112.1 -307.7,105.4 -306.6,101 -306.6,101 -306.7,100.5 -367.2,100.5 
		-367.2,92.6 -305,92.6 -304.8,92.2 -304.8,92 -304.7,91.5 -304.7,90.9 -303.8,85 -302.9,78.1 -302.8,77.4 -302.7,76.6 -302.5,75.1 
		-301.3,64.1 -301.1,61.6 -301,59.9 -301,58.5 -301,58.1 -300.9,57.3 -300.7,56.3 -300.6,53.7 -300.4,51.7 -300.3,47.8 -300.4,47.4 
		-369.4,47.4 -369.4,39.4 -300.3,39.4 -300.2,39 -300.1,35.5 -300.2,31 -300.3,21.1 -300.3,16 -300.4,12.7 -300.5,8 -300.6,5.2 
		-300.9,1.3 -300.9,0.4 -301.1,-1.2 -301.4,-5.3 -301.6,-5.8 -366.8,-5.8 -366.8,-13.7 -302.5,-13.7 -302.3,-14.1 -302.4,-14.9 
		-302.5,-15.5 -302.6,-17.8 -302.8,-19.9 -302.9,-21.6 -303.1,-24.1 -303.1,-24.9 -303.4,-27.5 -303.6,-29.4 -304.3,-33.7 
		-305.2,-39.3 -305.6,-41.7 -306.2,-44.8 -307.3,-49.7 -307.5,-50.6 -307.8,-52.1 -308.8,-55.9 -309.2,-57 -309.8,-58.9 
		-356.8,-58.9 -356.8,-66.9 -314.9,-66.9 -314.8,-67.3 -315.2,-67.7 -315.5,-67.8 -315.8,-68 -316.6,-68.8 -317.2,-69.3 
		-318.1,-70.2 -318.6,-70.9 -319.3,-71.9 -319.6,-72.4 -320,-73.1 -321.1,-75.2 -321.4,-76 -322.1,-77.8 -322.3,-78.4 -323,-80.1 
		-323.1,-80.2 -323.3,-80.5 -323.8,-81.4 -324.5,-81.9 -324.7,-82.2 -325.8,-82.9 -326,-83.1 -326.2,-83.2 -326.5,-83.3 
		-328.2,-84.1 -330,-84.9 -331.1,-85.1 -331.6,-85.2 -333.4,-85.6 -335.2,-85.8 -335.9,-85.9 -335.9,-85.9 -337.2,-86.3 
		-337.3,-86.3 -337.4,-86.3 -338.5,-87 -338.9,-87.3 -339.2,-87.6 -339.3,-87.8 -339.8,-88.5 -340,-89.1 -340.5,-90.6 -340.5,-90.6 
		-340.5,-90.6 -340.5,-90.7 -341,-94 -341.1,-95.3 -341.2,-96.2 -341.2,-96.7 -341.5,-98.6 -342.1,-104.4 -343.1,-111.6 
		-343.2,-112.1 -355,-112.1 -355,-120 -344.9,-120 -344.8,-120.4 -345.6,-122.3 -346,-123.2 -346.8,-124.4 -347,-124.7 
		-347.3,-125.1 -348,-126 -348.4,-126.3 -349.5,-127.2 -350.4,-127.8 -350.6,-127.9 -350.9,-128 -352,-128.3 -352.4,-128.4 
		-353.7,-128.4 -353.9,-128.4 -355,-128.1 -355.1,-128.1 -355.2,-128 -356.7,-127.3 -358.1,-126.3 -358.5,-126 -359,-125.5 
		-359.9,-124.7 -360.7,-123.7 -361.8,-122.4 -362.4,-121.5 -363.4,-120 -364.7,-118 -365.2,-117.1 -365.7,-116 -367.2,-113.6 
		-367.6,-113.1 -368.7,-111.2 -369.5,-110 -370.9,-107.6 -371.1,-107.3 -373.5,-103 -376,-98.5 -380.4,-91 -380.7,-90.6 
		-380.9,-90.1 -382.1,-87.7 -382.3,-87.1 -383.2,-85.9 -383.8,-85 -385,-83.8 -385.6,-83.3 -385.8,-83.2 -388.1,-80.6 -391.9,-75.8 
		-392.9,-74.6 -394.4,-72.6 -398.3,-67.2 -399.7,-65.3 -401.7,-62.4 -403.4,-59.9 -405.5,-56.8 -405.7,-56.5 -407.7,-53.2 
		-410.9,-47.6 -411,-47.5 -411,-47.5 -411,-47.5 -414.6,-40.4 -415.3,-39.1 -417.4,-34.6 -420,-29.5 -420.1,-29.3 -420.3,-29 
		-420.8,-27.9 -421.1,-27.3 -421.2,-27.2 -421.8,-26.8 -422.4,-26.2 -422.8,-25.9 -423.5,-25 -424.1,-24.2 -425.1,-22.8 
		-425.3,-22.4 -426.4,-20.5 -426.4,-20.5 -427.9,-17.6 -427.9,-17.5 -428.1,-17.2 -429.2,-14.7 -429.4,-14.3 -429.8,-13.3 
		-430.4,-11.7 -431.1,-9.7 -432.6,-5.7 -433.6,-2.6 -434.2,-0.5 -434.7,1.8 -435.2,3.7 -435.5,5.1 -435.8,7.5 -436,9.3 -436.1,10.7 
		-436.1,13.2 -436.1,14 -436,15.2 -436.1,15.6 -436.8,17.2 -437,17.9 -437.5,19.4 -437.6,19.8 -438.4,25 -438.4,25.2 -438.7,28.4 
		-438.8,29.9 -439.1,36 -439.2,39.1 -439.1,42.4 -439.1,44.7 -439.1,47.2 -439,49.9 -438.8,52.8 -438.4,58.9 -438.1,61.9 -438,62.3 
		-437.9,62.8 -437.3,66.4 -436.7,69 -436.2,70.9 -435.6,73 -434.6,76 -434.5,76.2 -434,77.1 -433.7,77.5 -433.6,78.1 -433.5,78.6 
		-433.5,80.1 -433.4,81.2 -433.2,82.1 -432.9,83.7 -432.4,85.5 -431.8,87.5 -430.8,90.1 -428.3,95.9 -428.3,95.9 -428.3,96 
		-426.3,101.9 -425.5,104.1 -424.8,106.2 -424.3,107.5 -422,113 -418.8,120.3 -416.8,124.8 -415.8,127.1 -414.8,129.5 -413.1,133.3 
		-412.1,135.6 -411.6,136.8 -410.4,139.1 -410.2,139.4 -409.7,140.2 -409,141.2 -408.8,141.4 -408.6,141.6 -407,143.8 -406.4,144.5 
		-404.9,147.4 -404.7,147.7 -403.5,149.8 -402.2,152.2 -401.9,153 -401.9,153.1 -401.9,154.4 -402,155.8 -401.8,156.7 -401.8,157.4 
		-400.1,162.1 -398.9,165.5 -396.2,172.8 -395.3,175.1 -393.9,179.3 -393.3,180.6 -393.2,180.8 -393.2,180.9 -392.6,181.8 
		-392.2,182.3 -391.5,183.1 -390.6,183.9 -390.5,184 -389.3,184.7 -388.6,185 -387.9,185.2 -387.2,185.3 -386.6,185.4 -385.9,185.5 
		-385.1,185.5 -383.9,185.4 -383.6,185.4 -383.4,185.3 -382.1,184.9 -381.5,184.7 -380.7,184.2 	"/>
	<polyline class="st0" points="-409.2,-138.3 -408.7,-138.7 -408.2,-139.1 -407.5,-139.9 -406.8,-141 -406.2,-142.1 -406,-142.7 
		-405.4,-144.9 -405.2,-145.5 -405.1,-146.4 -404.9,-148 -404.8,-149.9 -404.7,-151.1 -404.7,-156 -404.7,-160.3 -404.7,-161.1 
		-404.7,-169.6 -404.7,-173.8 -404.7,-174.5 -404.8,-175 -404.8,-177.2 -404.8,-178 -404.6,-179 -404.2,-180.9 -404.1,-181.4 
		-403.3,-186.1 -403.2,-187 -402.1,-192.6 -402,-192.8 -401.5,-194.8 -401.3,-195.3 -401.2,-195.7 -401,-196.1 -400.8,-196.5 
		-400.7,-196.6 -400.3,-197.1 -400,-197.3 -399.3,-197.7 -399.2,-197.8 -398.9,-197.8 -398.3,-197.9 -398.2,-197.9 -397.8,-197.9 
		-396.7,-198 -395.8,-197.8 -394.9,-197.9 -393,-197.9 -392.1,-198 -390.8,-198.2 -390.3,-198.4 -390,-198.5 -388.7,-198.9 
		-388.4,-199 -387.2,-199.6 -386.5,-200.1 -385.7,-200.5 -385.2,-200.9 -384.7,-201.3 -383.9,-202.1 -383.6,-202.4 -382.7,-203.5 
		-382.5,-203.9 -381.9,-205 -381.9,-205.1 -381.8,-205.2 -381.3,-206.4 -381.1,-207.7 -381.1,-207.7 -381.1,-207.7 -381.1,-207.8 
		-381,-210.2 -381.1,-211.3 -381.2,-211.9 -381.2,-212.1 -381.3,-212.2 -381.4,-212.5 -381.7,-213.8 -382.3,-214.8 -382.3,-214.8 
		-382.4,-214.9 -382.5,-215.1 -383.2,-216.2 -383.6,-216.7 -384.3,-217.5 -384.8,-217.9 -385.2,-218.2 -385.9,-218.8 -386.7,-219.3 
		-388.5,-220.1 -388.6,-220.2 -388.7,-220.2 -390.8,-220.9 -391.2,-221 -392.4,-221.1 -393.5,-221.2 -394.9,-221.2 -395.8,-221.3 
		-396.8,-221.1 -398.1,-221.2 -398.3,-221.2 -398.4,-221.2 -398.4,-221.2 -399.3,-221.4 -400,-221.7 -400.2,-221.8 -400.7,-222.6 
		-401,-223 -401.2,-223.4 -401.5,-224.2 -402.5,-228.7 -402.5,-228.8 -402.6,-228.8 -402.6,-229.2 -404,-236.9 -404,-237.2 
		-404,-237.6 -404.5,-239.9 -404.7,-240.9 -404.8,-241.8 -404.9,-242.4 -404.8,-244.1 -404.7,-244.7 -404.7,-245.1 -404.7,-248.7 
		-404.7,-256.7 -404.7,-266.5 -404.7,-268 -404.8,-269.2 -404.9,-271.1 -405.1,-272.8 -405.3,-273.9 -405.8,-275.9 -406,-276.6 
		-406.2,-277 -406.6,-277.9 -406.8,-278.2 -407.5,-279.2 -408.1,-279.8 -408.3,-280.2 -409.7,-281.1 -409.7,-281.1 -409.8,-281.1 
		-409.8,-281.2 -411.1,-281.5 -411.6,-281.6 -412.8,-281.5 -413.8,-281.3 -414,-281.2 -414.9,-280.7 -416.4,-279.8 -416.9,-279.5 
		-417.8,-278.7 -418.3,-278.3 -418.5,-278 -419.4,-277.1 -420.1,-276.3 -421.4,-274.3 -421.9,-273.6 -422.3,-272.7 -422.8,-271.6 
		-423.2,-270.7 -424.3,-267.8 -424.9,-265.8 -425.3,-264.6 -425.6,-263.3 -425.5,-262.9 -416.5,-262.9 -416.5,-255 -427.8,-255 
		-427.9,-254.5 -427.9,-254.5 -428.2,-253.4 -429.7,-249.5 -430,-247.9 -430,-247.8 -430.1,-247.3 -430.1,-245.8 -430.1,-245.7 
		-430.3,-244.9 -430.4,-244.7 -430.6,-244.4 -431.1,-243.9 -431.8,-243.1 -432.8,-242 -433,-241.6 -433.7,-240.7 -434.3,-239.4 
		-434.9,-238.5 -435.6,-236.6 -435.7,-236.4 -436.2,-234.9 -436.7,-233.4 -436.8,-233.1 -437.1,-232 -437.6,-230.2 -437.7,-229.5 
		-438.5,-225.9 -438.9,-223.3 -439,-222.1 -439.2,-219.6 -439.1,-219.3 -439.1,-216.7 -439,-215.4 -438.7,-214.2 -438.7,-213.9 
		-438.5,-213.5 -410.1,-213.5 -410.1,-205.6 -438.6,-205.6 -438.7,-205.2 -438.8,-204.5 -439,-203.4 -439.1,-202.3 -439.2,-200.4 
		-439.2,-199.6 -439,-197.4 -438.8,-195.3 -438.5,-193.3 -437.7,-189.6 -437.6,-188.9 -437.1,-187 -436.8,-186 -436.7,-185.7 
		-436.3,-184.3 -435.7,-182.7 -435.4,-181.9 -434.9,-180.6 -433.9,-178.8 -433.5,-178.2 -433.1,-177.6 -432,-176.3 -430.7,-174.9 
		-430.4,-174.4 -430.3,-174.2 -430.1,-173.9 -430.1,-173.8 -430,-173.2 -430,-173 -430.1,-172.3 -430.1,-171.6 -430,-170.8 
		-429.7,-169.9 -429.7,-169.5 -428.4,-166.2 -427.9,-164.2 -427.8,-164.1 -416.5,-164.1 -416.5,-156.2 -425.5,-156.2 -425.6,-155.8 
		-425.2,-154.1 -424.8,-152.8 -424.6,-152.1 -424,-150.3 -423.2,-148.3 -422.3,-146.4 -421.9,-145.5 -420.7,-143.7 -420.2,-143 
		-420.1,-142.8 -419.9,-142.5 -418.3,-140.8 -417.8,-140.3 -416.8,-139.6 -416,-139 -415.3,-138.5 -414.5,-138.1 -413.5,-137.8 
		-413,-137.7 -412.2,-137.5 -411.5,-137.5 -410.7,-137.6 -410.5,-137.7 -410.1,-137.9 -409.2,-138.3 	"/>
	<polyline class="st0" points="-403.9,-291.8 -403.4,-292.2 -403.3,-292.4 -403.2,-292.4 -403.2,-292.5 -403.2,-292.8 
		-403.2,-293.1 -403.2,-293.8 -403.2,-293.9 -403.2,-294.1 -403.2,-295.5 -403.2,-296.1 -403.2,-297.6 -403.2,-298.3 -403.2,-300.8 
		-403.2,-300.8 -403.2,-300.9 -403.2,-303.4 -403.2,-303.8 -403.2,-305.4 -403.2,-306.6 -403.2,-307 -403.2,-307.4 -403.2,-308.8 
		-403.2,-310.1 -403.2,-310.8 -403.2,-312.7 -403.2,-312.8 -403.2,-313 -403.2,-314.6 -403.2,-315.3 -403.2,-316.3 -403.2,-317.8 
		-403.2,-318.2 -403.2,-319.9 -403.2,-320.1 -403.2,-320.1 -403.2,-322.1 -403.2,-322.1 -403.3,-322.6 -419.6,-322.6 -419.6,-330.5 
		-403.3,-330.5 -403.2,-330.9 -403.2,-332.2 -403.2,-332.4 -403.2,-332.6 -403.2,-334.1 -403.2,-334.8 -403.2,-336.3 -403.2,-336.9 
		-403.2,-337.2 -403.2,-338.1 -403.2,-338.1 -403.3,-338.2 -404.8,-340.5 -405.4,-341 -405.7,-341.1 -406.4,-341.4 -406.8,-341.6 
		-407.5,-341.7 -408.1,-341.7 -408.7,-341.7 -410,-341.5 -410.6,-341.3 -412,-340.8 -412.4,-340.6 -413.6,-340.1 -414,-339.9 
		-414.6,-339.7 -416.4,-339.1 -417.1,-338.8 -418.6,-338.5 -419.7,-338.3 -420.6,-338 -421.8,-337.6 -423.1,-337.1 -424,-336.7 
		-424.6,-336.4 -427.1,-334.8 -427.1,-334.8 -427.2,-334.7 -428.7,-333.3 -429.2,-332.9 -429.4,-332.6 -430.2,-331.7 -431.3,-330.4 
		-432,-329.3 -433.4,-327.3 -435,-325 -435.3,-324.6 -436.1,-323.3 -437.9,-320.5 -438.5,-319.5 -438.7,-319.1 -438.9,-318.4 
		-439.1,-317.3 -439.2,-316.6 -439.1,-315.5 -438.9,-314.9 -437.8,-313.1 -437.6,-312.8 -436.4,-311.7 -435.8,-311.3 -435.4,-311 
		-433.7,-310 -432.9,-309.6 -431.6,-309.1 -430.3,-308.6 -428.9,-308.2 -426.9,-307.7 -425.6,-307.5 -422.7,-307.2 -420.5,-307.3 
		-419.2,-307.3 -418.4,-307.5 -418.1,-307.6 -417.5,-307.7 -417.4,-307.7 -416.4,-307.6 -415.8,-307.3 -415.6,-307.1 -414.8,-306.5 
		-414.8,-306.4 -414.4,-305.9 -414.3,-305.8 -414.3,-305.8 -414.3,-305.8 -413.8,-305 -413.6,-304.5 -413.5,-304 -413.4,-302.6 
		-413.2,-301.8 -413,-300.4 -412.9,-299.8 -412.6,-299.1 -411.9,-297.5 -411.7,-297 -411.2,-295.7 -410.8,-295 -410.3,-294.3 
		-409.8,-293.8 -408.3,-292.6 -407.6,-291.8 -407.1,-291.5 -406.7,-291 -406.5,-290.8 -406,-290.6 -406,-290.6 -406,-290.6 
		-404.7,-291.5 -404,-291.7 -403.9,-291.8 	"/>
	<polyline class="st0" points="-338.9,-137.6 -338.8,-137.6 -338.5,-137.5 -337.7,-138.1 -337.4,-138.3 -336.6,-138.5 
		-336.5,-138.7 -336,-139 -335.9,-139.4 -335.9,-139.5 -335.9,-139.8 -335.9,-140.4 -335.9,-140.8 -335.9,-141 -335.9,-142 
		-335.9,-142.3 -335.9,-143.3 -335.9,-143.5 -335.9,-144.7 -335.9,-144.8 -335.9,-145.3 -335.9,-146.3 -335.9,-147 -335.9,-148.2 
		-335.9,-149.4 -335.9,-150.6 -335.9,-152.6 -335.9,-152.7 -335.9,-152.8 -335.9,-154.6 -335.9,-155.3 -335.9,-156.3 -335.9,-157.4 
		-335.9,-158 -335.9,-158.5 -335.9,-159.9 -335.9,-161.2 -335.9,-161.3 -335.9,-162.9 -335.9,-163.2 -335.9,-163.7 -335.9,-164.9 
		-335.9,-166.2 -335.9,-166.5 -335.9,-166.6 -335.9,-167.9 -335.9,-168.9 -336,-169.4 -352.3,-169.4 -352.3,-177.3 -336,-177.3 
		-335.9,-177.7 -335.9,-178 -335.9,-178.6 -335.9,-179.7 -335.9,-180.7 -335.9,-181.4 -335.9,-183.2 -335.9,-183.2 -335.9,-183.3 
		-335.9,-184.8 -335.9,-184.9 -336,-185 -337.5,-187.3 -338.1,-187.7 -338.3,-187.9 -339.1,-188.2 -339.5,-188.4 -340.1,-188.5 
		-340.5,-188.5 -341.9,-188.4 -342,-188.4 -343.3,-188 -343.9,-187.8 -345,-187.3 -346.2,-187 -346.6,-186.8 -347.9,-186.3 
		-348.8,-186.1 -349.3,-186 -349.6,-185.9 -351.1,-185.5 -353.5,-184.8 -354.3,-184.5 -354.8,-184.4 -356.2,-183.8 -357.1,-183.3 
		-357.9,-182.9 -359.7,-181.7 -359.7,-181.6 -359.9,-181.5 -361.4,-180.1 -361.9,-179.7 -362.7,-178.7 -363.8,-177.4 -364.7,-176.2 
		-365.3,-175.3 -367.3,-172.3 -369.3,-169.3 -369.8,-168.7 -370.2,-168 -371,-166.5 -371.3,-166 -371.6,-165.3 -371.8,-164.5 
		-371.9,-163.6 -371.9,-163.2 -371.8,-162.3 -371.5,-161.7 -370.5,-159.9 -370.3,-159.6 -369.1,-158.6 -368.5,-158.1 -368,-157.7 
		-366.5,-156.8 -365.6,-156.4 -364.3,-155.9 -362.4,-155.2 -360.8,-154.8 -359.6,-154.5 -359.2,-154.4 -356.6,-154.1 -355.9,-154 
		-354.7,-154.1 -352.2,-154.1 -350.9,-154.4 -350.7,-154.4 -350.6,-154.4 -349.9,-154.5 -349.8,-154.5 -349.1,-154.4 -348.7,-154.1 
		-348.3,-154 -347.6,-153.3 -347.2,-152.9 -347.1,-152.8 -346.5,-151.8 -346.4,-151.6 -346.2,-150.8 -346,-148.7 -345.9,-148.6 
		-345.9,-148.5 -345.9,-148.1 -345.6,-146.6 -344.9,-145 -344.2,-143.3 -344,-142.7 -343.4,-141.8 -343,-141.1 -342.4,-140.5 
		-341.1,-139.4 -340.7,-139.1 -340.6,-139 -340.4,-138.9 -339.9,-138.5 -339.4,-137.9 -339,-137.6 -338.9,-137.6 	"/>
	<polyline class="st0" points="-310.7,-137.5 -310.4,-137.5 -309.9,-137.6 -308.9,-138 -308.6,-138.2 -307.2,-138.8 -305.5,-140.4 
		-305,-140.8 -304.5,-141.4 -302.5,-143.3 -302.2,-143.6 -301.4,-144.8 -301.4,-145.3 -301.4,-145.9 -301.4,-147.5 -301.4,-148.1 
		-301.4,-149.3 -301.4,-150.4 -301.4,-150.8 -301.4,-151.4 -301.4,-152.5 -301.4,-153.3 -301.4,-154.2 -301.4,-155.5 -301.4,-155.5 
		-301.4,-155.6 -301.4,-157.1 -301.4,-157.5 -301.4,-158.9 -301.4,-159.4 -301.5,-159.8 -313.8,-159.8 -313.8,-167.7 -302,-167.7 
		-301.8,-168.2 -302.2,-169.1 -302.2,-169.1 -302.2,-169.1 -302.3,-169.2 -303.6,-172.1 -304.2,-174.7 -304.2,-174.7 -304.3,-174.8 
		-304.7,-176.8 -304.8,-177.1 -305.1,-178.1 -305.4,-178.8 -306.4,-180.1 -306.6,-180.4 -306.8,-180.6 -306.9,-180.7 -308.1,-181.8 
		-308.4,-182.3 -309.4,-183.1 -310,-183.9 -310.9,-184.8 -311.6,-185.3 -312.3,-185.9 -314.4,-186.8 -314.4,-186.8 -314.5,-186.8 
		-316.4,-186.8 -317.2,-186.9 -318.3,-186.3 -319.3,-185.9 -320.6,-185.1 -320.9,-184.8 -321.5,-184.3 -322.3,-183.5 -322.5,-183 
		-322.8,-181.5 -323,-180.4 -323.3,-178.6 -323.5,-177.9 -323.8,-176.4 -323.9,-176 -324.3,-174.3 -324.3,-174.1 -324.5,-173.6 
		-324.7,-172.4 -325,-170.4 -325,-170.1 -325,-170 -325.1,-169.9 -325.6,-167.6 -325.7,-167 -325.8,-166.8 -326.1,-165.6 
		-326.3,-165.2 -326.4,-164.8 -326.8,-163.9 -326.8,-163.8 -326.5,-162 -326.3,-161.5 -326.2,-160.8 -325.7,-159.8 -324.9,-158 
		-324.5,-157.2 -324.3,-156.4 -323.6,-155.1 -323.5,-154.6 -323.2,-153.7 -322.9,-152.1 -322.5,-150.5 -322.5,-150.4 -322.5,-150.4 
		-322.5,-150.3 -322.7,-149.8 -323.1,-149.4 -323.4,-147.8 -323.7,-146.9 -323.9,-146.1 -324.1,-144.5 -323.8,-143.5 -323.6,-142.8 
		-323.5,-142.6 -323.1,-142.4 -322.2,-141.7 -322,-141.6 -321,-140.7 -320.3,-140.3 -319.9,-140.1 -319.1,-139.8 -318.7,-139.6 
		-318.5,-139.5 -315.2,-138.2 -313.5,-137.7 -313.2,-137.6 -312.5,-137.6 -311.8,-137.5 -311.7,-137.5 -310.7,-137.5 	"/>
	<polyline class="st0" points="-356.9,-197.6 -356.7,-197.6 -355.8,-197.7 -355.5,-197.7 -354.9,-197.9 -354,-198.2 -353.7,-198.4 
		-352.6,-199 -350.8,-200.3 -350.6,-200.5 -349.9,-201.2 -347.7,-203.5 -346.5,-205.1 -346.5,-205.8 -346.5,-207.1 -346.5,-207.5 
		-346.5,-209 -346.5,-209.7 -346.5,-211.3 -346.5,-212.3 -346.5,-213.9 -346.5,-215.5 -346.5,-216.4 -346.5,-218 -346.5,-218.7 
		-346.5,-219.6 -346.6,-220 -358.9,-220 -358.9,-227.9 -347,-227.9 -346.9,-228.3 -347.8,-230.2 -348.5,-231.5 -348.6,-231.8 
		-348.7,-231.9 -349.5,-235.2 -349.5,-235.3 -350.2,-237.9 -350.5,-238.8 -350.9,-239.4 -351.2,-240 -351.5,-240.3 -352,-240.8 
		-352.1,-241 -352.3,-241.1 -353.6,-242.3 -354,-242.9 -354.6,-243.4 -355.1,-244.1 -355.7,-244.7 -356.5,-245.4 -357.3,-246 
		-359.2,-246.8 -359.8,-246.8 -360.4,-246.8 -362.4,-246.6 -363.5,-246.6 -364.3,-246.3 -364.9,-245.9 -366,-244.8 -367.2,-243.8 
		-367.5,-243.6 -367.6,-243.3 -367.9,-241.7 -368.2,-240.4 -368.5,-238.6 -368.7,-237.9 -369,-236.2 -369.1,-236 -369.5,-234.2 
		-369.8,-233.2 -369.9,-232.7 -370.2,-231 -370.2,-230.5 -370.3,-229.7 -370.9,-227.5 -371,-226.9 -371.2,-226.2 -371.3,-226 
		-371.9,-224.3 -371.9,-224.3 -371.9,-224.3 -371.9,-222.8 -371.9,-222.4 -371.7,-221.8 -371.4,-220.7 -370.8,-219.4 -370.5,-218.6 
		-370.5,-218.4 -370.2,-218.1 -369.9,-217.6 -369.7,-216.7 -368.9,-215.4 -368.8,-215 -368.6,-214.5 -368,-212.2 -367.7,-210.8 
		-367.7,-210.6 -367.7,-210.6 -367.7,-210.5 -367.8,-210.4 -368.5,-208.7 -368.6,-208.5 -368.7,-206.5 -368.8,-205.6 -368.9,-204.7 
		-368.8,-204.1 -368.6,-203.2 -368.2,-202.1 -367.9,-202 -367.6,-201.7 -367,-201.3 -366.7,-200.9 -366.2,-200.8 -365.5,-200.4 
		-364.5,-199.9 -363.4,-199.5 -362.8,-199.2 -360.5,-198.4 -358.8,-197.9 -358.5,-197.8 -358.1,-197.8 -356.9,-197.6 	"/>
	<polyline class="st0" points="-127.5,921.5 -125.8,919.7 -124.4,918.3 -121.6,915.5 -120.5,914.3 -119.4,913.1 -118.9,912.3 
		-118.3,911.4 -117.8,910.7 -117.3,909.6 -116.9,908.8 -116.7,908.2 -116.3,907.1 -116.1,906.2 -115.9,905.4 -115.7,903.7 
		-115.4,902.5 -114.6,895.6 -114.5,895.3 -114.5,895.2 -114.4,894.5 -111.8,878.6 -111.3,874.6 -111.1,873.5 -110.3,866.1 
		-110.2,865 -110,863.3 -109.4,856.3 -109.4,855.8 -109.3,850.9 -109.2,847.3 -109.2,843.8 -109.2,837 -109.2,835.7 -109.2,834.8 
		-109.2,828.2 -109.2,828.2 -109.2,827.1 -109.2,822.5 -109.2,822.3 -109.2,820.7 -109.2,817.3 -109.2,816.9 -109.2,812.6 
		-109.2,811 -109.2,807.3 -109.2,804.5 -109.2,801.4 -109.2,799.1 -109.3,796.3 -109.4,792.1 -109.4,791.6 -110,785 -110.2,783.3 
		-110.3,782.2 -111.1,774.8 -111.3,773.7 -111.8,769.8 -112.2,767.6 -114.5,753.3 -114.5,753 -114.6,752.7 -115.5,745.2 -115.7,744 
		-115.9,742.9 -116.1,742.2 -116.3,741.3 -116.8,740 -116.9,739.5 -117.2,738.9 -117.8,737.9 -118.3,736.9 -118.8,736.1 
		-119.3,735.6 -120.6,734 -121.2,733.2 -124.4,730.1 -125.8,728.6 -127.5,726.8 -129,725.3 -130.4,723.8 -135.8,717.8 -136.6,716.8 
		-137,716.2 -137.1,716 -138.7,712.8 -138.9,712.3 -138.9,712.3 -139.7,711.1 -140.4,710.2 -140.8,709.9 -141.4,709.2 -141.7,709 
		-142.4,708.6 -142.8,708.4 -144,707.8 -144.6,707.7 -145.2,707.6 -146.2,707.4 -147.1,707.6 -148,707.8 -148.4,707.9 -149.4,708.3 
		-150.9,709 -151.3,709.2 -152,709.4 -153.1,709.6 -153.6,709.7 -154.4,709.8 -158.5,709.7 -159,709.7 -160.2,709.8 -163.1,709.9 
		-168,710.4 -168.5,710.5 -170.5,710.7 -173.2,711.2 -173.9,711.3 -176.5,712 -178.2,712.6 -179.8,713.2 -179.8,713.2 -180.5,713.6 
		-181.9,714.5 -181.9,714.5 -182,714.5 -183.2,715 -183.3,715 -184.9,714.9 -185.2,715 -185.3,715 -186.3,715.1 -186.7,715.2 
		-188.2,715.8 -190.7,717 -190.9,717.1 -191,717.2 -195.3,719.7 -197.4,721 -197.3,721.4 -166.6,721.4 -166.6,729.4 -208.9,729.4 
		-209.4,729.8 -209.4,729.8 -210.4,730.6 -212,732.1 -213.1,733.1 -216,735.7 -225.1,744.2 -226.1,745.2 -228,747.1 -230.6,749.6 
		-230.7,749.7 -230.7,749.8 -233.1,752.3 -234.9,754.4 -235.4,754.9 -240.2,760.7 -241.2,761.8 -242.5,763.5 -243.6,764.9 
		-244.2,765.8 -245.6,767.8 -247.1,770 -247.4,770.4 -247.3,770.8 -180.9,770.8 -180.9,778.8 -252.5,778.8 -254.5,782.1 
		-254.6,782.2 -254.6,782.4 -256.3,785.7 -256.9,787.3 -257,787.6 -257.1,787.7 -257.1,788 -257.4,789.3 -257.5,789.8 -258.3,790.6 
		-258.8,791 -258.9,791.2 -259.6,792 -259.8,792.3 -260.1,792.7 -260.8,793.9 -261,794.4 -262,796.5 -262.6,797.9 -263.7,801 
		-263.8,801.3 -263.9,801.7 -264.8,804.9 -265.9,808.5 -266.9,812.3 -268.2,817.1 -268.5,818.9 -268.7,819.8 -268.6,820.2 
		-189.4,820.2 -189.4,828.1 -268.6,828.1 -268.7,828.6 -268.7,829.1 -268.6,829.6 -268.2,831.5 -267.9,832.9 -267.5,834 
		-265.9,839.7 -264.4,845.1 -263.9,846.7 -263.8,847.3 -263.7,847.5 -263.6,847.7 -262.6,850.5 -262,851.9 -261.3,853.4 
		-261.1,853.8 -260.5,855 -260.3,855.3 -259.7,856.2 -259.5,856.5 -259,857.1 -258.8,857.4 -257.5,858.5 -257.4,859.2 -257.3,859.6 
		-257.2,860 -257,860.7 -256.9,861.1 -256.7,861.6 -256.4,862.4 -254.7,865.9 -254.6,866.2 -254.4,866.5 -253.5,867.9 -252.8,869.2 
		-252.5,869.6 -180.9,869.6 -180.9,877.5 -247.3,877.5 -247.4,878 -247.2,878.2 -245.6,880.6 -244.7,881.9 -242.4,884.9 
		-242.2,885.3 -241.6,886 -239.4,888.7 -238.8,889.4 -237.3,891.2 -234.2,894.8 -230.8,898.5 -230.6,898.7 -229.1,900.2 
		-225.5,903.7 -225.2,904.1 -224.7,904.5 -213.1,915.3 -212,916.3 -210.4,917.7 -209.4,918.5 -208.9,919 -166.6,919 -166.6,926.9 
		-197.3,926.9 -197.4,927.3 -196,928.2 -191.3,931.1 -190.8,931.3 -190.7,931.4 -188.3,932.5 -187.5,932.9 -186.6,933.1 
		-185.1,933.4 -185,933.4 -184.5,933.4 -183.2,933.4 -182,933.9 -181.9,933.9 -181.9,933.9 -181.9,933.9 -180.3,934.9 -179.8,935.2 
		-179.8,935.2 -178.2,935.8 -177.2,936.1 -176.1,936.4 -174.9,936.8 -173.7,937.1 -172.3,937.3 -168.8,937.9 -168.4,937.9 
		-167.9,938 -163,938.4 -160.1,938.6 -159,938.6 -158.5,938.7 -154.4,938.6 -153.8,938.7 -153,938.8 -152.4,938.9 -151.3,939.2 
		-150.9,939.4 -150,939.8 -148.6,940.4 -148,940.6 -147.4,940.7 -146.7,940.9 -145.9,940.9 -145.4,940.9 -144.2,940.6 -143.9,940.5 
		-143.5,940.3 -142.4,939.8 -141.9,939.5 -141.5,939.1 -140.5,938.3 -140.4,938.2 -139.7,937.3 -138.9,936.1 -138.9,936.1 
		-137.4,932.8 -137,932.1 -136.9,931.9 -136.1,930.9 -135.8,930.6 -135.5,930.2 -130.1,924.3 -127.5,921.5 	"/>
	<polyline class="st0" points="-152.4,695.4 -152.3,695.3 -151,693.8 -150.6,693.3 -149.8,692.1 -149.3,691.4 -147.9,688.7 
		-147.8,688.5 -147,687.2 -146.1,685.7 -143,680.8 -140.8,677.4 -140.1,676.4 -136.3,670.4 -136.1,670.1 -135.3,668.8 -133.8,666.9 
		-133.6,666.8 -133.1,666.1 -130.1,662.9 -129.3,661.7 -128.5,660.6 -127.5,658.7 -127.2,658.2 -126.8,657.6 -126.3,656.6 
		-125.9,655.4 -125.3,653.9 -124.8,651.6 -124.6,650.9 -123.6,644.6 -123,640.9 -122.8,639.1 -122.1,634.3 -121.9,631.8 
		-121.6,628.9 -121.4,626.1 -120.6,617.3 -120.6,616.9 -120.5,615.6 -120.2,613.4 -119.4,604.7 -119.3,604.1 -118.8,597.4 
		-118.8,597.2 -118.8,596.8 -118.5,587.7 -118.4,585.9 -118.3,583.1 -118.3,581.4 -118.2,580.5 -118.3,579.7 -118.3,579.6 
		-118.3,579.5 -118.3,579.2 -118.3,577.5 -118.3,574.9 -118.3,573.1 -118.4,572 -118.6,570.3 -118.6,564.2 -118.7,563.9 
		-119.4,554.5 -119.6,551.4 -120,548.1 -120.6,541.8 -120.8,539.2 -121.7,529.1 -121.9,526.9 -122.5,521.7 -123.4,515.5 
		-123.5,515.2 -123.5,514.9 -123.7,513.7 -124.5,508.7 -124.8,507.1 -125.1,506.1 -125.4,505 -125.8,503.8 -126.3,502.4 
		-126.8,501.5 -127.2,500.9 -127.5,500.3 -128.7,498.2 -129.1,497.6 -129.6,497 -130.1,496.2 -131.9,494.2 -134.6,491.1 -135,490.6 
		-135.2,490.3 -136.6,488.3 -138.4,485.4 -141.2,481.2 -141.7,480.3 -144.1,476.6 -144.9,475.4 -147.1,471.6 -147.8,470.6 
		-147.8,470.5 -147.9,470.4 -149.4,467.6 -149.8,466.9 -150.6,465.8 -151.3,464.9 -152.6,463.5 -152.7,463.4 -153.7,462.6 
		-154.8,461.8 -155.6,461.3 -155.8,461.2 -156.5,461 -156.6,460.9 -157.6,460.7 -158.1,460.7 -158.5,460.7 -158.7,460.7 
		-159.3,460.8 -160.5,461 -160.9,461.2 -162.3,461.8 -163.5,462.2 -164.6,462.5 -165,462.6 -169.1,463.6 -169.3,463.6 -170.6,464 
		-172.6,464.6 -173.2,464.8 -176.8,466.1 -181.1,467.7 -181.3,467.8 -181.4,467.9 -184.5,469.3 -185.1,469.6 -185.8,470 
		-188.2,471.4 -188.6,471.7 -189.2,472.1 -189.9,472.7 -190.2,472.9 -191.1,473.8 -191.5,474.3 -191.6,474.3 -191.6,474.3 
		-192.4,474.8 -192.7,474.8 -195,475.3 -195.8,475.6 -196.2,475.7 -196.6,475.9 -197.3,476.4 -197.2,476.8 -173.4,476.8 
		-173.4,484.7 -209.8,484.7 -210.4,485.3 -214.9,488.8 -215.9,489.7 -218.3,491.8 -219.7,493 -221.5,494.8 -223.4,496.6 -225,498.2 
		-226.2,499.5 -226.8,500.1 -229,502.5 -231.1,504.8 -233.4,507.4 -236.2,510.6 -237.8,512.4 -239.5,514.5 -243.1,518.9 
		-243.5,519.4 -243.9,519.9 -246.8,523.8 -248.1,525.8 -248,526.2 -187.1,526.2 -187.1,534.1 -252.9,534.1 -253.1,534.5 
		-253.1,534.5 -253.2,534.7 -253.4,535.1 -254,536.8 -254.1,537.3 -254.2,538.1 -254.2,538.7 -254.2,539.2 -254.1,539.5 
		-254.1,540.2 -254.5,540.8 -254.6,541 -255.6,542 -256.3,542.9 -256.9,543.7 -258.6,546.9 -258.9,547.4 -258.9,547.6 -259.4,548.5 
		-261.6,553.6 -262.9,556.7 -265.1,561.6 -265.4,562.3 -266.5,565.2 -266.6,565.7 -267.6,568.9 -267.7,569 -267.7,569.1 
		-268.1,571.2 -268.6,573.5 -268.6,573.8 -268.6,573.9 -268.8,575.1 -268.6,575.6 -193.9,575.6 -193.9,583.5 -268.6,583.5 
		-268.8,583.9 -268.6,585.1 -268.6,585.3 -268.6,585.5 -268.1,587.8 -267.7,590 -267.7,590 -267.7,590 -266.6,593.5 -266.4,594.2 
		-265.6,596.3 -264.7,598.3 -262.8,602.6 -261,606.9 -260.9,607.2 -260.6,607.7 -259.2,611 -258.4,612.5 -257,615.3 -256.4,616.1 
		-255.7,617 -254.5,618.3 -254.5,618.3 -254.1,618.9 -254.1,619.9 -254.2,620.4 -254.1,621.5 -254,622.3 -253.3,624.2 -253.1,624.5 
		-253.1,624.7 -252.9,624.9 -187.1,624.9 -187.1,632.9 -248,632.9 -248.1,633.3 -246.1,636.2 -243.9,639.2 -243.5,639.6 
		-242.8,640.6 -238,646.4 -236.6,648.1 -233.4,651.6 -230.1,655.4 -227.6,658 -225.1,660.8 -224.5,661.3 -224.1,661.7 -220.7,665.1 
		-220,665.8 -217,668.5 -216.7,668.7 -216.6,668.8 -212.8,672 -210.3,673.9 -209.8,674.3 -173.4,674.3 -173.4,682.3 -197.2,682.3 
		-197.3,682.7 -196.5,683.2 -196.1,683.3 -195.6,683.5 -194.9,683.8 -193.1,684.1 -192.8,684.2 -192.1,684.4 -192,684.5 
		-191.9,684.5 -191.4,684.9 -190.9,685.4 -190.2,686.2 -189.2,687 -188.6,687.4 -187.9,687.8 -185.1,689.5 -184.4,689.8 
		-181.4,691.2 -181.4,691.2 -177.7,692.7 -173.4,694.2 -173.1,694.3 -172.4,694.6 -170,695.3 -166.8,696 -165.3,696.4 -164.8,696.6 
		-163.8,696.8 -162.3,697.4 -161.5,697.7 -160,698.2 -158.9,698.3 -158.2,698.3 -157.9,698.4 -157.1,698.2 -156.8,698.2 
		-156.7,698.2 -155.8,697.9 -155.5,697.6 -154.7,697.3 -153.5,696.3 -152.4,695.4 	"/>
	<polyline class="st0" points="-132.6,433.8 -130.2,431.7 -129.1,430.7 -128.9,430.5 -128.9,430.5 -128.9,430.4 -127.2,427.9 
		-126.4,425.9 -126.3,425.7 -126.2,425.6 -126.2,425.4 -126,424.5 -125.4,422.3 -124.3,416.2 -124.1,414.7 -123.6,411.6 
		-122.4,404.1 -121.9,400.9 -121.5,397.5 -121.2,395 -119.8,383.8 -119.7,382.8 -119.5,381.4 -118.3,372.5 -117.5,365.4 -117,361.6 
		-116.2,352.6 -116.2,352.2 -116.2,352 -116.2,351.7 -116,346.5 -116,343.8 -116,343 -116,342.4 -116,341.6 -116.2,337.2 
		-116.2,336.9 -116.6,332.8 -116.7,330.8 -117,327.6 -118.3,316.6 -118.4,315.9 -119.6,307.1 -119.7,306.1 -119.8,305.2 
		-121.2,293.9 -121.5,291.2 -122,288 -122.2,286.1 -122.6,283.8 -124.2,273.9 -124.8,270.1 -125,268.8 -125.4,266.5 -125.8,264.9 
		-126.4,262.9 -126.8,261.9 -127.5,260.4 -128.3,259.3 -128.6,258.8 -129.4,258 -130.2,257.2 -132.6,255.1 -133.8,254.4 -134,254.2 
		-135.2,253.6 -136.6,253.1 -137.9,253 -138,253 -139.6,253.4 -139.8,253.5 -139.9,253.5 -140.1,253.7 -141.9,253.8 -142.1,253.7 
		-142.3,253.6 -143.1,252.8 -143.5,250.9 -143.9,250.6 -144,249.7 -144.1,249.6 -144.4,248.5 -144.7,248.1 -145.1,247.1 
		-145.5,246.5 -145.9,245.9 -147.8,243.5 -147.9,243.4 -149.4,240.8 -149.6,240.5 -149.8,240.4 -150.5,239.6 -151.1,239.1 
		-151.5,238.8 -153.2,237.9 -153.2,237.9 -153.2,237.9 -155.2,237.4 -156.1,237.2 -156.4,237.2 -157.4,237.3 -158.3,237.3 
		-159.5,237.6 -160.9,237.8 -161.7,238.1 -162.2,238.2 -164.6,238.6 -164.9,238.6 -165.3,238.6 -166,238.6 -171.5,239 -172,239 
		-172.5,239.1 -175.4,239.5 -175.8,239.5 -177.4,239.8 -177.8,239.9 -178.8,240.2 -180.8,240.7 -181.7,241 -182,241.1 -182.3,241.3 
		-182.2,241.7 -170.8,241.7 -170.8,249.7 -201.8,249.7 -202.4,250.1 -202.4,250.1 -207,253.5 -207.7,254 -209.1,255.1 -211.3,256.9 
		-212.6,258 -213.3,258.6 -216.6,261.8 -218.2,263.3 -218.9,264.1 -222.1,267.5 -222.5,268.1 -228,274.5 -229.9,276.9 -232.7,280.4 
		-234.6,283 -238.4,288 -240.3,290.7 -240.2,291.1 -183.1,291.1 -183.1,299 -246.5,299 -246.8,299.5 -249.4,302.8 -249.9,303.4 
		-250.3,304 -251,305.5 -251.1,305.7 -251.2,306.1 -251.6,307.4 -251.8,307.9 -252,308.3 -252.2,308.5 -253.2,309.4 -254.4,310.6 
		-255.1,311.5 -255.5,312 -255.8,312.4 -257.7,315.7 -258,316.3 -259.1,318.5 -260.8,321.9 -261.4,323.4 -262.1,324.8 -266.1,334 
		-266.7,335.3 -267.4,337 -267.8,337.9 -268,338.7 -268.3,339.5 -268.4,340.1 -268.3,340.5 -192.7,340.5 -192.7,348.4 -268.3,348.4 
		-268.4,348.8 -268.3,349.4 -268,350.3 -267.8,351.1 -267.4,351.9 -266.7,353.5 -262,364.3 -261.5,365.4 -261.3,365.9 -260.8,367 
		-259.2,370.3 -258,372.6 -257.4,373.7 -256.1,375.9 -255.2,377.3 -254.7,378 -254,378.8 -253.8,379 -252.5,380.1 -252,380.7 
		-252,380.7 -252,380.8 -251.6,381.5 -251.6,381.5 -251.5,382 -251,383.5 -250.6,384.3 -250.2,385 -249.7,385.7 -246.8,389.4 
		-246.5,389.9 -183.1,389.9 -183.1,397.8 -240.2,397.8 -240.3,398.2 -238.1,401.4 -234.6,406 -232.3,409 -228.4,413.9 -225.1,417.9 
		-222.5,420.9 -221.6,421.9 -218.9,424.8 -216.8,426.9 -215.2,428.5 -213,430.5 -212.7,430.9 -210.6,432.6 -208.9,434 -206,436.2 
		-202.5,438.8 -202,439.2 -170.9,439.2 -170.9,447.2 -182.3,447.2 -182.4,447.6 -180.9,448.2 -178.9,448.7 -177.5,449.1 
		-175.1,449.5 -174.1,449.7 -172.3,449.8 -171.6,449.9 -165.9,450.3 -165.1,450.3 -164,450.4 -163.2,450.5 -161.3,450.9 
		-160.6,451.1 -159.8,451.3 -159.1,451.5 -158.1,451.6 -156.9,451.6 -155.8,451.6 -154.8,451.5 -154.5,451.4 -153.3,451 -153.2,451 
		-153.2,451 -151.8,450.3 -151.2,449.8 -150.7,449.4 -150.4,449.2 -149.6,448.3 -149,447.4 -147.9,445.5 -147.8,445.4 -147.7,445.3 
		-146,443 -145.6,442.6 -145.1,441.9 -144.5,440.9 -144.4,440.6 -144.4,440 -143.8,438.6 -143.8,438.6 -143.8,438.6 -143.8,438.6 
		-143.4,436.7 -142.1,435.2 -142,435.2 -142,435.1 -140.1,435.3 -139.9,435.4 -139.1,435.7 -138.8,435.9 -138.2,435.9 -137.8,436 
		-137.5,436 -135.2,435.3 -134.9,435.2 -134.8,435.1 -134.6,435 -134.2,434.8 -132.8,433.9 -132.6,433.8 	"/>
	<polyline class="st0" points="-150.8,223.6 -150.4,223.2 -149.3,221.6 -148.9,221 -148.4,219.9 -148.2,219.4 -148,218.4 
		-147.7,217.5 -147.5,217 -147.2,216.1 -146.9,215.4 -146.8,215.1 -146.5,213.1 -146.5,212.7 -146.1,211.1 -145.9,210.3 -145.9,210 
		-145.9,207.6 -145.9,207.4 -145.9,207.4 -145.9,207.4 -145.9,207.4 -145.9,205.2 -145.9,203.4 -145.9,203.3 -145.9,203.2 
		-145.9,201.4 -145.9,199.5 -145.9,199.2 -145.9,198.2 -145.9,196.9 -145.9,196.5 -146.4,194.9 -147.1,192.9 -147.2,192.7 
		-147.3,192.5 -147.5,191.9 -148.3,190.4 -148.8,189.6 -149.6,187.8 -150.2,186.7 -151.1,184.9 -151.1,184.9 -151.2,184.8 
		-152.6,182.5 -153.4,181.1 -154.8,178.9 -155.7,177.8 -156.8,175.7 -158.2,173.1 -159.4,170.6 -159.9,169.7 -160,169.5 -160.4,169 
		-160.8,168.3 -161.3,167.6 -161.6,166.5 -161.6,166.4 -161.4,166 -160.8,164.6 -160.7,164.5 -160.7,164.4 -161.2,163.2 
		-161.2,162.2 -160.9,161.4 -159.8,158.3 -159.8,158.1 -159.8,158.1 -159.8,158.1 -159.8,158 -159,154.1 -158.8,153.4 -158.6,152.1 
		-158.3,150 -158.2,148.4 -157.6,144.1 -157.4,142.4 -157.3,141.5 -157.1,140.2 -156.6,136.2 -156.3,133.1 -155.7,129.5 
		-154.8,122.5 -154.7,121.5 -154.6,120.6 -154.3,117.5 -154,113.1 -153.8,110.7 -153.7,107.3 -153.6,105.5 -153.6,103.2 
		-153.7,99.6 -153.8,99.4 -153.8,99.3 -154.3,92 -154.5,89.8 -154.5,89.8 -155.2,83.4 -155.6,81.2 -156.3,76.2 -156.6,73.6 
		-156.7,72.9 -157,70.3 -157.1,69.4 -157.4,66.4 -157.5,66.3 -157.5,66.3 -157.9,62.5 -158.2,60.1 -158.4,59.4 -158.6,57.3 
		-158.8,56.1 -159.8,51.3 -159.8,51.2 -159.8,51.2 -159.9,51 -161,47.9 -161.1,46.9 -161.2,46.1 -161.2,45.7 -161.2,45.4 
		-161.9,43.3 -162,43 -162,42.8 -162,42 -161.8,41.7 -161.7,41.2 -161.1,40.5 -160.7,40.1 -160.3,39.6 -159.4,38.9 -158.2,36.6 
		-156.5,33.7 -155.3,31.3 -153.5,28.5 -152.4,26.3 -151.2,24.5 -150.2,22.9 -149.9,22.2 -148.9,20.3 -148.6,19.7 -147.5,17.5 
		-147.3,16.9 -146.2,14.1 -145.9,13.1 -145.9,12.1 -145.9,10.5 -145.9,10.4 -145.9,10.2 -145.9,8.6 -145.9,6.8 -145.9,6.7 
		-145.9,6.7 -145.9,4.7 -145.9,3 -145.9,2.6 -145.9,2.2 -145.9,0.8 -145.9,-0.9 -146,-1.1 -146.2,-1.9 -146.7,-4.2 -146.7,-4.3 
		-146.7,-4.3 -146.7,-4.3 -146.7,-4.3 -147.2,-6.5 -147.6,-7.8 -147.8,-8.1 -147.9,-8.6 -148.1,-9.2 -148.4,-10.4 -148.7,-11.2 
		-149,-11.9 -149.5,-12.9 -149.8,-13.3 -151,-14.4 -151.5,-15 -151.8,-15.3 -152.3,-15.5 -152.7,-15.7 -153.1,-15.8 -154.4,-16.3 
		-154.7,-16.4 -155.4,-16.8 -155.5,-16.8 -155.5,-16.8 -156.8,-17.7 -157.1,-18 -157.5,-18.3 -158,-18.5 -158.7,-18.7 -158.7,-18.7 
		-159.6,-18.7 -159.7,-18.6 -160.6,-18.3 -161,-18.2 -161.6,-17.8 -161.8,-17.6 -162.7,-16.6 -163.1,-16.2 -163.6,-15.5 
		-164.1,-14.7 -164.5,-13.8 -164.8,-13.3 -165.3,-12.2 -165.8,-10.9 -166.8,-7.4 -166.8,-7.3 -166.8,-7.3 -166.8,-7.2 -166.8,-7.2 
		-167.8,-4.6 -168,-4.4 -168.9,-1.9 -169.2,-1.2 -169.7,0.5 -170,1.6 -169.9,2 -158.9,2 -158.9,9.9 -172.8,9.9 -173.1,10.3 
		-173.4,10.8 -174.7,12.2 -175,12.5 -175.4,12.9 -177.4,15.2 -178.7,15.8 -179.9,16.4 -180,16.5 -180.4,16.6 -180.7,16.8 
		-180.9,16.8 -181,16.7 -181.3,16.7 -181.6,16.5 -181.9,16.1 -182.1,15.8 -182.3,15.5 -182.3,15.2 -182.3,14.7 -182.3,14.7 
		-182.1,14.1 -182.1,13.8 -182.1,13.3 -182.4,11.3 -183.1,7.7 -183.3,6.7 -183.4,6 -183.7,4 -183.8,2.9 -183.8,2.8 -184.3,1 
		-184.3,1 -184.3,1 -184.6,-0.2 -185.1,-1.3 -185.4,-1.9 -185.7,-2.5 -186.6,-4.4 -187,-5.1 -187.5,-5.7 -188,-6.4 -188.4,-6.9 
		-189,-7.5 -189.8,-8.2 -190.4,-8.7 -191.5,-9.2 -192.1,-9.5 -192.5,-9.7 -193.7,-10.1 -193.8,-10.1 -194,-10.1 -195.3,-10.1 
		-195.9,-10 -196.7,-9.8 -196.8,-9.7 -197.3,-9.5 -197.6,-9.3 -197.8,-9.2 -198.2,-8.8 -198.7,-8.2 -199.3,-7.6 -200.2,-6.4 
		-201.1,-5.6 -201.8,-4.8 -203,-3.8 -204.4,-2.7 -205.1,-2 -208.5,1.6 -208.4,2 -198.8,2 -198.8,9.9 -216.1,9.9 -216.5,10.3 
		-219.6,13.8 -220.2,14.5 -221.2,15.7 -221.6,16.1 -222.6,17.6 -223.1,18.5 -223.8,19.8 -225.4,21.7 -225.7,22.1 -226.4,22.8 
		-227.5,23.9 -228.3,24.8 -228.7,25.3 -231.1,28.2 -233,30.8 -236.4,35.5 -240.4,41.2 -243.4,45.8 -244.6,47.7 -246.1,50.2 
		-246.5,50.9 -246.4,51.4 -205,51.4 -205,59.3 -251.2,59.3 -253,62.9 -253.4,63.7 -253.9,64.9 -255.6,68.7 -256.7,71.3 -258.1,74.9 
		-258.9,77.4 -259,77.8 -259.5,78.9 -260,79.9 -260.6,80.9 -260.8,81.1 -261.2,81.6 -261.5,82 -261.7,82.2 -262.1,83.6 -262.2,83.9 
		-262.2,84 -262.7,86.2 -263.5,88.1 -264,89.3 -265,92 -266.1,94.5 -266.6,95.6 -267.4,97.5 -267.7,98.6 -268.3,100.3 -268.2,100.7 
		-211.6,100.7 -211.6,108.7 -268.2,108.7 -268.3,109.1 -268,110.1 -267.5,111.6 -266.8,113.3 -266.2,114.8 -265.1,117.2 
		-264.6,118.7 -264,120.1 -263.2,122.1 -262.7,123.2 -262.5,124.4 -262.2,125.6 -261.5,127.6 -261.5,127.6 -260.4,128.8 
		-259.8,129.9 -259.2,131.2 -259.1,131.5 -259,131.7 -258.1,134.5 -255.5,140.9 -254.8,142.7 -254.2,144.1 -252.3,147.9 
		-251.4,149.7 -251.2,150.1 -205.1,150.1 -205.1,158.1 -246.4,158.1 -246.5,158.5 -246.1,159.1 -244.6,161.6 -243.6,163.3 
		-240.5,168 -238.6,170.6 -234.4,176.8 -230.8,181.4 -230.2,182.3 -228.1,184.8 -227.8,185.3 -226.5,186.5 -225.8,187.3 
		-225.4,187.7 -223.9,189.6 -222.8,191.5 -222.1,192.6 -220.9,194.1 -220.6,194.5 -219.4,195.9 -219,196.3 -218.3,197 -217.2,198.2 
		-216.8,198.6 -216.6,198.9 -216.5,199 -216.5,199.1 -216.1,199.5 -198.8,199.5 -198.8,207.4 -208.4,207.4 -208.5,207.9 
		-205.1,211.5 -204.4,212.1 -203,213.2 -202.2,213.9 -201.6,214.5 -200.4,215.5 -199.9,216.1 -198.9,217.4 -197.9,218.6 
		-197.8,218.7 -197.8,218.7 -196.8,219.2 -196.6,219.3 -195.7,219.5 -194.7,219.6 -193.7,219.5 -193.3,219.5 -193.3,219.4 
		-192.1,219 -191.2,218.6 -190.5,218.2 -189.8,217.7 -189.2,217.1 -188.4,216.4 -187.7,215.4 -187.2,214.7 -186.6,213.8 -186.2,213 
		-185.9,212.4 -185.7,212 -184.9,210.3 -184.8,210 -184.5,209.2 -184.3,208.4 -184.2,208.1 -184,207.6 -183.8,206.7 -183.6,204.9 
		-183.6,204.8 -183.6,204.7 -183.6,204.5 -183.5,204.2 -182.7,199.4 -182.3,197.8 -182.1,196 -182.1,195.6 -182.2,195 -182.3,194.4 
		-182.3,193.9 -182.2,193.6 -181.9,193 -181.8,193 -181.8,192.9 -181.5,192.7 -180.9,192.5 -180.8,192.4 -180.7,192.5 -180.2,192.7 
		-179.3,193.1 -178.9,193.5 -175.6,196.5 -175,196.9 -174.6,197.2 -172.9,199.1 -172.6,199.5 -172.6,199.5 -158.9,199.5 
		-158.9,207.4 -169.9,207.4 -170,207.9 -169.2,210.6 -168.9,211.3 -168,213.8 -167.8,214 -166.8,216.6 -166.8,216.6 -166.8,216.6 
		-166.8,216.7 -166.8,216.7 -165.9,220.2 -165.5,221.3 -165.1,222.1 -164.6,223.1 -164.4,223.7 -164.2,223.9 -163.7,224.9 
		-163.2,225.5 -162.7,226.1 -162.5,226.4 -162,226.9 -161.6,227.2 -161,227.6 -160.7,227.7 -160.3,227.9 -159.8,228 -159.6,228.1 
		-158.6,228.2 -158.6,228.2 -158.6,228.2 -158.5,228.1 -157.6,227.8 -157.5,227.8 -157.3,227.6 -156.4,226.8 -156.2,226.6 
		-155.8,226.4 -155.4,226.1 -155.3,226 -154.6,225.7 -154,225.5 -152.1,224.6 -152,224.5 -151.9,224.4 -151.9,224.4 -150.8,223.6 	
		"/>
	<polyline class="st0" points="-139.3,-29.5 -139.2,-29.7 -138.7,-30.2 -138.2,-30.8 -138.2,-31.2 -138.2,-31.6 -138.2,-32.7 
		-138.2,-34.1 -138.2,-35.6 -138.2,-36.4 -138.2,-38 -138.2,-38.4 -138.2,-40.1 -138.2,-40.3 -138.2,-41.9 -138.2,-42.1 
		-138.2,-43.9 -138.2,-44.2 -138.2,-45.3 -138.2,-46.7 -138.2,-47.1 -138.2,-48.5 -138.2,-49.4 -138.2,-50.2 -138.2,-51.8 
		-138.2,-52.8 -138.2,-54.9 -138.2,-57.2 -138.2,-57.9 -138.2,-59.2 -138.2,-60.4 -138.2,-61.1 -138.2,-62.8 -138.2,-62.8 
		-138.3,-62.9 -138.3,-63.3 -138.4,-63.5 -139.4,-64.2 -140.3,-64.7 -140.6,-64.8 -140.9,-64.9 -142.2,-65.2 -143,-65.3 
		-144.4,-65.4 -144.8,-65.3 -145,-65.4 -145.6,-65.7 -145.7,-65.8 -145.8,-65.8 -146.5,-66.8 -147,-67.9 -147.4,-68.8 -147.9,-69.5 
		-148.7,-70.5 -148.9,-70.7 -150.5,-72.4 -151.3,-73.1 -152.6,-74.2 -153.3,-74.7 -153.6,-74.9 -154.4,-75.4 -154.6,-75.5 
		-157,-76.7 -158.5,-77.3 -160.7,-78.6 -160.9,-78.7 -161.1,-78.8 -161.2,-78.9 -164.1,-81.1 -166.6,-82.6 -166.9,-82.9 
		-167.9,-83.7 -167.9,-83.7 -168.2,-84.2 -168.3,-84.3 -168.5,-84.8 -168.6,-85.1 -168.5,-85.4 -168.4,-85.7 -168.3,-86 
		-167.7,-86.5 -167.7,-86.5 -165.8,-87 -165.6,-87 -165.1,-87.6 -164.7,-87.9 -164.7,-88 -163.7,-89.8 -163.6,-90 -163.2,-91.4 
		-162.9,-91.9 -162.3,-93.6 -161.6,-96.2 -161.2,-97.8 -160.7,-101 -160.6,-101.7 -160.5,-102.1 -160,-106.3 -159.8,-107.5 
		-159.8,-107.6 -159.5,-109.8 -159,-111.9 -158.7,-113.3 -158.6,-113.7 -158,-116.3 -156.6,-121.1 -156,-123.7 -155.5,-126.1 
		-155.3,-127.6 -155.1,-129.5 -155,-131.3 -154.8,-133.9 -154.8,-134.9 -154.9,-136.5 -155,-140.4 -154.9,-142.7 -154.9,-142.8 
		-154.8,-145.2 -154.9,-148.2 -154.9,-149.5 -155.1,-151.6 -155.2,-152.3 -155.3,-153.3 -155.5,-154.8 -156,-157.2 -156.6,-159.8 
		-158.1,-165.2 -159.1,-169.6 -159.2,-169.9 -159.3,-170.3 -159.4,-171 -159.8,-173.2 -160.5,-178.4 -160.6,-179.3 -160.7,-180 
		-161.2,-183.1 -161.5,-184.3 -162,-186.2 -162.2,-187 -162.4,-187.5 -163,-189.2 -163.8,-191.4 -163.9,-191.5 -164.1,-191.9 
		-164.7,-192.9 -165.5,-193.6 -165.8,-193.9 -166.4,-194.1 -167.5,-194.3 -167.8,-194.4 -167.8,-194.4 -168.4,-195.1 -168.5,-195.1 
		-168.5,-195.1 -168.6,-196 -168.4,-196.3 -168,-197.2 -168,-197.2 -168,-197.2 -166.7,-198.2 -166.5,-198.3 -164.4,-199.6 
		-162.8,-200.8 -160.4,-202.5 -160.3,-202.6 -160.2,-202.6 -160,-202.7 -158.8,-203.5 -158.3,-203.7 -157.6,-204 -155.8,-204.8 
		-154.6,-205.3 -154.4,-205.5 -153.9,-205.8 -153.2,-206.2 -152.2,-207 -150.8,-208.3 -150.1,-209 -149.6,-209.4 -148.3,-210.9 
		-147.8,-211.7 -147.2,-212.5 -146.2,-214.6 -146,-214.9 -145.4,-215.3 -145.2,-215.5 -145,-215.5 -144.4,-215.6 -144.1,-215.6 
		-142.6,-215.7 -141.7,-215.8 -140.9,-216 -140.5,-216.1 -139.6,-216.5 -139.3,-216.7 -138.7,-217.2 -138.3,-217.6 -138.2,-217.6 
		-138.2,-218.6 -138.2,-219.5 -138.2,-220.4 -138.2,-222.6 -138.2,-222.9 -138.2,-223.1 -138.2,-225.8 -138.2,-226.1 -138.2,-227.9 
		-138.2,-228.6 -138.2,-229.6 -138.2,-230.9 -138.2,-231.2 -138.2,-231.5 -138.2,-232.9 -138.2,-234.3 -138.2,-235.2 -138.2,-237.2 
		-138.2,-237.3 -138.2,-237.3 -138.2,-239.2 -138.2,-240.5 -138.2,-241.1 -138.2,-241.8 -138.2,-242.9 -138.2,-243.7 -138.2,-244.8 
		-138.2,-245.9 -138.2,-246.5 -138.2,-247.8 -138.2,-248.5 -138.2,-249.7 -138.2,-250.1 -138.3,-250.3 -138.4,-250.4 -138.6,-250.7 
		-139.4,-251.5 -140.4,-252.2 -140.7,-252.4 -141,-252.5 -141.8,-252.9 -142.7,-253.1 -143.1,-253.1 -143.3,-253.1 -144.3,-253.1 
		-145.3,-253 -146.4,-252.8 -147.8,-252.6 -148.8,-252.2 -149.8,-251.9 -150.5,-251.6 -151.7,-251.1 -151.8,-251 -152.3,-250.7 
		-155.2,-249 -156.2,-248.4 -158.4,-247 -159.3,-246.3 -162.7,-244 -163.2,-243.6 -163.1,-243.2 -155.3,-243.2 -155.3,-235.3 
		-172.4,-235.3 -172.8,-234.8 -172.9,-234.7 -173.1,-234.4 -173.2,-234.3 -173.2,-234.3 -174.5,-233.1 -175.1,-232.5 -177.9,-230.5 
		-177.9,-230.5 -180.7,-228.5 -181.1,-228.3 -182.8,-226.8 -183.3,-226.5 -184.6,-225.3 -185.1,-224.9 -186.2,-224 -186.6,-223.6 
		-186.8,-223.4 -187.5,-222.8 -188.8,-221.7 -189.2,-221.5 -189.4,-221.4 -189.8,-221.1 -192.7,-219.1 -193.6,-218.5 -193.8,-218.5 
		-193.9,-218.4 -194.2,-218.3 -195,-218.1 -195.3,-218.1 -195.8,-218.1 -196.1,-218.1 -196.2,-218.2 -196.7,-218.3 -196.9,-218.5 
		-197.3,-218.9 -197.3,-219 -197.5,-219.2 -197.2,-220.8 -197.2,-220.9 -197.2,-220.9 -197.2,-221.1 -196.5,-223.9 -196.1,-225.2 
		-195.8,-226.5 -195.5,-227.8 -195.2,-229.4 -195.2,-230.7 -195.2,-231.1 -195.2,-231.2 -195.3,-231.4 -195.7,-232.6 -196,-233 
		-196.6,-233.9 -197.2,-234.5 -197.3,-234.6 -197.4,-234.7 -198.4,-235.2 -198.7,-235.3 -200.1,-235.6 -200.2,-235.6 -200.3,-235.6 
		-201.8,-235.4 -202.3,-235.4 -202.3,-235.4 -202.4,-235.4 -204.1,-235 -204.6,-235 -205.4,-234.9 -206.2,-234.8 -207.2,-234.7 
		-207.2,-234.6 -207.3,-234.6 -208.2,-234.2 -208.7,-233.8 -210,-232.8 -210.9,-232 -211.6,-231.4 -214.5,-228.5 -216.7,-226.5 
		-217.7,-225.5 -220,-223.4 -221,-222.4 -223.8,-219.4 -224.1,-219 -225.5,-217.2 -226.8,-215.6 -227,-215.3 -228.8,-212.6 
		-230.4,-210.4 -230.9,-209.6 -232.7,-206.7 -235.8,-202.1 -236.1,-201.8 -237.2,-200.5 -237.4,-200.3 -238.5,-198.6 -238.8,-198.1 
		-240.3,-196.3 -241.7,-194.2 -241.6,-193.8 -204.1,-193.8 -204.1,-185.9 -248.2,-185.9 -248.5,-185.4 -249.3,-184.3 -249.4,-184 
		-250.8,-182 -251.6,-180.7 -252.6,-178.9 -253.5,-177.1 -254,-176.1 -254.4,-175.1 -255.2,-172.5 -255.5,-171.8 -255.8,-171 
		-256.2,-169.9 -257.3,-167.2 -257.8,-166.1 -258.3,-165.1 -258.7,-164.3 -259.3,-163.3 -261.6,-159.6 -262,-158.9 -262.4,-158.3 
		-262.8,-157.6 -263.7,-156 -264.7,-153.9 -265.9,-150.8 -266,-150.7 -267.3,-147.3 -267.7,-146.4 -268.1,-145.3 -268.2,-144.9 
		-268.1,-144.4 -212.2,-144.4 -212.2,-136.5 -268.1,-136.5 -268.2,-136.1 -266.6,-131.7 -266.3,-131 -266.1,-130.4 -265.7,-129.2 
		-263.4,-124.3 -262.3,-122.4 -262.2,-122.3 -262.1,-122.1 -261.9,-121.9 -259.3,-117.6 -258.7,-116.6 -258.1,-115.5 -257.6,-114.5 
		-257.2,-113.3 -256,-110.4 -255.8,-109.9 -255,-107.8 -254.3,-105.6 -254,-104.8 -253.2,-103 -252.6,-101.8 -251.8,-100.5 
		-249.4,-96.8 -249.4,-96.7 -249.3,-96.6 -248.2,-95 -204.1,-95 -204.1,-87.1 -241.6,-87.1 -241.7,-86.7 -239.4,-83.4 -238.8,-82.7 
		-237.3,-80.6 -237.2,-80.5 -236.1,-79.1 -235.8,-78.7 -234.9,-77.4 -233.9,-75.9 -232,-73.1 -231,-71.4 -230.4,-70.6 -230.3,-70.3 
		-227.7,-66.7 -225.8,-63.9 -225.2,-63.3 -224.4,-62.2 -222,-59.6 -221.5,-59 -220.4,-57.9 -217.7,-55.4 -216.8,-54.6 -212.6,-50.6 
		-212.3,-50.3 -211.7,-49.7 -209.3,-47.5 -209.2,-47.4 -208.3,-46.8 -208.1,-46.7 -208.1,-46.7 -208.1,-46.6 -207.4,-46.3 
		-206.4,-46.1 -206,-46.1 -205.9,-46.1 -205.8,-46 -205.7,-46 -205.1,-46 -204.1,-45.9 -204,-45.9 -202.2,-45.5 -202.1,-45.5 
		-202,-45.5 -201.3,-45.5 -200.3,-45.3 -200.2,-45.3 -200.2,-45.3 -199,-45.4 -198.9,-45.5 -198.1,-45.9 -197.8,-46 -197.7,-46.1 
		-196.8,-46.9 -196.6,-47 -196.6,-47 -196.1,-47.7 -195.9,-47.9 -195.9,-48 -195.9,-48 -195.4,-48.9 -195.4,-49.1 -195.2,-50.7 
		-195.2,-51.4 -195.5,-53.1 -195.8,-54.6 -196.2,-56.2 -196.9,-58.7 -197.1,-59.5 -197.3,-60.3 -197.4,-60.8 -197.5,-60.9 
		-197.4,-61.1 -197.3,-62 -197.1,-62.1 -196.7,-62.6 -196.1,-62.8 -195.4,-62.8 -195.3,-62.8 -194.1,-62.6 -194.1,-62.5 
		-194.1,-62.5 -193.9,-62.5 -192.8,-61.9 -191.2,-60.7 -190.3,-60.1 -189.8,-59.8 -188.7,-59.1 -187.8,-58.4 -187.3,-58 
		-186.9,-57.5 -185,-56 -184.1,-55.1 -182.2,-53.5 -181.8,-53.2 -180.4,-52.1 -177.9,-50.4 -177.8,-50.3 -177.7,-50.2 -175.3,-48.5 
		-174.6,-47.9 -173.2,-46.6 -173.2,-46.6 -172.7,-46 -172.4,-45.7 -155.2,-45.7 -155.2,-37.7 -163.2,-37.7 -163.3,-37.3 
		-160.4,-35.3 -159.7,-34.8 -159.4,-34.6 -157.7,-33.4 -156.7,-32.9 -155.3,-31.9 -153.8,-31.1 -151.6,-29.8 -149.8,-29 
		-148.9,-28.7 -147.7,-28.4 -146.5,-28.2 -145.4,-28 -143.7,-27.8 -143.5,-27.8 -141.8,-28.1 -141,-28.4 -140.7,-28.5 -140.5,-28.6 
		-139.5,-29.4 -139.3,-29.5 	"/>
	<polyline class="st0" points="-65.4,940.8 -64.5,940.3 -63.5,939.7 -61.6,938.1 -61.5,938 -61.3,937.8 -60.3,936.5 -59.3,935.1 
		-58.4,933.9 -58,933.3 -57.3,932 -55.6,928.6 -55.4,928.2 -55.3,927.9 -54.4,926.2 -51.6,920.8 -51.3,920.1 -50.9,919.4 
		-49.5,916.5 -47.2,911.4 -46.4,909.7 -45.9,908.3 -43.8,903.2 -43.5,902.8 -43.4,902.7 -42.6,901.1 -42.2,900.4 -41.6,899.5 
		-41.2,899 -41.4,898.6 -62.1,898.6 -62.1,890.7 -35.4,890.7 -35.2,890.3 -34.7,889.6 -34.3,889 -33.3,887.5 -32.7,886.3 
		-31.8,884.5 -31.4,883.8 -30.8,882.1 -30.8,881.9 -30.2,880.1 -29.5,876 -29.3,875.3 -28.9,872.8 -28.6,871.1 -28.2,867.9 
		-27.7,863.5 -27.5,861.7 -27.5,861.5 -27.5,860.3 -27,858.7 -27,858.6 -26.7,857.4 -26.4,855.4 -26,853.9 -25.7,851.6 -25.5,850.3 
		-25.3,845.9 -25.3,845.9 -25.5,845.5 -62.3,845.5 -62.3,837.5 -25.2,837.5 -25.1,837.1 -25.1,835.9 -25.1,833.4 -25.2,829.6 
		-25.3,829.3 -25.3,829 -25.9,819.9 -26,818.9 -26.3,811.6 -26.4,807.1 -26.5,805.4 -26.7,804.2 -26.7,803.9 -26.7,803.4 
		-26.7,802.7 -26.7,802.3 -27,799.3 -27.4,797 -27.6,796 -27.6,795.9 -28.2,792.7 -28.2,792.7 -28.3,792.3 -60.3,792.3 -60.3,784.4 
		-30.4,784.4 -30.3,784 -30.3,783.9 -30.8,783 -31.1,782.6 -31.3,782.4 -32,781.2 -32.7,780.3 -33.9,778.6 -34,778.5 -34,778.5 
		-34,778.5 -34,778.5 -34.1,778.4 -35.2,776.8 -35.5,776.2 -36.3,774.7 -36.3,774.7 -36.3,774.7 -37,772.8 -37.4,771.5 -37.6,771 
		-37.6,771 -37.6,769 -37.7,767.2 -37.7,767.1 -37.7,766.9 -37.7,764 -37.8,763 -37.9,762.5 -38,761.8 -38.3,760.3 -39,758.1 
		-39.5,755.8 -40.3,753.5 -40.6,752.4 -40.7,752 -41,751.1 -41.1,750.4 -41.1,750.2 -41.6,748 -42.2,744.7 -42.3,744.4 -42.3,744.1 
		-42.5,741 -42.5,740.6 -42.6,739.6 -42.7,739.2 -57.8,739.2 -57.8,731.2 -43.2,731.2 -43.1,730.8 -43.2,729.6 -43.3,728.8 
		-43.4,728 -43.8,726.4 -44.2,724.7 -44.8,721.7 -44.8,721.6 -45.1,721 -45.5,720 -46.5,718.1 -46.9,717.2 -48,714.4 -48.7,713 
		-48.9,712.7 -50.3,709.5 -52.5,705.5 -52.6,705.3 -53.2,704.6 -54,703.7 -54.2,703.5 -54.8,703.1 -56,702.5 -56.4,702.4 
		-57.2,702.4 -57.6,702.5 -58.6,703 -58.9,703.2 -59.8,704.1 -60.4,704.9 -61.4,706.4 -62,707.5 -63.2,710.1 -63.2,710.2 
		-63.3,710.2 -64.4,713.2 -65.9,717.6 -65.9,717.7 -66,718.8 -66,719.6 -65.8,720.8 -65.9,721.1 -66,721.8 -66.4,722.5 -66.5,722.7 
		-67.5,723.8 -67.8,724.3 -68.6,725.6 -68.8,726 -72,735 -73.2,738.4 -73.3,738.7 -73.6,739.7 -74.7,742.6 -75.3,744.2 -76.4,747.9 
		-76.8,749.2 -77.4,751.7 -77.9,753.6 -79.4,759.4 -79.4,759.6 -79.5,759.7 -79.9,762.1 -80,763.1 -80.1,764.6 -80.2,764.9 
		-81.4,765.8 -81.7,766 -81.7,766 -82.2,766.5 -83,767.2 -83.1,767.4 -84.3,769.3 -84.9,770.2 -85,770.4 -85.6,771.7 -87.1,775 
		-87.3,775.5 -88.4,778.2 -88.5,778.5 -90.6,785.7 -91.3,787.5 -93.1,792.5 -95.4,799 -95.9,801.2 -96.2,802.4 -96.7,805.6 
		-96.8,806.6 -96.8,806.8 -96.8,807.6 -96.7,810.9 -96.6,811.7 -95.8,814.6 -95.7,814.9 -95.5,815.4 -95.5,815.6 -95.5,816.3 
		-96.1,817 -97.2,818.7 -97.5,819.3 -97.9,820.2 -98.4,821.6 -98.6,822.2 -99,824 -99.1,824.7 -99.4,826.3 -99.6,828.2 -99.7,829.3 
		-99.9,833.2 -99.9,835.9 -100.1,838.8 -100.1,842.6 -100.1,842.8 -99.9,846.6 -99.7,850.2 -99.7,850.2 -99.7,850.3 -99,855.3 
		-98.6,857.7 -98.2,860.4 -97.9,862 -97.7,862.8 -97.4,864.3 -97.1,865.4 -96.8,866.4 -94.5,873.7 -92.9,879.5 -92.7,880.2 
		-92.3,881 -91.9,881.9 -91.1,882.9 -90.7,883.5 -90.5,883.7 -89.8,884.2 -89.4,884.4 -89.4,884.5 -88.7,884.8 -88.7,885.1 
		-88.8,885.3 -89.4,886.4 -89.5,886.8 -89.5,887.4 -89.2,889.2 -88.9,890.9 -88.3,892.6 -87.8,894.5 -87.3,895.9 -86.9,896.8 
		-86.5,897.7 -85.5,899.7 -85.1,900.3 -85,900.4 -84.9,900.4 -84.7,900.5 -84.2,900.7 -82.7,900.8 -82.6,901 -82.3,901.6 
		-82.2,903.9 -82,906 -81.9,907 -81.1,910.7 -80.9,911.9 -80.7,912.7 -80,914.2 -78.8,916.7 -77.7,919.2 -76.8,920.7 -74.9,923.7 
		-74.8,924 -73.1,926.7 -72.5,928.4 -72.1,929.4 -71.5,930.8 -70.8,934.3 -70.4,936.7 -69.6,938.8 -69.5,939.1 -69.3,939.3 
		-68.3,940.4 -67.7,940.7 -67.2,940.8 -66.3,940.9 -65.7,940.9 -65.4,940.8 	"/>
	<polyline class="st0" points="-67,693.3 -65.9,693.3 -65.3,693.2 -64.4,692.7 -63.6,692.2 -62.9,691.7 -61.7,690.6 -61,689.8 
		-59.7,688.2 -58,685.5 -57.6,685 -57.4,684.8 -57.3,684.5 -56.8,683.4 -55.3,680.3 -52,673.9 -51.9,673.8 -50.3,670.6 -47.2,663.9 
		-46.7,662.7 -46.5,662.3 -44.9,658.4 -44.8,658.2 -43.5,655.2 -43.5,655.2 -43.4,655.1 -42,652.6 -41.9,652.4 -41.2,651.5 
		-41.3,651.1 -62.1,651.1 -62.1,643.1 -35.5,643.1 -34.9,642.2 -34.5,641.8 -33.8,640.7 -33,639.5 -32.4,638.1 -32,637.3 
		-31.9,637.1 -31,634.9 -30.8,634 -29.9,631.1 -29.6,628.8 -29.4,628.2 -28.8,624.1 -28.8,624 -28.7,623.7 -28.7,623.6 -28.5,622.2 
		-27.6,614.9 -27.5,614.1 -27.6,614 -27.5,612.7 -27,611.2 -27,611.1 -26.8,609.9 -26.4,608 -26,606.4 -25.8,604.1 -25.6,603 
		-25.4,598.5 -25.4,598.4 -25.5,597.9 -62.4,597.9 -62.4,590 -25.3,590 -25.1,589.6 -25.1,587.7 -25.2,583.5 -25.2,583.4 
		-25.2,583.2 -25.3,583 -25.6,577 -26,572.4 -26,571.8 -26.3,564 -26.4,560.2 -26.5,557.9 -26.6,557.4 -26.7,556.7 -26.7,556.3 
		-26.7,555.1 -26.7,554.5 -26.9,553.7 -27,552.3 -27.6,549 -27.8,547.1 -28.2,545.2 -28.3,544.8 -60.3,544.8 -60.3,536.8 
		-30.4,536.8 -30.3,536.4 -31,535.2 -31.1,535.1 -31.1,535.1 -31.7,534.2 -32.8,532.7 -32.8,532.6 -32.8,532.6 -33.9,531.1 
		-34.3,530.6 -34.9,529.7 -35.5,528.7 -36.3,527.2 -36.3,527.1 -36.8,526 -37.4,524.4 -37.6,523.7 -37.7,522.5 -37.8,520.8 
		-37.7,519.8 -37.7,517.1 -37.7,516.5 -37.8,515.9 -38,514.3 -38.2,513.4 -38.6,511.9 -39.6,508.2 -40.4,505.7 -40.7,504.9 
		-40.7,504.4 -41,503.5 -41.1,503 -41.1,502.8 -41.6,500.5 -42.3,497.1 -42.3,496.7 -42.4,496.4 -42.5,493.9 -42.6,492.1 
		-42.7,491.6 -57.8,491.6 -57.8,483.7 -43.3,483.7 -43.2,483.3 -43.3,482 -43.4,480.6 -43.4,480.4 -43.5,480 -44.7,474.8 
		-44.8,474.3 -45.1,473.7 -45.8,471.8 -45.9,471.7 -46,471.5 -47.1,469.1 -48.5,466 -48.6,465.6 -48.7,465.5 -48.8,465.4 
		-50.5,461.6 -51.1,460.6 -52.4,458.2 -52.6,457.9 -53.4,456.9 -54.1,456.1 -54.2,455.9 -54.9,455.6 -56.1,455 -56.6,454.9 
		-57.4,455 -58.5,455.4 -59,455.7 -59.6,456.3 -60.1,456.9 -60.7,457.8 -61.6,459.1 -61.9,459.6 -62.9,461.9 -63.1,462.3 -64,464.7 
		-65.2,467.9 -65.9,470.1 -66,470.5 -66,471.5 -66,472.3 -65.9,473.5 -66.1,474.4 -66.2,474.5 -66.2,474.6 -66.4,474.7 -67.6,476.5 
		-68,477 -68.3,477.6 -68.5,478 -69,479.1 -69.6,480.8 -71.9,487.2 -73.1,490.5 -73.7,492.4 -74.5,494.3 -75.5,497.6 -76,499 
		-76.8,501.7 -78.1,507 -79.4,511.7 -79.4,512.1 -79.9,514.5 -80,516.1 -80,516.6 -80.1,516.8 -80.2,517.4 -81.4,518.3 -81.7,518.4 
		-81.7,518.5 -82.2,518.9 -83,519.7 -83.1,519.8 -84.3,521.8 -84.9,522.6 -85.6,524.1 -87.1,527.3 -87.3,527.9 -88.4,530.7 
		-88.5,531.1 -90.4,537.4 -91.1,539.5 -93.3,545.6 -94.6,549.4 -95.4,551.6 -95.9,553.7 -96.2,554.9 -96.7,558.1 -96.8,559.1 
		-96.8,559.3 -96.8,562.1 -96.7,563.3 -96.6,564.2 -96.5,564.8 -96,566.5 -95.5,567.7 -95.5,568.4 -95.5,568.8 -96,569.4 -97.1,571 
		-97.5,571.8 -97.9,572.7 -98.4,574.1 -98.6,574.6 -99,576.5 -99.1,577.2 -99.4,578.9 -99.6,580.5 -99.7,581.7 -99.9,585.7 
		-100.1,589.5 -100.1,592.1 -100.1,595.1 -100.1,595.3 -99.9,599 -99.5,603.7 -99.5,604.3 -99.2,606.2 -98.6,610.3 -97.9,614.2 
		-97.7,615.2 -97.2,617.7 -96.8,618.9 -94.5,626.2 -92.9,632 -92.2,633.5 -91.8,634.6 -91.2,635.3 -90.4,636.2 -90,636.6 -89.2,637 
		-88.7,637.2 -88.6,637.4 -89.1,638.3 -89.5,639.2 -89.5,640 -89.5,640.7 -88.9,643.2 -88.3,645.3 -87.9,646.4 -87.3,648.2 
		-86.9,649.3 -86.5,650 -85.4,652.3 -85.1,652.6 -84.7,653 -83.1,653.2 -82.6,653.3 -82.4,653.8 -82.3,654.2 -82.2,656.2 
		-82.1,657.1 -81.9,659.4 -81.1,663.6 -80.9,664.2 -79.8,667.4 -79.3,668.4 -77.7,671.7 -77.1,672.7 -75,676 -74.9,676.1 
		-74.9,676.3 -73.5,678.6 -72.5,680.5 -72,682 -71.6,682.9 -71,686.1 -70.4,688.9 -70,690.3 -69.9,690.7 -69.6,691.2 -69,692.2 
		-68.7,692.5 -67.8,693 -67,693.3 	"/>
</g>
</svg>
