<?xml version="1.0" encoding="utf-8"?>
<!-- Generator: Adobe Illustrator 25.0.0, SVG Export Plug-In . SVG Version: 6.00 Build 0)  -->
<svg version="1.1" xmlns="http://www.w3.org/2000/svg" xmlns:xlink="http://www.w3.org/1999/xlink" x="0px" y="0px"
	 viewBox="0 0 841.9 595.3" style="enable-background:new 0 0 841.9 595.3;" xml:space="preserve">
<style type="text/css">
	.st0{fill:none;stroke:#000000;stroke-width:0;stroke-linecap:round;stroke-linejoin:round;stroke-miterlimit:10;}
</style>
<g id="cut">
	<g id="SPLINE">
		<path class="st0" d="M384.8,223.1c0-1.4,1.1-2.5,2.5-2.5c0,0,1.4,0,2.5,1.1c0,1.4,0,1.4,0,2.8c-1.1,1.1-2.5,1.1-2.5,1.1
			C385.9,225.6,384.8,224.5,384.8,223.1z"/>
	</g>
	<g id="SPLINE_1_">
		<polyline class="st0" points="379.8,216.1 380,216.2 380.6,216.3 382.6,216.7 385,217.3 387.1,217.8 387.8,217.9 388.2,218 
			388.3,218 388.6,218.1 389.2,218.4 390.2,219 391,219.9 391.5,221 391.8,222.3 391.8,222.8 391.8,222.8 391.8,222.9 391.8,223.3 
			391.8,223.4 391.8,223.4 391.8,223.5 391.8,223.8 391.6,225 391,226.1 390.3,227.1 389.3,227.8 388.2,228.2 387.9,228.2 
			387.3,228.4 385.3,228.9 382.9,229.4 380.8,229.9 380.1,230 379.8,230.1 379.8,230.3 379.8,231.1 379.8,232.3 379.8,233.9 
			379.8,237.6 379.8,241 379.8,242.2 379.8,242.9 379.8,243.1 379.1,243.1 377.8,243.1 376,243.1 371.6,243.1 367.3,243.1 
			365.6,243.1 364.3,243.1 363.8,243.1 363.8,243 363.8,242 363.8,238.7 363.8,237.5 363.8,237.2 363.8,237.1 363.4,237.1 
			362.7,237.1 361.1,237.1 360.8,237.1 360.8,237.4 360.8,238.9 360.8,239.7 360.8,240.1 360.6,240.1 360,240.1 358.4,240.1 
			357.9,240.1 357.8,240.2 357.8,240.7 357.8,241.5 357.8,242.4 357.8,243 357.8,243.1 357.6,243.1 356.5,243.1 354.7,243.1 
			352.3,243.1 349.6,243.1 343.9,243.1 341.4,243.1 339.5,243.1 338.2,243.1 337.9,243.1 337.8,243.1 337.8,242.8 337.8,242.1 
			337.8,240.5 337.8,240.1 337.7,240.1 337.4,240.1 336.1,240.1 334.4,240.1 332.8,240.1 331.9,240.1 331.8,240.2 331.8,240.8 
			331.8,242.4 331.8,243 331.8,243.1 331.8,243.1 331.5,243.1 330.2,243.1 328.2,243.1 325.8,243.1 323,243.1 317.4,243.1 
			315,243.1 313.1,243.1 312,243.1 311.8,243.1 311.8,242.7 311.8,241.1 311.8,240.4 311.8,240.1 311.6,240.1 310.9,240.1 
			309.3,240.1 308.8,240.1 308.8,239.9 308.8,238.5 308.8,237.7 308.8,237.2 308.7,237.1 308.2,237.1 306.6,237.1 306,237.1 
			305.8,237.2 305.8,237.5 305.8,238 305.8,239.5 305.8,241.2 305.8,242.6 305.8,243 305.8,243.1 305.3,243.1 304.1,243.1 
			302.4,243.1 300.3,243.1 295.8,243.1 293.6,243.1 291.8,243.1 290.5,243.1 289.9,243.1 289.8,243 289.8,242.2 289.8,241 
			289.8,239.4 289.8,235.8 289.8,232.4 289.8,231.1 289.8,230.3 289.8,230.1 289.5,230 288.8,229.9 287.9,229.7 285.6,229.1 
			283.3,228.6 282.4,228.4 281.7,228.3 281.4,228.2 280.9,228 279.8,227.5 278.9,226.7 278.3,225.6 277.9,224.4 277.8,223.8 
			277.8,223.5 277.8,223.4 277.8,222.9 277.8,222.8 277.9,221.6 278.4,220.5 279,219.5 279.9,218.7 281,218.1 281.3,218.1 
			281.4,218 281.8,217.9 282.5,217.8 283.5,217.6 288.1,216.5 289,216.3 289.6,216.2 289.8,216.1 289.8,215.8 289.8,214.9 
			289.8,213.5 289.8,210.1 289.8,206.5 289.8,204.9 289.8,203.8 289.8,203.2 289.9,203.1 290.7,203.1 292.2,203.1 294.1,203.1 
			296.2,203.1 300.8,203.1 302.8,203.1 304.4,203.1 305.5,203.1 305.8,203.1 305.8,203.3 305.8,203.7 305.8,205.1 305.8,206.8 
			305.8,208.3 305.8,208.8 305.8,209.1 306,209.1 307.5,209.1 308.3,209.1 308.8,209.1 308.8,209 308.8,208.4 308.8,206.8 
			308.8,206.2 308.9,206.1 309.3,206.1 310.1,206.1 311.6,206.1 311.8,206.1 311.8,205.7 311.8,204.2 311.8,203.4 311.8,203.1 
			311.9,203.1 312.2,203.1 313.5,203.1 315.4,203.1 317.9,203.1 323.6,203.1 326.3,203.1 328.7,203.1 330.5,203.1 331.6,203.1 
			331.8,203.1 331.8,203.3 331.8,203.9 331.8,204.7 331.8,205.5 331.8,206 332,206.1 333,206.1 336.2,206.1 337.5,206.1 
			337.8,206.1 337.8,206.1 337.8,205.7 337.8,204.9 337.8,203.4 337.8,203.1 338,203.1 338.4,203.1 339.8,203.1 341.9,203.1 
			344.5,203.1 350.1,203.1 352.8,203.1 355.1,203.1 356.8,203.1 357.7,203.1 357.8,203.3 357.8,203.9 357.8,205.6 357.8,206.1 
			357.9,206.1 358.5,206.1 359.3,206.1 360.1,206.1 360.7,206.1 360.8,206.1 360.8,206.6 360.8,208.2 360.8,208.9 360.8,209.1 
			361.2,209.1 361.9,209.1 363.5,209.1 363.8,209.1 363.8,209 363.8,208.6 363.8,207.3 363.8,205.6 363.8,204.1 363.8,203.2 
			363.9,203.1 364.5,203.1 365.9,203.1 367.7,203.1 376.4,203.1 378.1,203.1 379.3,203.1 379.8,203.1 379.8,203.2 379.8,203.8 
			379.8,204.9 379.8,206.4 379.8,208.2 379.8,211.9 379.8,213.5 379.8,214.9 379.8,215.8 379.8,216.1 		"/>
	</g>
	<g id="SPLINE_2_">
		<path class="st0" d="M284.8,221.6v3c0,0,0,0-5,0c0-3,0-3,0-3H284.8z"/>
	</g>
	<g id="SPLINE_3_">
		<path class="st0" d="M370.8,209.1h-3c0,0,0,0,0-3c3,0,3,0,3,0V209.1z"/>
	</g>
	<g id="SPLINE_4_">
		<path class="st0" d="M318.8,209.1h-3c0,0,0,0,0-3c3,0,3,0,3,0V209.1z"/>
	</g>
	<g id="SPLINE_5_">
		<path class="st0" d="M370.8,240.1h-3c0,0,0,0,0-3c3,0,3,0,3,0V240.1z"/>
	</g>
	<g id="SPLINE_6_">
		<path class="st0" d="M318.8,240.1h-3c0,0,0,0,0-3c3,0,3,0,3,0V240.1z"/>
	</g>
	<g id="SPLINE_7_">
		<path class="st0" d="M353.8,209.1h-3c0,0,0,0,0-3c3,0,3,0,3,0V209.1z"/>
	</g>
	<g id="SPLINE_8_">
		<path class="st0" d="M301.8,209.1h-3c0,0,0,0,0-3c3,0,3,0,3,0V209.1z"/>
	</g>
	<g id="SPLINE_9_">
		<path class="st0" d="M353.8,240.1h-3c0,0,0,0,0-3c3,0,3,0,3,0V240.1z"/>
	</g>
	<g id="SPLINE_10_">
		<path class="st0" d="M301.8,240.1h-3c0,0,0,0,0-3c3,0,3,0,3,0V240.1z"/>
	</g>
	<g id="SPLINE_11_">
		<path class="st0" d="M547.5,272.4c-1.4,0-2.5-1.1-2.5-2.5c0,0,0-1.4,1.1-2.5c1.4,0,1.4,0,2.8,0c1.1,1.1,1.1,2.5,1.1,2.5
			C550,271.2,548.9,272.4,547.5,272.4z"/>
	</g>
	<g id="SPLINE_12_">
		<path class="st0" d="M540.5,277.4l1.9-8.4c0,0,0.5-2.2,2.5-3.6c2.2,0,2.2,0,2.2,0c0.6,0,0.6,0,0.6,0c2.2,0,4.3,1.4,4.8,3.6
			c0,0,0,0,1.9,8.4c13,0,13,0,13,0c0,39.1,0,25.3,0,50c0,0,0,0-13,0c-1.9,8.4-1.9,8.4-1.9,8.4c-0.5,2.2-2.5,3.6-4.8,3.6
			c0,0,0,0-0.6,0c0,0,0,0-2.2,0c-2-1.4-2.5-3.6-2.5-3.6l-1.9-8.4c0,0,0,0-13,0c0,0,0,0,0-39.1c0,13.8,0-10.9,0-10.9H540.5z"/>
	</g>
	<g id="SPLINE_13_">
		<path class="st0" d="M546,332.4h3c0,0,0,0,0,5c-3,0-3,0-3,0V332.4z"/>
	</g>
	<g id="SPLINE_14_">
		<path class="st0" d="M533.5,277.4v3c0,0,0,0-3,0c0-3,0-3,0-3H533.5z"/>
	</g>
	<g id="SPLINE_15_">
		<path class="st0" d="M533.5,307.4v3c0,0,0,0-3,0c0-3,0-3,0-3H533.5z"/>
	</g>
	<g id="SPLINE_16_">
		<path class="st0" d="M564.5,277.4v3c0,0,0,0-3,0c0-3,0-3,0-3H564.5z"/>
	</g>
	<g id="SPLINE_17_">
		<path class="st0" d="M564.5,307.4v3c0,0,0,0-3,0c0-3,0-3,0-3H564.5z"/>
	</g>
	<g id="SPLINE_18_">
		<path class="st0" d="M533.5,294.4v3c0,0,0,0-3,0c0-3,0-3,0-3H533.5z"/>
	</g>
	<g id="SPLINE_19_">
		<path class="st0" d="M533.5,324.4v3c0,0,0,0-3,0c0-3,0-3,0-3H533.5z"/>
	</g>
	<g id="SPLINE_20_">
		<path class="st0" d="M564.5,294.4v3c0,0,0,0-3,0c0-3,0-3,0-3H564.5z"/>
	</g>
	<g id="SPLINE_21_">
		<path class="st0" d="M564.5,324.4v3c0,0,0,0-3,0c0-3,0-3,0-3H564.5z"/>
	</g>
	<g id="SPLINE_22_">
		<path class="st0" d="M444.5,280.1h-6c0,0,0,0,0-8c6,0,6,0,6,0V280.1z"/>
	</g>
	<g id="SPLINE_23_">
		<path class="st0" d="M450,266.1h3c0,0,0,0,0,3c15.5,0,15.5,0,15.5,0v5.5c0,0,0,0,3,0c0,3,0,3,0,3h-3c0,0,0,0,0,5.5
			c-34,0-34,0-34,0v-5.5c0,0,0,0-3,0c0-3,0-3,0-3h3c0,0,0,0,0-5.5c15.5,0,15.5,0,15.5,0V266.1z"/>
	</g>
	<g id="SPLINE_24_">
		<path class="st0" d="M464.5,280.1h-6c0,0,0,0,0-8c6,0,6,0,6,0V280.1z"/>
	</g>
	<g id="SPLINE_25_">
		<path class="st0" d="M396.1,215.8v-6c0,0,0,0,8,0c0,6,0,6,0,6H396.1z"/>
	</g>
	<g id="SPLINE_26_">
		<path class="st0" d="M407.1,221.3h3c0,0,0,0,0,3c-3,0-3,0-3,0v15.5c0,0,0,0-5.5,0c0,3,0,3,0,3h-3c0,0,0,0,0-3c-5.5,0-5.5,0-5.5,0
			v-34c0,0,0,0,5.5,0c0-3,0-3,0-3h3c0,0,0,0,0,3c5.5,0,5.5,0,5.5,0V221.3z"/>
	</g>
	<g id="SPLINE_27_">
		<path class="st0" d="M396.1,235.8v-6c0,0,0,0,8,0c0,6,0,6,0,6H396.1z"/>
	</g>
	<g id="SPLINE_28_">
		<path class="st0" d="M319.9,270.5v-13c0,0,0,0-35,0c0,13,0,13,0,13H319.9z"/>
	</g>
	<g id="SPLINE_29_">
		<path class="st0" d="M496.1,205.3h-13c0,0,0,0,0,35c13,0,13,0,13,0V205.3z"/>
	</g>
	<g id="SPLINE_30_">
		<path class="st0" d="M319.9,244h3c0,0,0,0,0,6c-3,0-3,0-3,0v28c0,0,0,0,3,0c0,6,0,6,0,6h-3c0,0,0,0-10,0c0-3,0-3,0-3h-10
			c0,0,0,0,0,3c-10,0-10,0-10,0v-3c0,0,0,0-10,0c0-34,0-34,0-34h10c0,0,0,0,0-3c10,0,10,0,10,0v3c0,0,0,0,10,0c0-3,0-3,0-3H319.9z"
			/>
	</g>
	<g id="SPLINE_31_">
		<path class="st0" d="M469.6,205.3v-3c0,0,0,0,6,0c0,3,0,3,0,3h28c0,0,0,0,0-3c6,0,6,0,6,0v3c0,0,0,0,0,10c-3,0-3,0-3,0v10
			c0,0,0,0,3,0c0,10,0,10,0,10h-3c0,0,0,0,0,10c-34,0-34,0-34,0v-10c0,0,0,0-3,0c0-10,0-10,0-10h3c0,0,0,0,0-10c-3,0-3,0-3,0V205.3z
			"/>
	</g>
	<g id="SPLINE_32_">
		<polyline class="st0" points="480.3,283.7 480.5,283.7 480.9,283.7 481.6,283.7 482.5,283.7 483.7,283.7 485,283.7 486.5,283.7 
			488.2,283.7 490,283.7 491.9,283.7 496,283.7 504.6,283.7 508.8,283.7 510.7,283.7 512.6,283.7 514.3,283.7 515.9,283.7 
			517.4,283.7 518.6,283.7 519.6,283.7 520.4,283.7 521,283.7 521.3,283.7 521.7,283.7 522.1,283.9 522.5,284.1 522.8,284.4 
			523.1,284.7 523.2,285.1 523.3,285.6 523.3,285.8 523.3,286.1 523.3,286.5 523.3,287.1 523.3,287.8 523.3,288.6 523.3,289.6 
			523.3,291.7 523.3,294.1 523.3,299.4 523.3,301.9 523.3,304.4 523.3,306.6 523.3,307.5 523.3,308.4 523.3,309.1 523.3,309.7 
			523.3,310.2 523.3,310.5 523.3,311 523.2,311.4 523,311.8 522.7,312.1 522.3,312.4 521.9,312.6 521.5,312.7 521.3,312.7 
			521.1,312.7 520.6,312.7 519.8,312.7 518.9,312.7 517.7,312.7 516.3,312.7 514.7,312.7 513,312.7 511.2,312.7 509.2,312.7 
			505.1,312.7 500.8,312.7 496.5,312.7 492.4,312.7 490.4,312.7 488.6,312.7 486.9,312.7 485.3,312.7 483.9,312.7 482.7,312.7 
			481.8,312.7 481,312.7 480.5,312.7 480.3,312.7 480.1,312.7 479.7,312.6 479.3,312.4 478.9,312.1 478.6,311.8 478.4,311.4 
			478.3,311 478.3,310.5 478.3,310.2 478.3,309.7 478.3,309.1 478.3,308.4 478.3,307.5 478.3,306.6 478.3,304.4 478.3,301.9 
			478.3,299.4 478.3,294.1 478.3,291.7 478.3,289.6 478.3,288.6 478.3,287.8 478.3,287.1 478.3,286.5 478.3,286.1 478.3,285.8 
			478.3,285.6 478.4,285.2 478.5,284.8 478.8,284.4 479.1,284.1 479.4,283.9 479.9,283.7 480.3,283.7 		"/>
	</g>
	<g id="SPLINE_33_">
		<path class="st0" d="M499.3,286.2h3c0,0,0,0,0,3c-3,0-3,0-3,0V286.2z"/>
	</g>
	<g id="SPLINE_34_">
		<path class="st0" d="M517.8,296.7h3c0,0,0,0,0,3c-3,0-3,0-3,0V296.7z"/>
	</g>
	<g id="SPLINE_35_">
		<path class="st0" d="M499.3,307.2h3c0,0,0,0,0,3c-3,0-3,0-3,0V307.2z"/>
	</g>
	<g id="SPLINE_36_">
		<path class="st0" d="M480.8,296.7h3c0,0,0,0,0,3c-3,0-3,0-3,0V296.7z"/>
	</g>
	<g id="SPLINE_37_">
		<path class="st0" d="M353.5,321.2v3c0,0,0,0-6,0c0-3,0-3,0-3h-22c0,0,0,0,0-8.8c3,0,3,0,3,0v-8.8c0,0,0,0-3,0c0-1.7,0-1.7,0-1.7
			c0-2.3,1.4-4.3,3.7-4.8c0,0,0,0,46.3-11c0,8.8,0,8.8,0,8.8h-3c0,0,0,0,0,8.8c3,0,3,0,3,0v8.8c0,0,0,0-3,0c0,8.8,0,8.8,0,8.8H353.5
			z"/>
	</g>
	<g id="SPLINE_38_">
		<path class="st0" d="M431.5,321.2v3c0,0,0,0,6,0c0-3,0-3,0-3h22c0,0,0,0,0-8.8c-3,0-3,0-3,0v-8.8c0,0,0,0,3,0c0-1.7,0-1.7,0-1.7
			c0-2.3-1.4-4.3-3.7-4.8c0,0,0,0-46.3-11c0,8.8,0,8.8,0,8.8h3c0,0,0,0,0,8.8c-3,0-3,0-3,0v8.8c0,0,0,0,3,0c0,8.8,0,8.8,0,8.8H431.5
			z"/>
	</g>
	<g id="SPLINE_39_">
		<path class="st0" d="M372.5,312.4h3c0,0,0,0,0-8.8c-3,0-3,0-3,0v-8.8c0,0,0,0,3,0c0-8.8,0-8.8,0-8.8h34c0,0,0,0,0,8.8c3,0,3,0,3,0
			v8.8c0,0,0,0-3,0c0,8.8,0,8.8,0,8.8h3c0,0,0,0,0,8.8c-3,0-3,0-3,0h-14c0,0,0,0,0,3c-6,0-6,0-6,0v-3c0,0,0,0-14,0c-3,0-3,0-3,0
			V312.4z"/>
	</g>
	<g id="SPLINE_40_">
		<path class="st0" d="M288.5,303.7h3c0,0,0,0,0-1.5c34,0,34,0,34,0v1.5c0,0,0,0,3,0c0,8.8,0,8.8,0,8.8h-3c0,0,0,0,0,8.8
			c-14,0-14,0-14,0v3c0,0,0,0-6,0c0-3,0-3,0-3h-14c0,0,0,0,0-8.8c-3,0-3,0-3,0V303.7z"/>
	</g>
	<g id="SPLINE_41_">
		<path class="st0" d="M466.2,242.3h-4.9c0,0,0,0,0-6c4.9,0,4.9,0,4.9,0V242.3z"/>
	</g>
	<g id="SPLINE_42_">
		<polyline class="st0" points="445.1,262.3 445.1,262.3 445.1,262.6 445.1,263.3 445.1,264.2 445.1,264.9 445.1,265.2 445.1,265.3 
			445,265.3 444.8,265.3 444.1,265.3 443.2,265.3 442.4,265.3 442.2,265.3 442.1,265.3 442.1,265.2 442.1,265 442.1,264.2 
			442.1,263.4 442.1,262.6 442.1,262.4 442.1,262.3 442,262.3 441.9,262.3 441.1,262.3 440,262.3 438.6,262.3 435.5,262.3 
			434,262.3 432.8,262.3 432,262.3 431.7,262.3 431.6,262.3 431.6,262.1 431.6,261.8 431.6,261.2 431.6,260.5 431.6,258.8 
			431.6,257.4 431.6,257 431.6,256.8 431.6,256.8 431.8,256.8 432.6,256.8 433.4,256.8 434.2,256.8 434.5,256.8 434.6,256.8 
			434.6,256.7 434.6,256.5 434.6,255.8 434.6,254.1 434.6,253.9 434.6,253.8 434.5,253.8 434.4,253.8 433.7,253.8 432.8,253.8 
			432,253.8 431.7,253.8 431.6,253.8 431.6,253.7 431.6,253.3 431.6,252.8 431.6,252.1 431.6,250.5 431.6,249 431.6,248.5 
			431.6,248.3 431.4,248.3 431,248.3 430.4,248.3 429.9,248.3 429.6,248.3 429.6,248.2 429.6,248 429.6,247.4 429.6,245.7 
			429.6,245.4 429.6,245.3 429.6,245.3 429.4,245.3 429.1,245.3 428.6,245.3 427.9,245.3 427.1,245.3 425.2,245.3 420.9,245.3 
			418.7,245.3 416.9,245.3 416.1,245.3 415.5,245.3 415,245.3 414.7,245.3 414.6,245.2 414.6,244.6 414.6,243.7 414.6,242.4 
			414.6,239.5 414.6,238.1 414.6,236.8 414.6,235.9 414.6,235.3 414.6,235.3 414.8,235.3 415.4,235.3 416.3,235.3 417.1,235.3 
			417.6,235.3 417.6,235.2 417.6,234.7 417.6,233.8 417.6,232.5 417.6,229.6 417.6,228.2 417.6,226.9 417.6,225.9 417.6,225.4 
			417.6,225.3 417.4,225.3 416.8,225.3 415.9,225.3 415.1,225.3 414.6,225.3 414.6,225.2 414.6,224.7 414.6,223.8 414.6,222.6 
			414.6,219.7 414.6,218.3 414.6,217 414.6,216 414.6,215.4 414.6,215.3 414.7,215.3 415.4,215.3 416.2,215.3 417.1,215.3 
			417.5,215.3 417.6,215.2 417.6,214.8 417.6,213.9 417.6,212.7 417.6,209.8 417.6,208.4 417.6,207.1 417.6,206.1 417.6,205.4 
			417.6,205.3 417.6,205.3 417.6,205.3 417.6,205.1 417.6,204.5 417.6,202.8 417.6,202.3 417.7,202.3 418.3,202.3 419.2,202.3 
			420,202.3 420.5,202.3 420.6,202.4 420.6,202.9 420.6,204.6 420.6,205.2 420.7,205.3 421.3,205.3 422.1,205.3 423,205.3 
			423.5,205.3 423.6,205.3 423.7,205.3 424.1,205.3 424.7,205.3 425.4,205.3 427.4,205.3 429.7,205.3 432.2,205.3 434.7,205.3 
			437,205.3 438,205.3 438.9,205.3 439.6,205.3 440.1,205.3 440.5,205.3 440.6,205.3 440.6,205.2 440.6,204.6 440.6,203.8 
			440.6,202.9 440.6,202.3 440.6,202.3 440.7,202.3 441.2,202.3 441.9,202.3 445.3,202.3 445.9,202.3 446.4,202.3 446.6,202.3 
			446.6,202.3 446.6,202.9 446.6,203.7 446.6,204.6 446.6,205.2 446.6,205.3 446.7,205.3 447,205.3 447.5,205.3 448.2,205.3 
			449,205.3 450,205.3 452.3,205.3 454.8,205.3 457.3,205.3 459.6,205.3 461.6,205.3 462.4,205.3 463,205.3 463.4,205.3 
			463.6,205.3 463.7,205.3 464.2,205.3 465,205.3 465.9,205.3 466.5,205.3 466.6,205.2 466.6,204.7 466.6,203 466.6,202.4 
			466.6,202.3 467.2,202.3 468,202.3 468.8,202.3 469.5,202.3 469.6,202.3 469.6,202.3 469.6,202.8 469.6,204.5 469.6,205.1 
			469.6,205.3 469.6,205.3 469.6,205.3 469.6,205.3 469.6,205.4 469.6,206 469.6,207 469.6,208.3 469.6,209.7 469.6,212.6 
			469.6,213.8 469.6,214.7 469.6,215.2 469.6,215.3 470.1,215.3 470.9,215.3 471.8,215.3 472.4,215.3 472.6,215.3 472.6,215.4 
			472.6,215.9 472.6,216.9 472.6,218.2 472.6,219.6 472.6,222.5 472.6,223.8 472.6,224.7 472.6,225.2 472.6,225.3 472.1,225.3 
			471.3,225.3 470.4,225.3 469.8,225.3 469.6,225.3 469.6,225.3 469.6,225.9 469.6,226.8 469.6,228.1 469.6,229.5 469.6,232.4 
			469.6,233.7 469.6,234.6 469.6,235.2 469.6,235.3 469.8,235.3 470,235.3 470.8,235.3 471.7,235.3 472.4,235.3 472.6,235.3 
			472.6,235.3 472.6,235.8 472.6,236.7 472.6,238 472.6,239.4 472.6,242.3 472.6,243.6 472.6,244.6 472.6,245.1 472.5,245.3 
			472.3,245.3 471.8,245.3 471.2,245.3 470.4,245.3 468.6,245.3 466.5,245.3 462.1,245.3 460.2,245.3 459.4,245.3 458.7,245.3 
			458.1,245.3 457.8,245.3 457.6,245.3 457.6,245.3 457.6,245.4 457.6,245.7 457.6,247.3 457.6,248 457.6,248.2 457.6,248.3 
			457.3,248.3 456.8,248.3 455.7,248.3 455.6,248.3 455.6,248.5 455.6,249 455.6,250.4 455.6,252 455.6,252.7 455.6,253.3 
			455.6,253.7 455.6,253.8 455.5,253.8 455.2,253.8 454.4,253.8 453.6,253.8 452.8,253.8 452.6,253.8 452.6,253.8 452.6,253.9 
			452.6,254.1 452.6,254.9 452.6,255.8 452.6,256.5 452.6,256.7 452.6,256.8 452.7,256.8 452.9,256.8 453.7,256.8 454.6,256.8 
			455.3,256.8 455.5,256.8 455.6,256.8 455.6,256.9 455.6,257.4 455.6,258.8 455.6,260.4 455.6,261.1 455.6,261.7 455.6,262.1 
			455.6,262.3 455.5,262.3 455.3,262.3 454.5,262.3 453.3,262.3 451.9,262.3 448.8,262.3 447.3,262.3 446.2,262.3 445.4,262.3 
			445.2,262.3 445.1,262.3 		"/>
	</g>
	<g id="SPLINE_43_">
		<path class="st0" d="M461.3,234.8v-6c0,0,0,0,4.9,0c0,6,0,6,0,6H461.3z"/>
	</g>
	<g id="SPLINE_44_">
		<path class="st0" d="M459.8,242.3H455c0,0,0,0,0-6c4.9,0,4.9,0,4.9,0V242.3z"/>
	</g>
	<g id="SPLINE_45_">
		<path class="st0" d="M455,234.8v-6c0,0,0,0,4.9,0c0,6,0,6,0,6H455z"/>
	</g>
	<g id="SPLINE_46_">
		<path class="st0" d="M432.2,242.3h-4.9c0,0,0,0,0-6c4.9,0,4.9,0,4.9,0V242.3z"/>
	</g>
	<g id="SPLINE_47_">
		<path class="st0" d="M427.3,234.8v-6c0,0,0,0,4.9,0c0,6,0,6,0,6H427.3z"/>
	</g>
	<g id="SPLINE_48_">
		<path class="st0" d="M425.8,242.3H421c0,0,0,0,0-6c4.9,0,4.9,0,4.9,0V242.3z"/>
	</g>
	<g id="SPLINE_49_">
		<path class="st0" d="M421,234.8v-6c0,0,0,0,4.9,0c0,6,0,6,0,6H421z"/>
	</g>
	<g id="SPLINE_50_">
		<path class="st0" d="M446.6,259.3h-6c0,0,0,0,0-8c6,0,6,0,6,0V259.3z"/>
	</g>
	<g id="SPLINE_51_">
		<path class="st0" d="M558.2,242.3h-4.9c0,0,0,0,0-6c4.9,0,4.9,0,4.9,0V242.3z"/>
	</g>
	<g id="SPLINE_52_">
		<polyline class="st0" points="537.1,262.3 537.1,262.3 537.1,262.6 537.1,263.3 537.1,264.2 537.1,264.9 537.1,265.2 537.1,265.3 
			537,265.3 536.8,265.3 536.1,265.3 535.2,265.3 534.4,265.3 534.2,265.3 534.1,265.3 534.1,265.2 534.1,265 534.1,264.2 
			534.1,263.4 534.1,262.6 534.1,262.4 534.1,262.3 534,262.3 533.9,262.3 533.1,262.3 532,262.3 530.6,262.3 527.5,262.3 
			526,262.3 524.8,262.3 524,262.3 523.7,262.3 523.6,262.3 523.6,262.1 523.6,261.8 523.6,261.2 523.6,260.5 523.6,258.8 
			523.6,257.4 523.6,257 523.6,256.8 523.6,256.8 523.8,256.8 524.6,256.8 525.4,256.8 526.2,256.8 526.5,256.8 526.6,256.8 
			526.6,256.7 526.6,256.5 526.6,255.8 526.6,254.1 526.6,253.9 526.6,253.8 526.5,253.8 526.4,253.8 525.7,253.8 524.8,253.8 
			524,253.8 523.7,253.8 523.6,253.8 523.6,253.7 523.6,253.3 523.6,252.8 523.6,252.1 523.6,250.5 523.6,249 523.6,248.5 
			523.6,248.3 523.4,248.3 523,248.3 522.4,248.3 521.9,248.3 521.6,248.3 521.6,248.2 521.6,248 521.6,247.4 521.6,245.7 
			521.6,245.4 521.6,245.3 521.6,245.3 521.4,245.3 521.1,245.3 520.6,245.3 519.9,245.3 519.1,245.3 517.2,245.3 512.9,245.3 
			510.7,245.3 508.9,245.3 508.1,245.3 507.5,245.3 507,245.3 506.7,245.3 506.6,245.2 506.6,244.6 506.6,243.7 506.6,242.4 
			506.6,239.5 506.6,238.1 506.6,236.8 506.6,235.9 506.6,235.3 506.6,235.3 506.8,235.3 507.4,235.3 508.3,235.3 509.1,235.3 
			509.6,235.3 509.6,235.2 509.6,234.7 509.6,233.8 509.6,232.5 509.6,229.6 509.6,228.2 509.6,226.9 509.6,225.9 509.6,225.4 
			509.6,225.3 509.4,225.3 508.8,225.3 507.9,225.3 507.1,225.3 506.6,225.3 506.6,225.2 506.6,224.7 506.6,223.8 506.6,222.6 
			506.6,219.7 506.6,218.3 506.6,217 506.6,216 506.6,215.4 506.6,215.3 506.7,215.3 507.4,215.3 508.2,215.3 509.1,215.3 
			509.5,215.3 509.6,215.2 509.6,214.8 509.6,213.9 509.6,212.7 509.6,209.8 509.6,208.4 509.6,207.1 509.6,206.1 509.6,205.4 
			509.6,205.3 509.6,205.3 509.6,205.3 509.6,205.1 509.6,204.5 509.6,202.8 509.6,202.3 509.7,202.3 510.3,202.3 511.2,202.3 
			512,202.3 512.5,202.3 512.6,202.4 512.6,202.9 512.6,204.6 512.6,205.2 512.7,205.3 513.3,205.3 514.1,205.3 515,205.3 
			515.5,205.3 515.6,205.3 515.7,205.3 516.1,205.3 516.7,205.3 517.4,205.3 519.4,205.3 521.7,205.3 524.2,205.3 526.7,205.3 
			529,205.3 530,205.3 530.9,205.3 531.6,205.3 532.1,205.3 532.5,205.3 532.6,205.3 532.6,205.2 532.6,204.6 532.6,203.8 
			532.6,202.9 532.6,202.3 532.6,202.3 532.7,202.3 533.2,202.3 533.9,202.3 537.3,202.3 537.9,202.3 538.4,202.3 538.6,202.3 
			538.6,202.3 538.6,202.9 538.6,203.7 538.6,204.6 538.6,205.2 538.6,205.3 538.7,205.3 539,205.3 539.5,205.3 540.2,205.3 
			541,205.3 542,205.3 544.3,205.3 546.8,205.3 549.3,205.3 551.6,205.3 553.6,205.3 554.4,205.3 555,205.3 555.4,205.3 
			555.6,205.3 555.7,205.3 556.2,205.3 557,205.3 557.9,205.3 558.5,205.3 558.6,205.2 558.6,204.7 558.6,203 558.6,202.4 
			558.6,202.3 559.2,202.3 560,202.3 560.8,202.3 561.5,202.3 561.6,202.3 561.6,202.3 561.6,202.8 561.6,204.5 561.6,205.1 
			561.6,205.3 561.6,205.3 561.6,205.3 561.6,205.3 561.6,205.4 561.6,206 561.6,207 561.6,208.3 561.6,209.7 561.6,212.6 
			561.6,213.8 561.6,214.7 561.6,215.2 561.6,215.3 562.1,215.3 562.9,215.3 563.8,215.3 564.4,215.3 564.6,215.3 564.6,215.4 
			564.6,215.9 564.6,216.9 564.6,218.2 564.6,219.6 564.6,222.5 564.6,223.8 564.6,224.7 564.6,225.2 564.6,225.3 564.1,225.3 
			563.3,225.3 562.4,225.3 561.8,225.3 561.6,225.3 561.6,225.3 561.6,225.9 561.6,226.8 561.6,228.1 561.6,229.5 561.6,232.4 
			561.6,233.7 561.6,234.6 561.6,235.2 561.6,235.3 561.8,235.3 562,235.3 562.8,235.3 563.7,235.3 564.4,235.3 564.6,235.3 
			564.6,235.3 564.6,235.8 564.6,236.7 564.6,238 564.6,239.4 564.6,242.3 564.6,243.6 564.6,244.6 564.6,245.1 564.5,245.3 
			564.3,245.3 563.8,245.3 563.2,245.3 562.4,245.3 560.6,245.3 558.5,245.3 554.1,245.3 552.2,245.3 551.4,245.3 550.7,245.3 
			550.1,245.3 549.8,245.3 549.6,245.3 549.6,245.3 549.6,245.4 549.6,245.7 549.6,247.3 549.6,248 549.6,248.2 549.6,248.3 
			549.3,248.3 548.8,248.3 547.7,248.3 547.6,248.3 547.6,248.5 547.6,249 547.6,250.4 547.6,252 547.6,252.7 547.6,253.3 
			547.6,253.7 547.6,253.8 547.5,253.8 547.2,253.8 546.4,253.8 545.6,253.8 544.8,253.8 544.6,253.8 544.6,253.8 544.6,253.9 
			544.6,254.1 544.6,254.9 544.6,255.8 544.6,256.5 544.6,256.7 544.6,256.8 544.7,256.8 544.9,256.8 545.7,256.8 546.6,256.8 
			547.3,256.8 547.5,256.8 547.6,256.8 547.6,256.9 547.6,257.4 547.6,258.8 547.6,260.4 547.6,261.1 547.6,261.7 547.6,262.1 
			547.6,262.3 547.5,262.3 547.3,262.3 546.5,262.3 545.3,262.3 543.9,262.3 540.8,262.3 539.3,262.3 538.2,262.3 537.4,262.3 
			537.2,262.3 537.1,262.3 		"/>
	</g>
	<g id="SPLINE_53_">
		<path class="st0" d="M553.3,234.8v-6c0,0,0,0,4.9,0c0,6,0,6,0,6H553.3z"/>
	</g>
	<g id="SPLINE_54_">
		<path class="st0" d="M551.8,242.3H547c0,0,0,0,0-6c4.9,0,4.9,0,4.9,0V242.3z"/>
	</g>
	<g id="SPLINE_55_">
		<path class="st0" d="M547,234.8v-6c0,0,0,0,4.9,0c0,6,0,6,0,6H547z"/>
	</g>
	<g id="SPLINE_56_">
		<path class="st0" d="M524.2,242.3h-4.9c0,0,0,0,0-6c4.9,0,4.9,0,4.9,0V242.3z"/>
	</g>
	<g id="SPLINE_57_">
		<path class="st0" d="M519.3,234.8v-6c0,0,0,0,4.9,0c0,6,0,6,0,6H519.3z"/>
	</g>
	<g id="SPLINE_58_">
		<path class="st0" d="M517.8,242.3H513c0,0,0,0,0-6c4.9,0,4.9,0,4.9,0V242.3z"/>
	</g>
	<g id="SPLINE_59_">
		<path class="st0" d="M513,234.8v-6c0,0,0,0,4.9,0c0,6,0,6,0,6H513z"/>
	</g>
	<g id="SPLINE_60_">
		<path class="st0" d="M538.6,259.3h-6c0,0,0,0,0-8c6,0,6,0,6,0V259.3z"/>
	</g>
	<g id="SPLINE_61_">
		<path class="st0" d="M527.5,305.4v-6c0,0,0,0,3,0c0,6,0,6,0,6H527.5z"/>
	</g>
	<g id="SPLINE_62_">
		<path class="st0" d="M550.5,327.4h-6c0,0,0,0,0-3c6,0,6,0,6,0V327.4z"/>
	</g>
	<g id="SPLINE_63_">
		<path class="st0" d="M550.5,280.4h-6c0,0,0,0,0-3c6,0,6,0,6,0V280.4z"/>
	</g>
	<g id="SPLINE_64_">
		<path class="st0" d="M564.5,305.4v-6c0,0,0,0,3,0c0,6,0,6,0,6H564.5z"/>
	</g>
	<g id="ELLIPSE">
		<path class="st0" d="M467.3,332.1c-5.5,0-10,4.5-10,10s4.5,10,10,10s10-4.5,10-10S472.8,332.1,467.3,332.1L467.3,332.1z"/>
	</g>
	<g id="ELLIPSE_1_">
		<path class="st0" d="M429.3,332.1c-5.5,0-10,4.5-10,10s4.5,10,10,10s10-4.5,10-10S434.8,332.1,429.3,332.1L429.3,332.1z"/>
	</g>
	<g id="ELLIPSE_2_">
		<path class="st0" d="M448.3,322.1c-5.5,0-10,4.5-10,10s4.5,10,10,10s10-4.5,10-10S453.8,322.1,448.3,322.1L448.3,322.1z"/>
	</g>
	<g id="ELLIPSE_3_">
		<path class="st0" d="M410.3,322.1c-5.5,0-10,4.5-10,10s4.5,10,10,10s10-4.5,10-10S415.8,322.1,410.3,322.1L410.3,322.1z"/>
	</g>
	<g id="SPLINE_65_">
		<path class="st0" d="M316,288.8h6c0,0,1.1,0,2,0.9c0,1.1,0,1.1,0,1.1c0,2,0,2,0,2h-3c0,0,0,0,0,3c-5,0-5,0-5,0v-3c0,0,0,0-5,0
			c0,3,0,3,0,3c0,1.1-0.9,2-2,2c0,0,0,0-1,0c0,0,0,0-1.1,0c-0.9-0.9-0.9-2-0.9-2v-5c0,0,0-1.1,0.9-2c1.1,0,1.1,0,1.1,0c3,0,3,0,3,0
			H316z"/>
	</g>
	<g id="SPLINE_66_">
		<polyline class="st0" points="326.9,284 326.9,283.9 326.9,283.7 326.9,283 326.9,280.9 326.9,279.9 326.9,279.5 326.9,279.2 
			326.9,279 326.9,279 326.8,279 326.3,279 325.7,279 324.5,279 324.1,279 323.9,279 323.9,278.9 323.9,278.7 323.9,278 
			323.9,276.4 323.9,275.6 323.9,275.1 323.9,275 324,275 324.2,275 324.7,275 325.3,275 326.5,275 326.9,275 326.9,275 326.9,275 
			326.9,274.8 326.9,274.5 326.9,274.1 326.9,273.5 326.9,272.9 326.9,272.1 326.9,271.2 326.9,269.2 326.9,267 326.9,264.6 
			326.9,259.9 326.9,257.8 326.9,255.9 326.9,255.1 326.9,254.4 326.9,253.9 326.9,253.4 326.9,253.1 326.9,253 326.9,253 
			326.6,253 326.1,253 325.5,253 324.8,253 324.3,253 324,253 323.9,252.9 323.9,252.5 323.9,251.8 323.9,250.1 323.9,249.4 
			323.9,249 324,249 324.3,249 324.9,249 325.5,249 326.1,249 326.6,249 326.9,249 326.9,249 326.9,248.8 326.9,248.6 326.9,248.2 
			326.9,247.3 326.9,245.2 326.9,244.4 326.9,244.1 326.9,244 326.9,244 327.1,244 327.5,244 328.2,244 329.1,244 330.3,244 
			331.7,244 333.2,244 334.9,244 336.7,244 340.7,244 349.3,244 353.5,244 355.5,244 357.5,244 359.3,244 361,244 362.5,244 
			363.8,244 364.9,244 365.8,244 366.5,244 366.9,244 366.9,244 366.9,244 366.9,244.2 366.9,244.4 366.9,244.8 366.9,245.8 
			366.9,247.9 366.9,248.6 366.9,248.9 366.9,249 367.1,249 367.5,249 368.7,249 369.3,249 369.8,249 369.9,249 369.9,249 
			369.9,249.2 369.9,249.8 369.9,250.6 369.9,252.2 369.9,252.8 369.9,252.9 369.9,253 369.8,253 369.3,253 368.1,253 367.5,253 
			367.1,253 366.9,253 366.9,253.1 366.9,253.3 366.9,254.1 366.9,255.1 366.9,256.2 366.9,257.1 366.9,257.5 366.9,257.8 
			366.9,257.9 366.9,258 366.8,258 366.5,258 365.6,258 365.3,258 365,258 364.9,258 364.7,258 364.3,258 363.7,258 363,258 
			361.5,258 359.9,258 358.5,258 358,258 357.6,258 357.5,258 357.4,258 357.1,258 356.7,258 356.1,258 355.4,258 352.2,258 
			351.5,258 350.9,258 350.4,258 350.1,258 349.7,258 348.9,258 348.2,258 348,258 347.9,258 347.9,257.8 347.9,257.2 347.9,256.5 
			347.9,255.5 347.9,254.3 347.9,249.3 347.9,248.1 347.9,247.2 347.9,246.5 347.9,246.1 347.9,246 347.7,246 347.1,246 346.2,246 
			345.1,246 343.9,246 341.2,246 338.6,246 337.5,246 336.5,246 335.8,246 335.4,246 335.3,246 335.2,246.2 334.8,246.5 
			334.4,246.9 333.8,247.5 333.2,248.1 331.8,249.5 330.5,250.8 329.9,251.4 329.5,251.9 329.1,252.2 329,252.4 328.9,252.4 
			328.9,252.5 328.9,252.8 328.9,253.2 328.9,253.8 328.9,254.5 328.9,255.3 328.9,256.2 328.9,258.3 328.9,260.6 328.9,265.6 
			328.9,268 328.9,270.3 328.9,272.3 328.9,273.1 328.9,273.9 328.9,274.5 328.9,275 328.9,275.4 328.9,275.5 329,275.6 
			329.2,275.8 329.6,276.2 330.1,276.7 331.3,277.9 332.7,279.3 334,280.6 334.5,281.1 335,281.6 335.2,281.9 335.4,282 335.5,282 
			336,282 336.8,282 337.8,282 339,282 340.3,282 343,282 344.3,282 345.5,282 346.5,282 347.3,282 347.8,282 347.9,282 
			347.9,281.8 347.9,281.3 347.9,280.5 347.9,279.5 347.9,278.3 347.9,277.1 347.9,274.5 347.9,273.3 347.9,272.2 347.9,271.2 
			347.9,270.5 347.9,270.1 347.9,270 348.1,270 348.4,270 349.2,270 349.6,270 349.9,270 350,270 350.2,270 350.5,270 351.1,270 
			351.7,270 353.3,270 354.9,270 356.3,270 356.8,270 357.2,270 357.4,270 357.5,270 357.7,270 358.1,270 358.7,270 359.3,270 
			362.5,270 363.9,270 364.4,270 364.8,270 364.9,270 365,270 365.1,270 365.9,270 366.7,270 366.9,270 366.9,270 366.9,270.2 
			366.9,270.5 366.9,271.4 366.9,273.5 366.9,274.4 366.9,274.7 366.9,274.9 367,275 367.3,275 367.8,275 368.5,275 369.1,275 
			369.6,275 369.9,275 369.9,275.1 369.9,275.5 369.9,276.2 369.9,277.9 369.9,278.6 369.9,278.8 369.9,278.9 369.9,279 369.5,279 
			368.3,279 367.7,279 367.2,279 367,279 366.9,279 366.9,279.1 366.9,279.4 366.9,279.8 366.9,280.7 366.9,282.8 366.9,283.6 
			366.9,283.8 366.9,284 366.9,284 366.5,284 365.9,284 365,284 363.9,284 362.6,284 361.1,284 359.4,284 357.6,284 355.7,284 
			351.6,284 343,284 338.8,284 336.9,284 335,284 333.3,284 331.8,284 330.4,284 329.2,284 328.3,284 327.5,284 327.1,284 
			326.9,284 		"/>
	</g>
	<g id="SPLINE_67_">
		<polyline class="st0" points="332.5,282 332.5,282 332.5,282 332.5,281.9 332.4,281.9 332.4,281.8 332.3,281.7 332.2,281.6 
			332.1,281.5 332,281.4 331.8,281.3 331.7,281.1 331.6,281 331.4,280.8 331.1,280.5 330.7,280.2 330.4,279.8 330.1,279.5 
			329.9,279.4 329.8,279.2 329.6,279.1 329.5,278.9 329.4,278.8 329.3,278.7 329.2,278.6 329.1,278.5 329,278.5 329,278.4 
			329,278.4 329,278.4 328.9,278.4 328.9,278.4 328.9,278.4 328.9,278.5 328.9,278.5 328.9,278.6 328.9,278.7 328.9,278.8 
			328.9,278.9 328.9,279.1 328.9,279.2 328.9,279.5 328.9,279.8 328.9,280.2 328.9,280.5 328.9,280.8 328.9,281.1 328.9,281.3 
			328.9,281.4 328.9,281.5 328.9,281.6 328.9,281.7 328.9,281.8 328.9,281.9 328.9,281.9 328.9,282 328.9,282 329,282 329,282 
			329,282 329.1,282 329.2,282 329.3,282 329.4,282 329.5,282 329.6,282 329.8,282 330.1,282 330.4,282 330.7,282 331.1,282 
			331.4,282 331.7,282 331.8,282 332,282 332.1,282 332.2,282 332.3,282 332.4,282 332.4,282 332.5,282 332.5,282 332.5,282 		"/>
	</g>
	<g id="SPLINE_68_">
		<polyline class="st0" points="328.9,249.6 329,249.6 329,249.5 329,249.5 329,249.5 329.1,249.4 329.2,249.3 329.3,249.2 
			329.4,249.1 329.5,249 329.6,248.9 329.8,248.7 329.9,248.6 330.1,248.4 330.4,248.1 330.7,247.8 331.1,247.4 331.4,247.1 
			331.6,247 331.7,246.8 331.8,246.7 332,246.5 332.1,246.4 332.2,246.3 332.3,246.2 332.4,246.1 332.4,246.1 332.5,246 332.5,246 
			332.5,246 332.5,246 332.5,246 332.5,246 332.4,246 332.4,246 332.3,246 332.2,246 332.1,246 332,246 331.8,246 331.7,246 
			331.4,246 331.1,246 330.7,246 330.4,246 330.1,246 329.8,246 329.6,246 329.5,246 329.4,246 329.3,246 329.2,246 329.1,246 
			329,246 329,246 329,246 328.9,246 328.9,246 328.9,246 328.9,246.1 328.9,246.1 328.9,246.2 328.9,246.3 328.9,246.4 
			328.9,246.5 328.9,246.7 328.9,246.8 328.9,247.1 328.9,247.4 328.9,247.8 328.9,248.1 328.9,248.4 328.9,248.7 328.9,248.9 
			328.9,249 328.9,249.1 328.9,249.2 328.9,249.3 328.9,249.4 328.9,249.5 328.9,249.5 328.9,249.5 328.9,249.6 		"/>
	</g>
	<g id="SPLINE_69_">
		<path class="st0" d="M349.9,278h15c0,0,0,0,0,4c-15,0-15,0-15,0V278z"/>
	</g>
	<g id="SPLINE_70_">
		<path class="st0" d="M364.9,276h-15c0,0,0,0,0-4c15,0,15,0,15,0V276z"/>
	</g>
	<g id="SPLINE_71_">
		<path class="st0" d="M349.9,252h15c0,0,0,0,0,4c-15,0-15,0-15,0V252z"/>
	</g>
	<g id="SPLINE_72_">
		<path class="st0" d="M364.9,250h-15c0,0,0,0,0-4c15,0,15,0,15,0V250z"/>
	</g>
	<g id="SPLINE_73_">
		<polyline class="st0" points="372.9,284 372.9,283.9 372.9,283.7 372.9,283 372.9,280.9 372.9,279.9 372.9,279.5 372.9,279.2 
			372.9,279 372.9,279 372.8,279 372.3,279 371.7,279 370.5,279 370.1,279 369.9,279 369.9,278.9 369.9,278.7 369.9,278 
			369.9,276.4 369.9,275.6 369.9,275.1 369.9,275 370,275 370.2,275 370.7,275 371.3,275 372.5,275 372.9,275 372.9,275 372.9,275 
			372.9,274.8 372.9,274.5 372.9,274.1 372.9,273.5 372.9,272.9 372.9,272.1 372.9,271.2 372.9,269.2 372.9,267 372.9,264.6 
			372.9,259.9 372.9,257.8 372.9,255.9 372.9,255.1 372.9,254.5 372.9,253.9 372.9,253.4 372.9,253.1 372.9,253 372.9,253 
			372.6,253 372.1,253 371.5,253 370.8,253 370.3,253 370,253 369.9,252.9 369.9,252.5 369.9,251.8 369.9,250.1 369.9,249.4 
			369.9,249 370,249 370.3,249 370.9,249 371.5,249 372.1,249 372.6,249 372.9,249 372.9,249 372.9,248.8 372.9,248.6 372.9,248.3 
			372.9,247.3 372.9,245.2 372.9,244.4 372.9,244.2 372.9,244 372.9,244 373.1,244 373.5,244 374.2,244 375.1,244 376.3,244 
			377.7,244 379.2,244 380.9,244 382.7,244 386.7,244 395.3,244 399.5,244 401.5,244 403.5,244 405.3,244 407,244 408.5,244 
			409.8,244 410.9,244 411.8,244 412.5,244 412.9,244 412.9,244 412.9,244 412.9,244.2 412.9,244.5 412.9,244.8 412.9,245.8 
			412.9,247.9 412.9,248.6 412.9,248.9 412.9,249 413.1,249 413.5,249 414.7,249 415.3,249 415.8,249 415.9,249 415.9,249 
			415.9,249.2 415.9,249.8 415.9,250.6 415.9,252.2 415.9,252.8 415.9,252.9 415.9,253 415.8,253 415.3,253 414.1,253 413.5,253 
			413.1,253 412.9,253 412.9,253.1 412.9,253.3 412.9,254.1 412.9,255.1 412.9,256.2 412.9,257.2 412.9,257.5 412.9,257.8 
			412.9,258 412.9,258 412.8,258 412.5,258 411.6,258 411.3,258 411,258 410.9,258 410.7,258 410.3,258 409.7,258 409,258 
			407.5,258 405.9,258 404.5,258 404,258 403.6,258 403.5,258 403.4,258 403.1,258 402.7,258 402.1,258 401.4,258 398.2,258 
			397.5,258 396.9,258 396.4,258 396.1,258 395.7,258 394.9,258 394.2,258 394,258 393.9,258 393.9,257.8 393.9,257.3 393.9,256.5 
			393.9,255.5 393.9,254.3 393.9,249.3 393.9,248.2 393.9,247.2 393.9,246.5 393.9,246.1 393.9,246 393.7,246 393.1,246 392.2,246 
			391.1,246 389.9,246 387.2,246 384.6,246 383.5,246 382.5,246 381.8,246 381.4,246 381.3,246 381.2,246.2 380.8,246.5 380.4,247 
			379.8,247.5 379.2,248.2 377.8,249.5 376.5,250.8 375.9,251.4 375.5,251.9 375.1,252.2 375,252.4 374.9,252.4 374.9,252.5 
			374.9,252.8 374.9,253.2 374.9,253.8 374.9,254.5 374.9,255.3 374.9,256.2 374.9,258.3 374.9,260.6 374.9,265.6 374.9,268 
			374.9,270.3 374.9,272.3 374.9,273.2 374.9,273.9 374.9,274.5 374.9,275 374.9,275.4 374.9,275.5 375,275.6 375.2,275.8 
			375.6,276.2 376.1,276.7 377.3,278 378.7,279.3 380,280.6 380.5,281.2 381,281.6 381.2,281.9 381.4,282 381.5,282 382,282 
			382.8,282 383.8,282 385,282 386.3,282 389,282 390.3,282 391.5,282 392.5,282 393.3,282 393.8,282 393.9,282 393.9,281.8 
			393.9,281.3 393.9,280.5 393.9,279.5 393.9,278.4 393.9,277.1 393.9,274.5 393.9,273.3 393.9,272.2 393.9,271.2 393.9,270.5 
			393.9,270.1 393.9,270 394.1,270 394.4,270 395.2,270 395.6,270 395.9,270 396,270 396.2,270 396.5,270 397.1,270 397.7,270 
			399.3,270 400.9,270 402.3,270 402.8,270 403.2,270 403.4,270 403.5,270 403.7,270 404.1,270 404.7,270 405.3,270 408.5,270 
			409.9,270 410.4,270 410.8,270 410.9,270 411,270 411.1,270 411.9,270 412.7,270 412.9,270 412.9,270 412.9,270.2 412.9,270.5 
			412.9,271.4 412.9,273.5 412.9,274.4 412.9,274.7 412.9,274.9 413,275 413.3,275 413.8,275 414.5,275 415.1,275 415.6,275 
			415.9,275 415.9,275.1 415.9,275.5 415.9,276.3 415.9,277.9 415.9,278.6 415.9,278.8 415.9,279 415.9,279 415.5,279 414.3,279 
			413.7,279 413.2,279 413,279 412.9,279 412.9,279.2 412.9,279.4 412.9,279.8 412.9,280.7 412.9,282.8 412.9,283.6 412.9,283.9 
			412.9,284 412.9,284 412.5,284 411.9,284 411,284 409.9,284 408.6,284 407.1,284 405.4,284 403.6,284 401.7,284 397.6,284 
			389,284 384.8,284 382.9,284 381,284 379.3,284 377.8,284 376.4,284 375.2,284 374.3,284 373.5,284 373.1,284 372.9,284 		"/>
	</g>
	<g id="SPLINE_74_">
		<polyline class="st0" points="378.5,282 378.5,282 378.5,282 378.5,281.9 378.4,281.9 378.4,281.8 378.3,281.7 378.2,281.7 
			378.1,281.5 378,281.4 377.8,281.3 377.7,281.2 377.6,281 377.4,280.9 377.1,280.5 376.7,280.2 376.4,279.9 376.1,279.5 
			375.9,279.4 375.8,279.2 375.6,279.1 375.5,279 375.4,278.8 375.3,278.7 375.2,278.6 375.1,278.6 375,278.5 375,278.4 375,278.4 
			375,278.4 374.9,278.4 374.9,278.4 374.9,278.4 374.9,278.5 374.9,278.6 374.9,278.6 374.9,278.7 374.9,278.8 374.9,279 
			374.9,279.1 374.9,279.2 374.9,279.5 374.9,279.9 374.9,280.2 374.9,280.5 374.9,280.9 374.9,281.2 374.9,281.3 374.9,281.4 
			374.9,281.5 374.9,281.7 374.9,281.7 374.9,281.8 374.9,281.9 374.9,281.9 374.9,282 374.9,282 375,282 375,282 375,282 
			375.1,282 375.2,282 375.3,282 375.4,282 375.5,282 375.6,282 375.8,282 376.1,282 376.4,282 376.7,282 377.1,282 377.4,282 
			377.7,282 377.8,282 378,282 378.1,282 378.2,282 378.3,282 378.4,282 378.4,282 378.5,282 378.5,282 378.5,282 		"/>
	</g>
	<g id="SPLINE_75_">
		<polyline class="st0" points="374.9,249.6 375,249.6 375,249.6 375,249.5 375,249.5 375.1,249.4 375.2,249.3 375.3,249.2 
			375.4,249.1 375.5,249 375.6,248.9 375.8,248.7 375.9,248.6 376.1,248.4 376.4,248.1 376.7,247.8 377.1,247.4 377.4,247.1 
			377.6,247 377.7,246.8 377.8,246.7 378,246.5 378.1,246.4 378.2,246.3 378.3,246.2 378.4,246.1 378.4,246.1 378.5,246 378.5,246 
			378.5,246 378.5,246 378.5,246 378.5,246 378.4,246 378.4,246 378.3,246 378.2,246 378.1,246 378,246 377.8,246 377.7,246 
			377.4,246 377.1,246 376.7,246 376.4,246 376.1,246 375.8,246 375.6,246 375.5,246 375.4,246 375.3,246 375.2,246 375.1,246 
			375,246 375,246 375,246 374.9,246 374.9,246 374.9,246 374.9,246.1 374.9,246.1 374.9,246.2 374.9,246.3 374.9,246.4 
			374.9,246.5 374.9,246.7 374.9,246.8 374.9,247.1 374.9,247.4 374.9,247.8 374.9,248.1 374.9,248.4 374.9,248.7 374.9,248.9 
			374.9,249 374.9,249.1 374.9,249.2 374.9,249.3 374.9,249.4 374.9,249.5 374.9,249.5 374.9,249.6 374.9,249.6 		"/>
	</g>
	<g id="SPLINE_76_">
		<path class="st0" d="M395.9,278h15c0,0,0,0,0,4c-15,0-15,0-15,0V278z"/>
	</g>
	<g id="SPLINE_77_">
		<path class="st0" d="M410.9,276h-15c0,0,0,0,0-4c15,0,15,0,15,0V276z"/>
	</g>
	<g id="SPLINE_78_">
		<path class="st0" d="M395.9,252h15c0,0,0,0,0,4c-15,0-15,0-15,0V252z"/>
	</g>
	<g id="SPLINE_79_">
		<path class="st0" d="M410.9,250h-15c0,0,0,0,0-4c15,0,15,0,15,0V250z"/>
	</g>
	<g id="SPLINE_80_">
		<polyline class="st0" points="523.3,250.7 523.3,250.8 523.3,251 523.3,251.4 523.3,251.9 523.3,252.6 523.3,253.4 523.3,254.3 
			523.3,255.3 523.3,257.5 523.3,260 523.3,262.8 523.3,265.6 523.3,271.4 523.3,274.1 523.3,276.7 523.3,279 523.3,280 
			523.3,280.9 523.3,281.7 523.3,282.3 523.3,282.9 523.3,283.3 523.3,283.6 523.3,283.7 523.3,283.7 523.1,283.7 522.4,283.7 
			521.5,283.7 521.2,283.7 520.9,283.7 520.8,283.7 520.8,283.6 520.8,283.4 520.8,283.1 520.8,282.4 520.8,281.9 520.8,281.7 
			520.8,281.7 520.6,281.7 520.2,281.7 518.3,281.7 517.9,281.7 517.8,281.7 517.8,281.7 517.8,281.9 517.8,283.2 517.8,283.5 
			517.8,283.6 517.8,283.7 517.8,283.7 517.7,283.7 517.3,283.7 516.9,283.7 516.3,283.7 515.6,283.7 514.7,283.7 513.8,283.7 
			511.6,283.7 509,283.7 506.3,283.7 500.4,283.7 497.4,283.7 494.6,283.7 491.9,283.7 489.4,283.7 488.3,283.7 487.3,283.7 
			486.4,283.7 485.6,283.7 485,283.7 484.5,283.7 484.1,283.7 483.9,283.7 483.8,283.6 483.8,283.5 483.8,283.2 483.8,282.5 
			483.8,281.9 483.8,281.7 483.8,281.7 483.6,281.7 483.3,281.7 482.3,281.7 481.3,281.7 481,281.7 480.8,281.7 480.8,281.7 
			480.8,281.9 480.8,282.5 480.8,283.2 480.8,283.5 480.8,283.6 480.8,283.7 480.7,283.7 480.4,283.7 480,283.7 479.1,283.7 
			478.8,283.7 478.5,283.7 478.3,283.7 478.3,283.6 478.3,283.5 478.3,283.1 478.3,282.6 478.3,282 478.3,281.3 478.3,280.4 
			478.3,279.4 478.3,278.4 478.3,276 478.3,273.4 478.3,270.6 478.3,264.9 478.3,262 478.3,259.4 478.3,256.9 478.3,254.7 
			478.3,253.8 478.3,252.9 478.3,252.2 478.3,251.6 478.3,251.2 478.3,250.9 478.3,250.7 478.3,250.6 478.5,249.9 478.9,249.3 
			479.4,248.9 480.1,248.7 480.3,248.7 480.5,248.7 480.9,248.7 481.4,248.7 482.2,248.7 483.1,248.7 484.1,248.7 485.2,248.7 
			486.5,248.7 487.9,248.7 489.4,248.7 492.6,248.7 496,248.7 503.2,248.7 506.7,248.7 510.1,248.7 513.2,248.7 514.6,248.7 
			515.9,248.7 517.1,248.7 518.2,248.7 519.2,248.7 519.9,248.7 520.6,248.7 521,248.7 521.2,248.7 521.3,248.7 521.5,248.7 
			522.2,248.9 522.8,249.3 523.2,249.9 523.3,250.7 		"/>
	</g>
	<g id="SPLINE_81_">
		<path class="st0" d="M485.8,250.7h4c0,0,0,0,0,3c-4,0-4,0-4,0V250.7z"/>
	</g>
	<g id="SPLINE_82_">
		<path class="st0" d="M511.8,250.7h4c0,0,0,0,0,3c-4,0-4,0-4,0V250.7z"/>
	</g>
	<g id="SPLINE_83_">
		<polyline class="st0" points="478.3,345.7 478.3,345.6 478.3,345.4 478.3,345 478.3,344.4 478.3,343.8 478.3,343 478.3,342.1 
			478.3,341.1 478.3,338.8 478.3,336.3 478.3,333.6 478.3,330.7 478.3,325 478.3,322.2 478.3,319.7 478.3,317.4 478.3,316.4 
			478.3,315.5 478.3,314.7 478.3,314 478.3,313.5 478.3,313.1 478.3,312.8 478.3,312.7 478.3,312.7 478.5,312.7 479.2,312.7 
			480.1,312.7 480.4,312.7 480.7,312.7 480.8,312.7 480.8,312.7 480.8,312.9 480.8,313.2 480.8,313.9 480.8,314.5 480.8,314.7 
			480.8,314.7 481,314.7 481.4,314.7 483.3,314.7 483.7,314.7 483.8,314.7 483.8,314.6 483.8,314.4 483.8,313.1 483.8,312.9 
			483.8,312.7 483.8,312.7 483.8,312.7 484,312.7 484.3,312.7 484.7,312.7 485.3,312.7 486,312.7 486.9,312.7 487.8,312.7 
			490,312.7 492.6,312.7 495.3,312.7 501.2,312.7 504.2,312.7 507,312.7 509.7,312.7 512.2,312.7 513.3,312.7 514.3,312.7 
			515.2,312.7 516,312.7 516.6,312.7 517.2,312.7 517.5,312.7 517.7,312.7 517.8,312.7 517.8,312.9 517.8,313.2 517.8,313.9 
			517.8,314.5 517.8,314.6 517.8,314.7 518,314.7 518.3,314.7 519.3,314.7 520.3,314.7 520.6,314.7 520.8,314.7 520.8,314.6 
			520.8,314.5 520.8,313.9 520.8,313.2 520.8,312.9 520.8,312.7 520.8,312.7 520.9,312.7 521.2,312.7 521.6,312.7 522.5,312.7 
			522.8,312.7 523.1,312.7 523.3,312.7 523.3,312.7 523.3,312.9 523.3,313.3 523.3,313.7 523.3,314.4 523.3,315.1 523.3,316 
			523.3,316.9 523.3,318 523.3,320.3 523.3,322.9 523.3,325.7 523.3,331.5 523.3,334.3 523.3,337 523.3,339.5 523.3,341.6 
			523.3,342.6 523.3,343.4 523.3,344.1 523.3,344.7 523.3,345.2 523.3,345.5 523.3,345.7 523.3,345.7 523.1,346.5 522.7,347.1 
			522.2,347.5 521.5,347.7 521.3,347.7 521.1,347.7 520.7,347.7 520.2,347.7 519.4,347.7 518.5,347.7 517.5,347.7 516.4,347.7 
			515.1,347.7 513.7,347.7 512.2,347.7 509,347.7 505.6,347.7 498.4,347.7 494.9,347.7 491.5,347.7 488.4,347.7 487,347.7 
			485.7,347.7 484.5,347.7 483.4,347.7 482.4,347.7 481.7,347.7 481,347.7 480.6,347.7 480.4,347.7 480.3,347.7 480.1,347.7 
			479.4,347.5 478.8,347 478.4,346.4 478.3,345.7 		"/>
	</g>
	<g id="SPLINE_84_">
		<path class="st0" d="M515.8,345.7h-4c0,0,0,0,0-3c4,0,4,0,4,0V345.7z"/>
	</g>
	<g id="SPLINE_85_">
		<path class="st0" d="M489.8,345.7h-4c0,0,0,0,0-3c4,0,4,0,4,0V345.7z"/>
	</g>
	<g id="LWPOLYLINE">
		<rect x="289.8" y="208.2" class="st0" width="3" height="4"/>
	</g>
	<g id="LWPOLYLINE_1_">
		<rect x="376.8" y="208.2" class="st0" width="3" height="4"/>
	</g>
	<g id="LWPOLYLINE_2_">
		<rect x="289.8" y="234.2" class="st0" width="3" height="4"/>
	</g>
	<g id="LWPOLYLINE_3_">
		<rect x="376.8" y="234.2" class="st0" width="3" height="4"/>
	</g>
	<g id="SPLINE_86_">
		<path class="st0" d="M328.1,331.6c0.7-1.9,2.5-3.2,4.7-3.2c0,0,2.1,0,3.9,1.3c0.7,1.9,0.7,1.9,0.7,1.9c0,0,5.3,19.1,5.3,19.1
			s0,0,0,3c-3,0-3,0-3,0v-3c0,0,0,0-14,0c0,3,0,3,0,3h-3c0,0,0,0,0-3C328.1,331.6,328.1,331.6,328.1,331.6z"/>
	</g>
	<g id="SPLINE_87_">
		<path class="st0" d="M332.7,337.4c-2,0-3.7-1.7-3.7-3.7c0,0,0-2,1.7-3.7c2,0,2,0,4.1,0c1.7,1.7,1.7,3.7,1.7,3.7
			C336.4,335.8,334.8,337.4,332.7,337.4z"/>
	</g>
	<g id="SPLINE_88_">
		<path class="st0" d="M386.7,331.6c0.7-1.9,2.5-3.2,4.7-3.2c0,0,2.1,0,3.9,1.3c0.7,1.9,0.7,1.9,0.7,1.9c0,0,5.3,19.1,5.3,19.1
			s0,0,0,3c-3,0-3,0-3,0v-3c0,0,0,0-14,0c0,3,0,3,0,3h-3c0,0,0,0,0-3C386.7,331.6,386.7,331.6,386.7,331.6z"/>
	</g>
	<g id="SPLINE_89_">
		<path class="st0" d="M391.4,337.4c-2,0-3.7-1.7-3.7-3.7c0,0,0-2,1.7-3.7c2,0,2,0,4.1,0c1.7,1.7,1.7,3.7,1.7,3.7
			C395.1,335.8,393.4,337.4,391.4,337.4z"/>
	</g>
	<g id="SPLINE_90_">
		<path class="st0" d="M298.7,331.6c0.7-1.9,2.5-3.2,4.7-3.2c0,0,2.1,0,3.9,1.3c0.7,1.9,0.7,1.9,0.7,1.9c0,0,5.3,19.1,5.3,19.1
			s0,0,0,3c-3,0-3,0-3,0v-3c0,0,0,0-14,0c0,3,0,3,0,3h-3c0,0,0,0,0-3C298.7,331.6,298.7,331.6,298.7,331.6z"/>
	</g>
	<g id="SPLINE_91_">
		<path class="st0" d="M303.4,337.4c-2,0-3.7-1.7-3.7-3.7c0,0,0-2,1.7-3.7c2,0,2,0,4.1,0c1.7,1.7,1.7,3.7,1.7,3.7
			C307.1,335.8,305.5,337.4,303.4,337.4z"/>
	</g>
	<g id="SPLINE_92_">
		<path class="st0" d="M357.4,331.6c0.7-1.9,2.5-3.2,4.7-3.2c0,0,2.1,0,3.9,1.3c0.7,1.9,0.7,1.9,0.7,1.9c0,0,5.3,19.1,5.3,19.1
			s0,0,0,3c-3,0-3,0-3,0v-3c0,0,0,0-14,0c0,3,0,3,0,3h-3c0,0,0,0,0-3C357.4,331.6,357.4,331.6,357.4,331.6z"/>
	</g>
	<g id="SPLINE_93_">
		<path class="st0" d="M362.1,337.4c-2,0-3.7-1.7-3.7-3.7c0,0,0-2,1.7-3.7c2,0,2,0,4.1,0c1.7,1.7,1.7,3.7,1.7,3.7
			C365.8,335.8,364.1,337.4,362.1,337.4z"/>
	</g>
	<g id="SPLINE_94_">
		<path class="st0" d="M322.7,350.7c-0.7,1.9-2.5,3.2-4.7,3.2c0,0-2.1,0-3.9-1.3c-0.7-1.9-0.7-1.9-0.7-1.9c0,0-5.3-19.1-5.3-19.1
			s0,0,0-3c3,0,3,0,3,0v3c0,0,0,0,14,0c0-3,0-3,0-3h3c0,0,0,0,0,3C322.7,350.7,322.7,350.7,322.7,350.7z"/>
	</g>
	<g id="SPLINE_95_">
		<path class="st0" d="M318.1,344.9c2,0,3.7,1.7,3.7,3.7c0,0,0,2-1.7,3.7c-2,0-2,0-4.1,0c-1.7-1.7-1.7-3.7-1.7-3.7
			C314.4,346.6,316,344.9,318.1,344.9z"/>
	</g>
	<g id="SPLINE_96_">
		<path class="st0" d="M381.4,350.7c-0.7,1.9-2.5,3.2-4.7,3.2c0,0-2.1,0-3.9-1.3c-0.7-1.9-0.7-1.9-0.7-1.9c0,0-5.3-19.1-5.3-19.1
			s0,0,0-3c3,0,3,0,3,0v3c0,0,0,0,14,0c0-3,0-3,0-3h3c0,0,0,0,0,3C381.4,350.7,381.4,350.7,381.4,350.7z"/>
	</g>
	<g id="SPLINE_97_">
		<path class="st0" d="M376.7,344.9c2,0,3.7,1.7,3.7,3.7c0,0,0,2-1.7,3.7c-2,0-2,0-4.1,0c-1.7-1.7-1.7-3.7-1.7-3.7
			C373,346.6,374.7,344.9,376.7,344.9z"/>
	</g>
	<g id="SPLINE_98_">
		<path class="st0" d="M293.4,350.7c-0.7,1.9-2.5,3.2-4.7,3.2c0,0-2.1,0-3.9-1.3c-0.7-1.9-0.7-1.9-0.7-1.9c0,0-5.3-19.1-5.3-19.1
			s0,0,0-3c3,0,3,0,3,0v3c0,0,0,0,14,0c0-3,0-3,0-3h3c0,0,0,0,0,3C293.4,350.7,293.4,350.7,293.4,350.7z"/>
	</g>
	<g id="SPLINE_99_">
		<path class="st0" d="M288.7,344.9c2,0,3.7,1.7,3.7,3.7c0,0,0,2-1.7,3.7c-2,0-2,0-4.1,0c-1.7-1.7-1.7-3.7-1.7-3.7
			C285.1,346.6,286.7,344.9,288.7,344.9z"/>
	</g>
	<g id="SPLINE_100_">
		<path class="st0" d="M352.1,350.7c-0.7,1.9-2.5,3.2-4.7,3.2c0,0-2.1,0-3.9-1.3c-0.7-1.9-0.7-1.9-0.7-1.9c0,0-5.3-19.1-5.3-19.1
			s0,0,0-3c3,0,3,0,3,0v3c0,0,0,0,14,0c0-3,0-3,0-3h3c0,0,0,0,0,3C352.1,350.7,352.1,350.7,352.1,350.7z"/>
	</g>
	<g id="SPLINE_101_">
		<path class="st0" d="M347.4,344.9c2,0,3.7,1.7,3.7,3.7c0,0,0,2-1.7,3.7c-2,0-2,0-4.1,0c-1.7-1.7-1.7-3.7-1.7-3.7
			C343.7,346.6,345.4,344.9,347.4,344.9z"/>
	</g>
	<g id="LWPOLYLINE_4_">
		<rect x="287.2" y="336.6" class="st0" width="3" height="3"/>
	</g>
	<g id="LWPOLYLINE_5_">
		<rect x="316.6" y="336.6" class="st0" width="3" height="3"/>
	</g>
	<g id="LWPOLYLINE_6_">
		<rect x="345.9" y="336.6" class="st0" width="3" height="3"/>
	</g>
	<g id="LWPOLYLINE_7_">
		<rect x="375.2" y="336.6" class="st0" width="3" height="3"/>
	</g>
	<g id="LWPOLYLINE_8_">
		<rect x="389.9" y="342.7" class="st0" width="3" height="3"/>
	</g>
	<g id="LWPOLYLINE_9_">
		<rect x="360.6" y="342.7" class="st0" width="3" height="3"/>
	</g>
	<g id="LWPOLYLINE_10_">
		<rect x="331.2" y="342.7" class="st0" width="3" height="3"/>
	</g>
	<g id="LWPOLYLINE_11_">
		<rect x="301.9" y="342.7" class="st0" width="3" height="3"/>
	</g>
	<g id="SPLINE_102_">
		<path class="st0" d="M291,365.5h12c0,0,0,0,4-4c1-5,1-5,1-5h3c0,0,0,0,0,5c3,0,3,0,3,0v3c0,0,0,0-3,0c0,1,0,1,0,1v4c0,0,0,0-8,0
			c-12,0-12,0-12,0h-8c0,0,0,0,0-4c0-1,0-1,0-1h-3c0,0,0,0,0-3c3,0,3,0,3,0v-5c0,0,0,0,3,0c1,5,1,5,1,5L291,365.5z"/>
	</g>
	<g id="SPLINE_103_">
		<path class="st0" d="M325,365.5h12c0,0,0,0,4-4c1-5,1-5,1-5h3c0,0,0,0,0,5c3,0,3,0,3,0v3c0,0,0,0-3,0c0,1,0,1,0,1v4c0,0,0,0-8,0
			c-12,0-12,0-12,0h-8c0,0,0,0,0-4c0-1,0-1,0-1h-3c0,0,0,0,0-3c3,0,3,0,3,0v-5c0,0,0,0,3,0c1,5,1,5,1,5L325,365.5z"/>
	</g>
	<g id="SPLINE_104_">
		<path class="st0" d="M359,365.5h12c0,0,0,0,4-4c1-5,1-5,1-5h3c0,0,0,0,0,5c3,0,3,0,3,0v3c0,0,0,0-3,0c0,1,0,1,0,1v4c0,0,0,0-8,0
			c-12,0-12,0-12,0h-8c0,0,0,0,0-4c0-1,0-1,0-1h-3c0,0,0,0,0-3c3,0,3,0,3,0v-5c0,0,0,0,3,0c1,5,1,5,1,5L359,365.5z"/>
	</g>
	<g id="SPLINE_105_">
		<path class="st0" d="M393,365.5h12c0,0,0,0,4-4c1-5,1-5,1-5h3c0,0,0,0,0,5c3,0,3,0,3,0v3c0,0,0,0-3,0c0,1,0,1,0,1v4c0,0,0,0-8,0
			c-12,0-12,0-12,0h-8c0,0,0,0,0-4c0-1,0-1,0-1h-3c0,0,0,0,0-3c3,0,3,0,3,0v-5c0,0,0,0,3,0c1,5,1,5,1,5L393,365.5z"/>
	</g>
	<g id="SPLINE_106_">
		<path class="st0" d="M291,373.5h12c0,0,0,0,4,4c1,5,1,5,1,5h3c0,0,0,0,0-5c3,0,3,0,3,0v-3c0,0,0,0-3,0c0-1,0-1,0-1v-4c0,0,0,0-8,0
			c-12,0-12,0-12,0h-8c0,0,0,0,0,4c0,1,0,1,0,1h-3c0,0,0,0,0,3c3,0,3,0,3,0v5c0,0,0,0,3,0c1-5,1-5,1-5L291,373.5z"/>
	</g>
	<g id="SPLINE_107_">
		<path class="st0" d="M325,373.5h12c0,0,0,0,4,4c1,5,1,5,1,5h3c0,0,0,0,0-5c3,0,3,0,3,0v-3c0,0,0,0-3,0c0-1,0-1,0-1v-4c0,0,0,0-8,0
			c-12,0-12,0-12,0h-8c0,0,0,0,0,4c0,1,0,1,0,1h-3c0,0,0,0,0,3c3,0,3,0,3,0v5c0,0,0,0,3,0c1-5,1-5,1-5L325,373.5z"/>
	</g>
	<g id="SPLINE_108_">
		<path class="st0" d="M359,373.5h12c0,0,0,0,4,4c1,5,1,5,1,5h3c0,0,0,0,0-5c3,0,3,0,3,0v-3c0,0,0,0-3,0c0-1,0-1,0-1v-4c0,0,0,0-8,0
			c-12,0-12,0-12,0h-8c0,0,0,0,0,4c0,1,0,1,0,1h-3c0,0,0,0,0,3c3,0,3,0,3,0v5c0,0,0,0,3,0c1-5,1-5,1-5L359,373.5z"/>
	</g>
	<g id="SPLINE_109_">
		<path class="st0" d="M393,373.5h12c0,0,0,0,4,4c1,5,1,5,1,5h3c0,0,0,0,0-5c3,0,3,0,3,0v-3c0,0,0,0-3,0c0-1,0-1,0-1v-4c0,0,0,0-8,0
			c-12,0-12,0-12,0h-8c0,0,0,0,0,4c0,1,0,1,0,1h-3c0,0,0,0,0,3c3,0,3,0,3,0v5c0,0,0,0,3,0c1-5,1-5,1-5L393,373.5z"/>
	</g>
	<g id="SPLINE_110_">
		<path class="st0" d="M296,288.8h6c0,0,1.1,0,2,0.9c0,1.1,0,1.1,0,1.1c0,2,0,2,0,2h-3c0,0,0,0,0,3c-5,0-5,0-5,0v-3c0,0,0,0-5,0
			c0,3,0,3,0,3c0,1.1-0.9,2-2,2c0,0,0,0-1,0c0,0,0,0-1.1,0c-0.9-0.9-0.9-2-0.9-2v-5c0,0,0-1.1,0.9-2c1.1,0,1.1,0,1.1,0c3,0,3,0,3,0
			H296z"/>
	</g>
	<g id="SPLINE_111_">
		<path class="st0" d="M466.5,373h35c0,0,0,0,0,0.9c3,0,3,0,3,0v1c0,0,0,0-20.5,0c0,3,0,3,0,3h20.5c0,0,0,0,0,1c-3,0-3,0-3,0v0.9
			c0,0,0,0-35,0c0-0.9,0-0.9,0-0.9h-3c0,0,0,0,0-5c3,0,3,0,3,0V373z"/>
	</g>
	<g id="SPLINE_112_">
		<path class="st0" d="M460.5,359.5h-35c0,0,0,0,0-0.9c-3,0-3,0-3,0v-1c0,0,0,0,20.5,0c0-3,0-3,0-3h-20.5c0,0,0,0,0-1c3,0,3,0,3,0
			v-0.9c0,0,0,0,35,0c0,0.9,0,0.9,0,0.9h3c0,0,0,0,0,5c-3,0-3,0-3,0V359.5z"/>
	</g>
	<g id="SPLINE_113_">
		<path class="st0" d="M466.5,366.3h35c0,0,0,0,0,0.9c3,0,3,0,3,0v1c0,0,0,0-20.5,0c0,3,0,3,0,3h20.5c0,0,0,0,0,1c-3,0-3,0-3,0v0.9
			c0,0,0,0-35,0c0-0.9,0-0.9,0-0.9h-3c0,0,0,0,0-5c3,0,3,0,3,0V366.3z"/>
	</g>
	<g id="SPLINE_114_">
		<path class="st0" d="M460.5,366.3h-35c0,0,0,0,0-0.9c-3,0-3,0-3,0v-1c0,0,0,0,20.5,0c0-3,0-3,0-3h-20.5c0,0,0,0,0-1c3,0,3,0,3,0
			v-0.9c0,0,0,0,35,0c0,0.9,0,0.9,0,0.9h3c0,0,0,0,0,5c-3,0-3,0-3,0V366.3z"/>
	</g>
	<g id="SPLINE_115_">
		<path class="st0" d="M466.5,359.5h35c0,0,0,0,0,0.9c3,0,3,0,3,0v1c0,0,0,0-20.5,0c0,3,0,3,0,3h20.5c0,0,0,0,0,1c-3,0-3,0-3,0v0.9
			c0,0,0,0-35,0c0-0.9,0-0.9,0-0.9h-3c0,0,0,0,0-5c3,0,3,0,3,0V359.5z"/>
	</g>
	<g id="SPLINE_116_">
		<path class="st0" d="M460.5,373h-35c0,0,0,0,0-0.9c-3,0-3,0-3,0v-1c0,0,0,0,20.5,0c0-3,0-3,0-3h-20.5c0,0,0,0,0-1c3,0,3,0,3,0
			v-0.9c0,0,0,0,35,0c0,0.9,0,0.9,0,0.9h3c0,0,0,0,0,5c-3,0-3,0-3,0V373z"/>
	</g>
	<g id="SPLINE_117_">
		<path class="st0" d="M466.5,352.8h35c0,0,0,0,0,0.9c3,0,3,0,3,0v1c0,0,0,0-20.5,0c0,3,0,3,0,3h20.5c0,0,0,0,0,1c-3,0-3,0-3,0v0.9
			c0,0,0,0-35,0c0-0.9,0-0.9,0-0.9h-3c0,0,0,0,0-5c3,0,3,0,3,0V352.8z"/>
	</g>
	<g id="SPLINE_118_">
		<path class="st0" d="M460.5,379.8h-35c0,0,0,0,0-0.9c-3,0-3,0-3,0v-1c0,0,0,0,20.5,0c0-3,0-3,0-3h-20.5c0,0,0,0,0-1c3,0,3,0,3,0
			V373c0,0,0,0,35,0c0,0.9,0,0.9,0,0.9h3c0,0,0,0,0,5c-3,0-3,0-3,0V379.8z"/>
	</g>
	<g id="SPLINE_119_">
		<polyline class="st0" points="465.8,339.6 465.8,339.6 465.8,339.6 465.9,339.6 466,339.6 466.1,339.6 466.3,339.6 466.5,339.6 
			466.7,339.6 466.9,339.6 467.8,339.6 468,339.6 468.2,339.6 468.4,339.6 468.5,339.6 468.6,339.6 468.7,339.6 468.8,339.6 
			468.8,339.6 468.8,339.6 468.8,339.6 468.8,339.6 468.8,339.6 468.8,339.7 468.8,339.8 468.8,340 468.8,340.3 468.8,340.4 
			468.8,340.5 468.8,340.5 468.8,340.6 468.8,340.6 468.8,340.6 468.8,340.6 468.8,340.6 468.9,340.6 469.1,340.6 469.2,340.6 
			469.5,340.6 469.6,340.6 469.7,340.6 469.8,340.6 469.8,340.6 469.8,340.6 469.8,340.6 469.8,340.6 469.8,340.7 469.8,340.8 
			469.8,340.9 469.8,341 469.8,341.2 469.8,341.4 469.8,341.9 469.8,342.3 469.8,342.8 469.8,343 469.8,343.1 469.8,343.3 
			469.8,343.4 469.8,343.5 469.8,343.5 469.8,343.6 469.8,343.6 469.8,343.6 469.8,343.6 469.8,343.6 469.7,343.6 469.6,343.6 
			469.5,343.6 469.3,343.6 469,343.6 468.9,343.6 468.9,343.6 468.8,343.6 468.8,343.6 468.8,343.6 468.8,343.6 468.8,343.6 
			468.8,343.6 468.8,343.7 468.8,343.8 468.8,343.9 468.8,344 468.8,344.2 468.8,344.3 468.8,344.5 468.8,344.5 468.8,344.5 
			468.8,344.6 468.8,344.6 468.8,344.6 468.8,344.6 468.8,344.6 468.7,344.6 468.6,344.6 468.5,344.6 468.3,344.6 468.2,344.6 
			468,344.6 467.7,344.6 467.3,344.6 466.8,344.6 466.6,344.6 466.4,344.6 466.2,344.6 466.1,344.6 466,344.6 465.9,344.6 
			465.8,344.6 465.8,344.6 465.8,344.6 465.8,344.6 465.8,344.6 465.8,344.5 465.8,344.5 465.8,344.5 465.8,344.3 465.8,344.2 
			465.8,344 465.8,343.9 465.8,343.8 465.8,343.7 465.8,343.6 465.8,343.6 465.8,343.6 465.8,343.6 465.8,343.6 465.8,343.6 
			465.7,343.6 465.7,343.6 465.5,343.6 465.2,343.6 465.1,343.6 465,343.6 464.9,343.6 464.8,343.6 464.8,343.6 464.8,343.6 
			464.8,343.6 464.8,343.6 464.8,343.5 464.8,343.5 464.8,343.4 464.8,343.3 464.8,343.1 464.8,343 464.8,342.8 464.8,342.3 
			464.8,341.9 464.8,341.4 464.8,341.2 464.8,341 464.8,340.9 464.8,340.8 464.8,340.7 464.8,340.6 464.8,340.6 464.8,340.6 
			464.8,340.6 464.8,340.6 464.9,340.6 465,340.6 465.1,340.6 465.4,340.6 465.5,340.6 465.7,340.6 465.7,340.6 465.8,340.6 
			465.8,340.6 465.8,340.6 465.8,340.6 465.8,340.5 465.8,340.5 465.8,340.4 465.8,340.2 465.8,339.9 465.8,339.8 465.8,339.7 
			465.8,339.6 465.8,339.6 465.8,339.6 465.8,339.6 		"/>
	</g>
	<g id="SPLINE_120_">
		<polyline class="st0" points="427.8,339.6 427.8,339.6 427.8,339.6 427.9,339.6 428,339.6 428.1,339.6 428.3,339.6 428.5,339.6 
			428.7,339.6 428.9,339.6 429.8,339.6 430,339.6 430.2,339.6 430.4,339.6 430.5,339.6 430.6,339.6 430.7,339.6 430.8,339.6 
			430.8,339.6 430.8,339.6 430.8,339.6 430.8,339.6 430.8,339.6 430.8,339.7 430.8,339.8 430.8,340 430.8,340.3 430.8,340.4 
			430.8,340.5 430.8,340.5 430.8,340.6 430.8,340.6 430.8,340.6 430.8,340.6 430.8,340.6 430.9,340.6 431.1,340.6 431.2,340.6 
			431.5,340.6 431.6,340.6 431.7,340.6 431.8,340.6 431.8,340.6 431.8,340.6 431.8,340.6 431.8,340.6 431.8,340.7 431.8,340.8 
			431.8,340.9 431.8,341 431.8,341.2 431.8,341.4 431.8,341.9 431.8,342.3 431.8,342.8 431.8,343 431.8,343.1 431.8,343.3 
			431.8,343.4 431.8,343.5 431.8,343.5 431.8,343.6 431.8,343.6 431.8,343.6 431.8,343.6 431.8,343.6 431.7,343.6 431.6,343.6 
			431.5,343.6 431.3,343.6 431,343.6 430.9,343.6 430.9,343.6 430.8,343.6 430.8,343.6 430.8,343.6 430.8,343.6 430.8,343.6 
			430.8,343.6 430.8,343.7 430.8,343.8 430.8,343.9 430.8,344 430.8,344.2 430.8,344.3 430.8,344.5 430.8,344.5 430.8,344.5 
			430.8,344.6 430.8,344.6 430.8,344.6 430.8,344.6 430.8,344.6 430.7,344.6 430.6,344.6 430.5,344.6 430.3,344.6 430.2,344.6 
			430,344.6 429.7,344.6 429.3,344.6 428.8,344.6 428.6,344.6 428.4,344.6 428.2,344.6 428.1,344.6 428,344.6 427.9,344.6 
			427.8,344.6 427.8,344.6 427.8,344.6 427.8,344.6 427.8,344.6 427.8,344.5 427.8,344.5 427.8,344.5 427.8,344.3 427.8,344.2 
			427.8,344 427.8,343.9 427.8,343.8 427.8,343.7 427.8,343.6 427.8,343.6 427.8,343.6 427.8,343.6 427.8,343.6 427.8,343.6 
			427.7,343.6 427.7,343.6 427.5,343.6 427.2,343.6 427.1,343.6 427,343.6 426.9,343.6 426.8,343.6 426.8,343.6 426.8,343.6 
			426.8,343.6 426.8,343.6 426.8,343.5 426.8,343.5 426.8,343.4 426.8,343.3 426.8,343.1 426.8,343 426.8,342.8 426.8,342.3 
			426.8,341.9 426.8,341.4 426.8,341.2 426.8,341 426.8,340.9 426.8,340.8 426.8,340.7 426.8,340.6 426.8,340.6 426.8,340.6 
			426.8,340.6 426.8,340.6 426.9,340.6 427,340.6 427.1,340.6 427.4,340.6 427.5,340.6 427.7,340.6 427.7,340.6 427.8,340.6 
			427.8,340.6 427.8,340.6 427.8,340.6 427.8,340.5 427.8,340.5 427.8,340.4 427.8,340.2 427.8,339.9 427.8,339.8 427.8,339.7 
			427.8,339.6 427.8,339.6 427.8,339.6 427.8,339.6 		"/>
	</g>
	<g id="SPLINE_121_">
		<polyline class="st0" points="446.8,329.6 446.8,329.6 446.8,329.6 446.9,329.6 447,329.6 447.1,329.6 447.3,329.6 447.5,329.6 
			447.7,329.6 447.9,329.6 448.8,329.6 449,329.6 449.2,329.6 449.4,329.6 449.5,329.6 449.6,329.6 449.7,329.6 449.8,329.6 
			449.8,329.6 449.8,329.6 449.8,329.6 449.8,329.6 449.8,329.6 449.8,329.7 449.8,329.8 449.8,330 449.8,330.3 449.8,330.4 
			449.8,330.5 449.8,330.5 449.8,330.6 449.8,330.6 449.8,330.6 449.8,330.6 449.8,330.6 449.9,330.6 450.1,330.6 450.2,330.6 
			450.5,330.6 450.6,330.6 450.7,330.6 450.8,330.6 450.8,330.6 450.8,330.6 450.8,330.6 450.8,330.6 450.8,330.7 450.8,330.8 
			450.8,330.9 450.8,331 450.8,331.2 450.8,331.4 450.8,331.9 450.8,332.3 450.8,332.8 450.8,333 450.8,333.1 450.8,333.3 
			450.8,333.4 450.8,333.5 450.8,333.5 450.8,333.6 450.8,333.6 450.8,333.6 450.8,333.6 450.8,333.6 450.7,333.6 450.6,333.6 
			450.5,333.6 450.3,333.6 450,333.6 449.9,333.6 449.9,333.6 449.8,333.6 449.8,333.6 449.8,333.6 449.8,333.6 449.8,333.6 
			449.8,333.6 449.8,333.7 449.8,333.8 449.8,333.9 449.8,334 449.8,334.2 449.8,334.3 449.8,334.5 449.8,334.5 449.8,334.5 
			449.8,334.6 449.8,334.6 449.8,334.6 449.8,334.6 449.8,334.6 449.7,334.6 449.6,334.6 449.5,334.6 449.3,334.6 449.2,334.6 
			449,334.6 448.7,334.6 448.3,334.6 447.8,334.6 447.6,334.6 447.4,334.6 447.2,334.6 447.1,334.6 447,334.6 446.9,334.6 
			446.8,334.6 446.8,334.6 446.8,334.6 446.8,334.6 446.8,334.6 446.8,334.5 446.8,334.5 446.8,334.5 446.8,334.3 446.8,334.2 
			446.8,334 446.8,333.9 446.8,333.8 446.8,333.7 446.8,333.6 446.8,333.6 446.8,333.6 446.8,333.6 446.8,333.6 446.8,333.6 
			446.7,333.6 446.7,333.6 446.5,333.6 446.2,333.6 446.1,333.6 446,333.6 445.9,333.6 445.8,333.6 445.8,333.6 445.8,333.6 
			445.8,333.6 445.8,333.6 445.8,333.5 445.8,333.5 445.8,333.4 445.8,333.3 445.8,333.1 445.8,333 445.8,332.8 445.8,332.3 
			445.8,331.9 445.8,331.4 445.8,331.2 445.8,331 445.8,330.9 445.8,330.8 445.8,330.7 445.8,330.6 445.8,330.6 445.8,330.6 
			445.8,330.6 445.8,330.6 445.9,330.6 446,330.6 446.1,330.6 446.4,330.6 446.5,330.6 446.7,330.6 446.7,330.6 446.8,330.6 
			446.8,330.6 446.8,330.6 446.8,330.6 446.8,330.5 446.8,330.5 446.8,330.4 446.8,330.2 446.8,329.9 446.8,329.8 446.8,329.7 
			446.8,329.6 446.8,329.6 446.8,329.6 446.8,329.6 		"/>
	</g>
	<g id="SPLINE_122_">
		<polyline class="st0" points="408.8,329.6 408.8,329.6 408.8,329.6 408.9,329.6 409,329.6 409.1,329.6 409.3,329.6 409.5,329.6 
			409.7,329.6 409.9,329.6 410.8,329.6 411,329.6 411.2,329.6 411.4,329.6 411.5,329.6 411.6,329.6 411.7,329.6 411.8,329.6 
			411.8,329.6 411.8,329.6 411.8,329.6 411.8,329.6 411.8,329.6 411.8,329.7 411.8,329.8 411.8,330 411.8,330.3 411.8,330.4 
			411.8,330.5 411.8,330.5 411.8,330.6 411.8,330.6 411.8,330.6 411.8,330.6 411.8,330.6 411.9,330.6 412.1,330.6 412.2,330.6 
			412.5,330.6 412.6,330.6 412.7,330.6 412.8,330.6 412.8,330.6 412.8,330.6 412.8,330.6 412.8,330.6 412.8,330.7 412.8,330.8 
			412.8,330.9 412.8,331 412.8,331.2 412.8,331.4 412.8,331.9 412.8,332.3 412.8,332.8 412.8,333 412.8,333.1 412.8,333.3 
			412.8,333.4 412.8,333.5 412.8,333.5 412.8,333.6 412.8,333.6 412.8,333.6 412.8,333.6 412.8,333.6 412.7,333.6 412.6,333.6 
			412.5,333.6 412.3,333.6 412,333.6 411.9,333.6 411.9,333.6 411.8,333.6 411.8,333.6 411.8,333.6 411.8,333.6 411.8,333.6 
			411.8,333.6 411.8,333.7 411.8,333.8 411.8,333.9 411.8,334 411.8,334.2 411.8,334.3 411.8,334.5 411.8,334.5 411.8,334.5 
			411.8,334.6 411.8,334.6 411.8,334.6 411.8,334.6 411.8,334.6 411.7,334.6 411.6,334.6 411.5,334.6 411.3,334.6 411.2,334.6 
			411,334.6 410.7,334.6 410.3,334.6 409.8,334.6 409.6,334.6 409.4,334.6 409.2,334.6 409.1,334.6 409,334.6 408.9,334.6 
			408.8,334.6 408.8,334.6 408.8,334.6 408.8,334.6 408.8,334.6 408.8,334.5 408.8,334.5 408.8,334.5 408.8,334.3 408.8,334.2 
			408.8,334 408.8,333.9 408.8,333.8 408.8,333.7 408.8,333.6 408.8,333.6 408.8,333.6 408.8,333.6 408.8,333.6 408.8,333.6 
			408.7,333.6 408.7,333.6 408.5,333.6 408.2,333.6 408.1,333.6 408,333.6 407.9,333.6 407.8,333.6 407.8,333.6 407.8,333.6 
			407.8,333.6 407.8,333.6 407.8,333.5 407.8,333.5 407.8,333.4 407.8,333.3 407.8,333.1 407.8,333 407.8,332.8 407.8,332.3 
			407.8,331.9 407.8,331.4 407.8,331.2 407.8,331 407.8,330.9 407.8,330.8 407.8,330.7 407.8,330.6 407.8,330.6 407.8,330.6 
			407.8,330.6 407.8,330.6 407.9,330.6 408,330.6 408.1,330.6 408.4,330.6 408.5,330.6 408.7,330.6 408.7,330.6 408.8,330.6 
			408.8,330.6 408.8,330.6 408.8,330.6 408.8,330.5 408.8,330.5 408.8,330.4 408.8,330.2 408.8,329.9 408.8,329.8 408.8,329.7 
			408.8,329.6 408.8,329.6 408.8,329.6 408.8,329.6 		"/>
	</g>
	<g id="SPLINE_123_">
		<path class="st0" d="M460.5,386.5h-35c0,0,0,0,0-0.9c-3,0-3,0-3,0v-1c0,0,0,0,20.5,0c0-3,0-3,0-3h-20.5c0,0,0,0,0-1c3,0,3,0,3,0
			v-0.9c0,0,0,0,35,0c0,0.9,0,0.9,0,0.9h3c0,0,0,0,0,5c-3,0-3,0-3,0V386.5z"/>
	</g>
	<g id="SPLINE_124_">
		<path class="st0" d="M542.5,359.5h-35c0,0,0,0,0-0.9c-3,0-3,0-3,0v-1c0,0,0,0,20.5,0c0-3,0-3,0-3h-20.5c0,0,0,0,0-1c3,0,3,0,3,0
			v-0.9c0,0,0,0,35,0c0,0.9,0,0.9,0,0.9h3c0,0,0,0,0,5c-3,0-3,0-3,0V359.5z"/>
	</g>
	<g id="SPLINE_125_">
		<path class="st0" d="M460.5,393.3h-35c0,0,0,0,0-0.9c-3,0-3,0-3,0v-1c0,0,0,0,20.5,0c0-3,0-3,0-3h-20.5c0,0,0,0,0-1c3,0,3,0,3,0
			v-0.9c0,0,0,0,35,0c0,0.9,0,0.9,0,0.9h3c0,0,0,0,0,5c-3,0-3,0-3,0V393.3z"/>
	</g>
	<g id="SPLINE_126_">
		<path class="st0" d="M542.5,366.3h-35c0,0,0,0,0-0.9c-3,0-3,0-3,0v-1c0,0,0,0,20.5,0c0-3,0-3,0-3h-20.5c0,0,0,0,0-1c3,0,3,0,3,0
			v-0.9c0,0,0,0,35,0c0,0.9,0,0.9,0,0.9h3c0,0,0,0,0,5c-3,0-3,0-3,0V366.3z"/>
	</g>
	<g id="SPLINE_127_">
		<path class="st0" d="M466.5,386.5h35c0,0,0,0,0,0.9c3,0,3,0,3,0v1c0,0,0,0-20.5,0c0,3,0,3,0,3h20.5c0,0,0,0,0,1c-3,0-3,0-3,0v0.9
			c0,0,0,0-35,0c0-0.9,0-0.9,0-0.9h-3c0,0,0,0,0-5c3,0,3,0,3,0V386.5z"/>
	</g>
	<g id="SPLINE_128_">
		<path class="st0" d="M542.5,373h-35c0,0,0,0,0-0.9c-3,0-3,0-3,0v-1c0,0,0,0,20.5,0c0-3,0-3,0-3h-20.5c0,0,0,0,0-1c3,0,3,0,3,0
			v-0.9c0,0,0,0,35,0c0,0.9,0,0.9,0,0.9h3c0,0,0,0,0,5c-3,0-3,0-3,0V373z"/>
	</g>
	<g id="SPLINE_129_">
		<path class="st0" d="M466.5,379.8h35c0,0,0,0,0,0.9c3,0,3,0,3,0v1c0,0,0,0-20.5,0c0,3,0,3,0,3h20.5c0,0,0,0,0,1c-3,0-3,0-3,0v0.9
			c0,0,0,0-35,0c0-0.9,0-0.9,0-0.9h-3c0,0,0,0,0-5c3,0,3,0,3,0V379.8z"/>
	</g>
	<g id="SPLINE_130_">
		<path class="st0" d="M542.5,379.8h-35c0,0,0,0,0-0.9c-3,0-3,0-3,0v-1c0,0,0,0,20.5,0c0-3,0-3,0-3h-20.5c0,0,0,0,0-1c3,0,3,0,3,0
			V373c0,0,0,0,35,0c0,0.9,0,0.9,0,0.9h3c0,0,0,0,0,5c-3,0-3,0-3,0V379.8z"/>
	</g>
	<g id="SPLINE_131_">
		<polyline class="st0" points="465.7,254.5 465.7,254.5 465.8,254.5 465.8,254.5 465.9,254.5 466.1,254.5 466.2,254.5 466.4,254.5 
			466.6,254.5 466.8,254.5 467.7,254.5 467.9,254.5 468.1,254.5 468.3,254.5 468.5,254.5 468.6,254.5 468.7,254.5 468.7,254.5 
			468.7,254.5 468.7,254.5 468.7,254.5 468.7,254.5 468.7,254.5 468.7,254.6 468.7,254.7 468.7,254.9 468.7,255.2 468.7,255.3 
			468.7,255.4 468.7,255.4 468.7,255.5 468.7,255.5 468.7,255.5 468.8,255.5 468.8,255.5 468.9,255.5 469,255.5 469.1,255.5 
			469.4,255.5 469.6,255.5 469.7,255.5 469.7,255.5 469.7,255.5 469.7,255.5 469.7,255.5 469.7,255.5 469.7,255.5 469.7,255.6 
			469.7,255.8 469.7,255.9 469.7,256.1 469.7,256.3 469.7,256.8 469.7,257.2 469.7,257.6 469.7,257.8 469.7,258 469.7,258.2 
			469.7,258.3 469.7,258.4 469.7,258.4 469.7,258.5 469.7,258.5 469.7,258.5 469.7,258.5 469.7,258.5 469.7,258.5 469.6,258.5 
			469.4,258.5 469.3,258.5 469,258.5 468.9,258.5 468.8,258.5 468.8,258.5 468.8,258.5 468.7,258.5 468.7,258.5 468.7,258.5 
			468.7,258.5 468.7,258.6 468.7,258.7 468.7,258.8 468.7,258.9 468.7,259.1 468.7,259.2 468.7,259.4 468.7,259.4 468.7,259.4 
			468.7,259.5 468.7,259.5 468.7,259.5 468.7,259.5 468.7,259.5 468.7,259.5 468.6,259.5 468.4,259.5 468.3,259.5 468.1,259.5 
			467.9,259.5 467.7,259.5 467.2,259.5 466.8,259.5 466.6,259.5 466.4,259.5 466.2,259.5 466,259.5 465.9,259.5 465.8,259.5 
			465.8,259.5 465.8,259.5 465.7,259.5 465.7,259.5 465.7,259.5 465.7,259.4 465.7,259.4 465.7,259.4 465.7,259.2 465.7,259.1 
			465.7,258.9 465.7,258.8 465.7,258.7 465.7,258.6 465.7,258.5 465.7,258.5 465.7,258.5 465.7,258.5 465.7,258.5 465.7,258.5 
			465.7,258.5 465.6,258.5 465.5,258.5 465.2,258.5 465,258.5 464.9,258.5 464.8,258.5 464.8,258.5 464.7,258.5 464.7,258.5 
			464.7,258.5 464.7,258.5 464.7,258.4 464.7,258.4 464.7,258.3 464.7,258.2 464.7,258 464.7,257.8 464.7,257.6 464.7,257.2 
			464.7,256.8 464.7,256.3 464.7,256.1 464.7,255.9 464.7,255.8 464.7,255.6 464.7,255.5 464.7,255.5 464.7,255.5 464.7,255.5 
			464.7,255.5 464.8,255.5 464.8,255.5 464.9,255.5 465,255.5 465.3,255.5 465.5,255.5 465.6,255.5 465.7,255.5 465.7,255.5 
			465.7,255.5 465.7,255.5 465.7,255.4 465.7,255.4 465.7,255.4 465.7,255.3 465.7,255.1 465.7,254.8 465.7,254.7 465.7,254.6 
			465.7,254.5 465.7,254.5 465.7,254.5 465.7,254.5 		"/>
	</g>
	<g id="SPLINE_132_">
		<polyline class="st0" points="419.9,261.6 419.9,261.6 419.9,261.6 420,261.6 420.1,261.6 420.2,261.6 420.4,261.6 420.5,261.6 
			420.7,261.6 421,261.6 421.9,261.6 422.1,261.6 422.3,261.6 422.4,261.6 422.6,261.6 422.7,261.6 422.8,261.6 422.8,261.6 
			422.9,261.6 422.9,261.6 422.9,261.6 422.9,261.6 422.9,261.7 422.9,261.7 422.9,261.8 422.9,262 422.9,262.3 422.9,262.4 
			422.9,262.5 422.9,262.5 422.9,262.6 422.9,262.6 422.9,262.6 422.9,262.6 422.9,262.6 423,262.6 423.1,262.6 423.3,262.6 
			423.6,262.6 423.7,262.6 423.8,262.6 423.8,262.6 423.9,262.6 423.9,262.6 423.9,262.6 423.9,262.6 423.9,262.7 423.9,262.8 
			423.9,262.9 423.9,263.1 423.9,263.2 423.9,263.4 423.9,263.9 423.9,264.3 423.9,264.8 423.9,265 423.9,265.1 423.9,265.3 
			423.9,265.4 423.9,265.5 423.9,265.5 423.9,265.6 423.9,265.6 423.9,265.6 423.9,265.6 423.8,265.6 423.8,265.6 423.7,265.6 
			423.6,265.6 423.4,265.6 423.1,265.6 423,265.6 423,265.6 422.9,265.6 422.9,265.6 422.9,265.6 422.9,265.6 422.9,265.6 
			422.9,265.6 422.9,265.7 422.9,265.8 422.9,265.9 422.9,266.1 422.9,266.2 422.9,266.4 422.9,266.5 422.9,266.5 422.9,266.5 
			422.9,266.6 422.9,266.6 422.9,266.6 422.9,266.6 422.8,266.6 422.8,266.6 422.7,266.6 422.6,266.6 422.4,266.6 422.2,266.6 
			422,266.6 421.8,266.6 421.4,266.6 420.9,266.6 420.7,266.6 420.5,266.6 420.3,266.6 420.2,266.6 420,266.6 419.9,266.6 
			419.9,266.6 419.9,266.6 419.9,266.6 419.9,266.6 419.9,266.6 419.9,266.5 419.9,266.5 419.9,266.5 419.9,266.4 419.9,266.2 
			419.9,266.1 419.9,265.9 419.9,265.8 419.9,265.7 419.9,265.6 419.9,265.6 419.9,265.6 419.9,265.6 419.9,265.6 419.8,265.6 
			419.8,265.6 419.7,265.6 419.6,265.6 419.3,265.6 419.2,265.6 419,265.6 418.9,265.6 418.9,265.6 418.9,265.6 418.9,265.6 
			418.9,265.6 418.9,265.6 418.9,265.5 418.9,265.5 418.9,265.4 418.9,265.3 418.9,265.1 418.9,265 418.9,264.8 418.9,264.3 
			418.9,263.9 418.9,263.4 418.9,263.2 418.9,263.1 418.9,262.9 418.9,262.8 418.9,262.7 418.9,262.6 418.9,262.6 418.9,262.6 
			418.9,262.6 418.9,262.6 418.9,262.6 419,262.6 419.2,262.6 419.5,262.6 419.6,262.6 419.7,262.6 419.8,262.6 419.9,262.6 
			419.9,262.6 419.9,262.6 419.9,262.6 419.9,262.5 419.9,262.5 419.9,262.4 419.9,262.2 419.9,261.9 419.9,261.8 419.9,261.7 
			419.9,261.6 419.9,261.6 419.9,261.6 419.9,261.6 		"/>
	</g>
	<g id="SPLINE_133_">
		<polyline class="st0" points="383.8,261.3 383.8,261.3 383.8,261.3 383.9,261.3 384,261.3 384.1,261.3 384.3,261.3 384.5,261.3 
			384.7,261.3 384.9,261.3 385.8,261.3 386,261.3 386.2,261.3 386.4,261.3 386.5,261.3 386.6,261.3 386.7,261.3 386.8,261.3 
			386.8,261.3 386.8,261.3 386.8,261.4 386.8,261.4 386.8,261.4 386.8,261.5 386.8,261.6 386.8,261.7 386.8,262 386.8,262.2 
			386.8,262.3 386.8,262.3 386.8,262.3 386.8,262.3 386.8,262.3 386.8,262.3 386.8,262.3 386.9,262.3 387.1,262.3 387.2,262.3 
			387.5,262.3 387.6,262.3 387.7,262.3 387.8,262.3 387.8,262.3 387.8,262.3 387.8,262.4 387.8,262.4 387.8,262.4 387.8,262.5 
			387.8,262.7 387.8,262.8 387.8,263 387.8,263.2 387.8,263.6 387.8,264.1 387.8,264.5 387.8,264.7 387.8,264.9 387.8,265.1 
			387.8,265.2 387.8,265.3 387.8,265.3 387.8,265.3 387.8,265.3 387.8,265.3 387.8,265.3 387.8,265.3 387.7,265.3 387.6,265.3 
			387.5,265.3 387.3,265.3 387.1,265.3 386.9,265.3 386.9,265.3 386.8,265.3 386.8,265.3 386.8,265.3 386.8,265.4 386.8,265.4 
			386.8,265.4 386.8,265.4 386.8,265.5 386.8,265.7 386.8,265.8 386.8,266 386.8,266.1 386.8,266.2 386.8,266.3 386.8,266.3 
			386.8,266.3 386.8,266.3 386.8,266.3 386.8,266.3 386.8,266.3 386.7,266.3 386.6,266.3 386.5,266.3 386.3,266.3 386.2,266.3 
			386,266.3 385.8,266.3 385.3,266.3 384.9,266.3 384.6,266.3 384.4,266.3 384.3,266.3 384.1,266.3 384,266.3 383.9,266.3 
			383.8,266.3 383.8,266.3 383.8,266.3 383.8,266.3 383.8,266.3 383.8,266.3 383.8,266.3 383.8,266.2 383.8,266.1 383.8,266 
			383.8,265.8 383.8,265.7 383.8,265.5 383.8,265.4 383.8,265.4 383.8,265.4 383.8,265.4 383.8,265.3 383.8,265.3 383.8,265.3 
			383.7,265.3 383.7,265.3 383.5,265.3 383.3,265.3 383.1,265.3 383,265.3 382.9,265.3 382.8,265.3 382.8,265.3 382.8,265.3 
			382.8,265.3 382.8,265.3 382.8,265.3 382.8,265.3 382.8,265.2 382.8,265.1 382.8,264.9 382.8,264.7 382.8,264.5 382.8,264.1 
			382.8,263.6 382.8,263.2 382.8,263 382.8,262.8 382.8,262.7 382.8,262.5 382.8,262.4 382.8,262.4 382.8,262.4 382.8,262.3 
			382.8,262.3 382.8,262.3 382.9,262.3 383,262.3 383.1,262.3 383.4,262.3 383.5,262.3 383.7,262.3 383.8,262.3 383.8,262.3 
			383.8,262.3 383.8,262.3 383.8,262.3 383.8,262.3 383.8,262.3 383.8,262.1 383.8,262 383.8,261.7 383.8,261.6 383.8,261.5 
			383.8,261.4 383.8,261.4 383.8,261.4 383.8,261.3 		"/>
	</g>
	<g id="SPLINE_134_">
		<polyline class="st0" points="337.8,261.7 337.8,261.7 337.8,261.7 337.9,261.7 338,261.7 338.1,261.7 338.2,261.7 338.4,261.7 
			338.6,261.7 338.8,261.7 339.7,261.7 340,261.7 340.2,261.7 340.3,261.7 340.5,261.7 340.6,261.7 340.7,261.7 340.7,261.7 
			340.8,261.7 340.8,261.7 340.8,261.7 340.8,261.7 340.8,261.8 340.8,261.8 340.8,261.9 340.8,262.1 340.8,262.4 340.8,262.5 
			340.8,262.6 340.8,262.7 340.8,262.7 340.8,262.7 340.8,262.7 340.8,262.7 340.8,262.7 340.9,262.7 341,262.7 341.2,262.7 
			341.5,262.7 341.6,262.7 341.7,262.7 341.7,262.7 341.8,262.7 341.8,262.7 341.8,262.7 341.8,262.7 341.8,262.8 341.8,262.9 
			341.8,263 341.8,263.2 341.8,263.4 341.8,263.6 341.8,264 341.8,264.4 341.8,264.9 341.8,265.1 341.8,265.3 341.8,265.4 
			341.8,265.5 341.8,265.6 341.8,265.7 341.8,265.7 341.8,265.7 341.8,265.7 341.8,265.7 341.7,265.7 341.7,265.7 341.6,265.7 
			341.5,265.7 341.3,265.7 341,265.7 340.9,265.7 340.8,265.7 340.8,265.7 340.8,265.7 340.8,265.7 340.8,265.7 340.8,265.7 
			340.8,265.7 340.8,265.8 340.8,265.9 340.8,266 340.8,266.2 340.8,266.3 340.8,266.5 340.8,266.6 340.8,266.6 340.8,266.7 
			340.8,266.7 340.8,266.7 340.8,266.7 340.7,266.7 340.7,266.7 340.7,266.7 340.6,266.7 340.5,266.7 340.3,266.7 340.1,266.7 
			339.9,266.7 339.7,266.7 339.3,266.7 338.8,266.7 338.6,266.7 338.4,266.7 338.2,266.7 338.1,266.7 337.9,266.7 337.8,266.7 
			337.8,266.7 337.8,266.7 337.8,266.7 337.8,266.7 337.8,266.7 337.8,266.7 337.8,266.6 337.8,266.6 337.8,266.5 337.8,266.3 
			337.8,266.2 337.8,266 337.8,265.9 337.8,265.8 337.8,265.7 337.8,265.7 337.8,265.7 337.8,265.7 337.7,265.7 337.7,265.7 
			337.7,265.7 337.6,265.7 337.5,265.7 337.2,265.7 337.1,265.7 336.9,265.7 336.8,265.7 336.8,265.7 336.8,265.7 336.8,265.7 
			336.8,265.7 336.8,265.7 336.8,265.7 336.8,265.6 336.8,265.5 336.8,265.4 336.8,265.3 336.8,265.1 336.8,264.9 336.8,264.4 
			336.8,264 336.8,263.6 336.8,263.4 336.8,263.2 336.8,263 336.8,262.9 336.8,262.8 336.8,262.7 336.8,262.7 336.8,262.7 
			336.8,262.7 336.8,262.7 336.8,262.7 336.9,262.7 337.1,262.7 337.4,262.7 337.5,262.7 337.6,262.7 337.7,262.7 337.7,262.7 
			337.8,262.7 337.8,262.7 337.8,262.7 337.8,262.6 337.8,262.6 337.8,262.5 337.8,262.4 337.8,262.1 337.8,261.9 337.8,261.8 
			337.8,261.8 337.8,261.7 337.8,261.7 337.8,261.7 		"/>
	</g>
	<g id="ELLIPSE_4_">
		<path class="st0" d="M467.2,247c-5.5,0-10,4.5-10,10c0,5.5,4.5,10,10,10c5.5,0,10-4.5,10-10C477.2,251.4,472.8,247,467.2,247
			L467.2,247z"/>
	</g>
	<g id="ELLIPSE_5_">
		<path class="st0" d="M421.4,254.1c-5.5,0-10,4.5-10,10s4.5,10,10,10s10-4.5,10-10S426.9,254.1,421.4,254.1L421.4,254.1z"/>
	</g>
	<g id="ELLIPSE_6_">
		<path class="st0" d="M385.3,253.8c-5.5,0-10,4.5-10,10s4.5,10,10,10c5.5,0,10-4.5,10-10S390.8,253.8,385.3,253.8L385.3,253.8z"/>
	</g>
	<g id="ELLIPSE_7_">
		<path class="st0" d="M339.3,254.2c-5.5,0-10,4.5-10,10c0,5.5,4.5,10,10,10c5.5,0,10-4.5,10-10
			C349.3,258.7,344.8,254.2,339.3,254.2L339.3,254.2z"/>
	</g>
</g>
<g id="cut_light">
</g>
<g id="origin">
	<g id="ELLIPSE_24_">
		<path class="st0" d="M275.5,200.3C275.5,200.3,275.5,200.3,275.5,200.3c0,0.1,0,0.1,0,0.1C275.6,200.4,275.6,200.4,275.5,200.3
			C275.6,200.3,275.6,200.3,275.5,200.3L275.5,200.3z"/>
	</g>
</g>
</svg>
