<?xml version="1.0" encoding="utf-8"?>
<!-- Generator: Adobe Illustrator 25.0.0, SVG Export Plug-In . SVG Version: 6.00 Build 0)  -->
<svg version="1.1" xmlns="http://www.w3.org/2000/svg" xmlns:xlink="http://www.w3.org/1999/xlink" x="0px" y="0px"
	 viewBox="0 0 841.9 595.3" style="enable-background:new 0 0 841.9 595.3;" xml:space="preserve">
<style type="text/css">
	.st0{fill:none;stroke:#000000;stroke-width:0;stroke-linecap:round;stroke-linejoin:round;stroke-miterlimit:10;}
</style>
<g id="cut">
	<g id="SPLINE">
		<path class="st0" d="M399.3,277.9v3c0,0,0,0,20,0c0-3,0-3,0-3h6c0,0,0,0,0,3c20,0,20,0,20,0v-3c0,0,0,0,6,0c0,3,0,3,0,3h13
			c0,0,0,0,0,5c3,0,3,0,3,0v5c0,0,0,0-3,0c0,5,0,5,0,5h3c0,0,0,0,0,5c-90,0-90,0-90,0v-5c0,0,0,0,3,0c0-5,0-5,0-5h-3c0,0,0,0,0-5
			c3,0,3,0,3,0v-5c0,0,0,0,13,0c0-3,0-3,0-3H399.3z"/>
	</g>
	<g id="SPLINE_1_">
		<path class="st0" d="M344.6,318.3v3c0,0,0,0-20,0c0-3,0-3,0-3h-6c0,0,0,0,0,3c-20,0-20,0-20,0v-3c0,0,0,0-6,0c0,3,0,3,0,3h-13
			c0,0,0,0,0,5c-3,0-3,0-3,0v5c0,0,0,0,3,0c0,5,0,5,0,5h-3c0,0,0,0,0,5c90,0,90,0,90,0v-5c0,0,0,0-3,0c0-5,0-5,0-5h3c0,0,0,0,0-5
			c-3,0-3,0-3,0v-5c0,0,0,0-13,0c0-3,0-3,0-3H344.6z"/>
	</g>
	<g id="SPLINE_2_">
		<path class="st0" d="M286.9,269.5h3c0,0,0,0,0,6c-3,0-3,0-3,0V269.5z"/>
	</g>
	<g id="SPLINE_3_">
		<path class="st0" d="M373.9,269.5h3c0,0,0,0,0,6c-3,0-3,0-3,0V269.5z"/>
	</g>
	<g id="SPLINE_4_">
		<path class="st0" d="M364.9,255.5h3c0,0,0,0,0,3c-3,0-3,0-3,0V255.5z"/>
	</g>
	<g id="SPLINE_5_">
		<path class="st0" d="M312.9,255.5h3c0,0,0,0,0,3c-3,0-3,0-3,0V255.5z"/>
	</g>
	<g id="SPLINE_6_">
		<path class="st0" d="M364.9,286.5h3c0,0,0,0,0,3c-3,0-3,0-3,0V286.5z"/>
	</g>
	<g id="SPLINE_7_">
		<path class="st0" d="M312.9,286.5h3c0,0,0,0,0,3c-3,0-3,0-3,0V286.5z"/>
	</g>
	<g id="SPLINE_8_">
		<path class="st0" d="M347.9,255.5h3c0,0,0,0,0,3c-3,0-3,0-3,0V255.5z"/>
	</g>
	<g id="SPLINE_9_">
		<path class="st0" d="M295.9,255.5h3c0,0,0,0,0,3c-3,0-3,0-3,0V255.5z"/>
	</g>
	<g id="SPLINE_10_">
		<path class="st0" d="M347.9,286.5h3c0,0,0,0,0,3c-3,0-3,0-3,0V286.5z"/>
	</g>
	<g id="SPLINE_11_">
		<path class="st0" d="M295.9,286.5h3c0,0,0,0,0,3c-3,0-3,0-3,0V286.5z"/>
	</g>
	<g id="SPLINE_12_">
		<path class="st0" d="M381.9,274v-3c0,0,0,0,5,0c0,3,0,3,0,3H381.9z"/>
	</g>
	<g id="SPLINE_13_">
		<path class="st0" d="M286.9,279.5l-8.4-1.9c0,0-2.2-0.5-3.6-2.5c0-2.2,0-2.2,0-2.2c0-0.6,0-0.6,0-0.6c0-2.2,1.4-4.3,3.6-4.8
			c0,0,0,0,8.4-1.9c0-13,0-13,0-13h16c0,0,0,0,0,3c6,0,6,0,6,0v-3c0,0,0,0,20,0c0,3,0,3,0,3h6c0,0,0,0,0-3c20,0,20,0,20,0v3
			c0,0,0,0,6,0c0-3,0-3,0-3h16c0,0,0,0,0,13c8.4,1.9,8.4,1.9,8.4,1.9c2.2,0.5,3.6,2.5,3.6,4.8c0,0,0,0,0,0.6c0,0,0,0,0,2.2
			c-1.4,2-3.6,2.5-3.6,2.5l-8.4,1.9c0,0,0,0,0,13c-16,0-16,0-16,0v-3c0,0,0,0-6,0c0,3,0,3,0,3h-20c0,0,0,0,0-3c-6,0-6,0-6,0v3
			c0,0,0,0-20,0c0-3,0-3,0-3h-6c0,0,0,0,0,3c-16,0-16,0-16,0V279.5z"/>
	</g>
	<g id="SPLINE_14_">
		<path class="st0" d="M281.9,272.5c0,1.4-1.1,2.5-2.5,2.5c0,0-1.4,0-2.5-1.1c0-1.4,0-1.4,0-2.8c1.1-1.1,2.5-1.1,2.5-1.1
			C280.8,270,281.9,271.1,281.9,272.5z"/>
	</g>
	<g id="SPLINE_15_">
		<polyline class="st0" points="496.4,307.8 496.4,307.8 496.6,307.8 497.1,307.8 498.5,307.8 499.1,307.8 499.3,307.8 499.4,307.8 
			499.4,307.8 499.4,307.6 499.4,307.3 499.4,306.8 499.4,306.2 499.4,305.6 499.4,303.9 499.4,302 499.4,299.9 499.4,297.9 
			499.4,295.9 499.4,294 499.4,293.2 499.4,292.5 499.4,291.9 499.4,291.4 499.4,291.1 499.4,290.9 499.4,290.8 499.6,290.8 
			500,290.8 500.4,290.8 501.6,290.8 502.8,290.8 503.3,290.8 503.8,290.8 504.1,290.8 504.3,290.8 504.4,290.9 504.4,291 
			504.4,291.4 504.4,292.8 504.4,293.5 504.4,293.7 504.4,293.8 504.4,293.8 504.5,293.8 504.8,293.8 505.2,293.8 506.3,293.8 
			507.6,293.8 508.6,293.8 509,293.8 509.3,293.8 509.4,293.8 509.4,293.8 509.4,293.6 509.4,293.4 509.4,292.7 509.4,292 
			509.4,291.3 509.4,290.9 509.4,290.8 509.4,290.8 509.7,290.8 510.1,290.8 511.1,290.8 512.3,290.8 513.5,290.8 513.9,290.8 
			514.2,290.8 514.4,290.8 514.4,290.9 514.4,291 514.4,291.2 514.4,291.8 514.4,292.6 514.4,293.2 514.4,293.7 514.4,293.8 
			514.4,293.8 514.6,293.8 514.9,293.8 515.4,293.8 515.9,293.8 517.1,293.8 518.3,293.8 518.7,293.8 519.1,293.8 519.3,293.8 
			519.4,293.8 519.4,293.9 519.4,294.2 519.4,294.9 519.4,295.8 519.4,297 519.4,298.4 519.4,299.9 519.4,301.6 519.4,303.5 
			519.4,307.5 519.4,311.6 519.4,315.8 519.4,317.7 519.4,319.6 519.4,321.4 519.4,323 519.4,324.4 519.4,325.6 519.4,326.6 
			519.4,327.3 519.4,327.7 519.4,327.8 519.3,327.8 519,327.8 518.6,327.8 518.1,327.8 516.9,327.8 515.7,327.8 515.2,327.8 
			514.8,327.8 514.5,327.8 514.4,327.8 514.4,327.9 514.4,328 514.4,328.6 514.4,329.3 514.4,330 514.4,330.6 514.4,330.8 
			514.4,330.8 514.3,330.8 514.1,330.8 513.7,330.8 513.3,330.8 512.1,330.8 510.9,330.8 510.4,330.8 509.9,330.8 509.6,330.8 
			509.4,330.8 509.4,330.8 509.4,330.7 509.4,330.2 509.4,329.6 509.4,328.8 509.4,328.2 509.4,328 509.4,327.9 509.4,327.8 
			509.2,327.8 508.9,327.8 508.5,327.8 507.3,327.8 506.1,327.8 505.1,327.8 504.7,327.8 504.4,327.8 504.4,327.8 504.4,327.9 
			504.4,328.3 504.4,329 504.4,329.7 504.4,330.4 504.4,330.6 504.4,330.8 504.4,330.8 504.3,330.8 504,330.8 503.6,330.8 
			502.6,330.8 501.3,330.8 500.2,330.8 499.8,330.8 499.5,330.8 499.4,330.8 499.4,330.8 499.4,330.7 499.4,330.3 499.4,329.9 
			499.4,329.3 499.4,328.6 499.4,327 499.4,325.1 499.4,321 499.4,318.9 499.4,317.1 499.4,316.3 499.4,315.6 499.4,315 
			499.4,314.5 499.4,314.1 499.4,313.9 499.3,313.8 499.2,313.8 499,313.8 498.4,313.8 497,313.8 496.5,313.8 496.4,313.8 
			496.4,313.8 496.4,313.7 496.4,313.3 496.4,312.8 496.4,312.2 496.4,309.4 496.4,308.8 496.4,308.3 496.4,308 496.4,307.8 		"/>
	</g>
	<g id="SPLINE_16_">
		<polyline class="st0" points="537.1,309.4 537.1,309.4 537.3,309.4 537.8,309.4 539.2,309.4 539.8,309.4 540,309.4 540.1,309.4 
			540.1,309.3 540.1,309.1 540.1,308.8 540.1,308.3 540.1,307.8 540.1,307.1 540.1,305.4 540.1,303.5 540.1,301.5 540.1,299.4 
			540.1,297.4 540.1,295.6 540.1,294.8 540.1,294.1 540.1,293.4 540.1,293 540.1,292.6 540.1,292.4 540.1,292.4 540.3,292.4 
			540.7,292.4 541.1,292.4 542.3,292.4 543.5,292.4 544,292.4 544.5,292.4 544.8,292.4 545,292.4 545.1,292.4 545.1,292.5 
			545.1,292.9 545.1,294.3 545.1,295 545.1,295.2 545.1,295.3 545.1,295.4 545.2,295.4 545.5,295.4 545.9,295.4 547,295.4 
			548.3,295.4 549.3,295.4 549.7,295.4 550,295.4 550.1,295.4 550.1,295.3 550.1,295.1 550.1,294.9 550.1,294.2 550.1,293.5 
			550.1,292.9 550.1,292.4 550.1,292.4 550.1,292.4 550.4,292.4 550.8,292.4 551.8,292.4 553,292.4 554.1,292.4 554.6,292.4 
			554.9,292.4 555.1,292.4 555.1,292.4 555.1,292.5 555.1,292.7 555.1,293.3 555.1,294.1 555.1,294.8 555.1,295.2 555.1,295.3 
			555.1,295.4 555.3,295.4 555.6,295.4 556.1,295.4 556.6,295.4 557.8,295.4 559,295.4 559.4,295.4 559.8,295.4 560,295.4 
			560.1,295.4 560.1,295.4 560.1,295.8 560.1,296.4 560.1,297.3 560.1,298.5 560.1,299.9 560.1,301.4 560.1,303.2 560.1,305 
			560.1,309 560.1,313.2 560.1,317.3 560.1,319.2 560.1,321.1 560.1,322.9 560.1,324.5 560.1,325.9 560.1,327.1 560.1,328.1 
			560.1,328.8 560.1,329.2 560.1,329.4 559.9,329.4 559.7,329.4 559.3,329.4 558.7,329.4 557.6,329.4 556.4,329.4 555.9,329.4 
			555.5,329.4 555.2,329.4 555.1,329.4 555.1,329.4 555.1,329.6 555.1,330.1 555.1,330.8 555.1,331.5 555.1,332.1 555.1,332.3 
			555.1,332.4 555,332.4 554.8,332.4 554.4,332.4 554,332.4 552.8,332.4 551.6,332.4 551.1,332.4 550.6,332.4 550.3,332.4 
			550.1,332.4 550.1,332.3 550.1,332.2 550.1,331.8 550.1,331.1 550.1,330.3 550.1,329.7 550.1,329.5 550.1,329.4 550.1,329.4 
			549.9,329.4 549.6,329.4 549.1,329.4 548,329.4 546.8,329.4 545.8,329.4 545.4,329.4 545.1,329.4 545.1,329.4 545.1,329.4 
			545.1,329.9 545.1,330.5 545.1,331.2 545.1,331.9 545.1,332.1 545.1,332.3 545.1,332.4 545,332.4 544.7,332.4 544.3,332.4 
			543.3,332.4 542,332.4 540.9,332.4 540.5,332.4 540.2,332.4 540.1,332.4 540.1,332.3 540.1,332.2 540.1,331.8 540.1,331.4 
			540.1,330.8 540.1,330.1 540.1,328.5 540.1,326.6 540.1,322.5 540.1,320.5 540.1,318.6 540.1,317.8 540.1,317.1 540.1,316.5 
			540.1,316 540.1,315.6 540.1,315.4 540,315.4 539.9,315.4 539.7,315.4 539.1,315.4 537.7,315.4 537.2,315.4 537.1,315.4 
			537.1,315.4 537.1,315.2 537.1,314.8 537.1,314.3 537.1,313.7 537.1,310.9 537.1,310.3 537.1,309.8 537.1,309.5 537.1,309.4 		"/>
	</g>
	<g id="SPLINE_17_">
		<path class="st0" d="M434.6,254.6c0.7-1.9,2.5-3.2,4.7-3.2c0,0,2.1,0,3.9,1.3c0.7,1.9,0.7,1.9,0.7,1.9c0,0,5.3,19.1,5.3,19.1
			s0,0,0,3c-3,0-3,0-3,0v-3c0,0,0,0-14,0c0,3,0,3,0,3h-3c0,0,0,0,0-3C434.6,254.6,434.6,254.6,434.6,254.6z"/>
	</g>
	<g id="SPLINE_18_">
		<path class="st0" d="M439.3,260.4c-2,0-3.7-1.7-3.7-3.7c0,0,0-2,1.7-3.7c2,0,2,0,4.1,0c1.7,1.7,1.7,3.7,1.7,3.7
			C443,258.7,441.3,260.4,439.3,260.4z"/>
	</g>
	<g id="SPLINE_19_">
		<path class="st0" d="M493.3,254.6c0.7-1.9,2.5-3.2,4.7-3.2c0,0,2.1,0,3.9,1.3c0.7,1.9,0.7,1.9,0.7,1.9c0,0,5.3,19.1,5.3,19.1
			s0,0,0,3c-3,0-3,0-3,0v-3c0,0,0,0-14,0c0,3,0,3,0,3h-3c0,0,0,0,0-3C493.3,254.6,493.3,254.6,493.3,254.6z"/>
	</g>
	<g id="SPLINE_20_">
		<path class="st0" d="M497.9,260.4c-2,0-3.7-1.7-3.7-3.7c0,0,0-2,1.7-3.7c2,0,2,0,4.1,0c1.7,1.7,1.7,3.7,1.7,3.7
			C501.6,258.7,500,260.4,497.9,260.4z"/>
	</g>
	<g id="SPLINE_21_">
		<path class="st0" d="M405.3,254.6c0.7-1.9,2.5-3.2,4.7-3.2c0,0,2.1,0,3.9,1.3c0.7,1.9,0.7,1.9,0.7,1.9c0,0,5.3,19.1,5.3,19.1
			s0,0,0,3c-3,0-3,0-3,0v-3c0,0,0,0-14,0c0,3,0,3,0,3h-3c0,0,0,0,0-3C405.3,254.6,405.3,254.6,405.3,254.6z"/>
	</g>
	<g id="SPLINE_22_">
		<path class="st0" d="M409.9,260.4c-2,0-3.7-1.7-3.7-3.7c0,0,0-2,1.7-3.7c2,0,2,0,4.1,0c1.7,1.7,1.7,3.7,1.7,3.7
			C413.6,258.7,412,260.4,409.9,260.4z"/>
	</g>
	<g id="SPLINE_23_">
		<path class="st0" d="M463.9,254.6c0.7-1.9,2.5-3.2,4.7-3.2c0,0,2.1,0,3.9,1.3c0.7,1.9,0.7,1.9,0.7,1.9c0,0,5.3,19.1,5.3,19.1
			s0,0,0,3c-3,0-3,0-3,0v-3c0,0,0,0-14,0c0,3,0,3,0,3h-3c0,0,0,0,0-3C463.9,254.6,463.9,254.6,463.9,254.6z"/>
	</g>
	<g id="SPLINE_24_">
		<path class="st0" d="M468.6,260.4c-2,0-3.7-1.7-3.7-3.7c0,0,0-2,1.7-3.7c2,0,2,0,4.1,0c1.7,1.7,1.7,3.7,1.7,3.7
			C472.3,258.7,470.6,260.4,468.6,260.4z"/>
	</g>
	<g id="SPLINE_25_">
		<path class="st0" d="M429.3,273.7c-0.7,1.9-2.5,3.2-4.7,3.2c0,0-2.1,0-3.9-1.3c-0.7-1.9-0.7-1.9-0.7-1.9c0,0-5.3-19.1-5.3-19.1
			s0,0,0-3c3,0,3,0,3,0v3c0,0,0,0,14,0c0-3,0-3,0-3h3c0,0,0,0,0,3C429.3,273.7,429.3,273.7,429.3,273.7z"/>
	</g>
	<g id="SPLINE_26_">
		<path class="st0" d="M424.6,267.9c2,0,3.7,1.7,3.7,3.7c0,0,0,2-1.7,3.7c-2,0-2,0-4.1,0c-1.7-1.7-1.7-3.7-1.7-3.7
			C420.9,269.5,422.6,267.9,424.6,267.9z"/>
	</g>
	<g id="SPLINE_27_">
		<path class="st0" d="M487.9,273.7c-0.7,1.9-2.5,3.2-4.7,3.2c0,0-2.1,0-3.9-1.3c-0.7-1.9-0.7-1.9-0.7-1.9c0,0-5.3-19.1-5.3-19.1
			s0,0,0-3c3,0,3,0,3,0v3c0,0,0,0,14,0c0-3,0-3,0-3h3c0,0,0,0,0,3C487.9,273.7,487.9,273.7,487.9,273.7z"/>
	</g>
	<g id="SPLINE_28_">
		<path class="st0" d="M483.3,267.9c2,0,3.7,1.7,3.7,3.7c0,0,0,2-1.7,3.7c-2,0-2,0-4.1,0c-1.7-1.7-1.7-3.7-1.7-3.7
			C479.6,269.5,481.2,267.9,483.3,267.9z"/>
	</g>
	<g id="SPLINE_29_">
		<path class="st0" d="M399.9,273.7c-0.7,1.9-2.5,3.2-4.7,3.2c0,0-2.1,0-3.9-1.3c-0.7-1.9-0.7-1.9-0.7-1.9c0,0-5.3-19.1-5.3-19.1
			s0,0,0-3c3,0,3,0,3,0v3c0,0,0,0,14,0c0-3,0-3,0-3h3c0,0,0,0,0,3C399.9,273.7,399.9,273.7,399.9,273.7z"/>
	</g>
	<g id="SPLINE_30_">
		<path class="st0" d="M395.3,267.9c2,0,3.7,1.7,3.7,3.7c0,0,0,2-1.7,3.7c-2,0-2,0-4.1,0c-1.7-1.7-1.7-3.7-1.7-3.7
			C391.6,269.5,393.2,267.9,395.3,267.9z"/>
	</g>
	<g id="SPLINE_31_">
		<path class="st0" d="M458.6,273.7c-0.7,1.9-2.5,3.2-4.7,3.2c0,0-2.1,0-3.9-1.3c-0.7-1.9-0.7-1.9-0.7-1.9c0,0-5.3-19.1-5.3-19.1
			s0,0,0-3c3,0,3,0,3,0v3c0,0,0,0,14,0c0-3,0-3,0-3h3c0,0,0,0,0,3C458.6,273.7,458.6,273.7,458.6,273.7z"/>
	</g>
	<g id="SPLINE_32_">
		<path class="st0" d="M453.9,267.9c2,0,3.7,1.7,3.7,3.7c0,0,0,2-1.7,3.7c-2,0-2,0-4.1,0c-1.7-1.7-1.7-3.7-1.7-3.7
			C450.2,269.5,451.9,267.9,453.9,267.9z"/>
	</g>
	<g id="SPLINE_33_">
		<path class="st0" d="M472.3,320.9c0-1.4,1.1-2.5,2.5-2.5c0,0,1.4,0,2.5,1.1c0,1.4,0,1.4,0,2.8c-1.1,1.1-2.5,1.1-2.5,1.1
			C473.4,323.4,472.3,322.3,472.3,320.9z"/>
	</g>
	<g id="SPLINE_34_">
		<path class="st0" d="M467.3,313.9l8.4,1.9c0,0,2.2,0.5,3.6,2.5c0,2.2,0,2.2,0,2.2c0,0.6,0,0.6,0,0.6c0,2.2-1.4,4.3-3.6,4.8
			c0,0,0,0-8.4,1.9c0,13,0,13,0,13h-90c0,0,0,0,0-13c-8.4-1.9-8.4-1.9-8.4-1.9c-2.2-0.5-3.6-2.5-3.6-4.8c0,0,0,0,0-0.6
			c0,0,0,0,0-2.2c1.4-2,3.6-2.5,3.6-2.5l8.4-1.9c0,0,0,0,0-13c90,0,90,0,90,0V313.9z"/>
	</g>
	<g id="SPLINE_35_">
		<path class="st0" d="M372.3,319.4v3c0,0,0,0-5,0c0-3,0-3,0-3H372.3z"/>
	</g>
	<g id="SPLINE_36_">
		<path class="st0" d="M458.3,306.9h-3c0,0,0,0,0-3c3,0,3,0,3,0V306.9z"/>
	</g>
	<g id="SPLINE_37_">
		<path class="st0" d="M406.3,306.9h-3c0,0,0,0,0-3c3,0,3,0,3,0V306.9z"/>
	</g>
	<g id="SPLINE_38_">
		<path class="st0" d="M458.3,337.9h-3c0,0,0,0,0-3c3,0,3,0,3,0V337.9z"/>
	</g>
	<g id="SPLINE_39_">
		<path class="st0" d="M406.3,337.9h-3c0,0,0,0,0-3c3,0,3,0,3,0V337.9z"/>
	</g>
	<g id="SPLINE_40_">
		<path class="st0" d="M441.3,306.9h-3c0,0,0,0,0-3c3,0,3,0,3,0V306.9z"/>
	</g>
	<g id="SPLINE_41_">
		<path class="st0" d="M389.3,306.9h-3c0,0,0,0,0-3c3,0,3,0,3,0V306.9z"/>
	</g>
	<g id="SPLINE_42_">
		<path class="st0" d="M441.3,337.9h-3c0,0,0,0,0-3c3,0,3,0,3,0V337.9z"/>
	</g>
	<g id="SPLINE_43_">
		<path class="st0" d="M389.3,337.9h-3c0,0,0,0,0-3c3,0,3,0,3,0V337.9z"/>
	</g>
	<g id="SPLINE_44_">
		<path class="st0" d="M386.3,333.4v-5c0,0,0,0,3,0c0,5,0,5,0,5H386.3z"/>
	</g>
	<g id="SPLINE_45_">
		<path class="st0" d="M386.3,313.4v-5c0,0,0,0,3,0c0,5,0,5,0,5H386.3z"/>
	</g>
	<g id="SPLINE_46_">
		<path class="st0" d="M403.3,333.4v-5c0,0,0,0,3,0c0,5,0,5,0,5H403.3z"/>
	</g>
	<g id="SPLINE_47_">
		<path class="st0" d="M403.3,313.4v-5c0,0,0,0,3,0c0,5,0,5,0,5H403.3z"/>
	</g>
	<g id="SPLINE_48_">
		<path class="st0" d="M438.3,333.4v-5c0,0,0,0,3,0c0,5,0,5,0,5H438.3z"/>
	</g>
	<g id="SPLINE_49_">
		<path class="st0" d="M438.3,313.4v-5c0,0,0,0,3,0c0,5,0,5,0,5H438.3z"/>
	</g>
	<g id="SPLINE_50_">
		<path class="st0" d="M455.3,333.4v-5c0,0,0,0,3,0c0,5,0,5,0,5H455.3z"/>
	</g>
	<g id="SPLINE_51_">
		<path class="st0" d="M455.3,313.4v-5c0,0,0,0,3,0c0,5,0,5,0,5H455.3z"/>
	</g>
	<g id="SPLINE_52_">
		<path class="st0" d="M529.9,312h-5c0,0,0,0,0-19.6c-7.4-7.4-7.4-7.4-7.4-7.4h-15.2c0,0,0,0-7.4,7.4c0,19.6,0,19.6,0,19.6h-5
			c0,0,0,0,0-27c3-3,3-3,3-3h2c0,0,0,0,2.5,0c0-3,0-3,0-3h5c0,0,0,0,0,3c15,0,15,0,15,0v-3c0,0,0,0,5,0c0,3,0,3,0,3h2.5c0,0,0,0,2,0
			c3,3,3,3,3,3V312z"/>
	</g>
	<g id="SPLINE_53_">
		<polyline class="st0" points="499.5,285 499.5,285 499.4,285 499.4,285 499.3,285 499.2,285 499.1,285 498.9,285 498.8,285 
			498.6,285 498.4,285 498,285 497.6,285 497.2,285 496.8,285 496.4,285 496,285 495.8,285 495.6,285 495.5,285 495.3,285 
			495.2,285 495.1,285 495,285 495,285 494.9,285 494.9,285 494.9,285 494.9,285.1 494.9,285.1 494.9,285.2 494.9,285.3 
			494.9,285.4 494.9,285.6 494.9,285.7 494.9,285.9 494.9,286.1 494.9,286.5 494.9,286.9 494.9,287.3 494.9,287.7 494.9,288.2 
			494.9,288.5 494.9,288.7 494.9,288.9 494.9,289 494.9,289.2 494.9,289.3 494.9,289.4 494.9,289.5 494.9,289.6 494.9,289.6 
			494.9,289.6 494.9,289.6 494.9,289.6 495,289.6 495,289.5 495.1,289.4 495.2,289.3 495.3,289.2 495.5,289 495.6,288.9 
			495.8,288.7 496,288.5 496.2,288.4 496.4,288.2 496.8,287.7 497.2,287.3 497.6,286.9 498,286.5 498.2,286.3 498.4,286.1 
			498.6,285.9 498.8,285.7 498.9,285.6 499.1,285.4 499.2,285.3 499.3,285.2 499.4,285.1 499.4,285.1 499.5,285 499.5,285 
			499.5,285 		"/>
	</g>
	<g id="SPLINE_54_">
		<polyline class="st0" points="524.9,289.6 524.9,289.6 524.9,289.6 524.9,289.5 524.9,289.4 524.9,289.3 524.9,289.2 524.9,289 
			524.9,288.9 524.9,288.7 524.9,288.5 524.9,288.2 524.9,287.7 524.9,287.3 524.9,286.9 524.9,286.5 524.9,286.1 524.9,285.9 
			524.9,285.7 524.9,285.6 524.9,285.4 524.9,285.3 524.9,285.2 524.9,285.1 524.9,285.1 524.9,285 524.9,285 524.9,285 524.9,285 
			524.8,285 524.7,285 524.6,285 524.5,285 524.3,285 524.2,285 524,285 523.8,285 523.5,285 523,285 522.6,285 522.2,285 
			521.8,285 521.4,285 521.2,285 521,285 520.9,285 520.7,285 520.6,285 520.5,285 520.4,285 520.4,285 520.3,285 520.3,285 
			520.3,285 520.3,285 520.4,285.1 520.4,285.1 520.5,285.2 520.6,285.3 520.7,285.4 520.9,285.6 521,285.7 521.2,285.9 
			521.4,286.1 521.6,286.3 521.8,286.5 522.2,286.9 522.6,287.3 523,287.7 523.5,288.2 523.7,288.4 523.8,288.5 524,288.7 
			524.2,288.9 524.3,289 524.5,289.2 524.6,289.3 524.7,289.4 524.8,289.5 524.9,289.6 524.9,289.6 524.9,289.6 524.9,289.6 		"/>
	</g>
	<g id="SPLINE_55_">
		<path class="st0" d="M569.9,312h-5c0,0,0,0,0-19.6c-7.4-7.4-7.4-7.4-7.4-7.4h-15.2c0,0,0,0-7.4,7.4c0,19.6,0,19.6,0,19.6h-5
			c0,0,0,0,0-27c3-3,3-3,3-3h2c0,0,0,0,2.5,0c0-3,0-3,0-3h5c0,0,0,0,0,3c15,0,15,0,15,0v-3c0,0,0,0,5,0c0,3,0,3,0,3h2.5c0,0,0,0,2,0
			c3,3,3,3,3,3V312z"/>
	</g>
	<g id="SPLINE_56_">
		<polyline class="st0" points="539.5,285 539.5,285 539.4,285 539.4,285 539.3,285 539.2,285 539.1,285 538.9,285 538.8,285 
			538.6,285 538.4,285 538,285 537.6,285 537.2,285 536.8,285 536.4,285 536,285 535.8,285 535.6,285 535.5,285 535.3,285 
			535.2,285 535.1,285 535,285 535,285 534.9,285 534.9,285 534.9,285 534.9,285.1 534.9,285.1 534.9,285.2 534.9,285.3 
			534.9,285.4 534.9,285.6 534.9,285.7 534.9,285.9 534.9,286.1 534.9,286.5 534.9,286.9 534.9,287.3 534.9,287.7 534.9,288.2 
			534.9,288.5 534.9,288.7 534.9,288.9 534.9,289 534.9,289.2 534.9,289.3 534.9,289.4 534.9,289.5 534.9,289.6 534.9,289.6 
			534.9,289.6 534.9,289.6 534.9,289.6 535,289.6 535,289.5 535.1,289.4 535.2,289.3 535.3,289.2 535.5,289 535.6,288.9 
			535.8,288.7 536,288.5 536.2,288.4 536.4,288.2 536.8,287.7 537.2,287.3 537.6,286.9 538,286.5 538.2,286.3 538.4,286.1 
			538.6,285.9 538.8,285.7 538.9,285.6 539.1,285.4 539.2,285.3 539.3,285.2 539.4,285.1 539.4,285.1 539.5,285 539.5,285 
			539.5,285 		"/>
	</g>
	<g id="SPLINE_57_">
		<polyline class="st0" points="564.9,289.6 564.9,289.6 564.9,289.6 564.9,289.5 564.9,289.4 564.9,289.3 564.9,289.2 564.9,289 
			564.9,288.9 564.9,288.7 564.9,288.5 564.9,288.2 564.9,287.7 564.9,287.3 564.9,286.9 564.9,286.5 564.9,286.1 564.9,285.9 
			564.9,285.7 564.9,285.6 564.9,285.4 564.9,285.3 564.9,285.2 564.9,285.1 564.9,285.1 564.9,285 564.9,285 564.9,285 564.9,285 
			564.8,285 564.7,285 564.6,285 564.5,285 564.3,285 564.2,285 564,285 563.8,285 563.5,285 563,285 562.6,285 562.2,285 
			561.8,285 561.4,285 561.2,285 561,285 560.9,285 560.7,285 560.6,285 560.5,285 560.4,285 560.4,285 560.3,285 560.3,285 
			560.3,285 560.3,285 560.4,285.1 560.4,285.1 560.5,285.2 560.6,285.3 560.7,285.4 560.9,285.6 561,285.7 561.2,285.9 
			561.4,286.1 561.6,286.3 561.8,286.5 562.2,286.9 562.6,287.3 563,287.7 563.5,288.2 563.7,288.4 563.8,288.5 564,288.7 
			564.2,288.9 564.3,289 564.5,289.2 564.6,289.3 564.7,289.4 564.8,289.5 564.9,289.6 564.9,289.6 564.9,289.6 564.9,289.6 		"/>
	</g>
	<g id="SPLINE_58_">
		<path class="st0" d="M489.9,312h5c0,0,0,0,0,19.6c7.4,7.4,7.4,7.4,7.4,7.4h15.2c0,0,0,0,7.4-7.4c0-19.6,0-19.6,0-19.6h5
			c0,0,0,0,0,27c-3,3-3,3-3,3h-2c0,0,0,0-2.5,0c0,3,0,3,0,3h-5c0,0,0,0,0-3c-15,0-15,0-15,0v3c0,0,0,0-5,0c0-3,0-3,0-3h-2.5
			c0,0,0,0-2,0c-3-3-3-3-3-3V312z"/>
	</g>
	<g id="SPLINE_59_">
		<polyline class="st0" points="520.3,339 520.3,339 520.4,339 520.4,339 520.5,339 520.6,339 520.7,339 520.9,339 521,339 
			521.2,339 521.4,339 521.8,339 522.2,339 522.6,339 523,339 523.5,339 523.8,339 524,339 524.2,339 524.3,339 524.5,339 
			524.6,339 524.7,339 524.8,339 524.9,339 524.9,339 524.9,339 524.9,339 524.9,339 524.9,338.9 524.9,338.8 524.9,338.7 
			524.9,338.6 524.9,338.5 524.9,338.3 524.9,338.1 524.9,338 524.9,337.6 524.9,337.2 524.9,336.7 524.9,336.3 524.9,335.9 
			524.9,335.5 524.9,335.3 524.9,335.1 524.9,335 524.9,334.9 524.9,334.7 524.9,334.6 524.9,334.5 524.9,334.5 524.9,334.4 
			524.9,334.4 524.9,334.4 524.9,334.4 524.9,334.5 524.8,334.5 524.7,334.6 524.6,334.7 524.5,334.9 524.3,335 524.2,335.1 
			524,335.3 523.8,335.5 523.7,335.7 523.5,335.9 523,336.3 522.6,336.7 522.2,337.2 521.8,337.6 521.6,337.8 521.4,338 
			521.2,338.1 521,338.3 520.9,338.5 520.7,338.6 520.6,338.7 520.5,338.8 520.4,338.9 520.4,339 520.3,339 520.3,339 520.3,339 		
			"/>
	</g>
	<g id="SPLINE_60_">
		<polyline class="st0" points="494.9,334.4 494.9,334.4 494.9,334.5 494.9,334.5 494.9,334.6 494.9,334.7 494.9,334.9 494.9,335 
			494.9,335.1 494.9,335.3 494.9,335.5 494.9,335.9 494.9,336.3 494.9,336.7 494.9,337.2 494.9,337.6 494.9,338 494.9,338.1 
			494.9,338.3 494.9,338.5 494.9,338.6 494.9,338.7 494.9,338.8 494.9,338.9 494.9,339 494.9,339 494.9,339 494.9,339 495,339 
			495,339 495.1,339 495.2,339 495.3,339 495.5,339 495.6,339 495.8,339 496,339 496.4,339 496.8,339 497.2,339 497.6,339 498,339 
			498.4,339 498.6,339 498.8,339 498.9,339 499.1,339 499.2,339 499.3,339 499.4,339 499.4,339 499.5,339 499.5,339 499.5,339 
			499.5,339 499.4,339 499.4,338.9 499.3,338.8 499.2,338.7 499.1,338.6 498.9,338.5 498.8,338.3 498.6,338.1 498.4,338 
			498.2,337.8 498,337.6 497.6,337.2 497.2,336.7 496.8,336.3 496.4,335.9 496.2,335.7 496,335.5 495.8,335.3 495.6,335.1 
			495.5,335 495.3,334.9 495.2,334.7 495.1,334.6 495,334.5 495,334.5 494.9,334.4 494.9,334.4 494.9,334.4 		"/>
	</g>
	<g id="SPLINE_61_">
		<path class="st0" d="M529.9,312h5c0,0,0,0,0,19.6c7.4,7.4,7.4,7.4,7.4,7.4h15.2c0,0,0,0,7.4-7.4c0-19.6,0-19.6,0-19.6h5
			c0,0,0,0,0,27c-3,3-3,3-3,3h-2c0,0,0,0-2.5,0c0,3,0,3,0,3h-5c0,0,0,0,0-3c-15,0-15,0-15,0v3c0,0,0,0-5,0c0-3,0-3,0-3h-2.5
			c0,0,0,0-2,0c-3-3-3-3-3-3V312z"/>
	</g>
	<g id="SPLINE_62_">
		<polyline class="st0" points="560.3,339 560.3,339 560.4,339 560.4,339 560.5,339 560.6,339 560.7,339 560.9,339 561,339 
			561.2,339 561.4,339 561.8,339 562.2,339 562.6,339 563,339 563.5,339 563.8,339 564,339 564.2,339 564.3,339 564.5,339 
			564.6,339 564.7,339 564.8,339 564.9,339 564.9,339 564.9,339 564.9,339 564.9,339 564.9,338.9 564.9,338.8 564.9,338.7 
			564.9,338.6 564.9,338.5 564.9,338.3 564.9,338.1 564.9,338 564.9,337.6 564.9,337.2 564.9,336.7 564.9,336.3 564.9,335.9 
			564.9,335.5 564.9,335.3 564.9,335.1 564.9,335 564.9,334.9 564.9,334.7 564.9,334.6 564.9,334.5 564.9,334.5 564.9,334.4 
			564.9,334.4 564.9,334.4 564.9,334.4 564.9,334.5 564.8,334.5 564.7,334.6 564.6,334.7 564.5,334.9 564.3,335 564.2,335.1 
			564,335.3 563.8,335.5 563.7,335.7 563.5,335.9 563,336.3 562.6,336.7 562.2,337.2 561.8,337.6 561.6,337.8 561.4,338 
			561.2,338.1 561,338.3 560.9,338.5 560.7,338.6 560.6,338.7 560.5,338.8 560.4,338.9 560.4,339 560.3,339 560.3,339 560.3,339 		
			"/>
	</g>
	<g id="SPLINE_63_">
		<polyline class="st0" points="534.9,334.4 534.9,334.4 534.9,334.5 534.9,334.5 534.9,334.6 534.9,334.7 534.9,334.9 534.9,335 
			534.9,335.1 534.9,335.3 534.9,335.5 534.9,335.9 534.9,336.3 534.9,336.7 534.9,337.2 534.9,337.6 534.9,338 534.9,338.1 
			534.9,338.3 534.9,338.5 534.9,338.6 534.9,338.7 534.9,338.8 534.9,338.9 534.9,339 534.9,339 534.9,339 534.9,339 535,339 
			535,339 535.1,339 535.2,339 535.3,339 535.5,339 535.6,339 535.8,339 536,339 536.4,339 536.8,339 537.2,339 537.6,339 538,339 
			538.4,339 538.6,339 538.8,339 538.9,339 539.1,339 539.2,339 539.3,339 539.4,339 539.4,339 539.5,339 539.5,339 539.5,339 
			539.5,339 539.4,339 539.4,338.9 539.3,338.8 539.2,338.7 539.1,338.6 538.9,338.5 538.8,338.3 538.6,338.1 538.4,338 
			538.2,337.8 538,337.6 537.6,337.2 537.2,336.7 536.8,336.3 536.4,335.9 536.2,335.7 536,335.5 535.8,335.3 535.6,335.1 
			535.5,335 535.3,334.9 535.2,334.7 535.1,334.6 535,334.5 535,334.5 534.9,334.4 534.9,334.4 534.9,334.4 		"/>
	</g>
	<g id="LWPOLYLINE">
		<rect x="393.8" y="259.6" class="st0" width="3" height="3"/>
	</g>
	<g id="LWPOLYLINE_1_">
		<rect x="423.1" y="259.6" class="st0" width="3" height="3"/>
	</g>
	<g id="LWPOLYLINE_2_">
		<rect x="452.4" y="259.6" class="st0" width="3" height="3"/>
	</g>
	<g id="LWPOLYLINE_3_">
		<rect x="481.8" y="259.6" class="st0" width="3" height="3"/>
	</g>
	<g id="LWPOLYLINE_4_">
		<rect x="496.4" y="265.7" class="st0" width="3" height="3"/>
	</g>
	<g id="LWPOLYLINE_5_">
		<rect x="467.1" y="265.7" class="st0" width="3" height="3"/>
	</g>
	<g id="LWPOLYLINE_6_">
		<rect x="437.8" y="265.7" class="st0" width="3" height="3"/>
	</g>
	<g id="LWPOLYLINE_7_">
		<rect x="408.4" y="265.7" class="st0" width="3" height="3"/>
	</g>
	<g id="ELLIPSE">
		<path class="st0" d="M355.8,295.2c-5.5,0-10,4.5-10,10s4.5,10,10,10c5.5,0,10-4.5,10-10S361.3,295.2,355.8,295.2L355.8,295.2z"/>
	</g>
	<g id="ELLIPSE_1_">
		<path class="st0" d="M313.8,295.2c-5.5,0-10,4.5-10,10s4.5,10,10,10c5.5,0,10-4.5,10-10S319.3,295.2,313.8,295.2L313.8,295.2z"/>
	</g>
	<g id="ELLIPSE_2_">
		<path class="st0" d="M334.8,295.2c-5.5,0-10,4.5-10,10s4.5,10,10,10c5.5,0,10-4.5,10-10S340.3,295.2,334.8,295.2L334.8,295.2z"/>
	</g>
	<g id="ELLIPSE_3_">
		<path class="st0" d="M292.8,295.2c-5.5,0-10,4.5-10,10s4.5,10,10,10c5.5,0,10-4.5,10-10S298.3,295.2,292.8,295.2L292.8,295.2z"/>
	</g>
	<g id="ELLIPSE_4_">
		<path class="st0" d="M557,253.7c-5.5,0-10,4.5-10,10c0,5.5,4.5,10,10,10s10-4.5,10-10C567,258.2,562.6,253.7,557,253.7L557,253.7z
			"/>
	</g>
	<g id="ELLIPSE_5_">
		<path class="st0" d="M516.4,252.6c-5.5,0-10,4.5-10,10c0,5.5,4.5,10,10,10c5.5,0,10-4.5,10-10C526.4,257,521.9,252.6,516.4,252.6
			L516.4,252.6z"/>
	</g>
	<g id="ELLIPSE_6_">
		<path class="st0" d="M479,282.2c-5.5,0-10,4.5-10,10c0,5.5,4.5,10,10,10c5.5,0,10-4.5,10-10C489,286.7,484.5,282.2,479,282.2
			L479,282.2z"/>
	</g>
	<g id="ELLIPSE_7_">
		<path class="st0" d="M536.8,258.2c-5.5,0-10,4.5-10,10c0,5.5,4.5,10,10,10c5.5,0,10-4.5,10-10
			C546.8,262.7,542.4,258.2,536.8,258.2L536.8,258.2z"/>
	</g>
	<g id="SPLINE_64_">
		<polyline class="st0" points="354.3,302.7 354.3,302.7 354.3,302.7 354.4,302.7 354.5,302.7 354.6,302.7 354.8,302.7 354.9,302.7 
			355.1,302.7 355.4,302.7 356.3,302.7 356.5,302.7 356.7,302.7 356.8,302.7 357,302.7 357.1,302.7 357.2,302.7 357.2,302.7 
			357.3,302.7 357.3,302.7 357.3,302.8 357.3,302.8 357.3,302.8 357.3,302.9 357.3,303 357.3,303.1 357.3,303.4 357.3,303.6 
			357.3,303.7 357.3,303.7 357.3,303.7 357.3,303.7 357.3,303.7 357.3,303.7 357.3,303.7 357.4,303.7 357.5,303.7 357.7,303.7 
			358,303.7 358.1,303.7 358.2,303.7 358.2,303.7 358.3,303.7 358.3,303.7 358.3,303.7 358.3,303.8 358.3,303.8 358.3,303.9 
			358.3,304.1 358.3,304.2 358.3,304.4 358.3,304.6 358.3,305 358.3,305.5 358.3,305.9 358.3,306.1 358.3,306.3 358.3,306.5 
			358.3,306.6 358.3,306.7 358.3,306.7 358.3,306.7 358.3,306.7 358.3,306.7 358.3,306.7 358.2,306.7 358.2,306.7 358.1,306.7 
			358,306.7 357.8,306.7 357.5,306.7 357.4,306.7 357.4,306.7 357.3,306.7 357.3,306.7 357.3,306.7 357.3,306.7 357.3,306.8 
			357.3,306.8 357.3,306.8 357.3,306.9 357.3,307.1 357.3,307.2 357.3,307.4 357.3,307.5 357.3,307.6 357.3,307.7 357.3,307.7 
			357.3,307.7 357.3,307.7 357.3,307.7 357.3,307.7 357.2,307.7 357.2,307.7 357.1,307.7 357,307.7 356.8,307.7 356.6,307.7 
			356.4,307.7 356.2,307.7 355.8,307.7 355.3,307.7 355.1,307.7 354.9,307.7 354.7,307.7 354.6,307.7 354.4,307.7 354.3,307.7 
			354.3,307.7 354.3,307.7 354.3,307.7 354.3,307.7 354.3,307.7 354.3,307.7 354.3,307.7 354.3,307.6 354.3,307.5 354.3,307.4 
			354.3,307.2 354.3,307.1 354.3,306.9 354.3,306.8 354.3,306.8 354.3,306.8 354.3,306.7 354.3,306.7 354.3,306.7 354.2,306.7 
			354.2,306.7 354.1,306.7 354,306.7 353.7,306.7 353.6,306.7 353.4,306.7 353.3,306.7 353.3,306.7 353.3,306.7 353.3,306.7 
			353.3,306.7 353.3,306.7 353.3,306.7 353.3,306.7 353.3,306.6 353.3,306.5 353.3,306.3 353.3,306.1 353.3,305.9 353.3,305.5 
			353.3,305 353.3,304.6 353.3,304.4 353.3,304.2 353.3,304.1 353.3,303.9 353.3,303.8 353.3,303.8 353.3,303.7 353.3,303.7 
			353.3,303.7 353.3,303.7 353.3,303.7 353.4,303.7 353.6,303.7 353.9,303.7 354,303.7 354.1,303.7 354.2,303.7 354.3,303.7 
			354.3,303.7 354.3,303.7 354.3,303.7 354.3,303.7 354.3,303.6 354.3,303.5 354.3,303.4 354.3,303.1 354.3,303 354.3,302.8 
			354.3,302.8 354.3,302.8 354.3,302.7 354.3,302.7 		"/>
	</g>
	<g id="SPLINE_65_">
		<polyline class="st0" points="312.3,302.7 312.3,302.7 312.3,302.7 312.4,302.7 312.5,302.7 312.6,302.7 312.8,302.7 312.9,302.7 
			313.1,302.7 313.4,302.7 314.3,302.7 314.5,302.7 314.7,302.7 314.8,302.7 315,302.7 315.1,302.7 315.2,302.7 315.2,302.7 
			315.3,302.7 315.3,302.7 315.3,302.8 315.3,302.8 315.3,302.8 315.3,302.9 315.3,303 315.3,303.1 315.3,303.4 315.3,303.6 
			315.3,303.7 315.3,303.7 315.3,303.7 315.3,303.7 315.3,303.7 315.3,303.7 315.3,303.7 315.4,303.7 315.5,303.7 315.7,303.7 
			316,303.7 316.1,303.7 316.2,303.7 316.2,303.7 316.3,303.7 316.3,303.7 316.3,303.7 316.3,303.8 316.3,303.8 316.3,303.9 
			316.3,304.1 316.3,304.2 316.3,304.4 316.3,304.6 316.3,305 316.3,305.5 316.3,305.9 316.3,306.1 316.3,306.3 316.3,306.5 
			316.3,306.6 316.3,306.7 316.3,306.7 316.3,306.7 316.3,306.7 316.3,306.7 316.3,306.7 316.2,306.7 316.2,306.7 316.1,306.7 
			316,306.7 315.8,306.7 315.5,306.7 315.4,306.7 315.4,306.7 315.3,306.7 315.3,306.7 315.3,306.7 315.3,306.7 315.3,306.8 
			315.3,306.8 315.3,306.8 315.3,306.9 315.3,307.1 315.3,307.2 315.3,307.4 315.3,307.5 315.3,307.6 315.3,307.7 315.3,307.7 
			315.3,307.7 315.3,307.7 315.3,307.7 315.3,307.7 315.2,307.7 315.2,307.7 315.1,307.7 315,307.7 314.8,307.7 314.6,307.7 
			314.4,307.7 314.2,307.7 313.8,307.7 313.3,307.7 313.1,307.7 312.9,307.7 312.7,307.7 312.6,307.7 312.4,307.7 312.3,307.7 
			312.3,307.7 312.3,307.7 312.3,307.7 312.3,307.7 312.3,307.7 312.3,307.7 312.3,307.7 312.3,307.6 312.3,307.5 312.3,307.4 
			312.3,307.2 312.3,307.1 312.3,306.9 312.3,306.8 312.3,306.8 312.3,306.8 312.3,306.7 312.3,306.7 312.3,306.7 312.2,306.7 
			312.2,306.7 312.1,306.7 312,306.7 311.7,306.7 311.6,306.7 311.4,306.7 311.3,306.7 311.3,306.7 311.3,306.7 311.3,306.7 
			311.3,306.7 311.3,306.7 311.3,306.7 311.3,306.7 311.3,306.6 311.3,306.5 311.3,306.3 311.3,306.1 311.3,305.9 311.3,305.5 
			311.3,305 311.3,304.6 311.3,304.4 311.3,304.2 311.3,304.1 311.3,303.9 311.3,303.8 311.3,303.8 311.3,303.7 311.3,303.7 
			311.3,303.7 311.3,303.7 311.3,303.7 311.4,303.7 311.6,303.7 311.9,303.7 312,303.7 312.1,303.7 312.2,303.7 312.3,303.7 
			312.3,303.7 312.3,303.7 312.3,303.7 312.3,303.7 312.3,303.6 312.3,303.5 312.3,303.4 312.3,303.1 312.3,303 312.3,302.8 
			312.3,302.8 312.3,302.8 312.3,302.7 312.3,302.7 		"/>
	</g>
	<g id="SPLINE_66_">
		<polyline class="st0" points="333.3,302.7 333.3,302.7 333.3,302.7 333.4,302.7 333.5,302.7 333.6,302.7 333.8,302.7 333.9,302.7 
			334.1,302.7 334.4,302.7 335.3,302.7 335.5,302.7 335.7,302.7 335.8,302.7 336,302.7 336.1,302.7 336.2,302.7 336.2,302.7 
			336.3,302.7 336.3,302.7 336.3,302.8 336.3,302.8 336.3,302.8 336.3,302.9 336.3,303 336.3,303.1 336.3,303.4 336.3,303.6 
			336.3,303.7 336.3,303.7 336.3,303.7 336.3,303.7 336.3,303.7 336.3,303.7 336.3,303.7 336.4,303.7 336.5,303.7 336.7,303.7 
			337,303.7 337.1,303.7 337.2,303.7 337.2,303.7 337.3,303.7 337.3,303.7 337.3,303.7 337.3,303.8 337.3,303.8 337.3,303.9 
			337.3,304.1 337.3,304.2 337.3,304.4 337.3,304.6 337.3,305 337.3,305.5 337.3,305.9 337.3,306.1 337.3,306.3 337.3,306.5 
			337.3,306.6 337.3,306.7 337.3,306.7 337.3,306.7 337.3,306.7 337.3,306.7 337.3,306.7 337.2,306.7 337.2,306.7 337.1,306.7 
			337,306.7 336.8,306.7 336.5,306.7 336.4,306.7 336.4,306.7 336.3,306.7 336.3,306.7 336.3,306.7 336.3,306.7 336.3,306.8 
			336.3,306.8 336.3,306.8 336.3,306.9 336.3,307.1 336.3,307.2 336.3,307.4 336.3,307.5 336.3,307.6 336.3,307.7 336.3,307.7 
			336.3,307.7 336.3,307.7 336.3,307.7 336.3,307.7 336.2,307.7 336.2,307.7 336.1,307.7 336,307.7 335.8,307.7 335.6,307.7 
			335.4,307.7 335.2,307.7 334.8,307.7 334.3,307.7 334.1,307.7 333.9,307.7 333.7,307.7 333.6,307.7 333.4,307.7 333.3,307.7 
			333.3,307.7 333.3,307.7 333.3,307.7 333.3,307.7 333.3,307.7 333.3,307.7 333.3,307.7 333.3,307.6 333.3,307.5 333.3,307.4 
			333.3,307.2 333.3,307.1 333.3,306.9 333.3,306.8 333.3,306.8 333.3,306.8 333.3,306.7 333.3,306.7 333.3,306.7 333.2,306.7 
			333.2,306.7 333.1,306.7 333,306.7 332.7,306.7 332.6,306.7 332.4,306.7 332.3,306.7 332.3,306.7 332.3,306.7 332.3,306.7 
			332.3,306.7 332.3,306.7 332.3,306.7 332.3,306.7 332.3,306.6 332.3,306.5 332.3,306.3 332.3,306.1 332.3,305.9 332.3,305.5 
			332.3,305 332.3,304.6 332.3,304.4 332.3,304.2 332.3,304.1 332.3,303.9 332.3,303.8 332.3,303.8 332.3,303.7 332.3,303.7 
			332.3,303.7 332.3,303.7 332.3,303.7 332.4,303.7 332.6,303.7 332.9,303.7 333,303.7 333.1,303.7 333.2,303.7 333.3,303.7 
			333.3,303.7 333.3,303.7 333.3,303.7 333.3,303.7 333.3,303.6 333.3,303.5 333.3,303.4 333.3,303.1 333.3,303 333.3,302.8 
			333.3,302.8 333.3,302.8 333.3,302.7 333.3,302.7 		"/>
	</g>
	<g id="SPLINE_67_">
		<polyline class="st0" points="291.3,302.7 291.3,302.7 291.3,302.7 291.4,302.7 291.5,302.7 291.6,302.7 291.8,302.7 291.9,302.7 
			292.1,302.7 292.4,302.7 293.3,302.7 293.5,302.7 293.7,302.7 293.8,302.7 294,302.7 294.1,302.7 294.2,302.7 294.2,302.7 
			294.3,302.7 294.3,302.7 294.3,302.8 294.3,302.8 294.3,302.8 294.3,302.9 294.3,303 294.3,303.1 294.3,303.4 294.3,303.6 
			294.3,303.7 294.3,303.7 294.3,303.7 294.3,303.7 294.3,303.7 294.3,303.7 294.3,303.7 294.4,303.7 294.5,303.7 294.7,303.7 
			295,303.7 295.1,303.7 295.2,303.7 295.2,303.7 295.3,303.7 295.3,303.7 295.3,303.7 295.3,303.8 295.3,303.8 295.3,303.9 
			295.3,304.1 295.3,304.2 295.3,304.4 295.3,304.6 295.3,305 295.3,305.5 295.3,305.9 295.3,306.1 295.3,306.3 295.3,306.5 
			295.3,306.6 295.3,306.7 295.3,306.7 295.3,306.7 295.3,306.7 295.3,306.7 295.3,306.7 295.2,306.7 295.2,306.7 295.1,306.7 
			295,306.7 294.8,306.7 294.5,306.7 294.4,306.7 294.4,306.7 294.3,306.7 294.3,306.7 294.3,306.7 294.3,306.7 294.3,306.8 
			294.3,306.8 294.3,306.8 294.3,306.9 294.3,307.1 294.3,307.2 294.3,307.4 294.3,307.5 294.3,307.6 294.3,307.7 294.3,307.7 
			294.3,307.7 294.3,307.7 294.3,307.7 294.3,307.7 294.2,307.7 294.2,307.7 294.1,307.7 294,307.7 293.8,307.7 293.6,307.7 
			293.4,307.7 293.2,307.7 292.8,307.7 292.3,307.7 292.1,307.7 291.9,307.7 291.7,307.7 291.6,307.7 291.4,307.7 291.3,307.7 
			291.3,307.7 291.3,307.7 291.3,307.7 291.3,307.7 291.3,307.7 291.3,307.7 291.3,307.7 291.3,307.6 291.3,307.5 291.3,307.4 
			291.3,307.2 291.3,307.1 291.3,306.9 291.3,306.8 291.3,306.8 291.3,306.8 291.3,306.7 291.3,306.7 291.3,306.7 291.2,306.7 
			291.2,306.7 291.1,306.7 291,306.7 290.7,306.7 290.6,306.7 290.4,306.7 290.3,306.7 290.3,306.7 290.3,306.7 290.3,306.7 
			290.3,306.7 290.3,306.7 290.3,306.7 290.3,306.7 290.3,306.6 290.3,306.5 290.3,306.3 290.3,306.1 290.3,305.9 290.3,305.5 
			290.3,305 290.3,304.6 290.3,304.4 290.3,304.2 290.3,304.1 290.3,303.9 290.3,303.8 290.3,303.8 290.3,303.7 290.3,303.7 
			290.3,303.7 290.3,303.7 290.3,303.7 290.4,303.7 290.6,303.7 290.9,303.7 291,303.7 291.1,303.7 291.2,303.7 291.3,303.7 
			291.3,303.7 291.3,303.7 291.3,303.7 291.3,303.7 291.3,303.6 291.3,303.5 291.3,303.4 291.3,303.1 291.3,303 291.3,302.8 
			291.3,302.8 291.3,302.8 291.3,302.7 291.3,302.7 		"/>
	</g>
	<g id="SPLINE_68_">
		<polyline class="st0" points="555.5,261.2 555.6,261.2 555.6,261.2 555.6,261.2 555.7,261.2 555.9,261.2 556,261.2 556.2,261.2 
			556.4,261.2 556.6,261.2 557.5,261.2 557.7,261.2 557.9,261.2 558.1,261.2 558.3,261.2 558.4,261.2 558.5,261.2 558.5,261.2 
			558.5,261.2 558.5,261.2 558.5,261.2 558.5,261.2 558.5,261.3 558.5,261.3 558.5,261.4 558.5,261.6 558.5,261.9 558.5,262 
			558.5,262.1 558.5,262.2 558.5,262.2 558.5,262.2 558.6,262.2 558.6,262.2 558.6,262.2 558.7,262.2 558.8,262.2 559,262.2 
			559.3,262.2 559.4,262.2 559.5,262.2 559.5,262.2 559.5,262.2 559.5,262.2 559.5,262.2 559.5,262.2 559.5,262.3 559.5,262.4 
			559.5,262.5 559.5,262.7 559.5,262.9 559.5,263.1 559.5,263.5 559.5,263.9 559.5,264.4 559.5,264.6 559.5,264.8 559.5,264.9 
			559.5,265 559.5,265.1 559.5,265.2 559.5,265.2 559.5,265.2 559.5,265.2 559.5,265.2 559.5,265.2 559.5,265.2 559.4,265.2 
			559.2,265.2 559.1,265.2 558.8,265.2 558.7,265.2 558.6,265.2 558.6,265.2 558.6,265.2 558.5,265.2 558.5,265.2 558.5,265.2 
			558.5,265.2 558.5,265.3 558.5,265.4 558.5,265.5 558.5,265.7 558.5,265.8 558.5,266 558.5,266.1 558.5,266.1 558.5,266.2 
			558.5,266.2 558.5,266.2 558.5,266.2 558.5,266.2 558.5,266.2 558.5,266.2 558.4,266.2 558.2,266.2 558.1,266.2 557.9,266.2 
			557.7,266.2 557.5,266.2 557,266.2 556.6,266.2 556.4,266.2 556.2,266.2 556,266.2 555.8,266.2 555.7,266.2 555.6,266.2 
			555.6,266.2 555.6,266.2 555.6,266.2 555.5,266.2 555.5,266.2 555.5,266.2 555.5,266.1 555.5,266.1 555.5,266 555.5,265.8 
			555.5,265.7 555.5,265.5 555.5,265.4 555.5,265.3 555.5,265.2 555.5,265.2 555.5,265.2 555.5,265.2 555.5,265.2 555.5,265.2 
			555.5,265.2 555.4,265.2 555.3,265.2 555,265.2 554.9,265.2 554.7,265.2 554.6,265.2 554.6,265.2 554.6,265.2 554.5,265.2 
			554.5,265.2 554.5,265.2 554.5,265.2 554.5,265.1 554.5,265 554.5,264.9 554.5,264.8 554.5,264.6 554.5,264.4 554.5,263.9 
			554.5,263.5 554.5,263.1 554.5,262.9 554.5,262.7 554.5,262.5 554.5,262.4 554.5,262.3 554.5,262.2 554.5,262.2 554.5,262.2 
			554.6,262.2 554.6,262.2 554.6,262.2 554.7,262.2 554.8,262.2 555.1,262.2 555.3,262.2 555.4,262.2 555.5,262.2 555.5,262.2 
			555.5,262.2 555.5,262.2 555.5,262.2 555.5,262.2 555.5,262.1 555.5,262 555.5,261.9 555.5,261.6 555.5,261.4 555.5,261.3 
			555.5,261.3 555.5,261.2 555.5,261.2 555.5,261.2 		"/>
	</g>
	<g id="SPLINE_69_">
		<polyline class="st0" points="514.9,260.1 514.9,260.1 514.9,260.1 515,260.1 515.1,260.1 515.2,260.1 515.4,260.1 515.6,260.1 
			515.8,260.1 516,260.1 516.9,260.1 517.1,260.1 517.3,260.1 517.5,260.1 517.6,260.1 517.7,260.1 517.8,260.1 517.9,260.1 
			517.9,260.1 517.9,260.1 517.9,260.1 517.9,260.1 517.9,260.1 517.9,260.2 517.9,260.3 517.9,260.4 517.9,260.7 517.9,260.9 
			517.9,261 517.9,261 517.9,261 517.9,261.1 517.9,261.1 517.9,261.1 517.9,261.1 518,261.1 518.2,261.1 518.3,261.1 518.6,261.1 
			518.7,261.1 518.8,261.1 518.9,261.1 518.9,261.1 518.9,261.1 518.9,261.1 518.9,261.1 518.9,261.1 518.9,261.2 518.9,261.4 
			518.9,261.5 518.9,261.7 518.9,261.9 518.9,262.3 518.9,262.8 518.9,263.2 518.9,263.4 518.9,263.6 518.9,263.8 518.9,263.9 
			518.9,264 518.9,264 518.9,264 518.9,264.1 518.9,264.1 518.9,264.1 518.9,264.1 518.8,264.1 518.7,264.1 518.6,264.1 
			518.4,264.1 518.1,264.1 518,264.1 518,264.1 517.9,264.1 517.9,264.1 517.9,264.1 517.9,264.1 517.9,264.1 517.9,264.1 
			517.9,264.1 517.9,264.2 517.9,264.4 517.9,264.5 517.9,264.7 517.9,264.8 517.9,264.9 517.9,265 517.9,265 517.9,265 
			517.9,265.1 517.9,265.1 517.9,265.1 517.8,265.1 517.8,265.1 517.7,265.1 517.6,265.1 517.4,265.1 517.3,265.1 517.1,265.1 
			516.8,265.1 516.4,265.1 515.9,265.1 515.7,265.1 515.5,265.1 515.3,265.1 515.2,265.1 515.1,265.1 515,265.1 514.9,265.1 
			514.9,265.1 514.9,265.1 514.9,265.1 514.9,265 514.9,265 514.9,265 514.9,264.9 514.9,264.8 514.9,264.7 514.9,264.5 
			514.9,264.4 514.9,264.2 514.9,264.1 514.9,264.1 514.9,264.1 514.9,264.1 514.9,264.1 514.9,264.1 514.8,264.1 514.8,264.1 
			514.8,264.1 514.6,264.1 514.3,264.1 514.2,264.1 514.1,264.1 514,264.1 513.9,264.1 513.9,264.1 513.9,264.1 513.9,264.1 
			513.9,264 513.9,264 513.9,264 513.9,263.9 513.9,263.8 513.9,263.6 513.9,263.4 513.9,263.2 513.9,262.8 513.9,262.3 
			513.9,261.9 513.9,261.7 513.9,261.5 513.9,261.4 513.9,261.2 513.9,261.1 513.9,261.1 513.9,261.1 513.9,261.1 513.9,261.1 
			513.9,261.1 514,261.1 514.1,261.1 514.2,261.1 514.5,261.1 514.6,261.1 514.7,261.1 514.8,261.1 514.9,261.1 514.9,261.1 
			514.9,261.1 514.9,261 514.9,261 514.9,261 514.9,260.9 514.9,260.7 514.9,260.4 514.9,260.3 514.9,260.2 514.9,260.1 
			514.9,260.1 514.9,260.1 514.9,260.1 		"/>
	</g>
	<g id="SPLINE_70_">
		<polyline class="st0" points="477.5,289.7 477.5,289.7 477.5,289.7 477.6,289.7 477.7,289.7 477.8,289.7 478,289.7 478.2,289.7 
			478.4,289.7 478.6,289.7 479.5,289.7 479.7,289.7 479.9,289.7 480.1,289.7 480.2,289.7 480.3,289.7 480.4,289.7 480.5,289.7 
			480.5,289.7 480.5,289.7 480.5,289.7 480.5,289.7 480.5,289.8 480.5,289.8 480.5,289.9 480.5,290.1 480.5,290.4 480.5,290.5 
			480.5,290.6 480.5,290.6 480.5,290.7 480.5,290.7 480.5,290.7 480.5,290.7 480.5,290.7 480.6,290.7 480.8,290.7 480.9,290.7 
			481.2,290.7 481.3,290.7 481.4,290.7 481.5,290.7 481.5,290.7 481.5,290.7 481.5,290.7 481.5,290.7 481.5,290.8 481.5,290.9 
			481.5,291 481.5,291.2 481.5,291.3 481.5,291.5 481.5,292 481.5,292.4 481.5,292.9 481.5,293.1 481.5,293.2 481.5,293.4 
			481.5,293.5 481.5,293.6 481.5,293.7 481.5,293.7 481.5,293.7 481.5,293.7 481.5,293.7 481.5,293.7 481.4,293.7 481.3,293.7 
			481.2,293.7 481,293.7 480.7,293.7 480.6,293.7 480.6,293.7 480.5,293.7 480.5,293.7 480.5,293.7 480.5,293.7 480.5,293.7 
			480.5,293.7 480.5,293.8 480.5,293.9 480.5,294 480.5,294.2 480.5,294.3 480.5,294.5 480.5,294.6 480.5,294.6 480.5,294.7 
			480.5,294.7 480.5,294.7 480.5,294.7 480.5,294.7 480.5,294.7 480.4,294.7 480.3,294.7 480.2,294.7 480,294.7 479.9,294.7 
			479.7,294.7 479.4,294.7 479,294.7 478.5,294.7 478.3,294.7 478.1,294.7 478,294.7 477.8,294.7 477.7,294.7 477.6,294.7 
			477.5,294.7 477.5,294.7 477.5,294.7 477.5,294.7 477.5,294.7 477.5,294.7 477.5,294.6 477.5,294.6 477.5,294.5 477.5,294.3 
			477.5,294.2 477.5,294 477.5,293.9 477.5,293.8 477.5,293.7 477.5,293.7 477.5,293.7 477.5,293.7 477.5,293.7 477.5,293.7 
			477.4,293.7 477.4,293.7 477.2,293.7 476.9,293.7 476.8,293.7 476.7,293.7 476.6,293.7 476.5,293.7 476.5,293.7 476.5,293.7 
			476.5,293.7 476.5,293.7 476.5,293.7 476.5,293.6 476.5,293.5 476.5,293.4 476.5,293.2 476.5,293.1 476.5,292.9 476.5,292.4 
			476.5,292 476.5,291.5 476.5,291.3 476.5,291.2 476.5,291 476.5,290.9 476.5,290.8 476.5,290.7 476.5,290.7 476.5,290.7 
			476.5,290.7 476.5,290.7 476.6,290.7 476.7,290.7 476.8,290.7 477.1,290.7 477.2,290.7 477.4,290.7 477.4,290.7 477.5,290.7 
			477.5,290.7 477.5,290.7 477.5,290.7 477.5,290.6 477.5,290.6 477.5,290.5 477.5,290.4 477.5,290 477.5,289.9 477.5,289.8 
			477.5,289.8 477.5,289.7 477.5,289.7 477.5,289.7 		"/>
	</g>
	<g id="SPLINE_71_">
		<polyline class="st0" points="535.3,265.7 535.4,265.7 535.4,265.7 535.4,265.7 535.5,265.7 535.7,265.7 535.8,265.7 536,265.7 
			536.2,265.7 536.4,265.7 537.3,265.7 537.5,265.7 537.7,265.7 537.9,265.7 538.1,265.7 538.2,265.7 538.3,265.7 538.3,265.7 
			538.3,265.7 538.3,265.7 538.3,265.7 538.3,265.7 538.3,265.8 538.3,265.8 538.3,265.9 538.3,266.1 538.3,266.4 538.3,266.5 
			538.3,266.6 538.3,266.7 538.3,266.7 538.3,266.7 538.4,266.7 538.4,266.7 538.4,266.7 538.5,266.7 538.6,266.7 538.8,266.7 
			539.1,266.7 539.2,266.7 539.3,266.7 539.3,266.7 539.3,266.7 539.3,266.7 539.3,266.7 539.3,266.7 539.3,266.8 539.3,266.9 
			539.3,267 539.3,267.2 539.3,267.4 539.3,267.6 539.3,268 539.3,268.4 539.3,268.9 539.3,269.1 539.3,269.3 539.3,269.4 
			539.3,269.5 539.3,269.6 539.3,269.7 539.3,269.7 539.3,269.7 539.3,269.7 539.3,269.7 539.3,269.7 539.3,269.7 539.2,269.7 
			539,269.7 538.9,269.7 538.6,269.7 538.5,269.7 538.4,269.7 538.4,269.7 538.4,269.7 538.4,269.7 538.3,269.7 538.3,269.7 
			538.3,269.7 538.3,269.8 538.3,269.9 538.3,270 538.3,270.2 538.3,270.3 538.3,270.5 538.3,270.6 538.3,270.6 538.3,270.7 
			538.3,270.7 538.3,270.7 538.3,270.7 538.3,270.7 538.3,270.7 538.3,270.7 538.2,270.7 538.1,270.7 537.9,270.7 537.7,270.7 
			537.5,270.7 537.3,270.7 536.8,270.7 536.4,270.7 536.2,270.7 536,270.7 535.8,270.7 535.6,270.7 535.5,270.7 535.4,270.7 
			535.4,270.7 535.4,270.7 535.4,270.7 535.3,270.7 535.3,270.7 535.3,270.7 535.3,270.6 535.3,270.6 535.3,270.5 535.3,270.3 
			535.3,270.2 535.3,270 535.3,269.9 535.3,269.8 535.3,269.7 535.3,269.7 535.3,269.7 535.3,269.7 535.3,269.7 535.3,269.7 
			535.3,269.7 535.2,269.7 535.1,269.7 534.8,269.7 534.7,269.7 534.5,269.7 534.4,269.7 534.4,269.7 534.4,269.7 534.4,269.7 
			534.3,269.7 534.3,269.7 534.3,269.7 534.3,269.6 534.3,269.5 534.3,269.4 534.3,269.3 534.3,269.1 534.3,268.9 534.3,268.4 
			534.3,268 534.3,267.6 534.3,267.4 534.3,267.2 534.3,267 534.3,266.9 534.3,266.8 534.3,266.7 534.3,266.7 534.4,266.7 
			534.4,266.7 534.4,266.7 534.4,266.7 534.5,266.7 534.6,266.7 534.9,266.7 535.1,266.7 535.2,266.7 535.3,266.7 535.3,266.7 
			535.3,266.7 535.3,266.7 535.3,266.7 535.3,266.6 535.3,266.6 535.3,266.5 535.3,266.4 535.3,266.1 535.3,265.9 535.3,265.8 
			535.3,265.8 535.3,265.7 535.3,265.7 535.3,265.7 		"/>
	</g>
	<g id="SPLINE_72_">
		<path class="st0" d="M479.3,304.2h6c0,0,1.1,0,2,0.9c0,1.1,0,1.1,0,1.1c0,2,0,2,0,2h-3c0,0,0,0,0,3c-5,0-5,0-5,0v-3c0,0,0,0-5,0
			c0,3,0,3,0,3c0,1.1-0.9,2-2,2c0,0,0,0-1,0c0,0,0,0-1.1,0c-0.9-0.9-0.9-2-0.9-2v-5c0,0,0-1.1,0.9-2c1.1,0,1.1,0,1.1,0c3,0,3,0,3,0
			H479.3z"/>
	</g>
	<g id="SPLINE_73_">
		<path class="st0" d="M480,330.5h6c0,0,1.1,0,2,0.9c0,1.1,0,1.1,0,1.1c0,2,0,2,0,2h-3c0,0,0,0,0,3c-5,0-5,0-5,0v-3c0,0,0,0-5,0
			c0,3,0,3,0,3c0,1.1-0.9,2-2,2c0,0,0,0-1,0c0,0,0,0-1.1,0c-0.9-0.9-0.9-2-0.9-2v-5c0,0,0-1.1,0.9-2c1.1,0,1.1,0,1.1,0c3,0,3,0,3,0
			H480z"/>
	</g>
</g>
<g id="cut_light">
</g>
<g id="origin">
	<g id="SPLINE_303_">
		<path class="st0" d="M272.2,249.6C272.2,249.6,272.2,249.6,272.2,249.6c0,0.1-0.1,0.1-0.1,0c0,0,0,0,0-0.1
			C272.1,249.5,272.1,249.5,272.2,249.6C272.2,249.5,272.2,249.6,272.2,249.6z"/>
	</g>
</g>
</svg>
