<?xml version="1.0" encoding="utf-8"?>
<!-- Generator: Adobe Illustrator 24.3.0, SVG Export Plug-In . SVG Version: 6.00 Build 0)  -->
<svg version="1.1" id="boundary" xmlns="http://www.w3.org/2000/svg" xmlns:xlink="http://www.w3.org/1999/xlink" x="0px" y="0px"
	 viewBox="0 0 1275.6 992.1" style="enable-background:new 0 0 1275.6 992.1;" xml:space="preserve">
<style type="text/css">
	.st0{fill:#FFFFFF;stroke:#000000;stroke-miterlimit:10;}
	.st1{fill:none;stroke:#000000;stroke-miterlimit:10;}
</style>
<g id="LINE_12_">
	<polygon class="st0" points="347.5,228.9 352.2,223.6 355.6,219.9 359.8,215.3 364.2,210.8 368.6,206.4 371.8,203.2 373.1,202 
		376.1,199.2 377.6,197.7 380.3,195.2 382.3,193.5 384.7,191.3 386.9,189.3 389,187.5 391.7,185.2 393.4,183.7 396.5,181.2 
		397.8,180.1 402.3,176.5 406.8,172.9 412,169 416.3,165.8 421.4,162.2 425.1,159.6 426.5,158.6 429.7,156.4 431.7,155.1 
		434.3,153.4 437,151.7 439,150.4 442.3,148.3 443.7,147.5 448.3,144.7 453.1,141.9 458.5,138.8 462.4,136.7 464,135.8 467.1,134.1 
		469.6,132.8 471.7,131.7 476.4,129.4 481.8,126.7 486.5,124.5 490.3,122.8 492.2,121.9 494.8,120.8 498,119.4 499.4,118.8 
		503.9,116.9 509.6,114.6 512.8,113.4 515.5,112.4 517.3,111.7 521.4,110.3 522.8,109.9 525,109.7 527.3,109.9 529.6,110.4 
		531.6,111.4 533.5,112.6 535,114.2 536.1,115.6 536.7,116.9 537.4,118.9 537.7,121 537.7,123.1 537.3,125.2 536.5,127.1 535.4,129 
		534,130.7 532.5,132 531.4,132.9 529.6,133.8 528.1,134.5 524.6,136 520.7,137.7 518.7,138.6 512.3,141.6 507.9,143.7 505.9,144.7 
		502.5,146.5 499.7,147.9 497,149.3 493.6,151.2 491.6,152.3 487.6,154.5 486.3,155.3 481,158.3 474.7,162.2 470.2,165 464.6,168.6 
		460.3,171.5 459.1,172.4 455.3,175 453.7,176.1 450.3,178.5 448.3,180 445.4,182.2 443.1,183.9 440.5,185.9 437.9,187.9 
		435.7,189.7 432.9,192 430.9,193.5 427.9,196.1 426.2,197.5 422.9,200.3 421.6,201.5 418.1,204.6 417,205.6 412.5,209.7 408,213.9 
		403.6,218.2 399.3,222.5 395.1,226.9 393.3,228.9 390.8,231.5 386.6,236.2 382.4,241 378.3,245.8 374.3,250.7 370.4,255.6 
		366.5,260.6 363.6,264.5 362.8,265.7 360,269.4 359.1,270.8 356.5,274.4 355.5,275.9 353.1,279.5 352,281.1 349.7,284.6 
		348.6,286.4 346.4,289.8 345.2,291.7 343.2,295 342,297 340.1,300.3 338.8,302.4 337,305.6 335.8,307.8 334,310.9 332.8,313.3 
		331.2,316.3 329.9,318.8 328.4,321.8 327.1,324.4 325.6,327.3 324.3,330 323,332.8 321.7,335.6 320.5,338.3 319.2,341.3 318,344 
		316.7,347 315.6,349.6 314.4,352.7 313.3,355.3 312.1,358.5 311.1,361 309.9,364.3 309,366.7 307.8,370.1 307,372.5 305.8,376 
		305,378.3 303.9,381.9 303.2,384.2 302.1,387.8 301.4,390 300.4,393.7 299.8,395.9 298.8,399.7 298.2,401.8 297.2,405.6 
		296.7,407.8 295.8,411.6 295.3,413.7 294.5,417.6 294,419.7 293.2,423.7 292.8,425.7 292,429.7 291.7,431.7 291,435.8 290.6,437.8 
		290,441.9 289.7,443.8 289.1,447.9 288.9,449.9 288.3,454 288.1,456 287.7,460.2 287.5,462.1 287.1,466.3 286.9,468.2 286.6,472.4 
		286.4,474.3 286.2,478.5 286,480.4 285.9,484.6 285.8,486.5 285.6,490.8 285.6,492.6 285.5,496.9 285.5,498.7 285.5,503 
		285.5,504.9 285.6,509.1 285.6,511 285.7,515.2 285.8,517.1 286,521.3 286,523.2 286.3,527.5 286.4,529.3 286.7,533.5 286.9,535.4 
		287.3,539.6 287.5,541.5 287.9,545.7 288.1,547.6 288.6,551.8 288.9,553.7 289.4,557.8 289.7,559.8 290.3,563.8 290.6,565.8 
		291.3,569.9 291.7,571.8 292.4,575.8 292.8,577.9 293.6,581.8 294,583.9 294.9,587.8 295.3,589.9 296.2,593.7 296.7,595.8 
		297.6,599.6 298.2,601.8 299.2,605.5 299.8,607.7 300.8,611.3 301.4,613.6 302.5,617.2 303.2,619.4 304.3,623 305,625.3 
		306.2,628.7 307,631.1 308.2,634.5 309,636.9 310.2,640.1 311.1,642.6 312.4,645.8 313.3,648.3 314.6,651.4 315.6,654 316.9,657 
		318,659.6 319.3,662.6 320.5,665.2 321.8,668.1 323,670.8 324.3,673.5 325.6,676.3 326.9,679 328.4,681.8 329.7,684.4 331.2,687.3 
		332.4,689.7 334,692.7 335.3,695 337,698 338.3,700.2 340.1,703.3 341.3,705.4 343.2,708.6 344.4,710.5 346.4,713.8 347.6,715.6 
		349.7,719 350.8,720.7 353.1,724.1 354.1,725.7 356.5,729.2 357.5,730.6 360,734.2 361,735.4 364.5,740.3 368.1,745 371.7,749.7 
		375.5,754.3 379.3,758.9 383.1,763.4 387,767.9 391,772.3 393.3,774.7 395.1,776.6 399.3,781.1 403.6,785.4 408,789.7 412.5,793.9 
		417,798 420.4,801 421.6,802.1 424.8,804.9 426.2,806.1 429.2,808.6 430.9,810 433.7,812.3 435.7,813.9 438.2,815.9 440.5,817.7 
		442.8,819.5 445.4,821.4 447.4,822.9 450.3,825 452.1,826.3 455.3,828.6 456.7,829.6 461.4,832.8 466.1,836 470.9,839 475.8,842.1 
		481,845.2 486.3,848.3 490.2,850.5 491.6,851.3 495,853.2 497,854.3 499.9,855.7 502.5,857.1 504.7,858.2 507.9,859.9 509.6,860.7 
		514.4,863 519.2,865.2 520.7,865.9 524.8,867.7 530.4,870.1 532,871.2 533.2,872.1 534.8,873.7 535.7,875.1 536.6,876.6 
		537.4,878.8 537.7,881 537.7,883.2 537.2,885.4 536.4,887.3 535.3,889.1 533.8,890.7 532.1,891.9 530.3,892.9 528.3,893.5 
		526.5,893.8 525,893.9 522.8,893.6 520.6,893 519.2,892.5 517.3,891.8 515.5,891.2 512.4,890 509.6,889 503.7,886.6 498,884.2 
		495.7,883.2 492.2,881.7 488,879.8 486.5,879.1 480.5,876.3 475.2,873.6 473.4,872.7 469.6,870.8 466.5,869.1 464,867.8 
		458.5,864.8 452.6,861.4 446.8,858 442.3,855.3 440.5,854.2 437,851.9 434.4,850.3 431.7,848.5 428.4,846.3 426.5,845 422.6,842.3 
		421.4,841.4 416.3,837.8 411.1,834 405.6,829.7 401.3,826.4 400.2,825.4 396.5,822.4 394.9,821.1 391.7,818.4 389.7,816.7 
		386.9,814.3 384.6,812.2 382.3,810.1 379.5,807.6 377.6,805.9 374.6,803 373.1,801.6 369.8,798.3 368.6,797.2 364.2,792.8 
		359.8,788.3 355.6,783.7 351.3,779 346.9,774 342.7,769 338.5,763.9 334.4,758.8 331.4,755 330.3,753.6 327.6,750 326.4,748.4 
		323.9,744.9 322.6,743.1 320.3,739.8 318.9,737.7 316.7,734.6 315.2,732.3 313.3,729.4 311.6,726.9 309.9,724.2 308.2,721.4 
		306.6,718.9 304.8,715.9 303.4,713.5 301.5,710.3 301.9,708.7 317.1,708.7 317.1,691.7 290.9,690.9 289.3,687.7 288.4,686 
		286.5,681.9 285.7,680.4 283.7,676.1 283.1,674.7 280.5,669 278,663.2 275.6,657.4 273.3,651.6 271.1,645.8 269,639.9 267,634 
		265,628 263.2,622 261.4,616 259.7,610 258.2,604 256.7,597.9 255.3,591.8 254.6,588.9 253.9,585.6 252.7,579.4 251.6,573.2 
		250.6,567 249.6,560.8 248.8,554.5 248,548.3 247.4,542 246.8,535.8 246.3,529.5 246,523.3 245.7,517 245.5,510.7 245.4,504.5 
		245.4,498.2 245.5,492 245.7,485.7 246,479.5 246.4,473.3 246.9,467.1 247.4,460.8 248.1,454.7 248.8,448.5 249.7,442.3 
		250.6,436.2 251.6,430.1 252.8,424 254,417.9 254.6,414.7 255.3,411.8 256.7,405.7 258.2,399.6 259.7,393.6 261.4,387.5 
		263.2,381.5 265,375.6 267,369.6 269,363.7 271.1,357.8 273.3,352 275.6,346.1 278,340.4 280.5,334.6 282.5,330.2 283.1,328.9 
		285,324.7 285.7,323.2 287.7,319.2 288.4,317.6 290.4,313.7 291.7,311.9 317.1,311.9 317.1,294.9 301.1,294 302,292.3 303.4,290.1 
		305.1,287.1 306.6,284.7 308.3,282 309.9,279.4 311.5,276.9 313.3,274.2 314.8,271.8 316.7,268.9 318.2,266.8 320.3,263.8 
		321.6,261.9 323.9,258.7 325.2,257 327.6,253.6 328.7,252.1 331.4,248.6 332.4,247.4 336,242.7 339.8,238 343.6,233.5 	"/>
</g>
<g id="LINE_11_">
	<polygon class="st0" points="280.4,206.4 281.4,205.3 284.9,202 286.4,200.5 289.4,197.7 291.5,195.8 294,193.5 296.7,191.1 
		298.7,189.3 302.1,186.4 303.5,185.2 308.3,181.2 314.1,176.5 318.7,172.9 323.1,169.6 324.6,168.5 328.1,165.8 330.5,164.1 
		333.3,162.2 336.6,159.8 338.4,158.6 343.6,155.1 347.3,152.7 349.3,151.4 354.2,148.3 355.9,147.3 359.6,145.1 362.8,143.2 
		365,141.9 370.5,138.8 373,137.4 377.1,135.2 381.6,132.8 384.8,131.2 387.3,130 393.5,126.9 398.6,124.5 401.2,123.4 404.4,121.9 
		410.2,119.4 416,117 420.2,115.3 421.9,114.6 424.2,113.8 427.9,112.4 430.1,111.6 431.8,111.3 433.4,111.1 435,111.2 437.1,111.5 
		439.1,112.2 440.9,113.2 442.6,114.5 444,116.1 445,118 445.8,120 446.2,122.1 446.1,124.4 445.8,126.4 445.3,127.7 444.5,129.4 
		443.5,130.9 442.4,132.2 441,133.5 439.8,134.3 437.8,135.4 436.4,136 434.9,136.6 430.4,138.6 428.8,139.4 425.2,141.1 
		421.4,142.9 419.7,143.7 416.9,145.1 414.2,146.5 412.3,147.5 407.7,149.9 403.3,152.3 401.9,153.1 398,155.3 394,157.6 
		392.7,158.4 389.4,160.3 387.4,161.5 384.9,163.1 382.2,164.8 380.3,166 377.1,168.1 375.7,169 371.2,172 366.7,175.1 364.8,176.5 
		361.9,178.6 357,182.2 353.3,185 352.1,185.9 348.9,188.4 347.2,189.7 344.5,191.9 342.5,193.5 340.2,195.5 337.8,197.5 
		335.9,199.1 333.1,201.5 331.6,202.9 328.5,205.6 327.3,206.7 323.1,210.5 319,214.5 314.9,218.5 310.2,223.2 306.6,227 
		302.4,231.4 298.3,236 294.3,240.6 291.3,244 290.3,245.2 287.6,248.5 286.4,250 283.9,253 282.6,254.7 280.3,257.6 278.8,259.6 
		276.8,262.3 275.1,264.5 273.3,267 271.5,269.4 269.8,271.8 268,274.4 266.5,276.6 264.5,279.5 263.2,281.5 261.2,284.6 260,286.5 
		257.9,289.8 256.8,291.5 254.6,295 253.7,296.6 251.5,300.3 250.7,301.7 248.5,305.6 247.8,306.8 244.9,312 242.1,317.3 
		239.4,322.6 236.7,328 234.2,333.4 231.7,338.8 229.3,344.3 226.9,349.8 224.7,355.4 222.2,361.8 220.4,366.7 218.4,372.5 
		216.5,378.3 214.6,384.2 212.9,390 211.2,395.9 209.6,401.8 208.1,407.8 206.7,413.7 205.4,419.7 204.2,425.7 203.1,431.7 
		202.1,437.8 201.1,443.8 200.3,449.9 199.5,456 198.9,462.1 198.3,468.2 197.8,474.3 197.5,480.4 197.2,486.5 197,492.6 
		196.9,498.7 196.9,504.9 197,511 197.2,517.1 197.5,523.2 197.8,529.3 198.3,535.4 198.9,541.5 199.5,547.6 200.3,553.7 
		201.1,559.8 202.1,565.8 203.1,571.9 204.2,577.9 205.4,583.9 206.7,589.9 208.1,595.8 209.6,601.8 211.2,607.7 212.9,613.6 
		214.6,619.4 216.5,625.3 218.4,631.1 220.4,636.9 222.5,642.6 224.8,648.4 227.1,654.2 229.6,660 232.1,665.7 234.7,671.4 
		237.5,677.1 240.3,682.7 243.2,688.3 246.2,693.9 248.5,698 249.2,699.4 251.5,703.3 252.4,704.9 254.6,708.6 255.7,710.3 
		257.9,713.8 259,715.7 261.2,719 262.5,721 264.5,724.1 266,726.3 268,729.2 269.7,731.5 271.5,734.2 273.4,736.7 275.1,739.1 
		277.2,741.9 278.8,744 281.1,747 282.6,748.9 285.1,752 286.4,753.6 289.2,757 290.3,758.4 294.3,763 298.3,767.6 302.4,772.2 
		306.6,776.6 310.9,781.1 315.5,785.8 320.3,790.3 324,793.9 325.1,794.9 328.5,798 330,799.3 333.1,802.1 335,803.7 337.8,806.1 
		340.1,808.1 342.5,810.1 345.3,812.4 347.2,813.9 350.6,816.6 352.1,817.7 357,821.4 361.9,825 364.8,827.1 367.2,828.8 
		372.9,832.8 377.1,835.5 378.8,836.6 382.2,838.8 384.8,840.5 387.4,842.1 391,844.2 392.7,845.2 398,848.3 401.9,850.5 
		403.7,851.5 408.8,854.3 410.3,855.1 414.2,857.1 417.2,858.6 419.7,859.9 425.2,862.5 428.8,864.2 431.5,865.4 436.4,867.6 
		437.8,868.2 439.8,869.3 441.6,870.7 442.9,871.9 443.9,873.2 444.7,874.5 445.5,876.5 446,878.5 446.2,880.6 446,882.7 
		445.4,884.8 444.5,886.7 443.2,888.4 441.6,889.9 439.7,891.1 437.6,891.9 435.7,892.3 434.1,892.5 432.3,892.4 430.5,892.1 
		429,891.6 426.7,890.8 424.2,889.8 421.9,889 418.6,887.6 416,886.6 414.4,886 410.2,884.2 406,882.4 404.4,881.7 401.7,880.5 
		397.4,878.5 392.9,876.4 388.7,874.3 387.3,873.6 384.3,872.1 381.6,870.8 379.9,869.9 375.5,867.5 373,866.2 370.5,864.8 
		366.6,862.6 365,861.7 362.1,860 359.6,858.5 357.6,857.3 353.2,854.6 348.7,851.8 347.3,850.9 343.6,848.5 339.8,845.9 338.4,845 
		335.3,842.9 333.3,841.4 330.9,839.7 328.1,837.8 326.4,836.5 322,833.2 317.6,829.9 313.2,826.4 308.3,822.4 304.6,819.4 
		303.5,818.4 300.4,815.7 298.7,814.3 296.1,812 294,810.1 291.9,808.2 289.4,805.9 287.7,804.3 284.9,801.6 283.6,800.4 
		279.5,796.3 275.4,792.3 271.4,788.1 269.6,786.1 267.3,783.7 263.1,779.1 258.9,774.4 255.9,770.8 254.9,769.6 252.1,766.3 
		250.9,764.8 248.4,761.8 246.9,759.9 244.8,757.1 243.1,755 241.2,752.5 239.3,750 237.7,747.7 235.6,744.9 234.2,742.9 232,739.8 
		230.8,738.1 228.4,734.7 227.4,733.2 224.9,729.4 224.1,728.2 220.9,723.2 217.8,718.1 214.7,712.9 213.6,708.7 228.6,708.7 
		228.6,691.7 202.5,690.9 200.1,686 197.3,680.4 194.7,674.7 192.1,669 189.7,663.2 187.8,658.8 187.3,657.5 185.6,653.2 185,651.6 
		183.4,647.5 182.8,645.8 181.3,641.8 180.6,639.9 179.3,636 178.6,634 177.4,630.2 176.6,628 175.5,624.3 174.8,622.1 173.7,618.5 
		173,616.1 172.1,612.6 171.4,610 170.5,606.6 169.8,604 169,600.6 168.3,597.9 167.5,594.7 166.9,591.8 166.2,588.6 165.6,585.7 
		164.9,582.6 164.3,579.5 163.8,576.5 163.2,573.4 162.7,570.4 162.2,567.2 161.7,564.3 161.2,561 160.9,558.2 160.4,554.8 
		160.1,552 159.7,548.6 159.4,545.8 159,542.4 158.7,539.7 158.4,536.2 158.2,533.5 158,529.9 157.8,527.2 157.6,523.7 157.5,521 
		157.3,517.4 157.2,514.8 157.1,511.2 157.1,508.5 157,504.9 157,502.3 157,498.7 157.1,496 157.1,492.4 157.2,489.8 157.3,486.2 
		157.4,483.5 157.6,479.9 157.7,477.2 158,473.7 158.2,471 158.4,467.4 158.7,464.7 159,461.2 159.3,458.4 159.7,455 160,452.2 
		160.4,448.8 160.8,445.9 161.2,442.6 161.7,439.7 162.2,436.4 162.7,433.4 163.2,430.2 163.8,427.2 164.3,424.1 165,421 
		165.6,417.9 166.2,414.7 166.9,411.8 167.6,408.5 168.3,405.7 169.1,402.4 169.8,399.6 170.7,396.2 171.4,393.6 172.3,390 
		173,387.5 174.1,383.9 174.8,381.5 176,377.8 176.6,375.6 177.9,371.7 178.6,369.6 180,365.6 180.6,363.7 182.1,359.6 182.8,357.8 
		184.4,353.6 185,352 186.7,347.6 187.3,346.1 189.7,340.4 192.1,334.6 194.7,328.9 197.3,323.2 200.1,317.6 203.4,311.9 
		228.6,311.9 228.6,294.9 212.7,294 215.4,289.5 218.8,283.9 222.3,278.3 224.9,274.2 225.9,272.8 228.4,268.9 229.6,267.3 
		232,263.8 233.3,261.8 235.6,258.7 237.2,256.5 239.3,253.6 241.2,251.1 243.1,248.6 245.3,245.8 246.9,243.7 249.4,240.6 
		250.9,238.8 253.7,235.4 254.9,234 258.9,229.2 263.1,224.5 267.3,219.9 269.6,217.5 271.8,215.1 276.6,210.2 	"/>
</g>
<g id="LINE_10_">
	<polygon class="st0" points="752,212.5 753.6,210.8 756.4,208.1 758,206.4 760.8,203.7 762.5,202 765.3,199.4 767.1,197.7 
		769.8,195.2 771.7,193.5 774.4,191 776.3,189.3 779.1,186.9 781.1,185.2 783.8,182.9 785.8,181.2 788.6,178.9 790.7,177.2 
		793.4,175.1 795.6,173.4 798.3,171.2 800.6,169.5 803.3,167.5 805.6,165.8 808.3,163.9 810.7,162.2 813.4,160.3 815.8,158.6 
		818.5,156.8 821,155.1 823.6,153.4 826.2,151.7 828.8,150 831.5,148.3 834.1,146.7 836.8,145.1 839.4,143.6 842.2,141.9 
		844.7,140.5 847.7,138.8 850.1,137.4 853.1,135.8 855.5,134.5 858.7,132.8 861,131.7 864.2,130 866.4,128.9 869.8,127.2 872,126.2 
		875.5,124.5 877.5,123.6 881.2,121.9 883.1,121.1 886.9,119.4 888.7,118.7 892.7,117 894.3,116.3 898.5,114.6 900,114.1 
		905.7,111.9 911.4,109.8 917.1,107.8 922.9,105.9 924.4,105.5 926.1,105.3 927.6,105.3 929.3,105.5 930.9,105.9 932.3,106.5 
		933.8,107.4 935,108.3 936.2,109.5 937.2,110.7 938,112.2 938.6,113.5 939.1,115.2 939.3,116.7 939.3,118.4 939.1,119.9 
		938.7,121.5 938.2,122.9 937.4,124.3 936.5,125.6 935.4,126.8 934.1,127.9 932.9,128.6 931.3,129.4 926.7,131.2 923.2,132.6 
		921,133.5 917.7,135 915.4,136 912.2,137.4 909.8,138.5 906.7,139.9 904.3,141.1 901.2,142.5 898.8,143.7 895.8,145.2 893.3,146.5 
		890.4,148 887.9,149.3 885.1,150.8 882.5,152.3 879.8,153.8 877.2,155.3 874.5,156.8 871.9,158.3 869.3,159.9 866.6,161.5 
		864.2,163.1 861.4,164.8 859,166.3 856.3,168.1 854,169.7 851.2,171.5 848.9,173.1 846.2,175 843.9,176.6 841.2,178.5 839,180.2 
		836.3,182.2 834.2,183.8 831.4,185.9 829.3,187.5 826.6,189.7 824.6,191.3 821.8,193.5 819.9,195.2 817.1,197.5 815.2,199.1 
		812.5,201.5 810.6,203.1 807.9,205.6 806.1,207.2 803.4,209.7 801.6,211.4 799,213.9 797.2,215.6 794.6,218.2 792.9,219.9 
		790.3,222.5 788.6,224.2 786,226.9 784.4,228.7 781.9,231.4 780.3,233.2 777.8,236 776.2,237.7 773.7,240.6 772.2,242.3 
		769.8,245.2 768.3,247 765.9,250 764.4,251.7 762,254.7 760.7,256.5 758.3,259.6 756.9,261.4 754.6,264.5 753.3,266.3 751,269.4 
		749.7,271.2 747.5,274.4 746.3,276.2 744,279.5 742.8,281.3 740.7,284.6 739.5,286.4 737.4,289.8 736.3,291.6 734.2,295 
		733.1,296.8 731,300.3 730,302.1 728,305.6 727,307.4 725,310.9 724,312.8 722.2,316.3 721.2,318.2 719.4,321.8 718.4,323.6 
		716.6,327.3 715.7,329.1 714,332.8 713.1,334.7 711.5,338.3 710.6,340.2 709,344 708.2,345.8 706.6,349.6 705.9,351.5 704.3,355.3 
		703.6,357.2 702.1,361 701.4,362.9 700,366.7 699.3,368.6 698,372.5 697.3,374.4 696,378.3 695.4,380.2 694.2,384.2 693.6,386.1 
		692.4,390 691.9,392 690.8,395.9 690.3,397.8 689.2,401.8 688.7,403.8 687.7,407.8 687.3,409.7 686.3,413.7 685.9,415.7 685,419.7 
		684.6,421.7 683.8,425.7 683.4,427.7 682.7,431.7 682.4,433.7 681.7,437.8 681.4,439.7 680.7,443.8 680.5,445.8 679.9,449.9 
		679.6,451.8 679.1,456 678.9,457.9 678.5,462.1 678.3,464 677.9,468.2 677.8,470.1 677.4,474.3 677.3,476.2 677.1,480.4 677,482.3 
		676.8,486.5 676.7,488.5 676.6,492.6 676.6,494.6 676.5,498.7 676.5,500.7 676.5,504.9 676.5,506.8 676.6,511 676.7,512.9 
		676.8,517.1 676.9,519.1 677.1,523.2 677.2,525.2 677.4,529.3 677.6,531.3 677.9,535.4 678.1,537.4 678.5,541.5 678.7,543.5 
		679.1,547.6 679.4,549.6 679.9,553.7 680.2,555.6 680.7,559.8 681,561.7 681.7,565.8 682,567.8 682.7,571.8 683,573.8 683.8,577.9 
		684.2,579.8 685,583.9 685.4,585.8 686.3,589.9 686.8,591.8 687.7,595.8 688.2,597.8 689.2,601.8 689.7,603.7 690.8,607.7 
		691.3,609.6 692.4,613.6 693,615.5 694.2,619.4 694.8,621.4 696,625.3 696.7,627.2 698,631.1 698.7,633 700,636.9 700.7,638.8 
		702.1,642.6 702.9,644.5 704.3,648.3 705.1,650.2 706.6,654 707.4,655.9 709,659.6 709.8,661.5 711.5,665.2 712.3,667.1 714,670.8 
		714.9,672.7 716.6,676.3 717.6,678.2 719.4,681.8 720.3,683.7 722.2,687.3 723.1,689.1 725,692.7 726.1,694.5 728,698 729.1,699.9 
		731,703.3 732.2,705.2 734.2,708.6 735.3,710.4 737.4,713.8 738.6,715.7 740.7,719 741.9,720.8 744,724.1 745.3,725.9 747.5,729.2 
		748.8,731 751,734.2 752.3,736 754.6,739.1 756,740.9 758.3,744 759.7,745.8 762,748.9 763.5,750.6 765.9,753.6 767.3,755.4 
		769.8,758.4 771.3,760.1 773.7,763 775.3,764.8 777.8,767.6 779.3,769.4 781.9,772.2 783.5,773.9 786,776.6 787.7,778.4 
		790.3,781.1 792,782.8 794.6,785.4 796.4,787.1 799,789.7 800.8,791.4 803.4,793.9 805.3,795.6 807.9,798 809.8,799.7 812.5,802.1 
		814.5,803.8 817.1,806.1 819.1,807.8 821.8,810 823.9,811.7 826.6,813.9 828.7,815.6 831.4,817.7 833.6,819.3 836.3,821.4 
		838.5,823 841.2,825 843.5,826.7 846.2,828.6 848.5,830.2 851.2,832.1 853.6,833.7 856.3,835.5 858.8,837.1 861.4,838.8 864,840.4 
		866.6,842.1 869.2,843.6 871.9,845.2 874.5,846.8 877.2,848.3 879.9,849.9 882.5,851.3 885.3,852.9 887.9,854.3 890.8,855.8 
		893.3,857.1 896.3,858.6 898.8,859.9 901.9,861.4 904.3,862.5 907.5,864 909.8,865.1 913.1,866.6 915.4,867.6 918.8,869.1 921,870 
		924.6,871.5 927.8,872.8 931.3,874.2 932.6,874.8 934.1,875.7 935.3,876.7 936.5,877.9 937.4,879.3 938.2,880.7 938.8,882.2 
		939.1,883.7 939.3,885.4 939.3,886.9 939,888.6 938.6,890 937.9,891.6 937.2,892.9 936.1,894.2 935,895.3 933.7,896.3 932.3,897.1 
		930.9,897.7 929.3,898.1 927.8,898.3 926.1,898.3 924.6,898.1 922.9,897.7 921.3,897.2 915.1,895.1 909,892.9 903,890.7 898.5,889 
		897,888.4 892.7,886.6 891,885.9 886.9,884.2 885.1,883.4 881.2,881.7 879.3,880.8 875.5,879.1 873.5,878.1 869.8,876.4 
		867.8,875.4 864.2,873.6 862.1,872.5 858.7,870.8 856.4,869.6 853.1,867.8 850.8,866.5 847.7,864.8 845.3,863.4 842.2,861.7 
		839.8,860.3 836.8,858.5 834.3,857 831.5,855.3 829,853.7 826.2,851.9 823.6,850.2 821,848.5 818.4,846.7 815.8,845 813.2,843.2 
		810.7,841.4 808,839.5 805.6,837.8 802.9,835.8 800.6,834 797.9,832 795.6,830.2 792.9,828.1 790.7,826.4 788,824.1 785.8,822.4 
		783.1,820.1 781.1,818.4 778.3,816 776.3,814.3 773.6,811.8 771.7,810.1 768.9,807.6 767.1,805.9 764.3,803.3 762.5,801.6 
		759.8,798.9 758,797.2 755.4,794.5 753.6,792.8 751,790 749.3,788.3 746.6,785.4 745,783.7 742.4,780.8 740.8,779 738.2,776.1 
		736.7,774.3 734.1,771.3 732.6,769.6 730.1,766.5 728.6,764.8 726.1,761.6 724.7,759.9 722.2,756.7 720.9,755 718.4,751.7 
		717.1,750 714.7,746.6 713.4,744.9 711,741.5 709.8,739.8 707.5,736.4 706.3,734.6 704,731.2 702.8,729.4 700.5,725.9 699.4,724.2 
		697.2,720.6 696.1,718.9 693.9,715.2 692.9,713.5 691.5,708.7 707.4,708.7 707.4,691.7 680.5,690.9 678.9,687.7 678,686 
		676.1,682.1 675.3,680.4 673.5,676.4 672.6,674.7 670.9,670.7 670.1,669 668.4,665 667.6,663.2 666,659.2 665.2,657.4 663.6,653.4 
		662.9,651.6 661.4,647.5 660.7,645.8 659.2,641.6 658.6,639.9 657.5,636.8 657.3,634.7 657.3,624.5 657.3,615.6 657.3,607.8 
		657.3,600.8 657.3,594.6 657.3,589 657.3,583.8 657.3,579.2 657.3,574.9 657.3,571 657.3,567.3 657.3,563.9 657.3,560.7 
		657.3,557.7 657.3,554.9 657.3,552.3 657.3,549.8 657.3,547.4 657.3,545.2 657.3,543.1 657.3,541 657.3,539 657.3,537.2 
		657.3,535.3 657.3,533.6 657.3,531.9 657.3,530.3 657.3,528.7 657.3,527.1 657.3,525.6 657.3,524.2 657.3,521.4 657.3,518.7 
		657.3,516.1 657.3,513.5 657.3,511.1 657.3,508.6 657.3,506.3 657.3,503.9 657.3,501.5 657.3,499.2 657.3,496.8 657.3,494.4 
		657.3,491.9 657.3,489.4 657.3,486.8 657.3,484.1 657.3,481.3 657.3,479.8 657.3,478.4 657.3,476.8 657.3,475.3 657.3,473.6 
		657.3,472 657.3,470.2 657.3,468.4 657.3,466.6 657.3,464.6 657.3,462.6 657.3,460.5 657.3,458.3 657.3,456 657.3,453.5 
		657.3,450.9 657.3,448.2 657.3,445.3 657.3,442.2 657.3,438.8 657.3,435.3 657.3,431.4 657.3,427.3 657.3,422.8 657.3,417.8 
		657.3,412.4 657.3,406.4 657.3,399.8 657.3,392.3 657.3,383.9 657.3,374.2 657.7,366.2 658.6,363.7 660.1,359.5 660.7,357.8 
		662.3,353.7 662.9,352 664.6,347.9 665.2,346.1 666.9,342.1 667.6,340.4 669.3,336.3 670.1,334.6 671.9,330.6 672.6,328.9 
		674.5,324.9 675.3,323.2 677.2,319.3 678,317.6 680,313.7 681.3,311.9 707.4,311.9 707.4,294.9 690.6,294 691.9,291.8 692.9,290.1 
		695.1,286.4 696.1,284.7 698.4,281.1 699.4,279.4 701.7,275.9 702.8,274.2 705.1,270.7 706.3,268.9 708.6,265.5 709.8,263.8 
		712.2,260.4 713.4,258.7 715.9,255.3 717.1,253.6 719.6,250.3 720.9,248.6 723.4,245.4 724.7,243.7 727.3,240.5 728.6,238.8 
		731.2,235.7 732.6,234 735.2,231 736.7,229.2 739.3,226.3 740.8,224.5 743.5,221.6 745,219.9 747.7,217 749.3,215.3 	"/>
</g>
<g id="LINE_8_">
	<polygon class="st0" points="190.3,206.4 192.4,204.3 194.8,202 197.1,199.8 199.3,197.7 201.9,195.4 203.9,193.5 206.7,191 
		208.6,189.3 211.6,186.7 213.3,185.2 216.6,182.5 218.1,181.2 221.6,178.3 223,177.2 227.9,173.4 232.8,169.6 237.9,165.8 
		242.9,162.2 248.1,158.6 253.7,154.8 259.3,151.2 263.8,148.3 265.1,147.6 269.1,145.1 270.9,144.1 274.5,141.9 276.8,140.6 
		280,138.8 282.8,137.3 285.5,135.8 288.8,134 291,132.8 295,130.8 296.6,130 302.2,127.2 307.8,124.5 309.3,123.9 314.2,121.6 
		319.3,119.4 320.9,118.7 325.1,117 327.7,115.9 330.9,114.6 334.7,113.2 336.7,112.4 342.6,110.2 345.6,109.2 348.5,108.2 
		354.1,106.3 356.1,105.8 358.2,105.7 360.4,105.9 362.4,106.5 364.4,107.5 366.1,108.7 367.6,110.3 368.8,112 369.7,114 370.2,116 
		370.4,118.2 370.2,120.3 369.7,122.4 368.8,124.3 367.5,126.1 366,127.7 364.2,129 362.1,130 358.2,131.5 353.1,133.6 351.7,134.2 
		347.6,136 342,138.5 337.8,140.4 336.5,141.1 332.8,142.9 331,143.7 327.7,145.4 325.5,146.5 322.6,148 320.1,149.3 317.6,150.7 
		314.7,152.3 312.5,153.5 309.3,155.3 307.5,156.3 304.1,158.4 302.5,159.3 298.8,161.5 297.6,162.3 292.6,165.4 287.8,168.6 
		282.9,171.9 278.1,175.2 273.3,178.6 271.4,180 268.4,182.2 263.6,185.9 258.8,189.7 254,193.6 249.3,197.5 244.7,201.5 
		240.1,205.6 236.7,208.7 235.6,209.7 232.4,212.7 231.1,213.9 228.1,216.9 226.8,218.2 223.9,221.1 222.4,222.5 219.7,225.4 
		218.2,227 215.6,229.8 214,231.4 211.5,234.2 209.9,236 207.6,238.7 205.9,240.6 203.6,243.2 201.9,245.2 199.8,247.8 198,250 
		196,252.5 194.2,254.7 192.3,257.2 190.4,259.6 188.6,262 186.8,264.5 185,266.8 183.2,269.4 181.5,271.7 179.6,274.4 178.1,276.7 
		176.2,279.5 174.7,281.7 172.8,284.6 171.4,286.8 169.5,289.8 168.2,291.9 166.3,295 165.1,297.1 163.2,300.3 162,302.3 
		160.1,305.6 159,307.6 157.2,310.9 156.1,312.9 154.3,316.3 153.3,318.2 151.5,321.8 150.6,323.6 148.8,327.3 147.9,329.1 
		146.1,332.8 145.3,334.6 143.6,338.4 142.8,340.1 141.1,344 140.4,345.7 138.8,349.6 138.1,351.3 136.5,355.3 135.8,356.9 
		134.3,361 133.7,362.6 132.1,366.7 131.6,368.3 130.1,372.5 129.6,374.1 128.2,378.3 127.7,379.9 126.3,384.2 125.9,385.7 
		124.6,390 124.2,391.5 122.9,395.9 122.5,397.4 121.3,401.8 121,403.3 119.8,407.8 119.5,409.2 118.1,415.1 116.9,421.1 
		115.7,427.1 114.6,433.1 113.6,439.1 112.7,445.2 111.8,451.2 111.1,457.3 110.5,463.4 109.9,469.4 109.5,475.5 109.1,481.6 
		108.9,487.8 108.7,493.9 108.6,500 108.7,506.1 108.8,512.2 109,518.4 109.3,524.5 109.7,530.6 110.2,536.7 110.7,542.8 
		111.4,548.9 112.2,555 113.1,561.1 114,567.2 115.1,573.2 116.2,579.2 117.4,585.3 118.4,589.9 118.8,591.3 119.8,595.8 
		120.2,597.2 121.3,601.8 121.7,603.2 122.9,607.7 123.3,609.2 124.6,613.6 125,615.1 126.3,619.4 126.8,621 128.2,625.3 
		128.7,626.8 130.1,631.1 130.7,632.7 132.1,636.9 132.7,638.5 134.3,642.6 134.9,644.2 136.5,648.3 137.1,650 138.8,654 
		139.5,655.7 141.1,659.6 141.9,661.4 143.6,665.2 144.4,667 146.1,670.8 147,672.6 148.8,676.3 149.7,678.2 151.5,681.8 
		152.5,683.7 154.3,687.3 155.3,689.2 157.2,692.7 158.3,694.7 160.1,698 161.3,700.1 163.2,703.3 164.4,705.4 166.3,708.6 
		167.6,710.7 169.5,713.8 170.9,716 172.8,719 174.3,721.2 176.2,724.1 177.7,726.4 179.6,729.2 181.3,731.5 183.2,734.2 
		184.9,736.6 186.8,739.1 188.6,741.6 190.4,744 192.4,746.5 194.2,748.9 196.2,751.4 198,753.6 200.2,756.3 201.9,758.4 204.2,761 
		205.9,763 208.3,765.8 209.9,767.6 212.4,770.4 214,772.2 216.7,775 218.2,776.7 221,779.6 222.4,781.1 225.4,784 226.8,785.4 
		229.9,788.5 231.1,789.7 234.4,792.8 235.6,793.9 240.1,798 244.7,802.1 249.3,806.1 254,810.1 258.8,813.9 263.6,817.7 
		268.4,821.4 271.4,823.6 273.4,825.1 278.7,828.8 284,832.5 289.3,836 294.7,839.5 298.8,842.1 300.3,843 304.1,845.2 305.8,846.3 
		309.3,848.3 311.5,849.6 314.7,851.3 317.2,852.7 320.1,854.3 323.1,855.8 325.5,857.1 329,858.9 331,859.9 334.9,861.8 
		336.5,862.5 342,865.1 347.6,867.6 351.7,869.4 353.4,870.1 358.9,872.4 362.1,873.6 363.5,874.3 365.3,875.4 366.9,876.7 
		368.2,878.4 369.3,880.3 370,882.3 370.4,884.4 370.4,886.5 370,888.6 369.3,890.6 368.2,892.5 366.9,894.2 365.3,895.5 
		363.4,896.6 361.4,897.4 359.3,897.8 357.2,897.9 355,897.6 353,897 348,895.3 345.6,894.4 342.6,893.4 338.2,891.8 336.7,891.2 
		333.2,889.9 330.9,889 328.2,887.9 325.1,886.6 323.2,885.8 318.1,883.7 313.1,881.5 309.3,879.7 307.8,879.1 302.2,876.4 
		297.9,874.3 296.6,873.6 292.9,871.7 291,870.8 287.8,869.1 285.5,867.8 282.8,866.4 280,864.8 277.7,863.5 274.5,861.7 
		272.7,860.7 269.1,858.5 267.7,857.7 262.8,854.6 257.8,851.5 252.9,848.3 247.1,844.3 242.7,841.3 237.3,837.4 232,833.4 
		226.8,829.4 223,826.4 221.6,825.3 218.1,822.4 216.6,821.1 213.3,818.4 211.6,816.9 208.6,814.3 206.7,812.6 203.9,810.1 
		201.9,808.2 199.3,805.9 197.1,803.8 194.8,801.6 192.4,799.3 190.3,797.2 187.8,794.7 185.9,792.8 183.3,790.1 181.5,788.3 
		178.9,785.4 177.3,783.7 174.5,780.7 173.1,779.1 170.2,775.8 168.9,774.4 166,771 164.9,769.6 161.9,766 160.9,764.8 157.9,761 
		156.9,759.9 153.1,755 149.3,750 145.6,744.9 142,739.8 138.5,734.7 135,729.4 131.6,724.2 128.3,718.9 125.1,713.5 123.7,708.7 
		139.6,708.7 139.6,691.7 112.7,690.9 110.1,685.8 107.4,680.1 104.7,674.4 102.1,668.6 99.6,662.8 97.2,657 94.9,651.1 92.7,645.2 
		90.6,639.3 88.8,634.1 88.3,632.5 88.3,629.4 88.3,621 88.3,613.5 88.3,606.7 88.3,600.5 88.3,594.9 88.3,589.7 88.3,585 
		88.3,580.6 88.3,576.5 88.3,572.6 88.3,569.1 88.3,565.7 88.3,562.5 88.3,559.5 88.3,556.6 88.3,553.9 88.3,551.4 88.3,548.9 
		88.3,546.5 88.3,544.2 88.3,542.1 88.3,539.9 88.3,537.9 88.3,535.9 88.3,534 88.3,532.2 88.3,530.4 88.3,528.6 88.3,526.9 
		88.3,525.2 88.3,523.6 88.3,522 88.3,520.4 88.3,518.8 88.3,517.3 88.3,515.8 88.3,514.3 88.3,512.8 88.3,511.3 88.3,509.9 
		88.3,508.4 88.3,505.6 88.3,502.7 88.3,499.9 88.3,497 88.3,495.6 88.3,494.1 88.3,492.7 88.3,491.2 88.3,489.7 88.3,488.2 
		88.3,486.6 88.3,485.1 88.3,483.5 88.3,481.9 88.3,480.3 88.3,478.6 88.3,476.9 88.3,475.2 88.3,473.4 88.3,471.5 88.3,469.6 
		88.3,467.7 88.3,465.7 88.3,463.6 88.3,461.4 88.3,459.2 88.3,456.8 88.3,454.4 88.3,451.8 88.3,449.2 88.3,446.4 88.3,443.4 
		88.3,440.3 88.3,437 88.3,433.5 88.3,429.7 88.3,425.7 88.3,421.4 88.3,416.8 88.3,411.8 88.3,406.4 88.3,400.4 88.3,393.9 
		88.3,386.7 88.3,378.6 88.3,371.1 88.8,369.6 90.8,363.7 92.9,357.8 95.1,352 97.4,346.2 99.8,340.4 102.3,334.6 104.8,328.9 
		107.5,323.2 110.2,317.6 113.5,311.9 139.6,311.9 139.6,294.9 122.8,294 125.3,289.8 128.5,284.4 131.9,279 135.4,273.6 
		138.9,268.3 142.5,263.1 146.2,257.9 150,252.7 153.9,247.6 156.9,243.7 157.9,242.6 160.9,238.8 161.9,237.6 164.9,234 166,232.6 
		168.9,229.3 170.2,227.8 173.1,224.6 174.5,223 177.3,219.9 178.9,218.2 181.5,215.3 183.3,213.5 185.9,210.8 187.8,208.9 	"/>
</g>
<g id="LINE_7_">
	<polygon class="st0" points="827.8,238.8 831.8,234 834.7,230.7 835.9,229.2 838.4,226.4 840.1,224.5 842.2,222.2 844.3,219.9 
		846,218.1 848.6,215.3 849.9,214 853.8,210 857.8,206 860.5,203.4 861.9,202 866.5,197.7 869.8,194.7 871.1,193.5 873.9,191 
		875.8,189.3 878,187.4 880.6,185.2 882.1,183.9 886.3,180.5 891,176.7 895.3,173.4 898.9,170.7 900.3,169.6 903.1,167.5 
		905.4,165.8 907.3,164.5 911.5,161.5 915.7,158.6 921,155.1 924.2,153 926.3,151.7 928.5,150.3 932.7,147.7 937.1,145.1 
		941.1,142.7 942.6,141.9 945.3,140.3 948.1,138.8 949.5,138 953.6,135.8 957.8,133.6 959.3,132.8 961.9,131.5 965.9,129.5 
		968.2,128.4 970.7,127.2 974,125.7 976.5,124.5 977.9,123.9 980.3,122.8 981.9,122.3 984.1,121.8 985.8,121.7 988.1,121.8 
		989.7,122.1 991.4,122.6 993.1,123.4 994.3,124.3 995.9,125.8 997.1,127.5 997.9,129.5 998.3,131.3 998.4,132.8 998.2,134.5 
		997.9,136.1 997.4,137.6 996.4,139.6 995.1,141.5 993.6,143.1 992.4,144.2 990.9,145.2 989.1,146.3 987.4,147.2 986.1,147.9 
		983.3,149.3 977.8,152.3 975.1,153.8 971.7,155.7 967.1,158.4 965.1,159.6 961.9,161.5 958.6,163.6 956.6,164.8 951.5,168.1 
		947.9,170.5 946.1,171.7 941.3,175 940.1,175.8 936.3,178.6 934.3,180 931.3,182.2 928.5,184.3 926.4,185.9 922.9,188.6 
		921.6,189.7 916.8,193.5 911.9,197.7 906.9,202 901.8,206.5 898.3,209.7 896.8,211.1 893.9,213.9 891.9,215.8 889.5,218.2 
		887.1,220.5 885.1,222.5 882.5,225.3 880.9,227 877.9,230.2 876.7,231.4 872.6,236 868.5,240.6 864.5,245.2 862.1,248.1 
		860.5,250.1 856.4,255.2 852.4,260.3 848.6,265.6 845.7,269.4 844.8,270.8 842.2,274.4 841.1,276.1 838.7,279.5 837.5,281.5 
		835.4,284.6 833.9,286.9 832.1,289.8 830.5,292.3 828.9,295 827.2,297.8 825.7,300.3 824,303.3 822.7,305.6 820.8,308.9 
		819.7,310.9 817.8,314.5 816.8,316.3 814.9,320.1 814,321.8 812,325.8 811.3,327.3 809.3,331.5 808.6,332.8 806.1,338.4 803.6,344 
		801.2,349.6 798.9,355.3 796.7,361 794.6,366.7 792.6,372.5 790.6,378.3 788.8,384.2 787,390.2 785.3,396.2 783.7,402.2 
		782.2,408.2 780.8,414.3 779.5,420.3 778.2,426.4 777.1,432.5 776.1,438.6 775.1,444.7 774.3,450.8 773.6,457 772.9,463.1 
		772.4,469.2 771.9,475.4 771.6,481.5 771.3,487.6 771.1,493.8 771.1,499.9 771.1,506 771.2,512.1 771.4,518.2 771.7,524.3 
		772.1,530.4 772.6,536.5 773.1,542.5 773.8,548.6 774.6,554.6 775.4,560.6 776.3,566.6 777.4,572.6 778.5,578.5 779.7,584.5 
		781,590.4 782.4,596.2 783.9,602.1 785.4,607.9 787,613.7 788.8,619.6 790.6,625.3 792.6,631.1 794.6,636.9 796.7,642.6 
		798.9,648.3 801.2,654 803.6,659.6 806.1,665.2 808.6,670.8 810.6,674.9 811.3,676.3 813.2,680.3 814,681.8 815.9,685.5 
		816.8,687.3 818.7,690.8 819.7,692.7 821.5,695.9 822.7,698 824.4,701.1 825.7,703.3 827.4,706.1 828.9,708.6 830.4,711.1 
		832.1,713.8 833.5,716.1 835.4,719 836.7,721 838.7,724.1 840,725.9 842.2,729.2 843.3,730.7 845.7,734.2 846.6,735.4 850.1,740.1 
		853.6,744.7 857.1,749.3 860.7,753.8 862.1,755.5 864.5,758.4 868.5,763 872.6,767.6 875.7,771.1 876.7,772.2 879.6,775.3 
		880.9,776.7 883.5,779.4 885.1,781.1 887.5,783.4 889.5,785.4 891.5,787.4 893.9,789.7 895.5,791.3 898.3,793.9 899.6,795.1 
		903.7,798.8 907.9,802.5 912.1,806.1 916.8,810.1 921.6,813.9 924.9,816.5 926.4,817.7 929.2,819.8 931.3,821.4 933.5,823 
		936.3,825 937.8,826.2 942.2,829.2 946.6,832.2 947.9,833.1 951.5,835.5 955.4,838 956.6,838.8 959.8,840.8 961.9,842.1 
		964.2,843.5 967.1,845.2 968.6,846.1 973,848.6 975.1,849.8 977.8,851.3 981.8,853.4 983.3,854.3 986.1,855.7 989.1,857.3 
		990.7,858.2 991.9,859 993,860 994.3,861.2 995.5,862.7 996.6,864.3 997.5,866.3 998,868 998.3,869.7 998.4,871.6 998.2,873 
		997.6,875.1 996.5,877 995.2,878.6 993.7,879.7 992.5,880.5 990.9,881.2 989.2,881.6 987.7,881.9 985.5,881.9 983.2,881.6 
		981.1,881 979.5,880.5 977.9,879.7 976.5,879.1 972.6,877.3 970.7,876.4 968.2,875.2 965,873.6 962.8,872.5 959.3,870.8 
		953.5,867.8 948.1,864.8 945.4,863.3 942.6,861.7 936.2,858 931.7,855.3 929.9,854.2 926.3,851.9 922.7,849.6 921,848.5 915.7,845 
		910.5,841.4 909.1,840.4 905.4,837.8 902.6,835.7 900.3,834 895.3,830.2 890.2,826.3 885.4,822.4 884.3,821.5 880.6,818.4 
		878.6,816.6 875.8,814.3 873,811.7 871.1,810.1 866.5,805.9 861.9,801.6 860.5,800.2 856.9,796.8 853,792.8 851.9,791.7 
		848.6,788.3 847,786.5 844.3,783.7 842.2,781.4 840.1,779.1 837.5,776.1 835.9,774.4 832.9,770.8 831.8,769.6 827.8,764.8 
		823.8,759.9 821.9,757.5 819.8,754.7 815.7,749.3 811.6,743.8 808.8,739.8 807.7,738.2 805.3,734.7 803.9,732.6 801.8,729.4 
		800.2,727 798.4,724.2 796.6,721.3 795.1,718.9 793.1,715.6 791.8,713.5 790.4,708.7 804.1,708.7 804.1,691.7 779.3,690.9 
		776.9,686 774.1,680.4 771.4,674.7 768.8,668.7 766.2,662.7 763.7,656.7 761.3,650.6 759,644.5 757.4,639.9 756.9,638.4 755.3,634 
		754.8,632.3 753.4,628 752.8,626.2 751.5,622.1 750.9,620 749.7,616.1 749.1,613.8 748.1,610 747.4,607.6 746.5,604 745.9,601.4 
		745,597.9 744.4,595.2 743.6,591.8 743,589 742.3,585.7 741.7,582.7 741,579.5 740.5,576.5 739.9,573.4 739.4,570.2 738.9,567.2 
		738.4,564 737.9,561 737.5,557.7 737.1,554.8 736.7,551.4 736.3,548.6 736,545.1 735.7,542.4 735.4,538.8 735.1,536.2 734.8,532.6 
		734.6,529.9 734.4,526.3 734.3,523.7 734.1,520 734,517.4 733.9,513.7 733.8,511.2 733.7,507.5 733.7,504.9 733.7,501.2 
		733.7,498.7 733.8,494.9 733.8,492.4 733.9,488.7 734,486.2 734.2,482.5 734.3,479.9 734.5,476.3 734.6,473.7 734.9,470.1 
		735.1,467.4 735.4,463.9 735.7,461.2 736.1,457.7 736.3,455 736.8,451.5 737.1,448.8 737.6,445.4 737.9,442.6 738.4,439.3 
		738.9,436.4 739.4,433.2 739.9,430.2 740.5,427.1 741,424.1 741.6,421.1 742.3,417.9 742.9,415.1 743.6,411.8 744.2,409.1 
		745,405.7 745.6,403.1 746.5,399.6 747.1,397.2 748.1,393.6 748.7,391.3 749.7,387.5 750.4,385.4 751.5,381.5 752.1,379.6 
		753.4,375.6 754,373.8 755.3,369.6 755.9,368.1 757.4,363.7 757.9,362.3 759.9,356.7 762.1,351 764.3,345.4 766.6,339.9 769,334.4 
		771.7,328.4 774.1,323.2 776.9,317.6 780.2,311.9 804.1,311.9 804.1,294.9 789.5,294 790.7,292 791.8,290.1 793.8,286.9 
		795.1,284.7 796.9,281.9 798.4,279.4 800,276.9 801.8,274.2 803.2,272 805.3,268.9 806.5,267.2 808.8,263.8 809.8,262.4 
		813.2,257.7 816.6,253 820.1,248.4 821.9,246.1 823.7,243.9 823.8,243.7 	"/>
</g>
<g id="LINE_6_">
	<polygon class="st0" points="560.5,210.8 563.4,208 565,206.4 569.5,202 574.9,196.9 579.4,192.8 583.4,189.3 585.1,187.9 
		588.2,185.2 590.9,183 593,181.2 597.9,177.2 603,173.3 607.9,169.5 609.3,168.5 613,165.8 615.9,163.8 618.2,162.2 623.4,158.6 
		625.5,157.2 629.7,154.4 633.9,151.7 637.1,149.7 639.3,148.3 644.8,145 650.2,141.9 653,140.3 655.8,138.8 661.6,135.6 667,132.8 
		671,130.8 672.7,130 675,128.9 678.4,127.2 681.3,125.8 683.4,124.9 685.3,124.2 686.7,123.9 688.2,123.6 690.3,123.5 692.3,123.7 
		693.8,124.1 695.4,124.6 696.9,125.4 698.1,126.3 699.6,127.8 700.7,129.6 701.5,131.6 701.9,133.4 701.9,135 701.7,136.8 
		701.2,138.7 700.6,140.2 699.3,142.3 698.4,143.5 697.5,144.6 696.4,145.6 695.2,146.6 693.7,147.6 692.4,148.3 689.6,149.8 
		685.1,152.3 679.7,155.3 676.6,157.1 674.4,158.4 672.3,159.6 667.9,162.3 663.5,165 661.7,166.2 658.7,168.1 654.8,170.7 
		653.6,171.5 650.5,173.6 648.5,175 646.2,176.6 643.5,178.5 641.8,179.8 637.5,182.9 633.2,186.2 630.4,188.4 628.8,189.7 
		624,193.5 620.6,196.4 619.3,197.5 616.4,200 614.6,201.5 612.2,203.6 610,205.6 608.1,207.3 605.5,209.7 604,211.1 601,213.9 
		600,214.9 596,218.8 592,222.8 588,226.9 583.9,231.4 579.7,236 576.7,239.5 575.7,240.6 572.9,243.8 571.7,245.2 569.3,248.2 
		567.8,250 565.6,252.6 564,254.7 562.1,257.1 560.2,259.6 558.6,261.7 556.5,264.5 555.1,266.4 552.9,269.4 551.7,271.1 
		549.4,274.4 548.4,275.8 545.2,280.6 542,285.5 538.8,290.4 535.7,295.4 532.7,300.4 529.8,305.6 526.8,310.9 523.9,316.3 
		521.1,321.8 518.4,327.3 515.8,332.8 513.2,338.3 511.4,342.5 510.7,344 509,348 508.4,349.6 506.8,353.5 506.1,355.3 504.6,359 
		503.9,361 502.5,364.6 501.7,366.7 500.5,370.3 499.7,372.5 498.6,375.9 497.8,378.3 496.7,381.6 495.9,384.2 495,387.4 494.2,390 
		493.3,393.1 492.5,395.9 491.7,398.9 490.9,401.8 490.2,404.7 489.4,407.8 488.8,410.6 488,413.7 487.4,416.5 486.7,419.7 
		486.2,422.4 485.5,425.7 485,428.3 484.4,431.7 483.9,434.3 483.4,437.8 483,440.2 482.4,443.8 482.1,446.2 481.6,449.9 
		481.3,452.3 480.8,456 480.6,458.3 480.2,462.1 480,464.3 479.6,468.2 479.4,470.4 479.1,474.3 479,476.5 478.8,480.4 478.7,482.6 
		478.5,486.5 478.4,488.7 478.3,492.6 478.2,494.8 478.2,498.7 478.2,500.9 478.2,504.9 478.2,507 478.3,511 478.4,513.2 
		478.5,517.1 478.6,519.3 478.8,523.2 478.9,525.4 479.1,529.3 479.3,531.6 479.6,535.4 479.8,537.7 480.2,541.5 480.4,543.8 
		480.8,547.6 481.1,550 481.6,553.7 481.9,556.1 482.4,559.8 482.8,562.2 483.4,565.8 483.8,568.3 484.4,571.8 484.9,574.4 
		485.5,577.9 486,580.5 486.7,583.9 487.3,586.6 488,589.9 488.7,592.7 489.4,595.8 490.2,598.7 490.9,601.8 491.7,604.8 
		492.5,607.7 493.4,610.8 494.2,613.6 495.1,616.8 495.9,619.4 497,622.8 497.8,625.3 498.9,628.7 499.7,631.1 501,634.6 
		501.7,636.9 503.1,640.6 503.9,642.6 505.4,646.4 506.1,648.3 507.7,652.3 508.4,654 510.1,658.1 510.7,659.6 512.6,663.9 
		513.2,665.2 515.8,670.8 518.4,676.3 521.1,681.8 523.9,687.3 526.8,692.7 530.2,698.7 533,703.6 536.3,709.1 539.7,714.5 
		543.2,720 545.9,724.1 546.8,725.4 549.4,729.2 550.4,730.7 552.9,734.2 554.2,736 556.5,739.1 558.1,741.2 560.2,744 562.1,746.4 
		564,748.9 566.2,751.6 567.8,753.6 570.3,756.7 571.7,758.4 574.6,761.8 575.7,763 579.7,767.6 583.9,772.2 588.7,777.3 
		592.7,781.4 597.5,786.2 601,789.7 602.4,790.9 605.5,793.9 607.4,795.6 610,798 612.5,800.2 614.6,802.1 617.7,804.8 619.3,806.1 
		624,810 628.8,813.9 630.4,815.2 634.2,818.1 638.5,821.4 639.9,822.4 643.5,825 645.8,826.7 648.5,828.6 651.9,830.9 653.6,832.1 
		658.7,835.5 661.7,837.4 664.4,839.2 669.1,842.1 671,843.2 674.4,845.2 677.8,847.2 679.7,848.3 686,851.8 690.5,854.3 
		693.3,855.7 694.8,856.7 696.3,857.9 697.8,859.3 698.7,860.4 700,862.3 701,864.5 701.6,866.3 701.9,867.9 701.9,869.5 
		701.6,871.6 701,873.6 699.9,875.4 698.4,877 696.9,878.2 695.4,878.9 693.8,879.5 691.8,879.9 690.3,880 687.8,879.9 686.3,879.6 
		684.1,878.9 682.7,878.4 679,876.6 677.4,875.9 675,874.7 672.7,873.6 669.4,872 667,870.8 665.3,869.9 660.9,867.6 657.2,865.6 
		655.8,864.8 653,863.3 650.2,861.7 648.9,860.9 644.6,858.5 640.6,856 639.3,855.3 636.4,853.5 633.9,851.9 632.2,850.8 628,848.1 
		625.5,846.4 623.4,845 619.6,842.4 618.2,841.4 615.4,839.5 613,837.8 611.2,836.5 607,833.4 602.7,830.1 597.9,826.4 594.6,823.7 
		593,822.4 590.5,820.3 588.2,818.4 586.4,816.8 583.4,814.3 582.3,813.3 578.2,809.7 574,805.9 569.5,801.6 566.2,798.4 565,797.2 
		562.3,794.5 560.5,792.8 558.4,790.6 556.1,788.3 554.5,786.5 551.8,783.7 550.7,782.4 546.9,778.3 543.1,774 540.5,771 
		539.3,769.6 535.3,764.8 531.4,759.9 528.7,756.4 527.5,755 525.2,751.9 523.7,750 521.7,747.3 520,744.9 518.3,742.6 516.3,739.8 
		515,737.8 512.8,734.6 511.7,733 509.3,729.4 508.5,728.2 505.3,723.2 502.2,718.3 499.2,713.2 497.9,708.7 511.4,708.7 
		511.4,691.7 486.8,690.9 484.4,686 482.4,681.9 481.6,680.4 479.8,676.5 479,674.7 477.3,671.1 476.4,669 474.9,665.6 473.9,663.2 
		472.6,660.1 471.5,657.4 470.3,654.5 469.2,651.6 468.2,648.9 467,645.8 466.1,643.2 464.9,639.9 464,637.5 462.8,634 462.1,631.8 
		460.9,628 460.2,626 459,622 458.5,620.2 457.2,616 456.8,614.4 455.5,610 455.1,608.5 453.6,602.6 452.2,596.6 450.8,590.7 
		449.5,584.7 448.4,578.7 447.3,572.6 446.2,566.5 445.3,560.4 444.5,554.3 443.8,548.2 443.1,542 442.6,535.8 442.1,529.6 
		441.7,523.4 441.4,517.2 441.3,511 441.2,504.7 441.2,498.5 441.3,492.2 441.5,485.9 441.7,479.6 442.1,473.4 442.6,467.1 
		443.2,460.8 443.9,454.5 444.6,448.2 445.5,441.9 446.5,435.7 447.5,429.4 448.7,423.1 450,416.9 451.3,410.6 452.8,404.4 
		454,399.6 454.3,398.2 455.5,393.6 456,392 457.2,387.5 457.7,385.8 459,381.5 459.6,379.6 460.9,375.6 461.6,373.4 462.8,369.6 
		463.6,367.3 464.9,363.7 465.8,361.2 467,357.8 468,355.1 469.2,352 470.4,349 471.5,346.1 472.8,342.9 473.9,340.4 475.4,336.9 
		476.4,334.6 478,330.9 479,328.9 480.8,325 481.6,323.2 483.7,319 484.4,317.6 486.6,313.1 487.7,311.9 511.4,311.9 511.4,294.9 
		497,294 499.5,289.8 503,284 506.6,278.3 509.3,274.2 510.3,272.7 512.8,268.9 514.1,267 516.3,263.8 518,261.5 520,258.7 
		522,255.9 523.7,253.6 526.1,250.4 527.5,248.6 530.4,244.9 531.4,243.7 535.3,238.8 539.3,234 540.5,232.6 543.8,228.8 
		548.5,223.6 551.8,219.9 553.3,218.3 556.1,215.3 558.3,213.1 	"/>
</g>
<g id="LINE_4_">
	<polygon class="st1" points="622,746.4 619.9,744.2 618.2,742.4 616.1,740.2 614.5,738.4 612.4,736.1 610.8,734.3 608.8,732 
		607.2,730.1 605.2,727.8 603.7,725.9 601.7,723.6 600.2,721.7 598.3,719.3 596.8,717.4 594.9,714.9 593.5,713 591.6,710.5 
		590.2,708.6 588.4,706.1 587,704.1 585.2,701.6 583.8,699.6 582.1,697.1 580.7,695.1 579,692.5 577.7,690.5 576.1,687.9 
		574.8,685.8 573.1,683.2 571.9,681.1 570.3,678.5 569.1,676.4 567.6,673.7 566.4,671.6 564.9,668.9 563.7,666.8 562.2,664.1 
		561.1,661.9 559.7,659.2 558.6,657.1 557.2,654.3 556.2,652.1 554.8,649.4 553.8,647.2 552.5,644.4 551.5,642.2 550.3,639.4 
		549.3,637.1 548.1,634.3 547.2,632.1 546,629.2 545.1,627 544,624.1 543.1,621.8 541.7,617.9 540.8,615.6 540.2,613.8 539.2,610.9 
		538.4,608.6 537.4,605.7 536.7,603.4 536,601 535.1,598.1 534.4,595.8 533.5,592.8 532.9,590.5 532,587.5 531.4,585.2 530.6,582.2 
		530.1,579.9 529.3,576.9 528.8,574.5 528.1,571.5 527.6,569.1 527,566.1 526.5,563.8 525.9,560.7 525.5,558.4 524.9,555.3 
		524.5,552.9 524,549.9 523.6,547.5 523.2,544.5 522.8,542.1 522.4,539 522.1,536.6 521.8,533.6 521.5,531.1 521.2,528.1 521,525.7 
		520.7,522.6 520.5,520.2 520.3,517.1 520.1,514.7 520,511.6 519.8,509.2 519.7,506.1 519.6,503.7 519.5,500.6 519.5,498.2 
		519.5,495.1 519.5,492.7 519.5,489.6 519.5,487.2 519.5,484.1 519.6,481.7 519.7,478.6 519.8,476.2 520,473.2 520.1,470.7 
		520.3,467.7 520.5,465.3 520.7,462.2 520.9,459.8 521.2,456.7 521.5,454.3 521.8,451.2 522.1,448.8 522.4,445.8 522.8,442.7 
		523.2,440.3 523.6,437.3 524,434.9 524.4,432.5 524.9,429.5 525.3,427.1 525.9,424.1 526.4,421.7 527,418.7 527.5,416.3 
		528.1,413.3 528.6,410.9 529.3,407.9 529.9,405.6 530.6,402.6 531.3,400.2 532,397.3 532.7,394.9 533.5,392 534.2,389.6 
		535.1,386.7 535.8,384.4 536.7,381.4 537.4,379.1 538.4,376.2 539.2,373.9 540.2,371 541,368.7 542,365.8 542.9,363.6 544,360.7 
		544.9,358.4 546,355.6 546.9,353.3 548.1,350.5 549.1,348.3 550.3,345.4 551.3,343.2 552.5,340.4 553.5,338.2 554.8,335.4 
		555.9,333.3 557.2,330.5 558.3,328.3 559.7,325.6 560.8,323.4 562.2,320.7 563.4,318.6 564.9,315.9 566,313.7 567.6,311.1 
		568.8,309 570.3,306.3 571.6,304.2 573.1,301.6 574.4,299.5 576.1,296.9 577.4,294.9 579,292.3 580.4,290.3 582.1,287.7 
		583.4,285.7 585.2,283.2 586.6,281.2 588.4,278.7 589.8,276.7 591.6,274.3 593.1,272.3 594.9,269.9 596.4,268 598.3,265.5 
		599.8,263.6 601.7,261.2 603.3,259.4 605.2,257 606.8,255.2 608.8,252.8 610.4,251 612.4,248.7 614.1,246.9 616.1,244.6 
		617.8,242.8 619.9,240.6 621.6,238.9 623.7,236.6 625.4,234.9 627.6,232.7 629.3,231 631.5,228.9 633.3,227.2 635.5,225.1 
		637.3,223.5 639.5,221.4 641.4,219.8 643.6,217.7 645.5,216.1 647.8,214.1 649.7,212.6 652,210.6 653.9,209 656.3,207.1 
		658.2,205.6 660.6,203.7 662.5,202.2 665,200.3 666.9,198.9 669.4,197.1 671.3,195.7 673.8,193.9 675.8,192.5 678.3,190.7 
		680.3,189.4 682.9,187.6 684.9,186.3 687.5,184.6 689.5,183.3 692.2,181.7 694.2,180.4 696.8,178.8 698.9,177.6 701.6,176 
		703.7,174.8 706.4,173.3 708.5,172.1 711.2,170.6 713.3,169.5 716,168.1 718.2,167 720.9,165.5 723.1,164.5 725.9,163.1 728,162.1 
		730.8,160.8 733,159.7 735.9,158.5 738.1,157.5 740.9,156.3 743.1,155.3 745.9,154.1 748.2,153.2 751,152.1 753.3,151.2 
		756.2,150.1 758.1,149.4 760.1,148.8 762.2,148.7 764.4,149 766.5,149.8 768.5,150.9 770,152.3 771.1,153.5 772.2,155 773,156.9 
		773.6,158.4 774.1,160.8 774.3,163.3 774.2,165 773.9,167 773.3,169 772.7,170.4 771.4,172.6 770,174.3 768.9,175.3 767.3,176.4 
		765.8,177.1 763,178.4 760.4,179.4 753,164 737.6,171.3 745.3,187.1 744.2,188 742.3,189 739.5,190.6 737.6,191.6 734.9,193.2 
		733.1,194.3 730.4,195.9 728.5,197.1 725.9,198.7 724,199.9 721.4,201.6 719.5,202.8 716.9,204.5 715.1,205.7 712.6,207.5 
		710.8,208.7 708.2,210.6 706.4,211.8 703.9,213.7 702.2,215 699.7,216.9 697.9,218.2 695.5,220.2 693.8,221.5 690.4,223.2 
		679,210.5 666.4,221.9 677.4,235.4 675.3,237.4 673.7,238.9 671.4,241 669.8,242.5 667.6,244.7 666,246.2 663.8,248.5 662.3,250 
		660.1,252.3 658.6,253.8 656.4,256.1 654.9,257.7 652.8,260 651.4,261.7 649.3,264 647.9,265.7 645.8,268 644.4,269.7 642.4,272.1 
		641,273.8 639.1,276.3 637.7,278 635.8,280.4 634.5,282.2 632.6,283.4 615.8,273.2 607,287.7 622.6,297.2 622.1,299.5 620.4,302.1 
		619.2,303.9 617.5,306.5 616.3,308.4 614.7,311 613.5,312.9 611.9,315.6 610.8,317.5 609.3,320.2 608.2,322.1 606.7,324.8 
		605.6,326.7 604.1,329.5 603.1,331.4 601.7,334.2 600.7,336.1 599.3,338.9 598.3,340.9 597,343.7 596,345.7 594.7,348.5 
		593.8,350.5 592.6,353.4 590.7,355.8 570.9,349.2 565.4,365.3 584.3,371.6 584.6,373.1 583.9,375.2 582.9,378.1 582.1,380.2 
		581.1,383.2 580.5,385.2 579.5,388.2 578.9,390.3 578,393.3 577.3,395.4 576.5,398.4 575.9,400.5 575.1,403.5 574.5,405.6 
		573.7,408.7 573.2,410.8 572.5,413.8 572,416 571.3,419 570.9,421.2 570.3,424.2 569.8,426.4 569.3,429.4 568.9,431.6 568.3,434.7 
		567.1,436.8 546,434.4 544,451.3 564.8,453.7 565.4,455.7 565.2,457.9 564.9,461 564.7,463.2 564.5,466.3 564.3,468.5 564.1,471.6 
		564,473.8 563.8,476.9 563.7,479.1 563.6,482.2 563.6,484.4 563.5,487.6 563.5,489.7 563.5,492.9 563.5,495.1 563.5,498.2 
		563.6,500.4 563.7,503.5 563.7,505.7 563.9,508.8 564,511 564.2,514.1 564.3,516.3 564.5,519.4 563.9,522 542.9,524.3 544.8,541.2 
		565.8,538.9 566.8,540.5 567.1,542.7 567.6,545.8 568,548 568.5,551 568.9,553.2 569.4,556.3 569.8,558.4 570.4,561.5 570.9,563.6 
		571.5,566.7 572,568.8 572.7,571.9 573.2,574 574,577 574.5,579.2 575.3,582.2 575.9,584.3 576.7,587.3 577.3,589.4 578.2,592.4 
		578.9,594.5 579.8,597.5 580.5,599.6 581.4,602.5 581.3,604.8 562.2,611.2 567.5,627.3 587.3,620.8 588.8,622.5 589.6,624.5 
		590.8,627.4 591.7,629.4 592.9,632.3 593.8,634.3 595.1,637.1 596,639.1 597.4,641.9 598.3,643.9 599.7,646.7 600.7,648.6 
		602.1,651.4 603.1,653.4 604.6,656.1 605.6,658.1 607.1,660.8 608.2,662.7 609.7,665.4 610.8,667.3 612.4,670 613.5,671.9 
		615.2,674.6 616.3,676.4 618,679.1 617.9,680.5 601.9,689.8 610.5,704.5 628.8,694.9 630,696.6 631.3,698.4 633.2,700.9 
		634.5,702.6 636.4,705.1 637.7,706.8 639.7,709.3 641,711 643,713.4 644.4,715.1 646.5,717.5 647.9,719.1 649.9,721.5 651.4,723.1 
		653.5,725.4 654.9,727.1 657.1,729.4 658.6,730.9 660.7,733.2 662.3,734.8 664.5,737 666,738.5 668.2,740.7 669.8,742.3 
		671.9,745.4 660.3,757.5 672.6,769.3 685.8,756.7 688,758.5 689.6,759.9 692.1,761.9 693.8,763.3 696.2,765.2 697.9,766.6 
		700.4,768.5 702.2,769.8 704.7,771.7 706.4,773 709,774.8 710.8,776 713.3,777.8 715.1,779.1 717.7,780.8 719.5,782 722.2,783.7 
		724,784.9 726.7,786.6 728.5,787.7 731.2,789.4 733.1,790.5 735.8,792.1 737.6,793.2 740.1,794.5 731.7,812.1 747.1,819.4 
		755.1,802.6 756.4,803.2 759.2,804.5 761.2,805.5 763,806.3 766.3,807.9 767.7,808.6 769.4,809.9 770.8,811.5 772.1,813.3 
		773.2,815.5 773.8,817.3 774.1,819 774.3,820.7 774.3,822.9 773.9,825.2 773.3,827.3 772.7,828.7 771.8,830.2 770.8,831.7 
		769.8,832.7 768.2,834.1 766.3,835.1 764.3,835.8 762.2,836.1 760.1,835.9 757.9,835.3 756.2,834.7 753.9,833.8 751,832.7 
		748.8,831.8 745.9,830.7 743.7,829.7 740.9,828.5 738.7,827.6 735.9,826.3 733.7,825.3 730.8,824 728.6,823 725.9,821.7 
		723.7,820.6 720.9,819.2 718.8,818.1 716,816.7 713.9,815.6 711.2,814.1 709.1,813 706.4,811.5 704.3,810.3 701.6,808.8 
		699.5,807.5 696.8,806 694.8,804.7 692.2,803.1 690.1,801.8 687.5,800.2 685.5,798.9 682.9,797.2 680.9,795.8 678.3,794.1 
		676.4,792.7 673.8,790.9 671.9,789.5 669.4,787.7 667.4,786.3 665,784.4 663,783 660.6,781.1 658.7,779.6 656.3,777.7 654.4,776.2 
		652,774.2 650.2,772.7 647.8,770.7 646,769.1 643.6,767.1 641.8,765.5 639.5,763.4 637.8,761.8 635.5,759.7 633.7,758 631.5,755.9 
		629.8,754.2 627.6,752.1 625.9,750.3 623.7,748.2 	"/>
</g>
<g id="LINE_5_">
	<polygon class="st1" points="978.8,746.4 976.7,744.2 975,742.4 972.9,740.2 971.3,738.4 969.2,736.1 967.6,734.3 965.6,732 
		964,730.1 962,727.8 960.5,725.9 958.5,723.6 957,721.7 955.1,719.3 953.6,717.4 951.7,714.9 950.3,713 948.4,710.5 947,708.6 
		945.2,706.1 943.8,704.1 942,701.6 940.6,699.6 938.9,697.1 937.5,695.1 935.8,692.5 934.5,690.5 932.9,687.9 931.6,685.8 
		929.9,683.2 928.7,681.1 927.1,678.5 925.9,676.4 924.4,673.7 923.2,671.6 921.7,668.9 920.5,666.8 919,664.1 917.9,661.9 
		916.5,659.2 915.4,657.1 914,654.3 913,652.1 911.6,649.4 910.6,647.2 909.3,644.4 908.3,642.2 907.1,639.4 906.1,637.1 
		904.9,634.3 904,632.1 902.8,629.2 901.9,627 900.8,624.1 899.9,621.8 898.5,617.9 897.6,615.6 897,613.8 896,610.9 895.2,608.6 
		894.2,605.7 893.5,603.4 892.8,601 891.9,598.1 891.2,595.8 890.3,592.8 889.7,590.5 888.8,587.5 888.2,585.2 887.4,582.2 
		886.9,579.9 886.1,576.9 885.6,574.5 884.9,571.5 884.4,569.1 883.8,566.1 883.3,563.8 882.7,560.7 882.3,558.4 881.7,555.3 
		881.3,552.9 880.8,549.9 880.4,547.5 880,544.5 879.6,542.1 879.2,539 878.9,536.6 878.6,533.6 878.3,531.1 878,528.1 877.8,525.7 
		877.5,522.6 877.3,520.2 877.1,517.1 876.9,514.7 876.8,511.6 876.6,509.2 876.5,506.1 876.4,503.7 876.3,500.6 876.3,498.2 
		876.3,495.1 876.3,492.7 876.3,489.6 876.3,487.2 876.3,484.1 876.4,481.7 876.5,478.6 876.6,476.2 876.8,473.2 876.9,470.7 
		877.1,467.7 877.3,465.3 877.5,462.2 877.7,459.8 878,456.7 878.3,454.3 878.6,451.2 878.9,448.8 879.2,445.8 879.6,442.7 
		880,440.3 880.4,437.3 880.8,434.9 881.2,432.5 881.7,429.5 882.1,427.1 882.7,424.1 883.2,421.7 883.8,418.7 884.3,416.3 
		884.9,413.3 885.4,410.9 886.1,407.9 886.7,405.6 887.4,402.6 888.1,400.2 888.8,397.3 889.5,394.9 890.3,392 891,389.6 
		891.9,386.7 892.6,384.4 893.5,381.4 894.2,379.1 895.2,376.2 896,373.9 897,371 897.8,368.7 898.8,365.8 899.7,363.6 900.8,360.7 
		901.7,358.4 902.8,355.6 903.7,353.3 904.9,350.5 905.9,348.3 907.1,345.4 908.1,343.2 909.3,340.4 910.3,338.2 911.6,335.4 
		912.7,333.3 914,330.5 915.1,328.3 916.5,325.6 917.6,323.4 919,320.7 920.2,318.6 921.7,315.9 922.8,313.7 924.4,311.1 925.6,309 
		927.1,306.3 928.4,304.2 929.9,301.6 931.2,299.5 932.9,296.9 934.2,294.9 935.8,292.3 937.2,290.3 938.9,287.7 940.2,285.7 
		942,283.2 943.4,281.2 945.2,278.7 946.6,276.7 948.4,274.3 949.9,272.3 951.7,269.9 953.2,268 955.1,265.5 956.6,263.6 
		958.5,261.2 960.1,259.4 962,257 963.6,255.2 965.6,252.8 967.2,251 969.2,248.7 970.9,246.9 972.9,244.6 974.6,242.8 976.7,240.6 
		978.4,238.9 980.5,236.6 982.2,234.9 984.4,232.7 986.1,231 988.3,228.9 990.1,227.2 992.3,225.1 994.1,223.5 996.3,221.4 
		998.2,219.8 1000.4,217.7 1002.3,216.1 1004.6,214.1 1006.5,212.6 1008.8,210.6 1010.7,209 1013.1,207.1 1015,205.6 1017.4,203.7 
		1019.3,202.2 1021.8,200.3 1023.7,198.9 1026.2,197.1 1028.1,195.7 1030.6,193.9 1032.6,192.5 1035.1,190.7 1037.1,189.4 
		1039.7,187.6 1041.7,186.3 1044.3,184.6 1046.3,183.3 1049,181.7 1051,180.4 1053.6,178.8 1055.7,177.6 1058.4,176 1060.5,174.8 
		1063.2,173.3 1065.3,172.1 1068,170.6 1070.1,169.5 1072.8,168.1 1075,167 1077.7,165.5 1079.9,164.5 1082.7,163.1 1084.8,162.1 
		1087.6,160.8 1089.8,159.7 1092.7,158.5 1094.9,157.5 1097.7,156.3 1099.9,155.3 1102.7,154.1 1105,153.2 1107.8,152.1 
		1110.1,151.2 1113,150.1 1114.9,149.4 1116.9,148.8 1119,148.7 1121.2,149 1123.3,149.8 1125.3,150.9 1126.8,152.3 1127.9,153.5 
		1129,155 1129.8,156.9 1130.4,158.4 1130.9,160.8 1131.1,163.3 1131,165 1130.7,167 1130.1,169 1129.5,170.4 1128.2,172.6 
		1126.8,174.3 1125.7,175.3 1124.1,176.4 1122.6,177.1 1119.8,178.4 1117.2,179.4 1109.7,164 1094.3,171.3 1102.1,187.1 1101,188 
		1099.1,189 1096.3,190.6 1094.4,191.6 1091.7,193.2 1089.9,194.3 1087.2,195.9 1085.3,197.1 1082.7,198.7 1080.8,199.9 
		1078.2,201.6 1076.3,202.8 1073.7,204.5 1071.9,205.7 1069.4,207.5 1067.6,208.7 1065,210.6 1063.2,211.8 1060.7,213.7 1059,215 
		1056.5,216.9 1054.7,218.2 1052.3,220.2 1050.6,221.5 1047.2,223.2 1035.8,210.5 1023.2,221.9 1034.2,235.4 1032.1,237.4 
		1030.5,238.9 1028.2,241 1026.6,242.5 1024.4,244.7 1022.8,246.2 1020.6,248.5 1019.1,250 1016.9,252.3 1015.4,253.8 1013.2,256.1 
		1011.7,257.7 1009.6,260 1008.2,261.7 1006.1,264 1004.7,265.7 1002.6,268 1001.2,269.7 999.2,272.1 997.8,273.8 995.9,276.3 
		994.5,278 992.6,280.4 991.3,282.2 989.4,283.4 972.6,273.2 963.8,287.7 979.4,297.2 978.9,299.5 977.2,302.1 976,303.9 
		974.3,306.5 973.1,308.4 971.5,311 970.3,312.9 968.7,315.6 967.6,317.5 966.1,320.2 965,322.1 963.5,324.8 962.4,326.7 
		960.9,329.5 959.9,331.4 958.5,334.2 957.5,336.1 956.1,338.9 955.1,340.9 953.8,343.7 952.8,345.7 951.5,348.5 950.6,350.5 
		949.4,353.4 947.5,355.8 927.7,349.2 922.2,365.3 941.1,371.6 941.4,373.1 940.7,375.2 939.7,378.1 938.9,380.2 937.9,383.2 
		937.3,385.2 936.3,388.2 935.7,390.3 934.8,393.3 934.1,395.4 933.3,398.4 932.7,400.5 931.9,403.5 931.3,405.6 930.5,408.7 
		930,410.8 929.3,413.8 928.8,416 928.1,419 927.7,421.2 927.1,424.2 926.6,426.4 926.1,429.4 925.7,431.6 925.1,434.7 923.9,436.8 
		902.8,434.4 900.8,451.3 921.6,453.7 922.2,455.7 922,457.9 921.7,461 921.5,463.2 921.3,466.3 921.1,468.5 920.9,471.6 
		920.8,473.8 920.6,476.9 920.5,479.1 920.4,482.2 920.4,484.4 920.3,487.6 920.3,489.7 920.3,492.9 920.3,495.1 920.3,498.2 
		920.4,500.4 920.5,503.5 920.5,505.7 920.7,508.8 920.8,511 921,514.1 921.1,516.3 921.3,519.4 920.7,522 899.7,524.3 901.6,541.2 
		922.6,538.9 923.6,540.5 923.9,542.7 924.4,545.8 924.8,548 925.3,551 925.7,553.2 926.2,556.3 926.6,558.4 927.2,561.5 
		927.7,563.6 928.3,566.7 928.8,568.8 929.5,571.9 930,574 930.8,577 931.3,579.2 932.1,582.2 932.7,584.3 933.5,587.3 934.1,589.4 
		935,592.4 935.7,594.5 936.6,597.5 937.3,599.6 938.2,602.5 938.1,604.8 919,611.2 924.3,627.3 944.1,620.8 945.6,622.5 
		946.4,624.5 947.6,627.4 948.5,629.4 949.7,632.3 950.6,634.3 951.9,637.1 952.8,639.1 954.2,641.9 955.1,643.9 956.5,646.7 
		957.5,648.6 958.9,651.4 959.9,653.4 961.4,656.1 962.4,658.1 963.9,660.8 965,662.7 966.5,665.4 967.6,667.3 969.2,670 
		970.3,671.9 972,674.6 973.1,676.4 974.8,679.1 974.7,680.5 958.7,689.8 967.3,704.5 985.6,694.9 986.8,696.6 988.1,698.4 
		990,700.9 991.3,702.6 993.2,705.1 994.5,706.8 996.5,709.3 997.8,711 999.8,713.4 1001.2,715.1 1003.3,717.5 1004.7,719.1 
		1006.7,721.5 1008.2,723.1 1010.3,725.4 1011.7,727.1 1013.9,729.4 1015.4,730.9 1017.5,733.2 1019.1,734.8 1021.3,737 
		1022.8,738.5 1025,740.7 1026.6,742.3 1028.7,745.4 1017.1,757.5 1029.4,769.3 1042.6,756.7 1044.8,758.5 1046.4,759.9 
		1048.9,761.9 1050.6,763.3 1053,765.2 1054.7,766.6 1057.2,768.5 1059,769.8 1061.5,771.7 1063.2,773 1065.8,774.8 1067.6,776 
		1070.1,777.8 1071.9,779.1 1074.5,780.8 1076.3,782 1079,783.7 1080.8,784.9 1083.5,786.6 1085.3,787.7 1088,789.4 1089.9,790.5 
		1092.6,792.1 1094.4,793.2 1096.8,794.5 1088.5,812.1 1103.9,819.4 1111.8,802.6 1113.2,803.2 1116,804.5 1118,805.5 1119.8,806.3 
		1123.1,807.9 1124.5,808.6 1126.2,809.9 1127.6,811.5 1128.9,813.3 1130,815.5 1130.6,817.3 1130.9,819 1131.1,820.7 1131.1,822.9 
		1130.7,825.2 1130.1,827.3 1129.5,828.7 1128.6,830.2 1127.6,831.7 1126.6,832.7 1125,834.1 1123.1,835.1 1121.1,835.8 1119,836.1 
		1116.9,835.9 1114.7,835.3 1113,834.7 1110.7,833.8 1107.8,832.7 1105.6,831.8 1102.7,830.7 1100.5,829.7 1097.7,828.5 
		1095.5,827.6 1092.7,826.3 1090.5,825.3 1087.6,824 1085.4,823 1082.7,821.7 1080.5,820.6 1077.7,819.2 1075.6,818.1 1072.8,816.7 
		1070.7,815.6 1068,814.1 1065.9,813 1063.2,811.5 1061.1,810.3 1058.4,808.8 1056.3,807.5 1053.6,806 1051.6,804.7 1049,803.1 
		1046.9,801.8 1044.3,800.2 1042.3,798.9 1039.7,797.2 1037.7,795.8 1035.1,794.1 1033.2,792.7 1030.6,790.9 1028.7,789.5 
		1026.2,787.7 1024.2,786.3 1021.8,784.4 1019.8,783 1017.4,781.1 1015.5,779.6 1013.1,777.7 1011.2,776.2 1008.8,774.2 1007,772.7 
		1004.6,770.7 1002.8,769.1 1000.4,767.1 998.6,765.5 996.3,763.4 994.6,761.8 992.3,759.7 990.5,758 988.3,755.9 986.6,754.2 
		984.4,752.1 982.7,750.3 980.5,748.2 	"/>
</g>
<g id="LINE_3_">
	<polygon class="st0" points="1460.5,257.8 1463.5,253.6 1467.3,248.6 1471.2,243.7 1474.1,240 1475.1,238.8 1477.8,235.5 
		1479.1,234 1481.6,231.1 1483.2,229.2 1485.4,226.7 1487.3,224.5 1489.3,222.4 1491.6,219.9 1493.2,218.2 1495.8,215.3 1497.1,214 
		1501.1,209.9 1505.2,205.9 1510.1,201.1 1513.7,197.7 1518.3,193.5 1521.7,190.5 1523,189.3 1525.9,186.8 1527.8,185.2 
		1530.2,183.2 1532.6,181.2 1534.4,179.7 1537.5,177.2 1538.7,176.2 1543,172.9 1547.4,169.5 1552.5,165.8 1556.1,163.2 
		1557.6,162.2 1560.5,160.1 1562.8,158.6 1564.9,157.2 1568,155.1 1569.3,154.2 1573.7,151.4 1575.6,150.2 1579.2,147.9 
		1581.6,146.5 1583.1,145.7 1584.6,144.9 1586.1,144.2 1587.8,143.7 1589.2,143.3 1590.8,142.9 1592.3,142.7 1593.7,142.6 
		1595.7,142.6 1597.8,142.9 1599.4,143.4 1601.1,144.3 1602.5,145.3 1603.6,146.5 1604.4,147.9 1604.9,149.4 1605.1,151 
		1605.1,152.8 1604.8,154.3 1604.1,156.5 1603.5,157.9 1602.8,159.2 1602,160.4 1600.9,161.9 1599.9,163.1 1598.9,164.1 
		1597.7,165.3 1596,166.7 1594.6,167.8 1592.8,169 1589.1,171.5 1586.2,173.5 1584,175 1580.8,177.3 1579,178.5 1575.5,181.2 
		1574.1,182.2 1569.2,185.9 1564.4,189.7 1559.7,193.5 1555,197.5 1552.4,199.6 1550.2,201.6 1545.4,205.9 1540.7,210.2 
		1536.1,214.6 1531.5,219.1 1528.1,222.5 1527,223.6 1523.8,226.9 1522.6,228.2 1519.7,231.4 1518.3,232.9 1515.5,236 1514.1,237.6 
		1511.5,240.6 1509.9,242.4 1507.5,245.2 1505.9,247.2 1503.6,250 1501.9,252.1 1499.8,254.7 1498,257.1 1496.1,259.6 1494.2,262.1 
		1492.4,264.5 1490.4,267.1 1488.8,269.4 1486.8,272.3 1485.3,274.4 1483.2,277.4 1481.8,279.5 1479.7,282.6 1478.4,284.6 
		1476.3,287.9 1475.2,289.8 1473,293.2 1471.9,295 1469.8,298.6 1468.8,300.3 1466.7,304 1465.8,305.6 1463.6,309.4 1462.8,310.9 
		1460.7,314.9 1459.9,316.3 1457.8,320.4 1457.1,321.8 1454.4,327.3 1451.7,332.8 1449.2,338.3 1446.7,344 1444.4,349.6 
		1442.1,355.3 1439.9,361 1437.8,366.7 1435.7,372.5 1433.8,378.3 1431.9,384.2 1430.2,390 1428.5,395.9 1426.9,401.8 1425.4,407.8 
		1424,413.7 1422.7,419.7 1421.5,425.7 1420.4,431.7 1419.4,437.8 1418.4,443.8 1417.6,449.9 1416.9,456 1416.2,462.1 1415.6,468.2 
		1415.2,474.3 1414.8,480.4 1414.5,486.5 1414.3,492.6 1414.2,498.7 1414.2,504.9 1414.3,511 1414.5,517.1 1414.8,523.2 
		1415.2,529.3 1415.6,535.4 1416.2,541.5 1416.9,547.6 1417.6,553.7 1418.4,559.8 1419.4,565.8 1420.4,571.8 1421.5,577.9 
		1422.7,583.9 1424,589.9 1425.4,595.8 1426.9,601.8 1428.5,607.7 1430.2,613.6 1431.9,619.4 1433.8,625.3 1435.7,631.1 
		1437.8,636.9 1439.9,642.6 1442.1,648.3 1444.4,654 1446.7,659.6 1449.2,665.2 1451.7,670.8 1454.4,676.3 1456.5,680.5 
		1457.1,681.8 1459.2,685.9 1459.9,687.3 1462,691.2 1462.8,692.7 1464.9,696.5 1465.8,698 1467.9,701.7 1468.8,703.3 1470.9,706.9 
		1471.9,708.6 1474,712 1475.2,713.8 1477.2,717.1 1478.4,719 1480.5,722.1 1481.8,724.1 1483.8,727.1 1485.3,729.2 1487.3,732 
		1488.8,734.2 1490.7,736.9 1492.4,739.1 1494.3,741.7 1496.1,744 1497.9,746.4 1499.8,748.9 1501.6,751.1 1503.6,753.6 
		1505.3,755.7 1507.5,758.4 1509.1,760.3 1511.5,763 1513,764.7 1515.5,767.6 1517,769.2 1519.7,772.2 1520.9,773.5 1523.8,776.6 
		1525,777.8 1529.1,782.1 1533.3,786.2 1537.5,790.3 1541.7,794.4 1546.1,798.3 1550.4,802.2 1552.4,803.9 1555,806.1 1559.7,810 
		1564.4,813.9 1569.2,817.7 1573,820.5 1574.1,821.4 1577.6,824 1579,825 1582.2,827.3 1584,828.6 1586.9,830.6 1589.1,832.1 
		1591.6,833.8 1593.6,835.1 1595.2,836.3 1596.4,837.2 1597.7,838.3 1598.9,839.4 1600.1,840.7 1601.1,841.9 1602,843.1 
		1602.8,844.4 1603.5,845.7 1604.3,847.5 1604.9,849.5 1605.1,851.2 1605.1,853.1 1604.7,854.8 1604.1,856.2 1603.2,857.6 
		1602.1,858.7 1600.7,859.6 1599,860.3 1597.5,860.7 1595.2,861 1593.7,861 1592.3,860.9 1590.8,860.7 1589.2,860.3 1587.6,859.9 
		1586.1,859.3 1584.6,858.7 1583.1,857.9 1581.6,857.1 1578.1,855 1575.6,853.4 1572.7,851.5 1568,848.5 1566.1,847.3 1562.8,845 
		1559.8,842.9 1557.6,841.4 1552.5,837.8 1547.1,833.8 1541.6,829.6 1537.5,826.4 1535.9,825.1 1532.6,822.4 1530.3,820.5 
		1527.8,818.4 1524.8,815.8 1523,814.3 1519.4,811.1 1518.3,810.1 1513.7,805.9 1510.1,802.5 1509,801.5 1504,796.6 1500.2,792.8 
		1499.1,791.6 1495.8,788.3 1494.3,786.7 1491.6,783.7 1489.7,781.6 1487.3,779 1485.1,776.5 1483.2,774.3 1480.6,771.4 
		1479.1,769.6 1476.2,766.2 1475.1,764.8 1471.2,759.9 1467.3,755 1463.5,750 1459.8,744.8 1455.9,739.4 1452.1,733.9 1448.5,728.4 
		1445.8,724.2 1444.9,722.8 1442.5,718.9 1441.5,717.2 1439.2,713.5 1438.1,711.6 1436.3,708.7 1450.2,708.7 1450.2,691.7 
		1426.9,691.2 1425.6,688.6 1424.3,686 1422.7,682.7 1421.6,680.4 1419.9,676.8 1418.9,674.7 1417.2,670.9 1416.3,669 1414.6,665 
		1413.9,663.2 1412.1,659 1411.5,657.4 1409.7,653 1409.2,651.6 1407,645.8 1404.8,639.9 1402.8,634 1400.8,628 1399,622 
		1397.2,616 1395.5,610 1393.9,604 1392.5,597.9 1391,591.8 1390.2,588 1389.7,585.6 1388.5,579.4 1387.4,573.2 1386.3,566.9 
		1385.4,560.7 1384.5,554.4 1383.8,548.2 1383.1,541.9 1382.6,535.6 1382.1,529.3 1381.7,523.1 1381.5,516.8 1381.3,510.5 
		1381.2,504.3 1381.2,498 1381.3,491.8 1381.5,485.5 1381.8,479.3 1382.2,473.1 1382.7,466.9 1383.2,460.7 1383.9,454.5 
		1384.6,448.4 1385.5,442.2 1386.4,436.1 1387.4,430 1388.5,423.9 1389.7,417.9 1390.2,415.6 1391,411.8 1392.5,405.7 1393.9,399.6 
		1395.5,393.6 1397.2,387.5 1399,381.5 1400.8,375.6 1402.8,369.6 1404.8,363.7 1407,357.8 1409.2,352 1410.9,347.6 1411.5,346.1 
		1413.2,342 1413.9,340.4 1415.6,336.4 1416.3,334.6 1418,330.9 1418.9,328.9 1420.5,325.4 1421.6,323.2 1423.1,320 1424.3,317.6 
		1425.8,314.6 1427,311.9 1450.2,311.9 1450.2,294.9 1436.2,294.9 1437.3,293.5 1439.2,290.1 1440.3,288.3 1442.5,284.7 
		1443.4,283.2 1445.8,279.4 1446.6,278.2 1449.8,273.2 1453.1,268.3 1456.4,263.4 	"/>
</g>
<g id="LINE_2_">
	<polygon class="st0" points="1699.8,257.8 1702.8,253.6 1706.6,248.6 1710.5,243.7 1713.4,240 1714.4,238.8 1717.1,235.5 
		1718.4,234 1720.9,231.1 1722.5,229.2 1724.7,226.7 1726.6,224.5 1728.6,222.4 1730.9,219.9 1732.5,218.2 1735.1,215.3 1736.4,214 
		1740.4,209.9 1744.5,205.9 1749.4,201.1 1753,197.7 1757.6,193.5 1761,190.5 1762.3,189.3 1765.2,186.8 1767.1,185.2 1769.5,183.2 
		1771.9,181.2 1773.7,179.7 1776.8,177.2 1778,176.2 1782.3,172.9 1786.7,169.5 1791.8,165.8 1795.4,163.2 1796.9,162.2 
		1799.8,160.1 1802.1,158.6 1804.2,157.2 1807.3,155.1 1808.6,154.2 1813,151.4 1814.9,150.2 1818.5,147.9 1820.9,146.5 
		1822.4,145.7 1823.9,144.9 1825.4,144.2 1827.1,143.7 1828.5,143.3 1830.1,142.9 1831.6,142.7 1833,142.6 1835,142.6 1837.1,142.9 
		1838.7,143.4 1840.4,144.3 1841.8,145.3 1842.9,146.5 1843.7,147.9 1844.2,149.4 1844.4,151 1844.4,152.8 1844.1,154.3 
		1843.4,156.5 1842.8,157.9 1842.1,159.2 1841.3,160.4 1840.2,161.9 1839.2,163.1 1838.2,164.1 1837,165.3 1835.3,166.7 
		1833.9,167.8 1832.1,169 1828.4,171.5 1825.5,173.5 1823.3,175 1820.1,177.3 1818.3,178.5 1814.8,181.2 1813.4,182.2 1808.5,185.9 
		1803.7,189.7 1799,193.5 1794.3,197.5 1791.7,199.6 1789.5,201.6 1784.7,205.9 1780,210.2 1775.4,214.6 1770.8,219.1 1767.4,222.5 
		1766.3,223.6 1763.1,226.9 1761.9,228.2 1759,231.4 1757.6,232.9 1754.8,236 1753.4,237.6 1750.8,240.6 1749.2,242.4 1746.8,245.2 
		1745.2,247.2 1742.9,250 1741.2,252.1 1739.1,254.7 1737.3,257.1 1735.4,259.6 1733.5,262.1 1731.7,264.5 1729.7,267.1 
		1728.1,269.4 1726.1,272.3 1724.6,274.4 1722.5,277.4 1721.1,279.5 1719,282.6 1717.7,284.6 1715.6,287.9 1714.5,289.8 
		1712.3,293.2 1711.2,295 1709.1,298.6 1708.1,300.3 1706,304 1705.1,305.6 1702.9,309.4 1702.1,310.9 1700,314.9 1699.2,316.3 
		1697.1,320.4 1696.4,321.8 1693.7,327.3 1691,332.8 1688.5,338.3 1686,344 1683.7,349.6 1681.4,355.3 1679.2,361 1677.1,366.7 
		1675,372.5 1673.1,378.3 1671.2,384.2 1669.5,390 1667.8,395.9 1666.2,401.8 1664.7,407.8 1663.3,413.7 1662,419.7 1660.8,425.7 
		1659.7,431.7 1658.7,437.8 1657.7,443.8 1656.9,449.9 1656.2,456 1655.5,462.1 1654.9,468.2 1654.5,474.3 1654.1,480.4 
		1653.8,486.5 1653.6,492.6 1653.5,498.7 1653.5,504.9 1653.6,511 1653.8,517.1 1654.1,523.2 1654.5,529.3 1654.9,535.4 
		1655.5,541.5 1656.2,547.6 1656.9,553.7 1657.7,559.8 1658.7,565.8 1659.7,571.8 1660.8,577.9 1662,583.9 1663.3,589.9 
		1664.7,595.8 1666.2,601.8 1667.8,607.7 1669.5,613.6 1671.2,619.4 1673.1,625.3 1675,631.1 1677.1,636.9 1679.2,642.6 
		1681.4,648.3 1683.7,654 1686,659.6 1688.5,665.2 1691,670.8 1693.7,676.3 1695.8,680.5 1696.4,681.8 1698.5,685.9 1699.2,687.3 
		1701.3,691.2 1702.1,692.7 1704.2,696.5 1705.1,698 1707.2,701.7 1708.1,703.3 1710.2,706.9 1711.2,708.6 1713.3,712 1714.5,713.8 
		1716.5,717.1 1717.7,719 1719.8,722.1 1721.1,724.1 1723.1,727.1 1724.6,729.2 1726.6,732 1728.1,734.2 1730,736.9 1731.7,739.1 
		1733.6,741.7 1735.4,744 1737.2,746.4 1739.1,748.9 1740.9,751.1 1742.9,753.6 1744.6,755.7 1746.8,758.4 1748.4,760.3 1750.8,763 
		1752.3,764.7 1754.8,767.6 1756.3,769.2 1759,772.2 1760.2,773.5 1763.1,776.6 1764.3,777.8 1768.4,782.1 1772.6,786.2 
		1776.8,790.3 1781,794.4 1785.4,798.3 1789.7,802.2 1791.7,803.9 1794.3,806.1 1799,810 1803.7,813.9 1808.5,817.7 1812.3,820.5 
		1813.4,821.4 1816.9,824 1818.3,825 1821.5,827.3 1823.3,828.6 1826.2,830.6 1828.4,832.1 1830.9,833.8 1832.9,835.1 1834.5,836.3 
		1835.7,837.2 1837,838.3 1838.2,839.4 1839.4,840.7 1840.4,841.9 1841.3,843.1 1842.1,844.4 1842.8,845.7 1843.6,847.5 
		1844.2,849.5 1844.4,851.2 1844.4,853.1 1844,854.8 1843.4,856.2 1842.5,857.6 1841.4,858.7 1840,859.6 1838.3,860.3 1836.8,860.7 
		1834.5,861 1833,861 1831.6,860.9 1830.1,860.7 1828.5,860.3 1826.9,859.9 1825.4,859.3 1823.9,858.7 1822.4,857.9 1820.9,857.1 
		1817.4,855 1814.9,853.4 1812,851.5 1807.3,848.5 1805.4,847.3 1802.1,845 1799.1,842.9 1796.9,841.4 1791.8,837.8 1786.4,833.8 
		1780.9,829.6 1776.8,826.4 1775.2,825.1 1771.9,822.4 1769.6,820.5 1767.1,818.4 1764.1,815.8 1762.3,814.3 1758.7,811.1 
		1757.6,810.1 1753,805.9 1749.4,802.5 1748.3,801.5 1743.3,796.6 1739.5,792.8 1738.4,791.6 1735.1,788.3 1733.6,786.7 
		1730.9,783.7 1729,781.6 1726.6,779 1724.4,776.5 1722.5,774.3 1719.9,771.4 1718.4,769.6 1715.5,766.2 1714.4,764.8 1710.5,759.9 
		1706.6,755 1702.8,750 1699.1,744.8 1695.2,739.4 1691.4,733.9 1687.8,728.4 1685.1,724.2 1684.2,722.8 1681.8,718.9 1680.8,717.2 
		1678.5,713.5 1677.4,711.6 1675.6,708.7 1689.5,708.7 1689.5,691.7 1666.2,691.2 1664.9,688.6 1663.6,686 1662,682.7 1660.9,680.4 
		1659.2,676.8 1658.2,674.7 1656.5,670.9 1655.6,669 1653.9,665 1653.2,663.2 1651.4,659 1650.8,657.4 1649,653 1648.5,651.6 
		1646.3,645.8 1644.1,639.9 1642.1,634 1640.1,628 1638.3,622 1636.5,616 1634.8,610 1633.2,604 1631.8,597.9 1630.3,591.8 
		1629.5,588 1629,585.6 1627.8,579.4 1626.7,573.2 1625.6,566.9 1624.7,560.7 1623.8,554.4 1623.1,548.2 1622.4,541.9 1621.9,535.6 
		1621.4,529.3 1621,523.1 1620.8,516.8 1620.6,510.5 1620.5,504.3 1620.5,498 1620.6,491.8 1620.8,485.5 1621.1,479.3 1621.5,473.1 
		1622,466.9 1622.5,460.7 1623.2,454.5 1623.9,448.4 1624.8,442.2 1625.7,436.1 1626.7,430 1627.8,423.9 1629,417.9 1629.5,415.6 
		1630.3,411.8 1631.8,405.7 1633.2,399.6 1634.8,393.6 1636.5,387.5 1638.3,381.5 1640.1,375.6 1642.1,369.6 1644.1,363.7 
		1646.3,357.8 1648.5,352 1650.2,347.6 1650.8,346.1 1652.5,342 1653.2,340.4 1654.9,336.4 1655.6,334.6 1657.3,330.9 1658.2,328.9 
		1659.8,325.4 1660.9,323.2 1662.4,320 1663.6,317.6 1665.1,314.6 1666.3,311.9 1689.5,311.9 1689.5,294.9 1675.5,294.9 
		1676.6,293.5 1678.5,290.1 1679.6,288.3 1681.8,284.7 1682.7,283.2 1685.1,279.4 1685.9,278.2 1689.1,273.2 1692.4,268.3 
		1695.7,263.4 	"/>
</g>
<g id="LINE_1_">
	<polygon class="st0" points="445,220.6 445.3,222.6 445.2,224.2 444.8,225.9 444.1,228.3 443.6,229.9 442.6,232.1 441.4,234.6 
		440.2,237 438.6,239.7 437,242.3 435.1,245.2 433.3,247.9 431.2,250.8 430.2,252.2 428.6,254.4 426.8,256.8 425.5,258.4 
		424.2,260.1 420.7,264.8 417.7,268.9 416.8,270.1 413.2,275.3 409.7,280.4 406.3,285.6 403,290.9 400.5,295 399.7,296.2 
		397.4,300.2 396.6,301.6 394.3,305.5 393.5,307 391.3,310.9 390.5,312.4 388.5,316.3 387.6,317.9 385.7,321.7 384.8,323.4 
		382.9,327.2 382.1,329 380.3,332.7 379.5,334.6 377.8,338.3 376.9,340.2 375.3,343.9 374.5,345.9 372.9,349.6 372.1,351.6 
		370.6,355.2 369.8,357.4 368.4,361 367.6,363.2 366.3,366.7 365.5,369 364.3,372.5 363.5,374.8 362.4,378.3 361.6,380.7 
		360.5,384.1 359.8,386.6 358.8,390 358,392.5 357.1,395.9 356.4,398.4 355.5,401.8 354.9,404.4 354,407.7 353.4,410.4 352.6,413.7 
		352,416.4 351.3,419.7 350.8,422.4 350.1,425.7 349.6,428.4 349,431.7 348.5,434.5 348,437.7 347.5,440.5 347,443.8 346.6,446.6 
		346.2,449.9 345.8,452.7 345.4,455.9 345.1,458.8 344.8,462 344.5,464.9 344.2,468.1 344,471 343.7,474.2 343.6,477.1 343.4,480.3 
		343.2,483.3 343.1,486.5 343,489.4 342.9,492.6 342.9,495.5 342.8,498.7 342.8,501.6 342.8,504.8 342.9,507.8 342.9,510.9 
		343,513.9 343.1,517.1 343.2,520 343.4,523.2 343.6,526.1 343.7,529.3 344,532.2 344.2,535.4 344.5,538.3 344.8,541.5 345.1,544.4 
		345.4,547.6 345.8,550.4 346.2,553.7 346.6,556.5 347,559.7 347.5,562.5 348,565.8 348.4,568.6 349,571.8 349.5,574.6 350.1,577.8 
		350.7,580.5 351.3,583.8 351.9,586.5 352.6,589.8 353.2,592.5 354,595.8 354.7,598.4 355.5,601.7 356.2,604.3 357.1,607.6 
		357.8,610.1 358.8,613.5 359.5,616 360.5,619.4 361.3,621.8 362.4,625.2 363.1,627.6 364.3,631 365.1,633.3 366.3,636.8 367.1,639 
		368.4,642.6 369.3,644.7 370.6,648.3 371.5,650.4 372.9,654 373.8,656 375.3,659.6 376.2,661.6 377.8,665.2 378.6,667.1 
		380.3,670.8 381.2,672.6 382.9,676.3 383.8,678 385.7,681.8 386.5,683.5 388.5,687.2 389.3,688.8 391.3,692.6 392.2,694.1 
		394.3,698 395.1,699.4 397.4,703.3 398.1,704.6 401.2,709.8 404.4,714.9 407.7,720 411,725 414.4,730 417.7,734.6 421.3,739.6 
		424.2,743.4 425.5,745.1 426.8,746.8 429,749.7 430.1,751.2 431.9,753.6 432.8,754.9 434,756.7 435.3,758.6 436.4,760.3 
		437.6,762.1 438.7,764 439.7,765.6 440.6,767.4 441.6,769.2 442.3,770.8 443.1,772.4 443.7,774 444.3,775.7 444.8,777.6 
		445.2,779.4 445.3,781.2 445,783 444.4,784.5 442.7,785.9 440.3,786.4 438.8,786.3 437.2,786 435.4,785.4 433.2,784.6 431.4,783.7 
		429.2,782.5 427.9,781.6 426.2,780.5 424.6,779.4 421.8,777.3 419.7,775.5 416.8,772.8 414.8,770.8 412.3,768.2 411.3,767.1 
		409.8,765.5 408.8,764.3 407.5,762.6 405.2,759.7 402.6,756.5 401.4,754.9 397.3,749.5 393.8,744.6 390.2,739.6 386.8,734.6 
		383.3,729.4 379.9,724.1 376.6,718.8 373.4,713.5 370.4,708.7 384.9,708.7 384.9,690.8 361,690.8 358.5,686 355.8,680.3 353.8,676 
		353.1,674.7 351.2,670.4 350.6,668.9 348.8,664.7 348.1,663.2 346.4,659 345.7,657.4 344.1,653.3 343.4,651.6 341.9,647.6 
		341.2,645.7 339.8,641.8 339.1,639.9 337.8,635.9 337.1,633.9 335.8,630 335.1,628 333.9,624.1 333.3,622 332.2,618.2 331.5,616 
		330.5,612.3 329.8,610 328.9,606.3 328.3,603.9 327.4,600.3 326.8,597.9 325.9,594.2 325.4,591.8 324.6,588.1 324.1,585.6 
		323.3,582.1 322.8,579.5 322.2,576 321.7,573.3 321.1,569.8 320.7,567.2 320.2,563.7 319.8,561 319.3,557.5 318.9,554.8 
		318.5,551.3 318.2,548.6 317.8,545.1 317.5,542.4 317.2,538.9 316.9,536.1 316.7,532.7 316.5,529.9 316.3,526.5 316.1,523.6 
		315.9,520.2 315.8,517.4 315.7,514 315.6,511.1 315.6,507.8 315.5,504.9 315.5,501.5 315.5,498.6 315.6,495.2 315.6,492.4 
		315.7,489 315.8,486.1 316,482.7 316.1,479.9 316.3,476.5 316.5,473.6 316.7,470.2 316.9,467.4 317.2,464 317.5,461.2 317.9,457.7 
		318.2,454.9 318.6,451.5 318.9,448.7 319.4,445.2 319.8,442.5 320.3,439 320.7,436.3 321.3,432.8 321.7,430.2 322.4,426.6 
		322.8,424 323.6,420.4 324.1,417.9 324.8,414.3 325.4,411.8 326.2,408.1 326.8,405.7 327.7,402 328.3,399.6 329.2,395.8 
		329.8,393.5 330.9,389.8 331.5,387.5 332.6,383.7 333.3,381.5 334.5,377.6 335.1,375.5 336.4,371.6 337.1,369.6 338.4,365.6 
		339.1,363.7 340.6,359.6 341.2,357.8 342.8,353.7 343.4,351.9 345.1,347.8 345.7,346.1 347.5,341.9 348.1,340.3 350,336.1 
		350.6,334.6 352.5,330.2 353.1,328.9 355.8,323.2 358.5,317.6 360.8,313 361.8,311.8 384.6,311.8 384.6,294.8 370.6,294.8 
		373.4,290.1 376.6,284.7 379.9,279.4 383.3,274.1 387,268.6 390.4,263.6 393.9,258.6 398.1,252.9 401.4,248.6 402.6,247 
		405.2,243.8 407.5,240.9 408.8,239.2 409.8,238 411,236.7 413.1,234.5 414.2,233.3 415.8,231.7 417.6,229.9 419,228.7 420.6,227.3 
		422.5,225.7 423.9,224.6 425.6,223.4 427.2,222.3 428.8,221.3 430.4,220.4 432,219.6 433.8,218.7 435.4,218.1 437.2,217.6 
		439.2,217.2 441.6,217.3 443.6,218.2 444.4,219 	"/>
</g>
<g id="LINE_13_">
	<polygon class="st0" points="936.3,220.6 936.6,222.6 936.5,224.2 936.1,225.9 935.4,228.3 934.9,229.9 933.9,232.1 932.7,234.6 
		931.5,237 929.9,239.7 928.3,242.3 926.4,245.2 924.6,247.9 922.5,250.8 921.5,252.2 919.9,254.4 918.1,256.8 916.8,258.4 
		915.5,260.1 912,264.8 909,268.9 908.1,270.1 904.5,275.3 901,280.4 897.6,285.6 894.3,290.9 891.8,295 891,296.2 888.7,300.2 
		887.9,301.6 885.6,305.5 884.8,307 882.6,310.9 881.8,312.4 879.8,316.3 878.9,317.9 877,321.7 876.1,323.4 874.2,327.2 873.4,329 
		871.6,332.7 870.8,334.6 869.1,338.3 868.2,340.2 866.6,343.9 865.8,345.9 864.2,349.6 863.4,351.6 861.9,355.2 861.1,357.4 
		859.7,361 858.9,363.2 857.6,366.7 856.8,369 855.6,372.5 854.8,374.8 853.7,378.3 852.9,380.7 851.8,384.1 851.1,386.6 850.1,390 
		849.3,392.5 848.4,395.9 847.7,398.4 846.8,401.8 846.2,404.4 845.3,407.7 844.7,410.4 843.9,413.7 843.3,416.4 842.6,419.7 
		842.1,422.4 841.4,425.7 840.9,428.4 840.3,431.7 839.8,434.5 839.3,437.7 838.8,440.5 838.3,443.8 837.9,446.6 837.5,449.9 
		837.1,452.7 836.7,455.9 836.4,458.8 836.1,462 835.8,464.9 835.5,468.1 835.3,471 835,474.2 834.9,477.1 834.7,480.3 834.5,483.3 
		834.4,486.5 834.3,489.4 834.2,492.6 834.2,495.5 834.1,498.7 834.1,501.6 834.1,504.8 834.2,507.8 834.2,510.9 834.3,513.9 
		834.4,517.1 834.5,520 834.7,523.2 834.9,526.1 835,529.3 835.3,532.2 835.5,535.4 835.8,538.3 836.1,541.5 836.4,544.4 
		836.7,547.6 837.1,550.4 837.5,553.7 837.9,556.5 838.3,559.7 838.8,562.5 839.3,565.8 839.7,568.6 840.3,571.8 840.8,574.6 
		841.4,577.8 842,580.5 842.6,583.8 843.2,586.5 843.9,589.8 844.5,592.5 845.3,595.8 846,598.4 846.8,601.7 847.5,604.3 
		848.4,607.6 849.1,610.1 850.1,613.5 850.8,616 851.8,619.4 852.6,621.8 853.7,625.2 854.4,627.6 855.6,631 856.4,633.3 
		857.6,636.8 858.4,639 859.7,642.6 860.6,644.7 861.9,648.3 862.8,650.4 864.2,654 865.1,656 866.6,659.6 867.5,661.6 869.1,665.2 
		869.9,667.1 871.6,670.8 872.5,672.6 874.2,676.3 875.1,678 877,681.8 877.8,683.5 879.8,687.2 880.6,688.8 882.6,692.6 
		883.5,694.1 885.6,698 886.4,699.4 888.7,703.3 889.4,704.6 892.5,709.8 895.7,714.9 899,720 902.3,725 905.7,730 909,734.6 
		912.6,739.6 915.5,743.4 916.8,745.1 918.1,746.8 920.3,749.7 921.4,751.2 923.2,753.6 924.1,754.9 925.3,756.7 926.6,758.6 
		927.7,760.3 928.9,762.1 930,764 931,765.6 931.9,767.4 932.9,769.2 933.6,770.8 934.4,772.4 935,774 935.6,775.7 936.1,777.6 
		936.5,779.4 936.6,781.2 936.3,783 935.7,784.5 934,785.9 931.6,786.4 930.1,786.3 928.5,786 926.7,785.4 924.5,784.6 922.7,783.7 
		920.5,782.5 919.2,781.6 917.5,780.5 915.9,779.4 913.1,777.3 911,775.5 908.1,772.8 906.1,770.8 903.6,768.2 902.6,767.1 
		901.1,765.5 900.1,764.3 898.8,762.6 896.5,759.7 893.9,756.5 892.7,754.9 888.6,749.5 885.1,744.6 881.5,739.6 878.1,734.6 
		874.6,729.4 871.2,724.1 867.9,718.8 864.7,713.5 861.7,708.7 876.2,708.7 876.2,690.8 852.3,690.8 849.8,686 847.1,680.3 
		845.1,676 844.4,674.7 842.5,670.4 841.9,668.9 840.1,664.7 839.4,663.2 837.7,659 837,657.4 835.4,653.3 834.7,651.6 833.2,647.6 
		832.5,645.7 831.1,641.8 830.4,639.9 829.1,635.9 828.4,633.9 827.1,630 826.4,628 825.2,624.1 824.6,622 823.5,618.2 822.8,616 
		821.8,612.3 821.1,610 820.2,606.3 819.6,603.9 818.7,600.3 818.1,597.9 817.2,594.2 816.7,591.8 815.9,588.1 815.4,585.6 
		814.6,582.1 814.1,579.5 813.5,576 813,573.3 812.4,569.8 812,567.2 811.5,563.7 811.1,561 810.6,557.5 810.2,554.8 809.8,551.3 
		809.5,548.6 809.1,545.1 808.8,542.4 808.5,538.9 808.2,536.1 808,532.7 807.8,529.9 807.6,526.5 807.4,523.6 807.2,520.2 
		807.1,517.4 807,514 806.9,511.1 806.9,507.8 806.8,504.9 806.8,501.5 806.8,498.6 806.9,495.2 806.9,492.4 807,489 807.1,486.1 
		807.3,482.7 807.4,479.9 807.6,476.5 807.8,473.6 808,470.2 808.2,467.4 808.5,464 808.8,461.2 809.2,457.7 809.5,454.9 
		809.9,451.5 810.2,448.7 810.7,445.2 811.1,442.5 811.6,439 812,436.3 812.6,432.8 813,430.2 813.7,426.6 814.1,424 814.9,420.4 
		815.4,417.9 816.1,414.3 816.7,411.8 817.5,408.1 818.1,405.7 819,402 819.6,399.6 820.5,395.8 821.1,393.5 822.2,389.8 
		822.8,387.5 823.9,383.7 824.6,381.5 825.8,377.6 826.4,375.5 827.7,371.6 828.4,369.6 829.7,365.6 830.4,363.7 831.9,359.6 
		832.5,357.8 834.1,353.7 834.7,351.9 836.4,347.8 837,346.1 838.8,341.9 839.4,340.3 841.3,336.1 841.9,334.6 843.8,330.2 
		844.4,328.9 847.1,323.2 849.8,317.6 852.1,313 853.1,311.8 875.9,311.8 875.9,294.8 861.9,294.8 864.7,290.1 867.9,284.7 
		871.2,279.4 874.6,274.1 878.3,268.6 881.7,263.6 885.2,258.6 889.4,252.9 892.7,248.6 893.9,247 896.5,243.8 898.8,240.9 
		900.1,239.2 901.1,238 902.3,236.7 904.4,234.5 905.5,233.3 907.1,231.7 908.9,229.9 910.3,228.7 911.9,227.3 913.8,225.7 
		915.2,224.6 916.9,223.4 918.5,222.3 920.1,221.3 921.7,220.4 923.3,219.6 925.1,218.7 926.7,218.1 928.5,217.6 930.5,217.2 
		932.9,217.3 934.9,218.2 935.7,219 	"/>
</g>
</svg>
