<?xml version="1.0" encoding="utf-8"?>
<!-- Generator: Adobe Illustrator 24.2.0, SVG Export Plug-In . SVG Version: 6.00 Build 0)  -->
<svg version="1.1" id="Layer_1" xmlns="http://www.w3.org/2000/svg" xmlns:xlink="http://www.w3.org/1999/xlink" x="0px" y="0px"
	 viewBox="0 0 841.9 595.3" style="enable-background:new 0 0 841.9 595.3;" xml:space="preserve">
<style type="text/css">
	.st0{fill:none;stroke:#000000;stroke-width:0;stroke-linecap:round;stroke-linejoin:round;stroke-miterlimit:10;}
</style>
<g id="SPLINE">
	<path class="st0" d="M84.7,219.9c5.3-4.3,13.3-10.3,20.6-13.7c12.4-5.8,47.7-17.4,79.4-18c31.7-0.6,89.1,5.2,108.9,7.4
		c19.8,2.2,108,14.7,134.2,18.4c26.2,3.7,109,16.8,154.2,25.2c45.2,8.4,69.3,14.9,92.8,22.9c23.6,8,73.9,27,82.7,32.1
		c6.2,3.6,11,6,14.4,8.1l-27.6-3.3c-9.3-4-24.4-9.9-39.5-15.6c0,0,0.6-5.2,0.6-5.2l-3-0.4l-0.5,4.5c-11-4.1-21.8-8-30.2-10.8
		c-5.9-2-11.8-3.9-18.2-5.8c0,0,0.6-4.8,0.6-4.8l-3-0.4l-0.5,4.3c-13-3.8-28.3-7.5-49-11.7l0.7-5.5l-3-0.4l-0.6,5.3
		c-5.7-1.2-11.9-2.3-18.5-3.6c-9-1.7-19.5-3.6-30.8-5.5c0,0,0.5-4.1,0.5-4.1l-3-0.4l-0.5,4c-15.8-2.7-32.9-5.6-49.4-8.2l0.6-4.7
		l-3-0.4l-0.5,4.6c-18.5-3-35.9-5.7-49.4-7.8l0.6-4.7l-3-0.4l-0.6,4.6c-6.1-0.9-11.3-1.7-15.3-2.2c-3.8-0.5-9-1.3-15.1-2.1
		c-5.7-0.8-12.2-1.7-19.2-2.7l0.5-4.5l-3-0.4l-0.5,4.5c-15.7-2.2-33.4-4.7-49.5-6.9c0,0,0.5-4.5,0.5-4.5l-3-0.4l-0.5,4.4
		c-19.8-2.7-36.8-5-44.2-5.8c-0.9-0.1-2.8-0.3-5.4-0.6l0.6-5l-3-0.4l-0.6,5c-10.8-1.1-30-3-49.8-4.5l0.5-4.5l-3-0.4l-0.6,4.7
		c-16.8-1.2-33.8-2-46.4-1.7c-1.2,0-2.5,0.1-3.7,0.1l0.6-5.1l-3-0.4l-0.7,5.6c-28.5,2-58.5,12.1-68.6,16.8
		c-3.4,1.6-7.1,3.9-10.6,6.3"/>
</g>
<g id="POLYLINE">
	<line class="st0" x1="99" y1="221.6" x2="84.7" y2="219.9"/>
</g>
<g id="SPLINE_1_">
	<path class="st0" d="M686.4,212.8c-9.2-3.1-17.8-5.8-24.3-7.8c-23.8-7.2-48.1-12.9-93.5-19.9c-45.4-7-128.6-17.5-154.9-20.4
		c-26.3-2.9-114.9-12.6-134.7-14.2c-19.9-1.6-77.4-5.6-109.1-4c-31.7,1.6-66.6,14.3-78.8,20.5c-7.2,3.6-15,9.8-20.2,14.3l14.3,1.3
		c3.4-2.5,7-5,10.4-6.7c10-5,39.6-16.1,68.1-18.9l0.5-5.6l3,0.3l-0.4,5.1c1.3-0.1,2.5-0.2,3.7-0.2c12.6-0.7,29.7-0.4,46.4,0.3
		l0.4-4.7l3,0.3l-0.4,4.6c19.9,0.8,39.1,2.1,49.9,2.9l0.4-5.1l3,0.3l-0.4,5c2.6,0.2,4.5,0.3,5.4,0.4c7.4,0.6,24.5,2.3,44.4,4.4
		l0.4-4.5l3,0.3l-0.4,4.5c16.2,1.7,34,3.6,49.7,5.4l0.4-4.5l3,0.3l-0.4,4.6c7,0.8,13.5,1.5,19.3,2.1c6.1,0.7,11.3,1.2,15.1,1.6
		c3.9,0.4,9.1,1,15.3,1.8l0.4-4.6l3,0.3l-0.4,4.7c13.5,1.6,31.1,3.8,49.6,6.2l0.4-4.6l3,0.3l-0.4,4.7c16.5,2.1,33.7,4.5,49.6,6.7
		l0.4-4l3,0.3c0,0-0.4,4.1-0.4,4.1c11.3,1.6,21.9,3.1,31,4.5c6.6,1,12.8,2,18.6,3l0.5-5.3l3,0.3l-0.5,5.5
		c20.8,3.6,36.1,6.8,49.3,10.2c0,0,0.4-4.3,0.4-4.3l3,0.3l-0.4,4.8c6.5,1.7,12.4,3.4,18.3,5.2c8.5,2.6,19.4,6.1,30.5,9.9l0.4-4.5
		l3,0.3l-0.5,5.2c15.3,5.2,30.6,10.6,40,14.3l27.7,2.4l0.1,0c-2.1-2.2-4.7-5-7.9-8.8c-10.2-12.2,15.5-31,2.8-32.2
		c-12.7-1.1-31.6-2.8-38.5-3.4C710,197.2,704.4,200.5,686.4,212.8z"/>
</g>
<g id="SPLINE_2_">
	<path class="st0" d="M759.2,138.7c-2.3-2-5.1-4.6-8.6-8.1c-11.3-11.3,12.7-32.3,0-32.3c-12.7,0-31.7,0-38.6,0
		c-6.9,0-12.2,3.7-29,17.6c-9.4-2.2-18.2-4.2-24.9-5.6c-24.3-5.1-49-8.6-94.9-11.6c-45.9-3-129.6-6.2-156.1-6.7
		c-26.5-0.5-115.5-2.5-135.5-2.3c-19.9,0.2-77.6,1.2-109,5.6c-31.4,4.4-65.1,20.1-76.7,27.3c-11.6,7.2-24.3,22-24.3,22h13.6
		c4.3-4.4,10.4-10.1,16-13.6c9.5-5.9,38.1-19.5,66.1-24.8v-5.6h3v5.1c1.2-0.2,2.5-0.4,3.7-0.6c12.5-1.8,29.5-3,46.3-3.8l0-4.7h3
		l0,4.6c19.9-0.9,39.1-1.3,50-1.5v-5.1h3v5c2.6,0,4.5-0.1,5.4-0.1c7.4-0.1,24.6,0.2,44.6,0.5v-4.5h3v4.5c16.3,0.3,34.2,0.6,50,1
		l0-4.5h3v4.6c7,0.1,13.6,0.3,19.4,0.4c6.1,0.1,11.3,0.2,15.2,0.3c4,0.1,9.2,0.2,15.4,0.4v-4.7h3v4.8c13.6,0.4,31.3,1.1,50,1.8v-4.6
		h3v4.7c16.6,0.7,34,1.5,50,2.3v-4h3c0,0,0,4.1,0,4.1c11.4,0.6,22.1,1.2,31.2,1.8c6.7,0.4,12.9,0.9,18.8,1.3v-5.3h3v5.5
		c21.1,1.7,36.6,3.6,50,5.8c0,0,0-4.3,0-4.3h3v4.8c6.6,1.1,12.7,2.3,18.7,3.6c8.7,1.8,19.9,4.4,31.3,7.1v-4.5h3v5.3
		c22.3,5.4,44.7,11.4,49.7,13.6c2.8,1.2,5.4,2.3,7.6,3.2h20.8l-1.8-1.4c0,0,0,0-3.5-2.5C761.9,140.1,760.6,139.4,759.2,138.7"/>
</g>
<g id="SPLINE_3_">
	<path class="st0" d="M707.7,258.4c-9-3.5-17.5-6.7-23.9-9c-23.4-8.4-47.4-15.4-92.4-24.7c-45-9.3-127.5-24.1-153.7-28.3
		c-26.1-4.2-114.1-18.5-133.8-21.1c-19.8-2.6-77-9.6-108.7-9.6c-31.7,0-67.3,10.9-79.8,16.4c-7.4,3.3-15.4,9-20.9,13.3l14.2,2
		c3.5-2.3,7.2-4.6,10.7-6.1c10.2-4.5,40.4-14,68.9-15.4l0.8-5.6l3,0.4l-0.7,5c1.3,0,2.5-0.1,3.8-0.1c12.7,0,29.6,1.2,46.4,2.7
		l0.7-4.7l3,0.4l-0.6,4.5c19.8,1.8,38.9,4.1,49.7,5.5l0.7-5l3,0.4l-0.7,5c2.6,0.3,4.4,0.6,5.4,0.7c7.4,1,24.4,3.6,44.1,6.7l0.6-4.4
		l3,0.4l-0.6,4.5c16.1,2.5,33.7,5.4,49.4,7.9l0.6-4.5l3,0.4l-0.6,4.5c6.9,1.1,13.4,2.2,19.1,3.1c6.1,1,11.2,1.8,15,2.4
		c3.9,0.6,9.1,1.5,15.2,2.5l0.6-4.6l3,0.4l-0.7,4.7c13.4,2.3,30.8,5.4,49.3,8.8l0.6-4.6l3,0.4l-0.7,4.7c16.4,3,33.5,6.2,49.2,9.2
		l0.6-4l3,0.4c0,0-0.6,4.1-0.6,4.1c11.3,2.2,21.7,4.3,30.7,6.1c6.6,1.4,12.7,2.7,18.4,3.9l0.7-5.2l3,0.4l-0.8,5.5
		c20.6,4.6,35.8,8.7,48.7,12.7c0,0,0.6-4.3,0.6-4.3l3,0.4l-0.7,4.8c6.4,2,12.2,4,18.1,6.1c8.4,3,19.1,7.1,30,11.4l0.6-4.5l3,0.4
		l-0.7,5.2c15,6,30,12.2,39.2,16.3l27.5,3.9l0.1,0c-2-2.3-4.4-5.2-7.4-9.2c-9.6-12.7,17.1-30.2,4.5-32c-12.6-1.8-31.4-4.4-38.3-5.4
		C732.1,244.1,726.3,247,707.7,258.4z"/>
</g>
<g id="SPLINE_4_">
	<path class="st0" d="M89.6,236.5c5.3-4.3,13.3-10.3,20.6-13.7c12.4-5.8,47.7-17.3,79.4-18c31.7-0.6,89.1,5.2,108.9,7.4
		c19.8,2.2,108,14.8,134.2,18.5c26.2,3.7,109,16.9,154.2,25.3c45.2,8.5,69.3,14.9,92.8,22.9c23.6,8,73.9,27,82.6,32.2
		c6.2,3.6,11,6,14.3,8.1l-27.6-3.3c-9.3-4-24.4-9.9-39.5-15.6c0,0,0.6-5.2,0.6-5.2l-3-0.4l-0.5,4.5c-11-4.1-21.8-8-30.2-10.8
		c-5.9-2-11.8-3.9-18.2-5.8c0,0,0.6-4.8,0.6-4.8l-3-0.4l-0.5,4.3c-13-3.8-28.3-7.5-48.9-11.7l0.7-5.5l-3-0.4l-0.6,5.3
		c-5.7-1.2-11.9-2.3-18.5-3.6c-9-1.7-19.5-3.6-30.8-5.5c0,0,0.5-4.1,0.5-4.1l-3-0.4l-0.5,4c-15.8-2.7-32.9-5.6-49.4-8.2l0.6-4.7
		l-3-0.4l-0.6,4.6c-18.5-3-35.9-5.7-49.4-7.8l0.6-4.7l-3-0.4l-0.6,4.6c-6.1-0.9-11.3-1.7-15.2-2.2c-3.8-0.5-9-1.3-15.1-2.1
		c-5.7-0.8-12.2-1.7-19.2-2.7l0.5-4.5l-3-0.4l-0.5,4.5c-15.7-2.2-33.4-4.7-49.5-6.9c0,0,0.5-4.5,0.5-4.5l-3-0.4l-0.5,4.4
		c-19.8-2.7-36.8-5-44.2-5.8c-0.9-0.1-2.8-0.3-5.4-0.6l0.6-5l-3-0.4l-0.6,5c-10.8-1.1-30-3-49.8-4.5l0.5-4.5l-3-0.4l-0.6,4.7
		c-16.8-1.2-33.8-2-46.4-1.8c-1.2,0-2.5,0.1-3.7,0.1l0.6-5.1l-3-0.4l-0.7,5.6c-28.5,1.9-58.5,12-68.6,16.7
		c-3.4,1.6-7.1,3.9-10.6,6.3"/>
</g>
<g id="POLYLINE_1_">
	<line class="st0" x1="103.9" y1="238.2" x2="89.6" y2="236.5"/>
</g>
<g id="SPLINE_5_">
	<path class="st0" d="M77.5,259.3c5.3-4.4,13.1-10.5,20.4-14c12.3-6,47.4-18.2,79.1-19.3c31.7-1.2,89.2,3.7,109,5.6
		c19.8,1.9,108.3,13,134.5,16.2c26.3,3.2,109.3,15,154.6,22.7s69.5,13.7,93.2,21.3c23.7,7.6,74.3,25.8,83.2,30.8
		c6.3,3.5,11.1,5.8,14.5,7.9l-27.6-2.9c-9.3-3.8-24.6-9.5-39.8-14.9c0,0,0.5-5.2,0.5-5.2l-3-0.3l-0.5,4.5
		c-11-3.9-21.9-7.6-30.4-10.3c-5.9-1.9-11.8-3.7-18.3-5.5c0,0,0.5-4.8,0.5-4.8l-3-0.3l-0.4,4.3c-13.1-3.5-28.4-7-49.1-10.9l0.6-5.5
		l-3-0.3l-0.5,5.3c-5.7-1.1-11.9-2.1-18.5-3.3c-9-1.5-19.6-3.2-30.9-5c0,0,0.4-4.1,0.4-4.1l-3-0.3l-0.4,4c-15.8-2.5-33-5-49.5-7.4
		l0.5-4.7l-3-0.3l-0.5,4.6c-18.5-2.7-36-5.1-49.5-7l0.5-4.7l-3-0.3l-0.5,4.6c-6.2-0.8-11.4-1.5-15.3-2c-3.8-0.5-9-1.1-15.1-1.9
		c-5.7-0.7-12.3-1.5-19.2-2.4l0.5-4.5l-3-0.3l-0.5,4.5c-15.7-1.9-33.5-4.1-49.6-6.1c0,0,0.5-4.5,0.5-4.5l-3-0.3l-0.5,4.5
		c-19.8-2.4-36.9-4.4-44.3-5.1c-0.9-0.1-2.8-0.3-5.4-0.5l0.5-5l-3-0.3l-0.5,5c-10.8-0.9-30-2.5-49.9-3.6l0.5-4.5l-3-0.3l-0.5,4.7
		c-16.8-0.9-33.8-1.4-46.4-1c-1.2,0-2.5,0.1-3.7,0.2l0.5-5.1l-3-0.3l-0.6,5.6c-28.5,2.4-58.3,13-68.3,17.9c-3.4,1.7-7.1,4-10.5,6.5"
		/>
</g>
<g id="POLYLINE_2_">
	<line class="st0" x1="91.8" y1="260.8" x2="77.5" y2="259.3"/>
</g>
<g id="SPLINE_6_">
	<path class="st0" d="M79,276.7c5.3-4.4,13.1-10.5,20.4-14c12.3-6,47.4-18.2,79.1-19.3c31.7-1.2,89.2,3.7,109,5.6
		c19.8,1.9,108.3,13,134.5,16.2c26.3,3.2,109.3,15,154.6,22.7s69.5,13.7,93.2,21.3c23.7,7.6,74.3,25.8,83.2,30.8
		c6.3,3.5,11.1,5.8,14.5,7.9l-27.6-2.9c-9.3-3.8-24.6-9.5-39.8-14.9c0,0,0.5-5.2,0.5-5.2l-3-0.3l-0.5,4.5
		c-11-3.9-21.9-7.6-30.4-10.3c-5.9-1.9-11.8-3.7-18.3-5.5c0,0,0.5-4.8,0.5-4.8l-3-0.3l-0.4,4.3c-13.1-3.5-28.4-7-49.1-10.9l0.6-5.5
		l-3-0.3l-0.5,5.3c-5.7-1.1-11.9-2.1-18.5-3.3c-9-1.5-19.6-3.2-30.9-5c0,0,0.4-4.1,0.4-4.1l-3-0.3l-0.4,4c-15.8-2.5-33-5-49.5-7.4
		l0.5-4.7l-3-0.3l-0.5,4.6c-18.5-2.7-36-5.1-49.5-7l0.5-4.7l-3-0.3l-0.5,4.6c-6.2-0.8-11.4-1.5-15.3-2c-3.8-0.5-9-1.1-15.1-1.9
		c-5.7-0.7-12.3-1.5-19.2-2.4l0.5-4.5l-3-0.3l-0.5,4.5c-15.7-1.9-33.5-4.1-49.6-6.1c0,0,0.5-4.5,0.5-4.5l-3-0.3l-0.5,4.5
		c-19.8-2.4-36.9-4.4-44.3-5.1c-0.9-0.1-2.8-0.3-5.4-0.5l0.5-5l-3-0.3l-0.5,5c-10.8-0.9-30-2.5-49.9-3.6l0.5-4.5l-3-0.3l-0.5,4.7
		c-16.8-0.9-33.8-1.4-46.4-1c-1.2,0-2.5,0.1-3.7,0.2l0.5-5.1l-3-0.3l-0.6,5.6c-28.5,2.4-58.3,13-68.3,17.9c-3.4,1.7-7.1,4-10.5,6.5"
		/>
</g>
<g id="POLYLINE_3_">
	<line class="st0" x1="93.3" y1="278.2" x2="79" y2="276.7"/>
</g>
<g id="SPLINE_7_">
	<path class="st0" d="M764.8,191.4c1.5,0.8,2.7,1.5,3.7,2.2c3.4,2.6,3.4,2.6,3.4,2.6l1.8,1.5l-20.8-0.9c-2.2-1-4.7-2.1-7.5-3.5
		c-4.9-2.4-27-9.3-49.1-15.7c0,0,0.2-5.3,0.2-5.3l-3-0.1l-0.2,4.5c-11.3-3.2-22.3-6.3-30.9-8.5c-6-1.5-12-3-18.6-4.4
		c0,0,0.2-4.8,0.2-4.8l-3-0.1l-0.2,4.3c-13.3-2.7-28.7-5.3-49.7-7.9l0.2-5.5l-3-0.1l-0.2,5.3c-5.8-0.7-12-1.4-18.7-2.1
		c-9.1-1-19.7-2-31.1-3.1c0,0,0.2-4.1,0.2-4.1l-3-0.1l-0.2,4c-16-1.5-33.3-3-49.9-4.4l0.2-4.7l-3-0.1l-0.2,4.6
		c-18.7-1.6-36.3-3-49.9-4l0.2-4.8l-3-0.1l-0.2,4.7c-6.2-0.5-11.4-0.8-15.4-1.1c-3.9-0.2-9.1-0.6-15.2-1c-5.8-0.4-12.3-0.8-19.3-1.2
		l0.2-4.6l-3-0.1l-0.2,4.5c-15.8-1-33.7-2.1-49.9-3.1c0,0,0.2-4.5,0.2-4.5l-3-0.1l-0.2,4.5c-19.9-1.2-37.1-2.2-44.5-2.4
		c-0.9,0-2.8-0.1-5.4-0.2l0.2-5l-3-0.1l-0.2,5.1c-10.9-0.3-30.1-0.7-50-0.6l0.2-4.6l-3-0.1l-0.2,4.7c-16.8,0.1-33.8,0.6-46.4,1.8
		c-1.2,0.1-2.5,0.3-3.7,0.4l0.2-5.1l-3-0.1l-0.2,5.6c-28.3,4.1-57.4,16.5-67.1,22c-5.7,3.2-12,8.6-16.5,12.9l-13.6-0.6
		c0,0,13.3-14.3,25.3-21c11.9-6.7,46.3-21,77.8-24.1c3-0.3,6.3-0.5,9.8-0.8c4-9.5-1.2-20.1,38.5-18.4c39.7,1.7,44.6,2.1,70.3,7.5
		c25.7,5.3,38.5,13.3,50.2,14c29.7,1.8,61.5,3.9,75.5,4.7c26.4,1.7,110,8.4,155.7,13.3c45.7,4.9,70.2,9.5,94.3,15.7
		c6.6,1.7,15.3,4.1,24.7,6.7c17.4-13.1,22.9-16.6,29.7-16.3c6.9,0.3,25.9,1.1,38.6,1.6c12.7,0.5-12.2,20.5-1.4,32.2
		C759.9,186.6,762.6,189.3,764.8,191.4"/>
</g>
<g id="SPLINE_8_">
	<path class="st0" d="M209.9,110.9c0.1-2.7-2-5-4.7-5.1c-2.7-0.1-5,2-5.1,4.7c-0.1,2.7,2,5,4.7,5.1
		C207.5,115.7,209.8,113.6,209.9,110.9z"/>
</g>
<g id="SPLINE_9_">
	<path class="st0" d="M222.6,111.4c0.1-2.7-2-5-4.7-5.1c-2.7-0.1-5,2-5.1,4.7c-0.1,2.7,2,5,4.7,5.1
		C220.2,116.2,222.5,114.1,222.6,111.4z"/>
</g>
<g id="SPLINE_10_">
	<path class="st0" d="M235.2,112c0.1-2.7-2-5-4.7-5.1c-2.7-0.1-5,2-5.1,4.7c-0.1,2.7,2,5,4.7,5.1C232.8,116.8,235.1,114.7,235.2,112
		z"/>
</g>
<g id="SPLINE_11_">
	<path class="st0" d="M247.9,112.5c0.1-2.7-2-5-4.7-5.1c-2.7-0.1-5,2-5.1,4.7c-0.1,2.7,2,5,4.7,5.1
		C245.5,117.3,247.8,115.2,247.9,112.5z"/>
</g>
<g id="SPLINE_12_">
	<path class="st0" d="M260.5,113.1c0.1-2.7-2-5-4.7-5.1c-2.7-0.1-5,2-5.1,4.7c-0.1,2.7,2,5,4.7,5.1
		C258.1,117.8,260.4,115.8,260.5,113.1z"/>
</g>
<g id="SPLINE_13_">
	<path class="st0" d="M196.1,113.2c0.1-2-1.4-3.6-3.4-3.7c-2-0.1-3.6,1.4-3.7,3.4c-0.1,2,1.4,3.6,3.4,3.7
		C194.4,116.7,196.1,115.2,196.1,113.2z"/>
</g>
<g id="POLYLINE_4_">
	<line class="st0" x1="232.9" y1="302.6" x2="235.9" y2="302.6"/>
</g>
<g id="POLYLINE_5_">
	<line class="st0" x1="301.8" y1="302.6" x2="304.8" y2="302.6"/>
</g>
<g id="POLYLINE_6_">
	<line class="st0" x1="267.3" y1="265.1" x2="267.3" y2="268.1"/>
</g>
<g id="POLYLINE_7_">
	<line class="st0" x1="270.3" y1="268.1" x2="270.3" y2="265.1"/>
</g>
<g id="POLYLINE_8_">
	<line class="st0" x1="295.3" y1="325.4" x2="293.2" y2="323.3"/>
</g>
<g id="POLYLINE_9_">
	<line class="st0" x1="304.8" y1="299.6" x2="301.8" y2="299.6"/>
</g>
<g id="POLYLINE_10_">
	<line class="st0" x1="235.9" y1="299.6" x2="232.9" y2="299.6"/>
</g>
<g id="POLYLINE_11_">
	<line class="st0" x1="270.3" y1="337" x2="270.3" y2="334"/>
</g>
<g id="POLYLINE_12_">
	<line class="st0" x1="244.5" y1="323.3" x2="242.4" y2="325.4"/>
</g>
<g id="POLYLINE_13_">
	<line class="st0" x1="232.9" y1="302.6" x2="235.9" y2="302.6"/>
</g>
<g id="POLYLINE_14_">
	<line class="st0" x1="270.3" y1="268.1" x2="270.3" y2="265.1"/>
</g>
<g id="SPLINE_14_">
	<path class="st0" d="M301.8,302.6c0-0.8,0-2.2,0-3"/>
</g>
<g id="SPLINE_15_">
	<path class="st0" d="M235.9,299.6c0,0.8,0,2.2,0,3"/>
</g>
<g id="POLYLINE_15_">
	<line class="st0" x1="267.3" y1="334" x2="267.3" y2="337"/>
</g>
<g id="POLYLINE_16_">
	<line class="st0" x1="267.3" y1="334" x2="267.3" y2="337"/>
</g>
<g id="SPLINE_16_">
	<path class="st0" d="M235.9,299.6c0,0.8,0,2.2,0,3"/>
</g>
<g id="SPLINE_17_">
	<path class="st0" d="M267.3,265.1c-7.3-0.1-17.8,4.2-22.9,9.5"/>
</g>
<g id="SPLINE_18_">
	<path class="st0" d="M242.4,276.7c-5.3,5.1-9.6,15.5-9.5,22.9"/>
</g>
<g id="POLYLINE_17_">
	<line class="st0" x1="291.1" y1="325.4" x2="293.2" y2="327.5"/>
</g>
<g id="SPLINE_19_">
	<path class="st0" d="M293.2,278.8c-0.5-0.6-1.5-1.6-2.1-2.1"/>
</g>
<g id="SPLINE_20_">
	<path class="st0" d="M267.3,334c0.8,0,2.2,0,3,0"/>
</g>
<g id="SPLINE_21_">
	<path class="st0" d="M244.5,323.3c0.5,0.6,1.5,1.6,2.1,2.1"/>
</g>
<g id="SPLINE_22_">
	<path class="st0" d="M295.3,325.4c5.3-5.1,9.6-15.5,9.5-22.9"/>
</g>
<g id="POLYLINE_18_">
	<line class="st0" x1="301.8" y1="302.6" x2="304.8" y2="302.6"/>
</g>
<g id="POLYLINE_19_">
	<line class="st0" x1="244.5" y1="327.5" x2="246.6" y2="325.4"/>
</g>
<g id="SPLINE_23_">
	<path class="st0" d="M291.1,325.4c0.6-0.5,1.6-1.5,2.1-2.1"/>
</g>
<g id="POLYLINE_20_">
	<line class="st0" x1="270.3" y1="337" x2="270.3" y2="334"/>
</g>
<g id="SPLINE_24_">
	<path class="st0" d="M270.3,268.1c-0.8,0-2.2,0-3,0"/>
</g>
<g id="SPLINE_25_">
	<circle class="st0" cx="268.8" cy="301.1" r="28"/>
</g>
<g id="POLYLINE_21_">
	<line class="st0" x1="267.3" y1="265.1" x2="267.3" y2="268.1"/>
</g>
<g id="SPLINE_26_">
	<path class="st0" d="M293.2,274.6c-5.1-5.3-15.5-9.6-22.9-9.5"/>
</g>
<g id="POLYLINE_22_">
	<line class="st0" x1="235.9" y1="299.6" x2="232.9" y2="299.6"/>
</g>
<g id="SPLINE_27_">
	<path class="st0" d="M244.5,323.3c0.5,0.6,1.5,1.6,2.1,2.1"/>
</g>
<g id="SPLINE_28_">
	<path class="st0" d="M270.3,268.1c-0.8,0-2.2,0-3,0"/>
</g>
<g id="SPLINE_29_">
	<path class="st0" d="M291.1,325.4c0.6-0.5,1.6-1.5,2.1-2.1"/>
</g>
<g id="SPLINE_30_">
	<path class="st0" d="M232.9,302.6c-0.1,7.3,4.2,17.8,9.5,22.9"/>
</g>
<g id="SPLINE_31_">
	<path class="st0" d="M267.3,334c0.8,0,2.2,0,3,0"/>
</g>
<g id="POLYLINE_23_">
	<line class="st0" x1="293.2" y1="274.6" x2="291.1" y2="276.7"/>
</g>
<g id="SPLINE_32_">
	<path class="st0" d="M244.5,327.5c5.1,5.3,15.5,9.6,22.9,9.5"/>
</g>
<g id="SPLINE_33_">
	<path class="st0" d="M293.2,278.8c-0.5-0.6-1.5-1.6-2.1-2.1"/>
</g>
<g id="SPLINE_34_">
	<path class="st0" d="M246.6,276.7c-0.6,0.5-1.6,1.5-2.1,2.1"/>
</g>
<g id="POLYLINE_24_">
	<line class="st0" x1="293.2" y1="278.8" x2="295.3" y2="276.7"/>
</g>
<g id="SPLINE_35_">
	<path class="st0" d="M304.8,299.6c0.1-7.3-4.2-17.8-9.5-22.9"/>
</g>
<g id="POLYLINE_25_">
	<line class="st0" x1="304.8" y1="299.6" x2="301.8" y2="299.6"/>
</g>
<g id="SPLINE_36_">
	<path class="st0" d="M270.3,337c7.3,0.1,17.8-4.2,22.9-9.5"/>
</g>
<g id="POLYLINE_26_">
	<line class="st0" x1="242.4" y1="276.7" x2="244.5" y2="278.8"/>
</g>
<g id="SPLINE_37_">
	<path class="st0" d="M301.8,302.6c0-0.8,0-2.2,0-3"/>
</g>
<g id="POLYLINE_27_">
	<line class="st0" x1="246.6" y1="276.7" x2="244.5" y2="274.6"/>
</g>
<g id="SPLINE_38_">
	<path class="st0" d="M246.6,276.7c-0.6,0.5-1.6,1.5-2.1,2.1"/>
</g>
<g id="SPLINE_39_">
	<path class="st0" d="M197.1,386.5c-6.5-6.8-19.8-12.3-29.2-12.1"/>
</g>
<g id="SPLINE_40_">
	<path class="st0" d="M195,450c0.6-0.5,1.6-1.6,2.1-2.1"/>
</g>
<g id="SPLINE_41_">
	<path class="st0" d="M167.9,377.4c-0.8,0-2.2,0-3,0"/>
</g>
<g id="POLYLINE_28_">
	<line class="st0" x1="124.4" y1="417.8" x2="121.4" y2="417.8"/>
</g>
<g id="POLYLINE_29_">
	<line class="st0" x1="199.2" y1="450" x2="197.1" y2="447.9"/>
</g>
<g id="SPLINE_42_">
	<path class="st0" d="M208.3,420.8c0-0.8,0-2.2,0-3"/>
</g>
<g id="SPLINE_43_">
	<path class="st0" d="M124.4,417.8c0,0.8,0,2.2,0,3"/>
</g>
<g id="POLYLINE_30_">
	<line class="st0" x1="167.9" y1="464.3" x2="167.9" y2="461.3"/>
</g>
<g id="SPLINE_44_">
	<path class="st0" d="M164.9,374.4c-9.4-0.2-22.7,5.3-29.2,12.1"/>
</g>
<g id="POLYLINE_31_">
	<line class="st0" x1="164.9" y1="374.4" x2="164.9" y2="377.4"/>
</g>
<g id="POLYLINE_32_">
	<line class="st0" x1="137.8" y1="388.6" x2="135.7" y2="386.5"/>
</g>
<g id="SPLINE_45_">
	<path class="st0" d="M135.7,452.2c6.5,6.8,19.8,12.3,29.2,12.1"/>
</g>
<g id="SPLINE_46_">
	<path class="st0" d="M199.2,450c6.8-6.5,12.3-19.8,12.1-29.2"/>
</g>
<g id="SPLINE_47_">
	<path class="st0" d="M197.1,390.7c-0.5-0.6-1.6-1.6-2.1-2.1"/>
</g>
<g id="POLYLINE_33_">
	<line class="st0" x1="164.9" y1="461.3" x2="164.9" y2="464.3"/>
</g>
<g id="POLYLINE_34_">
	<line class="st0" x1="167.9" y1="377.4" x2="167.9" y2="374.4"/>
</g>
<g id="SPLINE_48_">
	<path class="st0" d="M121.4,420.8c-0.2,9.4,5.3,22.7,12.1,29.2"/>
</g>
<g id="SPLINE_49_">
	<path class="st0" d="M135.7,447.9c0.5,0.6,1.6,1.6,2.1,2.1"/>
</g>
<g id="SPLINE_50_">
	<path class="st0" d="M137.8,388.6c-0.6,0.5-1.6,1.6-2.1,2.1"/>
</g>
<g id="POLYLINE_35_">
	<line class="st0" x1="195" y1="450" x2="197.1" y2="452.2"/>
</g>
<g id="POLYLINE_36_">
	<line class="st0" x1="135.7" y1="452.2" x2="137.8" y2="450"/>
</g>
<g id="POLYLINE_37_">
	<line class="st0" x1="208.3" y1="420.8" x2="211.3" y2="420.8"/>
</g>
<g id="SPLINE_51_">
	<ellipse transform="matrix(0.9571 -0.2898 0.2898 0.9571 -114.3739 66.2057)" class="st0" cx="166.4" cy="419.3" rx="37" ry="37"/>
</g>
<g id="POLYLINE_38_">
	<line class="st0" x1="197.1" y1="390.7" x2="199.2" y2="388.6"/>
</g>
<g id="POLYLINE_39_">
	<line class="st0" x1="135.7" y1="447.9" x2="133.5" y2="450"/>
</g>
<g id="SPLINE_52_">
	<path class="st0" d="M211.3,417.8c0.2-9.4-5.3-22.7-12.1-29.2"/>
</g>
<g id="SPLINE_53_">
	<path class="st0" d="M133.5,388.6c-6.8,6.5-12.3,19.8-12.1,29.2"/>
</g>
<g id="POLYLINE_40_">
	<line class="st0" x1="133.5" y1="388.6" x2="135.7" y2="390.7"/>
</g>
<g id="POLYLINE_41_">
	<line class="st0" x1="211.3" y1="417.8" x2="208.3" y2="417.8"/>
</g>
<g id="SPLINE_54_">
	<path class="st0" d="M167.9,464.3c9.4,0.2,22.7-5.3,29.2-12.1"/>
</g>
<g id="POLYLINE_42_">
	<line class="st0" x1="121.4" y1="420.8" x2="124.4" y2="420.8"/>
</g>
<g id="SPLINE_55_">
	<path class="st0" d="M164.9,461.3c0.8,0,2.2,0,3,0"/>
</g>
<g id="POLYLINE_43_">
	<line class="st0" x1="197.1" y1="386.5" x2="195" y2="388.6"/>
</g>
<g id="POLYLINE_44_">
	<line class="st0" x1="166.4" y1="262.1" x2="166.4" y2="265.1"/>
</g>
<g id="SPLINE_56_">
	<path class="st0" d="M203.5,276.2c-7.6-8-23.1-14.5-34.2-14.1"/>
</g>
<g id="POLYLINE_45_">
	<line class="st0" x1="130.1" y1="278.3" x2="132.2" y2="280.4"/>
</g>
<g id="SPLINE_57_">
	<path class="st0" d="M130.1,278.3c-8,7.6-14.5,23.1-14.1,34.2"/>
</g>
<g id="POLYLINE_46_">
	<line class="st0" x1="219.8" y1="312.5" x2="216.8" y2="312.5"/>
</g>
<g id="POLYLINE_47_">
	<line class="st0" x1="201.4" y1="349.6" x2="203.5" y2="351.8"/>
</g>
<g id="POLYLINE_48_">
	<line class="st0" x1="169.4" y1="365.9" x2="169.4" y2="362.9"/>
</g>
<g id="SPLINE_58_">
	<path class="st0" d="M132.2,347.5c0.5,0.6,1.6,1.6,2.1,2.1"/>
</g>
<g id="SPLINE_59_">
	<path class="st0" d="M169.4,265.1c-0.8,0-2.2,0-3,0"/>
</g>
<g id="SPLINE_60_">
	<path class="st0" d="M115.9,315.5c-0.3,11,6.1,26.6,14.1,34.2"/>
</g>
<g id="POLYLINE_49_">
	<line class="st0" x1="166.4" y1="362.9" x2="166.4" y2="365.9"/>
</g>
<g id="SPLINE_61_">
	<path class="st0" d="M203.5,280.4c-0.5-0.6-1.6-1.6-2.1-2.1"/>
</g>
<g id="POLYLINE_50_">
	<line class="st0" x1="216.8" y1="315.5" x2="219.8" y2="315.5"/>
</g>
<g id="SPLINE_62_">
	<path class="st0" d="M201.4,349.6c0.6-0.5,1.6-1.6,2.1-2.1"/>
</g>
<g id="SPLINE_63_">
	<path class="st0" d="M216.8,315.5c0-0.8,0-2.2,0-3"/>
</g>
<g id="POLYLINE_51_">
	<line class="st0" x1="118.9" y1="312.5" x2="115.9" y2="312.5"/>
</g>
<g id="POLYLINE_52_">
	<line class="st0" x1="132.2" y1="351.8" x2="134.3" y2="349.6"/>
</g>
<g id="POLYLINE_53_">
	<line class="st0" x1="169.4" y1="265.1" x2="169.4" y2="262.1"/>
</g>
<g id="POLYLINE_54_">
	<line class="st0" x1="132.2" y1="347.5" x2="130.1" y2="349.6"/>
</g>
<g id="SPLINE_64_">
	<path class="st0" d="M166.4,362.9c0.8,0,2.2,0,3,0"/>
</g>
<g id="SPLINE_65_">
	<path class="st0" d="M134.3,278.3c-0.6,0.5-1.6,1.6-2.1,2.1"/>
</g>
<g id="POLYLINE_55_">
	<line class="st0" x1="205.7" y1="349.6" x2="203.5" y2="347.5"/>
</g>
<g id="POLYLINE_56_">
	<line class="st0" x1="134.3" y1="278.3" x2="132.2" y2="276.2"/>
</g>
<g id="SPLINE_66_">
	<path class="st0" d="M169.4,365.9c11,0.3,26.6-6.1,34.2-14.2"/>
</g>
<g id="SPLINE_67_">
	<path class="st0" d="M132.2,351.8c7.6,8,23.1,14.5,34.2,14.2"/>
</g>
<g id="SPLINE_68_">
	<path class="st0" d="M166.4,262.1c-11-0.3-26.6,6.1-34.2,14.1"/>
</g>
<g id="POLYLINE_57_">
	<line class="st0" x1="203.5" y1="276.2" x2="201.4" y2="278.3"/>
</g>
<g id="POLYLINE_58_">
	<line class="st0" x1="115.9" y1="315.5" x2="118.9" y2="315.5"/>
</g>
<g id="SPLINE_69_">
	<path class="st0" d="M205.7,349.6c8-7.6,14.5-23.1,14.2-34.2"/>
</g>
<g id="POLYLINE_59_">
	<line class="st0" x1="203.5" y1="280.4" x2="205.7" y2="278.3"/>
</g>
<g id="SPLINE_70_">
	<path class="st0" d="M118.9,312.5c0,0.8,0,2.2,0,3"/>
</g>
<g id="SPLINE_71_">
	<path class="st0" d="M211.8,314c0-24.3-19.7-44-44-44c-24.3,0-44,19.7-44,44c0,24.3,19.7,44,44,44S211.8,338.3,211.8,314z"/>
</g>
<g id="SPLINE_72_">
	<path class="st0" d="M219.8,312.5c0.3-11-6.1-26.6-14.2-34.2"/>
</g>
<g id="SPLINE_73_">
	<path class="st0" d="M301.7,432.5c0.6-0.5,1.6-1.6,2.1-2.1"/>
</g>
<g id="SPLINE_74_">
	<path class="st0" d="M301.7,432.5c0.6-0.5,1.6-1.6,2.1-2.1"/>
</g>
<g id="SPLINE_75_">
	<path class="st0" d="M220.9,396c0,0.8,0,2.2,0,3"/>
</g>
<g id="SPLINE_76_">
	<path class="st0" d="M220.9,396c0,0.8,0,2.2,0,3"/>
</g>
<g id="SPLINE_77_">
	<path class="st0" d="M236,362.6c-0.6,0.5-1.6,1.6-2.1,2.1"/>
</g>
<g id="SPLINE_78_">
	<path class="st0" d="M236,362.6c-0.6,0.5-1.6,1.6-2.1,2.1"/>
</g>
<g id="POLYLINE_60_">
	<line class="st0" x1="316.8" y1="399" x2="319.8" y2="399"/>
</g>
<g id="SPLINE_79_">
	<path class="st0" d="M305.9,432.5c7.9-7.4,14.2-22.7,13.9-33.5"/>
</g>
<g id="POLYLINE_61_">
	<line class="st0" x1="305.9" y1="432.5" x2="303.8" y2="430.3"/>
</g>
<g id="POLYLINE_62_">
	<line class="st0" x1="233.9" y1="430.3" x2="231.8" y2="432.5"/>
</g>
<g id="SPLINE_80_">
	<path class="st0" d="M217.9,399c-0.3,10.8,6,26,13.9,33.5"/>
</g>
<g id="POLYLINE_63_">
	<line class="st0" x1="217.9" y1="399" x2="220.9" y2="399"/>
</g>
<g id="POLYLINE_64_">
	<line class="st0" x1="220.9" y1="396" x2="217.9" y2="396"/>
</g>
<g id="SPLINE_81_">
	<path class="st0" d="M231.8,362.6c-7.9,7.4-14.2,22.7-13.9,33.5"/>
</g>
<g id="POLYLINE_65_">
	<line class="st0" x1="231.8" y1="362.6" x2="233.9" y2="364.7"/>
</g>
<g id="POLYLINE_66_">
	<line class="st0" x1="301.7" y1="432.5" x2="303.8" y2="434.6"/>
</g>
<g id="SPLINE_82_">
	<path class="st0" d="M270.3,448.4c10.8,0.3,26-6,33.5-13.9"/>
</g>
<g id="POLYLINE_67_">
	<line class="st0" x1="270.3" y1="448.4" x2="270.3" y2="445.4"/>
</g>
<g id="POLYLINE_68_">
	<line class="st0" x1="270.3" y1="349.6" x2="270.3" y2="346.6"/>
</g>
<g id="SPLINE_83_">
	<path class="st0" d="M303.8,360.4c-7.4-7.9-22.7-14.2-33.5-13.9"/>
</g>
<g id="POLYLINE_69_">
	<line class="st0" x1="303.8" y1="360.4" x2="301.7" y2="362.6"/>
</g>
<g id="SPLINE_84_">
	<path class="st0" d="M303.8,364.7c-0.5-0.6-1.6-1.6-2.1-2.1"/>
</g>
<g id="SPLINE_85_">
	<path class="st0" d="M303.8,364.7c-0.5-0.6-1.6-1.6-2.1-2.1"/>
</g>
<g id="SPLINE_86_">
	
		<ellipse transform="matrix(0.9239 -0.3827 0.3827 0.9239 -131.6597 133.1349)" class="st0" cx="268.8" cy="397.5" rx="43" ry="43"/>
</g>
<g id="SPLINE_87_">
	<path class="st0" d="M233.9,430.3c0.5,0.6,1.6,1.6,2.1,2.1"/>
</g>
<g id="SPLINE_88_">
	<path class="st0" d="M233.9,430.3c0.5,0.6,1.6,1.6,2.1,2.1"/>
</g>
<g id="SPLINE_89_">
	<path class="st0" d="M267.3,445.4c0.8,0,2.2,0,3,0"/>
</g>
<g id="SPLINE_90_">
	<path class="st0" d="M267.3,445.4c0.8,0,2.2,0,3,0"/>
</g>
<g id="POLYLINE_70_">
	<line class="st0" x1="303.8" y1="364.7" x2="305.9" y2="362.6"/>
</g>
<g id="SPLINE_91_">
	<path class="st0" d="M319.8,396c0.3-10.8-6-26-13.9-33.5"/>
</g>
<g id="POLYLINE_71_">
	<line class="st0" x1="319.8" y1="396" x2="316.8" y2="396"/>
</g>
<g id="SPLINE_92_">
	<path class="st0" d="M316.8,399c0-0.8,0-2.2,0-3"/>
</g>
<g id="SPLINE_93_">
	<path class="st0" d="M316.8,399c0-0.8,0-2.2,0-3"/>
</g>
<g id="POLYLINE_72_">
	<line class="st0" x1="236" y1="362.6" x2="233.9" y2="360.4"/>
</g>
<g id="SPLINE_94_">
	<path class="st0" d="M267.3,346.6c-10.8-0.3-26,6-33.5,13.9"/>
</g>
<g id="POLYLINE_73_">
	<line class="st0" x1="267.3" y1="346.6" x2="267.3" y2="349.6"/>
</g>
<g id="SPLINE_95_">
	<path class="st0" d="M270.3,349.6c-0.8,0-2.2,0-3,0"/>
</g>
<g id="SPLINE_96_">
	<path class="st0" d="M270.3,349.6c-0.8,0-2.2,0-3,0"/>
</g>
<g id="POLYLINE_74_">
	<line class="st0" x1="267.3" y1="445.4" x2="267.3" y2="448.4"/>
</g>
<g id="SPLINE_97_">
	<path class="st0" d="M233.9,434.6c7.4,7.9,22.7,14.2,33.5,13.9"/>
</g>
<g id="POLYLINE_75_">
	<line class="st0" x1="233.9" y1="434.6" x2="236" y2="432.5"/>
</g>
<g id="POLYLINE_76_">
	<line class="st0" x1="113.1" y1="386.1" x2="115.2" y2="388.2"/>
</g>
<g id="POLYLINE_77_">
	<line class="st0" x1="115.2" y1="350.8" x2="113.1" y2="352.9"/>
</g>
<g id="SPLINE_98_">
	<path class="st0" d="M117.4,386.1c3.4-3.4,6.2-10.3,6.2-15.1"/>
</g>
<g id="SPLINE_99_">
	<path class="st0" d="M76.7,368c-0.1,0.8-0.1,2.2,0,3"/>
</g>
<g id="SPLINE_100_">
	<path class="st0" d="M82.1,383.9c0.5,0.6,1.5,1.6,2.1,2.1"/>
</g>
<g id="SPLINE_101_">
	<path class="st0" d="M97.2,391.4c0.8,0.1,2.2,0.1,3,0"/>
</g>
<g id="SPLINE_102_">
	<path class="st0" d="M100.2,347.6c-0.8-0.1-2.2-0.1-3,0"/>
</g>
<g id="SPLINE_103_">
	<path class="st0" d="M120.6,371c0.1-0.8,0.1-2.2,0-3"/>
</g>
<g id="POLYLINE_78_">
	<line class="st0" x1="120.6" y1="371" x2="123.6" y2="371"/>
</g>
<g id="POLYLINE_79_">
	<line class="st0" x1="97.2" y1="344.6" x2="97.2" y2="347.6"/>
</g>
<g id="POLYLINE_80_">
	<line class="st0" x1="117.4" y1="386.1" x2="115.2" y2="383.9"/>
</g>
<g id="POLYLINE_81_">
	<line class="st0" x1="100.2" y1="394.4" x2="100.2" y2="391.4"/>
</g>
<g id="SPLINE_104_">
	<path class="st0" d="M80,352.9c-3.4,3.4-6.2,10.3-6.2,15.1"/>
</g>
<g id="SPLINE_105_">
	<path class="st0" d="M82.1,388.2c3.4,3.4,10.3,6.2,15.1,6.2"/>
</g>
<g id="POLYLINE_82_">
	<line class="st0" x1="100.2" y1="347.6" x2="100.2" y2="344.6"/>
</g>
<g id="SPLINE_106_">
	<path class="st0" d="M97.2,344.6c-4.8,0-11.7,2.9-15.1,6.2"/>
</g>
<g id="POLYLINE_83_">
	<line class="st0" x1="97.2" y1="391.4" x2="97.2" y2="394.4"/>
</g>
<g id="POLYLINE_84_">
	<line class="st0" x1="80" y1="352.9" x2="82.1" y2="355.1"/>
</g>
<g id="SPLINE_107_">
	<path class="st0" d="M73.7,371c0,4.8,2.9,11.7,6.2,15.1"/>
</g>
<g id="POLYLINE_85_">
	<line class="st0" x1="123.6" y1="368" x2="120.6" y2="368"/>
</g>
<g id="POLYLINE_86_">
	<line class="st0" x1="115.2" y1="355.1" x2="117.4" y2="352.9"/>
</g>
<g id="SPLINE_108_">
	<path class="st0" d="M84.2,352.9c-0.6,0.5-1.6,1.5-2.1,2.1"/>
</g>
<g id="SPLINE_109_">
	<path class="st0" d="M115.2,350.8c-3.4-3.4-10.3-6.2-15.1-6.2"/>
</g>
<g id="POLYLINE_87_">
	<line class="st0" x1="76.7" y1="368" x2="73.7" y2="368"/>
</g>
<g id="POLYLINE_88_">
	<line class="st0" x1="82.1" y1="383.9" x2="80" y2="386.1"/>
</g>
<g id="POLYLINE_89_">
	<line class="st0" x1="82.1" y1="388.2" x2="84.2" y2="386.1"/>
</g>
<g id="SPLINE_110_">
	<circle class="st0" cx="98.7" cy="369.5" r="17"/>
</g>
<g id="SPLINE_111_">
	<path class="st0" d="M100.2,394.4c4.8,0,11.7-2.9,15.1-6.2"/>
</g>
<g id="POLYLINE_90_">
	<line class="st0" x1="73.7" y1="371" x2="76.7" y2="371"/>
</g>
<g id="SPLINE_112_">
	<path class="st0" d="M115.2,355.1c-0.5-0.6-1.5-1.6-2.1-2.1"/>
</g>
<g id="POLYLINE_91_">
	<line class="st0" x1="84.2" y1="352.9" x2="82.1" y2="350.8"/>
</g>
<g id="SPLINE_113_">
	<path class="st0" d="M113.1,386.1c0.6-0.5,1.6-1.5,2.1-2.1"/>
</g>
<g id="SPLINE_114_">
	<path class="st0" d="M123.6,368c0-4.8-2.9-11.7-6.2-15.1"/>
</g>
<g id="SPLINE_115_">
	<path class="st0" d="M406.1,459.1c7.3-6.9,13.3-21.2,13-31.3"/>
</g>
<g id="SPLINE_116_">
	<path class="st0" d="M404,391.3c-6.9-7.3-21.2-13.3-31.3-13"/>
</g>
<g id="POLYLINE_92_">
	<line class="st0" x1="372.7" y1="381.3" x2="372.7" y2="378.3"/>
</g>
<g id="SPLINE_117_">
	<path class="st0" d="M372.7,474.2c10.1,0.3,24.4-5.6,31.3-13"/>
</g>
<g id="POLYLINE_93_">
	<line class="st0" x1="419.1" y1="424.8" x2="416.1" y2="424.8"/>
</g>
<g id="POLYLINE_94_">
	<line class="st0" x1="416.1" y1="427.8" x2="419.1" y2="427.8"/>
</g>
<g id="SPLINE_118_">
	<path class="st0" d="M338.3,461.2c6.9,7.3,21.2,13.3,31.3,13"/>
</g>
<g id="POLYLINE_95_">
	<line class="st0" x1="338.3" y1="461.2" x2="340.5" y2="459.1"/>
</g>
<g id="POLYLINE_96_">
	<line class="st0" x1="404" y1="395.6" x2="406.1" y2="393.4"/>
</g>
<g id="SPLINE_119_">
	<path class="st0" d="M340.5,393.4c-0.6,0.5-1.6,1.6-2.1,2.1"/>
</g>
<g id="SPLINE_120_">
	<circle class="st0" cx="371.2" cy="426.3" r="40"/>
</g>
<g id="POLYLINE_97_">
	<line class="st0" x1="401.9" y1="459.1" x2="404" y2="461.2"/>
</g>
<g id="SPLINE_121_">
	<path class="st0" d="M416.1,427.8c0-0.8,0-2.2,0-3"/>
</g>
<g id="SPLINE_122_">
	<path class="st0" d="M369.7,471.2c0.8,0,2.2,0,3,0"/>
</g>
<g id="SPLINE_123_">
	<path class="st0" d="M401.9,459.1c0.6-0.5,1.6-1.6,2.1-2.1"/>
</g>
<g id="POLYLINE_98_">
	<line class="st0" x1="404" y1="391.3" x2="401.9" y2="393.4"/>
</g>
<g id="POLYLINE_99_">
	<line class="st0" x1="326.2" y1="424.8" x2="323.2" y2="424.8"/>
</g>
<g id="SPLINE_124_">
	<path class="st0" d="M338.3,457c0.5,0.6,1.6,1.6,2.1,2.1"/>
</g>
<g id="SPLINE_125_">
	<path class="st0" d="M326.2,424.8c0,0.8,0,2.2,0,3"/>
</g>
<g id="POLYLINE_100_">
	<line class="st0" x1="336.2" y1="393.4" x2="338.3" y2="395.6"/>
</g>
<g id="SPLINE_126_">
	<path class="st0" d="M369.7,378.3c-10.1-0.3-24.4,5.6-31.3,13"/>
</g>
<g id="SPLINE_127_">
	<path class="st0" d="M372.7,381.3c-0.8,0-2.2,0-3,0"/>
</g>
<g id="POLYLINE_101_">
	<line class="st0" x1="338.3" y1="457" x2="336.2" y2="459.1"/>
</g>
<g id="SPLINE_128_">
	<path class="st0" d="M404,395.6c-0.5-0.6-1.6-1.6-2.1-2.1"/>
</g>
<g id="SPLINE_129_">
	<path class="st0" d="M323.2,427.8c-0.3,10.1,5.6,24.4,13,31.3"/>
</g>
<g id="SPLINE_130_">
	<path class="st0" d="M419.1,424.8c0.3-10.1-5.6-24.4-13-31.3"/>
</g>
<g id="POLYLINE_102_">
	<line class="st0" x1="340.5" y1="393.4" x2="338.3" y2="391.3"/>
</g>
<g id="POLYLINE_103_">
	<line class="st0" x1="372.7" y1="474.2" x2="372.7" y2="471.2"/>
</g>
<g id="POLYLINE_104_">
	<line class="st0" x1="323.2" y1="427.8" x2="326.2" y2="427.8"/>
</g>
<g id="POLYLINE_105_">
	<line class="st0" x1="369.7" y1="378.3" x2="369.7" y2="381.3"/>
</g>
<g id="POLYLINE_106_">
	<line class="st0" x1="369.7" y1="471.2" x2="369.7" y2="474.2"/>
</g>
<g id="POLYLINE_107_">
	<line class="st0" x1="406.1" y1="459.1" x2="404" y2="457"/>
</g>
<g id="SPLINE_131_">
	<path class="st0" d="M336.2,393.4c-7.3,6.9-13.3,21.2-13,31.3"/>
</g>
<g id="POLYLINE_108_">
	<line class="st0" x1="387.2" y1="358.3" x2="385.1" y2="356.2"/>
</g>
<g id="SPLINE_132_">
	<path class="st0" d="M328.6,299.7c-0.6,0.5-1.6,1.6-2.1,2.1"/>
</g>
<g id="SPLINE_133_">
	<path class="st0" d="M354.3,369c0.8,0,2.2,0,3,0"/>
</g>
<g id="SPLINE_134_">
	<path class="st0" d="M326.5,356.2c0.5,0.6,1.6,1.6,2.1,2.1"/>
</g>
<g id="POLYLINE_109_">
	<line class="st0" x1="385.1" y1="297.6" x2="383" y2="299.7"/>
</g>
<g id="POLYLINE_110_">
	<line class="st0" x1="324.4" y1="299.7" x2="326.5" y2="301.9"/>
</g>
<g id="POLYLINE_111_">
	<line class="st0" x1="326.5" y1="360.5" x2="328.6" y2="358.3"/>
</g>
<g id="POLYLINE_112_">
	<line class="st0" x1="312.8" y1="330.5" x2="315.8" y2="330.5"/>
</g>
<g id="SPLINE_135_">
	<path class="st0" d="M324.4,299.7c-6.5,6.2-11.7,18.9-11.5,27.8"/>
</g>
<g id="POLYLINE_113_">
	<line class="st0" x1="328.6" y1="299.7" x2="326.5" y2="297.6"/>
</g>
<g id="SPLINE_136_">
	<path class="st0" d="M385.1,297.6c-6.2-6.5-18.9-11.7-27.8-11.5"/>
</g>
<g id="POLYLINE_114_">
	<line class="st0" x1="357.3" y1="289.1" x2="357.3" y2="286.1"/>
</g>
<g id="SPLINE_137_">
	<path class="st0" d="M398.7,327.5c0.2-8.9-5-21.6-11.5-27.8"/>
</g>
<g id="SPLINE_138_">
	<path class="st0" d="M383,358.3c0.6-0.5,1.6-1.6,2.1-2.1"/>
</g>
<g id="POLYLINE_115_">
	<line class="st0" x1="383" y1="358.3" x2="385.1" y2="360.5"/>
</g>
<g id="POLYLINE_116_">
	<line class="st0" x1="315.8" y1="327.5" x2="312.8" y2="327.5"/>
</g>
<g id="POLYLINE_117_">
	<line class="st0" x1="395.7" y1="330.5" x2="398.7" y2="330.5"/>
</g>
<g id="POLYLINE_118_">
	<line class="st0" x1="326.5" y1="356.2" x2="324.4" y2="358.3"/>
</g>
<g id="SPLINE_139_">
	<path class="st0" d="M354.3,286.1c-8.9-0.2-21.6,5-27.8,11.5"/>
</g>
<g id="POLYLINE_119_">
	<line class="st0" x1="357.3" y1="372" x2="357.3" y2="369"/>
</g>
<g id="SPLINE_140_">
	<path class="st0" d="M387.2,358.3c6.5-6.2,11.7-18.9,11.5-27.8"/>
</g>
<g id="SPLINE_141_">
	<path class="st0" d="M326.5,360.5c6.2,6.5,18.9,11.7,27.8,11.5"/>
</g>
<g id="POLYLINE_120_">
	<line class="st0" x1="354.3" y1="286.1" x2="354.3" y2="289.1"/>
</g>
<g id="SPLINE_142_">
	<path class="st0" d="M385.1,301.9c-0.5-0.6-1.6-1.6-2.1-2.1"/>
</g>
<g id="SPLINE_143_">
	<ellipse transform="matrix(0.7071 -0.7071 0.7071 0.7071 -128.4613 347.9422)" class="st0" cx="355.8" cy="329" rx="35" ry="35"/>
</g>
<g id="SPLINE_144_">
	<path class="st0" d="M395.7,330.5c0-0.8,0-2.2,0-3"/>
</g>
<g id="SPLINE_145_">
	<path class="st0" d="M357.3,372c8.9,0.2,21.6-5,27.8-11.5"/>
</g>
<g id="SPLINE_146_">
	<path class="st0" d="M312.8,330.5c-0.2,8.9,5,21.6,11.5,27.8"/>
</g>
<g id="POLYLINE_121_">
	<line class="st0" x1="354.3" y1="369" x2="354.3" y2="372"/>
</g>
<g id="SPLINE_147_">
	<path class="st0" d="M315.8,327.5c0,0.8,0,2.2,0,3"/>
</g>
<g id="POLYLINE_122_">
	<line class="st0" x1="398.7" y1="327.5" x2="395.7" y2="327.5"/>
</g>
<g id="POLYLINE_123_">
	<line class="st0" x1="385.1" y1="301.9" x2="387.2" y2="299.7"/>
</g>
<g id="SPLINE_148_">
	<path class="st0" d="M357.3,289.1c-0.8,0-2.2,0-3,0"/>
</g>
<g id="POLYLINE_124_">
	<line class="st0" x1="740" y1="425.3" x2="737.8" y2="423.2"/>
</g>
<g id="POLYLINE_125_">
	<line class="st0" x1="666.6" y1="353.3" x2="664.4" y2="351.2"/>
</g>
<g id="SPLINE_149_">
	<path class="st0" d="M647.9,391.1c-0.4,11.3,6.2,27.1,14.4,34.9"/>
</g>
<g id="SPLINE_150_">
	<path class="st0" d="M662.3,353.3c-8.2,7.7-14.8,23.6-14.4,34.9"/>
</g>
<g id="SPLINE_151_">
	<path class="st0" d="M664.4,423.9c0.5,0.6,1.6,1.6,2.1,2.1"/>
</g>
<g id="SPLINE_152_">
	<path class="st0" d="M650.9,388.2c0,0.8,0,2.2,0,3"/>
</g>
<g id="POLYLINE_126_">
	<line class="st0" x1="647.9" y1="391.1" x2="650.9" y2="391.1"/>
</g>
<g id="POLYLINE_127_">
	<line class="st0" x1="650.9" y1="388.2" x2="647.9" y2="388.2"/>
</g>
<g id="SPLINE_153_">
	<path class="st0" d="M750.7,390.1c0-0.8,0-2.2-0.1-3"/>
</g>
<g id="POLYLINE_128_">
	<line class="st0" x1="753.7" y1="387.2" x2="750.7" y2="387.2"/>
</g>
<g id="SPLINE_154_">
	<path class="st0" d="M699.3,336.7c-11.3-0.4-27.1,6.2-34.9,14.4"/>
</g>
<g id="POLYLINE_129_">
	<line class="st0" x1="664.4" y1="428.1" x2="666.6" y2="426"/>
</g>
<g id="POLYLINE_130_">
	<line class="st0" x1="750.7" y1="390.1" x2="753.7" y2="390.1"/>
</g>
<g id="SPLINE_155_">
	<path class="st0" d="M700.3,439.6c0.8,0,2.2,0,3-0.1"/>
</g>
<g id="SPLINE_156_">
	<path class="st0" d="M702.3,339.7c-0.8,0-2.2,0-3,0"/>
</g>
<g id="POLYLINE_131_">
	<line class="st0" x1="700.3" y1="439.6" x2="700.3" y2="442.6"/>
</g>
<g id="POLYLINE_132_">
	<line class="st0" x1="702.3" y1="339.7" x2="702.3" y2="336.7"/>
</g>
<g id="SPLINE_157_">
	<path class="st0" d="M753.7,387.2c0.1-11.3-6.7-27-15.1-34.6"/>
</g>
<g id="SPLINE_158_">
	<ellipse transform="matrix(0.7071 -0.7071 0.7071 0.7071 -70.2644 609.6662)" class="st0" cx="700.8" cy="389.6" rx="45" ry="45"/>
</g>
<g id="POLYLINE_133_">
	<line class="st0" x1="703.3" y1="442.5" x2="703.3" y2="439.5"/>
</g>
<g id="SPLINE_159_">
	<path class="st0" d="M736.4,350.5c-7.6-7.8-23.2-14.1-34.1-13.8"/>
</g>
<g id="SPLINE_160_">
	<path class="st0" d="M740,425.3c8.1-7.9,14.3-23.9,13.8-35.1"/>
</g>
<g id="POLYLINE_134_">
	<line class="st0" x1="735.8" y1="425.3" x2="737.9" y2="427.4"/>
</g>
<g id="POLYLINE_135_">
	<line class="st0" x1="664.4" y1="423.9" x2="662.3" y2="426"/>
</g>
<g id="SPLINE_161_">
	<path class="st0" d="M703.3,442.5c11.3,0.1,27-6.7,34.6-15.1"/>
</g>
<g id="SPLINE_162_">
	<path class="st0" d="M664.4,428.1c8,8.5,24.3,15,35.9,14.5"/>
</g>
<g id="SPLINE_163_">
	<path class="st0" d="M736.5,354.7c-0.5-0.5-1.6-1.6-2.2-2.1"/>
</g>
<g id="POLYLINE_136_">
	<line class="st0" x1="699.3" y1="336.7" x2="699.3" y2="339.7"/>
</g>
<g id="POLYLINE_137_">
	<line class="st0" x1="662.3" y1="353.3" x2="664.4" y2="355.4"/>
</g>
<g id="POLYLINE_138_">
	<line class="st0" x1="736.4" y1="350.5" x2="734.3" y2="352.6"/>
</g>
<g id="SPLINE_164_">
	<path class="st0" d="M666.6,353.3c-0.6,0.5-1.6,1.6-2.1,2.1"/>
</g>
<g id="POLYLINE_139_">
	<line class="st0" x1="736.5" y1="354.7" x2="738.6" y2="352.6"/>
</g>
<g id="SPLINE_165_">
	<path class="st0" d="M735.8,425.3c0.5-0.5,1.6-1.6,2.1-2.2"/>
</g>
<g id="SPLINE_166_">
	<path class="st0" d="M503,364.1c0-0.8,0-2.2,0-3"/>
</g>
<g id="SPLINE_167_">
	<circle class="st0" cx="456.1" cy="362.6" r="42"/>
</g>
<g id="POLYLINE_140_">
	<line class="st0" x1="503" y1="364.1" x2="506" y2="364.1"/>
</g>
<g id="SPLINE_168_">
	<path class="st0" d="M457.6,412.5c10.6,0.3,25.5-5.9,32.7-13.6"/>
</g>
<g id="SPLINE_169_">
	<path class="st0" d="M421.8,394.7c0.5,0.6,1.6,1.6,2.1,2.1"/>
</g>
<g id="SPLINE_170_">
	<path class="st0" d="M409.1,361.1c0,0.8,0,2.2,0,3"/>
</g>
<g id="POLYLINE_141_">
	<line class="st0" x1="454.6" y1="312.6" x2="454.6" y2="315.6"/>
</g>
<g id="SPLINE_171_">
	<path class="st0" d="M490.3,326.2c-7.3-7.7-22.2-13.9-32.7-13.6"/>
</g>
<g id="POLYLINE_142_">
	<line class="st0" x1="423.9" y1="328.3" x2="421.8" y2="326.2"/>
</g>
<g id="SPLINE_172_">
	<path class="st0" d="M454.6,312.6c-10.6-0.3-25.5,5.9-32.7,13.6"/>
</g>
<g id="POLYLINE_143_">
	<line class="st0" x1="421.8" y1="398.9" x2="423.9" y2="396.8"/>
</g>
<g id="POLYLINE_144_">
	<line class="st0" x1="506" y1="361.1" x2="503" y2="361.1"/>
</g>
<g id="POLYLINE_145_">
	<line class="st0" x1="488.2" y1="396.8" x2="490.3" y2="398.9"/>
</g>
<g id="SPLINE_173_">
	<path class="st0" d="M490.3,330.4c-0.5-0.6-1.6-1.6-2.1-2.1"/>
</g>
<g id="POLYLINE_146_">
	<line class="st0" x1="409.1" y1="361.1" x2="406.1" y2="361.1"/>
</g>
<g id="POLYLINE_147_">
	<line class="st0" x1="419.7" y1="328.3" x2="421.8" y2="330.4"/>
</g>
<g id="POLYLINE_148_">
	<line class="st0" x1="490.3" y1="326.2" x2="488.2" y2="328.3"/>
</g>
<g id="POLYLINE_149_">
	<line class="st0" x1="421.8" y1="394.7" x2="419.7" y2="396.8"/>
</g>
<g id="SPLINE_174_">
	<path class="st0" d="M454.6,409.5c0.8,0,2.2,0,3,0"/>
</g>
<g id="SPLINE_175_">
	<path class="st0" d="M406.1,364.1c-0.3,10.6,5.9,25.5,13.6,32.7"/>
</g>
<g id="SPLINE_176_">
	<path class="st0" d="M421.8,398.9c7.3,7.7,22.2,13.9,32.7,13.6"/>
</g>
<g id="SPLINE_177_">
	<path class="st0" d="M488.2,396.8c0.6-0.5,1.6-1.6,2.1-2.1"/>
</g>
<g id="POLYLINE_150_">
	<line class="st0" x1="457.6" y1="412.5" x2="457.6" y2="409.5"/>
</g>
<g id="SPLINE_178_">
	<path class="st0" d="M423.9,328.3c-0.6,0.5-1.6,1.6-2.1,2.1"/>
</g>
<g id="SPLINE_179_">
	<path class="st0" d="M419.7,328.3c-7.7,7.3-13.9,22.2-13.6,32.7"/>
</g>
<g id="POLYLINE_151_">
	<line class="st0" x1="457.6" y1="315.6" x2="457.6" y2="312.6"/>
</g>
<g id="SPLINE_180_">
	<path class="st0" d="M506,361.1c0.3-10.6-5.9-25.5-13.6-32.7"/>
</g>
<g id="POLYLINE_152_">
	<line class="st0" x1="490.3" y1="330.4" x2="492.4" y2="328.3"/>
</g>
<g id="POLYLINE_153_">
	<line class="st0" x1="406.1" y1="364.1" x2="409.1" y2="364.1"/>
</g>
<g id="SPLINE_181_">
	<path class="st0" d="M492.4,396.8c7.7-7.3,13.9-22.2,13.6-32.7"/>
</g>
<g id="POLYLINE_154_">
	<line class="st0" x1="492.4" y1="396.8" x2="490.3" y2="394.7"/>
</g>
<g id="SPLINE_182_">
	<path class="st0" d="M457.6,315.6c-0.8,0-2.2,0-3,0"/>
</g>
<g id="POLYLINE_155_">
	<line class="st0" x1="454.6" y1="409.5" x2="454.6" y2="412.5"/>
</g>
<g id="POLYLINE_156_">
	<line class="st0" x1="569.1" y1="315.7" x2="569.1" y2="312.7"/>
</g>
<g id="SPLINE_183_">
	<path class="st0" d="M602.6,326.6c-7.4-7.9-22.7-14.2-33.5-13.9"/>
</g>
<g id="POLYLINE_157_">
	<line class="st0" x1="602.6" y1="326.6" x2="600.5" y2="328.7"/>
</g>
<g id="SPLINE_184_">
	<path class="st0" d="M602.6,330.8c-0.5-0.6-1.6-1.6-2.1-2.1"/>
</g>
<g id="SPLINE_185_">
	<path class="st0" d="M602.6,330.8c-0.5-0.6-1.6-1.6-2.1-2.1"/>
</g>
<g id="SPLINE_186_">
	<path class="st0" d="M519.7,362.1c0,0.8,0,2.2,0,3"/>
</g>
<g id="SPLINE_187_">
	<path class="st0" d="M519.7,362.1c0,0.8,0,2.2,0,3"/>
</g>
<g id="POLYLINE_158_">
	<line class="st0" x1="602.6" y1="330.8" x2="604.7" y2="328.7"/>
</g>
<g id="SPLINE_188_">
	<path class="st0" d="M618.6,362.1c0.3-10.8-6-26-13.9-33.5"/>
</g>
<g id="POLYLINE_159_">
	<line class="st0" x1="618.6" y1="362.1" x2="615.6" y2="362.1"/>
</g>
<g id="SPLINE_189_">
	<path class="st0" d="M615.6,365.1c0-0.8,0-2.2,0-3"/>
</g>
<g id="SPLINE_190_">
	<path class="st0" d="M615.6,365.1c0-0.8,0-2.2,0-3"/>
</g>
<g id="POLYLINE_160_">
	<line class="st0" x1="532.7" y1="396.5" x2="530.6" y2="398.6"/>
</g>
<g id="SPLINE_191_">
	<path class="st0" d="M516.7,365.1c-0.3,10.8,6,26,13.9,33.5"/>
</g>
<g id="POLYLINE_161_">
	<line class="st0" x1="516.7" y1="365.1" x2="519.7" y2="365.1"/>
</g>
<g id="SPLINE_192_">
	<ellipse transform="matrix(0.7071 -0.7071 0.7071 0.7071 -90.8607 507.8904)" class="st0" cx="567.6" cy="363.6" rx="43" ry="43"/>
</g>
<g id="SPLINE_193_">
	<path class="st0" d="M534.8,328.7c-0.6,0.5-1.6,1.6-2.1,2.1"/>
</g>
<g id="SPLINE_194_">
	<path class="st0" d="M534.8,328.7c-0.6,0.5-1.6,1.6-2.1,2.1"/>
</g>
<g id="POLYLINE_162_">
	<line class="st0" x1="534.8" y1="328.7" x2="532.7" y2="326.6"/>
</g>
<g id="SPLINE_195_">
	<path class="st0" d="M566.1,312.7c-10.8-0.3-26,6-33.5,13.9"/>
</g>
<g id="POLYLINE_163_">
	<line class="st0" x1="566.1" y1="312.7" x2="566.1" y2="315.7"/>
</g>
<g id="SPLINE_196_">
	<path class="st0" d="M569.1,315.7c-0.8,0-2.2,0-3,0"/>
</g>
<g id="SPLINE_197_">
	<path class="st0" d="M569.1,315.7c-0.8,0-2.2,0-3,0"/>
</g>
<g id="POLYLINE_164_">
	<line class="st0" x1="519.7" y1="362.1" x2="516.7" y2="362.1"/>
</g>
<g id="SPLINE_198_">
	<path class="st0" d="M530.6,328.7c-7.9,7.4-14.2,22.7-13.9,33.5"/>
</g>
<g id="POLYLINE_165_">
	<line class="st0" x1="530.6" y1="328.7" x2="532.7" y2="330.8"/>
</g>
<g id="POLYLINE_166_">
	<line class="st0" x1="615.6" y1="365.1" x2="618.6" y2="365.1"/>
</g>
<g id="SPLINE_199_">
	<path class="st0" d="M604.7,398.6c7.9-7.4,14.2-22.7,13.9-33.5"/>
</g>
<g id="POLYLINE_167_">
	<line class="st0" x1="604.7" y1="398.6" x2="602.6" y2="396.5"/>
</g>
<g id="SPLINE_200_">
	<path class="st0" d="M600.5,398.6c0.6-0.5,1.6-1.6,2.1-2.1"/>
</g>
<g id="SPLINE_201_">
	<path class="st0" d="M600.5,398.6c0.6-0.5,1.6-1.6,2.1-2.1"/>
</g>
<g id="SPLINE_202_">
	<path class="st0" d="M566.1,411.6c0.8,0,2.2,0,3,0"/>
</g>
<g id="SPLINE_203_">
	<path class="st0" d="M566.1,411.6c0.8,0,2.2,0,3,0"/>
</g>
<g id="POLYLINE_168_">
	<line class="st0" x1="566.1" y1="411.6" x2="566.1" y2="414.6"/>
</g>
<g id="SPLINE_204_">
	<path class="st0" d="M532.7,400.7c7.4,7.9,22.7,14.2,33.5,13.9"/>
</g>
<g id="POLYLINE_169_">
	<line class="st0" x1="532.7" y1="400.7" x2="534.8" y2="398.6"/>
</g>
<g id="POLYLINE_170_">
	<line class="st0" x1="600.5" y1="398.6" x2="602.6" y2="400.7"/>
</g>
<g id="SPLINE_205_">
	<path class="st0" d="M569.1,414.6c10.8,0.3,26-6,33.5-13.9"/>
</g>
<g id="POLYLINE_171_">
	<line class="st0" x1="569.1" y1="414.6" x2="569.1" y2="411.6"/>
</g>
<g id="SPLINE_206_">
	<path class="st0" d="M532.7,396.5c0.5,0.6,1.6,1.6,2.1,2.1"/>
</g>
<g id="SPLINE_207_">
	<path class="st0" d="M532.7,396.5c0.5,0.6,1.6,1.6,2.1,2.1"/>
</g>
<g id="SPLINE_208_">
	<path class="st0" d="M574.8,458.5c-0.3,9.9,5.5,23.8,12.7,30.6"/>
</g>
<g id="POLYLINE_172_">
	<line class="st0" x1="587.5" y1="489.1" x2="589.6" y2="487"/>
</g>
<g id="SPLINE_209_">
	<path class="st0" d="M589.6,487c0.5,0.6,1.6,1.6,2.1,2.1"/>
</g>
<g id="POLYLINE_173_">
	<line class="st0" x1="591.7" y1="489.1" x2="589.6" y2="491.2"/>
</g>
<g id="SPLINE_210_">
	<path class="st0" d="M589.6,491.2c6.8,7.2,20.8,13,30.6,12.7"/>
</g>
<g id="POLYLINE_174_">
	<line class="st0" x1="620.2" y1="503.9" x2="620.2" y2="500.9"/>
</g>
<g id="SPLINE_211_">
	<path class="st0" d="M620.2,500.9c0.8,0,2.2,0,3,0"/>
</g>
<g id="POLYLINE_175_">
	<line class="st0" x1="623.2" y1="500.9" x2="623.2" y2="503.9"/>
</g>
<g id="SPLINE_212_">
	<path class="st0" d="M623.2,503.9c9.9,0.3,23.8-5.5,30.6-12.7"/>
</g>
<g id="POLYLINE_176_">
	<line class="st0" x1="653.8" y1="491.2" x2="651.7" y2="489.1"/>
</g>
<g id="SPLINE_213_">
	<path class="st0" d="M651.7,489.1c0.6-0.5,1.6-1.6,2.1-2.1"/>
</g>
<g id="POLYLINE_177_">
	<line class="st0" x1="653.8" y1="487" x2="656" y2="489.1"/>
</g>
<g id="SPLINE_214_">
	<path class="st0" d="M656,489.1c7.2-6.8,13-20.8,12.7-30.6"/>
</g>
<g id="POLYLINE_178_">
	<line class="st0" x1="668.7" y1="458.5" x2="665.7" y2="458.5"/>
</g>
<g id="SPLINE_215_">
	<path class="st0" d="M665.7,458.5c0-0.8,0-2.2,0-3"/>
</g>
<g id="POLYLINE_179_">
	<line class="st0" x1="665.7" y1="455.5" x2="668.7" y2="455.5"/>
</g>
<g id="SPLINE_216_">
	<path class="st0" d="M668.7,455.5c0.3-9.9-5.5-23.8-12.7-30.6"/>
</g>
<g id="POLYLINE_180_">
	<line class="st0" x1="656" y1="424.9" x2="653.8" y2="427"/>
</g>
<g id="SPLINE_217_">
	<path class="st0" d="M653.8,427c-0.5-0.6-1.6-1.6-2.1-2.1"/>
</g>
<g id="POLYLINE_181_">
	<line class="st0" x1="651.7" y1="424.9" x2="653.8" y2="422.7"/>
</g>
<g id="SPLINE_218_">
	<path class="st0" d="M653.8,422.7c-6.8-7.2-20.8-13-30.6-12.7"/>
</g>
<g id="POLYLINE_182_">
	<line class="st0" x1="623.2" y1="410" x2="623.2" y2="413"/>
</g>
<g id="SPLINE_219_">
	<path class="st0" d="M623.2,413c-0.8,0-2.2,0-3,0"/>
</g>
<g id="POLYLINE_183_">
	<line class="st0" x1="620.2" y1="413" x2="620.2" y2="410"/>
</g>
<g id="SPLINE_220_">
	<path class="st0" d="M620.2,410c-9.9-0.3-23.8,5.5-30.6,12.7"/>
</g>
<g id="POLYLINE_184_">
	<line class="st0" x1="589.6" y1="422.7" x2="591.7" y2="424.9"/>
</g>
<g id="SPLINE_221_">
	<path class="st0" d="M591.7,424.9c-0.6,0.5-1.6,1.6-2.1,2.1"/>
</g>
<g id="POLYLINE_185_">
	<line class="st0" x1="589.6" y1="427" x2="587.5" y2="424.9"/>
</g>
<g id="SPLINE_222_">
	<path class="st0" d="M587.5,424.9c-7.2,6.8-13,20.8-12.7,30.6"/>
</g>
<g id="POLYLINE_186_">
	<line class="st0" x1="574.8" y1="455.5" x2="577.8" y2="455.5"/>
</g>
<g id="SPLINE_223_">
	<path class="st0" d="M577.8,455.5c0,0.8,0,2.2,0,3"/>
</g>
<g id="POLYLINE_187_">
	<line class="st0" x1="577.8" y1="458.5" x2="574.8" y2="458.5"/>
</g>
<g id="SPLINE_224_">
	<circle class="st0" cx="621.7" cy="457" r="39"/>
</g>
</svg>
