<?xml version="1.0" encoding="utf-8"?>
<!-- Generator: Adobe Illustrator 24.2.3, SVG Export Plug-In . SVG Version: 6.00 Build 0)  -->
<svg version="1.1" id="layer_1" xmlns="http://www.w3.org/2000/svg" xmlns:xlink="http://www.w3.org/1999/xlink" x="0px" y="0px"
	 viewBox="0 0 1920 1080" style="enable-background:new 0 0 1920 1080;" xml:space="preserve">
<style type="text/css">
	.st0{fill:none;stroke:#0099CC;stroke-width:0.2551;stroke-linecap:round;stroke-linejoin:round;stroke-miterlimit:10;}
</style>
<g id="SPLINE_40_">
	<path class="st0" d="M961.6,157.4h10c0,0,1.7,0,3,1.3c0,1.7,0,1.7,0,1.7c0,7,0,7,0,7h-8.5c0,0,0,0,0,3.7c8.5,0,8.5,0,8.5,0v66.6
		c0,0,0,0-8.5,0c0,3.7,0,3.7,0,3.7h8.5c0,0,0,0,0,66.6c-8.5,0-8.5,0-8.5,0v3.7c0,0,0,0,8.5,0c0,66.6,0,66.6,0,66.6h-8.5
		c0,0,0,0,0,3.7c8.5,0,8.5,0,8.5,0v66.6c0,0,0,0-8.5,0c0,3.7,0,3.7,0,3.7h8.5c0,0,0,0,0,7c0,0,0,0,0,1.7c-1.3,1.3-3,1.3-3,1.3h-10
		c0,0-1.7,0-3-1.3c0-1.7,0-1.7,0-1.7c0-299,0-299,0-299C958.6,158.8,959.9,157.4,961.6,157.4z"/>
</g>
<g id="SPLINE_41_">
	<path class="st0" d="M979.6,157.4h10c0,0,1.7,0,3,1.3c0,1.7,0,1.7,0,1.7c0,7,0,7,0,7h-8.5c0,0,0,0,0,3.7c8.5,0,8.5,0,8.5,0v66.6
		c0,0,0,0-8.5,0c0,3.7,0,3.7,0,3.7h8.5c0,0,0,0,0,66.6c-8.5,0-8.5,0-8.5,0v3.7c0,0,0,0,8.5,0c0,66.6,0,66.6,0,66.6h-8.5
		c0,0,0,0,0,3.7c8.5,0,8.5,0,8.5,0v66.6c0,0,0,0-8.5,0c0,3.7,0,3.7,0,3.7h8.5c0,0,0,0,0,7c0,0,0,0,0,1.7c-1.3,1.3-3,1.3-3,1.3h-10
		c0,0-1.7,0-3-1.3c0-1.7,0-1.7,0-1.7c0-299,0-299,0-299C976.6,158.8,977.9,157.4,979.6,157.4z"/>
</g>
<g id="SPLINE_42_">
	<path class="st0" d="M997.6,157.4h10c0,0,1.7,0,3,1.3c0,1.7,0,1.7,0,1.7c0,7,0,7,0,7h-8.5c0,0,0,0,0,3.7c8.5,0,8.5,0,8.5,0v66.6
		c0,0,0,0-8.5,0c0,3.7,0,3.7,0,3.7h8.5c0,0,0,0,0,66.6c-8.5,0-8.5,0-8.5,0v3.7c0,0,0,0,8.5,0c0,66.6,0,66.6,0,66.6h-8.5
		c0,0,0,0,0,3.7c8.5,0,8.5,0,8.5,0v66.6c0,0,0,0-8.5,0c0,3.7,0,3.7,0,3.7h8.5c0,0,0,0,0,7c0,0,0,0,0,1.7c-1.3,1.3-3,1.3-3,1.3h-10
		c0,0-1.7,0-3-1.3c0-1.7,0-1.7,0-1.7c0-299,0-299,0-299C994.6,158.8,995.9,157.4,997.6,157.4z"/>
</g>
<g id="SPLINE_43_">
	<path class="st0" d="M1015.6,157.4h10c0,0,1.7,0,3,1.3c0,1.7,0,1.7,0,1.7c0,7,0,7,0,7h-8.5c0,0,0,0,0,3.7c8.5,0,8.5,0,8.5,0v66.6
		c0,0,0,0-8.5,0c0,3.7,0,3.7,0,3.7h8.5c0,0,0,0,0,66.6c-8.5,0-8.5,0-8.5,0v3.7c0,0,0,0,8.5,0c0,66.6,0,66.6,0,66.6h-8.5
		c0,0,0,0,0,3.7c8.5,0,8.5,0,8.5,0v66.6c0,0,0,0-8.5,0c0,3.7,0,3.7,0,3.7h8.5c0,0,0,0,0,7c0,0,0,0,0,1.7c-1.3,1.3-3,1.3-3,1.3h-10
		c0,0-1.7,0-3-1.3c0-1.7,0-1.7,0-1.7c0-299,0-299,0-299C1012.6,158.8,1013.9,157.4,1015.6,157.4z"/>
</g>
<g id="SPLINE_44_">
	<path class="st0" d="M1033.6,157.4h10c0,0,1.7,0,3,1.3c0,1.7,0,1.7,0,1.7c0,7,0,7,0,7h-8.5c0,0,0,0,0,3.7c8.5,0,8.5,0,8.5,0v66.6
		c0,0,0,0-8.5,0c0,3.7,0,3.7,0,3.7h8.5c0,0,0,0,0,66.6c-8.5,0-8.5,0-8.5,0v3.7c0,0,0,0,8.5,0c0,66.6,0,66.6,0,66.6h-8.5
		c0,0,0,0,0,3.7c8.5,0,8.5,0,8.5,0v66.6c0,0,0,0-8.5,0c0,3.7,0,3.7,0,3.7h8.5c0,0,0,0,0,7c0,0,0,0,0,1.7c-1.3,1.3-3,1.3-3,1.3h-10
		c0,0-1.7,0-3-1.3c0-1.7,0-1.7,0-1.7c0-299,0-299,0-299C1030.6,158.8,1031.9,157.4,1033.6,157.4z"/>
</g>
<g id="SPLINE_45_">
	<path class="st0" d="M1051.6,157.4h10c0,0,1.7,0,3,1.3c0,1.7,0,1.7,0,1.7c0,7,0,7,0,7h-8.5c0,0,0,0,0,3.7c8.5,0,8.5,0,8.5,0v66.6
		c0,0,0,0-8.5,0c0,3.7,0,3.7,0,3.7h8.5c0,0,0,0,0,66.6c-8.5,0-8.5,0-8.5,0v3.7c0,0,0,0,8.5,0c0,66.6,0,66.6,0,66.6h-8.5
		c0,0,0,0,0,3.7c8.5,0,8.5,0,8.5,0v66.6c0,0,0,0-8.5,0c0,3.7,0,3.7,0,3.7h8.5c0,0,0,0,0,7c0,0,0,0,0,1.7c-1.3,1.3-3,1.3-3,1.3h-10
		c0,0-1.7,0-3-1.3c0-1.7,0-1.7,0-1.7c0-299,0-299,0-299C1048.6,158.8,1049.9,157.4,1051.6,157.4z"/>
</g>
<g id="SPLINE_46_">
	<path class="st0" d="M1069.6,157.4h10c0,0,1.7,0,3,1.3c0,1.7,0,1.7,0,1.7c0,7,0,7,0,7h-8.5c0,0,0,0,0,3.7c8.5,0,8.5,0,8.5,0v66.6
		c0,0,0,0-8.5,0c0,3.7,0,3.7,0,3.7h8.5c0,0,0,0,0,66.6c-8.5,0-8.5,0-8.5,0v3.7c0,0,0,0,8.5,0c0,66.6,0,66.6,0,66.6h-8.5
		c0,0,0,0,0,3.7c8.5,0,8.5,0,8.5,0v66.6c0,0,0,0-8.5,0c0,3.7,0,3.7,0,3.7h8.5c0,0,0,0,0,7c0,0,0,0,0,1.7c-1.3,1.3-3,1.3-3,1.3h-10
		c0,0-1.7,0-3-1.3c0-1.7,0-1.7,0-1.7c0-299,0-299,0-299C1066.6,158.8,1067.9,157.4,1069.6,157.4z"/>
</g>
<g id="SPLINE_47_">
	<path class="st0" d="M1087.6,157.4h10c0,0,1.7,0,3,1.3c0,1.7,0,1.7,0,1.7c0,7,0,7,0,7h-8.5c0,0,0,0,0,3.7c8.5,0,8.5,0,8.5,0v66.6
		c0,0,0,0-8.5,0c0,3.7,0,3.7,0,3.7h8.5c0,0,0,0,0,66.6c-8.5,0-8.5,0-8.5,0v3.7c0,0,0,0,8.5,0c0,66.6,0,66.6,0,66.6h-8.5
		c0,0,0,0,0,3.7c8.5,0,8.5,0,8.5,0v66.6c0,0,0,0-8.5,0c0,3.7,0,3.7,0,3.7h8.5c0,0,0,0,0,7c0,0,0,0,0,1.7c-1.3,1.3-3,1.3-3,1.3h-10
		c0,0-1.7,0-3-1.3c0-1.7,0-1.7,0-1.7c0-299,0-299,0-299C1084.6,158.8,1085.9,157.4,1087.6,157.4z"/>
</g>
<g id="SPLINE_48_">
	<path class="st0" d="M1105.6,157.4h10c0,0,1.7,0,3,1.3c0,1.7,0,1.7,0,1.7c0,7,0,7,0,7h-8.5c0,0,0,0,0,3.7c8.5,0,8.5,0,8.5,0v66.6
		c0,0,0,0-8.5,0c0,3.7,0,3.7,0,3.7h8.5c0,0,0,0,0,66.6c-8.5,0-8.5,0-8.5,0v3.7c0,0,0,0,8.5,0c0,66.6,0,66.6,0,66.6h-8.5
		c0,0,0,0,0,3.7c8.5,0,8.5,0,8.5,0v66.6c0,0,0,0-8.5,0c0,3.7,0,3.7,0,3.7h8.5c0,0,0,0,0,7c0,0,0,0,0,1.7c-1.3,1.3-3,1.3-3,1.3h-10
		c0,0-1.7,0-3-1.3c0-1.7,0-1.7,0-1.7c0-299,0-299,0-299C1102.6,158.8,1103.9,157.4,1105.6,157.4z"/>
</g>
<g id="SPLINE_49_">
	<path class="st0" d="M1123.6,157.4h10c0,0,1.7,0,3,1.3c0,1.7,0,1.7,0,1.7c0,7,0,7,0,7h-8.5c0,0,0,0,0,3.7c8.5,0,8.5,0,8.5,0v66.6
		c0,0,0,0-8.5,0c0,3.7,0,3.7,0,3.7h8.5c0,0,0,0,0,66.6c-8.5,0-8.5,0-8.5,0v3.7c0,0,0,0,8.5,0c0,66.6,0,66.6,0,66.6h-8.5
		c0,0,0,0,0,3.7c8.5,0,8.5,0,8.5,0v66.6c0,0,0,0-8.5,0c0,3.7,0,3.7,0,3.7h8.5c0,0,0,0,0,7c0,0,0,0,0,1.7c-1.3,1.3-3,1.3-3,1.3h-10
		c0,0-1.7,0-3-1.3c0-1.7,0-1.7,0-1.7c0-299,0-299,0-299C1120.6,158.8,1121.9,157.4,1123.6,157.4z"/>
</g>
<g id="SPLINE_50_">
	<path class="st0" d="M1141.6,157.4h10c0,0,1.7,0,3,1.3c0,1.7,0,1.7,0,1.7c0,7,0,7,0,7h-8.5c0,0,0,0,0,3.7c8.5,0,8.5,0,8.5,0v66.6
		c0,0,0,0-8.5,0c0,3.7,0,3.7,0,3.7h8.5c0,0,0,0,0,66.6c-8.5,0-8.5,0-8.5,0v3.7c0,0,0,0,8.5,0c0,66.6,0,66.6,0,66.6h-8.5
		c0,0,0,0,0,3.7c8.5,0,8.5,0,8.5,0v66.6c0,0,0,0-8.5,0c0,3.7,0,3.7,0,3.7h8.5c0,0,0,0,0,7c0,0,0,0,0,1.7c-1.3,1.3-3,1.3-3,1.3h-10
		c0,0-1.7,0-3-1.3c0-1.7,0-1.7,0-1.7c0-299,0-299,0-299C1138.6,158.8,1139.9,157.4,1141.6,157.4z"/>
</g>
<g id="SPLINE_51_">
	<path class="st0" d="M1159.6,157.4h10c0,0,1.7,0,3,1.3c0,1.7,0,1.7,0,1.7c0,7,0,7,0,7h-8.5c0,0,0,0,0,3.7c8.5,0,8.5,0,8.5,0v66.6
		c0,0,0,0-8.5,0c0,3.7,0,3.7,0,3.7h8.5c0,0,0,0,0,66.6c-8.5,0-8.5,0-8.5,0v3.7c0,0,0,0,8.5,0c0,66.6,0,66.6,0,66.6h-8.5
		c0,0,0,0,0,3.7c8.5,0,8.5,0,8.5,0v66.6c0,0,0,0-8.5,0c0,3.7,0,3.7,0,3.7h8.5c0,0,0,0,0,7c0,0,0,0,0,1.7c-1.3,1.3-3,1.3-3,1.3h-10
		c0,0-1.7,0-3-1.3c0-1.7,0-1.7,0-1.7c0-299,0-299,0-299C1156.6,158.8,1157.9,157.4,1159.6,157.4z"/>
</g>
<g id="SPLINE_53_">
	<polyline class="st0" points="1252.1,312.5 1259.1,312.9 1265.9,314.1 1272.5,315.8 1278.8,318 1284.8,320.9 1286.2,321.6 
		1286.1,321.6 1285.9,322 1285.1,323.4 1284,325.3 1282.9,327.2 1282.2,328.3 1282.3,328.5 1282.8,328.9 1284.6,329.9 1285.2,330.2 
		1285.4,330.3 1285.6,329.9 1286,329.2 1287,327.4 1288.2,325.5 1289,324 1289.3,323.5 1289.3,323.4 1289.4,323.4 1290,323.8 
		1295.6,327.7 1300.8,332 1305.6,336.8 1310,342 1313.8,347.6 1314.3,348.3 1314.3,348.3 1314.2,348.4 1313.8,348.6 1312.2,349.5 
		1308.5,351.7 1307.4,352.3 1307.4,352.5 1308.3,354 1308.8,354.8 1309.2,355.4 1309.3,355.5 1310.5,354.8 1314.2,352.6 
		1315.7,351.8 1316.1,351.6 1316.1,351.5 1316.2,351.6 1316.4,352 1316.8,352.7 1319.6,358.8 1321.9,365.1 1323.6,371.7 
		1324.7,378.5 1325.2,385.4 1325.1,385.6 1324.5,385.6 1322.7,385.6 1320.4,385.6 1318.4,385.6 1317.7,385.6 1317.3,385.6 
		1317.3,385.8 1317.3,386.6 1317.3,388.6 1317.3,389.2 1317.5,389.3 1318.9,389.3 1321.1,389.3 1323.3,389.3 1324.9,389.3 
		1325.2,389.3 1325.2,389.3 1325.2,389.3 1325.2,389.7 1325.2,391.4 1324.5,398.4 1323.2,405.1 1321.3,411.6 1318.8,417.8 
		1317.4,420.9 1316.7,422.3 1316.3,423.1 1316.1,423.3 1316.1,423.3 1315.9,423.2 1315.4,422.9 1313.7,421.9 1311.7,420.8 
		1310.1,419.8 1309.5,419.5 1309.2,419.3 1309.1,419.6 1308.2,421.2 1307.7,422 1307.4,422.5 1307.6,422.7 1309,423.5 1312.7,425.6 
		1314,426.4 1314.3,426.5 1314.3,426.5 1314.2,426.7 1313.7,427.4 1312.8,428.9 1308.8,434.4 1304.3,439.5 1299.3,444.1 1294,448.4 
		1291.2,450.3 1289.7,451.2 1289.4,451.4 1289.4,451.4 1289.3,451.4 1289.2,451.1 1288.8,450.5 1287.8,448.8 1286.7,446.9 
		1285.8,445.2 1285.5,444.7 1285.4,444.5 1285.1,444.7 1284.4,445.1 1282.6,446.1 1282.2,446.4 1282.2,446.4 1282.4,446.7 
		1283.2,448.2 1284.3,450.1 1285.4,451.9 1286.1,453.1 1286.1,453.3 1283.1,454.9 1277,457.5 1270.6,459.6 1264,461.2 1257.1,462.1 
		1253.6,462.4 1252.7,462.4 1252.3,462.4 1252.1,462.4 1252.1,462.3 1252.1,461.9 1252.1,461.2 1252.1,459.2 1252.1,456.9 
		1252.1,455.1 1252.1,454.6 1252.1,454.4 1251.7,454.4 1249.8,454.4 1248.9,454.4 1248.4,454.4 1248.4,454.5 1248.4,455 
		1248.4,456.7 1248.4,461 1248.4,462.3 1248.4,462.4 1248.4,462.4 1247.6,462.4 1244.1,462.2 1237.2,461.3 1230.6,459.8 
		1224.2,457.8 1218,455.2 1215,453.7 1214.4,453.3 1214.4,453.3 1214.4,453.2 1215.1,452.1 1217.2,448.3 1218.1,446.9 1218.3,446.5 
		1218.4,446.4 1218,446.1 1217.2,445.7 1215.5,444.7 1215.2,444.5 1215.1,444.7 1214.8,445.1 1213.9,446.7 1212.8,448.6 
		1211.8,450.4 1211.4,451 1211.2,451.4 1211.2,451.4 1211,451.3 1210.6,451.1 1209.9,450.7 1207.1,448.8 1201.7,444.6 1196.7,440 
		1192.2,434.9 1188.1,429.5 1186.3,426.6 1186.4,426.4 1187.6,425.7 1189.5,424.7 1191.4,423.6 1192.8,422.7 1193.1,422.6 
		1193.2,422.5 1192.9,422.1 1191.9,420.3 1191.5,419.6 1191.3,419.3 1191.1,419.4 1190.6,419.7 1189,420.7 1187,421.8 1185.3,422.8 
		1184.7,423.1 1184.4,423.3 1184.4,423.3 1184.4,423.3 1184.2,422.9 1183.4,421.5 1182,418.5 1179.5,412.2 1177.5,405.8 
		1176.2,399.1 1175.4,392.2 1175.3,390.4 1175.3,389.5 1175.3,389.3 1175.3,389.3 1175.6,389.3 1177.1,389.3 1181.4,389.3 
		1182.9,389.3 1183.3,389.2 1183.3,388.7 1183.3,387.7 1183.3,385.8 1183.2,385.6 1182.9,385.6 1182.3,385.6 1180.3,385.6 
		1178.1,385.6 1176.2,385.6 1175.6,385.6 1175.3,385.6 1175.3,385.6 1175.3,385.3 1175.3,384.4 1175.4,382.6 1175.7,379.2 
		1176.8,372.3 1178.4,365.8 1180.7,359.4 1183.4,353.3 1184.2,351.9 1184.4,351.5 1184.4,351.5 1184.4,351.6 1184.7,351.7 
		1186.1,352.5 1188,353.6 1189.9,354.7 1191.1,355.4 1191.4,355.5 1191.7,354.9 1192.7,353.2 1193.1,352.5 1193.1,352.3 
		1192.8,352.1 1192.2,351.8 1190.4,350.7 1188.5,349.6 1186.9,348.7 1186.4,348.4 1186.3,348.2 1190.2,342.6 1194.5,337.3 
		1199.2,332.5 1204.4,328.1 1210,324.2 1210.7,323.7 1211.1,323.5 1211.2,323.4 1211.2,323.5 1211.4,323.8 1212.3,325.3 
		1214.4,329.1 1215.1,330.2 1215.3,330.3 1215.9,329.9 1216.7,329.4 1218.2,328.6 1218.3,328.4 1217.7,327.3 1215.5,323.6 
		1214.7,322.1 1214.4,321.7 1214.4,321.6 1214.4,321.6 1215.1,321.2 1221.1,318.3 1227.4,316 1234,314.2 1240.7,313 1247.7,312.5 
		1248.4,312.5 1248.4,312.5 1248.4,312.6 1248.4,313.1 1248.4,314.8 1248.4,317.1 1248.4,319.1 1248.4,320.3 1248.6,320.4 
		1249.3,320.4 1251.3,320.4 1252,320.4 1252.1,320.4 1252.1,320 1252.1,319.3 1252.1,315.1 1252.1,313.2 1252.1,312.7 1252.1,312.5 
			"/>
</g>
<g id="SPLINE_55_">
	<path class="st0" d="M1075.4,559.5l9.6,5.5c0,0,0.4,0.2,0.8,0.3c0.4-0.1,0.4-0.1,0.8-0.3c0.3-0.3,0.5-0.7,0.5-0.7
		c1.4-3.1,2.6-6.3,3.5-9.7c0,0,0.1-0.4,0-0.8c-0.2-0.4-0.2-0.4-0.5-0.7c-0.3-0.2-0.8-0.3-0.8-0.3l-10.9-1.9c0,0-0.8-0.1-1.5,0.3
		c-0.2,0.7-0.2,0.7-0.8,2.7c-0.7,1.9-1.5,3.7-1.5,3.7C1074.4,558.3,1074.7,559.2,1075.4,559.5z"/>
</g>
<g id="SPLINE_56_">
	<path class="st0" d="M991.8,519.4l-9.6-5.5c0,0-0.4-0.2-0.8-0.3c-0.4,0.1-0.4,0.1-0.8,0.3c-0.3,0.3-0.5,0.7-0.5,0.7
		c-1.4,3.1-2.6,6.3-3.5,9.7c0,0-0.1,0.4,0,0.8c0.2,0.4,0.2,0.4,0.5,0.7c0.3,0.2,0.8,0.3,0.8,0.3l10.9,1.9c0,0,0.8,0.1,1.5-0.3
		c0.2-0.7,0.2-0.7,0.8-2.7c0.7-1.9,1.5-3.7,1.5-3.7C992.7,520.6,992.4,519.8,991.8,519.4z"/>
</g>
<g id="SPLINE_57_">
	<path class="st0" d="M1066,572.6l7.1,8.5c0,0,0.3,0.3,0.6,0.5c0.4,0,0.4,0,0.9,0c0.4-0.1,0.7-0.5,0.7-0.5c2.4-2.4,4.7-5.1,6.6-7.9
		c0,0,0.3-0.4,0.3-0.8c-0.1-0.4-0.1-0.4-0.2-0.9c-0.2-0.3-0.6-0.5-0.6-0.5l-9.6-5.5c0,0-0.7-0.4-1.5-0.2c-0.5,0.6-0.5,0.6-1.6,2.2
		c-1.3,1.5-2.7,3-2.7,3C1065.5,571.2,1065.5,572,1066,572.6z"/>
</g>
<g id="SPLINE_58_">
	<path class="st0" d="M1001.2,506.3l-7.1-8.5c0,0-0.3-0.3-0.6-0.5c-0.4,0-0.4,0-0.9,0c-0.4,0.1-0.7,0.5-0.7,0.5
		c-2.4,2.4-4.7,5.1-6.6,7.9c0,0-0.3,0.4-0.3,0.8c0.1,0.4,0.1,0.4,0.2,0.9c0.2,0.3,0.6,0.5,0.6,0.5l9.6,5.5c0,0,0.7,0.4,1.5,0.2
		c0.5-0.6,0.5-0.6,1.6-2.2c1.3-1.5,2.7-3,2.7-3C1001.6,507.7,1001.7,506.9,1001.2,506.3z"/>
</g>
<g id="SPLINE_59_">
	<path class="st0" d="M1052.7,581.7l3.8,10.4c0,0,0.1,0.4,0.4,0.7c0.4,0.2,0.4,0.2,0.8,0.3c0.4,0,0.8-0.2,0.8-0.2
		c3.1-1.5,6.1-3.2,8.9-5.2c0,0,0.4-0.3,0.6-0.6c0.1-0.4,0.1-0.4,0.1-0.9c-0.1-0.4-0.4-0.7-0.4-0.7l-7.1-8.5c0,0-0.5-0.6-1.3-0.7
		c-0.6,0.4-0.6,0.4-2.3,1.5c-1.7,1-3.5,1.9-3.5,1.9C1052.7,580.2,1052.4,581,1052.7,581.7z"/>
</g>
<g id="SPLINE_60_">
	<path class="st0" d="M1014.5,497.2l-3.8-10.4c0,0-0.1-0.4-0.4-0.7c-0.4-0.2-0.4-0.2-0.8-0.3c-0.4,0-0.8,0.2-0.8,0.2
		c-3.1,1.5-6.1,3.2-8.9,5.2c0,0-0.4,0.3-0.6,0.6c-0.1,0.4-0.1,0.4-0.1,0.9c0.1,0.4,0.4,0.7,0.4,0.7l7.1,8.5c0,0,0.5,0.6,1.3,0.7
		c0.6-0.4,0.6-0.4,2.3-1.5c1.7-1,3.5-1.9,3.5-1.9C1014.4,498.7,1014.7,497.9,1014.5,497.2z"/>
</g>
<g id="SPLINE_61_">
	<path class="st0" d="M1037.1,585.7v11.1c0,0,0,0.4,0.2,0.8c0.3,0.3,0.3,0.3,0.6,0.6c0.4,0.1,0.8,0.1,0.8,0.1
		c3.5-0.3,6.9-0.9,10.2-1.8c0,0,0.4-0.1,0.7-0.4c0.2-0.4,0.2-0.4,0.4-0.8c0-0.4-0.1-0.8-0.1-0.8l-3.8-10.4c0,0-0.3-0.7-1-1.1
		c-0.7,0.2-0.7,0.2-2.7,0.7c-2,0.3-4,0.6-4,0.6C1037.6,584.3,1037.1,584.9,1037.1,585.7z"/>
</g>
<g id="SPLINE_62_">
	<path class="st0" d="M1030.1,493.2v-11.1c0,0,0-0.4-0.2-0.8c-0.3-0.3-0.3-0.3-0.6-0.6c-0.4-0.1-0.8-0.1-0.8-0.1
		c-3.5,0.3-6.9,0.9-10.2,1.8c0,0-0.4,0.1-0.7,0.4c-0.2,0.4-0.2,0.4-0.4,0.8c0,0.4,0.1,0.8,0.1,0.8l3.8,10.4c0,0,0.3,0.7,1,1.1
		c0.7-0.2,0.7-0.2,2.7-0.7c2-0.3,4-0.6,4-0.6C1029.5,494.6,1030.1,494,1030.1,493.2z"/>
</g>
<g id="SPLINE_63_">
	<polyline class="st0" points="1090.6,533 1090.6,533 1090.5,533 1090.4,533 1090.3,533 1090.1,533 1089.9,533.1 1089.4,533.2 
		1088.8,533.3 1088.2,533.4 1087.4,533.5 1086.7,533.6 1083.4,534.2 1082.6,534.4 1081.9,534.5 1081.3,534.6 1080.7,534.7 
		1080.5,534.7 1080.3,534.8 1080.1,534.8 1079.9,534.8 1079.8,534.9 1079.7,534.9 1079.7,534.9 1079.4,534.9 1079.2,535 
		1079.1,535.2 1078.9,535.3 1078.8,535.5 1078.6,535.7 1078.6,535.9 1078.5,536.1 1078.5,536.3 1078.5,536.4 1078.5,536.5 
		1078.5,537.8 1078.6,539 1078.6,540.2 1078.5,541.4 1078.5,542 1078.5,542.3 1078.5,542.5 1078.5,542.6 1078.5,542.8 1078.5,543 
		1078.6,543.2 1078.7,543.4 1078.9,543.6 1079,543.7 1079.2,543.9 1079.4,544 1079.7,544 1079.7,544 1079.7,544 1079.8,544.1 
		1079.9,544.1 1080,544.1 1080.2,544.1 1080.4,544.2 1080.6,544.2 1081.2,544.3 1081.8,544.4 1082.5,544.5 1083.3,544.7 1084.9,545 
		1086.5,545.2 1087.3,545.4 1088.1,545.5 1088.7,545.6 1089.3,545.7 1089.8,545.8 1090,545.9 1090.2,545.9 1090.4,545.9 
		1090.5,545.9 1090.6,546 1090.6,546 1090.7,546 1091,546 1091.2,545.9 1091.4,545.9 1091.7,545.7 1091.9,545.6 1092,545.4 
		1092.2,545.2 1092.3,545 1092.3,544.7 1092.3,544.6 1092.3,544.6 1092.4,544.5 1092.4,544 1092.5,541.9 1092.6,539.8 1092.5,537.7 
		1092.4,535.6 1092.4,534.5 1092.3,534.3 1092.3,534.2 1092.3,534.1 1092.2,533.9 1092.1,533.6 1092,533.4 1091.8,533.3 
		1091.7,533.2 1091.7,533.2 1091.6,533.1 1091.3,533 1091.1,533 1090.8,532.9 1090.6,533 	"/>
</g>
<g id="SPLINE_64_">
	<polyline class="st0" points="976.5,546 976.6,546 976.6,545.9 976.7,545.9 976.9,545.9 977,545.9 977.2,545.8 977.7,545.8 
		978.3,545.6 979,545.5 979.7,545.4 980.5,545.3 983.7,544.7 984.5,544.6 985.2,544.4 985.9,544.3 986.4,544.2 986.7,544.2 
		986.9,544.1 987.1,544.1 987.2,544.1 987.3,544.1 987.4,544 987.5,544 987.7,544 987.9,543.9 988.1,543.8 988.2,543.6 988.4,543.4 
		988.5,543.3 988.6,543.1 988.6,542.8 988.7,542.6 988.7,542.5 988.7,542.4 988.6,541.2 988.6,539.9 988.6,538.7 988.6,537.5 
		988.6,536.9 988.7,536.6 988.7,536.4 988.7,536.3 988.6,536.1 988.6,535.9 988.5,535.7 988.4,535.5 988.3,535.3 988.1,535.2 
		987.9,535 987.7,535 987.5,534.9 987.4,534.9 987.4,534.9 987.3,534.9 987.2,534.8 987.1,534.8 986.9,534.8 986.7,534.8 
		986.5,534.7 986,534.6 985.3,534.5 984.6,534.4 983.9,534.2 982.2,534 980.6,533.7 979.8,533.5 979.1,533.4 978.4,533.3 
		977.8,533.2 977.3,533.1 977.1,533.1 976.9,533 976.8,533 976.7,533 976.6,533 976.6,533 976.4,532.9 976.2,532.9 975.9,533 
		975.7,533.1 975.5,533.2 975.3,533.3 975.1,533.5 975,533.7 974.9,534 974.8,534.2 974.8,534.3 974.8,534.3 974.8,534.4 
		974.7,534.9 974.6,537 974.6,539.1 974.6,541.2 974.7,543.3 974.8,544.4 974.8,544.6 974.8,544.7 974.8,544.8 974.9,545 975,545.3 
		975.2,545.5 975.3,545.6 975.4,545.7 975.5,545.7 975.6,545.8 975.8,545.9 976,546 976.3,546 976.5,546 	"/>
</g>
<g id="SPLINE_65_">
	<path class="st0" d="M1084.9,513.8l-9.6,5.5c0,0-0.7,0.4-0.9,1.2c0.3,0.7,0.3,0.7,1.1,2.5c0.7,1.9,1.3,3.8,1.3,3.8
		c0.2,0.7,0.9,1.2,1.7,1.1c0,0,0,0,10.9-1.9c0,0,0,0,0.4-0.1c0.3-0.2,0.6-0.6,0.6-0.6c0.2-0.4,0.3-0.8,0.2-1.2c0,0-0.9-3.4-2.1-6.6
		c-1.4-3.1-1.4-3.1-1.6-3.5c-0.3-0.3-0.7-0.4-0.7-0.4C1085.7,513.6,1085.3,513.6,1084.9,513.8z"/>
</g>
<g id="SPLINE_66_">
	<path class="st0" d="M982.2,565.1l9.6-5.5c0,0,0.7-0.4,0.9-1.2c-0.3-0.7-0.3-0.7-1.1-2.5c-0.7-1.9-1.2-3.8-1.2-3.8
		c-0.2-0.7-0.9-1.2-1.7-1.1c0,0,0,0-10.9,1.9c0,0,0,0-0.4,0.1c-0.3,0.2-0.6,0.6-0.6,0.6c-0.2,0.4-0.3,0.8-0.2,1.2
		c0,0,0.9,3.4,2.1,6.6c1.4,3.1,1.4,3.1,1.6,3.5c0.3,0.3,0.7,0.4,0.7,0.4C981.4,565.3,981.8,565.3,982.2,565.1z"/>
</g>
<g id="SPLINE_67_">
	<path class="st0" d="M1073.1,497.8l-7.1,8.5c0,0-0.5,0.6-0.5,1.4c0.5,0.6,0.5,0.6,1.9,2c1.3,1.5,2.5,3.2,2.5,3.2
		c0.5,0.6,1.3,0.8,2,0.4c0,0,0,0,9.6-5.5c0,0,0,0,0.4-0.2c0.2-0.3,0.3-0.8,0.3-0.8c0.1-0.4,0-0.8-0.2-1.2c0,0-2-2.8-4.2-5.5
		c-2.4-2.4-2.4-2.4-2.7-2.7c-0.4-0.1-0.8-0.1-0.8-0.1C1073.7,497.3,1073.3,497.5,1073.1,497.8z"/>
</g>
<g id="SPLINE_68_">
	<path class="st0" d="M994.1,581.1l7.1-8.5c0,0,0.5-0.6,0.5-1.4c-0.5-0.6-0.5-0.6-1.9-2c-1.3-1.5-2.5-3.2-2.5-3.2
		c-0.5-0.6-1.3-0.8-2-0.4c0,0,0,0-9.6,5.5c0,0,0,0-0.4,0.2c-0.2,0.3-0.3,0.8-0.3,0.8c-0.1,0.4,0,0.8,0.2,1.2c0,0,2,2.8,4.2,5.5
		c2.4,2.4,2.4,2.4,2.7,2.7c0.4,0.1,0.8,0.1,0.8,0.1C993.4,581.6,993.8,581.4,994.1,581.1z"/>
</g>
<g id="SPLINE_69_">
	<path class="st0" d="M1056.5,486.8l-3.8,10.4c0,0-0.3,0.7,0.1,1.5c0.7,0.3,0.7,0.3,2.5,1.2c1.7,1,3.4,2.1,3.4,2.1
		c0.6,0.4,1.5,0.3,2-0.3c0,0,0,0,7.1-8.5c0,0,0,0,0.3-0.3c0.1-0.4,0.1-0.8,0.1-0.8c-0.1-0.4-0.3-0.8-0.6-1c0,0-2.8-2-5.8-3.7
		c-3.1-1.5-3.1-1.5-3.5-1.6c-0.4,0-0.8,0.2-0.8,0.2C1056.9,486.1,1056.6,486.4,1056.5,486.8z"/>
</g>
<g id="SPLINE_70_">
	<path class="st0" d="M1046.1,494.8l3.8-10.4c0,0,0.1-0.4,0.1-0.8c-0.2-0.4-0.2-0.4-0.4-0.8c-0.3-0.3-0.7-0.4-0.7-0.4
		c-3.3-0.9-6.7-1.5-10.2-1.8c0,0-0.4,0-0.8,0.1c-0.3,0.3-0.3,0.3-0.6,0.6c-0.2,0.4-0.2,0.8-0.2,0.8v11c0,0,0,0.8,0.6,1.4
		c0.8,0.1,0.8,0.1,2.8,0.3c2,0.3,3.9,0.8,3.9,0.8C1045.1,495.9,1045.8,495.5,1046.1,494.8z"/>
</g>
<g id="SPLINE_71_">
	<path class="st0" d="M1021,584.1l-3.8,10.4c0,0-0.1,0.4-0.1,0.8c0.2,0.4,0.2,0.4,0.4,0.8c0.3,0.3,0.7,0.4,0.7,0.4
		c3.3,0.9,6.7,1.5,10.2,1.8c0,0,0.4,0,0.8-0.1c0.3-0.3,0.3-0.3,0.6-0.6c0.2-0.4,0.2-0.8,0.2-0.8v-11c0,0,0-0.8-0.6-1.4
		c-0.8-0.1-0.8-0.1-2.8-0.3c-2-0.3-3.9-0.8-3.9-0.8C1022.1,583,1021.3,583.4,1021,584.1z"/>
</g>
<g id="SPLINE_72_">
	<path class="st0" d="M1010.7,592.1l3.8-10.4c0,0,0.3-0.7-0.1-1.5c-0.7-0.3-0.7-0.3-2.5-1.2c-1.7-1-3.4-2.1-3.4-2.1
		c-0.6-0.4-1.5-0.3-2,0.3c0,0,0,0-7.1,8.5c0,0,0,0-0.3,0.3c-0.1,0.4-0.1,0.8-0.1,0.8c0.1,0.4,0.3,0.8,0.6,1c0,0,2.8,2,5.8,3.7
		c3.1,1.5,3.1,1.5,3.5,1.6c0.4,0,0.8-0.2,0.8-0.2C1010.3,592.8,1010.5,592.5,1010.7,592.1z"/>
</g>
<g id="SPLINE_73_">
	<polyline class="st0" points="1035.4,464.5 1042.4,465 1049.2,466.1 1055.8,467.8 1062.1,470.1 1068.1,472.9 1069.5,473.6 
		1069.4,473.6 1069.2,474 1068.4,475.4 1067.3,477.4 1066.2,479.2 1065.5,480.4 1065.6,480.6 1066.1,480.9 1067.9,481.9 
		1068.5,482.3 1068.7,482.3 1068.9,481.9 1069.3,481.2 1070.3,479.5 1071.5,477.5 1072.3,476 1072.6,475.6 1072.7,475.5 
		1072.7,475.4 1073.3,475.8 1078.9,479.7 1084.1,484 1088.9,488.8 1093.3,494 1097.1,499.7 1097.6,500.4 1097.6,500.4 1097.5,500.4 
		1097.1,500.7 1095.5,501.5 1091.8,503.7 1090.8,504.3 1090.7,504.5 1091.6,506 1092.1,506.9 1092.5,507.5 1092.6,507.5 
		1093.8,506.8 1097.5,504.7 1099,503.8 1099.4,503.6 1099.4,503.6 1099.5,503.7 1099.7,504 1100.1,504.8 1102.9,510.8 1105.2,517.1 
		1106.9,523.7 1108,530.5 1108.5,537.5 1108.4,537.6 1107.8,537.6 1106,537.6 1103.7,537.6 1101.7,537.6 1101,537.6 1100.6,537.6 
		1100.6,537.8 1100.6,538.6 1100.6,540.6 1100.6,541.2 1100.8,541.3 1102.2,541.3 1104.4,541.3 1106.6,541.3 1108.2,541.3 
		1108.5,541.3 1108.5,541.3 1108.5,541.3 1108.5,541.7 1108.5,543.5 1107.8,550.4 1106.5,557.1 1104.6,563.6 1102.1,569.9 
		1100.7,572.9 1100,574.4 1099.6,575.1 1099.4,575.3 1099.4,575.3 1099.2,575.2 1098.7,574.9 1097,574 1095.1,572.8 1093.4,571.8 
		1092.8,571.5 1092.5,571.4 1092.4,571.6 1091.5,573.2 1091,574 1090.7,574.5 1090.9,574.7 1092.3,575.5 1096,577.7 1097.3,578.4 
		1097.6,578.5 1097.6,578.6 1097.5,578.7 1097,579.5 1096.1,580.9 1092.1,586.4 1087.6,591.5 1082.6,596.2 1077.3,600.4 
		1074.5,602.3 1073,603.2 1072.7,603.5 1072.7,603.5 1072.6,603.4 1072.5,603.1 1072.1,602.6 1071.2,600.9 1070,598.9 1069.1,597.3 
		1068.8,596.8 1068.7,596.6 1068.4,596.7 1067.7,597.1 1065.9,598.1 1065.5,598.4 1065.5,598.4 1065.7,598.8 1066.5,600.2 
		1067.6,602.1 1068.7,604 1069.4,605.2 1069.4,605.4 1066.4,606.9 1060.3,609.5 1053.9,611.7 1047.3,613.2 1040.4,614.1 
		1036.9,614.4 1036,614.4 1035.6,614.4 1035.4,614.4 1035.4,614.4 1035.4,613.9 1035.4,613.2 1035.4,611.2 1035.4,608.9 
		1035.4,607.1 1035.4,606.6 1035.4,606.5 1035,606.5 1033.1,606.5 1032.2,606.5 1031.7,606.5 1031.7,606.6 1031.7,607 1031.7,608.7 
		1031.7,613 1031.7,614.3 1031.7,614.4 1031.7,614.4 1030.9,614.4 1027.4,614.2 1020.5,613.3 1013.9,611.8 1007.5,609.8 
		1001.3,607.2 998.3,605.7 997.7,605.3 997.7,605.3 997.7,605.2 998.4,604.1 1000.5,600.4 1001.4,598.9 1001.6,598.5 1001.7,598.4 
		1001.3,598.2 1000.5,597.7 998.8,596.8 998.5,596.6 998.4,596.7 998.1,597.1 997.2,598.7 996.1,600.7 995.1,602.4 994.7,603 
		994.5,603.4 994.5,603.5 994.3,603.4 994,603.2 993.2,602.7 990.4,600.8 985,596.6 980,592 975.5,586.9 971.4,581.5 969.6,578.6 
		969.7,578.5 970.9,577.8 972.8,576.7 974.7,575.6 976.1,574.8 976.4,574.6 976.5,574.5 976.2,574.1 975.2,572.4 974.8,571.6 
		974.6,571.4 974.4,571.5 973.9,571.8 972.3,572.7 970.3,573.8 968.6,574.8 968,575.2 967.7,575.3 967.7,575.3 967.7,575.3 
		967.5,575 966.7,573.5 965.3,570.5 962.8,564.3 960.8,557.8 959.5,551.1 958.7,544.2 958.6,542.4 958.6,541.5 958.6,541.3 
		958.6,541.3 958.9,541.3 960.4,541.3 964.7,541.3 966.2,541.3 966.6,541.3 966.6,540.7 966.6,539.7 966.6,537.9 966.6,537.6 
		966.2,537.6 965.6,537.6 963.6,537.6 961.4,537.6 959.5,537.6 958.9,537.6 958.6,537.6 958.6,537.6 958.6,537.3 958.6,536.4 
		958.7,534.7 959,531.2 960.1,524.4 961.7,517.8 964,511.4 966.7,505.4 967.5,503.9 967.7,503.6 967.7,503.6 967.7,503.6 968,503.8 
		969.4,504.6 971.3,505.7 973.2,506.7 974.4,507.4 974.7,507.5 975,506.9 976,505.2 976.4,504.5 976.4,504.3 976.1,504.1 
		975.5,503.8 973.7,502.8 971.8,501.6 970.2,500.7 969.7,500.5 969.6,500.2 973.5,494.6 977.8,489.3 982.5,484.5 987.7,480.1 
		993.3,476.2 994,475.7 994.4,475.5 994.5,475.4 994.5,475.5 994.7,475.9 995.6,477.3 997.7,481.1 998.4,482.2 998.6,482.3 
		999.2,482 1000,481.5 1001.5,480.6 1001.6,480.4 1001,479.4 998.9,475.6 998,474.1 997.7,473.7 997.7,473.6 997.7,473.6 
		998.4,473.2 1004.4,470.3 1010.7,468 1017.3,466.2 1024,465.1 1031,464.5 1031.7,464.5 1031.7,464.5 1031.7,464.6 1031.7,465.1 
		1031.7,466.9 1031.7,469.1 1031.7,471.2 1031.7,472.4 1031.9,472.5 1032.6,472.5 1034.6,472.5 1035.3,472.5 1035.4,472.4 
		1035.4,472 1035.4,471.3 1035.4,467.1 1035.4,465.2 1035.4,464.7 1035.4,464.5 	"/>
</g>
<g id="SPLINE_75_">
	<polyline class="st0" points="1187.1,465 1194.1,465.5 1200.9,466.6 1207.4,468.3 1213.8,470.6 1219.8,473.4 1221.1,474.1 
		1221.1,474.2 1220.9,474.5 1220.1,476 1219,477.9 1217.9,479.7 1217.2,480.9 1217.2,481.1 1217.8,481.4 1219.6,482.5 1220.2,482.8 
		1220.4,482.8 1220.6,482.4 1221,481.8 1222,480 1223.1,478.1 1224,476.5 1224.3,476.1 1224.3,476 1224.3,476 1224.9,476.4 
		1230.5,480.2 1235.8,484.6 1240.6,489.4 1244.9,494.6 1248.8,500.2 1249.3,500.9 1249.2,500.9 1249.2,501 1248.7,501.2 
		1247.2,502.1 1243.5,504.2 1242.4,504.8 1242.4,505 1243.3,506.5 1243.8,507.4 1244.1,508 1244.3,508 1245.5,507.4 1249.2,505.2 
		1250.7,504.4 1251,504.1 1251.1,504.1 1251.2,504.2 1251.4,504.6 1251.8,505.3 1254.6,511.3 1256.9,517.7 1258.6,524.2 1259.7,531 
		1260.2,538 1260,538.2 1259.5,538.2 1257.7,538.2 1255.4,538.2 1253.4,538.2 1252.7,538.2 1252.3,538.2 1252.2,538.4 1252.2,539.1 
		1252.2,541.1 1252.2,541.8 1252.5,541.9 1253.9,541.9 1256,541.9 1258.2,541.9 1259.8,541.9 1260.2,541.9 1260.2,541.9 
		1260.2,541.9 1260.2,542.2 1260.1,544 1259.5,550.9 1258.1,557.7 1256.3,564.2 1253.8,570.4 1252.4,573.4 1251.6,574.9 
		1251.2,575.6 1251.1,575.9 1251.1,575.9 1250.9,575.8 1250.3,575.5 1248.7,574.5 1246.7,573.4 1245,572.4 1244.5,572.1 
		1244.2,571.9 1244.1,572.1 1243.1,573.7 1242.7,574.6 1242.4,575.1 1242.6,575.3 1243.9,576 1247.7,578.2 1249,579 1249.3,579.1 
		1249.3,579.1 1249.1,579.3 1248.7,580 1247.8,581.4 1243.7,586.9 1239.2,592 1234.3,596.7 1229,600.9 1226.2,602.9 1224.7,603.8 
		1224.4,604 1224.3,604 1224.3,604 1224.2,603.7 1223.8,603.1 1222.8,601.4 1221.7,599.4 1220.8,597.8 1220.5,597.3 1220.3,597.1 
		1220.1,597.3 1219.3,597.7 1217.6,598.7 1217.2,598.9 1217.2,599 1217.4,599.3 1218.2,600.7 1219.3,602.7 1220.3,604.5 1221,605.7 
		1221.1,605.9 1218.1,607.4 1212,610.1 1205.6,612.2 1199,613.7 1192.1,614.7 1188.6,614.9 1187.7,615 1187.3,615 1187.1,615 
		1187.1,614.9 1187.1,614.5 1187.1,613.8 1187.1,611.7 1187.1,609.5 1187.1,607.7 1187.1,607.2 1187.1,607 1186.7,607 1184.8,607 
		1183.9,607 1183.4,607 1183.4,607.1 1183.4,607.5 1183.4,609.3 1183.4,613.6 1183.4,614.9 1183.4,615 1183.4,615 1182.6,615 
		1179.1,614.8 1172.2,613.9 1165.6,612.4 1159.1,610.3 1153,607.7 1150,606.2 1149.4,605.9 1149.4,605.9 1149.4,605.8 1150,604.7 
		1152.2,600.9 1153.1,599.4 1153.3,599 1153.3,598.9 1152.9,598.7 1152.2,598.3 1150.5,597.3 1150.1,597.1 1150.1,597.2 
		1149.8,597.7 1148.9,599.2 1147.8,601.2 1146.8,603 1146.4,603.6 1146.2,604 1146.1,604 1146,603.9 1145.6,603.7 1144.9,603.2 
		1142.1,601.3 1136.7,597.2 1131.7,592.5 1127.2,587.5 1123.1,582 1121.3,579.2 1121.4,579 1122.6,578.3 1124.4,577.2 1126.4,576.1 
		1127.8,575.3 1128.1,575.1 1128.1,575.1 1127.9,574.6 1126.9,572.9 1126.5,572.2 1126.3,571.9 1126.1,572 1125.6,572.3 1124,573.3 
		1122,574.4 1120.3,575.4 1119.7,575.7 1119.4,575.9 1119.4,575.9 1119.4,575.9 1119.2,575.5 1118.4,574 1116.9,571 1114.4,564.8 
		1112.5,558.3 1111.1,551.6 1110.4,544.7 1110.3,543 1110.3,542.1 1110.3,541.9 1110.3,541.9 1110.6,541.9 1112,541.9 1116.4,541.9 
		1117.9,541.9 1118.2,541.8 1118.2,541.2 1118.2,540.3 1118.2,538.4 1118.2,538.2 1117.9,538.2 1117.3,538.2 1115.3,538.2 
		1113.1,538.2 1111.2,538.2 1110.5,538.2 1110.3,538.2 1110.3,538.2 1110.3,537.8 1110.3,537 1110.4,535.2 1110.7,531.7 
		1111.8,524.9 1113.4,518.3 1115.7,512 1118.4,505.9 1119.2,504.4 1119.4,504.1 1119.4,504.1 1119.4,504.1 1119.7,504.3 
		1121.1,505.1 1123,506.2 1124.9,507.3 1126.1,508 1126.3,508 1126.7,507.5 1127.7,505.7 1128,505.1 1128.1,504.9 1127.8,504.7 
		1127.2,504.3 1125.4,503.3 1123.5,502.2 1121.9,501.3 1121.4,501 1121.3,500.8 1125.1,495.1 1129.4,489.9 1134.2,485 1139.4,480.6 
		1145,476.7 1145.7,476.3 1146.1,476 1146.1,476 1146.2,476 1146.4,476.4 1147.2,477.9 1149.4,481.6 1150.1,482.8 1150.2,482.8 
		1150.8,482.5 1151.7,482 1153.2,481.1 1153.3,481 1152.7,479.9 1150.5,476.2 1149.7,474.7 1149.4,474.2 1149.4,474.1 1149.4,474.1 
		1150.1,473.7 1156.1,470.9 1162.4,468.5 1168.9,466.8 1175.7,465.6 1182.7,465 1183.4,465 1183.4,465 1183.4,465.2 1183.4,465.6 
		1183.4,467.4 1183.4,469.7 1183.4,471.7 1183.4,472.9 1183.6,473 1184.3,473 1186.3,473 1187,473 1187.1,473 1187.1,472.6 
		1187.1,471.9 1187.1,467.6 1187.1,465.8 1187.1,465.2 1187.1,465 	"/>
</g>
<g id="SPLINE_77_">
	<polyline class="st0" points="1252.1,157.4 1259.1,157.9 1265.9,159 1272.5,160.7 1278.8,163 1284.8,165.8 1286.2,166.5 
		1286.1,166.6 1285.9,166.9 1285.1,168.4 1284,170.3 1282.9,172.1 1282.2,173.3 1282.3,173.5 1282.8,173.8 1284.6,174.8 
		1285.2,175.2 1285.4,175.2 1285.6,174.8 1286,174.2 1287,172.4 1288.2,170.4 1289,168.9 1289.3,168.5 1289.3,168.4 1289.4,168.4 
		1290,168.7 1295.6,172.6 1300.8,177 1305.6,181.8 1310,187 1313.8,192.6 1314.3,193.3 1314.3,193.3 1314.2,193.3 1313.8,193.6 
		1312.2,194.5 1308.5,196.6 1307.4,197.2 1307.4,197.4 1308.3,198.9 1308.8,199.8 1309.2,200.4 1309.3,200.4 1310.5,199.8 
		1314.2,197.6 1315.7,196.7 1316.1,196.5 1316.1,196.5 1316.2,196.6 1316.4,197 1316.8,197.7 1319.6,203.7 1321.9,210 1323.6,216.6 
		1324.7,223.4 1325.2,230.4 1325.1,230.5 1324.5,230.5 1322.7,230.5 1320.4,230.5 1318.4,230.5 1317.7,230.5 1317.3,230.5 
		1317.3,230.7 1317.3,231.5 1317.3,233.5 1317.3,234.1 1317.5,234.2 1318.9,234.2 1321.1,234.2 1323.3,234.2 1324.9,234.2 
		1325.2,234.2 1325.2,234.2 1325.2,234.2 1325.2,234.6 1325.2,236.4 1324.5,243.3 1323.2,250 1321.3,256.5 1318.8,262.8 
		1317.4,265.8 1316.7,267.3 1316.3,268 1316.1,268.3 1316.1,268.3 1315.9,268.1 1315.4,267.8 1313.7,266.9 1311.7,265.7 
		1310.1,264.8 1309.5,264.4 1309.2,264.3 1309.1,264.5 1308.2,266.1 1307.7,266.9 1307.4,267.4 1307.6,267.6 1309,268.4 
		1312.7,270.6 1314,271.3 1314.3,271.5 1314.3,271.5 1314.2,271.7 1313.7,272.4 1312.8,273.8 1308.8,279.3 1304.3,284.4 
		1299.3,289.1 1294,293.3 1291.2,295.2 1289.7,296.2 1289.4,296.4 1289.4,296.4 1289.3,296.4 1289.2,296.1 1288.8,295.5 
		1287.8,293.8 1286.7,291.8 1285.8,290.2 1285.5,289.7 1285.4,289.5 1285.1,289.6 1284.4,290.1 1282.6,291.1 1282.2,291.3 
		1282.2,291.4 1282.4,291.7 1283.2,293.1 1284.3,295 1285.4,296.9 1286.1,298.1 1286.1,298.3 1283.1,299.8 1277,302.5 1270.6,304.6 
		1264,306.1 1257.1,307.1 1253.6,307.3 1252.7,307.3 1252.3,307.4 1252.1,307.4 1252.1,307.3 1252.1,306.9 1252.1,306.1 
		1252.1,304.1 1252.1,301.9 1252.1,300.1 1252.1,299.5 1252.1,299.4 1251.7,299.4 1249.8,299.4 1248.9,299.4 1248.4,299.4 
		1248.4,299.5 1248.4,299.9 1248.4,301.6 1248.4,306 1248.4,307.2 1248.4,307.3 1248.4,307.4 1247.6,307.3 1244.1,307.1 
		1237.2,306.3 1230.6,304.8 1224.2,302.7 1218,300.1 1215,298.6 1214.4,298.2 1214.4,298.2 1214.4,298.1 1215.1,297 1217.2,293.3 
		1218.1,291.8 1218.3,291.4 1218.4,291.3 1218,291.1 1217.2,290.6 1215.5,289.7 1215.2,289.5 1215.1,289.6 1214.8,290.1 
		1213.9,291.6 1212.8,293.6 1211.8,295.3 1211.4,296 1211.2,296.3 1211.2,296.4 1211,296.3 1210.6,296.1 1209.9,295.6 1207.1,293.7 
		1201.7,289.5 1196.7,284.9 1192.2,279.9 1188.1,274.4 1186.3,271.5 1186.4,271.4 1187.6,270.7 1189.5,269.6 1191.4,268.5 
		1192.8,267.7 1193.1,267.5 1193.2,267.5 1192.9,267 1191.9,265.3 1191.5,264.6 1191.3,264.3 1191.1,264.4 1190.6,264.7 1189,265.6 
		1187,266.8 1185.3,267.8 1184.7,268.1 1184.4,268.3 1184.4,268.3 1184.4,268.3 1184.2,267.9 1183.4,266.4 1182,263.4 1179.5,257.2 
		1177.5,250.7 1176.2,244 1175.4,237.1 1175.3,235.3 1175.3,234.5 1175.3,234.2 1175.3,234.2 1175.6,234.2 1177.1,234.2 
		1181.4,234.2 1182.9,234.2 1183.3,234.2 1183.3,233.6 1183.3,232.6 1183.3,230.8 1183.2,230.5 1182.9,230.5 1182.3,230.5 
		1180.3,230.5 1178.1,230.5 1176.2,230.5 1175.6,230.5 1175.3,230.5 1175.3,230.5 1175.3,230.2 1175.3,229.3 1175.4,227.6 
		1175.7,224.1 1176.8,217.3 1178.4,210.7 1180.7,204.4 1183.4,198.3 1184.2,196.8 1184.4,196.5 1184.4,196.5 1184.4,196.5 
		1184.7,196.7 1186.1,197.5 1188,198.6 1189.9,199.7 1191.1,200.4 1191.4,200.4 1191.7,199.9 1192.7,198.1 1193.1,197.5 
		1193.1,197.3 1192.8,197.1 1192.2,196.7 1190.4,195.7 1188.5,194.6 1186.9,193.7 1186.4,193.4 1186.3,193.2 1190.2,187.5 
		1194.5,182.3 1199.2,177.4 1204.4,173 1210,169.1 1210.7,168.7 1211.1,168.4 1211.2,168.4 1211.2,168.4 1211.4,168.8 1212.3,170.3 
		1214.4,174 1215.1,175.2 1215.3,175.2 1215.9,174.9 1216.7,174.4 1218.2,173.5 1218.3,173.3 1217.7,172.3 1215.5,168.6 1214.7,167 
		1214.4,166.6 1214.4,166.5 1214.4,166.5 1215.1,166.1 1221.1,163.3 1227.4,160.9 1234,159.2 1240.7,158 1247.7,157.4 1248.4,157.4 
		1248.4,157.4 1248.4,157.5 1248.4,158 1248.4,159.8 1248.4,162 1248.4,164.1 1248.4,165.3 1248.6,165.4 1249.3,165.4 1251.3,165.4 
		1252,165.4 1252.1,165.3 1252.1,165 1252.1,164.3 1252.1,160 1252.1,158.2 1252.1,157.6 1252.1,157.4 	"/>
</g>
<g id="SPLINE_79_">
	<polyline class="st0" points="1338.8,464.5 1345.8,465 1352.5,466.1 1359.1,467.8 1365.4,470.1 1371.5,472.9 1372.8,473.6 
		1372.8,473.6 1372.6,474 1371.7,475.4 1370.6,477.4 1369.6,479.2 1368.9,480.4 1368.9,480.6 1369.5,480.9 1371.2,481.9 
		1371.9,482.3 1372.1,482.3 1372.3,481.9 1372.7,481.2 1373.7,479.5 1374.8,477.5 1375.7,476 1375.9,475.6 1376,475.5 1376,475.4 
		1376.6,475.8 1382.2,479.7 1387.4,484 1392.3,488.8 1396.6,494 1400.5,499.6 1400.9,500.4 1400.9,500.4 1400.8,500.4 1400.4,500.7 
		1398.9,501.5 1395.2,503.7 1394.1,504.3 1394.1,504.5 1395,506 1395.5,506.9 1395.8,507.5 1396,507.5 1397.1,506.8 1400.9,504.7 
		1402.4,503.8 1402.7,503.6 1402.8,503.6 1402.8,503.7 1403,504 1403.4,504.8 1406.2,510.8 1408.5,517.1 1410.3,523.7 1411.4,530.5 
		1411.9,537.5 1411.7,537.6 1411.2,537.6 1409.3,537.6 1407.1,537.6 1405.1,537.6 1404.4,537.6 1404,537.6 1403.9,537.8 
		1403.9,538.6 1403.9,540.6 1403.9,541.2 1404.1,541.3 1405.6,541.3 1407.7,541.3 1409.9,541.3 1411.5,541.3 1411.9,541.3 
		1411.9,541.3 1411.9,541.3 1411.9,541.7 1411.8,543.5 1411.1,550.4 1409.8,557.1 1407.9,563.6 1405.5,569.9 1404.1,572.9 
		1403.3,574.4 1402.9,575.1 1402.8,575.3 1402.8,575.3 1402.5,575.2 1402,574.9 1400.4,574 1398.4,572.8 1396.7,571.8 1396.2,571.5 
		1395.9,571.4 1395.7,571.6 1394.8,573.2 1394.3,574 1394,574.5 1394.3,574.7 1395.6,575.5 1399.4,577.7 1400.7,578.4 1400.9,578.5 
		1400.9,578.6 1400.8,578.7 1400.4,579.5 1399.4,580.9 1395.4,586.4 1390.9,591.5 1386,596.2 1380.7,600.4 1377.8,602.3 
		1376.4,603.2 1376,603.5 1376,603.5 1376,603.4 1375.8,603.1 1375.5,602.6 1374.5,600.9 1373.4,598.9 1372.4,597.3 1372.1,596.8 
		1372,596.6 1371.7,596.7 1371,597.1 1369.3,598.1 1368.8,598.4 1368.8,598.4 1369,598.8 1369.8,600.2 1371,602.1 1372,604 
		1372.7,605.2 1372.8,605.4 1369.8,606.9 1363.7,609.5 1357.3,611.7 1350.6,613.2 1343.8,614.1 1340.3,614.4 1339.4,614.4 
		1339,614.4 1338.8,614.4 1338.8,614.4 1338.8,613.9 1338.8,613.2 1338.8,611.2 1338.8,608.9 1338.8,607.1 1338.8,606.6 
		1338.8,606.5 1338.4,606.5 1336.4,606.5 1335.5,606.5 1335.1,606.5 1335.1,606.6 1335.1,607 1335.1,608.7 1335.1,613 1335.1,614.3 
		1335.1,614.4 1335.1,614.4 1334.3,614.4 1330.8,614.2 1323.9,613.3 1317.2,611.8 1310.8,609.8 1304.7,607.2 1301.7,605.7 
		1301,605.3 1301,605.3 1301.1,605.2 1301.7,604.1 1303.9,600.4 1304.7,598.9 1305,598.5 1305,598.4 1304.6,598.2 1303.8,597.7 
		1302.2,596.8 1301.8,596.6 1301.7,596.7 1301.5,597.1 1300.6,598.7 1299.4,600.7 1298.4,602.4 1298.1,603 1297.9,603.4 
		1297.8,603.5 1297.7,603.4 1297.3,603.1 1296.6,602.7 1293.8,600.8 1288.4,596.6 1283.4,592 1278.9,586.9 1274.8,581.5 
		1272.9,578.6 1273.1,578.5 1274.3,577.8 1276.1,576.7 1278,575.6 1279.4,574.8 1279.8,574.6 1279.8,574.5 1279.5,574.1 
		1278.6,572.4 1278.1,571.6 1278,571.4 1277.8,571.5 1277.3,571.8 1275.6,572.7 1273.7,573.8 1272,574.8 1271.4,575.2 1271.1,575.3 
		1271.1,575.3 1271,575.3 1270.8,575 1270.1,573.5 1268.6,570.5 1266.1,564.3 1264.2,557.8 1262.8,551.1 1262.1,544.2 1262,542.4 
		1261.9,541.5 1261.9,541.3 1261.9,541.3 1262.2,541.3 1263.7,541.3 1268.1,541.3 1269.6,541.3 1269.9,541.3 1269.9,540.7 
		1269.9,539.7 1269.9,537.9 1269.9,537.6 1269.6,537.6 1268.9,537.6 1267,537.6 1264.7,537.6 1262.8,537.6 1262.2,537.6 
		1261.9,537.6 1261.9,537.6 1261.9,537.3 1262,536.4 1262.1,534.7 1262.4,531.2 1263.4,524.4 1265.1,517.8 1267.3,511.4 
		1270.1,505.4 1270.9,503.9 1271.1,503.6 1271.1,503.6 1271.1,503.6 1271.4,503.8 1272.8,504.6 1274.7,505.7 1276.5,506.7 
		1277.8,507.4 1278,507.5 1278.3,506.9 1279.3,505.2 1279.7,504.5 1279.8,504.3 1279.4,504.1 1278.8,503.8 1277.1,502.8 
		1275.1,501.6 1273.5,500.7 1273.1,500.5 1273,500.2 1276.8,494.6 1281.1,489.3 1285.9,484.5 1291.1,480.1 1296.6,476.2 
		1297.4,475.7 1297.7,475.5 1297.8,475.4 1297.9,475.5 1298.1,475.9 1298.9,477.3 1301.1,481.1 1301.7,482.2 1301.9,482.3 
		1302.5,482 1303.4,481.5 1304.9,480.6 1305,480.4 1304.4,479.4 1302.2,475.6 1301.3,474.1 1301.1,473.7 1301,473.6 1301,473.6 
		1301.7,473.2 1307.8,470.3 1314.1,468 1320.6,466.2 1327.4,465.1 1334.3,464.5 1335.1,464.5 1335.1,464.5 1335.1,464.6 
		1335.1,465.1 1335.1,466.9 1335.1,469.1 1335.1,471.2 1335.1,472.4 1335.2,472.5 1336,472.5 1338,472.5 1338.7,472.5 1338.8,472.4 
		1338.8,472 1338.8,471.3 1338.8,467.1 1338.8,465.2 1338.8,464.7 1338.8,464.5 	"/>
</g>
<circle class="st0" cx="1250.3" cy="387.4" r="59.6"/>
<circle class="st0" cx="1185.2" cy="540" r="59.6"/>
<circle class="st0" cx="1336.9" cy="539.5" r="59.6"/>
<circle class="st0" cx="1250.3" cy="232.4" r="59.6"/>
<circle class="st0" cx="1033.6" cy="540" r="20.2"/>
</svg>
