<?xml version="1.0" encoding="utf-8"?>
<!-- Generator: Adobe Illustrator 24.3.0, SVG Export Plug-In . SVG Version: 6.00 Build 0)  -->
<svg version="1.1" id="Layer_1" xmlns="http://www.w3.org/2000/svg" xmlns:xlink="http://www.w3.org/1999/xlink" x="0px" y="0px"
	 viewBox="0 0 2592 1728" style="enable-background:new 0 0 2592 1728;" xml:space="preserve">
<style type="text/css">
	.st0{fill:none;stroke:#FF1A1A;stroke-width:0.5616;stroke-linecap:round;stroke-linejoin:round;stroke-miterlimit:10;}
	.st1{fill:none;stroke:#000000;stroke-width:0.5616;stroke-linecap:round;stroke-linejoin:round;stroke-miterlimit:10;}
</style>
<g>
	<g id="LINE">
		<line class="st0" x1="1248" y1="1142" x2="1215.3" y2="1142"/>
	</g>
	<g id="LINE_1_">
		<line class="st0" x1="807.5" y1="1066.7" x2="816" y2="1066.7"/>
	</g>
	<g id="LINE_2_">
		<line class="st0" x1="929.7" y1="953.5" x2="972.3" y2="953.5"/>
	</g>
	<g id="LINE_3_">
		<line class="st0" x1="1091.7" y1="1142" x2="1053.3" y2="1142"/>
	</g>
	<g id="LINE_4_">
		<line class="st0" x1="1091.7" y1="953.5" x2="1134.3" y2="953.5"/>
	</g>
	<g id="LINE_5_">
		<line class="st0" x1="816" y1="994.7" x2="816" y2="962"/>
	</g>
	<g id="LINE_6_">
		<line class="st0" x1="891.3" y1="962" x2="929.7" y2="962"/>
	</g>
	<g id="LINE_7_">
		<line class="st0" x1="1053.3" y1="1142" x2="1053.3" y2="1150.5"/>
	</g>
	<g id="LINE_8_">
		<line class="st0" x1="1010.7" y1="1142" x2="1010.7" y2="1150.5"/>
	</g>
	<g id="LINE_9_">
		<line class="st0" x1="1248" y1="962" x2="1248" y2="994.7"/>
	</g>
	<g id="LINE_10_">
		<line class="st0" x1="1256.5" y1="1037.2" x2="1256.5" y2="994.7"/>
	</g>
	<g id="LINE_11_">
		<line class="st0" x1="816" y1="1142" x2="816" y2="1109.2"/>
	</g>
	<g id="LINE_12_">
		<line class="st0" x1="1134.3" y1="953.5" x2="1134.3" y2="962"/>
	</g>
	<g id="LINE_13_">
		<line class="st0" x1="972.3" y1="962" x2="1010.7" y2="962"/>
	</g>
	<g id="LINE_14_">
		<line class="st0" x1="972.3" y1="1150.5" x2="929.7" y2="1150.5"/>
	</g>
	<g id="LINE_15_">
		<line class="st0" x1="1248" y1="1037.2" x2="1248" y2="1066.7"/>
	</g>
	<g id="LINE_16_">
		<line class="st0" x1="848.7" y1="953.5" x2="891.3" y2="953.5"/>
	</g>
	<g id="LINE_17_">
		<line class="st0" x1="807.5" y1="1109.2" x2="807.5" y2="1066.7"/>
	</g>
	<g id="LINE_18_">
		<line class="st0" x1="1215.3" y1="962" x2="1248" y2="962"/>
	</g>
	<g id="LINE_19_">
		<line class="st0" x1="1053.3" y1="962" x2="1091.7" y2="962"/>
	</g>
	<g id="LINE_20_">
		<line class="st0" x1="1091.7" y1="962" x2="1091.7" y2="953.5"/>
	</g>
	<g id="LINE_21_">
		<line class="st0" x1="972.3" y1="953.5" x2="972.3" y2="962"/>
	</g>
	<g id="LINE_22_">
		<line class="st0" x1="816" y1="1037.2" x2="807.5" y2="1037.2"/>
	</g>
	<g id="LINE_23_">
		<line class="st0" x1="816" y1="1109.2" x2="807.5" y2="1109.2"/>
	</g>
	<g id="LINE_24_">
		<line class="st0" x1="929.7" y1="1142" x2="929.7" y2="1150.5"/>
	</g>
	<g id="LINE_25_">
		<line class="st0" x1="1248" y1="1109.2" x2="1248" y2="1142"/>
	</g>
	<g id="LINE_26_">
		<line class="st0" x1="1256.5" y1="1109.2" x2="1256.5" y2="1066.7"/>
	</g>
	<g id="LINE_27_">
		<line class="st0" x1="1248" y1="1109.2" x2="1256.5" y2="1109.2"/>
	</g>
	<g id="LINE_28_">
		<line class="st0" x1="807.5" y1="1037.2" x2="807.5" y2="994.7"/>
	</g>
	<g id="LINE_29_">
		<line class="st0" x1="1256.5" y1="1037.2" x2="1248" y2="1037.2"/>
	</g>
	<g id="LINE_30_">
		<line class="st0" x1="1215.3" y1="953.5" x2="1215.3" y2="962"/>
	</g>
	<g id="LINE_31_">
		<line class="st0" x1="1256.5" y1="994.7" x2="1248" y2="994.7"/>
	</g>
	<g id="LINE_32_">
		<line class="st0" x1="848.7" y1="1150.5" x2="891.3" y2="1150.5"/>
	</g>
	<g id="LINE_33_">
		<line class="st0" x1="848.7" y1="1150.5" x2="848.7" y2="1142"/>
	</g>
	<g id="LINE_34_">
		<line class="st0" x1="1256.5" y1="1066.7" x2="1248" y2="1066.7"/>
	</g>
	<g id="LINE_35_">
		<line class="st0" x1="816" y1="1109.2" x2="807.5" y2="1109.2"/>
	</g>
	<g id="LINE_36_">
		<line class="st0" x1="972.3" y1="1150.5" x2="972.3" y2="1142"/>
	</g>
	<g id="LINE_37_">
		<line class="st0" x1="891.3" y1="1142" x2="891.3" y2="1150.5"/>
	</g>
	<g id="LINE_38_">
		<line class="st0" x1="848.7" y1="1142" x2="816" y2="1142"/>
	</g>
	<g id="LINE_39_">
		<line class="st0" x1="1010.7" y1="1142" x2="972.3" y2="1142"/>
	</g>
	<g id="LINE_40_">
		<line class="st0" x1="816" y1="962" x2="848.7" y2="962"/>
	</g>
	<g id="LINE_41_">
		<line class="st0" x1="816" y1="1066.7" x2="816" y2="1037.2"/>
	</g>
	<g id="LINE_42_">
		<line class="st0" x1="1010.7" y1="962" x2="1010.7" y2="953.5"/>
	</g>
	<g id="LINE_43_">
		<line class="st0" x1="1134.3" y1="1150.5" x2="1134.3" y2="1142"/>
	</g>
	<g id="LINE_44_">
		<line class="st0" x1="1215.3" y1="1150.5" x2="1215.3" y2="1142"/>
	</g>
	<g id="LINE_45_">
		<line class="st0" x1="1091.7" y1="1142" x2="1091.7" y2="1150.5"/>
	</g>
	<g id="LINE_46_">
		<line class="st0" x1="1010.7" y1="953.5" x2="1053.3" y2="953.5"/>
	</g>
	<g id="LINE_47_">
		<line class="st0" x1="1053.3" y1="953.5" x2="1053.3" y2="962"/>
	</g>
	<g id="LINE_48_">
		<line class="st0" x1="848.7" y1="962" x2="848.7" y2="953.5"/>
	</g>
	<g id="LINE_49_">
		<line class="st0" x1="1172.7" y1="1142" x2="1134.3" y2="1142"/>
	</g>
	<g id="LINE_50_">
		<line class="st0" x1="807.5" y1="994.7" x2="816" y2="994.7"/>
	</g>
	<g id="LINE_51_">
		<line class="st0" x1="929.7" y1="962" x2="929.7" y2="953.5"/>
	</g>
	<g id="LINE_52_">
		<line class="st0" x1="1172.7" y1="1142" x2="1172.7" y2="1150.5"/>
	</g>
	<g id="LINE_53_">
		<line class="st0" x1="1134.3" y1="962" x2="1172.7" y2="962"/>
	</g>
	<g id="LINE_54_">
		<line class="st0" x1="1172.7" y1="962" x2="1172.7" y2="953.5"/>
	</g>
	<g id="LINE_55_">
		<line class="st0" x1="1172.7" y1="1150.5" x2="1215.3" y2="1150.5"/>
	</g>
	<g id="LINE_56_">
		<line class="st0" x1="929.7" y1="1142" x2="891.3" y2="1142"/>
	</g>
	<g id="LINE_57_">
		<line class="st0" x1="1091.7" y1="1150.5" x2="1134.3" y2="1150.5"/>
	</g>
	<g id="LINE_58_">
		<line class="st0" x1="891.3" y1="953.5" x2="891.3" y2="962"/>
	</g>
	<g id="LINE_59_">
		<line class="st0" x1="1172.7" y1="953.5" x2="1215.3" y2="953.5"/>
	</g>
	<g id="LINE_60_">
		<line class="st0" x1="1010.7" y1="1150.5" x2="1053.3" y2="1150.5"/>
	</g>
</g>
<g>
	<g id="LWPOLYLINE">
		<rect x="825.7" y="767.9" class="st0" width="432" height="180"/>
	</g>
	<g id="LWPOLYLINE_2_">
		<path class="st1" d="M1236.1,921.7c3.9,0,7.1-3.2,7.1-7.1v-56.7v-56.7c0-3.9-3.2-7.1-7.1-7.1s-7.1,3.2-7.1,7.1v56.7v56.7
			C1229,918.5,1232.2,921.7,1236.1,921.7z"/>
	</g>
	<g id="CIRCLE_34_">
		<path class="st1" d="M1006.7,878.3c0,7.8,6.3,14.2,14.2,14.2s14.2-6.3,14.2-14.2s-6.3-14.2-14.2-14.2S1006.7,870.5,1006.7,878.3
			L1006.7,878.3z"/>
	</g>
	<g id="CIRCLE_35_">
		<path class="st1" d="M923.5,878.3c0,7.8,6.3,14.2,14.2,14.2c7.8,0,14.2-6.3,14.2-14.2s-6.3-14.2-14.2-14.2
			C929.9,864.1,923.5,870.5,923.5,878.3L923.5,878.3z"/>
	</g>
	<g id="CIRCLE_36_">
		<path class="st1" d="M1089.9,878.3c0,7.8,6.3,14.2,14.2,14.2c7.8,0,14.2-6.3,14.2-14.2s-6.3-14.2-14.2-14.2
			C1096.3,864.1,1089.9,870.5,1089.9,878.3L1089.9,878.3z"/>
	</g>
	<g id="CIRCLE_37_">
		<path class="st1" d="M1048.3,919.1c0,7.8,6.3,14.2,14.2,14.2c7.8,0,14.2-6.3,14.2-14.2s-6.3-14.2-14.2-14.2
			C1054.7,904.9,1048.3,911.3,1048.3,919.1L1048.3,919.1z"/>
	</g>
	<g id="CIRCLE_38_">
		<path class="st1" d="M881.9,878.3c0,7.8,6.3,14.2,14.2,14.2c7.8,0,14.2-6.3,14.2-14.2s-6.3-14.2-14.2-14.2
			C888.3,864.1,881.9,870.5,881.9,878.3L881.9,878.3z"/>
	</g>
	<g id="CIRCLE_39_">
		<path class="st1" d="M1006.7,837.5c0,7.8,6.3,14.2,14.2,14.2s14.2-6.3,14.2-14.2c0-7.8-6.3-14.2-14.2-14.2
			S1006.7,829.7,1006.7,837.5L1006.7,837.5z"/>
	</g>
	<g id="CIRCLE_40_">
		<path class="st1" d="M965.1,796.7c0,7.8,6.3,14.2,14.2,14.2s14.2-6.3,14.2-14.2c0-7.8-6.3-14.2-14.2-14.2S965.1,788.9,965.1,796.7
			L965.1,796.7z"/>
	</g>
	<g id="CIRCLE_41_">
		<path class="st1" d="M1048.3,878.3c0,7.8,6.3,14.2,14.2,14.2c7.8,0,14.2-6.3,14.2-14.2s-6.3-14.2-14.2-14.2
			C1054.7,864.1,1048.3,870.5,1048.3,878.3L1048.3,878.3z"/>
	</g>
	<g id="CIRCLE_42_">
		<path class="st1" d="M965.1,878.3c0,7.8,6.3,14.2,14.2,14.2s14.2-6.3,14.2-14.2s-6.3-14.2-14.2-14.2S965.1,870.5,965.1,878.3
			L965.1,878.3z"/>
	</g>
	<g id="CIRCLE_43_">
		<path class="st1" d="M1127.8,857.9c0,11,8.9,19.8,19.8,19.8s19.8-8.9,19.8-19.8c0-11-8.9-19.8-19.8-19.8
			S1127.8,846.9,1127.8,857.9L1127.8,857.9z"/>
	</g>
	<g id="CIRCLE_44_">
		<path class="st1" d="M1089.9,837.5c0,7.8,6.3,14.2,14.2,14.2c7.8,0,14.2-6.3,14.2-14.2c0-7.8-6.3-14.2-14.2-14.2
			C1096.3,823.3,1089.9,829.7,1089.9,837.5L1089.9,837.5z"/>
	</g>
	<g id="CIRCLE_45_">
		<path class="st1" d="M1048.3,837.5c0,7.8,6.3,14.2,14.2,14.2c7.8,0,14.2-6.3,14.2-14.2c0-7.8-6.3-14.2-14.2-14.2
			C1054.7,823.3,1048.3,829.7,1048.3,837.5L1048.3,837.5z"/>
	</g>
	<g id="CIRCLE_46_">
		<path class="st1" d="M1127.8,805.3c0,11,8.9,19.8,19.8,19.8s19.8-8.9,19.8-19.8s-8.9-19.8-19.8-19.8S1127.8,794.4,1127.8,805.3
			L1127.8,805.3z"/>
	</g>
	<g id="CIRCLE_47_">
		<path class="st1" d="M1006.7,796.7c0,7.8,6.3,14.2,14.2,14.2s14.2-6.3,14.2-14.2c0-7.8-6.3-14.2-14.2-14.2
			S1006.7,788.9,1006.7,796.7L1006.7,796.7z"/>
	</g>
	<g id="CIRCLE_48_">
		<path class="st1" d="M965.1,837.5c0,7.8,6.3,14.2,14.2,14.2s14.2-6.3,14.2-14.2c0-7.8-6.3-14.2-14.2-14.2S965.1,829.7,965.1,837.5
			L965.1,837.5z"/>
	</g>
	<g id="CIRCLE_49_">
		<path class="st1" d="M1048.3,796.7c0,7.8,6.3,14.2,14.2,14.2c7.8,0,14.2-6.3,14.2-14.2c0-7.8-6.3-14.2-14.2-14.2
			C1054.7,782.5,1048.3,788.9,1048.3,796.7L1048.3,796.7z"/>
	</g>
	<g id="CIRCLE_50_">
		<path class="st1" d="M1178.2,857.9c0,11,8.9,19.8,19.8,19.8c11,0,19.8-8.9,19.8-19.8c0-11-8.9-19.8-19.8-19.8
			C1187.1,838,1178.2,846.9,1178.2,857.9L1178.2,857.9z"/>
	</g>
	<g id="CIRCLE_51_">
		<path class="st1" d="M881.9,919.1c0,7.8,6.3,14.2,14.2,14.2c7.8,0,14.2-6.3,14.2-14.2s-6.3-14.2-14.2-14.2
			C888.3,904.9,881.9,911.3,881.9,919.1L881.9,919.1z"/>
	</g>
	<g id="CIRCLE_52_">
		<path class="st1" d="M923.5,796.7c0,7.8,6.3,14.2,14.2,14.2c7.8,0,14.2-6.3,14.2-14.2c0-7.8-6.3-14.2-14.2-14.2
			C929.9,782.5,923.5,788.9,923.5,796.7L923.5,796.7z"/>
	</g>
	<g id="CIRCLE_53_">
		<path class="st1" d="M881.9,796.7c0,7.8,6.3,14.2,14.2,14.2c7.8,0,14.2-6.3,14.2-14.2c0-7.8-6.3-14.2-14.2-14.2
			C888.3,782.5,881.9,788.9,881.9,796.7L881.9,796.7z"/>
	</g>
	<g id="CIRCLE_54_">
		<path class="st1" d="M881.9,837.5c0,7.8,6.3,14.2,14.2,14.2c7.8,0,14.2-6.3,14.2-14.2c0-7.8-6.3-14.2-14.2-14.2
			C888.3,823.3,881.9,829.7,881.9,837.5L881.9,837.5z"/>
	</g>
	<g id="CIRCLE_55_">
		<path class="st1" d="M1089.9,919.1c0,7.8,6.3,14.2,14.2,14.2c7.8,0,14.2-6.3,14.2-14.2s-6.3-14.2-14.2-14.2
			C1096.3,904.9,1089.9,911.3,1089.9,919.1L1089.9,919.1z"/>
	</g>
	<g id="CIRCLE_56_">
		<path class="st1" d="M1089.9,796.7c0,7.8,6.3,14.2,14.2,14.2c7.8,0,14.2-6.3,14.2-14.2c0-7.8-6.3-14.2-14.2-14.2
			C1096.3,782.5,1089.9,788.9,1089.9,796.7L1089.9,796.7z"/>
	</g>
	<g id="CIRCLE_57_">
		<path class="st1" d="M923.5,837.5c0,7.8,6.3,14.2,14.2,14.2c7.8,0,14.2-6.3,14.2-14.2c0-7.8-6.3-14.2-14.2-14.2
			C929.9,823.3,923.5,829.7,923.5,837.5L923.5,837.5z"/>
	</g>
	<g id="CIRCLE_58_">
		<path class="st1" d="M1178.2,805.3c0,11,8.9,19.8,19.8,19.8c11,0,19.8-8.9,19.8-19.8s-8.9-19.8-19.8-19.8
			C1187.1,785.5,1178.2,794.4,1178.2,805.3L1178.2,805.3z"/>
	</g>
	<g id="CIRCLE_59_">
		<path class="st1" d="M965.1,919.1c0,7.8,6.3,14.2,14.2,14.2s14.2-6.3,14.2-14.2s-6.3-14.2-14.2-14.2S965.1,911.3,965.1,919.1
			L965.1,919.1z"/>
	</g>
	<g id="CIRCLE_60_">
		<path class="st1" d="M840.3,878.3c0,7.8,6.3,14.2,14.2,14.2s14.2-6.3,14.2-14.2s-6.3-14.2-14.2-14.2S840.3,870.5,840.3,878.3
			L840.3,878.3z"/>
	</g>
	<g id="CIRCLE_61_">
		<path class="st1" d="M840.3,796.7c0,7.8,6.3,14.2,14.2,14.2s14.2-6.3,14.2-14.2c0-7.8-6.3-14.2-14.2-14.2S840.3,788.9,840.3,796.7
			L840.3,796.7z"/>
	</g>
	<g id="CIRCLE_62_">
		<path class="st1" d="M840.3,919.1c0,7.8,6.3,14.2,14.2,14.2s14.2-6.3,14.2-14.2s-6.3-14.2-14.2-14.2S840.3,911.3,840.3,919.1
			L840.3,919.1z"/>
	</g>
	<g id="CIRCLE_63_">
		<path class="st1" d="M923.5,919.1c0,7.8,6.3,14.2,14.2,14.2c7.8,0,14.2-6.3,14.2-14.2s-6.3-14.2-14.2-14.2
			C929.9,904.9,923.5,911.3,923.5,919.1L923.5,919.1z"/>
	</g>
	<g id="CIRCLE_64_">
		<path class="st1" d="M1178.2,910.4c0,11,8.9,19.8,19.8,19.8c11,0,19.8-8.9,19.8-19.8c0-11-8.9-19.8-19.8-19.8
			C1187.1,890.6,1178.2,899.5,1178.2,910.4L1178.2,910.4z"/>
	</g>
	<g id="CIRCLE_65_">
		<path class="st1" d="M1006.7,919.1c0,7.8,6.3,14.2,14.2,14.2s14.2-6.3,14.2-14.2s-6.3-14.2-14.2-14.2S1006.7,911.3,1006.7,919.1
			L1006.7,919.1z"/>
	</g>
	<g id="CIRCLE_66_">
		<path class="st1" d="M1127.8,910.4c0,11,8.9,19.8,19.8,19.8s19.8-8.9,19.8-19.8c0-11-8.9-19.8-19.8-19.8
			S1127.8,899.5,1127.8,910.4L1127.8,910.4z"/>
	</g>
	<g id="CIRCLE_67_">
		<path class="st1" d="M840.3,837.5c0,7.8,6.3,14.2,14.2,14.2s14.2-6.3,14.2-14.2c0-7.8-6.3-14.2-14.2-14.2S840.3,829.7,840.3,837.5
			L840.3,837.5z"/>
	</g>
</g>
<g>
	<g id="LWPOLYLINE_1_">
		<path class="st0" d="M1651.2,908.1h-302.4c-19.9,0-36-16.1-36-36v-86.4c0-19.9,16.1-36,36-36h302.4c19.9,0,36,16.1,36,36v86.4
			C1687.2,892,1671.1,908.1,1651.2,908.1z"/>
	</g>
	<g id="LINE_134_">
		<line class="st0" x1="1316.7" y1="936.8" x2="1316.7" y2="936.9"/>
	</g>
	<g id="LINE_133_">
		<line class="st0" x1="1359.3" y1="936.8" x2="1359.3" y2="936.9"/>
	</g>
	<g id="LINE_132_">
		<line class="st0" x1="1397.7" y1="936.9" x2="1397.7" y2="936.9"/>
	</g>
	<g id="LINE_131_">
		<line class="st0" x1="1440.3" y1="936.9" x2="1440.3" y2="936.9"/>
	</g>
	<g id="LINE_130_">
		<line class="st0" x1="1478.7" y1="936.9" x2="1478.7" y2="936.9"/>
	</g>
	<g id="LINE_129_">
		<line class="st0" x1="1521.3" y1="936.9" x2="1521.3" y2="936.9"/>
	</g>
	<g id="LINE_128_">
		<line class="st0" x1="1559.7" y1="936.9" x2="1559.7" y2="936.9"/>
	</g>
	<g id="LINE_127_">
		<line class="st0" x1="1602.3" y1="936.9" x2="1602.3" y2="936.9"/>
	</g>
	<g id="LINE_126_">
		<line class="st0" x1="1640.7" y1="936.9" x2="1640.7" y2="936.9"/>
	</g>
	<g id="LINE_125_">
		<line class="st0" x1="1683.3" y1="936.9" x2="1683.3" y2="936.9"/>
	</g>
	<g id="LINE_124_">
		<line class="st0" x1="1683.3" y1="720.9" x2="1683.3" y2="729.4"/>
	</g>
	<g id="LINE_123_">
		<line class="st0" x1="1640.7" y1="720.9" x2="1640.7" y2="729.4"/>
	</g>
	<g id="LINE_122_">
		<line class="st0" x1="1602.3" y1="720.9" x2="1602.3" y2="729.4"/>
	</g>
	<g id="LINE_121_">
		<line class="st0" x1="1559.7" y1="720.9" x2="1559.7" y2="729.4"/>
	</g>
	<g id="LINE_120_">
		<line class="st0" x1="1521.3" y1="720.9" x2="1521.3" y2="729.4"/>
	</g>
	<g id="LINE_119_">
		<line class="st0" x1="1478.7" y1="720.9" x2="1478.7" y2="729.4"/>
	</g>
	<g id="LINE_118_">
		<line class="st0" x1="1440.3" y1="720.9" x2="1440.3" y2="729.4"/>
	</g>
	<g id="LINE_117_">
		<line class="st0" x1="1397.7" y1="720.9" x2="1397.7" y2="729.4"/>
	</g>
	<g id="LINE_116_">
		<line class="st0" x1="1359.3" y1="720.9" x2="1359.3" y2="729.4"/>
	</g>
	<g id="LINE_115_">
		<line class="st0" x1="1316.7" y1="720.9" x2="1316.7" y2="729.4"/>
	</g>
	<g id="LINE_114_">
		<line class="st0" x1="1316.7" y1="936.8" x2="1316.7" y2="928.3"/>
	</g>
	<g id="LINE_113_">
		<line class="st0" x1="1359.3" y1="936.8" x2="1359.3" y2="928.3"/>
	</g>
	<g id="LINE_112_">
		<line class="st0" x1="1397.7" y1="936.9" x2="1397.7" y2="928.3"/>
	</g>
	<g id="LINE_111_">
		<line class="st0" x1="1440.3" y1="936.9" x2="1440.3" y2="928.4"/>
	</g>
	<g id="LINE_110_">
		<line class="st0" x1="1478.7" y1="936.9" x2="1478.7" y2="928.4"/>
	</g>
	<g id="LINE_109_">
		<line class="st0" x1="1521.3" y1="936.9" x2="1521.3" y2="928.4"/>
	</g>
	<g id="LINE_108_">
		<line class="st0" x1="1559.7" y1="936.9" x2="1559.7" y2="928.4"/>
	</g>
	<g id="LINE_107_">
		<line class="st0" x1="1602.3" y1="936.9" x2="1602.3" y2="928.4"/>
	</g>
	<g id="LINE_106_">
		<line class="st0" x1="1640.7" y1="936.9" x2="1640.7" y2="928.4"/>
	</g>
	<g id="LINE_105_">
		<line class="st0" x1="1683.3" y1="936.9" x2="1683.3" y2="928.4"/>
	</g>
	<g id="LINE_104_">
		<line class="st0" x1="1640.7" y1="928.4" x2="1683.3" y2="928.4"/>
	</g>
	<g id="LINE_103_">
		<line class="st0" x1="1559.7" y1="928.4" x2="1602.3" y2="928.4"/>
	</g>
	<g id="LINE_102_">
		<line class="st0" x1="1478.7" y1="928.4" x2="1521.3" y2="928.4"/>
	</g>
	<g id="LINE_101_">
		<line class="st0" x1="1397.7" y1="928.3" x2="1440.3" y2="928.4"/>
	</g>
	<g id="LINE_100_">
		<line class="st0" x1="1316.7" y1="928.3" x2="1359.3" y2="928.3"/>
	</g>
	<g id="LINE_99_">
		<line class="st0" x1="1316.7" y1="729.4" x2="1359.3" y2="729.4"/>
	</g>
	<g id="LINE_98_">
		<line class="st0" x1="1397.7" y1="729.4" x2="1440.3" y2="729.4"/>
	</g>
	<g id="LINE_97_">
		<line class="st0" x1="1478.7" y1="729.4" x2="1521.3" y2="729.4"/>
	</g>
	<g id="LINE_96_">
		<line class="st0" x1="1559.7" y1="729.4" x2="1602.3" y2="729.4"/>
	</g>
	<g id="LINE_95_">
		<line class="st0" x1="1640.7" y1="729.4" x2="1683.3" y2="729.4"/>
	</g>
	<g id="LINE_94_">
		<line class="st0" x1="1284" y1="720.9" x2="1316.7" y2="720.9"/>
	</g>
	<g id="LINE_93_">
		<line class="st0" x1="1397.7" y1="720.9" x2="1359.3" y2="720.9"/>
	</g>
	<g id="LINE_92_">
		<line class="st0" x1="1478.7" y1="720.9" x2="1440.3" y2="720.9"/>
	</g>
	<g id="LINE_91_">
		<line class="st0" x1="1559.7" y1="720.9" x2="1521.3" y2="720.9"/>
	</g>
	<g id="LINE_90_">
		<line class="st0" x1="1716" y1="720.9" x2="1683.3" y2="720.9"/>
	</g>
	<g id="LINE_89_">
		<line class="st0" x1="1640.7" y1="720.9" x2="1602.3" y2="720.9"/>
	</g>
	<g id="LINE_88_">
		<line class="st0" x1="1683.3" y1="936.9" x2="1716" y2="936.9"/>
	</g>
	<g id="LINE_87_">
		<line class="st0" x1="1602.3" y1="936.9" x2="1640.7" y2="936.9"/>
	</g>
	<g id="LINE_86_">
		<line class="st0" x1="1521.3" y1="936.9" x2="1559.7" y2="936.9"/>
	</g>
	<g id="LINE_85_">
		<line class="st0" x1="1440.3" y1="936.9" x2="1478.7" y2="936.9"/>
	</g>
	<g id="LINE_84_">
		<line class="st0" x1="1284" y1="936.9" x2="1316.7" y2="936.9"/>
	</g>
	<g id="LINE_83_">
		<line class="st0" x1="1359.3" y1="936.9" x2="1397.7" y2="936.9"/>
	</g>
	<g id="LINE_82_">
		<line class="st0" x1="1284" y1="771.6" x2="1284" y2="814.1"/>
	</g>
	<g id="LINE_81_">
		<line class="st0" x1="1284" y1="843.6" x2="1284" y2="886.1"/>
	</g>
	<g id="LINE_80_">
		<line class="st0" x1="1716" y1="886.1" x2="1716" y2="843.6"/>
	</g>
	<g id="LINE_79_">
		<line class="st0" x1="1716" y1="771.6" x2="1716" y2="814.1"/>
	</g>
	<g id="LINE_78_">
		<line class="st0" x1="1716" y1="771.6" x2="1724.5" y2="771.6"/>
	</g>
	<g id="LINE_77_">
		<line class="st0" x1="1716" y1="814.1" x2="1724.5" y2="814.1"/>
	</g>
	<g id="LINE_76_">
		<line class="st0" x1="1716" y1="843.6" x2="1724.5" y2="843.6"/>
	</g>
	<g id="LINE_75_">
		<line class="st0" x1="1716" y1="886.1" x2="1724.5" y2="886.1"/>
	</g>
	<g id="LINE_74_">
		<line class="st0" x1="1284" y1="771.6" x2="1275.5" y2="771.6"/>
	</g>
	<g id="LINE_61_">
		<line class="st0" x1="1284" y1="814.1" x2="1275.5" y2="814.1"/>
	</g>
	<g id="LINE_62_">
		<line class="st0" x1="1284" y1="843.6" x2="1275.5" y2="843.6"/>
	</g>
	<g id="LINE_63_">
		<line class="st0" x1="1284" y1="886.1" x2="1275.5" y2="886.1"/>
	</g>
	<g id="LINE_64_">
		<line class="st0" x1="1724.5" y1="771.6" x2="1724.5" y2="720.9"/>
	</g>
	<g id="LINE_65_">
		<line class="st0" x1="1724.5" y1="720.9" x2="1716" y2="720.9"/>
	</g>
	<g id="LINE_66_">
		<line class="st0" x1="1724.5" y1="886.1" x2="1724.5" y2="936.9"/>
	</g>
	<g id="LINE_67_">
		<line class="st0" x1="1716" y1="936.9" x2="1724.5" y2="936.9"/>
	</g>
	<g id="LINE_68_">
		<line class="st0" x1="1724.5" y1="843.6" x2="1724.5" y2="814.1"/>
	</g>
	<g id="LINE_69_">
		<line class="st0" x1="1275.5" y1="814.1" x2="1275.5" y2="843.6"/>
	</g>
	<g id="LINE_70_">
		<line class="st0" x1="1275.5" y1="886.1" x2="1275.5" y2="936.9"/>
	</g>
	<g id="LINE_71_">
		<line class="st0" x1="1284" y1="936.9" x2="1275.5" y2="936.9"/>
	</g>
	<g id="LINE_72_">
		<line class="st0" x1="1284" y1="720.9" x2="1275.5" y2="720.9"/>
	</g>
	<g id="LINE_73_">
		<line class="st0" x1="1275.5" y1="771.6" x2="1275.5" y2="720.9"/>
	</g>
</g>
<g>
	<g id="LWPOLYLINE_3_">
		<path class="st0" d="M1639.2,1137.3h-302.4c-19.9,0-36-16.1-36-36v-86.4c0-19.9,16.1-36,36-36h302.4c19.9,0,36,16.1,36,36v86.4
			C1675.2,1121.2,1659.1,1137.3,1639.2,1137.3z"/>
	</g>
	<g id="LINE_208_">
		<line class="st0" x1="1304.7" y1="1166" x2="1304.7" y2="1166.1"/>
	</g>
	<g id="LINE_207_">
		<line class="st0" x1="1347.3" y1="1166" x2="1347.3" y2="1166.1"/>
	</g>
	<g id="LINE_206_">
		<line class="st0" x1="1385.7" y1="1166" x2="1385.7" y2="1166.1"/>
	</g>
	<g id="LINE_205_">
		<line class="st0" x1="1428.3" y1="1166.1" x2="1428.3" y2="1166.1"/>
	</g>
	<g id="LINE_204_">
		<line class="st0" x1="1466.7" y1="1166.1" x2="1466.7" y2="1166.1"/>
	</g>
	<g id="LINE_203_">
		<line class="st0" x1="1509.3" y1="1166.1" x2="1509.3" y2="1166.1"/>
	</g>
	<g id="LINE_202_">
		<line class="st0" x1="1547.7" y1="1166.1" x2="1547.7" y2="1166.1"/>
	</g>
	<g id="LINE_201_">
		<line class="st0" x1="1590.3" y1="1166.1" x2="1590.3" y2="1166.1"/>
	</g>
	<g id="LINE_200_">
		<line class="st0" x1="1628.7" y1="1166.1" x2="1628.7" y2="1166.1"/>
	</g>
	<g id="LINE_199_">
		<line class="st0" x1="1671.3" y1="1166.1" x2="1671.3" y2="1166.1"/>
	</g>
	<g id="LINE_198_">
		<line class="st0" x1="1671.3" y1="950.1" x2="1671.3" y2="958.6"/>
	</g>
	<g id="LINE_197_">
		<line class="st0" x1="1628.7" y1="950.1" x2="1628.7" y2="958.6"/>
	</g>
	<g id="LINE_196_">
		<line class="st0" x1="1590.3" y1="950.1" x2="1590.3" y2="958.6"/>
	</g>
	<g id="LINE_195_">
		<line class="st0" x1="1547.7" y1="950.1" x2="1547.7" y2="958.6"/>
	</g>
	<g id="LINE_194_">
		<line class="st0" x1="1509.3" y1="950.1" x2="1509.3" y2="958.6"/>
	</g>
	<g id="LINE_193_">
		<line class="st0" x1="1466.7" y1="950.1" x2="1466.7" y2="958.6"/>
	</g>
	<g id="LINE_192_">
		<line class="st0" x1="1428.3" y1="950.1" x2="1428.3" y2="958.6"/>
	</g>
	<g id="LINE_191_">
		<line class="st0" x1="1385.7" y1="950.1" x2="1385.7" y2="958.6"/>
	</g>
	<g id="LINE_190_">
		<line class="st0" x1="1347.3" y1="950.1" x2="1347.3" y2="958.6"/>
	</g>
	<g id="LINE_189_">
		<line class="st0" x1="1304.7" y1="950.1" x2="1304.7" y2="958.6"/>
	</g>
	<g id="LINE_188_">
		<line class="st0" x1="1304.7" y1="1166" x2="1304.7" y2="1157.5"/>
	</g>
	<g id="LINE_187_">
		<line class="st0" x1="1347.3" y1="1166" x2="1347.3" y2="1157.5"/>
	</g>
	<g id="LINE_186_">
		<line class="st0" x1="1385.7" y1="1166" x2="1385.7" y2="1157.5"/>
	</g>
	<g id="LINE_185_">
		<line class="st0" x1="1428.3" y1="1166.1" x2="1428.3" y2="1157.5"/>
	</g>
	<g id="LINE_184_">
		<line class="st0" x1="1466.7" y1="1166.1" x2="1466.7" y2="1157.6"/>
	</g>
	<g id="LINE_183_">
		<line class="st0" x1="1509.3" y1="1166.1" x2="1509.3" y2="1157.6"/>
	</g>
	<g id="LINE_182_">
		<line class="st0" x1="1547.7" y1="1166.1" x2="1547.7" y2="1157.6"/>
	</g>
	<g id="LINE_181_">
		<line class="st0" x1="1590.3" y1="1166.1" x2="1590.3" y2="1157.6"/>
	</g>
	<g id="LINE_180_">
		<line class="st0" x1="1628.7" y1="1166.1" x2="1628.7" y2="1157.6"/>
	</g>
	<g id="LINE_179_">
		<line class="st0" x1="1671.3" y1="1166.1" x2="1671.3" y2="1157.6"/>
	</g>
	<g id="LINE_178_">
		<line class="st0" x1="1628.7" y1="1157.6" x2="1671.3" y2="1157.6"/>
	</g>
	<g id="LINE_177_">
		<line class="st0" x1="1547.7" y1="1157.6" x2="1590.3" y2="1157.6"/>
	</g>
	<g id="LINE_176_">
		<line class="st0" x1="1466.7" y1="1157.6" x2="1509.3" y2="1157.6"/>
	</g>
	<g id="LINE_175_">
		<line class="st0" x1="1385.7" y1="1157.5" x2="1428.3" y2="1157.5"/>
	</g>
	<g id="LINE_174_">
		<line class="st0" x1="1304.7" y1="1157.5" x2="1347.3" y2="1157.5"/>
	</g>
	<g id="LINE_173_">
		<line class="st0" x1="1304.7" y1="958.6" x2="1347.3" y2="958.6"/>
	</g>
	<g id="LINE_172_">
		<line class="st0" x1="1385.7" y1="958.6" x2="1428.3" y2="958.6"/>
	</g>
	<g id="LINE_171_">
		<line class="st0" x1="1466.7" y1="958.6" x2="1509.3" y2="958.6"/>
	</g>
	<g id="LINE_170_">
		<line class="st0" x1="1547.7" y1="958.6" x2="1590.3" y2="958.6"/>
	</g>
	<g id="LINE_169_">
		<line class="st0" x1="1628.7" y1="958.6" x2="1671.3" y2="958.6"/>
	</g>
	<g id="LINE_168_">
		<line class="st0" x1="1272" y1="950.1" x2="1304.7" y2="950.1"/>
	</g>
	<g id="LINE_167_">
		<line class="st0" x1="1385.7" y1="950.1" x2="1347.3" y2="950.1"/>
	</g>
	<g id="LINE_166_">
		<line class="st0" x1="1466.7" y1="950.1" x2="1428.3" y2="950.1"/>
	</g>
	<g id="LINE_165_">
		<line class="st0" x1="1547.7" y1="950.1" x2="1509.3" y2="950.1"/>
	</g>
	<g id="LINE_164_">
		<line class="st0" x1="1704" y1="950.1" x2="1671.3" y2="950.1"/>
	</g>
	<g id="LINE_163_">
		<line class="st0" x1="1628.7" y1="950.1" x2="1590.3" y2="950.1"/>
	</g>
	<g id="LINE_162_">
		<line class="st0" x1="1671.3" y1="1166.1" x2="1704" y2="1166.1"/>
	</g>
	<g id="LINE_161_">
		<line class="st0" x1="1590.3" y1="1166.1" x2="1628.7" y2="1166.1"/>
	</g>
	<g id="LINE_160_">
		<line class="st0" x1="1509.3" y1="1166.1" x2="1547.7" y2="1166.1"/>
	</g>
	<g id="LINE_159_">
		<line class="st0" x1="1428.3" y1="1166.1" x2="1466.7" y2="1166.1"/>
	</g>
	<g id="LINE_158_">
		<line class="st0" x1="1272" y1="1166.1" x2="1304.7" y2="1166.1"/>
	</g>
	<g id="LINE_157_">
		<line class="st0" x1="1347.3" y1="1166.1" x2="1385.7" y2="1166.1"/>
	</g>
	<g id="LINE_156_">
		<line class="st0" x1="1272" y1="1000.8" x2="1272" y2="1043.3"/>
	</g>
	<g id="LINE_155_">
		<line class="st0" x1="1272" y1="1072.8" x2="1272" y2="1115.3"/>
	</g>
	<g id="LINE_154_">
		<line class="st0" x1="1704" y1="1115.3" x2="1704" y2="1072.8"/>
	</g>
	<g id="LINE_153_">
		<line class="st0" x1="1704" y1="1000.8" x2="1704" y2="1043.3"/>
	</g>
	<g id="LINE_152_">
		<line class="st0" x1="1704" y1="1000.8" x2="1712.5" y2="1000.8"/>
	</g>
	<g id="LINE_151_">
		<line class="st0" x1="1704" y1="1043.3" x2="1712.5" y2="1043.3"/>
	</g>
	<g id="LINE_150_">
		<line class="st0" x1="1704" y1="1072.8" x2="1712.5" y2="1072.8"/>
	</g>
	<g id="LINE_149_">
		<line class="st0" x1="1704" y1="1115.3" x2="1712.5" y2="1115.3"/>
	</g>
	<g id="LINE_148_">
		<line class="st0" x1="1272" y1="1000.8" x2="1263.5" y2="1000.8"/>
	</g>
	<g id="LINE_147_">
		<line class="st0" x1="1272" y1="1043.3" x2="1263.5" y2="1043.3"/>
	</g>
	<g id="LINE_146_">
		<line class="st0" x1="1272" y1="1072.8" x2="1263.5" y2="1072.8"/>
	</g>
	<g id="LINE_145_">
		<line class="st0" x1="1272" y1="1115.3" x2="1263.5" y2="1115.3"/>
	</g>
	<g id="LINE_144_">
		<line class="st0" x1="1712.5" y1="1000.8" x2="1712.5" y2="950.1"/>
	</g>
	<g id="LINE_143_">
		<line class="st0" x1="1712.5" y1="950.1" x2="1704" y2="950.1"/>
	</g>
	<g id="LINE_142_">
		<line class="st0" x1="1712.5" y1="1115.3" x2="1712.5" y2="1166.1"/>
	</g>
	<g id="LINE_141_">
		<line class="st0" x1="1704" y1="1166.1" x2="1712.5" y2="1166.1"/>
	</g>
	<g id="LINE_140_">
		<line class="st0" x1="1712.5" y1="1072.8" x2="1712.5" y2="1043.3"/>
	</g>
	<g id="LINE_139_">
		<line class="st0" x1="1263.5" y1="1043.3" x2="1263.5" y2="1072.8"/>
	</g>
	<g id="LINE_138_">
		<line class="st0" x1="1263.5" y1="1115.3" x2="1263.5" y2="1166.1"/>
	</g>
	<g id="LINE_137_">
		<line class="st0" x1="1272" y1="1166.1" x2="1263.5" y2="1166.1"/>
	</g>
	<g id="LINE_136_">
		<line class="st0" x1="1272" y1="950.1" x2="1263.5" y2="950.1"/>
	</g>
	<g id="LINE_135_">
		<line class="st0" x1="1263.5" y1="1000.8" x2="1263.5" y2="950.1"/>
	</g>
</g>
<g>
	<g id="LINE_252_">
		<line class="st0" x1="1280.5" y1="549.7" x2="1289" y2="549.7"/>
	</g>
	<g id="LINE_251_">
		<line class="st0" x1="1289" y1="621.7" x2="1289" y2="592.2"/>
	</g>
	<g id="LINE_250_">
		<line class="st0" x1="1289" y1="664.2" x2="1280.5" y2="664.2"/>
	</g>
	<g id="LINE_249_">
		<line class="st0" x1="1280.5" y1="621.7" x2="1289" y2="621.7"/>
	</g>
	<g id="LINE_248_">
		<line class="st0" x1="1280.5" y1="592.2" x2="1280.5" y2="549.7"/>
	</g>
	<g id="LINE_247_">
		<line class="st0" x1="1280.5" y1="664.2" x2="1280.5" y2="621.7"/>
	</g>
	<g id="LINE_246_">
		<line class="st0" x1="1289" y1="592.2" x2="1280.5" y2="592.2"/>
	</g>
	<g id="LINE_245_">
		<line class="st0" x1="1289" y1="715" x2="1289" y2="664.2"/>
	</g>
	<g id="LINE_244_">
		<line class="st0" x1="1289" y1="549.7" x2="1289" y2="499"/>
	</g>
	<g id="LINE_243_">
		<line class="st0" x1="1393.7" y1="715" x2="1393.7" y2="715"/>
	</g>
	<g id="LINE_242_">
		<line class="st0" x1="1436.2" y1="715" x2="1436.2" y2="715"/>
	</g>
	<g id="LINE_241_">
		<line class="st0" x1="1364.2" y1="715" x2="1364.2" y2="715"/>
	</g>
	<g id="LINE_240_">
		<line class="st0" x1="1321.7" y1="715" x2="1321.7" y2="715"/>
	</g>
	<g id="LINE_239_">
		<line class="st0" x1="1477.5" y1="592.3" x2="1469" y2="592.3"/>
	</g>
	<g id="LINE_238_">
		<line class="st0" x1="1477.5" y1="549.8" x2="1477.5" y2="592.3"/>
	</g>
	<g id="LINE_237_">
		<line class="st0" x1="1469" y1="549.8" x2="1477.5" y2="549.8"/>
	</g>
	<g id="LINE_236_">
		<line class="st0" x1="1469" y1="621.8" x2="1477.5" y2="621.8"/>
	</g>
	<g id="LINE_235_">
		<line class="st0" x1="1477.5" y1="621.8" x2="1477.5" y2="664.3"/>
	</g>
	<g id="LINE_234_">
		<line class="st0" x1="1477.5" y1="664.3" x2="1469" y2="664.3"/>
	</g>
	<g id="LINE_233_">
		<line class="st0" x1="1364.3" y1="499" x2="1364.3" y2="499"/>
	</g>
	<g id="LINE_232_">
		<line class="st0" x1="1321.8" y1="499" x2="1321.8" y2="499"/>
	</g>
	<g id="LINE_231_">
		<line class="st0" x1="1393.8" y1="499" x2="1393.8" y2="499"/>
	</g>
	<g id="LINE_230_">
		<line class="st0" x1="1436.3" y1="499" x2="1436.3" y2="499"/>
	</g>
	<g id="LINE_229_">
		<line class="st0" x1="1321.7" y1="715" x2="1289" y2="715"/>
	</g>
	<g id="LINE_228_">
		<line class="st0" x1="1469" y1="715" x2="1436.2" y2="715"/>
	</g>
	<g id="LINE_227_">
		<line class="st0" x1="1393.7" y1="715" x2="1364.2" y2="715"/>
	</g>
	<g id="LINE_226_">
		<line class="st0" x1="1469" y1="664.3" x2="1469" y2="715"/>
	</g>
	<g id="LINE_225_">
		<line class="st0" x1="1469" y1="499" x2="1469" y2="549.8"/>
	</g>
	<g id="LINE_224_">
		<line class="st0" x1="1469" y1="592.3" x2="1469" y2="621.8"/>
	</g>
	<g id="LINE_223_">
		<line class="st0" x1="1436.3" y1="499" x2="1469" y2="499"/>
	</g>
	<g id="LINE_222_">
		<line class="st0" x1="1289" y1="499" x2="1321.8" y2="499"/>
	</g>
	<g id="LINE_221_">
		<line class="st0" x1="1364.3" y1="499" x2="1393.8" y2="499"/>
	</g>
	<g id="LINE_220_">
		<line class="st0" x1="1321.7" y1="715" x2="1321.7" y2="706.5"/>
	</g>
	<g id="LINE_219_">
		<line class="st0" x1="1393.7" y1="715" x2="1393.7" y2="706.5"/>
	</g>
	<g id="LINE_218_">
		<line class="st0" x1="1436.2" y1="715" x2="1436.2" y2="706.5"/>
	</g>
	<g id="LINE_217_">
		<line class="st0" x1="1436.3" y1="499" x2="1436.3" y2="507.5"/>
	</g>
	<g id="LINE_216_">
		<line class="st0" x1="1393.8" y1="499" x2="1393.8" y2="507.5"/>
	</g>
	<g id="LINE_215_">
		<line class="st0" x1="1364.3" y1="499" x2="1364.3" y2="507.5"/>
	</g>
	<g id="LINE_214_">
		<line class="st0" x1="1321.8" y1="499" x2="1321.8" y2="507.5"/>
	</g>
	<g id="LINE_213_">
		<line class="st0" x1="1321.8" y1="507.5" x2="1364.3" y2="507.5"/>
	</g>
	<g id="LINE_212_">
		<line class="st0" x1="1393.8" y1="507.5" x2="1436.3" y2="507.5"/>
	</g>
	<g id="LINE_211_">
		<line class="st0" x1="1364.2" y1="715" x2="1364.2" y2="706.5"/>
	</g>
	<g id="LINE_210_">
		<line class="st0" x1="1364.2" y1="706.5" x2="1321.7" y2="706.5"/>
	</g>
	<g id="LINE_209_">
		<line class="st0" x1="1393.7" y1="706.5" x2="1436.2" y2="706.5"/>
	</g>
</g>
<g>
	<g id="LINE_296_">
		<line class="st0" x1="1487.5" y1="549.7" x2="1496" y2="549.7"/>
	</g>
	<g id="LINE_295_">
		<line class="st0" x1="1496" y1="621.7" x2="1496" y2="592.2"/>
	</g>
	<g id="LINE_294_">
		<line class="st0" x1="1496" y1="664.2" x2="1487.5" y2="664.2"/>
	</g>
	<g id="LINE_293_">
		<line class="st0" x1="1487.5" y1="621.7" x2="1496" y2="621.7"/>
	</g>
	<g id="LINE_292_">
		<line class="st0" x1="1487.5" y1="592.2" x2="1487.5" y2="549.7"/>
	</g>
	<g id="LINE_291_">
		<line class="st0" x1="1487.5" y1="664.2" x2="1487.5" y2="621.7"/>
	</g>
	<g id="LINE_290_">
		<line class="st0" x1="1496" y1="592.2" x2="1487.5" y2="592.2"/>
	</g>
	<g id="LINE_289_">
		<line class="st0" x1="1496" y1="715" x2="1496" y2="664.2"/>
	</g>
	<g id="LINE_288_">
		<line class="st0" x1="1496" y1="549.7" x2="1496" y2="499"/>
	</g>
	<g id="LINE_287_">
		<line class="st0" x1="1600.7" y1="715" x2="1600.7" y2="715"/>
	</g>
	<g id="LINE_286_">
		<line class="st0" x1="1643.2" y1="715" x2="1643.2" y2="715"/>
	</g>
	<g id="LINE_285_">
		<line class="st0" x1="1571.2" y1="715" x2="1571.2" y2="715"/>
	</g>
	<g id="LINE_284_">
		<line class="st0" x1="1528.7" y1="715" x2="1528.7" y2="715"/>
	</g>
	<g id="LINE_283_">
		<line class="st0" x1="1684.5" y1="592.3" x2="1676" y2="592.3"/>
	</g>
	<g id="LINE_282_">
		<line class="st0" x1="1684.5" y1="549.8" x2="1684.5" y2="592.3"/>
	</g>
	<g id="LINE_281_">
		<line class="st0" x1="1676" y1="549.8" x2="1684.5" y2="549.8"/>
	</g>
	<g id="LINE_280_">
		<line class="st0" x1="1676" y1="621.8" x2="1684.5" y2="621.8"/>
	</g>
	<g id="LINE_279_">
		<line class="st0" x1="1684.5" y1="621.8" x2="1684.5" y2="664.3"/>
	</g>
	<g id="LINE_278_">
		<line class="st0" x1="1684.5" y1="664.3" x2="1676" y2="664.3"/>
	</g>
	<g id="LINE_277_">
		<line class="st0" x1="1571.3" y1="499" x2="1571.3" y2="499"/>
	</g>
	<g id="LINE_276_">
		<line class="st0" x1="1528.8" y1="499" x2="1528.8" y2="499"/>
	</g>
	<g id="LINE_275_">
		<line class="st0" x1="1600.8" y1="499" x2="1600.8" y2="499"/>
	</g>
	<g id="LINE_274_">
		<line class="st0" x1="1643.3" y1="499" x2="1643.3" y2="499"/>
	</g>
	<g id="LINE_273_">
		<line class="st0" x1="1528.7" y1="715" x2="1496" y2="715"/>
	</g>
	<g id="LINE_272_">
		<line class="st0" x1="1676" y1="715" x2="1643.2" y2="715"/>
	</g>
	<g id="LINE_271_">
		<line class="st0" x1="1600.7" y1="715" x2="1571.2" y2="715"/>
	</g>
	<g id="LINE_270_">
		<line class="st0" x1="1676" y1="664.3" x2="1676" y2="715"/>
	</g>
	<g id="LINE_269_">
		<line class="st0" x1="1676" y1="499" x2="1676" y2="549.8"/>
	</g>
	<g id="LINE_268_">
		<line class="st0" x1="1676" y1="592.3" x2="1676" y2="621.8"/>
	</g>
	<g id="LINE_267_">
		<line class="st0" x1="1643.3" y1="499" x2="1676" y2="499"/>
	</g>
	<g id="LINE_266_">
		<line class="st0" x1="1496" y1="499" x2="1528.8" y2="499"/>
	</g>
	<g id="LINE_265_">
		<line class="st0" x1="1571.3" y1="499" x2="1600.8" y2="499"/>
	</g>
	<g id="LINE_264_">
		<line class="st0" x1="1528.7" y1="715" x2="1528.7" y2="706.5"/>
	</g>
	<g id="LINE_263_">
		<line class="st0" x1="1600.7" y1="715" x2="1600.7" y2="706.5"/>
	</g>
	<g id="LINE_262_">
		<line class="st0" x1="1643.2" y1="715" x2="1643.2" y2="706.5"/>
	</g>
	<g id="LINE_261_">
		<line class="st0" x1="1643.3" y1="499" x2="1643.3" y2="507.5"/>
	</g>
	<g id="LINE_260_">
		<line class="st0" x1="1600.8" y1="499" x2="1600.8" y2="507.5"/>
	</g>
	<g id="LINE_259_">
		<line class="st0" x1="1571.3" y1="499" x2="1571.3" y2="507.5"/>
	</g>
	<g id="LINE_258_">
		<line class="st0" x1="1528.8" y1="499" x2="1528.8" y2="507.5"/>
	</g>
	<g id="LINE_257_">
		<line class="st0" x1="1528.8" y1="507.5" x2="1571.3" y2="507.5"/>
	</g>
	<g id="LINE_256_">
		<line class="st0" x1="1600.8" y1="507.5" x2="1643.3" y2="507.5"/>
	</g>
	<g id="LINE_255_">
		<line class="st0" x1="1571.2" y1="715" x2="1571.2" y2="706.5"/>
	</g>
	<g id="LINE_254_">
		<line class="st0" x1="1571.2" y1="706.5" x2="1528.7" y2="706.5"/>
	</g>
	<g id="LINE_253_">
		<line class="st0" x1="1600.7" y1="706.5" x2="1643.2" y2="706.5"/>
	</g>
</g>
<g>
	<g id="CIRCLE">
		<path class="st1" d="M969.4,725.2c0,7.8,6.3,14.2,14.2,14.2c7.8,0,14.2-6.3,14.2-14.2c0-7.8-6.3-14.2-14.2-14.2
			C975.8,711,969.4,717.4,969.4,725.2L969.4,725.2z"/>
	</g>
	<g id="CIRCLE_1_">
		<path class="st1" d="M927.8,725.2c0,7.8,6.3,14.2,14.2,14.2s14.2-6.3,14.2-14.2c0-7.8-6.3-14.2-14.2-14.2S927.8,717.4,927.8,725.2
			L927.8,725.2z"/>
	</g>
	<g id="CIRCLE_2_">
		<path class="st1" d="M1011,725.2c0,7.8,6.3,14.2,14.2,14.2c7.8,0,14.2-6.3,14.2-14.2c0-7.8-6.3-14.2-14.2-14.2
			C1017.4,711,1011,717.4,1011,725.2L1011,725.2z"/>
	</g>
	<g id="CIRCLE_3_">
		<path class="st1" d="M1094.2,684.4c0,7.8,6.3,14.2,14.2,14.2s14.2-6.3,14.2-14.2c0-7.8-6.3-14.2-14.2-14.2
			S1094.2,676.6,1094.2,684.4L1094.2,684.4z"/>
	</g>
	<g id="CIRCLE_4_">
		<path class="st1" d="M1052.6,643.6c0,7.8,6.3,14.2,14.2,14.2c7.8,0,14.2-6.3,14.2-14.2s-6.3-14.2-14.2-14.2
			C1059,629.4,1052.6,635.8,1052.6,643.6L1052.6,643.6z"/>
	</g>
	<g id="CIRCLE_5_">
		<path class="st1" d="M1011,684.4c0,7.8,6.3,14.2,14.2,14.2c7.8,0,14.2-6.3,14.2-14.2c0-7.8-6.3-14.2-14.2-14.2
			C1017.4,670.2,1011,676.6,1011,684.4L1011,684.4z"/>
	</g>
	<g id="CIRCLE_6_">
		<path class="st1" d="M1052.6,725.2c0,7.8,6.3,14.2,14.2,14.2c7.8,0,14.2-6.3,14.2-14.2c0-7.8-6.3-14.2-14.2-14.2
			C1059,711,1052.6,717.4,1052.6,725.2L1052.6,725.2z"/>
	</g>
	<g id="CIRCLE_7_">
		<path class="st1" d="M1094.2,643.6c0,7.8,6.3,14.2,14.2,14.2s14.2-6.3,14.2-14.2s-6.3-14.2-14.2-14.2S1094.2,635.8,1094.2,643.6
			L1094.2,643.6z"/>
	</g>
	<g id="CIRCLE_8_">
		<path class="st1" d="M1182.6,611.5c0,11,8.9,19.8,19.8,19.8s19.8-8.9,19.8-19.8c0-11-8.9-19.8-19.8-19.8
			S1182.6,600.5,1182.6,611.5L1182.6,611.5z"/>
	</g>
	<g id="CIRCLE_9_">
		<path class="st1" d="M1182.6,716.5c0,11,8.9,19.8,19.8,19.8s19.8-8.9,19.8-19.8c0-11-8.9-19.8-19.8-19.8
			S1182.6,705.6,1182.6,716.5L1182.6,716.5z"/>
	</g>
	<g id="CIRCLE_10_">
		<path class="st1" d="M886.2,684.4c0,7.8,6.3,14.2,14.2,14.2c7.8,0,14.2-6.3,14.2-14.2c0-7.8-6.3-14.2-14.2-14.2
			C892.6,670.2,886.2,676.6,886.2,684.4L886.2,684.4z"/>
	</g>
	<g id="CIRCLE_11_">
		<path class="st1" d="M969.4,602.8c0,7.8,6.3,14.2,14.2,14.2c7.8,0,14.2-6.3,14.2-14.2c0-7.8-6.3-14.2-14.2-14.2
			C975.8,588.6,969.4,595,969.4,602.8L969.4,602.8z"/>
	</g>
	<g id="CIRCLE_12_">
		<path class="st1" d="M886.2,643.6c0,7.8,6.3,14.2,14.2,14.2c7.8,0,14.2-6.3,14.2-14.2s-6.3-14.2-14.2-14.2
			C892.6,629.4,886.2,635.8,886.2,643.6L886.2,643.6z"/>
	</g>
	<g id="CIRCLE_13_">
		<path class="st1" d="M844.6,643.6c0,7.8,6.3,14.2,14.2,14.2c7.8,0,14.2-6.3,14.2-14.2s-6.3-14.2-14.2-14.2
			C851,629.4,844.6,635.8,844.6,643.6L844.6,643.6z"/>
	</g>
	<g id="CIRCLE_14_">
		<path class="st1" d="M886.2,725.2c0,7.8,6.3,14.2,14.2,14.2c7.8,0,14.2-6.3,14.2-14.2c0-7.8-6.3-14.2-14.2-14.2
			C892.6,711,886.2,717.4,886.2,725.2L886.2,725.2z"/>
	</g>
	<g id="CIRCLE_15_">
		<path class="st1" d="M886.2,602.8c0,7.8,6.3,14.2,14.2,14.2c7.8,0,14.2-6.3,14.2-14.2c0-7.8-6.3-14.2-14.2-14.2
			C892.6,588.6,886.2,595,886.2,602.8L886.2,602.8z"/>
	</g>
	<g id="CIRCLE_16_">
		<path class="st1" d="M1094.2,725.2c0,7.8,6.3,14.2,14.2,14.2s14.2-6.3,14.2-14.2c0-7.8-6.3-14.2-14.2-14.2
			S1094.2,717.4,1094.2,725.2L1094.2,725.2z"/>
	</g>
	<g id="CIRCLE_17_">
		<path class="st1" d="M1011,602.8c0,7.8,6.3,14.2,14.2,14.2c7.8,0,14.2-6.3,14.2-14.2c0-7.8-6.3-14.2-14.2-14.2
			C1017.4,588.6,1011,595,1011,602.8L1011,602.8z"/>
	</g>
	<g id="CIRCLE_18_">
		<path class="st1" d="M969.4,643.6c0,7.8,6.3,14.2,14.2,14.2c7.8,0,14.2-6.3,14.2-14.2s-6.3-14.2-14.2-14.2
			C975.8,629.4,969.4,635.8,969.4,643.6L969.4,643.6z"/>
	</g>
	<g id="CIRCLE_19_">
		<path class="st1" d="M844.6,684.4c0,7.8,6.3,14.2,14.2,14.2c7.8,0,14.2-6.3,14.2-14.2c0-7.8-6.3-14.2-14.2-14.2
			C851,670.2,844.6,676.6,844.6,684.4L844.6,684.4z"/>
	</g>
	<g id="CIRCLE_20_">
		<path class="st1" d="M844.6,725.2c0,7.8,6.3,14.2,14.2,14.2c7.8,0,14.2-6.3,14.2-14.2c0-7.8-6.3-14.2-14.2-14.2
			C851,711,844.6,717.4,844.6,725.2L844.6,725.2z"/>
	</g>
	<g id="CIRCLE_21_">
		<path class="st1" d="M1052.6,602.8c0,7.8,6.3,14.2,14.2,14.2c7.8,0,14.2-6.3,14.2-14.2c0-7.8-6.3-14.2-14.2-14.2
			C1059,588.6,1052.6,595,1052.6,602.8L1052.6,602.8z"/>
	</g>
	<g id="CIRCLE_22_">
		<path class="st1" d="M1094.2,602.8c0,7.8,6.3,14.2,14.2,14.2s14.2-6.3,14.2-14.2c0-7.8-6.3-14.2-14.2-14.2
			S1094.2,595,1094.2,602.8L1094.2,602.8z"/>
	</g>
	<g id="CIRCLE_23_">
		<path class="st1" d="M844.6,602.8c0,7.8,6.3,14.2,14.2,14.2c7.8,0,14.2-6.3,14.2-14.2c0-7.8-6.3-14.2-14.2-14.2
			C851,588.6,844.6,595,844.6,602.8L844.6,602.8z"/>
	</g>
	<g id="CIRCLE_24_">
		<path class="st1" d="M927.8,643.6c0,7.8,6.3,14.2,14.2,14.2s14.2-6.3,14.2-14.2s-6.3-14.2-14.2-14.2S927.8,635.8,927.8,643.6
			L927.8,643.6z"/>
	</g>
	<g id="CIRCLE_25_">
		<path class="st1" d="M927.8,602.8c0,7.8,6.3,14.2,14.2,14.2s14.2-6.3,14.2-14.2c0-7.8-6.3-14.2-14.2-14.2S927.8,595,927.8,602.8
			L927.8,602.8z"/>
	</g>
	<g id="CIRCLE_26_">
		<path class="st1" d="M1052.6,684.4c0,7.8,6.3,14.2,14.2,14.2c7.8,0,14.2-6.3,14.2-14.2c0-7.8-6.3-14.2-14.2-14.2
			C1059,670.2,1052.6,676.6,1052.6,684.4L1052.6,684.4z"/>
	</g>
	<g id="LINE_357_">
		<line class="st0" x1="943.7" y1="574" x2="943.7" y2="565.5"/>
	</g>
	<g id="LINE_356_">
		<line class="st0" x1="986.3" y1="565.5" x2="986.3" y2="574"/>
	</g>
	<g id="LINE_355_">
		<line class="st0" x1="821.5" y1="678.7" x2="830" y2="678.7"/>
	</g>
	<g id="LINE_354_">
		<line class="st0" x1="943.7" y1="754" x2="943.7" y2="762.5"/>
	</g>
	<g id="LINE_353_">
		<line class="st0" x1="862.7" y1="762.5" x2="862.7" y2="754"/>
	</g>
	<g id="LINE_352_">
		<line class="st0" x1="821.5" y1="721.2" x2="821.5" y2="678.7"/>
	</g>
	<g id="LINE_351_">
		<line class="st0" x1="862.7" y1="754" x2="830" y2="754"/>
	</g>
	<g id="LINE_350_">
		<line class="st0" x1="830" y1="721.2" x2="821.5" y2="721.2"/>
	</g>
	<g id="LINE_349_">
		<line class="st0" x1="862.7" y1="574" x2="862.7" y2="565.5"/>
	</g>
	<g id="LINE_348_">
		<line class="st0" x1="862.7" y1="762.5" x2="905.3" y2="762.5"/>
	</g>
	<g id="LINE_347_">
		<line class="st0" x1="830" y1="721.2" x2="821.5" y2="721.2"/>
	</g>
	<g id="LINE_346_">
		<line class="st0" x1="830" y1="754" x2="830" y2="721.2"/>
	</g>
	<g id="LINE_345_">
		<line class="st0" x1="821.5" y1="649.2" x2="821.5" y2="606.7"/>
	</g>
	<g id="LINE_344_">
		<line class="st0" x1="821.5" y1="606.7" x2="830" y2="606.7"/>
	</g>
	<g id="LINE_343_">
		<line class="st0" x1="986.3" y1="762.5" x2="943.7" y2="762.5"/>
	</g>
	<g id="LINE_342_">
		<line class="st0" x1="986.3" y1="754" x2="986.3" y2="762.5"/>
	</g>
	<g id="LINE_341_">
		<line class="st0" x1="905.3" y1="565.5" x2="905.3" y2="574"/>
	</g>
	<g id="LINE_340_">
		<line class="st0" x1="862.7" y1="565.5" x2="905.3" y2="565.5"/>
	</g>
	<g id="LINE_339_">
		<line class="st0" x1="943.7" y1="565.5" x2="986.3" y2="565.5"/>
	</g>
	<g id="LINE_338_">
		<line class="st0" x1="905.3" y1="754" x2="905.3" y2="762.5"/>
	</g>
	<g id="LINE_337_">
		<line class="st0" x1="830" y1="678.7" x2="830" y2="649.2"/>
	</g>
	<g id="LINE_336_">
		<line class="st0" x1="830" y1="649.2" x2="821.5" y2="649.2"/>
	</g>
	<g id="LINE_335_">
		<line class="st0" x1="1067.3" y1="762.5" x2="1067.3" y2="754"/>
	</g>
	<g id="LINE_334_">
		<line class="st0" x1="1024.7" y1="754" x2="986.3" y2="754"/>
	</g>
	<g id="LINE_333_">
		<line class="st0" x1="1024.7" y1="762.5" x2="1067.3" y2="762.5"/>
	</g>
	<g id="LINE_332_">
		<line class="st0" x1="1105.7" y1="754" x2="1067.3" y2="754"/>
	</g>
	<g id="LINE_331_">
		<line class="st0" x1="1024.7" y1="754" x2="1024.7" y2="762.5"/>
	</g>
	<g id="LINE_330_">
		<line class="st0" x1="830" y1="574" x2="862.7" y2="574"/>
	</g>
	<g id="LINE_329_">
		<line class="st0" x1="943.7" y1="754" x2="905.3" y2="754"/>
	</g>
	<g id="LINE_328_">
		<line class="st0" x1="1186.7" y1="762.5" x2="1186.7" y2="754"/>
	</g>
	<g id="LINE_327_">
		<line class="st0" x1="1270.5" y1="606.7" x2="1262" y2="606.7"/>
	</g>
	<g id="LINE_326_">
		<line class="st0" x1="1186.7" y1="754" x2="1148.3" y2="754"/>
	</g>
	<g id="LINE_325_">
		<line class="st0" x1="1270.5" y1="721.2" x2="1270.5" y2="678.7"/>
	</g>
	<g id="LINE_324_">
		<line class="st0" x1="1270.5" y1="649.2" x2="1262" y2="649.2"/>
	</g>
	<g id="LINE_323_">
		<line class="st0" x1="905.3" y1="574" x2="943.7" y2="574"/>
	</g>
	<g id="LINE_322_">
		<line class="st0" x1="1105.7" y1="754" x2="1105.7" y2="762.5"/>
	</g>
	<g id="LINE_321_">
		<line class="st0" x1="1229.3" y1="565.5" x2="1229.3" y2="574"/>
	</g>
	<g id="LINE_320_">
		<line class="st0" x1="1186.7" y1="762.5" x2="1229.3" y2="762.5"/>
	</g>
	<g id="LINE_319_">
		<line class="st0" x1="1262" y1="649.2" x2="1262" y2="678.7"/>
	</g>
	<g id="LINE_318_">
		<line class="st0" x1="1270.5" y1="649.2" x2="1270.5" y2="606.7"/>
	</g>
	<g id="LINE_317_">
		<line class="st0" x1="1024.7" y1="565.5" x2="1067.3" y2="565.5"/>
	</g>
	<g id="LINE_316_">
		<line class="st0" x1="986.3" y1="574" x2="1024.7" y2="574"/>
	</g>
	<g id="LINE_315_">
		<line class="st0" x1="1067.3" y1="574" x2="1105.7" y2="574"/>
	</g>
	<g id="LINE_314_">
		<line class="st0" x1="830" y1="606.7" x2="830" y2="574"/>
	</g>
	<g id="LINE_313_">
		<line class="st0" x1="1229.3" y1="762.5" x2="1229.3" y2="754"/>
	</g>
	<g id="LINE_312_">
		<line class="st0" x1="1262" y1="721.2" x2="1262" y2="754"/>
	</g>
	<g id="LINE_311_">
		<line class="st0" x1="1270.5" y1="678.7" x2="1262" y2="678.7"/>
	</g>
	<g id="LINE_310_">
		<line class="st0" x1="1067.3" y1="565.5" x2="1067.3" y2="574"/>
	</g>
	<g id="LINE_309_">
		<line class="st0" x1="1262" y1="754" x2="1229.3" y2="754"/>
	</g>
	<g id="LINE_308_">
		<line class="st0" x1="1148.3" y1="762.5" x2="1148.3" y2="754"/>
	</g>
	<g id="LINE_307_">
		<line class="st0" x1="1105.7" y1="565.5" x2="1148.3" y2="565.5"/>
	</g>
	<g id="LINE_306_">
		<line class="st0" x1="1105.7" y1="762.5" x2="1148.3" y2="762.5"/>
	</g>
	<g id="LINE_305_">
		<line class="st0" x1="1148.3" y1="565.5" x2="1148.3" y2="574"/>
	</g>
	<g id="LINE_304_">
		<line class="st0" x1="1024.7" y1="574" x2="1024.7" y2="565.5"/>
	</g>
	<g id="LINE_303_">
		<line class="st0" x1="1105.7" y1="574" x2="1105.7" y2="565.5"/>
	</g>
	<g id="LINE_302_">
		<line class="st0" x1="1229.3" y1="574" x2="1262" y2="574"/>
	</g>
	<g id="LINE_301_">
		<line class="st0" x1="1186.7" y1="565.5" x2="1229.3" y2="565.5"/>
	</g>
	<g id="LINE_300_">
		<line class="st0" x1="1262" y1="574" x2="1262" y2="606.7"/>
	</g>
	<g id="LINE_299_">
		<line class="st0" x1="1148.3" y1="574" x2="1186.7" y2="574"/>
	</g>
	<g id="LINE_298_">
		<line class="st0" x1="1186.7" y1="574" x2="1186.7" y2="565.5"/>
	</g>
	<g id="LINE_297_">
		<line class="st0" x1="1262" y1="721.2" x2="1270.5" y2="721.2"/>
	</g>
	<g id="CIRCLE_27_">
		<path class="st1" d="M927.8,684.4c0,7.8,6.3,14.2,14.2,14.2s14.2-6.3,14.2-14.2c0-7.8-6.3-14.2-14.2-14.2S927.8,676.6,927.8,684.4
			L927.8,684.4z"/>
	</g>
	<g id="CIRCLE_28_">
		<path class="st1" d="M1011,643.6c0,7.8,6.3,14.2,14.2,14.2c7.8,0,14.2-6.3,14.2-14.2s-6.3-14.2-14.2-14.2
			C1017.4,629.4,1011,635.8,1011,643.6L1011,643.6z"/>
	</g>
	<g id="CIRCLE_29_">
		<path class="st1" d="M969.4,684.4c0,7.8,6.3,14.2,14.2,14.2c7.8,0,14.2-6.3,14.2-14.2c0-7.8-6.3-14.2-14.2-14.2
			C975.8,670.2,969.4,676.6,969.4,684.4L969.4,684.4z"/>
	</g>
	<g id="LWPOLYLINE_4_">
		<path class="st1" d="M1240.4,600.2c-3.9,0-7.1,3.2-7.1,7.1V664v56.7c0,3.9,3.2,7.1,7.1,7.1s7.1-3.2,7.1-7.1V664v-56.7
			C1247.5,603.4,1244.3,600.2,1240.4,600.2z"/>
	</g>
	<g id="CIRCLE_30_">
		<path class="st1" d="M1182.6,664c0,11,8.9,19.8,19.8,19.8s19.8-8.9,19.8-19.8c0-11-8.9-19.8-19.8-19.8S1182.6,653,1182.6,664
			L1182.6,664z"/>
	</g>
	<g id="CIRCLE_31_">
		<path class="st1" d="M1132.2,611.5c0,11,8.9,19.8,19.8,19.8s19.8-8.9,19.8-19.8c0-11-8.9-19.8-19.8-19.8
			S1132.2,600.5,1132.2,611.5L1132.2,611.5z"/>
	</g>
	<g id="CIRCLE_32_">
		<path class="st1" d="M1132.2,664c0,11,8.9,19.8,19.8,19.8s19.8-8.9,19.8-19.8c0-11-8.9-19.8-19.8-19.8S1132.2,653,1132.2,664
			L1132.2,664z"/>
	</g>
	<g id="CIRCLE_33_">
		<path class="st1" d="M1132.2,716.5c0,11,8.9,19.8,19.8,19.8s19.8-8.9,19.8-19.8c0-11-8.9-19.8-19.8-19.8
			S1132.2,705.6,1132.2,716.5L1132.2,716.5z"/>
	</g>
</g>
</svg>
