<?xml version="1.0" encoding="utf-8"?>
<!-- Generator: Adobe Illustrator 24.3.0, SVG Export Plug-In . SVG Version: 6.00 Build 0)  -->
<svg version="1.1" id="Õ_xBA__x2264__x201E__1" xmlns="http://www.w3.org/2000/svg" xmlns:xlink="http://www.w3.org/1999/xlink"
	 x="0px" y="0px" viewBox="0 0 841.9 595.3" style="enable-background:new 0 0 841.9 595.3;" xml:space="preserve">
<style type="text/css">
	.st0{fill-rule:evenodd;clip-rule:evenodd;fill:none;stroke:#363639;stroke-width:0.5;stroke-miterlimit:10;}
</style>
<polygon class="st0" points="3357,-509.1 3328.6,-509.1 3328.6,-473.7 3321.5,-473.7 3321.5,-509.1 3295.8,-509.1 3203.8,-466.6 
	3048.7,-466.6 2935.5,-509.1 2876.5,-509.1 2773.9,-466.6 2618.7,-466.6 2516.1,-509.1 2457.1,-509.1 2354.5,-466.6 2199.3,-466.6 
	2096.7,-509.1 2037.7,-509.1 1935.1,-466.6 1779.9,-466.6 1677.3,-509.1 1618.3,-509.1 1515.7,-466.6 1360.5,-466.6 1257.9,-509.1 
	1198.9,-509.1 1096.2,-466.6 941.1,-466.6 838.6,-509.1 812.9,-509.1 812.9,-473.7 805.8,-473.7 805.8,-509.1 777.4,-509.1 
	777.4,-438.3 1224.8,-438.3 1224.8,-473.7 1231.9,-473.7 1231.9,-438.3 1644.2,-438.3 1644.2,-473.7 1651.3,-473.7 1651.3,-438.3 
	2063.6,-438.3 2063.6,-473.7 2070.7,-473.7 2070.7,-438.3 2483.1,-438.3 2483.1,-473.7 2490.1,-473.7 2490.1,-438.3 2902.5,-438.3 
	2902.5,-473.7 2909.6,-473.7 2909.6,-438.3 3357,-438.3 "/>
<polygon class="st0" points="3357.8,-515.4 3357.8,-586.3 2910.4,-586.3 2910.4,-550.8 2903.3,-550.8 2903.3,-586.3 2491,-586.3 
	2491,-550.8 2483.9,-550.8 2483.9,-586.3 2071.6,-586.3 2071.6,-550.8 2064.5,-550.8 2064.5,-586.3 1652.2,-586.3 1652.2,-550.8 
	1645.1,-550.8 1645.1,-586.3 1232.8,-586.3 1232.8,-550.8 1225.7,-550.8 1225.7,-586.3 778.3,-586.3 778.3,-515.4 806.6,-515.4 
	806.6,-550.8 813.7,-550.8 813.7,-515.4 839.4,-515.4 931.4,-557.9 1086.6,-557.9 1199.7,-515.4 1258.7,-515.4 1361.3,-557.9 
	1516.5,-557.9 1619.1,-515.4 1678.1,-515.4 1780.8,-557.9 1935.9,-557.9 2038.5,-515.4 2097.5,-515.4 2200.2,-557.9 2355.3,-557.9 
	2457.9,-515.4 2516.9,-515.4 2619.6,-557.9 2774.7,-557.9 2877.3,-515.4 2936.4,-515.4 3039,-557.9 3194.1,-557.9 3296.7,-515.4 
	3322.4,-515.4 3322.4,-550.8 3329.5,-550.8 3329.5,-515.4 "/>
<rect x="1827.8" y="-523.8" class="st0" width="70.9" height="25.5"/>
<polygon class="st0" points="1842,-552.2 1842,-546.5 1792.4,-546.5 1792.4,-539.4 1786.7,-539.4 1786.7,-482.7 1792.4,-482.7 
	1792.4,-475.7 1800.9,-475.7 1800.9,-511.1 1808,-511.1 1808,-475.7 1918.6,-475.7 1918.6,-511.1 1925.6,-511.1 1925.6,-475.7 
	1934.1,-475.7 1934.1,-546.5 1884.5,-546.5 1884.5,-552.2 "/>
<rect x="1190.8" y="-406.3" class="st0" width="7.1" height="28.3"/>
<rect x="862.4" y="-328.4" class="st0" width="7.1" height="28.3"/>
<rect x="862.4" y="-402.1" class="st0" width="7.1" height="28.3"/>
<rect x="817" y="-418.1" class="st0" width="22.7" height="7.1"/>
<rect x="851" y="-418.1" class="st0" width="22.7" height="7.1"/>
<rect x="1157.2" y="-390.8" class="st0" width="25.5" height="70.9"/>
<rect x="1190.8" y="-332.6" class="st0" width="7.1" height="28.3"/>
<path class="st0" d="M1134.5-285.2h7v7.1h56.7v-7.1h7.2v-140.3H796.5v21.8h25.2l-32.8,118.5h12.5v7.1H858v-7.1h38.1
	c-8.1-14.9-13.4-31.1-15.6-48c-1.9-14.4-1.5-28.9,1.2-43.1c2.7-14.3,7.5-27.9,14.4-40.7h273.8v7.1h-35.4v31.2h-5.7v43.9h5.7v34h35.4
	v7.1h-35.4V-285.2z"/>
<circle class="st0" cx="806.7" cy="-295.9" r="3.5"/>
<circle class="st0" cx="806.7" cy="-414.6" r="3.5"/>
<rect x="1295.3" y="-290.5" class="st0" width="7.1" height="28.3"/>
<rect x="966.9" y="-368.5" class="st0" width="7.1" height="28.3"/>
<rect x="966.9" y="-294.8" class="st0" width="7.1" height="28.3"/>
<rect x="921.5" y="-257.5" class="st0" width="22.7" height="7.1"/>
<rect x="955.5" y="-257.5" class="st0" width="22.7" height="7.1"/>
<rect x="1261.7" y="-348.6" class="st0" width="25.5" height="70.9"/>
<rect x="1295.3" y="-364.2" class="st0" width="7.1" height="28.3"/>
<path class="st0" d="M1239-383.4h7v-7.1h56.7v7.1h7.2V-243H900.9v-21.8h25.2l-32.8-118.5h12.5v-7.1h56.7v7.1h38.1
	c-8.1,14.9-13.4,31.1-15.6,48c-1.9,14.4-1.5,28.9,1.2,43.1c2.7,14.3,7.5,27.9,14.4,40.7h273.8v-7.1H1239v-31.2h-5.7v-43.9h5.7v-34
	h35.4v-7.1H1239V-383.4z"/>
<circle class="st0" cx="911.2" cy="-372.6" r="3.5"/>
<circle class="st0" cx="911.2" cy="-254" r="3.5"/>
<rect x="1828.7" y="-404.5" class="st0" width="7.1" height="28.3"/>
<rect x="1500.2" y="-326.5" class="st0" width="7.1" height="28.3"/>
<rect x="1500.2" y="-400.2" class="st0" width="7.1" height="28.3"/>
<rect x="1454.9" y="-416.3" class="st0" width="22.7" height="7.1"/>
<rect x="1488.9" y="-416.3" class="st0" width="22.7" height="7.1"/>
<rect x="1795" y="-388.9" class="st0" width="25.5" height="70.9"/>
<rect x="1828.7" y="-330.8" class="st0" width="7.1" height="28.3"/>
<path class="st0" d="M1772.4-283.3h7v7.1h56.7v-7.1h7.2v-140.3h-408.9v21.8h25.2l-32.8,118.5h12.5v7.1h56.7v-7.1h38.1
	c-8.1-14.9-13.4-31.1-15.6-48c-1.9-14.4-1.5-28.9,1.2-43.1c2.7-14.3,7.5-27.9,14.4-40.7h273.8v7.1h-35.4v31.2h-5.7v43.9h5.7v34h35.4
	v7.1h-35.4V-283.3z"/>
<path class="st0" d="M1444.6-290.5c-2,0-3.5-1.6-3.5-3.5s1.6-3.5,3.5-3.5c2,0,3.5,1.6,3.5,3.5S1446.6-290.5,1444.6-290.5z"/>
<path class="st0" d="M1444.6-409.2c-2,0-3.5-1.6-3.5-3.5c0-2,1.6-3.5,3.5-3.5c2,0,3.5,1.6,3.5,3.5
	C1448.1-410.8,1446.6-409.2,1444.6-409.2z"/>
<rect x="1927.3" y="-289.3" class="st0" width="7.1" height="28.3"/>
<rect x="1598.8" y="-367.2" class="st0" width="7.1" height="28.3"/>
<rect x="1598.8" y="-293.5" class="st0" width="7.1" height="28.3"/>
<rect x="1553.5" y="-256.3" class="st0" width="22.7" height="7.1"/>
<rect x="1587.5" y="-256.3" class="st0" width="22.7" height="7.1"/>
<rect x="1893.6" y="-347.4" class="st0" width="25.5" height="70.9"/>
<rect x="1927.3" y="-363" class="st0" width="7.1" height="28.3"/>
<path class="st0" d="M1871-382.1h7v-7.1h56.7v7.1h7.2v140.3h-408.9v-21.8h25.2l-32.8-118.5h12.5v-7.1h56.7v7.1h38.1
	c-8.1,14.9-13.4,31.1-15.6,48c-1.9,14.4-1.5,28.9,1.2,43.1c2.7,14.3,7.5,27.9,14.4,40.7h273.8v-7.1H1871v-31.2h-5.7v-43.9h5.7v-34
	h35.4v-7.1H1871V-382.1z"/>
<circle class="st0" cx="1543.2" cy="-371.4" r="3.5"/>
<circle class="st0" cx="1543.2" cy="-252.7" r="3.5"/>
<polygon class="st0" points="1096.1,-340.1 1096.1,-345.8 1103.2,-345.8 1103.2,-368.5 1096.1,-368.5 1096.1,-379.8 1103.2,-379.8 
	1103.2,-402.5 1096.1,-402.5 1096.1,-408.2 1039.4,-408.2 1039.4,-402.5 1032.3,-402.5 1032.3,-379.8 1039.4,-379.8 1039.4,-368.5 
	1032.3,-368.5 1032.3,-345.8 1039.4,-345.8 1039.4,-340.1 "/>
<polygon class="st0" points="1743.2,-342.4 1743.2,-348.1 1750.3,-348.1 1750.3,-370.8 1743.2,-370.8 1743.2,-382.1 1750.3,-382.1 
	1750.3,-404.8 1743.2,-404.8 1743.2,-410.5 1686.5,-410.5 1686.5,-404.8 1679.4,-404.8 1679.4,-382.1 1686.5,-382.1 1686.5,-370.8 
	1679.4,-370.8 1679.4,-348.1 1686.5,-348.1 1686.5,-342.4 "/>
<polygon class="st0" points="1638.9,-270.5 1647.4,-270.5 1647.4,-263.5 1675.7,-263.5 1675.7,-270.5 1721.1,-270.5 1721.1,-263.5 
	1749.4,-263.5 1749.4,-270.5 1757.9,-270.5 1757.9,-327.2 1749.4,-327.2 1749.4,-334.3 1721.1,-334.3 1721.1,-327.2 1675.7,-327.2 
	1675.7,-334.3 1647.4,-334.3 1647.4,-327.2 1638.9,-327.2 "/>
<polygon class="st0" points="1002.2,-271.6 1010.7,-271.6 1010.7,-264.5 1039,-264.5 1039,-271.6 1084.4,-271.6 1084.4,-264.5 
	1112.7,-264.5 1112.7,-271.6 1121.2,-271.6 1121.2,-328.3 1112.7,-328.3 1112.7,-335.4 1084.4,-335.4 1084.4,-328.3 1039,-328.3 
	1039,-335.4 1010.7,-335.4 1010.7,-328.3 1002.2,-328.3 "/>
<polygon class="st0" points="1345.4,-423 1317,-423 1317,-352.1 1345.4,-352.1 1345.4,-359.2 1390.7,-359.2 1390.7,-352.1 
	1419.1,-352.1 1419.1,-423 1390.7,-423 1390.7,-415.9 1345.4,-415.9 "/>
<polygon class="st0" points="1344.9,-343.7 1316.6,-343.7 1316.6,-272.8 1344.9,-272.8 1344.9,-279.9 1390.3,-279.9 1390.3,-272.8 
	1418.6,-272.8 1418.6,-343.7 1390.3,-343.7 1390.3,-336.6 1344.9,-336.6 "/>
<polygon class="st0" points="1415.9,-549.7 1415.9,-544 1366.3,-544 1366.3,-536.9 1360.6,-536.9 1360.6,-480.2 1366.3,-480.2 
	1366.3,-473.1 1374.8,-473.1 1374.8,-508.6 1381.9,-508.6 1381.9,-473.1 1492.4,-473.1 1492.4,-508.6 1499.5,-508.6 1499.5,-473.1 
	1508,-473.1 1508,-544 1458.4,-544 1458.4,-549.7 "/>
<rect x="1401.7" y="-521.3" class="st0" width="70.9" height="25.5"/>
<polygon class="st0" points="982.1,-550.6 982.1,-545 932.5,-545 932.5,-537.9 926.8,-537.9 926.8,-481.2 932.5,-481.2 
	932.5,-474.1 941,-474.1 941,-509.5 948.1,-509.5 948.1,-474.1 1058.6,-474.1 1058.6,-509.5 1065.7,-509.5 1065.7,-474.1 
	1074.2,-474.1 1074.2,-545 1024.6,-545 1024.6,-550.6 "/>
<rect x="967.9" y="-522.3" class="st0" width="70.9" height="25.5"/>
<polygon class="st0" points="2259.8,-550.6 2259.8,-545 2210.2,-545 2210.2,-537.9 2204.6,-537.9 2204.6,-481.2 2210.2,-481.2 
	2210.2,-474.1 2218.7,-474.1 2218.7,-509.5 2225.8,-509.5 2225.8,-474.1 2336.4,-474.1 2336.4,-509.5 2343.5,-509.5 2343.5,-474.1 
	2352,-474.1 2352,-545 2302.4,-545 2302.4,-550.6 "/>
<rect x="2245.7" y="-522.3" class="st0" width="70.9" height="25.5"/>
<polygon class="st0" points="2670.6,-552.8 2670.6,-547.2 2620.9,-547.2 2620.9,-540.1 2615.3,-540.1 2615.3,-483.4 2620.9,-483.4 
	2620.9,-476.3 2629.5,-476.3 2629.5,-511.7 2636.5,-511.7 2636.5,-476.3 2747.1,-476.3 2747.1,-511.7 2754.2,-511.7 2754.2,-476.3 
	2762.7,-476.3 2762.7,-547.2 2713.1,-547.2 2713.1,-552.8 "/>
<rect x="2656.4" y="-524.5" class="st0" width="70.9" height="25.5"/>
<rect x="1960.5" y="-363.6" class="st0" width="56.7" height="7.1"/>
<rect x="2300.6" y="-363.6" class="st0" width="56.7" height="7.1"/>
<path class="st0" d="M2363-350.8c4.3-11.5,6.8-23.6,7.3-35.9c0.7-15.8-1.8-31.5-7.3-46.3h-412.3v82.2H2363L2363-350.8z"/>
<rect x="2300.6" y="-427.4" class="st0" width="56.7" height="7.1"/>
<rect x="1960.5" y="-427.4" class="st0" width="56.7" height="7.1"/>
<path class="st0" d="M1993.2-387.7c-2.3,0-4.3-1.9-4.3-4.3s1.9-4.3,4.3-4.3s4.3,1.9,4.3,4.3S1995.5-387.7,1993.2-387.7z"/>
<rect x="1960" y="-276.3" class="st0" width="56.7" height="7.1"/>
<rect x="2300.1" y="-276.3" class="st0" width="56.7" height="7.1"/>
<path class="st0" d="M2362.5-263.5c4.3-11.5,6.8-23.6,7.3-35.9c0.7-15.8-1.8-31.5-7.3-46.3h-412.3v82.2H2362.5L2362.5-263.5z"/>
<rect x="2300.1" y="-340" class="st0" width="56.7" height="7.1"/>
<rect x="1960" y="-340" class="st0" width="56.7" height="7.1"/>
<path class="st0" d="M1992.7-300.4c-2.3,0-4.3-1.9-4.3-4.3s1.9-4.3,4.3-4.3c2.3,0,4.3,1.9,4.3,4.3S1995-300.4,1992.7-300.4z"/>
</svg>
