<?xml version="1.0" encoding="utf-8"?>
<!-- Generator: Adobe Illustrator 24.3.0, SVG Export Plug-In . SVG Version: 6.00 Build 0)  -->
<svg version="1.1" id="Layer_1" xmlns="http://www.w3.org/2000/svg" xmlns:xlink="http://www.w3.org/1999/xlink" x="0px" y="0px"
	 viewBox="0 0 1431.4 623.6" style="enable-background:new 0 0 1431.4 623.6;" xml:space="preserve">
<style type="text/css">
	.st0{fill:none;stroke:#000000;stroke-miterlimit:10;}
	.st1{fill:none;stroke:#1D1D1B;stroke-miterlimit:10;}
</style>
<line class="st0" x1="418" y1="585.1" x2="418" y2="528.4"/>
<line class="st0" x1="409.5" y1="528.4" x2="418" y2="528.4"/>
<line class="st0" x1="409.5" y1="528.4" x2="409.5" y2="471.7"/>
<line class="st0" x1="409.5" y1="471.7" x2="418" y2="471.7"/>
<line class="st0" x1="418" y1="471.7" x2="418" y2="415"/>
<line class="st0" x1="409.5" y1="415" x2="418" y2="415"/>
<line class="st0" x1="409.5" y1="415" x2="409.5" y2="358.3"/>
<line class="st0" x1="409.5" y1="358.3" x2="418" y2="358.3"/>
<line class="st0" x1="418" y1="358.3" x2="418" y2="310.1"/>
<line class="st0" x1="21.1" y1="585.1" x2="21.1" y2="528.4"/>
<line class="st0" x1="21.1" y1="528.4" x2="29.6" y2="528.4"/>
<line class="st0" x1="29.6" y1="528.4" x2="29.6" y2="471.7"/>
<line class="st0" x1="21.1" y1="471.7" x2="29.6" y2="471.7"/>
<line class="st0" x1="21.1" y1="471.7" x2="21.1" y2="415"/>
<line class="st0" x1="21.1" y1="415" x2="29.6" y2="415"/>
<line class="st0" x1="29.6" y1="415" x2="29.6" y2="358.3"/>
<line class="st0" x1="21.1" y1="358.3" x2="29.6" y2="358.3"/>
<line class="st0" x1="21.1" y1="358.3" x2="21.1" y2="310.1"/>
<line class="st0" x1="418" y1="585.1" x2="361.3" y2="585.1"/>
<line class="st0" x1="361.3" y1="576.6" x2="361.3" y2="585.1"/>
<line class="st0" x1="361.3" y1="576.6" x2="304.6" y2="576.6"/>
<line class="st0" x1="304.6" y1="576.6" x2="304.6" y2="585.1"/>
<line class="st0" x1="304.6" y1="585.1" x2="247.9" y2="585.1"/>
<line class="st0" x1="247.9" y1="576.6" x2="247.9" y2="585.1"/>
<line class="st0" x1="247.9" y1="576.6" x2="191.2" y2="576.6"/>
<line class="st0" x1="191.2" y1="576.6" x2="191.2" y2="585.1"/>
<line class="st0" x1="191.2" y1="585.1" x2="134.5" y2="585.1"/>
<line class="st0" x1="134.5" y1="576.6" x2="134.5" y2="585.1"/>
<line class="st0" x1="134.5" y1="576.6" x2="77.8" y2="576.6"/>
<line class="st0" x1="77.8" y1="576.6" x2="77.8" y2="585.1"/>
<line class="st0" x1="77.8" y1="585.1" x2="21.1" y2="585.1"/>
<line class="st0" x1="418" y1="310.1" x2="361.3" y2="310.1"/>
<line class="st0" x1="361.3" y1="301.6" x2="361.3" y2="310.1"/>
<line class="st0" x1="361.3" y1="301.6" x2="304.6" y2="301.6"/>
<line class="st0" x1="304.6" y1="301.6" x2="304.6" y2="310.1"/>
<line class="st0" x1="304.6" y1="310.1" x2="247.9" y2="310.1"/>
<line class="st0" x1="247.9" y1="301.6" x2="247.9" y2="310.1"/>
<line class="st0" x1="247.9" y1="301.6" x2="191.2" y2="301.6"/>
<line class="st0" x1="191.2" y1="301.6" x2="191.2" y2="310.1"/>
<line class="st0" x1="191.2" y1="310.1" x2="134.5" y2="310.1"/>
<line class="st0" x1="134.5" y1="301.6" x2="134.5" y2="310.1"/>
<line class="st0" x1="134.5" y1="301.6" x2="77.8" y2="301.6"/>
<line class="st0" x1="77.8" y1="301.6" x2="77.8" y2="310.1"/>
<line class="st0" x1="77.8" y1="310.1" x2="21.1" y2="310.1"/>
<path class="st1" d="M382.8,569.4"/>
<line class="st0" x1="826.4" y1="587.2" x2="826.4" y2="530.5"/>
<line class="st0" x1="817.9" y1="530.5" x2="826.4" y2="530.5"/>
<line class="st0" x1="817.9" y1="530.5" x2="817.9" y2="473.8"/>
<line class="st0" x1="817.9" y1="473.8" x2="826.4" y2="473.8"/>
<line class="st0" x1="826.4" y1="473.8" x2="826.4" y2="417.1"/>
<line class="st0" x1="817.9" y1="417.1" x2="826.4" y2="417.1"/>
<line class="st0" x1="817.9" y1="417.1" x2="817.9" y2="360.4"/>
<line class="st0" x1="817.9" y1="360.4" x2="826.4" y2="360.4"/>
<line class="st0" x1="826.4" y1="360.4" x2="826.4" y2="312.2"/>
<line class="st0" x1="429.6" y1="587.2" x2="429.6" y2="530.5"/>
<line class="st0" x1="429.6" y1="530.5" x2="438.1" y2="530.5"/>
<line class="st0" x1="438.1" y1="530.5" x2="438.1" y2="473.8"/>
<line class="st0" x1="429.6" y1="473.8" x2="438.1" y2="473.8"/>
<line class="st0" x1="429.6" y1="473.8" x2="429.6" y2="417.1"/>
<line class="st0" x1="429.6" y1="417.1" x2="438.1" y2="417.1"/>
<line class="st0" x1="438.1" y1="417.1" x2="438.1" y2="360.4"/>
<line class="st0" x1="429.6" y1="360.4" x2="438.1" y2="360.4"/>
<line class="st0" x1="429.6" y1="360.4" x2="429.6" y2="312.2"/>
<line class="st0" x1="826.4" y1="587.2" x2="769.7" y2="587.2"/>
<line class="st0" x1="769.7" y1="578.7" x2="769.7" y2="587.2"/>
<line class="st0" x1="769.7" y1="578.7" x2="713" y2="578.7"/>
<line class="st0" x1="713" y1="578.7" x2="713" y2="587.2"/>
<line class="st0" x1="713" y1="587.2" x2="656.4" y2="587.2"/>
<line class="st0" x1="656.4" y1="578.7" x2="656.4" y2="587.2"/>
<line class="st0" x1="656.4" y1="578.7" x2="599.6" y2="578.7"/>
<line class="st0" x1="599.6" y1="578.7" x2="599.6" y2="587.2"/>
<line class="st0" x1="599.6" y1="587.2" x2="543" y2="587.2"/>
<line class="st0" x1="543" y1="578.7" x2="543" y2="587.2"/>
<line class="st0" x1="543" y1="578.7" x2="486.2" y2="578.7"/>
<line class="st0" x1="486.2" y1="578.7" x2="486.2" y2="587.2"/>
<line class="st0" x1="486.2" y1="587.2" x2="429.6" y2="587.2"/>
<line class="st0" x1="826.4" y1="312.2" x2="769.7" y2="312.2"/>
<line class="st0" x1="769.7" y1="303.7" x2="769.7" y2="312.2"/>
<line class="st0" x1="769.7" y1="303.7" x2="713" y2="303.7"/>
<line class="st0" x1="713" y1="303.7" x2="713" y2="312.2"/>
<line class="st0" x1="713" y1="312.2" x2="656.4" y2="312.2"/>
<line class="st0" x1="656.4" y1="303.7" x2="656.4" y2="312.2"/>
<line class="st0" x1="656.4" y1="303.7" x2="599.6" y2="303.7"/>
<line class="st0" x1="599.6" y1="303.7" x2="599.6" y2="312.2"/>
<line class="st0" x1="599.6" y1="312.2" x2="543" y2="312.2"/>
<line class="st0" x1="543" y1="303.7" x2="543" y2="312.2"/>
<line class="st0" x1="543" y1="303.7" x2="486.2" y2="303.7"/>
<line class="st0" x1="486.2" y1="303.7" x2="486.2" y2="312.2"/>
<line class="st0" x1="486.2" y1="312.2" x2="429.6" y2="312.2"/>
<line class="st0" x1="826.4" y1="292" x2="826.4" y2="235.3"/>
<line class="st0" x1="817.9" y1="235.3" x2="826.4" y2="235.3"/>
<line class="st0" x1="817.9" y1="235.3" x2="817.9" y2="178.7"/>
<line class="st0" x1="817.9" y1="178.7" x2="826.4" y2="178.7"/>
<line class="st0" x1="826.4" y1="178.7" x2="826.4" y2="121.9"/>
<line class="st0" x1="817.9" y1="121.9" x2="826.4" y2="121.9"/>
<line class="st0" x1="817.9" y1="121.9" x2="817.9" y2="65.3"/>
<line class="st0" x1="817.9" y1="65.3" x2="826.4" y2="65.3"/>
<line class="st0" x1="826.4" y1="65.3" x2="826.4" y2="17.1"/>
<line class="st0" x1="429.6" y1="292" x2="429.6" y2="235.3"/>
<line class="st0" x1="429.6" y1="235.3" x2="438.1" y2="235.3"/>
<line class="st0" x1="438.1" y1="235.3" x2="438.1" y2="178.7"/>
<line class="st0" x1="429.6" y1="178.7" x2="438.1" y2="178.7"/>
<line class="st0" x1="429.6" y1="178.7" x2="429.6" y2="121.9"/>
<line class="st0" x1="429.6" y1="121.9" x2="438.1" y2="121.9"/>
<line class="st0" x1="438.1" y1="121.9" x2="438.1" y2="65.3"/>
<line class="st0" x1="429.6" y1="65.3" x2="438.1" y2="65.3"/>
<line class="st0" x1="429.6" y1="65.3" x2="429.6" y2="17.1"/>
<line class="st0" x1="826.4" y1="292" x2="769.7" y2="292"/>
<line class="st0" x1="769.7" y1="283.5" x2="769.7" y2="292"/>
<line class="st0" x1="769.7" y1="283.5" x2="713" y2="283.5"/>
<line class="st0" x1="713" y1="283.5" x2="713" y2="292"/>
<line class="st0" x1="713" y1="292" x2="656.4" y2="292"/>
<line class="st0" x1="656.4" y1="283.5" x2="656.4" y2="292"/>
<line class="st0" x1="656.4" y1="283.5" x2="599.6" y2="283.5"/>
<line class="st0" x1="599.6" y1="283.5" x2="599.6" y2="292"/>
<line class="st0" x1="599.6" y1="292" x2="543" y2="292"/>
<line class="st0" x1="543" y1="283.5" x2="543" y2="292"/>
<line class="st0" x1="543" y1="283.5" x2="486.2" y2="283.5"/>
<line class="st0" x1="486.2" y1="283.5" x2="486.2" y2="292"/>
<line class="st0" x1="486.2" y1="292" x2="429.6" y2="292"/>
<line class="st0" x1="826.4" y1="17.1" x2="769.7" y2="17.1"/>
<line class="st0" x1="769.7" y1="8.6" x2="769.7" y2="17.1"/>
<line class="st0" x1="769.7" y1="8.6" x2="713" y2="8.6"/>
<line class="st0" x1="713" y1="8.6" x2="713" y2="17.1"/>
<line class="st0" x1="713" y1="17.1" x2="656.4" y2="17.1"/>
<line class="st0" x1="656.4" y1="8.6" x2="656.4" y2="17.1"/>
<line class="st0" x1="656.4" y1="8.6" x2="599.6" y2="8.6"/>
<line class="st0" x1="599.6" y1="8.6" x2="599.6" y2="17.1"/>
<line class="st0" x1="599.6" y1="17.1" x2="543" y2="17.1"/>
<line class="st0" x1="543" y1="8.6" x2="543" y2="17.1"/>
<line class="st0" x1="543" y1="8.6" x2="486.2" y2="8.6"/>
<line class="st0" x1="486.2" y1="8.6" x2="486.2" y2="17.1"/>
<line class="st0" x1="486.2" y1="17.1" x2="429.6" y2="17.1"/>
<path d="M1363.2,322.3c0.1,0,0.2,0.1,0.4,0.1C1363.4,322.3,1363.3,322.3,1363.2,322.3z"/>
<path d="M1367.3,318c0.1,0,0.3-0.1,0.4-0.2C1367.6,317.9,1367.4,317.9,1367.3,318z"/>
<polygon class="st0" points="1417.1,70.2 1417.1,126.9 1408.6,126.9 1408.6,183.6 1417.1,183.6 1417.1,240.3 1408.6,240.3 
	1408.6,288.5 1360.4,288.5 1360.4,297 1303.7,297 1303.7,288.5 1247,288.5 1247,297 1190.3,297 1190.3,288.5 1142.1,288.5 
	1142.1,240.3 1133.6,240.3 1133.6,183.6 1142.1,183.6 1142.1,126.9 1133.6,126.9 1133.6,70.2 1142.1,70.2 1142.1,22 1190.3,22 
	1190.3,13.5 1247,13.5 1247,22 1303.7,22 1303.7,13.5 1360.4,13.5 1360.4,22 1408.6,22 1408.6,70.2 "/>
<rect x="844.2" y="306.2" class="st0" width="266.5" height="266.5"/>
<ellipse transform="matrix(0.1602 -0.9871 0.9871 0.1602 387.0969 1333.9779)" class="st0" cx="977.5" cy="439.5" rx="56.7" ry="56.7"/>
<line class="st0" x1="419.3" y1="291.4" x2="419.3" y2="234.7"/>
<line class="st0" x1="410.8" y1="234.7" x2="419.3" y2="234.7"/>
<line class="st0" x1="410.8" y1="234.7" x2="410.8" y2="178"/>
<line class="st0" x1="410.8" y1="178" x2="419.3" y2="178"/>
<line class="st0" x1="419.3" y1="178" x2="419.3" y2="121.3"/>
<line class="st0" x1="410.8" y1="121.3" x2="419.3" y2="121.3"/>
<line class="st0" x1="410.8" y1="121.3" x2="410.8" y2="64.6"/>
<line class="st0" x1="410.8" y1="64.6" x2="419.3" y2="64.6"/>
<line class="st0" x1="419.3" y1="64.6" x2="419.3" y2="16.4"/>
<line class="st0" x1="22.5" y1="291.4" x2="22.5" y2="234.7"/>
<line class="st0" x1="22.5" y1="234.7" x2="31" y2="234.7"/>
<line class="st0" x1="31" y1="234.7" x2="31" y2="178"/>
<line class="st0" x1="22.5" y1="178" x2="31" y2="178"/>
<line class="st0" x1="22.5" y1="178" x2="22.5" y2="121.3"/>
<line class="st0" x1="22.5" y1="121.3" x2="31" y2="121.3"/>
<line class="st0" x1="31" y1="121.3" x2="31" y2="64.6"/>
<line class="st0" x1="22.5" y1="64.6" x2="31" y2="64.6"/>
<line class="st0" x1="22.5" y1="64.6" x2="22.5" y2="16.4"/>
<line class="st0" x1="419.3" y1="291.4" x2="362.7" y2="291.4"/>
<line class="st0" x1="362.7" y1="282.9" x2="362.7" y2="291.4"/>
<line class="st0" x1="362.7" y1="282.9" x2="305.9" y2="282.9"/>
<line class="st0" x1="305.9" y1="282.9" x2="305.9" y2="291.4"/>
<line class="st0" x1="305.9" y1="291.4" x2="249.3" y2="291.4"/>
<line class="st0" x1="249.3" y1="282.9" x2="249.3" y2="291.4"/>
<line class="st0" x1="249.3" y1="282.9" x2="192.6" y2="282.9"/>
<line class="st0" x1="192.6" y1="282.9" x2="192.6" y2="291.4"/>
<line class="st0" x1="192.6" y1="291.4" x2="135.9" y2="291.4"/>
<line class="st0" x1="135.9" y1="282.9" x2="135.9" y2="291.4"/>
<line class="st0" x1="135.9" y1="282.9" x2="79.2" y2="282.9"/>
<line class="st0" x1="79.2" y1="282.9" x2="79.2" y2="291.4"/>
<line class="st0" x1="79.2" y1="291.4" x2="22.5" y2="291.4"/>
<line class="st0" x1="419.3" y1="16.4" x2="362.7" y2="16.4"/>
<line class="st0" x1="362.7" y1="7.9" x2="362.7" y2="16.4"/>
<line class="st0" x1="362.7" y1="7.9" x2="305.9" y2="7.9"/>
<line class="st0" x1="305.9" y1="7.9" x2="305.9" y2="16.4"/>
<line class="st0" x1="305.9" y1="16.4" x2="249.3" y2="16.4"/>
<line class="st0" x1="249.3" y1="7.9" x2="249.3" y2="16.4"/>
<line class="st0" x1="249.3" y1="7.9" x2="192.6" y2="7.9"/>
<line class="st0" x1="192.6" y1="7.9" x2="192.6" y2="16.4"/>
<line class="st0" x1="192.6" y1="16.4" x2="135.9" y2="16.4"/>
<line class="st0" x1="135.9" y1="7.9" x2="135.9" y2="16.4"/>
<line class="st0" x1="135.9" y1="7.9" x2="79.2" y2="7.9"/>
<line class="st0" x1="79.2" y1="7.9" x2="79.2" y2="16.4"/>
<line class="st0" x1="79.2" y1="16.4" x2="22.5" y2="16.4"/>
<path d="M940.7,283.1c0,0.1,0.1,0.1,0.1,0.2C940.7,283.3,940.7,283.2,940.7,283.1z"/>
<path d="M846.7,207.6c0.1,0.1,0.1,0.2,0.2,0.3C846.9,207.9,846.8,207.7,846.7,207.6z"/>
<line class="st1" x1="1108.7" y1="179.9" x2="1108.7" y2="180.6"/>
<line class="st1" x1="1108.7" y1="66.5" x2="1108.7" y2="66.6"/>
<polygon class="st0" points="1119.2,66.5 1119.2,123.3 1110.7,123.3 1110.7,179.9 1119.2,179.9 1119.2,236.6 1110.7,236.6 
	1110.7,284.8 1062.5,284.8 1062.5,293.3 1005.8,293.3 1005.8,284.8 949.1,284.8 949.1,293.3 892.4,293.3 892.4,284.8 844.2,284.8 
	844.2,236.6 835.7,236.6 835.7,179.9 844.2,179.9 844.2,123.3 835.7,123.3 835.7,66.5 844.2,66.5 844.2,18.4 892.4,18.4 892.4,9.8 
	949.1,9.8 949.1,18.4 1005.8,18.4 1005.8,9.8 1062.5,9.8 1062.5,18.4 1110.7,18.4 1110.7,66.5 "/>
<path class="st1" d="M1074.5,27.9c-16.5,14.6-33.5,28.8-50.8,42.6c-8-4.5-16.8-7.8-26-9.8c-1-10.4-2.1-21.5-3-32.8L1074.5,27.9
	L1074.5,27.9z"/>
<path class="st1" d="M1074.2,52.6c-0.1,0.2-0.3,0.4-0.4,0.5l-24.9,37.5c-3.9-4.4-8.3-8.5-13-12.2l37.4-25.4l-0.1,0.2
	C1073.5,53,1073.8,52.8,1074.2,52.6z"/>
<path class="st1" d="M971.9,27.9h5.3l6.1,30.8c-1.9-0.1-3.7-0.2-5.6-0.2c-4.1,0-8.1,0.3-12,0.8L971.9,27.9z"/>
<path class="st1" d="M954.9,27.9c-1,11.5-2.1,22.9-3.4,34.3c-9.1,2.6-17.6,6.5-25.4,11.5c-17.1-14-36.6-30.5-54.3-45.8L954.9,27.9
	L954.9,27.9z"/>
<path class="st1" d="M914.1,82.9c-4.2,3.8-8,7.9-11.5,12.3l-25.7-37.6c-0.2-0.2-0.3-0.4-0.4-0.6c2,1.5,4.1,2.9,6.1,4.4L914.1,82.9z"
	/>
<path class="st1" d="M852,57c14.6,16.5,28.7,33.4,42.4,50.5c-4.4,8-7.7,16.7-9.7,25.9c-10.3,1-21.4,2-32.7,3V57z"/>
<path class="st1" d="M852,153.8l30.6-5.3c-0.1,1.7-0.1,3.5-0.1,5.2c0,4,0.3,7.8,0.7,11.7l-26.3-5.4c-1.6-0.3-3.3-0.5-4.9-0.8V153.8z
	"/>
<path class="st1" d="M852,259.3v-82.8c11.4,1,22.8,2.1,34.2,3.4c2.6,9.1,6.5,17.6,11.5,25.3C883.6,222.3,867.3,241.8,852,259.3z"/>
<path class="st1" d="M880.9,254.7c6.6-8.8,12.9-17.7,19.2-26.7l7-10.4c3.7,4.1,7.7,7.8,12.1,11.1l-36.7,25.4l0.7-1
	C882.4,253.7,881.7,254.2,880.9,254.7z"/>
<path class="st1" d="M885.9,274.9c14.9-13.1,30-25.7,45.5-38c8,4.5,16.8,7.8,26,9.8c0.9,9,1.8,18.5,2.7,28.2H885.9z"/>
<path class="st1" d="M984.2,274.9h-6.6l-5.2-26.2c1.7,0.1,3.5,0.1,5.2,0.1c3.9,0,7.7-0.3,11.4-0.7L984.2,274.9z"/>
<circle class="st1" cx="977.6" cy="153.7" r="88.9"/>
<path class="st1" d="M1000.7,274.9c0.9-9.9,1.9-19.8,3-29.7c9-2.6,17.5-6.4,25.2-11.4c15.4,12.6,32.9,27.1,49.1,41.1H1000.7
	L1000.7,274.9z"/>
<path class="st1" d="M1078.2,250.3l-36.9-25.8c4.2-3.8,8-7.9,11.5-12.4l18.9,28.4c2.4,3.3,4.7,6.6,7.1,9.9c-0.3-0.2-0.7-0.5-1-0.7
	L1078.2,250.3z"/>
<path class="st1" d="M1103.2,250.5c-14.6-16.5-28.8-33.4-42.4-50.6c4.5-8,7.8-16.8,9.8-26c10.3-1,21.4-2.1,32.6-3V250.5
	L1103.2,250.5z"/>
<path class="st1" d="M1103.2,153.4l-30.6,5.7c0.1-1.8,0.2-3.6,0.2-5.4c0-3.9-0.3-7.7-0.7-11.5l31.2,5.9L1103.2,153.4L1103.2,153.4z"
	/>
<path class="st1" d="M1103.2,131c-11.4-1-22.8-2.1-34.1-3.4c-2.6-9.1-6.5-17.7-11.6-25.5c14-17.1,30.3-36.5,45.7-54.1V131z"/>
</svg>
