<?xml version="1.0" encoding="utf-8"?>
<!-- Generator: Adobe Illustrator 24.3.0, SVG Export Plug-In . SVG Version: 6.00 Build 0)  -->
<svg version="1.1" id="Layer_1" xmlns="http://www.w3.org/2000/svg" xmlns:xlink="http://www.w3.org/1999/xlink" x="0px" y="0px"
	 viewBox="0 0 1190.6 841.9" style="enable-background:new 0 0 1190.6 841.9;" xml:space="preserve">
<style type="text/css">
	.st0{fill:none;stroke:#3A53A4;stroke-width:1.000000e-03;stroke-linecap:round;stroke-linejoin:round;stroke-miterlimit:10;}
	.st1{fill:none;stroke:#EB2427;stroke-width:1.000000e-03;stroke-linecap:round;stroke-linejoin:round;stroke-miterlimit:10;}
	.st2{fill:none;stroke:#EB2427;stroke-width:1.000000e-03;stroke-miterlimit:10;}
</style>
<g id="XMLID_39_">
	
		<rect id="XMLID_6_" x="774.6" y="364.3" transform="matrix(-1.346664e-10 -1 1 -1.346664e-10 420.5884 1166.1448)" class="st0" width="37.6" height="16.9"/>
	
		<rect id="XMLID_7_" x="784.9" y="329" transform="matrix(-1.347153e-10 -1 1 -1.347153e-10 455.9448 1130.7883)" class="st0" width="16.9" height="16.9"/>
	<polygon id="XMLID_13_" class="st0" points="670.2,502.7 688.1,520.6 771.2,520.6 796.6,520.6 814.5,502.7 814.5,439.6 
		771.2,396.7 771.2,321.9 688.1,321.9 670.2,339.9 	"/>
	<g id="XMLID_8_">
		<path id="XMLID_32_" class="st0" d="M828.4,407.1c0.2,0.5,0.3,1,0.3,1.5c0,0.5-0.1,1.1-0.3,1.5c-0.2,0.5-0.5,0.9-0.8,1.3
			c-0.3,0.4-0.8,0.6-1.2,0.8c-0.5,0.2-1,0.3-1.5,0.3s-1-0.1-1.5-0.3c-0.5-0.2-0.9-0.5-1.2-0.8c-0.3-0.4-0.6-0.8-0.8-1.3
			c-0.2-0.5-0.3-1-0.3-1.5c0-0.5,0.1-1,0.3-1.4c0.2-0.5,0.4-0.9,0.7-1.2c-0.3,0.4-0.6,0.8-0.7,1.2c-0.2,0.5-0.3,0.9-0.3,1.4
			c0,0.5,0.1,1.1,0.3,1.5c0.2,0.5,0.5,0.9,0.8,1.3c0.3,0.4,0.7,0.6,1.2,0.8c0.5,0.2,1,0.3,1.5,0.3s1-0.1,1.5-0.3
			c0.5-0.2,0.9-0.5,1.2-0.8c0.3-0.4,0.6-0.8,0.8-1.3c0.2-0.5,0.3-1,0.3-1.5C828.7,408.1,828.6,407.6,828.4,407.1
			c-0.2-0.5-0.4-0.9-0.8-1.2C828,406.2,828.2,406.6,828.4,407.1z"/>
		<path id="XMLID_30_" class="st0" d="M821.1,398.3h4.9c0.5,0,0.9,0,1.2,0.1c0.3,0.1,0.6,0.2,0.8,0.4c0.2,0.2,0.4,0.5,0.5,0.8
			s0.2,0.7,0.2,1.2c0,0.5-0.1,0.9-0.2,1.2c-0.1,0.3-0.3,0.6-0.5,0.7s-0.5,0.3-0.9,0.4c-0.3,0.1-0.7,0.1-1.2,0.1h-4.9h4.9
			c0.4,0,0.8,0,1.2-0.1c0.3-0.1,0.6-0.2,0.9-0.4s0.4-0.4,0.5-0.7c0.1-0.3,0.2-0.7,0.2-1.2c0-0.5-0.1-0.9-0.2-1.2s-0.3-0.6-0.5-0.8
			c-0.2-0.2-0.5-0.3-0.8-0.4c-0.3-0.1-0.7-0.1-1.2-0.1H821.1z"/>
		<path id="XMLID_28_" class="st0" d="M821.2,395.8v-4.5v2.2h7.5h-7.5V395.8z"/>
		<path id="XMLID_26_" class="st0" d="M821.2,389.3v-4.4v2.2h7.5h-7.5V389.3z"/>
		<path id="XMLID_24_" class="st0" d="M828.7,381.9h-4.2v-3.1v3.1h-3.4v-3.3v3.3H828.7v-3.3V381.9z"/>
		<path id="XMLID_22_" class="st0" d="M828.7,375.7h-7.5v-1.3c0-0.3,0-0.5,0.1-0.7s0.2-0.4,0.3-0.6c0.2-0.2,0.3-0.3,0.6-0.4
			c0.2-0.1,0.5-0.2,0.9-0.2c0.3,0,0.6,0.1,0.9,0.2c0.2,0.1,0.4,0.3,0.6,0.5s0.3,0.4,0.4,0.6c0.1,0.2,0.1,0.4,0.1,0.5v1.3v-1.3
			c0-0.1,0-0.3-0.1-0.5c-0.1-0.2-0.2-0.4-0.4-0.6s-0.4-0.4-0.6-0.5c-0.2-0.1-0.5-0.2-0.9-0.2c-0.3,0-0.6,0.1-0.9,0.2
			c-0.2,0.1-0.4,0.2-0.6,0.4c-0.1,0.2-0.3,0.4-0.3,0.6s-0.1,0.5-0.1,0.7v1.3H828.7z"/>
		<path id="XMLID_20_" class="st0" d="M821.2,364.4v-1.6c0-0.5,0.1-0.9,0.3-1.3c0.2-0.4,0.4-0.8,0.7-1.2c0.3-0.3,0.7-0.6,1.1-0.8
			c0.4-0.2,0.9-0.3,1.5-0.3c0.5,0,1,0.1,1.5,0.2s0.9,0.4,1.3,0.7c0.4,0.3,0.6,0.7,0.9,1.2s0.3,1,0.3,1.6v1.5v-1.5
			c0-0.6-0.1-1.1-0.3-1.6s-0.5-0.8-0.9-1.2c-0.4-0.3-0.8-0.6-1.3-0.7s-1-0.2-1.5-0.2c-0.5,0-1,0.1-1.5,0.3c-0.4,0.2-0.8,0.5-1.1,0.8
			c-0.3,0.3-0.6,0.7-0.7,1.2c-0.2,0.4-0.3,0.9-0.3,1.3V364.4h7.5H821.2z"/>
		<path id="XMLID_18_" class="st0" d="M828.7,356.2h-4.2v-3.1v3.1h-3.4v-3.3v3.3H828.7v-3.3V356.2z"/>
		<path id="XMLID_16_" class="st0" d="M827.4,350.9c0.2-0.1,0.4-0.2,0.6-0.4c0.2-0.1,0.3-0.3,0.4-0.5c0.1-0.2,0.2-0.4,0.2-0.6
			s0.1-0.5,0.1-0.8c0-0.3,0-0.6-0.1-0.8s-0.2-0.5-0.3-0.7c-0.1-0.2-0.3-0.4-0.6-0.5c-0.2-0.1-0.5-0.2-0.8-0.2c-0.3,0-0.5,0-0.7,0.1
			s-0.4,0.2-0.5,0.3c-0.1,0.1-0.2,0.2-0.3,0.4c-0.1,0.1-0.1,0.3-0.2,0.4l-0.9,1.7c-0.1,0.2-0.2,0.3-0.3,0.4
			c-0.1,0.1-0.2,0.2-0.3,0.3c-0.1,0.1-0.2,0.2-0.4,0.2c-0.2,0.1-0.3,0.1-0.5,0.1c-0.2,0-0.4,0-0.6-0.1c-0.2-0.1-0.4-0.2-0.6-0.3
			c-0.2-0.2-0.3-0.3-0.4-0.6c-0.1-0.2-0.2-0.5-0.2-0.8c0-0.3,0-0.6,0.1-0.8c0.1-0.2,0.2-0.4,0.3-0.5c0.1-0.2,0.3-0.3,0.4-0.4
			c-0.1,0.1-0.3,0.2-0.4,0.4c-0.1,0.1-0.2,0.3-0.3,0.5c-0.1,0.2-0.1,0.5-0.1,0.8c0,0.3,0.1,0.6,0.2,0.8c0.1,0.2,0.2,0.4,0.4,0.6
			c0.2,0.2,0.4,0.3,0.6,0.3c0.2,0.1,0.4,0.1,0.6,0.1c0.2,0,0.4,0,0.5-0.1c0.2-0.1,0.3-0.1,0.4-0.2c0.1-0.1,0.2-0.2,0.3-0.3
			c0.1-0.1,0.2-0.3,0.3-0.4l0.9-1.7c0.1-0.1,0.1-0.2,0.2-0.4c0.1-0.1,0.2-0.3,0.3-0.4c0.1-0.1,0.3-0.2,0.5-0.3s0.5-0.1,0.7-0.1
			c0.3,0,0.6,0.1,0.8,0.2c0.2,0.1,0.4,0.3,0.6,0.5c0.1,0.2,0.3,0.4,0.3,0.7s0.1,0.5,0.1,0.8c0,0.3,0,0.5-0.1,0.8s-0.1,0.4-0.2,0.6
			c-0.1,0.2-0.2,0.3-0.4,0.5C827.8,350.6,827.6,350.7,827.4,350.9z"/>
		<path id="XMLID_12_" class="st0" d="M825.2,336.3v-3.1c0.5,0,0.9,0,1.4,0.2c0.4,0.2,0.8,0.5,1.1,0.8c0.3,0.3,0.6,0.7,0.7,1.2
			s0.3,0.9,0.3,1.4c0,0.5-0.1,1-0.3,1.5c-0.2,0.5-0.5,0.9-0.8,1.2c-0.3,0.4-0.8,0.6-1.2,0.8c-0.5,0.2-1,0.3-1.5,0.3
			c-0.5,0-1-0.1-1.5-0.3c-0.5-0.2-0.9-0.5-1.2-0.8c-0.3-0.4-0.6-0.8-0.8-1.2c-0.2-0.5-0.3-1-0.3-1.5c0-0.6,0.1-1.2,0.4-1.8
			s0.7-1,1.2-1.4c-0.5,0.4-0.9,0.8-1.2,1.4s-0.4,1.2-0.4,1.8c0,0.5,0.1,1,0.3,1.5c0.2,0.5,0.5,0.9,0.8,1.2c0.3,0.4,0.8,0.6,1.2,0.8
			c0.5,0.2,1,0.3,1.5,0.3c0.5,0,1-0.1,1.5-0.3c0.5-0.2,0.9-0.5,1.2-0.8c0.3-0.4,0.6-0.8,0.8-1.2c0.2-0.5,0.3-1,0.3-1.5
			c0-0.5-0.1-1-0.3-1.4s-0.4-0.9-0.7-1.2c-0.3-0.3-0.7-0.6-1.1-0.8c-0.4-0.2-0.9-0.3-1.4-0.2V336.3z"/>
		<path id="XMLID_10_" class="st0" d="M828.6,330h-7.6l7.6-6.9h-7.6h7.6l-7.6,6.9H828.6z"/>
		<line id="XMLID_9_" class="st0" x1="821.2" y1="343.3" x2="828.6" y2="343.3"/>
		<line id="XMLID_15_" class="st0" x1="825" y1="374.7" x2="828.7" y2="372.5"/>
	</g>
	<polygon id="XMLID_69_" class="st1" points="718.9,293.6 690.5,293.6 690.5,302.1 667.3,302.1 649.4,320 649.4,522.6 667.3,540.5 
		690.5,540.5 690.5,549 718.9,549 718.9,540.5 790.9,540.5 790.9,549 819.2,549 819.2,540.5 829.9,540.5 847.8,522.6 847.8,320 
		829.9,302.1 819.2,302.1 819.2,293.6 790.9,293.6 790.9,302.1 718.9,302.1 	"/>
</g>
<g id="XMLID_5_">
	<rect id="XMLID_60_" x="413.9" y="492" class="st1" width="8.5" height="28.3"/>
	<rect id="XMLID_59_" x="413.9" y="391.7" class="st1" width="8.5" height="28.3"/>
	<rect id="XMLID_65_" x="256.2" y="492" class="st1" width="8.5" height="28.3"/>
	<rect id="XMLID_64_" x="256.2" y="391.7" class="st1" width="8.5" height="28.3"/>
	<polygon id="XMLID_63_" class="st0" points="393.9,395.6 376.4,378.1 302.2,378.1 284.7,395.6 284.7,457.3 302.2,474.9 
		376.4,474.9 393.9,457.3 	"/>
	<polygon id="XMLID_58_" class="st1" points="431,368.1 431,531.5 413.4,549 381.7,549 367.8,535.1 310.8,535.1 296.9,549 
		265.2,549 247.7,531.5 247.7,368.1 265.2,350.6 413.4,350.6 	"/>
	<rect id="XMLID_55_" x="357.3" y="517.6" class="st1" width="28.3" height="8.5"/>
	<rect id="XMLID_56_" x="293" y="517.6" class="st1" width="28.3" height="8.5"/>
	<rect id="XMLID_42_" x="357.3" y="362.9" class="st1" width="28.3" height="8.5"/>
	<rect id="XMLID_41_" x="293" y="362.9" class="st1" width="28.3" height="8.5"/>
</g>
<g id="XMLID_40_">
	<rect id="XMLID_148_" x="220.7" y="492" class="st1" width="8.5" height="28.3"/>
	<rect id="XMLID_77_" x="220.7" y="391.7" class="st1" width="8.5" height="28.3"/>
	<rect id="XMLID_74_" x="62.9" y="492" class="st1" width="8.5" height="28.3"/>
	<rect id="XMLID_73_" x="62.9" y="391.7" class="st1" width="8.5" height="28.3"/>
	<polygon id="XMLID_72_" class="st0" points="200.7,395.6 183.1,378.1 108.9,378.1 91.4,395.6 91.4,457.3 108.9,474.9 183.1,474.9 
		200.7,457.3 	"/>
	<polygon id="XMLID_71_" class="st1" points="237.7,368.1 237.7,531.5 220.1,549 188.4,549 174.6,535.1 117.5,535.1 103.6,549 
		71.9,549 54.4,531.5 54.4,368.1 71.9,350.6 220.1,350.6 	"/>
	<rect id="XMLID_70_" x="164" y="517.6" class="st1" width="28.3" height="8.5"/>
	<rect id="XMLID_68_" x="99.7" y="517.6" class="st1" width="28.3" height="8.5"/>
	<rect id="XMLID_67_" x="164" y="362.9" class="st1" width="28.3" height="8.5"/>
	<rect id="XMLID_66_" x="99.7" y="362.9" class="st1" width="28.3" height="8.5"/>
</g>
<polygon id="XMLID_76_" class="st1" points="1138,302.1 1138,293.6 1109.6,293.6 1109.6,302.1 1073.8,302.1 1073.8,293.6 
	1045.4,293.6 1045.4,302.1 1017.1,302.1 1017.1,540.5 1045.4,540.5 1045.4,549 1073.8,549 1073.8,540.5 1109.6,540.5 1109.6,549 
	1138,549 1138,540.5 1166.3,540.5 1166.3,302.1 "/>
<path id="XMLID_62_" class="st2" d="M978.7,302.1v-8.5h-28.3v8.5h-35.9v-8.5h-28.3v8.5h-28.3v238.4h28.3v8.5h28.3v-8.5h35.9v8.5
	h28.3v-8.5h28.3V302.1H978.7z M984.3,520H880.5V322.6h103.8V520z"/>
<g id="XMLID_139_">
	<g id="XMLID_79_">
		<polygon id="XMLID_129_" class="st1" points="510.4,293.6 482.1,293.6 482.1,302.1 458.9,302.1 441,320 441,522.6 458.9,540.5 
			482.1,540.5 482.1,549 510.4,549 510.4,540.5 582.4,540.5 582.4,549 610.8,549 610.8,540.5 621.5,540.5 639.4,522.6 639.4,320 
			621.5,302.1 610.8,302.1 610.8,293.6 582.4,293.6 582.4,302.1 510.4,302.1 		"/>
	</g>
	<circle id="XMLID_130_" class="st0" cx="540.2" cy="474.4" r="45.6"/>
	<circle id="XMLID_38_" class="st0" cx="540.2" cy="474.4" r="13.6"/>
</g>
</svg>
