<?xml version="1.0" encoding="utf-8"?>
<!-- Generator: Adobe Illustrator 24.3.0, SVG Export Plug-In . SVG Version: 6.00 Build 0)  -->
<svg version="1.1" id="_x30_" xmlns="http://www.w3.org/2000/svg" xmlns:xlink="http://www.w3.org/1999/xlink" x="0px" y="0px"
	 viewBox="0 0 841.9 595.3" style="enable-background:new 0 0 841.9 595.3;" xml:space="preserve">
<style type="text/css">
	.st0{fill:none;stroke:#000000;stroke-width:0.7087;stroke-linecap:round;stroke-linejoin:round;stroke-miterlimit:10;}
</style>
<g id="SPLINE">
	<path class="st0" d="M350.8,249.9c-3.3,1.9-6.5,3.9-8.3,6.9c-1,1.6-1.5,3.6-2.3,5.4c-1.1,2.6-2.8,4.9-4.2,7.3
		c-1.4,2.3-2.5,4.7-3.2,7.3c-0.4,1.4-0.6,2.9-0.3,4.2c0.2,0.8,0.7,1.6,1.4,2.2c1.6,1.5,4.2,2,6.2,1.3c2.1-0.7,3.5-2.7,5.1-4.4
		c1.6-1.6,3.5-2.9,5.5-3.7c1.9-0.8,4-1.1,6-1.7"/>
</g>
<g id="SPLINE_1_">
	<path class="st0" d="M350.4,250.1c0.5-0.2,0.9-0.4,1.4-0.5"/>
</g>
<g id="SPLINE_2_">
	<path class="st0" d="M355.1,241.2c0.4-0.4,0.7-0.7,1.1-0.8c1.9-0.5,3.6,4.1,4,7.4c0.1,0.7,0.1,1.4,0.1,2"/>
</g>
<g id="SPLINE_3_">
	<path class="st0" d="M351.8,249.6c-0.7-1.6-1.3-3.3-0.9-5.2c0.4-1.7,1.5-3.6,2.6-3.9c0.6-0.1,1.1,0.1,1.6,0.7"/>
</g>
<g id="LINE">
	<line class="st0" x1="396.2" y1="345.4" x2="405.3" y2="345.4"/>
</g>
<g id="LINE_1_">
	<line class="st0" x1="396.2" y1="345.4" x2="396.2" y2="324.4"/>
</g>
<g id="LINE_2_">
	<line class="st0" x1="405.3" y1="345.4" x2="405.3" y2="324.4"/>
</g>
<g id="LINE_3_">
	<line class="st0" x1="387.6" y1="302.5" x2="387.6" y2="324.1"/>
</g>
<g id="LINE_4_">
	<line class="st0" x1="435" y1="302.5" x2="435" y2="324"/>
</g>
<g id="LINE_5_">
	<line class="st0" x1="444" y1="302.5" x2="444" y2="324.1"/>
</g>
<g id="SPLINE_4_">
	<path class="st0" d="M360.4,249.7c3.9,1.4,7.6,4.4,10.8,7.4c6,5.7,10.1,11.9,16,16.4c4.6,3.5,10.2,6,16,7.4
		c2.1,0.5,4.1,0.9,6.2,1.1c1.5,0.1,3.8,0.2,5.3,0.2"/>
</g>
<g id="LINE_6_">
	<line class="st0" x1="435" y1="302.5" x2="444" y2="302.5"/>
</g>
<g id="LINE_7_">
	<line class="st0" x1="378.5" y1="302.5" x2="387.6" y2="302.5"/>
</g>
<g id="LINE_8_">
	<line class="st0" x1="382" y1="351.1" x2="391.1" y2="351.1"/>
</g>
<g id="LINE_9_">
	<line class="st0" x1="419.5" y1="351.1" x2="414.7" y2="351.1"/>
</g>
<g id="LINE_10_">
	<line class="st0" x1="382" y1="351.1" x2="382" y2="363.2"/>
</g>
<g id="LINE_11_">
	<line class="st0" x1="391.1" y1="351.1" x2="391.1" y2="367"/>
</g>
<g id="LINE_12_">
	<line class="st0" x1="410.5" y1="351.1" x2="410.5" y2="367"/>
</g>
<g id="LINE_13_">
	<line class="st0" x1="419.5" y1="351.1" x2="419.5" y2="363.2"/>
</g>
<g id="SPLINE_5_">
	<path class="st0" d="M499.7,258.2c3.7,3,7.4,6,8.9,10.1c0.8,2.1,1,4.4,1,6.7c-0.1,2.7-0.5,5.3-1.3,7.7c-0.8,2.6-2.1,5.1-3.1,7.7
		c-0.1,0.1-0.5,1.1-0.5,1.3"/>
</g>
<g id="SPLINE_6_">
	<path class="st0" d="M490.6,330c0.8-1.6,1.6-3.2,3.2-4.2c0.5-0.3,1.1-0.6,1.3-1c0.3-0.5,0.1-1.2,0-2c-0.4-3,0.7-5.6,0.6-8.1
		c-0.1-3.2-2-6.4-3.6-9.5c-1.3-2.5-2.4-5-3.1-7.7c-0.5-1.9-0.8-3.8-1.3-5.7"/>
</g>
<g id="LINE_14_">
	<line class="st0" x1="490.6" y1="259.3" x2="490.6" y2="279.1"/>
</g>
<g id="LINE_15_">
	<line class="st0" x1="490.6" y1="279.1" x2="499.7" y2="279.1"/>
</g>
<g id="LINE_16_">
	<line class="st0" x1="499.7" y1="279.1" x2="499.7" y2="258.2"/>
</g>
<g id="LINE_17_">
	<line class="st0" x1="490.6" y1="330" x2="504" y2="330"/>
</g>
<g id="LINE_18_">
	<line class="st0" x1="378.5" y1="302.5" x2="378.5" y2="323.9"/>
</g>
<g id="SPLINE_7_">
	<path class="st0" d="M378.5,323.9c-1.8-0.3-3.6-0.9-5.2-1.7c-5.2-2.6-9.1-7.9-10.8-13.5c-1.3-4.1-1.4-8.4-1.1-12.8
		c0.2-3,0.5-6.1,0-9c-0.5-2.8-1.9-5.4-4.6-12.3"/>
</g>
<g id="SPLINE_8_">
	<path class="st0" d="M435,324c-1.3-0.3-2.6-0.7-3.9-1.2c-4.6-1.6-8.8-3.8-13.3-4.4c-1-0.1-2.1-0.2-3.1-0.2"/>
</g>
<g id="SPLINE_9_">
	<path class="st0" d="M382,363.2c-1.1-0.9-2.1-2-3-3.1c-2.8-3.7-4.1-8.4-4-13.2c0.1-4.8,1.5-9.7,4.3-13.3c3.8-5,10.2-7.4,17-9.3"/>
</g>
<g id="SPLINE_10_">
	<path class="st0" d="M419.5,363.2c1.1-0.9,2.1-2,3-3.1c2.8-3.7,4.1-8.4,4-13.2c-0.1-4.8-1.5-9.7-4.3-13.3c-2-2.6-4.6-4.5-7.6-5.9"
		/>
</g>
<g id="SPLINE_11_">
	<path class="st0" d="M452.5,283.7c2.4-3,4.9-5.9,8.4-7c2.8-0.9,6.3-0.8,8.9,0.6c3.6,1.9,5.8,6.1,6.1,10.2c0.3,3.7-0.9,7.3-2,10.8
		c-1.1,3.3-2.1,6.5-2.5,9.4c-0.2,1.8-0.2,3.5,0.2,5.6c0.3,1.6,0.9,3.4,3.3,10.5"/>
</g>
<g id="SPLINE_12_">
	<path class="st0" d="M458,288.8c0.8-0.6,1.6-1.1,2.6-1.3c0.8-0.2,1.7-0.2,2.5,0c1.6,0.4,2.9,1.7,3.5,3.2c0.8,1.9,0.3,4-0.3,6.2
		c-0.8,3-1.7,6.3-1.7,9.4c-0.1,3.8,1,7.4,3.1,10.1c1.8,2.4,4.4,4,7.3,7.5"/>
</g>
<g id="SPLINE_13_">
	<path class="st0" d="M458,288.8c3.1,4.1,4.9,9.4,4.1,14.1c-0.6,3.4-2.5,6.4-4.7,9.4c-3.7,5.1-8,10.3-13.4,11.9"/>
</g>
<g id="SPLINE_14_">
	<path class="st0" d="M438.6,250c3-3.7,6-7.4,10.1-8.9c2.1-0.8,4.4-1,6.7-1c2.7,0.1,5.3,0.5,7.7,1.3c0.8,0.3,2.4,0.9,3.2,1.2"/>
</g>
<g id="SPLINE_15_">
	<path class="st0" d="M510.3,259c-1.6-0.8-3.2-1.6-4.2-3.2c-0.3-0.5-0.6-1.1-1-1.3c-0.5-0.3-1.2-0.1-2,0c-3,0.4-5.6-0.7-8.1-0.6
		c-3.2,0.1-6.4,2-9.5,3.6c-2.5,1.3-5,2.4-7.7,3.1c-3.4,0.9-7.1,1.3-10.3,2.9c-0.4,0.2-0.7,0.4-1.1,0.6"/>
</g>
<g id="LINE_19_">
	<line class="st0" x1="439.6" y1="259" x2="459.4" y2="259"/>
</g>
<g id="LINE_20_">
	<line class="st0" x1="459.4" y1="259" x2="459.4" y2="250"/>
</g>
<g id="LINE_21_">
	<line class="st0" x1="459.4" y1="250" x2="438.6" y2="250"/>
</g>
<g id="LINE_22_">
	<line class="st0" x1="510.3" y1="259" x2="510.3" y2="245.7"/>
</g>
<g id="LINE_23_">
	<line class="st0" x1="410.6" y1="257" x2="410.6" y2="248"/>
</g>
<g id="LINE_24_">
	<line class="st0" x1="416.2" y1="271.3" x2="416.2" y2="262.2"/>
</g>
<g id="LINE_25_">
	<line class="st0" x1="416.2" y1="233.7" x2="416.2" y2="242.8"/>
</g>
<g id="SPLINE_16_">
	<path class="st0" d="M432.7,252.5c0,3.3-0.1,6.6-0.6,9.7"/>
</g>
<g id="SPLINE_17_">
	<path class="st0" d="M428.4,233.7c-0.9-1.1-2-2.1-3.1-3c-3-2.3-6.7-3.6-10.6-3.9"/>
</g>
<g id="LINE_26_">
	<line class="st0" x1="410.6" y1="257" x2="382" y2="257"/>
</g>
<g id="LINE_27_">
	<line class="st0" x1="410.6" y1="248" x2="382" y2="248"/>
</g>
<g id="SPLINE_18_">
	<path class="st0" d="M432.7,252.5c0-3.3-0.1-6.6-0.6-9.7"/>
</g>
<g id="LINE_28_">
	<line class="st0" x1="416.2" y1="262.2" x2="432.2" y2="262.2"/>
</g>
<g id="LINE_29_">
	<line class="st0" x1="416.2" y1="233.7" x2="428.4" y2="233.7"/>
</g>
<g id="LINE_30_">
	<line class="st0" x1="416.2" y1="242.8" x2="432.2" y2="242.8"/>
</g>
<g id="LINE_31_">
	<line class="st0" x1="416.2" y1="271.3" x2="428.4" y2="271.3"/>
</g>
<g id="SPLINE_19_">
	<path class="st0" d="M428.4,271.3c-0.9,1.1-2,2.1-3.1,3c-3,2.3-6.7,3.6-10.6,3.9"/>
</g>
<g id="SPLINE_20_">
	<path class="st0" d="M400.8,367.6c3.3,0,6.6-0.1,9.7-0.6"/>
</g>
<g id="SPLINE_21_">
	<path class="st0" d="M400.8,367.6c-3.3,0-6.6-0.1-9.7-0.6"/>
</g>
<g id="SPLINE_22_">
	<path class="st0" d="M495.2,339c-2.1-2.9-4.2-5.8-7.2-7c-1.9-0.7-4.2-0.8-6.3-0.5c-3.2,0.4-6.1,1.7-8.8,3.2c-1.8,1-3.5,2.3-5.2,3.5
		c-0.4,0.3-0.9,0.6-1.3,1"/>
</g>
<g id="SPLINE_23_">
	<path class="st0" d="M475.8,364c-1.4-0.7-2.7-1.4-3.9-2.3c-1.2-0.9-2.3-2-3.6-2.5c-0.6-0.2-1.3-0.3-1.9-0.4"/>
</g>
<g id="LINE_36_">
	<line class="st0" x1="430.4" y1="340.5" x2="430.4" y2="356.1"/>
</g>
<g id="SPLINE_24_">
	<path class="st0" d="M475.8,364c1.8,0.8,3.6,1.7,5.5,2c4.5,0.7,9.7-1.5,12.8-4.9c3.1-3.5,4-8.3,5-13"/>
</g>
<g id="LINE_37_">
	<line class="st0" x1="481.3" y1="348.1" x2="499.1" y2="348.1"/>
</g>
<g id="LINE_38_">
	<line class="st0" x1="481.3" y1="339" x2="481.3" y2="348.1"/>
</g>
<g id="LINE_39_">
	<line class="st0" x1="495.2" y1="339" x2="481.3" y2="339"/>
</g>
<g id="SPLINE_25_">
	<path class="st0" d="M359.9,361.8c2.9-2.1,5.8-4.2,7-7.2c0.7-1.9,0.8-4.2,0.5-6.3c-0.4-3.2-1.7-6.1-3.2-8.8c-1-1.8-2.3-3.5-3.5-5.2
		c-1.3-1.8-2.6-3.7-4-5.5c-0.2-0.3-1-1.4-1.2-1.6"/>
</g>
<g id="SPLINE_26_">
	<path class="st0" d="M334.9,342.4c0.7-1.4,1.4-2.7,2.3-3.9c0.9-1.2,2-2.3,2.5-3.6c0.3-0.8,0.4-1.6,0.5-2.4c0.1-1.1,0.4-2.1,0.3-3.2
		c0-0.4-0.1-0.8-0.1-1.2"/>
</g>
<g id="LINE_40_">
	<line class="st0" x1="358.4" y1="296.9" x2="342.8" y2="296.9"/>
</g>
<g id="SPLINE_27_">
	<path class="st0" d="M334.9,342.4c-0.8,1.8-1.7,3.6-2,5.5c-0.7,4.5,1.5,9.7,4.9,12.8c3.5,3.1,8.3,4,13,5"/>
</g>
<g id="LINE_41_">
	<line class="st0" x1="350.9" y1="347.9" x2="350.9" y2="365.7"/>
</g>
<g id="LINE_42_">
	<line class="st0" x1="359.9" y1="347.9" x2="350.9" y2="347.9"/>
</g>
<g id="LINE_43_">
	<line class="st0" x1="359.9" y1="361.8" x2="359.9" y2="347.9"/>
</g>
<g id="SPLINE_28_">
	<path class="st0" d="M414.7,278.2c-0.6,0-2,0.1-2.6,0.1c-4.8-0.1-9.7-1.5-13.3-4.3c-5-3.8-7.4-10.2-16.8-17"/>
</g>
<g id="SPLINE_29_">
	<path class="st0" d="M414.7,282.2c5-0.1,9.9-0.9,15.2-1.4c7.8-0.8,16.2-1.1,22.7,2.9"/>
</g>
<g id="SPLINE_30_">
	<path class="st0" d="M414.7,226.8c-0.6,0-2-0.1-2.6-0.1c-4.8,0.1-9.7,1.5-13.3,4.3c-5,3.8-7.4,10.2-16.8,17"/>
</g>
<g id="SPLINE_31_">
	<path class="st0" d="M414.7,318.2c-5.2,0.2-11.3,2-16.6,3.5c-3.5,1-7,1.9-10.5,2.4"/>
</g>
<g id="SPLINE_32_">
	<path class="st0" d="M414.7,327.7c-2.6-1.2-6.4-2.5-9.4-3.3"/>
</g>
<g id="LINE_44_">
	<line class="st0" x1="414.7" y1="351.1" x2="410.5" y2="351.1"/>
</g>
<g id="SPLINE_33_">
	<path class="st0" d="M355.6,327.2c-0.6-0.8-1.2-1.6-1.8-2.5c-1.1-1.7-2.2-3.5-2.7-5.4c-0.3-1.4-0.4-2.9-0.3-4.3
		c0.1-2.1,0.4-4.2,0.9-6.3c0.5-2.1,1.2-4.3,2.6-5.9c0.9-1,2-1.7,2.8-2.8c0.6-0.9,0.9-2,1.3-3.1"/>
</g>
<g id="SPLINE_34_">
	<path class="st0" d="M340.3,328c-0.2-0.8-0.7-2.5-0.8-3.3c-0.2-0.9-0.3-1.9-0.2-2.8c0.1-1.4,0.6-2.7,1-4c0.4-1.3,0.6-2.7,0.9-4.1
		c0.6-2.6,1.4-5.1,1.7-7.8c0.2-2.3,0-4.7,0-7c0-0.7,0-1.4,0-2.1"/>
</g>
<g id="SPLINE_35_">
	<path class="st0" d="M466.3,339.1c-1.1,0.8-3,2.2-4.1,3c-1.3,1-2.7,2-4.1,2.9c-1.7,1.1-3.5,2.2-5.4,2.7c-1.4,0.3-2.9,0.4-4.3,0.3
		c-2.1-0.1-4.2-0.4-6.3-0.9c-2.1-0.5-4.3-1.2-5.9-2.6c-1-0.9-1.7-2-2.8-2.8c-0.9-0.6-2-0.9-3.1-1.3"/>
</g>
<g id="SPLINE_36_">
	<path class="st0" d="M466.3,358.9c-1-0.1-2.8-0.4-3.7-0.4c-1.5,0.1-3,0.7-4.5,1c-0.9,0.2-1.9,0.3-2.8,0.2c-1.4-0.1-2.7-0.6-4-1
		c-1.3-0.4-2.7-0.6-4.1-0.9c-2.6-0.6-5.1-1.4-7.8-1.7c-2.3-0.2-4.7,0-7,0c-0.7,0-1.4,0-2.1,0"/>
</g>
<g id="SPLINE_37_">
	<path class="st0" d="M487.8,291.8c-0.3-1.3-1-3.4-1.6-4.7c-0.9-1.9-2.3-3.7-2.9-5.7c-0.5-1.7-0.5-3.7-0.3-5.5c0.2-2,0.5-4,1-5.9
		c0.5-1.9,1.1-3.8,2-5.5c1.2-2,2.9-3.6,4.6-5.3"/>
</g>
<g id="SPLINE_38_">
	<path class="st0" d="M504.7,291.8c-1.1,2.7-1.9,5.5-2.5,8.3c-0.6,3-0.9,6-0.6,9c0.3,2.8,1.1,5.4,1.8,8.1c0.7,2.4,1.3,4.9,1.3,7.3
		c0,1.8-0.3,3.6-0.7,5.4"/>
</g>
<g id="SPLINE_39_">
	<path class="st0" d="M466.3,264c-1.2,0.7-3.3,1.9-4.6,2.3c-1.7,0.5-3.7,0.5-5.5,0.3c-2-0.2-4-0.5-5.9-1c-1.9-0.5-3.8-1.1-5.5-2
		c-2-1.2-3.6-2.9-5.3-4.6"/>
</g>
<g id="SPLINE_40_">
	<path class="st0" d="M466.3,242.6c1.5,0.6,3,1.3,4.5,1.9c3.1,1.3,6.3,2.4,9.6,3.1c3,0.6,6,0.9,9,0.6c2.8-0.3,5.4-1.1,8.1-1.8
		c2.4-0.7,4.9-1.3,7.3-1.3c1.8,0,3.6,0.3,5.4,0.7"/>
</g>
</svg>
