<?xml version="1.0" encoding="utf-8"?>
<!-- Generator: Adobe Illustrator 23.0.4, SVG Export Plug-In . SVG Version: 6.00 Build 0)  -->
<svg version="1.1" id="Layer_1" xmlns="http://www.w3.org/2000/svg" xmlns:xlink="http://www.w3.org/1999/xlink" x="0px" y="0px"
	 width="1683.8px" height="1190.6px" viewBox="0 0 1683.8 1190.6" style="enable-background:new 0 0 1683.8 1190.6;"
	 xml:space="preserve">
<style type="text/css">
	.st0{fill-rule:evenodd;clip-rule:evenodd;fill:none;stroke:#FF0000;stroke-width:7.086614e-03;stroke-miterlimit:2.6131;}
</style>
<polygon class="st0" points="71.4,131.6 71.2,146.2 60,146.2 60,157.4 71.2,157.4 71.5,244 60.3,244 60.3,255.2 71.5,255.2 
	71.8,270 128.6,270 128.6,255.4 140.1,255.3 140.1,244.1 128.6,244 128.6,157.8 139.8,157.5 139.8,146.2 128.6,146.2 128.6,131.6 
	"/>
<g>
	<polyline class="st0" points="334.5,444.5 338.2,443.5 339.1,443.5 344.6,446.3 344.6,449.1 339.1,450.9 338.2,450.9 334.5,450.9 
		333.6,456.4 336.3,457.3 337.3,458.3 340.9,462.9 339.1,464.7 333.6,464.7 332.7,463.8 329.9,461.9 326.2,465.6 328.1,468.4 
		329,470.2 329,474.8 327.1,476.7 322.5,473 321.6,472.1 320.7,469.3 315.2,470.2 315.2,473.9 315.2,475.7 313.3,480.4 310.6,480.4 
		307.8,475.7 307.8,473.9 307.8,470.2 303.2,469.3 302.3,472.1 301.4,473 296.8,476.7 294,474.8 294.9,470.2 294.9,468.4 
		296.8,465.6 293.1,461.9 291.2,463.8 289.4,464.7 283.9,464.7 283,462.9 285.7,458.3 287.6,457.3 290.3,456.4 288.5,450.9 
		285.7,450.9 283.9,450.9 279.3,449.1 279.3,446.3 283.9,443.5 285.7,443.5 288.5,444.5 290.3,438.9 287.6,438 285.7,437.1 
		283,432.5 283.9,429.7 289.4,430.7 291.2,431.6 293.1,432.5 296.8,428.8 294.9,427 294.9,425.1 294,419.6 296.8,418.7 301.4,421.5 
		302.3,423.3 303.2,426.1 307.8,424.2 307.8,421.5 307.8,419.6 310.6,415 313.3,415 315.2,419.6 315.2,421.5 315.2,424.2 
		320.7,426.1 321.6,423.3 322.5,421.5 327.1,418.7 329,419.6 329,425.1 328.1,427 326.2,428.8 329.9,432.5 332.7,431.6 333.6,430.7 
		339.1,429.7 340.9,432.5 337.3,437.1 336.3,438 333.6,438.9 334.5,444.5 	"/>
	<circle class="st0" cx="312" cy="447.7" r="8.1"/>
</g>
<g>
	<path class="st0" d="M446.1,104.3c-14.4-8-49.2-5.2-57.6,0l-0.1,37.2h-28.6v57.6h29c-0.1,33.6-0.1,76.9,1.7,80.3
		c18.2,7.4,34,8.2,52.8,1.2c1.4-3.8,2.8-47.9,2.8-81.5h29v-57.6h-29L446.1,104.3z"/>
	<rect x="408.8" y="239.9" class="st0" width="17.3" height="8.6"/>
	<rect x="408.8" y="225.4" class="st0" width="17.3" height="8.6"/>
	<rect x="408.8" y="210.9" class="st0" width="17.3" height="8.6"/>
	<rect x="408.8" y="196.5" class="st0" width="17.3" height="8.6"/>
	<rect x="408.8" y="182.3" class="st0" width="17.3" height="8.6"/>
	<rect x="408.8" y="167.7" class="st0" width="17.3" height="8.6"/>
	<rect x="408.8" y="153.3" class="st0" width="17.3" height="8.6"/>
	<rect x="408.8" y="138.7" class="st0" width="17.3" height="8.6"/>
	<rect x="408.8" y="124.2" class="st0" width="17.3" height="8.6"/>
	<rect x="408.8" y="109.7" class="st0" width="17.3" height="8.6"/>
	<rect x="433.6" y="184.6" class="st0" width="11.2" height="11.2"/>
	<rect x="408.8" y="268.9" class="st0" width="17.3" height="8.6"/>
	<rect x="408.8" y="254.4" class="st0" width="17.3" height="8.6"/>
	<rect x="389.8" y="184.6" class="st0" width="11.2" height="11.2"/>
</g>
<polygon class="st0" points="263.2,408.9 263.2,488 274.1,487.8 274.1,499.1 263.2,498.9 263.2,578.1 229.3,578.3 229.3,566.1 
	252.3,566 252.3,555.9 229.3,555.7 229.3,543.5 252.2,543.6 252.2,533.1 229.3,533.1 229.3,520.9 252.2,521 252.2,510.7 
	229.3,510.5 229.3,498.3 252.1,498.3 252.1,488.1 229.3,488.1 229.3,475.9 252.1,475.9 252.1,465.5 229.3,465.5 229.3,453.3 
	252,453.3 252,442.7 229.3,442.7 229.3,430.5 252,430.4 252,420.1 229.3,420 229.3,408.8 251.9,408.9 "/>
<path class="st0" d="M780,632.7v-28.5l11,0V593l-11,0V320l11,0.2V309l-11-0.2v-27.5h-57.8V309l-11.1,0v11.2l11.1-0.2v3v270h-11.1
	v11.2l11.1-0.2v28.7H780z"/>
<path class="st0" d="M793.5,312.6v261.7l-11.1,0l0.1,11.2l11,0l0,11.3v17.3h57.8v-28.5l11,0v-11.2l-11,0v-273l11,0.2v-11.2l-11-0.2
	v-27.5h-57.8v27.7l-11.1,0v11h11.1V312.6z"/>
<g>
	<path class="st0" d="M560.6,244.5c-5.6,3.6-7.2,11.1-3.6,16.7c3.6,5.6,11.1,7.2,16.7,3.6c5.6-3.6,7.2-11.1,3.6-16.7
		C573.7,242.5,566.2,240.9,560.6,244.5z"/>
	<path class="st0" d="M552.5,229.9c-16.8,10.8-35.3,38.1-26.7,51.4c8.6,13.4,41,7.8,57.8-3c16.8-10.8,35.7-37.9,27.1-51.2
		C602.2,213.7,569.3,219,552.5,229.9z"/>
	
		<rect x="532.8" y="267.3" transform="matrix(0.8407 -0.5415 0.5415 0.8407 -62.0016 334.9897)" class="st0" width="11.2" height="11.2"/>
	
		<rect x="591.1" y="230" transform="matrix(0.8407 -0.5415 0.5415 0.8407 -32.5586 360.631)" class="st0" width="11.2" height="11.2"/>
</g>
<g>
	<circle class="st0" cx="200.4" cy="109.7" r="12.1"/>
	<path class="st0" d="M199.3,80.9c20,0,50.3,12.9,50.3,28.8s-30.3,28.8-50.3,28.8s-50.5-12.5-50.5-28.4S179.3,80.9,199.3,80.9z"/>
	<rect x="228.8" y="103.8" class="st0" width="11.2" height="11.2"/>
	<rect x="159.6" y="104.1" class="st0" width="11.2" height="11.2"/>
</g>
<g>
	<circle class="st0" cx="547.2" cy="119.9" r="47.4"/>
</g>
<g>
	<path class="st0" d="M198,177.5c0.6,0,1.1-0.5,1.1-1.1c0-0.6-0.5-1.1-1.1-1.1c-0.6,0-1.1,0.5-1.1,1.1
		C196.9,177,197.4,177.5,198,177.5z"/>
	<path class="st0" d="M196.9,147.5c20,0,50.3,12.9,50.3,28.8c0,15.9-30.3,28.8-50.3,28.8c-20,0-50.5-12.5-50.5-28.4
		S177,147.5,196.9,147.5z"/>
	<rect x="226.5" y="170.4" class="st0" width="11.2" height="11.2"/>
	<rect x="157.3" y="170.7" class="st0" width="11.2" height="11.2"/>
</g>
<g>
	<circle class="st0" cx="198" cy="248.5" r="12.1"/>
	<path class="st0" d="M196.9,219.7c20,0,50.3,12.9,50.3,28.8s-30.3,28.8-50.3,28.8c-20,0-50.5-12.5-50.5-28.4S177,219.7,196.9,219.7
		z"/>
	<rect x="226.5" y="242.6" class="st0" width="11.2" height="11.2"/>
	<rect x="157.3" y="242.9" class="st0" width="11.2" height="11.2"/>
</g>
<polygon class="st0" points="609.2,376.1 609.2,367.7 620.7,367.4 620.7,355.9 609.2,355.7 609.2,347.3 551.6,347.3 551.6,355.7 
	540.1,355.9 540.1,367.4 551.6,367.3 551.6,376.1 "/>
<polygon class="st0" points="208.3,376.1 208.3,367.3 196.8,367.4 196.8,355.9 208.3,355.7 208.3,347.3 210.3,347.3 265.9,347.3 
	265.9,355.7 277.4,355.9 277.4,367.4 265.9,367.7 265.9,376.1 "/>
<g>
	<rect x="392.1" y="474.7" class="st0" width="11.2" height="11.2"/>
	<rect x="391.9" y="572.5" class="st0" width="11.2" height="11.2"/>
	<circle class="st0" cx="512.7" cy="484.6" r="8.9"/>
	<rect x="540.2" y="401.6" class="st0" width="12.1" height="187.2"/>
	<rect x="524" y="588.8" class="st0" width="11.2" height="11.2"/>
	<rect x="524.4" y="388.4" class="st0" width="11.2" height="11.2"/>
	<circle class="st0" cx="675.8" cy="591.2" r="4.3"/>
	<g>
		<path class="st0" d="M495.1,361.7C495.5,361.6,495.4,361.6,495.1,361.7L495.1,361.7z"/>
		<path class="st0" d="M696.9,598.3c-0.3-8.4-5.9-20.3-21-19.9c-15.7-0.9-21,10.5-21.5,20.1l-96.8-0.6l-0.2-199.2
			c-22-31.5-33.8-41.9-62.4-36.9c-6.4,1.4-16.5-16.3-3.3-17.4c44.6-3.7,80.3,2.1,128-4.6c2.6-0.5,3.8,0.6,4.1,2.2l0,0l0.1,43.1h28
			l-0.2,23h11.2l0.2-23h27.6V33.4h-27.9l0.2-22.5h-11.2l-0.2,22.5h-27.6V254c0,9.8-27.6,23.9-40.4,35.7c-4.4,4.1-10.2,6.3-16.1,6.3
			h-86.9c-68.9,23.3-87.1,53.4-104,101.3c-16,83-8.7,155.1,9.6,228.6c106.8,0,204.8-0.1,311.5-0.1L696.9,598.3z"/>
	</g>
	<rect x="674" y="62.4" class="st0" width="11.2" height="11.2"/>
	<rect x="674" y="346.4" class="st0" width="11.2" height="11.2"/>
	<rect x="630" y="62.4" class="st0" width="11.2" height="11.2"/>
	<rect x="630" y="346.4" class="st0" width="11.2" height="11.2"/>
</g>
<g>
	<circle class="st0" cx="297.9" cy="556.7" r="21.6"/>
	<circle class="st0" cx="297.9" cy="556.7" r="8.1"/>
</g>
<g>
	<circle class="st0" cx="325.5" cy="506.2" r="21.6"/>
	<circle class="st0" cx="325.5" cy="506.2" r="8.1"/>
</g>
<polygon class="st0" points="598.8,408.9 598.8,488 609.7,487.8 609.7,499.1 598.8,498.9 598.8,578.1 564.9,578.3 564.9,566.1 
	587.9,566 587.9,555.9 564.9,555.7 564.9,543.5 587.9,543.6 587.8,533.1 564.9,533.1 564.9,520.9 587.8,521 587.8,510.7 
	564.9,510.5 564.9,498.3 587.8,498.3 587.7,488.1 564.9,488.1 564.9,475.9 587.7,475.9 587.7,465.5 564.9,465.5 564.9,453.3 
	587.7,453.3 587.6,442.7 564.9,442.7 564.9,430.5 587.6,430.4 587.6,420.1 564.9,420 564.9,408.8 587.6,408.9 "/>
<g>
	<rect x="48.7" y="474.7" class="st0" width="11.2" height="11.2"/>
	<rect x="48.5" y="572.5" class="st0" width="11.2" height="11.2"/>
	<circle class="st0" cx="169.3" cy="484.6" r="8.9"/>
	<rect x="196.8" y="401.6" class="st0" width="12.1" height="187.2"/>
	<rect x="180.6" y="588.8" class="st0" width="11.2" height="11.2"/>
	<rect x="181" y="388.4" class="st0" width="11.2" height="11.2"/>
	<circle class="st0" cx="332.4" cy="591.2" r="4.3"/>
	<g>
		<path class="st0" d="M151.7,361.7C152.1,361.6,152,361.6,151.7,361.7L151.7,361.7z"/>
		<path class="st0" d="M353.5,598.3c-0.3-8.4-5.9-20.3-21-19.9c-15.7-0.9-21,10.5-21.5,20.1l-96.8-0.6l-0.2-199.2
			c-22-31.5-33.8-41.9-62.4-36.9c-6.4,1.4-16.5-16.3-3.3-17.4c44.6-3.7,80.3,2.1,128-4.6c2.6-0.5,3.8,0.6,4.1,2.2l0,0l0.1,43.1h28
			l-0.2,23h11.2l0.2-23h27.6V33.4h-27.9l0.2-22.5h-11.2l-0.2,22.5h-27.6V254c0,9.8-27.6,23.9-40.4,35.7c-4.4,4.1-10.2,6.3-16.1,6.3
			h-86.9c-68.9,23.3-87.1,53.4-104,101.3c-16,83-8.7,155.1,9.6,228.6c106.8,0,204.8-0.1,311.5-0.1L353.5,598.3z"/>
	</g>
	<rect x="330.6" y="62.4" class="st0" width="11.2" height="11.2"/>
	<rect x="330.6" y="346.4" class="st0" width="11.2" height="11.2"/>
	<rect x="286.6" y="62.4" class="st0" width="11.2" height="11.2"/>
	<rect x="286.6" y="346.4" class="st0" width="11.2" height="11.2"/>
</g>
<path class="st0" d="M563,194.2c9.1,0,15.6,0,15.7,0c0-1.9-0.5-12.4-0.2-15.3c-1-13.7,25.2-17.7,25.8-61.5
	c0.4-24.8-19-55.6-58.4-54.8c-33.2,0.7-58.2,31-56.7,58.4c1.6,28.5,25.9,49.8,26.6,58.4c1.1,13.7,0.2,8.3,0.6,14.8
	c1.3,0,6.6,0,14.1,0v13.6H563V194.2z"/>
</svg>
