<?xml version="1.0" encoding="utf-8"?>
<!-- Generator: Adobe Illustrator 24.3.0, SVG Export Plug-In . SVG Version: 6.00 Build 0)  -->
<svg version="1.1" id="_x30_" xmlns="http://www.w3.org/2000/svg" xmlns:xlink="http://www.w3.org/1999/xlink" x="0px" y="0px"
	 viewBox="0 0 841.9 595.3" style="enable-background:new 0 0 841.9 595.3;" xml:space="preserve">
<style type="text/css">
	.st0{fill:none;stroke:#000000;stroke-width:0.7087;stroke-linecap:round;stroke-linejoin:round;stroke-miterlimit:10;}
</style>
<g id="LINE">
	<line class="st0" x1="255.2" y1="261.7" x2="453.6" y2="261.7"/>
</g>
<g id="LINE_1_">
	<line class="st0" x1="387.8" y1="334.6" x2="586.3" y2="334.6"/>
</g>
<g id="LINE_2_">
	<line class="st0" x1="264.3" y1="419.7" x2="387.8" y2="419.7"/>
</g>
<g id="LINE_3_">
	<line class="st0" x1="280.6" y1="309.2" x2="255.2" y2="334.6"/>
</g>
<g id="LINE_4_">
	<line class="st0" x1="351.5" y1="289.2" x2="326" y2="263.7"/>
</g>
<g id="LINE_5_">
	<line class="st0" x1="311.9" y1="355.6" x2="340.2" y2="355.6"/>
</g>
<g id="LINE_6_">
	<line class="st0" x1="340.2" y1="355.6" x2="340.2" y2="384"/>
</g>
<g id="LINE_7_">
	<line class="st0" x1="340.2" y1="384" x2="311.9" y2="384"/>
</g>
<g id="LINE_8_">
	<line class="st0" x1="311.9" y1="384" x2="311.9" y2="355.6"/>
</g>
<g id="LINE_9_">
	<line class="st0" x1="586.3" y1="419.7" x2="387.8" y2="419.7"/>
</g>
<g id="LINE_10_">
	<line class="st0" x1="430.4" y1="355.6" x2="458.7" y2="355.6"/>
</g>
<g id="LINE_11_">
	<line class="st0" x1="458.7" y1="355.6" x2="458.7" y2="364.6"/>
</g>
<g id="LINE_12_">
	<line class="st0" x1="430.4" y1="355.6" x2="430.4" y2="364.6"/>
</g>
<g id="LINE_13_">
	<line class="st0" x1="543.7" y1="355.6" x2="543.7" y2="384"/>
</g>
<g id="LINE_14_">
	<line class="st0" x1="543.7" y1="355.6" x2="515.4" y2="355.6"/>
</g>
<g id="LINE_15_">
	<line class="st0" x1="515.4" y1="355.6" x2="515.4" y2="384"/>
</g>
<g id="LINE_16_">
	<line class="st0" x1="515.4" y1="384" x2="543.7" y2="384"/>
</g>
<g id="LINE_17_">
	<line class="st0" x1="387.8" y1="334.6" x2="387.8" y2="343.7"/>
</g>
<g id="LINE_18_">
	<line class="st0" x1="387.8" y1="343.7" x2="396.9" y2="343.7"/>
</g>
<g id="LINE_19_">
	<line class="st0" x1="396.9" y1="343.7" x2="396.9" y2="352.8"/>
</g>
<g id="LINE_20_">
	<line class="st0" x1="396.9" y1="352.8" x2="387.8" y2="352.8"/>
</g>
<g id="LINE_21_">
	<line class="st0" x1="387.8" y1="352.8" x2="387.8" y2="361.8"/>
</g>
<g id="LINE_22_">
	<line class="st0" x1="387.8" y1="361.8" x2="396.9" y2="361.8"/>
</g>
<g id="LINE_23_">
	<line class="st0" x1="396.9" y1="361.8" x2="396.9" y2="364.6"/>
</g>
<g id="LINE_24_">
	<line class="st0" x1="396.9" y1="370.9" x2="387.8" y2="370.9"/>
</g>
<g id="LINE_25_">
	<line class="st0" x1="387.8" y1="370.9" x2="387.8" y2="380"/>
</g>
<g id="LINE_26_">
	<line class="st0" x1="387.8" y1="380" x2="396.9" y2="380"/>
</g>
<g id="LINE_27_">
	<line class="st0" x1="396.9" y1="380" x2="396.9" y2="389"/>
</g>
<g id="LINE_28_">
	<line class="st0" x1="396.9" y1="389" x2="387.8" y2="389"/>
</g>
<g id="LINE_29_">
	<line class="st0" x1="387.8" y1="389" x2="387.8" y2="389"/>
</g>
<g id="LINE_30_">
	<line class="st0" x1="387.8" y1="389" x2="396.9" y2="389"/>
</g>
<g id="LINE_31_">
	<line class="st0" x1="387.8" y1="389" x2="387.8" y2="398.1"/>
</g>
<g id="LINE_32_">
	<line class="st0" x1="387.8" y1="398.1" x2="396.9" y2="398.1"/>
</g>
<g id="LINE_33_">
	<line class="st0" x1="396.9" y1="398.1" x2="396.9" y2="407.2"/>
</g>
<g id="LINE_34_">
	<line class="st0" x1="396.9" y1="407.2" x2="387.8" y2="407.2"/>
</g>
<g id="LINE_35_">
	<line class="st0" x1="387.8" y1="407.2" x2="387.8" y2="419.7"/>
</g>
<g id="LINE_36_">
	<line class="st0" x1="264.3" y1="343.7" x2="255.2" y2="343.7"/>
</g>
<g id="LINE_37_">
	<line class="st0" x1="255.2" y1="343.7" x2="255.2" y2="352.8"/>
</g>
<g id="LINE_38_">
	<line class="st0" x1="255.2" y1="352.8" x2="264.3" y2="352.8"/>
</g>
<g id="LINE_39_">
	<line class="st0" x1="264.3" y1="352.8" x2="264.3" y2="361.8"/>
</g>
<g id="LINE_40_">
	<line class="st0" x1="264.3" y1="361.8" x2="255.2" y2="361.8"/>
</g>
<g id="LINE_41_">
	<line class="st0" x1="255.2" y1="361.8" x2="255.2" y2="364.6"/>
</g>
<g id="LINE_42_">
	<line class="st0" x1="255.2" y1="370.9" x2="264.3" y2="370.9"/>
</g>
<g id="LINE_43_">
	<line class="st0" x1="264.3" y1="370.9" x2="264.3" y2="380"/>
</g>
<g id="LINE_44_">
	<line class="st0" x1="264.3" y1="380" x2="255.2" y2="380"/>
</g>
<g id="LINE_45_">
	<line class="st0" x1="255.2" y1="380" x2="255.2" y2="389"/>
</g>
<g id="LINE_46_">
	<line class="st0" x1="255.2" y1="389" x2="264.3" y2="389"/>
</g>
<g id="LINE_47_">
	<line class="st0" x1="264.3" y1="389" x2="264.3" y2="389"/>
</g>
<g id="LINE_48_">
	<line class="st0" x1="264.3" y1="389" x2="255.2" y2="389"/>
</g>
<g id="LINE_49_">
	<line class="st0" x1="264.3" y1="389" x2="264.3" y2="398.1"/>
</g>
<g id="LINE_50_">
	<line class="st0" x1="264.3" y1="398.1" x2="255.2" y2="398.1"/>
</g>
<g id="LINE_51_">
	<line class="st0" x1="255.2" y1="398.1" x2="255.2" y2="407.2"/>
</g>
<g id="LINE_52_">
	<line class="st0" x1="255.2" y1="407.2" x2="264.3" y2="407.2"/>
</g>
<g id="LINE_53_">
	<line class="st0" x1="264.3" y1="407.2" x2="264.3" y2="419.7"/>
</g>
<g id="LINE_54_">
	<line class="st0" x1="264.3" y1="334.6" x2="264.3" y2="343.7"/>
</g>
<g id="LINE_55_">
	<line class="st0" x1="255.2" y1="334.6" x2="264.3" y2="334.6"/>
</g>
<g id="LINE_56_">
	<line class="st0" x1="586.3" y1="334.6" x2="586.3" y2="343.7"/>
</g>
<g id="LINE_57_">
	<line class="st0" x1="586.3" y1="343.7" x2="577.2" y2="343.7"/>
</g>
<g id="LINE_58_">
	<line class="st0" x1="577.2" y1="343.7" x2="577.2" y2="352.8"/>
</g>
<g id="LINE_59_">
	<line class="st0" x1="577.2" y1="352.8" x2="586.3" y2="352.8"/>
</g>
<g id="LINE_60_">
	<line class="st0" x1="586.3" y1="352.8" x2="586.3" y2="361.8"/>
</g>
<g id="LINE_61_">
	<line class="st0" x1="586.3" y1="361.8" x2="577.2" y2="361.8"/>
</g>
<g id="LINE_62_">
	<line class="st0" x1="577.2" y1="361.8" x2="577.2" y2="364.6"/>
</g>
<g id="LINE_63_">
	<line class="st0" x1="577.2" y1="370.9" x2="586.3" y2="370.9"/>
</g>
<g id="LINE_64_">
	<line class="st0" x1="586.3" y1="370.9" x2="586.3" y2="380"/>
</g>
<g id="LINE_65_">
	<line class="st0" x1="586.3" y1="380" x2="577.2" y2="380"/>
</g>
<g id="LINE_66_">
	<line class="st0" x1="577.2" y1="380" x2="577.2" y2="389"/>
</g>
<g id="LINE_67_">
	<line class="st0" x1="577.2" y1="389" x2="586.3" y2="389"/>
</g>
<g id="LINE_68_">
	<line class="st0" x1="586.3" y1="389" x2="586.3" y2="389"/>
</g>
<g id="LINE_69_">
	<line class="st0" x1="586.3" y1="389" x2="577.2" y2="389"/>
</g>
<g id="LINE_70_">
	<line class="st0" x1="586.3" y1="389" x2="586.3" y2="398.1"/>
</g>
<g id="LINE_71_">
	<line class="st0" x1="586.3" y1="398.1" x2="577.2" y2="398.1"/>
</g>
<g id="LINE_72_">
	<line class="st0" x1="577.2" y1="398.1" x2="577.2" y2="407.2"/>
</g>
<g id="LINE_73_">
	<line class="st0" x1="577.2" y1="407.2" x2="586.3" y2="407.2"/>
</g>
<g id="LINE_74_">
	<line class="st0" x1="586.3" y1="407.2" x2="586.3" y2="419.7"/>
</g>
<g id="LINE_75_">
	<line class="st0" x1="453.6" y1="176.6" x2="255.2" y2="176.6"/>
</g>
<g id="LINE_76_">
	<line class="st0" x1="297.7" y1="240.7" x2="326" y2="240.7"/>
</g>
<g id="LINE_77_">
	<line class="st0" x1="326" y1="240.7" x2="326" y2="212.3"/>
</g>
<g id="LINE_78_">
	<line class="st0" x1="297.7" y1="240.7" x2="297.7" y2="212.3"/>
</g>
<g id="LINE_79_">
	<line class="st0" x1="411.1" y1="240.7" x2="411.1" y2="212.3"/>
</g>
<g id="LINE_80_">
	<line class="st0" x1="411.1" y1="240.7" x2="382.7" y2="240.7"/>
</g>
<g id="LINE_81_">
	<line class="st0" x1="382.7" y1="240.7" x2="382.7" y2="212.3"/>
</g>
<g id="LINE_82_">
	<line class="st0" x1="382.7" y1="212.3" x2="411.1" y2="212.3"/>
</g>
<g id="LINE_83_">
	<line class="st0" x1="255.2" y1="261.7" x2="255.2" y2="252.6"/>
</g>
<g id="LINE_84_">
	<line class="st0" x1="255.2" y1="252.6" x2="264.3" y2="252.6"/>
</g>
<g id="LINE_85_">
	<line class="st0" x1="264.3" y1="252.6" x2="264.3" y2="243.5"/>
</g>
<g id="LINE_86_">
	<line class="st0" x1="264.3" y1="243.5" x2="255.2" y2="243.5"/>
</g>
<g id="LINE_87_">
	<line class="st0" x1="255.2" y1="243.5" x2="255.2" y2="234.5"/>
</g>
<g id="LINE_88_">
	<line class="st0" x1="255.2" y1="234.5" x2="264.3" y2="234.5"/>
</g>
<g id="LINE_89_">
	<line class="st0" x1="264.3" y1="234.5" x2="264.3" y2="225.4"/>
</g>
<g id="LINE_90_">
	<line class="st0" x1="264.3" y1="225.4" x2="255.2" y2="225.4"/>
</g>
<g id="LINE_91_">
	<line class="st0" x1="255.2" y1="225.4" x2="255.2" y2="224.1"/>
</g>
<g id="LINE_92_">
	<line class="st0" x1="255.2" y1="216.3" x2="264.3" y2="216.3"/>
</g>
<g id="LINE_93_">
	<line class="st0" x1="264.3" y1="216.3" x2="264.3" y2="207.2"/>
</g>
<g id="LINE_94_">
	<line class="st0" x1="264.3" y1="207.2" x2="255.2" y2="207.2"/>
</g>
<g id="LINE_95_">
	<line class="st0" x1="255.2" y1="207.2" x2="255.2" y2="207.2"/>
</g>
<g id="LINE_96_">
	<line class="st0" x1="255.2" y1="207.2" x2="264.3" y2="207.2"/>
</g>
<g id="LINE_97_">
	<line class="st0" x1="255.2" y1="207.2" x2="255.2" y2="198.2"/>
</g>
<g id="LINE_98_">
	<line class="st0" x1="255.2" y1="198.2" x2="264.3" y2="198.2"/>
</g>
<g id="LINE_99_">
	<line class="st0" x1="264.3" y1="198.2" x2="264.3" y2="189.1"/>
</g>
<g id="LINE_100_">
	<line class="st0" x1="264.3" y1="189.1" x2="255.2" y2="189.1"/>
</g>
<g id="LINE_101_">
	<line class="st0" x1="255.2" y1="189.1" x2="255.2" y2="176.6"/>
</g>
<g id="LINE_102_">
	<line class="st0" x1="593" y1="414.9" x2="716.5" y2="414.9"/>
</g>
<g id="LINE_103_">
	<line class="st0" x1="602.1" y1="188.1" x2="716.5" y2="188.1"/>
</g>
<g id="LINE_104_">
	<line class="st0" x1="716.5" y1="414.9" x2="716.5" y2="365.4"/>
</g>
<g id="LINE_105_">
	<line class="st0" x1="593" y1="414.9" x2="593" y2="400.7"/>
</g>
<g id="LINE_106_">
	<line class="st0" x1="593" y1="400.7" x2="602.1" y2="400.7"/>
</g>
<g id="LINE_107_">
	<line class="st0" x1="602.1" y1="400.7" x2="602.1" y2="386.5"/>
</g>
<g id="LINE_108_">
	<line class="st0" x1="602.1" y1="386.5" x2="593" y2="386.5"/>
</g>
<g id="LINE_109_">
	<line class="st0" x1="593" y1="386.5" x2="593" y2="372.4"/>
</g>
<g id="LINE_110_">
	<line class="st0" x1="593" y1="372.4" x2="602.1" y2="372.4"/>
</g>
<g id="LINE_111_">
	<line class="st0" x1="602.1" y1="372.4" x2="602.1" y2="358.2"/>
</g>
<g id="LINE_112_">
	<line class="st0" x1="602.1" y1="358.2" x2="593" y2="358.2"/>
</g>
<g id="LINE_113_">
	<line class="st0" x1="593" y1="358.2" x2="593" y2="344"/>
</g>
<g id="LINE_114_">
	<line class="st0" x1="593" y1="344" x2="602.1" y2="344"/>
</g>
<g id="LINE_115_">
	<line class="st0" x1="602.1" y1="344" x2="602.1" y2="329.8"/>
</g>
<g id="LINE_116_">
	<line class="st0" x1="602.1" y1="329.8" x2="593" y2="329.8"/>
</g>
<g id="LINE_117_">
	<line class="st0" x1="593" y1="329.8" x2="593" y2="315.7"/>
</g>
<g id="LINE_118_">
	<line class="st0" x1="593" y1="315.7" x2="602.1" y2="315.7"/>
</g>
<g id="LINE_119_">
	<line class="st0" x1="602.1" y1="315.7" x2="602.1" y2="301.5"/>
</g>
<g id="LINE_120_">
	<line class="st0" x1="602.1" y1="301.5" x2="593" y2="301.5"/>
</g>
<g id="LINE_121_">
	<line class="st0" x1="593" y1="301.5" x2="593" y2="287.3"/>
</g>
<g id="LINE_122_">
	<line class="st0" x1="593" y1="287.3" x2="602.1" y2="287.3"/>
</g>
<g id="LINE_123_">
	<line class="st0" x1="602.1" y1="287.3" x2="602.1" y2="273.1"/>
</g>
<g id="LINE_124_">
	<line class="st0" x1="602.1" y1="273.1" x2="593" y2="273.1"/>
</g>
<g id="LINE_125_">
	<line class="st0" x1="593" y1="273.1" x2="593" y2="259"/>
</g>
<g id="LINE_126_">
	<line class="st0" x1="593" y1="259" x2="602.1" y2="259"/>
</g>
<g id="LINE_127_">
	<line class="st0" x1="602.1" y1="259" x2="602.1" y2="244.8"/>
</g>
<g id="LINE_128_">
	<line class="st0" x1="602.1" y1="244.8" x2="593" y2="244.8"/>
</g>
<g id="LINE_129_">
	<line class="st0" x1="593" y1="244.8" x2="593" y2="230.6"/>
</g>
<g id="LINE_130_">
	<line class="st0" x1="593" y1="230.6" x2="602.1" y2="230.6"/>
</g>
<g id="LINE_131_">
	<line class="st0" x1="602.1" y1="230.6" x2="602.1" y2="224.1"/>
</g>
<g id="LINE_132_">
	<line class="st0" x1="602.1" y1="216.4" x2="593" y2="216.4"/>
</g>
<g id="LINE_133_">
	<line class="st0" x1="593" y1="216.4" x2="593" y2="202.3"/>
</g>
<g id="LINE_134_">
	<line class="st0" x1="593" y1="202.3" x2="602.1" y2="202.3"/>
</g>
<g id="LINE_135_">
	<line class="st0" x1="602.1" y1="202.3" x2="602.1" y2="188.1"/>
</g>
<g id="LINE_136_">
	<line class="st0" x1="274.2" y1="302.8" x2="294.2" y2="282.7"/>
</g>
<g id="LINE_137_">
	<line class="st0" x1="274.2" y1="302.8" x2="280.6" y2="309.2"/>
</g>
<g id="LINE_138_">
	<line class="st0" x1="294.2" y1="282.7" x2="300.6" y2="289.2"/>
</g>
<g id="LINE_139_">
	<line class="st0" x1="377.9" y1="302.8" x2="357.9" y2="282.7"/>
</g>
<g id="LINE_140_">
	<line class="st0" x1="357.9" y1="282.7" x2="351.5" y2="289.2"/>
</g>
<g id="LINE_141_">
	<line class="st0" x1="377.9" y1="302.8" x2="371.5" y2="309.2"/>
</g>
<g id="LINE_142_">
	<line class="st0" x1="638" y1="400.7" x2="666.4" y2="400.7"/>
</g>
<g id="LINE_143_">
	<line class="st0" x1="666.4" y1="400.7" x2="666.4" y2="391.6"/>
</g>
<g id="LINE_144_">
	<line class="st0" x1="666.4" y1="391.6" x2="638" y2="391.6"/>
</g>
<g id="LINE_145_">
	<line class="st0" x1="638" y1="391.6" x2="638" y2="400.7"/>
</g>
<g id="LINE_146_">
	<line class="st0" x1="638" y1="202.3" x2="666.4" y2="202.3"/>
</g>
<g id="LINE_147_">
	<line class="st0" x1="666.4" y1="202.3" x2="666.4" y2="211.3"/>
</g>
<g id="LINE_148_">
	<line class="st0" x1="666.4" y1="211.3" x2="638" y2="211.3"/>
</g>
<g id="LINE_149_">
	<line class="st0" x1="638" y1="211.3" x2="638" y2="202.3"/>
</g>
<g id="LINE_150_">
	<line class="st0" x1="371.5" y1="309.2" x2="396.9" y2="334.6"/>
</g>
<g id="LINE_151_">
	<line class="st0" x1="300.6" y1="289.2" x2="326" y2="263.7"/>
</g>
<g id="LINE_152_">
	<line class="st0" x1="326" y1="212.3" x2="297.7" y2="212.3"/>
</g>
<g id="LINE_153_">
	<line class="st0" x1="250.3" y1="186.6" x2="126.9" y2="186.6"/>
</g>
<g id="LINE_154_">
	<line class="st0" x1="241.3" y1="413.3" x2="126.9" y2="413.3"/>
</g>
<g id="LINE_155_">
	<line class="st0" x1="126.9" y1="186.6" x2="126.9" y2="223.3"/>
</g>
<g id="LINE_156_">
	<line class="st0" x1="250.3" y1="186.6" x2="250.3" y2="200.7"/>
</g>
<g id="LINE_157_">
	<line class="st0" x1="250.3" y1="200.7" x2="241.3" y2="200.7"/>
</g>
<g id="LINE_158_">
	<line class="st0" x1="241.3" y1="200.7" x2="241.3" y2="214.9"/>
</g>
<g id="LINE_159_">
	<line class="st0" x1="241.3" y1="214.9" x2="250.3" y2="214.9"/>
</g>
<g id="LINE_160_">
	<line class="st0" x1="250.3" y1="214.9" x2="250.3" y2="223.3"/>
</g>
<g id="LINE_161_">
	<line class="st0" x1="250.3" y1="229.1" x2="241.3" y2="229.1"/>
</g>
<g id="LINE_162_">
	<line class="st0" x1="241.3" y1="229.1" x2="241.3" y2="243.3"/>
</g>
<g id="LINE_163_">
	<line class="st0" x1="241.3" y1="243.3" x2="250.3" y2="243.3"/>
</g>
<g id="LINE_164_">
	<line class="st0" x1="250.3" y1="243.3" x2="250.3" y2="257.4"/>
</g>
<g id="LINE_165_">
	<line class="st0" x1="250.3" y1="257.4" x2="241.3" y2="257.4"/>
</g>
<g id="LINE_166_">
	<line class="st0" x1="241.3" y1="257.4" x2="241.3" y2="271.6"/>
</g>
<g id="LINE_167_">
	<line class="st0" x1="241.3" y1="271.6" x2="250.3" y2="271.6"/>
</g>
<g id="LINE_168_">
	<line class="st0" x1="250.3" y1="271.6" x2="250.3" y2="285.8"/>
</g>
<g id="LINE_169_">
	<line class="st0" x1="250.3" y1="285.8" x2="241.3" y2="285.8"/>
</g>
<g id="LINE_170_">
	<line class="st0" x1="241.3" y1="285.8" x2="241.3" y2="300"/>
</g>
<g id="LINE_171_">
	<line class="st0" x1="241.3" y1="300" x2="250.3" y2="300"/>
</g>
<g id="LINE_172_">
	<line class="st0" x1="250.3" y1="300" x2="250.3" y2="314.1"/>
</g>
<g id="LINE_173_">
	<line class="st0" x1="250.3" y1="314.1" x2="241.3" y2="314.1"/>
</g>
<g id="LINE_174_">
	<line class="st0" x1="241.3" y1="314.1" x2="241.3" y2="328.3"/>
</g>
<g id="LINE_175_">
	<line class="st0" x1="241.3" y1="328.3" x2="250.3" y2="328.3"/>
</g>
<g id="LINE_176_">
	<line class="st0" x1="250.3" y1="328.3" x2="250.3" y2="342.5"/>
</g>
<g id="LINE_177_">
	<line class="st0" x1="250.3" y1="342.5" x2="241.3" y2="342.5"/>
</g>
<g id="LINE_178_">
	<line class="st0" x1="241.3" y1="342.5" x2="241.3" y2="356.6"/>
</g>
<g id="LINE_179_">
	<line class="st0" x1="241.3" y1="356.6" x2="250.3" y2="356.6"/>
</g>
<g id="LINE_180_">
	<line class="st0" x1="250.3" y1="356.6" x2="250.3" y2="364.6"/>
</g>
<g id="LINE_181_">
	<line class="st0" x1="250.3" y1="370.8" x2="241.3" y2="370.8"/>
</g>
<g id="LINE_182_">
	<line class="st0" x1="241.3" y1="370.8" x2="241.3" y2="385"/>
</g>
<g id="LINE_183_">
	<line class="st0" x1="241.3" y1="385" x2="250.3" y2="385"/>
</g>
<g id="LINE_184_">
	<line class="st0" x1="250.3" y1="385" x2="250.3" y2="399.2"/>
</g>
<g id="LINE_185_">
	<line class="st0" x1="250.3" y1="399.2" x2="241.3" y2="399.2"/>
</g>
<g id="LINE_186_">
	<line class="st0" x1="241.3" y1="399.2" x2="241.3" y2="413.3"/>
</g>
<g id="LINE_187_">
	<line class="st0" x1="205.3" y1="200.7" x2="177" y2="200.7"/>
</g>
<g id="LINE_188_">
	<line class="st0" x1="177" y1="200.7" x2="177" y2="209.8"/>
</g>
<g id="LINE_189_">
	<line class="st0" x1="177" y1="209.8" x2="205.3" y2="209.8"/>
</g>
<g id="LINE_190_">
	<line class="st0" x1="205.3" y1="209.8" x2="205.3" y2="200.7"/>
</g>
<g id="LINE_191_">
	<line class="st0" x1="205.3" y1="399.2" x2="177" y2="399.2"/>
</g>
<g id="LINE_192_">
	<line class="st0" x1="177" y1="399.2" x2="177" y2="390.1"/>
</g>
<g id="LINE_193_">
	<line class="st0" x1="177" y1="390.1" x2="205.3" y2="390.1"/>
</g>
<g id="LINE_194_">
	<line class="st0" x1="205.3" y1="390.1" x2="205.3" y2="399.2"/>
</g>
<g id="LINE_195_">
	<line class="st0" x1="577.2" y1="176.6" x2="453.6" y2="176.6"/>
</g>
<g id="LINE_196_">
	<line class="st0" x1="560.9" y1="287.1" x2="586.3" y2="261.7"/>
</g>
<g id="LINE_197_">
	<line class="st0" x1="490" y1="307.1" x2="515.4" y2="332.5"/>
</g>
<g id="LINE_198_">
	<line class="st0" x1="529.6" y1="240.7" x2="501.2" y2="240.7"/>
</g>
<g id="LINE_199_">
	<line class="st0" x1="501.2" y1="240.7" x2="501.2" y2="212.3"/>
</g>
<g id="LINE_200_">
	<line class="st0" x1="501.2" y1="212.3" x2="529.6" y2="212.3"/>
</g>
<g id="LINE_201_">
	<line class="st0" x1="529.6" y1="212.3" x2="529.6" y2="240.7"/>
</g>
<g id="LINE_202_">
	<line class="st0" x1="453.6" y1="261.7" x2="453.6" y2="252.6"/>
</g>
<g id="LINE_203_">
	<line class="st0" x1="453.6" y1="252.6" x2="444.5" y2="252.6"/>
</g>
<g id="LINE_204_">
	<line class="st0" x1="444.5" y1="252.6" x2="444.5" y2="243.5"/>
</g>
<g id="LINE_205_">
	<line class="st0" x1="444.5" y1="243.5" x2="453.6" y2="243.5"/>
</g>
<g id="LINE_206_">
	<line class="st0" x1="453.6" y1="243.5" x2="453.6" y2="234.5"/>
</g>
<g id="LINE_207_">
	<line class="st0" x1="453.6" y1="234.5" x2="444.5" y2="234.5"/>
</g>
<g id="LINE_208_">
	<line class="st0" x1="444.5" y1="234.5" x2="444.5" y2="225.4"/>
</g>
<g id="LINE_209_">
	<line class="st0" x1="444.5" y1="225.4" x2="453.6" y2="225.4"/>
</g>
<g id="LINE_210_">
	<line class="st0" x1="453.6" y1="225.4" x2="453.6" y2="224.1"/>
</g>
<g id="LINE_211_">
	<line class="st0" x1="453.6" y1="216.3" x2="444.5" y2="216.3"/>
</g>
<g id="LINE_212_">
	<line class="st0" x1="444.5" y1="216.3" x2="444.5" y2="207.2"/>
</g>
<g id="LINE_213_">
	<line class="st0" x1="444.5" y1="207.2" x2="453.6" y2="207.2"/>
</g>
<g id="LINE_214_">
	<line class="st0" x1="453.6" y1="207.2" x2="453.6" y2="207.2"/>
</g>
<g id="LINE_215_">
	<line class="st0" x1="453.6" y1="207.2" x2="444.5" y2="207.2"/>
</g>
<g id="LINE_216_">
	<line class="st0" x1="453.6" y1="207.2" x2="453.6" y2="198.2"/>
</g>
<g id="LINE_217_">
	<line class="st0" x1="453.6" y1="198.2" x2="444.5" y2="198.2"/>
</g>
<g id="LINE_218_">
	<line class="st0" x1="444.5" y1="198.2" x2="444.5" y2="189.1"/>
</g>
<g id="LINE_219_">
	<line class="st0" x1="444.5" y1="189.1" x2="453.6" y2="189.1"/>
</g>
<g id="LINE_220_">
	<line class="st0" x1="453.6" y1="189.1" x2="453.6" y2="176.6"/>
</g>
<g id="LINE_221_">
	<line class="st0" x1="577.2" y1="252.6" x2="586.3" y2="252.6"/>
</g>
<g id="LINE_222_">
	<line class="st0" x1="586.3" y1="252.6" x2="586.3" y2="243.5"/>
</g>
<g id="LINE_223_">
	<line class="st0" x1="586.3" y1="243.5" x2="577.2" y2="243.5"/>
</g>
<g id="LINE_224_">
	<line class="st0" x1="577.2" y1="243.5" x2="577.2" y2="234.5"/>
</g>
<g id="LINE_225_">
	<line class="st0" x1="577.2" y1="234.5" x2="586.3" y2="234.5"/>
</g>
<g id="LINE_226_">
	<line class="st0" x1="586.3" y1="234.5" x2="586.3" y2="225.4"/>
</g>
<g id="LINE_227_">
	<line class="st0" x1="586.3" y1="225.4" x2="577.2" y2="225.4"/>
</g>
<g id="LINE_228_">
	<line class="st0" x1="577.2" y1="225.4" x2="577.2" y2="224.1"/>
</g>
<g id="LINE_229_">
	<line class="st0" x1="577.2" y1="216.3" x2="586.3" y2="216.3"/>
</g>
<g id="LINE_230_">
	<line class="st0" x1="586.3" y1="216.3" x2="586.3" y2="207.2"/>
</g>
<g id="LINE_231_">
	<line class="st0" x1="586.3" y1="207.2" x2="577.2" y2="207.2"/>
</g>
<g id="LINE_232_">
	<line class="st0" x1="577.2" y1="207.2" x2="577.2" y2="207.2"/>
</g>
<g id="LINE_233_">
	<line class="st0" x1="577.2" y1="207.2" x2="586.3" y2="207.2"/>
</g>
<g id="LINE_234_">
	<line class="st0" x1="577.2" y1="207.2" x2="577.2" y2="198.2"/>
</g>
<g id="LINE_235_">
	<line class="st0" x1="577.2" y1="198.2" x2="586.3" y2="198.2"/>
</g>
<g id="LINE_236_">
	<line class="st0" x1="586.3" y1="198.2" x2="586.3" y2="189.1"/>
</g>
<g id="LINE_237_">
	<line class="st0" x1="586.3" y1="189.1" x2="577.2" y2="189.1"/>
</g>
<g id="LINE_238_">
	<line class="st0" x1="577.2" y1="189.1" x2="577.2" y2="176.6"/>
</g>
<g id="LINE_239_">
	<line class="st0" x1="577.2" y1="261.7" x2="577.2" y2="252.6"/>
</g>
<g id="LINE_240_">
	<line class="st0" x1="586.3" y1="261.7" x2="577.2" y2="261.7"/>
</g>
<g id="LINE_241_">
	<line class="st0" x1="567.3" y1="293.5" x2="547.2" y2="313.5"/>
</g>
<g id="LINE_242_">
	<line class="st0" x1="567.3" y1="293.5" x2="560.9" y2="287.1"/>
</g>
<g id="LINE_243_">
	<line class="st0" x1="547.2" y1="313.5" x2="540.8" y2="307.1"/>
</g>
<g id="LINE_244_">
	<line class="st0" x1="463.5" y1="293.5" x2="483.6" y2="313.5"/>
</g>
<g id="LINE_245_">
	<line class="st0" x1="483.6" y1="313.5" x2="490" y2="307.1"/>
</g>
<g id="LINE_246_">
	<line class="st0" x1="463.5" y1="293.5" x2="469.9" y2="287.1"/>
</g>
<g id="LINE_247_">
	<line class="st0" x1="469.9" y1="287.1" x2="444.5" y2="261.7"/>
</g>
<g id="LINE_248_">
	<line class="st0" x1="540.8" y1="307.1" x2="515.4" y2="332.5"/>
</g>
<g id="LINE_249_">
	<line class="st0" x1="250.3" y1="224.1" x2="250.3" y2="229.1"/>
</g>
<g id="LINE_250_">
	<line class="st0" x1="255.2" y1="223.3" x2="255.2" y2="216.3"/>
</g>
<g id="LINE_251_">
	<line class="st0" x1="126.9" y1="224.1" x2="126.9" y2="413.3"/>
</g>
<g id="LINE_252_">
	<line class="st0" x1="453.6" y1="223.3" x2="453.6" y2="216.3"/>
</g>
<g id="LINE_253_">
	<line class="st0" x1="577.2" y1="223.3" x2="577.2" y2="216.3"/>
</g>
<g id="LINE_254_">
	<line class="st0" x1="602.1" y1="223.3" x2="602.1" y2="216.4"/>
</g>
<g id="LINE_255_">
	<line class="st0" x1="716.5" y1="223.3" x2="716.5" y2="188.1"/>
</g>
<g id="LINE_256_">
	<line class="st0" x1="255.2" y1="365.4" x2="255.2" y2="370.9"/>
</g>
<g id="LINE_257_">
	<line class="st0" x1="396.9" y1="365.4" x2="396.9" y2="370.9"/>
</g>
<g id="LINE_258_">
	<line class="st0" x1="577.2" y1="365.4" x2="577.2" y2="370.9"/>
</g>
<g id="LINE_259_">
	<line class="st0" x1="458.7" y1="365.4" x2="458.7" y2="419.7"/>
</g>
<g id="LINE_260_">
	<line class="st0" x1="430.4" y1="365.4" x2="430.4" y2="419.7"/>
</g>
<g id="LINE_261_">
	<line class="st0" x1="716.5" y1="364.6" x2="716.5" y2="224.1"/>
</g>
<g id="LINE_262_">
	<line class="st0" x1="250.3" y1="365.4" x2="250.3" y2="370.8"/>
</g>
<g id="LINE_263_">
	<line class="st0" x1="121.4" y1="171" x2="721.6" y2="171"/>
</g>
<g id="LINE_264_">
	<line class="st0" x1="721.6" y1="171" x2="721.6" y2="423.6"/>
</g>
<g id="LINE_265_">
	<line class="st0" x1="721.6" y1="423.6" x2="121.4" y2="423.6"/>
</g>
<g id="LINE_266_">
	<line class="st0" x1="121.4" y1="171" x2="121.4" y2="423.6"/>
</g>
</svg>
