<?xml version="1.0" encoding="UTF-8" standalone="no"?>
<!-- Generator: Adobe Illustrator 16.0.0, SVG Export Plug-In . SVG Version: 6.00 Build 0)  -->

<svg
   xmlns:dc="http://purl.org/dc/elements/1.1/"
   xmlns:cc="http://creativecommons.org/ns#"
   xmlns:rdf="http://www.w3.org/1999/02/22-rdf-syntax-ns#"
   xmlns:svg="http://www.w3.org/2000/svg"
   xmlns="http://www.w3.org/2000/svg"
   xmlns:sodipodi="http://sodipodi.sourceforge.net/DTD/sodipodi-0.dtd"
   xmlns:inkscape="http://www.inkscape.org/namespaces/inkscape"
   version="1.1"
   id="Layer_1"
   x="0px"
   y="0px"
   width="555.58789"
   height="569.76379"
   viewBox="0 0 555.58791 569.76379"
   enable-background="new 0 0 609.449 623.622"
   xml:space="preserve"
   inkscape:version="0.91 r13725"
   sodipodi:docname="4_candle_holder.svg"><metadata
     id="metadata23"><rdf:RDF><cc:Work
         rdf:about=""><dc:format>image/svg+xml</dc:format><dc:type
           rdf:resource="http://purl.org/dc/dcmitype/StillImage" /></cc:Work></rdf:RDF></metadata><defs
     id="defs21" /><sodipodi:namedview
     pagecolor="#ffffff"
     bordercolor="#666666"
     borderopacity="1"
     objecttolerance="10"
     gridtolerance="10"
     guidetolerance="10"
     inkscape:pageopacity="0"
     inkscape:pageshadow="2"
     inkscape:window-width="640"
     inkscape:window-height="480"
     id="namedview19"
     showgrid="false"
     inkscape:zoom="0.37843437"
     inkscape:cx="277.79079"
     inkscape:cy="284.88148"
     inkscape:window-x="0"
     inkscape:window-y="25"
     inkscape:window-maximized="0"
     inkscape:current-layer="Layer_1" /><polygon
     stroke-miterlimit="10"
     points="97.799,255.591 97.799,244.252 89.295,244.252 89.295,255.591 28.351,255.591 28.351,187.56 39.689,187.56 39.689,232.915 147.407,232.915 147.407,187.56 158.745,187.56 158.745,255.591 "
     id="polygon3"
     style="fill:none;stroke:#ed2224;stroke-width:2.83459997;stroke-linecap:round;stroke-linejoin:round;stroke-miterlimit:10"
     transform="translate(-26.9337,-26.9287)" /><polygon
     stroke-miterlimit="10"
     points="39.689,73.701 89.296,73.701 89.296,85.039 97.8,85.039 97.8,73.701 147.406,73.701 147.406,28.346 158.745,28.346 158.745,96.378 113.667,96.378 243.785,185.147 243.785,28.346 255.123,28.346 255.123,73.701 300.476,73.701 266.46,85.039 266.46,112.416 255.123,112.416 255.123,120.919 266.46,120.919 266.46,149.266 255.123,149.266 255.123,157.77 266.46,157.77 266.46,228.069 168.666,311.812 243.785,212.598 73.429,96.378 28.351,96.378 28.351,28.346 39.689,28.346 "
     id="polygon5"
     style="fill:none;stroke:#ed2224;stroke-width:2.83459997;stroke-linecap:round;stroke-linejoin:round;stroke-miterlimit:10"
     transform="translate(-26.9337,-26.9287)" /><polygon
     stroke-miterlimit="10"
     points="378.429,255.592 378.429,244.252 369.925,244.252 369.925,255.592 308.98,255.592 308.98,187.561 320.319,187.561 320.319,232.914 428.036,232.914 428.036,187.561 439.374,187.561 439.374,255.592 "
     id="polygon7"
     style="fill:none;stroke:#ed2224;stroke-width:2.83459997;stroke-linecap:round;stroke-linejoin:round;stroke-miterlimit:10"
     transform="translate(-26.9337,-26.9287)" /><polygon
     stroke-miterlimit="10"
     points="320.319,73.701 369.925,73.701 369.925,85.039 378.429,85.039 378.429,73.701 428.036,73.701 428.036,28.346 439.374,28.346 439.374,96.378 394.296,96.378 524.415,185.146 524.415,28.346 535.752,28.346 535.752,73.701 581.105,73.701 547.091,85.039 547.091,112.416 535.752,112.416 535.752,120.92 547.091,120.92 547.091,149.266 535.752,149.266 535.752,157.77 547.091,157.77 547.091,228.068 449.295,311.812 524.415,212.598 354.058,96.378 308.98,96.378 308.98,28.346 320.319,28.346 "
     id="polygon9"
     style="fill:none;stroke:#ed2224;stroke-width:2.83459997;stroke-linecap:round;stroke-linejoin:round;stroke-miterlimit:10"
     transform="translate(-26.9337,-26.9287)" /><polygon
     stroke-miterlimit="10"
     points="97.799,539.057 97.799,527.717 89.295,527.717 89.295,539.057 28.351,539.057 28.351,471.026 39.688,471.026 39.688,516.379 147.406,516.379 147.406,471.026 158.744,471.026 158.744,539.057 "
     id="polygon11"
     style="fill:none;stroke:#ed2224;stroke-width:2.83459997;stroke-linecap:round;stroke-linejoin:round;stroke-miterlimit:10"
     transform="translate(-26.9337,-26.9287)" /><polygon
     stroke-miterlimit="10"
     points="39.688,357.167 89.296,357.167 89.296,368.504 97.8,368.504 97.8,357.167 147.405,357.167 147.405,311.811 158.744,311.811 158.744,379.842 113.667,379.842 243.784,468.612 243.784,311.811 255.122,311.811 255.122,357.167 300.476,357.167 266.46,368.504 266.46,395.881 255.122,395.881 255.122,404.385 266.46,404.385 266.46,432.731 255.122,432.731 255.122,441.235 266.46,441.235 266.46,511.534 168.665,595.276 243.784,496.063 73.429,379.842 28.351,379.842 28.351,311.811 39.688,311.811 "
     id="polygon13"
     style="fill:none;stroke:#ed2224;stroke-width:2.83459997;stroke-linecap:round;stroke-linejoin:round;stroke-miterlimit:10"
     transform="translate(-26.9337,-26.9287)" /><polygon
     stroke-miterlimit="10"
     points="378.429,345.929 385.516,345.929 385.516,404.579 436.309,433.905 432.765,440.042 422.945,434.374 418.693,441.737 428.513,447.407 424.97,453.543 374.177,424.219 323.384,453.543 319.841,447.407 329.66,441.737 325.408,434.374 315.589,440.042 312.045,433.905 362.838,404.579 362.838,345.929 369.925,345.929 369.925,357.268 378.429,357.268 "
     id="polygon15"
     style="fill:none;stroke:#ed2224;stroke-width:2.83459997;stroke-linecap:round;stroke-linejoin:round;stroke-miterlimit:10"
     transform="translate(-26.9337,-26.9287)" /><polygon
     stroke-miterlimit="10"
     points="378.429,453.543 385.516,453.543 385.516,512.194 436.309,541.52 432.765,547.657 422.945,541.989 418.693,549.352 428.513,555.022 424.97,561.159 374.177,531.834 323.384,561.159 319.841,555.022 329.66,549.352 325.408,541.989 315.589,547.657 312.045,541.52 362.838,512.194 362.838,453.543 369.925,453.543 369.925,464.883 378.429,464.883 "
     id="polygon17"
     style="fill:none;stroke:#ed2224;stroke-width:2.83459997;stroke-linecap:round;stroke-linejoin:round;stroke-miterlimit:10"
     transform="translate(-26.9337,-26.9287)" /></svg>