<?xml version="1.0" encoding="utf-8"?>
<!-- Generator: Adobe Illustrator 24.3.0, SVG Export Plug-In . SVG Version: 6.00 Build 0)  -->
<svg version="1.1" id="Layer_1" xmlns="http://www.w3.org/2000/svg" xmlns:xlink="http://www.w3.org/1999/xlink" x="0px" y="0px"
	 viewBox="0 0 841.9 841.9" style="enable-background:new 0 0 841.9 841.9;" xml:space="preserve">
<style type="text/css">
	.st0{fill:none;stroke:#000000;stroke-width:0.5669;stroke-miterlimit:22.9256;}
</style>
<ellipse transform="matrix(0.7071 -0.7071 0.7071 0.7071 104.7706 538.2627)" class="st0" cx="702.1" cy="142.7" rx="119.1" ry="119.1"/>
<polygon class="st0" points="574.6,15.1 631.3,15.1 631.3,4.3 659.6,4.3 659.6,15.1 744.6,15.1 744.6,4.3 773,4.3 773,15.1 
	829.7,15.1 829.7,71.8 840.5,71.8 840.5,100.1 829.7,100.1 829.7,185.2 840.5,185.2 840.5,213.5 829.7,213.5 829.7,270.2 773,270.2 
	773,281 744.6,281 744.6,270.2 659.6,270.2 659.6,281 631.3,281 631.3,270.2 574.6,270.2 574.6,213.5 563.8,213.5 563.8,185.2 
	574.6,185.2 574.6,100.1 563.8,100.1 563.8,71.8 574.6,71.8 "/>
<circle class="st0" cx="702.1" cy="423.2" r="119.1"/>
<polygon class="st0" points="574.6,295.6 602.9,295.6 602.9,284.8 631.3,284.8 631.3,295.6 659.6,295.6 659.6,284.8 688,284.8 
	688,295.6 716.3,295.6 716.3,284.8 744.6,284.8 744.6,295.6 773,295.6 773,284.8 801.3,284.8 801.3,295.6 829.7,295.6 829.7,324 
	840.5,324 840.5,352.3 829.7,352.3 829.7,380.6 840.5,380.6 840.5,409 829.7,409 829.7,437.3 840.5,437.3 840.5,465.7 829.7,465.7 
	829.7,494 840.5,494 840.5,522.4 829.7,522.4 829.7,550.7 801.3,550.7 801.3,561.5 773,561.5 773,550.7 744.6,550.7 744.6,561.5 
	716.3,561.5 716.3,550.7 688,550.7 688,561.5 659.6,561.5 659.6,550.7 631.3,550.7 631.3,561.5 602.9,561.5 602.9,550.7 
	574.6,550.7 574.6,522.4 563.8,522.4 563.8,494 574.6,494 574.6,465.7 563.8,465.7 563.8,437.3 574.6,437.3 574.6,409 563.8,409 
	563.8,380.6 574.6,380.6 574.6,352.3 563.8,352.3 563.8,324 574.6,324 "/>
<polygon class="st0" points="2.7,4.3 268.6,4.3 268.6,61 279.4,61 279.4,117.7 268.6,117.7 268.6,174.4 279.4,174.4 279.4,231.1 
	268.6,231.1 268.6,287.8 279.4,287.8 279.4,344.5 13.5,344.5 13.5,287.8 2.7,287.8 2.7,231.1 13.5,231.1 13.5,174.4 2.7,174.4 
	2.7,117.7 13.5,117.7 13.5,61 2.7,61 "/>
<rect x="41.8" y="319.2" class="st0" width="28.3" height="10.8"/>
<rect x="98.5" y="319.2" class="st0" width="28.3" height="10.8"/>
<rect x="155.2" y="319.2" class="st0" width="28.3" height="10.8"/>
<rect x="211.9" y="319.2" class="st0" width="28.3" height="10.8"/>
<rect x="70.2" y="302.7" class="st0" width="28.3" height="10.8"/>
<rect x="183.6" y="302.7" class="st0" width="28.3" height="10.8"/>
<path class="st0" d="M138.2,302.7h5.7c6.2,0,11.3-5.1,11.3-11.3V55.5c0-6.2-5.1-11.3-11.3-11.3h-5.7c-6.2,0-11.3,5.1-11.3,11.3
	v235.9C126.9,297.6,132,302.7,138.2,302.7z"/>
<polygon class="st0" points="283.5,4.3 549.4,4.3 549.4,61 560.2,61 560.2,117.7 549.4,117.7 549.4,174.4 560.2,174.4 560.2,231.1 
	549.4,231.1 549.4,287.8 560.2,287.8 560.2,344.5 294.3,344.5 294.3,287.8 283.5,287.8 283.5,231.1 294.3,231.1 294.3,174.4 
	283.5,174.4 283.5,117.7 294.3,117.7 294.3,61 283.5,61 "/>
<rect x="322.6" y="319.2" class="st0" width="28.3" height="10.8"/>
<rect x="379.3" y="319.2" class="st0" width="28.3" height="10.8"/>
<rect x="436" y="319.2" class="st0" width="28.3" height="10.8"/>
<rect x="492.7" y="319.2" class="st0" width="28.3" height="10.8"/>
<rect x="351" y="302.7" class="st0" width="28.3" height="10.8"/>
<rect x="464.4" y="302.7" class="st0" width="28.3" height="10.8"/>
<path class="st0" d="M419,302.7h5.7c6.2,0,11.3-5.1,11.3-11.3V55.5c0-6.2-5.1-11.3-11.3-11.3H419c-6.2,0-11.3,5.1-11.3,11.3v235.9
	C407.7,297.6,412.8,302.7,419,302.7z"/>
<polygon class="st0" points="2.7,348.7 268.6,348.7 268.6,405.4 279.4,405.4 279.4,462.1 268.6,462.1 268.6,518.8 279.4,518.8 
	279.4,575.5 268.6,575.5 268.6,632.2 279.4,632.2 279.4,688.9 13.5,688.9 13.5,632.2 2.7,632.2 2.7,575.5 13.5,575.5 13.5,518.8 
	2.7,518.8 2.7,462.1 13.5,462.1 13.5,405.4 2.7,405.4 "/>
<rect x="41.8" y="663.6" class="st0" width="28.3" height="10.8"/>
<rect x="98.5" y="663.6" class="st0" width="28.3" height="10.8"/>
<rect x="155.2" y="663.6" class="st0" width="28.3" height="10.8"/>
<rect x="211.9" y="663.6" class="st0" width="28.3" height="10.8"/>
<rect x="70.2" y="647.1" class="st0" width="28.3" height="10.8"/>
<rect x="183.6" y="647.1" class="st0" width="28.3" height="10.8"/>
<path class="st0" d="M138.2,647.1h5.7c6.2,0,11.3-5.1,11.3-11.3V399.9c0-6.2-5.1-11.3-11.3-11.3h-5.7c-6.2,0-11.3,5.1-11.3,11.3
	v235.9C126.9,642,132,647.1,138.2,647.1z"/>
<polygon class="st0" points="283.5,348.7 549.4,348.7 549.4,405.4 560.2,405.4 560.2,462.1 549.4,462.1 549.4,518.8 560.2,518.8 
	560.2,575.5 549.4,575.5 549.4,632.2 560.2,632.2 560.2,688.9 294.3,688.9 294.3,632.2 283.5,632.2 283.5,575.5 294.3,575.5 
	294.3,518.8 283.5,518.8 283.5,462.1 294.3,462.1 294.3,405.4 283.5,405.4 "/>
<rect x="322.6" y="663.6" class="st0" width="28.3" height="10.8"/>
<rect x="379.3" y="663.6" class="st0" width="28.3" height="10.8"/>
<rect x="436" y="663.6" class="st0" width="28.3" height="10.8"/>
<rect x="492.7" y="663.6" class="st0" width="28.3" height="10.8"/>
<rect x="351" y="647.1" class="st0" width="28.3" height="10.8"/>
<rect x="464.4" y="647.1" class="st0" width="28.3" height="10.8"/>
<path class="st0" d="M427.5,409.7c4.2,2.1,7.1,6.4,7.1,11.4c0,7-5.7,12.8-12.8,12.8c-7,0-12.8-5.7-12.8-12.8c0-5,2.9-9.3,7.1-11.4
	v-15.5c0-3.1,2.5-5.7,5.7-5.7s5.7,2.5,5.7,5.7V409.7z"/>
<path class="st0" d="M427.5,593c4.2,2.1,7.1,6.4,7.1,11.4c0,7-5.7,12.8-12.8,12.8c-7,0-12.8-5.7-12.8-12.8c0-5,2.9-9.3,7.1-11.4
	v-15.5c0-3.1,2.5-5.7,5.7-5.7s5.7,2.5,5.7,5.7V593z"/>
</svg>
