<?xml version="1.0" encoding="utf-8"?>
<!-- Generator: Adobe Illustrator 25.0.0, SVG Export Plug-In . SVG Version: 6.00 Build 0)  -->
<svg version="1.1" id="Layer_1" xmlns="http://www.w3.org/2000/svg" xmlns:xlink="http://www.w3.org/1999/xlink" x="0px" y="0px"
	 viewBox="0 0 841.9 595.3" style="enable-background:new 0 0 841.9 595.3;" xml:space="preserve">
<style type="text/css">
	.st0{fill:none;stroke:#FF0000;stroke-width:0.2835;stroke-miterlimit:10;}
</style>
<g>
	<path class="st0" d="M673.6,409.6l10.5-0.2c1.6,0,2.7-1.3,2.4-2.9c-1.6-7.8-5.7-14.7-11.4-19.8c-1.2-1-2.8-0.7-3.7,0.6l-5.4,9
		l-7.1-4.1l5.1-9.2c0.8-1.4,0.2-3-1.3-3.5c-3.6-1.2-7.4-1.8-11.4-1.8c-4,0-7.8,0.7-11.4,1.8c-1.5,0.5-2,2.1-1.3,3.5l5.1,9.2
		l-7.1,4.1l-5.4-9c-0.8-1.3-2.5-1.7-3.7-0.6c-5.7,5.1-9.8,12-11.4,19.8c-0.3,1.5,0.8,2.8,2.4,2.9l10.5,0.2v8.2l-10.5,0.2
		c-1.6,0-2.7,1.3-2.4,2.9c1.6,7.8,5.7,14.7,11.4,19.8c1.2,1,2.8,0.7,3.7-0.6l5.4-9l7.1,4.1l-5.1,9.2c-0.8,1.4-0.2,3,1.3,3.5
		c3.6,1.2,7.4,1.9,11.4,1.9c4,0,7.8-0.7,11.4-1.9c1.5-0.5,2-2.1,1.3-3.5l-5.1-9.2l7.1-4.1l5.4,9c0.8,1.3,2.5,1.7,3.7,0.6
		c5.7-5.1,9.8-12,11.4-19.8c0.3-1.5-0.8-2.8-2.4-2.9l-10.5-0.2V409.6z"/>
	<path class="st0" d="M652.6,413.7c0,0.8-0.6,1.4-1.4,1.4s-1.4-0.6-1.4-1.4c0-0.8,0.6-1.4,1.4-1.4S652.6,412.9,652.6,413.7z"/>
</g>
<g>
	<path class="st0" d="M673.6,275.1l10.5-0.2c1.6,0,2.7-1.3,2.4-2.9c-1.6-7.8-5.7-14.7-11.4-19.8c-1.2-1-2.8-0.7-3.7,0.6l-5.4,9
		l-7.1-4.1l5.1-9.2c0.8-1.4,0.2-3-1.3-3.5c-3.6-1.2-7.4-1.9-11.4-1.9c-4,0-7.8,0.7-11.4,1.9c-1.5,0.5-2,2.1-1.3,3.5l5.1,9.2
		l-7.1,4.1l-5.4-9c-0.8-1.3-2.5-1.7-3.7-0.6c-5.7,5.1-9.8,12-11.4,19.8c-0.3,1.5,0.8,2.8,2.4,2.9l10.5,0.2v8.2l-10.5,0.2
		c-1.6,0-2.7,1.3-2.4,2.9c1.6,7.8,5.7,14.7,11.4,19.8c1.2,1,2.8,0.7,3.7-0.6l5.4-9l7.1,4.1l-5.1,9.2c-0.8,1.4-0.2,3,1.3,3.5
		c3.6,1.2,7.4,1.8,11.4,1.8c4,0,7.8-0.7,11.4-1.8c1.5-0.5,2-2.1,1.3-3.5l-5.1-9.2l7.1-4.1l5.4,9c0.8,1.3,2.5,1.7,3.7,0.6
		c5.7-5.1,9.8-12,11.4-19.8c0.3-1.5-0.8-2.8-2.4-2.9l-10.5-0.2V275.1z"/>
	<path class="st0" d="M652.6,279.2c0,0.8-0.6,1.4-1.4,1.4s-1.4-0.6-1.4-1.4c0-0.8,0.6-1.4,1.4-1.4S652.6,278.5,652.6,279.2z"/>
</g>
<g>
	<path class="st0" d="M343.3,296.7c5.5,14.3,8.7,31.4,8.7,49.8c0,19.5-3.6,37.6-9.7,52.4l8,0.2v8.2l-12.1,0.3
		c-1.7,3.8-1.6,21.7-1.6,24.7c0,12.1,12.9,21.2,27.6,16c41.7-14.9,71.6-54.8,71.6-101.7c0-46.9-29.9-86.8-71.6-101.7
		c-14.7-5.3-27.6,3.9-27.6,16c0,0-0.7,15.1,1.6,24.7l12.1,0.3v8.2l-5.2,0.1h-2.8L343.3,296.7z"/>
	<g>
		<path class="st0" d="M403.7,343.6c1.6-0.2,3.1-0.3,4.7-0.5c2.1-0.3,4.3-0.7,6.4-1c1-0.2,2-0.4,3-0.5c2.2-0.4,4.4-0.6,6.6-0.6
			c1.6-0.1,2.8-0.2,2.8-0.4c0-0.2-1-0.6-2.1-1.2c-0.7-0.4-1.3-0.8-1.9-1.2c-0.3-0.2-0.7-0.5-1.1-0.7c-3.1-2-7.1-3-10.2-2.5
			c-9.7,1.5-13.1-0.4-19.2-3.9c-0.6-0.3-1.2-0.7-1.8-1c-1-0.6-3.1-0.8-4.7-0.6c-2,0.3-3.9,0.7-5.8,1.1c-3.7,0.7-7.5,1.5-11.3,1.9
			c-1.5,0.2-2.9,0.2-4.3,0.2c-1.4,0-2.7,0-3.9,0.1c-0.2,0-0.3,0-0.5,0.1c-0.3,0.1-0.5,0.3-0.5,0.6c0,0.3,1.3,0.7,2.8,1.1
			c4.2,1.1,7.7,3.4,11.3,5.8l0.3,0.2c3.4,2.2,6.3,4,8.8,5.5c1.4,0.8,2.4,1.5,2.4,1.6c0,0.1,0.5,0,1.2-0.3c0.4-0.1,0.8-0.3,1.3-0.5
			C393.1,344.7,398.5,344.2,403.7,343.6z"/>
		<path class="st0" d="M372.4,346.3c0.5,0.1,0.4-0.2-0.2-0.5c-0.3-0.2-0.7-0.4-1-0.7l-0.3-0.2c-2.8-1.9-5.3-3.5-7.9-4.5
			c-1.5-0.6-2.7,0.3-2.6,1.6c0,1.3,1.3,2.4,2.9,2.5c1.5,0.1,3,0.4,4.5,0.7c0.6,0.1,1.3,0.3,1.9,0.4
			C370.7,346,371.9,346.3,372.4,346.3z"/>
		<path class="st0" d="M402.9,326.3c-0.2,0.1-0.3,0.1-0.3,0.1c0,0-1.1,0.2-2.4,0.5s-1.2,1.2,0.2,1.8c2.8,1.2,5.4,1.4,10.5,0.6
			c4.5-0.7,9.9,0.6,14.1,3.3c0.2,0.1,0.4,0.3,0.6,0.4c0.4,0.2,0.5-0.8,0.2-2.4c-0.4-2.3-0.8-4.5-1.3-6.8c-0.4-1.5-1.9-2.4-3.4-2.1
			c-1.3,0.3-2.5,0.5-3.8,0.6c-2.5,0.4-4.9,0.8-7.2,1.5c-1.4,0.5-2.9,0.9-4.3,1.4C404.4,325.8,403.1,326.2,402.9,326.3z"/>
		<path class="st0" d="M395.1,307.7c-3.1,2.5-6.2,5.1-10.8,6.6c-2.8,0.9-5.7,1.6-8.5,2.2c-1.4,0.3-2.9,0.7-4.3,1
			c-3.6,0.9-7,1.8-10.4,3c-1.5,0.5-2.4,2.3-2.2,3.8c0,0,0,0,0,0c0.2,1.6,0.6,2.8,0.8,2.7c0.2,0,0.3-0.1,0.4-0.1
			c1.6-0.2,3.1-0.2,4.6-0.2c1.3,0,2.5,0,3.7-0.1c3.5-0.4,7.2-1.1,10.8-1.8c3.2-0.6,6.6-1.3,9.9-1.7c3-0.4,6.1-1,9.2-1.7
			c1.5-0.4,3.9-1.2,5.2-2.1c3.8-2.6,6.3-6.2,8.5-9.8c0.5-0.9,1-1.8,1.5-2.9c0.5-0.9,0.9-1.9,1.5-2.8c0.8-1.4,1-3.5,0.2-4.9
			c-0.3-0.6-0.7-1.3-1.1-1.9c-0.8-1.4-2.3-1.5-3.5-0.4c-2.3,2.1-4.9,3.6-7.4,5.2c-1.2,0.7-2.5,1.5-3.7,2.3
			C398,305.3,396.5,306.5,395.1,307.7z"/>
		<path class="st0" d="M419.7,316.3c1.5-0.3,2.4-1.8,1.8-3.3c-0.3-0.9-0.7-1.8-1-2.7c-0.6-1.5-1.3-2.3-1.5-1.8
			c-0.1,0.3-0.3,0.5-0.4,0.8c-0.5,1.1-1.1,2.2-1.7,3.2c-0.5,0.8-1,1.6-1.6,2.5c-0.9,1.3-1,2.2-0.2,2.1c0.5-0.1,1-0.2,1.4-0.2
			C417.6,316.7,418.7,316.5,419.7,316.3z"/>
		<path class="st0" d="M418.6,364.9c-0.1,0-0.1,0-0.2,0c-0.1,0-0.1,0.1-0.1,0.2c0,0.1,0.1,0.1,0.1,0.2c1.4,1.6,2.1,3.4,2.7,5
			c0.3,0.7,0.6,1.4,0.9,2c0.6,1.1,1.6,0.6,2-0.9c0.5-2,1-4,1.4-6.1c0.3-1.5,0.4-2.8,0.3-2.7c-0.1,0-0.1,0.1-0.2,0.1
			C423.3,363.6,421,364.6,418.6,364.9z"/>
		<path class="st0" d="M365.3,274.8c0.2-0.6-0.3-0.5-1.3,0.1c-0.6,0.4-1.2,0.7-1.8,1c-1.8,1-3.5,1.9-4.7,3.3
			c-0.1,0.1-0.2,0.2-0.2,0.3c-0.1,0.1,0.8,0.7,2,1.4c1.2,0.7,2.9,0.3,3.7-1.1c0.7-1.2,1.4-2.5,2-3.8
			C365,275.5,365.1,275.1,365.3,274.8z"/>
		<path class="st0" d="M400.8,392c-1.4-2-1.7-4.1-2-6c-0.2-1.4-0.4-2.6-0.9-3.5c-0.2-0.3-0.4-0.5-0.6-0.8c-0.4-0.4-1.8-1.3-3.1-2.1
			c-0.8-0.5-1.6-1-2.4-1.5c-3.1-2-6-3.8-9.5-4.5c-8.2-1.5-14.5-3.6-19.7-6.7c-0.5-0.3-1-0.6-1.6-0.9c-0.9-0.5-1.7,0.2-1.9,1.5
			c-0.2,1.3,0.1,3,0.7,3.7c0.4,0.4,0.7,0.9,1,1.3c1.7,1.9,3.4,3.2,5.3,4.7c0.7,0.5,1.5,1.1,2.2,1.7c0.8,0.7,1.5,1.4,2.2,2.2
			c0.9,1,1.8,2,2.7,2.3c1,0.3,2.3,0.2,3.7,0.1c1.4-0.1,2.8-0.2,4.2,0c3.8,0.6,7.1,2.8,9.9,4.8l0.4,0.3c1.2,0.8,2.6,1.5,4.1,2.3
			c2.3,1.1,4.6,2.3,6.6,4.1c1.5,1.4,2.6,2.8,3.7,4.3c0.9,1.2,1.7,2.4,2.8,3.3c0.1,0.1,0.2,0.2,0.4,0.3c0.2,0.2,1-0.6,1.8-1.7
			c0.8-1.1,1.2-2.2,1.1-2.2c-0.1-0.1-0.2-0.1-0.2-0.2c-0.9-0.6-2.1-1.1-3.3-1.7C405.6,396,402.6,394.5,400.8,392z"/>
		<path class="st0" d="M367.1,288.3c1.8,3.9-0.9,6.2-2.7,6.6c-9.7,1.9-9.9,8.7-9.4,10.2c0.1,0.2,0.1,0.5,0.2,0.7
			c0.1,0.4,1-0.2,2.1-1.4c2.4-2.5,4.7-4.8,7.2-6.8c2.4-2,4.7-4.3,7-6.4c1.5-1.5,3.1-3,4.7-4.4c6.6-6,9.6-11.4,9.6-17.4
			c0-0.6,0-1.3,0-1.9c0-1-1-2.6-2.3-3.5c-1.4-0.9-2.8-1.8-4.3-2.7c-1.3-0.8-2.8-0.2-3.3,1.3c-1.5,4.8-3.4,9.9-5.7,15.5
			c-0.8,1.9-1.8,3.8-2.9,5.5C366.3,284.9,366.5,286.8,367.1,288.3z"/>
		<path class="st0" d="M380.1,420.2c-1.1-1.2-2.2-2.3-3.2-3.7c-2.2-3-2.2-6.9-1.5-10.3c0.3-1.5,0.8-2.8,0.7-2.9
			c0-0.1-0.1-0.1-0.1-0.2c-0.4-1.2-0.5-2.3-0.6-3.4c-0.2-1.2-0.3-2.3-0.7-3.2c-1.7-3.5-4.8-7.2-9.3-11c-0.8-0.7-1.8-1.4-2.9-2.1
			c-0.9-0.6-1.8-1.2-2.7-1.9c-0.5-0.4-0.9-0.7-1.4-1.1c-0.8-0.6-1.6,0.1-2,1.6c-0.5,2-0.9,3.9-1.5,5.9c-0.1,0.2-0.1,0.4-0.1,0.6
			c0,0.4,0.2,0.8,0.4,1c0.1,0.1,0.2,0.2,0.3,0.3c0.3,0.3,0.5,0.6,0.8,0.9c0.4,0.5,2,1.3,3.5,1.7c1.3,0.4,2.7,1.1,4.5,2.8
			c2.8,2.8,3.5,7.1,2,10.4c-0.7,1.4-1.6,2.9-1.7,3.6c0,0.4,0,0.9-0.1,1.3c0,0.8-0.1,1.5-0.1,2.2c0,1.1-0.1,2.2-0.2,3.3
			c-0.1,1.6-0.3,3.2-0.1,4.4c0.3,1.8,1.3,3.8,2.2,5.7c0.4,0.8,0.8,1.6,1.1,2.3c0.7,1.6,1.5,3.2,2.5,4.8c0.8,1.3,2.7,1.8,4,1.1
			c3.1-1.6,6.1-3.5,9-5.4c1.3-0.9,1.8-2.4,1.2-3.4c-0.4-0.6-0.8-1.2-1.2-1.7C382.4,422.7,381.3,421.5,380.1,420.2z"/>
		<path class="st0" d="M394.8,373.3c0.4,0.3,0.8,0.5,1.2,0.8c0.7,0.4,1.2,0.7,1.3,0.6c0-0.1,0.7,0.2,1.4,0.7c0.7,0.5,1.3,1,1.4,1
			c0.1,0,0.1,0.1,0.2,0.1c2.8,1.3,6.4,2.2,10.3,2.5c1.7,0.1,2.8,0.2,3.4,0c0.4-0.1,0.6-0.2,1.1-0.6c0.5-0.3,1.1-0.7,1.9-1
			c0.2-0.1,0.5-0.2,0.7-0.3c0.4-0.2,0-1.2-0.6-2.4c-0.4-0.8-0.7-1.6-1-2.3c-0.6-1.4-1.1-2.6-1.9-3.5c-3-3.6-8.1-4.4-13.4-5.2
			c-5.1-0.8-10.4-1.6-14.7-4.9c-4-3-6.3-4.7-10.4-5.7c-1-0.2-2.1-0.5-3.1-0.8c-0.3-0.1-0.6-0.2-1-0.2c-0.5-0.1-2.2-0.4-3.8-0.4
			c-1.5-0.1-3,0-4.5,0c-1.6,0-2.9,1.4-3,2.9c0,0.5-0.1,1.1-0.1,1.6c-0.1,1.6,0.9,3.4,2.3,4.2c1,0.6,2,1.1,3,1.7
			c4.7,2.7,10.4,4.6,17.9,6C387.9,368.9,391.4,371.2,394.8,373.3z"/>
		<path class="st0" d="M360.1,260.1c-0.1,3.1-0.7,6-1.3,8.8c-0.1,0.4-0.2,0.9-0.3,1.3c-0.1,0.7,0,1.1,0.3,1c0.2-0.1,0.4-0.2,0.5-0.3
			c1.7-1,3.4-1.9,4.6-3.1c1.4-1.5,2.4-3.5,3.4-5.6c0.5-1.1,1-2.1,1.7-3.2c0.8-1.4,0.4-2.9-1-3.6c-2.2-1-4.4-1.9-6.7-2.7
			c-0.3-0.1-0.6-0.2-1-0.3c-0.5-0.2-1-0.1-0.9,0.1c0,0.1,0,0.2,0,0.4C359.9,255.2,360.2,257.5,360.1,260.1z"/>
		<path class="st0" d="M349.6,277.4c0.7,0.1,1.3,0.1,1.4-0.1c0-0.1,0.1-0.2,0.1-0.4c0.6-1.8,1.1-3.4,1.4-5.1c0.2-1.4,0.5-2.7,0.8-4
			c0.6-2.7,1.1-5.3,1.2-7.9c0.1-2.1-0.2-4.1-0.5-6.2c0-0.3-0.1-0.6-0.1-0.9c-0.1-0.5-1.4-0.8-2.9-0.2c-3.5,1.4-5.8,4.4-5.8,8.1v0.2
			l0,0.2c0,0.1-0.3,6.4,0.2,13.1c0,0.8,0.4,1.5,1,2C347.2,277.1,348.9,277.2,349.6,277.4z"/>
		<path class="st0" d="M418.2,383.2c-0.7,0.4-1.6,1.1-3,1.4c-0.7,0.2-1.5,0.2-2.4,0.2c-0.9,0-1.9-0.1-2.7-0.1
			c-0.9-0.1-1.9-0.2-3.1-0.4c-1.5-0.2-2.7-0.2-2.7,0.2c0,0.2,0.1,0.5,0.1,0.7c0.2,1.4,0.4,2.7,1,3.6c0.9,1.3,3.1,2.3,5.3,3.3
			c1.4,0.6,2.8,1.3,4,2.1c0,0,0.1,0.1,0.1,0.1c0.1,0.1,0.8-1,1.5-2.4c1.2-2.3,2.3-4.7,3.3-7.2c0.6-1.4,0.7-2.5,0.3-2.3
			c-0.3,0.1-0.5,0.2-0.8,0.3C418.8,382.8,418.5,383,418.2,383.2z"/>
		<path class="st0" d="M361.5,428.8c-1.1-2.2-2.3-4.7-2.7-7.3c-0.3-2-0.2-3.9,0-5.8c0.1-1,0.2-1.9,0.2-2.8c0-0.4,0-0.8,0-1.2
			c0-0.7-1.2-0.8-2.6-0.1c-2.8,1.4-3.5,2.8-7.3,3.5c-2.3,0.4-3.6,2-3.7,3.6c-0.1,3.1-0.2,7.4-0.2,13v0.5c0,5.1,4.6,9,10.6,9
			c1.8,0,3.7-0.3,5.6-1c0.9-0.3,1.7-0.6,2.6-1c1.4-0.6,1.8-2.1,1.1-3.5c-1-1.7-1.8-3.3-2.5-4.8C362.2,430.3,361.9,429.5,361.5,428.8
			z"/>
		<path class="st0" d="M389.5,281.8c0.8-0.3,1.5-0.7,2.3-1c1.2-0.6,2.4-1.3,3.7-1.9c0.6-0.3,1.2-0.6,1.8-0.9c1-0.5,0.9-1.8-0.2-2.9
			c-1.2-1.1-2.4-2.2-3.6-3.3c-1.2-1-2.2-0.6-2.4,1c-0.4,2.8-1.3,5.3-2.5,7.6C387.9,281.7,388.3,282.4,389.5,281.8z"/>
		<path class="st0" d="M384.5,289.5c-0.8,0.3-1.6,0.5-2.4,0.7c-1.3,0.4-3.3,1.7-4.4,2.7c-0.8,0.7-1.6,1.5-2.3,2.2
			c-2.3,2.2-4.7,4.6-7.3,6.7c-3.5,2.9-6.6,6.1-10.1,10.2c-0.2,0.2-0.3,0.4-0.5,0.6c-0.3,0.3-0.4,1.1-0.2,1.8
			c0.1,0.7,1.4,0.8,2.9,0.3c3.3-1.1,6.7-2,9.9-2.9c1.5-0.4,2.9-0.7,4.4-1.1c2.8-0.7,5.5-1.3,8.1-2.1c3.5-1.1,6-3.2,8.9-5.5
			c1.5-1.3,3.1-2.6,5-3.8c1.3-0.9,2.6-1.7,3.9-2.4c3.4-2,6.6-4,8.9-7c0,0,0.1-0.1,0.1-0.1c0.1-0.1-0.6-1.2-1.5-2.4
			c-1-1.3-2-2.6-3-3.9c-1-1.2-2.9-1.6-4.3-0.9c-0.8,0.4-1.7,0.9-2.5,1.3c-1.2,0.6-2.4,1.2-3.6,1.9
			C391.2,287.5,387.8,288.5,384.5,289.5z"/>
		<path class="st0" d="M424.5,346.5c-2,0.1-3.9,0.3-5.8,0.6c-1,0.2-2,0.3-3,0.5c-2.1,0.4-4.4,0.8-6.6,1.1c-1.6,0.2-3.2,0.4-4.8,0.6
			c-5.1,0.5-9.8,1.1-14.3,2.8c-0.4,0.2-0.8,0.3-1.2,0.4c-0.7,0.2-0.8,0.7-0.3,1.1c0.3,0.2,0.6,0.5,0.9,0.7c2.4,1.8,5.6,2.7,9,3.3
			c1.5,0.3,4.1,0.5,5.6,0.6c1.6,0.1,3.2,0.4,4.7,0.6c3.2,0.5,6.2,0.9,9.1,0.5c1.6-0.2,3.6-1,5.5-1.8c1.1-0.4,2.2-0.9,3.2-1.3
			c0,0,0.1,0,0.1,0c0.1,0,0.2-1.3,0.4-2.9c0.1-1.3,0.2-2.6,0.2-3.9C427.3,347.7,426.1,346.5,424.5,346.5z"/>
		<path class="st0" d="M398.4,399.2c-1.4-1.3-3.3-2.3-5.3-3.3c-1.6-0.8-3.2-1.6-4.7-2.7l-0.4-0.3c-2.4-1.6-5-3.5-7.5-3.8
			c-0.9-0.1-1.9,0-3,0c-0.1,0-0.2,0-0.3,0c-0.2,0,0.5,1,1.3,2.4c0.5,0.9,1,1.7,1.4,2.6c0.9,1.8,1.1,3.5,1.3,5
			c0.1,0.9,0.2,1.7,0.4,2.4c0.3,1.1,1.5,1.9,3.4,3c0.6,0.4,1.2,0.7,1.8,1.2c3.6,2.5,7,5.4,10.2,8.3c1.2,1.1,3,1,4-0.1
			c1.1-1.2,2.2-2.5,3.3-3.8c1-1.2,1.5-2.5,1.1-2.8c-0.2-0.2-0.4-0.4-0.6-0.6c-1.4-1.3-2.4-2.7-3.4-4.1
			C400.4,401.4,399.5,400.2,398.4,399.2z"/>
		<path class="st0" d="M381.9,409.4c-0.2-0.1-0.4-0.2-0.6-0.4c-0.3-0.2-0.8,0.7-0.6,2c0.1,0.9,0.3,1.6,0.8,2.2
			c0.8,1.1,1.8,2.1,2.8,3.2c1.3,1.3,2.6,2.7,3.7,4.4c0.4,0.5,0.7,1.1,1.1,1.6c0.6,0.9,2,0.8,3.2-0.2c0.2-0.2,0.4-0.3,0.5-0.5
			c1.2-1,1.2-2.8,0-3.8c-3-2.7-6.1-5.4-9.4-7.6C383,410,382.5,409.7,381.9,409.4z"/>
	</g>
</g>
<g>
	<path class="st0" d="M433.4,296.7c5.5,14.3,8.7,31.4,8.7,49.8c0,19.5-3.6,37.6-9.7,52.4l8,0.2v8.2l-12.1,0.3
		c-1.7,3.8-1.6,21.7-1.6,24.7c0,12.1,12.9,21.2,27.6,16c41.7-14.9,71.6-54.8,71.6-101.7c0-46.9-29.9-86.8-71.6-101.7
		c-14.7-5.3-27.6,3.9-27.6,16c0,0-0.7,15.1,1.6,24.7l12.1,0.3v8.2l-5.2,0.1h-2.8L433.4,296.7z"/>
	<g>
		<path class="st0" d="M493.9,343.6c1.6-0.2,3.1-0.3,4.7-0.5c2.1-0.3,4.3-0.7,6.4-1c1-0.2,2-0.4,3-0.5c2.2-0.4,4.4-0.6,6.6-0.6
			c1.6-0.1,2.8-0.2,2.8-0.4c0-0.2-1-0.6-2.1-1.2c-0.7-0.4-1.3-0.8-1.9-1.2c-0.3-0.2-0.7-0.5-1.1-0.7c-3.1-2-7.1-3-10.2-2.5
			c-9.7,1.5-13.1-0.4-19.2-3.9c-0.6-0.3-1.2-0.7-1.8-1c-1-0.6-3.1-0.8-4.7-0.6c-2,0.3-3.9,0.7-5.8,1.1c-3.7,0.7-7.5,1.5-11.3,1.9
			c-1.5,0.2-2.9,0.2-4.3,0.2c-1.4,0-2.7,0-3.9,0.1c-0.2,0-0.3,0-0.5,0.1c-0.3,0.1-0.5,0.3-0.5,0.6c0,0.3,1.3,0.7,2.8,1.1
			c4.2,1.1,7.7,3.4,11.3,5.8l0.3,0.2c3.4,2.2,6.3,4,8.8,5.5c1.4,0.8,2.4,1.5,2.4,1.6c0,0.1,0.5,0,1.2-0.3c0.4-0.1,0.8-0.3,1.3-0.5
			C483.3,344.7,488.7,344.2,493.9,343.6z"/>
		<path class="st0" d="M462.6,346.3c0.5,0.1,0.4-0.2-0.2-0.5c-0.3-0.2-0.7-0.4-1-0.7l-0.3-0.2c-2.8-1.9-5.3-3.5-7.9-4.5
			c-1.5-0.6-2.7,0.3-2.6,1.6c0,1.3,1.3,2.4,2.9,2.5c1.5,0.1,3,0.4,4.5,0.7c0.6,0.1,1.3,0.3,1.9,0.4
			C460.9,346,462.1,346.3,462.6,346.3z"/>
		<path class="st0" d="M493.1,326.3c-0.2,0.1-0.3,0.1-0.3,0.1s-1.1,0.2-2.4,0.5s-1.2,1.2,0.2,1.8c2.8,1.2,5.4,1.4,10.5,0.6
			c4.5-0.7,9.9,0.6,14.1,3.3c0.2,0.1,0.4,0.3,0.6,0.4c0.4,0.2,0.5-0.8,0.2-2.4c-0.4-2.3-0.8-4.5-1.3-6.8c-0.4-1.5-1.9-2.4-3.4-2.1
			c-1.3,0.3-2.5,0.5-3.8,0.6c-2.5,0.4-4.9,0.8-7.2,1.5c-1.4,0.5-2.9,0.9-4.3,1.4C494.6,325.8,493.3,326.2,493.1,326.3z"/>
		<path class="st0" d="M485.2,307.7c-3.1,2.5-6.2,5.1-10.8,6.6c-2.8,0.9-5.7,1.6-8.5,2.2c-1.4,0.3-2.9,0.7-4.3,1
			c-3.6,0.9-7,1.8-10.4,3c-1.5,0.5-2.4,2.3-2.2,3.8c0,0,0,0,0,0c0.2,1.6,0.6,2.8,0.8,2.7c0.2,0,0.3-0.1,0.4-0.1
			c1.6-0.2,3.1-0.2,4.6-0.2c1.3,0,2.5,0,3.7-0.1c3.5-0.4,7.2-1.1,10.8-1.8c3.2-0.6,6.6-1.3,9.9-1.7c3-0.4,6.1-1,9.2-1.7
			c1.5-0.4,3.9-1.2,5.2-2.1c3.8-2.6,6.3-6.2,8.5-9.8c0.5-0.9,1-1.8,1.5-2.9c0.5-0.9,0.9-1.9,1.5-2.8c0.8-1.4,1-3.5,0.2-4.9
			c-0.3-0.6-0.7-1.3-1.1-1.9c-0.8-1.4-2.3-1.5-3.5-0.4c-2.3,2.1-4.9,3.6-7.4,5.2c-1.2,0.7-2.5,1.5-3.7,2.3
			C488.2,305.3,486.7,306.5,485.2,307.7z"/>
		<path class="st0" d="M509.8,316.3c1.5-0.3,2.4-1.8,1.8-3.3c-0.3-0.9-0.7-1.8-1-2.7c-0.6-1.5-1.3-2.3-1.5-1.8
			c-0.1,0.3-0.3,0.5-0.4,0.8c-0.5,1.1-1.1,2.2-1.7,3.2c-0.5,0.8-1,1.6-1.6,2.5c-0.9,1.3-1,2.2-0.2,2.1c0.5-0.1,1-0.2,1.4-0.2
			C507.8,316.7,508.8,316.5,509.8,316.3z"/>
		<path class="st0" d="M508.8,364.9c-0.1,0-0.1,0-0.2,0c-0.1,0-0.1,0.1-0.1,0.2c0,0.1,0.1,0.1,0.1,0.2c1.4,1.6,2.1,3.4,2.7,5
			c0.3,0.7,0.6,1.4,0.9,2c0.6,1.1,1.6,0.6,2-0.9c0.5-2,1-4,1.4-6.1c0.3-1.5,0.4-2.8,0.3-2.7c-0.1,0-0.1,0.1-0.2,0.1
			C513.5,363.6,511.1,364.6,508.8,364.9z"/>
		<path class="st0" d="M455.4,274.8c0.2-0.6-0.3-0.5-1.3,0.1c-0.6,0.4-1.2,0.7-1.8,1c-1.8,1-3.5,1.9-4.7,3.3
			c-0.1,0.1-0.2,0.2-0.2,0.3c-0.1,0.1,0.8,0.7,2,1.4c1.2,0.7,2.9,0.3,3.7-1.1c0.7-1.2,1.4-2.5,2-3.8
			C455.2,275.5,455.3,275.1,455.4,274.8z"/>
		<path class="st0" d="M490.9,392c-1.4-2-1.7-4.1-2-6c-0.2-1.4-0.4-2.6-0.9-3.5c-0.2-0.3-0.4-0.5-0.6-0.8c-0.4-0.4-1.8-1.3-3.1-2.1
			c-0.8-0.5-1.6-1-2.4-1.5c-3.1-2-6-3.8-9.5-4.5c-8.2-1.5-14.5-3.6-19.7-6.7c-0.5-0.3-1-0.6-1.6-0.9c-0.9-0.5-1.7,0.2-1.9,1.5
			s0.1,3,0.7,3.7c0.4,0.4,0.7,0.9,1,1.3c1.7,1.9,3.4,3.2,5.3,4.7c0.7,0.5,1.5,1.1,2.2,1.7c0.8,0.7,1.5,1.4,2.2,2.2
			c0.9,1,1.8,2,2.7,2.3c1,0.3,2.3,0.2,3.7,0.1c1.4-0.1,2.8-0.2,4.2,0c3.8,0.6,7.1,2.8,9.9,4.8l0.4,0.3c1.2,0.8,2.6,1.5,4.1,2.3
			c2.3,1.1,4.6,2.3,6.6,4.1c1.5,1.4,2.6,2.8,3.7,4.3c0.9,1.2,1.7,2.4,2.8,3.3c0.1,0.1,0.2,0.2,0.4,0.3c0.2,0.2,1-0.6,1.8-1.7
			c0.8-1.1,1.2-2.2,1.1-2.2c-0.1-0.1-0.2-0.1-0.2-0.2c-0.9-0.6-2.1-1.1-3.3-1.7C495.8,396,492.7,394.5,490.9,392z"/>
		<path class="st0" d="M457.3,288.3c1.8,3.9-0.9,6.2-2.7,6.6c-9.7,1.9-9.9,8.7-9.4,10.2c0.1,0.2,0.1,0.5,0.2,0.7
			c0.1,0.4,1-0.2,2.1-1.4c2.4-2.5,4.7-4.8,7.2-6.8c2.4-2,4.7-4.3,7-6.4c1.5-1.5,3.1-3,4.7-4.4c6.6-6,9.6-11.4,9.6-17.4
			c0-0.6,0-1.3,0-1.9c0-1-1-2.6-2.3-3.5c-1.4-0.9-2.8-1.8-4.3-2.7c-1.3-0.8-2.8-0.2-3.3,1.3c-1.5,4.8-3.4,9.9-5.7,15.5
			c-0.8,1.9-1.8,3.8-2.9,5.5C456.5,284.9,456.6,286.8,457.3,288.3z"/>
		<path class="st0" d="M470.3,420.2c-1.1-1.2-2.2-2.3-3.2-3.7c-2.2-3-2.2-6.9-1.5-10.3c0.3-1.5,0.8-2.8,0.7-2.9
			c0-0.1-0.1-0.1-0.1-0.2c-0.4-1.2-0.5-2.3-0.6-3.4c-0.2-1.2-0.3-2.3-0.7-3.2c-1.7-3.5-4.8-7.2-9.3-11c-0.8-0.7-1.8-1.4-2.9-2.1
			c-0.9-0.6-1.8-1.2-2.7-1.9c-0.5-0.4-0.9-0.7-1.4-1.1c-0.8-0.6-1.6,0.1-2,1.6c-0.5,2-0.9,3.9-1.5,5.9c-0.1,0.2-0.1,0.4-0.1,0.6
			c0,0.4,0.2,0.8,0.4,1c0.1,0.1,0.2,0.2,0.3,0.3c0.3,0.3,0.5,0.6,0.8,0.9c0.4,0.5,2,1.3,3.5,1.7c1.3,0.4,2.7,1.1,4.5,2.8
			c2.8,2.8,3.5,7.1,2,10.4c-0.7,1.4-1.6,2.9-1.7,3.6c0,0.4,0,0.9-0.1,1.3c0,0.8-0.1,1.5-0.1,2.2c0,1.1-0.1,2.2-0.2,3.3
			c-0.1,1.6-0.3,3.2-0.1,4.4c0.3,1.8,1.3,3.8,2.2,5.7c0.4,0.8,0.8,1.6,1.1,2.3c0.7,1.6,1.5,3.2,2.5,4.8c0.8,1.3,2.7,1.8,4,1.1
			c3.1-1.6,6.1-3.5,9-5.4c1.3-0.9,1.8-2.4,1.2-3.4c-0.4-0.6-0.8-1.2-1.2-1.7C472.5,422.7,471.4,421.5,470.3,420.2z"/>
		<path class="st0" d="M485,373.3c0.4,0.3,0.8,0.5,1.2,0.8c0.7,0.4,1.2,0.7,1.3,0.6c0-0.1,0.7,0.2,1.4,0.7c0.7,0.5,1.3,1,1.4,1
			c0.1,0,0.1,0.1,0.2,0.1c2.8,1.3,6.4,2.2,10.3,2.5c1.7,0.1,2.8,0.2,3.4,0c0.4-0.1,0.6-0.2,1.1-0.6c0.5-0.3,1.1-0.7,1.9-1
			c0.2-0.1,0.5-0.2,0.7-0.3c0.4-0.2,0-1.2-0.6-2.4c-0.4-0.8-0.7-1.6-1-2.3c-0.6-1.4-1.1-2.6-1.9-3.5c-3-3.6-8.1-4.4-13.4-5.2
			c-5.1-0.8-10.4-1.6-14.7-4.9c-4-3-6.3-4.7-10.4-5.7c-1-0.2-2.1-0.5-3.1-0.8c-0.3-0.1-0.6-0.2-1-0.2c-0.5-0.1-2.2-0.4-3.8-0.4
			c-1.5-0.1-3,0-4.5,0c-1.6,0-2.9,1.4-3,2.9c0,0.5-0.1,1.1-0.1,1.6c-0.1,1.6,0.9,3.4,2.3,4.2c1,0.6,2,1.1,3,1.7
			c4.7,2.7,10.4,4.6,17.9,6C478,368.9,481.6,371.2,485,373.3z"/>
		<path class="st0" d="M450.3,260.1c-0.1,3.1-0.7,6-1.3,8.8c-0.1,0.4-0.2,0.9-0.3,1.3c-0.1,0.7,0,1.1,0.3,1c0.2-0.1,0.4-0.2,0.5-0.3
			c1.7-1,3.4-1.9,4.6-3.1c1.4-1.5,2.4-3.5,3.4-5.6c0.5-1.1,1-2.1,1.7-3.2c0.8-1.4,0.4-2.9-1-3.6c-2.2-1-4.4-1.9-6.7-2.7
			c-0.3-0.1-0.6-0.2-1-0.3c-0.5-0.2-1-0.1-0.9,0.1c0,0.1,0,0.2,0,0.4C450,255.2,450.4,257.5,450.3,260.1z"/>
		<path class="st0" d="M439.7,277.4c0.7,0.1,1.3,0.1,1.4-0.1c0-0.1,0.1-0.2,0.1-0.4c0.6-1.8,1.1-3.4,1.4-5.1c0.2-1.4,0.5-2.7,0.8-4
			c0.6-2.7,1.1-5.3,1.2-7.9c0.1-2.1-0.2-4.1-0.5-6.2c0-0.3-0.1-0.6-0.1-0.9c-0.1-0.5-1.4-0.8-2.9-0.2c-3.5,1.4-5.8,4.4-5.8,8.1v0.2
			l0,0.2c0,0.1-0.3,6.4,0.2,13.1c0,0.8,0.4,1.5,1,2C437.3,277.1,439.1,277.2,439.7,277.4z"/>
		<path class="st0" d="M508.3,383.2c-0.7,0.4-1.6,1.1-3,1.4c-0.7,0.2-1.5,0.2-2.4,0.2c-0.9,0-1.9-0.1-2.7-0.1
			c-0.9-0.1-1.9-0.2-3.1-0.4c-1.5-0.2-2.7-0.2-2.7,0.2c0,0.2,0.1,0.5,0.1,0.7c0.2,1.4,0.4,2.7,1,3.6c0.9,1.3,3.1,2.3,5.3,3.3
			c1.4,0.6,2.8,1.3,4,2.1c0,0,0.1,0.1,0.1,0.1c0.1,0.1,0.8-1,1.5-2.4c1.2-2.3,2.3-4.7,3.3-7.2c0.6-1.4,0.7-2.5,0.3-2.3
			c-0.3,0.1-0.5,0.2-0.8,0.3C509,382.8,508.7,383,508.3,383.2z"/>
		<path class="st0" d="M451.7,428.8c-1.1-2.2-2.3-4.7-2.7-7.3c-0.3-2-0.2-3.9,0-5.8c0.1-1,0.2-1.9,0.2-2.8c0-0.4,0-0.8,0-1.2
			c0-0.7-1.2-0.8-2.6-0.1c-2.8,1.4-3.5,2.8-7.3,3.5c-2.3,0.4-3.6,2-3.7,3.6c-0.1,3.1-0.2,7.4-0.2,13v0.5c0,5.1,4.6,9,10.6,9
			c1.8,0,3.7-0.3,5.6-1c0.9-0.3,1.7-0.6,2.6-1c1.4-0.6,1.8-2.1,1.1-3.5c-1-1.7-1.8-3.3-2.5-4.8C452.4,430.3,452,429.5,451.7,428.8z"
			/>
		<path class="st0" d="M479.7,281.8c0.8-0.3,1.5-0.7,2.3-1c1.2-0.6,2.4-1.3,3.7-1.9c0.6-0.3,1.2-0.6,1.8-0.9c1-0.5,0.9-1.8-0.2-2.9
			c-1.2-1.1-2.4-2.2-3.6-3.3c-1.2-1-2.2-0.6-2.4,1c-0.4,2.8-1.3,5.3-2.5,7.6C478.1,281.7,478.4,282.4,479.7,281.8z"/>
		<path class="st0" d="M474.7,289.5c-0.8,0.3-1.6,0.5-2.4,0.7c-1.3,0.4-3.3,1.7-4.4,2.7c-0.8,0.7-1.6,1.5-2.3,2.2
			c-2.3,2.2-4.7,4.6-7.3,6.7c-3.5,2.9-6.6,6.1-10.1,10.2c-0.2,0.2-0.3,0.4-0.5,0.6c-0.3,0.3-0.4,1.1-0.2,1.8
			c0.1,0.7,1.4,0.8,2.9,0.3c3.3-1.1,6.7-2,9.9-2.9c1.5-0.4,2.9-0.7,4.4-1.1c2.8-0.7,5.5-1.3,8.1-2.1c3.5-1.1,6-3.2,8.9-5.5
			c1.5-1.3,3.1-2.6,5-3.8c1.3-0.9,2.6-1.7,3.9-2.4c3.4-2,6.6-4,8.9-7c0,0,0.1-0.1,0.1-0.1c0.1-0.1-0.6-1.2-1.5-2.4
			c-1-1.3-2-2.6-3-3.9c-1-1.2-2.9-1.6-4.3-0.9c-0.8,0.4-1.7,0.9-2.5,1.3c-1.2,0.6-2.4,1.2-3.6,1.9
			C481.3,287.5,477.9,288.5,474.7,289.5z"/>
		<path class="st0" d="M514.7,346.5c-2,0.1-3.9,0.3-5.8,0.6c-1,0.2-2,0.3-3,0.5c-2.1,0.4-4.4,0.8-6.6,1.1c-1.6,0.2-3.2,0.4-4.8,0.6
			c-5.1,0.5-9.8,1.1-14.3,2.8c-0.4,0.2-0.8,0.3-1.2,0.4c-0.7,0.2-0.8,0.7-0.3,1.1c0.3,0.2,0.6,0.5,0.9,0.7c2.4,1.8,5.6,2.7,9,3.3
			c1.5,0.3,4.1,0.5,5.6,0.6c1.6,0.1,3.2,0.4,4.7,0.6c3.2,0.5,6.2,0.9,9.1,0.5c1.6-0.2,3.6-1,5.5-1.8c1.1-0.4,2.2-0.9,3.2-1.3
			c0,0,0.1,0,0.1,0c0.1,0,0.2-1.3,0.4-2.9c0.1-1.3,0.2-2.6,0.2-3.9C517.5,347.7,516.2,346.5,514.7,346.5z"/>
		<path class="st0" d="M488.6,399.2c-1.4-1.3-3.3-2.3-5.3-3.3c-1.6-0.8-3.2-1.6-4.7-2.7l-0.4-0.3c-2.4-1.6-5-3.5-7.5-3.8
			c-0.9-0.1-1.9,0-3,0c-0.1,0-0.2,0-0.3,0c-0.2,0,0.5,1,1.3,2.4c0.5,0.9,1,1.7,1.4,2.6c0.9,1.8,1.1,3.5,1.3,5
			c0.1,0.9,0.2,1.7,0.4,2.4c0.3,1.1,1.5,1.9,3.4,3c0.6,0.4,1.2,0.7,1.8,1.2c3.6,2.5,7,5.4,10.2,8.3c1.2,1.1,3,1,4-0.1
			c1.1-1.2,2.2-2.5,3.3-3.8c1-1.2,1.5-2.5,1.1-2.8c-0.2-0.2-0.4-0.4-0.6-0.6c-1.4-1.3-2.4-2.7-3.4-4.1
			C490.6,401.4,489.7,400.2,488.6,399.2z"/>
		<path class="st0" d="M472.1,409.4c-0.2-0.1-0.4-0.2-0.6-0.4c-0.3-0.2-0.8,0.7-0.6,2c0.1,0.9,0.3,1.6,0.8,2.2
			c0.8,1.1,1.8,2.1,2.8,3.2c1.3,1.3,2.6,2.7,3.7,4.4c0.4,0.5,0.7,1.1,1.1,1.6c0.6,0.9,2,0.8,3.2-0.2c0.2-0.2,0.4-0.3,0.5-0.5
			c1.2-1,1.2-2.8,0-3.8c-3-2.7-6.1-5.4-9.4-7.6C473.1,410,472.6,409.7,472.1,409.4z"/>
	</g>
</g>
<g>
	<path class="st0" d="M528.4,296.7c5.5,14.3,8.7,31.4,8.7,49.8c0,19.5-3.6,37.6-9.7,52.4l8,0.2v8.2l-12.1,0.3
		c-1.7,3.8-1.6,21.7-1.6,24.7c0,12.1,12.9,21.2,27.6,16c41.7-14.9,71.6-54.8,71.6-101.7c0-46.9-29.9-86.8-71.6-101.7
		c-14.7-5.3-27.6,3.9-27.6,16c0,0-0.7,15.1,1.6,24.7l12.1,0.3v8.2l-5.2,0.1h-2.8L528.4,296.7z"/>
	<g>
		<path class="st0" d="M588.8,343.6c1.6-0.2,3.1-0.3,4.7-0.5c2.1-0.3,4.3-0.7,6.4-1c1-0.2,2-0.4,3-0.5c2.2-0.4,4.4-0.6,6.6-0.6
			c1.6-0.1,2.8-0.2,2.8-0.4c0-0.2-1-0.6-2.1-1.2c-0.7-0.4-1.3-0.8-1.9-1.2c-0.3-0.2-0.7-0.5-1.1-0.7c-3.1-2-7.1-3-10.2-2.5
			c-9.7,1.5-13.1-0.4-19.2-3.9c-0.6-0.3-1.2-0.7-1.8-1c-1-0.6-3.1-0.8-4.7-0.6c-2,0.3-3.9,0.7-5.8,1.1c-3.7,0.7-7.5,1.5-11.3,1.9
			c-1.5,0.2-2.9,0.2-4.3,0.2c-1.4,0-2.7,0-3.9,0.1c-0.2,0-0.3,0-0.5,0.1c-0.3,0.1-0.5,0.3-0.5,0.6c0,0.3,1.3,0.7,2.8,1.1
			c4.2,1.1,7.7,3.4,11.3,5.8l0.3,0.2c3.4,2.2,6.3,4,8.8,5.5c1.4,0.8,2.4,1.5,2.4,1.6c0,0.1,0.5,0,1.2-0.3c0.4-0.1,0.8-0.3,1.3-0.5
			C578.3,344.7,583.6,344.2,588.8,343.6z"/>
		<path class="st0" d="M557.5,346.3c0.5,0.1,0.4-0.2-0.2-0.5c-0.3-0.2-0.7-0.4-1-0.7l-0.3-0.2c-2.8-1.9-5.3-3.5-7.9-4.5
			c-1.5-0.6-2.7,0.3-2.6,1.6c0,1.3,1.3,2.4,2.9,2.5c1.5,0.1,3,0.4,4.5,0.7c0.6,0.1,1.3,0.3,1.9,0.4
			C555.9,346,557.1,346.3,557.5,346.3z"/>
		<path class="st0" d="M588.1,326.3c-0.2,0.1-0.3,0.1-0.3,0.1s-1.1,0.2-2.4,0.5c-1.3,0.3-1.2,1.2,0.2,1.8c2.8,1.2,5.4,1.4,10.5,0.6
			c4.5-0.7,9.9,0.6,14.1,3.3c0.2,0.1,0.4,0.3,0.6,0.4c0.4,0.2,0.5-0.8,0.2-2.4c-0.4-2.3-0.8-4.5-1.3-6.8c-0.4-1.5-1.9-2.4-3.4-2.1
			c-1.3,0.3-2.5,0.5-3.8,0.6c-2.5,0.4-4.9,0.8-7.2,1.5c-1.4,0.5-2.9,0.9-4.3,1.4C589.6,325.8,588.2,326.2,588.1,326.3z"/>
		<path class="st0" d="M580.2,307.7c-3.1,2.5-6.2,5.1-10.8,6.6c-2.8,0.9-5.7,1.6-8.5,2.2c-1.4,0.3-2.9,0.7-4.3,1
			c-3.6,0.9-7,1.8-10.4,3c-1.5,0.5-2.4,2.3-2.2,3.8c0,0,0,0,0,0c0.2,1.6,0.6,2.8,0.8,2.7c0.2,0,0.3-0.1,0.4-0.1
			c1.6-0.2,3.1-0.2,4.6-0.2c1.3,0,2.5,0,3.7-0.1c3.5-0.4,7.2-1.1,10.8-1.8c3.2-0.6,6.6-1.3,9.9-1.7c3-0.4,6.1-1,9.2-1.7
			c1.5-0.4,3.9-1.2,5.2-2.1c3.8-2.6,6.3-6.2,8.5-9.8c0.5-0.9,1-1.8,1.5-2.9c0.5-0.9,0.9-1.9,1.5-2.8c0.8-1.4,1-3.5,0.2-4.9
			c-0.3-0.6-0.7-1.3-1.1-1.9c-0.8-1.4-2.3-1.5-3.5-0.4c-2.3,2.1-4.9,3.6-7.4,5.2c-1.2,0.7-2.5,1.5-3.7,2.3
			C583.2,305.3,581.7,306.5,580.2,307.7z"/>
		<path class="st0" d="M604.8,316.3c1.5-0.3,2.4-1.8,1.8-3.3c-0.3-0.9-0.7-1.8-1-2.7c-0.6-1.5-1.3-2.3-1.5-1.8
			c-0.1,0.3-0.3,0.5-0.4,0.8c-0.5,1.1-1.1,2.2-1.7,3.2c-0.5,0.8-1,1.6-1.6,2.5c-0.9,1.3-1,2.2-0.2,2.1c0.5-0.1,1-0.2,1.4-0.2
			C602.8,316.7,603.8,316.5,604.8,316.3z"/>
		<path class="st0" d="M603.8,364.9c-0.1,0-0.1,0-0.2,0c-0.1,0-0.1,0.1-0.1,0.2c0,0.1,0.1,0.1,0.1,0.2c1.4,1.6,2.1,3.4,2.7,5
			c0.3,0.7,0.6,1.4,0.9,2c0.6,1.1,1.6,0.6,2-0.9c0.5-2,1-4,1.4-6.1c0.3-1.5,0.4-2.8,0.3-2.7c-0.1,0-0.1,0.1-0.2,0.1
			C608.5,363.6,606.1,364.6,603.8,364.9z"/>
		<path class="st0" d="M550.4,274.8c0.2-0.6-0.3-0.5-1.3,0.1c-0.6,0.4-1.2,0.7-1.8,1c-1.8,1-3.5,1.9-4.7,3.3
			c-0.1,0.1-0.2,0.2-0.2,0.3c-0.1,0.1,0.8,0.7,2,1.4c1.2,0.7,2.9,0.3,3.7-1.1c0.7-1.2,1.4-2.5,2-3.8
			C550.1,275.5,550.3,275.1,550.4,274.8z"/>
		<path class="st0" d="M585.9,392c-1.4-2-1.7-4.1-2-6c-0.2-1.4-0.4-2.6-0.9-3.5c-0.2-0.3-0.4-0.5-0.6-0.8c-0.4-0.4-1.8-1.3-3.1-2.1
			c-0.8-0.5-1.6-1-2.4-1.5c-3.1-2-6-3.8-9.5-4.5c-8.2-1.5-14.5-3.6-19.7-6.7c-0.5-0.3-1-0.6-1.6-0.9c-0.9-0.5-1.7,0.2-1.9,1.5
			c-0.2,1.3,0.1,3,0.7,3.7c0.4,0.4,0.7,0.9,1,1.3c1.7,1.9,3.4,3.2,5.3,4.7c0.7,0.5,1.5,1.1,2.2,1.7c0.8,0.7,1.5,1.4,2.2,2.2
			c0.9,1,1.8,2,2.7,2.3c1,0.3,2.3,0.2,3.7,0.1c1.4-0.1,2.8-0.2,4.2,0c3.8,0.6,7.1,2.8,9.9,4.8l0.4,0.3c1.2,0.8,2.6,1.5,4.1,2.3
			c2.3,1.1,4.6,2.3,6.6,4.1c1.5,1.4,2.6,2.8,3.7,4.3c0.9,1.2,1.7,2.4,2.8,3.3c0.1,0.1,0.2,0.2,0.4,0.3c0.2,0.2,1-0.6,1.8-1.7
			c0.8-1.1,1.2-2.2,1.1-2.2c-0.1-0.1-0.2-0.1-0.2-0.2c-0.9-0.6-2.1-1.1-3.3-1.7C590.8,396,587.7,394.5,585.9,392z"/>
		<path class="st0" d="M552.3,288.3c1.8,3.9-0.9,6.2-2.7,6.6c-9.7,1.9-9.9,8.7-9.4,10.2c0.1,0.2,0.1,0.5,0.2,0.7
			c0.1,0.4,1-0.2,2.1-1.4c2.4-2.5,4.7-4.8,7.2-6.8c2.4-2,4.7-4.3,7-6.4c1.5-1.5,3.1-3,4.7-4.4c6.6-6,9.6-11.4,9.6-17.4
			c0-0.6,0-1.3,0-1.9c0-1-1-2.6-2.3-3.5c-1.4-0.9-2.8-1.8-4.3-2.7c-1.3-0.8-2.8-0.2-3.3,1.3c-1.5,4.8-3.4,9.9-5.7,15.5
			c-0.8,1.9-1.8,3.8-2.9,5.5C551.5,284.9,551.6,286.8,552.3,288.3z"/>
		<path class="st0" d="M565.3,420.2c-1.1-1.2-2.2-2.3-3.2-3.7c-2.2-3-2.2-6.9-1.5-10.3c0.3-1.5,0.8-2.8,0.7-2.9
			c0-0.1-0.1-0.1-0.1-0.2c-0.4-1.2-0.5-2.3-0.6-3.4c-0.2-1.2-0.3-2.3-0.7-3.2c-1.7-3.5-4.8-7.2-9.3-11c-0.8-0.7-1.8-1.4-2.9-2.1
			c-0.9-0.6-1.8-1.2-2.7-1.9c-0.5-0.4-0.9-0.7-1.4-1.1c-0.8-0.6-1.6,0.1-2,1.6c-0.5,2-0.9,3.9-1.5,5.9c-0.1,0.2-0.1,0.4-0.1,0.6
			c0,0.4,0.2,0.8,0.4,1c0.1,0.1,0.2,0.2,0.3,0.3c0.3,0.3,0.5,0.6,0.8,0.9c0.4,0.5,2,1.3,3.5,1.7c1.3,0.4,2.7,1.1,4.5,2.8
			c2.8,2.8,3.5,7.1,2,10.4c-0.7,1.4-1.6,2.9-1.7,3.6c0,0.4,0,0.9-0.1,1.3c0,0.8-0.1,1.5-0.1,2.2c0,1.1-0.1,2.2-0.2,3.3
			c-0.1,1.6-0.3,3.2-0.1,4.4c0.3,1.8,1.3,3.8,2.2,5.7c0.4,0.8,0.8,1.6,1.1,2.3c0.7,1.6,1.5,3.2,2.5,4.8c0.8,1.3,2.7,1.8,4,1.1
			c3.1-1.6,6.1-3.5,9-5.4c1.3-0.9,1.8-2.4,1.2-3.4c-0.4-0.6-0.8-1.2-1.2-1.7C567.5,422.7,566.4,421.5,565.3,420.2z"/>
		<path class="st0" d="M580,373.3c0.4,0.3,0.8,0.5,1.2,0.8c0.7,0.4,1.2,0.7,1.3,0.6c0-0.1,0.7,0.2,1.4,0.7c0.7,0.5,1.3,1,1.4,1
			c0.1,0,0.1,0.1,0.2,0.1c2.8,1.3,6.4,2.2,10.3,2.5c1.7,0.1,2.8,0.2,3.4,0c0.4-0.1,0.6-0.2,1.1-0.6c0.5-0.3,1.1-0.7,1.9-1
			c0.2-0.1,0.5-0.2,0.7-0.3c0.4-0.2,0-1.2-0.6-2.4c-0.4-0.8-0.7-1.6-1-2.3c-0.6-1.4-1.1-2.6-1.9-3.5c-3-3.6-8.1-4.4-13.4-5.2
			c-5.1-0.8-10.4-1.6-14.7-4.9c-4-3-6.3-4.7-10.4-5.7c-1-0.2-2.1-0.5-3.1-0.8c-0.3-0.1-0.6-0.2-1-0.2c-0.5-0.1-2.2-0.4-3.8-0.4
			c-1.5-0.1-3,0-4.5,0c-1.6,0-2.9,1.4-3,2.9c0,0.5-0.1,1.1-0.1,1.6c-0.1,1.6,0.9,3.4,2.3,4.2c1,0.6,2,1.1,3,1.7
			c4.7,2.7,10.4,4.6,17.9,6C573,368.9,576.6,371.2,580,373.3z"/>
		<path class="st0" d="M545.2,260.1c-0.1,3.1-0.7,6-1.3,8.8c-0.1,0.4-0.2,0.9-0.3,1.3c-0.1,0.7,0,1.1,0.3,1c0.2-0.1,0.4-0.2,0.5-0.3
			c1.7-1,3.4-1.9,4.6-3.1c1.4-1.5,2.4-3.5,3.4-5.6c0.5-1.1,1-2.1,1.7-3.2c0.8-1.4,0.4-2.9-1-3.6c-2.2-1-4.4-1.9-6.7-2.7
			c-0.3-0.1-0.6-0.2-1-0.3c-0.5-0.2-1-0.1-0.9,0.1c0,0.1,0,0.2,0,0.4C545,255.2,545.3,257.5,545.2,260.1z"/>
		<path class="st0" d="M534.7,277.4c0.7,0.1,1.3,0.1,1.4-0.1c0-0.1,0.1-0.2,0.1-0.4c0.6-1.8,1.1-3.4,1.4-5.1c0.2-1.4,0.5-2.7,0.8-4
			c0.6-2.7,1.1-5.3,1.2-7.9c0.1-2.1-0.2-4.1-0.5-6.2c0-0.3-0.1-0.6-0.1-0.9c-0.1-0.5-1.4-0.8-2.9-0.2c-3.5,1.4-5.8,4.4-5.8,8.1v0.2
			l0,0.2c0,0.1-0.3,6.4,0.2,13.1c0,0.8,0.4,1.5,1,2C532.3,277.1,534,277.2,534.7,277.4z"/>
		<path class="st0" d="M603.3,383.2c-0.7,0.4-1.6,1.1-3,1.4c-0.7,0.2-1.5,0.2-2.4,0.2c-0.9,0-1.9-0.1-2.7-0.1
			c-0.9-0.1-1.9-0.2-3.1-0.4c-1.5-0.2-2.7-0.2-2.7,0.2c0,0.2,0.1,0.5,0.1,0.7c0.2,1.4,0.4,2.7,1,3.6c0.9,1.3,3.1,2.3,5.3,3.3
			c1.4,0.6,2.8,1.3,4,2.1c0,0,0.1,0.1,0.1,0.1c0.1,0.1,0.8-1,1.5-2.4c1.2-2.3,2.3-4.7,3.3-7.2c0.6-1.4,0.7-2.5,0.3-2.3
			c-0.3,0.1-0.5,0.2-0.8,0.3C603.9,382.8,603.6,383,603.3,383.2z"/>
		<path class="st0" d="M546.6,428.8c-1.1-2.2-2.3-4.7-2.7-7.3c-0.3-2-0.2-3.9,0-5.8c0.1-1,0.2-1.9,0.2-2.8c0-0.4,0-0.8,0-1.2
			c0-0.7-1.2-0.8-2.6-0.1c-2.8,1.4-3.5,2.8-7.3,3.5c-2.3,0.4-3.6,2-3.7,3.6c-0.1,3.1-0.2,7.4-0.2,13v0.5c0,5.1,4.6,9,10.6,9
			c1.8,0,3.7-0.3,5.6-1c0.9-0.3,1.7-0.6,2.6-1c1.4-0.6,1.8-2.1,1.1-3.5c-1-1.7-1.8-3.3-2.5-4.8C547.3,430.3,547,429.5,546.6,428.8z"
			/>
		<path class="st0" d="M574.7,281.8c0.8-0.3,1.5-0.7,2.3-1c1.2-0.6,2.4-1.3,3.7-1.9c0.6-0.3,1.2-0.6,1.8-0.9c1-0.5,0.9-1.8-0.2-2.9
			c-1.2-1.1-2.4-2.2-3.6-3.3c-1.2-1-2.2-0.6-2.4,1c-0.4,2.8-1.3,5.3-2.5,7.6C573.1,281.7,573.4,282.4,574.7,281.8z"/>
		<path class="st0" d="M569.7,289.5c-0.8,0.3-1.6,0.5-2.4,0.7c-1.3,0.4-3.3,1.7-4.4,2.7c-0.8,0.7-1.6,1.5-2.3,2.2
			c-2.3,2.2-4.7,4.6-7.3,6.7c-3.5,2.9-6.6,6.1-10.1,10.2c-0.2,0.2-0.3,0.4-0.5,0.6c-0.3,0.3-0.4,1.1-0.2,1.8
			c0.1,0.7,1.4,0.8,2.9,0.3c3.3-1.1,6.7-2,9.9-2.9c1.5-0.4,2.9-0.7,4.4-1.1c2.8-0.7,5.5-1.3,8.1-2.1c3.5-1.1,6-3.2,8.9-5.5
			c1.5-1.3,3.1-2.6,5-3.8c1.3-0.9,2.6-1.7,3.9-2.4c3.4-2,6.6-4,8.9-7c0,0,0.1-0.1,0.1-0.1c0.1-0.1-0.6-1.2-1.5-2.4
			c-1-1.3-2-2.6-3-3.9c-1-1.2-2.9-1.6-4.3-0.9c-0.8,0.4-1.7,0.9-2.5,1.3c-1.2,0.6-2.4,1.2-3.6,1.9
			C576.3,287.5,572.9,288.5,569.7,289.5z"/>
		<path class="st0" d="M609.6,346.5c-2,0.1-3.9,0.3-5.8,0.6c-1,0.2-2,0.3-3,0.5c-2.1,0.4-4.4,0.8-6.6,1.1c-1.6,0.2-3.2,0.4-4.8,0.6
			c-5.1,0.5-9.8,1.1-14.3,2.8c-0.4,0.2-0.8,0.3-1.2,0.4c-0.7,0.2-0.8,0.7-0.3,1.1c0.3,0.2,0.6,0.5,0.9,0.7c2.4,1.8,5.6,2.7,9,3.3
			c1.5,0.3,4.1,0.5,5.6,0.6c1.6,0.1,3.2,0.4,4.7,0.6c3.2,0.5,6.2,0.9,9.1,0.5c1.6-0.2,3.6-1,5.5-1.8c1.1-0.4,2.2-0.9,3.2-1.3
			c0,0,0.1,0,0.1,0c0.1,0,0.2-1.3,0.4-2.9c0.1-1.3,0.2-2.6,0.2-3.9C612.5,347.7,611.2,346.5,609.6,346.5z"/>
		<path class="st0" d="M583.6,399.2c-1.4-1.3-3.3-2.3-5.3-3.3c-1.6-0.8-3.2-1.6-4.7-2.7L573,393c-2.4-1.6-5-3.5-7.5-3.8
			c-0.9-0.1-1.9,0-3,0c-0.1,0-0.2,0-0.3,0c-0.2,0,0.5,1,1.3,2.4c0.5,0.9,1,1.7,1.4,2.6c0.9,1.8,1.1,3.5,1.3,5
			c0.1,0.9,0.2,1.7,0.4,2.4c0.3,1.1,1.5,1.9,3.4,3c0.6,0.4,1.2,0.7,1.8,1.2c3.6,2.5,7,5.4,10.2,8.3c1.2,1.1,3,1,4-0.1
			c1.1-1.2,2.2-2.5,3.3-3.8c1-1.2,1.5-2.5,1.1-2.8c-0.2-0.2-0.4-0.4-0.6-0.6c-1.4-1.3-2.4-2.7-3.4-4.1
			C585.5,401.4,584.6,400.2,583.6,399.2z"/>
		<path class="st0" d="M567.1,409.4c-0.2-0.1-0.4-0.2-0.6-0.4c-0.3-0.2-0.8,0.7-0.6,2c0.1,0.9,0.3,1.6,0.8,2.2
			c0.8,1.1,1.8,2.1,2.8,3.2c1.3,1.3,2.6,2.7,3.7,4.4c0.4,0.5,0.7,1.1,1.1,1.6c0.6,0.9,2,0.8,3.2-0.2c0.2-0.2,0.4-0.3,0.5-0.5
			c1.2-1,1.2-2.8,0-3.8c-3-2.7-6.1-5.4-9.4-7.6C568.1,410,567.6,409.7,567.1,409.4z"/>
	</g>
</g>
<g>
	<path class="st0" d="M228.8,296.7c5.5,14.3,8.7,31.4,8.7,49.8c0,19.5-3.6,37.6-9.7,52.4l8,0.2v8.2l-12.1,0.3
		c-1.7,3.8-1.6,21.7-1.6,24.7c0,12.1,12.9,21.2,27.6,16c41.7-14.9,71.6-54.8,71.6-101.7c0-46.9-29.9-86.8-71.6-101.7
		c-14.7-5.3-27.6,3.9-27.6,16c0,0-0.7,15.1,1.6,24.7l12.1,0.3v8.2l-5.2,0.1h-2.8L228.8,296.7z"/>
	<g>
		<path class="st0" d="M289.3,343.6c1.6-0.2,3.1-0.3,4.7-0.5c2.1-0.3,4.3-0.7,6.4-1c1-0.2,2-0.4,3-0.5c2.2-0.4,4.4-0.6,6.6-0.6
			c1.6-0.1,2.8-0.2,2.8-0.4c0-0.2-1-0.6-2.1-1.2c-0.7-0.4-1.3-0.8-1.9-1.2c-0.3-0.2-0.7-0.5-1.1-0.7c-3.1-2-7.1-3-10.2-2.5
			c-9.7,1.5-13.1-0.4-19.2-3.9c-0.6-0.3-1.2-0.7-1.8-1c-1-0.6-3.1-0.8-4.7-0.6c-2,0.3-3.9,0.7-5.8,1.1c-3.7,0.7-7.5,1.5-11.3,1.9
			c-1.5,0.2-2.9,0.2-4.3,0.2c-1.4,0-2.7,0-3.9,0.1c-0.2,0-0.3,0-0.5,0.1c-0.3,0.1-0.5,0.3-0.5,0.6c0,0.3,1.3,0.7,2.8,1.1
			c4.2,1.1,7.7,3.4,11.3,5.8l0.3,0.2c3.4,2.2,6.3,4,8.8,5.5c1.4,0.8,2.4,1.5,2.4,1.6c0,0.1,0.5,0,1.2-0.3c0.4-0.1,0.8-0.3,1.3-0.5
			C278.7,344.7,284.1,344.2,289.3,343.6z"/>
		<path class="st0" d="M258,346.3c0.5,0.1,0.4-0.2-0.2-0.5c-0.3-0.2-0.7-0.4-1-0.7l-0.3-0.2c-2.8-1.9-5.3-3.5-7.9-4.5
			c-1.5-0.6-2.7,0.3-2.6,1.6c0,1.3,1.3,2.4,2.9,2.5c1.5,0.1,3,0.4,4.5,0.7c0.6,0.1,1.3,0.3,1.9,0.4C256.3,346,257.5,346.3,258,346.3
			z"/>
		<path class="st0" d="M288.5,326.3c-0.2,0.1-0.3,0.1-0.3,0.1s-1.1,0.2-2.4,0.5s-1.2,1.2,0.2,1.8c2.8,1.2,5.4,1.4,10.5,0.6
			c4.5-0.7,9.9,0.6,14.1,3.3c0.2,0.1,0.4,0.3,0.6,0.4c0.4,0.2,0.5-0.8,0.2-2.4c-0.4-2.3-0.8-4.5-1.3-6.8c-0.4-1.5-1.9-2.4-3.4-2.1
			c-1.3,0.3-2.5,0.5-3.8,0.6c-2.5,0.4-4.9,0.8-7.2,1.5c-1.4,0.5-2.9,0.9-4.3,1.4C290,325.8,288.7,326.2,288.5,326.3z"/>
		<path class="st0" d="M280.7,307.7c-3.1,2.5-6.2,5.1-10.8,6.6c-2.8,0.9-5.7,1.6-8.5,2.2c-1.4,0.3-2.9,0.7-4.3,1
			c-3.6,0.9-7,1.8-10.4,3c-1.5,0.5-2.4,2.3-2.2,3.8c0,0,0,0,0,0c0.2,1.6,0.6,2.8,0.8,2.7c0.2,0,0.3-0.1,0.4-0.1
			c1.6-0.2,3.1-0.2,4.6-0.2c1.3,0,2.5,0,3.7-0.1c3.5-0.4,7.2-1.1,10.8-1.8c3.2-0.6,6.6-1.3,9.9-1.7c3-0.4,6.1-1,9.2-1.7
			c1.5-0.4,3.9-1.2,5.2-2.1c3.8-2.6,6.3-6.2,8.5-9.8c0.5-0.9,1-1.8,1.5-2.9c0.5-0.9,0.9-1.9,1.5-2.8c0.8-1.4,1-3.5,0.2-4.9
			c-0.3-0.6-0.7-1.3-1.1-1.9c-0.8-1.4-2.3-1.5-3.5-0.4c-2.3,2.1-4.9,3.6-7.4,5.2c-1.2,0.7-2.5,1.5-3.7,2.3
			C283.6,305.3,282.1,306.5,280.7,307.7z"/>
		<path class="st0" d="M305.2,316.3c1.5-0.3,2.4-1.8,1.8-3.3c-0.3-0.9-0.7-1.8-1-2.7c-0.6-1.5-1.3-2.3-1.5-1.8
			c-0.1,0.3-0.3,0.5-0.4,0.8c-0.5,1.1-1.1,2.2-1.7,3.2c-0.5,0.8-1,1.6-1.6,2.5c-0.9,1.3-1,2.2-0.2,2.1c0.5-0.1,1-0.2,1.4-0.2
			C303.2,316.7,304.2,316.5,305.2,316.3z"/>
		<path class="st0" d="M304.2,364.9c-0.1,0-0.1,0-0.2,0c-0.1,0-0.1,0.1-0.1,0.2c0,0.1,0.1,0.1,0.1,0.2c1.4,1.6,2.1,3.4,2.7,5
			c0.3,0.7,0.6,1.4,0.9,2c0.6,1.1,1.6,0.6,2-0.9c0.5-2,1-4,1.4-6.1c0.3-1.5,0.4-2.8,0.3-2.7c-0.1,0-0.1,0.1-0.2,0.1
			C308.9,363.6,306.6,364.6,304.2,364.9z"/>
		<path class="st0" d="M250.8,274.8c0.2-0.6-0.3-0.5-1.3,0.1c-0.6,0.4-1.2,0.7-1.8,1c-1.8,1-3.5,1.9-4.7,3.3
			c-0.1,0.1-0.2,0.2-0.2,0.3c-0.1,0.1,0.8,0.7,2,1.4c1.2,0.7,2.9,0.3,3.7-1.1c0.7-1.2,1.4-2.5,2-3.8
			C250.6,275.5,250.7,275.1,250.8,274.8z"/>
		<path class="st0" d="M286.3,392c-1.4-2-1.7-4.1-2-6c-0.2-1.4-0.4-2.6-0.9-3.5c-0.2-0.3-0.4-0.5-0.6-0.8c-0.4-0.4-1.8-1.3-3.1-2.1
			c-0.8-0.5-1.6-1-2.4-1.5c-3.1-2-6-3.8-9.5-4.5c-8.2-1.5-14.5-3.6-19.7-6.7c-0.5-0.3-1-0.6-1.6-0.9c-0.9-0.5-1.7,0.2-1.9,1.5
			s0.1,3,0.7,3.7c0.4,0.4,0.7,0.9,1,1.3c1.7,1.9,3.4,3.2,5.3,4.7c0.7,0.5,1.5,1.1,2.2,1.7c0.8,0.7,1.5,1.4,2.2,2.2
			c0.9,1,1.8,2,2.7,2.3c1,0.3,2.3,0.2,3.7,0.1c1.4-0.1,2.8-0.2,4.2,0c3.8,0.6,7.1,2.8,9.9,4.8l0.4,0.3c1.2,0.8,2.6,1.5,4.1,2.3
			c2.3,1.1,4.6,2.3,6.6,4.1c1.5,1.4,2.6,2.8,3.7,4.3c0.9,1.2,1.7,2.4,2.8,3.3c0.1,0.1,0.2,0.2,0.4,0.3c0.2,0.2,1-0.6,1.8-1.7
			c0.8-1.1,1.2-2.2,1.1-2.2c-0.1-0.1-0.2-0.1-0.2-0.2c-0.9-0.6-2.1-1.1-3.3-1.7C291.2,396,288.1,394.5,286.3,392z"/>
		<path class="st0" d="M252.7,288.3c1.8,3.9-0.9,6.2-2.7,6.6c-9.7,1.9-9.9,8.7-9.4,10.2c0.1,0.2,0.1,0.5,0.2,0.7
			c0.1,0.4,1-0.2,2.1-1.4c2.4-2.5,4.7-4.8,7.2-6.8c2.4-2,4.7-4.3,7-6.4c1.5-1.5,3.1-3,4.7-4.4c6.6-6,9.6-11.4,9.6-17.4
			c0-0.6,0-1.3,0-1.9c0-1-1-2.6-2.3-3.5c-1.4-0.9-2.8-1.8-4.3-2.7c-1.3-0.8-2.8-0.2-3.3,1.3c-1.5,4.8-3.4,9.9-5.7,15.5
			c-0.8,1.9-1.8,3.8-2.9,5.5C251.9,284.9,252,286.8,252.7,288.3z"/>
		<path class="st0" d="M265.7,420.2c-1.1-1.2-2.2-2.3-3.2-3.7c-2.2-3-2.2-6.9-1.5-10.3c0.3-1.5,0.8-2.8,0.7-2.9
			c0-0.1-0.1-0.1-0.1-0.2c-0.4-1.2-0.5-2.3-0.6-3.4c-0.2-1.2-0.3-2.3-0.7-3.2c-1.7-3.5-4.8-7.2-9.3-11c-0.8-0.7-1.8-1.4-2.9-2.1
			c-0.9-0.6-1.8-1.2-2.7-1.9c-0.5-0.4-0.9-0.7-1.4-1.1c-0.8-0.6-1.6,0.1-2,1.6c-0.5,2-0.9,3.9-1.5,5.9c-0.1,0.2-0.1,0.4-0.1,0.6
			c0,0.4,0.2,0.8,0.4,1c0.1,0.1,0.2,0.2,0.3,0.3c0.3,0.3,0.5,0.6,0.8,0.9c0.4,0.5,2,1.3,3.5,1.7c1.3,0.4,2.7,1.1,4.5,2.8
			c2.8,2.8,3.5,7.1,2,10.4c-0.7,1.4-1.6,2.9-1.7,3.6c0,0.4,0,0.9-0.1,1.3c0,0.8-0.1,1.5-0.1,2.2c0,1.1-0.1,2.2-0.2,3.3
			c-0.1,1.6-0.3,3.2-0.1,4.4c0.3,1.8,1.3,3.8,2.2,5.7c0.4,0.8,0.8,1.6,1.1,2.3c0.7,1.6,1.5,3.2,2.5,4.8c0.8,1.3,2.7,1.8,4,1.1
			c3.1-1.6,6.1-3.5,9-5.4c1.3-0.9,1.8-2.4,1.2-3.4c-0.4-0.6-0.8-1.2-1.2-1.7C268,422.7,266.8,421.5,265.7,420.2z"/>
		<path class="st0" d="M280.4,373.3c0.4,0.3,0.8,0.5,1.2,0.8c0.7,0.4,1.2,0.7,1.3,0.6c0-0.1,0.7,0.2,1.4,0.7c0.7,0.5,1.3,1,1.4,1
			c0.1,0,0.1,0.1,0.2,0.1c2.8,1.3,6.4,2.2,10.3,2.5c1.7,0.1,2.8,0.2,3.4,0c0.4-0.1,0.6-0.2,1.1-0.6c0.5-0.3,1.1-0.7,1.9-1
			c0.2-0.1,0.5-0.2,0.7-0.3c0.4-0.2,0-1.2-0.6-2.4c-0.4-0.8-0.7-1.6-1-2.3c-0.6-1.4-1.1-2.6-1.9-3.5c-3-3.6-8.1-4.4-13.4-5.2
			c-5.1-0.8-10.4-1.6-14.7-4.9c-4-3-6.3-4.7-10.4-5.7c-1-0.2-2.1-0.5-3.1-0.8c-0.3-0.1-0.6-0.2-1-0.2c-0.5-0.1-2.2-0.4-3.8-0.4
			c-1.5-0.1-3,0-4.5,0c-1.6,0-2.9,1.4-3,2.9c0,0.5-0.1,1.1-0.1,1.6c-0.1,1.6,0.9,3.4,2.3,4.2c1,0.6,2,1.1,3,1.7
			c4.7,2.7,10.4,4.6,17.9,6C273.5,368.9,277,371.2,280.4,373.3z"/>
		<path class="st0" d="M245.7,260.1c-0.1,3.1-0.7,6-1.3,8.8c-0.1,0.4-0.2,0.9-0.3,1.3c-0.1,0.7,0,1.1,0.3,1c0.2-0.1,0.4-0.2,0.5-0.3
			c1.7-1,3.4-1.9,4.6-3.1c1.4-1.5,2.4-3.5,3.4-5.6c0.5-1.1,1-2.1,1.7-3.2c0.8-1.4,0.4-2.9-1-3.6c-2.2-1-4.4-1.9-6.7-2.7
			c-0.3-0.1-0.6-0.2-1-0.3c-0.5-0.2-1-0.1-0.9,0.1c0,0.1,0,0.2,0,0.4C245.4,255.2,245.8,257.5,245.7,260.1z"/>
		<path class="st0" d="M235.2,277.4c0.7,0.1,1.3,0.1,1.4-0.1c0-0.1,0.1-0.2,0.1-0.4c0.6-1.8,1.1-3.4,1.4-5.1c0.2-1.4,0.5-2.7,0.8-4
			c0.6-2.7,1.1-5.3,1.2-7.9c0.1-2.1-0.2-4.1-0.5-6.2c0-0.3-0.1-0.6-0.1-0.9c-0.1-0.5-1.4-0.8-2.9-0.2c-3.5,1.4-5.8,4.4-5.8,8.1v0.2
			l0,0.2c0,0.1-0.3,6.4,0.2,13.1c0,0.8,0.4,1.5,1,2C232.7,277.1,234.5,277.2,235.2,277.4z"/>
		<path class="st0" d="M303.7,383.2c-0.7,0.4-1.6,1.1-3,1.4c-0.7,0.2-1.5,0.2-2.4,0.2c-0.9,0-1.9-0.1-2.7-0.1
			c-0.9-0.1-1.9-0.2-3.1-0.4c-1.5-0.2-2.7-0.2-2.7,0.2c0,0.2,0.1,0.5,0.1,0.7c0.2,1.4,0.4,2.7,1,3.6c0.9,1.3,3.1,2.3,5.3,3.3
			c1.4,0.6,2.8,1.3,4,2.1c0,0,0.1,0.1,0.1,0.1c0.1,0.1,0.8-1,1.5-2.4c1.2-2.3,2.3-4.7,3.3-7.2c0.6-1.4,0.7-2.5,0.3-2.3
			c-0.3,0.1-0.5,0.2-0.8,0.3C304.4,382.8,304.1,383,303.7,383.2z"/>
		<path class="st0" d="M247.1,428.8c-1.1-2.2-2.3-4.7-2.7-7.3c-0.3-2-0.2-3.9,0-5.8c0.1-1,0.2-1.9,0.2-2.8c0-0.4,0-0.8,0-1.2
			c0-0.7-1.2-0.8-2.6-0.1c-2.8,1.4-3.5,2.8-7.3,3.5c-2.3,0.4-3.6,2-3.7,3.6c-0.1,3.1-0.2,7.4-0.2,13v0.5c0,5.1,4.6,9,10.6,9
			c1.8,0,3.7-0.3,5.6-1c0.9-0.3,1.7-0.6,2.6-1c1.4-0.6,1.8-2.1,1.1-3.5c-1-1.7-1.8-3.3-2.5-4.8C247.8,430.3,247.4,429.5,247.1,428.8
			z"/>
		<path class="st0" d="M275.1,281.8c0.8-0.3,1.5-0.7,2.3-1c1.2-0.6,2.4-1.3,3.7-1.9c0.6-0.3,1.2-0.6,1.8-0.9c1-0.5,0.9-1.8-0.2-2.9
			c-1.2-1.1-2.4-2.2-3.6-3.3c-1.2-1-2.2-0.6-2.4,1c-0.4,2.8-1.3,5.3-2.5,7.6C273.5,281.7,273.8,282.4,275.1,281.8z"/>
		<path class="st0" d="M270.1,289.5c-0.8,0.3-1.6,0.5-2.4,0.7c-1.3,0.4-3.3,1.7-4.4,2.7c-0.8,0.7-1.6,1.5-2.3,2.2
			c-2.3,2.2-4.7,4.6-7.3,6.7c-3.5,2.9-6.6,6.1-10.1,10.2c-0.2,0.2-0.3,0.4-0.5,0.6c-0.3,0.3-0.4,1.1-0.2,1.8
			c0.1,0.7,1.4,0.8,2.9,0.3c3.3-1.1,6.7-2,9.9-2.9c1.5-0.4,2.9-0.7,4.4-1.1c2.8-0.7,5.5-1.3,8.1-2.1c3.5-1.1,6-3.2,8.9-5.5
			c1.5-1.3,3.1-2.6,5-3.8c1.3-0.9,2.6-1.7,3.9-2.4c3.4-2,6.6-4,8.9-7c0,0,0.1-0.1,0.1-0.1c0.1-0.1-0.6-1.2-1.5-2.4
			c-1-1.3-2-2.6-3-3.9c-1-1.2-2.9-1.6-4.3-0.9c-0.8,0.4-1.7,0.9-2.5,1.3c-1.2,0.6-2.4,1.2-3.6,1.9
			C276.7,287.5,273.4,288.5,270.1,289.5z"/>
		<path class="st0" d="M310.1,346.5c-2,0.1-3.9,0.3-5.8,0.6c-1,0.2-2,0.3-3,0.5c-2.1,0.4-4.4,0.8-6.6,1.1c-1.6,0.2-3.2,0.4-4.8,0.6
			c-5.1,0.5-9.8,1.1-14.3,2.8c-0.4,0.2-0.8,0.3-1.2,0.4c-0.7,0.2-0.8,0.7-0.3,1.1c0.3,0.2,0.6,0.5,0.9,0.7c2.4,1.8,5.6,2.7,9,3.3
			c1.5,0.3,4.1,0.5,5.6,0.6c1.6,0.1,3.2,0.4,4.7,0.6c3.2,0.5,6.2,0.9,9.1,0.5c1.6-0.2,3.6-1,5.5-1.8c1.1-0.4,2.2-0.9,3.2-1.3
			c0,0,0.1,0,0.1,0c0.1,0,0.2-1.3,0.4-2.9c0.1-1.3,0.2-2.6,0.2-3.9C312.9,347.7,311.6,346.5,310.1,346.5z"/>
		<path class="st0" d="M284,399.2c-1.4-1.3-3.3-2.3-5.3-3.3c-1.6-0.8-3.2-1.6-4.7-2.7l-0.4-0.3c-2.4-1.6-5-3.5-7.5-3.8
			c-0.9-0.1-1.9,0-3,0c-0.1,0-0.2,0-0.3,0c-0.2,0,0.5,1,1.3,2.4c0.5,0.9,1,1.7,1.4,2.6c0.9,1.8,1.1,3.5,1.3,5
			c0.1,0.9,0.2,1.7,0.4,2.4c0.3,1.1,1.5,1.9,3.4,3c0.6,0.4,1.2,0.7,1.8,1.2c3.6,2.5,7,5.4,10.2,8.3c1.2,1.1,3,1,4-0.1
			c1.1-1.2,2.2-2.5,3.3-3.8c1-1.2,1.5-2.5,1.1-2.8c-0.2-0.2-0.4-0.4-0.6-0.6c-1.4-1.3-2.4-2.7-3.4-4.1
			C286,401.4,285.1,400.2,284,399.2z"/>
		<path class="st0" d="M267.5,409.4c-0.2-0.1-0.4-0.2-0.6-0.4c-0.3-0.2-0.8,0.7-0.6,2c0.1,0.9,0.3,1.6,0.8,2.2
			c0.8,1.1,1.8,2.1,2.8,3.2c1.3,1.3,2.6,2.7,3.7,4.4c0.4,0.5,0.7,1.1,1.1,1.6c0.6,0.9,2,0.8,3.2-0.2c0.2-0.2,0.4-0.3,0.5-0.5
			c1.2-1,1.2-2.8,0-3.8c-3-2.7-6.1-5.4-9.4-7.6C268.6,410,268,409.7,267.5,409.4z"/>
	</g>
</g>
<g>
	<path class="st0" d="M114.4,296.7c5.5,14.3,8.7,31.4,8.7,49.8c0,19.5-3.6,37.6-9.7,52.4l8,0.2v8.2l-12.1,0.3
		c-1.7,3.8-1.6,21.7-1.6,24.7c0,12.1,12.9,21.2,27.6,16c41.7-14.9,71.6-54.8,71.6-101.7c0-46.9-29.9-86.8-71.6-101.7
		c-14.7-5.3-27.6,3.9-27.6,16c0,0-0.7,15.1,1.6,24.7l12.1,0.3v8.2l-5.2,0.1h-2.8L114.4,296.7z"/>
	<g>
		<path class="st0" d="M174.8,343.6c1.6-0.2,3.1-0.3,4.7-0.5c2.1-0.3,4.3-0.7,6.4-1c1-0.2,2-0.4,3-0.5c2.2-0.4,4.4-0.6,6.6-0.6
			c1.6-0.1,2.8-0.2,2.8-0.4c0-0.2-1-0.6-2.1-1.2c-0.7-0.4-1.3-0.8-1.9-1.2c-0.3-0.2-0.7-0.5-1.1-0.7c-3.1-2-7.1-3-10.2-2.5
			c-9.7,1.5-13.1-0.4-19.2-3.9c-0.6-0.3-1.2-0.7-1.8-1c-1-0.6-3.1-0.8-4.7-0.6c-2,0.3-3.9,0.7-5.8,1.1c-3.7,0.7-7.5,1.5-11.3,1.9
			c-1.5,0.2-2.9,0.2-4.3,0.2c-1.4,0-2.7,0-3.9,0.1c-0.2,0-0.3,0-0.5,0.1c-0.3,0.1-0.5,0.3-0.5,0.6c0,0.3,1.3,0.7,2.8,1.1
			c4.2,1.1,7.7,3.4,11.3,5.8l0.3,0.2c3.4,2.2,6.3,4,8.8,5.5c1.4,0.8,2.4,1.5,2.4,1.6c0,0.1,0.5,0,1.2-0.3c0.4-0.1,0.8-0.3,1.3-0.5
			C164.3,344.7,169.6,344.2,174.8,343.6z"/>
		<path class="st0" d="M143.5,346.3c0.5,0.1,0.4-0.2-0.2-0.5c-0.3-0.2-0.7-0.4-1-0.7l-0.3-0.2c-2.8-1.9-5.3-3.5-7.9-4.5
			c-1.5-0.6-2.7,0.3-2.6,1.6c0,1.3,1.3,2.4,2.9,2.5c1.5,0.1,3,0.4,4.5,0.7c0.6,0.1,1.3,0.3,1.9,0.4
			C141.9,346,143.1,346.3,143.5,346.3z"/>
		<path class="st0" d="M174.1,326.3c-0.2,0.1-0.3,0.1-0.3,0.1c0,0-1.1,0.2-2.4,0.5c-1.3,0.3-1.2,1.2,0.2,1.8
			c2.8,1.2,5.4,1.4,10.5,0.6c4.5-0.7,9.9,0.6,14.1,3.3c0.2,0.1,0.4,0.3,0.6,0.4c0.4,0.2,0.5-0.8,0.2-2.4c-0.4-2.3-0.8-4.5-1.3-6.8
			c-0.4-1.5-1.9-2.4-3.4-2.1c-1.3,0.3-2.5,0.5-3.8,0.6c-2.5,0.4-4.9,0.8-7.2,1.5c-1.4,0.5-2.9,0.9-4.3,1.4
			C175.6,325.8,174.2,326.2,174.1,326.3z"/>
		<path class="st0" d="M166.2,307.7c-3.1,2.5-6.2,5.1-10.8,6.6c-2.8,0.9-5.7,1.6-8.5,2.2c-1.4,0.3-2.9,0.7-4.3,1
			c-3.6,0.9-7,1.8-10.4,3c-1.5,0.5-2.4,2.3-2.2,3.8c0,0,0,0,0,0c0.2,1.6,0.6,2.8,0.8,2.7c0.2,0,0.3-0.1,0.4-0.1
			c1.6-0.2,3.1-0.2,4.6-0.2c1.3,0,2.5,0,3.7-0.1c3.5-0.4,7.2-1.1,10.8-1.8c3.2-0.6,6.6-1.3,9.9-1.7c3-0.4,6.1-1,9.2-1.7
			c1.5-0.4,3.9-1.2,5.2-2.1c3.8-2.6,6.3-6.2,8.5-9.8c0.5-0.9,1-1.8,1.5-2.9c0.5-0.9,0.9-1.9,1.5-2.8c0.8-1.4,1-3.5,0.2-4.9
			c-0.3-0.6-0.7-1.3-1.1-1.9c-0.8-1.4-2.3-1.5-3.5-0.4c-2.3,2.1-4.9,3.6-7.4,5.2c-1.2,0.7-2.5,1.5-3.7,2.3
			C169.1,305.3,167.7,306.5,166.2,307.7z"/>
		<path class="st0" d="M190.8,316.3c1.5-0.3,2.4-1.8,1.8-3.3c-0.3-0.9-0.7-1.8-1-2.7c-0.6-1.5-1.3-2.3-1.5-1.8
			c-0.1,0.3-0.3,0.5-0.4,0.8c-0.5,1.1-1.1,2.2-1.7,3.2c-0.5,0.8-1,1.6-1.6,2.5c-0.9,1.3-1,2.2-0.2,2.1c0.5-0.1,1-0.2,1.4-0.2
			C188.8,316.7,189.8,316.5,190.8,316.3z"/>
		<path class="st0" d="M189.8,364.9c-0.1,0-0.1,0-0.2,0c-0.1,0-0.1,0.1-0.1,0.2c0,0.1,0.1,0.1,0.1,0.2c1.4,1.6,2.1,3.4,2.7,5
			c0.3,0.7,0.6,1.4,0.9,2c0.6,1.1,1.6,0.6,2-0.9c0.5-2,1-4,1.4-6.1c0.3-1.5,0.4-2.8,0.3-2.7c-0.1,0-0.1,0.1-0.2,0.1
			C194.5,363.6,192.1,364.6,189.8,364.9z"/>
		<path class="st0" d="M136.4,274.8c0.2-0.6-0.3-0.5-1.3,0.1c-0.6,0.4-1.2,0.7-1.8,1c-1.8,1-3.5,1.9-4.7,3.3
			c-0.1,0.1-0.2,0.2-0.2,0.3c-0.1,0.1,0.8,0.7,2,1.4c1.2,0.7,2.9,0.3,3.7-1.1c0.7-1.2,1.4-2.5,2-3.8
			C136.1,275.5,136.3,275.1,136.4,274.8z"/>
		<path class="st0" d="M171.9,392c-1.4-2-1.7-4.1-2-6c-0.2-1.4-0.4-2.6-0.9-3.5c-0.2-0.3-0.4-0.5-0.6-0.8c-0.4-0.4-1.8-1.3-3.1-2.1
			c-0.8-0.5-1.6-1-2.4-1.5c-3.1-2-6-3.8-9.5-4.5c-8.2-1.5-14.5-3.6-19.7-6.7c-0.5-0.3-1-0.6-1.6-0.9c-0.9-0.5-1.7,0.2-1.9,1.5
			c-0.2,1.3,0.1,3,0.7,3.7c0.4,0.4,0.7,0.9,1,1.3c1.7,1.9,3.4,3.2,5.3,4.7c0.7,0.5,1.5,1.1,2.2,1.7c0.8,0.7,1.5,1.4,2.2,2.2
			c0.9,1,1.8,2,2.7,2.3c1,0.3,2.3,0.2,3.7,0.1c1.4-0.1,2.8-0.2,4.2,0c3.8,0.6,7.1,2.8,9.9,4.8l0.4,0.3c1.2,0.8,2.6,1.5,4.1,2.3
			c2.3,1.1,4.6,2.3,6.6,4.1c1.5,1.4,2.6,2.8,3.7,4.3c0.9,1.2,1.7,2.4,2.8,3.3c0.1,0.1,0.2,0.2,0.4,0.3c0.2,0.2,1-0.6,1.8-1.7
			c0.8-1.1,1.2-2.2,1.1-2.2c-0.1-0.1-0.2-0.1-0.2-0.2c-0.9-0.6-2.1-1.1-3.3-1.7C176.8,396,173.7,394.5,171.9,392z"/>
		<path class="st0" d="M138.3,288.3c1.8,3.9-0.9,6.2-2.7,6.6c-9.7,1.9-9.9,8.7-9.4,10.2c0.1,0.2,0.1,0.5,0.2,0.7
			c0.1,0.4,1-0.2,2.1-1.4c2.4-2.5,4.7-4.8,7.2-6.8c2.4-2,4.7-4.3,7-6.4c1.5-1.5,3.1-3,4.7-4.4c6.6-6,9.6-11.4,9.6-17.4
			c0-0.6,0-1.3,0-1.9c0-1-1-2.6-2.3-3.5c-1.4-0.9-2.8-1.8-4.3-2.7c-1.3-0.8-2.8-0.2-3.3,1.3c-1.5,4.8-3.4,9.9-5.7,15.5
			c-0.8,1.9-1.8,3.8-2.9,5.5C137.5,284.9,137.6,286.8,138.3,288.3z"/>
		<path class="st0" d="M151.2,420.2c-1.1-1.2-2.2-2.3-3.2-3.7c-2.2-3-2.2-6.9-1.5-10.3c0.3-1.5,0.8-2.8,0.7-2.9
			c0-0.1-0.1-0.1-0.1-0.2c-0.4-1.2-0.5-2.3-0.6-3.4c-0.2-1.2-0.3-2.3-0.7-3.2c-1.7-3.5-4.8-7.2-9.3-11c-0.8-0.7-1.8-1.4-2.9-2.1
			c-0.9-0.6-1.8-1.2-2.7-1.9c-0.5-0.4-0.9-0.7-1.4-1.1c-0.8-0.6-1.6,0.1-2,1.6c-0.5,2-0.9,3.9-1.5,5.9c-0.1,0.2-0.1,0.4-0.1,0.6
			c0,0.4,0.2,0.8,0.4,1c0.1,0.1,0.2,0.2,0.3,0.3c0.3,0.3,0.5,0.6,0.8,0.9c0.4,0.5,2,1.3,3.5,1.7c1.3,0.4,2.7,1.1,4.5,2.8
			c2.8,2.8,3.5,7.1,2,10.4c-0.7,1.4-1.6,2.9-1.7,3.6c0,0.4,0,0.9-0.1,1.3c0,0.8-0.1,1.5-0.1,2.2c0,1.1-0.1,2.2-0.2,3.3
			c-0.1,1.6-0.3,3.2-0.1,4.4c0.3,1.8,1.3,3.8,2.2,5.7c0.4,0.8,0.8,1.6,1.1,2.3c0.7,1.6,1.5,3.2,2.5,4.8c0.8,1.3,2.7,1.8,4,1.1
			c3.1-1.6,6.1-3.5,9-5.4c1.3-0.9,1.8-2.4,1.2-3.4c-0.4-0.6-0.8-1.2-1.2-1.7C153.5,422.7,152.4,421.5,151.2,420.2z"/>
		<path class="st0" d="M166,373.3c0.4,0.3,0.8,0.5,1.2,0.8c0.7,0.4,1.2,0.7,1.3,0.6c0-0.1,0.7,0.2,1.4,0.7c0.7,0.5,1.3,1,1.4,1
			c0.1,0,0.1,0.1,0.2,0.1c2.8,1.3,6.4,2.2,10.3,2.5c1.7,0.1,2.8,0.2,3.4,0c0.4-0.1,0.6-0.2,1.1-0.6c0.5-0.3,1.1-0.7,1.9-1
			c0.2-0.1,0.5-0.2,0.7-0.3c0.4-0.2,0-1.2-0.6-2.4c-0.4-0.8-0.7-1.6-1-2.3c-0.6-1.4-1.1-2.6-1.9-3.5c-3-3.6-8.1-4.4-13.4-5.2
			c-5.1-0.8-10.4-1.6-14.7-4.9c-4-3-6.3-4.7-10.4-5.7c-1-0.2-2.1-0.5-3.1-0.8c-0.3-0.1-0.6-0.2-1-0.2c-0.5-0.1-2.2-0.4-3.8-0.4
			c-1.5-0.1-3,0-4.5,0c-1.6,0-2.9,1.4-3,2.9c0,0.5-0.1,1.1-0.1,1.6c-0.1,1.6,0.9,3.4,2.3,4.2c1,0.6,2,1.1,3,1.7
			c4.7,2.7,10.4,4.6,17.9,6C159,368.9,162.5,371.2,166,373.3z"/>
		<path class="st0" d="M131.2,260.1c-0.1,3.1-0.7,6-1.3,8.8c-0.1,0.4-0.2,0.9-0.3,1.3c-0.1,0.7,0,1.1,0.3,1c0.2-0.1,0.4-0.2,0.5-0.3
			c1.7-1,3.4-1.9,4.6-3.1c1.4-1.5,2.4-3.5,3.4-5.6c0.5-1.1,1-2.1,1.7-3.2c0.8-1.4,0.4-2.9-1-3.6c-2.2-1-4.4-1.9-6.7-2.7
			c-0.3-0.1-0.6-0.2-1-0.3c-0.5-0.2-1-0.1-0.9,0.1c0,0.1,0,0.2,0,0.4C131,255.2,131.3,257.5,131.2,260.1z"/>
		<path class="st0" d="M120.7,277.4c0.7,0.1,1.3,0.1,1.4-0.1c0-0.1,0.1-0.2,0.1-0.4c0.6-1.8,1.1-3.4,1.4-5.1c0.2-1.4,0.5-2.7,0.8-4
			c0.6-2.7,1.1-5.3,1.2-7.9c0.1-2.1-0.2-4.1-0.5-6.2c0-0.3-0.1-0.6-0.1-0.9c-0.1-0.5-1.4-0.8-2.9-0.2c-3.5,1.4-5.8,4.4-5.8,8.1v0.2
			l0,0.2c0,0.1-0.3,6.4,0.2,13.1c0,0.8,0.4,1.5,1,2C118.3,277.1,120,277.2,120.7,277.4z"/>
		<path class="st0" d="M189.3,383.2c-0.7,0.4-1.6,1.1-3,1.4c-0.7,0.2-1.5,0.2-2.4,0.2c-0.9,0-1.9-0.1-2.7-0.1
			c-0.9-0.1-1.9-0.2-3.1-0.4c-1.5-0.2-2.7-0.2-2.7,0.2c0,0.2,0.1,0.5,0.1,0.7c0.2,1.4,0.4,2.7,1,3.6c0.9,1.3,3.1,2.3,5.3,3.3
			c1.4,0.6,2.8,1.3,4,2.1c0,0,0.1,0.1,0.1,0.1c0.1,0.1,0.8-1,1.5-2.4c1.2-2.3,2.3-4.7,3.3-7.2c0.6-1.4,0.7-2.5,0.3-2.3
			c-0.3,0.1-0.5,0.2-0.8,0.3C189.9,382.8,189.6,383,189.3,383.2z"/>
		<path class="st0" d="M132.6,428.8c-1.1-2.2-2.3-4.7-2.7-7.3c-0.3-2-0.2-3.9,0-5.8c0.1-1,0.2-1.9,0.2-2.8c0-0.4,0-0.8,0-1.2
			c0-0.7-1.2-0.8-2.6-0.1c-2.8,1.4-3.5,2.8-7.3,3.5c-2.3,0.4-3.6,2-3.7,3.6c-0.1,3.1-0.2,7.4-0.2,13v0.5c0,5.1,4.6,9,10.6,9
			c1.8,0,3.7-0.3,5.6-1c0.9-0.3,1.7-0.6,2.6-1c1.4-0.6,1.8-2.1,1.1-3.5c-1-1.7-1.8-3.3-2.5-4.8C133.3,430.3,133,429.5,132.6,428.8z"
			/>
		<path class="st0" d="M160.7,281.8c0.8-0.3,1.5-0.7,2.3-1c1.2-0.6,2.4-1.3,3.7-1.9c0.6-0.3,1.2-0.6,1.8-0.9c1-0.5,0.9-1.8-0.2-2.9
			c-1.2-1.1-2.4-2.2-3.6-3.3c-1.2-1-2.2-0.6-2.4,1c-0.4,2.8-1.3,5.3-2.5,7.6C159,281.7,159.4,282.4,160.7,281.8z"/>
		<path class="st0" d="M155.6,289.5c-0.8,0.3-1.6,0.5-2.4,0.7c-1.3,0.4-3.3,1.7-4.4,2.7c-0.8,0.7-1.6,1.5-2.3,2.2
			c-2.3,2.2-4.7,4.6-7.3,6.7c-3.5,2.9-6.6,6.1-10.1,10.2c-0.2,0.2-0.3,0.4-0.5,0.6c-0.3,0.3-0.4,1.1-0.2,1.8
			c0.1,0.7,1.4,0.8,2.9,0.3c3.3-1.1,6.7-2,9.9-2.9c1.5-0.4,2.9-0.7,4.4-1.1c2.8-0.7,5.5-1.3,8.1-2.1c3.5-1.1,6-3.2,8.9-5.5
			c1.5-1.3,3.1-2.6,5-3.8c1.3-0.9,2.6-1.7,3.9-2.4c3.4-2,6.6-4,8.9-7c0,0,0.1-0.1,0.1-0.1c0.1-0.1-0.6-1.2-1.5-2.4
			c-1-1.3-2-2.6-3-3.9c-1-1.2-2.9-1.6-4.3-0.9c-0.8,0.4-1.7,0.9-2.5,1.3c-1.2,0.6-2.4,1.2-3.6,1.9
			C162.3,287.5,158.9,288.5,155.6,289.5z"/>
		<path class="st0" d="M195.6,346.5c-2,0.1-3.9,0.3-5.8,0.6c-1,0.2-2,0.3-3,0.5c-2.1,0.4-4.4,0.8-6.6,1.1c-1.6,0.2-3.2,0.4-4.8,0.6
			c-5.1,0.5-9.8,1.1-14.3,2.8c-0.4,0.2-0.8,0.3-1.2,0.4c-0.7,0.2-0.8,0.7-0.3,1.1c0.3,0.2,0.6,0.5,0.9,0.7c2.4,1.8,5.6,2.7,9,3.3
			c1.5,0.3,4.1,0.5,5.6,0.6c1.6,0.1,3.2,0.4,4.7,0.6c3.2,0.5,6.2,0.9,9.1,0.5c1.6-0.2,3.6-1,5.5-1.8c1.1-0.4,2.2-0.9,3.2-1.3
			c0,0,0.1,0,0.1,0c0.1,0,0.2-1.3,0.4-2.9c0.1-1.3,0.2-2.6,0.2-3.9C198.5,347.7,197.2,346.5,195.6,346.5z"/>
		<path class="st0" d="M169.6,399.2c-1.4-1.3-3.3-2.3-5.3-3.3c-1.6-0.8-3.2-1.6-4.7-2.7L159,393c-2.4-1.6-5-3.5-7.5-3.8
			c-0.9-0.1-1.9,0-3,0c-0.1,0-0.2,0-0.3,0c-0.2,0,0.5,1,1.3,2.4c0.5,0.9,1,1.7,1.4,2.6c0.9,1.8,1.1,3.5,1.3,5
			c0.1,0.9,0.2,1.7,0.4,2.4c0.3,1.1,1.5,1.9,3.4,3c0.6,0.4,1.2,0.7,1.8,1.2c3.6,2.5,7,5.4,10.2,8.3c1.2,1.1,3,1,4-0.1
			c1.1-1.2,2.2-2.5,3.3-3.8c1-1.2,1.5-2.5,1.1-2.8c-0.2-0.2-0.4-0.4-0.6-0.6c-1.4-1.3-2.4-2.7-3.4-4.1
			C171.5,401.4,170.6,400.2,169.6,399.2z"/>
		<path class="st0" d="M153.1,409.4c-0.2-0.1-0.4-0.2-0.6-0.4c-0.3-0.2-0.8,0.7-0.6,2c0.1,0.9,0.3,1.6,0.8,2.2
			c0.8,1.1,1.8,2.1,2.8,3.2c1.3,1.3,2.6,2.7,3.7,4.4c0.4,0.5,0.7,1.1,1.1,1.6c0.6,0.9,2,0.8,3.2-0.2c0.2-0.2,0.4-0.3,0.5-0.5
			c1.2-1,1.2-2.8,0-3.8c-3-2.7-6.1-5.4-9.4-7.6C154.1,410,153.6,409.7,153.1,409.4z"/>
	</g>
</g>
<g>
	<path class="st0" d="M21.6,296.7c5.5,14.3,8.7,31.4,8.7,49.8c0,19.5-3.6,37.6-9.7,52.4l8,0.2v8.2l-12.1,0.3
		c-1.7,3.8-1.6,21.7-1.6,24.7c0,12.1,12.9,21.2,27.6,16c41.7-14.9,71.6-54.8,71.6-101.7c0-46.9-29.9-86.8-71.6-101.7
		c-14.7-5.3-27.6,3.9-27.6,16c0,0-0.7,15.1,1.6,24.7l12.1,0.3v8.2l-5.2,0.1h-2.8L21.6,296.7z"/>
	<g>
		<path class="st0" d="M82,343.7c1.6-0.2,3.1-0.3,4.7-0.5c2.1-0.3,4.3-0.7,6.4-1c1-0.2,2-0.4,3-0.5c2.2-0.4,4.4-0.6,6.6-0.6
			c1.6-0.1,2.8-0.2,2.8-0.4c0-0.2-1-0.6-2.1-1.2c-0.7-0.4-1.3-0.8-1.9-1.2c-0.3-0.2-0.7-0.5-1.1-0.7c-3.1-2-7.1-3-10.2-2.5
			c-9.7,1.5-13.1-0.4-19.2-3.9c-0.6-0.3-1.2-0.7-1.8-1c-1-0.6-3.1-0.8-4.7-0.6c-2,0.3-3.9,0.7-5.8,1.1c-3.7,0.7-7.5,1.5-11.3,1.9
			c-1.5,0.2-2.9,0.2-4.3,0.2c-1.4,0-2.7,0-3.9,0.1c-0.2,0-0.3,0-0.5,0.1c-0.3,0.1-0.5,0.3-0.5,0.6c0,0.3,1.3,0.7,2.8,1.1
			c4.2,1.1,7.7,3.4,11.3,5.8l0.3,0.2c3.4,2.2,6.3,4,8.8,5.5c1.4,0.8,2.4,1.5,2.4,1.6c0,0.1,0.5,0,1.2-0.3c0.4-0.1,0.8-0.3,1.3-0.5
			C71.4,344.8,76.8,344.2,82,343.7z"/>
		<path class="st0" d="M50.7,346.4c0.5,0.1,0.4-0.2-0.2-0.5c-0.3-0.2-0.7-0.4-1-0.7l-0.3-0.2c-2.8-1.9-5.3-3.5-7.9-4.5
			c-1.5-0.6-2.7,0.3-2.6,1.6c0,1.3,1.3,2.4,2.9,2.5c1.5,0.1,3,0.4,4.5,0.7c0.6,0.1,1.3,0.3,1.9,0.4C49,346,50.2,346.3,50.7,346.4z"
			/>
		<path class="st0" d="M81.2,326.3c-0.2,0.1-0.3,0.1-0.3,0.1s-1.1,0.2-2.4,0.5s-1.2,1.2,0.2,1.8c2.8,1.2,5.4,1.4,10.5,0.6
			c4.5-0.7,9.9,0.6,14.1,3.3c0.2,0.1,0.4,0.3,0.6,0.4c0.4,0.2,0.5-0.8,0.2-2.4c-0.4-2.3-0.8-4.5-1.3-6.8c-0.4-1.5-1.9-2.4-3.4-2.1
			c-1.3,0.3-2.5,0.5-3.8,0.6c-2.5,0.4-4.9,0.8-7.2,1.5c-1.4,0.5-2.9,0.9-4.3,1.4C82.7,325.8,81.4,326.2,81.2,326.3z"/>
		<path class="st0" d="M73.4,307.7c-3.1,2.5-6.2,5.1-10.8,6.6c-2.8,0.9-5.7,1.6-8.5,2.2c-1.4,0.3-2.9,0.7-4.3,1
			c-3.6,0.9-7,1.8-10.4,3c-1.5,0.5-2.4,2.3-2.2,3.8c0,0,0,0,0,0c0.2,1.6,0.6,2.8,0.8,2.7c0.2,0,0.3-0.1,0.4-0.1
			c1.6-0.2,3.1-0.2,4.6-0.2c1.3,0,2.5,0,3.7-0.1c3.5-0.4,7.2-1.1,10.8-1.8c3.2-0.6,6.6-1.3,9.9-1.7c3-0.4,6.1-1,9.2-1.7
			c1.5-0.4,3.9-1.2,5.2-2.1c3.8-2.6,6.3-6.2,8.5-9.8c0.5-0.9,1-1.8,1.5-2.9c0.5-0.9,0.9-1.9,1.5-2.8c0.8-1.4,1-3.5,0.2-4.9
			c-0.3-0.6-0.7-1.3-1.1-1.9c-0.8-1.4-2.3-1.5-3.5-0.4c-2.3,2.1-4.9,3.6-7.4,5.2c-1.2,0.7-2.5,1.5-3.7,2.3
			C76.3,305.3,74.8,306.5,73.4,307.7z"/>
		<path class="st0" d="M98,316.4c1.5-0.3,2.4-1.8,1.8-3.3c-0.3-0.9-0.7-1.8-1-2.7c-0.6-1.5-1.3-2.3-1.5-1.8
			c-0.1,0.3-0.3,0.5-0.4,0.8c-0.5,1.1-1.1,2.2-1.7,3.2c-0.5,0.8-1,1.6-1.6,2.5c-0.9,1.3-1,2.2-0.2,2.1c0.5-0.1,1-0.2,1.4-0.2
			C95.9,316.7,97,316.6,98,316.4z"/>
		<path class="st0" d="M96.9,364.9c-0.1,0-0.1,0-0.2,0c-0.1,0-0.1,0.1-0.1,0.2c0,0.1,0.1,0.1,0.1,0.2c1.4,1.6,2.1,3.4,2.7,5
			c0.3,0.7,0.6,1.4,0.9,2c0.6,1.1,1.6,0.6,2-0.9c0.5-2,1-4,1.4-6.1c0.3-1.5,0.4-2.8,0.3-2.7c-0.1,0-0.1,0.1-0.2,0.1
			C101.6,363.6,99.3,364.6,96.9,364.9z"/>
		<path class="st0" d="M43.6,274.8c0.2-0.6-0.3-0.5-1.3,0.1c-0.6,0.4-1.2,0.7-1.8,1c-1.8,1-3.5,1.9-4.7,3.3
			c-0.1,0.1-0.2,0.2-0.2,0.3c-0.1,0.1,0.8,0.7,2,1.4c1.2,0.7,2.9,0.3,3.7-1.1c0.7-1.2,1.4-2.5,2-3.8
			C43.3,275.5,43.4,275.2,43.6,274.8z"/>
		<path class="st0" d="M79.1,392c-1.4-2-1.7-4.1-2-6c-0.2-1.4-0.4-2.6-0.9-3.5c-0.2-0.3-0.4-0.5-0.6-0.8c-0.4-0.4-1.8-1.3-3.1-2.1
			c-0.8-0.5-1.6-1-2.4-1.5c-3.1-2-6-3.8-9.5-4.5c-8.2-1.5-14.5-3.6-19.7-6.7c-0.5-0.3-1-0.6-1.6-0.9c-0.9-0.5-1.7,0.2-1.9,1.5
			s0.1,3,0.7,3.7c0.4,0.4,0.7,0.9,1,1.3c1.7,1.9,3.4,3.2,5.3,4.7c0.7,0.5,1.5,1.1,2.2,1.7c0.8,0.7,1.5,1.4,2.2,2.2
			c0.9,1,1.8,2,2.7,2.3c1,0.3,2.3,0.2,3.7,0.1c1.4-0.1,2.8-0.2,4.2,0c3.8,0.6,7.1,2.8,9.9,4.8l0.4,0.3c1.2,0.8,2.6,1.5,4.1,2.3
			c2.3,1.1,4.6,2.3,6.6,4.1c1.5,1.4,2.6,2.8,3.7,4.3c0.9,1.2,1.7,2.4,2.8,3.3c0.1,0.1,0.2,0.2,0.4,0.3c0.2,0.2,1-0.6,1.8-1.7
			c0.8-1.1,1.2-2.2,1.1-2.2c-0.1-0.1-0.2-0.1-0.2-0.2c-0.9-0.6-2.1-1.1-3.3-1.7C83.9,396,80.9,394.6,79.1,392z"/>
		<path class="st0" d="M45.4,288.3c1.8,3.9-0.9,6.2-2.7,6.6c-9.7,1.9-9.9,8.7-9.4,10.2c0.1,0.2,0.1,0.5,0.2,0.7
			c0.1,0.4,1-0.2,2.1-1.4c2.4-2.5,4.7-4.8,7.2-6.8c2.4-2,4.7-4.3,7-6.4c1.5-1.5,3.1-3,4.7-4.4c6.6-6,9.6-11.4,9.6-17.4
			c0-0.6,0-1.3,0-1.9c0-1-1-2.6-2.3-3.5c-1.4-0.9-2.8-1.8-4.3-2.7c-1.3-0.8-2.8-0.2-3.3,1.3c-1.5,4.8-3.4,9.9-5.7,15.5
			c-0.8,1.9-1.8,3.8-2.9,5.5C44.6,284.9,44.8,286.9,45.4,288.3z"/>
		<path class="st0" d="M58.4,420.3c-1.1-1.2-2.2-2.3-3.2-3.7c-2.2-3-2.2-6.9-1.5-10.3c0.3-1.5,0.8-2.8,0.7-2.9
			c0-0.1-0.1-0.1-0.1-0.2c-0.4-1.2-0.5-2.3-0.6-3.4c-0.2-1.2-0.3-2.3-0.7-3.2c-1.7-3.5-4.8-7.2-9.3-11c-0.8-0.7-1.8-1.4-2.9-2.1
			c-0.9-0.6-1.8-1.2-2.7-1.9c-0.5-0.4-0.9-0.7-1.4-1.1c-0.8-0.6-1.6,0.1-2,1.6c-0.5,2-0.9,3.9-1.5,5.9c-0.1,0.2-0.1,0.4-0.1,0.6
			c0,0.4,0.2,0.8,0.4,1c0.1,0.1,0.2,0.2,0.3,0.3c0.3,0.3,0.5,0.6,0.8,0.9c0.4,0.5,2,1.3,3.5,1.7c1.3,0.4,2.7,1.1,4.5,2.8
			c2.8,2.8,3.5,7.1,2,10.4c-0.7,1.4-1.6,2.9-1.7,3.6c0,0.4,0,0.9-0.1,1.3c0,0.8-0.1,1.5-0.1,2.2c0,1.1-0.1,2.2-0.2,3.3
			c-0.1,1.6-0.3,3.2-0.1,4.4c0.3,1.8,1.3,3.8,2.2,5.7c0.4,0.8,0.8,1.6,1.1,2.3c0.7,1.6,1.5,3.2,2.5,4.8c0.8,1.3,2.7,1.8,4,1.1
			c3.1-1.6,6.1-3.5,9-5.4c1.3-0.9,1.8-2.4,1.2-3.4c-0.4-0.6-0.8-1.2-1.2-1.7C60.7,422.7,59.6,421.5,58.4,420.3z"/>
		<path class="st0" d="M73.1,373.4c0.4,0.3,0.8,0.5,1.2,0.8c0.7,0.4,1.2,0.7,1.3,0.6c0-0.1,0.7,0.2,1.4,0.7c0.7,0.5,1.3,1,1.4,1
			c0.1,0,0.1,0.1,0.2,0.1c2.8,1.3,6.4,2.2,10.3,2.5c1.7,0.1,2.8,0.2,3.4,0c0.4-0.1,0.6-0.2,1.1-0.6c0.5-0.3,1.1-0.7,1.9-1
			c0.2-0.1,0.5-0.2,0.7-0.3c0.4-0.2,0-1.2-0.6-2.4c-0.4-0.8-0.7-1.6-1-2.3c-0.6-1.4-1.1-2.6-1.9-3.5c-3-3.6-8.1-4.4-13.4-5.2
			c-5.1-0.8-10.4-1.6-14.7-4.9c-4-3-6.3-4.7-10.4-5.7c-1-0.2-2.1-0.5-3.1-0.8c-0.3-0.1-0.6-0.2-1-0.2c-0.5-0.1-2.2-0.4-3.8-0.4
			c-1.5-0.1-3,0-4.5,0c-1.6,0-2.9,1.4-3,2.9c0,0.5-0.1,1.1-0.1,1.6c-0.1,1.6,0.9,3.4,2.3,4.2c1,0.6,2,1.1,3,1.7
			c4.7,2.7,10.4,4.6,17.9,6C66.2,369,69.7,371.2,73.1,373.4z"/>
		<path class="st0" d="M38.4,260.2c-0.1,3.1-0.7,6-1.3,8.8c-0.1,0.4-0.2,0.9-0.3,1.3c-0.1,0.7,0,1.1,0.3,1c0.2-0.1,0.4-0.2,0.5-0.3
			c1.7-1,3.4-1.9,4.6-3.1c1.4-1.5,2.4-3.5,3.4-5.6c0.5-1.1,1-2.1,1.7-3.2c0.8-1.4,0.4-2.9-1-3.6c-2.2-1-4.4-1.9-6.7-2.7
			c-0.3-0.1-0.6-0.2-1-0.3c-0.5-0.2-1-0.1-0.9,0.1c0,0.1,0,0.2,0,0.4C38.2,255.2,38.5,257.6,38.4,260.2z"/>
		<path class="st0" d="M27.9,277.4c0.7,0.1,1.3,0.1,1.4-0.1c0-0.1,0.1-0.2,0.1-0.4c0.6-1.8,1.1-3.4,1.4-5.1c0.2-1.4,0.5-2.7,0.8-4
			c0.6-2.7,1.1-5.3,1.2-7.9c0.1-2.1-0.2-4.1-0.5-6.2c0-0.3-0.1-0.6-0.1-0.9c-0.1-0.5-1.4-0.8-2.9-0.2c-3.5,1.4-5.8,4.4-5.8,8.1v0.2
			l0,0.2c0,0.1-0.3,6.4,0.2,13.1c0,0.8,0.4,1.5,1,2C25.5,277.2,27.2,277.3,27.9,277.4z"/>
		<path class="st0" d="M96.5,383.3c-0.7,0.4-1.6,1.1-3,1.4c-0.7,0.2-1.5,0.2-2.4,0.2c-0.9,0-1.9-0.1-2.7-0.1
			c-0.9-0.1-1.9-0.2-3.1-0.4c-1.5-0.2-2.7-0.2-2.7,0.2c0,0.2,0.1,0.5,0.1,0.7c0.2,1.4,0.4,2.7,1,3.6c0.9,1.3,3.1,2.3,5.3,3.3
			c1.4,0.6,2.8,1.3,4,2.1c0,0,0.1,0.1,0.1,0.1c0.1,0.1,0.8-1,1.5-2.4c1.2-2.3,2.3-4.7,3.3-7.2c0.6-1.4,0.7-2.5,0.3-2.3
			c-0.3,0.1-0.5,0.2-0.8,0.3C97.1,382.9,96.8,383,96.5,383.3z"/>
		<path class="st0" d="M39.8,428.9c-1.1-2.2-2.3-4.7-2.7-7.3c-0.3-2-0.2-3.9,0-5.8c0.1-1,0.2-1.9,0.2-2.8c0-0.4,0-0.8,0-1.2
			c0-0.7-1.2-0.8-2.6-0.1c-2.8,1.4-3.5,2.8-7.3,3.5c-2.3,0.4-3.6,2-3.7,3.6c-0.1,3.1-0.2,7.4-0.2,13v0.5c0,5.1,4.6,9,10.6,9
			c1.8,0,3.7-0.3,5.6-1c0.9-0.3,1.7-0.6,2.6-1c1.4-0.6,1.8-2.1,1.1-3.5c-1-1.7-1.8-3.3-2.5-4.8C40.5,430.3,40.2,429.6,39.8,428.9z"
			/>
		<path class="st0" d="M67.8,281.9c0.8-0.3,1.5-0.7,2.3-1c1.2-0.6,2.4-1.3,3.7-1.9c0.6-0.3,1.2-0.6,1.8-0.9c1-0.5,0.9-1.8-0.2-2.9
			c-1.2-1.1-2.4-2.2-3.6-3.3c-1.2-1-2.2-0.6-2.4,1c-0.4,2.8-1.3,5.3-2.5,7.6C66.2,281.7,66.6,282.4,67.8,281.9z"/>
		<path class="st0" d="M62.8,289.6c-0.8,0.3-1.6,0.5-2.4,0.7c-1.3,0.4-3.3,1.7-4.4,2.7c-0.8,0.7-1.6,1.5-2.3,2.2
			c-2.3,2.2-4.7,4.6-7.3,6.7c-3.5,2.9-6.6,6.1-10.1,10.2c-0.2,0.2-0.3,0.4-0.5,0.6c-0.3,0.3-0.4,1.1-0.2,1.8
			c0.1,0.7,1.4,0.8,2.9,0.3c3.3-1.1,6.7-2,9.9-2.9c1.5-0.4,2.9-0.7,4.4-1.1c2.8-0.7,5.5-1.3,8.1-2.1c3.5-1.1,6-3.2,8.9-5.5
			c1.5-1.3,3.1-2.6,5-3.8c1.3-0.9,2.6-1.7,3.9-2.4c3.4-2,6.6-4,8.9-7c0,0,0.1-0.1,0.1-0.1c0.1-0.1-0.6-1.2-1.5-2.4
			c-1-1.3-2-2.6-3-3.9c-1-1.2-2.9-1.6-4.3-0.9c-0.8,0.4-1.7,0.9-2.5,1.3c-1.2,0.6-2.4,1.2-3.6,1.9C69.5,287.6,66.1,288.6,62.8,289.6
			z"/>
		<path class="st0" d="M102.8,346.6c-2,0.1-3.9,0.3-5.8,0.6c-1,0.2-2,0.3-3,0.5c-2.1,0.4-4.4,0.8-6.6,1.1c-1.6,0.2-3.2,0.4-4.8,0.6
			c-5.1,0.5-9.8,1.1-14.3,2.8c-0.4,0.2-0.8,0.3-1.2,0.4c-0.7,0.2-0.8,0.7-0.3,1.1c0.3,0.2,0.6,0.5,0.9,0.7c2.4,1.8,5.6,2.7,9,3.3
			c1.5,0.3,4.1,0.5,5.6,0.6c1.6,0.1,3.2,0.4,4.7,0.6c3.2,0.5,6.2,0.9,9.1,0.5c1.6-0.2,3.6-1,5.5-1.8c1.1-0.4,2.2-0.9,3.2-1.3
			c0,0,0.1,0,0.1,0c0.1,0,0.2-1.3,0.4-2.9c0.1-1.3,0.2-2.6,0.2-3.9C105.6,347.8,104.4,346.5,102.8,346.6z"/>
		<path class="st0" d="M76.7,399.3c-1.4-1.3-3.3-2.3-5.3-3.3c-1.6-0.8-3.2-1.6-4.7-2.7l-0.4-0.3c-2.4-1.6-5-3.5-7.5-3.8
			c-0.9-0.1-1.9,0-3,0c-0.1,0-0.2,0-0.3,0c-0.2,0,0.5,1,1.3,2.4c0.5,0.9,1,1.7,1.4,2.6c0.9,1.8,1.1,3.5,1.3,5
			c0.1,0.9,0.2,1.7,0.4,2.4c0.3,1.1,1.5,1.9,3.4,3c0.6,0.4,1.2,0.7,1.8,1.2c3.6,2.5,7,5.4,10.2,8.3c1.2,1.1,3,1,4-0.1
			c1.1-1.2,2.2-2.5,3.3-3.8c1-1.2,1.5-2.5,1.1-2.8c-0.2-0.2-0.4-0.4-0.6-0.6c-1.4-1.3-2.4-2.7-3.4-4.1
			C78.7,401.5,77.8,400.3,76.7,399.3z"/>
		<path class="st0" d="M60.2,409.4c-0.2-0.1-0.4-0.2-0.6-0.4c-0.3-0.2-0.8,0.7-0.6,2c0.1,0.9,0.3,1.6,0.8,2.2
			c0.8,1.1,1.8,2.1,2.8,3.2c1.3,1.3,2.6,2.7,3.7,4.4c0.4,0.5,0.7,1.1,1.1,1.6c0.6,0.9,2,0.8,3.2-0.2c0.2-0.2,0.4-0.3,0.5-0.5
			c1.2-1,1.2-2.8,0-3.8c-3-2.7-6.1-5.4-9.4-7.6C61.3,410,60.8,409.7,60.2,409.4z"/>
	</g>
</g>
</svg>
