<?xml version="1.0" encoding="utf-8"?>
<!-- Generator: Adobe Illustrator 24.3.0, SVG Export Plug-In . SVG Version: 6.00 Build 0)  -->
<svg version="1.1" id="Layer_1" xmlns="http://www.w3.org/2000/svg" xmlns:xlink="http://www.w3.org/1999/xlink" x="0px" y="0px"
	 viewBox="0 0 3205.7 2189.7" style="enable-background:new 0 0 3205.7 2189.7;" xml:space="preserve">
<style type="text/css">
	.st0{fill:none;stroke:#1F1A17;stroke-width:0.216;stroke-miterlimit:5.845;}
	.st1{fill:none;stroke:#1F1A17;stroke-width:0.5669;stroke-miterlimit:5.845;}
	.st2{fill:none;stroke:#974578;stroke-width:0.216;stroke-miterlimit:5.845;}
</style>
<g id="Layer_x0020_1">
	<g id="_124648976">
		<path id="_128781296" class="st0" d="M1476.8,1709.9H1851c7.8,0,14.2-6.3,14.2-14.2v-1131h51v-17h22.7v17h10.6v14.2l-7.1,0v15.6
			h7.1l0,0l0,0h18.4l0,0l0,0h7.1v-15.6l-7.1,0v-14.2l10.6,0v-17h22.7v17h56.7v-17h22.7v17h10.6v14.2l-7.1,0v15.6h7.1l0,0l0,0h18.4
			l0,0l0,0h7.1v-15.6l-7.1,0v-14.2l10.6,0v-17h22.7v17h19.8v104.9h17v22.7h-17v10.6h-14.2l0-7.1H2133v7.1l0,0l0,0v18.4l0,0l0,0v7.1
			h15.6l0-7.1h14.2l0,10.6h17v22.7h-17v467.7h17v22.7h-17v10.6h-14.2l0-7.1H2133v7.1l0,0l0,0v18.4l0,0l0,0v7.1h15.6l0-7.1h14.2
			l0,10.6h17v22.7h-17V1775h17v22.7h-17v10.6h-14.2l0-7.1H2133v7.1l0,0l0,0v18.4l0,0l0,0v7.1h15.6l0-7.1h14.2l0,10.6h17v22.7h-17
			V1965h-686c-7.8,0-14.2-6.3-14.2-14.2V1724C1462.6,1716.2,1469,1709.8,1476.8,1709.9L1476.8,1709.9z"/>
		<path id="_128780288" class="st0" d="M1879.3,712.1c0-4.7,3.8-8.5,8.5-8.5c4.7,0,8.5,3.8,8.5,8.5c0,4.7-3.8,8.5-8.5,8.5
			C1883.1,720.6,1879.3,716.8,1879.3,712.1z"/>
		<polygon id="_128781368" class="st0" points="1879.3,692.2 1879.3,669.5 1896.3,669.5 1896.3,692.2 		"/>
		<polygon id="_128781944" class="st0" points="1879.3,754.6 1879.3,731.9 1896.3,731.9 1896.3,754.6 		"/>
		<path id="_128782160" class="st0" d="M1879.3,1264.8c0-4.7,3.8-8.5,8.5-8.5c4.7,0,8.5,3.8,8.5,8.5c0,4.7-3.8,8.5-8.5,8.5
			C1883.1,1273.3,1879.3,1269.5,1879.3,1264.8z"/>
		<polygon id="_128782064" class="st0" points="1879.3,1245 1879.3,1222.3 1896.3,1222.3 1896.3,1245 		"/>
		<polygon id="_124649120" class="st0" points="1879.3,1307.3 1879.3,1284.7 1896.3,1284.7 1896.3,1307.3 		"/>
		<path id="_124650968" class="st0" d="M1879.3,1817.6c0-4.7,3.8-8.5,8.5-8.5c4.7,0,8.5,3.8,8.5,8.5c0,4.7-3.8,8.5-8.5,8.5
			C1883.1,1826.1,1879.3,1822.3,1879.3,1817.6z"/>
		<polygon id="_124652576" class="st0" points="1879.3,1797.7 1879.3,1775.1 1896.3,1775.1 1896.3,1797.7 		"/>
		<polygon id="_124651952" class="st0" points="1879.3,1860.1 1879.3,1837.4 1896.3,1837.4 1896.3,1860.1 		"/>
	</g>
	<g id="_124651808">
		<path id="_124644944" class="st0" d="M2165.6,539.1h-374.2c-7.8,0-14.2,6.3-14.2,14.2v1131h-51v17h-22.7v-17h-10.6v-14.2l7.1,0
			v-15.6h-7.1l0,0l0,0h-18.4l0,0l0,0h-7.1v15.6l7.1,0v14.2l-10.6,0v17h-22.7v-17h-56.7v17h-22.7v-17h-10.6v-14.2l7.1,0v-15.6h-7.1
			l0,0l0,0h-18.4l0,0l0,0h-7.1v15.6l7.1,0v14.2l-10.6,0v17h-22.7v-17h-19.8v-104.9h-17v-22.7h17v-10.6h14.2l0,7.1h15.6v-7.1l0,0l0,0
			v-18.4l0,0l0,0v-7.1h-15.6l0,7.1h-14.2l0-10.6h-17v-22.7h17v-467.7h-17V1004h17v-10.6h14.2l0,7.1h15.6v-7.1l0,0l0,0V975l0,0l0,0
			v-7.1h-15.6l0,7.1h-14.2l0-10.6h-17v-22.7h17V473.9h-17v-22.7h17v-10.6h14.2l0,7.1h15.6v-7.1l0,0l0,0v-18.4l0,0l0,0v-7.1h-15.6
			l0,7.1h-14.2l0-10.6h-17v-22.7h17V284h686c7.8,0,14.2,6.3,14.2,14.2V525C2179.8,532.8,2173.4,539.1,2165.6,539.1L2165.6,539.1z"/>
		<path id="_124647992" class="st0" d="M1763.1,1536.9c0,4.7-3.8,8.5-8.5,8.5c-4.7,0-8.5-3.8-8.5-8.5c0-4.7,3.8-8.5,8.5-8.5
			C1759.3,1528.4,1763.1,1532.2,1763.1,1536.9z"/>
		<polygon id="_124646648" class="st0" points="1763.1,1556.8 1763.1,1579.5 1746.1,1579.5 1746.1,1556.8 		"/>
		<polygon id="_124652408" class="st0" points="1763.1,1494.4 1763.1,1517.1 1746.1,1517.1 1746.1,1494.4 		"/>
		<path id="_124651160" class="st0" d="M1763.1,984.2c0,4.7-3.8,8.5-8.5,8.5c-4.7,0-8.5-3.8-8.5-8.5c0-4.7,3.8-8.5,8.5-8.5
			C1759.3,975.7,1763.1,979.5,1763.1,984.2z"/>
		<polygon id="_124645832" class="st0" points="1763.1,1004 1763.1,1026.7 1746.1,1026.7 1746.1,1004 		"/>
		<polygon id="_124649576" class="st0" points="1763.1,941.7 1763.1,964.3 1746.1,964.3 1746.1,941.7 		"/>
		<path id="_124650920" class="st0" d="M1763.1,431.4c0,4.7-3.8,8.5-8.5,8.5c-4.7,0-8.5-3.8-8.5-8.5c0-4.7,3.8-8.5,8.5-8.5
			C1759.3,422.9,1763.1,426.7,1763.1,431.4z"/>
		<polygon id="_124650656" class="st0" points="1763.1,451.3 1763.1,473.9 1746.1,473.9 1746.1,451.3 		"/>
		<polygon id="_124648376" class="st0" points="1763.1,388.9 1763.1,411.6 1746.1,411.6 1746.1,388.9 		"/>
	</g>
	<g id="_124649528">
		<path id="_124646528" class="st0" d="M2202.4,1709.9h374.2c7.8,0,14.2-6.3,14.2-14.2v-1131h51v-17h22.7v17h10.6v14.2l-7.1,0v15.6
			h7.1l0,0l0,0h18.4l0,0l0,0h7.1v-15.6l-7.1,0v-14.2l10.6,0v-17h22.7v17h56.7v-17h22.7v17h10.6v14.2l-7.1,0v15.6h7.1l0,0l0,0h18.4
			l0,0l0,0h7.1v-15.6l-7.1,0v-14.2l10.6,0v-17h22.7v17h19.8v104.9h17v22.7h-17v10.6h-14.2l0-7.1h-15.6v7.1l0,0l0,0v18.4l0,0l0,0v7.1
			h15.6l0-7.1h14.2l0,10.6h17v22.7h-17v467.7h17v22.7h-17v10.6h-14.2l0-7.1h-15.6v7.1l0,0l0,0v18.4l0,0l0,0v7.1h15.6l0-7.1h14.2
			l0,10.6h17v22.7h-17V1775h17v22.7h-17v10.6h-14.2l0-7.1h-15.6v7.1l0,0l0,0v18.4l0,0l0,0v7.1h15.6l0-7.1h14.2l0,10.6h17v22.7h-17
			V1965h-686c-7.8,0-14.2-6.3-14.2-14.2V1724C2188.3,1716.2,2194.6,1709.8,2202.4,1709.9L2202.4,1709.9z"/>
		<path id="_124645232" class="st0" d="M2605,712.1c0-4.7,3.8-8.5,8.5-8.5s8.5,3.8,8.5,8.5c0,4.7-3.8,8.5-8.5,8.5
			S2605,716.8,2605,712.1z"/>
		<polygon id="_124649096" class="st0" points="2605,692.2 2605,669.5 2622,669.5 2622,692.2 		"/>
		<polygon id="_124650752" class="st0" points="2605,754.6 2605,731.9 2622,731.9 2622,754.6 		"/>
		<path id="_124651376" class="st0" d="M2605,1264.8c0-4.7,3.8-8.5,8.5-8.5s8.5,3.8,8.5,8.5c0,4.7-3.8,8.5-8.5,8.5
			S2605,1269.5,2605,1264.8z"/>
		<polygon id="_124645760" class="st0" points="2605,1245 2605,1222.3 2622,1222.3 2622,1245 		"/>
		<polygon id="_124648064" class="st0" points="2605,1307.3 2605,1284.7 2622,1284.7 2622,1307.3 		"/>
		<path id="_124646312" class="st0" d="M2605,1817.6c0-4.7,3.8-8.5,8.5-8.5s8.5,3.8,8.5,8.5c0,4.7-3.8,8.5-8.5,8.5
			S2605,1822.3,2605,1817.6z"/>
		<polygon id="_124651712" class="st0" points="2605,1797.7 2605,1775.1 2622,1775.1 2622,1797.7 		"/>
		<polygon id="_124651424" class="st0" points="2605,1860.1 2605,1837.4 2622,1837.4 2622,1860.1 		"/>
	</g>
	<g id="_124645616">
		<path id="_124649048" class="st0" d="M2891.3,539.1h-374.2c-7.8,0-14.2,6.3-14.2,14.2v1131h-51v17h-22.7v-17h-10.6v-14.2l7.1,0
			v-15.6h-7.1l0,0l0,0h-18.4l0,0l0,0h-7.1v15.6l7.1,0v14.2l-10.6,0v17h-22.7v-17h-56.7v17h-22.7v-17h-10.6v-14.2l7.1,0v-15.6h-7.1
			l0,0l0,0h-18.4l0,0l0,0h-7.1v15.6l7.1,0v14.2l-10.6,0v17h-22.7v-17h-19.8v-104.9h-17v-22.7h17v-10.6h14.2l0,7.1h15.6v-7.1l0,0l0,0
			v-18.4l0,0l0,0v-7.1h-15.6l0,7.1h-14.2l0-10.6h-17v-22.7h17v-467.7h-17V1004h17v-10.6h14.2l0,7.1h15.6v-7.1l0,0l0,0V975l0,0l0,0
			v-7.1h-15.6l0,7.1h-14.2l0-10.6h-17v-22.7h17V473.9h-17v-22.7h17v-10.6h14.2l0,7.1h15.6v-7.1l0,0l0,0v-18.4l0,0l0,0v-7.1h-15.6
			l0,7.1h-14.2l0-10.6h-17v-22.7h17V284h686c7.8,0,14.2,6.3,14.2,14.2V525C2905.4,532.8,2899.1,539.1,2891.3,539.1L2891.3,539.1z"/>
		<path id="_124651112" class="st0" d="M2488.7,1536.9c0,4.7-3.8,8.5-8.5,8.5s-8.5-3.8-8.5-8.5c0-4.7,3.8-8.5,8.5-8.5
			S2488.7,1532.2,2488.7,1536.9z"/>
		<polygon id="_124646264" class="st0" points="2488.7,1556.8 2488.7,1579.5 2471.7,1579.5 2471.7,1556.8 		"/>
		<polygon id="_124650944" class="st0" points="2488.7,1494.4 2488.7,1517.1 2471.7,1517.1 2471.7,1494.4 		"/>
		<path id="_124648280" class="st0" d="M2488.7,984.2c0,4.7-3.8,8.5-8.5,8.5s-8.5-3.8-8.5-8.5c0-4.7,3.8-8.5,8.5-8.5
			S2488.7,979.5,2488.7,984.2z"/>
		<polygon id="_124649336" class="st0" points="2488.7,1004 2488.7,1026.7 2471.7,1026.7 2471.7,1004 		"/>
		<polygon id="_124648760" class="st0" points="2488.7,941.7 2488.7,964.3 2471.7,964.3 2471.7,941.7 		"/>
		<path id="_124647680" class="st0" d="M2488.7,431.4c0,4.7-3.8,8.5-8.5,8.5s-8.5-3.8-8.5-8.5c0-4.7,3.8-8.5,8.5-8.5
			S2488.7,426.7,2488.7,431.4z"/>
		<polygon id="_124648616" class="st0" points="2488.7,451.3 2488.7,473.9 2471.7,473.9 2471.7,451.3 		"/>
		<polygon id="_124650536" class="st0" points="2488.7,388.9 2488.7,411.6 2471.7,411.6 2471.7,388.9 		"/>
	</g>
	<g id="_124646024">
		<g>
			<path id="_124646864" class="st1" d="M320.2,1347V354.9c0-39.1,31.7-70.9,70.9-70.9h992.1c39.1,0,70.9,31.7,70.9,70.9V1347
				c0,39.1-31.7,70.9-70.9,70.9H391.1C352,1417.9,320.2,1386.1,320.2,1347z"/>
			<g>
				<polygon id="_124649960" class="st0" points="915.5,700.7 938.2,700.7 938.2,717.7 915.5,717.7 				"/>
				<polygon id="_124648592" class="st0" points="977.9,700.7 1000.6,700.7 1000.6,717.7 977.9,717.7 				"/>
				<circle id="_124649864" class="st0" cx="958" cy="709.2" r="8.5"/>
			</g>
			<g>
				<polygon id="_124646936" class="st0" points="773.8,700.7 796.5,700.7 796.5,717.7 773.8,717.7 				"/>
				<polygon id="_124650848" class="st0" points="836.2,700.7 858.8,700.7 858.8,717.7 836.2,717.7 				"/>
				<circle id="_124649168" class="st0" cx="816.3" cy="709.2" r="8.5"/>
			</g>
			<g>
				<polygon id="_124649672" class="st0" points="915.5,984.2 938.2,984.2 938.2,1001.2 915.5,1001.2 				"/>
				<polygon id="_124645352" class="st0" points="977.9,984.2 1000.6,984.2 1000.6,1001.2 977.9,1001.2 				"/>
				<circle id="_124651688" class="st0" cx="958" cy="992.7" r="8.5"/>
			</g>
			<g>
				<polygon id="_124648808" class="st0" points="773.8,984.2 796.5,984.2 796.5,1001.2 773.8,1001.2 				"/>
				<polygon id="_124645856" class="st0" points="836.2,984.2 858.8,984.2 858.8,1001.2 836.2,1001.2 				"/>
				<circle id="_124650608" class="st0" cx="816.3" cy="992.7" r="8.5"/>
			</g>
			<g>
				<polygon id="_124652480" class="st0" points="736.9,822.6 736.9,799.9 753.9,799.9 753.9,822.6 				"/>
				<polygon id="_124648784" class="st0" points="736.9,760.2 736.9,737.6 753.9,737.6 753.9,760.2 				"/>
				<circle id="_124648328" class="st0" cx="320" cy="283.7" r="2.7"/>
			</g>
			<g>
				<polygon id="_124647008" class="st0" points="736.9,964.3 736.9,941.7 753.9,941.7 753.9,964.3 				"/>
				<polygon id="_124646072" class="st0" points="736.9,902 736.9,879.3 753.9,879.3 753.9,902 				"/>
				<circle id="_124647056" class="st0" cx="320" cy="283.7" r="2.7"/>
			</g>
			<g>
				<polygon id="_124651184" class="st0" points="1020.4,822.6 1020.4,799.9 1037.4,799.9 1037.4,822.6 				"/>
				<polygon id="_124646480" class="st0" points="1020.4,760.2 1020.4,737.6 1037.4,737.6 1037.4,760.2 				"/>
				<circle id="_124647944" class="st0" cx="320" cy="283.7" r="2.7"/>
			</g>
			<g>
				<polygon id="_124648664" class="st0" points="1020.4,964.3 1020.4,941.7 1037.4,941.7 1037.4,964.3 				"/>
				<polygon id="_124647152" class="st0" points="1020.4,902 1020.4,879.3 1037.4,879.3 1037.4,902 				"/>
				<circle id="_124652528" class="st0" cx="320" cy="283.7" r="2.7"/>
			</g>
		</g>
		<path id="_124650704" class="st2" d="M1241.5,1262c-15.6,0-28.3,12.7-28.3,28.3v56.7c0,15.6,12.7,28.3,28.3,28.3h141.7
			c15.6,0,28.3-12.7,28.3-28.3v-56.7c0-15.6-12.7-28.3-28.3-28.3H1241.5z M1354.9,1290.3c15.6,0,28.3,12.7,28.3,28.3
			c0,15.6-12.7,28.3-28.3,28.3s-28.3-12.7-28.3-28.3S1339.2,1290.3,1354.9,1290.3z M1269.9,1290.3c15.6,0,28.3,12.7,28.3,28.3
			c0,15.6-12.7,28.3-28.3,28.3s-28.3-12.7-28.3-28.3S1254.2,1290.3,1269.9,1290.3z"/>
	</g>
</g>
</svg>
