<?xml version="1.0" encoding="utf-8"?>
<!-- Generator: Adobe Illustrator 25.0.0, SVG Export Plug-In . SVG Version: 6.00 Build 0)  -->
<svg version="1.1" id="Layer_1" xmlns="http://www.w3.org/2000/svg" xmlns:xlink="http://www.w3.org/1999/xlink" x="0px" y="0px"
	 viewBox="0 0 1190.6 841.9" style="enable-background:new 0 0 1190.6 841.9;" xml:space="preserve">
<style type="text/css">
	.st0{fill:none;stroke:#E52420;stroke-miterlimit:10;}
	.st1{fill:none;stroke:#E52420;stroke-linecap:round;stroke-linejoin:round;stroke-miterlimit:10;}
</style>
<path class="st0" d="M725.6,570.9l-0.1-60.8l1-11.3l4,0.5l1,11.4l0,60.1h10.7v-56.3l0.7-11.2c0,0,16.4,8.8,21.5,25.8
	c7,23,7.7,80.5,5.8,91.2c-3.8,21-3.4,21.5-6.7,25.2c-3.2,3.7-2.4,2.8-2.4,2.8l-0.9-13.6l-0.4-53.5h-10.7V635l-1.1,14.5
	c0,0-5.8-1.3-12.4-7.5c-3.4-3.2-7.9-9.2-12-9.9s-2.3-0.7-6.4,0s-8.6,6.7-12,9.9c-6.6,6.2-12.5,7.5-12.5,7.5l-1.1-13.9v-54.4h-10.7
	l-0.4,54.4l-0.9,12.7c0,0,0.8,0.9-2.4-2.8c-3.2-3.7-2.8-4.2-6.7-25.2c-1.9-10.7-1.2-68.2,5.8-91.2c5.2-17,21.6-25.8,21.6-25.8
	l0.7,10.9v56.6h10.7l0-60.1l0.9-11.4l4.1-0.5l0.9,11.3l-0.1,60.8H725.6z"/>
<path class="st0" d="M215,505c9.7,0,14.7-0.6,19.5-1.3s8.4-2.4,8.4-2.4l0.8-9.8l0-30.9h10.7l0.4,20.7l0.7,10.1c0,0,2.8-3.8,3.8-6.3
	c1-2.5,6.9-10.6,5-47.3c-2-36.8-26.7-46.4-26.7-46.4l-0.6,10.5l-0.1,44.3h-10.7l0-47.5l-0.7-11l-4.5-0.6l-0.7,12.5l0,46.7l-10.5,0
	l0-46.7l-1-12.5l-4.2,0.6l-0.8,12.2l0,46.4h-10.7l-0.1-43.8l-1.1-10.8c0,0-24.3,9.4-26.3,46.2c-2,36.8,4,44.8,5,47.3
	c1,2.5,3.7,6.1,3.7,6.1l0.8-9.2l0.4-21.4H186l0,29.3l0.9,11.5c0,0,3.5,1.6,8.2,2.3S205.2,505,215,505z"/>
<path class="st1" d="M650.7,528.9c-17.4-17.6-23.5-0.7-30.4-2.5c-7.4-2-24.1-14.3-42.6-15.8c-13.6-1.1-28,8.6-49.4,10.5
	c-21.4,1.9-85-21.8-101.1-20.9c-9.3,0.5-19,2.8-29.2,3.4c-7.1,0.4-15.5-1.1-24.1-3.6v14.6v36.6h-10.6v-39.7v-14.8
	c-0.3-0.1-0.6-0.2-0.9-0.3c-13.4-4.7-12.7-0.7-23.9-6.7c-11.2-6-18.5-19.3-24.2-20.5c-5.6-1.3-21.4,4.5-37.4,13.8
	c-5.2,3-12,8.3-15.6,12.6c-2.8,3.3-27.4,16.4-27.4,16.4c-9.1,2-20.6,9.5-22,15.3c-1.5,6.3,8.5,16,19,20.9c1.4,0.6,7.9-5.2,9.3-4.7
	s-2.3,7.2-1,7.4c2.1,0.4,4.1,0.4,5.9,0.1c8.3-1.6,19.2-13.1,25.6-15.3s24.8-2.4,29.1-3.6c4.3-1.2,10.1-5.3,11.9-5.8
	c1.8-0.5,6.3,5.6,7,12.5c0.8,6.9,0.7,13.3,0.9,22.7c0.2,9.4,2.8,35.6,9,36.2c6.2,0.6,6-6.3,8.9-5.3c2.9,1,0.1,6.1,3.5,8
	c3.4,2,4.8-0.1,8.2,2.6c3.4,2.7,4.9,16.4,8,17.2c3.1,0.8,8.3-1.3,14-8.3c4-4.9,2.1-17.3,8.6-15.7c6.2,1.5,18.1,14.8,37.4,30.9
	c3.6,3,6.8,5.2,10.4,7.2l0.5-14.2v-47.1h10.6v49.7l0.5,16.7c12.2,4.2,22.6,4,27.3,2.7c6-1.7,5-4.1,15-5.1c3.4-0.3,7-0.6,11.1-0.8
	l0.4-16.2v-44H504v44l0.4,15.6c4-0.2,7.2-0.4,9.8-0.6c7.3-0.6,31.2-6.6,38-4.4c2.4,0.8,4.3,1.8,6.4,3l0.3-13.3v-48.5h10.7v50.2
	l0.3,19.3c2.6,1.6,4.7,2.5,7.3,2.5c31.8,0.1,19.3-9.7,37.1-38.6c18.6-30.1,14.3-50.9,14.3-50.9s11,2,19.1,13.7
	c4.6,6.7,6,14.5,9.5,14.4c3.5-0.1,4.3-9.2,5.2-14.6C663.6,562.8,668.1,546.5,650.7,528.9z"/>
<path class="st1" d="M1025.1,367.2c-5.1-2.1-14.5-6.2-21.5-17.3c-7-11.1,1.9-29.5,4.2-42.9c2.3-13.4,3.9-41.1-20-58.7
	c-10.3-7.6-20.6-10-31.1-9.7l-0.5,10.5v38.4h-10.7v-40.5l-0.6-7.1c-9.8,1.6-18.6,4.6-26.8,6.8c-5.8,1.5-15.3,0.9-27.1-1l-0.6,8.6
	v41.1h-10.7v-38.9l-0.7-12.9c-20.2-3.9-40.7-9.6-52.7-13.1l-0.9,11.5V288h-10.6v-49l-0.5-12c-13-1.5-49.4,5.9-52.2,27.2
	c-1.5,11.6,1.9,33.4,7.2,45.3c7.4,16.6,30.1,28.8,43.6,51.8c13.5,23,14.7,49.2,15.1,52c0.5,2.8-0.2,11.6,0.4,15
	c0.6,3.5-2.2,21.8-4,27.3c-1.8,5.5-11.6,9.6-13.6,10.7c-2,1.1-1.5,6.3-2.1,7.5c-0.6,1.2-3.5,2-5,3.5c-1.6,1.5-11.7,16.8-11.7,16.8
	l28.4,0.1c0,0,4.9-12.7,6.4-14.7c1.5-2,6-1.5,7.6-3.2c1.6-1.7,12.7-22.5,13.5-24.5c0.9-2,1.1-25.7,1.8-29.5c0.7-3.9,3.3-3.7,4.7-9.2
	c1.4-5.4,0.6-42,3.7-54c3-12,23-8.7,39.3-9.4c16.3-0.7,27.8-9.5,41.9,0.4c14.1,9.9,18.7,27.7,23.7,32.9c5,5.3,31.4,11.6,38.1,14.4
	c6.7,2.8,12.3,6.7,12.3,6.7s-1.2,36.2-3,44c-1.8,7.8-10.5,23-15.6,29.2c-5,6.2-10,16.8-10,16.8l26.7,0c0,0,1.4-9.7,5.4-15.3
	c4-5.6,10.7-11.3,13.5-16.7c2.7-5.4,3.9-34.7,5.4-40.9c1.5-6.2,4.5-24,5.6-30.4C1042.4,374.7,1030.2,369.3,1025.1,367.2z"/>
<path class="st1" d="M596.2,399.8c-0.9-7.4-6.7-22.3-9.5-25.4c-2.8-3.1-9.4-7.8-15.9-7.1c-6.5,0.7-9.3,2.1-11,1.7
	c-1.7-0.4-34.5-16.1-45.8-15.2c-11.4,1-30.6,9.4-41.4,9.9c-10.8,0.6-46.8-4.2-61.3-8.1c-14.4-3.8-43.3-11.6-49.6-11.4
	c-6.3,0.2-19.3,0.6-27.6,2.3c-3.9,0.8-11.8-1.1-20.1-3.5l-0.3,18.9v32h-10.6v-39.5l-0.5-15c-5.1-1.7-8.8-3-10.4-3.5
	c-4.9-1.5-13.2-0.2-14.8-6.2c-1.6-6.1,1.7-7.8,7.9-18.6c10.1-17.6-13.4-7.9-13.4-7.9l-16.1,7.4c0,0-2.9-5.4-5.5-10.4
	c-2.3-4.3,0.2-14.2,2.1-18.7c2.1-4.9,6.8-13.5,9.1-15.9c7.8-8.4,17-10,25.5-9.8c7.3,0.2,16.4-1.3,24-5.6c7.2-4,22.8-22.9,15-21.6
	c-4.6,0.8-12.4,14.1-21.4,17.8c-7,2.9-26,3.5-31.8-0.6c-2.8-2-2.7-3.2-0.3-6.9c2.7-4.2,21.6-7,31.8-9.6c7.9-2,19.1-16.2,13.6-14.9
	c-9,2.1-5.5,4.9-14.3,9c-7.7,3.5-20.7,2.7-23,1.7c-4.9-2.1,1.4-7.9,7.3-12.6c2.9-2.3,13.7-8.6,24.2-14.7
	c10.9-6.3,16.4-9.6,18.2-10.9c9.6-7.1,13.7-19.2,7.9-18.4c-2.4,0.3-7.4,11-25.8,21c-10.8,5.9-24.5,8.3-27.1,8.4
	c-14.6,0.1-1.9-9.2,3.4-13.2c6.3-4.8,13.3-19.6,6.1-13.9c-7.3,5.7-5,6.9-10,7.4c-0.2,0-0.4,0-0.6,0c-6.8-1.2-4.9-12.7-5.4-18.7
	c-0.5-6.1-2.5-4.1-4-2.5c-1.5,1.6,1.9,19.3-9.1,5.7c-1.7-2.1-9-8.4-12-3.6c-1.6,2.6,3.2,6.8,7.1,10.7c2.5,2.5,15.4,9.6,14.6,14.9
	c-0.9,5.3-7.7,8-13.1,8.1c-3.3,0-20.9-2.3-30.2-10.4c-6.3-5.5-0.5-16.9-4.9-18.7c-3.8-1.6-3.6,8.2-7.8,8.1
	c-4.2-0.2-12.1-13.3-12.3-6.8s9.8,15.5,19.5,22.9c9.7,7.4,35.9,12.4,38.1,15.5c2.2,3.1,5.4,6,5,12.5c-0.3,6.4-25.2,73-47,68.5
	c-13-2.7-34.3-13.9-47.9-27.3c-7.3-7.2-5.4-9.6-9-16.9c-4.3-8.8-1.9,14.4-2.6,18.4c-0.9,4.8-9.6,4.6-5.4,7.2
	c2.8,1.8,14.6-2.3,16.3-0.5c15.2,16.2,62.5,28.7,51.7,33.3c-2.8,0.7-9.1,5.4-40.2,6.4c-7.4,0.3-12.4-17.5-12.7-1.7
	c-0.1,6.1-24.3,1.9-24.5,3c-0.3,1.1,5.5,3.3,11.5,5c6,1.7,54.1,3.3,61.9,4.3c8,1,8.6,2.4,8.6,2.4s-16.2,4.1-18.4,9.2
	c-2.1,4.8-8.9,10.3-12.2,13.1c-1.7,1.5-8.3,4.4-14.6,8.4l-11,6.8c-7.8,1.3-19.3,10.8-19.8,11c-3.8,1.7,11.2,0.9,6.2,3.4
	c-3.8,2-5.5,3.7-5.5,3.7s7.2,9.5,12.8,12.3c1.7,0.9,3.9,1.8,6.2,2.5c1.2,0.4,5.1-2.2,6.2-1.9c1.3,0.3-0.1,3.4,1.2,3.5
	c2.5,0.3,4.8,0.1,6.4-0.7c4.3-2.3,16.2-9.7,22.6-11c6.4-1.3,18.6-2.1,18.6-2.1c3.2-0.6,9.2-1.7,11.6-2.9c2.4-1.2,8.1-6.1,10.8-4.5
	s6.2,4.9,7.9,14.2c1.7,9.3,4.5,18,9.8,23.8c5.3,5.8,15.1,15.5,19.7,21c4.6,5.4,12,19.3,20.3,19.3c8.3,0,5.5-10.1,9.4-8.7
	c3.9,1.4,23.1,20,31.7,26.4c3.7,2.8,10.3,9.1,17.8,15.3l0.4-18.3v-45.9h10.6v50.3l0.3,22.4c6.2,4,11.5,6.1,15.3,4.3
	c10.3-5,15.3-12.1,21.4-12.5c2.2-0.1,8.5-0.4,16.9-1l0.4-18.1v-42.4h10.8v42.4l0.4,17.2c13.3-1.1,27.5-2.6,36.1-4.8
	c5.6-1.4,13,2.8,18.3,6.8l0.3-17.1v-48.6h10.7v55.2l0.2,22.4c5.7,7.9,10.8,16.1,21.3,17.4c13.9,1.8,22.5-15,21-27.3
	c-1.8-14.3,16.1-66.1,17.3-72.2c0.3-1.6-1.2-11.4-1.2-11.4s0.1-1.8,1-2.9c0.9-1.1,16.7,8.2,19.5,9.1
	C591.7,406.2,597.2,407.1,596.2,399.8z"/>
<path class="st1" d="M710.6,272.5c9.2,0,9.5,5.3,23.9,11.5c5.1,2.2,3.9,0.8,3.9,0.8l0.7-13.4v-46.8h10.7l0.7,36.3l1,13.6
	c0,0,9.6-6.3,9-58c-0.6-51.7-27.3-59.5-27.3-59.5l-0.9,9.5V214h-10.7l0-49.4l-0.3-11.5l-4.5-0.3l-1.2,11.1l0.1,50.2l-10.5,0
	l0.1-49.5l-1.2-11.9l-4.4,0.7l-0.4,11.5l0,49.2h-10.7v-47.6l-0.8-9.5c0,0-26.9,7.9-27.4,59.6c-0.6,51.7,8.9,57.8,8.9,57.8l1.2-13.4
	l0.7-36.3H682v45.4l0.7,14.7c0,0-1.1,1.5,4-0.7C701,277.9,701.1,273.4,710.6,272.5"/>
<path class="st1" d="M894.8,448.6l-10.5,0l-0.1,42.1l-0.9,12.6l-4.3-3.4l-0.8-10l0-41.2h-10.8l0.1,29.5l-0.6,9.4
	c0,0-9.3-15.9-8.5-45.7s8.9-47.4,31-47.4l0,0c22.1,0,30.3,17.6,31,47.4c0.8,29.8-8.3,45.3-8.3,45.3l-0.8-10.1l0.1-28.3h-10.8l0,40.1
	l-0.8,11.2l-4.5,3.6l-0.7-12.7L894.8,448.6z"/>
<path class="st1" d="M298.5,269.3c0.9,7.4,6.7,22.3,9.5,25.4c2.8,3.1,9.4,7.8,15.9,7.1c6.5-0.7,9.3-2.1,11-1.7
	c1.7,0.4,34.5,16.1,45.8,15.2c11.4-1,30.6-9.4,41.4-9.9c10.8-0.6,46.8,4.2,61.3,8.1c14.4,3.8,43.3,11.6,49.6,11.4
	c6.3-0.2,19.3-0.6,27.6-2.3c3.9-0.8,11.8,1.1,20.1,3.5l0.3-18.9v-32h10.6v39.5l0.5,15c5.1,1.7,8.8,3,10.4,3.5
	c4.9,1.5,13.2,0.2,14.8,6.2c1.6,6.1-1.7,7.8-7.9,18.6c-10.1,17.6,13.4,7.9,13.4,7.9l16.1-7.4c0,0,2.9,5.4,5.5,10.4
	c2.3,4.3-0.2,14.2-2.1,18.7c-2.1,4.9-6.8,13.5-9.1,15.9c-7.8,8.4-17,10-25.5,9.8c-7.3-0.2-16.4,1.3-24,5.6c-7.2,4-22.8,22.9-15,21.6
	c4.6-0.8,12.4-14.1,21.4-17.8c7-2.9,26-3.5,31.8,0.6c2.8,2,2.7,3.2,0.3,6.9c-2.7,4.2-21.6,7-31.8,9.6c-7.9,2-19.1,16.2-13.6,14.9
	c9-2.1,5.5-4.9,14.3-9c7.7-3.5,20.7-2.7,23-1.7c4.9,2.1-1.4,7.9-7.3,12.6c-2.9,2.3-13.7,8.6-24.2,14.7c-10.9,6.3-16.4,9.6-18.2,10.9
	c-9.6,7.1-13.7,19.2-7.9,18.4c2.4-0.3,7.4-11,25.8-21c10.8-5.9,24.5-8.3,27.1-8.4c14.6-0.1,1.9,9.2-3.4,13.2
	c-6.3,4.8-13.3,19.6-6.1,13.9c7.3-5.7,5-6.9,10-7.4c0.2,0,0.4,0,0.6,0c6.8,1.2,4.9,12.7,5.4,18.7c0.5,6.1,2.5,4.1,4,2.5
	c1.5-1.6-1.9-19.3,9.1-5.7c1.7,2.1,9,8.4,12,3.6c1.6-2.6-3.2-6.8-7.1-10.7c-2.5-2.5-15.4-9.6-14.6-14.9c0.9-5.3,7.7-8,13.1-8.1
	c3.3,0,20.9,2.3,30.2,10.4c6.3,5.5,0.5,16.9,4.9,18.7c3.8,1.6,3.6-8.2,7.8-8.1c4.2,0.2,12.1,13.3,12.3,6.8s-9.8-15.5-19.5-22.9
	c-9.7-7.4-35.9-12.4-38.1-15.5c-2.2-3.1-5.4-6-5-12.5c0.3-6.4,25.2-73,47-68.5c13,2.7,34.3,13.9,47.9,27.3c7.3,7.2,5.4,9.6,9,16.9
	c4.3,8.8,1.9-14.4,2.6-18.4c0.9-4.8,9.6-4.6,5.4-7.2c-2.8-1.8-14.6,2.3-16.3,0.5c-15.2-16.2-62.5-28.7-51.7-33.3
	c2.8-0.7,9.1-5.4,40.2-6.4c7.4-0.3,12.4,17.5,12.7,1.7c0.1-6.1,24.3-1.9,24.5-3c0.3-1.1-5.5-3.3-11.5-5c-6-1.7-54.1-3.3-61.9-4.3
	c-8-1-8.6-2.4-8.6-2.4s16.2-4.1,18.4-9.2c2.1-4.8,8.9-10.3,12.2-13.1c1.7-1.5,8.3-4.4,14.6-8.4l11-6.8c7.8-1.3,19.3-10.8,19.8-11
	c3.8-1.7-11.2-0.9-6.2-3.4c3.8-2,5.5-3.7,5.5-3.7s-7.2-9.5-12.8-12.3c-1.7-0.9-3.9-1.8-6.2-2.5c-1.2-0.4-5.1,2.2-6.2,1.9
	c-1.3-0.3,0.1-3.4-1.2-3.5c-2.5-0.3-4.8-0.1-6.4,0.7c-4.3,2.3-16.2,9.7-22.6,11c-6.4,1.3-18.6,2.1-18.6,2.1
	c-3.2,0.6-9.2,1.7-11.6,2.9c-2.4,1.2-8.1,6.1-10.8,4.5c-2.7-1.6-6.2-4.9-7.9-14.2c-1.7-9.3-4.5-18-9.8-23.8
	c-5.3-5.8-15.1-15.5-19.7-21c-4.6-5.4-12-19.3-20.3-19.3c-8.3,0-5.5,10.1-9.4,8.7c-3.9-1.4-23.1-20-31.7-26.4
	c-3.7-2.8-10.3-9.1-17.8-15.3l-0.4,18.3v45.9h-10.6V203l-0.3-22.4c-6.2-4-11.5-6.1-15.3-4.3c-10.3,5-15.3,12.1-21.4,12.5
	c-2.2,0.1-8.5,0.4-16.9,1l-0.4,18.1v42.4h-10.8v-42.4l-0.4-17.2c-13.3,1.1-27.5,2.6-36.1,4.8c-5.6,1.4-13-2.8-18.3-6.8l-0.3,17.1
	v48.6h-10.7v-55.2l-0.2-22.4c-5.7-7.9-10.8-16.1-21.3-17.4c-13.9-1.8-22.5,15-21,27.3c1.8,14.3-16.1,66.1-17.3,72.2
	c-0.3,1.6,1.2,11.4,1.2,11.4s-0.1,1.8-1,2.9c-0.9,1.1-16.7-8.2-19.5-9.1C303,262.9,297.5,262,298.5,269.3z"/>
<path class="st1" d="M758,504.9c5.1,2.1,14.5,6.2,21.5,17.3c7,11.1-1.9,29.5-4.2,42.9c-2.3,13.4-3.9,41.1,20,58.7
	c10.3,7.6,20.6,10,31.1,9.7l0.5-10.5v-38.4h10.7v40.5l0.6,7.1c9.8-1.6,18.6-4.6,26.8-6.8c5.8-1.5,15.3-0.9,27.1,1l0.6-8.6v-41.1
	h10.7v38.9l0.7,12.9c20.2,3.9,40.7,9.6,52.7,13.1l0.9-11.5v-46.1h10.6v49l0.5,12c13,1.5,49.4-5.9,52.2-27.2
	c1.5-11.6-1.9-33.4-7.2-45.3c-7.4-16.6-30.1-28.8-43.6-51.8c-13.5-23-14.7-49.2-15.1-52c-0.5-2.8,0.2-11.6-0.4-15
	c-0.6-3.5,2.2-21.8,4-27.3c1.8-5.5,11.6-9.6,13.6-10.7c2-1.1,1.5-6.3,2.1-7.5c0.6-1.2,3.5-2,5-3.5s11.7-16.8,11.7-16.8l-28.4-0.1
	c0,0-4.9,12.7-6.4,14.7c-1.5,2-6,1.5-7.6,3.2c-1.6,1.7-12.7,22.5-13.5,24.5c-0.9,2-1.1,25.7-1.8,29.5c-0.7,3.9-3.3,3.7-4.7,9.2
	c-1.4,5.4-0.6,42-3.7,54c-3,12-23,8.7-39.3,9.4c-16.3,0.7-27.8,9.5-41.9-0.4c-14.1-9.9-18.7-27.7-23.7-32.9
	c-5-5.3-31.4-11.6-38.1-14.4c-6.7-2.8-12.3-6.7-12.3-6.7s1.2-36.2,3-44c1.8-7.8,10.5-23,15.6-29.2c5-6.2,10-16.8,10-16.8l-26.7,0
	c0,0-1.4,9.7-5.4,15.3c-4,5.6-10.7,11.3-13.5,16.7c-2.7,5.4-3.9,34.7-5.4,40.9c-1.5,6.2-4.5,24-5.6,30.4
	C740.7,497.4,752.9,502.8,758,504.9z"/>
</svg>
