<?xml version="1.0" encoding="utf-8"?>
<!-- Generator: Adobe Illustrator 24.3.0, SVG Export Plug-In . SVG Version: 6.00 Build 0)  -->
<svg version="1.1" id="svg2" xmlns:svg="http://www.w3.org/2000/svg"
	 xmlns="http://www.w3.org/2000/svg" xmlns:xlink="http://www.w3.org/1999/xlink" x="0px" y="0px" viewBox="0 0 1729.1 1295.4"
	 style="enable-background:new 0 0 1729.1 1295.4;" xml:space="preserve">
<style type="text/css">
	.st0{fill:none;stroke:#000000;stroke-width:2.834600e-02;}
</style>
<g id="layer0">
	<path id="layer0curve0_5_" class="st0" d="M402,356.7l1,1.5l0.5,0.7l0.4,0.6l0.3,0.5l0.3,0.5l0.4,0.6l0.5,0.7l0.7,0.9l0.9,1.2
		l0.3-0.4l0.3-0.4l0.3-0.5l0.3-0.5l0.3-0.5l0.3-0.5l0.3-0.5l0.3-0.5l0.3-0.5l0.3-0.5l0.3-0.5l0.3-0.5l0.3-0.5l0.3-0.5l0.3-0.5
		l3.3,3.4l2.4,2.5l1.7,1.7l1.1,1.1l0.6,0.6l0.3,0.3l0.1,0.1l0,0l0.1,0.1l0.3,0.3l0.6,0.6l1.1,1.1l1.7,1.7l2.4,2.5l3.2,3.4l0.6-1.4
		l0.5-1.2l0.4-0.9l0.4-0.8l0.3-0.6l0.2-0.5l0.2-0.4l0.1-0.3l0.1-0.2l0.1-0.2l0.1-0.2l0.1-0.2l0.2-0.3l0.2-0.4l0.3-0.5l3.4,2.7l2.5,2
		l1.7,1.4l1.1,0.9l0.6,0.5l0.3,0.3l0.1,0.1l0.1,0l0.1,0.1l0.4,0.3l0.7,0.6l1.2,1l1.9,1.5l2.7,2.1l3.6,2.8l0.4-1.7l0.3-1.3l0.2-0.9
		l0.1-0.6l0.1-0.3l0-0.1l0,0l0,0l0,0l0-0.2l0-0.3l0.1-0.6l0.2-0.9l0.3-1.3l0.4-1.8l4.9,1.7l3.6,1.2l2.5,0.9l1.6,0.5l0.9,0.3l0.4,0.1
		l0.1,0l0,0l0.1,0l0.4,0.1l0.9,0.3l1.6,0.5l2.5,0.8l3.6,1.2l4.9,1.7l-0.2-1.4l-0.2-1l-0.1-0.7l-0.1-0.5l0-0.2l0-0.1l0,0l0,0l0,0
		l0-0.1l0-0.2l0-0.4l-0.1-0.7l-0.1-1l-0.2-1.4l4.2,0.1l3.1,0l2.1,0l1.4,0l0.8,0l0.4,0l0.1,0l0,0l0.1,0l0.4,0l0.8,0l1.4,0l2.2,0
		l3.1,0.1l4.2,0.1L508,375l-0.2-0.9l-0.1-0.6l-0.1-0.4l0-0.2l0-0.1v0l0,0l0,0l0-0.1l0-0.2l0-0.4l-0.1-0.6l-0.1-0.9l-0.2-1.2l3.9-1.4
		l2.9-1l2-0.7l1.3-0.5l0.7-0.3l0.3-0.1l0.1,0l0,0l0.1,0l0.3-0.1l0.7-0.2l1.3-0.4l2-0.7l2.8-1l3.9-1.4l-0.3-0.3l-0.4-0.3l-0.4-0.3
		l-0.4-0.3l-0.4-0.3l-0.4-0.3l-0.3-0.3l-0.3-0.3l-0.3-0.3l-0.2-0.3l-0.1-0.3l-0.1-0.3l0-0.2l0.1-0.2l0.2-0.2l0.2-0.2l0.3-0.2
		l0.3-0.2l0.3-0.2l0.3-0.1l0.3-0.1l0.4-0.1l0.4,0l0.4,0.1l0.3,0.2l0.3,0.3l0.3,0.4l0.3,0.5l0.3,0.6l0.2,0.7l0,2.3l-0.1,2l-0.1,1.8
		l-0.2,1.6l-0.2,1.5l-0.3,1.4l-0.3,1.4l-0.3,1.4l-0.3,1.4l-0.3,1.5l-0.3,1.7l-0.3,1.8l-0.3,2l-0.3,2.3l-0.3,2.6l0,0.9l0.1,0.8
		l0.2,0.6l0.2,0.5l0.3,0.4l0.4,0.3l0.4,0.2l0.4,0.1l0.4,0l0.5-0.1l0.5-0.2l0.4-0.3l0.4-0.3l0.4-0.4l0.3-0.4l1.1-1.8l1.4-1.6l1.6-1.8
		l1.8-2.4l2-3.5l2.1-5l2.1-6.9l2.1-9.3l2-12.1l1.8-15.4l1.6-19.1l1.4-23.3l1-27.8l0.7-32.9l0.2-38.3l-0.1-6.6l-0.1-5.5l-0.1-4.5
		l0-3.7l0-3.1l0-2.6l0-2.2l0-2l0-1.9l0-2l0-2.2l0-2.6l0-3.2l0-3.8l0-4.7l0-0.8l-0.1-2.2l-0.3-3.5l-0.5-4.5l-0.9-5.4l-1.3-6.2
		l-1.8-6.8l-2.4-7.2l-3.1-7.5l-3.8-7.6l-4.7-7.5l-5.6-7.3l-6.7-6.9l-7.8-6.4l-9-5.7"/>
	<path id="layer0curve0_2_" class="st0" d="M352.5,238.9l-1.4,6.2l1.1,0.2l0.8,0.2l0.6,0.1l0.4,0.1l0.2,0l0.1,0l0,0l0,0l0,0l0.1,0
		l0.2,0l0.4,0.1l0.6,0.1l0.8,0.2l1.1,0.2l-1.1,4.5l-0.8,3.3l-0.5,2.3l-0.3,1.5l-0.2,0.8l-0.1,0.4l0,0.1l0,0l0,0.1l-0.1,0.4l-0.2,0.8
		l-0.4,1.5l-0.6,2.3l-0.8,3.4l-1.1,4.6l1.2-0.1l0.9,0l0.6,0l0.4,0l0.2,0l0.1,0l0,0l0,0l0,0l0.1,0l0.2,0l0.4,0l0.6-0.1l0.8-0.1
		l1.1-0.1l0,4.9l0,3.6l0,2.5l0,1.6l0,0.9l0,0.4v0.1v0v0.1l0,0.4l0,0.9l0,1.6l0,2.5l0,3.6l0,4.9l1.4-0.6l1-0.5l0.7-0.3l0.5-0.2
		l0.3-0.1l0.1,0l0,0l0,0l0,0l0.1,0l0.2-0.1l0.4-0.2l0.6-0.3l0.9-0.4l1.2-0.6l0.4,2.4l0.4,2.3l0.4,2.1l0.3,2l0.3,1.9l0.3,1.8l0.3,1.7
		l0.3,1.7l0.3,1.7l0.3,1.7l0.3,1.7l0.3,1.8l0.3,1.8l0.4,1.9l0.4,2.1l1.1-1l0.9-0.8l0.7-0.6l0.6-0.5l0.4-0.4l0.3-0.3l0.2-0.2l0.2-0.2
		l0.1-0.1l0.1-0.1l0.2-0.1l0.2-0.2l0.3-0.2l0.4-0.3l0.5-0.4l1.6,4.7l1.2,3.5l0.9,2.4l0.6,1.5l0.3,0.9l0.2,0.4l0.1,0.1l0,0l0.1,0.1
		l0.1,0.4l0.3,0.9l0.5,1.6l0.8,2.4l1.2,3.5l1.6,4.8l1.2-0.8l0.8-0.6l0.6-0.4l0.4-0.2l0.2-0.1l0.1-0.1l0,0l0,0l0,0l0.1-0.1l0.2-0.1
		l0.4-0.2l0.6-0.4l0.9-0.6l1.2-0.8l4.8,6.5"/>
	<path id="layer0curve0_4_" class="st0" d="M393.4,120.1l-1,0.2l-1.5,0.4l-2.2,0.5l-3,0.7l0.9,1.6l0.6,1.2l0.4,0.8l0.3,0.5l0.2,0.3
		l0.1,0.1l0,0.1l0,0l0,0.1l0.1,0.2l0.2,0.3l0.3,0.6l0.4,0.9l0.6,1.2l0.9,1.7l-2.8,2.2l-2.1,1.6l-1.4,1.1l-0.9,0.7l-0.5,0.4l-0.2,0.2
		l0,0l0,0l0,0l-0.2,0.2l-0.5,0.4l-0.9,0.7l-1.4,1.1l-2.1,1.6l-2.8,2.2l1.4,1l1.1,0.7l0.7,0.5l0.5,0.3l0.3,0.2l0.1,0.1l0,0l0,0l0,0
		l0.1,0.1l0.3,0.2l0.5,0.3l0.7,0.5l1,0.7l1.4,0.9l-1.7,2l-1.5,1.7l-1.3,1.5l-1.1,1.3l-1,1.1l-0.9,1l-0.9,1l-0.9,0.9l-0.9,1l-1,1
		l-1.1,1.2l-1.2,1.3l-1.4,1.5l-1.6,1.8l-1.9,2l1.2,0.5l0.9,0.4l0.6,0.3l0.4,0.2l0.2,0.1l0.1,0l0,0l0,0l0,0l0.1,0l0.2,0.1l0.4,0.2
		l0.6,0.3l0.9,0.4l1.2,0.5l-2.5,3.1l-1.8,2.3l-1.3,1.6l-0.8,1l-0.5,0.6l-0.2,0.3l-0.1,0.1l0,0l-0.1,0.1l-0.2,0.3l-0.5,0.6l-0.8,1
		l-1.3,1.6l-1.8,2.3l-2.5,3.1l1.4,1l1,0.7l0.7,0.5l0.5,0.3l0.3,0.2l0.1,0.1l0,0l0,0l0,0l0.1,0.1l0.2,0.2l0.4,0.3l0.7,0.5l1,0.7
		l1.3,0.9l-2.1,4l-1.5,2.9l-1,2l-0.7,1.3l-0.4,0.7l-0.2,0.3l0,0.1l0,0l0,0.1l-0.2,0.3l-0.4,0.7l-0.7,1.3l-1,2l-1.5,3l-2.1,4l1.1,0.2
		l0.8,0.2l0.6,0.1l0.4,0.1l0.2,0.1l0.1,0l0,0l0,0l0,0l0.1,0l0.2,0l0.4,0.1l0.6,0.1l0.8,0.2l1.1,0.2l-1.5,4.2l-1.1,3.1l-0.7,2.1"/>
	<path id="layer0curve0_3_" class="st0" d="M507,50.1l-0.6-1.3l-0.5-1.1l-0.4-1l-0.4-0.9l-0.3-0.8l-0.3-0.7l-0.3-0.6l-0.4-0.6
		l-0.5-0.6l-0.5-0.6l-0.7-0.6l-0.8-0.6l-1-0.7l-1.1-0.8l-1.4-0.9l-0.5-0.2l-0.6-0.2l-0.6-0.1l-0.7,0l-0.7,0.1l-0.8,0.1l-0.8,0.2
		l-0.8,0.3l-0.9,0.3l-0.9,0.4l-0.9,0.5l-0.9,0.5l-0.9,0.6l-0.8,0.7l-0.8,0.7l-1,1.5l-0.7,1.5l-0.5,1.4l-0.3,1.4l-0.1,1.4l0.1,1.3
		l0.3,1.3l0.4,1.3l0.6,1.3l0.7,1.3l0.9,1.3l1,1.3l1.1,1.4l1.3,1.4l1.4,1.4l-1.1,6.7l-2.2,5.8l-3.3,5l-4.1,4.2l-4.9,3.5l-5.5,2.9
		l-5.9,2.3l-6.2,1.8l-6.4,1.3l-6.4,0.9l-6.3,0.6l-6,0.3l-5.6,0.1l-5.1,0l-4.4-0.1l0.1,0.5l0.1,0.5l0.1,0.5l0.2,0.5l0.2,0.5l0.2,0.5
		l0.2,0.5l0.2,0.5l0.2,0.5l0.2,0.5l0.2,0.6l0.2,0.6l0.2,0.6l0.2,0.6l0.2,0.7l-1.5,0.4l-1.5,0.4l-1.6,0.4l-1.6,0.4l-1.6,0.3l-1.6,0.3
		l-1.6,0.3l-1.6,0.3l-1.6,0.3l-1.5,0.4l-1.5,0.4l-1.4,0.4l-1.4,0.4l-1.3,0.4l-1.2,0.4l0.9,1.1l0.6,0.8"/>
	<path id="layer0slot2_3_" class="st0" d="M397.4,349.4l76.7-33.4l3.4,7.8L402,356.7"/>
	<path id="layer0slot2_2_" class="st0" d="M401.3,357"/>
	<path id="layer0slot2_1_" class="st0" d="M399.6,113.7l77.7,33.6l-3.4,7.8l-80.5-35"/>
	<path id="layer0slot3_2_" class="st0" d="M352.5,238.9l101.9,0.6l0.1-8.5l-98.2-0.6"/>
	<path id="layer0slot3_1_" class="st0" d="M356.3,230.4"/>
</g>
<path class="st0" d="M343.6,601.9l-1.2-0.6l-0.9-0.4l-0.5-0.3l-0.3-0.2l-0.1-0.1l0,0l0,0l-0.1,0l-0.1-0.1L340,600l-0.6-0.3l-0.9-0.5
	l-1.2-0.6l-1.6-0.9l1-3.4l0.8-2.5l0.5-1.8l0.3-1.1l0.2-0.6l0.1-0.3l0-0.1l0,0l0.1-0.3l0.2-0.6l0.3-1.1l0.5-1.7l0.8-2.5l1-3.4l-1.7,0
	h-2.2l-0.6,0l-0.3,0l-0.1,0l-0.1,0v0l0,0h-0.1l-0.3,0l-0.5,0l-0.9,0l-1.2,0l-1.7,0.1l0.3-2.6l0.2-2.3l0.2-1.9l0.2-1.7l0.2-1.5
	l0.2-1.4l0.2-1.3l0.2-1.3l0.2-1.3l0.2-1.4l0.2-1.6l0.2-1.8l0.3-2l0.3-2.4l0.4-2.8l-1.3,0.2l-1,0.2l-0.7,0.1l-0.4,0.1l-0.2,0l-0.1,0
	l0,0l0,0l0,0l-0.1,0l-0.2,0.1l-0.4,0.1l-0.7,0.2l-1,0.2l-1.3,0.3l0.2-4l0.2-3l0.1-2.1l0.1-1.3l0-0.8l0-0.3l0-0.1v0l0-0.1l0-0.3
	l0-0.8l0.1-1.3l0.1-2.1l0.2-3l0.2-4l-1.7,0l-1.2,0l-0.9,0l-0.6,0l-0.3,0h-0.2l0,0h-1l-0.8,0h-1.2l-1.6,0L319,525l-0.5-3.3l-0.3-2.3
	l-0.2-1.5l-0.1-0.8l0-0.4l0-0.1l0-0.1l0-0.4l-0.1-0.8l-0.2-1.4l-0.3-2.3l-0.5-3.3l-0.6-4.5l-1.1,0.5l-0.8,0.3l-0.5,0.2l-0.4,0.1
	l-0.2,0.1l-0.1,0l0,0l0,0l0,0l-0.1,0l-0.2,0.1l-0.3,0.1l-0.5,0.2l-0.8,0.3l-1.1,0.5l-1.2-4.3l-0.9-3.1l-0.6-2.2l-0.4-1.4l-0.2-0.8
	l-0.1-0.4l0-0.1l0,0l0-0.1l-0.1-0.4l-0.2-0.8l-0.4-1.4l-0.6-2.2l-0.9-3.2l-1.2-4.3l-1,0.5l-0.8,0.3l-0.5,0.2l-0.4,0.1l-0.2,0.1
	l-0.1,0l0,0l0,0l0,0l-0.1,0l-0.2,0.1l-0.3,0.1l-0.5,0.2l-0.8,0.3l-1,0.5l-1.7-4.3l-1.2-3.2l-0.9-2.2l-0.6-1.4l-0.3-0.8l-0.1-0.3
	l0-0.1l0-0.1l-0.1-0.4l-0.3-0.8l-0.6-1.4l-0.9-2.2l-1.3-3.2l-1.7-4.4l-0.9,0.7l-0.7,0.5l-0.5,0.4l-0.3,0.2l-0.2,0.1l-0.1,0.1l0,0v0
	l-0.1,0.1l-0.1,0.1l-0.3,0.2l-0.4,0.4l-0.6,0.5l-0.9,0.7l-2.8-4l-2.1-3l-1.5-2.1l-0.9-1.3l-0.5-0.7l-0.2-0.3l-0.1-0.1l-0.2-0.3
	l-0.5-0.7l-0.9-1.3l-1.4-2l-2.1-3l-2.8-4l-0.8,1.3l-0.6,0.9l-0.4,0.7l-0.3,0.4l-0.1,0.2l-0.1,0.1h0v0l-0.1,0l-0.1,0.2l-0.2,0.3
	l-0.4,0.6l-0.5,0.8l-0.7,1.2l-1.7-1.8l-1.6-1.6l-1.5-1.5l-1.4-1.4l-1.3-1.4l-1.3-1.3l-1.2-1.2l-1.2-1.2l-1.2-1.2l-1.2-1.2l-1.2-1.2
	l-1.3-1.2l-1.3-1.3l-1.4-1.4l-1.5-1.5l-0.4,1.4l-0.3,1.2l-0.2,0.9l-0.2,0.7l-0.1,0.5l-0.1,0.4l-0.1,0.3l-0.1,0.2l0,0.2l0,0.2
	l-0.1,0.2l-0.1,0.2l-0.1,0.3l-0.1,0.4l-0.2,0.6l-4-2.9l-3-2.1l-2.1-1.5l-1.3-1l-0.8-0.5l-0.4-0.2l-0.1-0.1l0,0l-0.1-0.1l-0.3-0.2
	l-0.8-0.5l-1.3-1l-2.1-1.5l-3-2.2l-4-3l-0.5,1.3l-0.4,0.9l-0.2,0.7l-0.2,0.4l-0.1,0.2l-0.1,0.1l0,0h0l0,0l-0.1,0.1l-0.1,0.2
	l-0.2,0.4l-0.3,0.6l-0.4,0.9l-0.5,1.3l-4.3-1.6l-3.6-1.4l-2.9-1.1l-2.3-0.9l-1.8-0.7l-1.4-0.5l-1-0.4l-0.8-0.3l-0.6-0.2l-0.5-0.2
	l-0.5-0.2l-0.6-0.2l-0.8-0.3l-1.1-0.4l-0.9-0.3l-0.3-0.1l-1.2,0.4l-1.1,0.4l-0.8,0.3l-0.6,0.2l-0.5,0.2l-0.5,0.2l-0.6,0.2l-0.8,0.3
	l-1,0.4l-1.4,0.5l-1.8,0.7l-2.3,0.9l-2.9,1.1l-3.6,1.4l-4.4,1.6l-0.5-1.3l-0.4-0.9l-0.3-0.6l-0.2-0.4l-0.1-0.2l-0.1-0.1l0,0h0l0,0
	l-0.1-0.1l-0.1-0.2l-0.2-0.4l-0.2-0.7l-0.4-0.9l-0.5-1.3l-4,3l-3,2.2l-2.1,1.5l-1.3,1l-0.8,0.5l-0.4,0.2l-0.1,0.1l0,0l-0.1,0.1
	l-0.3,0.2l-0.8,0.5l-1.3,1l-2.1,1.5l-3,2.1l-4,2.9l-0.2-0.6l-0.1-0.4l-0.1-0.3l-0.1-0.2l-0.1-0.2l-0.1-0.2l0-0.2l-0.1-0.2l-0.1-0.3
	l-0.1-0.4l-0.1-0.5l-0.2-0.7l-0.2-0.9l-0.3-1.2l-0.4-1.4l-1.5,1.5l-1.4,1.4l-1.3,1.3l-1.3,1.2l-1.2,1.2l-1.2,1.2l-1.2,1.2l-1.2,1.2
	l-1.2,1.2l-1.3,1.3l-1.3,1.4l-1.4,1.4l-1.5,1.5l-1.6,1.6l-1.7,1.8l-0.7-1.2l-0.5-0.8l-0.4-0.6l-0.2-0.3l-0.1-0.2l-0.1,0v0h0
	l-0.1-0.1l-0.1-0.2l-0.3-0.4l-0.4-0.7l-0.6-0.9l-0.8-1.3l-2.8,4l-2.1,3l-1.4,2l-0.9,1.3l-0.5,0.7l-0.2,0.3l-0.1,0.1l-0.1,0.1
	l-0.2,0.3l-0.5,0.7l-0.9,1.3l-1.4,2.1l-2.1,3l-2.8,4l-0.8-0.7l-0.6-0.5l-0.4-0.4l-0.3-0.2l-0.1-0.1l-0.1-0.1v0l0,0l-0.1-0.1
	l-0.2-0.1l-0.3-0.2l-0.5-0.4l-0.7-0.5l-0.9-0.7l-1.7,4.4l-1.3,3.2l-0.9,2.2l-0.6,1.4l-0.3,0.8l-0.1,0.4l0,0.1l0,0.1l-0.1,0.3
	l-0.3,0.8l-0.6,1.4l-0.9,2.2l-1.2,3.2l-1.7,4.3l-1-0.5l-0.8-0.3l-0.5-0.2l-0.3-0.1l-0.2-0.1l-0.1,0l0,0l0,0l0,0l-0.1,0l-0.2-0.1
	l-0.3-0.1l-0.5-0.2l-0.8-0.3l-1-0.5l-1.2,4.3l-0.9,3.2l-0.6,2.2l-0.4,1.4l-0.2,0.8l-0.1,0.4l0,0.1l0,0l0,0.1l-0.1,0.4l-0.2,0.8
	l-0.4,1.4l-0.6,2.2l-0.9,3.1l-1.2,4.3l-1-0.5l-0.8-0.3l-0.5-0.2l-0.3-0.1l-0.2-0.1l-0.1,0l0,0l0,0l0,0l-0.1,0l-0.2-0.1l-0.3-0.1
	l-0.5-0.2l-0.8-0.3l-1.1-0.5l-0.6,4.5l-0.5,3.3L62,514l-0.2,1.4l-0.1,0.8l-0.1,0.4l0,0.1l0,0.1l-0.1,0.4l-0.1,0.8l-0.2,1.5l-0.3,2.3
	l-0.5,3.3l-0.6,4.5l-1.6,0h-1.2l-0.8,0h-1l0,0H55l-0.3,0l-0.6,0l-0.9,0l-1.2,0l-1.7,0l0.2,4l0.2,3l0.1,2.1l0.1,1.3l0,0.8l0,0.3
	l0,0.1v0l0,0.1l0,0.3l0,0.8l0.1,1.3l0.1,2.1l0.2,3l0.2,4l-1.3-0.3l-1-0.2l-0.7-0.2l-0.4-0.1l-0.2-0.1l-0.1,0l0,0l0,0l0,0l-0.1,0
	l-0.2,0l-0.4-0.1l-0.7-0.1l-1-0.2l-1.3-0.2l0.4,2.8l0.3,2.4l0.3,2l0.2,1.8l0.2,1.6l0.2,1.4l0.2,1.3l0.2,1.3l0.2,1.3l0.2,1.4l0.2,1.5
	l0.2,1.7l0.2,1.9l0.2,2.3l0.3,2.6l-1.7-0.1l-1.2,0l-0.9,0l-0.5,0l-0.3,0H43l0,0v0l0,0l-0.2,0l-0.3,0l-0.6,0h-2.2l-1.7,0l1,3.4
	l0.8,2.5l0.5,1.7l0.3,1.1l0.2,0.6l0.1,0.3l0,0l0,0.1l0.1,0.3l0.2,0.6l0.3,1.1l0.5,1.8l0.8,2.5l1,3.4l-1.6,0.9l-1.2,0.6l-0.8,0.5
	l-0.6,0.3l-0.3,0.2l-0.2,0.1l-0.1,0l0,0l0,0l-0.2,0.1l-0.3,0.2l-0.5,0.3l-0.8,0.4l-1.2,0.6l-1.6,0.9l2.1,2.3l1.5,1.7l1.1,1.2
	l0.7,0.8l0.4,0.4l0.2,0.2l0,0.1l0,0l0,0.1l0.2,0.2l0.4,0.4l0.7,0.8l1,1.2l1.5,1.7l2,2.3l-1.3,0.4l-0.9,0.3l-0.6,0.2l-0.4,0.1
	l-0.2,0.1l-0.1,0l0,0h0l-0.1,0l-0.3,0.1l-0.4,0.1l-0.7,0.2l-1,0.3l-1.3,0.4l0.8,1l0.8,1.1l0.9,1.1l1,1.1l1,1.1l1.1,1.2l1.1,1.2
	l1.1,1.2l1.1,1.2l1.1,1.2l1.1,1.2l1.1,1.2l1.1,1.2l1.1,1.2l1.2,1.8h131.3v-99.6h8.5v99.6c0,0,0,0,131.3,0l1.2-1.8l1.1-1.2l1.1-1.2
	l1.1-1.2l1.1-1.2l2.3-2.4l1.1-1.2l1.1-1.2l1.1-1.2l1-1.1l1-1.1l0.9-1.1l0.8-1.1l0.8-1l-1.3-0.4l-1-0.3l-0.7-0.2l-0.4-0.1l-0.3-0.1
	l-0.1,0h0l0,0l-0.1,0l-0.2-0.1l-0.4-0.1l-0.6-0.2l-0.9-0.3l-1.3-0.4l2-2.3l1.5-1.7l1-1.2l0.7-0.8l0.4-0.4l0.2-0.2l0-0.1l0,0l0.1-0.1
	l0.2-0.2l0.4-0.4l0.7-0.8l1.1-1.2l1.5-1.7l2.1-2.3L343.6,601.9z"/>
<path class="st0" d="M347.9,366.2l-2.1,1.9l-1.5,1.4l-1.1,1l-0.7,0.6l-0.4,0.4l-0.2,0.2l-0.1,0l0,0l-0.1,0l-0.2,0.2l-0.4,0.4
	l-0.7,0.6l-1,1l-1.5,1.4l-2.1,1.9l1.3,0.3l0.9,0.2l0.6,0.2l0.4,0.1l0.2,0.1l0.1,0l0,0h0l0.1,0l0.3,0.1l0.5,0.1l0.7,0.1l1,0.2
	l1.4,0.3l-0.8,0.9l-0.9,0.9l-0.9,0.9l-1,1l-1,1l-1.1,1l-1.1,1l-1.1,1l-2.3,2l-1.1,1l-1.1,1l-1.1,1l-0.8,0.8c0,0.6,0,1.1,0,1.7H194
	v-90.3h-8.5V394H50.4c0-0.6,0-1.1,0-1.7l-0.8-0.8l-1.1-1l-1.1-1l-1.1-1l-1.2-1l-1.1-1l-1.1-1l-1.1-1l-1.1-1l-1-1l-1-1l-0.9-0.9
	l-0.9-0.9L36,379l1.3-0.3l1-0.2l0.7-0.1l0.5-0.1l0.3-0.1l0.1,0h0l0,0l0.1,0l0.2-0.1l0.4-0.1l0.6-0.2l0.9-0.2l1.3-0.3l-2.1-1.9
	l-1.5-1.4l-1-1l-0.7-0.6l-0.4-0.4l-0.2-0.2l0,0l0,0l0,0l-0.2-0.2l-0.4-0.4l-0.7-0.6l-1.1-1l-1.5-1.4l-2.1-1.9l1.7-0.7l1.2-0.5
	l0.9-0.4l0.5-0.2l0.3-0.1l0.2-0.1l0,0l0,0l0.1,0l0.2-0.1l0.3-0.1l0.6-0.2l0.9-0.4l1.2-0.5l1.7-0.7l-1-2.9l-0.8-2.1l-0.5-1.5
	l-0.3-0.9l-0.2-0.5l-0.1-0.2l0-0.1l0,0l-0.1-0.2l-0.2-0.5l-0.3-0.9l-0.5-1.4l-0.8-2.1l-1-2.9l1.8,0h2.2l0.6,0h0.3l0.1,0l0.1,0v0l0,0
	h0.1l0.3,0l0.5,0l0.9,0l1.2,0l1.7,0l-0.3-2.2l-0.2-1.9l-0.2-1.6l-0.2-1.4l-0.2-1.3l-0.2-1.1l-0.2-1.1l-0.2-1.1l-0.2-1.1l-0.2-1.2
	l-0.2-1.3l-0.2-1.5l-0.3-1.7l-0.3-2l-0.4-2.3l1.3,0.2l1,0.1l0.7,0.1l0.4,0.1l0.2,0l0.1,0l0,0l0,0l0,0l0.1,0l0.2,0l0.4,0.1l0.7,0.1
	l1,0.2l1.3,0.2l-0.3-3.3l-0.2-2.5l-0.1-1.7l-0.1-1.1l0-0.6l0-0.3l0-0.1v0l0-0.1l0-0.3l-0.1-0.6l-0.1-1.1l-0.1-1.7l-0.2-2.5l-0.2-3.3
	l1.7,0l1.3,0l0.9,0l0.6,0l0.3,0H53l0,0h1l0.8,0H56l1.6,0l0.6-3.7l0.5-2.7l0.3-1.9l0.2-1.2l0.1-0.7l0-0.3l0-0.1l0-0.1l0-0.3l0.1-0.7
	l0.2-1.2l0.3-1.9l0.5-2.7l0.6-3.7l1.1,0.4l0.8,0.3l0.5,0.2l0.4,0.1l0.2,0.1l0.1,0l0,0l0,0l0,0l0.1,0l0.2,0.1l0.3,0.1l0.5,0.2
	l0.8,0.3l1.1,0.4l1.2-3.6l0.9-2.6l0.6-1.8l0.4-1.2l0.2-0.6l0.1-0.3l0-0.1l0,0l0.1-0.1l0.1-0.3l0.2-0.7l0.4-1.2l0.6-1.8l0.9-2.6
	l1.2-3.6l1,0.4l0.8,0.3l0.5,0.2l0.4,0.1l0.2,0.1l0.1,0l0,0l0,0l0,0l0.1,0l0.2,0.1l0.3,0.1l0.5,0.2l0.8,0.3l1,0.4l1.7-3.6l1.3-2.6
	l0.9-1.8l0.6-1.2l0.3-0.7l0.1-0.3l0-0.1l0-0.1l0.1-0.3l0.3-0.7l0.6-1.2l0.9-1.9l1.3-2.7l1.8-3.6l0.9,0.6L92,248l0.5,0.3l0.3,0.2
	l0.2,0.1l0.1,0.1l0,0v0l0.1,0l0.1,0.1l0.3,0.2l0.4,0.3l0.6,0.4l0.9,0.6l2.9-3.4l2.1-2.5l1.5-1.7l0.9-1.1l0.5-0.6l0.2-0.3l0.1-0.1
	l0.1-0.1l0.2-0.3l0.5-0.6l0.9-1.1l1.5-1.7l2.1-2.5l2.9-3.4l0.8,1.1l0.6,0.8l0.4,0.6l0.3,0.3l0.2,0.2l0.1,0.1h0v0l0,0l0.1,0.1
	l0.2,0.3l0.3,0.5l0.5,0.7l0.7,1l1.8-1.5l1.6-1.4l1.5-1.3l1.4-1.2l1.4-1.1l1.3-1.1l1.3-1l1.2-1l1.2-1l1.2-1l1.2-1l1.3-1l1.4-1.1
	l1.4-1.1l1.5-1.2l0.4,1.2l0.3,1l0.2,0.8l0.2,0.6l0.1,0.5l0.1,0.3l0.1,0.2l0.1,0.2l0,0.1l0.1,0.1l0.1,0.2l0.1,0.2l0.1,0.3l0.1,0.4
	l0.2,0.5l4.1-2.4l3-1.8l2.1-1.2l1.4-0.8l0.8-0.4l0.4-0.2l0.1-0.1l0,0l0.1-0.1l0.4-0.2l0.8-0.5l1.4-0.8l2.1-1.3l3-1.8l4.1-2.5
	l0.5,1.1l0.4,0.8l0.2,0.6l0.2,0.4l0.1,0.2l0.1,0.1l0,0h0l0,0l0.1,0.1l0.1,0.2l0.2,0.3l0.3,0.5l0.4,0.8l0.5,1.1l4.4-1.4l3.6-1.1
	l2.9-0.9l2.4-0.7l1.8-0.6l1.4-0.4l1.1-0.4l0.8-0.2l0.6-0.2l0.6-0.2l0.6-0.2l0.6-0.2l0.8-0.2l1.1-0.3l1.2-0.3l1.2,0.3l1.1,0.3
	l0.8,0.2l0.7,0.2l0.5,0.2l0.6,0.2l0.6,0.2l0.8,0.2l1.1,0.4l1.4,0.4l1.8,0.6l2.4,0.7l2.9,0.9l3.6,1.1l4.4,1.4l0.5-1.1l0.4-0.8
	l0.3-0.5l0.2-0.3l0.1-0.2l0.1-0.1l0,0h0l0,0l0.1-0.1l0.1-0.2l0.2-0.4l0.2-0.6l0.4-0.8l0.5-1.1l4.1,2.5l3,1.8l2.1,1.3l1.4,0.8
	l0.8,0.5l0.3,0.2l0.1,0.1l0,0l0.1,0.1l0.3,0.2l0.8,0.4l1.3,0.8l2.1,1.2l3,1.8l4.1,2.4l0.2-0.5l0.1-0.4l0.1-0.3l0.1-0.2l0.1-0.2
	l0.1-0.1l0-0.1l0.1-0.2l0.1-0.2l0.1-0.3l0.1-0.5l0.2-0.6l0.2-0.8l0.3-1l0.4-1.2l1.5,1.2l1.4,1.1l1.3,1.1l1.3,1l1.2,1l1.2,1l2.5,2
	l1.3,1l1.3,1.1l1.4,1.1l1.4,1.2l1.5,1.3l1.6,1.4l1.8,1.5l0.7-1l0.5-0.7l0.4-0.5l0.2-0.3l0.1-0.1l0,0v0h0l0.1-0.1l0.2-0.2l0.3-0.3
	l0.4-0.6l0.6-0.8l0.8-1.1l2.9,3.4l2.1,2.5l1.5,1.7l0.9,1.1l0.5,0.6l0.2,0.3l0,0.1l0.1,0.1l0.2,0.3l0.5,0.6l0.9,1.1l1.5,1.7l2.1,2.5
	l2.9,3.4l0.9-0.6l0.6-0.4l0.4-0.3l0.3-0.2l0.1-0.1l0.1,0v0l0,0l0.1-0.1l0.2-0.1l0.3-0.2l0.5-0.3l0.7-0.4l0.9-0.6l1.8,3.6l1.3,2.7
	l0.9,1.9l0.6,1.2l0.3,0.7l0.1,0.3l0,0.1l0,0.1l0.1,0.3l0.3,0.7l0.6,1.2l0.9,1.8l1.3,2.6l1.7,3.6l1-0.4l0.8-0.3l0.5-0.2l0.3-0.1
	l0.2-0.1l0.1,0l0,0l0,0l0,0l0.1,0l0.2-0.1l0.4-0.1l0.5-0.2l0.8-0.3l1-0.4l1.2,3.6l0.9,2.6l0.6,1.8l0.4,1.2l0.2,0.7l0.1,0.3l0,0.1
	l0,0l0,0.1l0.1,0.3l0.2,0.6l0.4,1.2l0.6,1.8l0.9,2.6l1.2,3.6l1.1-0.4l0.8-0.3l0.5-0.2l0.3-0.1l0.2-0.1l0.1,0l0,0l0,0l0,0l0.1,0
	l0.2-0.1l0.4-0.1l0.5-0.2l0.8-0.3l1.1-0.4l0.6,3.7l0.5,2.7l0.3,1.9l0.2,1.2l0.1,0.7l0,0.3l0,0.1l0,0.1l0,0.3l0.1,0.7l0.2,1.2
	l0.3,1.9l0.5,2.7l0.6,3.7l1.6,0h1.2l0.8,0h1l0,0h0.2l0.3,0l0.6,0l0.9,0l1.3,0l1.7,0l-0.2,3.3l-0.2,2.5l-0.1,1.7l-0.1,1.1l0,0.6
	l0,0.3l0,0.1v0l0,0.1l0,0.3l0,0.6l-0.1,1.1l-0.1,1.7l-0.2,2.5l-0.2,3.3l1.3-0.2l1-0.2l0.7-0.1l0.4-0.1l0.2,0l0.1,0l0,0l0,0l0,0
	l0.1,0l0.2,0l0.4-0.1l0.7-0.1l1-0.1l1.3-0.2l-0.4,2.3l-0.3,2l-0.3,1.7l-0.2,1.5l-0.2,1.3l-0.2,1.2l-0.2,1.1l-0.2,1.1l-0.2,1.1
	l-0.2,1.1l-0.2,1.3l-0.2,1.4l-0.2,1.6l-0.2,1.9l-0.3,2.2l1.7,0l1.2,0l0.9,0l0.5,0l0.3,0h0.1l0,0v0l0.1,0l0.1,0h0.3l0.6,0h2.2l1.8,0
	l-1,2.9l-0.8,2.1l-0.5,1.4l-0.3,0.9l-0.2,0.5l-0.1,0.2l0,0l0,0.1l-0.1,0.2l-0.2,0.5l-0.4,0.9L340,357l-0.8,2.1l-1,2.9l1.7,0.7
	l1.2,0.5l0.9,0.4l0.6,0.2l0.3,0.1l0.1,0.1l0.1,0l0,0l0.1,0l0.1,0.1l0.3,0.1l0.5,0.2l0.9,0.4l1.2,0.5L347.9,366.2z"/>
<path class="st0" d="M347.9,169.4l-2.1,1.9l-1.5,1.4l-1.1,1l-0.7,0.6l-0.4,0.4l-0.2,0.2l-0.1,0l0,0l-0.1,0l-0.2,0.2l-0.4,0.4
	l-0.7,0.6l-1,1l-1.5,1.4l-2.1,1.9l1.3,0.3l0.9,0.2l0.6,0.2l0.4,0.1l0.2,0.1l0.1,0l0,0h0l0.1,0l0.3,0.1l0.5,0.1l0.7,0.2l1,0.2
	l1.4,0.3l-0.8,0.9l-0.9,0.9l-0.9,0.9l-1,0.9l-1,0.9l-1.1,1l-1.1,1l-1.1,1l-2.3,2l-1.1,1l-1.1,1l-1.1,1l-0.8,0.8c0,0.6,0,1.1,0,1.7
	H194v-90.3h-8.5v90.3H50.4c0-0.6,0-1.1,0-1.7l-0.8-0.8l-1.1-1l-1.1-1l-1.1-1l-1.2-1l-1.1-1l-1.1-1l-1.1-1l-1.1-1l-1-0.9l-1-0.9
	l-0.9-0.9l-0.9-0.9l-0.8-0.9l1.3-0.3l1-0.2l0.7-0.2l0.5-0.1l0.3-0.1l0.1,0h0l0,0l0.1,0l0.2-0.1l0.4-0.1l0.6-0.2l0.9-0.2l1.3-0.3
	l-2.1-1.9L40,177l-1-1l-0.7-0.6l-0.4-0.4l-0.2-0.2l0,0l0,0l0,0l-0.2-0.2l-0.4-0.4l-0.7-0.6l-1.1-1l-1.5-1.4l-2.1-1.9l1.7-0.7
	l1.2-0.5l0.9-0.4l0.5-0.2l0.3-0.1l0.2-0.1l0,0l0,0l0.1,0l0.2-0.1l0.3-0.1l0.6-0.2l0.9-0.4l1.2-0.5l1.7-0.7l-1-2.9l-0.8-2.1l-0.5-1.5
	l-0.3-0.9l-0.2-0.5l-0.1-0.2l0-0.1l0,0l-0.1-0.2l-0.2-0.5l-0.3-0.9l-0.5-1.4l-0.8-2.1l-1-2.9l1.8,0h2.2l0.6,0h0.3l0.1,0l0.1,0v0l0,0
	h0.1l0.3,0l0.5,0l0.9,0l1.2,0l1.7,0.1l-0.3-2.2l-0.2-1.9l-0.2-1.6l-0.2-1.4l-0.2-1.3l-0.2-1.1l-0.2-1.1l-0.2-1.1l-0.2-1.1l-0.2-1.2
	l-0.2-1.3l-0.2-1.5l-0.3-1.7l-0.3-2l-0.4-2.3l1.3,0.2l1,0.2l0.7,0.1l0.4,0.1l0.2,0l0.1,0l0,0l0,0l0,0l0.1,0l0.2,0l0.4,0.1l0.7,0.1
	l1,0.2l1.3,0.2l-0.3-3.3l-0.2-2.5l-0.1-1.7l-0.1-1.1l0-0.6l0-0.3l0-0.1v0l0-0.1l0-0.3l-0.1-0.6l-0.1-1.1l-0.1-1.7l-0.2-2.5l-0.2-3.3
	l1.7,0l1.3,0l0.9,0l0.6,0l0.3,0H53l0,0h1l0.8,0H56l1.6,0l0.6-3.7l0.5-2.7l0.3-1.9l0.2-1.2l0.1-0.7l0-0.3l0-0.1l0-0.1l0-0.3l0.1-0.7
	l0.2-1.2l0.3-1.9l0.5-2.7l0.6-3.7l1.1,0.4l0.8,0.3l0.5,0.2L64,88l0.2,0.1l0.1,0l0,0l0,0l0,0l0.1,0l0.2,0.1l0.3,0.1l0.5,0.2l0.8,0.3
	l1.1,0.4l1.2-3.6l0.9-2.6l0.6-1.8l0.4-1.2l0.2-0.7l0.1-0.3l0-0.1l0,0l0.1-0.1l0.1-0.3l0.2-0.7l0.4-1.2l0.6-1.8l0.9-2.7l1.2-3.6
	l1,0.4l0.8,0.3l0.5,0.2l0.4,0.1l0.2,0.1l0.1,0l0,0l0,0l0,0l0.1,0l0.2,0.1l0.3,0.1l0.5,0.2l0.8,0.3l1,0.4l1.7-3.6l1.3-2.6l0.9-1.8
	l0.6-1.2l0.3-0.7l0.1-0.3l0-0.1l0-0.1l0.1-0.3l0.3-0.7l0.6-1.2l0.9-1.9l1.3-2.7l1.8-3.7l0.9,0.6l0.7,0.4l0.5,0.3l0.3,0.2l0.2,0.1
	l0.1,0l0,0v0l0.1,0l0.1,0.1l0.3,0.2l0.4,0.3l0.6,0.4l0.9,0.6l2.9-3.4l2.1-2.5L102,46l0.9-1.1l0.5-0.6l0.2-0.3l0.1-0.1l0.1-0.1
	l0.2-0.3l0.5-0.6l0.9-1.1l1.5-1.7l2.1-2.5l2.9-3.4l0.8,1.1l0.6,0.8l0.4,0.6l0.3,0.3l0.2,0.2l0.1,0.1h0v0l0,0l0.1,0.1l0.2,0.3
	l0.3,0.5l0.5,0.7l0.7,1l1.8-1.5l1.6-1.4l1.5-1.3l1.4-1.2l1.4-1.1l1.3-1.1l1.3-1l1.2-1l1.2-1l1.2-1l1.2-1l1.3-1l1.4-1.1l1.4-1.1
	L137,23l0.4,1.2l0.3,1l0.2,0.8l0.2,0.6l0.1,0.5l0.1,0.3l0.1,0.2l0.1,0.2l0,0.1l0.1,0.1l0.1,0.2l0.1,0.2l0.1,0.3l0.1,0.4l0.2,0.5
	l4.1-2.4l3-1.8l2.1-1.2l1.4-0.8l0.8-0.4l0.4-0.2l0.1,0l0,0l0.1-0.1l0.4-0.2l0.8-0.5l1.4-0.8l2.1-1.3l3-1.8l4.1-2.5l0.5,1.1l0.4,0.8
	l0.2,0.6l0.2,0.3l0.1,0.2l0.1,0.1l0,0h0l0,0l0.1,0.1l0.1,0.2l0.2,0.4l0.3,0.5l0.4,0.8l0.5,1.1l4.4-1.4l3.6-1.1l2.9-0.9l2.4-0.7
	l1.8-0.6l1.4-0.4l1.1-0.4l0.8-0.2l0.6-0.2l0.6-0.2l0.6-0.2l0.6-0.2l0.8-0.2l1.1-0.3l1.2-0.3l1.2,0.3l1.1,0.3l0.8,0.2l0.7,0.2
	l0.5,0.2l0.6,0.2l0.6,0.2l0.8,0.2l1.1,0.4l1.4,0.4l1.8,0.6l2.4,0.7l2.9,0.9l3.6,1.1l4.4,1.4l0.5-1.1l0.4-0.8l0.3-0.5l0.2-0.4
	l0.1-0.2l0.1-0.1l0,0h0l0,0l0.1-0.1l0.1-0.2l0.2-0.3l0.2-0.6l0.4-0.8l0.5-1.1l4.1,2.5l3,1.8l2.1,1.3l1.4,0.8l0.8,0.5l0.3,0.2
	l0.1,0.1l0,0l0.1,0l0.3,0.2l0.8,0.4l1.3,0.8l2.1,1.2l3,1.8l4.1,2.4l0.2-0.5l0.1-0.4l0.1-0.3l0.1-0.2L241,28l0.1-0.1l0-0.1l0.1-0.2
	l0.1-0.2l0.1-0.3l0.1-0.5l0.2-0.6l0.2-0.8l0.3-1l0.4-1.2l1.5,1.2l1.4,1.1l1.3,1.1l1.3,1l1.2,1l1.2,1l2.5,2l1.3,1l1.3,1.1l1.4,1.1
	l1.4,1.2l1.5,1.3l1.6,1.4l1.8,1.5l0.7-1l0.5-0.7l0.4-0.5l0.2-0.3l0.1-0.1l0,0v0h0l0.1-0.1l0.2-0.2l0.3-0.3l0.4-0.6l0.6-0.8l0.8-1.1
	l2.9,3.4l2.1,2.5l1.5,1.7l0.9,1.1l0.5,0.6l0.2,0.3l0,0.1l0.1,0.1l0.2,0.3l0.5,0.6l0.9,1.1l1.5,1.7l2.1,2.5l2.9,3.4l0.9-0.6l0.6-0.4
	l0.4-0.3l0.3-0.2l0.1-0.1l0.1,0v0l0,0l0.1,0l0.2-0.1l0.3-0.2l0.5-0.3l0.7-0.4l0.9-0.6l1.8,3.7l1.3,2.7l0.9,1.9l0.6,1.2l0.3,0.7
	l0.1,0.3l0,0.1l0,0.1l0.1,0.3l0.3,0.7l0.6,1.2l0.9,1.8l1.3,2.6l1.7,3.6l1-0.4l0.8-0.3l0.5-0.2l0.3-0.1l0.2-0.1l0.1,0l0,0l0,0l0,0
	l0.1,0l0.2-0.1l0.4-0.1l0.5-0.2l0.8-0.3l1-0.4l1.2,3.6l0.9,2.7l0.6,1.8l0.4,1.2l0.2,0.7l0.1,0.3l0,0.1l0,0l0,0.1l0.1,0.3L309,80
	l0.4,1.2L310,83l0.9,2.6l1.2,3.6l1.1-0.4l0.8-0.3l0.5-0.2l0.3-0.1l0.2-0.1l0.1,0l0,0l0,0l0,0l0.1,0l0.2-0.1l0.4-0.1l0.5-0.2l0.8-0.3
	l1.1-0.4l0.6,3.7l0.5,2.7l0.3,1.9l0.2,1.2l0.1,0.7l0,0.3l0,0.1l0,0.1l0,0.3l0.1,0.7l0.2,1.2l0.3,1.9l0.5,2.7l0.6,3.7l1.6,0h1.2
	l0.8,0h1l0,0h0.2l0.3,0l0.6,0l0.9,0l1.3,0l1.7,0l-0.2,3.3l-0.2,2.5l-0.1,1.7l-0.1,1.1l0,0.6l0,0.3l0,0.1v0l0,0.1l0,0.3l0,0.6
	l-0.1,1.1l-0.1,1.7l-0.2,2.5l-0.2,3.3l1.3-0.2l1-0.2l0.7-0.1l0.4-0.1l0.2,0l0.1,0l0,0l0,0l0,0l0.1,0l0.2,0l0.4-0.1l0.7-0.1l1-0.2
	l1.3-0.2l-0.4,2.3l-0.3,2l-0.3,1.7l-0.2,1.5l-0.2,1.3l-0.2,1.2l-0.2,1.1l-0.2,1.1l-0.2,1.1l-0.2,1.1l-0.2,1.3l-0.2,1.4l-0.2,1.6
	l-0.2,1.9l-0.3,2.2l1.7-0.1l1.2,0l0.9,0l0.5,0l0.3,0h0.1l0,0v0l0.1,0l0.1,0h0.3l0.6,0h2.2l1.8,0l-1,2.9l-0.8,2.1l-0.5,1.4l-0.3,0.9
	l-0.2,0.5l-0.1,0.2l0,0l0,0.1l-0.1,0.2l-0.2,0.5l-0.4,0.9l-0.5,1.5l-0.8,2.1l-1,2.9l1.7,0.7l1.2,0.5l0.9,0.4l0.6,0.2l0.3,0.1
	l0.1,0.1l0.1,0l0,0l0.1,0l0.1,0.1l0.3,0.1l0.5,0.2l0.9,0.4l1.2,0.5L347.9,169.4z"/>
</svg>
