<?xml version="1.0" encoding="utf-8"?>
<!-- Generator: Adobe Illustrator 25.0.0, SVG Export Plug-In . SVG Version: 6.00 Build 0)  -->
<svg version="1.1" id="EBENE_x5F_1" xmlns="http://www.w3.org/2000/svg" xmlns:xlink="http://www.w3.org/1999/xlink" x="0px"
	 y="0px" viewBox="0 0 841.9 595.3" style="enable-background:new 0 0 841.9 595.3;" xml:space="preserve">
<style type="text/css">
	.st0{fill:none;stroke:#000000;stroke-width:0.7087;stroke-linecap:round;stroke-linejoin:round;stroke-miterlimit:10;}
</style>
<g id="SPLINE">
	<polyline class="st0" points="240.5,444.3 240.7,444.3 241.4,444.3 242.5,444.3 244,444.3 247.8,444.3 252.5,444.3 263.5,444.3 
		268.9,444.3 274,444.3 278.2,444.3 279.9,444.3 281.3,444.3 282.3,444.3 282.8,444.3 283,444.3 283,444.8 283,445.7 283,447.7 
		283,448.2 283,448.3 283.5,448.3 284.5,448.3 285.9,448.3 289.6,448.3 293.5,448.3 296.6,448.3 297.6,448.3 298,448.3 298,448 
		298,446.2 298,444.5 298,444.3 298.4,444.3 299.2,444.3 301.4,444.3 304,444.3 306.4,444.3 307.8,444.3 308,444.3 308,448.1 
		308,448.1 308.2,448.1 308.9,448.1 310.2,448.1 311.8,448.1 319.3,448.1 320.9,448.1 322.1,448.1 322.8,448.1 323,448.1 323,444.2 
		323.2,444.3 324.7,444.3 327,444.3 329.7,444.3 331.8,444.3 332.6,444.3 332.9,444.3 333,444.5 333,448 333,448.3 333.5,448.3 
		334.5,448.3 337.6,448.3 341.5,448.3 345.2,448.3 346.6,448.3 347.5,448.3 348,448.3 348,448.2 348,447.7 348,445.7 348,444.8 
		348,444.3 348.2,444.3 348.8,444.3 349.9,444.3 351.4,444.3 353.1,444.3 357.4,444.3 362.5,444.3 368,444.3 378.9,444.3 
		383.6,444.3 387.3,444.3 388.7,444.3 389.7,444.3 390.3,444.3 390.5,444.3 390.5,443.7 390.5,442.3 390.5,440.2 390.5,437.6 
		390.5,431.8 390.5,426.3 390.5,424.1 390.5,422.6 390.5,421.8 390.5,421.8 391.1,421.8 392,421.8 393.9,421.8 394.4,421.8 
		394.5,421.7 394.5,421.2 394.5,420.1 394.5,418.7 394.5,415 394.5,411.1 394.5,409.4 394.5,408.1 394.5,407.1 394.5,406.8 
		394.2,406.8 392.3,406.8 390.7,406.8 390.5,406.6 390.5,405.6 390.5,403.8 390.5,401.5 390.5,398.8 390.5,392.9 390.5,390.1 
		390.5,387.7 390.5,385.8 390.5,384.6 390.4,384.3 390,384.3 389.2,384.3 387.9,384.3 386.3,384.3 382.3,384.3 377.4,384.3 
		372,384.3 361,384.3 356.1,384.3 352.1,384.3 350.5,384.3 349.3,384.3 348.4,384.3 348,384.3 348,384 348,383.2 348,381.2 
		348,380.5 347.9,380.3 347.3,380.3 346.2,380.3 342.9,380.3 339,380.3 335.5,380.3 334.1,380.3 333.3,380.3 333,380.3 333,380.4 
		333,381 333,381.9 333,383.8 333,384.3 332.9,384.3 332.4,384.3 330.5,384.3 328,384.3 325.5,384.3 323.6,384.3 323.1,384.3 
		323,384.3 323,384.4 323,380.3 323,380.3 322.7,380.3 321.8,380.3 320.5,380.3 317,380.3 313.1,380.3 309.8,380.3 308.6,380.3 
		308,380.3 308,384.3 308,384.3 307.7,384.3 307,384.3 304.9,384.3 299.9,384.3 298.3,384.3 298,384.2 298,383.7 298,382.7 
		298,380.8 298,380.3 297.9,380.3 297.3,380.3 296.2,380.3 294.7,380.3 291,380.3 287.2,380.3 285.5,380.3 284.2,380.3 283.3,380.3 
		283,380.3 283,380.6 283,382.5 283,384.1 283,384.3 283,384.3 282.6,384.3 281.7,384.3 280.5,384.3 277.1,384.3 272.6,384.3 
		267.4,384.3 256.3,384.3 251.1,384.3 246.6,384.3 243.1,384.3 241.8,384.3 241,384.3 240.5,384.3 240.5,384.3 240.5,384.6 
		240.5,385.9 240.5,390.1 240.5,391.8 240.5,392.5 240.8,392.5 241.5,392.6 241.5,393.3 241.5,394.6 241.5,397.6 241.5,398.4 
		241.5,398.5 241.1,398.5 240.6,398.5 240.5,398.5 240.5,398.6 240.5,399.1 240.5,400.7 240.5,402.7 240.5,404.8 240.5,406.3 
		240.5,406.8 240,406.8 238.1,406.8 237.2,406.8 236.6,406.8 236.5,406.8 236.5,407.1 236.5,408 236.5,409.4 236.5,413 236.5,416.9 
		236.5,420.1 236.5,421.2 236.5,421.7 236.7,421.8 237.4,421.8 239.5,421.8 240.2,421.8 240.5,421.8 240.5,422.6 240.5,424.4 
		240.5,428.5 240.5,429.8 240.5,430 241.4,430 241.5,430 241.5,430.3 241.5,431.4 241.5,432.9 241.5,434.4 241.5,435.6 241.5,436 
		241.4,436 240.5,436 240.5,436.4 240.5,437.8 240.5,441.9 240.5,443.6 240.5,444.3 	"/>
</g>
<g id="SPLINE_1_">
	<polyline class="st0" points="567,397.9 567,398.4 567,399.8 567,403.6 567,405.3 567,406.4 567,406.6 566.5,406.6 563.3,406.6 
		563,406.6 563,406.7 563,407.3 563,408.3 563,409.6 563,412.7 563,416.1 563,419.1 563,420.3 563,421.1 563,421.6 563,421.6 
		563.4,421.6 564.2,421.6 565.9,421.6 566.6,421.6 567,421.6 567,421.9 567,423.1 567,426.9 567,428.7 567,430 567,430.8 567,432.7 
		567,434.8 567,435.3 567,435.5 567,436 567,436.9 567,438.8 567,439.5 567,439.7 567,440 567,440.7 567,442.7 567,443.5 567,444 
		567,444.1 566.5,444.1 565.1,444.1 562.8,444.1 560,444.1 556.7,444.1 549.5,444.1 542.6,444.1 539.7,444.1 537.3,444.1 
		535.7,444.1 535,444.1 535,444.3 535,445.8 535,447.5 535,448 534.9,448.1 534.3,448.1 533.4,448.1 530.6,448.1 524,448.1 
		521.4,448.1 520.5,448.1 520.1,448.1 520,447.9 520,447.4 520,445.6 520,444.3 519.9,444.1 519.2,444.1 517.8,444.1 515.8,444.1 
		513.5,444.1 508.1,444.1 502.6,444.1 500.2,444.1 498.1,444.1 496.6,444.1 495.7,444.1 495.5,444.2 495.5,445.5 495.5,447.3 
		495.5,447.9 495.5,448.1 495.2,448.1 494.4,448.1 491.9,448.1 485.3,448.1 482.4,448.1 481.4,448.1 480.7,448.1 480.5,448 
		480.5,447.5 480.5,445.9 480.5,444.4 480.5,444.1 480.2,444.1 479.1,444.1 477.4,444.1 475.2,444.1 470,444.1 464.5,444.1 
		461.9,444.1 459.6,444.1 457.8,444.1 456.6,444.1 456,444.1 456,444.1 456,444.6 456,445.3 456,447.1 456,447.8 456,448.1 
		455.9,448.1 455.3,448.1 454.4,448.1 453.1,448.1 450,448.1 446.6,448.1 443.6,448.1 442.4,448.1 441.5,448.1 441.1,448.1 
		441,448.1 441,447.7 441,446.1 441,444.5 441,444.1 440.9,444.1 440.3,444.1 439,444.1 437.3,444.1 432.8,444.1 427.8,444.1 
		423.3,444.1 421.4,444.1 420,444.1 419.2,444.1 419,444 419,443.4 419,442.4 419,441 419,439.2 419,437 419,434.6 419,429 
		419,422.6 419,415.9 419,402.4 419,396.4 419,391.2 419,389.1 419,387.2 419,385.8 419,384.8 419,384.2 419,384.1 419.5,384.1 
		420.6,384.1 422.3,384.1 426.6,384.1 431.6,384.1 436.2,384.1 438.2,384.1 439.7,384.1 440.7,384.1 441,384.1 441,383.8 441,382.3 
		441,380.7 441,380.2 441.2,380.1 441.9,380.1 442.9,380.1 445.8,380.1 452.4,380.1 454.9,380.1 455.7,380.1 456,380.1 456,380.3 
		456,380.9 456,382.7 456,384 456.2,384.1 457.1,384.1 458.6,384.1 460.7,384.1 463.1,384.1 468.6,384.1 474,384.1 476.3,384.1 
		478.3,384.1 479.7,384.1 480.4,384.1 480.5,383.9 480.5,382.6 480.5,380.8 480.5,380.3 480.6,380.1 481,380.1 481.9,380.1 
		484.5,380.1 491.1,380.1 493.9,380.1 494.8,380.1 495.4,380.1 495.5,380.2 495.5,380.7 495.5,382.4 495.5,383.9 495.5,384.1 
		496.1,384.1 497.3,384.1 499.1,384.1 501.3,384.1 506.6,384.1 512.1,384.1 514.6,384.1 516.8,384.1 518.5,384.1 519.6,384.1 
		520,384.1 520,384 520,383.6 520,382.8 520,381 520,380.4 520,380.1 520.2,380.1 520.9,380.1 523.2,380.1 529.8,380.1 532.7,380.1 
		533.9,380.1 534.6,380.1 535,380.1 535,380.1 535,380.6 535,382.2 535,383.8 535,384.1 535.2,384.1 536.4,384.1 538.4,384.1 
		541,384.1 544.2,384.1 547.7,384.1 554.9,384.1 558.4,384.1 561.4,384.1 564,384.1 565.9,384.1 566.9,384.1 567,384.1 567,384.3 
		567,385 567,385.2 567,386.3 567,389.7 567,391.3 567,392.5 567,392.9 567,393 567,393.6 567,394.5 567,396.7 567,397.5 567,397.9 
			"/>
</g>
<g id="SPLINE_2_">
	<path class="st0" d="M406.2,152.4v22.5c0,0,0,0,4,0c0,15,0,15,0,15h-4c0,0,0,0,0,22.5c8.8,0,8.8,0,8.8,0v4c0,0,0,0,7.5,0
		c0-4,0-4,0-4h8.8c0,0,0,0,0-60c-8.8,0-8.8,0-8.8,0v-4c0,0,0,0-7.5,0c0,4,0,4,0,4H406.2z"/>
</g>
<g id="SPLINE_4_">
	<polyline class="st0" points="593.6,431.1 593.6,431 593.6,430.7 593.6,430.2 593.7,429.6 593.8,428.8 593.8,427.8 593.9,426.7 
		594,425.5 594.1,424.2 594.2,422.8 594.5,419.8 594.7,416.6 595,413.3 595.3,410 595.5,406.8 595.8,403.8 595.9,402.4 596,401.1 
		596.1,399.9 596.2,398.8 596.3,397.8 596.3,397 596.4,396.4 596.4,395.9 596.4,395.6 596.4,395.5 596.6,394.9 596.9,394.4 
		597.4,394.1 598,394 598.6,394.1 599.2,394.4 599.5,394.9 599.6,395.5 	"/>
</g>
<g id="SPLINE_5_">
	<line class="st0" x1="594.6" y1="392" x2="599.6" y2="386.1"/>
</g>
<g id="SPLINE_6_">
	<polyline class="st0" points="599.6,395.5 599.6,395.7 599.6,396.5 599.6,397.6 599.6,399.1 599.6,400.9 599.6,403 599.6,405.4 
		599.6,408 599.6,413.5 599.6,419.4 599.6,425.2 599.6,427.9 599.6,430.5 599.6,432.9 599.6,435.1 599.6,437.1 599.6,438.6 
		599.6,439.9 599.6,440.7 599.6,441.1 599.6,441.1 599.4,441.1 598.9,441.1 597.4,441.1 595.6,441.1 593.9,441.1 593.3,441.1 
		592.8,441.1 592.6,441.1 592.6,441.1 592.6,441.7 592.6,442.5 592.6,444.5 592.6,445 592.6,445.1 592.5,445.1 592.2,445.1 
		591.7,445.1 590.6,445.1 589.3,445.1 588.2,445.1 587.8,445.1 587.6,445.1 587.6,445.1 587.6,444.9 587.6,444.3 587.6,443.3 
		587.6,442.3 587.6,441.5 587.6,441.2 587.6,441.1 587.5,441.1 587.3,441.1 586.4,441.1 585.3,441.1 584.2,441.1 583.4,441.1 
		583.1,441.1 583.1,441.1 583.1,441.2 583.1,441.5 583.1,442.3 583.1,443.3 583.1,444.3 583.1,444.9 583.1,445.1 583,445.1 
		582.8,445.1 582.4,445.1 581.4,445.1 580.1,445.1 578.9,445.1 578.5,445.1 578.2,445.1 578.1,445.1 578.1,445 578.1,444.5 
		578.1,442.5 578.1,441.7 578.1,441.1 578,441.1 577.8,441.1 577.4,441.1 576.7,441.1 575,441.1 573.2,441.1 571.8,441.1 
		571.3,441.1 571,441.1 571,441.1 571,440.9 571,440.6 571,440.1 571,439.5 571,437.9 571,435.8 571,433.3 571,430.4 571,427.2 
		571,423.7 571,420.1 571,412.5 571,404.8 571,401.1 571,397.5 571,394.1 571,391 571,388.2 571,385.8 571,383.8 571,382.4 
		571,381.8 571,381.4 571,381.2 571,381.1 571.2,381.1 571.6,381.1 572.2,381.1 572.9,381.1 576.4,381.1 577.1,381.1 577.7,381.1 
		578,381.1 578.1,381.1 578.1,380.7 578.1,379.8 578.1,377.9 578.1,377.2 578.1,377.1 578.4,377.1 578.7,377.1 579.9,377.1 
		581.1,377.1 582.3,377.1 582.7,377.1 583,377.1 583.1,377.2 583.1,377.8 583.1,378.7 583.1,379.7 583.1,380.6 583.1,381.1 
		583.1,381.1 583.2,381.1 584,381.1 585.1,381.1 586.3,381.1 587.2,381.1 587.5,381.1 587.6,381.1 587.6,381 587.6,380.8 
		587.6,380.1 587.6,379.1 587.6,378.1 587.6,377.4 587.6,377.2 587.6,377.1 587.7,377.1 588,377.1 589.1,377.1 590.3,377.1 
		591.5,377.1 592.4,377.1 592.6,377.1 592.6,377.1 592.6,377.6 592.6,378.5 592.6,379.5 592.6,380.4 592.6,381 592.6,381.1 
		592.7,381.1 593.1,381.1 593.7,381.1 595.3,381.1 597.1,381.1 598.6,381.1 599.2,381.1 599.5,381.1 599.6,381.1 599.6,381.4 
		599.6,382.3 599.6,384.7 599.6,385.7 599.6,386 599.6,386.1 	"/>
</g>
<g id="SPLINE_7_">
	<polyline class="st0" points="593.6,431.1 593.5,431.1 593.3,431.1 593,431.1 592.6,431.1 591.7,431.1 590.6,431.1 589.5,431.1 
		588.5,431.1 588.2,431.1 587.9,431.1 587.7,431.1 587.6,431.1 587.6,431 587.6,430.7 587.6,430.1 587.6,429.4 587.6,428.5 
		587.6,427.5 587.6,426.3 587.6,425 587.6,423.6 587.6,422 587.6,418.7 587.6,415.2 587.6,411.6 587.6,407.9 587.6,404.4 
		587.6,401.1 587.6,399.5 587.6,398.1 587.6,396.8 587.6,395.6 587.6,394.6 587.6,393.7 587.6,393 587.6,392.4 587.6,392.1 
		587.6,392 587.7,392 587.9,392 588.3,392 588.7,392 589.8,392 591.1,392 592.4,392 593.5,392 594,392 594.3,392 594.5,392 
		594.6,392 	"/>
</g>
<g id="SPLINE_10_">
	<polyline class="st0" points="581,406.4 581.2,406.4 581.4,406.5 581.5,406.5 581.7,406.6 581.9,406.7 582.2,407 582.4,407.2 
		582.4,407.4 582.5,407.6 582.5,407.7 582.5,407.9 582.5,408.1 582.5,408.2 582.4,408.4 582.4,408.5 582.2,408.8 582,409.1 
		581.7,409.2 581.6,409.3 581.4,409.4 581.3,409.4 581.1,409.4 581,409.4 581,409.4 581,409.4 580.9,409.4 580.8,409.4 580.6,409.4 
		580.3,409.4 580,409.4 579.4,409.4 579.1,409.4 578.8,409.4 578.5,409.4 578.3,409.4 578.1,409.4 578.1,409.4 578,409.4 578,409.4 
		578,409.4 577.9,409.4 577.8,409.4 577.6,409.4 577.4,409.4 577.1,409.4 576.4,409.4 575.8,409.4 575.6,409.4 575.3,409.4 
		575.2,409.4 575.1,409.4 575,409.4 574.8,409.4 574.7,409.4 574.5,409.3 574.2,409.2 574,409 573.8,408.7 573.6,408.4 573.6,408.3 
		573.5,408.1 573.5,407.9 573.5,407.8 573.6,407.6 573.6,407.4 573.7,407.3 573.7,407.1 573.9,406.9 574.2,406.7 574.5,406.5 
		574.6,406.5 574.8,406.4 575,406.4 575,406.4 575,406.4 575,406.4 575.1,406.4 575.1,406.4 575.3,406.4 575.5,406.4 575.8,406.4 
		576.1,406.4 576.4,406.4 577,406.4 577.3,406.4 577.6,406.4 577.8,406.4 577.9,406.4 578,406.4 578,406.4 578,406.4 578,406.4 
		578.1,406.4 578.2,406.4 578.4,406.4 578.7,406.4 578.9,406.4 579.2,406.4 579.9,406.4 580.2,406.4 580.4,406.4 580.7,406.4 
		580.9,406.4 581,406.4 581,406.4 581,406.4 	"/>
</g>
<g id="SPLINE_11_">
	<polyline class="st0" points="581,412.8 581.2,412.8 581.4,412.8 581.5,412.9 581.7,412.9 581.9,413.1 582.2,413.3 582.4,413.6 
		582.4,413.7 582.5,413.9 582.5,414.1 582.5,414.2 582.5,414.4 582.5,414.6 582.4,414.7 582.4,414.9 582.2,415.2 582,415.4 
		581.7,415.6 581.6,415.7 581.4,415.7 581.3,415.8 581.1,415.8 581,415.8 581,415.8 581,415.8 580.9,415.8 580.8,415.8 580.6,415.8 
		580.3,415.8 580,415.8 579.4,415.8 579.1,415.8 578.8,415.8 578.5,415.8 578.3,415.8 578.1,415.8 578.1,415.8 578,415.8 578,415.8 
		578,415.8 577.9,415.8 577.8,415.8 577.6,415.8 577.4,415.8 577.1,415.8 576.4,415.8 575.8,415.8 575.6,415.8 575.3,415.8 
		575.2,415.8 575.1,415.8 575,415.8 574.8,415.8 574.7,415.7 574.5,415.7 574.2,415.5 574,415.3 573.8,415.1 573.6,414.8 
		573.6,414.6 573.5,414.5 573.5,414.3 573.5,414.1 573.6,414 573.6,413.8 573.7,413.6 573.7,413.5 573.9,413.2 574.2,413 
		574.5,412.9 574.6,412.8 574.8,412.8 575,412.8 575,412.8 575,412.8 575,412.8 575.1,412.8 575.1,412.8 575.3,412.8 575.5,412.8 
		575.8,412.8 576.1,412.8 576.4,412.8 577,412.8 577.3,412.8 577.6,412.8 577.8,412.8 577.9,412.8 578,412.8 578,412.8 578,412.8 
		578,412.8 578.1,412.8 578.2,412.8 578.4,412.8 578.7,412.8 578.9,412.8 579.2,412.8 579.9,412.8 580.2,412.8 580.4,412.8 
		580.7,412.8 580.9,412.8 581,412.8 581,412.8 581,412.8 	"/>
</g>
<g id="SPLINE_12_">
	<polyline class="st0" points="399.5,169.8 400.1,169.8 401.6,169.8 403,169.8 403.5,169.9 403.5,170.8 403.5,172.8 403.5,178.4 
		403.5,181.1 403.5,183.3 403.5,184.6 403.4,184.8 402.5,184.8 401,184.8 399.8,184.8 399.4,184.8 398.3,184.8 396.8,184.8 
		395.7,184.8 395.5,184.8 395.5,185 395.5,185.8 395.5,186.9 395.5,188.4 395.5,192.2 395.5,200.7 395.5,204.3 395.5,205.7 
		395.5,206.7 395.5,207.2 395.4,207.3 394.2,207.3 392,207.3 388.9,207.3 385.1,207.3 380.7,207.3 375.9,207.3 365.9,207.3 
		356.2,207.3 352,207.3 348.4,207.3 345.6,207.3 343.7,207.3 343,207.3 343,207.4 343,207.7 343,210.5 343,211.3 342.6,211.3 
		341.1,211.3 338.8,211.3 336,211.3 330.6,211.3 328.7,211.3 328,211.3 328,210.7 328,207.9 327.9,207.3 327.2,207.3 325.8,207.3 
		323.8,207.3 321.2,207.3 315.1,207.3 308.4,207.3 302,207.3 299.2,207.3 296.7,207.3 294.8,207.3 293.5,207.3 293,207.3 293,207.3 
		293,208.2 293,211 293,211.3 292.7,211.3 291.2,211.3 288.9,211.3 283.2,211.3 280.7,211.3 278.8,211.3 278,211.3 278,211.2 
		278,210 278,208.5 278,207.4 277.9,207.3 277.3,207.3 275.8,207.3 273.7,207.3 271.1,207.3 264.8,207.3 251.1,207.3 248.1,207.3 
		245.5,207.3 243.5,207.3 242.1,207.3 241.5,207.3 241.5,207.3 241.5,207.7 241.5,208.9 241.5,210.4 241.5,211.3 241.4,211.3 
		240.9,211.3 239.2,211.3 237.4,211.3 236.8,211.3 236.5,211.3 236.5,210.7 236.5,209.3 236.5,207.9 236.5,207.3 236.5,206.9 
		236.5,206.2 236.5,203.9 236.5,200.5 236.5,196.3 236.5,191.4 236.5,186 236.5,174.5 236.5,163.4 236.5,158.5 236.5,154.2 
		236.5,150.8 236.5,148.5 236.5,147.7 236.5,147.4 236.5,147.3 236.5,146.4 236.5,144.9 236.5,143.7 236.6,143.3 237.8,143.3 
		239.7,143.3 241.2,143.3 241.5,143.4 241.5,144.5 241.5,146 241.5,147.2 241.5,147.3 242.1,147.3 243.4,147.3 245.5,147.3 
		248,147.3 254.2,147.3 268,147.3 271,147.3 273.6,147.3 275.8,147.3 277.2,147.3 277.9,147.3 278,147.3 278,147 278,144.2 
		278,143.3 278.2,143.3 279.6,143.3 281.8,143.3 284.6,143.3 290.1,143.3 292,143.3 293,143.3 293,143.9 293,146.7 293,147.3 
		293.5,147.3 294.8,147.3 296.7,147.3 299.1,147.3 305,147.3 311.7,147.3 318.2,147.3 321.1,147.3 323.7,147.3 325.7,147.3 
		327.2,147.3 327.9,147.3 328,147.3 328,146.5 328,143.7 328,143.4 328.2,143.3 329.5,143.3 331.8,143.3 337.4,143.3 340,143.3 
		342,143.3 342.9,143.3 343,143.4 343,144.5 343,146 343,147.1 343,147.3 343.7,147.3 345.5,147.3 348.3,147.3 351.9,147.3 
		356.1,147.3 360.8,147.3 380.6,147.3 385,147.3 388.8,147.3 392,147.3 394.2,147.3 395.3,147.3 395.5,147.4 395.5,147.9 
		395.5,148.9 395.5,152 395.5,155.9 395.5,164.4 395.5,167.7 395.5,168.8 395.5,169.6 395.5,169.8 395.6,169.8 396,169.8 
		397.4,169.8 398.8,169.8 399.5,169.8 	"/>
</g>
<g id="SPLINE_13_">
	<polyline class="st0" points="394.9,545.8 394.9,545.8 394.7,545.8 394.5,545.8 394.3,545.8 394,545.8 393.6,545.8 392.9,545.8 
		392.2,545.8 391.8,545.8 391.5,545.8 391.3,545.8 391.1,545.8 391,545.8 390.9,545.8 390.9,545.8 390.9,545.7 390.9,545.5 
		390.9,545.2 390.9,544.9 390.9,544.5 390.9,544 390.9,543.5 390.9,543 390.9,542.4 390.9,541.1 390.9,539.7 390.9,538.3 
		390.9,536.9 390.9,535.6 390.9,534.3 390.9,533.7 390.9,533.2 390.9,532.7 390.9,532.2 390.9,531.8 390.9,531.5 390.9,531.2 
		390.9,531 390.9,530.9 390.9,530.8 391,530.8 391.1,530.8 391.3,530.8 391.5,530.8 391.8,530.8 392.2,530.8 392.9,530.8 
		393.6,530.8 394,530.8 394.3,530.8 394.5,530.8 394.7,530.8 394.9,530.8 394.9,530.8 	"/>
</g>
<g id="SPLINE_14_">
	<polyline class="st0" points="394.9,506.3 394.9,506.3 394.7,506.3 394.5,506.3 394.3,506.3 394,506.3 393.6,506.3 392.9,506.3 
		392.2,506.3 391.8,506.3 391.5,506.3 391.3,506.3 391.1,506.3 391,506.3 390.9,506.3 390.9,506.3 390.9,506.2 390.9,506 
		390.9,505.7 390.9,505.4 390.9,505 390.9,504.5 390.9,504 390.9,503.5 390.9,502.9 390.9,501.6 390.9,500.2 390.9,498.8 
		390.9,497.4 390.9,496.1 390.9,494.8 390.9,494.2 390.9,493.7 390.9,493.2 390.9,492.7 390.9,492.3 390.9,492 390.9,491.7 
		390.9,491.5 390.9,491.4 390.9,491.3 391,491.3 391.1,491.3 391.3,491.3 391.5,491.3 391.8,491.3 392.2,491.3 392.9,491.3 
		393.6,491.3 394,491.3 394.3,491.3 394.5,491.3 394.7,491.3 394.9,491.3 394.9,491.3 	"/>
</g>
<g id="SPLINE_15_">
	<polyline class="st0" points="394.9,459.3 394.8,459.3 394.4,459.3 393.3,459.3 392,459.3 391.5,459.3 391.1,459.3 390.9,459.3 
		390.9,459.3 390.7,459.3 390.4,459.3 389.9,459.3 389.2,459.3 388.4,459.3 386.4,459.3 383.9,459.3 381.1,459.3 377.9,459.3 
		374.6,459.3 367.7,459.3 360.9,459.3 357.8,459.3 355.1,459.3 352.6,459.3 350.7,459.3 349.9,459.3 349.3,459.3 348.8,459.3 
		348.5,459.3 348.4,459.4 348.4,459.4 348.4,459.7 348.4,460.8 348.4,462.1 348.4,463.1 348.4,463.3 348.4,463.3 348.2,463.3 
		347.8,463.3 347.2,463.3 346.5,463.3 345.5,463.3 343.3,463.3 340.9,463.3 338.5,463.3 336.3,463.3 335.4,463.3 334.6,463.3 
		334,463.3 333.6,463.3 333.4,463.3 333.4,463.3 333.4,463.1 333.4,462.1 333.4,460.8 333.4,459.7 333.4,459.4 333.4,459.3 
		333.3,459.3 333,459.3 332,459.3 330.7,459.3 327.5,459.3 325.9,459.3 324.6,459.3 323.7,459.3 323.5,459.3 323.4,459.3 	"/>
</g>
<g id="SPLINE_16_">
	<polyline class="st0" points="308.4,459.3 308.2,459.3 307.6,459.3 305.7,459.3 300.7,459.3 298.9,459.3 298.5,459.3 298.4,459.4 
		298.4,459.8 298.4,460.6 298.4,462.6 298.4,463.2 298.2,463.3 297.5,463.3 296.3,463.3 293,463.3 289.2,463.3 285.8,463.3 
		284.5,463.3 283.7,463.3 283.4,463.2 283.4,462.6 283.4,461.7 283.4,459.8 283.4,459.4 283.2,459.3 282.6,459.3 281.6,459.3 
		278.5,459.3 274.4,459.3 269.5,459.3 264.2,459.3 253.4,459.3 248.7,459.3 244.8,459.3 243.3,459.3 242.1,459.3 241.3,459.3 
		240.9,459.3 240.6,459.3 238.9,459.3 237.2,459.3 236.9,459.4 236.9,460.3 236.9,462.3 236.9,465.2 236.9,468.8 236.9,476.8 
		236.9,480.9 236.9,484.6 236.9,487.7 236.9,490 236.9,491.2 236.9,491.3 237.4,491.3 239.3,491.3 240.2,491.3 240.8,491.3 
		240.9,491.6 240.9,492.4 240.9,493.7 240.9,497.1 240.9,500.9 240.9,504.3 240.9,505.5 240.9,506.2 240.8,506.3 240.1,506.3 
		238.2,506.3 237.3,506.3 236.9,506.3 236.9,506.6 236.9,507.7 236.9,509.5 236.9,512 236.9,524.2 236.9,526.8 236.9,528.9 
		236.9,530.3 236.9,530.8 237.2,530.8 238,530.8 240,530.8 240.7,530.8 240.9,530.9 240.9,531.4 240.9,532.5 240.9,535.6 240.9,543 
		240.9,544.4 240.9,545.3 240.9,545.8 240.9,545.8 240.4,545.8 239.5,545.8 237.5,545.8 237,545.8 236.9,545.9 236.9,546.5 
		236.9,547.9 236.9,550.1 236.9,552.8 236.9,555.8 236.9,562.1 236.9,564.9 236.9,567.3 236.9,569.2 236.9,570.2 237.1,570.3 
		238.7,570.3 240.5,570.3 240.9,570.3 240.9,570.6 240.9,571.3 240.9,572.6 240.9,574.1 240.9,577.8 240.9,581.6 240.9,583.1 
		240.9,584.4 240.9,585.1 240.9,585.3 240.5,585.3 238.7,585.3 237.1,585.3 236.9,585.6 236.9,586.9 236.9,589.3 236.9,592.4 
		236.9,596.2 236.9,604.3 236.9,608.3 236.9,611.8 236.9,614.6 236.9,616.6 236.9,617.1 236.9,617.3 237,617.3 237.5,617.3 
		239.5,617.3 240.4,617.3 240.9,617.3 241.3,617.3 242,617.3 243.1,617.3 246.3,617.3 250.5,617.3 255.4,617.3 260.7,617.3 
		271.1,617.3 275.6,617.3 279.1,617.3 280.5,617.3 281.5,617.3 282.2,617.3 282.4,617.3 	"/>
</g>
<g id="SPLINE_17_">
	<polyline class="st0" points="298.4,613.3 298.4,613.4 298.4,613.4 298.4,613.6 298.4,613.7 298.4,613.9 298.4,614.1 298.4,614.6 
		298.4,615.7 298.4,616.3 298.4,616.5 298.4,616.7 298.4,616.9 298.4,617.1 298.4,617.2 298.4,617.3 298.4,617.3 298.4,617.3 
		298.5,617.3 298.5,617.3 298.6,617.3 298.7,617.3 298.9,617.3 299.1,617.3 299.3,617.3 299.5,617.3 300,617.3 300.5,617.3 
		301.1,617.3 301.8,617.3 302.5,617.3 303.9,617.3 304.6,617.3 305.2,617.3 305.9,617.3 306.5,617.3 307,617.3 307.5,617.3 
		307.7,617.3 307.9,617.3 308,617.3 308.2,617.3 308.3,617.3 308.3,617.3 308.4,617.3 308.4,617.3 	"/>
</g>
<g id="SPLINE_18_">
	<line class="st0" x1="323.4" y1="617.3" x2="332.4" y2="617.3"/>
</g>
<g id="SPLINE_19_">
	<polyline class="st0" points="348.4,617.3 348.5,617.3 348.7,617.3 349,617.3 349.5,617.3 350,617.3 350.7,617.3 351.5,617.3 
		352.3,617.3 354.3,617.3 356.6,617.3 359.1,617.3 361.9,617.3 367.7,617.3 373.6,617.3 376.5,617.3 379.3,617.3 381.9,617.3 
		384.3,617.3 386.4,617.3 388.1,617.3 388.9,617.3 389.5,617.3 390,617.3 390.4,617.3 390.7,617.3 390.9,617.3 390.9,617.3 
		391,617.3 391.2,617.3 391.5,617.3 392.5,617.3 393.6,617.3 394.5,617.3 394.8,617.3 394.9,617.3 	"/>
</g>
<g id="SPLINE_20_">
	<polyline class="st0" points="394.9,592.3 394.9,592.3 394.9,592.2 394.9,591.7 394.9,591 394.9,590.1 394.9,588.2 394.9,587.3 
		394.9,586.4 394.9,585.8 394.9,585.4 394.9,585.3 394.7,585.3 394.4,585.3 394,585.3 392.9,585.3 391.8,585.3 391.4,585.3 
		391.1,585.3 390.9,585.3 390.9,585.3 390.9,585.2 390.9,584.8 390.9,584.4 390.9,583.7 390.9,583 390.9,582.2 390.9,581.2 
		390.9,579.2 390.9,575.1 390.9,573.2 390.9,572.4 390.9,571.7 390.9,571.2 390.9,570.7 390.9,570.4 390.9,570.3 391,570.3 
		391.3,570.3 391.7,570.3 392.2,570.3 393.3,570.3 394.3,570.3 394.6,570.3 394.9,570.3 394.9,570.3 394.9,570.2 394.9,569.8 
		394.9,569.3 394.9,568.7 394.9,567.9 394.9,567.1 394.9,566.1 394.9,564.1 394.9,559.8 394.9,557.9 394.9,557.1 394.9,556.4 
		394.9,555.8 394.9,555.3 394.9,555 394.9,554.9 	"/>
</g>
<g id="SPLINE_21_">
	<polyline class="st0" points="394.9,459.1 395.5,465.1 396.2,470.8 397,476.3 397.9,481.6 399,486.6 400.2,491.4 401.5,496 
		402.9,500.4 404.4,504.6 406,508.6 407.8,512.4 409.7,516 411.7,519.5 413.9,522.7 416.1,525.8 418.5,528.7 421.1,531.5 
		423.7,534.1 426.5,536.6 429.4,538.9 432.4,541 433.2,541.5 433.5,541.7 433.6,541.8 434,542 435.2,543 436.1,544 436.7,544.9 
		437,545.8 437,546.7 436.7,547.5 436.1,548.4 435.1,549.2 433.9,549.9 432.3,550.6 430.4,551.3 428.2,551.9 425.8,552.4 423,553 
		419.9,553.4 416.5,553.8 412.8,554.1 408.7,554.4 404.4,554.5 399.8,554.7 394.9,554.7 	"/>
</g>
<g id="SPLINE_22_">
	<path class="st0" d="M422.4,544.3l2-3.5c0,0,0,0-4.3-2.5c-2,3.5-2,3.5-2,3.5L422.4,544.3z"/>
</g>
<g id="SPLINE_23_">
	<path class="st0" d="M414.2,539.5l2-3.5c0,0,0,0-4.3-2.5c-2,3.5-2,3.5-2,3.5L414.2,539.5z"/>
</g>
<g id="SPLINE_24_">
	<line class="st0" x1="394.9" y1="545.6" x2="394.9" y2="530.6"/>
</g>
<g id="SPLINE_25_">
	<line class="st0" x1="394.9" y1="506.1" x2="394.9" y2="491.1"/>
</g>
<g id="ELLIPSE">
	<path class="st0" d="M244.4,608.8c1.8,0,3.2,1.5,3.2,3.2s-1.5,3.2-3.2,3.2s-3.2-1.5-3.2-3.2S242.6,608.8,244.4,608.8L244.4,608.8z"
		/>
</g>
<g id="SPLINE_26_">
	<polyline class="st0" points="298.4,613.3 298.4,613.3 298.4,613.2 298.4,613.1 298.4,613 298.4,612.6 298.4,612.1 298.4,611.7 
		298.4,611.3 298.4,611.1 298.4,611 298.4,610.9 298.4,610.9 298.4,610.9 298.2,610.9 298,610.9 297.7,610.9 297.4,610.9 
		296.9,610.9 296.4,610.9 295.9,610.9 295.3,610.9 294.7,610.9 293.3,610.9 291.9,610.9 290.4,610.9 288.9,610.9 287.5,610.9 
		286.1,610.9 285.5,610.9 284.9,610.9 284.4,610.9 283.9,610.9 283.5,610.9 283.1,610.9 282.8,610.9 282.6,610.9 282.4,610.9 
		282.4,610.9 282.4,610.9 282.4,610.9 282.4,611.1 282.4,611.5 282.4,611.9 282.4,612.4 282.4,612.9 282.4,614.1 282.4,615.3 
		282.4,615.8 282.4,616.3 282.4,616.7 282.4,617.1 282.4,617.3 282.4,617.3 282.4,617.3 	"/>
</g>
<g id="SPLINE_27_">
	<polyline class="st0" points="348.4,617.3 348.4,617.3 348.4,617.1 348.4,616.8 348.4,616.5 348.4,616.1 348.4,615.6 348.4,614.6 
		348.4,613.6 348.4,613.2 348.4,612.7 348.4,612.4 348.4,612.1 348.4,612 348.4,611.9 348.4,611.9 348.2,611.9 348,611.9 
		347.7,611.9 347.4,611.9 346.9,611.9 346.4,611.9 345.9,611.9 345.3,611.9 344.7,611.9 343.3,611.9 341.9,611.9 340.4,611.9 
		338.9,611.9 337.5,611.9 336.1,611.9 335.5,611.9 334.9,611.9 334.4,611.9 333.9,611.9 333.5,611.9 333.1,611.9 332.8,611.9 
		332.6,611.9 332.5,611.9 332.4,611.9 332.4,612 332.4,612.1 332.4,612.4 332.4,612.7 332.4,613.2 332.4,613.6 332.4,614.6 
		332.4,615.6 332.4,616.1 332.4,616.5 332.4,616.8 332.4,617.1 332.4,617.3 332.4,617.3 	"/>
</g>
<g id="SPLINE_28_">
	<path class="st0" d="M394.9,617.3h10c0,0,0,0,0-8.8c-4,0-4,0-4,0v-7.5c0,0,0,0,4,0c0-8.8,0-8.8,0-8.8h-10"/>
</g>
<g id="SPLINE_29_">
	<polyline class="st0" points="308.4,617.3 308.4,617.4 308.4,617.5 308.4,617.7 308.4,618 308.4,618.3 308.4,618.6 308.4,619.3 
		308.4,620.1 308.4,620.4 308.4,620.7 308.4,621 308.4,621.2 308.4,621.3 308.4,621.3 308.5,621.3 308.6,621.3 308.8,621.3 
		309.1,621.3 309.4,621.3 309.8,621.3 310.3,621.3 310.8,621.3 311.3,621.3 311.9,621.3 313.2,621.3 314.5,621.3 315.9,621.3 
		317.3,621.3 318.7,621.3 319.9,621.3 320.5,621.3 321.1,621.3 321.6,621.3 322,621.3 322.4,621.3 322.8,621.3 323,621.3 
		323.2,621.3 323.4,621.3 323.4,621.3 323.4,621.3 323.4,621.2 323.4,621 323.4,620.7 323.4,620.4 323.4,620.1 323.4,619.3 
		323.4,618.6 323.4,618.3 323.4,618 323.4,617.7 323.4,617.5 323.4,617.4 323.4,617.3 	"/>
</g>
<g id="SPLINE_30_">
	<polyline class="st0" points="308.4,459.3 308.4,459.4 308.4,459.5 308.4,459.7 308.4,460 308.4,460.3 308.4,460.6 308.4,461.3 
		308.4,462.1 308.4,462.4 308.4,462.7 308.4,463 308.4,463.2 308.4,463.3 308.4,463.3 308.5,463.3 308.6,463.3 308.8,463.3 
		309.1,463.3 309.4,463.3 309.8,463.3 310.3,463.3 310.8,463.3 311.3,463.3 311.9,463.3 313.2,463.3 314.5,463.3 315.9,463.3 
		317.3,463.3 318.7,463.3 319.9,463.3 320.5,463.3 321.1,463.3 321.6,463.3 322,463.3 322.4,463.3 322.8,463.3 323,463.3 
		323.2,463.3 323.4,463.3 323.4,463.3 323.4,463.3 323.4,463.2 323.4,463 323.4,462.7 323.4,462.4 323.4,462.1 323.4,461.3 
		323.4,460.6 323.4,460.3 323.4,460 323.4,459.7 323.4,459.5 323.4,459.4 323.4,459.3 	"/>
</g>
<g id="SPLINE_31_">
	<path class="st0" d="M400.8,510.8l2,4.6c0,0,0,0,1.8-0.8c-2-4.6-2-4.6-2-4.6L400.8,510.8z"/>
</g>
<g id="SPLINE_32_">
	<path class="st0" d="M243.7,603.8v-5c0,0,0,0-2,0c0,5,0,5,0,5H243.7z"/>
</g>
<g id="SPLINE_33_">
	<polyline class="st0" points="394.5,289.2 394.4,289.2 394.3,289.2 394.1,289.2 393.9,289.2 393.6,289.2 393.2,289.2 392.5,289.2 
		391.7,289.2 391.4,289.2 391.1,289.2 390.8,289.2 390.7,289.2 390.5,289.2 390.5,289.2 390.5,289.2 390.5,289.3 390.5,289.5 
		390.5,289.8 390.5,290.1 390.5,290.5 390.5,291 390.5,291.5 390.5,292 390.5,292.6 390.5,293.9 390.5,295.3 390.5,296.7 390.5,298 
		390.5,299.4 390.5,300.7 390.5,301.3 390.5,301.8 390.5,302.3 390.5,302.8 390.5,303.2 390.5,303.5 390.5,303.8 390.5,304 
		390.5,304.1 390.5,304.2 390.5,304.2 390.7,304.2 390.8,304.2 391.1,304.2 391.4,304.2 391.7,304.2 392.5,304.2 393.2,304.2 
		393.6,304.2 393.9,304.2 394.1,304.2 394.3,304.2 394.4,304.2 394.5,304.2 	"/>
</g>
<g id="SPLINE_34_">
	<polyline class="st0" points="394.5,328.7 394.4,328.7 394.3,328.7 394.1,328.7 393.9,328.7 393.6,328.7 393.2,328.7 392.5,328.7 
		391.7,328.7 391.4,328.7 391.1,328.7 390.8,328.7 390.7,328.7 390.5,328.7 390.5,328.7 390.5,328.7 390.5,328.8 390.5,329 
		390.5,329.3 390.5,329.6 390.5,330 390.5,330.5 390.5,331 390.5,331.5 390.5,332.1 390.5,333.4 390.5,334.8 390.5,336.2 
		390.5,337.5 390.5,338.9 390.5,340.2 390.5,340.8 390.5,341.3 390.5,341.8 390.5,342.3 390.5,342.7 390.5,343 390.5,343.3 
		390.5,343.5 390.5,343.6 390.5,343.7 390.5,343.7 390.7,343.7 390.8,343.7 391.1,343.7 391.4,343.7 391.7,343.7 392.5,343.7 
		393.2,343.7 393.6,343.7 393.9,343.7 394.1,343.7 394.3,343.7 394.4,343.7 394.5,343.7 	"/>
</g>
<g id="SPLINE_35_">
	<polyline class="st0" points="394.5,375.7 394.3,375.7 394,375.7 392.9,375.7 391.6,375.7 391,375.7 390.7,375.7 390.5,375.7 
		390.5,375.7 390.3,375.7 389.9,375.7 389.4,375.7 388.8,375.7 387.9,375.7 385.9,375.7 383.5,375.7 380.6,375.7 377.5,375.7 
		374.2,375.7 367.2,375.7 360.5,375.7 357.4,375.7 354.6,375.7 352.2,375.7 350.3,375.7 349.5,375.7 348.9,375.7 348.4,375.7 
		348.1,375.7 348,375.6 348,375.6 348,375.3 348,374.2 348,372.9 348,371.9 348,371.7 348,371.7 347.8,371.7 347.4,371.7 
		346.8,371.7 346,371.7 345.1,371.7 342.9,371.7 340.5,371.7 338.1,371.7 335.9,371.7 334.9,371.7 334.2,371.7 333.6,371.7 
		333.1,371.7 333,371.7 333,371.7 333,371.9 333,372.9 333,374.2 333,375.3 333,375.6 333,375.7 332.8,375.7 332.6,375.7 
		331.6,375.7 330.2,375.7 327,375.7 325.5,375.7 324.2,375.7 323.3,375.7 323.1,375.7 323,375.7 	"/>
</g>
<g id="SPLINE_36_">
	<polyline class="st0" points="308,375.7 307.8,375.7 307.2,375.7 305.2,375.7 300.3,375.7 298.5,375.7 298.1,375.7 298,375.6 
		298,375.2 298,374.4 298,372.4 298,371.8 297.8,371.7 297.1,371.7 295.9,371.7 292.6,371.7 288.7,371.7 285.3,371.7 284.1,371.7 
		283.2,371.7 283,371.7 283,372.3 283,373.3 283,375.2 283,375.6 282.8,375.7 282.2,375.7 281.2,375.7 278.1,375.7 274,375.7 
		269.1,375.7 263.7,375.7 253,375.7 248.3,375.7 244.4,375.7 242.9,375.7 241.7,375.7 240.9,375.7 240.5,375.7 240.2,375.7 
		238.5,375.7 236.7,375.7 236.5,375.6 236.5,374.7 236.5,372.7 236.5,369.8 236.5,366.2 236.5,358.2 236.5,354.1 236.5,350.4 
		236.5,347.3 236.5,345 236.5,343.8 236.5,343.7 237,343.7 238.9,343.7 239.8,343.7 240.4,343.7 240.5,343.4 240.5,342.6 
		240.5,341.3 240.5,337.9 240.5,334.1 240.5,330.7 240.5,329.5 240.5,328.8 240.3,328.7 239.7,328.7 237.7,328.7 236.9,328.7 
		236.5,328.7 236.5,328.4 236.5,327.3 236.5,325.4 236.5,323 236.5,310.8 236.5,308.2 236.5,306.1 236.5,304.7 236.5,304.2 
		236.8,304.2 237.6,304.2 239.6,304.2 240.3,304.2 240.5,304.1 240.5,303.6 240.5,302.5 240.5,299.4 240.5,292 240.5,290.6 
		240.5,289.6 240.5,289.2 240.4,289.2 239.9,289.2 239,289.2 237.1,289.2 236.5,289.2 236.5,289.1 236.5,288.5 236.5,287.1 
		236.5,284.9 236.5,282.2 236.5,279.2 236.5,272.9 236.5,270.1 236.5,267.7 236.5,265.8 236.5,264.8 236.7,264.7 238.3,264.7 
		240.1,264.7 240.5,264.7 240.5,264.4 240.5,263.7 240.5,262.4 240.5,260.9 240.5,257.2 240.5,253.4 240.5,251.9 240.5,250.6 
		240.5,249.9 240.5,249.7 240.1,249.7 238.3,249.7 236.7,249.7 236.5,249.4 236.5,248.1 236.5,245.7 236.5,242.5 236.5,238.8 
		236.5,230.7 236.5,226.7 236.5,223.2 236.5,220.4 236.5,218.4 236.5,217.9 236.5,217.7 236.5,217.7 237.1,217.7 239,217.7 
		239.9,217.7 240.4,217.7 240.8,217.7 241.6,217.7 242.7,217.7 245.9,217.7 250.1,217.7 255,217.7 260.3,217.7 270.6,217.7 
		275.1,217.7 278.7,217.7 280.1,217.7 281.1,217.7 281.7,217.7 282,217.7 	"/>
</g>
<g id="SPLINE_37_">
	<polyline class="st0" points="298,221.7 298,221.6 298,221.6 298,221.4 298,221.3 298,221.1 298,220.9 298,220.4 298,219.3 
		298,218.7 298,218.5 298,218.3 298,218.1 298,217.9 298,217.8 298,217.7 298,217.7 298,217.7 298,217.7 298.1,217.7 298.2,217.7 
		298.3,217.7 298.5,217.7 298.6,217.7 298.8,217.7 299.1,217.7 299.5,217.7 300.1,217.7 300.7,217.7 301.4,217.7 302,217.7 
		303.4,217.7 304.1,217.7 304.8,217.7 305.5,217.7 306.1,217.7 306.6,217.7 307.1,217.7 307.3,217.7 307.4,217.7 307.6,217.7 
		307.7,217.7 307.8,217.7 307.9,217.7 308,217.7 308,217.7 	"/>
</g>
<g id="SPLINE_38_">
	<line class="st0" x1="323" y1="217.7" x2="332" y2="217.7"/>
</g>
<g id="SPLINE_39_">
	<polyline class="st0" points="348,217.7 348,217.7 348.3,217.7 348.6,217.7 349,217.7 349.6,217.7 350.3,217.7 351,217.7 
		351.9,217.7 353.9,217.7 356.2,217.7 358.7,217.7 361.4,217.7 367.2,217.7 373.2,217.7 376.1,217.7 378.9,217.7 381.5,217.7 
		383.8,217.7 385.9,217.7 387.7,217.7 388.4,217.7 389.1,217.7 389.6,217.7 390,217.7 390.3,217.7 390.4,217.7 390.5,217.7 
		390.5,217.7 390.7,217.7 391.1,217.7 392.1,217.7 393.2,217.7 394.1,217.7 394.4,217.7 394.5,217.7 	"/>
</g>
<g id="SPLINE_40_">
	<polyline class="st0" points="394.5,242.7 394.5,242.7 394.5,242.8 394.5,243.3 394.5,244 394.5,244.9 394.5,246.8 394.5,247.7 
		394.5,248.6 394.5,249.2 394.5,249.6 394.5,249.7 394.3,249.7 394,249.7 393.6,249.7 392.5,249.7 391.4,249.7 391,249.7 
		390.7,249.7 390.5,249.7 390.5,249.7 390.5,249.8 390.5,250.1 390.5,250.6 390.5,251.3 390.5,252 390.5,252.8 390.5,253.7 
		390.5,255.8 390.5,259.9 390.5,261.8 390.5,262.6 390.5,263.3 390.5,263.8 390.5,264.3 390.5,264.6 390.5,264.7 390.6,264.7 
		390.8,264.7 391.3,264.7 391.7,264.7 392.9,264.7 393.9,264.7 394.2,264.7 394.4,264.7 394.5,264.7 394.5,264.8 394.5,265.2 
		394.5,265.7 394.5,266.3 394.5,267.1 394.5,267.9 394.5,268.9 394.5,270.9 394.5,275.2 394.5,277.1 394.5,277.9 394.5,278.6 
		394.5,279.2 394.5,279.7 394.5,280 394.5,280.1 	"/>
</g>
<g id="SPLINE_41_">
	<polyline class="st0" points="394.5,375.7 395.1,369.7 395.8,363.9 396.6,358.5 397.5,353.2 398.6,348.1 399.7,343.3 401,338.7 
		402.4,334.3 404,330.1 405.6,326.1 407.4,322.3 409.3,318.7 411.3,315.3 413.4,312 415.7,308.9 418.1,306 420.6,303.2 423.3,300.6 
		426.1,298.2 429,295.9 432,293.7 432.8,293.2 433.1,293 433.2,292.9 433.5,292.7 434.8,291.7 435.7,290.8 436.3,289.9 436.6,288.9 
		436.6,288.1 436.3,287.2 435.6,286.4 434.7,285.6 433.4,284.8 431.9,284.1 430,283.5 427.8,282.9 425.3,282.3 422.5,281.8 
		419.4,281.3 416,281 412.3,280.6 408.3,280.4 404,280.2 399.4,280.1 394.5,280.1 	"/>
</g>
<g id="SPLINE_42_">
	<path class="st0" d="M423.3,291.3l2,3.5c0,0,0,0-4.3,2.5c-2-3.5-2-3.5-2-3.5L423.3,291.3z"/>
</g>
<g id="SPLINE_43_">
	<path class="st0" d="M415.1,296.1l2,3.5c0,0,0,0-4.3,2.5c-2-3.5-2-3.5-2-3.5L415.1,296.1z"/>
</g>
<g id="SPLINE_44_">
	<line class="st0" x1="394.5" y1="289.2" x2="394.5" y2="304.2"/>
</g>
<g id="SPLINE_45_">
	<line class="st0" x1="394.5" y1="328.7" x2="394.5" y2="343.7"/>
</g>
<g id="ELLIPSE_1_">
	<path class="st0" d="M244,219.7c-1.8,0-3.2,1.5-3.2,3.2s1.5,3.2,3.2,3.2s3.2-1.5,3.2-3.2S245.8,219.7,244,219.7L244,219.7z"/>
</g>
<g id="SPLINE_46_">
	<polyline class="st0" points="298,221.7 298,221.7 298,221.8 298,221.9 298,222 298,222.4 298,222.9 298,223.3 298,223.7 
		298,223.9 298,224 298,224.1 298,224.1 297.9,224.1 297.8,224.1 297.6,224.1 297.3,224.1 296.9,224.1 296.5,224.1 296,224.1 
		295.5,224.1 294.9,224.1 294.3,224.1 292.9,224.1 291.5,224.1 290,224.1 288.5,224.1 287,224.1 285.7,224.1 285.1,224.1 
		284.5,224.1 283.9,224.1 283.4,224.1 283,224.1 282.7,224.1 282.4,224.1 282.2,224.1 282,224.1 282,224.1 282,224.1 282,224.1 
		282,223.8 282,223.5 282,223.1 282,222.6 282,222.1 282,220.9 282,219.7 282,219.2 282,218.7 282,218.2 282,217.9 282,217.7 
		282,217.7 282,217.7 	"/>
</g>
<g id="SPLINE_47_">
	<polyline class="st0" points="348,217.7 348,217.7 348,217.9 348,218.2 348,218.5 348,218.9 348,219.4 348,220.4 348,221.4 
		348,221.8 348,222.3 348,222.6 348,222.9 348,223 348,223.1 347.9,223.1 347.8,223.1 347.6,223.1 347.3,223.1 346.9,223.1 
		346.5,223.1 346,223.1 345.5,223.1 344.9,223.1 344.3,223.1 342.9,223.1 341.5,223.1 340,223.1 338.5,223.1 337,223.1 335.7,223.1 
		335.1,223.1 334.5,223.1 333.9,223.1 333.5,223.1 333,223.1 332.7,223.1 332.4,223.1 332.2,223.1 332,223.1 332,223.1 332,223 
		332,222.9 332,222.6 332,222.3 332,221.8 332,221.4 332,220.4 332,219.4 332,218.9 332,218.5 332,218.2 332,217.9 332,217.7 
		332,217.7 	"/>
</g>
<g id="SPLINE_48_">
	<path class="st0" d="M394.5,217.7h10c0,0,0,0,0,8.8c-4,0-4,0-4,0v7.5c0,0,0,0,4,0c0,8.8,0,8.8,0,8.8h-10"/>
</g>
<g id="SPLINE_49_">
	<polyline class="st0" points="308,217.7 308,217.6 308,217.5 308,217.3 308,217 308,216.7 308,216.4 308,215.7 308,214.9 
		308,214.6 308,214.3 308,214 308,213.8 308,213.7 308,213.7 308,213.7 308.1,213.7 308.4,213.7 308.6,213.7 309,213.7 309.4,213.7 
		309.8,213.7 310.3,213.7 310.9,213.7 311.5,213.7 312.7,213.7 314.1,213.7 315.5,213.7 316.9,213.7 318.2,213.7 319.5,213.7 
		320.1,213.7 320.6,213.7 321.1,213.7 321.6,213.7 322,213.7 322.3,213.7 322.6,213.7 322.8,213.7 322.9,213.7 323,213.7 323,213.7 
		323,213.8 323,214 323,214.3 323,214.6 323,214.9 323,215.7 323,216.4 323,216.7 323,217 323,217.3 323,217.5 323,217.6 323,217.7 
			"/>
</g>
<g id="SPLINE_50_">
	<polyline class="st0" points="308,375.7 308,375.6 308,375.5 308,375.3 308,375 308,374.7 308,374.4 308,373.7 308,372.9 
		308,372.6 308,372.3 308,372 308,371.8 308,371.7 308,371.7 308,371.7 308.1,371.7 308.4,371.7 308.6,371.7 309,371.7 309.4,371.7 
		309.8,371.7 310.3,371.7 310.9,371.7 311.5,371.7 312.7,371.7 314.1,371.7 315.5,371.7 316.9,371.7 318.2,371.7 319.5,371.7 
		320.1,371.7 320.6,371.7 321.1,371.7 321.6,371.7 322,371.7 322.3,371.7 322.6,371.7 322.8,371.7 322.9,371.7 323,371.7 323,371.7 
		323,371.8 323,372 323,372.3 323,372.6 323,372.9 323,373.7 323,374.4 323,374.7 323,375 323,375.3 323,375.5 323,375.6 323,375.7 
			"/>
</g>
<g id="SPLINE_51_">
	<path class="st0" d="M401.7,324.7l2-4.6c0,0,0,0,1.8,0.8c-2,4.6-2,4.6-2,4.6L401.7,324.7z"/>
</g>
<g id="SPLINE_52_">
	<path class="st0" d="M241.2,236.2v-5c0,0,0,0,2,0c0,5,0,5,0,5H241.2z"/>
</g>
<g id="SPLINE_53_">
	<path class="st0" d="M568.3,373.3h5c0,0,0,0,0,2c-5,0-5,0-5,0V373.3z"/>
</g>
<g id="SPLINE_54_">
	<path class="st0" d="M568.3,316.8h5c0,0,0,0,0,2c-5,0-5,0-5,0V316.8z"/>
</g>
<g id="SPLINE_55_">
	<polyline class="st0" points="586.8,332.3 586.8,332.5 586.8,333.1 586.8,334.8 586.8,336.7 586.8,338.2 586.8,338.7 586.8,339.8 
		586.8,341.5 586.8,350.6 586.8,352.3 586.8,353.3 586.8,353.8 586.8,354.8 586.8,356.2 586.8,357.4 586.8,357.9 586.8,358.4 
		586.8,359.7 586.8,361 586.8,362 586.8,362.3 587.6,362.3 590,362.3 590.7,362.3 590.8,362.6 590.8,363.8 590.8,365.4 590.8,366.7 
		590.8,367.3 590.2,367.3 589.1,367.3 587.8,367.3 586.9,367.3 586.8,367.5 586.8,368.1 586.8,369.2 586.8,374.5 586.8,375.4 
		586.8,375.9 586.5,376 585.7,376 584.5,376 581,376 576.5,376 566.3,376 561.6,376 557.8,376 556.4,376 555.4,376 554.9,376 
		554.8,376 554.8,376.6 554.8,377.7 554.8,379 554.8,379.8 554.8,380 554.4,380 553.1,380 551.3,380 546.7,380 542.2,380 540.7,380 
		539.9,380 539.8,379.7 539.8,377.4 539.8,376.4 539.7,376 539.3,376 538.5,376 536,376 532.7,376 529,376 521.3,376 518.2,376 
		516.1,376 515.5,376 515.3,376 515.3,376.1 515.3,377 515.3,379.4 515.3,380 515,380 514,380 512.3,380 510.1,380 505.3,380 
		503.2,380 501.5,380 500.5,380 500.3,380 500.3,379.4 500.3,378.2 500.3,376.9 500.3,376.1 500.3,376 500,376 499.4,376 497.2,376 
		494.1,376 486.4,376 482.7,376 479.4,376 477,376 476.2,376 475.8,376 475.8,376.4 475.8,378.7 475.8,379.7 475.7,380 474.8,380 
		473.2,380 468.8,380 464.2,380 462.3,380 461.1,380 460.8,380 460.8,379.8 460.8,379 460.8,376.6 460.8,376 460.7,376 460.1,376 
		459,376 457.6,376 453.7,376 449,376 438.9,376 434.4,376 431,376 429.8,376 429,376 428.8,375.9 428.8,375.4 428.8,374.5 
		428.8,372.1 428.8,369.5 428.8,368.6 428.8,367.9 429,367.8 429.9,367.8 432.2,367.8 432.8,367.8 432.8,367.6 432.8,367.1 
		432.8,363.6 432.8,362.1 432.7,361.8 432,361.8 430.8,361.8 429.6,361.8 428.8,361.8 428.8,361.4 428.8,359.9 428.8,356.1 
		428.8,355.5 428.8,355.3 428.8,355.1 428.8,354 428.8,353.6 428.8,353.5 429.6,353.5 430.8,353.5 432,353.5 432.7,353.5 
		432.8,353.4 432.8,352.7 432.8,351.1 432.8,349.1 432.8,344.3 432.8,342.1 432.8,340.2 432.8,339 432.8,338.5 432.3,338.5 
		429.9,338.5 429,338.5 428.8,338.5 428.8,337 428.8,337 428.8,336.6 428.8,334.9 428.8,332.8 428.8,331 428.8,330.4 428.8,330.3 
		429.3,330.3 431.7,330.3 432.6,330.3 432.8,330.1 432.8,328.9 432.8,327.1 432.8,325.3 432.8,324.3 432.5,324.3 431.5,324.3 
		429.2,324.3 428.8,324.2 428.8,323.9 428.8,323.1 428.8,318.2 428.8,316.3 428.8,316 428.9,316 429.6,316 430.7,316 432.1,316 
		436,316 440.8,316 445.9,316 450.9,316 455.3,316 458.7,316 459.9,316 460.6,316 460.8,316 460.8,315.7 460.8,314.7 460.8,312.4 
		460.8,312 461.5,312 463,312 467.3,312 472,312 473.9,312 475.2,312 475.8,312 475.8,312.1 475.8,312.9 475.8,314.2 475.8,315.4 
		475.8,316 476.1,316 477.8,316 480.6,316 484.1,316 491.8,316 495.4,316 498.2,316 499.9,316 500.3,316 500.3,315.4 500.3,313 
		500.3,312.1 500.3,312 500.8,312 502.1,312 504,312 508.6,312 513,312 514.5,312 515.2,312 515.3,312.4 515.3,313.4 515.3,315.7 
		515.4,316 515.9,316 516.8,316 519.3,316 522.7,316 526.5,316 534.1,316 537.1,316 539.1,316 539.6,316 539.8,316 539.8,315.8 
		539.8,315 539.8,313.7 539.8,312.6 539.8,312 540.1,312 541.2,312 543,312 545.2,312 549.9,312 552.1,312 553.7,312 554.6,312 
		554.8,312 554.8,312.7 554.8,315.1 554.8,315.9 554.8,316 555.2,316 556.1,316 557.5,316 559.2,316 563.3,316 573.4,316 578.3,316 
		582.5,316 584.1,316 585.4,316 586.3,316 586.7,316 586.8,316.2 586.8,316.9 586.8,319.3 586.8,322 586.8,324.2 586.8,324.7 
		586.8,324.8 587.5,324.8 589.9,324.8 590.7,324.8 590.8,325 590.8,326.1 590.8,327.7 590.8,329.1 590.8,329.8 590.3,329.8 
		589.2,329.8 587,329.8 586.8,329.8 586.8,329.9 586.8,331.3 586.8,332 586.8,332.3 	"/>
</g>
</svg>
