<?xml version="1.0" encoding="utf-8"?>
<!-- Generator: Adobe Illustrator 24.3.0, SVG Export Plug-In . SVG Version: 6.00 Build 0)  -->
<svg version="1.1" id="LAYER_x5F_1" xmlns="http://www.w3.org/2000/svg" xmlns:xlink="http://www.w3.org/1999/xlink" x="0px"
	 y="0px" viewBox="0 0 841.9 595.3" style="enable-background:new 0 0 841.9 595.3;" xml:space="preserve">
<style type="text/css">
	.st0{fill:none;stroke:#4C0000;stroke-width:0.7087;stroke-linecap:round;stroke-linejoin:round;stroke-miterlimit:10;}
</style>
<g id="LWPOLYLINE">
	<polygon class="st0" points="1039,-135.9 1088.9,-135.9 1088.9,-127.4 1145.7,-127.4 1145.7,-135.9 1204.1,-135.9 1204.1,-127.4 
		1260.9,-127.4 1260.9,-135.9 1310.8,-135.9 1310.8,-47.4 1319.3,-47.4 1319.3,41.8 1310.8,41.8 1310.8,97.7 1319.3,97.7 
		1319.3,155.2 1310.8,155.2 1310.8,211.1 1319.3,211.1 1319.3,268.6 1310.8,268.6 1310.8,324.5 1319.3,324.5 1319.3,382 1310.8,382 
		1310.8,437.9 1319.3,437.9 1319.3,495.3 1310.8,495.3 1310.8,551.2 1319.3,551.2 1319.3,640.5 1310.8,640.5 1310.8,728.9 
		1260.9,728.9 1260.9,720.4 1204.1,720.4 1204.1,728.9 1145.7,728.9 1145.7,720.4 1088.9,720.4 1088.9,728.9 1039,728.9 1039,640.5 
		1030.5,640.5 1030.5,551.2 1039,551.2 1039,495.3 1030.5,495.3 1030.5,437.9 1039,437.9 1039,382 1030.5,382 1030.5,324.5 
		1039,324.5 1039,268.6 1030.5,268.6 1030.5,211.1 1039,211.1 1039,155.2 1030.5,155.2 1030.5,97.7 1039,97.7 1039,41.8 
		1030.5,41.8 1030.5,-47.4 1039,-47.4 	"/>
</g>
<g id="LWPOLYLINE_1_">
	<polygon class="st0" points="-70.5,-121.9 1.8,-121.9 1.8,-130.4 83.4,-130.4 83.4,-121.9 139.3,-121.9 139.3,-130.4 196.8,-130.4 
		196.8,-121.9 252.7,-121.9 252.7,-130.4 310.2,-130.4 310.2,-121.9 366.1,-121.9 366.1,-130.4 423.5,-130.4 423.5,-121.9 
		479.4,-121.9 479.4,-130.4 561,-130.4 561,-121.9 633.3,-121.9 633.3,-72.8 641.8,-72.8 641.8,-14.4 633.3,-14.4 633.3,42.4 
		641.8,42.4 641.8,100.8 633.3,100.8 633.3,149.8 561,149.8 561,158.4 479.4,158.4 479.4,149.8 423.5,149.8 423.5,158.4 
		366.1,158.4 366.1,149.8 310.2,149.8 310.2,158.4 252.7,158.4 252.7,149.8 196.8,149.8 196.8,158.4 139.3,158.4 139.3,149.8 
		83.4,149.8 83.4,158.4 1.8,158.4 1.8,149.8 -70.5,149.8 -70.5,100.8 -79,100.8 -79,42.4 -70.5,42.4 -70.5,-14.4 -79,-14.4 
		-79,-72.8 -70.5,-72.8 	"/>
</g>
<g id="LWPOLYLINE_2_">
	<line class="st0" x1="722.4" y1="729.6" x2="721.6" y2="729.6"/>
</g>
<g id="LWPOLYLINE_3_">
	<polygon class="st0" points="39.8,447.6 95.7,447.6 95.7,456.1 177.3,456.1 177.3,447.6 249.6,447.6 249.6,398.5 258.1,398.5 
		258.1,340.1 249.6,340.1 249.6,283.3 258.1,283.3 258.1,224.9 249.6,224.9 249.6,175.8 177.3,175.8 177.3,167.3 95.7,167.3 
		95.7,175.8 39.8,175.8 	"/>
</g>
<g id="LWPOLYLINE_4_">
	<line class="st0" x1="779.1" y1="729.6" x2="778.3" y2="729.6"/>
</g>
<g id="LWPOLYLINE_5_">
	<polygon class="st0" points="275.8,233.4 547.5,233.4 556,233.4 556,322.6 547.5,322.6 547.5,411 497.7,411 497.7,402.5 
		440.8,402.5 440.8,411 382.5,411 382.5,402.5 325.6,402.5 325.6,411 275.8,411 275.8,322.6 267.3,322.6 267.3,233.4 	"/>
</g>
<g id="LWPOLYLINE_6_">
	<polyline class="st0" points="778.4,-135.1 778.4,-128.6 778.3,-122.1 778.1,-115.6 777.8,-109 777.4,-102.4 777,-95.7 776.5,-89 
		775.9,-82.2 775.2,-75.4 774.5,-68.6 773.6,-61.7 772.7,-54.9 771.8,-47.9 770.7,-41 769.6,-34 768.4,-27 767.2,-20 765.8,-12.9 
		764.4,-5.8 762.9,1.3 761.4,8.4 759.8,15.5 758.1,22.7 756.3,29.8 754.5,37 752.6,44.2 750.6,51.4 748.6,58.6 746.5,65.8 744.3,73 
		742.1,80.2 739.8,87.4 737.4,94.7 735,101.9 732.5,109.1 729.9,116.3 727.3,123.5 724.6,130.7 721.9,137.9 719.1,145 716.2,152.2 
		713.2,159.4 710.3,166.5 707.2,173.6 704.1,180.7 700.9,187.8 697.7,194.8 694.4,201.9 691.1,208.9 687.7,215.9 684.2,222.8 
		680.7,229.7 677.1,236.6 673.5,243.5 669.8,250.3 666.1,257.1 662.3,263.9 658.4,270.6 654.5,277.3 650.6,283.9 646.6,290.5 
		642.5,297 638.4,303.5 634.3,310 630.1,316.4 625.8,322.7 621.5,329 617.2,335.3 612.8,341.5 608.3,347.6 603.8,353.7 599.3,359.7 
		594.7,365.6 590,371.5 585.4,377.4 580.6,383.1 575.9,388.8 571.1,394.4 566.2,400 561.3,405.5 556.4,410.9 551.4,416.2 
		546.4,421.4 541.3,426.6 538.8,429.2 536.2,431.7 533.6,434.2 531.1,436.7 528.5,439.2 525.9,441.6 523.3,444.1 520.6,446.5 
		518,448.9 515.4,451.2 512.7,453.6 510.1,455.9 507.4,458.2 504.7,460.5 502.1,462.7 499.4,465 496.7,467.2 494,469.4 491.2,471.5 
		488.5,473.7 485.8,475.8 483,477.9 480.3,479.9 477.5,482 474.7,484 472,486 469.2,487.9 466.4,489.9 463.6,491.8 460.7,493.7 
		457.9,495.6 455.1,497.4 452.2,499.2 449.4,501 446.5,502.8 443.7,504.5 440.8,506.2 437.9,507.9 435,509.5 432.1,511.1 
		429.2,512.7 426.3,514.3 423.4,515.8 420.5,517.4 417.5,518.8 414.6,520.3 411.6,521.7 408.7,523.1 405.7,524.5 402.8,525.8 
		399.8,527.1 396.8,528.4 393.8,529.6 390.8,530.9 387.8,532 384.8,533.2 381.8,534.3 378.7,535.4 375.7,536.5 372.7,537.5 
		369.6,538.5 366.6,539.5 363.5,540.4 360.4,541.3 357.4,542.2 354.3,543 351.2,543.8 348.1,544.6 345,545.3 341.9,546.1 
		338.8,546.7 335.7,547.4 332.6,548 329.4,548.5 326.3,549.1 323.2,549.6 320,550 316.9,550.5 313.7,550.9 310.6,551.2 307.4,551.6 
		304.2,551.8 301.1,552.1 297.9,552.3 294.7,552.5 291.5,552.6 288.3,552.8 285.1,552.8 285.1,640.5 276.6,640.5 276.6,729.7 
		358.2,729.7 358.2,721.2 438.2,721.2 438.2,729.7 495.7,729.7 495.7,721.2 551.6,721.2 551.6,729.7 609,729.7 609,721.2 
		664.9,721.2 664.9,729.7 722.4,729.7 722.4,721.2 778.3,721.2 778.3,729.7 835.8,729.7 835.8,721.2 915.8,721.2 915.8,729.7 
		997.4,729.7 997.4,640.5 988.9,640.5 988.9,552.8 997.4,552.8 997.4,495.3 988.9,495.3 988.9,439.4 997.4,439.4 997.4,382 
		988.9,382 988.9,326.1 997.4,326.1 997.4,268.6 988.9,268.6 988.9,212.7 997.4,212.7 997.4,155.2 988.9,155.2 988.9,99.3 
		997.4,99.3 997.4,41.8 988.9,41.8 988.9,-45.9 997.4,-45.9 997.4,-135.1 915.8,-135.1 915.8,-126.6 835.8,-126.6 835.8,-135.1 
		778.3,-135.1 778.3,-126.6 778.3,-126.6 	"/>
</g>
<g id="LWPOLYLINE_7_">
	<line class="st0" x1="997.4" y1="728.9" x2="997.4" y2="729.7"/>
</g>
<g id="LWPOLYLINE_8_">
	<line class="st0" x1="997.4" y1="728.9" x2="997.4" y2="729.7"/>
</g>
<g id="LWPOLYLINE_9_">
	<line class="st0" x1="997.4" y1="728.9" x2="997.4" y2="729.7"/>
</g>
<g id="LWPOLYLINE_10_">
	<polyline class="st0" points="-268.5,-134.8 -268.4,-128.3 -268.3,-121.8 -268.1,-115.3 -267.8,-108.7 -267.5,-102 -267,-95.4 
		-266.5,-88.6 -265.9,-81.9 -265.3,-75.1 -264.5,-68.3 -263.7,-61.4 -262.8,-54.5 -261.8,-47.6 -260.8,-40.6 -259.7,-33.6 
		-258.5,-26.6 -257.2,-19.6 -255.9,-12.5 -254.5,-5.5 -253,1.6 -251.4,8.7 -249.8,15.9 -248.1,23 -246.4,30.2 -244.5,37.4 
		-242.6,44.6 -240.7,51.8 -238.6,59 -236.5,66.2 -234.4,73.4 -232.1,80.6 -229.8,87.8 -227.5,95 -225,102.2 -222.5,109.5 
		-220,116.7 -217.3,123.9 -214.7,131.1 -211.9,138.2 -209.1,145.4 -206.2,152.6 -203.3,159.7 -200.3,166.9 -197.2,174 -194.1,181.1 
		-191,188.2 -187.7,195.2 -184.4,202.2 -181.1,209.3 -177.7,216.2 -174.2,223.2 -170.7,230.1 -167.1,237 -163.5,243.9 -159.8,250.7 
		-156.1,257.5 -152.3,264.2 -148.4,271 -144.5,277.6 -140.6,284.3 -136.6,290.9 -132.5,297.4 -128.4,303.9 -124.3,310.4 
		-120.1,316.8 -115.8,323.1 -111.5,329.4 -107.2,335.7 -102.8,341.8 -98.3,348 -93.8,354.1 -89.3,360.1 -84.7,366 -80.1,371.9 
		-75.4,377.7 -70.7,383.5 -65.9,389.2 -61.1,394.8 -56.2,400.3 -51.3,405.8 -46.4,411.2 -41.4,416.6 -36.4,421.8 -31.3,427 
		-28.8,429.5 -26.2,432.1 -23.6,434.6 -21.1,437.1 -18.5,439.5 -15.9,442 -13.3,444.4 -10.7,446.8 -8,449.2 -5.4,451.6 -2.7,453.9 
		-0.1,456.3 2.6,458.6 5.2,460.8 7.9,463.1 10.6,465.3 13.3,467.5 16,469.7 18.8,471.9 21.5,474 24.2,476.1 27,478.2 29.7,480.3 
		32.5,482.3 35.3,484.3 38,486.3 40.8,488.3 43.6,490.2 46.4,492.2 49.2,494 52.1,495.9 54.9,497.7 57.7,499.6 60.6,501.3 
		63.4,503.1 66.3,504.8 69.2,506.5 72.1,508.2 75,509.9 77.8,511.5 80.7,513.1 83.7,514.7 86.6,516.2 89.5,517.7 92.4,519.2 
		95.4,520.6 98.3,522.1 101.3,523.5 104.2,524.8 107.2,526.2 110.2,527.5 113.2,528.7 116.2,530 119.2,531.2 122.2,532.4 
		125.2,533.5 128.2,534.7 131.2,535.8 134.3,536.8 137.3,537.9 140.3,538.8 143.4,539.8 146.5,540.8 149.5,541.7 152.6,542.5 
		155.7,543.4 158.8,544.2 161.8,544.9 164.9,545.7 168,546.4 171.1,547.1 174.3,547.7 177.4,548.3 180.5,548.9 183.6,549.4 
		186.8,549.9 189.9,550.4 193.1,550.8 196.2,551.2 199.4,551.6 202.5,551.9 205.7,552.2 208.9,552.4 212.1,552.6 215.2,552.8 
		218.4,553 221.6,553.1 224.8,553.2 224.8,640.8 233.3,640.8 233.3,730 151.7,730 151.7,721.5 71.8,721.5 71.8,730 14.3,730 
		14.3,721.5 -41.6,721.5 -41.6,730 -99.1,730 -99.1,721.5 -155,721.5 -155,730 -212.5,730 -212.5,721.5 -268.4,721.5 -268.4,730 
		-325.9,730 -325.9,721.5 -405.9,721.5 -405.9,730 -487.5,730 -487.5,640.8 -479,640.8 -479,553.2 -487.5,553.2 -487.5,495.7 
		-479,495.7 -479,439.8 -487.5,439.8 -487.5,382.3 -479,382.3 -479,326.4 -487.5,326.4 -487.5,268.9 -479,268.9 -479,213 
		-487.5,213 -487.5,155.5 -479,155.5 -479,99.6 -487.5,99.6 -487.5,42.1 -479,42.1 -479,-45.5 -487.5,-45.5 -487.5,-134.8 
		-405.9,-134.8 -405.9,-126.3 -325.9,-126.3 -325.9,-134.8 -268.4,-134.8 -268.4,-126.3 -268.4,-126.3 	"/>
</g>
</svg>
