<?xml version="1.0" encoding="UTF-8" standalone="no"?>
<!-- Created with Inkscape (http://www.inkscape.org/) -->

<svg
   xmlns:dc="http://purl.org/dc/elements/1.1/"
   xmlns:cc="http://creativecommons.org/ns#"
   xmlns:rdf="http://www.w3.org/1999/02/22-rdf-syntax-ns#"
   xmlns:svg="http://www.w3.org/2000/svg"
   xmlns="http://www.w3.org/2000/svg"
   xmlns:sodipodi="http://sodipodi.sourceforge.net/DTD/sodipodi-0.dtd"
   xmlns:inkscape="http://www.inkscape.org/namespaces/inkscape"
   sodipodi:docname="desk_set_v0.1.svg"
   inkscape:version="0.92.2 5c3e80d, 2017-08-06"
   id="svg8"
   version="1.1"
   viewBox="0 0 609.59998 304.80001"
   height="12in"
   width="23.999998in">
  <sodipodi:namedview
     showguides="false"
     inkscape:snap-midpoints="true"
     inkscape:snap-intersection-paths="true"
     inkscape:measure-end="1066.9,753.133"
     inkscape:measure-start="952.922,753.133"
     units="in"
     inkscape:window-maximized="1"
     inkscape:window-y="0"
     inkscape:window-x="0"
     inkscape:window-height="1020"
     inkscape:window-width="1920"
     showgrid="false"
     inkscape:current-layer="layer1"
     inkscape:document-units="mm"
     inkscape:cy="625.19312"
     inkscape:cx="1145.5671"
     inkscape:zoom="0.35"
     inkscape:pageshadow="2"
     inkscape:pageopacity="0.0"
     borderopacity="1.0"
     bordercolor="#666666"
     pagecolor="#ffffff"
     id="base" />
  <defs
     id="defs2" />
  <metadata
     id="metadata5">
    <rdf:RDF>
      <cc:Work
         rdf:about="">
        <dc:format>image/svg+xml</dc:format>
        <dc:type
           rdf:resource="http://purl.org/dc/dcmitype/StillImage" />
        <dc:title />
      </cc:Work>
    </rdf:RDF>
  </metadata>
  <g
     transform="translate(0,-152.4)"
     style="display:inline"
     inkscape:label="Layer 1"
     id="layer1"
     inkscape:groupmode="layer">
    <path
       style="fill:none;fill-opacity:1;stroke:#000000;stroke-width:0.37795276;stroke-miterlimit:4;stroke-dasharray:none"
       d="M 447.33984 418.86719 L 447.33984 539.19727 L 459.33984 539.19727 L 459.33984 614.31445 L 447.33984 614.31445 L 447.33984 734.64648 L 567.66992 734.64648 L 567.66992 722.64648 L 642.78711 722.64648 L 642.78711 734.64648 L 763.11914 734.64648 L 883.44922 734.64648 L 883.44922 722.64648 L 958.56641 722.64648 L 958.56641 734.64648 L 1078.8984 734.64648 L 1199.2285 734.64648 L 1199.2285 722.64648 L 1274.3457 722.64648 L 1274.3457 734.64648 L 1394.6777 734.64648 L 1515.0078 734.64648 L 1590.125 734.64648 L 1710.457 734.64648 L 1710.457 614.31445 L 1710.457 539.19727 L 1710.457 418.86719 L 1590.125 418.86719 L 1515.0078 418.86719 L 1394.6777 418.86719 L 1274.3457 418.86719 L 1274.3457 430.86719 L 1199.2285 430.86719 L 1199.2285 418.86719 L 1078.8984 418.86719 L 958.56641 418.86719 L 958.56641 430.86719 L 883.44922 430.86719 L 883.44922 418.86719 L 763.11914 418.86719 L 642.78711 418.86719 L 642.78711 430.86719 L 567.66992 430.86719 L 567.66992 418.86719 L 447.33984 418.86719 z "
       transform="matrix(0.26458333,0,0,0.26458333,0,152.4)"
       id="path1827" />
    <path
       style="fill:none;fill-opacity:1;stroke:#000000;stroke-width:0.37795276;stroke-linecap:butt;stroke-linejoin:miter;stroke-miterlimit:4;stroke-dasharray:none;stroke-opacity:1"
       d="M 243.41797 418.86719 L 243.41797 430.86719 L 67.337891 430.86719 L 67.337891 722.64648 L 243.41797 722.64648 L 243.41797 734.64648 L 319.48047 734.64648 L 319.48047 722.64648 L 427.33984 722.64648 L 427.33984 614.78711 L 439.33984 614.78711 L 439.33984 538.72461 L 427.33984 538.72461 L 427.33984 430.86719 L 319.48047 430.86719 L 319.48047 418.86719 L 243.41797 418.86719 z "
       transform="matrix(0.26458333,0,0,0.26458333,0,152.4)"
       id="path3187" />
    <path
       style="display:inline;fill:none;fill-opacity:1;stroke:#000000;stroke-width:0.37795276;stroke-linecap:butt;stroke-linejoin:miter;stroke-miterlimit:4;stroke-dasharray:none;stroke-opacity:1"
       d="M 447.10156 38.867188 L 447.10156 215.41797 L 459.10156 215.41797 L 459.10156 290.53711 L 447.10156 290.53711 L 447.10156 398.86719 L 566.96094 398.86719 L 566.96094 410.86719 L 643.02344 410.86719 L 643.02344 398.86719 L 762.88086 398.86719 L 762.88281 398.86719 L 882.85938 398.86719 L 882.85938 410.86719 L 958.92188 410.86719 L 958.92188 398.86719 L 1198.7559 398.86719 L 1198.7559 410.86719 L 1274.8184 410.86719 L 1274.8184 398.86719 L 1394.6777 398.86719 L 1394.6777 364.99414 L 1382.6777 364.99414 L 1382.6777 289.875 L 1394.6777 289.875 L 1394.6777 255.62305 L 762.88086 255.62305 L 762.88086 215.41797 L 762.88281 38.867188 L 447.10156 38.867188 z "
       transform="matrix(0.26458333,0,0,0.26458333,0,152.4)"
       id="path3250-7" />
    <path
       style="display:inline;fill:none;stroke:#0000ff;stroke-width:0.37795276;stroke-linecap:butt;stroke-linejoin:miter;stroke-miterlimit:4;stroke-dasharray:none;stroke-opacity:1"
       d="M 1930.1582 95.085938 L 1930.1582 107.08594 L 1923.5586 107.08594 L 1923.2383 107.08594 L 1923.2383 253.21289 L 1911.5586 253.21289 L 1911.5586 107.08594 L 1822.2988 107.08594 L 1822.2988 398.86523 L 2114.0781 398.86523 L 2114.0781 107.08594 L 2024.8184 107.08594 L 2024.8184 253.21289 L 2013.1387 253.21289 L 2013.1387 107.08594 L 2012.8184 107.08594 L 2006.2207 107.08594 L 2006.2207 95.085938 L 1930.1582 95.085938 z "
       transform="matrix(0.26458333,0,0,0.26458333,0,152.4)"
       id="path3267" />
    <path
       style="display:inline;fill:none;stroke:#0000ff;stroke-width:0.1;stroke-linecap:butt;stroke-linejoin:miter;stroke-miterlimit:4;stroke-dasharray:none;stroke-opacity:1"
       d="m 35.803996,180.73364 v 37.0125 h 38.66251 v 3.175 h -38.66251 v 37.0125 h 77.199924 v -28.5375 h 3.175 v -20.125 h -3.175 v -28.5375 z"
       id="path3269"
       inkscape:connector-curvature="0" />
    <path
       style="display:inline;fill:none;stroke:#0000ff;stroke-width:0.1;stroke-linecap:butt;stroke-linejoin:miter;stroke-miterlimit:4;stroke-dasharray:none;stroke-opacity:1"
       d="m 35.866393,352.06706 v 37.0125 h 38.6625 v 3.175 h -38.6625 v 37.0125 h 77.199957 v -28.5375 h 3.175 v -20.125 h -3.175 v -28.5375 z"
       id="path3271"
       inkscape:connector-curvature="0" />
    <path
       style="display:inline;fill:none;fill-opacity:1;stroke:#000000;stroke-width:0.37795276;stroke-linecap:butt;stroke-linejoin:miter;stroke-miterlimit:4;stroke-dasharray:none;stroke-opacity:1"
       d="M 567.19727 742.64648 L 567.19727 754.64648 L 447.33789 754.64648 L 447.33789 862.97656 L 459.33789 862.97656 L 459.33789 938.0957 L 447.33789 938.0957 L 447.33789 1114.6445 L 763.11914 1114.6445 L 763.11719 938.0957 L 763.11719 897.89062 L 1394.6758 897.89062 L 1394.6758 863.63867 L 1382.9141 863.63867 L 1382.9141 788.51953 L 1394.6758 788.51953 L 1394.6758 754.64648 L 1275.0547 754.64648 L 1275.0547 742.64648 L 1198.9922 742.64648 L 1198.9922 754.64648 L 959.1582 754.64648 L 959.1582 742.64648 L 883.0957 742.64648 L 883.0957 754.64648 L 763.11914 754.64648 L 763.11719 754.64648 L 643.25977 754.64648 L 643.25977 742.64648 L 567.19727 742.64648 z "
       transform="matrix(0.26458333,0,0,0.26458333,0,152.4)"
       id="path3250-7-6" />
    <rect
       transform="translate(0,152.4)"
       style="display:inline;fill:none;fill-opacity:1;fill-rule:evenodd;stroke:#ff0000;stroke-width:0.1;stroke-miterlimit:4;stroke-dasharray:none;stroke-opacity:1"
       id="rect3602-7"
       width="3.175"
       height="19.875273"
       x="282.28354"
       y="76.696091" />
    <rect
       transform="translate(0,152.4)"
       style="display:inline;fill:none;fill-opacity:1;fill-rule:evenodd;stroke:#ff0000;stroke-width:0.1;stroke-miterlimit:4;stroke-dasharray:none;stroke-opacity:1"
       id="rect3602-9"
       width="3.175"
       height="19.875273"
       x="198.67107"
       y="76.696091" />
    <rect
       transform="translate(0,152.4)"
       style="display:inline;fill:none;fill-opacity:1;fill-rule:evenodd;stroke:#ff0000;stroke-width:0.1;stroke-miterlimit:4;stroke-dasharray:none;stroke-opacity:1"
       id="rect3602-7-0"
       width="3.175"
       height="19.875273"
       x="282.34598"
       y="208.62933" />
    <rect
       transform="translate(0,152.4)"
       style="display:inline;fill:none;fill-opacity:1;fill-rule:evenodd;stroke:#ff0000;stroke-width:0.1;stroke-miterlimit:4;stroke-dasharray:none;stroke-opacity:1"
       id="rect3602-9-2"
       width="3.175"
       height="19.875273"
       x="198.73351"
       y="208.62933" />
    <rect
       transform="translate(0,152.4)"
       style="display:inline;fill:none;fill-opacity:1;fill-rule:evenodd;stroke:#ff0000;stroke-width:0.1;stroke-miterlimit:4;stroke-dasharray:none;stroke-opacity:1"
       id="rect3690"
       width="3.175"
       height="19.874754"
       x="145.15031"
       y="142.66261" />
    <rect
       transform="translate(0,152.4)"
       style="display:inline;fill:none;fill-opacity:1;fill-rule:evenodd;stroke:#ff0000;stroke-width:0.1;stroke-miterlimit:4;stroke-dasharray:none;stroke-opacity:1"
       id="rect3692"
       width="19.874756"
       height="3.175"
       x="150.196"
       y="151.01248" />
    <rect
       transform="translate(0,152.4)"
       style="display:inline;fill:none;fill-opacity:1;fill-rule:evenodd;stroke:#ff0000;stroke-width:0.1;stroke-miterlimit:4;stroke-dasharray:none;stroke-opacity:1"
       id="rect3694"
       width="3.175"
       height="19.874754"
       x="171.94196"
       y="142.66261" />
    <rect
       transform="translate(0,152.4)"
       style="display:inline;fill:none;fill-opacity:1;fill-rule:evenodd;stroke:#ff0000;stroke-width:0.1;stroke-miterlimit:4;stroke-dasharray:none;stroke-opacity:1"
       id="rect3696"
       width="3.175"
       height="19.874754"
       x="198.7336"
       y="142.66261" />
    <rect
       transform="translate(0,152.4)"
       style="display:inline;fill:none;fill-opacity:1;fill-rule:evenodd;stroke:#ff0000;stroke-width:0.1;stroke-miterlimit:4;stroke-dasharray:none;stroke-opacity:1"
       id="rect3698"
       width="3.175"
       height="19.874754"
       x="282.28354"
       y="142.66261" />
    <rect
       transform="translate(0,152.4)"
       style="display:inline;fill:none;fill-opacity:1;fill-rule:evenodd;stroke:#ff0000;stroke-width:0.1;stroke-miterlimit:4;stroke-dasharray:none;stroke-opacity:1"
       id="rect3700"
       width="3.175"
       height="19.874754"
       x="365.83347"
       y="142.66261" />
    <path
       style="fill:none;fill-opacity:1;fill-rule:evenodd;stroke:#000000;stroke-width:0.1;stroke-miterlimit:4;stroke-dasharray:none;stroke-opacity:1"
       d="m 398.40277,360.74314 v 3.175 h -8.88732 v 28.53779 h -3.175 v 20.12487 h 3.175 v 28.53727 h 8.88732 v 3.175 h 20.12487 v -3.175 h 8.88783 v -77.19993 h -8.88783 v -3.175 z"
       id="rect907"
       inkscape:connector-curvature="0" />
    <path
       style="display:inline;fill:none;fill-opacity:1;fill-rule:evenodd;stroke:#000000;stroke-width:0.1;stroke-miterlimit:4;stroke-dasharray:none;stroke-opacity:1"
       d="m 444.76949,360.74288 v 3.175 h -8.88732 v 28.53779 h -3.175 v 20.12487 h 3.175 v 28.53727 h 8.88732 v 3.175 h 20.12487 v -3.175 h 8.88783 v -77.19993 h -8.88783 v -3.175 z"
       id="rect907-5"
       inkscape:connector-curvature="0" />
    <path
       style="display:inline;fill:none;fill-opacity:1;fill-rule:evenodd;stroke:#000000;stroke-width:0.1;stroke-miterlimit:4;stroke-dasharray:none;stroke-opacity:1"
       d="m 469.91242,263.22476 v 3.175 h -8.88731 v 28.53779 h -3.175 v 20.12487 h 3.175 v 28.53728 h 8.88731 v 3.175 h 20.12486 v -3.175 h 8.88784 v 5.2e-4 h 57.34999 v -77.20046 h -57.34999 -8.88784 v -3.175 z"
       id="rect907-5-6"
       inkscape:connector-curvature="0" />
  </g>
</svg>
