<?xml version="1.0" encoding="utf-8"?>
<!-- Generator: Adobe Illustrator 25.0.0, SVG Export Plug-In . SVG Version: 6.00 Build 0)  -->
<svg version="1.1" id="_x23_Layer_1" xmlns="http://www.w3.org/2000/svg" xmlns:xlink="http://www.w3.org/1999/xlink" x="0px"
	 y="0px" viewBox="0 0 1417 850" style="enable-background:new 0 0 1417 850;" xml:space="preserve">
<style type="text/css">
	.st0{fill:none;stroke:#ED1C24;stroke-width:0.216;}
	.st1{fill-rule:evenodd;clip-rule:evenodd;fill:none;stroke:#ED1C24;stroke-width:0.216;}
</style>
<path class="st0" d="M361.9,48.1c0.1,0.1,0.1,0.1,0.2,0.2l0,0c18.6,17.2,37.7,37.2,46.6,61.3c7.8,21,6.7,41.7-0.6,62.7
	c-1.9,8-3.4,19.8,5.5,24.2c5.8,3.5,11.6,7,17.4,10.5l0,0l0,0c2.5,2.3,3.1,4.4,0.6,6.9c-6.5,6.8-13.1,13.7-19.6,20.5
	c5.1,18.9,10.2,37.8,15.3,56.7c4.6,3.3,9.2,6.7,13.7,10c19.8,16.2,29,35.3,21.6,60.9c-1.9,7.9-2.2,16.3-1.2,24.3
	c1.3,10.6,4.7,20.6,9.9,29.9c4.7,8.8,9.4,17.6,14.1,26.4l0,0l0,0c1.2,8.5-1.1,14.2-9.6,17.3c-5.4,1.4-10.9,2.4-16.5,3l-0.3,0v-0.3
	c0-15,0-30.1,0-45.1c-3.6,0-7.2,0-10.8,0c0,15.3,0,30.6,0,45.8v0.3l-0.3,0c-0.5,0-1,0-1.5,0l0,0l0,0c-43.7-5.7-87.4-11.3-131.1-17
	c-12-1-24-4.6-31.9-14.3c-11.9-14.6-10.5-38.3-7.9-55.8c0.9-9,0.4-19.3-5.2-26.8c-3.1-4.2-7.4-7-12.4-8.8
	c-6.5-2.3-13.9-2.9-20.7-2.7c-23.7,5.3-37.2,18.1-28.7,43.3c3.1,12.1,10.4,22,16,33l0,0l0,0c0.7,3,0.8,6.6-1.5,9
	c-3.2,3.5-9.2,2.6-13.3,1.4C148.6,414.4,79.3,381,43.3,328.9l-0.3-0.4h0.5c42.8,0,85.6,0,128.3,0c0-3.6,0-7.2,0-10.8
	c-45.1,0-90.2,0-135.4,0h-0.2l-0.1-0.2c-15-29.5-26.8-61.5-31.4-94.4c-4.1-28.9-2.7-58.5,7-86.2c13.2-38.1,39.7-67,73.5-88.2
	l0.4-0.3v0.5c0,55.9,0,111.7,0,167.6c3.6,0,7.2,0,10.8,0c0-58.1,0-116.1,0-174.2v-0.2l0.2-0.1c33.7-17.9,69.9-28.6,107.8-32.9l0.3,0
	v0.3c0,69,0,138,0,207c3.6,0,7.2,0,10.8,0c0-69.4,0-138.7,0-208.1V8.2l0.3,0c19-1.3,38.1-0.6,56.9,2.6c17.6,3,34.6,8.1,50.9,15.1
	l0.2,0.1v0.2c0,63.5,0,126.9,0,190.4c3.6,0,7.2,0,10.8,0c0-61.7,0-123.4,0-185.1V31l0.4,0.2c4.2,2.1,8.3,4.3,12.4,6.6l0.1,0.1l0,0.1
	c11.9,44.3,23.8,88.6,35.7,132.8c3.5-0.9,6.9-1.9,10.4-2.8L361.5,48.5l-0.8-0.7l0.4-0.4L361.9,48.1z"/>
<path class="st0" d="M1306.7,753c-3.6,0-7.2,0-10.8,0c0,31.2,0,62.3,0,93.5v0.3h-0.3c-17,0-34,0-51,0h-0.3v-0.3
	c0-31.2,0-62.3,0-93.5c-3.6,0-7.2,0-10.8,0c0,31.2,0,62.3,0,93.5v0.3h-0.3c-17,0-34,0-51,0h-0.3v-0.3c0-31.2,0-62.3,0-93.5
	c-3.6,0-7.2,0-10.8,0c0,31.2,0,62.3,0,93.5v0.3h-0.3c-11.3,0-22.7,0-34,0h-0.3v-0.3c0-31.2,0-62.3,0-93.5c-3.6,0-7.2,0-10.8,0
	c0,23.2,0,46.4,0,69.6v1.5l-0.5-1.4c-9.2-22.8-16.2-46.5-21.9-70.4c-5.6-26.4-8.1-54.7-3.9-81.5c3.5-22.5,11.8-44,27.1-61.2
	c25.9-35.9,68.2-56.5,112.3-56.5c44.1,0,86.4,20.5,112.3,56.5c15.3,17.1,23.6,38.7,27.1,61.2c4.2,26.8,1.7,55.1-3.9,81.5
	c-5.6,23.9-12.7,47.6-21.9,70.4l-0.5,1.4v-1.5c0-23.2,0-46.4,0-69.6c-3.6,0-7.2,0-10.8,0c0,31.2,0,62.3,0,93.5v0.3h-0.3
	c-11.3,0-22.7,0-34,0h-0.3v-0.3C1306.7,815.3,1306.7,784.1,1306.7,753z"/>
<path class="st0" d="M904.6,558.9c-6.5,2.7-15,5.8-22,3.4c-4-1.4-7-4.3-9.1-7.9c-5.2-10-8.5-20.5-11.7-31.3
	c-2.6-9.4-7.1-13.7-16.6-15.2c-2.4-0.3-4.5,0-6.8,0.8c-1.8,0.7-3.6,1.5-5.4,2.3c-2.1,0.8-4.1,1.4-6.3,1.6
	c-5.5,0.6-20.3,1.7-22.1-6.1c-1.1-4.9,3.7-10.7,7.7-13c1-0.6,0.5-2.2-0.7-2.1c-1.8,0.2-3.9,0.1-5.4-1.1c-2.4-2-2.4-7.1-0.1-9.2
	c2.5-2.2,7.4-0.9,10.2,0c0.7,0.2,1.5-0.3,1.5-1.1c0-0.6,0-1.2,0-1.7c0-0.8-0.8-1.3-1.5-1.1c-2.8,0.9-7.6,2.2-10.1,0
	c-2.4-2.1-2.4-7.5-0.1-9.7c2.5-2.4,7.4-1,10.2,0c0.7,0.2,1.5-0.3,1.5-1.1c0-0.8,0-1.5,0-2.3c0-0.8-0.8-1.3-1.5-1.1
	c-2.8,1.1-7.6,2.5-10.1,0c-2.4-2.4-2.4-8.4-0.1-10.9c2.4-2.7,7.3-1.2,10.2-0.1c0.7,0.3,1.5-0.3,1.5-1.1c0-0.8,0-1.6,0-2.4
	c0-0.8-0.8-1.4-1.6-1.1c-2.8,1.1-7.6,2.6-10,0c-2.4-2.6-2.4-8.9-0.1-11.6c2.4-2.8,7.3-1.3,10.1-0.1c0.7,0.3,1.6-0.2,1.6-1.1
	c0-0.4,0-0.9,0-1.3v-0.3h0.3c66.5,0,133,0,199.5,0c0-3.6,0-7.2,0-10.8c-66.5,0-133,0-199.5,0h-0.3v-0.3c0-0.4,0-0.9,0-1.3
	c0-0.8-0.8-1.4-1.6-1c-2.9,1.2-7.7,2.7-10.1-0.1c-2.3-2.7-2.3-9,0.1-11.6c2.5-2.6,7.2-1.2,10,0c0.7,0.3,1.6-0.2,1.6-1.1
	c0-0.8,0-1.6,0-2.4c0-0.8-0.8-1.3-1.5-1.1c-2.9,1.1-7.7,2.6-10.2-0.1c-2.3-2.5-2.3-8.5,0.1-10.9c2.5-2.5,7.2-1.1,10.1,0
	c0.7,0.3,1.5-0.3,1.5-1.1c0-0.8,0-1.5,0-2.3c0-0.8-0.8-1.3-1.5-1.1c-2.8,1-7.7,2.3-10.2,0c-2.3-2.2-2.3-7.5,0.1-9.7
	c2.5-2.2,7.3-0.9,10.1,0c0.7,0.2,1.5-0.3,1.5-1.1c0-0.6,0-1.2,0-1.7c0-0.8-0.8-1.3-1.5-1.1c-2.8,0.9-7.7,2.2-10.2,0
	c-2.3-2.1-2.3-7.2,0.1-9.2c1.4-1.2,3.6-1.3,5.4-1.1c1.2,0.1,1.8-1.5,0.7-2.1c-1.6-1-3.2-2.3-4.4-3.8c-2.1-2.4-4-6-3.3-9.2
	c1.7-7.8,16.5-6.7,22-6.1c2.2,0.2,4.2,0.8,6.3,1.6c1.8,0.7,3.5,1.6,5.4,2.3c2.3,0.8,4.4,1.1,6.8,0.8c9.5-1.4,14-5.8,16.6-15.2
	c3.2-10.8,6.5-21.3,11.7-31.3c2.2-3.6,5.1-6.5,9.1-7.9c7-2.3,15.5,0.7,22,3.4c25.4,5.1,52-0.3,77.2-4.4c20.5-3.9,42.4-6.2,63.2-3.5
	c16.2,2.1,31.2,7.3,44.6,16.7c11.1,7.8,20.2,17.9,27.8,29.1c7.7,11.3,13.3,22.9,17.3,36c5.6,18.3,7.6,38,8,57.1
	c-0.4,19.1-2.4,38.7-8,57c-4,13.1-9.6,24.7-17.3,36c-7.7,11.2-16.7,21.3-27.8,29.1c-13.4,9.4-28.4,14.6-44.6,16.7
	c-20.8,2.7-42.7,0.4-63.2-3.5C956.6,559.2,930.1,553.8,904.6,558.9L904.6,558.9z M998.2,499.8c-2.4,15.3-10.9,20.8-21.5,25.8
	c-9.4,4.4-18.5,6.1-27.3,7.4c-11.2,2.3-19.3,0.7-26.9-4.7c-9.4-10.4-8.1-27.8-3.3-39.6c3.5-8.8,7.6-17.2,12.5-25
	c4.3-7.7,15.8-14.3,27.8-15.3c6.6-1,13.2-1.1,19.8-0.2c14,2.9,19.4,12,20.3,24.3C1000.4,481.5,1000,490.6,998.2,499.8L998.2,499.8z
	 M946.8,436.9c-22.4,0.4-44.9,0.9-67.3,1.3c-11.9,1.7-10.7,14.1-2.5,19.4c8.9,4.9,19.7,3.3,30.7,2.2c7.2-1.1,17.9-1.3,23-8.5
	C935.3,445.6,939.4,441.1,946.8,436.9L946.8,436.9z M998.2,356.1c-2.4-15.3-10.9-20.8-21.5-25.8c-9.4-4.4-18.5-6.1-27.3-7.4
	c-11.2-2.3-19.3-0.7-26.9,4.7c-9.4,10.4-8.1,27.8-3.3,39.6c3.5,8.8,7.6,17.2,12.5,25c4.3,7.7,15.8,14.3,27.8,15.3
	c6.6,1,13.2,1.1,19.8,0.2c14-2.9,19.4-12,20.3-24.3C1000.4,374.3,1000,365.2,998.2,356.1L998.2,356.1z M946.8,419
	c-22.4-0.4-44.9-0.9-67.3-1.3c-11.9-1.7-10.7-14.1-2.5-19.4c8.9-4.9,19.7-3.3,30.7-2.2c7.2,1.1,17.9,1.3,23,8.5
	C935.3,410.2,939.4,414.8,946.8,419z"/>
<path class="st0" d="M241.6,778.9c-3.5-15.2-11.3-26.8-24.4-35.1c-3.9-2.3-12.2-6.3-16.2-2.1c-3.1,3.2-1.8,8.9-0.3,12.5l0,0l0,0
	c4.6,19.8,8.2,39.8,10.8,60l0,0l0,0c-0.5,5.2-4.8,7.5-9.4,8.7c-16.4,4.6-32.8,9.2-49.2,13.8c-14.2,4.4-30.4,7.1-44.9,2.1
	c-10.5-3.6-18.5-10.7-24.6-19.9c-17.3-28.4-32.4-58.1-45.3-88.8l-0.2-0.4h0.4c35.4,0,70.9,0,106.3,0c0-3.6,0-7.2,0-10.8
	c-37,0-74,0-110.9,0h-0.2l-0.1-0.2c-7.9-19.8-14.8-40.1-20.8-60.5C-8.2,590.7,0,529.5,58.1,484.9l0.5-0.4v0.6c0,44.2,0,88.5,0,132.7
	c3.6,0,7.2,0,10.8,0c0-47.1,0-94.2,0-141.2v-0.1l0.1-0.1c32.5-23.3,68.3-37.4,107.8-43.2l0.3,0v0.3c0,61.5,0,122.9,0,184.4
	c3.6,0,7.2,0,10.8,0c0-61.9,0-123.8,0-185.7v-0.3l0.3,0c37.4-3.1,73.5,2.7,107.9,17.9l0.2,0.1v0.2c0,55.9,0,111.8,0,167.8
	c3.6,0,7.2,0,10.8,0c0-54.1,0-108.2,0-162.3v-0.5l0.4,0.2c9.4,5.2,18.2,12.6,22.9,22.5l0,0l0,0c7,26.1,14,52.2,21.1,78.3l0,0l0,0
	c2.2,17.5,2.5,34.6,0.3,52.2l0,0l0,0c-8.4,17.7-7.3,33.7,8.4,46.5c5.1,3.3,10.2,6.6,15.4,10l0,0l0,0c4,4.2,5.1,8.6,3.1,14.1
	c-1.2,3.3-0.8,6.3,1.5,8.9l0,0l0,0c5.7,10.3,10.9,21,15.4,31.9l0,0l0,0c5.4,20.2,10.8,40.3,16.3,60.5l0,0l0,0
	c1.4,11.4,1.9,23,1.4,34.5c0,5.7-1.2,11.3-5.1,15.7c-6.1,6.8-16.6,7.9-25.1,7.7c-31.2-0.8-62.5-1.5-93.7-2.3
	c-24.7,0-40-10.8-45.6-35.6l0,0l0,0C243.2,793.2,242.4,786.1,241.6,778.9z"/>
<path class="st0" d="M588.5,778.9c3.5-15.2,11.3-26.8,24.4-35.1c3.9-2.3,12.2-6.3,16.2-2.1c3.1,3.2,1.8,8.9,0.3,12.5l0,0l0,0
	c-4.6,19.8-8.2,39.8-10.8,60l0,0l0,0c0.5,5.2,4.8,7.5,9.4,8.7c16.4,4.6,32.8,9.2,49.2,13.8c14.2,4.4,30.4,7.1,44.9,2.1
	c10.5-3.6,18.5-10.7,24.6-19.9c17.3-28.4,32.4-58.1,45.3-88.8l0.2-0.4h-0.4c-35.4,0-70.9,0-106.3,0c0-3.6,0-7.2,0-10.8
	c37,0,74,0,110.9,0h0.2l0.1-0.2c7.9-19.8,14.8-40.1,20.8-60.5c20.9-67.6,12.7-128.8-45.4-173.3l-0.5-0.4v0.6c0,44.2,0,88.5,0,132.7
	c-3.6,0-7.2,0-10.8,0c0-47.1,0-94.2,0-141.2v-0.1l-0.1-0.1c-32.5-23.3-68.3-37.4-107.8-43.2l-0.3,0v0.3c0,61.5,0,122.9,0,184.4
	c-3.6,0-7.2,0-10.8,0c0-61.9,0-123.8,0-185.7v-0.3l-0.3,0c-37.4-3.1-73.5,2.7-107.9,17.9l-0.2,0.1v0.2c0,55.9,0,111.8,0,167.8
	c-3.6,0-7.2,0-10.8,0c0-54.1,0-108.2,0-162.3v-0.5l-0.4,0.2c-9.4,5.2-18.2,12.6-22.9,22.5l0,0l0,0c-7,26.1-14,52.2-21.1,78.3l0,0
	l0,0c-2.2,17.5-2.5,34.6-0.3,52.2l0,0l0,0c8.4,17.7,7.3,33.7-8.4,46.5c-5.1,3.3-10.2,6.6-15.4,10l0,0l0,0c-4,4.2-5.1,8.6-3.1,14.1
	c1.2,3.3,0.8,6.3-1.5,8.9l0,0l0,0c-5.7,10.3-10.9,21-15.4,31.9l0,0l0,0c-5.4,20.2-10.8,40.3-16.3,60.5l0,0l0,0
	c-1.4,11.4-1.9,23-1.4,34.5c0,5.7,1.2,11.3,5.1,15.7c6.1,6.8,16.6,7.9,25.1,7.7c31.2-0.8,62.5-1.5,93.7-2.3
	c24.7,0,40-10.8,45.6-35.6l0,0l0,0C587,793.2,587.8,786.1,588.5,778.9z"/>
<path class="st1" d="M684.7,140.9c-3.6,0-7.2,0-10.8,0c0,67.5,0,135.1,0,202.6c-1,23.6-10.3,39-33.7,45.8c-0.2,0.1-0.4,0.1-0.6,0.2
	l-0.4,0.1v-0.4c0-82.8,0-165.5,0-248.3c-3.6,0-7.2,0-10.8,0c0,55.2,0,110.4,0,165.7v0.3h-0.3c-17,0-34,0-51,0H577v-0.3
	c0-55.2,0-110.4,0-165.7c-3.6,0-7.2,0-10.8,0c0,55.2,0,110.4,0,165.7v0.3h-0.3c-17,0-34,0-51,0h-0.3v-0.3c0-55.2,0-110.4,0-165.7
	c-3.6,0-7.2,0-10.8,0c0,82.8,0,165.5,0,248.3v0.4l-0.4-0.1c-0.2-0.1-0.4-0.1-0.6-0.2c-23.4-6.8-32.6-22.2-33.7-45.8
	c0-67.5,0-135.1,0-202.6c-3.6,0-7.2,0-10.8,0c0,3.9,0,7.8,0,11.6v0.3l-0.3-0.1c-5.6-0.9-9.7-5.8-9.7-11.5c0-10.1,0-20.1,0-30.2
	c0.8-17,5-33.7,13.1-48.8c16.2-30.2,44.8-47.9,77.8-54.8c10.5-2.6,21.5-3.7,32.3-3.7c10.8,0,21.8,1.1,32.3,3.7
	c33,6.9,61.6,24.6,77.8,54.8c8.1,15,12.3,31.8,13.1,48.8c0,10.1,0,20.1,0,30.2c0,5.7-4.1,10.6-9.7,11.5l-0.3,0.1v-0.3
	C684.7,148.6,684.7,144.8,684.7,140.9z"/>
<path class="st1" d="M418.8,504c0-4.9,0-9.7,0-14.6v-0.3h0.3c0.4,0,0.9,0,1.3,0c0.8,0,1.4-0.8,1-1.6c-1.2-2.9-2.7-7.7,0.1-10.1
	c2.7-2.3,9-2.3,11.6,0.1c2.6,2.5,1.2,7.2,0,10c-0.3,0.7,0.2,1.6,1.1,1.6c0.8,0,1.6,0,2.4,0c0.8,0,1.3-0.8,1.1-1.5
	c-1.1-2.9-2.6-7.7,0.1-10.2c2.5-2.3,8.5-2.3,10.9,0.1c2.5,2.5,1.1,7.2,0,10.1c-0.3,0.7,0.3,1.5,1.1,1.5c0.8,0,1.5,0,2.3,0
	c0.8,0,1.3-0.8,1.1-1.5c-1-2.8-2.3-7.7,0-10.2c2.2-2.3,7.5-2.3,9.7,0.1c2.2,2.5,0.9,7.3,0,10.1c-0.2,0.7,0.3,1.5,1.1,1.5
	c0.6,0,1.2,0,1.7,0c0.8,0,1.3-0.8,1.1-1.5c-0.9-2.8-2.2-7.7,0-10.2c2.1-2.3,7.2-2.3,9.2,0.1c0.7,0.8,1,1.9,1.1,3
	c0.2,2.6,0.5,5.3,0.7,7.9c2.7,29.1-10.9,47.5-37.8,57.4l0,0l0,0c-8.7,2.1-17.6,3.3-26.6,3.3c-9,0-17.9-1.1-26.6-3.3l0,0l0,0
	c-26.9-9.9-40.5-28.2-37.8-57.4c0.2-2.6,0.5-5.3,0.7-7.9c0.1-1.1,0.4-2.2,1.1-3c2-2.4,7.1-2.4,9.2-0.1c2.2,2.5,0.9,7.4,0,10.2
	c-0.2,0.7,0.3,1.5,1.1,1.5c0.6,0,1.2,0,1.7,0c0.8,0,1.3-0.8,1.1-1.5c-0.9-2.8-2.2-7.6,0-10.1c2.1-2.4,7.5-2.4,9.7-0.1
	c2.4,2.5,1,7.4,0,10.2c-0.2,0.7,0.3,1.5,1.1,1.5c0.8,0,1.5,0,2.3,0c0.8,0,1.3-0.8,1.1-1.5c-1.1-2.8-2.5-7.6,0-10.1
	c2.4-2.4,8.4-2.4,10.9-0.1c2.7,2.4,1.2,7.3,0.1,10.2c-0.3,0.7,0.3,1.5,1.1,1.5c0.8,0,1.6,0,2.4,0c0.8,0,1.4-0.8,1.1-1.6
	c-1.1-2.8-2.6-7.6,0-10c2.6-2.4,8.9-2.4,11.6-0.1c2.8,2.4,1.3,7.3,0.1,10.1c-0.3,0.7,0.2,1.6,1,1.6c0.4,0,0.9,0,1.3,0h0.3v0.3
	c0,4.9,0,9.7,0,14.6C411.6,504,415.2,504,418.8,504z"/>
<path class="st1" d="M1064.7,745c-3.6,0-7.2,0-10.8,0c0,33.8,0,67.6,0,101.4v0.3h-0.3c-11.3,0-22.7,0-34,0h-0.3v-0.3
	c0-33.8,0-67.6,0-101.4c-3.6,0-7.2,0-10.8,0c0,33.8,0,67.6,0,101.4v0.3h-0.3c-17,0-34,0-51,0H957v-0.3c0-33.8,0-67.6,0-101.4
	c-3.6,0-7.2,0-10.8,0c0,33.8,0,67.6,0,101.4v0.3h-0.3c-17,0-34,0-51,0h-0.3v-0.3c0-33.8,0-67.6,0-101.4c-3.6,0-7.2,0-10.8,0
	c0,33.8,0,67.6,0,101.4v0.3h-0.3c-11.3,0-22.7,0-34,0h-0.3v-0.3c0-33.8,0-67.6,0-101.4c-3.6,0-7.2,0-10.8,0c0,15,0,29.9,0,44.9v0.8
	l-0.5-0.6c-23.6-29.7-30.5-64-17.9-100.1c12-34.8,23.6-64.4,51.9-89.6c22.6-19.2,49.8-31.1,79.6-31.1c29.8,0,57,11.9,79.6,31.1
	c28.3,25.1,40,54.7,51.9,89.6c12.5,36.1,5.7,70.4-17.9,100.1l-0.5,0.6v-0.8C1064.7,774.9,1064.7,760,1064.7,745z"/>
<path class="st1" d="M873,284.8c-9.4,7.2-20.1,12.8-31.9,14.2c-23,2.8-42.7-11.2-58-26.8l-0.5-0.5h0.7c10.4,0,20.8,0,31.1,0
	c0-3.6,0-7.2,0-10.8c-15.2,0-30.4,0-45.6,0h-0.1l-0.1-0.1c-30.7-25.6-54.4-60.1-59.6-100.4c-4-30.4,3.3-59.7,18.7-86.1l0.5-0.9v1
	c0,28.4,0,56.8,0,85.2c3.6,0,7.2,0,10.8,0c0-33.3,0-66.6,0-100v-0.1l0.1-0.1C767.7,26.2,803.5,10.1,847,6.2l0.3,0v0.3
	c0,51.1,0,102.2,0,153.3c3.6,0,7.2,0,10.8,0c0-51.5,0-102.9,0-154.4V5.1l0.3,0c19.5-1.7,39.5-0.7,58.7,3.7
	c17.7,4.1,34.6,11.3,49.2,22.2l0.1,0.1v0.1c0,38.3,0,76.6,0,114.8c3.6,0,7.2,0,10.8,0c0-34.6,0-69.1,0-103.7v-0.9l0.5,0.7
	c17.6,24.8,23.4,53,23.5,83.1c0.1,9.1-1.7,17.7-5.7,25.9l0,0l0,0c-11.9,16.6-10.6,31.1,4.4,45.5c3.9,3.8,7.9,7.5,11.8,11.3
	c5.5,4.2,10.4,10.1,8.9,17.5c-1.4,7-1.7,14.4-0.2,21.4c0.9,3.9,2.4,7.8,2.8,11.8c0.2,1.4,0.5,2.8,0.7,4.2c0.4,1.9,0.5,3.9,0.4,5.9
	c-0.1,2.1-0.4,4.2-1.2,6.1c-0.6,1.5-1.4,2.9-2.6,4c-0.8,0.8-1.8,1.5-2.9,1.9c-1.5,0.7-3.1,1.1-4.7,1.1c-23.9,1.8-48,2.4-72,1.5
	c-6-0.6-11.8-2-17.3-4.6c-5-2.1-10-3.3-15.4-3.5c-4.7-0.3-9.3,0.2-14,0.9c-2.8,0.5-5.4,1.1-8.1,2.1
	C881.7,280.1,877.2,282.4,873,284.8z"/>
<path class="st1" d="M1188.1,284.8c9.4,7.2,20.1,12.8,31.9,14.2c23,2.8,42.7-11.2,58-26.8l0.5-0.5h-0.7c-10.4,0-20.8,0-31.1,0
	c0-3.6,0-7.2,0-10.8c15.2,0,30.4,0,45.6,0h0.1l0.1-0.1c30.7-25.6,54.4-60.1,59.6-100.4c4-30.4-3.3-59.7-18.7-86.1l-0.5-0.9v1
	c0,28.4,0,56.8,0,85.2c-3.6,0-7.2,0-10.8,0c0-33.3,0-66.6,0-100v-0.1l-0.1-0.1c-28.6-33.4-64.4-49.5-107.9-53.4l-0.3,0v0.3
	c0,51.1,0,102.2,0,153.3c-3.6,0-7.2,0-10.8,0c0-51.5,0-102.9,0-154.4V5.1l-0.3,0c-19.5-1.7-39.5-0.7-58.7,3.7
	c-17.7,4.1-34.6,11.3-49.2,22.2l-0.1,0.1v0.1c0,38.3,0,76.6,0,114.8c-3.6,0-7.2,0-10.8,0c0-34.6,0-69.1,0-103.7v-0.9l-0.5,0.7
	c-17.6,24.8-23.4,53-23.5,83.1c-0.1,9.1,1.7,17.7,5.7,25.9l0,0l0,0c11.9,16.6,10.6,31.1-4.4,45.5c-3.9,3.8-7.9,7.5-11.8,11.3
	c-5.5,4.2-10.4,10.1-8.9,17.5c1.4,7,1.7,14.4,0.2,21.4c-0.9,3.9-2.4,7.8-2.8,11.8c-0.2,1.4-0.5,2.8-0.7,4.2
	c-0.4,1.9-0.5,3.9-0.4,5.9c0.1,2.1,0.4,4.2,1.2,6.1c0.6,1.5,1.4,2.9,2.6,4c0.8,0.8,1.8,1.5,2.9,1.9c1.5,0.7,3.1,1.1,4.7,1.1
	c23.9,1.8,48,2.4,72,1.5c6-0.6,11.8-2,17.3-4.6c5-2.1,10-3.3,15.4-3.5c4.7-0.3,9.3,0.2,14,0.9c2.8,0.5,5.4,1.1,8.1,2.1
	C1179.4,280.1,1183.9,282.4,1188.1,284.8z"/>
<path class="st1" d="M1238.6,425.6c0-3.6,0-7.2,0-10.8c-30.3,0-60.6,0-90.9,0h-0.3v-0.3c0-17,0-34,0-51v-0.3h0.3
	c30.3,0,60.6,0,90.9,0c0-3.6,0-7.2,0-10.8c-30.3,0-60.6,0-90.9,0h-0.3v-0.3c0-11.3,0-22.7,0-34v-0.3h0.3c30.3,0,60.6,0,90.9,0
	c-0.1-5.7-0.1-10.8,5.5-13.9c15.8-8.6,33.1-15.3,51-17.9c15.4-2.3,31-1.4,45.8,3.7c18.9,6.6,34.1,19.2,45.9,35.2
	c18.7,28.6,29.2,60.9,29.2,95.2c0,34.2-10.5,66.6-29.2,95.2c-11.8,16-27,28.6-45.9,35.2c-14.8,5.1-30.4,6-45.8,3.7
	c-17.9-2.6-35.2-9.3-51-17.9c-5.6-3.1-5.7-8.2-5.5-13.9c-30.3,0-60.6,0-90.9,0h-0.3v-0.3c0-11.3,0-22.7,0-34V488h0.3
	c30.3,0,60.6,0,90.9,0c0-3.6,0-7.2,0-10.8c-30.3,0-60.6,0-90.9,0h-0.3v-0.3c0-17,0-34,0-51v-0.3h0.3
	C1178,425.6,1208.3,425.6,1238.6,425.6z"/>
</svg>
