<?xml version="1.0" encoding="utf-8"?>
<!-- Generator: Adobe Illustrator 24.3.0, SVG Export Plug-In . SVG Version: 6.00 Build 0)  -->
<svg version="1.1" xmlns="http://www.w3.org/2000/svg" xmlns:xlink="http://www.w3.org/1999/xlink" x="0px" y="0px"
	 viewBox="0 0 1700.8 850.4" style="enable-background:new 0 0 1700.8 850.4;" xml:space="preserve">
<style type="text/css">
	.st0{fill:none;stroke:#FF0000;stroke-width:1.000000e-03;stroke-linecap:round;stroke-linejoin:round;stroke-miterlimit:10;}
</style>
<ellipse transform="matrix(0.7071 -0.7071 0.7071 0.7071 72.3675 1025.1038)" class="st0" cx="1273.6" cy="425.2" rx="417.2" ry="417.2"/>
<ellipse transform="matrix(0.7071 -0.7071 0.7071 0.7071 72.3678 1025.1039)" class="st0" cx="1273.6" cy="425.2" rx="113.4" ry="113.4"/>
<rect x="1095.9" y="375.1" transform="matrix(0.3746 -0.9272 0.9272 0.3746 369.1334 1305.8837)" class="st0" width="113.4" height="8.5"/>
<rect x="1393.1" y="322.4" transform="matrix(0.9272 -0.3746 0.3746 0.9272 -40.252 551.0203)" class="st0" width="8.5" height="113.4"/>
<rect x="1216.9" y="552.9" class="st0" width="113.4" height="8.5"/>
<line class="st0" x1="1330.3" y1="268.9" x2="1330.3" y2="260.3"/>
<line class="st0" x1="1330.3" y1="268.9" x2="1216.9" y2="268.9"/>
<line class="st0" x1="1216.9" y1="268.9" x2="1216.9" y2="260.3"/>
<line class="st0" x1="1216.9" y1="260.3" x2="1202.7" y2="260.3"/>
<line class="st0" x1="1344.5" y1="260.3" x2="1330.3" y2="260.3"/>
<line class="st0" x1="1202.7" y1="260.3" x2="1202.7" y2="69.9"/>
<line class="st0" x1="1330.3" y1="61.4" x2="1330.3" y2="69.9"/>
<line class="st0" x1="1330.3" y1="61.4" x2="1216.9" y2="61.4"/>
<line class="st0" x1="1216.9" y1="61.4" x2="1216.9" y2="69.9"/>
<line class="st0" x1="1216.9" y1="69.9" x2="1202.7" y2="69.9"/>
<line class="st0" x1="1344.5" y1="69.9" x2="1330.3" y2="69.9"/>
<line class="st0" x1="1344.5" y1="260.3" x2="1344.5" y2="69.9"/>
<line class="st0" x1="996.1" y1="687.2" x2="1003.1" y2="682.3"/>
<line class="st0" x1="996.1" y1="687.2" x2="931.1" y2="594.3"/>
<line class="st0" x1="931.1" y1="594.3" x2="938" y2="589.4"/>
<line class="st0" x1="938" y1="589.4" x2="929.9" y2="577.8"/>
<line class="st0" x1="1011.2" y1="693.9" x2="1003.1" y2="682.3"/>
<line class="st0" x1="929.9" y1="577.8" x2="1085.9" y2="468.6"/>
<line class="st0" x1="1166" y1="568.2" x2="1159.1" y2="573.1"/>
<line class="st0" x1="1166" y1="568.2" x2="1101" y2="475.3"/>
<line class="st0" x1="1101" y1="475.3" x2="1094" y2="480.2"/>
<line class="st0" x1="1094" y1="480.2" x2="1085.9" y2="468.6"/>
<line class="st0" x1="1167.2" y1="584.7" x2="1159.1" y2="573.1"/>
<line class="st0" x1="1011.2" y1="693.9" x2="1167.2" y2="584.7"/>
<line class="st0" x1="1551.3" y1="682.7" x2="1544.3" y2="677.9"/>
<line class="st0" x1="1551.3" y1="682.7" x2="1616.3" y2="589.9"/>
<line class="st0" x1="1616.3" y1="589.9" x2="1609.4" y2="585"/>
<line class="st0" x1="1609.4" y1="585" x2="1617.5" y2="573.4"/>
<line class="st0" x1="1536.2" y1="689.5" x2="1544.3" y2="677.9"/>
<line class="st0" x1="1617.5" y1="573.4" x2="1461.5" y2="464.1"/>
<line class="st0" x1="1381.4" y1="563.7" x2="1388.3" y2="568.6"/>
<line class="st0" x1="1381.4" y1="563.7" x2="1446.4" y2="470.9"/>
<line class="st0" x1="1446.4" y1="470.9" x2="1453.4" y2="475.7"/>
<line class="st0" x1="1453.4" y1="475.7" x2="1461.5" y2="464.1"/>
<line class="st0" x1="1380.2" y1="580.2" x2="1388.3" y2="568.6"/>
<line class="st0" x1="1536.2" y1="689.5" x2="1380.2" y2="580.2"/>
<path class="st0" d="M1350.1,594.3c0,3.1-2.5,5.7-5.7,5.7s-5.7-2.5-5.7-5.7c0-3.1,2.5-5.7,5.7-5.7S1350.1,591.2,1350.1,594.3z"/>
<path class="st0" d="M1533.7,716c0,3.1-2.5,5.7-5.7,5.7s-5.7-2.5-5.7-5.7c0-3.1,2.5-5.7,5.7-5.7S1533.7,712.9,1533.7,716z"/>
<ellipse transform="matrix(0.7071 -0.7071 0.7071 0.7071 -175.5816 426.5021)" class="st0" cx="427" cy="425.2" rx="417.2" ry="417.2"/>
<ellipse transform="matrix(0.7071 -0.7071 0.7071 0.7071 -175.5812 426.5021)" class="st0" cx="427" cy="425.2" rx="113.4" ry="113.4"/>
<rect x="249.3" y="375.1" transform="matrix(0.3746 -0.9272 0.9272 0.3746 -160.2963 520.9747)" class="st0" width="113.4" height="8.5"/>
<rect x="546.5" y="322.4" transform="matrix(0.9272 -0.3746 0.3746 0.9272 -101.8894 233.9139)" class="st0" width="8.5" height="113.4"/>
<rect x="370.4" y="552.9" class="st0" width="113.4" height="8.5"/>
<line class="st0" x1="483.7" y1="268.9" x2="483.7" y2="260.3"/>
<line class="st0" x1="483.7" y1="268.9" x2="370.4" y2="268.9"/>
<line class="st0" x1="370.4" y1="268.9" x2="370.4" y2="260.3"/>
<line class="st0" x1="370.4" y1="260.3" x2="356.2" y2="260.3"/>
<line class="st0" x1="497.9" y1="260.3" x2="483.7" y2="260.3"/>
<line class="st0" x1="356.2" y1="260.3" x2="356.2" y2="69.9"/>
<line class="st0" x1="483.7" y1="61.4" x2="483.7" y2="69.9"/>
<line class="st0" x1="483.7" y1="61.4" x2="370.4" y2="61.4"/>
<line class="st0" x1="370.4" y1="61.4" x2="370.4" y2="69.9"/>
<line class="st0" x1="370.4" y1="69.9" x2="356.2" y2="69.9"/>
<line class="st0" x1="497.9" y1="69.9" x2="483.7" y2="69.9"/>
<line class="st0" x1="497.9" y1="260.3" x2="497.9" y2="69.9"/>
<line class="st0" x1="483.7" y1="-32.2" x2="483.7" y2="-40.8"/>
<line class="st0" x1="483.7" y1="-32.2" x2="370.4" y2="-32.2"/>
<line class="st0" x1="370.4" y1="-32.2" x2="370.4" y2="-40.8"/>
<line class="st0" x1="370.4" y1="-40.8" x2="356.2" y2="-40.8"/>
<line class="st0" x1="497.9" y1="-40.8" x2="483.7" y2="-40.8"/>
<line class="st0" x1="356.2" y1="-40.8" x2="356.2" y2="-231.2"/>
<line class="st0" x1="483.7" y1="-239.7" x2="483.7" y2="-231.2"/>
<line class="st0" x1="483.7" y1="-239.7" x2="370.4" y2="-239.7"/>
<line class="st0" x1="370.4" y1="-239.7" x2="370.4" y2="-231.2"/>
<line class="st0" x1="370.4" y1="-231.2" x2="356.2" y2="-231.2"/>
<line class="st0" x1="497.9" y1="-231.2" x2="483.7" y2="-231.2"/>
<line class="st0" x1="497.9" y1="-40.8" x2="497.9" y2="-231.2"/>
<line class="st0" x1="671.6" y1="-32.2" x2="671.6" y2="-40.8"/>
<line class="st0" x1="671.6" y1="-32.2" x2="558.3" y2="-32.2"/>
<line class="st0" x1="558.3" y1="-32.2" x2="558.3" y2="-40.8"/>
<line class="st0" x1="558.3" y1="-40.8" x2="544.1" y2="-40.8"/>
<line class="st0" x1="685.8" y1="-40.8" x2="671.6" y2="-40.8"/>
<line class="st0" x1="544.1" y1="-40.8" x2="544.1" y2="-231.2"/>
<line class="st0" x1="671.6" y1="-239.7" x2="671.6" y2="-231.2"/>
<line class="st0" x1="671.6" y1="-239.7" x2="558.3" y2="-239.7"/>
<line class="st0" x1="558.3" y1="-239.7" x2="558.3" y2="-231.2"/>
<line class="st0" x1="558.3" y1="-231.2" x2="544.1" y2="-231.2"/>
<line class="st0" x1="685.8" y1="-231.2" x2="671.6" y2="-231.2"/>
<line class="st0" x1="685.8" y1="-40.8" x2="685.8" y2="-231.2"/>
<line class="st0" x1="859.6" y1="-32.2" x2="859.6" y2="-40.8"/>
<line class="st0" x1="859.6" y1="-32.2" x2="746.2" y2="-32.2"/>
<line class="st0" x1="746.2" y1="-32.2" x2="746.2" y2="-40.8"/>
<line class="st0" x1="746.2" y1="-40.8" x2="732" y2="-40.8"/>
<line class="st0" x1="873.7" y1="-40.8" x2="859.6" y2="-40.8"/>
<line class="st0" x1="732" y1="-40.8" x2="732" y2="-231.2"/>
<line class="st0" x1="859.6" y1="-239.7" x2="859.6" y2="-231.2"/>
<line class="st0" x1="859.6" y1="-239.7" x2="746.2" y2="-239.7"/>
<line class="st0" x1="746.2" y1="-239.7" x2="746.2" y2="-231.2"/>
<line class="st0" x1="746.2" y1="-231.2" x2="732" y2="-231.2"/>
<line class="st0" x1="873.7" y1="-231.2" x2="859.6" y2="-231.2"/>
<line class="st0" x1="873.7" y1="-40.8" x2="873.7" y2="-231.2"/>
<line class="st0" x1="149.6" y1="687.2" x2="156.5" y2="682.3"/>
<line class="st0" x1="149.6" y1="687.2" x2="84.5" y2="594.3"/>
<line class="st0" x1="84.5" y1="594.3" x2="91.5" y2="589.4"/>
<line class="st0" x1="91.5" y1="589.4" x2="83.4" y2="577.8"/>
<line class="st0" x1="164.7" y1="693.9" x2="156.5" y2="682.3"/>
<line class="st0" x1="83.4" y1="577.8" x2="239.4" y2="468.6"/>
<line class="st0" x1="319.5" y1="568.2" x2="312.5" y2="573.1"/>
<line class="st0" x1="319.5" y1="568.2" x2="254.5" y2="475.3"/>
<line class="st0" x1="254.5" y1="475.3" x2="247.5" y2="480.2"/>
<line class="st0" x1="247.5" y1="480.2" x2="239.4" y2="468.6"/>
<line class="st0" x1="320.7" y1="584.7" x2="312.5" y2="573.1"/>
<line class="st0" x1="164.7" y1="693.9" x2="320.7" y2="584.7"/>
<line class="st0" x1="704.8" y1="682.7" x2="697.8" y2="677.9"/>
<line class="st0" x1="704.8" y1="682.7" x2="769.8" y2="589.9"/>
<line class="st0" x1="769.8" y1="589.9" x2="762.8" y2="585"/>
<line class="st0" x1="762.8" y1="585" x2="770.9" y2="573.4"/>
<line class="st0" x1="689.7" y1="689.5" x2="697.8" y2="677.9"/>
<line class="st0" x1="770.9" y1="573.4" x2="615" y2="464.1"/>
<line class="st0" x1="534.8" y1="563.7" x2="541.8" y2="568.6"/>
<line class="st0" x1="534.8" y1="563.7" x2="599.9" y2="470.9"/>
<line class="st0" x1="599.9" y1="470.9" x2="606.8" y2="475.7"/>
<line class="st0" x1="606.8" y1="475.7" x2="615" y2="464.1"/>
<line class="st0" x1="533.7" y1="580.2" x2="541.8" y2="568.6"/>
<line class="st0" x1="689.7" y1="689.5" x2="533.7" y2="580.2"/>
<path class="st0" d="M503.6,594.3c0,3.1-2.5,5.7-5.7,5.7c-3.1,0-5.7-2.5-5.7-5.7c0-3.1,2.5-5.7,5.7-5.7
	C501,588.6,503.6,591.2,503.6,594.3z"/>
<path class="st0" d="M687.1,716c0,3.1-2.5,5.7-5.7,5.7c-3.1,0-5.7-2.5-5.7-5.7c0-3.1,2.5-5.7,5.7-5.7
	C684.6,710.3,687.1,712.9,687.1,716z"/>
</svg>
