<?xml version="1.0" encoding="utf-8"?>
<!-- Generator: Adobe Illustrator 24.3.0, SVG Export Plug-In . SVG Version: 6.00 Build 0)  -->
<svg version="1.1"
	 id="svg2" inkscape:version="0.48.4 r9939" sodipodi:docname="fish_puzzle.svg" xmlns:cc="http://creativecommons.org/ns#" xmlns:dc="http://purl.org/dc/elements/1.1/" xmlns:inkscape="http://www.inkscape.org/namespaces/inkscape" xmlns:rdf="http://www.w3.org/1999/02/22-rdf-syntax-ns#" xmlns:sodipodi="http://sodipodi.sourceforge.net/DTD/sodipodi-0.dtd" xmlns:svg="http://www.w3.org/2000/svg"
	 xmlns="http://www.w3.org/2000/svg" xmlns:xlink="http://www.w3.org/1999/xlink" x="0px" y="0px" viewBox="0 0 2126 1063"
	 style="enable-background:new 0 0 2126 1063;" xml:space="preserve">
<style type="text/css">
	.st0{fill:none;stroke:#000000;stroke-width:0.3543;}
</style>
<sodipodi:namedview  bordercolor="#666666" borderopacity="1.0" id="base" inkscape:current-layer="layer1" inkscape:cx="-1549.1747" inkscape:cy="260.04086" inkscape:document-units="mm" inkscape:guide-bbox="true" inkscape:object-nodes="true" inkscape:object-paths="false" inkscape:pageopacity="0.0" inkscape:pageshadow="2" inkscape:snap-intersection-paths="true" inkscape:snap-midpoints="false" inkscape:snap-smooth-nodes="true" inkscape:window-height="1056" inkscape:window-maximized="1" inkscape:window-width="1865" inkscape:window-x="55" inkscape:window-y="24" inkscape:zoom="0.70000001" pagecolor="#ffffff" showborder="false" showgrid="false" showguides="true" units="mm">
	<sodipodi:guide  id="guide3079" orientation="0,1" position="-1792.0106,1256.6298"></sodipodi:guide>
	<sodipodi:guide  id="guide3083" orientation="0,1" position="-1661.4656,1078.7921"></sodipodi:guide>
	<sodipodi:guide  id="guide3085" orientation="0,1" position="-1700.3474,1052.6684"></sodipodi:guide>
	<sodipodi:guide  id="guide3091" orientation="0,1" position="-1765.3766,931.75644"></sodipodi:guide>
	<sodipodi:guide  id="guide3093" orientation="0,1" position="-1786.4413,895.82188"></sodipodi:guide>
	<sodipodi:guide  id="guide3095" orientation="0,1" position="-1781.0569,859.92595"></sodipodi:guide>
	<sodipodi:guide  id="guide3099" orientation="0,1" position="-1720.0068,785.01024"></sodipodi:guide>
	<sodipodi:guide  id="guide3103" orientation="0,1" position="-1714.5768,759.00513"></sodipodi:guide>
	<sodipodi:guide  id="guide3105" orientation="0,1" position="-1733.3726,732.74166"></sodipodi:guide>
	<sodipodi:guide  id="guide3107" orientation="0,1" position="-1732.6149,706.37191"></sodipodi:guide>
	<sodipodi:guide  id="guide3115" orientation="0,1" position="-1412.9724,684.46851"></sodipodi:guide>
	<sodipodi:guide  id="guide3117" orientation="0,1" position="-1386.8451,661.08201"></sodipodi:guide>
	<sodipodi:guide  id="guide3119" orientation="0,1" position="-1388.9037,640.91561"></sodipodi:guide>
	<sodipodi:guide  id="guide3121" orientation="0,1" position="-1386.6868,619.64111"></sodipodi:guide>
	<sodipodi:guide  id="guide3125" orientation="1,0" position="-1968.5673,1223.7601"></sodipodi:guide>
	<sodipodi:guide  id="guide3127" orientation="0,1" position="-1829.5077,543.80094"></sodipodi:guide>
	<sodipodi:guide  id="guide3129" orientation="0,1" position="-2223.518,506.14689"></sodipodi:guide>
	<sodipodi:guide  id="guide3131" orientation="0,1" position="-2007.5811,469.52399"></sodipodi:guide>
	<sodipodi:guide  id="guide3143" orientation="1,0" position="-2160.0004,560.75974"></sodipodi:guide>
	<sodipodi:guide  id="guide3145" orientation="1,0" position="-2346.0029,447.26709"></sodipodi:guide>
	<sodipodi:guide  id="guide3151" orientation="0,1" position="-1935.3958,238.5353"></sodipodi:guide>
	<sodipodi:guide  id="guide3153" orientation="0,1" position="-2008.8874,218.45811"></sodipodi:guide>
	<sodipodi:guide  id="guide3155" orientation="0,1" position="-2017.6139,195.16732"></sodipodi:guide>
	<sodipodi:guide  id="guide3157" orientation="0,1" position="-2026.727,169.99419"></sodipodi:guide>
	<sodipodi:guide  id="guide3159" orientation="0,1" position="-2024.9967,144.31294"></sodipodi:guide>
	<sodipodi:guide  id="guide3069" orientation="0,1" position="-2045.1667,118.20013"></sodipodi:guide>
	<sodipodi:guide  id="guide3084" orientation="1,0" position="-2027.8754,134.94339"></sodipodi:guide>
	<sodipodi:guide  id="guide3100" orientation="0,1" position="-1564.8354,412.18918"></sodipodi:guide>
	<sodipodi:guide  id="guide3102" orientation="0,1" position="-1565.9839,386.50796"></sodipodi:guide>
	<sodipodi:guide  id="guide3104" orientation="0,1" position="-1561.8253,359.55601"></sodipodi:guide>
	<sodipodi:guide  id="guide3106" orientation="0,1" position="-1544.1594,337.8035"></sodipodi:guide>
</sodipodi:namedview>
<g id="layer1" transform="translate(0,10.629915)" inkscape:groupmode="layer" inkscape:label="Layer 1">
	
		<path id="path3382" inkscape:connector-curvature="0" sodipodi:nodetypes="ssssssssssssssssssssssssssssssssssssssssssssssssssssssssssssssssssssssssssssssscccsssssssssssssssssssssssssssssssssssssssssssssssssssssssssssssssssssssssssssssssssssssssssssssssssscc" class="st0" d="
		M-1866.7-162.8c0.3,0.8,1.1,1.5,1.8,2c0.7,0.5,1.5,0.9,2.3,1.2c1.6,0.6,3.4,0.6,5.1,0.9c2.6,0.5,5.1,1.1,7.7,1.4
		c4,0.5,8.1,0.9,12.1,0.6c1.5-0.1,2.9-0.6,4.3-0.9c2.8-0.5,5.6-0.6,8.4-1.2c1.6-0.3,3.1-1,4.7-1.3c1.8-0.4,3.5-0.6,5.3-0.7
		c2.1-0.2,4.2-0.2,6.3-0.1c1.9,0,3.8,0.2,5.8,0.3c2,0.1,4.1,0.3,6.1,0.3c1.6,0,3.2,0.1,4.8-0.2c2.4-0.4,4.7-1.1,7-1.9
		c2.3-0.8,4.7-1.7,6.8-2.9c2.6-1.4,5.1-3.1,7.5-4.7c2.2-1.5,4.2-3.2,6.3-4.8c1.3-1,2.7-2,4-3c1.2-1,2.4-1.9,3.3-3.1
		c0.4-0.5,0.7-1.2,0.9-1.8c0.3-0.6,0.9-1.2,0.7-1.8c-0.2-1.1-1.4-1.7-2.3-2.3c-1.2-0.7-2.7-1-4.1-1.3c-1.8-0.4-3.7-0.4-5.5-0.5
		c-4.1-0.4-8.1-0.8-12.2-1.2c-2.4-0.2-4.8-0.4-7.2-0.6c-3.2-0.3-6.5-0.6-9.7-0.9c-2.8-0.3-5.5-0.9-8.3-0.9c-1.9,0-3.9,0-5.8,0.4
		c-3.2,0.6-6.3,1.6-9.2,3c-1.6,0.8-2.9,2.1-4.5,3c-1.6,0.8-3.4,1.3-5.1,2c-1.5,0.6-3,1.2-4.5,1.8c-2,0.8-4,1.6-6,2.4
		c-2.7,0.9-5.4,1.5-8.1,2.5c-2.4,0.9-4.7,1.9-7,3.1c-1.6,0.9-3,2-4.5,3c-1.2,0.8-2.4,1.5-3.5,2.4c-1,0.7-2.1,1.3-3,2.1
		c-0.5,0.5-0.9,1.1-1.1,1.7C-1867.1-164.4-1867-163.5-1866.7-162.8L-1866.7-162.8z M-1732.3-232.6c-1.2-1-2.4-2.1-3.6-3
		c-2.1-1.7-4.2-3.4-6.4-5c-2-1.5-4.1-2.9-6.2-4.3c-2-1.4-4-2.8-6-4.2c-1.8-1.2-3.7-2.3-5.4-3.7c-1.7-1.3-3.4-2.7-4.8-4.3
		c-1.2-1.3-2.3-2.6-3.2-4.1c-1.1-1.9-1.9-3.9-2.6-6c-0.7-2.2-1.1-4.6-1.4-6.9c-0.3-2.8-0.1-5.6-0.4-8.4c-0.3-3-0.9-5.9-1.6-8.8
		c-0.5-1.9-1.3-3.7-1.7-5.6c-0.2-1-0.5-2-0.3-2.9c0.1-0.6,0.2-1.2,0.6-1.7c0.3-0.3,0.8-0.6,1.3-0.5c1.8,0.1,3.3,1.6,4.7,2.6
		c2.4,1.7,4.3,3.9,6.4,6c1.9,1.9,3.9,3.8,5.6,6c2.1,2.7,3.6,5.7,5.5,8.5c1.9,2.9,3.7,5.8,5.9,8.5c1.9,2.4,4,4.7,6.1,6.9
		c2,2.1,4.2,3.9,6.1,6c2,2.1,4,4.2,5.7,6.5c1.6,2.1,2.8,4.4,4.2,6.6c1.3,2.2,2.6,4.4,4,6.6c0.9,1.4,1.9,2.8,2.7,4.3
		c1,1.7,1.8,3.6,2.7,5.4c0.3,0.7,0.7,1.4,1,2.1c0.4,0.7,0.9,1.3,1.1,2.1c0.2,0.8,0.1,1.7-0.2,2.5c-0.2,0.5-0.6,0.9-1,1.3
		c-0.4,0.3-0.8,0.6-1.3,0.6c-0.9,0.1-1.9-0.4-2.7-0.9c-1.2-0.7-2.1-1.8-3.2-2.7c-2.1-1.7-4.3-3.3-6.4-5
		C-1728.8-229.5-1730.5-231.1-1732.3-232.6L-1732.3-232.6z M-1695.3-195.2v-9.1h43.9c0,0,0.5-5.6,0-8.3c-0.3-1.6-1-3.2-1.9-4.6
		c-0.9-1.4-2.3-2.5-3.6-3.6c-2-1.8-4.1-3.6-6.3-5.3c-2.9-2.1-6-3.9-9-5.8c-3.1-2-6.3-4-9.4-6c-3.8-2.4-7.8-4.5-11.5-7.1
		c-3.6-2.5-7-5.2-10.3-8c-1.6-1.4-3.2-2.8-4.7-4.3c-2.1-2-4.2-4-6.3-6c-1.9-1.8-3.8-3.5-5.5-5.3c-3-3.1-5.8-6.4-8.6-9.7
		c-2.8-3.3-5.3-6.9-8.1-10.1c-1.8-2.1-3.9-3.9-5.7-6c-2.1-2.4-3.9-5.1-5.9-7.6c-2.7-3.3-5.4-6.5-8.2-9.7c-2.9-3.3-5.9-6.5-8.8-9.8
		c-1.7-1.8-3.3-3.7-5-5.5c-2.7-3.1-5-6.6-7.9-9.5c-1.8-1.8-3.9-3.2-5.9-4.8c-2.3-2-4.5-4.1-6.9-5.9c-1.9-1.5-4-2.9-6-4.2
		c-1.4-0.9-2.8-2-4.3-2.8c-1.5-0.7-3.2-1.2-4.8-1.7c-1.1-0.3-2.3-0.7-3.5-0.8c-1.3-0.1-2.6,0.2-3.8,0.5c-0.7,0.2-1.5,0.3-2.2,0.7
		c-0.4,0.3-0.7,0.7-1,1.1c-0.5,0.7-1.1,1.5-1.3,2.4c-0.3,1.8,0.2,3.6,0.6,5.4c0.9,3.8,2.6,7.3,4,11c1.6,4.2,3.3,8.3,4.9,12.5
		c1.8,4.9,3.2,10,5,15c2.3,6.5,4.9,13,7.1,19.5c0.7,1.9,1.3,3.8,1.9,5.7c0.4,1.4,0.9,2.8,1.3,4.3c0.6,2.1,1.2,4.2,1.7,6.4
		c0.5,2.4,0.7,4.9,1.2,7.3c0.4,2.1,1.2,4,1.6,6.1c0.2,1.5,0.3,3,0.4,4.5c0.1,1.8,0,3.5-0.1,5.3c0,0.7,0,1.4-0.1,2.1
		c-0.2,1.3-0.6,2.6-1,3.8c-0.4,1-0.9,1.9-1.3,2.9c-0.6,1.4-1.1,2.9-1.9,4.2c-0.7,1.1-1.8,1.9-2.7,2.9c-4.4,4.5-8.6,9.2-13.4,13.3
		c-1.8,1.5-3.7,2.8-5.7,4c-1.7,1-3.5,1.7-5.2,2.5c-1.7,0.8-3.4,1.7-5.3,2.3c-5.2,1.7-10.6,2.4-15.9,3.6c-2.6,0.6-5.2,1.3-7.8,1.8
		c-1.9,0.4-3.9,0.6-5.8,1c-2.3,0.5-4.6,1.4-6.9,2c-1.9,0.5-3.9,0.9-5.8,1.5c-1.8,0.5-3.6,1.1-5.4,1.9c-2.4,1-4.7,2.5-7,3.6
		c-2.5,1.2-5,2.4-7.6,3.4c-2.2,0.9-4.5,1.6-6.8,2.3c-2.3,0.8-4.6,1.7-7,2.4c-3.3,1-6.7,1.9-10,2.6c-1.6,0.3-3.2,0.2-4.7,0.6
		c-2.1,0.6-4.1,1.4-6.1,2.5c-1.8,0.9-3.6,1.8-5,3.2c-1,1-1.6,2.4-2.3,3.7c-0.6,1.1-1.4,2.2-1.7,3.5c-0.4,1.5-0.3,3.2-0.3,4.8
		c0.1,1.1,0.1,2.3,0.6,3.3c0.5,1.3,1.4,2.4,2.3,3.4c0.9,1,1.9,1.7,2.9,2.6c0.9,0.8,1.8,1.6,2.9,2.2c1.7,1,3.6,1.7,5.5,2.3
		c2.3,0.7,4.8,0.7,7.2,1.2c3.4,0.7,6.7,1.6,10.1,2.4c2.5,0.6,5,1.1,7.4,1.6c1.9,0.4,3.7,0.8,5.6,1.2c3.4,0.7,6.7,1.4,10.2,1.9
		c2.2,0.3,4.4,0.4,6.7,0.7c4.3,0.5,8.6,1.4,13,1.8c3.3,0.3,6.5,0.5,9.8,0.6c6.6,0.1,13.3-0.1,19.9-0.4c5.5-0.2,11.1-0.5,16.6-1
		c10.4-0.9,20.7-2,31-3.9c5.5-1,11-2.6,16.4-3.9c5.2-1.2,10.6-2.1,15.7-3.8c4.7-1.5,9.2-3.6,13.8-5.5c4.6-1.9,9.1-4.2,13.8-6
		c4.1-1.6,8.4-2.8,12.6-4.2c3.1-1.1,6.1-2.5,9.3-3.3c2.6-0.7,5.3-1,8-1.4c2.1-0.3,4.1-0.7,6.2-0.9c2.7-0.3,5.5-0.5,8.3-0.7
		c2.2-0.2,4.3-0.6,6.5-0.8c2-0.2,4.2,0,6.1-0.7c1.9-0.6,3.8-1.5,5.2-2.9c1.2-1.2,1.7-2.8,2.4-4.3c0.5-1,1-2,1.4-3.1
		c0.5-1.4,1.6-3,1.1-4.5c-0.5-1.2-3.4-2.2-3.4-2.2L-1695.3-195.2z"/>
	
		<path id="path3738" inkscape:connector-curvature="0" sodipodi:nodetypes="cccsssssssssssssssssssssssssssssssssssssscccsssssssssssssccccsssssssssssssssccccssssssssssssssssssssccccssssssssssssssssssssccccssssssssssssscccccsc" class="st0" d="
		M-2025.7,546.2l0,8.7l20,0c0,0,0.6,2.3,0.9,3.1c0.6,1.4,1,2.9,1.8,4.2c1,1.6,2.5,2.8,3.9,4.1c1.9,1.6,3.9,3.2,6,4.4
		c4,2.3,8.4,3.7,12.6,5.5c2.5,1.1,4.9,2.3,7.5,3.3c3.2,1.2,6.4,2.3,9.8,3.2c2.7,0.7,5.5,1.3,8.3,1.6c2.2,0.2,4.5,0.3,6.8,0.1
		c3.6-0.2,7.2-0.5,10.6-1.5c1.7-0.5,3.2-1.3,4.7-2.2c1.6-0.9,3.1-2.1,4.5-3.3c1.8-1.5,3.4-3.2,4.9-5c1.2-1.5,2.2-3.2,3.1-4.8
		c0.7-1.3,1.2-2.7,1.7-4c0.7-1.7,1.4-3.3,1.8-5c0.4-1.4,0.5-2.9,0.6-4.4c0.1-1.4,0.3-2.8,0.2-4.2c-0.1-2.1-0.5-4.2-1-6.3
		c-0.3-1.2-0.7-2.4-1-3.5c-0.2-0.7-0.4-1.4-0.6-2c-0.6-1.6-1.2-3.2-2.1-4.7c-0.9-1.5-2.1-2.8-3.2-4.1c-1.4-1.7-2.8-3.4-4.6-4.9
		c-1-0.9-2.2-1.5-3.4-2.2c-1.5-0.9-3-1.8-4.6-2.5c-1.3-0.6-2.7-1.2-4-1.5c-2.1-0.6-4.3-0.9-6.5-1c-2-0.1-4,0.2-6,0.3
		c-2.6,0.2-5.1,0.4-7.7,0.8c-1.9,0.3-3.8,0.5-5.7,1c-2.5,0.6-5,1.6-7.4,2.4c-3.1,1.1-6.3,2.1-9.3,3.4c-2.6,1.1-5,2.7-7.6,3.9
		c-1.9,0.9-4.1,1.5-5.9,2.6c-1.4,0.9-2.7,2-3.9,3.2c-1,1-2.1,2.1-2.7,3.4c-0.9,1.7-0.7,3.7-1.5,5.4c-0.4,0.7-0.5,2.6-0.5,2.6
		L-2025.7,546.2z M-2022.7,582.5c-2.6-1.7-3.8-4.9-5.6-7.5c-1.3-1.9-2.2-4.1-3.6-6c-1.6-2.1-3.9-3.7-5.6-5.8
		c-1.2-1.5-2.6-2.9-3.4-4.7c-1-2.3-1.4-4.8-1.5-7.2c-0.1-2.1,0-4.2,0.6-6.2c0.6-2.1,1.8-3.9,3-5.7c0.7-1.1,1.7-2,2.5-3
		c0.9-1.1,1.7-2.1,2.6-3.2c1-1.2,2.2-2.2,2.9-3.6c0.6-1,0.7-2.2,1.1-3.3c0.4-1,0.8-2,1.4-2.9c0.9-1.4,2-2.6,3.3-3.6
		c1-0.7,4.3-2.7,4.3-2.7l13.4,0.1l-0.2-8.7h-10c0,0-3.1-0.7-3.1-1.2c0-0.8,0.3-1.6,0.8-2.3c0.5-0.7,1.3-1.3,2-1.7
		c0.7-0.5,1.6-0.8,2.4-1c1.6-0.4,3.2-0.5,4.9-0.6c2.4-0.2,4.7-0.3,7.1-0.3c1.4,0,2.7,0.2,4.1,0.2c1,0,2.1,0.2,3.1,0.1
		c1.4-0.2,2.8-0.7,4.1-1.2c1.1-0.4,2.1-1,3-1.6c1.4-0.8,2.6-1.9,3.9-2.8c1.4-1,2.8-2,4.2-3c1.5-1.1,2.9-2.4,4.4-3.5
		c0.9-0.7,1.8-1.4,2.9-1.9c0.6-0.3,1.2-0.5,1.8-0.6c1-0.1,3.1,1.8,3.1,1.8l0.1,10.9l8.7-0.1l-0.2-11.9c0,0,1.2-2.3,2.1-3
		c1.5-1.1,3.2-1.8,4.9-2.7c1.1-0.6,2.1-1.3,3.2-1.7c1.4-0.4,2.8-0.5,4.2-0.6c2.6-0.2,5.1-0.2,7.7-0.1c1.9,0.1,3.9,0.1,5.8,0.4
		c2.2,0.4,4.3,1,6.3,1.9c1.6,0.7,3.1,1.6,4.6,2.5c1.9,1.3,3.6,2.7,5.2,4.3c1.5,1.5,2.7,3.2,4.2,4.7c2.4,2.2,5.1,4.2,7.8,6.1
		c3.1,2.2,6.9,3.5,9.6,6.1c2.1,2,3.6,4.5,5,7c1,1.8,1.8,3.8,2.3,5.8c0.5,1.7,0.7,3.6,0.8,5.3c0.3,2.4,0.4,4.9,0.4,7.3
		c0,1.5-0.2,3-0.3,4.4c-0.1,1.5,0,3,0,4.6c0,1.2,0.2,2.4,0,3.6c-0.1,0.7-0.3,1.5-0.8,2.1c-0.4,0.5-1.4,0.3-1.4,0.3l-10.6,0.1
		l0.3,8.7l9.1-0.1c0,0,3.4,1.9,3.7,2.5c1.6,2.9,0.1,6.6,0.2,10c0,2.9,0.2,5.8,0.1,8.7c-0.1,1.7-0.3,3.5-0.6,5.2
		c-0.3,1.6-0.6,3.1-1.1,4.6c-0.5,1.4-1.3,2.7-2.1,4c-1.1,1.8-2.2,3.6-3.5,5.2c-0.9,1.1-1.9,2.2-3.1,3.2c-1.8,1.4-3.8,2.4-5.8,3.6
		c-1.9,1.1-3.9,2.1-5.6,3.4c-1.6,1.3-2.9,2.9-4.3,4.3c-1.6,1.6-3.2,3.3-4.8,4.9c-0.8,0.8-1.7,1.5-2.6,2.2c-1,0.8-2,1.6-3.1,2.2
		c-2.2,1.2-4.5,2.2-7,2.9c-1.6,0.4-3.3,0.4-4.9,0.7c-1.6,0.2-3.2,0.7-4.8,0.6c-1.8,0-3.6-0.5-5.3-0.9c-1.9-0.4-3.8-0.9-5.6-1.7
		c-1.5-0.6-2.8-1.5-4.2-2.4c-1.6-1-5.7-2.7-5.7-2.7l-0.2-15.4l-8.7,0.1l0.2,12.2c0,0-0.5,2-1.3,2.1c-0.9,0.1-1.8,0.2-2.6-0.2
		c-1.1-0.5-1.7-1.7-2.6-2.5c-1.6-1.4-3.1-2.9-4.9-4.1c-1.7-1.1-3.7-1.8-5.4-2.9c-1.5-1-2.6-2.7-4.2-3.4c-1.7-0.8-3.7-0.7-5.6-0.8
		c-1.8-0.1-3.5,0.2-5.3,0.1c-2.2,0-4.4-0.2-6.6-0.4c-1.5-0.2-3-0.5-4.5-0.7c-1.1-0.2-2.3-0.1-3.3-0.5c-1.1-0.4-2.1-1.2-3-2
		c-0.9-0.8-1.8-1.6-2.2-2.7c-0.2-0.5-0.2-1,0-1.5c0,0,0.7-1.2,1.7-0.9l11-0.1l-0.4-8.7h-9.1C-2016.7,582.8-2022,583-2022.7,582.5
		L-2022.7,582.5z"/>
	
		<path id="path4218" inkscape:connector-curvature="0" sodipodi:nodetypes="cssssssssssssssssssssssssssssssssssssssssssssscccc" class="st0" d="
		M-2712.1-204.3c0,0-2.3-1.1-2.4-1.5c-0.2-0.6-0.1-1.3,0.2-1.8c1-1.6,3.1-2.1,4.6-3.1c2.2-1.5,4.5-2.7,6.5-4.4
		c2-1.7,3.7-3.8,5.5-5.8c1.4-1.5,2.7-3.3,4.3-4.7c1.4-1.3,3-2.4,4.5-3.4c2.5-1.6,4.9-3.4,7.7-4.5c2.7-1.1,5.7-1.4,8.6-1.9
		c2.7-0.5,5.5-0.9,8.3-1.1c4.6-0.3,9.2-0.2,13.8-0.1c3.8,0,7.7,0,11.5,0.4c2,0.2,4.1,0.2,6,1c2.3,0.9,4.2,2.6,6.1,4.2
		c2.3,1.9,4.2,4.3,6.3,6.4c2.6,2.6,4.9,5.5,7.7,7.9c1.8,1.6,4.1,2.6,6,4.1c2.1,1.6,3.7,3.9,6,5.3c1.4,0.9,3,1.6,4.7,2.1
		c2.2,0.7,4.5,0.5,6.7,1.1c1.3,0.4,2.8,0.5,3.7,1.5c0.7,0.7,1.1,1.9,0.9,2.8c-0.2,0.8-1,1.3-1.7,1.8c-0.6,0.4-1.2,0.7-1.9,1
		c-1.5,0.5-3.1,0.4-4.6,0.7c-1.9,0.4-3.7,0.8-5.5,1.5c-1.7,0.7-3.2,1.6-4.7,2.6c-1.9,1.2-3.7,2.7-5.5,4.1c-2.5,2-5,3.9-7.3,6.1
		c-2.1,2-3.9,4.2-5.8,6.4c-0.9,1.1-1.7,2.3-2.6,3.3c-0.9,0.9-1.8,1.8-2.8,2.5c-1.4,0.9-2.9,1.5-4.4,2.1c-1.8,0.8-3.6,1.6-5.4,2
		c-2.7,0.6-5.6,0.7-8.4,0.9c-3,0.2-6,0-9,0.1c-4.2,0-8.5,0.4-12.7,0.1c-2-0.1-4-0.5-5.9-0.9c-3.3-0.7-6.7-1.3-9.8-2.5
		c-2.5-1-4.9-2.2-7-3.8c-2.9-2.2-5-5.2-7.4-7.8c-1.5-1.5-2.8-3.2-4.4-4.6c-1.9-1.7-4.2-3-6.3-4.5c-1.7-1.3-3.9-2.1-5.2-3.8
		c-0.5-0.6-1-1.5-0.7-2.2c0.3-0.7,3-0.7,3-0.7h80.7v-8.7L-2712.1-204.3z"/>
	
		<path id="path4572" inkscape:connector-curvature="0" sodipodi:nodetypes="sssssssssssssssssssssssssssssssssscccssssccccssssssssssccccssssssssssssssccccssssssssssccccssssssssccccssssssssssssssssccccssssssssssccccssssscc" class="st0" d="
		M-2186.8,533.4c-1.4,1-2.8,2-4.1,3.1c-1.7,1.5-3.2,3.2-4.6,4.9c-0.8,1-1.8,1.9-2.4,3.1c-0.7,1.6-1,3.3-1.1,5c-0.1,2,0,4.1,0.7,5.9
		c0.6,1.4,1.8,2.5,2.7,3.8c0.9,1.2,1.6,2.6,2.7,3.7c2,2,4.4,3.5,6.7,5.1c2.5,1.8,5.2,3.5,7.8,5.2c2.3,1.5,4.6,3.1,7,4.4
		c3.1,1.5,6.3,2.7,9.6,3.7c3.4,1,6.9,1.8,10.4,2.3c4.5,0.7,9.1,1,13.6,1c3.1,0,6.3,0,9.4-0.8c1.9-0.5,3.7-1.4,5.3-2.5
		c2.2-1.5,4.3-3.4,5.8-5.6c1.4-2,2.2-4.4,2.9-6.8c1-3.2,1.4-6.6,1.9-9.9c0.3-2.3,0.7-4.6,0.7-6.9c0.1-2.5-0.1-5.1-0.4-7.6
		c-0.3-2.2-0.8-4.3-1.3-6.4c-0.5-2.3-0.9-4.7-1.8-6.8c-0.6-1.6-1.5-3-2.5-4.4c-0.9-1.4-1.9-2.9-3.1-4.1c-1.2-1.2-2.6-2.2-4.1-2.9
		c-1.6-0.8-3.3-1.3-5.1-1.7c-2.4-0.5-4.9-0.6-7.4-0.8c-2.3-0.1-4.7-0.2-7-0.1c-2.8,0.1-5.6,0.4-8.3,0.9c-3.5,0.7-7,1.8-10.4,2.9
		c-2.3,0.8-4.7,1.6-6.9,2.6c-3.4,1.5-6.6,3.4-9.7,5.3C-2182.3,530.4-2184.6,531.8-2186.8,533.4L-2186.8,533.4z M-2223.5,546.2l0,8.7
		l-9.6,0c0,0-0.2,3,0.6,5c1.8,4.4,5,8.1,7.7,12c1.2,1.8,2.6,3.4,3.9,5.1c1.2,1.5,2,3.4,3.5,4.6c1.1,0.9,5.9,1.3,5.9,1.3l11.7-0.1
		l0.3,8.7l-9.2,0c0,0-2.1,2.2-2.2,2.9c-0.1,0.7,0.3,1.3,0.6,1.9c0.9,1.4,2.2,2.5,3.7,3.2c1.7,0.8,3.8,0.7,5.7,0.9c3,0.2,6,0,8.9,0.2
		c2.2,0.1,4.4,0,6.4,0.6c2.7,0.8,5,2.6,7.6,4c1.8,1,3.6,2,5.4,3c1.6,0.9,3.4,1.4,5,2.5c1.9,1.2,2.9,4.1,5.2,4.4
		c0.7,0.1,2.4-2.6,2.4-2.6l-0.1-12.4l8.7,0l0.1,11.1c0,0,1,4.7,1.8,5.6c1.8,2,4.8,2.6,7.1,4.1c2.1,1.3,4,3.1,6.2,4.1
		c2.8,1.2,5.8,1.8,8.8,2.1c2.6,0.3,5.2,0.1,7.8-0.2c3.6-0.4,7.4-0.5,10.7-2.1c3-1.4,5.3-4,7.6-6.3c1.4-1.4,2.7-3.1,3.9-4.7
		c1.4-1.8,2.6-3.7,3.8-5.7c0.9-1.5,1.5-3.2,2.7-4.5c0.7-0.8,1.7-1.5,2.6-2.1c1.6-1,3.3-1.7,4.9-2.6c1-0.5,2.2-0.8,3-1.6
		c0.6-0.7,1.2-1.8,1-2.8c-0.1-0.5-2.2-2.9-2.2-2.9l-6.8,0l0-8.7l7.4,0c0,0,3.8,0.6,4.3-0.3c0.8-1.4,0.7-3.3,1.7-4.6
		c0.8-1.2,2.2-1.8,3.2-2.8c0.7-0.7,1.7-1.3,2.1-2.3c0.4-0.8,0.7-1.9,0.4-2.7c-0.3-0.7-1-1.3-1.7-1.6c-0.8-0.3-1.7,0.6-2.5,0.3
		c-1.1-0.5-1.8-1.8-2.3-2.9c-0.5-1.2-0.2-2.5-0.4-3.7c-0.2-1.6,0-3.3-0.9-4.6c-0.4-0.7-2.3-2.8-2.3-2.8l-8.4,0l0-8.7l9.6,0.1
		c0,0,1.5-1,1.8-2.1c0.7-2.1-0.1-4.5,0.5-6.6c0.3-0.9,0.6-1.9,1.4-2.5c0.9-0.8,2.4-0.6,3.4-1.3c1-0.7,2.4-1.7,2.4-3
		c0-0.8-0.8-1.4-1.4-1.9c-1-1-2.4-1.4-3.3-2.5c-1-1.1-1.5-2.6-2.2-4c-0.6-1.2-2.8-5.4-2.8-5.4l-9.5,0l0-8.7l7.5,0c0,0,2.4-0.3,2.5-1
		c0.1-0.9-0.6-1.8-1.3-2.3c-1.2-1-3-0.7-4.4-1.3c-1.6-0.6-3.3-1.1-4.6-2.2c-2.6-2.1-3.9-5.4-5.8-8.1c-1-1.4-1.7-2.9-2.8-4.2
		c-1.1-1.3-2.6-2.3-3.6-3.6c-0.8-1.1-1-2.5-1.9-3.5c-1.1-1.1-2.7-1.6-4.1-2.3c-2.1-1-4.4-1.9-6.6-2.6c-1.6-0.5-3.1-0.8-4.7-1.1
		c-1.8-0.3-3.6-0.5-5.4-0.6c-1.7-0.1-3.4-0.1-5.1,0.2c-2.5,0.3-4.9,1-7.3,1.8c-2,0.7-3.9,1.6-5.8,2.5c-1.5,0.7-3.2,1.2-4.5,2.3
		c-1.9,1.4-5.1,4.3-5.1,4.3l0.1,15.4l-8.7,0l-0.1-10.6c0,0-0.4-4.4-1.1-4.5c-2.6-0.3-4.6,2.7-6.9,3.9c-2.2,1.2-4.5,2.2-6.7,3.3
		c-3.4,1.7-6.6,4.1-10.3,5.3c-1.3,0.4-2.7,0.5-4,0.7c-2.1,0.2-4.1,0.1-6.2,0.2c-2.1,0.1-4.3,0.2-6.4,0.4c-1.8,0.2-3.6-0.1-5.2,0.6
		c-1.2,0.6-2.2,1.7-2.9,2.8c-0.6,0.8-1.2,1.8-1.1,2.7c0,0.7,3.9,1.5,3.9,1.5l7.5,0l0,8.7l-9.6,0c0,0-3-0.1-5.3,0.8
		c-1.9,0.7-3.6,2-5.1,3.5c-1.3,1.4-2,3.3-3.1,4.9c-1.7,2.4-3.7,4.6-5.4,7.1c-2.5,3.5-5.2,7-6.9,11c-0.2,0.5,3.6,1.7,3.6,1.7
		L-2223.5,546.2z"/>
	
		<path id="path4686" inkscape:connector-curvature="0" sodipodi:nodetypes="cccsssssssssssssssssssssssssssssssssssssssssssssssssscc" class="st0" d="
		M-2528.6-195.6v-8.7l53.4-0.2c0,0,2.3,0.2,3.1-0.4c0.8-0.5,1.2-1.5,1.4-2.4c0.3-1.3-0.1-2.7-0.4-3.9c-0.9-3.2-2.9-6-4.4-9
		c-0.9-1.8-1.7-3.6-2.6-5.3c-1-1.9-1.9-4-3.3-5.6c-1.8-2.2-4.2-3.8-6.5-5.5c-1.5-1.2-3-2.4-4.8-3.2c-2.1-0.9-4.4-1.3-6.7-1.5
		c-2.7-0.2-5.4-0.1-8.1,0.3c-2.4,0.4-4.7,1.3-7.1,1.9c-2.2,0.6-4.3,1.7-6.6,2.1c-1.8,0.3-3.7,0.7-5.5,0.2c-2.1-0.5-3.8-2.2-5.7-3.3
		c-1.3-0.7-2.4-1.7-3.8-2.3c-1.6-0.7-3.2-1.3-4.9-1.4c-1.8-0.1-3.6,0.5-5.4,1.1c-1.9,0.7-3.9,1.4-5.5,2.7c-1.8,1.6-3.2,3.7-4.1,5.9
		c-0.5,1.3-0.4,2.8-0.7,4.2c-0.2,1.2-0.1,2.5-0.8,3.5c-0.9,1.2-2.7,1.4-3.8,2.4c-1.3,1.2-2,2.9-3.1,4.3c-1.1,1.4-2.3,2.7-3.3,4.2
		c-1.1,1.7-2.3,3.3-3.1,5.2c-0.9,2.1-1.6,4.3-1.9,6.5c-0.3,2.4-0.2,4.9,0.3,7.3c0.5,2.5,1.4,4.8,2.4,7.1c0.9,2.2,1.9,4.5,3.3,6.5
		c1.3,1.8,2.8,3.4,4.5,4.8c1,0.8,2.4,1,3.1,2c0.9,1.1,1.2,2.7,1.6,4.1c0.4,1.3,0.2,2.7,0.7,3.9c0.9,2.2,2.5,4.1,4.1,5.9
		c1.4,1.5,2.9,2.8,4.7,3.8c1.6,0.9,3.4,1.5,5.2,1.8c1.7,0.2,3.5,0.2,5.1-0.3c2.1-0.5,4.1-1.6,5.9-2.9c0.9-0.6,1.4-1.7,2.3-2.3
		c1.1-0.8,2.4-1.5,3.8-1.7c1.8-0.3,3.7,0.1,5.5,0.5c2,0.4,3.9,1.1,5.8,1.7c2.6,0.8,5.1,1.9,7.8,2.4c2,0.4,4.1,0.8,6.1,0.6
		c2.7-0.3,5.4-1.1,7.8-2.3c3-1.4,5.8-3.3,8.2-5.5c2.3-2.2,4.1-4.9,5.9-7.5c1.9-2.7,3.8-5.5,5.1-8.5c0.8-1.7,1.1-3.6,1.6-5.4
		c0.4-1.7,1.2-3.4,0.9-5.1c-0.2-1.1-1.8-2.9-1.8-2.9L-2528.6-195.6z"/>
	<path id="path4758" inkscape:connector-curvature="0" sodipodi:nodetypes="ssssssssssssssssccccssssssssssssss" class="st0" d="
		M-2431.6-183.1c-1.2-1.7-1.9-3.8-2.6-5.8c-0.8-2.2-1.3-4.5-1.7-6.8c-0.3-1.8-0.7-3.6-0.5-5.3c0.2-2.5,1.1-4.9,2-7.2
		c1-2.3,2.3-4.6,3.8-6.5c2.3-2.8,5-5.3,7.9-7.4c2.2-1.6,4.7-2.8,7.2-3.9c2.5-1.1,5.2-1.9,7.9-2.7c4.1-1.1,8.2-2,12.4-2.7
		c2.5-0.4,5-0.9,7.5-0.9c4,0,8.1,0.4,11.9,1.6c2.2,0.7,4.3,1.9,6.1,3.3c2.7,2.1,4.8,4.8,6.8,7.5c1.6,2.1,2.9,4.3,4,6.7
		c0.8,1.7,1.4,3.6,1.9,5.4c0.3,1.2,0.5,3.7,0.5,3.7h-50.7v8.7h49.3c0,0,2,1.2,2.4,2c0.9,1.8-1.1,3.9-2,5.7c-1.1,2.4-2.5,4.6-3.9,6.8
		c-1.2,1.8-2.4,3.7-3.9,5.3c-1.3,1.4-2.8,2.7-4.4,3.8c-1.7,1.3-3.6,2.4-5.5,3.4c-1.7,0.9-3.4,1.7-5.3,2.3c-2,0.6-4,0.7-6,0.9
		c-1.7,0.2-3.5,0.3-5.2,0.2c-2.5-0.2-5.1-0.8-7.5-1.3c-3.6-0.8-7-1.9-10.5-2.9c-2.8-0.8-5.8-1.1-8.4-2.4c-2.9-1.4-5.2-3.7-7.7-5.8
		C-2427.7-179.3-2430-180.9-2431.6-183.1z"/>
	
		<path id="path4876" inkscape:connector-curvature="0" sodipodi:nodetypes="csssssssssssssszccccsssssssssssssssssssssssssssssssssssssc" class="st0" d="
		M-1170.9-150.5c2.8,0.7,5.3,2.1,8.1,2.6c3.4,0.7,6.8,1,10.2,1c2.2,0,4.5-0.1,6.7-0.5c3.2-0.7,6.3-1.7,9.1-3.3
		c1.4-0.8,2.3-2.3,3.7-3.1c1.3-0.8,2.9-0.9,4.2-1.6c1.2-0.6,2.3-1.4,3.2-2.3c1.2-1.2,1.9-2.9,3-4.2c1.1-1.3,2.4-2.3,3.6-3.5
		c1.1-1.1,2.4-2.2,3.2-3.5c1-1.7,1.3-3.6,1.8-5.4c0.6-2.4,0.4-5,1.3-7.3c0.8-2.1,2.9-3.6,3.8-5.8c0.7-1.7,1.8-1.9,1.6-3.7
		c-0.1-1,0.1-2.1-1.2-2.9c-1.3-0.8-6.8-1.3-6.8-1.3l-96.1,0l-0.1-8.7h96.3c0,0,4.9-1.4,5.9-2.4c0.8-0.8,0.9-2.1,0.8-3.1
		c-0.2-5.4-3.5-10.3-5.1-15.5c-0.5-1.6-0.8-3.2-1.4-4.7c-1.1-2.7-2.5-5.3-4.2-7.6c-1.8-2.3-3.9-4.4-6.3-6.2c-2.7-2-5.8-3.3-8.8-5
		c-1.9-1.1-3.6-2.5-5.6-3.2c-2.7-1-5.6-1.2-8.4-1.4c-3.1-0.3-6.2-0.2-9.2,0c-2.1,0.1-4.3,0.2-6.4,0.7c-3,0.7-5.7,2.2-8.6,3
		c-1.6,0.5-3.3,0.8-5,1.1c-2.5,0.3-5.1,0.5-7.6,0.5c-2.1,0-4.2-0.7-6.3-0.4c-2.2,0.3-4.2,1.3-6.2,2.2c-2.7,1.2-5.3,2.7-7.7,4.3
		c-2.3,1.6-4.2,3.8-6.6,5.4c-1.5,1-3.3,1.6-4.7,2.7c-3.1,2.4-5.6,5.5-8.1,8.6c-2.1,2.5-3.9,5.2-5.7,7.9c-1.4,2.2-2.7,4.6-3.9,6.9
		c-0.9,1.6-1.9,3.2-2.5,5c-0.8,2.6-1.4,5.4-1.2,8.1c0.2,2.2,1.4,4.2,2.2,6.3c1,2.4,2.2,4.7,3.4,7.1c1.1,2.2,2.1,4.4,3.5,6.5
		c1.4,2,3,3.8,4.8,5.5c1.9,1.8,4.2,3.2,6.3,4.9c1.7,1.4,3.2,3.1,4.9,4.4c1.7,1.3,3.5,2.4,5.3,3.7c2.4,1.6,4.5,3.6,7.1,4.9
		c2.1,1.1,4.3,1.7,6.6,2.3c2.1,0.6,4.3,1.5,6.5,1.5c1.4,0,2.6-0.8,4-1.1c1.1-0.3,2.1-0.6,3.2-0.6
		C-1177.1-152.3-1174-151.3-1170.9-150.5L-1170.9-150.5z"/>
	
		<path id="path5158" inkscape:connector-curvature="0" sodipodi:nodetypes="sssssssssssssssssssssssccccsssssssssssssssssssssssssssssssssssssssssssssssssssssssssssssssssssssssssssssssssssssscsssssssssssssssssssssssscc" class="st0" d="
		M-1437.2-17.7c5.1-2.4,9.8-5.4,14.6-8.2c4.5-2.7,9-5.3,13.3-8.3c5.2-3.5,10.1-7.4,15.1-11.3c2.5-1.9,5.1-3.7,7.3-5.9
		c4.3-4.4,7.4-9.7,11.1-14.6c2.8-3.6,5.7-7.1,8.3-10.8c2.8-4,5.4-8.1,7.8-12.4c1.8-3.2,3.3-6.5,5.1-9.8c1.4-2.5,2.9-5,4.3-7.6
		c2-3.5,3.7-7.1,5.9-10.4c2.1-3.3,4.4-6.6,6.9-9.6c2.4-2.9,5.1-5.6,7.9-8.2c4-3.6,8.1-7.1,12.7-9.9c4.3-2.7,9.4-3.9,13.9-6.4
		c4.6-2.5,8.5-6.2,13-8.6c4.2-2.3,8.9-3.6,13.3-5.7c2.7-1.3,5.4-2.5,7.9-4.1c2.6-1.7,4.8-3.8,7.2-5.7c1.4-1.1,3-2,4.2-3.4
		c1.1-1.3,1.8-2.8,2.4-4.3c0.4-1.1,0.8-2.2,0.9-3.4c0.2-2.5,0.6-5.4-1-7.4c-1.1-1.4-11-2.1-11-2.1h-33v-8.7h33c0,0,9.7-1.3,9.9-2.3
		c0.4-2-0.5-4.2-1.2-6.1c-0.9-2.2-1.9-4.5-3.7-6.1c-2.2-1.9-5.4-2.7-8.2-3.5c-4.1-1.1-8.4-1.1-12.6-1.6c-3.9-0.5-7.8-0.7-11.6-1.3
		c-3.7-0.6-7.3-1.3-10.9-2.3c-2.7-0.7-5.4-1.7-8-2.7c-3.3-1.3-6.4-2.8-9.7-4.2c-5.5-2.3-11-4.6-16.5-6.7c-5.4-2.1-10.7-4.3-16.2-6.1
		c-5-1.7-10-3.6-15.1-4.7c-3.8-0.9-7.7-1.4-11.7-1.6c-6.5-0.3-13,0.3-19.4,0.8c-4.6,0.4-9.1,1.3-13.6,1.8c-3.5,0.4-7,0.6-10.6,0.9
		c-3.2,0.3-6.4,0.8-9.6,1c-6.2,0.5-12.3,0.5-18.5,0.8c-3.9,0.2-7.8,0.1-11.8,0.5c-3.7,0.3-7.3,0.7-10.9,1.4
		c-4.2,0.9-8.5,1.8-12.5,3.5c-2,0.9-3.8,2.1-5.7,3.3c-1.6,1.1-3.4,2-4.7,3.4c-1.3,1.3-2.6,2.8-3.2,4.6c-0.5,1.6-0.6,3.5-0.1,5.1
		c0.5,1.6,1.8,2.9,3.1,4.1c1.9,1.8,4.3,3,6.6,4.3c2.7,1.6,5.4,3.2,8.2,4.3c4.7,1.9,9.6,2.9,14.5,4.3c2.8,0.8,5.5,1.8,8.3,2.6
		c3.6,1,7.2,1.7,10.8,2.5c3.4,0.7,6.9,1.4,10.3,2c2.8,0.4,5.6,0.7,8.4,1c2.3,0.2,4.7,0.2,7,0.6c1.7,0.3,3.3,0.9,5,1.5
		c2.4,0.9,4.7,1.8,7,2.9c1.5,0.8,3.1,1.5,4.4,2.7c2.2,1.9,3.9,4.2,5.4,6.7c1.5,2.5,2.7,5.3,3.5,8.1c0.7,2.8,1,5.7,1,8.5
		c0,3.3-0.2,6.6-1.1,9.8c-1.2,4.1-3.8,7.7-5.6,11.6c-0.7,1.5-1.4,3-2.1,4.6c-0.8,1.9-1.6,3.9-2.3,5.9c-3.8,9.9-7.7,19.9-11.2,29.9
		c-3,8.7-5.3,17.5-8.3,26.2c-1.2,3.6-2.7,7.2-3.8,10.8c-1.4,4.8-1.8,9.9-3.6,14.5c-1.7,4.5-4.5,8.5-6.8,12.7
		c-2.2,4.1-4.4,8.4-6.8,12.4c-1.5,2.6-3.2,5.1-4.8,7.7c-0.8,1.4-1.9,2.6-2.3,4.1c-0.3,1.3-0.4,2.7,0.1,3.9c0.4,1,1.3,2,2.4,2.4
		c2.3,0.9,4.9,0.4,7.3-0.1C-1443.8-14.5-1440.5-16.2-1437.2-17.7L-1437.2-17.7z M-1336.4-215.4c-3-2.1-5.9-4.3-9-6.3
		c-2.4-1.5-4.8-3-7.4-4.2c-3-1.5-6.2-2.6-9.3-4c-4-1.8-7.7-4.2-11.9-5.6c-2.5-0.8-5.2-1.2-7.8-1.7c-2.6-0.4-5.1-0.9-7.7-1.1
		c-1.8-0.1-3.6,0-5.4,0.2c-2.9,0.3-5.7,0.7-8.5,1.3c-1.6,0.4-3.2,1-4.8,1.6c-2.8,0.9-5.6,1.7-8.3,2.8c-2.1,0.8-4.1,1.7-6.1,2.7
		c-1.8,0.9-3.7,1.7-5.3,3c-1.1,0.9-2.9,1.7-2.9,3.1c0,1.1,1.4,1.7,2.3,2.2c2.5,1.6,5.6,2.2,8.4,2.9c4.2,1,8.5,1.4,12.8,1.7
		c3.9,0.3,7.7,0.1,11.6,0.2c2.9,0,5.8-0.2,8.6,0.1c4.8,0.5,9.5,2,14.3,3c3.5,0.7,7,1.7,10.6,2.2c3.3,0.5,6.6,0.6,9.9,0.9
		c3.1,0.3,6.3,0.4,9.4,0.7c2.1,0.2,4.1,0.6,6.2,0.6c1,0,2.1,0,3-0.4c0.6-0.2,1.1-0.5,1.5-0.9c0.3-0.3,0.6-0.7,0.6-1.2
		c0-0.3-0.1-0.6-0.2-0.8C-1332.8-213.7-1334.8-214.3-1336.4-215.4L-1336.4-215.4z M-1326.3-171c-0.5,3.4-2.4,6.4-4.1,9.5
		c-1.2,2.2-2.6,4.3-4.1,6.2c-2,2.7-4,5.5-6.5,7.7c-1.8,1.5-4.2,2-6,3.5c-1.9,1.6-3.2,3.8-4.7,5.7c-1.9,2.3-3.7,4.6-5.7,6.8
		c-1.7,2-3.7,3.7-5.3,5.8c-0.7,1-1.2,2.1-2,3c-0.9,1-1.8,2-3,2.5c-0.9,0.3-2,0.5-2.9,0.1c-1.4-0.6-2.4-2-3-3.3
		c-0.8-1.6-0.4-3.5-0.8-5.2c-0.4-2.3-1.4-4.4-1.6-6.7c-0.2-2.3,0-4.7,0.4-7c0.4-2.5,0.6-5.2,1.9-7.5c1.3-2.3,3.5-4.2,5.7-5.7
		c2.4-1.6,5.2-2.2,7.9-3.3c3-1.3,6.1-2.6,9.1-4c1.7-0.7,3.5-1.3,5.1-2.2c2.1-1.2,4-2.9,6-4.3c1.6-1.2,3.3-2.3,4.9-3.5
		c1.2-0.9,2.2-2.1,3.6-2.6c1-0.3,2.2-0.4,3.2-0.1c0.6,0.2,1.2,0.5,1.5,1C-1326.1-173.6-1326.1-172.2-1326.3-171L-1326.3-171z"/>
	
		<path id="path5266" inkscape:connector-curvature="0" sodipodi:nodetypes="cccssssssssssssssssssssssccccssssccccssscc" class="st0" d="
		M-1553.4,319.6l0.2,8.8l12.1-0.3c0,0,1.7,0.6,2.2,1.3c1,1.4,0.8,4.2,1.1,5.9c0.5,2.5,1.5,3,1.7,5.6c0.1,0.9,0.3,2.1-0.3,2.8
		c-1.1,1.3-3.3,0.9-5,1.1c-8.1,0.9-17.9,1.1-24.5,0c-1-0.2-1.6-1.2-2-2.1c-1.3-3-0.4-4.4-0.5-7.7c-0.2-6.7-0.3-13.5-0.1-20.2
		c0.2-5.5,0.5-11,1.1-16.5c0.4-3.8,0.8-7.6,1.7-11.3c1.2-4.8,3.3-9.3,4.9-14c1.3-3.9,2.6-5,3.9-8.9c0.5-1.5,0.7-3.2,1.5-4.6
		c1-1.9,2.2-2.9,4.2-3.8c6.7-3.2,14.8-0.4,22.3-0.3c1,0,2.1,0,3.1,0.2c0.8,0.2,1.8,0.2,2.3,0.9c0.5,0.7,0.5,1.3,0.4,2.2
		c-0.1,1.1-0.5,1.5-1,2.5c-0.8,1.8-2.1,3.3-3.1,4.9c-0.7,1.2-1.1,0.7-2.2,1.7c-0.6,0.5-2.1,1.1-2.1,1.1h-13.5v8.7l10.1,0
		c0,0,2.1-0.2,2.4,0.6c0.7,1.5-0.9,2.4-1.4,4.1c-0.5,1.7-0.9,3.3-1.3,5c-0.4,1.6-0.2,3.4-1,4.9c-0.4,0.7-1.8,1.8-1.8,1.8l-12.7,0.2
		v8.7l12.5,0.2c0,0,0.5,2.1,0.6,3.2c0.1,2.8-0.8,4.7-1,7.4c-0.1,1.4,0.4,2.8-0.2,4.1c-0.4,0.8-1.9,1.8-1.9,1.8L-1553.4,319.6z"/>
	
		<path id="path5424" inkscape:connector-curvature="0" sodipodi:nodetypes="cssccccssssccccsssccccsssccccsssssssssssssssssssccsssssssssssc" class="st0" d="
		M-1525.3,734.7c-0.2-1.7-1.5-3.1-2.5-4.6c-1.2-1.9-2.3-4-4-5.3c-1.1-0.9-5.1-1.5-5.1-1.5h-15.4l0.1-8.8l8,0.1l5.1-0.1
		c0.7,0,0.8-1.3,0.8-2.1c-0.1-1.2-1.3-2.1-1.8-3.2c-1.6-3.3-2.8-2.4-4.1-5.9c-0.2-0.6-2.2-1.8-2.2-1.8h-15.4v-8.7l11.4-0.3
		c0,0,3.6-2.2,3.9-3.3c0.6-2.6-0.8-5.2-1.2-7.8c-0.3-1.7,0.2-4.3-0.7-5.8c-0.5-0.9-8.1-1-8.1-1h-9.1l-0.4-8.7h14
		c0,0,3.2-1.7,3.6-2.7c1-2-0.3-3.9-0.2-6.1c0.1-1.6,0.5-3.2,0.3-4.9c-0.1-1.2-1.2-3.3-1.2-3.3h-15.4v-8.7h15.4c0,0,2.6-1,3.3-1.6
		c1.1-1,1.2-2.7,1.8-4c1-2.2,2.2-2.2,3.1-4.4c0.4-1.1,1.2-2.1,1.1-3.3c-0.1-0.8-0.5-1.5-1.1-2c-0.7-0.6-1.8-0.7-2.7-0.9
		c-3.4-0.6-7-0.3-10.5-0.3c-2.1,0-4.2-0.1-6.2,0.2c-2.2,0.3-4.4,0.4-6.4,1.3c-1.9,0.9-3.5,2.6-5,4.1c-1.5,1.6-2.9,1.4-3.8,3.4
		c-1.3,2.8-1.7,5.9-2.4,8.9c-0.8,3.1-1.8,6.2-2.2,9.5c-0.4,3-0.3,6.1-0.3,9.1c0,3,0,6,0.2,8.9c0.1,1.7,0.2,3.4,0.5,5.2
		c0.4,2.9,1.1,5.7,1.7,8.5c0.4,1.7,0.8,3.4,1.2,5.2c0.3,1.6,0.8,3.3,1,5c0.3,2.8,0.3,5.7,0.3,8.5c0.1,4.5,1.2,6.9,1.5,8.3
		c0.5,1.9,0.9,3.9,1.7,5.7c0.9,2.1,2.1,4.1,3.3,6.1c1.1,1.9,2.2,3.9,3.6,5.7c1.1,1.4,2.5,2.7,3.8,4c1,1,1.8,2.2,2.9,3.1
		c1.6,1.3,3.3,2.4,5.2,3.1c1.8,0.7,3.7,0.8,5.6,1c3.2,0.3,6.3-0.1,9.5-0.1c3.4,0,6.9,0.1,10.3,0.2c0.8,0,1.7,0.5,2.3,0
		C-1525.1,737.7-1525.3,736-1525.3,734.7L-1525.3,734.7z"/>
	
		<path id="path5736" inkscape:connector-curvature="0" sodipodi:nodetypes="ssssssssssssssssssssssssssscssssssssssssccccssssssssssssccccsssssssssssssssccccssssssssssssccccsssssscccc" class="st0" d="
		M-2351.1,526.5c-4.7,2.3-9.1,5.2-13.3,8.3c-3.2,2.4-6.3,4.9-9,7.8c-1.7,1.8-3.6,3.6-4.4,6c-0.6,1.8-0.4,3.9,0,5.8
		c0.5,2.4,1.3,4.9,2.7,6.9c1.8,2.6,4.5,4.3,6.9,6.3c3.4,2.7,7,5.4,10.8,7.5c3,1.7,6.3,2.9,9.5,4c4.6,1.6,9.2,3.1,14,3.9
		c2.2,0.3,4.4,0.4,6.6,0.3c2.9-0.2,5.8-0.5,8.6-1.3c2.1-0.6,4.5-1.3,6.1-2.8c1.7-1.6,2.4-4.1,3.5-6.2c1.3-2.6,2.6-5.3,3.3-8.1
		c0.6-2.4,0.7-5,0.8-7.5c0.1-2.7,0-5.4,0-8.1c0-2,0.3-4,0-6c-0.3-2.5-1.4-4.8-2.1-7.2c-0.6-2.1-0.9-4.3-1.8-6.2
		c-0.8-1.8-2-3.6-3.4-5c-1-1.1-2.3-2-3.6-2.6c-1.4-0.7-3-0.9-4.5-1.1c-2.1-0.4-4.3-0.5-6.5-0.5c-2,0-4,0-6,0.2
		c-2.1,0.3-4.2,0.8-6.3,1.4C-2343.1,523.4-2347.3,524.7-2351.1,526.5L-2351.1,526.5z M-2276.8,508.6c0,0,1.8-0.3,1.9-1.2
		c0.1-1-0.6-2-1.3-2.8c-0.7-0.7-1.7-1.2-2.6-1.5c-1.7-0.6-3.6-0.2-5.3-0.8c-1.4-0.5-2.8-1.2-3.9-2.2c-2.2-1.9-3.3-4.6-5.2-6.7
		c-1.6-1.7-3.1-3.6-5.1-4.8c-2.2-1.4-4.9-2-7.4-2.5c-2.7-0.5-5.5-0.7-8.2-0.6c-3.1,0.1-6.2,0.6-9.2,1.4c-1.8,0.5-3.6,1.2-5.4,2.1
		c-2.1,1-4.2,2.1-5.9,3.6c-1,0.9-2.7,3.7-2.7,3.7l-0.2,15l-8.7,0.1v-12.2c0,0,0.2-2.6-0.2-3c-0.4-0.4-1.1-0.9-1.7-0.8
		c-3.4,0.3-5.4,4.1-8.3,6c-2,1.3-3.9,2.8-6.1,3.8c-3.7,1.7-7.9,2.3-11.7,3.8c-4,1.6-8,3.3-11.7,5.5c-1.9,1.1-3.7,2.2-5.3,3.7
		c-1.8,1.6-3.3,3.6-4.7,5.5c-2.2,3.1-4.1,6.3-5.6,9.7c-1.2,2.6-1.2,2.9-2.9,5.2c-1.1,1.5-2.9,2.2-4.4,3.3c-0.9,0.7-2.2,1-2.7,2
		c-0.3,0.7,0.4,2.4,0.4,2.4h12.4v8.7h-9.5c0,0-3-0.2-3.3,0.4c-0.3,0.6-0.1,1.5,0.3,2c0.9,1.1,2.7,1,3.9,1.8c1,0.7,2,1.5,2.7,2.6
		c1.3,2.1,1.3,4.9,2.2,7.2c0.8,1.9,1.9,6.5,2.9,8.3c1.5,2.5,3,5.1,4.9,7.4c1.5,1.9,3.3,3.6,5.2,5.1c1.7,1.3,3.6,2.5,5.6,3.4
		c2.5,1.1,5.2,1.6,7.9,2.4c2.9,0.9,5.8,1.7,8.6,2.6c1.9,0.6,4,1,5.8,2c2.4,1.3,4.2,3.4,6.5,5c1.6,1.1,3.2,2.5,5.1,3.2
		c1.1,0.4,2.4,1.1,3.4,0.5c0.7-0.4,0.3-3.6,0.3-3.6v-12h8.7l0.2,15.5c0,0,3.8,3.3,5.9,4.6c2.1,1.4,4.2,2.9,6.6,3.7
		c3.7,1.1,7.7,0.9,11.6,0.9c2.5,0,5.1,0,7.5-0.7c2.2-0.6,4.1-1.9,6-3.2c1.9-1.3,3.6-2.8,5.2-4.4c1-1,1.8-2.2,2.7-3.4
		c1-1.4,1.8-3,3.1-4.1c1.4-1.2,3.3-1.7,4.9-2.6c1.4-0.7,2.7-1.7,4.2-2.2c1.1-0.4,2.5,0.2,3.5-0.5c0.5-0.4,0.9-1,1-1.7
		c0-1-1.6-3.6-1.6-3.6l-13.8,0v-8.7l15.4-0.1c0,0,1.2-0.3,1.6-1c1-2.1,1.1-4.6,1.6-6.9c1-4.9,2.4-9.9,2.9-14.9
		c0.5-5.6,0-11.3-0.2-17c-0.2-4-0.4-8.1-1.1-12c-0.6-3.7-0.9-7.6-2.7-10.9c-0.4-0.7-2-2.8-2-2.8h-15.1v-8.7L-2276.8,508.6z"/>
	<path id="path5766" inkscape:connector-curvature="0" class="st0" d="M220.6,364.9l-1.4,3.3"/>
	
		<path id="path5790" inkscape:connector-curvature="0" sodipodi:nodetypes="ssssssssssssssssssssccccsssccccssssssssssssssssssssssssssssssssssssssscc" class="st0" d="
		M-1551.3-216.8c-1.7-0.9-3.7-1.2-5.6-1.5c-3-0.5-6-0.7-9-0.8c-2.4,0-4.7,0-7.1,0.3c-2.7,0.3-5.4,0.6-8,1.4
		c-2.4,0.8-4.7,1.9-6.7,3.4c-1.8,1.3-3.2,3-4.6,4.7c-1.2,1.5-2.2,3.2-3.1,4.9c-0.5,1.1-1.1,2.1-1.4,3.3c-0.3,1.2-0.4,2.4-0.2,3.5
		c0.5,2.1,1.9,3.8,3.1,5.6c0.9,1.5,1.8,3,3.1,4.2c2,1.9,4.4,3.2,6.8,4.5c1.8,1,3.8,1.8,5.8,2.3c3.1,0.9,6.4,1.3,9.6,1.5
		c4,0.2,8,0.4,11.9-0.4c2-0.4,4-1,5.7-2.1c1.4-1,2.5-2.4,3.4-3.9c1.1-1.9,1.2-4.2,2.2-6.2c0.5-0.9,0.8-2,1.7-2.6
		c0.7-0.5,2.5-0.6,2.5-0.6l15.7-0.2v-8.7l-16.9-0.3c0,0-1.8-2.6-2.6-3.9c-1-1.8-1.4-3.9-2.7-5.6
		C-1548.6-215-1549.9-216-1551.3-216.8L-1551.3-216.8z M-1628.4-195.6l11.8,0.1v-8.7h-8.2c0,0-4.1-0.6-4.1-1.3
		c0.2-1.9,2.6-3,4.2-4.1c1.3-0.8,3-0.9,4.2-1.8c2.1-1.6,3.4-4.2,4.9-6.4c1.2-1.8,2.1-3.9,3.4-5.7c1.6-2.2,3.5-4.2,5.5-6
		c1.2-1.1,2.6-2.1,4.1-2.9c4.4-2.5,9.4-3.9,14.1-5.9c4-1.7,8.1-3.4,12.1-5c3.3-1.4,6.5-2.9,9.8-4.1c4-1.4,7.9-2.8,12.1-3.5
		c1.7-0.3,3.5-0.4,5.2-0.3c2.6,0.1,5.3,0.5,7.8,1.3c2.8,0.9,5.5,2.2,8,3.8c2.6,1.7,5,3.9,7.1,6.2c2.1,2.4,3.7,5.1,5.4,7.8
		c1.8,2.8,3.4,5.8,5,8.7c2,3.7,4.2,7.2,5.6,11.2c1,2.8,1.7,5.7,2,8.6c0.3,2.9,0.3,5.8-0.1,8.6c-0.3,2.3-1,4.4-1.8,6.6
		c-1.1,2.9-2.7,5.6-4.1,8.4c-2.1,4.3-3.7,8.8-6.2,12.8c-1.3,2.1-3,3.9-4.6,5.8c-1.7,2-3.5,4.1-5.5,5.9c-2.2,1.9-4.5,3.5-7,4.9
		c-2,1.1-4.1,2.2-6.3,2.7c-2.4,0.6-4.9,0.7-7.3,0.5c-3.9-0.2-7.8-1.1-11.5-2.2c-5.5-1.6-10.6-4.2-15.9-6.4c-2.7-1.1-5.4-2.3-8.1-3.4
		c-2.6-1-5.2-2-7.8-3c-2.7-1-5.7-1.6-8.1-3.1c-3-2-5.4-4.9-7.8-7.6c-1.6-1.8-2.9-3.9-4.4-5.8c-1-1.3-2.2-2.5-3-3.9
		c-0.7-1.2-0.7-2.8-1.6-3.8c-1.4-1.6-3.6-2.2-5.4-3.3c-1.2-0.7-2.6-1.2-3.4-2.3c-0.3-0.4-0.5-0.9-0.5-1.3
		C-1628.8-194-1628.6-195.4-1628.4-195.6L-1628.4-195.6z"/>
	
		<path id="path6062" inkscape:connector-curvature="0" sodipodi:nodetypes="csssccccssssccccsssssssssssssssssssssssssssssssssssssssssssssssssssc" class="st0" d="
		M-1543.3,23c1.7-0.2,3.4-0.4,4.9-1.3c0.7-0.4,1.8-0.9,1.8-1.8c0-1.9-2.8-2.5-4.2-3.8c-3.2-2.9-8.6-7.8-8.6-7.8h-28.3l0.2-8.7h15.3
		c0,0,1.1-3.4,0.8-4c-0.5-1-1.4-1.7-2-2.5c-0.8-1.2-1.5-2.4-2.1-3.7c-0.6-1.5-0.7-3.2-1.4-4.7c-0.4-1-1.4-2.5-1.4-2.5h-23.4l0.1-8.7
		l20.7,0c0,0,1.8-4.1,1.9-5.9c0.3-3.4,1.5-7.2-0.1-10.3c-0.5-1-1.7-1.6-2.7-1.9c-8.7-2.7-19.4-4.2-27.2,0.4c-1.3,0.8-1.9,2.5-2.3,4
		c-1.4,4.6,1.1,10.1-0.9,14.5c-0.6,1.3-2,2.1-3.1,3c-2.4,1.9-5.1,3.4-7.6,5c-4.9,3.2-9.7,6.7-14.7,9.7c-3.9,2.4-8.2,4-12,6.6
		c-3.3,2.3-6.3,5.1-9.2,7.9c-2.3,2.2-4.5,4.6-6.5,7.1c-2.9,3.6-5.5,7.5-8.2,11.2c-1.8,2.5-3.5,5.1-5.5,7.5c-2.3,2.8-4.8,5.5-7.2,8.1
		c-3.4,3.6-6.9,7.1-10.4,10.7c-3.1,3.2-6.8,5.9-9.5,9.4c-1.5,1.9-3.1,4-3.6,6.3c-0.3,1.3,0,2.7,0.4,4c0.4,1.5,1.1,3.1,2.2,4.2
		c1.8,1.7,4.3,2.5,6.7,3.4c3.1,1.2,6.5,1.8,9.7,2.7c2.4,0.7,4.7,1.7,7.2,2c3.3,0.4,6.6,0,9.9-0.4c3.5-0.4,7.1-0.8,10.5-1.8
		c3.2-0.9,6.3-2.5,9.3-3.8c4.1-1.8,7.8-4.2,12-5.6c2.5-0.8,5.2-1,7.9-1.5c3.3-0.7,6.8-1.2,10-2.3c2.1-0.7,4.1-1.9,6-2.9
		c2-1.1,4.2-1.9,6-3.4c1.4-1.1,2.6-2.5,3.5-4c0.9-1.7,1.3-3.6,1.7-5.5c0.4-1.9,0.9-3.8,0.9-5.8c0.1-2.2-0.4-4.4-0.7-6.6
		c-0.2-1.8-0.5-3.7-0.8-5.5c-0.5-2.9-1.2-5.7-1.9-8.6c-0.5-1.9-1-3.8-1.5-5.6c-0.5-1.9-1.5-3.6-1.6-5.6c-0.1-2,0.4-4,0.8-6
		c0.2-1.1,0.4-2.3,1-3.3c0.5-0.9,1.3-1.7,2.1-2.4c0.9-0.8,1.7-1.8,2.8-2c1.1-0.2,2.4,0.2,3.2,1c1.5,1.5,0.9,4.2,2,6
		c1.3,2.1,3.4,3.6,5.3,5.3c1.8,1.6,3.6,3.3,5.7,4.6c2.1,1.4,4.5,2.5,6.9,3.3c3.6,1.1,7.3,1.5,11,1.8c3.2,0.3,6.4,0,9.7,0
		C-1549.2,22.8-1546.2,23.3-1543.3,23L-1543.3,23z"/>
	
		<path id="path6558" inkscape:connector-curvature="0" sodipodi:nodetypes="csssssssssssssssssssssssccsssssssssssssssssssssssssssssscccssssccccssssssssssssssssccccsssccccsssccccssssssssssssccccssssssssssssssssssssssssssssssssssssssssssssssssssssssssssssssssccccssssssssssssssssssssssssssssssssssssccccc" class="st0" d="
		M-2007.8,679.5c-1.4-0.7-2.6-1.8-4-2.5c-1-0.5-2-0.9-3-1.2c-1.2-0.3-2.5-0.9-3.8-0.6c-1.1,0.2-2,1-2.8,1.7
		c-0.7,0.6-1.3,1.3-1.6,2.2c-0.4,1.2-0.4,2.5-0.3,3.7c0.1,1.8,0.6,3.5,1.2,5.2c1.2,3.7,2.9,7.3,4.6,10.8c1.8,3.8,3.7,7.5,5.7,11.2
		c1,1.8,1.9,3.5,3,5.2c1.1,1.7,2.2,3.5,3.6,4.9c1,1,2,2.2,3.3,2.6c1.1,0.4,2.5,0.5,3.5-0.1c2.5-1.6,2.9-5.2,3.9-7.9
		c1.3-3.7,1.8-7.7,2.5-11.5c0.6-3.2,1.2-6.3,1.3-9.6c0.1-1.9-0.1-3.8-0.4-5.7c-0.1-0.9-0.3-1.7-0.6-2.6c-0.3-0.9-0.6-1.8-1.2-2.4
		c-0.6-0.7-1.4-1.3-2.3-1.5c-1.2-0.3-2.5,0-3.8,0c-1.3,0-2.6,0.3-3.9,0C-2004.6,681.1-2006.2,680.3-2007.8,679.5L-2007.8,679.5z
		 M-2090.2,829.9c2,0,4,0.4,5.9,0.5c1.2,0.1,2.3,0.3,3.5,0.3c2.5-0.1,4.9-0.6,7.3-1c1.9-0.3,3.7-0.7,5.6-0.9
		c1.1-0.1,2.2-0.3,3.3-0.3c1.3,0,2.6,0,3.7,0.6c1.3,0.7,2.3,1.9,3,3.1c1.1,2.1,1,4.6,1.6,6.9c0.6,2.7,1.4,5.4,2,8.2
		c0.4,1.7,0.7,3.4,0.9,5.1c0.2,1.8,0.2,3.7,0.1,5.5c-0.1,1.8-0.2,3.7-0.5,5.5c-0.2,1.4-0.6,2.8-1,4.1c-0.4,1.4-0.8,2.9-1.5,4.3
		c-0.4,0.9-0.9,1.8-1.6,2.5c-0.5,0.5-1.2,0.9-1.9,1.3c-0.5,0.3-1,0.7-1.6,0.8c-1.3,0.2-2.6-0.3-3.9-0.6c-1.5-0.4-2.9-1.2-4.4-1.8
		c-1.3-0.6-2.7-1-3.9-1.8c-2.1-1.3-4-2.9-5.9-4.5c-1.9-1.7-3.6-3.4-5.3-5.3c-2-2.2-4-4.4-5.7-6.8c-1.1-1.6-2-3.2-2.9-4.9
		c-1.4-2.6-2.7-5.1-3.7-7.9c-0.5-1.4-0.8-2.9-1.1-4.3c-0.2-1-0.6-2.1-0.5-3.1c0.1-1.4,0.4-2.9,1.3-4c0.5-0.6,1.3-0.9,2-1.1
		c0.9-0.2,1.8,0,2.7-0.1C-2091.8,830.1-2091,829.9-2090.2,829.9L-2090.2,829.9z M-1935.4,822.5h37.6h1.6c0.5,0,1.1,0.5,1.3,0.9
		c0.2,0.6,0.2,1.2,0,1.8c-0.5,1-1.6,1.7-2.6,2.1c-0.9,0.4-2.1,0.1-2.9,0.6c-2.3,1.4-4.9,5.9-4.9,5.9h-15.4v8.7h15.4c0,0,3,2.3,4,4.5
		c1.2,2.6,5.6,6.6,3.1,8c-6.2,3.4-17.8,0.9-26.7,0.9c-1.3,0-2.7,0.1-4-0.1c-0.9-0.2-2-0.3-2.7-0.9c-1.9-1.4-2.9-3.8-3.9-5.9
		c-1.3-2.7-1.6-3.7-2.7-6.4c-0.7-1.7-1.6-3.3-2.6-4.8c-1-1.6-2.2-3.1-3.5-4.5c-1.4-1.5-3-3-4.7-4.2c-1.9-1.3-3.9-2.4-6-3.1
		c-1.9-0.7-3.9-1.1-5.9-1.4c-2.3-0.3-4.6-0.3-6.9-0.2c-2,0.1-4.1,0.3-6.1,0.7c-1.8,0.4-3.5,1.1-5.2,1.9c-2,1-4,2.2-5.8,3.6
		c-1.1,0.9-3,3.2-3,3.2h-21v8.7h15.4c0,0-0.3,2.5-0.6,3.5c-0.7,2.1-1.4,4.2-2.4,6.2c-0.6,1.3-1.3,2.6-2.2,3.7
		c-0.4,0.5-3.5,1.2-3.5,1.2h-15.4v8.7h15.4c0,0,0.4,1.7,0.4,2.3c0,2.5-0.3,4.9-0.8,7.3c-0.3,1.8-0.4,3.8-1.3,5.4
		c-0.6,1-7.4,1.5-7.4,1.5h-15.4v8.7h15.4c0,0,4.6,0,5.3,1.1c1.1,1.6,0.1,3.8,0.1,5.8c0.1,4.5-0.1,9,0.4,13.4
		c0.4,3.6,1.4,7.2,2.1,10.8c0.4,2.4,1.2,3.8,1.2,6.2c0,1.4,0.2,3-0.7,4.1c-0.6,0.8-1.8,1-2.8,1.2c-7.6,1.5-15.6,0.6-23.3-0.3
		c-1.3-0.2-2.8-0.1-3.8-0.9c-3.8-2.9-5-7.1-7-11.5c-0.5-1.1-1.6-2.2-1.2-3.3c0.2-0.5,1.4-0.7,1.4-0.7l14.8-0.1l-0.2-8.7h-15.2
		c0,0-5.7-1-9.6-2.2c-2.6-0.8-5.2-1.7-7.6-2.8c-1.5-0.7-2.8-1.6-4.2-2.4c-2.1-1.2-4.4-2.1-6.5-3.4c-3.7-2.2-7.3-4.6-10.6-7.3
		c-3.5-2.7-6.9-5.6-10-8.8c-2.2-2.2-4.2-4.7-6.2-7.1c-2.3-2.8-4.6-5.5-6.5-8.5c-2.1-3.2-3.8-6.5-5.5-9.9c-1.5-2.9-2.8-5.9-4-8.9
		c-0.9-2.2-1.9-4.5-2.6-6.8c-0.6-1.9-1.2-3.8-1.5-5.7c-0.3-1.6-0.2-3.3-0.4-4.9c-0.1-1.3-0.6-2.7-0.3-4c0.3-1.5,1.2-2.8,2.3-3.9
		c2.2-2.4,5.2-3.9,8.1-5.5c3.4-1.9,7.2-3.3,10.8-4.9c2.8-1.2,5.6-2.6,8.4-3.7c3.3-1.3,6.9-1.9,10.2-3.4c2.3-1.1,4.4-2.6,6.5-4
		c2.7-1.8,5.6-3.3,8.1-5.4c2.4-2,4.4-4.5,6.5-6.8c4.7-5.1,9-10.6,13.8-15.6c2.3-2.4,4.7-4.7,7.2-6.7c3-2.3,6.2-4.4,9.5-6.3
		c3-1.7,6.1-3.2,9.2-4.6c2.6-1.1,5.1-2.6,7.9-3c2.3-0.4,5.1-0.8,7.1,0.5c1.6,1,2.2,3.2,2.9,5c1,2.9,1.1,6,1.6,9
		c0.4,2.8,0.7,5.5,0.8,8.3c0.1,2.5-0.2,5.1,0,7.6c0.1,1.7,0.4,3.4,0.6,5.1c0.2,1,0,2.2,0.6,3c0.6,0.8,1.7,1.4,2.7,1.3
		c1.3-0.2,2.6-1.3,3-2.5c1.7-4.4-1.3-9.3-1.8-14c-0.4-3.7-0.4-7.5-1-11.2c-0.5-3-0.9-6.2-2.2-9c-0.8-1.8-2.1-3.3-3.3-4.8
		c-1.9-2.2-4.4-3.7-6.4-5.8c-2.9-3.1-5.5-6.5-8.1-9.8c-2.3-2.9-4.4-5.9-6.6-8.9c-3.6-5-7.4-9.9-10.8-15.1c-2.2-3.4-4.2-7-6-10.6
		c-1.5-2.8-2.8-5.8-4.1-8.7c-0.8-1.6-1.7-3.2-2.3-4.9c-0.9-2.8-1.4-5.8-1.7-8.8c-0.6-4.9-0.8-10-0.9-14.9c-0.1-4.6,0-9.2,0.2-13.7
		c0.1-1.7,0.4-3.4,0.4-5.1c0-2.4-0.8-4.8-0.5-7.1c0.2-1.5,0.5-3.2,1.5-4.4c0.5-0.6,1.1-1.3,1.9-1.4c1.9-0.2,3.9,0.9,5.4,2.2
		c2,1.8,2.5,4.8,4.1,7c2.3,2.9,4.8,5.7,7.8,8c4.9,3.7,10.8,5.9,16.3,8.6c4.3,2.1,8.8,3.6,12.9,6c2.4,1.4,4.6,3.1,6.7,4.8
		c2.9,2.5,5.8,5.1,8.1,8.2c1.7,2.4,2.6,5.2,3.8,7.8c1.2,2.6,2.6,5.2,3.4,8c0.9,2.9,1.2,6,1.6,9c0.5,3.3,1,7.1,1.2,10.4
		c0.1,2.8,0,8.4,0,8.4v53.7h8.7v-51.2c0,0-0.3-2.7,0.5-4.1c0.5-0.8,1.3-1.4,2.2-1.5c2-0.4,4.4,0.3,5.9,1.6c2.7,2.4,2.9,6.7,4.2,10.1
		c1.9,4.8,3.6,9.7,5.2,14.6c1,3,1.8,6.1,2.8,9.1c1.2,3.6,2.9,7,4,10.5c0.8,2.5,1.7,5,1.9,7.7c0.1,1.3-0.2,2.6-0.4,3.9
		c-0.5,2.3-1.1,4.7-2,6.9c-1.1,2.9-2.7,5.5-4,8.3c-0.7,1.5-1.4,3-1.8,4.6c-0.3,1-0.5,2-0.5,3c0,1.5,0.2,3,0.9,4.3
		c0.6,1.3,1.6,2.5,2.8,3.3c0.7,0.5,1.7,1.1,2.5,0.8c1.9-0.6,2.9-2.8,3.7-4.6c1.6-3.6,1.2-7.8,1.9-11.8c0.9-5,1.8-10,2.9-15
		c0.5-2.1,0.7-4.4,1.7-6.4c1.1-2,2.7-3.8,4.4-5.3c2.2-1.9,4.7-3.6,7.5-4.5c3.3-1.2,6.9-1,10.3-1.4c2.5-0.3,4.9-0.4,7.4-0.7
		c4.4-0.5,8.7-1.3,13.1-2c6.4-1.1,12.8-2.2,19.1-3.4c2.2-0.4,4.4-1.1,6.6-1.3c1.2-0.1,2.5-0.1,3.7,0.2c1.4,0.4,3.1,0.7,3.7,2
		c0.6,1.3-0.4,3-0.8,4.4c-0.6,2-1.5,3.8-2.3,5.7c-1.7,3.9-3.2,7.8-5.2,11.5c-3.3,5.9-7.7,11.1-11.5,16.7c-2.8,4-5.4,8.2-8.4,12
		c-1.8,2.4-3.7,4.7-5.9,6.8c-2.2,2.1-4.3,4.4-7,5.7c-1.3,0.6-4.3,1-4.3,1h-40.5L-1935.4,822.5z"/>
	
		<path id="path6750" inkscape:connector-curvature="0" sodipodi:nodetypes="sssssssssccccssssssssssssssssssssssssssssscccccssssssssssssssssssssssccccsssssssssssccccs" class="st0" d="
		M-1703.2,151.2c-0.5-3.4-1.2-6.9-3-9.7c-1.6-2.5-4-4.4-6.5-6c-2.9-1.8-6.1-3.2-9.5-3.9c-3.9-0.7-8-0.4-12,0.1
		c-4,0.5-7.9,1.4-11.7,2.7c-2.6,0.9-5.2,2-7.6,3.5c-2.2,1.3-4.5,2.8-6.1,4.7c-2,2.3-3.3,5.2-4.2,8.1c-0.6,1.9-1.1,5.7-1.1,5.7
		l-21.5,0v8.7h16.9c0,0,3.8-0.1,4.9,0.8c1.9,1.8,1.1,5.1,2.1,7.5c1.1,2.6,2.5,5.1,4.4,7.2c2,2.2,4.4,3.9,7,5.4
		c2.5,1.4,5.2,2.3,7.9,3.1c3.9,1.2,7.9,2.1,12,2.5c3.4,0.3,7,0.5,10.4-0.1c3.1-0.6,6.4-1.4,9-3.2c2.6-1.8,4.7-4.4,6.1-7.2
		c2.2-4.5,2.6-9.8,3-14.9C-1702.4,161.3-1702.4,156.2-1703.2,151.2L-1703.2,151.2z M-1780.2,120.2c-0.6-0.6-1.1-1.6-0.9-2.4
		c0.4-1.3,2-1.9,3.1-2.6c2.1-1.3,4.5-2.4,6.9-3.2c3.1-1,6.4-1.5,9.7-2.1c2.4-0.4,4.9-0.9,7.3-1c3.4-0.2,6.9-0.1,10.4,0.1
		c1.9,0.1,3.7,0.8,5.6,0.6c3.7-0.4,6.8-2.7,10.4-3.8c2.6-0.8,5.3-1.8,8-2c3.1-0.2,6.2,0.4,9.2,0.9c3.8,0.6,7.6,1.4,11.2,2.7
		c3.5,1.2,7.1,2.5,10.2,4.6c2.7,1.8,4.7,4.4,7,6.7c2,2,4.1,4,5.8,6.3c1.7,2.3,3,4.9,4.2,7.5c1.2,2.6,2.1,5.3,3,8
		c0.7,2.3,1.2,4.7,1.9,7.1c0.5,1.4,1.3,2.7,1.6,4.2c0.5,3,0.5,2.6-1.8,4.7h-15.4v8.7h15.3c0,0,1.7,3.4,1.9,4.4
		c0.7,2.7-1,5.4-1.7,8.1c-0.8,3.1-1.9,6.1-3.1,9c-1,2.6-2.1,5.1-3.3,7.6c-1.3,2.7-2.4,5.5-4.3,7.7c-1.4,1.6-3.4,2.6-5.1,3.9
		c-2.2,1.9-4,4.3-6.5,6c-1.6,1-3.4,1.6-5.1,2.4c-2.4,1.2-4.5,2.9-7,3.7c-2.6,0.9-5.4,0.8-8.1,1.3c-1.5,0.3-3,0.8-4.6,1
		c-2.1,0.2-4.2,0.4-6.2,0.1c-1.3-0.1-2.5-0.5-3.7-0.9c-2-0.7-3.9-2-5.8-2.9c-2-0.9-4.1-1.9-6.2-2.5c-1.4-0.4-2.9-0.7-4.4-0.8
		c-2.5-0.1-5,0.6-7.5,0.6c-3,0-6-0.1-9-0.5c-3.8-0.6-7.6-1.6-11.3-2.7c-2.1-0.6-4.2-0.9-6.1-1.9c-1.6-0.9-2.8-2.2-4.1-3.4
		c-1.1-1-3.4-1.7-3.1-3.2c0.3-1.1,4.7-1.3,4.7-1.3h10.9v-8.7h-14.8c0,0-4.1,0.6-5.4,0c-3-1.5-2.9-4.3-5-6.9
		c-1.9-2.4-4.2-4.7-5.3-7.6c-1.1-2.7-1.2-5.7-1.5-8.6c-0.4-3.6-0.6-7.3-0.7-10.9c-0.1-2.8-0.4-5.7,0.2-8.5c0.5-2.7,1.6-5.2,3-7.6
		c0.8-1.4,1.9-2.6,2.9-3.9c0.8-1,1.7-1.8,2.4-2.8c0.7-1,0.8-2.3,1.6-3.2c0.9-1.1,2.2-1.9,3.5-2.7c1.1-0.6,3.6-0.5,3.6-0.5h16.5v-8.7
		h-12.6C-1778,120.6-1779.8,120.6-1780.2,120.2L-1780.2,120.2z"/>
	<path id="path6824" inkscape:connector-curvature="0" sodipodi:nodetypes="cccsssssssssssssssssssssssssssssscc" class="st0" d="
		M-2091.8-204.3v8.7h-21.8c0,0-2.1,0.8-2.7,1.9c-1.2,2.3-1.7,5.1-1.4,7.7c0.2,1.5,0.7,3.2,1.7,4.3c1.5,1.5,3.9,2,6,2.4
		c4.2,0.8,8.6-0.4,12.9-0.1c3.5,0.2,7.1,0.3,10.5,1.4c4.2,1.4,7.9,3.8,11.6,6.2c3.3,2.1,5.8,5.3,9.2,7.2c2.9,1.7,6,2.7,9.2,3.7
		c1.8,0.6,3.7,0.9,5.6,1.3c1.5,0.4,3.1,0.7,4.6,1.1c3.6,0.9,7.2,2.9,10.9,2.6c3.2-0.2,6.5-1.3,8.9-3.4c2.4-2.1,3.4-5.4,4.5-8.4
		c1-2.8,1.8-5.8,1.8-8.8c0-3.4-0.6-6.9-1.8-10c-0.9-2.5-2.6-4.6-4.1-6.7c-1.5-2.2-3.3-4.2-4.7-6.5c-1.4-2.4-2.4-5.1-3.7-7.6
		c-1.1-2.2-2-4.6-3.6-6.4c-1.7-1.9-3.8-3.3-6.1-4.4c-2.8-1.2-5.8-1.5-8.8-2c-3.2-0.5-6.5-1.3-9.7-0.8c-2.5,0.4-4.7,2.2-7.1,3
		c-3.3,1-6.8,1.6-10.3,2.1c-3.3,0.4-6.6,0.3-10,0.5c-3,0.1-5.9,0.1-8.9,0.4c-2.6,0.2-5.3,0.4-7.8,1.1c-2.7,0.7-5.5,1.3-7.7,3.1
		c-1.1,0.9-2.4,2-2.3,3.4c0.1,1.1,2.4,3.1,2.4,3.1L-2091.8-204.3z"/>
	
		<path id="path6886" inkscape:connector-curvature="0" inkscape:transform-center-x="20.457603" inkscape:transform-center-y="3.9863157" sodipodi:nodetypes="cccssssssssssssssssssssssssssscc" class="st0" d="
		M-2338.6-204.3l0,8.7l34.6,0c0,0-0.1,3.3-0.4,5c-0.2,1.5-0.8,2.9-1.6,4.1c-0.8,1.3-1.9,2.5-3.2,3.3c-0.7,0.4-1.5,0.7-2.2,0.8
		c-2.7,0.4-5.4-1-8.1-0.5c-1.4,0.2-2.7,0.9-3.9,1.7c-0.9,0.6-1.4,1.8-2.3,2.4c-0.7,0.5-1.4,0.7-2.2,0.9c-1.1,0.2-2.3,0.4-3.5,0.1
		c-2.2-0.4-4.1-1.7-6-2.9c-1.8-1-3.4-2.2-5-3.6c-1.6-1.4-3.1-3-4.3-4.8c-0.7-0.9-1.3-1.8-1.7-2.8c-0.7-1.9-1.1-3.9-1.3-5.9
		c-0.3-2.8-0.4-5.6,0.1-8.4c0.5-2.3,1.4-4.5,2.6-6.4c1-1.6,2.3-3,3.8-4.2c1.9-1.7,4.1-3,6.4-4.2c1.7-0.8,3.4-1.8,5.2-1.9
		c1.3-0.1,2.6,0.2,3.7,0.8c1.5,0.8,2.3,2.7,3.8,3.6c1.1,0.6,2.4,1,3.7,1.1c1.9,0.1,3.8-0.7,5.8-0.7c1.6,0,3.3-0.2,4.7,0.4
		c1.4,0.6,2.5,1.9,3.3,3.2c0.7,1.2,1.1,2.6,1.4,3.9c0.2,1.2,0.5,2.4,0.3,3.5c-0.2,1-1.6,2.8-1.6,2.8L-2338.6-204.3z"/>
	
		<path id="path7112" inkscape:connector-curvature="0" sodipodi:nodetypes="cssssssssssssssssssssssccccssccccssccccscccccccccsssssssssssssssccccssccccsssccccssccccssssssc" class="st0" d="
		M-1317.7,250.4c0.9,0.1,2,0,2.7,0.6c1.5,1.4,1.3,3.8,1.8,5.7c0.7,3.2,1.1,6.6,1.3,9.9c0.3,4.2,0.2,8.5,0.3,12.7
		c0.2,7.2,0.3,14.4,0.5,21.5c0.2,8.6,0.7,17.1,0.6,25.7c0,5,0.1,11.4-0.6,16.4c-0.8,6-2.7,11.8-4.3,17.6c-1.5,5.6-3.2,11.1-5.2,16.6
		c-3.5,9.7-7.2,19.4-11.8,28.7c-2.7,5.5-6,10.7-9.2,15.9c-3.8,6.2-7.4,14.1-12.2,19.6c-1.4,1.6-3.2,2.8-4.8,4.2
		c-1.8,1.6-3.3,3.6-5.3,4.8c-1.1,0.7-2.5,1.7-3.7,1.3c-1.2-0.4-1.4-2.2-2.2-3.2c-0.9-1-1.8-2.3-3.2-2.7c-1.7-0.5-3.6,0.2-5.3,0.7
		c-1.7,0.6-3.1,2.2-4.9,2.6c-1.5,0.3-3.1,0.2-4.5-0.2c-1.6-0.4-3.2-1.2-4.4-2.2c-0.9-0.8-2.2-1.7-2.1-2.8c0.1-0.9,2-2.4,2-2.4h5.7
		v-8.7l-11.1-0.3c0,0-2.8-0.3-4-1.1c-3.1-1.9-6.2-4.6-7.2-8.1c-0.3-1,0.5-3.1,0.5-3.1l19.5,0v-8.7l-23.8-0.2c0,0-2.3-0.5-3.2-1.2
		c-2.3-1.8-4.2-4.4-5-7.3c-0.3-1.1,0.5-2.8,0.5-2.8h33.4v-8.7h-38.4c0,0-6.9-8-7.9-12.5c-0.2-0.9,0.7-2.2,0.7-2.2h19.5v-8.7h-23.5
		c0,0-2.9-7.1-4.8-10.5c-0.9-1.4-1.7-1-1.3-2.7l9.8-0.1l0.2-8.7h-11.9c0,0-1.9-3.1-2.7-5.3c-1-2.5-3.4-4.9-2.9-7.5
		c0.3-1.4,1.6-2.8,3-3c9.8-1.9,18.4-1.9,28.4-0.2c1.2,0.2,1.3,2,1.8,3.1c2,4.5,2.3,7.1,4.3,11.6c1.6,3.6,3.8,7,6.2,10.1
		c1.1,1.5,2.3,3.2,3.9,4.2c1.3,0.8,2.8,1.2,4.3,1.3c3.4,0.4,6.9-0.2,10.2-0.8c3.5-0.6,6.9-2.2,10.4-2.9c2.7-0.5,5.4-1,8.1-1.1
		c2.6,0,5.3,0.2,7.8,0.7c1.3,0.3,2.5,1.2,3.8,1.2c1.9-0.1,3.4-1.7,5.2-2.4c0.9-0.3,4.6-0.4,4.6-0.4h15.8V346l-14.3,0.1
		c0,0-2.1-0.4-2.5-1.2c-0.7-1.7,1.4-4.8,2.1-6.5c1.4-3.6,4.9-10,4.9-10l17.1,0v-8.7h-12.9c0,0-3.4-1-3.9-1.4c-0.9-0.7-1.3-1.9-1.5-3
		c-0.8-4.2-1.3-9.2,1.1-12.7c0.5-0.8,4-0.4,4-0.4h13.5v-8.7h-16.3c0,0-2-2.1-2.3-3.1c-1.1-4.1-1.7-8.8-0.1-12.8
		c0.3-0.8,3.9-1.5,3.9-1.5h15.1v-8.7h-16.4c0,0-3.7-0.2-4.4-1c-1.7-2.2-1.6-5.3-2.2-8c-0.4-1.6-0.5-3.2-0.8-4.8
		c-0.1-0.7-0.6-1.4-0.3-2c0.4-0.8,1.4-1.1,2.3-1.4C-1336.8,247.8-1327,249.3-1317.7,250.4L-1317.7,250.4z"/>
	<path id="path7186" inkscape:connector-curvature="0" sodipodi:nodetypes="cccssssssssssssssssssssssssssssssscc" class="st0" d="
		M-2267.3-204.3v8.7h-21.7c0,0-3.2,1.9-3,3.3c0.3,1.9,3,2.6,4.7,3.5c2.9,1.6,6,3,9.3,3.5c3.9,0.6,7.9-0.6,11.8-0.4
		c4.4,0.2,8.9,0.7,13.2,1.6c4.8,1,9.3,3.5,14.2,4.1c4.7,0.6,9.6,0.8,14.2-0.1c3-0.6,6.3-1.4,8.7-3.4c3.9-3.1,5.7-8.3,8.3-12.5
		c1.6-2.7,2.9-5.6,4.7-8.2c1.8-2.5,4.4-4.3,6-7c1.2-2,2.2-4.3,2.5-6.6c0.4-3.5-0.9-7-1.4-10.5c-0.4-2.4-0.3-5-1.2-7.3
		c-0.5-1.3-1.4-2.5-2.2-3.7c-0.7-1-1.3-2.2-2.3-3c-1.3-1-2.9-1.4-4.5-1.7c-2.1-0.4-4.3-0.3-6.4-0.1c-2.9,0.2-5.7,0.8-8.5,1.5
		c-4.3,1.1-8.5,2.5-12.6,4c-2.9,1.1-5.9,2.2-8.6,3.8c-2.4,1.4-4.5,3.3-6.7,5c-1.8,1.3-3.4,2.9-5.4,3.9c-1.7,0.9-3.6,1.3-5.4,2.1
		c-1.7,0.8-3.2,2.1-5.1,2.7c-2.5,0.7-5.3,0.4-7.9,0.4c-2.6,0.1-5.2-0.2-7.8-0.1c-1.9,0.1-3.9-0.1-5.7,0.4c-2.3,0.6-5.1,1.1-6.5,3.1
		c-1,1.4-0.7,3.4-0.6,5.2c0.1,1.6,0.5,3.2,1.2,4.6c0.6,1.3,2.9,3.3,2.9,3.3H-2267.3z"/>
	
		<path id="path7338" inkscape:connector-curvature="0" sodipodi:nodetypes="ccccsccccsssssssssssssssssssssssssssssssssssssssssssssssssssssssssssssscc" class="st0" d="
		M-1680.7,8.4h-19.6v-8.7h22.9c0,0,4.7-9.6,6.7-14.6c0.4-0.9,0-2.9,0-2.9h-15.4v-8.7h24.6c0,0,5.2-4.7,8.1-6.8
		c1-0.8,2.1-1.6,3.2-2.2c1.2-0.5,2.9-0.1,3.8-1c0.6-0.6,0.8-1.5,0.7-2.3c-0.1-0.8-0.6-1.5-1.2-2c-0.9-0.8-2.2-1.2-3.4-1.4
		c-3.7-0.6-7.6,0.4-11.4,0.5c-4,0.1-8.1-0.4-12.1,0.1c-2.1,0.3-4.1,1.1-6.1,1.7c-2.8,0.9-5.7,1.4-8.2,2.8c-1.4,0.8-2.5,1.9-3.6,3
		c-1.8,1.8-3.5,3.8-5,5.9c-1.8,2.5-3.2,5.2-4.8,7.7c-0.4,0.7-0.5,1.8-1.2,2c-1.2,0.3-2-1.3-3-2c-1.1-0.8-2.5-1.3-3.3-2.4
		c-1.1-1.6-1.3-3.8-1.4-5.8c-0.2-2.5,0.3-5,0.7-7.5c0.9-5,2.5-9.9,3.7-14.9c0.6-2.6,1.5-5.2,1.9-7.9c0.3-2.6,0.3-5.3,0.2-8
		c0-1.6,0.2-3.3-0.3-4.8c-0.6-1.8-1.8-3.3-3-4.7c-1-1.2-2.2-2.2-3.4-3.2c-1.6-1.3-3.3-2.5-5.1-3.4c-1.4-0.7-3-1-4.5-1.6
		c-1.3-0.5-2.4-1.2-3.7-1.5c-1.8-0.5-3.6-0.5-5.4-0.7c-1.3-0.2-2.5-0.2-3.8-0.5c-2.1-0.5-4.2-1.1-6.2-1.9c-1.6-0.6-3-1.6-4.6-2.3
		c-3.3-1.4-6.6-2.5-10-3.8c-1.9-0.7-3.7-1.6-5.7-2.2c-1.6-0.5-3.3-0.8-5-1.1c-2.7-0.4-5.4-0.7-8.1-0.7c-2.9-0.1-5.8,0-8.6,0.5
		c-2.8,0.5-5.3,1.8-8.1,2.4c-1.7,0.4-3.4,0.5-5,1c-1.7,0.6-3.3,1.3-4.8,2.2c-1.2,0.7-2.5,1.5-3.5,2.5c-1.1,1.2-2.1,2.5-2.4,4.1
		c-0.4,1.8-0.4,3.8,0.3,5.5c1.2,2.8,4.1,4.5,6.2,6.7c2.5,2.8,5,5.6,7.5,8.4c3.1,3.4,6.5,6.5,9.5,9.9c2.6,2.9,4.9,6,7.3,9
		c1.9,2.4,3.7,4.9,5.6,7.5c1.7,2.4,3.2,5,5,7.3c2.1,2.6,4.3,5.1,6.7,7.3c2.5,2.3,5.1,4.3,7.9,6.3c3,2.2,6.2,4.1,9.4,6.1
		c3.4,2.1,6.9,4,10.3,6c4.1,2.4,8.4,4.5,12.3,7.1c2.2,1.5,4.9,2.6,6.3,4.9c0.4,0.6,0.4,1.4,0.4,2.1c0,1.5-0.5,3-0.6,4.5
		c-0.1,2.8,0.1,5.6,0.7,8.3c0.4,1.8,0.4,4,1.8,5.1c4.2,3.1,10.4,0.8,15.6,0.8c4.2,0,8.4-0.1,12.5-0.6c0.7-0.1,1.6,0.1,2.1-0.4
		c2.1-2.5,0.1-6.5,0.1-9.7c0-1.5,0.5-3.1,0-4.6C-1678.6,9.8-1679.8,9.3-1680.7,8.4L-1680.7,8.4z"/>
	<g id="g3020" transform="matrix(0,-1,1,0,-2453.5134,-430.61763)">
		<path id="path7586" inkscape:connector-curvature="0" sodipodi:nodetypes="cccccssssssssssssssssssssssssc" class="st0" d="
			M-235.7,292c0.6-0.4,0.7-1.9,0.7-1.9v-11h8.7v8.4c0,0.1-0.2,2.7,0.2,3.3c0.6,0.8,1.2,1.9,2.1,2.3c4,1.7,9.2,1.5,13.2-0.3
			c0.9-0.4,1.6-1.3,2-2.2c0.5-1.1,0.3-2.5,0.1-3.7c-0.2-1.5-0.7-3-1.3-4.3c-1.4-2.8-3.4-5.1-5.3-7.5c-1.6-1.9-3.2-3.8-5.2-5.4
			c-1.4-1.2-2.9-2.2-4.6-2.9c-1.2-0.5-2.5-0.7-3.8-0.9c-1.6-0.2-3.2-0.2-4.7-0.1c-2,0.2-4,0.5-5.9,1.2c-1.9,0.7-3.5,1.7-5.2,2.7
			c-1.3,0.7-2.6,1.4-3.7,2.4c-2.1,1.9-3.8,4.2-5.6,6.5c-1.8,2.2-3.2,4.8-5.2,6.9c-1.4,1.4-3.1,2.5-4.6,3.7c-0.4,0.4-1.1,0.6-1.3,1.1
			c-0.1,0.6,0.4,1.3,0.8,1.8c0.5,0.5,1.3,0.8,2,1c4.1,0.9,8.4-0.1,12.7-0.2c2.5,0,4.9-0.1,7.4-0.1c1.5,0,3.1,0.3,4.6,0
			C-236.9,292.7-236.3,292.4-235.7,292L-235.7,292z"/>
		<path id="path12978" inkscape:connector-curvature="0" sodipodi:nodetypes="cccccssssssssssssssssssssssssc" class="st0" d="
			M-235.7,298.2c0.6,0.4,0.7,1.9,0.7,1.9v11h8.7v-8.4c0-0.1-0.2-2.7,0.2-3.3c0.6-0.8,1.2-1.9,2.1-2.3c4-1.7,9.2-1.5,13.2,0.3
			c0.9,0.4,1.6,1.3,2,2.2c0.5,1.1,0.3,2.5,0.1,3.7c-0.2,1.5-0.7,3-1.3,4.3c-1.4,2.8-3.4,5.1-5.3,7.5c-1.6,1.9-3.2,3.8-5.2,5.4
			c-1.4,1.2-2.9,2.2-4.6,2.9c-1.2,0.5-2.5,0.7-3.8,0.9c-1.6,0.2-3.2,0.2-4.7,0.1c-2-0.2-4-0.5-5.9-1.2c-1.9-0.7-3.5-1.7-5.2-2.7
			c-1.3-0.7-2.6-1.4-3.7-2.4c-2.1-1.9-3.8-4.2-5.6-6.5c-1.8-2.2-3.2-4.8-5.2-6.9c-1.4-1.4-3.1-2.5-4.6-3.7c-0.4-0.4-1.1-0.6-1.3-1.1
			c-0.1-0.6,0.4-1.3,0.8-1.8c0.5-0.5,1.3-0.8,2-1c4.1-0.9,8.4,0.1,12.7,0.2c2.5,0,4.9,0.1,7.4,0.1c1.5,0,3.1-0.3,4.6,0
			C-236.9,297.5-236.3,297.8-235.7,298.2L-235.7,298.2z"/>
	</g>
	<g id="g3068" transform="translate(-1281.2824,-50.08039)">
		
			<path id="path4002" inkscape:connector-curvature="0" sodipodi:nodetypes="ssssssssssssssssssssssssssssscsssssssssssssssssssssccccsssssssssssssccccsssssssssssssssssssssccccsssssssccccssssssccccssc" class="st0" d="
			M-463.6,586.8c-1-2.8-2.2-5.6-3.8-8.2c-1.5-2.3-3.2-4.5-5.3-6.2c-1.1-0.9-2.5-1.5-3.7-2.2c-1.4-0.7-2.8-1.4-4.2-1.9
			c-2-0.7-4.1-1.4-6.2-1.7c-3.3-0.4-6.7-0.1-10.1,0.1c-4,0.3-7.9,0.9-11.9,1.7c-3.5,0.7-7,1.4-10.4,2.4c-3.5,1.1-7,2.4-10.3,4
			c-3.6,1.7-7.6,3.1-10.5,5.9c-2,1.9-3.2,4.5-4.3,7c-1.1,2.7-1.8,5.6-2.2,8.4c-0.6,3.9-1.5,8.1-0.6,12c0.3,1.5,1.5,2.6,2.2,3.9
			c1.6,2.7,2.7,5.9,5,8.1c2.7,2.7,6.4,4.2,9.8,6c3.6,1.9,7.3,3.7,11.2,5.1c4.1,1.5,8.3,2.6,12.5,3.5c3.5,0.7,7,1.2,10.5,1.6
			c3.7,0.3,7.6,0.9,11.3,0.4c2.4-0.4,4.8-1.3,7-2.4c2-1,4-2.2,5.7-3.7c1.8-1.7,3-4,4.4-6.1c1.3-2,2.8-3.9,3.7-6.1
			c0.9-2.2,1.3-4.7,1.6-7.1c0.4-3.1,0.3-6.3,0.4-9.5c0.1-2.3,0.3-4.6,0.1-6.9C-462.2,592.1-462.8,589.4-463.6,586.8L-463.6,586.8z
			 M-434.8,656.9c-1.9,0.4-3.7-1.4-5.6-2c-2.1-0.7-4.2-1.7-6.4-1.9c-1.5-0.1-2.9,0.1-4.4,0.5c-2.7,0.6-5.1,1.9-7.7,2.9
			c-2,0.7-4,1.4-6,2.1c-2.9,1.1-5.8,2.4-8.7,3.5c-1.7,0.6-3.4,1.1-5.2,1.7c-1.9,0.6-3.8,1.4-5.7,2c-2.2,0.6-4.4,1.1-6.7,1.3
			c-2.2,0.3-4.5,0.3-6.8,0.2c-3.2-0.2-6.4-0.8-9.6-1.2c-3.8-0.5-7.7-0.3-11.5-1.3c-2.6-0.7-5.1-1.9-7.4-3.2c-1.4-0.8-2.6-2-3.9-2.9
			c-1.6-1.1-3.3-2.2-5-3.2c-1.7-1-3.2-2.4-5.1-3c-2.2-0.7-4.7-0.3-7-0.8c-2.5-0.5-4.9-1.4-7.3-2.3c-1.3-0.5-2.6-0.9-3.8-1.7
			c-1-0.6-1.8-1.5-2.6-2.4c-0.4-0.5-1.1-1-1.1-1.7c0-0.7,1.6-1.9,1.6-1.9h10.6v-8.7h-11.9c0,0-2.1-0.1-3-1c-1.5-1.3-2.4-3.1-3.6-4.6
			c-1-1.2-2.3-2.3-3.2-3.7c-1.2-1.7-2.1-3.7-3.1-5.5c-1.3-2.4-2.5-4.9-3.6-7.4c-1.2-2.7-2.6-5.3-3.1-8.1c-0.3-1.6-0.4-3.3-0.1-4.9
			c0.3-1.5,1.2-2.9,1.8-4.3c0.7-1.7,1.5-3.4,2.2-5.2c1-2.4,1.8-4.8,3-7.1c0.9-1.7,1.9-3.3,2.9-4.9c1-1.6,1.9-3.2,3.1-4.6
			c1.1-1.2,2.5-2.2,3.9-3c1.1-0.6,3.5-1.3,3.5-1.3l13-0.1v-8.6l-10.1,0c0,0-1.8-0.6-2.5-1.3c-0.4-0.4-0.7-1-0.7-1.6
			c0.1-0.9,0.7-1.8,1.4-2.4c1.7-1.4,4.2-1.6,6.4-2.1c3.3-0.8,6.7-1.1,10.1-1.7c2-0.4,4.1-0.6,6-1.3c2-0.8,3.8-2.2,5.6-3.4
			c1.6-1.1,3-2.3,4.6-3.5c1.4-1.1,2.7-2.6,4.4-3.2c3.7-1.3,7.9-0.3,11.8-0.7c2.8-0.3,5.5-1.1,8.3-1.3c3.2-0.2,6.4-0.2,9.6,0
			c2.7,0.1,5.3,0.2,7.9,0.8c3.6,0.8,7,2.5,10.5,3.7c4.3,1.5,8.7,2.8,12.8,4.7c2.5,1.2,4.9,2.7,7.4,4.1c1,0.6,1.9,1.3,3,1.7
			c1.4,0.5,2.9,0.7,4.3,0.8c1.3,0.1,2.6,0,3.9-0.3c2.2-0.4,4.2-1.5,6.2-2.2c0.9-0.3,1.7-1,2.7-1c0.7,0,2,2.9,2,2.9l-8,6.7l5.6,6.6
			l10.1-8.4c0,0,1.1,1.5,1.2,2.3c0.2,1.8-0.6,3.5-1.2,5.2c-0.8,2.3-2,4.5-2.9,6.8c-0.7,1.7-1.6,3.3-1.9,5.1c-0.3,2,0.1,4,0.2,5.9
			c0.1,3.7,0.8,5.4,1,9.1c0.1,1.3,0.4,2.6,0.2,3.8c-0.1,0.7-0.9,1.8-0.9,1.8l-12.3-0.1v8.7h13c0,0,0.1,3,0,4.2
			c-0.1,4.1-2.4,10.1-2.2,14.3c0.1,2.4,0.8,4.8,1.5,7.1c1,3,2.9,5.6,3.8,8.6c0.5,1.6,0.7,3.4,0.8,5.1c0.1,1.3-0.1,2.5-0.1,3.8
			c0,0.4-3.9-2.1-3.9-2.1l-6.7-5.8l-5.7,6.6l8,7.1c0,0,0.1,0.9-0.1,1.3C-433.4,655.9-434,656.7-434.8,656.9L-434.8,656.9z"/>
	</g>
	<g id="g3073" transform="translate(-1473.8559,-903.78733)">
		
			<path id="path7478" inkscape:connector-curvature="0" sodipodi:nodetypes="ccssssccccsssssssssssccccsssccccssssssssccccssssssccc" class="st0" d="
			M-494.7,732.4v-44.7c0,0-14.5,0.1-21.7,0.3c-1.1,0-2.3-0.2-3.4,0.1c-1.4,0.3-3.2,0.5-3.9,1.8c-1.1,2.3,0.8,5,1.5,7.4
			c0.3,1,1.3,2.8,1.3,2.8l14-0.1l0.1,8.7l-10.5,0.1c0,0-1.3,0.7-1.7,1.4c-0.6,1.1-0.8,2.4-0.8,3.6c0,2,1.1,3.8,1.4,5.8
			c0.7,3.9,1,7.8,1.3,11.7c0.4,4.3,0.6,8.7,0.7,13c0.2,5.1,0.1,10.3,0,15.4c0,3-0.1,6-0.2,9c0,1.8-0.4,3.6-0.1,5.4
			c0.2,1.3,0.7,2.5,1.4,3.6c0.6,1,1.4,1.9,2.3,2.5c0.7,0.5,1.6,1.1,2.5,1c0.9-0.1,1.1-2,1.1-2l3-28.6l8.6,0.9l-3.7,35.3
			c0,0,1.2,1.3,1.9,1.5c4.5,1.5,9.6,0.4,14.3-0.2c1.5-0.2,3.5-0.4,3.8-1.9c0.5-2.5-0.8-14.4-0.8-14.4l-1.8-20.8l8.7-0.7l2.4,27.2
			c0,0,0.3,2.6,1.3,3.2c0.6,0.4,1.4,0.7,2,0.4c1.7-0.7,2.4-2.9,3-4.7c1.4-4,1-8.4,1.3-12.7c0.4-7.1-0.1-14.2,0.3-21.3
			c0.3-4.6,1-9.2,1.4-13.8c0.2-2.8,0.2-5.7,0.6-8.5c0.5-2.7,1.9-5.2,2.1-7.9c0.1-1.1-0.6-5.1-0.6-5.1l-10.2,1l-0.8-8.6l11.2-1
			c0,0,2.8-1.5,3.2-2.3c0.9-1.6,0-1.7,0.6-3.4c0.5-1.4,1.8-2.9,1.3-4.3c-0.2-0.8-1.2-1.2-1.9-1.5c-2-0.7-4.3-0.1-6.4-0.1
			c-3.7,0-7.3,0.2-11,0.4c-3.5,0.1-10.5,0.5-10.5,0.5v44.7H-494.7z"/>
	</g>
	
		<path id="path3079" inkscape:connector-curvature="0" sodipodi:nodetypes="cccssssssssssssssssssssssccccssssccccssscc" class="st0" d="
		M-1480.9,319.6l-0.2,8.8l-12.1-0.3c0,0-1.7,0.6-2.2,1.3c-1,1.4-0.8,4.2-1.1,5.9c-0.5,2.5-1.5,3-1.7,5.6c-0.1,0.9-0.3,2.1,0.3,2.8
		c1.1,1.3,3.3,0.9,5,1.1c8.1,0.9,17.9,1.1,24.5,0c1-0.2,1.6-1.2,2-2.1c1.3-3,0.4-4.4,0.5-7.7c0.2-6.7,0.3-13.5,0.1-20.2
		c-0.2-5.5-0.5-11-1.1-16.5c-0.4-3.8-0.8-7.6-1.7-11.3c-1.2-4.8-3.3-9.3-4.9-14c-1.3-3.9-2.6-5-3.9-8.9c-0.5-1.5-0.7-3.2-1.5-4.6
		c-1-1.9-2.2-2.9-4.2-3.8c-6.7-3.2-14.8-0.4-22.3-0.3c-1,0-2.1,0-3.1,0.2c-0.8,0.2-1.8,0.2-2.3,0.9c-0.5,0.7-0.5,1.3-0.4,2.2
		c0.1,1.1,0.5,1.5,1,2.5c0.8,1.8,2.1,3.3,3.1,4.9c0.7,1.2,1.1,0.7,2.2,1.7c0.6,0.5,2.1,1.1,2.1,1.1h13.5v8.7l-10.1,0
		c0,0-2.1-0.2-2.4,0.6c-0.7,1.5,0.9,2.4,1.4,4.1c0.5,1.7,0.9,3.3,1.3,5c0.4,1.6,0.2,3.4,1,4.9c0.4,0.7,1.8,1.8,1.8,1.8l12.7,0.2v8.7
		l-12.5,0.2c0,0-0.5,2.1-0.6,3.2c-0.1,2.8,0.8,4.7,1,7.4c0.1,1.4-0.4,2.8,0.2,4.1c0.4,0.8,1.9,1.8,1.9,1.8L-1480.9,319.6z"/>
	
		<path id="path3108" inkscape:connector-curvature="0" sodipodi:nodetypes="cssccccssssccccsssccccsssccccsssssssssssssssssssccsssssssssssc" class="st0" d="
		M-1519.3,734.7c0.2-1.7,1.5-3.1,2.5-4.6c1.2-1.9,2.3-4,4-5.3c1.1-0.9,5.1-1.5,5.1-1.5h15.4l-0.1-8.8l-8,0.1l-5.1-0.1
		c-0.7,0-0.8-1.3-0.8-2.1c0.1-1.2,1.3-2.1,1.8-3.2c1.6-3.3,2.8-2.4,4.1-5.9c0.2-0.6,2.2-1.8,2.2-1.8h15.4v-8.7l-11.4-0.3
		c0,0-3.6-2.2-3.9-3.3c-0.6-2.6,0.8-5.2,1.2-7.8c0.3-1.7-0.2-4.3,0.7-5.8c0.5-0.9,8.1-1,8.1-1h9.1l0.4-8.7h-14c0,0-3.2-1.7-3.6-2.7
		c-1-2,0.3-3.9,0.2-6.1c-0.1-1.6-0.5-3.2-0.3-4.9c0.1-1.2,1.2-3.3,1.2-3.3h15.4v-8.7h-15.4c0,0-2.6-1-3.3-1.6c-1.1-1-1.2-2.7-1.8-4
		c-1-2.2-2.2-2.2-3.1-4.4c-0.4-1.1-1.2-2.1-1.1-3.3c0.1-0.8,0.5-1.5,1.1-2c0.7-0.6,1.8-0.7,2.7-0.9c3.4-0.6,7-0.3,10.5-0.3
		c2.1,0,4.2-0.1,6.2,0.2c2.2,0.3,4.4,0.4,6.4,1.3c1.9,0.9,3.5,2.6,5,4.1c1.5,1.6,2.9,1.4,3.8,3.4c1.3,2.8,1.7,5.9,2.4,8.9
		c0.8,3.1,1.8,6.2,2.2,9.5c0.4,3,0.3,6.1,0.3,9.1c0,3,0,6-0.2,8.9c-0.1,1.7-0.2,3.4-0.5,5.2c-0.4,2.9-1.1,5.7-1.7,8.5
		c-0.4,1.7-0.8,3.4-1.2,5.2c-0.3,1.6-0.8,3.3-1,5c-0.3,2.8-0.3,5.7-0.3,8.5c-0.1,4.5-1.2,6.9-1.5,8.3c-0.5,1.9-0.9,3.9-1.7,5.7
		c-0.9,2.1-2.1,4.1-3.3,6.1c-1.1,1.9-2.2,3.9-3.6,5.7c-1.1,1.4-2.5,2.7-3.8,4c-1,1-1.8,2.2-2.9,3.1c-1.6,1.3-3.3,2.4-5.2,3.1
		c-1.8,0.7-3.7,0.8-5.6,1c-3.2,0.3-6.3-0.1-9.5-0.1c-3.4,0-6.9,0.1-10.3,0.2c-0.8,0-1.7,0.5-2.3,0
		C-1519.6,737.7-1519.3,736-1519.3,734.7L-1519.3,734.7z"/>
</g>
</svg>
