<?xml version="1.0" encoding="utf-8"?>
<!-- Generator: Adobe Illustrator 24.3.0, SVG Export Plug-In . SVG Version: 6.00 Build 0)  -->
<svg version="1.1" id="_x30_" xmlns="http://www.w3.org/2000/svg" xmlns:xlink="http://www.w3.org/1999/xlink" x="0px" y="0px"
	 viewBox="0 0 841.9 595.3" style="enable-background:new 0 0 841.9 595.3;" xml:space="preserve">
<style type="text/css">
	.st0{fill:none;stroke:#000000;stroke-width:0;stroke-linecap:round;stroke-linejoin:round;stroke-miterlimit:10;}
</style>
<g id="LINE">
	<line class="st0" x1="348.7" y1="74" x2="348.7" y2="54"/>
</g>
<g id="LINE_1_">
	<line class="st0" x1="337.7" y1="74" x2="337.7" y2="94"/>
</g>
<g id="LINE_2_">
	<line class="st0" x1="337.7" y1="174" x2="337.7" y2="194"/>
</g>
<g id="LINE_3_">
	<polyline class="st0" points="348.7,194 348.7,214 788.7,214 	"/>
</g>
<g id="LINE_4_">
	<line class="st0" x1="348.7" y1="174" x2="348.7" y2="94"/>
</g>
<g id="LINE_5_">
	<line class="st0" x1="348.7" y1="74" x2="348.7" y2="74"/>
</g>
<g id="LINE_6_">
	<line class="st0" x1="348.7" y1="74" x2="337.7" y2="74"/>
</g>
<g id="LINE_7_">
	<line class="st0" x1="348.7" y1="94" x2="337.7" y2="94"/>
</g>
<g id="LINE_8_">
	<line class="st0" x1="348.7" y1="174" x2="337.7" y2="174"/>
</g>
<g id="LINE_9_">
	<line class="st0" x1="348.7" y1="194" x2="337.7" y2="194"/>
</g>
<g id="LINE_10_">
	<line class="st0" x1="788.7" y1="194" x2="788.7" y2="214"/>
</g>
<g id="LINE_11_">
	<line class="st0" x1="799.7" y1="194" x2="799.7" y2="174"/>
</g>
<g id="LINE_12_">
	<line class="st0" x1="799.7" y1="94" x2="799.7" y2="74"/>
</g>
<g id="LINE_13_">
	<line class="st0" x1="788.7" y1="54" x2="788.7" y2="74"/>
</g>
<g id="LINE_14_">
	<line class="st0" x1="788.7" y1="94" x2="788.7" y2="174"/>
</g>
<g id="LINE_15_">
	<line class="st0" x1="788.7" y1="194" x2="799.7" y2="194"/>
</g>
<g id="LINE_16_">
	<line class="st0" x1="788.7" y1="174" x2="799.7" y2="174"/>
</g>
<g id="LINE_17_">
	<line class="st0" x1="788.7" y1="94" x2="799.7" y2="94"/>
</g>
<g id="LINE_18_">
	<line class="st0" x1="788.7" y1="74" x2="799.7" y2="74"/>
</g>
<g id="LINE_19_">
	<line class="st0" x1="345.7" y1="229.3" x2="785.7" y2="229.3"/>
</g>
<g id="LINE_20_">
	<line class="st0" x1="345.7" y1="249.3" x2="345.7" y2="229.3"/>
</g>
<g id="LINE_21_">
	<line class="st0" x1="334.7" y1="249.3" x2="334.7" y2="269.3"/>
</g>
<g id="LINE_22_">
	<line class="st0" x1="334.7" y1="349.3" x2="334.7" y2="369.3"/>
</g>
<g id="LINE_23_">
	<polyline class="st0" points="345.7,369.3 345.7,389.3 785.7,389.3 	"/>
</g>
<g id="LINE_24_">
	<line class="st0" x1="345.7" y1="349.3" x2="345.7" y2="269.3"/>
</g>
<g id="LINE_25_">
	<line class="st0" x1="345.7" y1="249.3" x2="345.7" y2="249.3"/>
</g>
<g id="LINE_26_">
	<line class="st0" x1="345.7" y1="249.3" x2="334.7" y2="249.3"/>
</g>
<g id="LINE_27_">
	<line class="st0" x1="345.7" y1="269.3" x2="334.7" y2="269.3"/>
</g>
<g id="LINE_28_">
	<line class="st0" x1="345.7" y1="349.3" x2="334.7" y2="349.3"/>
</g>
<g id="LINE_29_">
	<line class="st0" x1="345.7" y1="369.3" x2="334.7" y2="369.3"/>
</g>
<g id="LINE_30_">
	<line class="st0" x1="785.7" y1="369.3" x2="785.7" y2="389.3"/>
</g>
<g id="LINE_31_">
	<line class="st0" x1="796.7" y1="369.3" x2="796.7" y2="349.3"/>
</g>
<g id="LINE_32_">
	<line class="st0" x1="796.7" y1="269.3" x2="796.7" y2="249.3"/>
</g>
<g id="LINE_33_">
	<line class="st0" x1="785.7" y1="229.3" x2="785.7" y2="249.3"/>
</g>
<g id="LINE_34_">
	<line class="st0" x1="785.7" y1="269.3" x2="785.7" y2="349.3"/>
</g>
<g id="LINE_35_">
	<line class="st0" x1="785.7" y1="369.3" x2="796.7" y2="369.3"/>
</g>
<g id="LINE_36_">
	<line class="st0" x1="785.7" y1="349.3" x2="796.7" y2="349.3"/>
</g>
<g id="LINE_37_">
	<line class="st0" x1="785.7" y1="269.3" x2="796.7" y2="269.3"/>
</g>
<g id="LINE_38_">
	<line class="st0" x1="785.7" y1="249.3" x2="796.7" y2="249.3"/>
</g>
<g id="LINE_39_">
	<line class="st0" x1="294.7" y1="424.5" x2="734.7" y2="424.5"/>
</g>
<g id="LINE_40_">
	<line class="st0" x1="734.7" y1="584.5" x2="294.7" y2="584.5"/>
</g>
<g id="LINE_41_">
	<line class="st0" x1="294.7" y1="444.5" x2="294.7" y2="424.5"/>
</g>
<g id="LINE_42_">
	<line class="st0" x1="283.7" y1="444.5" x2="283.7" y2="464.5"/>
</g>
<g id="LINE_43_">
	<line class="st0" x1="283.7" y1="544.5" x2="283.7" y2="564.5"/>
</g>
<g id="LINE_44_">
	<line class="st0" x1="294.7" y1="584.5" x2="294.7" y2="564.5"/>
</g>
<g id="LINE_45_">
	<line class="st0" x1="294.7" y1="544.5" x2="294.7" y2="464.5"/>
</g>
<g id="LINE_46_">
	<line class="st0" x1="294.7" y1="444.5" x2="294.7" y2="444.5"/>
</g>
<g id="LINE_47_">
	<line class="st0" x1="294.7" y1="444.5" x2="283.7" y2="444.5"/>
</g>
<g id="LINE_48_">
	<line class="st0" x1="294.7" y1="464.5" x2="283.7" y2="464.5"/>
</g>
<g id="LINE_49_">
	<line class="st0" x1="294.7" y1="544.5" x2="283.7" y2="544.5"/>
</g>
<g id="LINE_50_">
	<line class="st0" x1="294.7" y1="564.5" x2="283.7" y2="564.5"/>
</g>
<g id="LINE_51_">
	<line class="st0" x1="734.7" y1="564.5" x2="734.7" y2="584.5"/>
</g>
<g id="LINE_52_">
	<line class="st0" x1="745.7" y1="564.5" x2="745.7" y2="544.5"/>
</g>
<g id="LINE_53_">
	<line class="st0" x1="745.7" y1="464.5" x2="745.7" y2="444.5"/>
</g>
<g id="LINE_54_">
	<line class="st0" x1="734.7" y1="424.5" x2="734.7" y2="444.5"/>
</g>
<g id="LINE_55_">
	<line class="st0" x1="734.7" y1="464.5" x2="734.7" y2="544.5"/>
</g>
<g id="LINE_56_">
	<line class="st0" x1="734.7" y1="564.5" x2="745.7" y2="564.5"/>
</g>
<g id="LINE_57_">
	<line class="st0" x1="734.7" y1="544.5" x2="745.7" y2="544.5"/>
</g>
<g id="LINE_58_">
	<line class="st0" x1="734.7" y1="464.5" x2="745.7" y2="464.5"/>
</g>
<g id="LINE_59_">
	<line class="st0" x1="734.7" y1="444.5" x2="745.7" y2="444.5"/>
</g>
<g id="CIRCLE">
	<path class="st0" d="M328.7,464.5c0-3.3,2.7-6,6-6s6,2.7,6,6s-2.7,6-6,6S328.7,467.8,328.7,464.5L328.7,464.5z"/>
</g>
<g id="CIRCLE_1_">
	<path class="st0" d="M348.7,504.5c0-3.3,2.7-6,6-6s6,2.7,6,6s-2.7,6-6,6S348.7,507.8,348.7,504.5L348.7,504.5z"/>
</g>
<g id="CIRCLE_2_">
	<path class="st0" d="M328.7,544.5c0-3.3,2.7-6,6-6s6,2.7,6,6c0,3.3-2.7,6-6,6S328.7,547.8,328.7,544.5L328.7,544.5z"/>
</g>
<g id="CIRCLE_3_">
	<path class="st0" d="M688.7,544.5c0-3.3,2.7-6,6-6s6,2.7,6,6c0,3.3-2.7,6-6,6S688.7,547.8,688.7,544.5L688.7,544.5z"/>
</g>
<g id="CIRCLE_4_">
	<path class="st0" d="M688.7,464.5c0-3.3,2.7-6,6-6s6,2.7,6,6s-2.7,6-6,6S688.7,467.8,688.7,464.5L688.7,464.5z"/>
</g>
<g id="CIRCLE_5_">
	<path class="st0" d="M368.7,464.5c0-3.3,2.7-6,6-6s6,2.7,6,6s-2.7,6-6,6S368.7,467.8,368.7,464.5L368.7,464.5z"/>
</g>
<g id="CIRCLE_6_">
	<path class="st0" d="M408.7,464.5c0-3.3,2.7-6,6-6s6,2.7,6,6s-2.7,6-6,6S408.7,467.8,408.7,464.5L408.7,464.5z"/>
</g>
<g id="CIRCLE_7_">
	<path class="st0" d="M448.7,464.5c0-3.3,2.7-6,6-6s6,2.7,6,6s-2.7,6-6,6S448.7,467.8,448.7,464.5L448.7,464.5z"/>
</g>
<g id="CIRCLE_8_">
	<path class="st0" d="M488.7,464.5c0-3.3,2.7-6,6-6s6,2.7,6,6s-2.7,6-6,6S488.7,467.8,488.7,464.5L488.7,464.5z"/>
</g>
<g id="CIRCLE_9_">
	<path class="st0" d="M528.7,464.5c0-3.3,2.7-6,6-6s6,2.7,6,6s-2.7,6-6,6S528.7,467.8,528.7,464.5L528.7,464.5z"/>
</g>
<g id="CIRCLE_10_">
	<path class="st0" d="M568.7,464.5c0-3.3,2.7-6,6-6s6,2.7,6,6s-2.7,6-6,6S568.7,467.8,568.7,464.5L568.7,464.5z"/>
</g>
<g id="CIRCLE_11_">
	<path class="st0" d="M608.7,464.5c0-3.3,2.7-6,6-6s6,2.7,6,6s-2.7,6-6,6S608.7,467.8,608.7,464.5L608.7,464.5z"/>
</g>
<g id="CIRCLE_12_">
	<path class="st0" d="M648.7,464.5c0-3.3,2.7-6,6-6s6,2.7,6,6s-2.7,6-6,6S648.7,467.8,648.7,464.5L648.7,464.5z"/>
</g>
<g id="CIRCLE_13_">
	<path class="st0" d="M388.7,504.5c0-3.3,2.7-6,6-6s6,2.7,6,6s-2.7,6-6,6S388.7,507.8,388.7,504.5L388.7,504.5z"/>
</g>
<g id="CIRCLE_14_">
	<path class="st0" d="M428.7,504.5c0-3.3,2.7-6,6-6c3.3,0,6,2.7,6,6s-2.7,6-6,6C431.4,510.5,428.7,507.8,428.7,504.5L428.7,504.5z"
		/>
</g>
<g id="CIRCLE_15_">
	<path class="st0" d="M468.7,504.5c0-3.3,2.7-6,6-6s6,2.7,6,6s-2.7,6-6,6S468.7,507.8,468.7,504.5L468.7,504.5z"/>
</g>
<g id="CIRCLE_16_">
	<path class="st0" d="M508.7,504.5c0-3.3,2.7-6,6-6s6,2.7,6,6s-2.7,6-6,6S508.7,507.8,508.7,504.5L508.7,504.5z"/>
</g>
<g id="CIRCLE_17_">
	<path class="st0" d="M548.7,504.5c0-3.3,2.7-6,6-6s6,2.7,6,6s-2.7,6-6,6S548.7,507.8,548.7,504.5L548.7,504.5z"/>
</g>
<g id="CIRCLE_18_">
	<path class="st0" d="M588.7,504.5c0-3.3,2.7-6,6-6c3.3,0,6,2.7,6,6s-2.7,6-6,6C591.4,510.5,588.7,507.8,588.7,504.5L588.7,504.5z"
		/>
</g>
<g id="CIRCLE_19_">
	<path class="st0" d="M628.7,504.5c0-3.3,2.7-6,6-6s6,2.7,6,6s-2.7,6-6,6S628.7,507.8,628.7,504.5L628.7,504.5z"/>
</g>
<g id="CIRCLE_20_">
	<path class="st0" d="M668.7,504.5c0-3.3,2.7-6,6-6s6,2.7,6,6s-2.7,6-6,6S668.7,507.8,668.7,504.5L668.7,504.5z"/>
</g>
<g id="CIRCLE_21_">
	<path class="st0" d="M368.7,544.5c0-3.3,2.7-6,6-6s6,2.7,6,6c0,3.3-2.7,6-6,6S368.7,547.8,368.7,544.5L368.7,544.5z"/>
</g>
<g id="CIRCLE_22_">
	<path class="st0" d="M408.7,544.5c0-3.3,2.7-6,6-6s6,2.7,6,6c0,3.3-2.7,6-6,6S408.7,547.8,408.7,544.5L408.7,544.5z"/>
</g>
<g id="CIRCLE_23_">
	<path class="st0" d="M448.7,544.5c0-3.3,2.7-6,6-6s6,2.7,6,6c0,3.3-2.7,6-6,6S448.7,547.8,448.7,544.5L448.7,544.5z"/>
</g>
<g id="CIRCLE_24_">
	<path class="st0" d="M488.7,544.5c0-3.3,2.7-6,6-6s6,2.7,6,6c0,3.3-2.7,6-6,6S488.7,547.8,488.7,544.5L488.7,544.5z"/>
</g>
<g id="CIRCLE_25_">
	<path class="st0" d="M528.7,544.5c0-3.3,2.7-6,6-6s6,2.7,6,6c0,3.3-2.7,6-6,6S528.7,547.8,528.7,544.5L528.7,544.5z"/>
</g>
<g id="CIRCLE_26_">
	<path class="st0" d="M568.7,544.5c0-3.3,2.7-6,6-6s6,2.7,6,6c0,3.3-2.7,6-6,6S568.7,547.8,568.7,544.5L568.7,544.5z"/>
</g>
<g id="CIRCLE_27_">
	<path class="st0" d="M608.7,544.5c0-3.3,2.7-6,6-6s6,2.7,6,6c0,3.3-2.7,6-6,6S608.7,547.8,608.7,544.5L608.7,544.5z"/>
</g>
<g id="CIRCLE_28_">
	<path class="st0" d="M648.7,544.5c0-3.3,2.7-6,6-6s6,2.7,6,6c0,3.3-2.7,6-6,6S648.7,547.8,648.7,544.5L648.7,544.5z"/>
</g>
<g id="LINE_60_">
	<polyline class="st0" points="294.7,-16.5 294.7,3.5 734.7,3.5 	"/>
</g>
<g id="LINE_61_">
	<line class="st0" x1="734.7" y1="3.5" x2="734.7" y2="-16.5"/>
</g>
<g id="LINE_62_">
	<line class="st0" x1="348.7" y1="54" x2="788.7" y2="54"/>
</g>
<g id="LINE_63_">
	<line class="st0" x1="283.7" y1="-36.5" x2="283.7" y2="-16.5"/>
</g>
<g id="LINE_64_">
	<line class="st0" x1="745.7" y1="-16.5" x2="745.7" y2="-36.5"/>
</g>
<g id="LINE_65_">
	<polyline class="st0" points="283.7,-36.5 294.7,-36.5 294.7,-55.5 734.7,-55.5 734.7,-36.5 745.7,-36.5 	"/>
</g>
<g id="LINE_66_">
	<line class="st0" x1="745.7" y1="-16.5" x2="734.7" y2="-16.5"/>
</g>
<g id="LINE_67_">
	<line class="st0" x1="294.7" y1="-16.5" x2="283.7" y2="-16.5"/>
</g>
<g id="LINE_68_">
	<line class="st0" x1="64" y1="-126.5" x2="84" y2="-126.5"/>
</g>
<g id="LINE_69_">
	<line class="st0" x1="84" y1="-126.5" x2="104" y2="-106.5"/>
</g>
<g id="LINE_70_">
	<line class="st0" x1="104" y1="-106.5" x2="224" y2="-106.5"/>
</g>
<g id="LINE_71_">
	<line class="st0" x1="224" y1="-106.5" x2="244" y2="-126.5"/>
</g>
<g id="LINE_72_">
	<line class="st0" x1="244" y1="-126.5" x2="264" y2="-126.5"/>
</g>
<g id="LINE_73_">
	<line class="st0" x1="264" y1="-126.5" x2="244" y2="-46.5"/>
</g>
<g id="LINE_74_">
	<line class="st0" x1="244" y1="-46.5" x2="244" y2="13.5"/>
</g>
<g id="LINE_75_">
	<line class="st0" x1="84" y1="13.5" x2="84" y2="-46.5"/>
</g>
<g id="LINE_76_">
	<line class="st0" x1="84" y1="-46.5" x2="64" y2="-126.5"/>
</g>
<g id="LINE_77_">
	<line class="st0" x1="104" y1="-66.5" x2="104" y2="-55.5"/>
</g>
<g id="LINE_78_">
	<line class="st0" x1="124" y1="-66.5" x2="124" y2="-55.5"/>
</g>
<g id="LINE_79_">
	<line class="st0" x1="204" y1="-66.5" x2="204" y2="-55.5"/>
</g>
<g id="LINE_80_">
	<line class="st0" x1="224" y1="-66.5" x2="224" y2="-55.5"/>
</g>
<g id="LINE_81_">
	<line class="st0" x1="124" y1="-66.5" x2="104" y2="-66.5"/>
</g>
<g id="LINE_82_">
	<line class="st0" x1="124" y1="-55.5" x2="104" y2="-55.5"/>
</g>
<g id="LINE_83_">
	<line class="st0" x1="224" y1="-66.5" x2="204" y2="-66.5"/>
</g>
<g id="LINE_84_">
	<line class="st0" x1="224" y1="-55.5" x2="204" y2="-55.5"/>
</g>
<g id="LINE_85_">
	<line class="st0" x1="104" y1="-26.5" x2="104" y2="-15.5"/>
</g>
<g id="LINE_86_">
	<line class="st0" x1="124" y1="-26.5" x2="124" y2="-15.5"/>
</g>
<g id="LINE_87_">
	<line class="st0" x1="204" y1="-26.5" x2="204" y2="-15.5"/>
</g>
<g id="LINE_88_">
	<line class="st0" x1="224" y1="-26.5" x2="224" y2="-15.5"/>
</g>
<g id="LINE_89_">
	<line class="st0" x1="124" y1="-26.5" x2="104" y2="-26.5"/>
</g>
<g id="LINE_90_">
	<line class="st0" x1="124" y1="-15.5" x2="104" y2="-15.5"/>
</g>
<g id="LINE_91_">
	<line class="st0" x1="224" y1="-26.5" x2="204" y2="-26.5"/>
</g>
<g id="LINE_92_">
	<line class="st0" x1="224" y1="-15.5" x2="204" y2="-15.5"/>
</g>
<g id="LINE_93_">
	<line class="st0" x1="169.5" y1="-86.5" x2="169.5" y2="-66.5"/>
</g>
<g id="LINE_94_">
	<line class="st0" x1="158.5" y1="-66.5" x2="158.5" y2="-86.5"/>
</g>
<g id="LINE_95_">
	<line class="st0" x1="158.5" y1="-86.5" x2="169.5" y2="-86.5"/>
</g>
<g id="LINE_96_">
	<line class="st0" x1="169.5" y1="-66.5" x2="158.5" y2="-66.5"/>
</g>
<g id="CIRCLE_29_">
	<path class="st0" d="M371.7,94c0-9.4,7.6-17,17-17c9.4,0,17,7.6,17,17s-7.6,17-17,17C379.3,111,371.7,103.4,371.7,94L371.7,94z"/>
</g>
<g id="CIRCLE_30_">
	<path class="st0" d="M411.7,94c0-9.4,7.6-17,17-17s17,7.6,17,17s-7.6,17-17,17S411.7,103.4,411.7,94L411.7,94z"/>
</g>
<g id="CIRCLE_31_">
	<path class="st0" d="M451.7,94c0-9.4,7.6-17,17-17c9.4,0,17,7.6,17,17s-7.6,17-17,17C459.3,111,451.7,103.4,451.7,94L451.7,94z"/>
</g>
<g id="CIRCLE_32_">
	<path class="st0" d="M491.7,94c0-9.4,7.6-17,17-17c9.4,0,17,7.6,17,17s-7.6,17-17,17C499.3,111,491.7,103.4,491.7,94L491.7,94z"/>
</g>
<g id="CIRCLE_33_">
	<path class="st0" d="M531.7,94c0-9.4,7.6-17,17-17c9.4,0,17,7.6,17,17s-7.6,17-17,17C539.3,111,531.7,103.4,531.7,94L531.7,94z"/>
</g>
<g id="CIRCLE_34_">
	<path class="st0" d="M571.7,94c0-9.4,7.6-17,17-17s17,7.6,17,17s-7.6,17-17,17S571.7,103.4,571.7,94L571.7,94z"/>
</g>
<g id="CIRCLE_35_">
	<path class="st0" d="M611.7,94c0-9.4,7.6-17,17-17s17,7.6,17,17s-7.6,17-17,17S611.7,103.4,611.7,94L611.7,94z"/>
</g>
<g id="CIRCLE_36_">
	<path class="st0" d="M651.7,94c0-9.4,7.6-17,17-17s17,7.6,17,17s-7.6,17-17,17S651.7,103.4,651.7,94L651.7,94z"/>
</g>
<g id="CIRCLE_37_">
	<path class="st0" d="M691.7,94c0-9.4,7.6-17,17-17s17,7.6,17,17s-7.6,17-17,17S691.7,103.4,691.7,94L691.7,94z"/>
</g>
<g id="CIRCLE_38_">
	<path class="st0" d="M731.7,94c0-9.4,7.6-17,17-17c9.4,0,17,7.6,17,17s-7.6,17-17,17C739.3,111,731.7,103.4,731.7,94L731.7,94z"/>
</g>
<g id="CIRCLE_39_">
	<path class="st0" d="M371.7,174c0-9.4,7.6-17,17-17c9.4,0,17,7.6,17,17c0,9.4-7.6,17-17,17C379.3,191,371.7,183.4,371.7,174
		L371.7,174z"/>
</g>
<g id="CIRCLE_40_">
	<path class="st0" d="M411.7,174c0-9.4,7.6-17,17-17s17,7.6,17,17c0,9.4-7.6,17-17,17S411.7,183.4,411.7,174L411.7,174z"/>
</g>
<g id="CIRCLE_41_">
	<path class="st0" d="M451.7,174c0-9.4,7.6-17,17-17c9.4,0,17,7.6,17,17c0,9.4-7.6,17-17,17C459.3,191,451.7,183.4,451.7,174
		L451.7,174z"/>
</g>
<g id="CIRCLE_42_">
	<path class="st0" d="M491.7,174c0-9.4,7.6-17,17-17c9.4,0,17,7.6,17,17c0,9.4-7.6,17-17,17C499.3,191,491.7,183.4,491.7,174
		L491.7,174z"/>
</g>
<g id="CIRCLE_43_">
	<path class="st0" d="M531.7,174c0-9.4,7.6-17,17-17c9.4,0,17,7.6,17,17c0,9.4-7.6,17-17,17C539.3,191,531.7,183.4,531.7,174
		L531.7,174z"/>
</g>
<g id="CIRCLE_44_">
	<path class="st0" d="M571.7,174c0-9.4,7.6-17,17-17s17,7.6,17,17c0,9.4-7.6,17-17,17S571.7,183.4,571.7,174L571.7,174z"/>
</g>
<g id="CIRCLE_45_">
	<path class="st0" d="M611.7,174c0-9.4,7.6-17,17-17s17,7.6,17,17c0,9.4-7.6,17-17,17S611.7,183.4,611.7,174L611.7,174z"/>
</g>
<g id="CIRCLE_46_">
	<path class="st0" d="M651.7,174c0-9.4,7.6-17,17-17s17,7.6,17,17c0,9.4-7.6,17-17,17S651.7,183.4,651.7,174L651.7,174z"/>
</g>
<g id="CIRCLE_47_">
	<path class="st0" d="M691.7,174c0-9.4,7.6-17,17-17s17,7.6,17,17c0,9.4-7.6,17-17,17S691.7,183.4,691.7,174L691.7,174z"/>
</g>
<g id="CIRCLE_48_">
	<path class="st0" d="M731.7,174c0-9.4,7.6-17,17-17c9.4,0,17,7.6,17,17c0,9.4-7.6,17-17,17C739.3,191,731.7,183.4,731.7,174
		L731.7,174z"/>
</g>
<g id="CIRCLE_49_">
	<path class="st0" d="M391.7,134c0-9.4,7.6-17,17-17s17,7.6,17,17s-7.6,17-17,17S391.7,143.4,391.7,134L391.7,134z"/>
</g>
<g id="CIRCLE_50_">
	<path class="st0" d="M431.7,134c0-9.4,7.6-17,17-17c9.4,0,17,7.6,17,17s-7.6,17-17,17C439.3,151,431.7,143.4,431.7,134L431.7,134z"
		/>
</g>
<g id="CIRCLE_51_">
	<path class="st0" d="M471.7,134c0-9.4,7.6-17,17-17c9.4,0,17,7.6,17,17s-7.6,17-17,17C479.3,151,471.7,143.4,471.7,134L471.7,134z"
		/>
</g>
<g id="CIRCLE_52_">
	<path class="st0" d="M511.7,134c0-9.4,7.6-17,17-17c9.4,0,17,7.6,17,17s-7.6,17-17,17C519.3,151,511.7,143.4,511.7,134L511.7,134z"
		/>
</g>
<g id="CIRCLE_53_">
	<path class="st0" d="M551.7,134c0-9.4,7.6-17,17-17c9.4,0,17,7.6,17,17s-7.6,17-17,17C559.3,151,551.7,143.4,551.7,134L551.7,134z"
		/>
</g>
<g id="CIRCLE_54_">
	<path class="st0" d="M591.7,134c0-9.4,7.6-17,17-17s17,7.6,17,17s-7.6,17-17,17S591.7,143.4,591.7,134L591.7,134z"/>
</g>
<g id="CIRCLE_55_">
	<path class="st0" d="M631.7,134c0-9.4,7.6-17,17-17s17,7.6,17,17s-7.6,17-17,17S631.7,143.4,631.7,134L631.7,134z"/>
</g>
<g id="CIRCLE_56_">
	<path class="st0" d="M671.7,134c0-9.4,7.6-17,17-17s17,7.6,17,17s-7.6,17-17,17S671.7,143.4,671.7,134L671.7,134z"/>
</g>
<g id="CIRCLE_57_">
	<path class="st0" d="M711.7,134c0-9.4,7.6-17,17-17c9.4,0,17,7.6,17,17s-7.6,17-17,17C719.3,151,711.7,143.4,711.7,134L711.7,134z"
		/>
</g>
<g id="CIRCLE_58_">
	<path class="st0" d="M368.7,269.3c0-9.4,7.6-17,17-17s17,7.6,17,17c0,9.4-7.6,17-17,17S368.7,278.7,368.7,269.3L368.7,269.3z"/>
</g>
<g id="CIRCLE_59_">
	<path class="st0" d="M408.7,269.3c0-9.4,7.6-17,17-17c9.4,0,17,7.6,17,17c0,9.4-7.6,17-17,17C416.3,286.3,408.7,278.7,408.7,269.3
		L408.7,269.3z"/>
</g>
<g id="CIRCLE_60_">
	<path class="st0" d="M448.7,269.3c0-9.4,7.6-17,17-17c9.4,0,17,7.6,17,17c0,9.4-7.6,17-17,17C456.3,286.3,448.7,278.7,448.7,269.3
		L448.7,269.3z"/>
</g>
<g id="CIRCLE_61_">
	<path class="st0" d="M488.7,269.3c0-9.4,7.6-17,17-17c9.4,0,17,7.6,17,17c0,9.4-7.6,17-17,17C496.3,286.3,488.7,278.7,488.7,269.3
		L488.7,269.3z"/>
</g>
<g id="CIRCLE_62_">
	<path class="st0" d="M528.7,269.3c0-9.4,7.6-17,17-17s17,7.6,17,17c0,9.4-7.6,17-17,17S528.7,278.7,528.7,269.3L528.7,269.3z"/>
</g>
<g id="CIRCLE_63_">
	<path class="st0" d="M568.7,269.3c0-9.4,7.6-17,17-17s17,7.6,17,17c0,9.4-7.6,17-17,17S568.7,278.7,568.7,269.3L568.7,269.3z"/>
</g>
<g id="CIRCLE_64_">
	<path class="st0" d="M608.7,269.3c0-9.4,7.6-17,17-17s17,7.6,17,17c0,9.4-7.6,17-17,17S608.7,278.7,608.7,269.3L608.7,269.3z"/>
</g>
<g id="CIRCLE_65_">
	<path class="st0" d="M648.7,269.3c0-9.4,7.6-17,17-17s17,7.6,17,17c0,9.4-7.6,17-17,17S648.7,278.7,648.7,269.3L648.7,269.3z"/>
</g>
<g id="CIRCLE_66_">
	<path class="st0" d="M688.7,269.3c0-9.4,7.6-17,17-17c9.4,0,17,7.6,17,17c0,9.4-7.6,17-17,17C696.3,286.3,688.7,278.7,688.7,269.3
		L688.7,269.3z"/>
</g>
<g id="CIRCLE_67_">
	<path class="st0" d="M728.7,269.3c0-9.4,7.6-17,17-17c9.4,0,17,7.6,17,17c0,9.4-7.6,17-17,17C736.3,286.3,728.7,278.7,728.7,269.3
		L728.7,269.3z"/>
</g>
<g id="CIRCLE_68_">
	<path class="st0" d="M368.7,349.3c0-9.4,7.6-17,17-17s17,7.6,17,17c0,9.4-7.6,17-17,17S368.7,358.7,368.7,349.3L368.7,349.3z"/>
</g>
<g id="CIRCLE_69_">
	<path class="st0" d="M408.7,349.3c0-9.4,7.6-17,17-17c9.4,0,17,7.6,17,17c0,9.4-7.6,17-17,17C416.3,366.3,408.7,358.7,408.7,349.3
		L408.7,349.3z"/>
</g>
<g id="CIRCLE_70_">
	<path class="st0" d="M448.7,349.3c0-9.4,7.6-17,17-17c9.4,0,17,7.6,17,17c0,9.4-7.6,17-17,17C456.3,366.3,448.7,358.7,448.7,349.3
		L448.7,349.3z"/>
</g>
<g id="CIRCLE_71_">
	<path class="st0" d="M488.7,349.3c0-9.4,7.6-17,17-17c9.4,0,17,7.6,17,17c0,9.4-7.6,17-17,17C496.3,366.3,488.7,358.7,488.7,349.3
		L488.7,349.3z"/>
</g>
<g id="CIRCLE_72_">
	<path class="st0" d="M528.7,349.3c0-9.4,7.6-17,17-17s17,7.6,17,17c0,9.4-7.6,17-17,17S528.7,358.7,528.7,349.3L528.7,349.3z"/>
</g>
<g id="CIRCLE_73_">
	<path class="st0" d="M568.7,349.3c0-9.4,7.6-17,17-17s17,7.6,17,17c0,9.4-7.6,17-17,17S568.7,358.7,568.7,349.3L568.7,349.3z"/>
</g>
<g id="CIRCLE_74_">
	<path class="st0" d="M608.7,349.3c0-9.4,7.6-17,17-17s17,7.6,17,17c0,9.4-7.6,17-17,17S608.7,358.7,608.7,349.3L608.7,349.3z"/>
</g>
<g id="CIRCLE_75_">
	<path class="st0" d="M648.7,349.3c0-9.4,7.6-17,17-17s17,7.6,17,17c0,9.4-7.6,17-17,17S648.7,358.7,648.7,349.3L648.7,349.3z"/>
</g>
<g id="CIRCLE_76_">
	<path class="st0" d="M688.7,349.3c0-9.4,7.6-17,17-17c9.4,0,17,7.6,17,17c0,9.4-7.6,17-17,17C696.3,366.3,688.7,358.7,688.7,349.3
		L688.7,349.3z"/>
</g>
<g id="CIRCLE_77_">
	<path class="st0" d="M728.7,349.3c0-9.4,7.6-17,17-17c9.4,0,17,7.6,17,17c0,9.4-7.6,17-17,17C736.3,366.3,728.7,358.7,728.7,349.3
		L728.7,349.3z"/>
</g>
<g id="CIRCLE_78_">
	<path class="st0" d="M388.7,309.3c0-9.4,7.6-17,17-17c9.4,0,17,7.6,17,17c0,9.4-7.6,17-17,17C396.3,326.3,388.7,318.7,388.7,309.3
		L388.7,309.3z"/>
</g>
<g id="CIRCLE_79_">
	<path class="st0" d="M428.7,309.3c0-9.4,7.6-17,17-17c9.4,0,17,7.6,17,17c0,9.4-7.6,17-17,17C436.3,326.3,428.7,318.7,428.7,309.3
		L428.7,309.3z"/>
</g>
<g id="CIRCLE_80_">
	<path class="st0" d="M468.7,309.3c0-9.4,7.6-17,17-17s17,7.6,17,17c0,9.4-7.6,17-17,17S468.7,318.7,468.7,309.3L468.7,309.3z"/>
</g>
<g id="CIRCLE_81_">
	<path class="st0" d="M508.7,309.3c0-9.4,7.6-17,17-17c9.4,0,17,7.6,17,17c0,9.4-7.6,17-17,17C516.3,326.3,508.7,318.7,508.7,309.3
		L508.7,309.3z"/>
</g>
<g id="CIRCLE_82_">
	<path class="st0" d="M548.7,309.3c0-9.4,7.6-17,17-17s17,7.6,17,17c0,9.4-7.6,17-17,17S548.7,318.7,548.7,309.3L548.7,309.3z"/>
</g>
<g id="CIRCLE_83_">
	<path class="st0" d="M588.7,309.3c0-9.4,7.6-17,17-17s17,7.6,17,17c0,9.4-7.6,17-17,17S588.7,318.7,588.7,309.3L588.7,309.3z"/>
</g>
<g id="CIRCLE_84_">
	<path class="st0" d="M628.7,309.3c0-9.4,7.6-17,17-17s17,7.6,17,17c0,9.4-7.6,17-17,17S628.7,318.7,628.7,309.3L628.7,309.3z"/>
</g>
<g id="CIRCLE_85_">
	<path class="st0" d="M668.7,309.3c0-9.4,7.6-17,17-17c9.4,0,17,7.6,17,17c0,9.4-7.6,17-17,17C676.3,326.3,668.7,318.7,668.7,309.3
		L668.7,309.3z"/>
</g>
<g id="CIRCLE_86_">
	<path class="st0" d="M708.7,309.3c0-9.4,7.6-17,17-17c9.4,0,17,7.6,17,17c0,9.4-7.6,17-17,17C716.3,326.3,708.7,318.7,708.7,309.3
		L708.7,309.3z"/>
</g>
<g id="LINE_97_">
	<line class="st0" x1="274.7" y1="624.5" x2="254.7" y2="624.5"/>
</g>
<g id="LINE_98_">
	<line class="st0" x1="254.7" y1="624.5" x2="234.7" y2="604.5"/>
</g>
<g id="LINE_99_">
	<line class="st0" x1="234.7" y1="604.5" x2="114.7" y2="604.5"/>
</g>
<g id="LINE_100_">
	<line class="st0" x1="114.7" y1="604.5" x2="94.7" y2="624.5"/>
</g>
<g id="LINE_101_">
	<line class="st0" x1="94.7" y1="624.5" x2="74.7" y2="624.5"/>
</g>
<g id="LINE_102_">
	<line class="st0" x1="74.7" y1="624.5" x2="94.7" y2="544.5"/>
</g>
<g id="LINE_103_">
	<line class="st0" x1="94.7" y1="544.5" x2="94.7" y2="484.5"/>
</g>
<g id="LINE_104_">
	<line class="st0" x1="254.7" y1="484.5" x2="254.7" y2="544.5"/>
</g>
<g id="LINE_105_">
	<line class="st0" x1="254.7" y1="544.5" x2="274.7" y2="624.5"/>
</g>
<g id="LINE_106_">
	<line class="st0" x1="234.7" y1="564.5" x2="234.7" y2="553.5"/>
</g>
<g id="LINE_107_">
	<line class="st0" x1="214.7" y1="564.5" x2="214.7" y2="553.5"/>
</g>
<g id="LINE_108_">
	<line class="st0" x1="134.7" y1="564.5" x2="134.7" y2="553.5"/>
</g>
<g id="LINE_109_">
	<line class="st0" x1="114.7" y1="564.5" x2="114.7" y2="553.5"/>
</g>
<g id="LINE_110_">
	<line class="st0" x1="214.7" y1="564.5" x2="234.7" y2="564.5"/>
</g>
<g id="LINE_111_">
	<line class="st0" x1="214.7" y1="553.5" x2="234.7" y2="553.5"/>
</g>
<g id="LINE_112_">
	<line class="st0" x1="114.7" y1="564.5" x2="134.7" y2="564.5"/>
</g>
<g id="LINE_113_">
	<line class="st0" x1="114.7" y1="553.5" x2="134.7" y2="553.5"/>
</g>
<g id="LINE_114_">
	<line class="st0" x1="234.7" y1="524.5" x2="234.7" y2="513.5"/>
</g>
<g id="LINE_115_">
	<line class="st0" x1="214.7" y1="524.5" x2="214.7" y2="513.5"/>
</g>
<g id="LINE_116_">
	<line class="st0" x1="134.7" y1="524.5" x2="134.7" y2="513.5"/>
</g>
<g id="LINE_117_">
	<line class="st0" x1="114.7" y1="524.5" x2="114.7" y2="513.5"/>
</g>
<g id="LINE_118_">
	<line class="st0" x1="214.7" y1="524.5" x2="234.7" y2="524.5"/>
</g>
<g id="LINE_119_">
	<line class="st0" x1="214.7" y1="513.5" x2="234.7" y2="513.5"/>
</g>
<g id="LINE_120_">
	<line class="st0" x1="114.7" y1="524.5" x2="134.7" y2="524.5"/>
</g>
<g id="LINE_121_">
	<line class="st0" x1="114.7" y1="513.5" x2="134.7" y2="513.5"/>
</g>
<g id="LINE_122_">
	<line class="st0" x1="180.2" y1="564.5" x2="180.2" y2="584.5"/>
</g>
<g id="LINE_123_">
	<line class="st0" x1="169.2" y1="584.5" x2="169.2" y2="564.5"/>
</g>
<g id="LINE_124_">
	<line class="st0" x1="169.2" y1="564.5" x2="180.2" y2="564.5"/>
</g>
<g id="LINE_125_">
	<line class="st0" x1="180.2" y1="584.5" x2="169.2" y2="584.5"/>
</g>
<g id="LINE_126_">
	<line class="st0" x1="94.7" y1="344.5" x2="254.7" y2="344.5"/>
</g>
<g id="LINE_127_">
	<line class="st0" x1="104" y1="133.5" x2="104" y2="144.5"/>
</g>
<g id="LINE_128_">
	<line class="st0" x1="124" y1="133.5" x2="124" y2="144.5"/>
</g>
<g id="LINE_129_">
	<line class="st0" x1="204" y1="133.5" x2="204" y2="144.5"/>
</g>
<g id="LINE_130_">
	<line class="st0" x1="224" y1="133.5" x2="224" y2="144.5"/>
</g>
<g id="LINE_131_">
	<line class="st0" x1="124" y1="133.5" x2="104" y2="133.5"/>
</g>
<g id="LINE_132_">
	<line class="st0" x1="124" y1="144.5" x2="104" y2="144.5"/>
</g>
<g id="LINE_133_">
	<line class="st0" x1="224" y1="133.5" x2="204" y2="133.5"/>
</g>
<g id="LINE_134_">
	<line class="st0" x1="224" y1="144.5" x2="204" y2="144.5"/>
</g>
<g id="LINE_135_">
	<line class="st0" x1="234.7" y1="364.5" x2="234.7" y2="353.5"/>
</g>
<g id="LINE_136_">
	<line class="st0" x1="214.7" y1="364.5" x2="214.7" y2="353.5"/>
</g>
<g id="LINE_137_">
	<line class="st0" x1="134.7" y1="364.5" x2="134.7" y2="353.5"/>
</g>
<g id="LINE_138_">
	<line class="st0" x1="114.7" y1="364.5" x2="114.7" y2="353.5"/>
</g>
<g id="LINE_139_">
	<line class="st0" x1="214.7" y1="364.5" x2="234.7" y2="364.5"/>
</g>
<g id="LINE_140_">
	<line class="st0" x1="214.7" y1="353.5" x2="234.7" y2="353.5"/>
</g>
<g id="LINE_141_">
	<line class="st0" x1="114.7" y1="364.5" x2="134.7" y2="364.5"/>
</g>
<g id="LINE_142_">
	<line class="st0" x1="114.7" y1="353.5" x2="134.7" y2="353.5"/>
</g>
<g id="LINE_143_">
	<polyline class="st0" points="84,13.5 84,153.5 244,153.5 	"/>
</g>
<g id="LINE_144_">
	<line class="st0" x1="244" y1="13.5" x2="244" y2="153.5"/>
</g>
<g id="LINE_145_">
	<line class="st0" x1="254.7" y1="344.5" x2="254.7" y2="484.5"/>
</g>
<g id="LINE_146_">
	<line class="st0" x1="94.7" y1="484.5" x2="94.7" y2="344.5"/>
</g>
</svg>
