<?xml version="1.0" encoding="utf-8"?>
<!-- Generator: Adobe Illustrator 24.0.2, SVG Export Plug-In . SVG Version: 6.00 Build 0)  -->
<svg version="1.1" id="Front" xmlns="http://www.w3.org/2000/svg" xmlns:xlink="http://www.w3.org/1999/xlink" x="0px" y="0px"
	 width="2017.3px" height="2941.8px" viewBox="0 0 2017.3 2941.8" style="enable-background:new 0 0 2017.3 2941.8;"
	 xml:space="preserve">
<style type="text/css">
	.st0{fill:none;stroke:#FF0000;stroke-linecap:round;stroke-linejoin:round;stroke-miterlimit:10;}
</style>
<g id="CIRCLE_17_">
	<path class="st0" d="M927.3,854.8c0-2.3,1.9-4.3,4.3-4.3c2.3,0,4.3,1.9,4.3,4.3c0,2.3-1.9,4.3-4.3,4.3S927.3,857.2,927.3,854.8
		L927.3,854.8z"/>
</g>
<g id="CIRCLE_18_">
	<path class="st0" d="M927.3,1084.4c0-2.3,1.9-4.3,4.3-4.3c2.3,0,4.3,1.9,4.3,4.3s-1.9,4.3-4.3,4.3
		C929.2,1088.7,927.3,1086.8,927.3,1084.4L927.3,1084.4z"/>
</g>
<g id="CIRCLE_19_">
	<path class="st0" d="M1156.9,1084.4c0-2.3,1.9-4.3,4.3-4.3s4.3,1.9,4.3,4.3s-1.9,4.3-4.3,4.3S1156.9,1086.8,1156.9,1084.4
		L1156.9,1084.4z"/>
</g>
<g id="CIRCLE_20_">
	<path class="st0" d="M1156.9,854.8c0-2.3,1.9-4.3,4.3-4.3s4.3,1.9,4.3,4.3c0,2.3-1.9,4.3-4.3,4.3S1156.9,857.2,1156.9,854.8
		L1156.9,854.8z"/>
</g>
<g id="CIRCLE_21_">
	<path class="st0" d="M1035,969.6c0-6.3,5.1-11.3,11.3-11.3c6.3,0,11.3,5.1,11.3,11.3c0,6.3-5.1,11.3-11.3,11.3
		C1040.1,980.9,1035,975.9,1035,969.6L1035,969.6z"/>
</g>
<g id="CIRCLE_30_">
	<path class="st0" d="M650.9,969.6c0-218.4,177-395.4,395.4-395.4s395.4,177,395.4,395.4s-177,395.4-395.4,395.4
		S650.9,1188,650.9,969.6L650.9,969.6z"/>
</g>
<g id="LINE_126_">
	<line class="st0" x1="1032.1" y1="790.2" x2="1041.8" y2="790.2"/>
</g>
<g id="LINE_127_">
	<line class="st0" x1="1050.9" y1="790.2" x2="1060.5" y2="790.2"/>
</g>
<g id="LINE_128_">
	<line class="st0" x1="1032.1" y1="790.5" x2="1041.8" y2="790.5"/>
</g>
<g id="LINE_129_">
	<line class="st0" x1="1050.9" y1="790.5" x2="1060.5" y2="790.5"/>
</g>
<g id="ARC_48_">
	<path class="st0" d="M1050.9,790.2c-0.1-2.5-2.2-4.4-4.7-4.3c-2.4,0.1-4.3,2-4.3,4.3"/>
</g>
<g id="ARC_49_">
	<path class="st0" d="M1041.8,790.5c0.1,2.5,2.2,4.4,4.7,4.3c2.4-0.1,4.3-2,4.3-4.3"/>
</g>
<g id="LINE_130_">
	<line class="st0" x1="1018" y1="797.2" x2="1032.1" y2="797.2"/>
</g>
<g id="LINE_131_">
	<line class="st0" x1="1060.5" y1="797.2" x2="1074.7" y2="797.2"/>
</g>
<g id="LINE_132_">
	<line class="st0" x1="1032.1" y1="790.5" x2="1032.1" y2="797.2"/>
</g>
<g id="LINE_133_">
	<line class="st0" x1="1060.5" y1="790.5" x2="1060.5" y2="797.2"/>
</g>
<g id="LINE_134_">
	<line class="st0" x1="1060.5" y1="783.5" x2="1060.5" y2="790.2"/>
</g>
<g id="LINE_135_">
	<line class="st0" x1="1018" y1="783.5" x2="1032.1" y2="783.5"/>
</g>
<g id="LINE_136_">
	<line class="st0" x1="1060.5" y1="783.5" x2="1074.7" y2="783.5"/>
</g>
<g id="LINE_137_">
	<line class="st0" x1="1074.7" y1="783.5" x2="1074.7" y2="797.2"/>
</g>
<g id="LINE_138_">
	<line class="st0" x1="1032.1" y1="783.5" x2="1032.1" y2="790.2"/>
</g>
<g id="LINE_139_">
	<line class="st0" x1="1018" y1="783.5" x2="1018" y2="797.2"/>
</g>
<g id="LINE_140_">
	<line class="st0" x1="883.8" y1="892.2" x2="888.7" y2="883.8"/>
</g>
<g id="LINE_141_">
	<line class="st0" x1="893.2" y1="876" x2="898" y2="867.6"/>
</g>
<g id="LINE_142_">
	<line class="st0" x1="884.2" y1="892.3" x2="889" y2="884"/>
</g>
<g id="LINE_143_">
	<line class="st0" x1="893.5" y1="876.1" x2="898.3" y2="867.8"/>
</g>
<g id="ARC_50_">
	<path class="st0" d="M893.2,876c-2.2-1.2-5-0.3-6.1,1.9c-1.1,2.1-0.4,4.7,1.6,5.9"/>
</g>
<g id="ARC_51_">
	<path class="st0" d="M889,884c2.2,1.2,5,0.3,6.1-1.9c1.1-2.1,0.4-4.7-1.6-5.9"/>
</g>
<g id="LINE_144_">
	<line class="st0" x1="882.8" y1="908" x2="889.9" y2="895.7"/>
</g>
<g id="LINE_145_">
	<line class="st0" x1="904.1" y1="871.1" x2="911.2" y2="858.9"/>
</g>
<g id="LINE_146_">
	<line class="st0" x1="884.2" y1="892.3" x2="889.9" y2="895.7"/>
</g>
<g id="LINE_147_">
	<line class="st0" x1="898.3" y1="867.8" x2="904.1" y2="871.1"/>
</g>
<g id="LINE_148_">
	<line class="st0" x1="892.2" y1="864.3" x2="898" y2="867.6"/>
</g>
<g id="LINE_149_">
	<line class="st0" x1="871" y1="901.1" x2="878.1" y2="888.8"/>
</g>
<g id="LINE_150_">
	<line class="st0" x1="892.2" y1="864.3" x2="899.3" y2="852"/>
</g>
<g id="LINE_151_">
	<line class="st0" x1="899.3" y1="852" x2="911.2" y2="858.9"/>
</g>
<g id="LINE_152_">
	<line class="st0" x1="878.1" y1="888.8" x2="883.8" y2="892.2"/>
</g>
<g id="LINE_153_">
	<line class="st0" x1="871" y1="901.1" x2="882.8" y2="908"/>
</g>
<g id="LINE_154_">
	<line class="st0" x1="898" y1="1071.6" x2="893.2" y2="1063.2"/>
</g>
<g id="LINE_155_">
	<line class="st0" x1="888.7" y1="1055.4" x2="883.8" y2="1047"/>
</g>
<g id="LINE_156_">
	<line class="st0" x1="898.3" y1="1071.4" x2="893.5" y2="1063.1"/>
</g>
<g id="LINE_157_">
	<line class="st0" x1="889" y1="1055.2" x2="884.2" y2="1046.9"/>
</g>
<g id="ARC_52_">
	<path class="st0" d="M888.7,1055.4c-2.1,1.3-2.7,4.1-1.4,6.3c1.3,2,3.8,2.7,5.9,1.6"/>
</g>
<g id="ARC_53_">
	<path class="st0" d="M893.5,1063.1c2.1-1.3,2.7-4.1,1.4-6.3c-1.3-2-3.8-2.7-5.9-1.6"/>
</g>
<g id="LINE_158_">
	<line class="st0" x1="911.2" y1="1080.4" x2="904.1" y2="1068.1"/>
</g>
<g id="LINE_159_">
	<line class="st0" x1="889.9" y1="1043.5" x2="882.8" y2="1031.3"/>
</g>
<g id="LINE_160_">
	<line class="st0" x1="898.3" y1="1071.4" x2="904.1" y2="1068.1"/>
</g>
<g id="LINE_161_">
	<line class="st0" x1="884.2" y1="1046.9" x2="889.9" y2="1043.5"/>
</g>
<g id="LINE_162_">
	<line class="st0" x1="878.1" y1="1050.4" x2="883.8" y2="1047"/>
</g>
<g id="LINE_163_">
	<line class="st0" x1="899.3" y1="1087.2" x2="892.2" y2="1074.9"/>
</g>
<g id="LINE_164_">
	<line class="st0" x1="878.1" y1="1050.4" x2="871" y2="1038.1"/>
</g>
<g id="LINE_165_">
	<line class="st0" x1="871" y1="1038.1" x2="882.8" y2="1031.3"/>
</g>
<g id="LINE_166_">
	<line class="st0" x1="892.2" y1="1074.9" x2="898" y2="1071.6"/>
</g>
<g id="LINE_167_">
	<line class="st0" x1="899.3" y1="1087.2" x2="911.2" y2="1080.4"/>
</g>
<g id="LINE_168_">
	<line class="st0" x1="1060.5" y1="1149" x2="1050.9" y2="1149"/>
</g>
<g id="LINE_169_">
	<line class="st0" x1="1041.8" y1="1149" x2="1032.1" y2="1149"/>
</g>
<g id="LINE_170_">
	<line class="st0" x1="1060.5" y1="1148.7" x2="1050.9" y2="1148.7"/>
</g>
<g id="LINE_171_">
	<line class="st0" x1="1041.8" y1="1148.7" x2="1032.1" y2="1148.7"/>
</g>
<g id="ARC_54_">
	<path class="st0" d="M1041.8,1149c0.1,2.5,2.2,4.4,4.7,4.3c2.4-0.1,4.3-2,4.3-4.3"/>
</g>
<g id="ARC_55_">
	<path class="st0" d="M1050.9,1148.7c-0.1-2.5-2.2-4.4-4.7-4.3c-2.4,0.1-4.3,2-4.3,4.3"/>
</g>
<g id="LINE_172_">
	<line class="st0" x1="1074.7" y1="1142" x2="1060.5" y2="1142"/>
</g>
<g id="LINE_173_">
	<line class="st0" x1="1032.1" y1="1142" x2="1018" y2="1142"/>
</g>
<g id="LINE_174_">
	<line class="st0" x1="1060.5" y1="1148.7" x2="1060.5" y2="1142"/>
</g>
<g id="LINE_175_">
	<line class="st0" x1="1032.1" y1="1148.7" x2="1032.1" y2="1142"/>
</g>
<g id="LINE_176_">
	<line class="st0" x1="1032.1" y1="1155.7" x2="1032.1" y2="1149"/>
</g>
<g id="LINE_177_">
	<line class="st0" x1="1074.7" y1="1155.7" x2="1060.5" y2="1155.7"/>
</g>
<g id="LINE_178_">
	<line class="st0" x1="1032.1" y1="1155.7" x2="1018" y2="1155.7"/>
</g>
<g id="LINE_179_">
	<line class="st0" x1="1018" y1="1155.7" x2="1018" y2="1142"/>
</g>
<g id="LINE_180_">
	<line class="st0" x1="1060.5" y1="1155.7" x2="1060.5" y2="1149"/>
</g>
<g id="LINE_181_">
	<line class="st0" x1="1074.7" y1="1155.7" x2="1074.7" y2="1142"/>
</g>
<g id="LINE_182_">
	<line class="st0" x1="1208.8" y1="1047" x2="1204" y2="1055.4"/>
</g>
<g id="LINE_183_">
	<line class="st0" x1="1199.4" y1="1063.2" x2="1194.6" y2="1071.6"/>
</g>
<g id="LINE_184_">
	<line class="st0" x1="1208.5" y1="1046.9" x2="1203.7" y2="1055.2"/>
</g>
<g id="LINE_185_">
	<line class="st0" x1="1199.1" y1="1063.1" x2="1194.3" y2="1071.4"/>
</g>
<g id="ARC_56_">
	<path class="st0" d="M1199.4,1063.2c2.2,1.2,5,0.3,6.1-1.9c1.1-2.1,0.4-4.7-1.6-5.9"/>
</g>
<g id="ARC_57_">
	<path class="st0" d="M1203.7,1055.2c-2.2-1.2-5-0.3-6.1,1.9c-1.1,2.1-0.4,4.7,1.6,5.9"/>
</g>
<g id="LINE_186_">
	<line class="st0" x1="1209.8" y1="1031.3" x2="1202.7" y2="1043.5"/>
</g>
<g id="LINE_187_">
	<line class="st0" x1="1188.5" y1="1068.1" x2="1181.5" y2="1080.4"/>
</g>
<g id="LINE_188_">
	<line class="st0" x1="1208.5" y1="1046.9" x2="1202.7" y2="1043.5"/>
</g>
<g id="LINE_189_">
	<line class="st0" x1="1194.3" y1="1071.4" x2="1188.5" y2="1068.1"/>
</g>
<g id="LINE_190_">
	<line class="st0" x1="1200.4" y1="1074.9" x2="1194.6" y2="1071.6"/>
</g>
<g id="LINE_191_">
	<line class="st0" x1="1221.7" y1="1038.1" x2="1214.6" y2="1050.4"/>
</g>
<g id="LINE_192_">
	<line class="st0" x1="1200.4" y1="1074.9" x2="1193.3" y2="1087.2"/>
</g>
<g id="LINE_193_">
	<line class="st0" x1="1193.3" y1="1087.2" x2="1181.5" y2="1080.4"/>
</g>
<g id="LINE_194_">
	<line class="st0" x1="1214.6" y1="1050.4" x2="1208.8" y2="1047"/>
</g>
<g id="LINE_195_">
	<line class="st0" x1="1221.7" y1="1038.1" x2="1209.8" y2="1031.3"/>
</g>
<g id="LINE_196_">
	<line class="st0" x1="1194.6" y1="867.6" x2="1199.4" y2="876"/>
</g>
<g id="LINE_197_">
	<line class="st0" x1="1204" y1="883.8" x2="1208.8" y2="892.2"/>
</g>
<g id="LINE_198_">
	<line class="st0" x1="1194.3" y1="867.8" x2="1199.1" y2="876.1"/>
</g>
<g id="LINE_199_">
	<line class="st0" x1="1203.7" y1="884" x2="1208.5" y2="892.3"/>
</g>
<g id="ARC_58_">
	<path class="st0" d="M1204,883.8c2.1-1.3,2.7-4.1,1.4-6.3c-1.3-2-3.8-2.7-5.9-1.6"/>
</g>
<g id="ARC_59_">
	<path class="st0" d="M1199.1,876.1c-2.1,1.3-2.7,4.1-1.4,6.3c1.3,2,3.8,2.7,5.9,1.6"/>
</g>
<g id="LINE_200_">
	<line class="st0" x1="1181.5" y1="858.9" x2="1188.5" y2="871.1"/>
</g>
<g id="LINE_201_">
	<line class="st0" x1="1202.7" y1="895.7" x2="1209.8" y2="908"/>
</g>
<g id="LINE_202_">
	<line class="st0" x1="1194.3" y1="867.8" x2="1188.5" y2="871.1"/>
</g>
<g id="LINE_203_">
	<line class="st0" x1="1208.5" y1="892.3" x2="1202.7" y2="895.7"/>
</g>
<g id="LINE_204_">
	<line class="st0" x1="1214.6" y1="888.8" x2="1208.8" y2="892.2"/>
</g>
<g id="LINE_205_">
	<line class="st0" x1="1193.3" y1="852" x2="1200.4" y2="864.3"/>
</g>
<g id="LINE_206_">
	<line class="st0" x1="1214.6" y1="888.8" x2="1221.7" y2="901.1"/>
</g>
<g id="LINE_207_">
	<line class="st0" x1="1221.7" y1="901.1" x2="1209.8" y2="908"/>
</g>
<g id="LINE_208_">
	<line class="st0" x1="1200.4" y1="864.3" x2="1194.6" y2="867.6"/>
</g>
<g id="LINE_209_">
	<line class="st0" x1="1193.3" y1="852" x2="1181.5" y2="858.9"/>
</g>
<g id="LINE_234_">
	<path class="st0" d="M297.7,1380.2h-9.6v-6.7h-14.2v13.7h14.2v-6.6h9.6c0.1,2.5,2.2,4.4,4.7,4.3c2.4-0.1,4.3-2,4.3-4.3h0.1h9.6v6.6
		h14.2v-13.7h-14.2v6.7h-9.6c-0.1-2.5-2.2-4.4-4.7-4.3C299.7,1376,297.8,1377.9,297.7,1380.2"/>
</g>
<g id="LINE_248_">
	<path class="st0" d="M306.8,559h9.6v6.7h14.2V552h-14.2v6.6h-9.6c-0.1-2.5-2.2-4.4-4.7-4.3c-2.4,0.1-4.3,2-4.3,4.3h-0.1h-9.6V552
		h-14.2v13.7h14.2V559h9.6c0.1,2.5,2.2,4.4,4.7,4.3C304.8,563.2,306.7,561.3,306.8,559"/>
</g>
<g id="LINE_262_">
	<path class="st0" d="M1456.9,1146.6v9.6h-6.6v14.2h13.6v-14.2h-6.6v-9.6c2.5-0.1,4.4-2.2,4.3-4.7c-0.1-2.4-2-4.3-4.3-4.3v-0.1v-9.6
		h6.6v-14.2h-13.6v14.2h6.6v9.6c-2.5,0.1-4.4,2.2-4.3,4.7C1452.7,1144.6,1454.6,1146.5,1456.9,1146.6"/>
</g>
<g id="LINE_276_">
	<path class="st0" d="M635.7,1137.5v-9.6h6.7v-14.2h-13.7v14.2h6.7v9.6c-2.5,0.1-4.4,2.2-4.3,4.7c0.1,2.4,2,4.3,4.3,4.3v0.1v9.6
		h-6.7v14.2h13.7v-14.2h-6.7v-9.6c2.5-0.1,4.4-2.2,4.3-4.7C639.9,1139.5,638,1137.6,635.7,1137.5"/>
</g>
<g id="LINE_290_">
	<path class="st0" d="M1456.9,801.7v9.6h-6.6v14.2h13.6v-14.2h-6.6v-9.6c2.5-0.1,4.4-2.2,4.3-4.7c-0.1-2.4-2-4.3-4.3-4.3v-0.1V783
		h6.6v-14.2h-13.6V783h6.6v9.6c-2.5,0.1-4.4,2.2-4.3,4.7c0.1,2.4,2,4.3,4.3,4.3"/>
</g>
<g id="LINE_304_">
	<path class="st0" d="M635.7,792.6V783h6.7v-14.2h-13.7V783h6.7v9.6c-2.5,0.1-4.4,2.2-4.3,4.7c0.1,2.4,2,4.3,4.3,4.3v0.1v9.6h-6.7
		v14.2h13.7v-14.2h-6.7v-9.6c2.5-0.1,4.4-2.2,4.3-4.7c-0.1-2.4-2-4.3-4.3-4.3"/>
</g>
<g id="LINE_318_">
	<path class="st0" d="M878.4,559h9.7v6.7h14.1V552h-14.1v6.6h-9.7c-0.1-2.5-2.2-4.4-4.7-4.3c-2.4,0.1-4.3,2-4.3,4.3h-0.1h-9.6V552
		h-14.2v13.7h14.2V559h9.6c0.1,2.5,2.2,4.4,4.7,4.3c2.4-0.1,4.3-2,4.3-4.3"/>
</g>
<g id="LINE_332_">
	<path class="st0" d="M869.3,1380.2h-9.6v-6.7h-14.2v13.7h14.2v-6.6h9.6c0.1,2.5,2.2,4.4,4.7,4.3c2.4-0.1,4.3-2,4.3-4.3h0.1h9.7v6.6
		h14.1v-13.7h-14.1v6.7h-9.7c-0.1-2.5-2.2-4.4-4.7-4.3c-2.4,0.1-4.3,2-4.3,4.3"/>
</g>
<g id="LINE_346_">
	<path class="st0" d="M1223.3,2047.2h9.6v6.7h14.2v-13.7h-14.2v6.6h-9.6c-0.1-2.5-2.2-4.4-4.7-4.3c-2.4,0.1-4.3,2-4.3,4.3h-0.1h-9.6
		v-6.6h-14.2v13.7h14.2v-6.7h9.6c0.1,2.5,2.2,4.4,4.7,4.3c2.4-0.1,4.3-2,4.3-4.3"/>
</g>
<g id="LINE_360_">
	<path class="st0" d="M1223.3,559h9.6v6.7h14.2V552h-14.2v6.6h-9.6c-0.1-2.5-2.2-4.4-4.7-4.3c-2.4,0.1-4.3,2-4.3,4.3h-0.1h-9.6V552
		h-14.2v13.7h14.2V559h9.6c0.1,2.5,2.2,4.4,4.7,4.3c2.4-0.1,4.3-2,4.3-4.3"/>
</g>
<g id="LINE_374_">
	<path class="st0" d="M1214.2,1380.2h-9.6v-6.7h-14.2v13.7h14.2v-6.6h9.6c0.1,2.5,2.2,4.4,4.7,4.3c2.4-0.1,4.3-2,4.3-4.3h0.1h9.6
		v6.6h14.2v-13.7h-14.2v6.7h-9.6c-0.1-2.5-2.2-4.4-4.7-4.3c-2.4,0.1-4.3,2-4.3,4.3"/>
</g>
<g id="LINE_388_">
	<path class="st0" d="M869.3,2868.4h-9.6v-6.7h-14.2v13.7h14.2v-6.6h9.6c0.1,2.5,2.2,4.4,4.7,4.3c2.4-0.1,4.3-2,4.3-4.3h0.1h9.7v6.6
		h14.1v-13.7h-14.1v6.7h-9.7c-0.1-2.5-2.2-4.4-4.7-4.3c-2.4,0.1-4.3,2-4.3,4.3"/>
</g>
<g id="LINE_402_">
	<path class="st0" d="M878.4,2047.2h9.7v6.7h14.1v-13.7h-14.1v6.6h-9.7c-0.1-2.5-2.2-4.4-4.7-4.3c-2.4,0.1-4.3,2-4.3,4.3h-0.1h-9.6
		v-6.6h-14.2v13.7h14.2v-6.7h9.6c0.1,2.5,2.2,4.4,4.7,4.3c2.4-0.1,4.3-2,4.3-4.3"/>
</g>
<g id="LINE_416_">
	<path class="st0" d="M1214.2,2868.4h-9.6v-6.7h-14.2v13.7h14.2v-6.6h9.6c0.1,2.5,2.2,4.4,4.7,4.3c2.4-0.1,4.3-2,4.3-4.3h0.1h9.6
		v6.6h14.2v-13.7h-14.2v6.7h-9.6c-0.1-2.5-2.2-4.4-4.7-4.3c-2.4,0.1-4.3,2-4.3,4.3"/>
</g>
<g id="LINE_432_">
	<path class="st0" d="M1456.9,2289.9v9.6h-6.6v14.2h13.6v-14.2h-6.6v-9.6c2.5-0.1,4.4-2.2,4.3-4.7c-0.1-2.4-2-4.3-4.3-4.3v-0.1v-9.6
		h6.6V2257h-13.6v14.2h6.6v9.6c-2.5,0.1-4.4,2.2-4.3,4.7C1452.7,2287.9,1454.6,2289.8,1456.9,2289.9"/>
</g>
<g id="LINE_446_">
	<path class="st0" d="M635.7,2280.8v-9.6h6.7V2257h-13.7v14.2h6.7v9.6c-2.5,0.1-4.4,2.2-4.3,4.7c0.1,2.4,2,4.3,4.3,4.3v0.1v9.6h-6.7
		v14.2h13.7v-14.2h-6.7v-9.6c2.5-0.1,4.4-2.2,4.3-4.7C639.9,2282.8,638,2280.9,635.7,2280.8"/>
</g>
<g id="LINE_460_">
	<path class="st0" d="M1456.9,2634.8v9.6h-6.6v14.2h13.6v-14.2h-6.6v-9.6c2.5-0.1,4.4-2.2,4.3-4.7c-0.1-2.4-2-4.3-4.3-4.3v-0.1v-9.6
		h6.6v-14.2h-13.6v14.2h6.6v9.6c-2.5,0.1-4.4,2.2-4.3,4.7c0.1,2.4,2,4.3,4.3,4.3"/>
</g>
<g id="LINE_474_">
	<path class="st0" d="M635.7,2625.7v-9.6h6.7v-14.2h-13.7v14.2h6.7v9.6c-2.5,0.1-4.4,2.2-4.3,4.7c0.1,2.4,2,4.3,4.3,4.3v0.1v9.6
		h-6.7v14.2h13.7v-14.2h-6.7v-9.6c2.5-0.1,4.4-2.2,4.3-4.7c-0.1-2.4-2-4.3-4.3-4.3"/>
</g>
<g id="LINE_475_">
	<line class="st0" x1="1032.1" y1="790.2" x2="1041.8" y2="790.2"/>
</g>
<g id="LINE_476_">
	<line class="st0" x1="1050.9" y1="790.2" x2="1060.5" y2="790.2"/>
</g>
<g id="LINE_477_">
	<line class="st0" x1="1032.1" y1="790.5" x2="1041.8" y2="790.5"/>
</g>
<g id="LINE_478_">
	<line class="st0" x1="1050.9" y1="790.5" x2="1060.5" y2="790.5"/>
</g>
<g id="ARC_104_">
	<path class="st0" d="M1050.9,790.2c-0.1-2.5-2.2-4.4-4.7-4.3c-2.4,0.1-4.3,2-4.3,4.3"/>
</g>
<g id="ARC_105_">
	<path class="st0" d="M1041.8,790.5c0.1,2.5,2.2,4.4,4.7,4.3c2.4-0.1,4.3-2,4.3-4.3"/>
</g>
<g id="LINE_479_">
	<line class="st0" x1="1018" y1="797.2" x2="1032.1" y2="797.2"/>
</g>
<g id="LINE_480_">
	<line class="st0" x1="1060.5" y1="797.2" x2="1074.7" y2="797.2"/>
</g>
<g id="LINE_481_">
	<line class="st0" x1="1032.1" y1="790.5" x2="1032.1" y2="797.2"/>
</g>
<g id="LINE_482_">
	<line class="st0" x1="1060.5" y1="790.5" x2="1060.5" y2="797.2"/>
</g>
<g id="LINE_483_">
	<line class="st0" x1="1060.5" y1="783.5" x2="1060.5" y2="790.2"/>
</g>
<g id="LINE_484_">
	<line class="st0" x1="1018" y1="783.5" x2="1032.1" y2="783.5"/>
</g>
<g id="LINE_485_">
	<line class="st0" x1="1060.5" y1="783.5" x2="1074.7" y2="783.5"/>
</g>
<g id="LINE_486_">
	<line class="st0" x1="1074.7" y1="783.5" x2="1074.7" y2="797.2"/>
</g>
<g id="LINE_487_">
	<line class="st0" x1="1032.1" y1="783.5" x2="1032.1" y2="790.2"/>
</g>
<g id="LINE_488_">
	<line class="st0" x1="1018" y1="783.5" x2="1018" y2="797.2"/>
</g>
<g id="LINE_489_">
	<line class="st0" x1="883.8" y1="892.2" x2="888.7" y2="883.8"/>
</g>
<g id="LINE_490_">
	<line class="st0" x1="893.2" y1="876" x2="898" y2="867.6"/>
</g>
<g id="LINE_491_">
	<line class="st0" x1="884.2" y1="892.3" x2="889" y2="884"/>
</g>
<g id="LINE_492_">
	<line class="st0" x1="893.5" y1="876.1" x2="898.3" y2="867.8"/>
</g>
<g id="ARC_106_">
	<path class="st0" d="M893.2,876c-2.2-1.2-5-0.3-6.1,1.9c-1.1,2.1-0.4,4.7,1.6,5.9"/>
</g>
<g id="ARC_107_">
	<path class="st0" d="M889,884c2.2,1.2,5,0.3,6.1-1.9c1.1-2.1,0.4-4.7-1.6-5.9"/>
</g>
<g id="LINE_493_">
	<line class="st0" x1="882.8" y1="908" x2="889.9" y2="895.7"/>
</g>
<g id="LINE_494_">
	<line class="st0" x1="904.1" y1="871.1" x2="911.2" y2="858.9"/>
</g>
<g id="LINE_495_">
	<line class="st0" x1="884.2" y1="892.3" x2="889.9" y2="895.7"/>
</g>
<g id="LINE_496_">
	<line class="st0" x1="898.3" y1="867.8" x2="904.1" y2="871.1"/>
</g>
<g id="LINE_497_">
	<line class="st0" x1="892.2" y1="864.3" x2="898" y2="867.6"/>
</g>
<g id="LINE_498_">
	<line class="st0" x1="871" y1="901.1" x2="878.1" y2="888.8"/>
</g>
<g id="LINE_499_">
	<line class="st0" x1="892.2" y1="864.3" x2="899.3" y2="852"/>
</g>
<g id="LINE_500_">
	<line class="st0" x1="899.3" y1="852" x2="911.2" y2="858.9"/>
</g>
<g id="LINE_501_">
	<line class="st0" x1="878.1" y1="888.8" x2="883.8" y2="892.2"/>
</g>
<g id="LINE_502_">
	<line class="st0" x1="871" y1="901.1" x2="882.8" y2="908"/>
</g>
<g id="LINE_503_">
	<line class="st0" x1="898" y1="1071.6" x2="893.2" y2="1063.2"/>
</g>
<g id="LINE_504_">
	<line class="st0" x1="888.7" y1="1055.4" x2="883.8" y2="1047"/>
</g>
<g id="LINE_505_">
	<line class="st0" x1="898.3" y1="1071.4" x2="893.5" y2="1063.1"/>
</g>
<g id="LINE_506_">
	<line class="st0" x1="889" y1="1055.2" x2="884.2" y2="1046.9"/>
</g>
<g id="ARC_108_">
	<path class="st0" d="M888.7,1055.4c-2.1,1.3-2.7,4.1-1.4,6.3c1.3,2,3.8,2.7,5.9,1.6"/>
</g>
<g id="ARC_109_">
	<path class="st0" d="M893.5,1063.1c2.1-1.3,2.7-4.1,1.4-6.3c-1.3-2-3.8-2.7-5.9-1.6"/>
</g>
<g id="LINE_507_">
	<line class="st0" x1="911.2" y1="1080.4" x2="904.1" y2="1068.1"/>
</g>
<g id="LINE_508_">
	<line class="st0" x1="889.9" y1="1043.5" x2="882.8" y2="1031.3"/>
</g>
<g id="LINE_509_">
	<line class="st0" x1="898.3" y1="1071.4" x2="904.1" y2="1068.1"/>
</g>
<g id="LINE_510_">
	<line class="st0" x1="884.2" y1="1046.9" x2="889.9" y2="1043.5"/>
</g>
<g id="LINE_511_">
	<line class="st0" x1="878.1" y1="1050.4" x2="883.8" y2="1047"/>
</g>
<g id="LINE_512_">
	<line class="st0" x1="899.3" y1="1087.2" x2="892.2" y2="1074.9"/>
</g>
<g id="LINE_513_">
	<line class="st0" x1="878.1" y1="1050.4" x2="871" y2="1038.1"/>
</g>
<g id="LINE_514_">
	<line class="st0" x1="871" y1="1038.1" x2="882.8" y2="1031.3"/>
</g>
<g id="LINE_515_">
	<line class="st0" x1="892.2" y1="1074.9" x2="898" y2="1071.6"/>
</g>
<g id="LINE_516_">
	<line class="st0" x1="899.3" y1="1087.2" x2="911.2" y2="1080.4"/>
</g>
<g id="LINE_517_">
	<line class="st0" x1="1060.5" y1="1149" x2="1050.9" y2="1149"/>
</g>
<g id="LINE_518_">
	<line class="st0" x1="1041.8" y1="1149" x2="1032.1" y2="1149"/>
</g>
<g id="LINE_519_">
	<line class="st0" x1="1060.5" y1="1148.7" x2="1050.9" y2="1148.7"/>
</g>
<g id="LINE_520_">
	<line class="st0" x1="1041.8" y1="1148.7" x2="1032.1" y2="1148.7"/>
</g>
<g id="ARC_110_">
	<path class="st0" d="M1041.8,1149c0.1,2.5,2.2,4.4,4.7,4.3c2.4-0.1,4.3-2,4.3-4.3"/>
</g>
<g id="ARC_111_">
	<path class="st0" d="M1050.9,1148.7c-0.1-2.5-2.2-4.4-4.7-4.3c-2.4,0.1-4.3,2-4.3,4.3"/>
</g>
<g id="LINE_521_">
	<line class="st0" x1="1074.7" y1="1142" x2="1060.5" y2="1142"/>
</g>
<g id="LINE_522_">
	<line class="st0" x1="1032.1" y1="1142" x2="1018" y2="1142"/>
</g>
<g id="LINE_523_">
	<line class="st0" x1="1060.5" y1="1148.7" x2="1060.5" y2="1142"/>
</g>
<g id="LINE_524_">
	<line class="st0" x1="1032.1" y1="1148.7" x2="1032.1" y2="1142"/>
</g>
<g id="LINE_525_">
	<line class="st0" x1="1032.1" y1="1155.7" x2="1032.1" y2="1149"/>
</g>
<g id="LINE_526_">
	<line class="st0" x1="1074.7" y1="1155.7" x2="1060.5" y2="1155.7"/>
</g>
<g id="LINE_527_">
	<line class="st0" x1="1032.1" y1="1155.7" x2="1018" y2="1155.7"/>
</g>
<g id="LINE_528_">
	<line class="st0" x1="1018" y1="1155.7" x2="1018" y2="1142"/>
</g>
<g id="LINE_529_">
	<line class="st0" x1="1060.5" y1="1155.7" x2="1060.5" y2="1149"/>
</g>
<g id="LINE_530_">
	<line class="st0" x1="1074.7" y1="1155.7" x2="1074.7" y2="1142"/>
</g>
<g id="LINE_531_">
	<line class="st0" x1="1208.8" y1="1047" x2="1204" y2="1055.4"/>
</g>
<g id="LINE_532_">
	<line class="st0" x1="1199.4" y1="1063.2" x2="1194.6" y2="1071.6"/>
</g>
<g id="LINE_533_">
	<line class="st0" x1="1208.5" y1="1046.9" x2="1203.7" y2="1055.2"/>
</g>
<g id="LINE_534_">
	<line class="st0" x1="1199.1" y1="1063.1" x2="1194.3" y2="1071.4"/>
</g>
<g id="ARC_112_">
	<path class="st0" d="M1199.4,1063.2c2.2,1.2,5,0.3,6.1-1.9c1.1-2.1,0.4-4.7-1.6-5.9"/>
</g>
<g id="ARC_113_">
	<path class="st0" d="M1203.7,1055.2c-2.2-1.2-5-0.3-6.1,1.9c-1.1,2.1-0.4,4.7,1.6,5.9"/>
</g>
<g id="LINE_535_">
	<line class="st0" x1="1209.8" y1="1031.3" x2="1202.7" y2="1043.5"/>
</g>
<g id="LINE_536_">
	<line class="st0" x1="1188.5" y1="1068.1" x2="1181.5" y2="1080.4"/>
</g>
<g id="LINE_537_">
	<line class="st0" x1="1208.5" y1="1046.9" x2="1202.7" y2="1043.5"/>
</g>
<g id="LINE_538_">
	<line class="st0" x1="1194.3" y1="1071.4" x2="1188.5" y2="1068.1"/>
</g>
<g id="LINE_539_">
	<line class="st0" x1="1200.4" y1="1074.9" x2="1194.6" y2="1071.6"/>
</g>
<g id="LINE_540_">
	<line class="st0" x1="1221.7" y1="1038.1" x2="1214.6" y2="1050.4"/>
</g>
<g id="LINE_541_">
	<line class="st0" x1="1200.4" y1="1074.9" x2="1193.3" y2="1087.2"/>
</g>
<g id="LINE_542_">
	<line class="st0" x1="1193.3" y1="1087.2" x2="1181.5" y2="1080.4"/>
</g>
<g id="LINE_543_">
	<line class="st0" x1="1214.6" y1="1050.4" x2="1208.8" y2="1047"/>
</g>
<g id="LINE_544_">
	<line class="st0" x1="1221.7" y1="1038.1" x2="1209.8" y2="1031.3"/>
</g>
<g id="LINE_545_">
	<line class="st0" x1="1194.6" y1="867.6" x2="1199.4" y2="876"/>
</g>
<g id="LINE_546_">
	<line class="st0" x1="1204" y1="883.8" x2="1208.8" y2="892.2"/>
</g>
<g id="LINE_547_">
	<line class="st0" x1="1194.3" y1="867.8" x2="1199.1" y2="876.1"/>
</g>
<g id="LINE_548_">
	<line class="st0" x1="1203.7" y1="884" x2="1208.5" y2="892.3"/>
</g>
<g id="ARC_114_">
	<path class="st0" d="M1204,883.8c2.1-1.3,2.7-4.1,1.4-6.3c-1.3-2-3.8-2.7-5.9-1.6"/>
</g>
<g id="ARC_115_">
	<path class="st0" d="M1199.1,876.1c-2.1,1.3-2.7,4.1-1.4,6.3c1.3,2,3.8,2.7,5.9,1.6"/>
</g>
<g id="LINE_549_">
	<line class="st0" x1="1181.5" y1="858.9" x2="1188.5" y2="871.1"/>
</g>
<g id="LINE_550_">
	<line class="st0" x1="1202.7" y1="895.7" x2="1209.8" y2="908"/>
</g>
<g id="LINE_551_">
	<line class="st0" x1="1194.3" y1="867.8" x2="1188.5" y2="871.1"/>
</g>
<g id="LINE_552_">
	<line class="st0" x1="1208.5" y1="892.3" x2="1202.7" y2="895.7"/>
</g>
<g id="LINE_553_">
	<line class="st0" x1="1214.6" y1="888.8" x2="1208.8" y2="892.2"/>
</g>
<g id="LINE_554_">
	<line class="st0" x1="1193.3" y1="852" x2="1200.4" y2="864.3"/>
</g>
<g id="LINE_555_">
	<line class="st0" x1="1214.6" y1="888.8" x2="1221.7" y2="901.1"/>
</g>
<g id="LINE_556_">
	<line class="st0" x1="1221.7" y1="901.1" x2="1209.8" y2="908"/>
</g>
<g id="LINE_557_">
	<line class="st0" x1="1200.4" y1="864.3" x2="1194.6" y2="867.6"/>
</g>
<g id="LINE_558_">
	<line class="st0" x1="1193.3" y1="852" x2="1181.5" y2="858.9"/>
</g>
<g id="LINE_610_">
	<path class="st0" d="M1776.2,1380.2h9.7c0-2.3,1.9-4.2,4.3-4.3c2.5-0.1,4.6,1.8,4.7,4.3h9.7v-6.7h14.2v13.7h-14.2v-6.6h-9.7
		c0,2.3-1.9,4.2-4.3,4.3c-2.5,0.1-4.6-1.8-4.7-4.3h-9.7v6.6h-14.1v-13.7h14.1V1380.2z"/>
</g>
<g id="LINE_624_">
	<path class="st0" d="M1804.6,559h-9.7c0,2.3-1.9,4.2-4.3,4.3c-2.5,0.1-4.6-1.8-4.7-4.3h-9.7v6.7h-14.1V552h14.1v6.6h9.7
		c0-2.3,1.9-4.2,4.3-4.3c2.5-0.1,4.6,1.8,4.7,4.3h9.7V552h14.2v13.7h-14.2V559z"/>
</g>
<g id="ARC_63_">
	<path class="st0" d="M621.1,2875.9c0,3.9,3.2,7.1,7.1,7.1c0,0,836.2,0,836.2,0c3.9,0,7.1-3.2,7.1-7.1v-836.2c0-3.9-3.2-7.1-7.1-7.1
		H628.2c-3.9,0-7.1,3.2-7.1,7.1V2875.9z"/>
</g>
<g id="CIRCLE_22_">
	<path class="st0" d="M1399.9,2089.3c0-8.2,6.7-14.9,14.9-14.9s14.9,6.7,14.9,14.9s-6.7,14.9-14.9,14.9S1399.9,2097.5,1399.9,2089.3
		L1399.9,2089.3z"/>
</g>
<g id="CIRCLE_23_">
	<path class="st0" d="M1399.9,2146c0-8.2,6.7-14.9,14.9-14.9s14.9,6.7,14.9,14.9s-6.7,14.9-14.9,14.9S1399.9,2154.2,1399.9,2146
		L1399.9,2146z"/>
</g>
<g id="CIRCLE_24_">
	<path class="st0" d="M1343.2,2089.3c0-8.2,6.7-14.9,14.9-14.9c8.2,0,14.9,6.7,14.9,14.9s-6.7,14.9-14.9,14.9
		C1349.9,2104.2,1343.2,2097.5,1343.2,2089.3L1343.2,2089.3z"/>
</g>
<g id="ARC_67_">
	<path class="st0" d="M621.1,551.5c0-3.9,3.2-7.1,7.1-7.1h836.2c3.9,0,7.1,3.2,7.1,7.1v836.2c0,3.9-3.2,7.1-7.1,7.1H628.2
		c-3.9,0-7.1-3.2-7.1-7.1C621.1,1387.7,621.1,551.5,621.1,551.5z"/>
</g>
<g id="CIRCLE_25_">
	<path class="st0" d="M1041.4,789.9c0-2.7,2.2-5,5-5c2.7,0,5,2.2,5,5s-2.2,5-5,5C1043.6,794.8,1041.4,792.6,1041.4,789.9
		L1041.4,789.9z"/>
</g>
<g id="CIRCLE_26_">
	<path class="st0" d="M861.6,969.6c0-2.7,2.2-5,5-5c2.7,0,5,2.2,5,5s-2.2,5-5,5C863.9,974.6,861.6,972.3,861.6,969.6L861.6,969.6z"
		/>
</g>
<g id="CIRCLE_27_">
	<path class="st0" d="M1041.4,1149.3c0-2.7,2.2-5,5-5c2.7,0,5,2.2,5,5c0,2.7-2.2,5-5,5S1041.4,1152.1,1041.4,1149.3L1041.4,1149.3z"
		/>
</g>
<g id="CIRCLE_28_">
	<path class="st0" d="M1221.1,969.6c0-2.7,2.2-5,5-5c2.7,0,5,2.2,5,5s-2.2,5-5,5C1223.3,974.6,1221.1,972.3,1221.1,969.6
		L1221.1,969.6z"/>
</g>
<g id="ARC_144_">
	<path class="st0" d="M1342.1,617.1l56.7,56.7c8.9,8.9,23.2,8.9,32.1,0c4.3-4.3,6.6-10,6.6-16v-56.7c0-12.5-10.2-22.7-22.7-22.7
		h-56.7c-12.5,0-22.7,10.2-22.7,22.7C1335.4,607.1,1337.8,612.9,1342.1,617.1"/>
</g>
<g id="ARC_137_">
	<path class="st0" d="M58.5,1095.8c0,0.8,0.6,1.4,1.4,1.4h8.5v12.7c0,0.8,0.6,1.4,1.4,1.4h11.3c0.8,0,1.4-0.6,1.4-1.4v-12.7v-0.1
		c-11.3-84.6-11.3-170.4,0-255.1c0,0,0-12.7,0-12.7c0-0.8-0.6-1.4-1.4-1.4c0,0-11.3,0-11.3,0c-0.8,0-1.4,0.6-1.4,1.4V842h-8.5
		l-0.1,0.1c-0.8,0-1.4,0.6-1.4,1.4v19.8h0.1c0,0.8,0.6,1.4,1.4,1.4h2.4v7.1h-2.4h-0.1c-0.8,0-1.4,0.6-1.4,1.4v1.4h-8.5v-1.4
		c0-0.8-0.6-1.4-1.4-1.4h-2.4v-7.1h2.4c0.8,0,1.4-0.6,1.4-1.4v-19.8v-0.1c0-0.8-0.6-1.4-1.4-1.4H40c0,0,0-12.7,0-12.7
		c0-0.8-0.6-1.4-1.4-1.4H27.3l-0.1,0c-0.8,0-1.4,0.6-1.4,1.4V842v0.1c11.3,84.6,11.3,170.4,0,255.1v12.7h0.1c0,0.8,0.6,1.4,1.4,1.4
		h11.3c0.8,0,1.4-0.6,1.4-1.4v-12.7h8.5v-0.1c0.8,0,1.4-0.6,1.4-1.4v-19.8c0-0.8-0.6-1.4-1.4-1.4h-2.4v-7.1h2.4
		c0.8,0,1.4-0.6,1.4-1.4v-1.4h8.5v1.4h0.1c0,0.8,0.6,1.4,1.4,1.4h2.4v7.1h-2.4h-0.1c-0.8,0-1.4,0.6-1.4,1.4L58.5,1095.8"/>
</g>
<g id="LINE_711_">
	<path class="st0" d="M434.1,1146.3c0.8,0,1.4,0.6,1.4,1.4v2.5h7v-2.5l0.1,0c0-0.8,0.6-1.4,1.4-1.4h19.8c0.8,0,1.4,0.6,1.4,1.4v8.5
		H478c0.8,0,1.4,0.6,1.4,1.4v11.4c0,0.8-0.6,1.4-1.4,1.4h-12.8v224.4h-326v-224.4h-12.7c-0.8,0-1.4-0.6-1.4-1.4v-11.4
		c0-0.8,0.6-1.4,1.4-1.4h12.7v-8.5l0.1,0c0-0.8,0.6-1.4,1.4-1.4h19.8c0.8,0,1.4,0.6,1.4,1.4v2.5h7.1c0,0,0-2.5,0-2.5
		c0-0.8,0.6-1.4,1.4-1.4h1.4v-8.5h-1.4c-0.8,0-1.4-0.6-1.4-1.4v-2.5h-7.1v2.5c0,0.8-0.6,1.4-1.4,1.4h-19.8h-0.1
		c-0.8,0-1.4-0.6-1.4-1.4v-8.5h-12.7c-0.8,0-1.4-0.6-1.4-1.4v-11.4c0-0.8,0.6-1.4,1.4-1.4h12.7V825.5h-12.7c-0.8,0-1.4-0.6-1.4-1.4
		v-11.3v-0.1c0-0.8,0.6-1.4,1.4-1.4h12.7v-8.5l0.1,0c0-0.8,0.6-1.4,1.4-1.4h19.8c0.8,0,1.4,0.6,1.4,1.4v2.5h7.1c0,0,0-2.5,0-2.5
		c0-0.8,0.6-1.4,1.4-1.4h1.4v-8.5h-1.4c-0.8,0-1.4-0.6-1.4-1.4v-2.4h-7.1v2.4c0,0.8-0.6,1.4-1.4,1.4h-19.8h-0.1
		c-0.8,0-1.4-0.6-1.4-1.4V783h-12.7c-0.8,0-1.4-0.6-1.4-1.4v-11.4c0-0.8,0.6-1.4,1.4-1.4h12.7V544.4h326v224.4H478
		c0.8,0,1.4,0.6,1.4,1.4v11.4c0,0.8-0.6,1.4-1.4,1.4h-12.8c0,0,0,8.5,0,8.5c0,0.8-0.6,1.4-1.4,1.4H444h-0.1c-0.8,0-1.4-0.6-1.4-1.4
		v-2.4h-7v2.4h-0.1c0,0.8-0.6,1.4-1.4,1.4h-1.4v8.5h1.4l0.1,0c0.8,0,1.4,0.6,1.4,1.4v2.5h7v-2.5l0.1,0c0-0.8,0.6-1.4,1.4-1.4
		c0,0,19.8,0,19.8,0c0.8,0,1.4,0.6,1.4,1.4v8.5H478v0.1c0.8,0,1.4,0.6,1.4,1.4v11.3c0,0.8-0.6,1.4-1.4,1.4h-12.8v288.2H478
		c0.8,0,1.4,0.6,1.4,1.4v11.4c0,0.8-0.6,1.4-1.4,1.4h-12.8c0,0,0,8.5,0,8.5c0,0.8-0.6,1.4-1.4,1.4H444h-0.1c-0.8,0-1.4-0.6-1.4-1.4
		v-2.5h-7v2.5h-0.1c0,0.8-0.6,1.4-1.4,1.4h-1.4v8.5h1.4"/>
</g>
<g id="LINE_805_">
	<path class="st0" d="M1614.6,811.4c-0.8,0-1.4,0.6-1.4,1.4v11.3h0.1c0,0.8,0.6,1.4,1.4,1.4h12.7v288.2h-12.7h-0.1
		c-0.8,0-1.4,0.6-1.4,1.4v11.4h0.1c0,0.8,0.6,1.4,1.4,1.4h12.7v8.5c0,0.8,0.6,1.4,1.4,1.4h19.9c0.8,0,1.4-0.6,1.4-1.4v-2.5h7.1v2.5
		c0,0.8,0.6,1.4,1.4,1.4h1.4v8.5c0,0-1.4,0-1.4,0c-0.8,0-1.4,0.6-1.4,1.4v2.5h-7.1c0,0,0-2.5,0-2.5c0-0.8-0.6-1.4-1.4-1.4
		c0,0-19.9,0-19.9,0c-0.8,0-1.4,0.6-1.4,1.4v8.5h-12.7h-0.1c-0.8,0-1.4,0.6-1.4,1.4v11.4h0.1c0,0.8,0.6,1.4,1.4,1.4h12.7v224.4h326
		v-224.4h12.8c0.8,0,1.4-0.6,1.4-1.4v-11.4c0-0.8-0.6-1.4-1.4-1.4h-12.8c0,0,0-8.5,0-8.5c0-0.8-0.6-1.4-1.4-1.4c0,0-19.9,0-19.9,0
		c-0.8,0-1.4,0.6-1.4,1.4v2.5h-7.1c0,0,0-2.5,0-2.5c0-0.8-0.6-1.4-1.4-1.4h-1.4v-8.5h1.4c0.8,0,1.4-0.6,1.4-1.4v-2.5h7.1v2.5
		c0,0.8,0.6,1.4,1.4,1.4h19.9c0.8,0,1.4-0.6,1.4-1.4v-8.5h12.8c0.8,0,1.4-0.6,1.4-1.4v-11.4c0-0.8-0.6-1.4-1.4-1.4h-12.8V825.5h12.8
		c0.8,0,1.4-0.6,1.4-1.4v-11.3v-0.1c0-0.8-0.6-1.4-1.4-1.4h-12.8v-8.5c0-0.8-0.6-1.4-1.4-1.4h-19.9c-0.8,0-1.4,0.6-1.4,1.4v2.5h-7.1
		v-2.5c0-0.8-0.6-1.4-1.4-1.4h-1.4v-8.5h1.4c0.8,0,1.4-0.6,1.4-1.4v-2.4h7.1v2.4c0,0.8,0.6,1.4,1.4,1.4h19.9c0.8,0,1.4-0.6,1.4-1.4
		V783h12.8c0.8,0,1.4-0.6,1.4-1.4v-11.4c0-0.8-0.6-1.4-1.4-1.4h-12.8V544.4h-326v224.4h-12.7h-0.1c-0.8,0-1.4,0.6-1.4,1.4v11.4h0.1
		c0,0.8,0.6,1.4,1.4,1.4h12.7v8.5c0,0.8,0.6,1.4,1.4,1.4h19.9c0.8,0,1.4-0.6,1.4-1.4v-2.4h7.1v2.4c0,0.8,0.6,1.4,1.4,1.4h1.4v8.5
		c0,0-1.4,0-1.4,0c-0.8,0-1.4,0.6-1.4,1.4v2.5h-7.1c0,0,0-2.5,0-2.5c0-0.8-0.6-1.4-1.4-1.4c0,0-19.9,0-19.9,0
		c-0.8,0-1.4,0.6-1.4,1.4v8.5L1614.6,811.4"/>
</g>
<g id="LINE_894_">
	<path class="st0" d="M663.7,221.2c0.8,0,1.4-0.6,1.4-1.4v-2.4h7v2.4l0.1,0.1c0,0.8,0.6,1.4,1.4,1.4h1.4v8.5h-1.4h-0.1
		c-0.8,0-1.4,0.6-1.4,1.4v2.4h-7v-2.4H665c0-0.8-0.6-1.4-1.4-1.4c0,0-19.8,0-19.8,0c-0.8,0-1.4,0.6-1.4,1.4v8.5c0,0-12.8,0-12.8,0
		c-0.8,0-1.4,0.6-1.4,1.4v11.3l0,0.1c0,0.8,0.6,1.4,1.4,1.4h12.8v134.6h203.1v12.8l0.1,0c0,0.8,0.6,1.4,1.4,1.4h11.3
		c0.8,0,1.4-0.6,1.4-1.4v-12.8h8.5c0.8,0,1.4-0.6,1.4-1.4v-19.9c0-0.8-0.6-1.4-1.4-1.4h-2.4v-7.1h2.4c0.8,0,1.4-0.6,1.4-1.4v-1.4
		h8.5v1.4c0,0.8,0.6,1.4,1.4,1.4h2.5v7.1h-2.5c-0.8,0-1.4,0.6-1.4,1.4v19.9c0,0.8,0.6,1.4,1.4,1.4h8.6v12.8c0,0.8,0.6,1.4,1.4,1.4
		h11.3c0.8,0,1.4-0.6,1.4-1.4v-12.8h288.2c0,0,0,12.8,0,12.8c0,0.8,0.6,1.4,1.4,1.4c0,0,11.4,0,11.4,0c0.8,0,1.4-0.6,1.4-1.4v-12.8
		h8.5c0.8,0,1.4-0.6,1.4-1.4c0,0,0-19.9,0-19.9c0-0.8-0.6-1.4-1.4-1.4h-2.4v-7.1c0,0,2.4,0,2.4,0c0.8,0,1.4-0.6,1.4-1.4v-1.4h8.5
		c0,0,0,1.4,0,1.4c0,0.8,0.6,1.4,1.4,1.4h2.5v7.1c0,0-2.5,0-2.5,0c-0.8,0-1.4,0.6-1.4,1.4v19.9c0,0.8,0.6,1.4,1.4,1.4h8.5v12.8
		l0.1,0c0,0.8,0.6,1.4,1.4,1.4h11.3c0.8,0,1.4-0.6,1.4-1.4v-12.8h203.2V253.9h12.7v-0.1c0.8,0,1.4-0.6,1.4-1.4c0,0,0-11.3,0-11.3
		c0-0.8-0.6-1.4-1.4-1.4h-12.7v-8.5h-0.1c0-0.8-0.6-1.4-1.4-1.4H1429c-0.8,0-1.4,0.6-1.4,1.4v2.4h-7.1v-2.4c0-0.8-0.6-1.4-1.4-1.4
		h-1.4v-8.5h1.4v-0.1c0.8,0,1.4-0.6,1.4-1.4v-2.4h7.1v2.4v0.1c0,0.8,0.6,1.4,1.4,1.4h19.8l0.1-0.1c0.8,0,1.4-0.6,1.4-1.4v-8.5h12.7
		c0.8,0,1.4-0.6,1.4-1.4v-11.3c0-0.8-0.6-1.4-1.4-1.4h-12.7V62.5h-203.2V49.8v-0.1c0-0.8-0.6-1.4-1.4-1.4h-11.3l-0.1,0.1
		c-0.8,0-1.4,0.6-1.4,1.4v12.7h-8.5c-0.8,0-1.4,0.6-1.4,1.4v19.9c0,0.8,0.6,1.4,1.4,1.4h2.5v7.1c0,0-2.5,0-2.5,0
		c-0.8,0-1.4,0.6-1.4,1.4v1.4h-8.5c0,0,0-1.4,0-1.4c0-0.8-0.6-1.4-1.4-1.4h-2.4v-7.1c0,0,2.4,0,2.4,0c0.8,0,1.4-0.6,1.4-1.4V63.9
		c0-0.8-0.6-1.4-1.4-1.4h-8.5V49.8v-0.1c0-0.8-0.6-1.4-1.4-1.4h-11.4v0.1c-0.8,0-1.4,0.6-1.4,1.4v12.7H902.2V49.8v-0.1
		c0-0.8-0.6-1.4-1.4-1.4h-11.3v0.1c-0.8,0-1.4,0.6-1.4,1.4v12.7h-8.6c-0.8,0-1.4,0.6-1.4,1.4v19.9c0,0.8,0.6,1.4,1.4,1.4h2.5v7.1
		c0,0-2.5,0-2.5,0c-0.8,0-1.4,0.6-1.4,1.4v1.4h-8.5c0,0,0-1.4,0-1.4c0-0.8-0.6-1.4-1.4-1.4h-2.4v-7.1c0,0,2.4,0,2.4,0
		c0.8,0,1.4-0.6,1.4-1.4c0,0,0-19.9,0-19.9c0-0.8-0.6-1.4-1.4-1.4h-8.5V49.8v-0.1c0-0.8-0.6-1.4-1.4-1.4H847l-0.1,0.1
		c-0.8,0-1.4,0.6-1.4,1.4v12.7H642.4v134.7c0,0-12.8,0-12.8,0c-0.8,0-1.4,0.6-1.4,1.4c0,0,0,11.3,0,11.3c0,0.8,0.6,1.4,1.4,1.4h12.8
		v8.5l0,0.1c0,0.8,0.6,1.4,1.4,1.4h19.8"/>
</g>
<g id="LINE_982_">
	<path class="st0" d="M1234.4,1890.9h11.3c0.8,0,1.4-0.6,1.4-1.4v-0.1v-12.7h203.2V1742h12.7c0.8,0,1.4-0.6,1.4-1.4v-11.3
		c0-0.8-0.6-1.4-1.4-1.4h-12.7v-8.5c0-0.8-0.6-1.4-1.4-1.4h-0.1H1429c-0.8,0-1.4,0.6-1.4,1.4v2.4h-7.1v-2.4c0-0.8-0.6-1.4-1.4-1.4
		h-1.4v-8.6h1.4c0.8,0,1.4-0.6,1.4-1.4v-2.4h7.1v2.4c0,0.8,0.6,1.4,1.4,1.4h19.8c0.8,0,1.4-0.6,1.4-1.4h0.1v-8.5h12.7
		c0.8,0,1.4-0.6,1.4-1.4v-11.3c0-0.8-0.6-1.4-1.4-1.4h-12.7v-134.7h-203.2V1538c0-0.8-0.6-1.4-1.4-1.4v-0.1h-11.3
		c-0.8,0-1.4,0.6-1.4,1.4l-0.1,0.1v12.7h-8.5c-0.8,0-1.4,0.6-1.4,1.4v19.9c0,0.8,0.6,1.4,1.4,1.4h2.5v7.1h-2.5
		c-0.8,0-1.4,0.6-1.4,1.4v1.4h-8.5v-1.4c0-0.8-0.6-1.4-1.4-1.4h-2.4v-7.1h2.4c0.8,0,1.4-0.6,1.4-1.4v-19.9c0-0.8-0.6-1.4-1.4-1.4
		h-8.5V1538c0-0.8-0.6-1.4-1.4-1.4v-0.1h-11.4c-0.8,0-1.4,0.6-1.4,1.4v0.1v12.7H902.2V1538c0-0.8-0.6-1.4-1.4-1.4v-0.1h-11.3
		c-0.8,0-1.4,0.6-1.4,1.4v0.1v12.7h-8.6c-0.8,0-1.4,0.6-1.4,1.4v19.9c0,0.8,0.6,1.4,1.4,1.4h2.5v7.1h-2.5c-0.8,0-1.4,0.6-1.4,1.4
		v1.4h-8.5v-1.4c0-0.8-0.6-1.4-1.4-1.4c0,0-2.4,0-2.4,0v-7.1h2.4c0.8,0,1.4-0.6,1.4-1.4v-19.9c0-0.8-0.6-1.4-1.4-1.4h-8.5V1538
		c0-0.8-0.6-1.4-1.4-1.4v-0.1H847c-0.8,0-1.4,0.6-1.4,1.4l-0.1,0.1v12.7H642.4v134.7h-12.8c-0.8,0-1.4,0.6-1.4,1.4v11.3
		c0,0.8,0.6,1.4,1.4,1.4h12.8v8.5c0,0.8,0.6,1.4,1.4,1.4h19.8c0.8,0,1.4-0.6,1.4-1.4h0.1v-2.4h7v2.4c0,0.8,0.6,1.4,1.4,1.4h0.1h1.4
		v8.6h-1.4c-0.8,0-1.4,0.6-1.4,1.4h-0.1v2.4h-7v-2.4c0-0.8-0.6-1.4-1.4-1.4h-0.1h-19.8c-0.8,0-1.4,0.6-1.4,1.4c0,0,0,8.5,0,8.5
		h-12.8c-0.8,0-1.4,0.6-1.4,1.4c0,0,0,11.3,0,11.3c0,0.8,0.6,1.4,1.4,1.4c0,0,12.8,0,12.8,0v134.7h203.1v12.7c0,0.8,0.6,1.4,1.4,1.4
		l0.1,0.1h11.3c0.8,0,1.4-0.6,1.4-1.4v-0.1v-12.7h8.5c0.8,0,1.4-0.6,1.4-1.4c0,0,0-19.9,0-19.9c0-0.8-0.6-1.4-1.4-1.4
		c0,0-2.4,0-2.4,0v-7.1h2.4c0.8,0,1.4-0.6,1.4-1.4c0,0,0-1.4,0-1.4h8.5v1.4c0,0.8,0.6,1.4,1.4,1.4h2.5v7.1h-2.5
		c-0.8,0-1.4,0.6-1.4,1.4v19.9c0,0.8,0.6,1.4,1.4,1.4h8.6v12.7c0,0.8,0.6,1.4,1.4,1.4v0.1h11.3c0.8,0,1.4-0.6,1.4-1.4v-0.1v-12.7
		h288.2v12.7c0,0.8,0.6,1.4,1.4,1.4v0.1h11.4c0.8,0,1.4-0.6,1.4-1.4v-0.1v-12.7h8.5c0.8,0,1.4-0.6,1.4-1.4c0,0,0-19.9,0-19.9
		c0-0.8-0.6-1.4-1.4-1.4h-2.4v-7.1h2.4c0.8,0,1.4-0.6,1.4-1.4v-1.4h8.5v1.4c0,0.8,0.6,1.4,1.4,1.4h2.5v7.1h-2.5
		c-0.8,0-1.4,0.6-1.4,1.4v19.9c0,0.8,0.6,1.4,1.4,1.4h8.5v12.7C1232.9,1890.2,1233.5,1890.8,1234.4,1890.9"/>
</g>
</svg>
