<?xml version="1.0" encoding="utf-8"?>
<!-- Generator: Adobe Illustrator 25.0.0, SVG Export Plug-In . SVG Version: 6.00 Build 0)  -->
<svg version="1.1" id="Layer_1" xmlns="http://www.w3.org/2000/svg" xmlns:xlink="http://www.w3.org/1999/xlink" x="0px" y="0px"
	 viewBox="0 0 595.3 841.9" style="enable-background:new 0 0 595.3 841.9;" xml:space="preserve">
<style type="text/css">
	.st0{fill:none;stroke:#000000;stroke-width:0.2835;stroke-miterlimit:10;}
</style>
<g>
	<g>
		<line class="st0" x1="254.8" y1="191.9" x2="254.8" y2="223.3"/>
		<line class="st0" x1="246.3" y1="223.3" x2="246.3" y2="266.9"/>
		<line class="st0" x1="254.8" y1="266.9" x2="254.8" y2="298.2"/>
		<line class="st0" x1="254.8" y1="223.3" x2="246.3" y2="223.3"/>
		<line class="st0" x1="246.3" y1="266.9" x2="254.8" y2="266.9"/>
		<line class="st0" x1="254.8" y1="298.2" x2="297.3" y2="298.2"/>
		<line class="st0" x1="297.3" y1="289.7" x2="339.8" y2="289.7"/>
		<line class="st0" x1="254.8" y1="191.9" x2="382.4" y2="191.9"/>
		<line class="st0" x1="382.4" y1="191.9" x2="382.4" y2="223.3"/>
		<line class="st0" x1="390.9" y1="223.3" x2="390.9" y2="266.9"/>
		<line class="st0" x1="382.4" y1="266.9" x2="382.4" y2="298.2"/>
		<line class="st0" x1="382.4" y1="223.3" x2="390.9" y2="223.3"/>
		<line class="st0" x1="390.9" y1="266.9" x2="382.4" y2="266.9"/>
		<line class="st0" x1="339.8" y1="298.2" x2="382.4" y2="298.2"/>
		<line class="st0" x1="297.3" y1="298.2" x2="297.3" y2="289.7"/>
		<line class="st0" x1="339.8" y1="298.2" x2="339.8" y2="289.7"/>
	</g>
	<g>
		<line class="st0" x1="254.8" y1="303.7" x2="254.8" y2="335"/>
		<line class="st0" x1="246.3" y1="335" x2="246.3" y2="378.7"/>
		<line class="st0" x1="254.8" y1="378.7" x2="254.8" y2="410"/>
		<line class="st0" x1="254.8" y1="335" x2="246.3" y2="335"/>
		<line class="st0" x1="246.3" y1="378.7" x2="254.8" y2="378.7"/>
		<line class="st0" x1="254.8" y1="410" x2="297.3" y2="410"/>
		<line class="st0" x1="297.3" y1="401.5" x2="339.8" y2="401.5"/>
		<line class="st0" x1="254.8" y1="303.7" x2="382.4" y2="303.7"/>
		<line class="st0" x1="382.4" y1="303.7" x2="382.4" y2="335"/>
		<line class="st0" x1="390.9" y1="335" x2="390.9" y2="378.7"/>
		<line class="st0" x1="382.4" y1="378.7" x2="382.4" y2="410"/>
		<line class="st0" x1="382.4" y1="335" x2="390.9" y2="335"/>
		<line class="st0" x1="390.9" y1="378.7" x2="382.4" y2="378.7"/>
		<line class="st0" x1="339.8" y1="410" x2="382.4" y2="410"/>
		<line class="st0" x1="297.3" y1="410" x2="297.3" y2="401.5"/>
		<line class="st0" x1="339.8" y1="410" x2="339.8" y2="401.5"/>
	</g>
	<g>
		<line class="st0" x1="254.8" y1="178.2" x2="254.8" y2="144.7"/>
		<line class="st0" x1="246.3" y1="144.7" x2="246.3" y2="101.1"/>
		<line class="st0" x1="254.8" y1="101.1" x2="254.8" y2="67.6"/>
		<line class="st0" x1="254.8" y1="144.7" x2="246.3" y2="144.7"/>
		<line class="st0" x1="254.8" y1="101.1" x2="246.3" y2="101.1"/>
		<line class="st0" x1="382.4" y1="178.2" x2="382.4" y2="144.7"/>
		<line class="st0" x1="390.9" y1="144.7" x2="390.9" y2="101.1"/>
		<line class="st0" x1="382.4" y1="101.1" x2="382.4" y2="67.6"/>
		<line class="st0" x1="382.4" y1="144.7" x2="390.9" y2="144.7"/>
		<line class="st0" x1="382.4" y1="101.1" x2="390.9" y2="101.1"/>
		<line class="st0" x1="254.8" y1="67.6" x2="296.8" y2="67.6"/>
		<line class="st0" x1="296.8" y1="59.1" x2="340.4" y2="59.1"/>
		<line class="st0" x1="340.4" y1="67.6" x2="382.4" y2="67.6"/>
		<line class="st0" x1="296.8" y1="67.6" x2="296.8" y2="59.1"/>
		<line class="st0" x1="340.4" y1="67.6" x2="340.4" y2="59.1"/>
		<line class="st0" x1="254.8" y1="178.2" x2="296.8" y2="178.2"/>
		<line class="st0" x1="296.8" y1="186.7" x2="340.4" y2="186.7"/>
		<line class="st0" x1="340.4" y1="178.2" x2="382.4" y2="178.2"/>
		<line class="st0" x1="296.8" y1="178.2" x2="296.8" y2="186.7"/>
		<line class="st0" x1="340.4" y1="178.2" x2="340.4" y2="186.7"/>
	</g>
	<g>
		<line class="st0" x1="65.7" y1="275.9" x2="65.7" y2="177.2"/>
		<g>
			<line class="st0" x1="88.3" y1="251.5" x2="88.3" y2="210.1"/>
			<line class="st0" x1="80" y1="251.5" x2="80" y2="210.1"/>
			<line class="st0" x1="80" y1="251.5" x2="88.3" y2="251.5"/>
			<line class="st0" x1="88.3" y1="210.1" x2="80" y2="210.1"/>
		</g>
		<line class="st0" x1="238.6" y1="177.2" x2="173.4" y2="177.2"/>
		<line class="st0" x1="173.4" y1="185.7" x2="130.9" y2="185.7"/>
		<line class="st0" x1="130.9" y1="177.2" x2="65.7" y2="177.2"/>
		<line class="st0" x1="173.4" y1="177.2" x2="173.4" y2="185.7"/>
		<line class="st0" x1="130.9" y1="177.2" x2="130.9" y2="185.7"/>
		<path class="st0" d="M79.9,290.1c-7.8,0-14.2-6.3-14.2-14.2"/>
		<line class="st0" x1="238.6" y1="275.9" x2="238.6" y2="177.2"/>
		<g>
			<line class="st0" x1="216.1" y1="251.5" x2="216.1" y2="210.1"/>
			<line class="st0" x1="224.3" y1="251.5" x2="224.3" y2="210.1"/>
			<line class="st0" x1="224.3" y1="251.5" x2="216.1" y2="251.5"/>
			<line class="st0" x1="216.1" y1="210.1" x2="224.3" y2="210.1"/>
		</g>
		<line class="st0" x1="79.9" y1="290.1" x2="224.5" y2="290.1"/>
		<path class="st0" d="M224.5,290.1c7.8,0,14.2-6.3,14.2-14.2"/>
		<path class="st0" d="M152.2,205.5c-3.1,0-5.7-2.5-5.7-5.7c0-3.1,2.5-5.7,5.7-5.7c3.1,0,5.7,2.5,5.7,5.7
			C157.9,203,155.3,205.5,152.2,205.5z"/>
	</g>
	<g>
		<line class="st0" x1="238.6" y1="157.8" x2="238.6" y2="67.6"/>
		<g>
			<line class="st0" x1="216.1" y1="133.4" x2="216.1" y2="92"/>
			<line class="st0" x1="224.3" y1="133.4" x2="224.3" y2="92"/>
			<line class="st0" x1="224.3" y1="133.4" x2="216.1" y2="133.4"/>
			<line class="st0" x1="216.1" y1="92" x2="224.3" y2="92"/>
		</g>
		<line class="st0" x1="65.7" y1="67.6" x2="130.4" y2="67.6"/>
		<line class="st0" x1="130.4" y1="59.1" x2="174" y2="59.1"/>
		<line class="st0" x1="174" y1="67.6" x2="238.6" y2="67.6"/>
		<line class="st0" x1="130.4" y1="67.6" x2="130.4" y2="59.1"/>
		<line class="st0" x1="174" y1="67.6" x2="174" y2="59.1"/>
		<path class="st0" d="M224.5,172c7.8,0,14.2-6.3,14.2-14.2"/>
		<line class="st0" x1="65.7" y1="157.8" x2="65.7" y2="67.6"/>
		<g>
			<line class="st0" x1="88.3" y1="133.4" x2="88.3" y2="92"/>
			<line class="st0" x1="80" y1="133.4" x2="80" y2="92"/>
			<line class="st0" x1="80" y1="133.4" x2="88.3" y2="133.4"/>
			<line class="st0" x1="88.3" y1="92" x2="80" y2="92"/>
		</g>
		<line class="st0" x1="224.5" y1="172" x2="79.9" y2="172"/>
		<path class="st0" d="M79.9,172c-7.8,0-14.2-6.3-14.2-14.2"/>
		<path class="st0" d="M152.2,87.5c3.1,0,5.7-2.5,5.7-5.7c0-3.1-2.5-5.7-5.7-5.7c-3.1,0-5.7,2.5-5.7,5.7
			C146.5,84.9,149.1,87.5,152.2,87.5z"/>
	</g>
	<g>
		<line class="st0" x1="399.7" y1="400" x2="442.2" y2="400"/>
		<line class="st0" x1="442.2" y1="391.5" x2="484.8" y2="391.5"/>
		<line class="st0" x1="484.8" y1="400" x2="527.3" y2="400"/>
		<line class="st0" x1="399.7" y1="293.7" x2="399.7" y2="325.6"/>
		<line class="st0" x1="408.2" y1="325.6" x2="408.2" y2="368.1"/>
		<line class="st0" x1="399.7" y1="368.1" x2="399.7" y2="400"/>
		<line class="st0" x1="399.7" y1="325.6" x2="408.2" y2="325.6"/>
		<line class="st0" x1="408.2" y1="368.1" x2="399.7" y2="368.1"/>
		<g>
			<line class="st0" x1="399.7" y1="293.7" x2="416.6" y2="276.8"/>
			<line class="st0" x1="410.6" y1="270.8" x2="440.6" y2="240.8"/>
			<line class="st0" x1="446.7" y1="246.8" x2="463.5" y2="229.9"/>
			<line class="st0" x1="416.6" y1="276.8" x2="410.6" y2="270.8"/>
			<line class="st0" x1="440.6" y1="240.8" x2="446.7" y2="246.8"/>
		</g>
		<line class="st0" x1="442.2" y1="400" x2="442.2" y2="391.5"/>
		<line class="st0" x1="527.3" y1="293.7" x2="527.3" y2="325.6"/>
		<line class="st0" x1="518.8" y1="325.6" x2="518.8" y2="368.1"/>
		<line class="st0" x1="527.3" y1="368.1" x2="527.3" y2="400"/>
		<line class="st0" x1="527.3" y1="325.6" x2="518.8" y2="325.6"/>
		<line class="st0" x1="518.8" y1="368.1" x2="527.3" y2="368.1"/>
		<line class="st0" x1="484.8" y1="400" x2="484.8" y2="391.5"/>
		<g>
			<line class="st0" x1="527.3" y1="293.7" x2="510.4" y2="276.8"/>
			<line class="st0" x1="516.4" y1="270.8" x2="486.4" y2="240.8"/>
			<line class="st0" x1="480.4" y1="246.8" x2="463.5" y2="229.9"/>
			<line class="st0" x1="510.4" y1="276.8" x2="516.4" y2="270.8"/>
			<line class="st0" x1="486.4" y1="240.8" x2="480.4" y2="246.8"/>
		</g>
		<path class="st0" d="M491.9,322c0,15.7-12.7,28.3-28.3,28.3c-15.7,0-28.3-12.7-28.3-28.3c0-15.7,12.7-28.3,28.3-28.3
			C479.2,293.7,491.9,306.4,491.9,322z"/>
		<rect x="455.6" y="359" class="st0" width="15.9" height="8.2"/>
	</g>
	<g>
		<line class="st0" x1="208.9" y1="319.3" x2="208.9" y2="342"/>
		<line class="st0" x1="211.7" y1="305.1" x2="211.7" y2="319.3"/>
		<path class="st0" d="M211.7,344.8c-1.6,0-2.8-1.3-2.8-2.8"/>
		<line class="st0" x1="231.6" y1="319.3" x2="231.6" y2="342"/>
		<line class="st0" x1="228.7" y1="305.1" x2="228.7" y2="319.3"/>
		<path class="st0" d="M228.7,344.8c1.6,0,2.8-1.3,2.8-2.8"/>
		<line class="st0" x1="211.7" y1="344.8" x2="228.7" y2="344.8"/>
		<line class="st0" x1="208.9" y1="319.3" x2="211.7" y2="319.3"/>
		<line class="st0" x1="228.7" y1="319.3" x2="231.6" y2="319.3"/>
		<line class="st0" x1="228.7" y1="305.1" x2="211.7" y2="305.1"/>
	</g>
	<g>
		<line class="st0" x1="399.7" y1="232.6" x2="442.2" y2="232.6"/>
		<line class="st0" x1="442.2" y1="224.1" x2="484.8" y2="224.1"/>
		<line class="st0" x1="484.8" y1="232.6" x2="527.3" y2="232.6"/>
		<line class="st0" x1="399.7" y1="126.3" x2="399.7" y2="158.2"/>
		<line class="st0" x1="408.2" y1="158.2" x2="408.2" y2="200.7"/>
		<line class="st0" x1="399.7" y1="200.7" x2="399.7" y2="232.6"/>
		<line class="st0" x1="399.7" y1="158.2" x2="408.2" y2="158.2"/>
		<line class="st0" x1="408.2" y1="200.7" x2="399.7" y2="200.7"/>
		<g>
			<line class="st0" x1="399.7" y1="126.3" x2="416.6" y2="109.4"/>
			<line class="st0" x1="410.6" y1="103.4" x2="440.6" y2="73.4"/>
			<line class="st0" x1="446.7" y1="79.4" x2="463.5" y2="62.5"/>
			<line class="st0" x1="416.6" y1="109.4" x2="410.6" y2="103.4"/>
			<line class="st0" x1="440.6" y1="73.4" x2="446.7" y2="79.4"/>
		</g>
		<line class="st0" x1="442.2" y1="232.6" x2="442.2" y2="224.1"/>
		<line class="st0" x1="527.3" y1="126.3" x2="527.3" y2="158.2"/>
		<line class="st0" x1="518.8" y1="158.2" x2="518.8" y2="200.7"/>
		<line class="st0" x1="527.3" y1="200.7" x2="527.3" y2="232.6"/>
		<line class="st0" x1="527.3" y1="158.2" x2="518.8" y2="158.2"/>
		<line class="st0" x1="518.8" y1="200.7" x2="527.3" y2="200.7"/>
		<line class="st0" x1="484.8" y1="232.6" x2="484.8" y2="224.1"/>
		<g>
			<line class="st0" x1="527.3" y1="126.3" x2="510.4" y2="109.4"/>
			<line class="st0" x1="516.4" y1="103.4" x2="486.4" y2="73.4"/>
			<line class="st0" x1="480.4" y1="79.4" x2="463.5" y2="62.5"/>
			<line class="st0" x1="510.4" y1="109.4" x2="516.4" y2="103.4"/>
			<line class="st0" x1="486.4" y1="73.4" x2="480.4" y2="79.4"/>
		</g>
	</g>
</g>
</svg>
