<?xml version="1.0" encoding="utf-8"?>
<!-- Generator: Adobe Illustrator 24.3.0, SVG Export Plug-In . SVG Version: 6.00 Build 0)  -->
<svg version="1.1" id="Layer_1" xmlns="http://www.w3.org/2000/svg" xmlns:xlink="http://www.w3.org/1999/xlink" x="0px" y="0px"
	 viewBox="0 0 1728 864" style="enable-background:new 0 0 1728 864;" xml:space="preserve">
<style type="text/css">
	.st0{fill:none;stroke:#000000;stroke-miterlimit:2.4142;}
	.st1{fill:none;stroke:#221F1F;stroke-miterlimit:2.4142;}
</style>
<path class="st0" d="M58.4,214.5v-45H36V147h22.4v-22.5H36V102h22.4V79.4H36V57h22.4V34.5H306V57h22.4v22.4H306V102h22.4v22.5H306
	V147h22.4v22.4H306v45h-22.5 M283.5,214.5c0,0-22.7-45-45-45V147H216v22.4h-22.5V147H171v22.4h-22.5V147H126v22.4
	c0,0-45.5,22.8-45,45H58.4"/>
<polyline class="st0" points="361.7,214.5 361.7,169.4 339.3,169.4 339.3,147 361.7,147 361.7,124.5 339.3,124.5 339.3,102 
	361.7,102 361.7,79.4 339.3,79.4 339.3,57 361.7,57 609.3,57 631.7,57 631.7,79.4 609.3,79.4 609.3,102 631.7,102 631.7,124.5 
	609.3,124.5 609.3,147 631.7,147 631.7,169.4 609.3,169.4 609.3,214.5 586.8,214.5 "/>
<path class="st0" d="M334.8,385.5c-7.5,0-15,0-22.4,0 M312.4,385.5c-0.1,7.5-0.1,15.1-0.1,22.5 M312.3,408c7.4,0,15,0,22.5,0
	 M334.8,408v45 M289.8,453c0-22.4-45-45-45-45v-22.4h-22.4V408h-22.5v-22.4h-22.5V408h-22.5v-22.4h-22.4V408c0,0-45.5,22.7-45,45
	h-45l0,0v-45H65v-22.5H42.5V363h22.4v-22.5H42.3V318l22.4-0.1v-22.4H42.3l0,0l-0.1-45h225l22.5-22.5h45v67.5h-22.4v22.4l22.4,0.1
	v22.4h-22.4V363h22.4c0,7.5,0,15.1,0,22.5 M334.8,453h-45"/>
<path class="st0" d="M316.8,262.5c0,9.1-7.4,16.5-16.5,16.5s-16.5-7.4-16.5-16.5s7.4-16.5,16.5-16.5S316.8,253.4,316.8,262.5z"/>
<path class="st0" d="M346.9,385.5c7.5,0,15,0,22.4,0 M369.4,385.5c0.1,7.5,0.1,15.1,0.1,22.5 M369.5,408c-7.4,0-15,0-22.5,0
	 M346.9,408v45 M391.9,453c0-22.4,45-45,45-45v-22.4h22.4V408h22.5v-22.4h22.5V408h22.5v-22.4h22.4V408c0,0,45.5,22.7,45,45h45l0,0
	v-45h-22.5v-22.5h22.5V363h-22.4v-22.5h22.4V318l-22.4-0.1v-22.4h22.4l0,0l0.1-45h-225L391.9,228h-45v67.5h22.4v22.4l-22.4,0.1v22.4
	h22.4V363h-22.4c0,7.5,0,15.1,0,22.5 M346.9,453h45"/>
<path class="st0" d="M364.9,262.5c0,9.1,7.4,16.5,16.5,16.5s16.5-7.4,16.5-16.5s-7.4-16.5-16.5-16.5S364.9,253.4,364.9,262.5z"/>
<polygon class="st0" points="1208.9,57 1208.9,79.5 1186.4,79.5 1186.4,327 938.9,327 938.9,79.5 916.4,79.5 916.4,57 938.9,57 
	938.9,34.5 1186.4,34.5 1186.4,57 "/>
<path class="st0" d="M586.8,214.5c0,0-22.7-45-45-45V147h-22.4v22.4h-22.5V147h-22.5v22.4h-22.5V147h-22.4v22.4c0,0-45.5,22.8-45,45
	H362"/>
<polygon class="st0" points="85,137.9 85,119.9 84.9,108.9 106,88 114.8,79 114.6,108.5 "/>
<polygon class="st0" points="183.8,109.3 214,79.4 214,107.3 183.8,136.9 "/>
<polygon class="st0" points="180.6,136.3 151.2,108.3 151.4,79.6 180.6,109.1 "/>
<polygon class="st0" points="215.8,109.8 243.6,109.8 214.4,139.7 186.5,139.7 "/>
<polygon class="st0" points="178.6,139.7 150.4,139.7 120.1,110 149.3,110.1 "/>
<path class="st0" d="M249.5,79.4l29.8,29.4c0,7.3,0,21.4,0,28.7l-29.8-30.6C249.5,99.5,249.5,86.8,249.5,79.4L249.5,79.4z"/>
<path class="st0" d="M217.1,79.8l27,26.7l-27.1,0.1C217,97.7,217,88.8,217.1,79.8L217.1,79.8z"/>
<path class="st0" d="M182.5,45.1l30.4,30l-30.7,31.1l-30.5-30.3C162,65.3,171.9,55.2,182.5,45.1L182.5,45.1z"/>
<polygon class="st0" points="146,77.2 117.8,104.9 117.8,77 "/>
<polygon class="st0" points="147.9,106.7 120.7,106.7 148,79.2 "/>
<polygon class="st0" points="246.3,104.6 218.9,77.1 246.5,76.9 "/>
<polygon class="st0" points="279.3,46.2 279.4,104.7 250.2,75.6 "/>
<polygon class="st0" points="85.1,46.3 85,104.7 114.1,75.2 "/>
<polygon class="st0" points="244.1,73.6 214.7,44.3 186.1,44.3 216.2,73.7 "/>
<polygon class="st0" points="145.3,44.4 87.4,44.3 116.4,73.3 "/>
<polygon class="st0" points="145.8,139.3 87.8,139.4 116.9,110.3 "/>
<path class="st0" d="M178.6,44.3c-5.6,0-11.2,0-16.8,0l-12.2,0.1c-0.8,0-25.1,24.9-29.6,29.4l29.1-0.1L178.6,44.3L178.6,44.3z"/>
<polygon class="st0" points="276.1,44.3 218.9,44.3 248,73.4 "/>
<polygon class="st0" points="277.4,139.7 219.1,139.7 248.3,110.6 "/>
<g>
	<polygon class="st0" points="93.9,371.4 93.9,353.4 93.9,342.4 114.9,321.5 123.7,312.5 123.5,342 	"/>
	<polygon class="st0" points="192.7,342.8 222.9,312.9 222.9,340.8 192.7,370.4 	"/>
	<polygon class="st0" points="189.5,369.9 160.1,341.8 160.3,313.1 189.5,342.6 	"/>
	<polygon class="st0" points="224.7,343.4 252.5,343.4 223.3,373.2 195.4,373.2 	"/>
	<polygon class="st0" points="187.5,373.2 159.3,373.2 129.1,343.6 158.3,343.6 	"/>
	<path class="st0" d="M258.5,312.9l29.8,29.4c0,7.3,0,21.4,0,28.7l-29.8-30.6C258.5,333,258.5,320.3,258.5,312.9L258.5,312.9z"/>
	<path class="st0" d="M226,313.3l27,26.7l-27.1,0.1C225.9,331.2,225.9,322.3,226,313.3L226,313.3z"/>
	<path class="st0" d="M191.5,278.6l30.4,30l-30.7,31.1l-30.5-30.3C170.9,298.8,180.9,288.7,191.5,278.6L191.5,278.6z"/>
	<polygon class="st0" points="154.9,310.7 126.7,338.4 126.8,310.5 	"/>
	<polygon class="st0" points="156.9,340.2 129.7,340.2 156.9,312.7 	"/>
	<polygon class="st0" points="255.2,338.1 227.8,310.6 255.4,310.5 	"/>
	<polygon class="st0" points="288.3,279.7 288.3,338.2 259.2,309.1 	"/>
	<polygon class="st0" points="94,279.8 93.9,338.2 123,308.7 	"/>
	<polygon class="st0" points="253,307.1 223.7,277.8 195.1,277.8 225.1,307.2 	"/>
	<polygon class="st0" points="154.2,277.9 96.3,277.8 125.4,306.8 	"/>
	<polygon class="st0" points="154.7,372.8 96.8,372.9 125.8,343.8 	"/>
	<path class="st0" d="M187.5,277.8c-5.6,0-11.2,0-16.8,0l-12.2,0.1c-0.8,0-25.1,24.9-29.6,29.4l29.1-0.1L187.5,277.8L187.5,277.8z"
		/>
	<polygon class="st0" points="285.1,277.8 227.8,277.8 257,306.9 	"/>
	<polygon class="st0" points="286.3,373.2 228.1,373.2 257.2,344.1 	"/>
</g>
<g>
	<polygon class="st0" points="396.5,371.7 396.5,353.7 396.5,342.7 417.5,321.7 426.3,312.8 426.2,342.2 	"/>
	<polygon class="st0" points="495.3,343 525.5,313.2 525.5,341.1 495.3,370.7 	"/>
	<polygon class="st0" points="492.1,370.1 462.7,342 462.9,313.4 492.1,342.8 	"/>
	<polygon class="st0" points="527.3,343.6 555.2,343.6 525.9,373.4 498.1,373.4 	"/>
	<polygon class="st0" points="490.2,373.4 462,373.4 431.7,343.8 460.9,343.9 	"/>
	<path class="st0" d="M561.1,313.2l29.8,29.4c0,7.3,0,21.4,0,28.7l-29.8-30.6C561.1,333.3,561.1,320.6,561.1,313.2L561.1,313.2z"/>
	<path class="st0" d="M528.6,313.6l27,26.7l-27.1,0.1C528.6,331.5,528.6,322.6,528.6,313.6L528.6,313.6z"/>
	<path class="st0" d="M494.1,278.9l30.4,30L493.8,340l-30.5-30.3C473.5,299.1,483.5,289,494.1,278.9L494.1,278.9z"/>
	<polygon class="st0" points="457.5,311 429.3,338.7 429.4,310.8 	"/>
	<polygon class="st0" points="459.5,340.5 432.3,340.5 459.6,313 	"/>
	<polygon class="st0" points="557.8,338.4 530.5,310.8 558.1,310.7 	"/>
	<polygon class="st0" points="590.9,280 590.9,338.5 561.8,309.3 	"/>
	<polygon class="st0" points="396.7,280.1 396.5,338.5 425.6,309 	"/>
	<polygon class="st0" points="555.7,307.4 526.3,278.1 497.7,278 527.7,307.5 	"/>
	<polygon class="st0" points="456.9,278.1 398.9,278 428,307.1 	"/>
	<polygon class="st0" points="457.4,373.1 399.4,373.1 428.5,344.1 	"/>
	<path class="st0" d="M490.2,278c-5.6,0-11.2,0-16.8,0l-12.2,0.1c-0.8,0-25.1,24.9-29.6,29.4l29.1-0.1L490.2,278L490.2,278z"/>
	<polygon class="st0" points="587.7,278 530.5,278 559.6,307.2 	"/>
	<polygon class="st0" points="589,373.5 530.7,373.5 559.8,344.3 	"/>
</g>
<polygon class="st0" points="952.1,197.4 952.1,218.1 952.1,230.7 975.8,254.8 985.7,265.1 985.5,231.2 "/>
<polygon class="st0" points="1063.4,229.8 1097.5,264 1097.5,232 1063.4,198 "/>
<polygon class="st0" points="1059.9,198.6 1026.7,230.9 1026.9,263.8 1059.9,230 "/>
<polygon class="st0" points="1099.5,270.4 1130.9,270.4 1098,304.7 1066.6,304.7 "/>
<polygon class="st0" points="1057.7,304.7 1025.9,304.7 991.8,270.6 1024.7,270.7 "/>
<path class="st0" d="M1137.6,264l33.6-33.7c0-8.4,0-24.6,0-33l-33.6,35.2C1137.6,241,1137.6,255.6,1137.6,264L1137.6,264z"/>
<path class="st0" d="M1134.1,235.9l-30.5,30.7l30.5,0.1C1134.2,256.4,1134.2,246.2,1134.1,235.9L1134.1,235.9z"/>
<path class="st0" d="M1062.1,303.5l34.3-34.5l-34.6-35.7l-34.4,34.8C1038.9,280.2,1050.1,291.8,1062.1,303.5L1062.1,303.5z"/>
<polygon class="st0" points="991.4,232.9 1023.2,264.7 1023.1,232.7 "/>
<polygon class="st0" points="989.2,266.8 1019.8,266.8 989.1,235.2 "/>
<polygon class="st0" points="1101.2,264.4 1132,232.7 1100.9,232.6 "/>
<polygon class="st0" points="1171.2,302.2 1171.2,235 1138.4,268.5 "/>
<polygon class="st0" points="952.3,302.6 952.1,235.5 984.9,269.4 "/>
<polygon class="st0" points="1020.7,304.2 955.4,304.3 988.1,270.9 "/>
<polygon class="st0" points="1103.1,195 1135.9,228.5 1168.5,195 1135.7,161.3 "/>
<polygon class="st0" points="1169,304.7 1103.3,304.7 1136.2,271.2 "/>
<polygon class="st0" points="1171.7,193 1171.7,172.3 1171.8,159.6 1148,135.6 1138.1,125.3 1138.3,159.1 "/>
<polygon class="st0" points="1060.4,160.1 1026.3,125.8 1026.3,157.8 1060.4,191.8 "/>
<polygon class="st0" points="1063.9,192 1097.1,158.9 1096.9,126 1063.9,159.8 "/>
<polygon class="st0" points="1066.2,195 1100,228.9 1131.5,228.7 1098.1,194.9 1132.1,161 1099.2,161 "/>
<path class="st0" d="M986.2,125.8l-33.6,33.7c0,8.4,0,24.6,0,33l33.6-35.2C986.2,148.9,986.2,134.3,986.2,125.8L986.2,125.8z"/>
<path class="st0" d="M1022.8,126.2L992.3,157l30.5,0.1C1022.9,146.8,1022.9,136.6,1022.8,126.2L1022.8,126.2z"/>
<path class="st0" d="M1061.7,86.3l-34.3,34.5l34.6,35.7l34.4-34.8C1084.9,109.6,1073.7,98,1061.7,86.3L1061.7,86.3z"/>
<polygon class="st0" points="1103,123.2 1134.7,155.1 1134.7,123 "/>
<polygon class="st0" points="1100.7,157.1 1131.4,157.1 1100.6,125.6 "/>
<polygon class="st0" points="989.9,154.7 1020.7,123.1 989.6,122.9 "/>
<polygon class="st0" points="952.7,87.6 952.6,154.9 985.4,121.3 "/>
<polygon class="st0" points="1171.6,87.7 1171.7,154.9 1138.9,121 "/>
<polygon class="st0" points="992.3,119.1 1025.5,85.4 1057.7,85.4 1023.8,119.2 "/>
<polygon class="st0" points="1103.7,85.5 1169,85.4 1136.3,118.8 "/>
<path class="st0" d="M1066.2,85.4c6.3,0,12.6,0,18.9,0l13.8,0.1c0.9,0,28.3,28.6,33.3,33.8l-32.8-0.1L1066.2,85.4L1066.2,85.4z"/>
<polygon class="st0" points="956.2,85.4 1020.7,85.4 987.9,118.9 "/>
<polygon class="st0" points="1021.1,195 988.3,228.5 955.7,195 988.5,161.3 "/>
<polygon class="st0" points="1058,195 1024.2,228.9 992.7,228.7 1026.1,194.9 992.1,161 1025,161 "/>
<path class="st1" d="M1167.1,520.4 M1167.2,700.4l-0.1-67.5l22.5-0.1v-22.4h-22.5v-22.5h22.5v-22.4h-22.5V543h22.5v-22.5h-22.5V453
	h-67.6v-22.5h-22.4V453h-22.5v-22.5h-22.5V453h-22.5v-22.5h-22.4V453h-67.6h0.1v67.5h-22.5V543h22.5v22.5h-22.5V588h22.5v22.5h-22.5
	V633h22.5v67.5h-0.1h67.5V723h22.4v-22.5h22.5V723h22.5v-22.5h22.5V723h22.4v-22.5h0.2L1167.2,700.4z"/>
</svg>
