<?xml version="1.0" encoding="utf-8"?>
<!-- Generator: Adobe Illustrator 24.3.0, SVG Export Plug-In . SVG Version: 6.00 Build 0)  -->
<svg version="1.1"
	 id="svg2" xmlns:cc="http://creativecommons.org/ns#" xmlns:dc="http://purl.org/dc/elements/1.1/" xmlns:osb="http://www.openswatchbook.org/uri/2009/osb" xmlns:rdf="http://www.w3.org/1999/02/22-rdf-syntax-ns#" xmlns:svg="http://www.w3.org/2000/svg"
	 xmlns="http://www.w3.org/2000/svg" xmlns:xlink="http://www.w3.org/1999/xlink" x="0px" y="0px" viewBox="0 0 1728 864"
	 style="enable-background:new 0 0 1728 864;" xml:space="preserve">
<style type="text/css">
	.st0{fill:none;stroke:#000000;stroke-width:0.6301;stroke-miterlimit:3.1059;}
	.st1{fill:none;stroke:#000000;stroke-width:0.72;stroke-miterlimit:3.1059;}
	.st2{fill:none;stroke:#000000;stroke-width:0.6299;stroke-miterlimit:3.1059;}
	.st3{fill:none;stroke:#000000;stroke-width:0.6298;stroke-miterlimit:3.1059;}
	.st4{fill:none;stroke:#000000;stroke-width:0.6456;stroke-miterlimit:3.1059;}
	.st5{fill:none;stroke:#000000;stroke-width:0.5153;stroke-miterlimit:3.2;}
	.st6{fill:none;stroke:#000000;stroke-width:0.6302;stroke-miterlimit:3.1059;}
</style>
<g id="layer1" transform="translate(0,27.637855)">
	<g id="g6038" transform="matrix(0,1,-1,0,1208.4379,2427.2116)">
		<g id="g5864" transform="translate(-1028.7,-1797.3502)">
			<path id="path6059" class="st0" d="M-1150.9,1848.5v85.8h13.8v-85.8H-1150.9"/>
			<path id="path6801" class="st1" d="M-1340.3,1762.1v18h-79v68.4h18v85.7h-18v87.1h550.8v-87.1h-18v-85.7h18v-68.8h0v0.3h-79v-18
				h-78v18h-79.4v-18h-78v18h-79.4v-18H-1340.3L-1340.3,1762.1z"/>
		</g>
		<path id="path6065" class="st1" d="M-2364.7-827.9L-2364.7-827.9L-2364.7-827.9v85.7h-18v68.8h78.3v0.3l0.7,0v14.5h78v-14.5h79.4
			v14.5h78v-14.5h79.4v14.5h78v-14.5l0.7,0v-0.3h78.3v-68.8h-18v-85.7l0,0l0,0C-1849.9-827.9-2364.7-827.9-2364.7-827.9z"/>
	</g>
	<g id="g6078" transform="matrix(0,1,-1,0,1592.8365,1179.6891)">
		<path id="path6071" class="st2" d="M-915.2-92l250.2,0c0.1,21.1,0.3,36,0.3,68.7v85.7v87.1v85.7h18v68.9l-79.7,0.2v14.5h-76.9
			v-14.5h-80.5v14.5h-76.6v-14.5h-80.2v14.5h-77.4v-14.5l-79.5-0.2v-68.9h18v-85.7V62.4v-85.7c0-15.4,1-45.9,1-68.7l248.4,0.1l1.1,0
			l0,0v197.6h13.8V-92L-915.2-92z"/>
	</g>
	<g id="g6159" transform="translate(2395.5255,-204.33304)">
		<path id="path6101" class="st1" d="M-1238.4,126.3h61.9v18h77v-18h80.5v18h29l0-216.4h18l0.1,216.4h29.8v-18h80.5v18h76.9v-18
			h61.2"/>
		<g id="g6088">
			<path id="path6095" class="st1" d="M-1238.4,126.3v-68h-18v-87.1h18v-85.7c0-20.2,0-63.1,0-87.1l-0.1-67.8l187.5-0.2l0,0.4v-73.8
				c-0.6-3.7-1-7.5-1-11.3c0-39.2,31.8-71,71-71c39.2,0,71,31.8,71,71c0,3.9-0.3,7.8-1,11.7l0,73.4l187.3-0.2l0.1,67.8
				c0,17.2,0,87.1,0,87.1v85.7h18v87.1h-18v68"/>
			<path id="path6639" class="st1" d="M-983.1-406.1c1,0,2,0,3.1,0.1c23.5-0.6,45,18,50,40.5c6.6,24.4-9.1,51.3-32.4,59.8
				c-26.9,11.7-60.4-6.5-68-34.2C-1040.9-370.1-1014.5-405.6-983.1-406.1L-983.1-406.1z"/>
		</g>
	</g>
	<g id="flowRoot6841" transform="translate(0,-27.637855)">
	</g>
	<g id="g4318" transform="translate(-581.0447,-1902.5316)">
		<path id="path4320" class="st3" d="M657.9,1575h78v-13.8h-78V1575"/>
		<path id="path4322" class="st3" d="M972.7,1575h78v-13.8h-78V1575"/>
		<path id="path4324" class="st3" d="M847.4,1371.7v78h13.8v-78H847.4"/>
		<path id="path4326" class="st1" d="M657.9,1292.7v18h78v-18h79.4v18h78v-18h79.4v18h78v-18h79v79h-18v78h18v79.4h-18v78h18v79.4
			h-18v78h18v79h-79v-18h-78v18h-79.4v-18h-78v18h-79.4v-18h-78v18h-79v-79h18v-78h-18v-79.4h18v-78h-18v-79.4h18v-78l-18,0.1v-79.1
			L657.9,1292.7z"/>
		<path id="path4328" class="st3" d="M847.4,1686.5v78h13.8v-78H847.4"/>
		<path id="path4330" class="st3" d="M847.4,1529.1v32.1h-32.1v13.8h32.1v32.1h13.8V1575h32.1v-13.8h-32.1v-32.1H847.4z"/>
	</g>
	<g id="g5929" transform="translate(2044.9553,-1416.5316)">
		<path id="path5911" class="st4" d="M-1476.9,1283.2h14.5v-78h-14.5v-79.4h14.5v-78h-14.5v-79.4h14.5v-78h-14.5l0-78.9l79.1,0.2
			v14.5h78v-14.5h79.4v14.5h78v-14.5h79.4v14.5h78v-14.5l78.9-0.2l-0.2,78.9h-14.5v78h14.5v79.4h-14.5v78h14.5v79.4h-14.5v78h14.5
			l0.2,79.1l-78.9,0v-14.5h-78v14.5h-79.4v-14.5h-78v14.5h-79.4v-14.5h-78v14.5l-79.1,0L-1476.9,1283.2z"/>
		<path id="rect5921" class="st5" d="M-1209.2,1015.2v64.1h-64.1v15.3h64.1v64.1h15.3v-64.1h64.1v-15.3h-64.1v-64.1L-1209.2,1015.2
			L-1209.2,1015.2z"/>
	</g>
	<g id="g5965" transform="matrix(0,-1,1,0,-771.6521,-737.3432)">
		<path id="path5967" class="st0" d="M-1007.6,1401.7v85.8h13.8v-85.8H-1007.6"/>
		<path id="path5969" class="st1" d="M-1197,1315.3v18h-79v68.4h18v85.7h-18v87.1h550.8v-87.1h-18v-85.7h18v-68.8h0v0.3h-79v-18h-78
			v18h-79.4v-18h-78v18h-79.4v-18H-1197L-1197,1315.3z"/>
	</g>
	<path id="path5971_1_" class="st1" d="M1119.2,582.3V668h-18v68.8h0.2v-0.4l78.9,0v14.5h78v-14.5h79.4v14.5h78v-14.5h79.4v14.5h78
		h0v-14.5l79,0V668h-18v-85.7H1119.2z"/>
	<g id="g5985" transform="matrix(-1,0,0,-1,620.8922,1826.2317)">
		<path id="path5987" class="st6" d="M518.4,1570.4h68.1v-13.8h-68.1L518.4,1570.4"/>
		<path id="path5989" class="st1" d="M431.4,1288.5v18h-86.3c0.6,16.3-0.1,514.7-0.1,514.7c2.5,0,1.6,0.1,0,0.1h86.3v18h87.1v-18h68
			V1761h0.3v-0.7h17.7v-78h-17.7v-79.4h17.7v-78h-17.7v-79.4h17.7v-78l-17.7,0.1v-0.8h-0.3v-60.3h-68v-18L431.4,1288.5L431.4,1288.5
			z M345.1,1306.5C345.1,1305.9,345,1305.8,345.1,1306.5L345.1,1306.5z"/>
	</g>
	<path id="path5991" class="st1" d="M8.7,753.1h550.8v-86.5l-18,0v-67.8l-61.3,0v-14.5h-78v14.5h-79.4v-14.5h-78v14.5h-79.4v-14.5
		h-78v14.5l-60.8,0v67.8h-18L8.7,753.1L8.7,753.1z"/>
	<g id="g5995" transform="translate(77.0023,-1152.5316)">
		<path id="path5997" class="st6" d="M378.8,1424.6H447v-13.8h-68.1V1424.6"/>
		<path id="path5999" class="st1" d="M291.8,1142.7v18h-86.3c0.6,16.3-0.1,514.7-0.1,514.7c2.5,0,1.6,0.1,0,0.1h86.3v18h87.1v-18h68
			v-60.3h0.3v-0.7h17.7v-78h-17.7v-79.4h17.7v-78h-17.7v-79.4h17.7v-78l-17.7,0.1v-0.8h-0.3v-60.3h-68v-18L291.8,1142.7
			L291.8,1142.7z M205.5,1160.7C205.5,1160.1,205.5,1160,205.5,1160.7L205.5,1160.7z"/>
	</g>
	<path id="path6001" class="st1" d="M552.1,657.8l18,0v68.1l60.3,0v0.3h0.5v14.5h78v-14.5h79.4v14.5h78v-14.5h79.4v14.5h78v-14.5
		h0.9v-0.3h60.3v-68h18v-86.5H552.1V657.8L552.1,657.8z"/>
</g>
<g id="g4197" transform="translate(0,27.637855)">
</g>
<g id="g4509" transform="translate(0,27.637855)">
</g>
<g id="g6171">
</g>
</svg>
