<?xml version="1.0" encoding="utf-8"?>
<!-- Generator: Adobe Illustrator 24.3.0, SVG Export Plug-In . SVG Version: 6.00 Build 0)  -->
<svg version="1.1" id="_x30_" xmlns="http://www.w3.org/2000/svg" xmlns:xlink="http://www.w3.org/1999/xlink" x="0px" y="0px"
	 viewBox="0 0 841.9 595.3" style="enable-background:new 0 0 841.9 595.3;" xml:space="preserve">
<style type="text/css">
	.st0{fill:none;stroke:#000000;stroke-width:2;stroke-linecap:round;stroke-linejoin:round;stroke-miterlimit:10;}
</style>
<g id="ARC_39_">
	<path class="st0" d="M600.9,851.4c19.3,0,35-15.7,35-35"/>
</g>
<g id="LINE_37_">
	<line class="st0" x1="635.9" y1="-397.1" x2="635.9" y2="816.4"/>
</g>
<g id="ARC_38_">
	<path class="st0" d="M635.9-397.1c0-19.3-15.7-35-35-35"/>
</g>
<g id="LINE_36_">
	<line class="st0" x1="-379.2" y1="-432.1" x2="600.9" y2="-432.1"/>
</g>
<g id="ARC_37_">
	<path class="st0" d="M-379.2-432.1c-19.3,0-35,15.7-35,35"/>
</g>
<g id="LINE_35_">
	<line class="st0" x1="-414.2" y1="-397.1" x2="-414.2" y2="816.4"/>
</g>
<g id="ARC_36_">
	<path class="st0" d="M-414.2,816.4c0,19.3,15.7,35,35,35"/>
</g>
<g id="LINE_34_">
	<line class="st0" x1="-379.2" y1="851.4" x2="-356.6" y2="851.4"/>
</g>
<g id="ARC_35_">
	<path class="st0" d="M-356.6,851.4c15.5,0,29.1-10.2,33.5-25"/>
</g>
<g id="ARC_34_">
	<path class="st0" d="M-239.2,763.9c-38.7,0-72.8,25.4-83.9,62.5"/>
</g>
<g id="LINE_33_">
	<line class="st0" x1="-239.2" y1="763.9" x2="460.9" y2="763.9"/>
</g>
<g id="ARC_33_">
	<path class="st0" d="M544.8,826.4c-11.1-37.1-45.2-62.5-83.9-62.5"/>
</g>
<g id="ARC_32_">
	<path class="st0" d="M544.8,826.4c4.4,14.8,18.1,25,33.5,25"/>
</g>
<g id="LINE_32_">
	<line class="st0" x1="578.3" y1="851.4" x2="600.9" y2="851.4"/>
</g>
<g id="CIRCLE">
	<path class="st0" d="M-293.6,588.4c0-14.2,11.5-25.7,25.7-25.7c14.2,0,25.7,11.5,25.7,25.7s-11.5,25.7-25.7,25.7
		C-282.1,614.1-293.6,602.6-293.6,588.4L-293.6,588.4z"/>
</g>
<g id="CIRCLE_1_">
	<path class="st0" d="M463.9-169.1c0-14.2,11.5-25.7,25.7-25.7c14.2,0,25.7,11.5,25.7,25.7c0,14.2-11.5,25.7-25.7,25.7
		C475.4-143.5,463.9-154.9,463.9-169.1L463.9-169.1z"/>
</g>
<g id="CIRCLE_2_">
	<path class="st0" d="M463.9,588.4c0-14.2,11.5-25.7,25.7-25.7c14.2,0,25.7,11.5,25.7,25.7s-11.5,25.7-25.7,25.7
		C475.4,614.1,463.9,602.6,463.9,588.4L463.9,588.4z"/>
</g>
<g id="CIRCLE_3_">
	<path class="st0" d="M-293.6-169.1c0-14.2,11.5-25.7,25.7-25.7c14.2,0,25.7,11.5,25.7,25.7c0,14.2-11.5,25.7-25.7,25.7
		C-282.1-143.5-293.6-154.9-293.6-169.1L-293.6-169.1z"/>
</g>
<g id="CIRCLE_4_">
	<path class="st0" d="M-344.2,209.6c0-251.3,203.7-455.1,455.1-455.1S565.9-41.7,565.9,209.6S362.2,664.7,110.9,664.7
		S-344.2,461-344.2,209.6L-344.2,209.6z"/>
</g>
<g id="LINE_67_">
	<line class="st0" x1="727.1" y1="736.3" x2="727.1" y2="-477.2"/>
</g>
<g id="ARC_71_">
	<path class="st0" d="M727.1,736.3c0,19.3,15.7,35,35,35"/>
</g>
<g id="LINE_66_">
	<line class="st0" x1="762.1" y1="771.3" x2="1742.2" y2="771.3"/>
</g>
<g id="ARC_70_">
	<path class="st0" d="M1742.2,771.3c19.3,0,35-15.7,35-35"/>
</g>
<g id="LINE_65_">
	<line class="st0" x1="1777.3" y1="736.3" x2="1777.3" y2="-477.2"/>
</g>
<g id="ARC_69_">
	<path class="st0" d="M1777.3-477.2c0-19.3-15.7-35-35-35"/>
</g>
<g id="LINE_64_">
	<line class="st0" x1="1719.6" y1="-512.2" x2="1742.2" y2="-512.2"/>
</g>
<g id="ARC_68_">
	<path class="st0" d="M1719.6-512.2c-15.5,0-29.1,10.2-33.5,25"/>
</g>
<g id="ARC_67_">
	<path class="st0" d="M1602.2-424.7c38.7,0,72.8-25.4,83.9-62.5"/>
</g>
<g id="LINE_63_">
	<line class="st0" x1="1368.9" y1="-424.7" x2="1602.2" y2="-424.7"/>
</g>
<g id="ARC_66_">
	<path class="st0" d="M1368.9-424.7c-12.9,0-23.3,10.4-23.3,23.3"/>
</g>
<g id="LINE_62_">
	<line class="st0" x1="1345.5" y1="-401.4" x2="1345.5" y2="-331.4"/>
</g>
<g id="ARC_65_">
	<path class="st0" d="M1322.2-308c12.9,0,23.3-10.4,23.3-23.3"/>
</g>
<g id="LINE_61_">
	<line class="st0" x1="1182.2" y1="-308" x2="1322.2" y2="-308"/>
</g>
<g id="ARC_64_">
	<path class="st0" d="M1158.8-331.4c0,12.9,10.4,23.3,23.3,23.3"/>
</g>
<g id="LINE_60_">
	<line class="st0" x1="1158.8" y1="-401.4" x2="1158.8" y2="-331.4"/>
</g>
<g id="ARC_63_">
	<path class="st0" d="M1158.8-401.4c0-12.9-10.4-23.3-23.3-23.3"/>
</g>
<g id="LINE_59_">
	<line class="st0" x1="902.1" y1="-424.7" x2="1135.5" y2="-424.7"/>
</g>
<g id="ARC_62_">
	<path class="st0" d="M818.3-487.2c11.1,37.1,45.2,62.5,83.9,62.5"/>
</g>
<g id="ARC_61_">
	<path class="st0" d="M818.3-487.2c-4.4-14.8-18.1-25-33.5-25"/>
</g>
<g id="LINE_58_">
	<line class="st0" x1="762.1" y1="-512.2" x2="784.7" y2="-512.2"/>
</g>
<g id="ARC_60_">
	<path class="st0" d="M762.1-512.2c-19.3,0-35,15.7-35,35"/>
</g>
<g id="LINE_57_">
	<line class="st0" x1="741.7" y1="494.2" x2="741.7" y2="698.4"/>
</g>
<g id="LINE_56_">
	<line class="st0" x1="770.8" y1="494.2" x2="770.8" y2="698.4"/>
</g>
<g id="LINE_55_">
	<line class="st0" x1="1733.5" y1="494.2" x2="1733.5" y2="698.4"/>
</g>
<g id="LINE_54_">
	<line class="st0" x1="1762.7" y1="494.2" x2="1762.7" y2="698.4"/>
</g>
<g id="LINE_51_">
	<line class="st0" x1="1762.7" y1="-235.1" x2="1762.7" y2="-439.3"/>
</g>
<g id="LINE_50_">
	<line class="st0" x1="1733.5" y1="-235.1" x2="1733.5" y2="-439.3"/>
</g>
<rect x="741.7" y="-453.9" class="st0" width="29.2" height="233.4"/>
<rect x="1733.5" y="-453.9" class="st0" width="29.2" height="233.4"/>
<g id="LINE_52_">
	<line class="st0" x1="1733.5" y1="698.4" x2="1733.5" y2="494.2"/>
</g>
<rect x="741.7" y="479.6" class="st0" width="29.2" height="233.4"/>
<rect x="592.2" y="-373.8" class="st0" width="29.2" height="233.4"/>
<rect x="592.2" y="559.7" class="st0" width="29.2" height="233.4"/>
<rect x="-400.2" y="-373.8" class="st0" width="29.2" height="233.4"/>
<rect x="-400.2" y="559.7" class="st0" width="29.2" height="233.4"/>
<path class="st0" d="M-493.3-380.8v-46.7c0-6.4-5.2-11.7-11.7-11.7h-560.1c-6.4,0-11.7,5.2-11.7,11.7v46.7h-29.2v25.7v182v25.7h29.2
	v700.1h-29.2v39.7v170.4v23.3h29.2v-1.2c0,0.6,0.5,1.2,1.2,1.2h581.1c0.6,0,1.2-0.5,1.2-1.2v1.2h29.2v-23.3V592.4v-39.7h-29.2
	v-700.1h29.2v-25.7v-182v-25.7H-493.3z"/>
<rect x="-799.6" y="579.5" transform="matrix(-1.836970e-16 1 -1 -1.836970e-16 -42.7339 1527.3293)" class="st0" width="29.2" height="325.5"/>
<rect x="-799.6" y="-558" transform="matrix(-1.836970e-16 1 -1 -1.836970e-16 -1180.2527 389.8106)" class="st0" width="29.2" height="325.5"/>
<path class="st0" d="M-1331.7-244.7v-105.6c0-12.9-10.4-23.3-23.3-23.3h-917.1c-12.9,0-23.3,10.4-23.3,23.3v105.6h-29.2v31.5V49.3
	v31.5h29.2v105.6c0,12.9,10.4,23.3,23.3,23.3h917.1c12.9,0,23.3-10.4,23.3-23.3V80.8h29.2V49.3v-262.5v-31.5H-1331.7z"/>
<path class="st0" d="M-1331.7,399.9V294.3c0-12.9-10.4-23.3-23.3-23.3h-917.1c-12.9,0-23.3,10.4-23.3,23.3v105.6h-29.2v31.5V694
	v31.5h29.2v105.6c0,12.9,10.4,23.3,23.3,23.3h917.1c12.9,0,23.3-10.4,23.3-23.3V725.5h29.2V694V431.5v-31.5H-1331.7z"/>
<rect x="1733.5" y="479.6" class="st0" width="29.2" height="233.4"/>
</svg>
