<?xml version="1.0" encoding="utf-8"?>
<!-- Generator: Adobe Illustrator 24.3.0, SVG Export Plug-In . SVG Version: 6.00 Build 0)  -->
<svg version="1.1" id="Layer_1" xmlns="http://www.w3.org/2000/svg" xmlns:xlink="http://www.w3.org/1999/xlink" x="0px" y="0px"
	 viewBox="0 0 929 563" style="enable-background:new 0 0 929 563;" xml:space="preserve">
<style type="text/css">
	.st0{fill:none;stroke:#FF0000;stroke-miterlimit:10;}
	.st1{fill:none;stroke:#FF0000;stroke-width:1;stroke-miterlimit:9.9998;}
</style>
<polygon class="st0" points="184.4,242.6 219,242.6 219,227.2 219,226.7 219,47.7 219,47.2 219,31.9 184.4,31.9 184.4,47.2 
	91.5,47.2 91.5,31.9 56.9,31.9 56.9,47.2 56.9,47.7 56.9,226.7 56.9,227.2 56.9,242.6 91.5,242.6 91.5,227.2 184.4,227.2 "/>
<polygon class="st0" points="91.5,273.2 56.9,273.2 56.9,288.5 56.9,289 56.9,468 56.9,468.5 56.9,483.9 91.5,483.9 91.5,468.5 
	184.4,468.5 184.4,483.9 219,483.9 219,468.5 219,468 219,289 219,288.5 219,273.2 184.4,273.2 184.4,288.5 91.5,288.5 "/>
<polygon class="st0" points="300.6,38.6 300.6,23.2 278,23.2 278,38.6 238,38.6 238,218.8 243.9,218.8 278,218.8 278,234.1 
	300.6,234.1 300.6,218.8 312.4,218.8 358.9,218.8 358.9,38.6 "/>
<polygon class="st0" points="296.3,288.4 296.3,273.1 318.9,273.1 318.9,288.4 358.9,288.4 358.9,468.6 353,468.6 318.9,468.6 
	318.9,484 296.3,484 296.3,468.6 284.5,468.6 238,468.6 238,288.4 "/>
<g>
	<path class="st0" d="M720.9,260.7c-0.2-2.1-0.3-4.2-0.5-6.3c0.4-3,1.1-6.6,0.4-12.6c-2.4-20.7,20.8-75.1,43.4-75.3
		c0.8,0,2.5,0.2,2.5,0.2c3.8-0.8,13.9,1.3,18.3,5.2c6.8,6.2,14.5,14.9,19.7,27c5.3,12.5,11.3,27.4,11.3,40.3c0,7.8,0,15.7,0,24.2
		h73.5c0.9-1.4,1.4-3.7,2.1-7.6c5.7-31.1,5-62.4,3.7-93.7c-1.1-25.6-3.4-50.9-16.9-73.8c-0.9-1.6-1.5-3.4-2.1-5.2
		c0.3-0.3,0.6-0.6,0.9-0.9l0,0c0.3-0.4,0.7-0.7,1-1.1c2.4-2.4,4.9-4.8,7.3-7.3c3.7-3.7,7.4-7.6,10.6-11.7c1.7-2.2,3.1-4.4,4.7-6.5
		c0.6-0.5,1.2-1,1.9-1.5c1.1-0.8,2-1.8,2.9-3l0,0c3.2-2.2,4.9-6.6,7.2-10.1c-3.4-1.3-6.9-2.7-10.3-4c-0.6-0.3-1.2-0.6-0.6-0.3
		c-1.8-3.9-3.5-9.3-4.2-9.2c-4.8,0.9-9.3,3-15.5,5.2c-4.8-2.3-10.8-0.8-12.4,4.6c-0.2,0.8-0.4,1.6-0.4,2.4c-0.2,0.4-0.4,0.9-0.6,1.4
		c-1.6,5.5,1.6,12.9,6.6,15.8c1.7,1,4.3,3.1,4.1,4.1s-0.6,2-1.1,3c-0.5,0.7-1.1,1.3-1.7,1.8c-2.5,1.9-6,2.6-8.4,3.6
		c-9.8-12.1-20.7-21.1-32.5-28c-11.2-6.9-23.4-12.1-36.2-15.7c-19.3-5.5-38.9-7.6-58.8-5.9c-19.5,0.6-44.6,9.7-68.6,26.2
		c-18.4,12.7-33.8,33.6-43.8,54.5c-1.7,3.4-3.3,6.8-4.4,9.7c-0.2,0.2-0.3,0.5-0.5,0.7c-30.7,72.5-57.4,117.6-91.1,91.9
		c0.1,0-2.8-3-4.7-5.6c-2.3-3.4-4.8-7.6-7.5-12.1c-3.8-6.9-7.6-14.3-11.2-20.2c-0.8-1.4-1.6-2.9-2.3-4.3
		c-4.2-15.7-8.5-32.8-12.5-48.3c-0.3-1.2,3-7.8,2.8-12.9c0.5-1.8,0.8-3.2,0.8-3.2c3.2-8.8,0.7-17.4-0.4-26
		c-0.9-7.1-8.6-17-13.9-17.1c-8.2-0.3-11.6,6.4-15.5,12.1c-0.2,0.3-0.3,0.8-0.5,1.1c-4.7,8.9-5.8,18.4-5.8,28.2
		c-4.7,1.8-9.5,3.2-14.5,4.9c-2.5-8.6-8.1-16.5,0-25.3c3.9-4.2,1.4-9.9-1.8-14c-3.2-4.1-7.9-4.6-12.8-2.8c-4.6,1.7-8.9,4.2-9,9.6
		c-0.1,6.1,0.3,12.4,7.4,15.3c1.1,0.4,2.1,1.8,2.4,2.9c1.4,4.9,2.8,9.8,3.7,14.8c0.3,1.6-0.6,4.3-1.8,5c-3.9,2.5-8.2,4.3-12.8,6.6
		c-2.1-7.3-6.5-13.2-1.8-21.1c3.5-6-2.5-14.5-9-14.9c-6.6-0.4-14.1,4.5-15.1,9.9c-1.3,7,2.3,12.9,9.2,16c2,0.9,4.1,3.1,4.8,5.1
		c3.8,12.3,3.7,12.3-6.6,19.9c-2.6,1.9-5.4,3.6-8.1,5.4c-6.6,4.4-13.4,8.5-19.6,13.4c-1.9,1.5-3.8,5.1-3.3,7.2
		c1.9,9.1,3.5,18.6,7.5,26.9c5.9,12,20.3,16.7,35.3,13.5c5.6-1.2,37.1-6.8,42.5-8.5c3.6-1.2,13.2,7,18,12.1
		c24.5,43.3,55.8,66.8,85.5,66.4l0,0c3.2,0.1,6.8-0.3,10.6-1.1c8.6-1.5,17-4.6,25-9.2c13.1-7.1,25.8-17.8,33.7-31.8l2.2-3.5
		c10.8-15.2,21.9-41,28-62.3c-0.5,22.3-7.7,52.7-9.5,75c-0.3,1.9-0.4,3.4-0.4,4.4c-0.7,8.6-1.5,17.3-2.1,25.9
		c-0.1,1.2-0.1,2.3-0.1,3.3h72C721.1,262.5,721,261.6,720.9,260.7z M845.3,64.4h15.8v34.2h-15.8V64.4z M845.3,192.3h15.8v34.2h-15.8
		V192.3z M813,178.7l12.6,19.2l-12.9,8.5L800,187.2L813,178.7z M428.1,145.5c-1,0.2-1.9,0.3-2.8,0.3c-4,0.2-7.2-2-8.2-5.8
		c-1.3-5,1.7-9.5,7.1-10.8c1.5-0.4,2.8-0.5,4.1-0.4c4.3-0.2,7.2,1.8,8.1,5.7C437.4,138.7,433.4,144.2,428.1,145.5z M685.2,226.5
		h-15.8v-34.2h15.8V226.5z M685.2,98.6h-15.8V64.4h15.8V98.6z M706.3,197.4l13.3-18.7l12.6,9L719,206.4L706.3,197.4z"/>
	<path class="st0" d="M428.2,128.7c-1.2-0.1-2.6,0.1-4.1,0.4c-5.4,1.3-8.3,5.8-7.1,10.8c1,3.8,4.2,6,8.2,5.8c0.9,0,1.9,0,2.8-0.3
		c5.2-1.2,9.3-6.7,8.2-11.1C435.4,130.5,432.5,128.5,428.2,128.7z"/>
	<rect x="669.3" y="192.3" class="st0" width="15.8" height="34.2"/>
	<rect x="845.3" y="192.3" class="st0" width="15.8" height="34.2"/>
	<rect x="845.3" y="64.4" class="st0" width="15.8" height="34.2"/>
	<rect x="669.3" y="64.4" class="st0" width="15.8" height="34.2"/>
	
		<rect x="707.8" y="184.8" transform="matrix(0.5783 -0.8158 0.8158 0.5783 146.2066 668.0095)" class="st1" width="22.9" height="15.5"/>
	
		<rect x="805" y="181" transform="matrix(0.8354 -0.5496 0.5496 0.8354 28.0199 478.3761)" class="st1" width="15.5" height="22.9"/>
</g>
<g>
	<path class="st0" d="M721.2,278.9h-72c-0.1,1,0,2,0.1,3.3c0.7,8.6,1.4,17.3,2.1,25.9c-0.1,0.9,0.1,2.5,0.4,4.4
		c1.9,22.2,9,52.7,9.5,75c-6.1-21.3-17.2-47-28-62.3l-2.2-3.5c-7.9-14-20.6-24.7-33.7-31.8c-8-4.6-16.4-7.7-25-9.2
		c-3.8-0.7-7.4-1.1-10.6-1.1l0,0c-29.7-0.4-61,23-85.5,66.4c-4.8,5-14.4,13.2-18,12.1c-5.4-1.8-36.9-7.3-42.5-8.5
		c-14.9-3.2-29.4,1.5-35.3,13.5c-4,8.2-5.6,17.8-7.5,26.9c-0.5,2.1,1.4,5.7,3.3,7.2c6.3,4.8,13,9,19.6,13.4c2.7,1.8,5.5,3.5,8.1,5.4
		c10.3,7.6,10.4,7.7,6.6,19.9c-0.6,2-2.8,4.2-4.8,5.1c-6.9,3.1-10.6,9.1-9.2,16c1,5.4,8.6,10.3,15.1,9.9s12.5-9,9-14.9
		c-4.6-8-0.3-13.8,1.8-21.1c4.6,2.3,8.9,4.1,12.8,6.6c1.2,0.8,2.1,3.5,1.8,5c-0.9,5-2.3,9.9-3.7,14.8c-0.3,1.1-1.4,2.5-2.4,2.9
		c-7.1,2.9-7.5,9.2-7.4,15.3c0.1,5.4,4.4,7.9,9,9.6c4.9,1.8,9.6,1.3,12.8-2.8c3.2-4.1,5.7-9.8,1.8-14c-8.2-8.8-2.5-16.7,0-25.3
		c5,1.7,9.8,3.1,14.5,4.9c-0.1,9.8,1.1,19.4,5.8,28.2c0.2,0.4,0.3,0.8,0.5,1.1c3.8,5.7,7.3,12.4,15.5,12.1c5.3-0.2,13-10,13.9-17.1
		c1.1-8.6,3.6-17.2,0.4-26c0,0-0.4-1.4-0.8-3.2c0.1-5.1-3.1-11.8-2.8-12.9c4.1-15.5,8.4-32.7,12.5-48.3c0.8-1.5,1.6-2.9,2.3-4.3
		c3.5-5.9,7.4-13.4,11.2-20.2c2.7-4.6,5.2-8.7,7.5-12.1c1.8-2.5,4.7-5.5,4.7-5.6c33.7-25.6,60.3,19.5,91.1,91.9
		c0.2,0.2,0.3,0.5,0.5,0.7c1.2,3,2.7,6.3,4.4,9.7c10.1,20.9,25.5,41.8,43.8,54.5c24,16.5,49.1,25.6,68.6,26.2
		c19.9,1.7,39.5-0.5,58.8-5.9c12.8-3.6,24.9-8.8,36.2-15.7c11.7-6.8,22.7-15.9,32.5-28c2.4,1,5.9,1.6,8.4,3.6
		c0.6,0.5,1.2,1.1,1.7,1.8c0.5,1,0.8,2,1.1,3c0.2,1-2.4,3.1-4.1,4.1c-5,2.9-8.2,10.3-6.6,15.8c0.1,0.5,0.3,0.9,0.6,1.4
		c0.1,0.8,0.2,1.6,0.4,2.4c1.6,5.4,7.6,6.9,12.4,4.6c6.1,2.2,10.7,4.3,15.5,5.2c0.7,0.1,2.4-5.2,4.2-9.2c-0.7,0.3-0.1,0,0.6-0.3
		c3.4-1.4,6.9-2.7,10.3-4c-2.3-3.4-4-7.9-7.2-10.1l0,0c-0.8-1.2-1.8-2.3-2.9-3c-0.7-0.5-1.3-1-1.9-1.5c-1.7-2.1-3.1-4.3-4.7-6.5
		c-3.1-4.2-6.8-8-10.6-11.7c-2.4-2.5-4.9-4.9-7.3-7.3c-0.3-0.4-0.7-0.7-1-1.1l0,0c-0.3-0.3-0.6-0.6-0.9-0.9c0.6-1.8,1.2-3.6,2.1-5.2
		c13.5-22.8,15.8-48.1,16.9-73.8c1.3-31.3,2.1-62.7-3.7-93.7c-0.7-3.9-1.2-6.2-2.1-7.6H816c0,8.5,0,16.4,0,24.2
		c0,12.9-6,27.8-11.3,40.3c-5.2,12.1-12.9,20.8-19.7,27c-4.3,3.9-14.5,6-18.3,5.2c0,0-1.7,0.2-2.5,0.2
		c-22.6-0.2-45.9-54.6-43.4-75.3c0.7-6,0-9.5-0.4-12.6c0.2-2.1,0.3-4.2,0.5-6.3C721.1,280.8,721.1,279.8,721.2,278.9z M845.3,443.8
		h15.8V478h-15.8V443.8z M845.3,315.9h15.8v34.2h-15.8V315.9z M800.1,355.2l12.6-19.2l12.9,8.5L813,363.7L800.1,355.2z M436.5,408
		c-0.9,3.8-3.9,5.9-8.1,5.7c-1.2,0.1-2.6-0.1-4.1-0.4c-5.4-1.3-8.3-5.8-7.1-10.8c1-3.8,4.2-6,8.2-5.8c0.9,0,1.9,0,2.8,0.3
		C433.5,398.1,437.5,403.6,436.5,408z M685.2,350.1h-15.8v-34.2h15.8V350.1z M685.2,478h-15.8v-34.2h15.8V478z M719.1,336l13.3,18.7
		l-12.6,9L706.4,345L719.1,336z"/>
	<path class="st0" d="M428.3,413.7c-1.2,0.1-2.6-0.1-4.1-0.4c-5.4-1.3-8.3-5.8-7.1-10.8c1-3.8,4.2-6,8.2-5.8c0.9,0,1.9,0,2.8,0.3
		c5.2,1.2,9.3,6.7,8.2,11.1C435.5,411.9,432.6,413.9,428.3,413.7z"/>
	<rect x="669.4" y="315.9" class="st0" width="15.8" height="34.2"/>
	<rect x="845.3" y="315.9" class="st0" width="15.8" height="34.2"/>
	<rect x="845.3" y="443.8" class="st0" width="15.8" height="34.2"/>
	<rect x="669.4" y="443.8" class="st0" width="15.8" height="34.2"/>
	
		<rect x="711.6" y="338.4" transform="matrix(0.8158 -0.5783 0.5783 0.8158 -69.8526 480.4422)" class="st1" width="15.5" height="22.9"/>
	
		<rect x="801.4" y="342.2" transform="matrix(0.5496 -0.8354 0.8354 0.5496 73.763 836.685)" class="st1" width="22.9" height="15.5"/>
</g>
</svg>
