<?xml version="1.0" encoding="utf-8"?>
<!-- Generator: Adobe Illustrator 24.2.3, SVG Export Plug-In . SVG Version: 6.00 Build 0)  -->
<svg version="1.1" id="Layer_1" xmlns="http://www.w3.org/2000/svg" xmlns:xlink="http://www.w3.org/1999/xlink" x="0px" y="0px"
	 viewBox="0 0 841.9 595.3" style="enable-background:new 0 0 841.9 595.3;" xml:space="preserve">
<style type="text/css">
	.st0{fill:none;stroke:#000000;stroke-width:0.7087;stroke-linecap:round;stroke-linejoin:round;stroke-miterlimit:10;}
</style>
<g id="_x30_">
	<g id="ARC_281_">
		<path class="st0" d="M1220.9-495.4c4.1-2.6,7.1-6.5,8.6-11.1"/>
	</g>
	<g id="ARC_282_">
		<path class="st0" d="M1546-668.5c-8.7-1.2-17.5,0.7-24.9,5.3"/>
	</g>
	<g id="ARC_283_">
		<path class="st0" d="M1559.7-663.5c-4.1-2.7-8.8-4.4-13.7-5"/>
	</g>
	<g id="ARC_284_">
		<path class="st0" d="M1569.3-656c-2.4-3.5-5.7-6.1-9.7-7.5"/>
	</g>
	<g id="ARC_285_">
		<path class="st0" d="M1575.5-641.2c-1.4-5.2-3.5-10.1-6.1-14.8"/>
	</g>
	<g id="ARC_286_">
		<path class="st0" d="M1576.4-635.9c0-1.8-0.4-3.6-0.9-5.3"/>
	</g>
	<g id="ARC_287_">
		<path class="st0" d="M1576.9-630.3c0.1-1.9-0.1-3.8-0.5-5.6"/>
	</g>
	<g id="ARC_288_">
		<path class="st0" d="M1576.9-630.3c-0.1,0.5-0.2,1.1-0.3,1.7"/>
	</g>
	<g id="ARC_289_">
		<path class="st0" d="M1573.2-625.3c1.8-0.2,3.1-1.6,3.4-3.4"/>
	</g>
	<g id="ARC_290_">
		<path class="st0" d="M1557.7-626.3c5.1,0.8,10.3,1.2,15.5,1"/>
	</g>
	<g id="ARC_291_">
		<path class="st0" d="M1557.7-626.3c-2.4,0-4.4,2-4.4,4.5c0,0.4,0,0.7,0.1,1.1"/>
	</g>
	<g id="ARC_292_">
		<path class="st0" d="M1553.4-620.8c1.9,10.3,7.4,19.6,15.6,26.1"/>
	</g>
	<g id="ARC_293_">
		<path class="st0" d="M1576.7-578.8c-0.5-6-3.2-11.7-7.7-15.8"/>
	</g>
	<g id="ARC_294_">
		<path class="st0" d="M1570-562c5.3-3.8,7.9-10.4,6.7-16.8"/>
	</g>
	<g id="ARC_295_">
		<path class="st0" d="M1554-555.2c5.7-1.2,11.2-3.5,16-6.8"/>
	</g>
	<g id="ARC_296_">
		<path class="st0" d="M1540.9-558.8c3.5,3.3,8.4,4.6,13,3.6"/>
	</g>
	<g id="ARC_297_">
		<path class="st0" d="M1538.5-565.4c-0.4,2.5,0.6,4.9,2.4,6.6"/>
	</g>
	<g id="ARC_298_">
		<path class="st0" d="M1538.5-565.4c2.1-17.1,3-34.4,2.4-51.7"/>
	</g>
	<g id="ARC_299_">
		<path class="st0" d="M1541-617.1c-2-7.7-6.4-14.7-12.4-19.9"/>
	</g>
	<g id="ARC_300_">
		<path class="st0" d="M1518.9-644.9c2.6,3.3,5.9,6,9.7,7.9"/>
	</g>
	<g id="ELLIPSE">
		<path class="st0" d="M10.2-519.6c36.6-2.7,64.5-37.3,62.8-77.7"/>
	</g>
	<g id="ELLIPSE_1_">
		<path class="st0" d="M-35.1-689c-27,3-47.7,32.3-47.7,67.3"/>
	</g>
	<g id="ELLIPSE_2_">
		<path class="st0" d="M142-686.7c-40,2.6-70.3,38.1-67.9,79.4c0.1,2.3,0.4,4.6,0.7,6.8"/>
	</g>
	<g id="ELLIPSE_3_">
		<path class="st0" d="M176.5-502.6c38.2-2.4,68-34.1,68-72.4"/>
	</g>
	<g id="ELLIPSE_4_">
		<path class="st0" d="M309.3-688.4c-39,2.3-68.6,34-66.1,70.8c0.1,1.8,0.3,3.5,0.6,5.2"/>
	</g>
	<g id="ELLIPSE_5_">
		<path class="st0" d="M346.2-520.4c35.6-2.2,63.2-29.8,63.2-63.1"/>
	</g>
	<g id="ELLIPSE_6_">
		<path class="st0" d="M467.3-688.4c-32.3,2.3-57.4,28.4-57.4,59.8"/>
	</g>
	<g id="ELLIPSE_7_">
		<path class="st0" d="M607.8-689.3c-29.2,2.5-50.8,28.4-48.3,57.8c0.2,2.1,0.5,4.1,0.9,6.2"/>
	</g>
	<g id="ELLIPSE_8_">
		<path class="st0" d="M530.7-533.8c23.1-2.8,39.8-26.6,37.5-53.2"/>
	</g>
	<g id="ELLIPSE_9_">
		<path class="st0" d="M326.3-645.6c-13.7,3.2-23.8,20.6-23.8,40.9"/>
	</g>
	<g id="ARC_301_">
		<path class="st0" d="M-82.8-621.7c-1.4,23.6,4.1,47.1,15.9,67.6"/>
	</g>
	<g id="ARC_302_">
		<path class="st0" d="M-66.9-554.1c1.8,2.8,5.6,3.5,8.4,1.7s3.5-5.6,1.7-8.4c-0.1-0.1-0.1-0.1-0.2-0.2"/>
	</g>
	<g id="ARC_303_">
		<path class="st0" d="M-56.3-661.8c-18.3,31-18.6,69.5-0.7,100.8"/>
	</g>
	<g id="ARC_304_">
		<path class="st0" d="M-35.1-661.8c-3.2-5.9-10.5-8-16.4-4.9c-2.1,1.1-3.7,2.8-4.9,4.9"/>
	</g>
	<g id="ELLIPSE_10_">
		<path class="st0" d="M-26.1-689c27,3,47.7,32.3,47.7,67.3"/>
	</g>
	<g id="ARC_305_">
		<path class="st0" d="M-4.8-661.8c-3.2-5.9-10.5-8-16.4-4.9c-2.1,1.1-3.7,2.8-4.9,4.9"/>
	</g>
	<g id="ARC_306_">
		<path class="st0" d="M-4.2-561c17.9-31.3,17.6-69.8-0.7-100.8"/>
	</g>
	<g id="ARC_307_">
		<path class="st0" d="M5.7-554.1c11.8-20.5,17.3-44,15.9-67.6"/>
	</g>
	<g id="ARC_308_">
		<path class="st0" d="M-4.2-561c-2,2.7-1.4,6.5,1.3,8.4c2.7,2,6.5,1.4,8.4-1.3c0.1-0.1,0.1-0.1,0.2-0.2"/>
	</g>
	<g id="LINE_37_">
		<line class="st0" x1="-26.1" y1="-689" x2="-26.1" y2="-676.7"/>
	</g>
	<g id="LINE_38_">
		<line class="st0" x1="-26.1" y1="-676.7" x2="-35.1" y2="-676.7"/>
	</g>
	<g id="LINE_39_">
		<line class="st0" x1="-35.1" y1="-676.7" x2="-35.1" y2="-689"/>
	</g>
	<g id="ARC_309_">
		<path class="st0" d="M-35.1-661.8c2,2.5,5.6,2.9,8.1,0.9c0.3-0.3,0.6-0.6,0.9-0.9"/>
	</g>
	<g id="ARC_310_">
		<path class="st0" d="M73.1-593.8c-0.2-23.4-5.7-46.5-15.9-67.6"/>
	</g>
	<g id="ARC_311_">
		<path class="st0" d="M57.2-661.4c-1.8-2.8-5.6-3.5-8.4-1.7s-3.5,5.6-1.7,8.4c0.1,0.1,0.1,0.1,0.2,0.2"/>
	</g>
	<g id="ARC_312_">
		<path class="st0" d="M37.6-549.5c23-30.3,26.8-71,9.7-105"/>
	</g>
	<g id="ARC_313_">
		<path class="st0" d="M10.2-549.5c7.3,7.6,19.4,7.8,27,0.5c0.2-0.2,0.3-0.3,0.5-0.5"/>
	</g>
	<g id="LINE_40_">
		<line class="st0" x1="10.2" y1="-519.6" x2="10.2" y2="-531.5"/>
	</g>
	<g id="LINE_41_">
		<line class="st0" x1="10.2" y1="-531.5" x2="5.7" y2="-531.5"/>
	</g>
	<g id="LINE_42_">
		<line class="st0" x1="1.2" y1="-531.5" x2="5.7" y2="-531.5"/>
	</g>
	<g id="LINE_43_">
		<line class="st0" x1="1.2" y1="-519.6" x2="1.2" y2="-531.5"/>
	</g>
	<g id="ELLIPSE_11_">
		<path class="st0" d="M1.2-519.6c-36.6-2.7-64.5-37.3-62.8-77.7"/>
	</g>
	<g id="ARC_314_">
		<path class="st0" d="M-26.2-549.5c7.3,7.6,19.4,7.8,27,0.5c0.2-0.2,0.3-0.3,0.5-0.5"/>
	</g>
	<g id="ARC_315_">
		<path class="st0" d="M-35.9-654.5c-17.1,34-13.3,74.8,9.7,105"/>
	</g>
	<g id="ARC_316_">
		<path class="st0" d="M-45.8-661.4c-10.2,21.1-15.6,44.2-15.9,67.6"/>
	</g>
	<g id="ARC_317_">
		<path class="st0" d="M-35.9-654.5c2-2.7,1.4-6.5-1.3-8.4c-2.7-2-6.5-1.4-8.4,1.3c-0.1,0.1-0.1,0.1-0.2,0.2"/>
	</g>
	<g id="ARC_318_">
		<path class="st0" d="M10.2-549.5c-1.8-2.5-5.2-3.1-7.7-1.3c-0.5,0.4-1,0.8-1.3,1.3"/>
	</g>
	<g id="ARC_319_">
		<path class="st0" d="M74-615.5c0.5,28.7,8.3,56.8,22.5,81.7"/>
	</g>
	<g id="ARC_320_">
		<path class="st0" d="M96.5-533.7c1.8,2.8,5.6,3.5,8.4,1.7s3.5-5.6,1.7-8.4c-0.1-0.1-0.1-0.1-0.2-0.2"/>
	</g>
	<g id="ARC_321_">
		<path class="st0" d="M91.7-612c-0.4,24.6,4.6,48.9,14.6,71.3"/>
	</g>
	<g id="ARC_322_">
		<path class="st0" d="M142-654.7c-9.5-7.5-22.9-7.5-32.4,0"/>
	</g>
	<g id="ARC_323_">
		<path class="st0" d="M109.6-654.7c-10.9,11.6-17.3,26.8-17.8,42.7"/>
	</g>
	<g id="LINE_44_">
		<line class="st0" x1="142" y1="-686.7" x2="142" y2="-674.2"/>
	</g>
	<g id="LINE_45_">
		<line class="st0" x1="142" y1="-674.2" x2="146.5" y2="-674.2"/>
	</g>
	<g id="LINE_46_">
		<line class="st0" x1="151" y1="-674.2" x2="146.5" y2="-674.2"/>
	</g>
	<g id="LINE_47_">
		<line class="st0" x1="151" y1="-686.7" x2="151" y2="-674.2"/>
	</g>
	<g id="ELLIPSE_12_">
		<path class="st0" d="M151-686.7c2.2,0.1,4.4,0.4,6.6,0.7c39.6,6.3,66.7,44.6,60.6,85.5"/>
	</g>
	<g id="ARC_324_">
		<path class="st0" d="M183.5-654.7c-9.5-7.5-22.9-7.5-32.4,0"/>
	</g>
	<g id="ARC_325_">
		<path class="st0" d="M201.3-612c-0.6-15.9-6.9-31.1-17.8-42.7"/>
	</g>
	<g id="ARC_326_">
		<path class="st0" d="M186.7-540.6c10-22.4,15-46.8,14.6-71.3"/>
	</g>
	<g id="ARC_327_">
		<path class="st0" d="M196.6-533.7c14.3-24.9,22-53,22.5-81.7"/>
	</g>
	<g id="ARC_328_">
		<path class="st0" d="M186.7-540.6c-2,2.7-1.4,6.5,1.3,8.4c2.7,2,6.5,1.4,8.4-1.3c0.1-0.1,0.1-0.1,0.2-0.2"/>
	</g>
	<g id="ARC_329_">
		<path class="st0" d="M142-654.7c2.5,2.4,6.5,2.4,9,0"/>
	</g>
	<g id="ARC_330_">
		<path class="st0" d="M244.5-575c0.7-25.2-5.1-50.2-17-72.5"/>
	</g>
	<g id="ARC_331_">
		<path class="st0" d="M202.7-533.4c27.5-29.8,33.2-73.9,14-109.6"/>
	</g>
	<g id="ARC_332_">
		<path class="st0" d="M227.6-647.6c-1.8-2.8-5.6-3.5-8.3-1.7c-2,1.3-3,3.8-2.6,6.2"/>
	</g>
	<g id="ARC_333_">
		<path class="st0" d="M176.5-533.4c7.8,5.5,18.3,5.5,26.2,0"/>
	</g>
	<g id="LINE_48_">
		<line class="st0" x1="172" y1="-514.5" x2="176.5" y2="-514.5"/>
	</g>
	<g id="LINE_49_">
		<line class="st0" x1="176.5" y1="-514.5" x2="176.5" y2="-502.6"/>
	</g>
	<g id="ARC_334_">
		<path class="st0" d="M176.5-533.4c-2.5-2.3-6.4-2.3-9,0"/>
	</g>
	<g id="ARC_335_">
		<path class="st0" d="M141.3-533.4c7.8,5.5,18.3,5.5,26.2,0"/>
	</g>
	<g id="LINE_50_">
		<line class="st0" x1="172" y1="-514.5" x2="167.5" y2="-514.5"/>
	</g>
	<g id="LINE_51_">
		<line class="st0" x1="167.5" y1="-514.5" x2="167.5" y2="-502.6"/>
	</g>
	<g id="ELLIPSE_13_">
		<path class="st0" d="M167.5-502.6c-38.2-2.4-68-34.1-68-72.4"/>
	</g>
	<g id="ARC_336_">
		<path class="st0" d="M127.3-643.1c-19.2,35.8-13.6,79.8,14,109.6"/>
	</g>
	<g id="ARC_337_">
		<path class="st0" d="M127.3-643.1c0.7-3.3-1.5-6.4-4.7-7.1c-2.4-0.5-4.8,0.5-6.2,2.6"/>
	</g>
	<g id="ARC_338_">
		<path class="st0" d="M116.5-647.6c-11.9,22.3-17.7,47.3-17,72.5"/>
	</g>
	<g id="ARC_339_">
		<path class="st0" d="M243-621.8c1.1,23.2,7,45.9,17.4,66.7"/>
	</g>
	<g id="ARC_340_">
		<path class="st0" d="M260.4-555.1c1.8,2.8,5.6,3.5,8.3,1.7c2-1.3,3-3.8,2.6-6.2"/>
	</g>
	<g id="ARC_341_">
		<path class="st0" d="M260.5-628.2c-3.9,23.4-0.1,47.5,10.9,68.6"/>
	</g>
	<g id="ARC_342_">
		<path class="st0" d="M280.6-657.2c-10.3,6.6-17.5,17-20.1,29"/>
	</g>
	<g id="ARC_343_">
		<path class="st0" d="M309.3-657.2c-8.8-5.2-19.9-5.2-28.7,0"/>
	</g>
	<g id="ARC_344_">
		<path class="st0" d="M309.3-657.2c2.7,1.9,6.3,1.9,9,0"/>
	</g>
	<g id="LINE_54_">
		<line class="st0" x1="309.3" y1="-688.4" x2="309.3" y2="-676.5"/>
	</g>
	<g id="LINE_55_">
		<line class="st0" x1="309.3" y1="-676.5" x2="318.3" y2="-676.5"/>
	</g>
	<g id="LINE_56_">
		<line class="st0" x1="318.3" y1="-688.4" x2="318.3" y2="-676.5"/>
	</g>
	<g id="ARC_345_">
		<path class="st0" d="M347-657.2c-8.8-5.2-19.9-5.2-28.7,0"/>
	</g>
	<g id="ELLIPSE_14_">
		<path class="st0" d="M318.3-688.4c1.9,0.1,3.7,0.3,5.6,0.5c38.7,5.2,65.6,39,60,75.5"/>
	</g>
	<g id="ARC_346_">
		<path class="st0" d="M367.1-628.2c-2.6-12-9.8-22.4-20.1-29"/>
	</g>
	<g id="ARC_347_">
		<path class="st0" d="M356.2-559.6c11-21.1,14.8-45.2,10.9-68.6"/>
	</g>
	<g id="ARC_348_">
		<path class="st0" d="M367.1-555.1c10.4-20.8,16.3-43.5,17.4-66.7"/>
	</g>
	<g id="ARC_349_">
		<path class="st0" d="M356.2-559.6c-0.7,3.3,1.5,6.4,4.7,7.1c2.4,0.5,4.8-0.5,6.2-2.6"/>
	</g>
	<g id="ARC_350_">
		<path class="st0" d="M409.4-583.5c0-22.1-5.6-43.9-16.4-63.2"/>
	</g>
	<g id="LINE_57_">
		<line class="st0" x1="341.7" y1="-532" x2="346.2" y2="-532"/>
	</g>
	<g id="ARC_351_">
		<path class="st0" d="M393-646.7c-1.8-2.8-5.6-3.5-8.3-1.7c-2,1.3-3,3.8-2.6,6.2"/>
	</g>
	<g id="ARC_352_">
		<path class="st0" d="M392.5-583.5c1.8-20.2-1.8-40.4-10.4-58.7"/>
	</g>
	<g id="ARC_353_">
		<path class="st0" d="M376.9-553.1c8.5-8.1,14-18.8,15.6-30.4"/>
	</g>
	<g id="ARC_354_">
		<path class="st0" d="M346.2-553.1c9.1,6.7,21.6,6.7,30.8,0"/>
	</g>
	<g id="ARC_355_">
		<path class="st0" d="M346.2-553.1c-2.5-2.4-6.5-2.4-9,0"/>
	</g>
	<g id="LINE_58_">
		<line class="st0" x1="346.2" y1="-520.4" x2="346.2" y2="-532"/>
	</g>
	<g id="ELLIPSE_15_">
		<path class="st0" d="M337.2-520.4c-35.6-2.2-63.2-29.8-63.2-63.1"/>
	</g>
	<g id="LINE_59_">
		<line class="st0" x1="337.2" y1="-520.4" x2="337.2" y2="-532"/>
	</g>
	<g id="LINE_60_">
		<line class="st0" x1="341.7" y1="-532" x2="337.2" y2="-532"/>
	</g>
	<g id="ARC_356_">
		<path class="st0" d="M306.4-553.1c9.1,6.7,21.6,6.7,30.8,0"/>
	</g>
	<g id="ARC_357_">
		<path class="st0" d="M290.8-583.5c1.6,11.6,7.1,22.3,15.6,30.4"/>
	</g>
	<g id="ARC_358_">
		<path class="st0" d="M290.3-646.7c-10.7,19.4-16.4,41.1-16.4,63.2"/>
	</g>
	<g id="ARC_359_">
		<path class="st0" d="M301.2-642.2c-8.6,18.3-12.2,38.6-10.4,58.7"/>
	</g>
	<g id="ARC_360_">
		<path class="st0" d="M301.2-642.2c0.7-3.3-1.5-6.4-4.7-7.1c-2.4-0.5-4.8,0.5-6.2,2.6"/>
	</g>
	<g id="ARC_361_">
		<path class="st0" d="M409.9-628.6c-0.1,21.1,5.6,41.9,16.4,60"/>
	</g>
	<g id="ARC_362_">
		<path class="st0" d="M426.3-568.6c1.8,2.8,5.6,3.5,8.3,1.7c2-1.3,3-3.8,2.6-6.2"/>
	</g>
	<g id="ARC_363_">
		<path class="st0" d="M427.9-628.6c-2.2,19,1,38.2,9.3,55.5"/>
	</g>
	<g id="ARC_364_">
		<path class="st0" d="M440.6-656c-7.3,7.3-11.8,17-12.7,27.4"/>
	</g>
	<g id="ARC_365_">
		<path class="st0" d="M467.3-656c-7.9-5.9-18.8-5.9-26.7,0"/>
	</g>
	<g id="ARC_366_">
		<path class="st0" d="M467.3-656c2.6,2.3,6.4,2.3,9,0"/>
	</g>
	<g id="LINE_61_">
		<line class="st0" x1="471.8" y1="-676" x2="467.3" y2="-676"/>
	</g>
	<g id="LINE_62_">
		<line class="st0" x1="467.3" y1="-676" x2="467.3" y2="-688.4"/>
	</g>
	<g id="LINE_63_">
		<line class="st0" x1="471.8" y1="-676" x2="476.3" y2="-676"/>
	</g>
	<g id="LINE_64_">
		<line class="st0" x1="476.3" y1="-676" x2="476.3" y2="-688.4"/>
	</g>
	<g id="ELLIPSE_16_">
		<path class="st0" d="M476.3-688.4c32.3,2.3,57.4,28.4,57.4,59.8"/>
	</g>
	<g id="ARC_367_">
		<path class="st0" d="M503-656c-7.9-5.9-18.8-5.9-26.7,0"/>
	</g>
	<g id="ARC_368_">
		<path class="st0" d="M515.6-628.6c-0.9-10.3-5.4-20-12.7-27.4"/>
	</g>
	<g id="ARC_369_">
		<path class="st0" d="M517.2-568.6c10.8-18.1,16.5-38.9,16.4-60"/>
	</g>
	<g id="ARC_370_">
		<path class="st0" d="M506.3-573.1c8.3-17.2,11.6-36.5,9.3-55.5"/>
	</g>
	<g id="ARC_371_">
		<path class="st0" d="M506.3-573.1c-0.7,3.3,1.5,6.4,4.7,7.1c2.4,0.5,4.8-0.5,6.2-2.6"/>
	</g>
	<g id="ARC_372_">
		<path class="st0" d="M559.3-636c0.9,19.1,7.1,37.6,17.8,53.5"/>
	</g>
	<g id="ARC_373_">
		<path class="st0" d="M577.1-582.5c1.8,2.8,5.6,3.5,8.3,1.7c2-1.3,3-3.8,2.6-6.2"/>
	</g>
	<g id="LINE_65_">
		<line class="st0" x1="612.2" y1="-677.3" x2="607.8" y2="-677.3"/>
	</g>
	<g id="LINE_66_">
		<line class="st0" x1="607.8" y1="-677.3" x2="607.8" y2="-689.3"/>
	</g>
	<g id="ARC_374_">
		<path class="st0" d="M577-647.3c-4.4,20.7-0.5,42.4,10.9,60.2"/>
	</g>
	<g id="ARC_375_">
		<path class="st0" d="M584.9-658.6c-3.9,2.7-6.7,6.8-7.9,11.4"/>
	</g>
	<g id="ARC_376_">
		<path class="st0" d="M607.8-658.6c-7.1-4.1-15.8-4.1-22.9,0"/>
	</g>
	<g id="ARC_377_">
		<path class="st0" d="M607.8-658.6c2.6,2.2,6.4,2.2,9,0"/>
	</g>
	<g id="ARC_378_">
		<path class="st0" d="M636.5-587c-0.7,3.3,1.5,6.4,4.7,7.1c2.4,0.5,4.8-0.5,6.2-2.6"/>
	</g>
	<g id="ARC_379_">
		<path class="st0" d="M636.5-587c11.4-17.8,15.4-39.5,10.9-60.2"/>
	</g>
	<g id="ARC_380_">
		<path class="st0" d="M647.4-582.5c10.7-15.9,16.9-34.4,17.8-53.5"/>
	</g>
	<g id="ELLIPSE_17_">
		<path class="st0" d="M616.7-689.3c2.1,0.2,4.1,0.5,6.1,0.9c28.7,5.9,47.2,34.2,41.3,63.1"/>
	</g>
	<g id="ARC_381_">
		<path class="st0" d="M647.5-647.3c-1.2-4.6-4-8.7-7.9-11.4"/>
	</g>
	<g id="ARC_382_">
		<path class="st0" d="M639.6-658.6c-7.1-4.1-15.8-4.1-22.9,0"/>
	</g>
	<g id="LINE_67_">
		<line class="st0" x1="616.7" y1="-677.3" x2="616.7" y2="-689.3"/>
	</g>
	<g id="LINE_68_">
		<line class="st0" x1="612.2" y1="-677.3" x2="616.7" y2="-677.3"/>
	</g>
	<g id="LINE_69_">
		<line class="st0" x1="526.2" y1="-546.3" x2="530.7" y2="-546.3"/>
	</g>
	<g id="LINE_70_">
		<line class="st0" x1="530.7" y1="-546.3" x2="530.7" y2="-533.8"/>
	</g>
	<g id="ARC_383_">
		<path class="st0" d="M568.4-582.1c-0.1-18.3-7.6-35.8-20.8-48.6"/>
	</g>
	<g id="ARC_384_">
		<path class="st0" d="M547.7-630.7c-2.2-2.1-5.7-2-7.8,0.2c-1.6,1.7-2,4.3-0.9,6.4"/>
	</g>
	<g id="ARC_385_">
		<path class="st0" d="M553.9-583c0.8-15.1-4.6-29.9-14.9-41"/>
	</g>
	<g id="ARC_386_">
		<path class="st0" d="M542.6-564.4c6.6-4,10.8-11,11.3-18.7"/>
	</g>
	<g id="ARC_387_">
		<path class="st0" d="M530.7-564.4c3.7,2,8.2,2,11.9,0"/>
	</g>
	<g id="ARC_388_">
		<path class="st0" d="M530.7-564.4c-2.8-1.7-6.2-1.7-9,0"/>
	</g>
	<g id="ARC_389_">
		<path class="st0" d="M513.4-624.1c1.4-2.7,0.4-6-2.3-7.4c-2.1-1.1-4.7-0.8-6.4,0.9"/>
	</g>
	<g id="ARC_390_">
		<path class="st0" d="M513.4-624.1c-10.3,11.1-15.7,25.9-14.9,41"/>
	</g>
	<g id="ARC_391_">
		<path class="st0" d="M504.8-630.7c-13.1,12.8-20.6,30.3-20.8,48.6"/>
	</g>
	<g id="ARC_392_">
		<path class="st0" d="M498.6-583c0.5,7.7,4.7,14.7,11.3,18.7"/>
	</g>
	<g id="ARC_393_">
		<path class="st0" d="M509.9-564.4c3.7,2,8.2,2,11.9,0"/>
	</g>
	<g id="ELLIPSE_18_">
		<path class="st0" d="M521.7-533.8c-23.1-2.8-39.8-26.6-37.5-53.2"/>
	</g>
	<g id="LINE_71_">
		<line class="st0" x1="521.7" y1="-546.3" x2="521.7" y2="-533.8"/>
	</g>
	<g id="LINE_72_">
		<line class="st0" x1="526.2" y1="-546.3" x2="521.7" y2="-546.3"/>
	</g>
	<g id="LINE_73_">
		<line class="st0" x1="330.8" y1="-633" x2="326.3" y2="-633"/>
	</g>
	<g id="LINE_74_">
		<line class="st0" x1="326.3" y1="-633" x2="326.3" y2="-645.6"/>
	</g>
	<g id="ARC_394_">
		<path class="st0" d="M302.5-604.7c-0.2,15.1,4.9,29.7,14.3,41.4"/>
	</g>
	<g id="ARC_395_">
		<path class="st0" d="M316.9-563.2c2.2,2.1,5.7,2,7.8-0.2c1.6-1.7,2-4.3,0.9-6.4"/>
	</g>
	<g id="ARC_396_">
		<path class="st0" d="M316.7-606.9c-1.9,13,1.2,26.3,8.9,37.1"/>
	</g>
	<g id="ARC_397_">
		<path class="st0" d="M322.3-615.6c-2.8,2.1-4.8,5.2-5.7,8.7"/>
	</g>
	<g id="ARC_398_">
		<path class="st0" d="M326.3-615.6c2.9,0.8,6,0.8,9,0"/>
	</g>
	<g id="ARC_399_">
		<path class="st0" d="M326.3-615.6c-1.2-0.8-2.8-0.8-4,0"/>
	</g>
	<g id="ARC_400_">
		<path class="st0" d="M339.3-615.6c-1.2-0.8-2.8-0.8-4,0"/>
	</g>
	<g id="ARC_401_">
		<path class="st0" d="M345-606.9c-0.8-3.4-2.8-6.5-5.7-8.7"/>
	</g>
	<g id="ARC_402_">
		<path class="st0" d="M336.1-569.8c7.6-10.8,10.8-24,8.9-37.1"/>
	</g>
	<g id="ARC_403_">
		<path class="st0" d="M336.1-569.8c-1.4,2.7-0.4,6,2.3,7.4c2.1,1.1,4.7,0.8,6.4-0.9"/>
	</g>
	<g id="ARC_404_">
		<path class="st0" d="M344.7-563.2c9.5-11.7,14.6-26.4,14.3-41.4"/>
	</g>
	<g id="ELLIPSE_19_">
		<path class="st0" d="M335.3-645.6c13.7,3.2,23.8,20.6,23.8,40.9"/>
	</g>
	<g id="LINE_75_">
		<line class="st0" x1="335.3" y1="-633" x2="335.3" y2="-645.6"/>
	</g>
	<g id="LINE_76_">
		<line class="st0" x1="330.8" y1="-633" x2="335.3" y2="-633"/>
	</g>
	<g id="ARC_424_">
		<path class="st0" d="M1229.6-518.5c-0.3-4.2-2.3-8-5.7-10.6"/>
	</g>
	<g id="ARC_425_">
		<path class="st0" d="M1182.2-553.9c11.4,11.9,25.8,20.5,41.7,24.9"/>
	</g>
	<g id="ARC_426_">
		<path class="st0" d="M1182.2-553.9c-12.6-10.1-25.9-19.4-39.7-27.8"/>
	</g>
	<g id="ARC_427_">
		<path class="st0" d="M1196.5-513.4c-7.5-11.3-18-20.2-30.4-25.8"/>
	</g>
	<g id="ARC_428_">
		<path class="st0" d="M1166.1-539.2c-8.3-4.5-17.5-7.2-27-7.8"/>
	</g>
	<g id="ARC_429_">
		<path class="st0" d="M1135.3-557.7c0.2,3.9,1.6,7.6,3.8,10.8"/>
	</g>
	<g id="ARC_430_">
		<path class="st0" d="M1142.5-581.7c-2.9-0.8-6,1-6.7,4c-0.2,0.7-0.2,1.5-0.1,2.2"/>
	</g>
	<g id="ARC_431_">
		<path class="st0" d="M1135.7-575.5c-0.5-3-3.4-5-6.3-4.4c-0.5,0.1-1,0.2-1.4,0.4"/>
	</g>
	<g id="ARC_432_">
		<path class="st0" d="M1130.9-550.8c2.9-1,4.7-3.9,4.4-6.9"/>
	</g>
	<g id="ARC_433_">
		<path class="st0" d="M1130.9-550.8c-7.4-4.9-15.4-8.7-23.9-11.4"/>
	</g>
	<g id="ARC_434_">
		<path class="st0" d="M1082.6-580.4c15,2.6,30.3,2.9,45.4,0.9"/>
	</g>
	<g id="ARC_435_">
		<path class="st0" d="M1082.6-580.4c-8.4-3.5-17.3-5.8-26.4-6.9"/>
	</g>
	<g id="ARC_436_">
		<path class="st0" d="M1107-562.2c-17.4-4.4-35.6-5.1-53.3-2.1"/>
	</g>
	<g id="ARC_437_">
		<path class="st0" d="M1053.7-585.8c-2.6-0.6-5.3-0.7-7.9-0.3"/>
	</g>
	<g id="ARC_438_">
		<path class="st0" d="M1042.3-567.2c2.6,1.9,5.9,2.4,8.9,1.4"/>
	</g>
	<g id="ARC_439_">
		<path class="st0" d="M1041.5-566.8c-10.7-2.6-21.8-2.9-32.6-0.9"/>
	</g>
	<g id="ARC_440_">
		<path class="st0" d="M1044.7-588.4c-11-3.9-22.6-5.8-34.3-5.7"/>
	</g>
	<g id="LINE_84_">
		<line class="st0" x1="1229.5" y1="-506.4" x2="1215.4" y2="-507.5"/>
	</g>
	<g id="LINE_85_">
		<line class="st0" x1="1215.4" y1="-507.5" x2="1216.1" y2="-516.5"/>
	</g>
	<g id="LINE_86_">
		<line class="st0" x1="1216.1" y1="-516.5" x2="1230.3" y2="-515.4"/>
	</g>
	<g id="ARC_441_">
		<path class="st0" d="M1196.5-513.4c3.6,7.2,9,13.2,15.6,17.6"/>
	</g>
	<g id="ARC_442_">
		<path class="st0" d="M1212.1-495.8c2.7,1.4,6,1.6,8.8,0.4"/>
	</g>
	<g id="ARC_443_">
		<path class="st0" d="M1230.3-515.4c-0.1-1.1-0.4-2.1-0.7-3.1"/>
	</g>
	<g id="LINE_87_">
		<line class="st0" x1="1518.6" y1="-660.4" x2="1551.5" y2="-657.1"/>
	</g>
	<g id="LINE_88_">
		<line class="st0" x1="1516.3" y1="-651.6" x2="1550.6" y2="-648.1"/>
	</g>
	<g id="ARC_444_">
		<path class="st0" d="M1521.1-663.2c-1,0.8-1.8,1.8-2.5,2.8"/>
	</g>
	<g id="ARC_445_">
		<path class="st0" d="M1516.3-651.6c0.2,2.4,1.1,4.8,2.6,6.8"/>
	</g>
	<g id="LINE_89_">
		<line class="st0" x1="1551.5" y1="-657.1" x2="1550.6" y2="-648.1"/>
	</g>
	<g id="ARC_446_">
		<path class="st0" d="M1010.3-594.1c-1.5-0.1-2.9,1.1-2.9,2.7c-0.1,1.1,0.5,2.1,1.5,2.6"/>
	</g>
	<g id="ARC_447_">
		<path class="st0" d="M1008.8-588.9c-2.2-0.2-4.3,0.6-5.9,2.1"/>
	</g>
	<g id="ARC_448_">
		<path class="st0" d="M1002.7-584c1.1,1.2,2.5,2.1,4,2.5"/>
	</g>
	<g id="ARC_449_">
		<path class="st0" d="M1006.7-581.5c-1.5-0.2-3,0.1-4.3,1"/>
	</g>
	<g id="ARC_450_">
		<path class="st0" d="M1002.2-577.2c0.8,0.7,1.9,1,2.9,1"/>
	</g>
	<g id="ARC_451_">
		<path class="st0" d="M1005.1-576.1c-1.2,0.6-2.2,1.3-3.2,2.2"/>
	</g>
	<g id="ARC_452_">
		<path class="st0" d="M1001.7-570.8c1.5,1.2,3.6,1.4,5.3,0.6"/>
	</g>
	<g id="ARC_453_">
		<path class="st0" d="M1007-570.2c-1,0.5-1.5,1.5-1.3,2.6"/>
	</g>
	<g id="ARC_454_">
		<path class="st0" d="M1005.7-567.6c1,0.4,2.2,0.4,3.2-0.1"/>
	</g>
	<g id="LINE_90_">
		<line class="st0" x1="1003" y1="-586.8" x2="1002.7" y2="-584"/>
	</g>
	<g id="LINE_91_">
		<line class="st0" x1="1002.5" y1="-580.5" x2="1002.2" y2="-577.2"/>
	</g>
	<g id="LINE_92_">
		<line class="st0" x1="1001.9" y1="-573.9" x2="1001.7" y2="-570.8"/>
	</g>
	<g id="ARC_455_">
		<path class="st0" d="M1032.2-669.4c10.9,0.8,21.9,0.3,32.7-1.5"/>
	</g>
	<g id="ARC_456_">
		<path class="st0" d="M1112.4-657.3c-16.2-1.5-32.6,0.1-48.2,4.6"/>
	</g>
	<g id="ARC_457_">
		<path class="st0" d="M1051.2-647.3c4.4-1.6,8.8-3.4,13-5.4"/>
	</g>
	<g id="ARC_458_">
		<path class="st0" d="M1032.1-644.8c6.5,1.4,13.2,0.6,19.1-2.5"/>
	</g>
	<g id="ARC_459_">
		<path class="st0" d="M1029.7-668.6c0,0.1-0.1,0.1-0.1,0.2"/>
	</g>
	<g id="ARC_460_">
		<path class="st0" d="M1064.9-670.9c16.4-3.1,32.4-8.3,47.4-15.5"/>
	</g>
	<g id="ARC_461_">
		<path class="st0" d="M1127.5-655.8c-5-0.7-10-1.2-15-1.6"/>
	</g>
	<g id="ARC_462_">
		<path class="st0" d="M1127.5-655.8c3,0.3,5.8-1.6,6.6-4.6"/>
	</g>
	<g id="ARC_463_">
		<path class="st0" d="M1134-660.3c0.3-1.4,0.5-2.7,0.5-4.1"/>
	</g>
	<g id="ARC_464_">
		<path class="st0" d="M1124.7-685.9c-3.8-2-8.4-2.2-12.3-0.5"/>
	</g>
	<g id="ARC_465_">
		<path class="st0" d="M1132.3-674.2c-0.7-4.8-3.5-9.1-7.6-11.6"/>
	</g>
	<g id="LINE_93_">
		<line class="st0" x1="1132.5" y1="-673.7" x2="1119.2" y2="-675"/>
	</g>
	<g id="LINE_94_">
		<line class="st0" x1="1119.2" y1="-675" x2="1118.3" y2="-666"/>
	</g>
	<g id="LINE_95_">
		<line class="st0" x1="1118.3" y1="-666" x2="1134.5" y2="-664.5"/>
	</g>
	<g id="ARC_467_">
		<path class="st0" d="M1032.2-669.4c-0.9-0.2-1.9,0.1-2.5,0.8"/>
	</g>
	<g id="ARC_468_">
		<path class="st0" d="M1028.7-648.3c0.4,1.7,1.8,3,3.5,3.5"/>
	</g>
	<g id="ARC_469_">
		<path class="st0" d="M1029.6-668.4c-0.8-1.1-2-1.7-3.3-1.8"/>
	</g>
	<g id="ARC_470_">
		<path class="st0" d="M1023.8-644.1c2.1-0.7,3.8-2.2,4.8-4.2"/>
	</g>
	<g id="ARC_471_">
		<path class="st0" d="M1019.1-644.5c1.5,0.5,3.2,0.6,4.8,0.4"/>
	</g>
	<g id="ARC_472_">
		<path class="st0" d="M1019.1-644.5c-21.5-6.5-43.6-11.1-65.9-13.8"/>
	</g>
	<g id="ARC_473_">
		<path class="st0" d="M1026.3-670.1c-1.3-0.2-2.7-0.1-4,0.3"/>
	</g>
	<g id="ARC_474_">
		<path class="st0" d="M1009.4-667.9c4.4,0.6,8.9-0.1,12.9-1.9"/>
	</g>
	<g id="ARC_475_">
		<path class="st0" d="M952.4-676.8c18.6,5.2,37.7,8.2,57,9"/>
	</g>
	<g id="ARC_476_">
		<path class="st0" d="M952.4-676.8c-0.6-0.3-1.4-0.2-2,0.2"/>
	</g>
	<g id="ARC_477_">
		<path class="st0" d="M947.2-661.1c1.6,1.6,3.7,2.6,5.9,2.9"/>
	</g>
	<g id="ARC_478_">
		<path class="st0" d="M950.5-676.7c-1.6-1.6-4-2-6-0.9"/>
	</g>
	<g id="ARC_479_">
		<path class="st0" d="M940.9-662.2c1.8,1.4,4.2,1.8,6.3,1.1"/>
	</g>
	<g id="ARC_480_">
		<path class="st0" d="M940.6-661.3c0.1-0.3,0.2-0.6,0.3-0.9"/>
	</g>
	<g id="ARC_481_">
		<path class="st0" d="M938.9-660.1c-10.8-1.8-21.9-2-32.7-0.5"/>
	</g>
	<g id="ARC_482_">
		<path class="st0" d="M943.5-680c-11.2-4.5-23.2-6.9-35.3-7"/>
	</g>
	<g id="ARC_483_">
		<path class="st0" d="M908.2-686.9c-1.5-0.1-2.9,1.1-3,2.6c-0.1,1.1,0.5,2.1,1.4,2.6"/>
	</g>
	<g id="ARC_484_">
		<path class="st0" d="M906.6-681.7c-2.2-0.2-4.3,0.5-5.9,2"/>
	</g>
	<g id="ARC_485_">
		<path class="st0" d="M900.4-677c1.1,1.2,2.4,2.1,3.9,2.6"/>
	</g>
	<g id="ARC_486_">
		<path class="st0" d="M904.3-674.4c-1.5-0.2-3,0.1-4.3,0.9"/>
	</g>
	<g id="ARC_487_">
		<path class="st0" d="M899.7-670.2c0.8,0.7,1.8,1.1,2.9,1.1"/>
	</g>
	<g id="ARC_488_">
		<path class="st0" d="M902.6-669.1c-1.2,0.6-2.3,1.3-3.2,2.2"/>
	</g>
	<g id="ARC_489_">
		<path class="st0" d="M899.1-663.8c1.5,1.2,3.5,1.5,5.3,0.7"/>
	</g>
	<g id="ARC_490_">
		<path class="st0" d="M904.4-663.1c-1,0.4-1.5,1.5-1.3,2.5"/>
	</g>
	<g id="ARC_491_">
		<path class="st0" d="M903-660.6c1,0.4,2.2,0.4,3.2,0"/>
	</g>
	<g id="LINE_96_">
		<line class="st0" x1="900.7" y1="-679.8" x2="900.4" y2="-677"/>
	</g>
	<g id="LINE_97_">
		<line class="st0" x1="900.1" y1="-673.5" x2="899.7" y2="-670.2"/>
	</g>
	<g id="LINE_98_">
		<line class="st0" x1="899.4" y1="-666.9" x2="899.1" y2="-663.8"/>
	</g>
	<g id="ARC_492_">
		<path class="st0" d="M944.6-678.4c0-0.7-0.5-1.3-1.1-1.5"/>
	</g>
	<g id="ARC_493_">
		<path class="st0" d="M938.9-660.1c0.8,0,1.5-0.5,1.7-1.3"/>
	</g>
	<g id="ARC_494_">
		<path class="st0" d="M944.5-677.5c0-0.3,0.1-0.6,0.1-0.9"/>
	</g>
	<g id="ARC_495_">
		<path class="st0" d="M1051.3-565.8c0.2,1,1.1,1.7,2.2,1.5c0.1,0,0.1,0,0.2,0"/>
	</g>
	<g id="ARC_496_">
		<path class="st0" d="M1056.2-587.3c-1.1-0.1-2.1,0.6-2.5,1.6"/>
	</g>
	<g id="ARC_497_">
		<path class="st0" d="M1045.8-586.1c0.2-0.9-0.3-1.9-1.1-2.3"/>
	</g>
	<g id="ARC_498_">
		<path class="st0" d="M1041.5-566.8c0.3,0.1,0.7-0.1,0.9-0.3"/>
	</g>
	<g id="LINE_99_">
		<line class="st0" x1="-19.9" y1="-599.7" x2="-10.9" y2="-599.7"/>
	</g>
	<g id="LINE_100_">
		<line class="st0" x1="-10.9" y1="-599.7" x2="-10.9" y2="-568.5"/>
	</g>
	<g id="LINE_101_">
		<line class="st0" x1="-19.9" y1="-599.7" x2="-19.9" y2="-568.5"/>
	</g>
	<g id="LINE_102_">
		<line class="st0" x1="-19.9" y1="-625" x2="-10.9" y2="-625"/>
	</g>
	<g id="LINE_103_">
		<line class="st0" x1="-10.9" y1="-625" x2="-10.9" y2="-656.2"/>
	</g>
	<g id="LINE_104_">
		<line class="st0" x1="-19.9" y1="-625" x2="-19.9" y2="-656.2"/>
	</g>
	<g id="ARC_499_">
		<path class="st0" d="M-0.6-633.1c0.1-8.8-3.7-17.3-10.3-23.1"/>
	</g>
	<g id="ARC_500_">
		<path class="st0" d="M-0.6-633.1c0.1,5.2,1,10.4,2.6,15.3"/>
	</g>
	<g id="ARC_501_">
		<path class="st0" d="M3.2-612.4c0-1.9-0.4-3.7-1.1-5.4"/>
	</g>
	<g id="ARC_502_">
		<path class="st0" d="M-19.9-656.2c-6.6,5.9-10.4,14.3-10.3,23.1"/>
	</g>
	<g id="ARC_503_">
		<path class="st0" d="M-32.8-617.8c1.6-5,2.5-10.1,2.6-15.3"/>
	</g>
	<g id="ARC_504_">
		<path class="st0" d="M-32.8-617.8c-0.7,1.7-1.1,3.5-1.1,5.4"/>
	</g>
	<g id="ARC_505_">
		<path class="st0" d="M-30.2-591.6c-0.1,8.8,3.7,17.3,10.3,23.1"/>
	</g>
	<g id="ARC_506_">
		<path class="st0" d="M-30.2-591.6c-0.1-5.2-1-10.4-2.6-15.3"/>
	</g>
	<g id="ARC_507_">
		<path class="st0" d="M-33.9-612.4c0,1.9,0.4,3.7,1.1,5.4"/>
	</g>
	<g id="ARC_508_">
		<path class="st0" d="M-10.9-568.5c6.6-5.9,10.4-14.3,10.3-23.1"/>
	</g>
	<g id="ARC_509_">
		<path class="st0" d="M2.1-607c-1.6,5-2.5,10.1-2.6,15.3"/>
	</g>
	<g id="ARC_510_">
		<path class="st0" d="M2.1-607c0.7-1.7,1.1-3.5,1.1-5.4"/>
	</g>
	<g id="LINE_110_">
		<line class="st0" x1="454" y1="-588.7" x2="463" y2="-588.7"/>
	</g>
	<g id="LINE_111_">
		<line class="st0" x1="463" y1="-588.7" x2="463" y2="-557.5"/>
	</g>
	<g id="LINE_112_">
		<line class="st0" x1="454" y1="-588.7" x2="454" y2="-557.5"/>
	</g>
	<g id="LINE_113_">
		<line class="st0" x1="454" y1="-614" x2="463" y2="-614"/>
	</g>
	<g id="LINE_114_">
		<line class="st0" x1="463" y1="-614" x2="463" y2="-645.2"/>
	</g>
	<g id="LINE_115_">
		<line class="st0" x1="454" y1="-614" x2="454" y2="-645.2"/>
	</g>
	<g id="ARC_511_">
		<path class="st0" d="M473.3-622.1c0.1-8.8-3.7-17.3-10.3-23.1"/>
	</g>
	<g id="ARC_512_">
		<path class="st0" d="M473.3-622.1c0.1,5.2,1,10.4,2.6,15.3"/>
	</g>
	<g id="ARC_513_">
		<path class="st0" d="M477-601.4c0-1.9-0.4-3.7-1.1-5.4"/>
	</g>
	<g id="ARC_514_">
		<path class="st0" d="M454-645.2c-6.6,5.9-10.4,14.3-10.3,23.1"/>
	</g>
	<g id="ARC_515_">
		<path class="st0" d="M441-606.8c1.6-5,2.5-10.1,2.6-15.3"/>
	</g>
	<g id="ARC_516_">
		<path class="st0" d="M441-606.8c-0.7,1.7-1.1,3.5-1.1,5.4"/>
	</g>
	<g id="ARC_517_">
		<path class="st0" d="M443.7-580.6c-0.1,8.8,3.7,17.3,10.3,23.1"/>
	</g>
	<g id="ARC_518_">
		<path class="st0" d="M443.7-580.6c-0.1-5.2-1-10.4-2.6-15.3"/>
	</g>
	<g id="ARC_519_">
		<path class="st0" d="M439.9-601.4c0,1.9,0.4,3.7,1.1,5.4"/>
	</g>
	<g id="ARC_520_">
		<path class="st0" d="M463-557.5c6.6-5.9,10.4-14.3,10.3-23.1"/>
	</g>
	<g id="ARC_521_">
		<path class="st0" d="M475.9-596c-1.6,5-2.5,10.1-2.6,15.3"/>
	</g>
	<g id="ARC_522_">
		<path class="st0" d="M475.9-596c0.7-1.7,1.1-3.5,1.1-5.4"/>
	</g>
	<g id="ARC_523_">
		<path class="st0" d="M1092.5-494.3c6.1,1.1,12.2-1.2,16.1-5.9"/>
	</g>
	<g id="ARC_524_">
		<path class="st0" d="M1106.1-524c-4.1-2.7-9.2-3.6-14-2.4"/>
	</g>
	<g id="ARC_525_">
		<path class="st0" d="M1078.4-527.7c4.3,1.7,9,2.2,13.6,1.3"/>
	</g>
	<g id="ARC_526_">
		<path class="st0" d="M1082.5-499.5c2.8,2.6,6.3,4.4,10,5.3"/>
	</g>
	<g id="ARC_527_">
		<path class="st0" d="M1082.5-499.5c-1-1.5-2.2-2.8-3.6-3.9"/>
	</g>
	<g id="ARC_528_">
		<path class="st0" d="M1078.9-503.5c-16.4-13.2-35.4-23-55.7-28.6"/>
	</g>
	<g id="ARC_529_">
		<path class="st0" d="M1078.4-527.7c-14.2-9.2-29.4-16.8-45.4-22.7"/>
	</g>
	<g id="ARC_530_">
		<path class="st0" d="M1019-559.4c3.7,4.3,8.6,7.5,14.1,9"/>
	</g>
	<g id="ARC_531_">
		<path class="st0" d="M1019-559.4c-3.1-3.6-8.5-3.9-12.1-0.8l-0.1,0.1"/>
	</g>
	<g id="ARC_532_">
		<path class="st0" d="M1006.8-560.2c-0.2-7.5-6.5-13.4-14-13.2c-0.2,0-0.4,0-0.5,0"/>
	</g>
	<g id="ARC_533_">
		<path class="st0" d="M1023.2-532.1c-1.7-0.1-3.5,0.2-5,1.1"/>
	</g>
	<g id="ARC_534_">
		<path class="st0" d="M1004.8-538.9c-0.9,4.4,1.9,8.7,6.3,9.7c2.5,0.5,5.1-0.1,7-1.8"/>
	</g>
	<g id="ARC_535_">
		<path class="st0" d="M997.7-538.4c2.3,0.9,4.9,0.8,7.1-0.5"/>
	</g>
	<g id="ARC_536_">
		<path class="st0" d="M997.7-538.4c-19.9-7.4-41.9-7.3-61.7,0.4"/>
	</g>
	<g id="ARC_537_">
		<path class="st0" d="M992.3-573.3c-3.8,0.6-7.4,2.2-10.5,4.5"/>
	</g>
	<g id="ARC_538_">
		<path class="st0" d="M943.1-557.8c13.8,1,27.5-2.9,38.7-11"/>
	</g>
	<g id="ARC_539_">
		<path class="st0" d="M943.1-557.8c-1.5-0.3-3.1-0.4-4.7-0.1"/>
	</g>
	<g id="ARC_540_">
		<path class="st0" d="M931.1-541.2c0.1,2,1.8,3.5,3.8,3.4c0.4,0,0.8-0.1,1.1-0.2"/>
	</g>
	<g id="ARC_541_">
		<path class="st0" d="M925.9-551.9c-1.8,3.9,0,8.5,3.9,10.3c0.4,0.2,0.9,0.3,1.3,0.4"/>
	</g>
	<g id="ARC_542_">
		<path class="st0" d="M925.9-551.9c-1.3-4.7-3.3-9.2-6-13.3"/>
	</g>
	<g id="ARC_543_">
		<path class="st0" d="M920-565.2c-0.1-0.6-0.6-1-1.2-1"/>
	</g>
	<g id="ARC_544_">
		<path class="st0" d="M931.9-576.3c0.8,6.5,3,12.8,6.5,18.4"/>
	</g>
	<g id="ARC_545_">
		<path class="st0" d="M931.9-576.3c0.4-7.7-5-14.4-12.6-15.8"/>
	</g>
	<g id="LINE_116_">
		<line class="st0" x1="919.3" y1="-592" x2="918.7" y2="-566.2"/>
	</g>
	<g id="ARC_546_">
		<path class="st0" d="M1112.2-508.5c0.8-5.9-1.5-11.9-6.2-15.6"/>
	</g>
	<g id="LINE_118_">
		<line class="st0" x1="1112.2" y1="-508.5" x2="1094.7" y2="-516.4"/>
	</g>
	<g id="LINE_119_">
		<line class="st0" x1="1094.7" y1="-516.4" x2="1091" y2="-508.2"/>
	</g>
	<g id="LINE_120_">
		<line class="st0" x1="1091" y1="-508.2" x2="1108.6" y2="-500.2"/>
	</g>
	<g id="ARC_549_">
		<path class="st0" d="M661.5-589.1c-0.9,0-1.8,0.1-2.8,0.2"/>
	</g>
	<g id="ARC_550_">
		<path class="st0" d="M644-572.3c0,6,3.2,11.5,8.3,14.5"/>
	</g>
	<g id="ARC_551_">
		<path class="st0" d="M652.3-557.8c4.5,2.1,9.7,2.3,14.2,0.4"/>
	</g>
	<g id="ARC_552_">
		<path class="st0" d="M680.2-558c-4.5-1.1-9.2-0.9-13.6,0.6"/>
	</g>
	<g id="ARC_553_">
		<path class="st0" d="M672.2-585.3c-3.2-2.2-6.8-3.5-10.7-3.8"/>
	</g>
	<g id="ARC_554_">
		<path class="st0" d="M672.2-585.3c1.2,1.3,2.6,2.5,4.2,3.4"/>
	</g>
	<g id="ARC_555_">
		<path class="st0" d="M676.3-582c18.1,10.8,38.3,17.7,59.2,20.4"/>
	</g>
	<g id="ARC_556_">
		<path class="st0" d="M680.2-558c15.4,7.1,31.5,12.5,48.1,16"/>
	</g>
	<g id="ARC_557_">
		<path class="st0" d="M743.6-535.1c-4.3-3.8-9.6-6.2-15.2-6.9"/>
	</g>
	<g id="ARC_558_">
		<path class="st0" d="M743.6-535.1c3.6,3.1,9,2.7,12-0.9l0.1-0.1"/>
	</g>
	<g id="ARC_559_">
		<path class="st0" d="M735.5-561.6c1.7-0.1,3.4-0.7,4.8-1.8"/>
	</g>
	<g id="ARC_560_">
		<path class="st0" d="M754.7-557.4c0.3-4.5-3.1-8.4-7.6-8.7c-2.5-0.2-5,0.9-6.7,2.8"/>
	</g>
	<g id="ARC_561_">
		<path class="st0" d="M761.6-558.9c-2.4-0.6-5,0-6.9,1.5"/>
	</g>
	<g id="ARC_562_">
		<path class="st0" d="M755.7-536.1c1.3,7.4,8.3,12.3,15.7,11c0.2,0,0.3-0.1,0.5-0.1"/>
	</g>
	<g id="ARC_563_">
		<path class="st0" d="M771.9-525.1c3.7-1.2,7.1-3.2,9.8-6"/>
	</g>
	<g id="ARC_564_">
		<path class="st0" d="M761.6-558.9c20.8,4.5,42.5,1.3,61-9.1"/>
	</g>
	<g id="ARC_565_">
		<path class="st0" d="M813.6-547c-12,1.8-23.2,7.4-31.9,15.9"/>
	</g>
	<g id="ARC_566_">
		<path class="st0" d="M827.9-565.6c-0.4-1.9-2.3-3.2-4.2-2.8c-0.4,0.1-0.7,0.2-1.1,0.4"/>
	</g>
	<g id="ARC_567_">
		<path class="st0" d="M834.6-555.8c1.2-4.1-1.2-8.4-5.3-9.6c-0.4-0.1-0.9-0.2-1.3-0.3"/>
	</g>
	<g id="ARC_568_">
		<path class="st0" d="M834.6-555.8c2,4.5,4.6,8.6,7.8,12.3"/>
	</g>
	<g id="ARC_569_">
		<path class="st0" d="M828.2-534.7c0.2-6.7-5-12.3-11.7-12.5c-1,0-1.9,0-2.9,0.2"/>
	</g>
	<g id="LINE_121_">
		<line class="st0" x1="843.3" y1="-525.1" x2="843.4" y2="-529.2"/>
	</g>
	<g id="ARC_570_">
		<path class="st0" d="M828.2-534.7c-3.5,8.2-1.8,17.7,4.5,24.1"/>
	</g>
	<g id="ARC_571_">
		<path class="st0" d="M842.8-542.6c-0.1-0.3-0.2-0.6-0.4-0.8"/>
	</g>
	<g id="ARC_572_">
		<path class="st0" d="M843.4-529.2c0.7-4.5,0.5-9-0.6-13.4"/>
	</g>
	<g id="LINE_122_">
		<line class="st0" x1="650.5" y1="-585.2" x2="658.1" y2="-572.3"/>
	</g>
	<g id="LINE_123_">
		<line class="st0" x1="658.1" y1="-572.3" x2="665.8" y2="-576.9"/>
	</g>
	<g id="ARC_573_">
		<path class="st0" d="M650.5-585.2c-3.9,3.2-6.3,7.8-6.5,12.9"/>
	</g>
	<g id="LINE_124_">
		<line class="st0" x1="832.7" y1="-510.6" x2="843.3" y2="-525.1"/>
	</g>
	<g id="LINE_125_">
		<line class="st0" x1="163" y1="-566" x2="171.2" y2="-562.5"/>
	</g>
	<g id="ARC_574_">
		<path class="st0" d="M132.7-590.7c-2.8,3.8-2.9,8.8-0.4,12.8"/>
	</g>
	<g id="ARC_575_">
		<path class="st0" d="M149.7-597.7c-6.4-0.1-12.5,2.5-17,7"/>
	</g>
	<g id="ARC_576_">
		<path class="st0" d="M167.2-589.2c-3.5-6.2-10.4-9.6-17.5-8.5"/>
	</g>
	<g id="ARC_577_">
		<path class="st0" d="M181.8-568.5c-4-7.5-8.9-14.4-14.6-20.7"/>
	</g>
	<g id="ARC_578_">
		<path class="st0" d="M186.8-559.1c-1.6-3.2-3.3-6.3-5-9.4"/>
	</g>
	<g id="ARC_579_">
		<path class="st0" d="M187.8-545.9c1.9-4.3,1.5-9.3-1-13.2"/>
	</g>
	<g id="ARC_580_">
		<path class="st0" d="M183.6-540.5c2.2-1,3.8-3,4.2-5.4"/>
	</g>
	<g id="ARC_581_">
		<path class="st0" d="M183.6-540.5c-0.5-2.1-2.5-3.4-4.6-3c-0.6,0.1-1.2,0.4-1.7,0.8"/>
	</g>
	<g id="ARC_582_">
		<path class="st0" d="M174.3-545.3c0.3,1.4,1.5,2.5,2.9,2.6"/>
	</g>
	<g id="ARC_583_">
		<path class="st0" d="M142.4-549.4c1.3-1.1,2.5-2.3,3.6-3.6"/>
	</g>
	<g id="ARC_584_">
		<path class="st0" d="M134.9-549.9c0,1.7,1.4,3.1,3.2,3.1c0.9,0,1.7-0.4,2.3-1"/>
	</g>
	<g id="ARC_585_">
		<path class="st0" d="M146-564c-5.3,3.2-9.2,8.2-11.1,14.1"/>
	</g>
	<g id="ARC_586_">
		<path class="st0" d="M146-564c3-1.7,4.1-5.5,2.3-8.5c-0.9-1.6-2.5-2.7-4.3-3.1"/>
	</g>
	<g id="ARC_587_">
		<path class="st0" d="M132.3-577.9c3.3,2.5,7.7,3.4,11.7,2.3"/>
	</g>
	<g id="ARC_588_">
		<path class="st0" d="M140.4-547.8c0.7-0.5,1.4-1,2-1.6"/>
	</g>
	<g id="LINE_126_">
		<line class="st0" x1="163" y1="-566" x2="159.2" y2="-557.2"/>
	</g>
	<g id="LINE_127_">
		<line class="st0" x1="171.2" y1="-562.5" x2="167.4" y2="-553.5"/>
	</g>
	<g id="ARC_589_">
		<path class="st0" d="M174.3-545.3c-1.7-3.2-4-6-6.9-8.3"/>
	</g>
	<g id="ARC_590_">
		<path class="st0" d="M159.2-557.2c-4.8-0.5-9.6,1.1-13.3,4.2"/>
	</g>
	<g id="LINE_128_">
		<line class="st0" x1="149.3" y1="-617.9" x2="141.1" y2="-614.3"/>
	</g>
	<g id="ARC_591_">
		<path class="st0" d="M180-629.8c2.5-3.9,2.4-9-0.4-12.8"/>
	</g>
	<g id="ARC_592_">
		<path class="st0" d="M179.6-642.5c-4.5-4.5-10.6-7.1-17-7"/>
	</g>
	<g id="ARC_593_">
		<path class="st0" d="M162.6-649.5c-7-1.1-14,2.3-17.5,8.5"/>
	</g>
	<g id="ARC_594_">
		<path class="st0" d="M145.2-641.1c-5.7,6.3-10.6,13.2-14.6,20.7"/>
	</g>
	<g id="ARC_595_">
		<path class="st0" d="M130.5-620.4c-1.7,3.1-3.4,6.2-5,9.4"/>
	</g>
	<g id="ARC_596_">
		<path class="st0" d="M125.5-611c-2.5,4-2.9,8.9-1,13.2"/>
	</g>
	<g id="ARC_597_">
		<path class="st0" d="M124.5-597.8c0.5,2.4,2,4.4,4.2,5.4"/>
	</g>
	<g id="ARC_598_">
		<path class="st0" d="M135-594.5c-1.6-1.4-4.1-1.2-5.5,0.5c-0.4,0.5-0.7,1.1-0.8,1.7"/>
	</g>
	<g id="ARC_599_">
		<path class="st0" d="M135-594.5c1.5-0.1,2.7-1.2,2.9-2.6"/>
	</g>
	<g id="ARC_600_">
		<path class="st0" d="M166.4-604.8c1.1,1.3,2.3,2.5,3.6,3.6"/>
	</g>
	<g id="ARC_601_">
		<path class="st0" d="M171.9-599.6c1.2,1.3,3.2,1.4,4.5,0.2c0.7-0.6,1-1.4,1-2.3"/>
	</g>
	<g id="ARC_602_">
		<path class="st0" d="M177.4-601.7c-1.8-5.9-5.8-10.9-11.1-14.1"/>
	</g>
	<g id="ARC_603_">
		<path class="st0" d="M168.3-627.5c-3.4,0.6-5.6,3.9-5,7.3c0.3,1.8,1.5,3.4,3.1,4.3"/>
	</g>
	<g id="ARC_604_">
		<path class="st0" d="M168.3-627.5c4,1.1,8.4,0.2,11.7-2.3"/>
	</g>
	<g id="ARC_605_">
		<path class="st0" d="M169.9-601.3c0.6,0.6,1.3,1.2,2,1.6"/>
	</g>
	<g id="LINE_129_">
		<line class="st0" x1="149.3" y1="-617.9" x2="153.1" y2="-609.1"/>
	</g>
	<g id="LINE_130_">
		<line class="st0" x1="141.1" y1="-614.3" x2="144.9" y2="-605.4"/>
	</g>
	<g id="ARC_606_">
		<path class="st0" d="M144.9-605.4c-2.9,2.2-5.2,5-6.9,8.3"/>
	</g>
	<g id="ARC_607_">
		<path class="st0" d="M166.4-604.8c-3.7-3.2-8.5-4.7-13.3-4.2"/>
	</g>
	<g id="LINE_175_">
		<line class="st0" x1="665.8" y1="-576.9" x2="658.7" y2="-588.9"/>
	</g>
	<g id="ARC_609_">
		<path class="st0" d="M499.9-496.8c5.3-6.9,8.1-15.5,7.8-24.2"/>
	</g>
	<g id="ARC_610_">
		<path class="st0" d="M507.7-521c-0.1-4.9-1.3-9.7-3.6-14.1"/>
	</g>
	<g id="ARC_611_">
		<path class="st0" d="M504.1-535.1c-1-4-3.3-7.7-6.5-10.4"/>
	</g>
	<g id="ARC_612_">
		<path class="st0" d="M497.6-545.5c-4.4-3.1-9.1-5.6-14.1-7.6"/>
	</g>
	<g id="ARC_613_">
		<path class="st0" d="M483.5-553.1c-1.6-0.7-3.4-1.2-5.1-1.4"/>
	</g>
	<g id="ARC_614_">
		<path class="st0" d="M478.4-554.5c-1.8-0.6-3.6-1-5.5-1.1"/>
	</g>
	<g id="ARC_615_">
		<path class="st0" d="M471.2-555.5c0.6,0,1.1,0,1.7-0.1"/>
	</g>
	<g id="ARC_616_">
		<path class="st0" d="M471.2-555.5c-1.8,0.1-3.3,1.3-3.7,3"/>
	</g>
	<g id="ARC_617_">
		<path class="st0" d="M467.5-552.5c-0.7,5.1-0.9,10.3-0.6,15.5"/>
	</g>
	<g id="ARC_618_">
		<path class="st0" d="M461-533.3c2.3,0.9,4.8-0.3,5.7-2.6c0.1-0.3,0.2-0.7,0.3-1.1"/>
	</g>
	<g id="ARC_619_">
		<path class="st0" d="M436.5-551.4c5.7,8.8,14.4,15.2,24.4,18.2"/>
	</g>
	<g id="ARC_620_">
		<path class="st0" d="M436.5-551.4c-3.7-4.8-9-8.1-14.9-9.2"/>
	</g>
	<g id="ARC_621_">
		<path class="st0" d="M421.6-560.7c-6.3-1.9-13.1,0-17.4,4.9"/>
	</g>
	<g id="ARC_622_">
		<path class="st0" d="M404.2-555.8c-3.8,4.5-6.6,9.7-8.4,15.3"/>
	</g>
	<g id="ARC_623_">
		<path class="st0" d="M395.8-540.5c-1.5,4.5-0.7,9.5,2.2,13.3"/>
	</g>
	<g id="ARC_624_">
		<path class="st0" d="M398-527.2c1.5,2,3.8,3.2,6.3,3.1"/>
	</g>
	<g id="ARC_625_">
		<path class="st0" d="M456-521.2c-17.1-2.3-34.4-3.2-51.6-2.9"/>
	</g>
	<g id="ARC_626_">
		<path class="st0" d="M474.5-506.8c-4.6-6.6-11-11.6-18.5-14.4"/>
	</g>
	<g id="ARC_627_">
		<path class="st0" d="M474.5-506.8c1.4,4,3.8,7.5,6.9,10.4"/>
	</g>
	<g id="LINE_176_">
		<line class="st0" x1="496.9" y1="-494.5" x2="496.9" y2="-527.7"/>
	</g>
	<g id="LINE_177_">
		<line class="st0" x1="487.9" y1="-493.2" x2="487.9" y2="-527.7"/>
	</g>
	<g id="ARC_628_">
		<path class="st0" d="M496.9-494.5c1.1-0.6,2.1-1.4,3.1-2.2"/>
	</g>
	<g id="ARC_629_">
		<path class="st0" d="M481.4-496.4c1.8,1.6,4.1,2.8,6.5,3.2"/>
	</g>
	<g id="LINE_178_">
		<line class="st0" x1="496.9" y1="-527.7" x2="487.9" y2="-527.7"/>
	</g>
	<g id="SPLINE_32_">
		<path class="st0" d="M686-597.8c0,0.2-0.1,0.3-0.2,0.5c-0.1,0.2-0.4,0.3-0.6,0.3c-0.7,0.1-1.3-0.1-2-0.3c-0.8-0.3-1.6-0.4-2.3-0.9
			c-0.6-0.3-1-0.8-1.4-1.4c-0.3-0.4-0.5-0.8-0.6-1.3c-0.1-0.7,0.1-1.5,0.3-2.2c0.3-0.9,0.6-1.7,0.8-2.6c0.2-0.9,0.2-1.9,0.2-2.8
			c0-1.1,0.1-2.3-0.1-3.4c-0.1-1-0.4-2.1-0.8-3.1c-0.2-0.5-0.5-1-0.8-1.4c-0.4-0.4-0.9-0.7-1.5-1c-0.7-0.3-1.3-0.6-2-0.8
			c-1.2-0.3-2.5-0.5-3.6-1c-0.7-0.3-1.3-0.7-1.8-1.2c-0.7-0.7-1.3-1.4-1.6-2.3c-0.4-1-0.4-2.2-0.3-3.3c0.1-1.4,0.5-2.7,0.8-4
			c0.3-1.2,0.6-2.5,1.2-3.5c0.4-0.7,1-1.3,1.7-1.7c0.5-0.3,1.1-0.5,1.6-0.8c0.4-0.3,0.8-0.7,1.1-1.1c0.4-0.5,0.9-1,1.3-1.5
			c0.4-0.6,0.8-1.3,1.3-1.8c0.1-0.1,0.1-0.1,0.2-0.2"/>
	</g>
	<g id="SPLINE_33_">
		<path class="st0" d="M698.1-634.9c-1.4-3.7-0.3-4.6,0.6-5.4c1.7-1.4,1.9-2.2,2.6-3.2c1-1.3,2.8-3,4.8-4.5c2.2-1.7,4.5-3.1,6.9-4.4
			c2.1-1.1,4.2-2.1,6.4-3c4.8-2.1,9.7-3.9,14.8-5.2c8.6-2.1,17.7-2.3,26.6-1.6c13,1,25.7,4,38.3,7.2c16.4,4.1,32.7,8.4,49,12.9
			c20.6,5.7,41.1,11.6,61.3,18.3c12.8,4.2,25.5,8.8,38.4,12.7c11,3.3,22.2,6.1,33.4,8.3c13.3,2.5,26.7,4.1,40.2,5.6
			c14.4,1.7,28.8,3.4,43.2,2.6c14.3-0.8,28.5-4,42.6-7.2c10.2-2.3,20.3-4.4,30.2-7.4"/>
	</g>
	<g id="SPLINE_34_">
		<path class="st0" d="M676.6-640.8c2.3-2.7,4.5-5.5,7.3-7.6c1.4-1,2.9-1.9,4.4-2.9c1-0.6,1.9-1.2,2.7-2c0.4-0.4,0.9-0.9,1.3-1.3
			c0.5-0.5,1.1-1,1.6-1.6c0.9-1,1.6-2.2,2.2-3.3c0.7-1.6,1.1-3.1,2.2-5c0.9-1.5,2.3-3.2,3.5-2.7c0.4,0.2,0.8,0.6,1.1,1.1
			c0.5,0.7,0.8,1.5,1,2.2"/>
	</g>
	<g id="SPLINE_35_">
		<path class="st0" d="M703.9-663.9c0.6-0.3,1.1-0.6,1.7-0.8c0.6-0.3,1.3-0.5,1.9-0.9c0.4-0.3,0.7-0.6,1-1c0.7-1.1,1-2.4,1.3-3.6
			c0.3-1.2,0.5-2.4,1.1-3.3c0.4-0.6,0.9-1.1,1.5-1.5c1.1-0.7,2.6-0.9,4-0.7c0.9,0.1,1.8,0.4,2.7,0.4c0.6,0,1.3,0,1.8-0.2
			c0.8-0.2,1.5-0.7,2.3-1.1c0.7-0.3,1.5-0.5,2.2-0.2c0.3,0.1,0.6,0.4,0.7,0.7c0.1,0.3,0.2,0.6,0.2,0.9"/>
	</g>
	<g id="SPLINE_36_">
		<path class="st0" d="M726.3-675.1c0.5-0.2,0.9-0.3,1.3-0.5c0.8-0.3,1.6-0.7,2.3-1.2c1.3-0.9,2.5-2,4-2.4c1.2-0.4,2.7-0.3,3.7-1
			c0.3-0.2,0.5-0.5,0.8-0.8c1.1-1.4,2.2-2.8,3.6-3.7c1.1-0.7,2.5-1.2,3.8-1.4c1.6-0.2,3.2,0,4.7,0.5c1.3,0.4,2.5,1.1,3.9,1.5
			c0.9,0.3,1.9,0.4,2.9,0.5c1.3,0.1,2.5,0.2,3.9,0.1c1-0.1,2.1-0.4,3,0.1c0.6,0.3,1,0.9,1.4,1.4c0.2,0.3,0.5,0.5,0.8,0.7
			c0.2,0.2,0.3,0.3,0.5,0.5"/>
	</g>
	<g id="SPLINE_37_">
		<path class="st0" d="M766.8-681c0.6-0.1,1.1-0.3,1.7-0.4c1.8-0.5,3.5-1.1,5.1-1.9c1.4-0.7,2.7-1.6,4.2-2.3s3.1-1.3,4.3-2.4
			c0.7-0.6,1.3-1.5,2-2.1c1.2-1,3-1.4,4.5-1.1c1.3,0.2,2.4,1,3.5,1.7c1.7,1,3.5,1.9,4.9,3.4c1.2,1.2,2.2,2.9,3.7,3.6
			c1,0.5,2.3,0.6,3.4,1.1c0.7,0.3,1.3,0.9,1.6,1.5c0.2,0.4,0.3,0.9,0.2,1.4c0,0.2,0,0.4-0.1,0.6"/>
	</g>
	<g id="SPLINE_38_">
		<path class="st0" d="M805.8-677.8c0.6,0.1,1.2,0.2,1.7,0.2c1.3,0.1,2.6-0.3,3.9-0.4c1.2-0.1,2.3-0.1,3.5-0.1c1.1,0,2.2,0,3.3-0.2
			s2.3-0.5,3.4-0.9c1.4-0.5,2.8-1.1,4.2-1.7c1.2-0.5,2.4-1.1,3.5-1.6c1.3-0.6,2.7-1.1,4.2-1.2c1.2-0.1,2.6-0.1,3.6,0.5
			s1.6,1.6,2.5,2.4c1,0.9,2.3,1.5,3.2,2.4c0.8,0.8,1.4,1.9,2.1,2.9c0.6,0.7,1.3,1.4,2,1.9c0.8,0.6,1.8,1,2.6,1.5
			c0.8,0.6,1.5,1.3,2.2,2.1c0.4,0.5,0.7,0.9,0.7,1.5c0,0.3-0.1,0.6-0.3,0.9c-0.2,0.3-0.3,0.6-0.5,0.9"/>
	</g>
	<g id="SPLINE_39_">
		<path class="st0" d="M851.5-666.6c1,0.2,2,0.3,3.1,0.6c1.2,0.3,2.4,0.6,3.7,0.7c1.1,0.1,2.2-0.1,3.2-0.4c1.1-0.3,2.2-0.7,3.3-1
			c1-0.2,2-0.4,3-0.4c0.6,0,1.2,0,1.8-0.1c1-0.2,1.8-0.8,2.6-1.5c1.4-1.2,2.7-2.6,4.3-3.4c1.7-0.8,3.7-1.1,5.6-0.7
			c1.8,0.4,3.4,1.4,5,2.4c1.7,1,3.4,2,4.5,3.5c0.8,1.1,1.2,2.6,2,3.7c0.5,0.7,1.2,1.3,1.8,1.9c0.8,0.7,1.5,1.4,2.3,2
			c1,0.8,1.9,1.5,3.2,2.3c0.8,0.5,1.7,1.1,1.7,1.9c0,0.5-0.4,1.1-0.8,1.5c-0.1,0.1-0.2,0.2-0.4,0.4"/>
	</g>
	<g id="SPLINE_40_">
		<path class="st0" d="M901.2-653.1c0.8,0.2,1.5,0.4,2.3,0.6c1,0.2,2,0.4,3.1,0.5c1.5,0.1,3,0.1,4.5-0.3c1.3-0.3,2.6-0.9,3.9-1.1
			c1.6-0.3,3.3-0.1,4.7-0.6c1.2-0.4,2.2-1.2,3.3-1.9c1.2-0.7,2.4-1.3,3.6-2c1.3-0.7,2.6-1.6,4-1.9c2.2-0.5,4.8,0.2,6.8,1.4
			c1.4,0.8,2.6,1.9,3.9,2.9c1.4,1,3,1.9,4.3,3.1c0.8,0.7,1.4,1.6,2.2,2.3c1,1,2.1,1.8,3.3,2.5c1.1,0.7,2.1,1.3,3.1,2.4
			c0.7,0.9,1.4,2,1,2.9c-0.1,0.3-0.3,0.5-0.4,0.7c-0.1,0.2-0.3,0.3-0.4,0.5"/>
	</g>
	<g id="SPLINE_41_">
		<path class="st0" d="M954.4-641.1c0.9,0.1,1.9,0.3,2.9,0.3c1.4,0,2.8-0.1,4.2-0.6c1.1-0.4,2-0.9,3.1-1.4c1.5-0.7,3.1-1.1,4.7-1.6
			c1-0.3,2-0.6,3.1-0.8c0.6-0.1,1.3-0.1,1.9-0.4c0.7-0.4,1.2-1.3,1.8-1.9c1-0.8,2.4-0.9,3.8-1c1.8-0.1,3.4,0,4.9,0.6
			c1,0.4,1.9,1.1,2.9,1.4c0.9,0.3,1.9,0.4,2.9,0.7c0.7,0.2,1.3,0.6,1.9,1c0.7,0.4,1.5,0.7,2,1.2c0.7,0.7,1.2,1.7,1.8,2.5
			c0.5,0.7,1.1,1.4,1.7,2c0.6,0.6,1.1,1.3,1.9,1.7c1,0.6,2.2,1,3,1.8c0.7,0.7,1.1,1.8,1.7,2.6c0.4,0.5,0.9,0.9,1.4,1.4
			c0.3,0.3,0.6,0.6,0.9,1"/>
	</g>
	<g id="SPLINE_42_">
		<path class="st0" d="M1006.6-630.5c0.3-0.1,0.6-0.3,1-0.4c0.7-0.3,1.3-0.7,1.8-1.2c0.6-0.5,1.2-1.2,1.8-1.8
			c0.6-0.7,1.2-1.4,1.9-1.9c0.9-0.6,2-0.9,3.1-1.2c1-0.3,1.9-0.7,2.7-1.1c0.7-0.4,1.5-0.7,2.2-1.1c0.9-0.5,1.8-1,2.6-1.6
			c0.8-0.6,1.5-1.3,2.4-1.8s1.8-0.8,2.8-0.9c1.3-0.2,2.6-0.2,3.8-0.2c1.3,0,2.6,0,3.9,0.2c1,0.2,1.9,0.6,2.9,1
			c0.9,0.4,1.8,0.7,2.5,1.3c0.6,0.4,1.1,1,1.6,1.5c0.3,0.4,0.7,0.7,1,1c0.7,0.6,1.5,1.1,2.3,1.4c0.7,0.3,1.5,0.3,2.4,0.5
			c1,0.2,2.1,0.4,2.5,1.2c0.3,0.6,0.3,1.4,0.7,1.9c0.1,0.1,0.2,0.2,0.3,0.3c0.5,0.5,0.6,1.1,0.9,1.7c0.2,0.5,0.6,1,0.6,1.5
			c0,0.1,0,0.2,0,0.2"/>
	</g>
	<g id="SPLINE_43_">
		<path class="st0" d="M1054.3-629.9c0.5-0.2,1.1-0.3,1.6-0.5c1.3-0.4,2.5-1,3.7-1.8c1.2-0.7,2.2-1.5,3.1-2.5
			c0.8-0.9,1.4-1.8,2.1-2.8c0.7-1.1,1.5-2.1,2.2-3.2c0.8-1.2,1.7-2.3,2.7-3.4c0.6-0.8,1.3-1.5,2.1-2.1c1.7-1.2,3.9-1.7,6-1.8
			c1.2,0,2.3,0.1,3.4,0.3c1.3,0.3,2.5,0.8,3.6,1.5c0.9,0.6,1.7,1.2,2.7,1.7c0.6,0.3,1.2,0.4,1.8,0.5c0.7,0.1,1.4,0,2.1,0
			c0.6,0.1,1.3,0.2,1.8,0.6c0.6,0.3,1.1,0.8,1.4,1.4c0.2,0.5,0.3,1,0.2,1.5c-0.1,0.4-0.3,0.8-0.2,1.1c0.1,0.5,0.8,0.9,1,1.4
			c0.2,0.3,0.2,0.6,0.2,0.9c0,0.3,0,0.6,0,0.9"/>
	</g>
	<g id="SPLINE_44_">
		<path class="st0" d="M1095.7-636.2c0.5-0.2,1-0.4,1.5-0.5s1-0.2,1.5-0.5c0.7-0.4,1.3-1.1,1.8-1.8c1.1-1.4,2.4-2.6,3.7-3.8
			c0.9-0.8,1.7-1.6,2.5-2.5c0.7-0.8,1.3-1.6,1.9-2.4c0.5-0.7,0.9-1.4,1.4-2.1c0.6-0.9,1.1-1.7,1.8-2.5c1.4-1.4,3.3-2.4,5.2-3
			c1.5-0.4,3-0.6,4.5-0.4c1,0.1,2,0.3,2.9,0.8c0.6,0.3,1,0.8,1.6,1.1c0.5,0.3,1.1,0.6,1.7,0.7c0.7,0.1,1.4,0.1,2.1,0
			c0.8-0.1,1.6-0.3,2.5-0.3c1-0.1,2,0,2.8,0.4c0.7,0.4,1.2,1.1,1.8,1.8c0.7,0.8,1.5,1.5,2.2,2.3"/>
	</g>
	<g id="ARC_647_">
		<path class="st0" d="M702.1-635.1c-1.3-0.6-2.8-0.5-4,0.2"/>
	</g>
	<g id="ARC_648_">
		<path class="st0" d="M702.1-630.1c1-1.5,1-3.5,0-5"/>
	</g>
	<g id="ARC_649_">
		<path class="st0" d="M702.1-630.1c-0.9,1.4-0.9,3.2,0,4.6"/>
	</g>
	<g id="ARC_650_">
		<path class="st0" d="M701.4-616.2c0.9-3,1.1-6.1,0.7-9.2"/>
	</g>
	<g id="ARC_651_">
		<path class="st0" d="M701.4-616.2c-0.4,3.3-0.2,6.5,0.5,9.7"/>
	</g>
	<g id="ARC_652_">
		<path class="st0" d="M702.7-602.6c-0.2-1.3-0.5-2.6-0.7-3.9"/>
	</g>
	<g id="ARC_653_">
		<path class="st0" d="M701.7-599.6c0.9-0.7,1.2-1.9,1-3"/>
	</g>
	<g id="ARC_654_">
		<path class="st0" d="M696.2-597.8c1.9-0.2,3.8-0.8,5.4-1.8"/>
	</g>
	<g id="ARC_655_">
		<path class="st0" d="M695.2-598.3c0.1,0.4,0.5,0.7,1,0.6h0.1"/>
	</g>
	<g id="ARC_656_">
		<path class="st0" d="M691.6-598.3c1.1,0.8,2.5,0.7,3.5-0.1"/>
	</g>
	<g id="ARC_657_">
		<path class="st0" d="M691.9-599.4c-0.4,0.2-0.5,0.7-0.3,1.1c0,0,0,0.1,0.1,0.1"/>
	</g>
	<g id="ARC_658_">
		<path class="st0" d="M692-601c-0.5,0.2-0.6,0.8-0.4,1.3c0.1,0.1,0.2,0.3,0.3,0.3"/>
	</g>
	<g id="ARC_659_">
		<path class="st0" d="M692.4-602.5c-0.4,0.4-0.6,1-0.3,1.5"/>
	</g>
	<g id="ARC_660_">
		<path class="st0" d="M692.6-604c-0.4,0.1-0.7,0.5-0.6,0.9c0,0.2,0.2,0.4,0.3,0.5"/>
	</g>
	<g id="ARC_661_">
		<path class="st0" d="M692.7-606.2c-0.3,0.7-0.4,1.5-0.1,2.3"/>
	</g>
	<g id="ARC_662_">
		<path class="st0" d="M693.1-608.4c-0.5,0.6-0.6,1.4-0.4,2.2"/>
	</g>
	<g id="ARC_663_">
		<path class="st0" d="M693.4-610.3c-0.6,0.5-0.7,1.3-0.3,1.9"/>
	</g>
	<g id="ARC_664_">
		<path class="st0" d="M693.6-612.1c-0.5,0.2-0.7,0.9-0.5,1.4c0.1,0.2,0.2,0.3,0.3,0.4"/>
	</g>
	<g id="ARC_665_">
		<path class="st0" d="M693.5-613.7c-0.4,0.2-0.6,0.8-0.4,1.2c0.1,0.2,0.3,0.3,0.4,0.4"/>
	</g>
	<g id="ARC_666_">
		<path class="st0" d="M693.6-615.1c-0.4,0.3-0.5,0.9-0.2,1.4l0.1,0.1"/>
	</g>
	<g id="ARC_667_">
		<path class="st0" d="M693.4-616.7c-0.4,0.3-0.4,0.9-0.1,1.3c0.1,0.1,0.2,0.2,0.4,0.3"/>
	</g>
	<g id="ARC_668_">
		<path class="st0" d="M693.8-618.3c-0.5,0-0.9,0.5-0.8,1c0,0.3,0.2,0.5,0.4,0.7"/>
	</g>
	<g id="ARC_669_">
		<path class="st0" d="M693.8-618.3c-0.7-2.2-3-3.4-5.3-2.8"/>
	</g>
	<g id="SPLINE_45_">
		<path class="st0" d="M1139-649.1c-0.4,0.8-0.8,1.7-0.8,2.7c-0.1,1.8,0.9,4,2.2,4.5c1.9,0.8,4.5-1.9,6.8-2.1
			c1.3-0.1,2.6,0.6,3.8,1.4c0.9,0.7,1.8,1.4,2.5,2.3"/>
	</g>
	<g id="LINE_180_">
		<line class="st0" x1="1147" y1="-627.5" x2="1143.3" y2="-635.7"/>
	</g>
	<g id="SPLINE_46_">
		<path class="st0" d="M1155.2-631.2c1.1,3.5-1.7,7.4-4.8,9c-4.9,2.5-10.8-0.8-13.9,1.5c-1.9,1.4-2.7,5.1-2.1,7.7
			c0.4,1.7,1.4,3,2.9,3.9"/>
	</g>
	<g id="SPLINE_47_">
		<path class="st0" d="M688.5-621.1c-0.1,0.6-0.1,1.2-0.2,1.9c-0.1,0.5-0.2,1,0.1,1.3c0.1,0.1,0.3,0.2,0.4,0.3c0.2,0,0.4,0,0.6,0
			c0.1,0,0.3,0,0.3,0.1c0.1,0.1,0.1,0.3,0.1,0.4c0,0.4,0,0.8,0.1,1.2c0,0.2,0.1,0.4-0.1,0.6c-0.1,0.1-0.3,0.2-0.3,0.3
			s0.2,0.2,0.3,0.3c0.1,0.2,0.1,0.4,0.1,0.6c0,0.5,0.4,0.9,0.1,1.3c-0.2,0.2-0.5,0.3-0.5,0.5c0,0.1,0.1,0.1,0.2,0.2
			c0.1,0.1,0.2,0.2,0.3,0.3c0.2,0.4,0,0.9,0.1,1.4c0,0.1,0,0.3,0,0.4l-0.1,0.1l-0.1,0.1c0,0.1,0.1,0.1,0.2,0.2
			c0.1,0.1,0.1,0.3,0.1,0.5c0,0.4,0.2,0.8,0.1,1.1c-0.1,0.1-0.2,0.2-0.3,0.3c0,0.1-0.1,0.1,0,0.2c0,0,0,0.1,0.1,0.1
			c0.3,0.2,0.1,0.6,0.2,1c0.1,0.3,0.3,0.6,0.1,0.9c-0.2,0.2-0.6,0.3-0.5,0.5l0.1,0.1c0.1,0,0.2,0,0.3,0.1c0,0.1,0,0.2,0,0.3
			c0,0.4,0.2,0.7,0.1,0.9c0,0.1-0.1,0.2-0.3,0.3l-0.1,0.1l0.1,0.1c0.2,0.2,0.3,0.4,0.3,0.7c0,0.2,0.1,0.4,0,0.6l-0.1,0.1l0.1,0.1
			c0.2,0.2-0.1,0.5,0,0.7c0,0.1,0.1,0.1,0.2,0.2c0.1,0.2-0.2,0.4-0.2,0.7c-0.1,0.2,0,0.4,0.1,0.7s0.2,0.6,0.1,0.8
			c-0.1,0.2-0.5,0.3-0.5,0.5s0.2,0.5,0.1,0.6c-0.1,0.1-0.3,0.2-0.6,0.2c-0.4,0.1-0.7,0.1-1.1,0.1c-0.3,0-0.6-0.1-0.8-0.3
			s-0.3-0.4-0.5-0.5c-0.1,0-0.2,0-0.3,0c-0.2,0.1-0.3,0.2-0.5,0.4"/>
	</g>
	<g id="LINE_181_">
		<line class="st0" x1="1147" y1="-627.5" x2="1155.2" y2="-631.2"/>
	</g>
	<g id="LINE_182_">
		<line class="st0" x1="1143.3" y1="-635.7" x2="1153.5" y2="-640.3"/>
	</g>
	<g id="SPLINE_48_">
		<path class="st0" d="M1507.8-553.4c-0.6,0-1.1,0.1-1.7,0.2c-1.2,0.2-2.4,0.8-3.5,1.4c-1,0.6-1.9,1.3-2.8,2.1
			c-0.9,0.9-1.7,1.9-2.4,2.9c-0.8,1.2-1.6,2.5-2.4,3.8s-1.7,2.5-2.9,3.4c-1,0.9-2.2,1.5-3.4,2c-1.2,0.5-2.5,0.8-3.9,1
			c-1.5,0.2-3,0.3-4.5,0c-1.1-0.3-2.1-0.7-2.9-1.4c-0.6-0.4-1.1-0.9-1.5-1.5c-0.5-0.6-0.9-1.3-1.4-1.9c-0.4-0.4-0.8-0.8-1.3-1.1
			c-0.6-0.3-1.3-0.4-2-0.5c-0.8-0.1-1.6-0.1-2.3-0.5c-0.5-0.2-1-0.6-1.3-1.1c-0.5-0.7-0.7-1.5-0.9-2.3c-0.2-0.7-0.5-1.3-0.7-1.9"/>
	</g>
	<g id="ARC_670_">
		<path class="st0" d="M1466-548.6c-3.4,0.3-6.6,1.8-9,4.2"/>
	</g>
	<g id="ARC_671_">
		<path class="st0" d="M1457-544.4c-4.3,4.3-7.4,9.7-9,15.6"/>
	</g>
	<g id="ARC_672_">
		<path class="st0" d="M1436.5-527.2c3.9,0.8,8,0.3,11.5-1.7"/>
	</g>
	<g id="ARC_673_">
		<path class="st0" d="M1435.7-529.1c-0.2,0.8,0.1,1.6,0.8,1.9"/>
	</g>
	<g id="ARC_674_">
		<path class="st0" d="M1435.7-529.1c0.9-5.4,1-11,0.1-16.4"/>
	</g>
	<g id="ARC_675_">
		<path class="st0" d="M1435.8-545.5c-1.4-0.4-2.8,0-3.8,1.1"/>
	</g>
	<g id="ARC_676_">
		<path class="st0" d="M1432-544.4c-2.6,2.9-4.4,6.5-5.3,10.3"/>
	</g>
	<g id="ARC_677_">
		<path class="st0" d="M1423.4-524.6c1.3-3.1,2.4-6.3,3.4-9.6"/>
	</g>
	<g id="ARC_678_">
		<path class="st0" d="M1418.1-521.1c2.3-0.1,4.3-1.4,5.3-3.5"/>
	</g>
	<g id="ARC_679_">
		<path class="st0" d="M1414-522.2c1.2,0.9,2.7,1.3,4.1,1.1"/>
	</g>
	<g id="ARC_680_">
		<path class="st0" d="M1412.9-524.6c0.1,0.9,0.4,1.7,1.1,2.4"/>
	</g>
	<g id="ARC_681_">
		<path class="st0" d="M1412.9-532.2c-0.4,2.5-0.4,5.1,0,7.7"/>
	</g>
	<g id="ARC_682_">
		<path class="st0" d="M1412.9-532.2c0.6-3.4,0.4-6.8-0.6-10.1"/>
	</g>
	<g id="ARC_683_">
		<path class="st0" d="M1412.4-542.3c-0.2-0.6-0.9-0.9-1.4-0.7c-0.2,0.1-0.3,0.2-0.5,0.3"/>
	</g>
	<g id="ARC_684_">
		<path class="st0" d="M1410.5-542.6c-2,2.2-3.4,5-3.9,8"/>
	</g>
	<g id="ARC_685_">
		<path class="st0" d="M1401.2-519.3c1.9-5.1,3.7-10.2,5.3-15.4"/>
	</g>
	<g id="ARC_686_">
		<path class="st0" d="M1397-515.4c1.9-0.7,3.4-2.1,4.2-3.9"/>
	</g>
	<g id="ARC_687_">
		<path class="st0" d="M1394-515.4c1,0.4,2,0.4,3,0"/>
	</g>
	<g id="ARC_688_">
		<path class="st0" d="M1392.4-518.8c-0.3,1.3,0.4,2.7,1.6,3.4"/>
	</g>
	<g id="ARC_689_">
		<path class="st0" d="M1392.4-518.8c1.3-4,2.2-8.1,2.8-12.2"/>
	</g>
	<g id="ARC_690_">
		<path class="st0" d="M1395.2-531c0.4-2.5,0.3-5.1-0.4-7.5"/>
	</g>
	<g id="ARC_691_">
		<path class="st0" d="M1394.8-538.5c-0.3-1.3-1.6-2.1-2.9-1.8c-0.3,0.1-0.7,0.2-0.9,0.4"/>
	</g>
	<g id="ARC_692_">
		<path class="st0" d="M1391-539.9c-2.7,2.3-4.7,5.3-5.9,8.6"/>
	</g>
	<g id="ARC_693_">
		<path class="st0" d="M1385.1-531.3c-3.3,7.4-6.5,14.8-9.6,22.3"/>
	</g>
	<g id="ARC_694_">
		<path class="st0" d="M1370.5-509.5c1.3,1.5,3.4,1.7,5,0.5"/>
	</g>
	<g id="ARC_695_">
		<path class="st0" d="M1370.5-509.5c1.8-7.7,2.7-15.6,2.6-23.5"/>
	</g>
	<g id="ARC_696_">
		<path class="st0" d="M1373.1-533c-0.1-1.9-0.5-3.7-1.3-5.4"/>
	</g>
	<g id="ARC_697_">
		<path class="st0" d="M1371.8-538.4c-3.2,0.5-6,2.5-7.6,5.4"/>
	</g>
	<g id="ARC_698_">
		<path class="st0" d="M1364.2-532.9c-2.1,3.6-3.8,7.3-5.4,11.1"/>
	</g>
	<g id="ARC_699_">
		<path class="st0" d="M1354.7-512.3c2-2.9,3.4-6.1,4.1-9.6"/>
	</g>
	<g id="ARC_700_">
		<path class="st0" d="M1349.7-513c0.9,1.6,3,2.1,4.6,1.1c0.2-0.1,0.3-0.2,0.5-0.4"/>
	</g>
	<g id="ARC_701_">
		<path class="st0" d="M1350.9-520.3c-0.8,2.4-1.2,4.8-1.2,7.3"/>
	</g>
	<g id="ARC_702_">
		<path class="st0" d="M1350.9-520.3c1.8-6.4,2.5-13.1,1.9-19.7"/>
	</g>
	<g id="ARC_703_">
		<path class="st0" d="M1352.8-540c-2.5-0.4-5,0.6-6.6,2.5"/>
	</g>
	<g id="ARC_704_">
		<path class="st0" d="M1346.2-537.5c-4.4,5.6-7.8,12-10.2,18.7"/>
	</g>
	<g id="ARC_705_">
		<path class="st0" d="M1336-518.8c-0.4,0.8-0.5,1.8-0.4,2.7"/>
	</g>
	<g id="ARC_706_">
		<path class="st0" d="M1333.2-513.4c1.3-0.3,2.3-1.4,2.3-2.7"/>
	</g>
	<g id="ARC_707_">
		<path class="st0" d="M1327.8-514.8c1.2,1.7,3.5,2.3,5.4,1.4"/>
	</g>
	<g id="ARC_708_">
		<path class="st0" d="M1327.5-517.2c-0.2,0.8,0,1.6,0.3,2.4"/>
	</g>
	<g id="ARC_709_">
		<path class="st0" d="M1327.5-517.2c2.4-5.7,4.1-11.7,4.9-17.9"/>
	</g>
	<g id="ARC_710_">
		<path class="st0" d="M1333.8-540.1c-0.9,1.5-1.3,3.3-1.4,5"/>
	</g>
	<g id="ARC_711_">
		<path class="st0" d="M1333.8-540.1c-1.3-0.3-2.7-0.1-3.8,0.7"/>
	</g>
	<g id="ARC_712_">
		<path class="st0" d="M1330.1-539.4c-3.8,2.6-7,6.1-9.4,10"/>
	</g>
	<g id="ARC_713_">
		<path class="st0" d="M1320.6-529.4c-1.8,2.9-3.4,5.8-4.8,8.9"/>
	</g>
	<g id="ARC_714_">
		<path class="st0" d="M1312-515.7c1.7-1.2,3.1-2.9,3.8-4.8"/>
	</g>
	<g id="ARC_715_">
		<path class="st0" d="M1307.1-517.5c1,1.6,3,2.4,4.8,1.9"/>
	</g>
	<g id="ARC_716_">
		<path class="st0" d="M1308.3-522.8c-0.9,1.6-1.3,3.4-1.1,5.3"/>
	</g>
	<g id="ARC_717_">
		<path class="st0" d="M1308.3-522.8c2.7-5.8,3.9-12.2,3.6-18.5"/>
	</g>
	<g id="ARC_718_">
		<path class="st0" d="M1311.9-541.3c-4.3,1-8,3.6-10.4,7.2"/>
	</g>
	<g id="ARC_719_">
		<path class="st0" d="M1301.5-534.1c-3.2,4.4-6,9.1-8.4,14"/>
	</g>
	<g id="ARC_720_">
		<path class="st0" d="M1290.3-518.7c1.1,0.1,2.2-0.5,2.8-1.4"/>
	</g>
	<g id="ARC_721_">
		<path class="st0" d="M1286.2-519.5c1.3,0.7,2.7,0.9,4.1,0.8"/>
	</g>
	<g id="ARC_722_">
		<path class="st0" d="M1285.2-521.4c-0.1,0.8,0.3,1.5,1,1.9"/>
	</g>
	<g id="ARC_723_">
		<path class="st0" d="M1285.2-521.4c3-7.5,4.4-15.6,4.2-23.7"/>
	</g>
	<g id="ARC_724_">
		<path class="st0" d="M1289.4-545.1c-4.3,1.1-8.1,3.7-10.7,7.4"/>
	</g>
	<g id="ARC_725_">
		<path class="st0" d="M1278.7-537.8c-2.9,3.9-5.4,8.1-7.2,12.6"/>
	</g>
	<g id="ARC_726_">
		<path class="st0" d="M1269-524.1c1,0,1.9-0.4,2.5-1.1"/>
	</g>
	<g id="ARC_727_">
		<path class="st0" d="M1264.3-525.5c1.4,1,3,1.5,4.7,1.4"/>
	</g>
	<g id="ARC_728_">
		<path class="st0" d="M1263.9-527.9c-0.4,0.8-0.3,1.8,0.4,2.4"/>
	</g>
	<g id="ARC_729_">
		<path class="st0" d="M1263.9-527.9c1.8-3.4,3.2-7.1,4.2-10.9"/>
	</g>
	<g id="ARC_730_">
		<path class="st0" d="M1270.8-548.8c-1.1,3.3-2,6.7-2.7,10"/>
	</g>
	<g id="ARC_731_">
		<path class="st0" d="M1270.8-548.8c-4.3,1-8.2,3.5-10.9,7"/>
	</g>
	<g id="ARC_732_">
		<path class="st0" d="M1259.9-541.8c-2.3,2.7-4.2,5.7-5.9,8.8"/>
	</g>
	<g id="ARC_733_">
		<path class="st0" d="M1249.6-529.7c1.9-0.4,3.5-1.6,4.4-3.2"/>
	</g>
	<g id="ARC_734_">
		<path class="st0" d="M1245.3-531.7c1.1,1.2,2.6,1.9,4.3,2"/>
	</g>
	<g id="ARC_735_">
		<path class="st0" d="M1244.4-534.5c-0.3,1,0.1,2.1,0.9,2.8"/>
	</g>
	<g id="ARC_736_">
		<path class="st0" d="M1249-546.1c-2.2,3.6-3.8,7.5-4.6,11.6"/>
	</g>
	<g id="ARC_737_">
		<path class="st0" d="M1249-546.1c1-1.7,1.8-3.5,2.4-5.3"/>
	</g>
	<g id="ARC_738_">
		<path class="st0" d="M1251.4-551.4c-1.8-1.5-4.5-1.6-6.4-0.2"/>
	</g>
	<g id="ARC_739_">
		<path class="st0" d="M1245-551.6c-2.9,2.3-5,5.4-6.3,8.9"/>
	</g>
	<g id="ARC_740_">
		<path class="st0" d="M1235.4-535.6c1.4-2.2,2.5-4.6,3.3-7.1"/>
	</g>
	<g id="ARC_741_">
		<path class="st0" d="M1233.2-535.1c0.8,0.2,1.6,0,2.2-0.6"/>
	</g>
	<g id="ARC_742_">
		<path class="st0" d="M1226.5-538c2.1,1.3,4.3,2.3,6.7,2.9"/>
	</g>
	<g id="ARC_743_">
		<path class="st0" d="M1225.3-540.5c-0.2,1,0.3,2,1.2,2.5"/>
	</g>
	<g id="ARC_744_">
		<path class="st0" d="M1231.5-550.7c-2.9,2.8-5,6.4-6.2,10.2"/>
	</g>
	<g id="ARC_745_">
		<path class="st0" d="M1231.5-550.7c1.5-1.1,2.1-3,1.5-4.7"/>
	</g>
	<g id="ARC_746_">
		<path class="st0" d="M1233-555.5c-0.7-1-2-1.4-3.2-0.9"/>
	</g>
	<g id="ARC_747_">
		<path class="st0" d="M1229.8-556.4c-2,0.9-3.6,2.3-4.7,4.1"/>
	</g>
	<g id="ARC_748_">
		<path class="st0" d="M1223.4-551c0.7-0.2,1.3-0.7,1.7-1.3"/>
	</g>
	<g id="ARC_749_">
		<path class="st0" d="M1223.4-551c-2.1,2.1-3.7,4.7-4.7,7.5"/>
	</g>
	<g id="ARC_750_">
		<path class="st0" d="M1215-542.3c1,0.8,2.5,0.6,3.3-0.5c0.2-0.2,0.3-0.5,0.4-0.8"/>
	</g>
	<g id="ARC_751_">
		<path class="st0" d="M1215-542.3c-9-6.3-18.3-12.3-27.8-17.7"/>
	</g>
	<g id="ARC_752_">
		<path class="st0" d="M1186.3-562.1c-0.2,0.8,0.1,1.7,0.9,2.1"/>
	</g>
	<g id="ARC_753_">
		<path class="st0" d="M1186.3-562.1c0.2-0.5,0-1-0.5-1.2c-0.2-0.1-0.5-0.1-0.7,0"/>
	</g>
	<g id="ARC_754_">
		<path class="st0" d="M1183.1-562.6c0.8,0.1,1.5-0.1,2-0.7"/>
	</g>
	<g id="ARC_755_">
		<path class="st0" d="M1182.2-563.5c0.1,0.4,0.5,0.8,0.9,0.9"/>
	</g>
	<g id="ARC_756_">
		<path class="st0" d="M1182.2-563.5c-1.3-1.8-3.1-3.2-5.1-4.1"/>
	</g>
	<g id="ARC_757_">
		<path class="st0" d="M1176.5-568.7c-0.2,0.3,0,0.8,0.3,1c0.1,0.1,0.2,0.1,0.3,0.1"/>
	</g>
	<g id="ARC_758_">
		<path class="st0" d="M1179.7-570.4c-1.1-0.5-2.5,0-3,1.1c-0.1,0.2-0.2,0.6-0.2,0.6"/>
	</g>
	<g id="ARC_759_">
		<path class="st0" d="M1179.7-570.4c2.5-0.4,4.8-1.4,6.7-3"/>
	</g>
	<g id="ARC_760_">
		<path class="st0" d="M1184.4-577.7c0.5,1.5,2.1,4.3,2.1,4.3"/>
	</g>
	<g id="ARC_761_">
		<path class="st0" d="M1180-576.2c1.5-0.2,3-0.8,4.4-1.5"/>
	</g>
	<g id="ARC_762_">
		<path class="st0" d="M1173.9-570.3c2.2-1.7,4.2-3.8,6.1-5.9"/>
	</g>
	<g id="ARC_763_">
		<path class="st0" d="M1167.5-575.1c1.2,2.5,3.7,4.3,6.4,4.8"/>
	</g>
	<g id="ARC_764_">
		<path class="st0" d="M1168.3-576.3c-0.5,0.1-0.9,0.6-0.8,1.2l0,0"/>
	</g>
	<g id="ARC_765_">
		<path class="st0" d="M1168.3-576.3c2-0.7,3.5-2.3,4.1-4.3"/>
	</g>
	<g id="ARC_766_">
		<path class="st0" d="M1172.4-580.6c-0.6-1.4-2-2.4-3.6-2.6"/>
	</g>
	<g id="ARC_767_">
		<path class="st0" d="M1162-576.5c2.6-1.8,4.9-4.1,6.8-6.7"/>
	</g>
	<g id="ARC_768_">
		<path class="st0" d="M1156.5-581.3c1.8,1.7,3.6,3.3,5.5,4.8"/>
	</g>
	<g id="ARC_769_">
		<path class="st0" d="M1157.1-582.7c-0.5,0.2-0.8,0.7-0.7,1.3c0,0.1,0,0,0.1,0.1"/>
	</g>
	<g id="ARC_770_">
		<path class="st0" d="M1157.1-582.7c2.2-0.8,4.2-2,6-3.6"/>
	</g>
	<g id="ARC_771_">
		<path class="st0" d="M1163.1-586.3c-1.1-1.2-3-2-4.6-2"/>
	</g>
	<g id="ARC_772_">
		<path class="st0" d="M1158.5-588.3c-0.8,0-1.7,0.4-2.3,1"/>
	</g>
	<g id="ARC_773_">
		<path class="st0" d="M1153.9-584.1c0.8-1.1,1.6-2.1,2.3-3.2"/>
	</g>
	<g id="ARC_774_">
		<path class="st0" d="M1153-584.3c0.2,0.3,0.7,0.4,0.9,0.2"/>
	</g>
	<g id="ARC_775_">
		<path class="st0" d="M1149.1-589.4c1.2,1.8,2.5,3.5,3.9,5.1"/>
	</g>
	<g id="ARC_776_">
		<path class="st0" d="M1149.6-590.5c-0.4,0.1-0.7,0.5-0.6,0.9c0,0.1,0.1,0.2,0.1,0.2"/>
	</g>
	<g id="ARC_777_">
		<path class="st0" d="M1149.6-590.5c1.9-0.4,3.6-1.5,4.9-2.9"/>
	</g>
	<g id="LINE_183_">
		<line class="st0" x1="1442.7" y1="-559.3" x2="1440.2" y2="-573.9"/>
	</g>
	<g id="LINE_184_">
		<line class="st0" x1="1442.7" y1="-559.3" x2="1451.6" y2="-560.8"/>
	</g>
	<g id="LINE_185_">
		<line class="st0" x1="1451.6" y1="-560.8" x2="1449.4" y2="-573.7"/>
	</g>
	<g id="LINE_186_">
		<line class="st0" x1="1304.7" y1="-557.5" x2="1295.7" y2="-556.5"/>
	</g>
	<g id="LINE_187_">
		<line class="st0" x1="1283.8" y1="-560.9" x2="1274.8" y2="-560.4"/>
	</g>
	<g id="LINE_188_">
		<line class="st0" x1="1266.3" y1="-564.8" x2="1257.3" y2="-564.2"/>
	</g>
	<g id="LINE_189_">
		<line class="st0" x1="1420.1" y1="-555.4" x2="1428.9" y2="-556.9"/>
	</g>
	<g id="LINE_190_">
		<line class="st0" x1="1398.2" y1="-553" x2="1407" y2="-554.5"/>
	</g>
	<g id="LINE_191_">
		<line class="st0" x1="1420.1" y1="-555.4" x2="1417.1" y2="-573.1"/>
	</g>
	<g id="LINE_192_">
		<line class="st0" x1="1428.9" y1="-556.9" x2="1426.5" y2="-571.4"/>
	</g>
	<g id="LINE_193_">
		<line class="st0" x1="1407" y1="-554.5" x2="1404.4" y2="-570.1"/>
	</g>
	<g id="LINE_194_">
		<line class="st0" x1="1398.2" y1="-553" x2="1394.9" y2="-572.2"/>
	</g>
	<g id="LINE_195_">
		<line class="st0" x1="1376.5" y1="-551.7" x2="1385.4" y2="-553.2"/>
	</g>
	<g id="LINE_196_">
		<line class="st0" x1="1357.4" y1="-551.4" x2="1366.3" y2="-552.9"/>
	</g>
	<g id="LINE_197_">
		<line class="st0" x1="1340" y1="-551.9" x2="1348.8" y2="-553.4"/>
	</g>
	<g id="LINE_198_">
		<line class="st0" x1="1318.6" y1="-553.4" x2="1327.5" y2="-554.9"/>
	</g>
	<g id="SPLINE_49_">
		<path class="st0" d="M1426.5-571.4c0.3-0.2,0.7-0.4,1.1-0.7c1.9-1.3,4.4-3.5,5.3-2.1c0.1,0.2,0.2,0.5,0.3,0.8
			c0.1,0.2,0.1,0.5,0.2,0.6c0.3,0.2,0.9-0.1,1.1-0.5s0.2-0.8,0.3-1.1c0.3-0.6,1.3-0.9,2.1-0.8c0.9,0.1,1.6,0.6,2.3,0.9
			c0.3,0.2,0.6,0.3,1,0.4"/>
	</g>
	<g id="SPLINE_50_">
		<path class="st0" d="M1404.4-570.1c0.9,0.1,1.9,0.1,2.8,0c1.9-0.3,3.7-1.1,5.6-2.2c1-0.6,2-1.2,2.9-1.2c0.5,0,0.9,0.2,1.4,0.5"/>
	</g>
	<g id="LINE_199_">
		<line class="st0" x1="1442.7" y1="-559.3" x2="1442.7" y2="-559.3"/>
	</g>
	<g id="LINE_200_">
		<line class="st0" x1="1442.7" y1="-559.3" x2="1442.7" y2="-559.3"/>
	</g>
	<g id="ARC_778_">
		<path class="st0" d="M1492.5-590.5c-1-15.3-3.9-30.4-8.7-45"/>
	</g>
	<g id="ARC_779_">
		<path class="st0" d="M1449.4-573.7c2.7-28.4-1-57-10.8-83.8"/>
	</g>
	<g id="ARC_780_">
		<path class="st0" d="M1442.7-680c-4.4,6.6-5.9,14.8-4.1,22.5"/>
	</g>
	<g id="LINE_201_">
		<line class="st0" x1="1465.6" y1="-646.9" x2="1457.3" y2="-643.5"/>
	</g>
	<g id="LINE_202_">
		<line class="st0" x1="1465.6" y1="-646.9" x2="1452.7" y2="-679.2"/>
	</g>
	<g id="LINE_203_">
		<line class="st0" x1="1457.3" y1="-643.5" x2="1442.7" y2="-680"/>
	</g>
	<g id="ARC_781_">
		<path class="st0" d="M1465.3-674.7c-3-3.8-7.9-5.6-12.6-4.5"/>
	</g>
	<g id="ARC_782_">
		<path class="st0" d="M1483.8-635.5c-4.6-13.8-10.8-26.9-18.5-39.2"/>
	</g>
	<g id="SPLINE_51_">
		<path class="st0" d="M1507.8-553.4c0.7-0.6,1.4-1.2,1.8-2.1c0.8-1.6,0.8-4-0.2-5c-1.4-1.4-4.8-0.1-7.1-0.8
			c-1.3-0.4-2.2-1.6-2.9-2.8c-0.6-1-1.1-2-1.4-3.1"/>
	</g>
	<g id="LINE_204_">
		<line class="st0" x1="1498" y1="-567.2" x2="1483.9" y2="-567"/>
	</g>
	<g id="LINE_205_">
		<line class="st0" x1="1483.8" y1="-576" x2="1483.9" y2="-567"/>
	</g>
	<g id="LINE_206_">
		<line class="st0" x1="1500.1" y1="-576.2" x2="1483.8" y2="-576"/>
	</g>
	<g id="SPLINE_52_">
		<path class="st0" d="M1500.1-576.2c0.4-3.6,4.5-6.2,8-6.4c5.5-0.3,9.6,5,13.3,4.2c2.3-0.6,4.5-3.6,5-6.2c0.3-1.8-0.1-3.3-1.1-4.7"
			/>
	</g>
	<g id="ARC_783_">
		<path class="st0" d="M1187.6-604.1c2.8-10.9,2.4-22.3-1.1-33"/>
	</g>
	<g id="ARC_784_">
		<path class="st0" d="M1186.4-637.1c-2.8-10.4-7.8-20.1-14.6-28.4"/>
	</g>
	<g id="ARC_785_">
		<path class="st0" d="M1172.4-667.2c-0.6,0.3-0.8,1-0.6,1.7"/>
	</g>
	<g id="ARC_786_">
		<path class="st0" d="M1189.4-667.8c-5.6-1.7-11.5-1.5-16.9,0.6"/>
	</g>
	<g id="ARC_787_">
		<path class="st0" d="M1191.8-664.2c0.2-1.6-0.8-3.1-2.4-3.6"/>
	</g>
	<g id="ARC_788_">
		<path class="st0" d="M1191.8-664.2c-1.2,7.8,2.1,15.6,8.5,20.2"/>
	</g>
	<g id="ARC_789_">
		<path class="st0" d="M1216.4-672.1c-2.7,3.4-5,7.1-6.8,11.1"/>
	</g>
	<g id="ARC_790_">
		<path class="st0" d="M1224.9-674.8c-3.1-0.7-6.3,0.4-8.5,2.7"/>
	</g>
	<g id="ARC_791_">
		<path class="st0" d="M1233.2-670.5c-2.3-2.2-5.2-3.7-8.3-4.2"/>
	</g>
	<g id="ARC_792_">
		<path class="st0" d="M1233.2-669.9c0.2-0.2,0.2-0.5,0-0.7"/>
	</g>
	<g id="ARC_793_">
		<path class="st0" d="M1233.2-669.9c-5.9,11.1-9.4,23.3-10.4,35.8"/>
	</g>
	<g id="ARC_794_">
		<path class="st0" d="M1222.8-634.1c-0.2,2.7,0.5,5.5,2,7.8"/>
	</g>
	<g id="ARC_795_">
		<path class="st0" d="M1223-595.3c5.2-9.6,5.9-21,1.8-31.1"/>
	</g>
	<g id="ARC_796_">
		<path class="st0" d="M1223-595.3c-1,2.5-0.7,5.2,0.6,7.5"/>
	</g>
	<g id="SPLINE_53_">
		<path class="st0" d="M1153.5-594.7c-0.1-2.1-0.2-4.2-0.5-6.9c-0.2-1.4-0.4-3,0-4"/>
	</g>
	<g id="LINE_207_">
		<line class="st0" x1="1165.3" y1="-608.1" x2="1160.2" y2="-600.7"/>
	</g>
	<g id="LINE_208_">
		<line class="st0" x1="1165.3" y1="-608.1" x2="1154.1" y2="-615.7"/>
	</g>
	<g id="LINE_209_">
		<line class="st0" x1="1160.2" y1="-600.7" x2="1153" y2="-605.6"/>
	</g>
	<g id="SPLINE_54_">
		<path class="st0" d="M1154.1-615.7c1.2-2.8,5.6-4.3,10-5.8"/>
	</g>
	<g id="LINE_210_">
		<line class="st0" x1="1208.7" y1="-617.4" x2="1199.8" y2="-617.6"/>
	</g>
	<g id="ARC_798_">
		<path class="st0" d="M1525.3-589.3c-10.9-1.4-21.9-1.7-32.9-1.2"/>
	</g>
	<g id="ARC_799_">
		<path class="st0" d="M1154.5-593.3c-0.2-0.6-0.5-1.1-1-1.4"/>
	</g>
	<g id="SPLINE_55_">
		<path class="st0" d="M1164.2-621.5c0.3,0.3,0.7,0.6,1.1,0.7c0.7,0.2,1.4-0.1,2-0.5c1.2-0.8,1.4-2.2,1.4-4s-0.4-4.1-0.2-4.3
			c0.3-0.4,1.6,2.9,2.5,5.4c1,2.7,1.7,4.5,0.8,6.4c-0.5,1.1-1.5,2.2-1.3,3.4c0.1,0.8,0.8,1.5,1.5,1.8c1.1,0.4,2.4-0.5,3.6-0.2
			c0.6,0.2,1.1,0.6,1.1,1.2c0,0.4-0.3,0.9-0.2,1.1c0.1,0.3,1,0,1.7-0.1c1-0.1,1.7,0.2,2.1,0.7s0.5,1.2,0.8,2
			c0.2,0.6,0.6,1.3,1.2,1.5c0.7,0.3,1.7,0.1,2.1,0.9c0.3,0.5,0.2,1.4,0.6,1.4c0.2,0,0.5-0.2,0.7-0.3c0.6-0.3,1.2,0,1.8,0.3"/>
	</g>
	<g id="LINE_211_">
		<line class="st0" x1="1200.3" y1="-644" x2="1199.8" y2="-617.6"/>
	</g>
	<g id="LINE_212_">
		<line class="st0" x1="1209.6" y1="-661" x2="1208.7" y2="-617.4"/>
	</g>
	<g id="LINE_213_">
		<line class="st0" x1="1385.4" y1="-553.2" x2="1383" y2="-567.3"/>
	</g>
	<g id="LINE_214_">
		<line class="st0" x1="1376.5" y1="-551.7" x2="1373.3" y2="-570.3"/>
	</g>
	<g id="LINE_215_">
		<line class="st0" x1="1366.3" y1="-552.9" x2="1363.7" y2="-567.8"/>
	</g>
	<g id="LINE_216_">
		<line class="st0" x1="1357.4" y1="-551.4" x2="1354.1" y2="-570.6"/>
	</g>
	<g id="LINE_217_">
		<line class="st0" x1="1348.8" y1="-553.4" x2="1346.4" y2="-568.1"/>
	</g>
	<g id="LINE_218_">
		<line class="st0" x1="1340" y1="-551.9" x2="1336.5" y2="-572.6"/>
	</g>
	<g id="LINE_219_">
		<line class="st0" x1="1327.5" y1="-554.9" x2="1325" y2="-569.8"/>
	</g>
	<g id="LINE_220_">
		<line class="st0" x1="1318.6" y1="-553.4" x2="1315.3" y2="-573.2"/>
	</g>
	<g id="LINE_221_">
		<line class="st0" x1="1302.5" y1="-576.1" x2="1304.7" y2="-557.5"/>
	</g>
	<g id="LINE_222_">
		<line class="st0" x1="1293.6" y1="-575" x2="1295.7" y2="-556.5"/>
	</g>
	<g id="LINE_223_">
		<line class="st0" x1="1282.8" y1="-579.4" x2="1283.8" y2="-560.9"/>
	</g>
	<g id="LINE_224_">
		<line class="st0" x1="1273.8" y1="-578.4" x2="1274.8" y2="-560.4"/>
	</g>
	<g id="LINE_225_">
		<line class="st0" x1="1265.3" y1="-581.3" x2="1266.3" y2="-564.8"/>
	</g>
	<g id="LINE_226_">
		<line class="st0" x1="1256.2" y1="-581.6" x2="1257.3" y2="-564.2"/>
	</g>
	<g id="SPLINE_56_">
		<path class="st0" d="M1383-567.3c1-0.1,2-0.5,3-0.8c1.9-0.7,3.5-1.2,5.3-2.1c1.2-0.7,2.4-1.5,3.6-2"/>
	</g>
	<g id="SPLINE_57_">
		<path class="st0" d="M1363.7-567.8c1.4,0.1,2.8,0.2,4-0.1c1.2-0.2,2.4-0.8,3.6-1.4c0.7-0.4,1.3-0.7,2-1"/>
	</g>
	<g id="SPLINE_58_">
		<path class="st0" d="M1346.4-568.1c1.3,0.2,2.7,0.4,3.9,0.2c0.7-0.1,1.4-0.3,2-0.8s1.3-1.2,1.8-1.8"/>
	</g>
	<g id="SPLINE_59_">
		<path class="st0" d="M1325-569.8c1,0.5,2,0.9,2.9,0.9c1.2,0,2.4-0.7,3.7-1.5c1.6-1,3.3-2.3,4.9-2.2"/>
	</g>
	<g id="SPLINE_60_">
		<path class="st0" d="M1302.5-576.1c0.1,0,0.1,0.1,0.2,0.1c0.9,0.8,1.4,2,2.4,2.7s2.5,0.7,3.9,0.8c1.9,0.2,3.5,0.6,5.4-0.3
			c0.3-0.1,0.5-0.3,0.8-0.4"/>
	</g>
	<g id="SPLINE_61_">
		<path class="st0" d="M1282.8-579.4c0.8,0.7,1.6,1.7,2.4,2.4c1.8,1.5,4.2,2,6.6,2.1c0.6,0,1.2,0,1.8,0"/>
	</g>
	<g id="SPLINE_62_">
		<path class="st0" d="M1265.3-581.3c1.1,0.5,2.2,0.8,3.3,1.3c1.3,0.6,2.6,1.5,4.1,1.6c0.4,0,0.8,0,1.2,0"/>
	</g>
	<g id="SPLINE_63_">
		<path class="st0" d="M1223.6-587.8c0.6,0.8,1.3,1.5,2,1.9c2.8,1.5,7.2-0.4,10.8-0.5c2.4,0,4.4,0.8,6.8,1.5
			c0.8,0.3,1.7,0.5,2.6,0.2c0.6-0.2,1.1-0.7,1.6-0.6c0.8,0,1.3,1.3,2,2.1c0.9,1,2.2,1,3.5,1.1c1.1,0.1,2.2,0.3,3.3,0.3"/>
	</g>
	<g id="ARC_800_">
		<path class="st0" d="M680.5-521.3c0.9-0.3,1.8-0.8,2.5-1.3"/>
	</g>
	<g id="ARC_801_">
		<path class="st0" d="M680.5-521.3c0.7,0.5,1.5,0.9,2.3,1.2"/>
	</g>
	<g id="ARC_802_">
		<path class="st0" d="M682.8-520.1c0.6,0.2,1.3-0.2,1.5-0.8c0,0,0,0,0-0.1"/>
	</g>
	<g id="ARC_803_">
		<path class="st0" d="M685.2-522.4c-0.6,0.2-1,0.8-0.9,1.4"/>
	</g>
	<g id="ARC_804_">
		<path class="st0" d="M685.2-522.4c1.3,0.9,2.8,1.6,4.4,1.9"/>
	</g>
	<g id="ARC_805_">
		<path class="st0" d="M690.5-518.8c0.3-0.7-0.1-1.4-0.8-1.7l0,0"/>
	</g>
	<g id="ARC_806_">
		<path class="st0" d="M688.6-517.9c0.7-0.1,1.3-0.4,1.8-0.9"/>
	</g>
	<g id="ARC_807_">
		<path class="st0" d="M688.6-517.9c-0.3,0.1-0.6,0.3-0.8,0.5"/>
	</g>
	<g id="ARC_808_">
		<path class="st0" d="M687.9-517.4c0.7,1.3,1.9,2.3,3.4,2.6"/>
	</g>
	<g id="ARC_809_">
		<path class="st0" d="M693.7-516.8c-0.8,0.7-1.7,1.3-2.5,2"/>
	</g>
	<g id="ARC_810_">
		<path class="st0" d="M695.5-516.4c-0.4-0.5-1.2-0.7-1.8-0.4"/>
	</g>
	<g id="ARC_811_">
		<path class="st0" d="M695.5-516.4c1.1,0.5,2.2,0.8,3.4,0.9"/>
	</g>
	<g id="ARC_812_">
		<path class="st0" d="M699.7-514.1c0.3-0.4,0.2-1-0.2-1.3c-0.2-0.1-0.4-0.2-0.6-0.2"/>
	</g>
	<g id="ARC_813_">
		<path class="st0" d="M699.7-514.1c-0.5,0.2-0.8,0.7-0.7,1.3"/>
	</g>
	<g id="ARC_814_">
		<path class="st0" d="M699-512.8c0.5,0.5,1.2,0.8,1.9,0.8"/>
	</g>
	<g id="ARC_815_">
		<path class="st0" d="M700.8-512c0.6-0.3,1-0.9,1.2-1.6"/>
	</g>
	<g id="ARC_816_">
		<path class="st0" d="M702.8-513.9c-0.2-0.2-0.6-0.1-0.7,0.1c0,0.1-0.1,0.1-0.1,0.2"/>
	</g>
	<g id="ARC_817_">
		<path class="st0" d="M702.8-513.9c1.5,0.7,3.2,1.1,4.9,1.3"/>
	</g>
	<g id="ARC_818_">
		<path class="st0" d="M708.2-511.1c0.3-0.5,0.2-1.2-0.3-1.5c-0.1,0-0.1-0.1-0.2-0.1"/>
	</g>
	<g id="ARC_819_">
		<path class="st0" d="M706.8-509.4c0.6-0.4,1.1-1,1.4-1.6"/>
	</g>
	<g id="ARC_820_">
		<path class="st0" d="M710.5-507.8c-1.2-0.7-2.5-1.2-3.8-1.6"/>
	</g>
	<g id="ARC_821_">
		<path class="st0" d="M710.5-507.8c0.9,0,1.5-0.7,1.6-1.6"/>
	</g>
	<g id="ARC_822_">
		<path class="st0" d="M713.3-509.8c-0.4-0.2-0.9-0.1-1.2,0.3"/>
	</g>
	<g id="ARC_823_">
		<path class="st0" d="M713.3-509.8c0.9,0.7,2,1,3.1,0.9"/>
	</g>
	<g id="ARC_824_">
		<path class="st0" d="M717.4-507.1c0.2-0.7-0.1-1.5-0.8-1.7c0,0,0,0-0.1,0"/>
	</g>
	<g id="ARC_825_">
		<path class="st0" d="M717.4-507.1c-0.4,0.3-0.6,0.8-0.3,1.3l0,0"/>
	</g>
	<g id="ARC_826_">
		<path class="st0" d="M717.1-505.8c0.5,0.6,1.3,0.9,2,0.9"/>
	</g>
	<g id="ARC_827_">
		<path class="st0" d="M719.1-504.9c0.4,0,0.8-0.3,0.9-0.7v-0.1"/>
	</g>
	<g id="ARC_828_">
		<path class="st0" d="M721.3-507.5c-0.7-0.1-1.3,0.4-1.4,1.1c0,0.2,0,0.5,0.1,0.7"/>
	</g>
	<g id="ARC_829_">
		<path class="st0" d="M725.4-505.8c-1.2-0.9-2.7-1.5-4.2-1.7"/>
	</g>
	<g id="ARC_830_">
		<path class="st0" d="M725.8-504.2c0.3-0.6,0.1-1.3-0.4-1.7"/>
	</g>
	<g id="ARC_831_">
		<path class="st0" d="M725.8-504.2c0.3,1.2,1.5,2,2.7,1.7c0.2,0,0.3-0.1,0.5-0.2"/>
	</g>
	<g id="ARC_832_">
		<path class="st0" d="M729.1-502.7c0.7-0.2,1.2-0.7,1.4-1.4"/>
	</g>
	<g id="ARC_833_">
		<path class="st0" d="M731.5-504.6c-0.3-0.2-0.7-0.2-0.9,0.1c-0.1,0.1-0.1,0.3-0.1,0.4"/>
	</g>
	<g id="ARC_834_">
		<path class="st0" d="M731.5-504.6c1.3,0.7,2.7,1.1,4.1,1.2"/>
	</g>
	<g id="ARC_835_">
		<path class="st0" d="M736.2-501.5c0.5-0.3,0.6-0.9,0.3-1.4c-0.2-0.3-0.6-0.5-1-0.5"/>
	</g>
	<g id="ARC_836_">
		<path class="st0" d="M736.2-501.5c1,1,2.6,1.1,3.6,0.2"/>
	</g>
	<g id="ARC_837_">
		<path class="st0" d="M740.9-502.4c-0.5,0.1-1,0.5-1.1,1.1"/>
	</g>
	<g id="ARC_838_">
		<path class="st0" d="M740.9-502.4c1.8,0.4,3.7,0.5,5.5,0.3"/>
	</g>
	<g id="ARC_839_">
		<path class="st0" d="M746.1-500.3c0.5-0.5,0.6-1.2,0.3-1.8"/>
	</g>
	<g id="ARC_840_">
		<path class="st0" d="M746.1-500.3c1.1,0.5,2.4,0.1,2.9-0.9"/>
	</g>
	<g id="ARC_841_">
		<path class="st0" d="M754.5-500.6c-1.8-0.4-3.7-0.7-5.5-0.7"/>
	</g>
	<g id="ARC_842_">
		<path class="st0" d="M755.1-498.6c0.1-0.7-0.2-1.4-0.6-2"/>
	</g>
	<g id="ARC_843_">
		<path class="st0" d="M755.1-498.6c1.6,0.2,3.1-0.3,4.4-1.3"/>
	</g>
	<g id="ARC_844_">
		<path class="st0" d="M759.5-499.8c1.5,0.3,3,0.4,4.5,0.1"/>
	</g>
	<g id="ARC_845_">
		<path class="st0" d="M764.5-497.9c0.5-0.3,0.6-0.9,0.3-1.4c-0.2-0.3-0.5-0.5-0.8-0.5"/>
	</g>
	<g id="ARC_846_">
		<path class="st0" d="M764.5-497.9c1,0.1,2.1-0.1,2.9-0.8"/>
	</g>
	<g id="ARC_847_">
		<path class="st0" d="M767.4-498.7c1.3,0.6,2.7,0.8,4.2,0.6"/>
	</g>
	<g id="ARC_848_">
		<path class="st0" d="M772.2-496.6c0.2-0.6-0.1-1.2-0.7-1.5"/>
	</g>
	<g id="ARC_849_">
		<path class="st0" d="M772.2-496.6c0.9,0.7,2.1,0.5,2.8-0.4c0.2-0.2,0.3-0.5,0.4-0.8"/>
	</g>
	<g id="ARC_850_">
		<path class="st0" d="M776.6-498.1c-0.4-0.2-0.9-0.1-1.3,0.3"/>
	</g>
	<g id="ARC_851_">
		<path class="st0" d="M776.6-498.1c1.2,0.5,2.5,0.6,3.8,0.3"/>
	</g>
	<g id="ARC_852_">
		<path class="st0" d="M781.5-496.9c0.1-0.4-0.1-0.8-0.5-0.9c-0.2-0.1-0.4,0-0.6,0.1"/>
	</g>
	<g id="ARC_853_">
		<path class="st0" d="M781.5-496.9c0.8,0.3,1.6-0.1,1.9-0.8l0,0"/>
	</g>
	<g id="ARC_854_">
		<path class="st0" d="M785.3-498c-0.6-0.3-1.3-0.2-1.8,0.3"/>
	</g>
	<g id="ARC_855_">
		<path class="st0" d="M788.6-498.4c-1.1-0.3-2.3-0.1-3.4,0.4"/>
	</g>
	<g id="ARC_856_">
		<path class="st0" d="M788.6-498.4c0.1,0.6,0.6,1,1.1,1.1"/>
	</g>
	<g id="SPLINE_64_">
		<path class="st0" d="M789.8-497.3c0.5-0.1,1.1-0.3,1.5-0.6c0.4-0.3,0.7-0.6,1.1-0.9c0.3-0.2,0.6-0.3,1-0.4c0.4,0,0.9,0.1,1.3,0.2
			c0.7,0.2,1.3,0.3,2-0.1c0.3-0.2,0.7-0.5,1-0.4c0.2,0.1,0.4,0.5,0.6,0.6c0.4,0.2,0.9-0.4,1.4-0.5c0.3-0.1,0.6,0,0.9,0.1
			c0.2,0.1,0.5,0.2,0.7,0.2c0.6,0.1,1.3-0.3,1.9-0.7c0.8-0.5,1.5-1,2.3-0.9c0.3,0.1,0.6,0.2,0.9,0.3c0.5,0.1,1.1,0,1.6-0.1
			c0.6-0.1,1.2-0.2,1.8-0.4c0.6-0.2,1.1-0.6,1.7-0.6c0.3,0,0.6,0.1,1,0.1c0.5,0,0.9-0.1,1.4-0.2c0.7-0.2,1.3-0.6,2-0.7
			c0.4-0.1,0.8-0.1,1.2,0c0.3,0.1,0.5,0.2,0.7,0.2c0.7,0.1,1.5-0.5,2.2-0.8c0.6-0.3,1.2-0.4,1.8-0.7c0.6-0.3,1.2-0.9,1.8-0.7
			c0.2,0.1,0.4,0.3,0.7,0.4c0.5,0.2,1.1-0.1,1.7-0.3c0.6-0.2,1.1-0.4,1.5-0.8c0.3-0.3,0.6-0.8,1-0.9c0.3-0.1,0.7,0.1,1.1,0.2
			c0.9,0.1,1.7-0.6,2.5-0.9c1-0.5,2-0.4,3.3-1.3c0.3-0.2,0.7-0.5,0.9-0.3c0.1,0.1,0.1,0.5,0.3,0.7s0.5-0.1,0.9-0.3
			c1.5-1,2.5-1.1,3.7-1.4c1-0.2,2.1-0.5,3.2-1.2c0.8-0.5,1.6-1.2,2.4-0.9c0.4,0.1,0.8,0.5,1.2,0.5c0.5,0,1-0.6,1.6-0.6
			c0.3,0,0.7,0.2,1,0.3c0.8,0.2,1.6-0.4,2.4-0.9c0.7-0.4,1.5-0.8,2.3-0.9c0.7-0.1,1.5,0,2.2-0.2c0.9-0.2,1.7-0.9,2.6-1
			c0.5-0.1,1,0,1.5,0c1.4-0.1,2.6-0.9,3.8-1.4c0.4-0.2,0.7-0.3,1.1-0.4c1.1-0.4,2.3-0.8,3.4-0.7c0.5,0,0.9,0.1,1.4,0.1
			c1,0,1.9-0.5,2.8-1.1c0.8-0.5,1.7-1,2.6-1c0.4,0,0.9,0.1,1.3,0c0.1,0,0.2-0.1,0.3-0.1c1.3-0.5,2.7-0.3,4-0.6
			c0.9-0.2,1.8-0.7,2.7-1c1-0.3,2-0.4,3-0.5c0.9-0.1,1.7-0.2,2.6-0.4c1.4-0.3,2.7-0.9,4-1.4c1.1-0.4,2.1-0.7,3.2-1.1
			c1-0.3,2.1-0.7,3.2-1c1.6-0.5,3.2-0.8,4.8-1.3c1.1-0.3,2.2-0.7,3.3-1c1.5-0.5,3-0.9,4.5-1.4c1.6-0.6,3.2-1.2,4.9-1.8
			c1-0.4,2.1-0.8,3.1-1.2c1.7-0.7,3.4-1.4,5.1-1.9c2.4-0.7,4.8-1.1,7.3-1.6c1.3-0.3,2.6-0.6,3.8-1c0.7-0.2,1.4-0.5,2.2-0.7
			c0.5-0.2,1.1-0.3,1.6-0.4c0.3-0.1,0.5-0.1,0.8-0.1c0.1,0,0.2,0,0.2,0.1c0.1,0.1,0.1,0.1,0.1,0.2c0,0.1,0,0.2,0,0.2
			c-0.1,0.1-0.2,0.2-0.3,0.3c-0.3,0.2-0.6,0.3-0.9,0.5c-0.4,0.2-0.8,0.5-1.2,0.8c-0.6,0.4-1.4,0.6-2.1,0.8c-0.9,0.3-1.8,0.7-2.7,1
			c-1.1,0.4-2.3,0.9-3.4,1.3c-0.8,0.3-1.7,0.6-2.5,0.9c-0.8,0.3-1.6,0.6-2.4,0.9c-0.8,0.3-1.6,0.6-2.3,0.9c-0.9,0.3-1.7,0.6-2.6,1
			c-0.9,0.3-1.7,0.6-2.6,1c-0.7,0.3-1.5,0.6-2.2,0.8c-2.3,0.9-4.6,1.7-6.9,2.6c-1.8,0.7-3.6,1.4-5.4,2c-1.7,0.6-3.4,1.2-5.1,1.7
			c-2.1,0.7-4.2,1.3-6.3,2c-1.9,0.6-3.8,1.3-5.7,2c-2.1,0.7-4.3,1.4-6.4,2c-1.5,0.5-3,0.9-4.5,1.4c-2.4,0.7-4.8,1.3-7.1,2.1
			c-2.4,0.8-4.7,1.9-7,2.7c-1.7,0.6-3.4,1-5.1,1.6c-1.8,0.6-3.6,1.2-5.5,1.8c-2.9,0.9-5.9,1.5-8.8,2.5c-2,0.7-3.9,1.5-5.9,2.2
			c-3.2,1.1-6.5,1.9-9.7,2.9c-2.6,0.8-5.2,1.7-7.7,2.5c-3.3,1.1-6.6,2-9.9,3.1c-1.7,0.6-3.4,1.2-5,1.9c-1.6,0.7-3,1.6-5.1,1.9
			c-0.9,0.1-1.8,0.2-2.2-0.4c-0.2-0.2-0.2-0.6-0.1-0.9c0.1-0.7,0.7-1.3,0.6-1.8c-0.1-0.4-0.7-0.7-1.3-0.9c-1.7-0.5-3.1,0.2-4.4,1.2
			c-0.3,0.2-0.6,0.5-0.7,0.8c-0.1,0.4,0.2,0.9,0.6,1.3c0.5,0.5,1.1,0.8,1.2,1.3c0.1,0.3-0.1,0.7-0.2,1.1"/>
	</g>
	<g id="SPLINE_65_">
		<path class="st0" d="M793.7-486c-0.7,0.1-1.4,0.2-2.7,0.1c-1,0-2.5-0.1-2.1-0.3c0.1-0.1,0.6-0.1,0.8-0.3c0.7-0.4,0.3-1.5,0.1-2.3
			c-0.1-0.4-0.2-0.7-0.4-0.9c-0.5-0.5-1.6-0.3-2.4,0c-1.2,0.4-1.8,0.9-3.1,1.2c-0.3,0.1-0.7,0.1-0.8,0.3c-0.2,0.3,0.6,1.1,0.6,1.7
			s-1,0.8-1.8,0.7c-0.5-0.1-1-0.3-1.1-0.7c-0.1-0.4,0.4-0.8,0.5-1.3s-0.1-1-0.5-1.3c-0.4-0.4-1-0.6-1.5-0.5
			c-0.9,0.1-1.5,0.9-2.5,0.9c-0.8,0-1.7-0.4-2.1,0c-0.3,0.3-0.2,1-0.6,1.5c-0.3,0.4-1,0.7-1.3,0.5c-0.4-0.2-0.3-0.9-0.5-1.5
			c-0.2-0.5-0.7-0.8-1.2-1c-0.9-0.4-1.8-0.6-2.7-0.6c-1.3-0.1-2.7,0-3.6,0.7c-0.5,0.4-0.8,1-1.4,1.4c-0.3,0.2-0.7,0.4-1,0.4
			c-0.4-0.1-0.4-0.9-0.5-1.5c-0.1-0.4-0.2-0.7-0.4-1c-0.5-0.6-1.7-0.6-2.7-0.5c-1.3,0.1-2.3,0.2-3.3,0.7c-0.6,0.3-1.1,0.7-1.8,0.7
			c-0.3,0-0.7-0.1-0.9-0.3c-0.2-0.2-0.2-0.6-0.3-0.8c-0.3-0.8-1.4-1-2.3-1c-1.4-0.1-2.6,0.2-3.8,0.6c-0.5,0.1-0.9,0.3-1.4,0.5
			c-0.2,0.1-0.5,0.3-0.7,0.3c-0.4,0-0.7-0.7-1-1.2c-0.8-1.1-2.1-1.2-3.4-1.2c-1.1,0-2.2-0.1-3.1,0.1c-0.7,0.1-1.4,0.4-1.9,2.1
			c-0.3,1-0.5,2.4-0.6,2.7c-0.3,0.6-0.5-2-1.1-3.6c-0.8-2.2-2.3-2.6-3.5-2.8c-1.2-0.2-2.2-0.3-3.2,1.5c-0.6,1.1-1.3,2.9-1.8,2.7
			c-0.5-0.1-0.8-1.8-1.2-3c-0.7-2.1-1.5-2.5-2.4-2.7c-0.8-0.2-1.7-0.2-2.5-0.2c-0.9-0.1-1.8-0.2-2.8,2.2c-0.4,1.1-0.9,2.7-1.1,1.7
			c-0.1-0.4-0.2-1.2-0.3-1.9c-0.3-2.2-0.7-2.6-1.2-2.9c-0.9-0.5-2.1-0.6-3.2-0.9c-0.8-0.2-1.6-0.7-2.4,0.7c-0.8,1.4-1.7,4.7-2.2,3.7
			c-0.2-0.4-0.4-1.8-0.5-2.8c-0.7-3.6-2-4-3.4-4.5c-1-0.4-2-0.8-2.9-0.8c-1,0-1.9,0.4-3,2.1c-0.7,1.1-1.5,2.7-1.9,1.8
			c-0.2-0.4-0.3-1.5-0.5-2.2c-0.2-1.3-0.4-1.8-0.7-2.3c-0.5-0.7-1.3-1.2-2.2-1.6s-1.8-0.8-2.7-0.7c-0.8,0.1-1.5,0.6-2.2,2
			c-0.5,1-0.9,2.6-1.4,1.8c-0.4-0.5-0.7-2.2-1-3.3c-0.3-1.3-0.5-1.9-0.8-2.3c-0.6-0.8-1.6-1.4-2.6-1.8c-0.9-0.4-1.9-0.7-2.8,0.6
			c-0.8,1.2-1.7,3.6-2.3,2.4c-0.2-0.5-0.4-1.5-0.6-2.3c-0.4-1.8-0.7-2.4-1-3.2c-0.4-0.9-0.8-2.1-1.6-2.4c-0.6-0.3-1.3-0.1-2.1,0.6
			c-1.1,1-2.4,3.3-3.2,2.6c-0.5-0.4-0.8-1.9-1.1-3c-0.4-1.8-0.4-2.9-0.8-3.7c-0.4-0.8-1-1.4-1.8-1.8c-0.8-0.5-1.8-0.7-2.7,1.2
			c-0.8,1.6-1.6,4.9-2.1,4.2c-0.3-0.5-0.4-2.7-0.6-4.3c-0.4-3.2-1.2-3.9-1.9-4.6c-0.6-0.6-1.3-1.3-2.1-1.7c-0.6-0.3-1.3-0.5-1.9,0.8
			c-0.6,1.3-1,3.9-1.4,3.6c-0.3-0.2-0.6-2-0.9-3.3c-0.7-3.3-1.3-4.3-2.3-4.9c-0.7-0.4-1.5-0.7-2.4,0.5c-1.1,1.5-2.2,5.2-3.1,3.7
			c-0.5-0.8-0.9-2.8-1.1-4.2c-0.3-1.7-0.4-2.3-0.6-3c-0.2-0.9-0.4-1.7-0.9-2.3c-0.5-0.7-1.4-1-2.3-1.4c-0.8-0.3-1.6-0.7-2.5,0.7
			c-0.8,1.3-1.7,4.3-2.2,3.2c-0.3-0.5-0.4-2.1-0.5-3.2c-0.1-2.3,0.1-3-0.1-3.8c-0.2-0.7-0.8-1.5-1.4-2c-0.7-0.5-1.5-0.9-2.4,0
			c-1.4,1.3-3.2,5.6-4,3.2c-0.2-0.8-0.4-2.2-0.5-3.4c-0.3-2.7-0.5-3.6-1.1-4.4c-0.7-0.9-1.8-1.6-2.9-1.9c-0.8-0.2-1.6-0.1-2.5,2
			c-0.5,1.1-1.1,2.9-1.5,3.1c-0.6,0.4-0.9-2.7-1.3-4.5c-0.5-2.5-1-2.5-1.4-2.9c-0.4-0.3-0.7-0.9-1.5,0c-1.1,1.3-3,5.6-3.6,2.7
			c-0.1-0.7-0.2-1.7-0.3-2.6c-0.3-3.2-0.6-4.6-0.9-5.6c-0.3-1.2-0.7-1.7-1.5-2.3s-2.2-1.2-3.4,1.2c-0.9,1.6-1.7,4.5-2.5,3.9
			s-1.7-4.8-2.5-6.6s-1.6-1.2-2-0.9c-0.4,0.2-0.6,0.3-1,1.2c-0.7,1.4-2,4.8-2.5,3.1c-0.3-1-0.3-3.9-0.4-5.6c-0.3-3-1.1-2.6-1.7-2.8
			c-0.6-0.1-1-0.7-1.7,0.3c-1.1,1.6-2.8,6.9-3.5,3.5c-0.3-1.5-0.5-4.9-1-6.9c-0.3-1.3-0.8-2-1.4-2.4"/>
	</g>
	<g id="ARC_857_">
		<path class="st0" d="M591.4-593.5c1.2,0.9,3,0.7,3.9-0.5c0.1-0.1,0.1-0.2,0.2-0.2"/>
	</g>
	<g id="ARC_858_">
		<path class="st0" d="M598.1-596.3c-1.2,0-2.3,0.8-2.6,2"/>
	</g>
	<g id="ARC_859_">
		<path class="st0" d="M599.7-595.4c-0.3-0.5-0.9-0.9-1.6-0.9"/>
	</g>
	<g id="ARC_860_">
		<path class="st0" d="M599.7-595.4c0.6,0.9,1.4,1.7,2.3,2.4"/>
	</g>
	<g id="ARC_861_">
		<path class="st0" d="M602.7-590.9c0.2-0.8-0.1-1.6-0.7-2.1"/>
	</g>
	<g id="ARC_862_">
		<path class="st0" d="M601.1-590.1c0.6,0,1.2-0.3,1.6-0.8"/>
	</g>
	<g id="ARC_863_">
		<path class="st0" d="M601.1-590.1c-1.2,0.1-2.3,0.8-2.9,1.9"/>
	</g>
	<g id="ARC_864_">
		<path class="st0" d="M598.2-588.2c0.5,1.6,2.2,2.6,3.8,2.1c0.3-0.1,0.6-0.2,0.9-0.4"/>
	</g>
	<g id="ARC_865_">
		<path class="st0" d="M605-588.1c-0.8,0.4-1.5,1-2.1,1.6"/>
	</g>
	<g id="ARC_866_">
		<path class="st0" d="M607.1-588.1c-0.6-0.5-1.5-0.5-2.1,0"/>
	</g>
	<g id="ARC_867_">
		<path class="st0" d="M608.8-586.2c-0.4-0.8-1-1.4-1.7-1.9"/>
	</g>
	<g id="ARC_868_">
		<path class="st0" d="M611.1-583.3c0-1.4-0.9-2.6-2.3-2.9"/>
	</g>
	<g id="ARC_869_">
		<path class="st0" d="M608.3-582.2c1,0.1,2.1-0.3,2.8-1.1"/>
	</g>
	<g id="ARC_870_">
		<path class="st0" d="M608.3-582.2c-1.1-0.2-2.3,0.2-3,1.1"/>
	</g>
	<g id="ARC_871_">
		<path class="st0" d="M605.3-581.1c0.8,1.3,2.4,1.8,3.8,1.1"/>
	</g>
	<g id="ARC_872_">
		<path class="st0" d="M609.1-580c0.9-0.3,1.8-0.8,2.6-1.4"/>
	</g>
	<g id="ARC_873_">
		<path class="st0" d="M613-581.3c-0.3-0.4-0.9-0.4-1.2-0.1l0,0"/>
	</g>
	<g id="ARC_874_">
		<path class="st0" d="M613-581.3c0.9,1.4,2.2,2.6,3.6,3.4"/>
	</g>
	<g id="ARC_875_">
		<path class="st0" d="M616.8-576.8c0.2-0.3,0.2-0.8-0.1-1c0,0,0,0-0.1,0"/>
	</g>
	<g id="ARC_876_">
		<path class="st0" d="M615.8-576.5c0.3,0,0.7-0.2,0.9-0.4"/>
	</g>
	<g id="ARC_877_">
		<path class="st0" d="M615.8-576.5c-1.8,0.1-3.5,0.9-4.8,2.2"/>
	</g>
	<g id="ARC_878_">
		<path class="st0" d="M611-574.3c0.8,1.5,2.4,2.5,4.2,2.7"/>
	</g>
	<g id="ARC_879_">
		<path class="st0" d="M615.2-571.6c1.1,0,2.1-0.4,2.9-1.1"/>
	</g>
	<g id="ARC_880_">
		<path class="st0" d="M619.2-575.6c-0.7,0.8-1,1.8-1.1,2.8"/>
	</g>
	<g id="ARC_881_">
		<path class="st0" d="M624.4-570.6c-1.2-2.1-3-3.9-5.1-5"/>
	</g>
	<g id="ARC_882_">
		<path class="st0" d="M624-569.1c0.4-0.4,0.6-0.9,0.4-1.5"/>
	</g>
	<g id="ARC_883_">
		<path class="st0" d="M622.7-568.5c0.5,0,0.9-0.2,1.3-0.6"/>
	</g>
	<g id="ARC_884_">
		<path class="st0" d="M622.7-568.5c-1.4,0.1-2.7,0.7-3.7,1.7"/>
	</g>
	<g id="ARC_885_">
		<path class="st0" d="M619-566.8c1.4,1.6,3.9,1.7,5.5,0.3c0.1-0.1,0.2-0.2,0.3-0.3"/>
	</g>
	<g id="ARC_886_">
		<path class="st0" d="M626.3-568c-0.7,0.2-1.2,0.6-1.6,1.2"/>
	</g>
	<g id="ARC_887_">
		<path class="st0" d="M627.8-567.2c-0.2-0.6-0.9-1-1.5-0.8"/>
	</g>
	<g id="ARC_888_">
		<path class="st0" d="M627.8-567.2c0.6,1,1.4,1.9,2.5,2.5"/>
	</g>
	<g id="ARC_889_">
		<path class="st0" d="M629.7-562.6c0.6,0,1.1-0.6,1.1-1.3c0-0.4-0.2-0.7-0.5-0.9"/>
	</g>
	<g id="ARC_890_">
		<path class="st0" d="M629.7-562.6c-0.4,0.1-0.8,0.4-1,0.8"/>
	</g>
	<g id="ARC_891_">
		<path class="st0" d="M625.5-560.1c1.2-0.3,2.3-0.9,3.2-1.7"/>
	</g>
	<g id="ARC_892_">
		<path class="st0" d="M625.5-560.1c0.5,1.3,2.1,2,3.4,1.4c0.3-0.1,0.6-0.3,0.9-0.6"/>
	</g>
	<g id="ARC_893_">
		<path class="st0" d="M632-561.5c-0.8,0.7-1.6,1.4-2.2,2.3"/>
	</g>
	<g id="ARC_894_">
		<path class="st0" d="M633.7-561.4c-0.4-0.5-1.2-0.5-1.6-0.1"/>
	</g>
	<g id="ARC_895_">
		<path class="st0" d="M637.3-557.9c-1-1.4-2.2-2.6-3.6-3.5"/>
	</g>
	<g id="ARC_896_">
		<path class="st0" d="M636.6-556.6c0.5-0.2,0.8-0.8,0.7-1.4"/>
	</g>
	<g id="ARC_897_">
		<path class="st0" d="M636.6-556.6c-1,0.4-2,0.8-3,1.4"/>
	</g>
	<g id="ARC_898_">
		<path class="st0" d="M633.7-555.2c-0.4,0.4-0.4,1.1,0,1.5l0.1,0.1"/>
	</g>
	<g id="ARC_899_">
		<path class="st0" d="M633.8-553.6c1.1,1.5,3.2,1.8,4.7,0.8"/>
	</g>
	<g id="ARC_900_">
		<path class="st0" d="M638.6-552.8c0.9-0.5,1.4-1.4,1.4-2.4"/>
	</g>
	<g id="ARC_901_">
		<path class="st0" d="M641.4-555.5c-0.2-0.4-0.6-0.5-0.9-0.4c-0.3,0.1-0.5,0.4-0.4,0.7"/>
	</g>
	<g id="ARC_902_">
		<path class="st0" d="M644.7-553.4c-1-0.9-2.1-1.6-3.3-2.1"/>
	</g>
	<g id="ARC_903_">
		<path class="st0" d="M644.1-550.9c0.8-0.3,1.2-1.1,0.9-1.9c-0.1-0.2-0.2-0.4-0.4-0.6"/>
	</g>
	<g id="ARC_904_">
		<path class="st0" d="M644.1-550.9c-1.2,0.4-2.2,1.2-2.8,2.4"/>
	</g>
	<g id="ARC_905_">
		<path class="st0" d="M641.4-548.5c0.4,1.8,2.2,2.9,3.9,2.5"/>
	</g>
	<g id="ARC_906_">
		<path class="st0" d="M645.3-546.1c0.9-0.2,1.5-1,1.5-1.9"/>
	</g>
	<g id="ARC_907_">
		<path class="st0" d="M648.4-549.8c-0.9,0.2-1.5,0.9-1.6,1.8"/>
	</g>
	<g id="ARC_908_">
		<path class="st0" d="M649.9-548.8c-0.2-0.6-0.9-1.1-1.6-1"/>
	</g>
	<g id="ARC_909_">
		<path class="st0" d="M649.9-548.8c0.3,1,1.2,1.6,2.3,1.7"/>
	</g>
	<g id="ARC_910_">
		<path class="st0" d="M653.3-545.3c0.4-0.4,0.4-1.1-0.1-1.6c-0.3-0.3-0.7-0.4-1-0.3"/>
	</g>
	<g id="ARC_911_">
		<path class="st0" d="M648.8-542.4c1.8-0.4,3.3-1.5,4.5-2.9"/>
	</g>
	<g id="ARC_912_">
		<path class="st0" d="M648.8-542.4c1.6,1.8,4.4,2,6.2,0.4c0.2-0.1,0.3-0.3,0.5-0.5"/>
	</g>
	<g id="ARC_913_">
		<path class="st0" d="M656.6-542.4c-0.2-0.3-0.7-0.3-1-0.1c0,0,0,0-0.1,0.1"/>
	</g>
	<g id="ARC_914_">
		<path class="st0" d="M656.6-542.4c0.9,1,2.2,1.6,3.6,1.8"/>
	</g>
	<g id="ARC_915_">
		<path class="st0" d="M660.4-539.6c0.2-0.3,0.2-0.8-0.1-1c0,0-0.1,0-0.1-0.1"/>
	</g>
	<g id="ARC_916_">
		<path class="st0" d="M656.7-537c1.5-0.4,2.8-1.3,3.7-2.6"/>
	</g>
	<g id="ARC_917_">
		<path class="st0" d="M656.7-537c0.6,1.5,2.4,2.3,3.9,1.7c0.1,0,0.1-0.1,0.2-0.1"/>
	</g>
	<g id="ARC_918_">
		<path class="st0" d="M664.1-536.4c-1.2,0-2.4,0.3-3.4,1.1"/>
	</g>
	<g id="ARC_919_">
		<path class="st0" d="M664.1-536.4c0.9,0.8,1.9,1.3,3.1,1.5"/>
	</g>
	<g id="ARC_920_">
		<path class="st0" d="M667.5-533.5c0.3-0.4,0.2-1.1-0.2-1.4l0,0"/>
	</g>
	<g id="ARC_921_">
		<path class="st0" d="M664.3-531.6c1.2-0.3,2.3-0.9,3.1-1.9"/>
	</g>
	<g id="ARC_922_">
		<path class="st0" d="M664.3-531.6c0.4,1.4,1.9,2.2,3.4,1.8c0.2-0.1,0.3-0.1,0.5-0.2"/>
	</g>
	<g id="ARC_923_">
		<path class="st0" d="M668.2-530c0.5-0.3,0.8-0.8,1-1.3"/>
	</g>
	<g id="ARC_924_">
		<path class="st0" d="M670.5-532c-0.4-0.3-1-0.1-1.2,0.3c-0.1,0.1-0.1,0.2-0.1,0.3"/>
	</g>
	<g id="ARC_925_">
		<path class="st0" d="M670.5-532c1,1,2.3,1.8,3.6,2.1"/>
	</g>
	<g id="ARC_926_">
		<path class="st0" d="M674.6-528.2c0.4-0.2,0.6-0.8,0.4-1.2c-0.2-0.3-0.5-0.5-0.8-0.5"/>
	</g>
	<g id="ARC_927_">
		<path class="st0" d="M674.6-528.2c-1.1,0.5-1.9,1.5-2,2.8"/>
	</g>
	<g id="ARC_928_">
		<path class="st0" d="M674.4-524c-0.4-0.6-1-1.1-1.8-1.4"/>
	</g>
	<g id="ARC_929_">
		<path class="st0" d="M674.4-524c0.3,0.3,0.7,0.3,1,0l0.1-0.1"/>
	</g>
	<g id="ARC_930_">
		<path class="st0" d="M677.9-526.4c-1,0.5-1.8,1.3-2.4,2.2"/>
	</g>
	<g id="ARC_931_">
		<path class="st0" d="M677.9-526.4c1.7,0.9,3.4,1.6,5.1,2.3"/>
	</g>
	<g id="ARC_932_">
		<path class="st0" d="M683-522.7c0.4-0.3,0.5-0.9,0.1-1.3l-0.1-0.1"/>
	</g>
	<g id="SPLINE_66_">
		<path class="st0" d="M591.4-593.5c0.1,2.1,0.1,4.2,0.4,6.9c0.1,1.4,0.3,3-0.1,4"/>
	</g>
	<g id="LINE_227_">
		<line class="st0" x1="599.9" y1="-565.6" x2="605.2" y2="-572.9"/>
	</g>
	<g id="LINE_228_">
		<line class="st0" x1="590.4" y1="-572.5" x2="599.9" y2="-565.6"/>
	</g>
	<g id="LINE_229_">
		<line class="st0" x1="591.7" y1="-582.5" x2="605.2" y2="-572.9"/>
	</g>
	<g id="SPLINE_67_">
		<path class="st0" d="M590.4-572.5c-1.3,2.8-5.7,4.2-10.2,5.6"/>
	</g>
	<g id="LINE_230_">
		<line class="st0" x1="811.3" y1="-575.1" x2="815.4" y2="-595.4"/>
	</g>
	<g id="LINE_231_">
		<line class="st0" x1="806.6" y1="-597.2" x2="802.5" y2="-576.9"/>
	</g>
	<g id="LINE_232_">
		<line class="st0" x1="873.4" y1="-537.7" x2="876.2" y2="-551.6"/>
	</g>
	<g id="LINE_233_">
		<line class="st0" x1="885" y1="-549.8" x2="882.1" y2="-535.4"/>
	</g>
	<g id="LINE_234_">
		<line class="st0" x1="879.8" y1="-610.4" x2="882.7" y2="-624.8"/>
	</g>
	<g id="ARC_933_">
		<path class="st0" d="M825.3-644.9c-1.1-2.8-4.2-4.1-7-3c-0.7,0.3-1.3,0.7-1.8,1.2"/>
	</g>
	<g id="LINE_235_">
		<line class="st0" x1="876.2" y1="-551.6" x2="879" y2="-565.5"/>
	</g>
	<g id="LINE_236_">
		<line class="st0" x1="887.8" y1="-563.7" x2="885" y2="-549.8"/>
	</g>
	<g id="LINE_237_">
		<line class="st0" x1="871" y1="-612.2" x2="879.8" y2="-610.4"/>
	</g>
	<g id="LINE_238_">
		<line class="st0" x1="815.4" y1="-595.4" x2="806.6" y2="-597.2"/>
	</g>
	<g id="LINE_239_">
		<line class="st0" x1="871" y1="-612.2" x2="873.8" y2="-626.2"/>
	</g>
	<g id="LINE_240_">
		<line class="st0" x1="879" y1="-565.5" x2="887.8" y2="-563.7"/>
	</g>
	<g id="LINE_241_">
		<line class="st0" x1="730.7" y1="-566.4" x2="733.5" y2="-580.3"/>
	</g>
	<g id="LINE_242_">
		<line class="st0" x1="724.7" y1="-582" x2="721.8" y2="-567.6"/>
	</g>
	<g id="LINE_243_">
		<line class="st0" x1="752.9" y1="-635.9" x2="755.8" y2="-650.3"/>
	</g>
	<g id="LINE_244_">
		<line class="st0" x1="733.5" y1="-580.3" x2="736.3" y2="-594.2"/>
	</g>
	<g id="LINE_245_">
		<line class="st0" x1="727.5" y1="-595.9" x2="724.7" y2="-582"/>
	</g>
	<g id="LINE_246_">
		<line class="st0" x1="761.7" y1="-634.1" x2="752.9" y2="-635.9"/>
	</g>
	<g id="LINE_247_">
		<line class="st0" x1="761.7" y1="-634.1" x2="764.5" y2="-648.2"/>
	</g>
	<g id="LINE_248_">
		<line class="st0" x1="736.3" y1="-594.2" x2="727.5" y2="-595.9"/>
	</g>
	<g id="SPLINE_68_">
		<path class="st0" d="M825.3-644.9c1.1,3.4,2.7,6.5,5.3,8.5c2,1.5,4.5,2.3,7.8,3.2c5.8,1.7,13.8,3.8,22.5,5.2
			c4.2,0.7,8.6,1.2,12.9,1.8"/>
	</g>
	<g id="SPLINE_69_">
		<path class="st0" d="M816.5-646.7c-2.3,2.7-5,5-8.1,5.8c-2.4,0.6-5.1,0.4-8.5,0c-6-0.7-14.2-1.8-22.8-3.9c-4.2-1-8.4-2.2-12.6-3.4
			"/>
	</g>
	<g id="SPLINE_70_">
		<path class="st0" d="M730.7-566.4c8.6,0.3,17.8-1.5,25.4-3.5c10.4-2.7,17.5-5.7,23.4-6.9c5-0.9,9.1-0.5,13.4-0.4
			c3.1,0.1,6.3,0,9.6,0.2"/>
	</g>
	<g id="SPLINE_71_">
		<path class="st0" d="M873.4-537.7c-8.1-3.1-15.9-8.3-22-13c-8.5-6.5-13.9-12-18.9-15.4c-4.2-2.8-8.2-4-12.2-5.6
			c-2.9-1.1-5.8-2.4-8.9-3.5"/>
	</g>
	<g id="SPLINE_72_">
		<path class="st0" d="M882.7-624.8c11.3,11,13.2,13.9,14.9,17.5c3.3,6.8,5.9,15.9,6.7,25.3c0.6,7.8,0,15.7-3,24.6
			c-3.1,9.4-8.8,20-18.2,22c-0.3,0.1-0.7,0.1-1.1,0.1"/>
	</g>
	<g id="SPLINE_73_">
		<path class="st0" d="M755.8-650.3c-14.6,5.8-17.5,7.7-20.5,10.3c-5.7,5-11.6,12.4-15.9,20.7c-3.6,6.9-6.1,14.5-6.8,23.9
			c-0.8,9.9,0.4,21.9,8.3,27.3c0.3,0.2,0.6,0.4,1,0.5"/>
	</g>
	<g id="ARC_934_">
		<path class="st0" d="M1335.4-672.5c5.7,5,12.8,7.9,20.3,8.3"/>
	</g>
	<g id="LINE_252_">
		<line class="st0" x1="1335.4" y1="-672.5" x2="1335.4" y2="-628.7"/>
	</g>
	<g id="LINE_253_">
		<line class="st0" x1="1386.7" y1="-629.2" x2="1395.6" y2="-629.2"/>
	</g>
	<g id="LINE_254_">
		<line class="st0" x1="1395.6" y1="-629.2" x2="1395.6" y2="-586.7"/>
	</g>
	<g id="LINE_255_">
		<line class="st0" x1="1386.7" y1="-585.6" x2="1386.7" y2="-629.2"/>
	</g>
	<g id="LINE_256_">
		<line class="st0" x1="1376.8" y1="-661.7" x2="1367.8" y2="-643.5"/>
	</g>
	<g id="LINE_257_">
		<line class="st0" x1="1367.8" y1="-643.5" x2="1359.7" y2="-647.4"/>
	</g>
	<g id="LINE_258_">
		<line class="st0" x1="1367.5" y1="-663.2" x2="1359.7" y2="-647.4"/>
	</g>
	<g id="ARC_935_">
		<path class="st0" d="M1367.5-663.2c-3.9-0.5-7.8-0.8-11.8-1"/>
	</g>
	<g id="ARC_936_">
		<path class="st0" d="M1306.1-664.2c7.5-0.4,14.7-3.3,20.3-8.3"/>
	</g>
	<g id="LINE_259_">
		<line class="st0" x1="1275.2" y1="-629.2" x2="1266.2" y2="-629.2"/>
	</g>
	<g id="ARC_937_">
		<path class="st0" d="M1340.5-594.9c-5.6-4.5-13.6-4.5-19.3,0"/>
	</g>
	<g id="LINE_260_">
		<line class="st0" x1="1326.4" y1="-672.5" x2="1326.4" y2="-628.7"/>
	</g>
	<g id="LINE_261_">
		<line class="st0" x1="1285" y1="-661.7" x2="1294" y2="-643.5"/>
	</g>
	<g id="LINE_262_">
		<line class="st0" x1="1294" y1="-643.5" x2="1302.1" y2="-647.4"/>
	</g>
	<g id="ARC_938_">
		<path class="st0" d="M1306.1-664.2c-3.9,0.1-7.9,0.5-11.8,1"/>
	</g>
	<g id="ARC_939_">
		<path class="st0" d="M1285-661.7c-18-0.7-34.1,11.3-38.6,28.7"/>
	</g>
	<g id="LINE_263_">
		<line class="st0" x1="1294.3" y1="-663.2" x2="1302.1" y2="-647.4"/>
	</g>
	<g id="ARC_940_">
		<path class="st0" d="M1246.4-633c-2.6,17.9,5,35.7,19.8,46.3"/>
	</g>
	<g id="LINE_264_">
		<line class="st0" x1="1266.2" y1="-629.2" x2="1266.2" y2="-586.7"/>
	</g>
	<g id="LINE_265_">
		<line class="st0" x1="1275.2" y1="-585.6" x2="1275.2" y2="-629.2"/>
	</g>
	<g id="ARC_941_">
		<path class="st0" d="M1275.2-585.6c16,4.2,33,0.8,46.1-9.3"/>
	</g>
	<g id="ARC_942_">
		<path class="st0" d="M1395.6-586.7c14.7-10.5,22.3-28.4,19.8-46.3"/>
	</g>
	<g id="ARC_943_">
		<path class="st0" d="M1415.4-633c-4.5-17.5-20.6-29.4-38.6-28.7"/>
	</g>
	<g id="ARC_944_">
		<path class="st0" d="M1340.5-594.9c13.1,10.1,30.1,13.5,46.1,9.3"/>
	</g>
	<g id="LINE_267_">
		<line class="st0" x1="1326.4" y1="-628.7" x2="1335.4" y2="-628.7"/>
	</g>
</g>
<g id="ETCH">
</g>
<g id="SPLINE_1_">
	<path class="st0" d="M1227.6-272.1L1227.6-272.1L1227.6-272.1z"/>
	<path class="st0" d="M1250.9-261.4c-3.4,0.3-6.6,1.8-9,4.2c-4.3,4.3-7.4,9.7-9,15.6v-0.1c-3.5,2-7.6,2.5-11.5,1.7
		c-0.7-0.3-1-1.1-0.8-1.9c0.9-5.4,1-11,0.1-16.4c-1.4-0.4-2.8,0-3.8,1.1c-2.6,2.9-4.4,6.5-5.3,10.3l0.1-0.1c-1,3.3-2.1,6.5-3.4,9.6
		c-1,2.1-3,3.4-5.3,3.5c-1.4,0.2-2.9-0.2-4.1-1.1c-0.7-0.7-1-1.5-1.1-2.4v0.1c-0.4-2.6-0.4-5.2,0-7.7c0.6-3.4,0.4-6.8-0.6-10.1h0.1
		c-0.2-0.6-0.9-0.9-1.4-0.7c-0.2,0.1-0.3,0.2-0.5,0.3v0.1c-2,2.2-3.4,5-3.9,8l-0.1-0.1c-1.6,5.2-3.4,10.3-5.3,15.4
		c-0.8,1.8-2.3,3.2-4.2,3.9c-1,0.4-2,0.4-3,0c-1.2-0.7-1.9-2.1-1.6-3.4c1.3-4,2.2-8.1,2.8-12.2c0.4-2.5,0.3-5.1-0.4-7.5
		c-0.3-1.3-1.6-2.1-2.9-1.8c-0.3,0.1-0.7,0.2-0.9,0.4c-2.7,2.3-4.7,5.3-5.9,8.6c-3.3,7.4-6.5,14.8-9.6,22.3c-1.6,1.2-3.7,1-5-0.5
		c1.8-7.7,2.7-15.6,2.6-23.5c-0.1-1.9-0.5-3.7-1.3-5.4c-3.2,0.5-6,2.5-7.6,5.4v0.1c-2.1,3.6-3.8,7.3-5.4,11.1v-0.1
		c-0.7,3.5-2.1,6.7-4.1,9.6h0.1c-0.2,0.2-0.3,0.3-0.5,0.4c-1.6,1-3.7,0.5-4.6-1.1c0-2.5,0.4-4.9,1.2-7.3c1.8-6.4,2.5-13.1,1.9-19.7
		c-2.5-0.4-5,0.6-6.6,2.5c-4.4,5.6-7.8,12-10.2,18.7c-0.4,0.8-0.5,1.8-0.4,2.7h-0.1c0,1.3-1,2.4-2.3,2.7c-1.9,0.9-4.2,0.3-5.4-1.4
		c-0.3-0.8-0.5-1.6-0.3-2.4c2.4-5.7,4.1-11.7,4.9-17.9c0.1-1.7,0.5-3.5,1.4-5c-1.3-0.3-2.7-0.1-3.8,0.7h0.1c-3.8,2.6-7,6.1-9.4,10
		h-0.1c-1.8,2.9-3.4,5.8-4.8,8.9c-0.7,1.9-2.1,3.6-3.8,4.8l-0.1,0.1c-1.8,0.5-3.8-0.3-4.8-1.9h0.1c-0.2-1.9,0.2-3.7,1.1-5.3
		c2.7-5.8,3.9-12.2,3.6-18.5c-4.3,1-8,3.6-10.4,7.2c-3.2,4.4-6,9.1-8.4,14c-0.6,0.9-1.7,1.5-2.8,1.4c-1.4,0.1-2.8-0.1-4.1-0.8
		c-0.7-0.4-1.1-1.1-1-1.9c3-7.5,4.4-15.6,4.2-23.7c-4.3,1.1-8.1,3.7-10.7,7.4v-0.1c-2.9,3.9-5.4,8.1-7.2,12.6
		c-0.6,0.7-1.5,1.1-2.5,1.1c-1.7,0.1-3.3-0.4-4.7-1.4c-0.7-0.6-0.8-1.6-0.4-2.4c1.8-3.4,3.2-7.1,4.2-10.9c0.7-3.3,1.6-6.7,2.7-10
		c-4.3,1-8.2,3.5-10.9,7c-2.3,2.7-4.2,5.7-5.9,8.8v0.1c-0.9,1.6-2.5,2.8-4.4,3.2c-1.7-0.1-3.2-0.8-4.3-2c-0.8-0.7-1.2-1.8-0.9-2.8
		c0.8-4.1,2.4-8,4.6-11.6c1-1.7,1.8-3.5,2.4-5.3c-1.8-1.5-4.5-1.6-6.4-0.2c-2.9,2.3-5,5.4-6.3,8.9c-0.8,2.5-1.9,4.9-3.3,7.1v-0.1
		c-0.6,0.6-1.4,0.8-2.2,0.6c-2.4-0.6-4.6-1.6-6.7-2.9c-0.9-0.5-1.4-1.5-1.2-2.5c1.2-3.8,3.3-7.4,6.2-10.2c1.5-1.1,2.1-3,1.5-4.7
		v-0.1c-0.7-1-2-1.4-3.2-0.9c-2,0.9-3.6,2.3-4.7,4.1c-0.4,0.6-1,1.1-1.7,1.3c-2.1,2.1-3.7,4.7-4.7,7.5v-0.1
		c-0.1,0.3-0.2,0.6-0.4,0.8c-0.8,1.1-2.3,1.3-3.3,0.5c-9-6.3-18.3-12.3-27.8-17.7c-0.8-0.4-1.1-1.3-0.9-2.1c0.2-0.5,0-1-0.5-1.2
		c-0.2-0.1-0.5-0.1-0.7,0c-0.5,0.6-1.2,0.8-2,0.7c-0.4-0.1-0.8-0.5-0.9-0.9c-1.3-1.8-3.1-3.2-5.1-4.1c-0.1,0-0.2,0-0.3-0.1
		c-0.3-0.2-0.4-0.7-0.2-1h-0.1c0.1-0.2,0.1-0.4,0.2-0.6c0.5-1.1,1.9-1.6,3-1.1c2.5-0.4,4.8-1.4,6.7-3h0.1c-0.9-1.3-1.6-2.8-2.1-4.3
		c-1.4,0.7-2.9,1.4-4.4,1.6c-1.9,2.1-3.9,4.1-6.1,5.8c-2.7-0.5-5.1-2.2-6.3-4.7l-0.1-0.1c-0.1-0.6,0.3-1.1,0.8-1.2
		c2-0.7,3.5-2.3,4.1-4.3c-0.6-1.4-2-2.4-3.6-2.6c-1.9,2.6-4.2,4.9-6.8,6.7c-1.9-1.5-3.7-3.1-5.5-4.8v0.1c-0.1-0.1-0.1-0.1-0.1-0.2
		c-0.1-0.6,0.2-1.1,0.7-1.3c2.2-0.8,4.2-2,6-3.6c-1.1-1.2-3-2-4.6-2c-0.8,0-1.7,0.4-2.3,1c-0.7,1.1-1.5,2.1-2.3,3.2
		c-0.2,0.2-0.7,0.1-0.9-0.2c-1.4-1.6-2.7-3.3-3.9-5.1c0,0-0.1-0.1-0.1-0.2c-0.1-0.4,0.2-0.8,0.6-0.9c1.9-0.4,3.6-1.3,4.9-2.7
		c-0.2-0.6-0.5-1.2-1-1.5c-0.1-2.1-0.2-4.2-0.5-6.9c-0.2-1.4-0.4-3,0-4l7.2,4.9l5.1-7.4l-11.2-7.6c1.2-2.8,5.6-4.3,10-5.8h0.1
		c0.3,0.3,0.7,0.6,1.1,0.7c0.7,0.2,1.4-0.1,2-0.5c1.2-0.8,1.4-2.2,1.4-4s-0.4-4.1-0.2-4.3c0.3-0.4,1.6,2.9,2.5,5.4
		c1,2.7,1.7,4.5,0.8,6.4c-0.5,1.1-1.5,2.2-1.3,3.4c0.1,0.8,0.8,1.5,1.5,1.8c1.1,0.4,2.4-0.5,3.6-0.2c0.6,0.2,1.1,0.6,1.1,1.2
		c0,0.4-0.3,0.9-0.2,1.1c0.1,0.3,1,0,1.7-0.1c1-0.1,1.7,0.2,2.1,0.7s0.5,1.2,0.8,2c0.2,0.6,0.6,1.3,1.2,1.5c0.7,0.3,1.7,0.1,2.1,0.9
		c0.3,0.5,0.2,1.4,0.6,1.4c0.2,0,0.5-0.2,0.7-0.3c0.6-0.3,1.2,0,1.8,0.3h0.1c2.8-10.9,2.4-22.3-1.1-33h-0.1
		c-2.8-10.4-7.8-20.1-14.6-28.4c-0.2-0.7,0-1.4,0.6-1.7h0.1c5.4-2.1,11.3-2.3,16.9-0.6c1.6,0.5,2.6,2,2.4,3.6
		c-1.2,7.8,2.1,15.6,8.5,20.2l-0.5,26.4l8.9,0.2l0.9-43.6c1.8-4,4.1-7.7,6.8-11.1c2.2-2.3,5.4-3.4,8.5-2.7v0.1c3.1,0.5,6,2,8.3,4.2
		v-0.1c0.2,0.2,0.2,0.5,0,0.7c-5.9,11.1-9.4,23.3-10.4,35.8c-0.2,2.7,0.5,5.5,2,7.8v-0.1c4.1,10.1,3.4,21.5-1.8,31.1
		c-1,2.5-0.7,5.2,0.6,7.5c0.6,0.8,1.3,1.5,2,1.9c2.8,1.5,7.2-0.4,10.8-0.5c2.4,0,4.4,0.8,6.8,1.5c0.8,0.3,1.7,0.5,2.6,0.2
		c0.6-0.2,1.1-0.7,1.6-0.6c0.8,0,1.3,1.3,2,2.1c0.9,1,2.2,1,3.5,1.1c1.1,0.1,2.2,0.3,3.3,0.3v0.2l1.1,17.4l9-0.6l-1-16.5
		c1.1,0.5,2.2,0.8,3.3,1.3c1.3,0.6,2.6,1.5,4.1,1.6c0.4,0,0.8,0,1.2,0h-0.1l1,18l9-0.5l-1-18.5c0.8,0.7,1.6,1.7,2.4,2.4
		c1.8,1.5,4.2,2,6.6,2.1c0.6,0,1.2,0,1.8,0v-0.1l2.1,18.5l9-1l-2.2-18.6c0.1,0,0.1,0.1,0.2,0.1c0.9,0.8,1.4,2,2.4,2.7
		s2.5,0.7,3.9,0.8c1.9,0.2,3.5,0.6,5.4-0.3c0.3-0.1,0.5-0.3,0.8-0.4h0.1l3.3,19.8l8.9-1.5l-2.5-14.9c1,0.5,2,0.9,2.9,0.9
		c1.2,0,2.4-0.7,3.7-1.5c1.6-1,3.3-2.3,4.9-2.2l3.5,20.7l8.8-1.5l-2.4-14.7c1.3,0.2,2.7,0.4,3.9,0.2c0.7-0.1,1.4-0.3,2-0.8
		s1.3-1.2,1.8-1.8v-0.1l3.3,19.2l8.9-1.5l-2.6-14.9c1.4,0.1,2.8,0.2,4-0.1c1.2-0.2,2.4-0.8,3.6-1.4c0.7-0.4,1.3-0.7,2-1l3.2,18.6
		l8.9-1.5l-2.4-14.1c1-0.1,2-0.5,3-0.8c1.9-0.7,3.5-1.2,5.3-2.1c1.2-0.7,2.4-1.5,3.6-2l3.3,19.2l8.8-1.5l-2.6-15.6
		c0.9,0.1,1.9,0.1,2.8,0c1.9-0.3,3.7-1.1,5.6-2.2c1-0.6,2-1.2,2.9-1.2c0.5,0,0.9,0.2,1.4,0.5v-0.1l3,17.7l8.8-1.5l-2.4-14.5
		c0.3-0.2,0.7-0.4,1.1-0.7c1.9-1.3,4.4-3.5,5.3-2.1c0.1,0.2,0.2,0.5,0.3,0.8c0.1,0.2,0.1,0.5,0.2,0.6c0.3,0.2,0.9-0.1,1.1-0.5
		s0.2-0.8,0.3-1.1c0.3-0.6,1.3-0.9,2.1-0.8c0.9,0.1,1.6,0.6,2.3,0.9c0.3,0.2,0.6,0.3,1,0.4l2.5,14.6l8.9-1.5l-2.2-12.9
		c2.7-28.4-1-57-10.8-83.8c-1.8-7.7-0.3-15.9,4.1-22.5l14.6,36.5l8.3-3.4l-12.9-32.3c4.7-1.1,9.6,0.7,12.6,4.5
		c7.7,12.3,13.9,25.4,18.5,39.2c4.8,14.6,7.7,29.7,8.7,45h-0.1c11-0.5,22-0.2,32.9,1.2c1,1.4,1.4,2.9,1.1,4.7
		c-0.5,2.6-2.7,5.6-5,6.2c-3.7,0.8-7.8-4.5-13.3-4.2c-3.5,0.2-7.6,2.8-8,6.4l-16.3,0.2l0.1,9l14.1-0.2c0.3,1.1,0.8,2.1,1.4,3.1
		c0.7,1.2,1.6,2.4,2.9,2.8c2.3,0.7,5.7-0.6,7.1,0.8c1,1,1,3.4,0.2,5c-0.4,0.9-1.1,1.5-1.8,2.1c-0.6,0-1.1,0.1-1.7,0.2
		c-1.2,0.2-2.4,0.8-3.5,1.4c-1,0.6-1.9,1.3-2.8,2.1c-0.9,0.9-1.7,1.9-2.4,2.9c-0.8,1.2-1.6,2.5-2.4,3.8s-1.7,2.5-2.9,3.4
		c-1,0.9-2.2,1.5-3.4,2c-1.2,0.5-2.5,0.8-3.9,1c-1.5,0.2-3,0.3-4.5,0c-1.1-0.3-2.1-0.7-2.9-1.4c-0.6-0.4-1.1-0.9-1.5-1.5
		c-0.5-0.6-0.9-1.3-1.4-1.9c-0.4-0.4-0.8-0.8-1.3-1.1c-0.6-0.3-1.3-0.4-2-0.5c-0.8-0.1-1.6-0.1-2.3-0.5c-0.5-0.2-1-0.6-1.3-1.1
		c-0.5-0.7-0.7-1.5-0.9-2.3C1251.4-260.4,1251.1-260.8,1250.9-261.4z"/>
</g>
</svg>
