<?xml version="1.0" encoding="utf-8"?>
<!-- Generator: Adobe Illustrator 24.3.0, SVG Export Plug-In . SVG Version: 6.00 Build 0)  -->
<svg version="1.1" id="Layer_1" xmlns="http://www.w3.org/2000/svg" xmlns:xlink="http://www.w3.org/1999/xlink" x="0px" y="0px"
	 viewBox="0 0 841.9 595.3" style="enable-background:new 0 0 841.9 595.3;" xml:space="preserve">
<style type="text/css">
	.st0{fill:#FFFFFF;stroke:#000000;stroke-miterlimit:10;}
</style>
<path class="st0" d="M936.2,470.3V459h11.2l0-19.6h-11.2V428h11.2v-6.4c-205-88.9-335.4-218.7-380.8-424.9
	c-6.9-35-77.1-34.2-88.6,0.1C396.1,208.7,273.3,345.5,97,421.6v6.4h11.3v11.3H97V459h11.3v11.3H97v6.9h404l0-10.5h11.3v10.5H532
	v-10.5h11.3v10.5h404v-6.9H936.2z"/>
<circle class="st0" cx="522.2" cy="22.5" r="24.1"/>
<path class="st0" d="M1819.2,470.3V459h11.2l0-19.6h-11.2V428h11.2v-6.4c-205-88.9-335.4-218.7-380.8-424.9
	c-6.9-35-77.1-34.2-88.6,0.1c-81.8,211.8-204.6,348.6-380.9,424.8v6.4h11.3v11.3h-11.3V459h11.3v11.3h-11.3v6.9h404l0-10.5h11.3
	v10.5h19.6v-10.5h11.3v10.5h404v-6.9H1819.2z"/>
<circle class="st0" cx="1405.1" cy="22.5" r="24.1"/>
<polygon class="st0" points="851.4,541.1 851.4,529.8 840.1,529.8 840.1,523.4 471.6,523.4 471.6,529.8 460.2,529.8 460.2,541.1 
	471.6,541.1 471.6,560.7 460.2,560.7 460.2,572.1 471.6,572.1 471.6,578.9 840.1,578.9 840.1,572.1 851.4,572.1 851.4,560.7 
	840.1,560.7 840.1,541.1 "/>
<polygon class="st0" points="841.9,620.5 841.9,609.2 830.6,609.2 830.6,602.8 462,602.8 462,609.2 450.7,609.2 450.7,620.5 
	462,620.5 462,640.1 450.7,640.1 450.7,651.5 462,651.5 462,658.3 830.6,658.3 830.6,651.5 841.9,651.5 841.9,640.1 830.6,640.1 
	830.6,620.5 "/>
<polygon class="st0" points="831.8,706.7 831.8,695.3 820.4,695.3 820.4,688.9 451.9,688.9 451.9,695.3 440.6,695.3 440.6,706.7 
	451.9,706.7 451.9,726.3 440.6,726.3 440.6,737.6 451.9,737.6 451.9,744.5 820.4,744.5 820.4,737.6 831.8,737.6 831.8,726.3 
	820.4,726.3 820.4,706.7 "/>
</svg>
