<?xml version="1.0" encoding="UTF-8" standalone="no"?>
<!-- Created with Inkscape (http://www.inkscape.org/) -->

<svg
   xmlns:dc="http://purl.org/dc/elements/1.1/"
   xmlns:cc="http://creativecommons.org/ns#"
   xmlns:rdf="http://www.w3.org/1999/02/22-rdf-syntax-ns#"
   xmlns:svg="http://www.w3.org/2000/svg"
   xmlns="http://www.w3.org/2000/svg"
   xmlns:sodipodi="http://sodipodi.sourceforge.net/DTD/sodipodi-0.dtd"
   xmlns:inkscape="http://www.inkscape.org/namespaces/inkscape"
   width="20in"
   height="12in"
   viewBox="0 0 508 304.80001"
   version="1.1"
   id="svg8"
   sodipodi:docname="rocketship_mat_0.15_kerf_0.0078.svg"
   inkscape:version="0.92.1 r15371">
  <defs
     id="defs2">
    <marker
       style="overflow:visible"
       refY="0.0"
       refX="0.0"
       orient="auto"
       id="DistanceX">
      <path
         id="path4484"
         style="stroke:#000000; stroke-width:0.5"
         d="M 3,-3 L -3,3 M 0,-5 L  0,5" />
    </marker>
    <pattern
       y="0"
       x="0"
       width="8"
       patternUnits="userSpaceOnUse"
       id="Hatch"
       height="8">
      <path
         id="path4487"
         stroke-width="0.25"
         stroke="#000000"
         linecap="square"
         d="M8 4 l-4,4" />
      <path
         id="path4489"
         stroke-width="0.25"
         stroke="#000000"
         linecap="square"
         d="M6 2 l-4,4" />
      <path
         id="path4491"
         stroke-width="0.25"
         stroke="#000000"
         linecap="square"
         d="M4 0 l-4,4" />
    </pattern>
    <symbol
       id="*MODEL_SPACE" />
    <symbol
       id="*PAPER_SPACE" />
    <marker
       style="overflow:visible"
       refY="0.0"
       refX="0.0"
       orient="auto"
       id="DistanceX-3">
      <path
         id="path4529"
         style="stroke:#000000; stroke-width:0.5"
         d="M 3,-3 L -3,3 M 0,-5 L  0,5" />
    </marker>
    <pattern
       y="0"
       x="0"
       width="8"
       patternUnits="userSpaceOnUse"
       id="Hatch-2"
       height="8">
      <path
         id="path4532"
         stroke-width="0.25"
         stroke="#000000"
         linecap="square"
         d="M8 4 l-4,4" />
      <path
         id="path4534"
         stroke-width="0.25"
         stroke="#000000"
         linecap="square"
         d="M6 2 l-4,4" />
      <path
         id="path4536"
         stroke-width="0.25"
         stroke="#000000"
         linecap="square"
         d="M4 0 l-4,4" />
    </pattern>
    <symbol
       id="*MODEL_SPACE-1" />
    <symbol
       id="*PAPER_SPACE-8" />
    <marker
       style="overflow:visible"
       refY="0.0"
       refX="0.0"
       orient="auto"
       id="DistanceX-6">
      <path
         id="path4580"
         style="stroke:#000000; stroke-width:0.5"
         d="M 3,-3 L -3,3 M 0,-5 L  0,5" />
    </marker>
    <pattern
       y="0"
       x="0"
       width="8"
       patternUnits="userSpaceOnUse"
       id="Hatch-6"
       height="8">
      <path
         id="path4583"
         stroke-width="0.25"
         stroke="#000000"
         linecap="square"
         d="M8 4 l-4,4" />
      <path
         id="path4585"
         stroke-width="0.25"
         stroke="#000000"
         linecap="square"
         d="M6 2 l-4,4" />
      <path
         id="path4587"
         stroke-width="0.25"
         stroke="#000000"
         linecap="square"
         d="M4 0 l-4,4" />
    </pattern>
    <symbol
       id="*MODEL_SPACE-4" />
    <symbol
       id="*PAPER_SPACE-2" />
    <marker
       style="overflow:visible"
       refY="0.0"
       refX="0.0"
       orient="auto"
       id="DistanceX-9">
      <path
         id="path4637"
         style="stroke:#000000; stroke-width:0.5"
         d="M 3,-3 L -3,3 M 0,-5 L  0,5" />
    </marker>
    <pattern
       y="0"
       x="0"
       width="8"
       patternUnits="userSpaceOnUse"
       id="Hatch-3"
       height="8">
      <path
         id="path4640"
         stroke-width="0.25"
         stroke="#000000"
         linecap="square"
         d="M8 4 l-4,4" />
      <path
         id="path4642"
         stroke-width="0.25"
         stroke="#000000"
         linecap="square"
         d="M6 2 l-4,4" />
      <path
         id="path4644"
         stroke-width="0.25"
         stroke="#000000"
         linecap="square"
         d="M4 0 l-4,4" />
    </pattern>
    <symbol
       id="*MODEL_SPACE-3" />
    <symbol
       id="*PAPER_SPACE-81" />
  </defs>
  <sodipodi:namedview
     id="base"
     pagecolor="#ffffff"
     bordercolor="#666666"
     borderopacity="1.0"
     inkscape:pageopacity="0.0"
     inkscape:pageshadow="2"
     inkscape:zoom="0.35"
     inkscape:cx="1789.6772"
     inkscape:cy="97.314295"
     inkscape:document-units="in"
     inkscape:current-layer="layer1"
     showgrid="false"
     inkscape:window-width="1920"
     inkscape:window-height="1057"
     inkscape:window-x="-8"
     inkscape:window-y="-8"
     inkscape:window-maximized="1"
     units="in"
     inkscape:snap-global="false"
     inkscape:measure-start="434.871,811.91"
     inkscape:measure-end="461.766,811.784" />
  <metadata
     id="metadata5">
    <rdf:RDF>
      <cc:Work
         rdf:about="">
        <dc:format>image/svg+xml</dc:format>
        <dc:type
           rdf:resource="http://purl.org/dc/dcmitype/StillImage" />
        <dc:title></dc:title>
      </cc:Work>
    </rdf:RDF>
  </metadata>
  <g
     inkscape:label="Layer 1"
     inkscape:groupmode="layer"
     id="layer1"
     transform="translate(0,7.800018)">
    <g
       id="g4502"
       inkscape:label="0"
       transform="matrix(0.26458334,0,0,0.26458334,-32.125662,-16.726154)">
      <path
         id="path4498"
         style="fill:none;stroke:#000000"
         d="m 313.37878,101.85138 11.91007,20.62884 11.82229,-6.8256 -11.91007,-20.628845 A 129.6,129.6 0 0 1 377.17439,81.099564 V 104.9197 h 13.6512 V 81.099564 a 129.6,129.6 0 0 1 51.97333,13.926211 l -11.91007,20.628845 11.82229,6.8256 11.91006,-20.62884 a 129.6,129.6 0 0 1 38.04712,38.04711 l -20.62884,11.91007 6.8256,11.82228 20.62884,-11.91007 a 129.6,129.6 0 0 1 13.92621,51.97333 h -23.82014 v 13.6512 h 23.82014 a 129.6,129.6 0 0 1 -13.92621,51.97332 l -20.62884,-11.91006 -6.8256,11.82228 20.62884,11.91007 a 129.6,129.6 0 0 1 -38.04712,38.04711 l -11.91006,-20.62884 -11.82229,6.8256 11.91007,20.62884 a 129.6,129.6 0 0 1 -51.97333,13.92621 V 316.1197 h -13.6512 v 23.82013 a 129.6,129.6 0 0 1 -51.97332,-13.92621 l 11.91007,-20.62884 -11.82229,-6.8256 -11.91007,20.62884 a 129.6,129.6 0 0 1 -38.04711,-38.04711 l 20.62884,-11.91007 -6.8256,-11.82228 -20.62884,11.91006 A 129.6,129.6 0 0 1 254.57986,217.3453 h 23.82013 v -13.6512 h -23.82013 a 129.6,129.6 0 0 1 13.92621,-51.97333 l 20.62884,11.91007 6.8256,-11.82228 -20.62884,-11.91007 a 129.6,129.6 0 0 1 38.04711,-38.04711 z"
         inkscape:connector-curvature="0" />
      <path
         id="path4500"
         style="fill:none;stroke:#000000"
         d="m 465.59999,210.5197 a 81.6,81.6 0 1 0 -163.2,0 81.6,81.6 0 1 0 163.2,0 z"
         inkscape:connector-curvature="0" />
    </g>
    <g
       id="g4547"
       inkscape:label="0"
       transform="matrix(0.26458334,0,0,0.26458334,-136.66487,-24.681765)">
      <path
         id="path4543"
         style="fill:none;stroke:#000000"
         d="m 685.39007,891.94163 9.49881,16.45241 11.82229,-6.8256 -9.49881,-16.45241 a 115.2,115.2 0 0 1 44.76206,-11.99396 v 18.99761 h 13.6512 v -18.99761 a 115.2,115.2 0 0 1 44.76207,11.99396 l -9.49881,16.45241 11.82229,6.8256 9.4988,-16.45241 a 115.2,115.2 0 0 1 32.76811,32.7681 l -16.45242,9.49881 6.8256,11.82228 16.45242,-9.4988 a 115.2,115.2 0 0 1 11.99396,44.76206 h -18.99762 v 13.6512 h 18.99762 a 115.2,115.2 0 0 1 -11.99396,44.76202 l -16.45242,-9.4988 -6.8256,11.8223 16.45242,9.4988 a 115.2,115.2 0 0 1 -32.76811,32.7681 l -9.4988,-16.4524 -11.82229,6.8256 9.49881,16.4524 a 115.2,115.2 0 0 1 -44.76207,11.994 v -18.9976 h -13.6512 v 18.9976 a 115.2,115.2 0 0 1 -44.76206,-11.994 l 9.49881,-16.4524 -11.82229,-6.8256 -9.49881,16.4524 a 115.2,115.2 0 0 1 -32.7681,-32.7681 l 16.45241,-9.4988 -6.8256,-11.8223 -16.45241,9.4988 a 115.2,115.2 0 0 1 -11.99396,-44.76202 h 18.99761 v -13.6512 h -18.99761 a 115.2,115.2 0 0 1 11.99396,-44.76206 l 16.45241,9.4988 6.8256,-11.82228 -16.45241,-9.49881 a 115.2,115.2 0 0 1 32.7681,-32.7681 z"
         inkscape:connector-curvature="0" />
      <path
         id="path4545"
         style="fill:none;stroke:#000000"
         d="m 811.20002,988.11968 a 62.4,62.4 0 1 0 -124.8,0 62.4,62.4 0 1 0 124.8,0 z"
         inkscape:connector-curvature="0" />
    </g>
    <g
       id="g4598"
       inkscape:label="0"
       transform="matrix(0.26458334,0,0,0.26458334,-67.056763,-34.200189)">
      <path
         id="path4594"
         style="fill:none;stroke:#000000"
         d="m 560.42142,489.57449 -9.53257,16.5109 11.82229,6.8256 9.53257,-16.5109 a 172.8,172.8 0 0 1 53.87588,53.87589 l -16.5109,9.53257 6.82561,11.82229 16.51089,-9.53258 a 172.8,172.8 0 0 1 19.71994,73.59583 h -19.06514 v 13.6512 h 19.06514 a 172.8,172.8 0 0 1 -19.71994,73.59583 l -16.51089,-9.53257 -6.82561,11.82228 16.5109,9.53258 a 172.8,172.8 0 0 1 -53.87588,53.87588 l -9.53257,-16.5109 -11.82229,6.8256 9.53257,16.5109 a 172.8,172.8 0 0 1 -73.59583,19.71994 v -19.06514 h -13.6512 v 19.06514 a 172.8,172.8 0 0 1 -73.59582,-19.71994 l 9.53257,-16.5109 -11.82229,-6.8256 -9.53257,16.5109 a 172.8,172.8 0 0 1 -53.87589,-53.87588 l 16.5109,-9.53258 -6.8256,-11.82228 -16.5109,9.53257 a 172.8,172.8 0 0 1 -19.71994,-73.59583 h 19.06514 v -13.6512 h -19.06514 a 172.8,172.8 0 0 1 19.71994,-73.59583 l 16.5109,9.53258 6.8256,-11.82229 -16.5109,-9.53257 a 172.8,172.8 0 0 1 53.87589,-53.87589 l 9.53257,16.5109 11.82229,-6.8256 -9.53257,-16.5109 a 172.8,172.8 0 0 1 73.59582,-19.71994 v 19.06514 h 13.6512 v -19.06514 a 172.8,172.8 0 0 1 73.59583,19.71994 z"
         inkscape:connector-curvature="0" />
      <path
         id="path4596"
         style="fill:none;stroke:#000000"
         d="m 609.59999,642.51969 a 129.6,129.6 0 1 0 -259.2,0 129.6,129.6 0 1 0 259.2,0 z"
         inkscape:connector-curvature="0" />
    </g>
    <g
       id="g4693"
       inkscape:label="0"
       transform="matrix(-0.26458334,0,0,-0.26458334,443.34265,371.21062)">
      <path
         id="path4691"
         style="fill:none;stroke:#000000"
         d="m 123.41115,972.71822 c 47.23951,-30.49793 71.74301,-6.69635 92.50717,26.6135 21.03858,33.75008 33.47254,79.18448 46.90032,123.18798 h 41.79037 C 302.3999,1025.5894 307.06472,922.75761 223.99954,844.27331 187.76253,810.0347 181.78654,759.48812 184.09852,655.37479 187.10231,520.10784 118.5583,382.90246 31.763177,312.31929 v 44.142 c 0,16.97408 35.110821,57.82189 52.666231,86.73283 H 105.6 v 13.6512 H 91.703204 c 35.365666,70.05487 48.731736,151.79702 40.997986,244.74846 h 20.89879 v 13.65119 H 131.18219 C 118.60505,802.85776 98.519393,888.73782 68.441064,972.31188 h 27.558909 v 13.6512 H 63.572421 l -24.179184,63.53902 h 56.745222 z"
         inkscape:connector-curvature="0"
         sodipodi:nodetypes="csccsscsccccccccccccccc" />
    </g>
    <g
       transform="matrix(0,-0.26458334,0.26458334,0,30.541497,122.41967)"
       inkscape:label="0"
       id="g4774">
      <path
         sodipodi:nodetypes="cscsccccccccccccccc"
         inkscape:connector-curvature="0"
         d="M 123.41115,972.71822 C 162.44691,851.26488 181.46555,765.21666 184.09852,655.37479 187.34082,520.11335 118.5583,382.90246 31.763177,312.31929 v 44.142 c 0,16.97408 35.110821,57.82189 52.666231,86.73283 H 105.6 v 13.6512 H 91.703204 c 35.365666,70.05487 48.731736,151.79702 40.997986,244.74846 h 20.89879 v 13.65119 H 131.18219 C 118.60505,802.85776 98.519393,888.73782 68.441064,972.31188 h 27.558909 v 13.6512 H 63.572421 l -24.179184,63.53902 h 56.745222 z"
         style="fill:none;stroke:#000000"
         id="path4772" />
    </g>
    <g
       transform="matrix(0.26458334,0,0,0.26458334,403.48107,-64.364352)"
       inkscape:label="0"
       id="g4778">
      <path
         sodipodi:nodetypes="csccsscsccccccccccccccc"
         inkscape:connector-curvature="0"
         d="m 123.41115,972.71822 c 47.23951,-30.49793 71.74301,-6.69635 92.50717,26.6135 21.03858,33.75008 33.47254,79.18448 46.90032,123.18798 h 41.79037 C 302.3999,1025.5894 307.06472,922.75761 223.99954,844.27331 187.76253,810.0347 181.78654,759.48812 184.09852,655.37479 187.10231,520.10784 118.5583,382.90246 31.763177,312.31929 v 44.142 c 0,16.97408 35.110821,57.82189 52.666231,86.73283 H 105.6 v 13.6512 H 91.703204 c 35.365666,70.05487 48.731736,151.79702 40.997986,244.74846 h 20.89879 v 13.65119 H 131.18219 C 118.60505,802.85776 98.519393,888.73782 68.441064,972.31188 h 27.558909 v 13.6512 H 63.572421 l -24.179184,63.53902 h 56.745222 z"
         style="fill:none;stroke:#000000"
         id="path4776" />
    </g>
    <g
       id="g4782"
       inkscape:label="0"
       transform="matrix(-0.26458334,0,0,-0.26458334,384.37836,305.44277)">
      <path
         id="path4780"
         style="fill:none;stroke:#000000"
         d="m 123.41115,972.71822 c 47.23951,-30.49793 71.74301,-6.69635 92.50717,26.6135 21.03858,33.75008 33.47254,79.18448 46.90032,123.18798 h 41.79037 C 302.3999,1025.5894 307.06472,922.75761 223.99954,844.27331 187.76253,810.0347 181.78654,759.48812 184.09852,655.37479 187.10231,520.10784 118.5583,382.90246 31.763177,312.31929 v 44.142 c 0,16.97408 35.110821,57.82189 52.666231,86.73283 H 105.6 v 13.6512 H 91.703204 c 35.365666,70.05487 48.731736,151.79702 40.997986,244.74846 h 20.89879 v 13.65119 H 131.18219 C 118.60505,802.85776 98.519393,888.73782 68.441064,972.31188 h 27.558909 v 13.6512 H 63.572421 l -24.179184,63.53902 h 56.745222 z"
         inkscape:connector-curvature="0"
         sodipodi:nodetypes="csccsscsccccccccccccccc" />
    </g>
    <g
       id="g4786"
       inkscape:label="0"
       transform="matrix(0,-0.26458334,0.26458334,0,30.541497,145.85419)">
      <path
         id="path4784"
         style="fill:none;stroke:#000000"
         d="M 123.41115,972.71822 C 162.44691,851.26488 181.46555,765.21666 184.09852,655.37479 187.34082,520.11335 118.5583,382.90246 31.763177,312.31929 v 44.142 c 0,16.97408 35.110821,57.82189 52.666231,86.73283 H 105.6 v 13.6512 H 91.703204 c 35.365666,70.05487 48.731736,151.79702 40.997986,244.74846 h 20.89879 v 13.65119 H 131.18219 C 118.60505,802.85776 98.519393,888.73782 68.441064,972.31188 h 27.558909 v 13.6512 H 63.572421 l -24.179184,63.53902 h 56.745222 z"
         inkscape:connector-curvature="0"
         sodipodi:nodetypes="cscsccccccccccccccc" />
    </g>
    <g
       id="g4790"
       inkscape:label="0"
       transform="matrix(0,-0.26458334,0.26458334,0,30.541497,167.77681)">
      <path
         id="path4788"
         style="fill:none;stroke:#000000"
         d="M 123.41115,972.71822 C 162.44691,851.26488 181.46555,765.21666 184.09852,655.37479 187.34082,520.11335 118.5583,382.90246 31.763177,312.31929 v 44.142 c 0,16.97408 35.110821,57.82189 52.666231,86.73283 H 105.6 v 13.6512 H 91.703204 c 35.365666,70.05487 48.731736,151.79702 40.997986,244.74846 h 20.89879 v 13.65119 H 131.18219 C 118.60505,802.85776 98.519393,888.73782 68.441064,972.31188 h 27.558909 v 13.6512 H 63.572421 l -24.179184,63.53902 h 56.745222 z"
         inkscape:connector-curvature="0"
         sodipodi:nodetypes="cscsccccccccccccccc" />
    </g>
    <g
       transform="matrix(0,-0.26458334,0.26458334,0,30.541497,191.21133)"
       inkscape:label="0"
       id="g4794">
      <path
         sodipodi:nodetypes="cscsccccccccccccccc"
         inkscape:connector-curvature="0"
         d="M 123.41115,972.71822 C 162.44691,851.26488 181.46555,765.21666 184.09852,655.37479 187.34082,520.11335 118.5583,382.90246 31.763177,312.31929 v 44.142 c 0,16.97408 35.110821,57.82189 52.666231,86.73283 H 105.6 v 13.6512 H 91.703204 c 35.365666,70.05487 48.731736,151.79702 40.997986,244.74846 h 20.89879 v 13.65119 H 131.18219 C 118.60505,802.85776 98.519393,888.73782 68.441064,972.31188 h 27.558909 v 13.6512 H 63.572421 l -24.179184,63.53902 h 56.745222 z"
         style="fill:none;stroke:#000000"
         id="path4792" />
    </g>
    <g
       id="g4798"
       inkscape:label="0"
       transform="matrix(0,-0.26458334,0.26458334,0,30.541497,213.88991)">
      <path
         id="path4796"
         style="fill:none;stroke:#000000"
         d="M 123.41115,972.71822 C 162.44691,851.26488 181.46555,765.21666 184.09852,655.37479 187.34082,520.11335 118.5583,382.90246 31.763177,312.31929 v 44.142 c 0,16.97408 35.110821,57.82189 52.666231,86.73283 H 105.6 v 13.6512 H 91.703204 c 35.365666,70.05487 48.731736,151.79702 40.997986,244.74846 h 20.89879 v 13.65119 H 131.18219 C 118.60505,802.85776 98.519393,888.73782 68.441064,972.31188 h 27.558909 v 13.6512 H 63.572421 l -24.179184,63.53902 h 56.745222 z"
         inkscape:connector-curvature="0"
         sodipodi:nodetypes="cscsccccccccccccccc" />
    </g>
    <g
       transform="matrix(0,-0.26458334,0.26458334,0,30.541497,237.32443)"
       inkscape:label="0"
       id="g4802">
      <path
         sodipodi:nodetypes="cscsccccccccccccccc"
         inkscape:connector-curvature="0"
         d="M 123.41115,972.71822 C 162.44691,851.26488 181.46555,765.21666 184.09852,655.37479 187.34082,520.11335 118.5583,382.90246 31.763177,312.31929 v 44.142 c 0,16.97408 35.110821,57.82189 52.666231,86.73283 H 105.6 v 13.6512 H 91.703204 c 35.365666,70.05487 48.731736,151.79702 40.997986,244.74846 h 20.89879 v 13.65119 H 131.18219 C 118.60505,802.85776 98.519393,888.73782 68.441064,972.31188 h 27.558909 v 13.6512 H 63.572421 l -24.179184,63.53902 h 56.745222 z"
         style="fill:none;stroke:#000000"
         id="path4800" />
    </g>
    <g
       transform="matrix(0,-0.26458334,0.26458334,0,30.541497,259.24705)"
       inkscape:label="0"
       id="g4806">
      <path
         sodipodi:nodetypes="cscsccccccccccccccc"
         inkscape:connector-curvature="0"
         d="M 123.41115,972.71822 C 162.44691,851.26488 181.46555,765.21666 184.09852,655.37479 187.34082,520.11335 118.5583,382.90246 31.763177,312.31929 v 44.142 c 0,16.97408 35.110821,57.82189 52.666231,86.73283 H 105.6 v 13.6512 H 91.703204 c 35.365666,70.05487 48.731736,151.79702 40.997986,244.74846 h 20.89879 v 13.65119 H 131.18219 C 118.60505,802.85776 98.519393,888.73782 68.441064,972.31188 h 27.558909 v 13.6512 H 63.572421 l -24.179184,63.53902 h 56.745222 z"
         style="fill:none;stroke:#000000"
         id="path4804" />
    </g>
    <g
       id="g4810"
       inkscape:label="0"
       transform="matrix(0,-0.26458334,0.26458334,0,30.541497,282.68157)">
      <path
         id="path4808"
         style="fill:none;stroke:#000000"
         d="M 123.41115,972.71822 C 162.44691,851.26488 181.46555,765.21666 184.09852,655.37479 187.34082,520.11335 118.5583,382.90246 31.763177,312.31929 v 44.142 c 0,16.97408 35.110821,57.82189 52.666231,86.73283 H 105.6 v 13.6512 H 91.703204 c 35.365666,70.05487 48.731736,151.79702 40.997986,244.74846 h 20.89879 v 13.65119 H 131.18219 C 118.60505,802.85776 98.519393,888.73782 68.441064,972.31188 h 27.558909 v 13.6512 H 63.572421 l -24.179184,63.53902 h 56.745222 z"
         inkscape:connector-curvature="0"
         sodipodi:nodetypes="cscsccccccccccccccc" />
    </g>
    <g
       id="g4814"
       inkscape:label="0"
       transform="matrix(0,-0.26458334,0.26458334,0,30.541497,98.985146)">
      <path
         id="path4812"
         style="fill:none;stroke:#000000"
         d="M 123.41115,972.71822 C 162.44691,851.26488 181.46555,765.21666 184.09852,655.37479 187.34082,520.11335 118.5583,382.90246 31.763177,312.31929 v 44.142 c 0,16.97408 35.110821,57.82189 52.666231,86.73283 H 105.6 v 13.6512 H 91.703204 c 35.365666,70.05487 48.731736,151.79702 40.997986,244.74846 h 20.89879 v 13.65119 H 131.18219 C 118.60505,802.85776 98.519393,888.73782 68.441064,972.31188 h 27.558909 v 13.6512 H 63.572421 l -24.179184,63.53902 h 56.745222 z"
         inkscape:connector-curvature="0"
         sodipodi:nodetypes="cscsccccccccccccccc" />
    </g>
  </g>
</svg>
