<?xml version="1.0" encoding="UTF-8" standalone="no"?>
<svg
   xmlns:dc="http://purl.org/dc/elements/1.1/"
   xmlns:cc="http://creativecommons.org/ns#"
   xmlns:rdf="http://www.w3.org/1999/02/22-rdf-syntax-ns#"
   xmlns:svg="http://www.w3.org/2000/svg"
   xmlns="http://www.w3.org/2000/svg"
   xmlns:sodipodi="http://sodipodi.sourceforge.net/DTD/sodipodi-0.dtd"
   xmlns:inkscape="http://www.inkscape.org/namespaces/inkscape"
   inkscape:version="1.0 (4035a4f, 2020-05-01)"
   sodipodi:docname="organizer.svg"
   viewBox="0 0 2624.8818 1105.5118"
   id="svg44"
   height="1105.5118"
   width="2624.8818"
   version="1.1">
  <metadata
     id="metadata50">
    <rdf:RDF>
      <cc:Work
         rdf:about="">
        <dc:format>image/svg+xml</dc:format>
        <dc:type
           rdf:resource="http://purl.org/dc/dcmitype/StillImage" />
        <dc:title></dc:title>
      </cc:Work>
    </rdf:RDF>
  </metadata>
  <defs
     id="defs48" />
  <sodipodi:namedview
     inkscape:current-layer="svg44"
     inkscape:window-maximized="0"
     inkscape:window-y="418"
     inkscape:window-x="2193"
     inkscape:cy="-1241.8306"
     inkscape:cx="-2669.1483"
     inkscape:zoom="0.41792357"
     showgrid="false"
     id="namedview46"
     inkscape:window-height="928"
     inkscape:window-width="1477"
     inkscape:pageshadow="2"
     inkscape:pageopacity="0"
     guidetolerance="10"
     gridtolerance="10"
     objecttolerance="10"
     borderopacity="1"
     bordercolor="#666666"
     pagecolor="#ffffff" />
  <path
     id="path10"
     style="fill:none;stroke:#1b1918;stroke-width:0.216;stroke-linecap:butt;stroke-linejoin:miter;stroke-dasharray:none"
     d="m -3539.6819,298.8635 v 73.7008 h 12.1692 c 0,-0.003 0.01,-0.004 0.01,-0.004 0.01,0 0.014,0.006 0.014,0.0142 0,0.004 -0,0.008 -0,0.0105 v 73.6602 c 0,0.003 0,0.006 0,0.0102 0,0.008 -0.01,0.0142 -0.014,0.0142 -0,0 -0.01,-0.002 -0.01,-0.004 h -12.1689 v 73.7008 h 549.9213 v -73.7008 h -12.1686 c -0,0.002 -0.01,0.004 -0.01,0.004 -0.01,0 -0.014,-0.006 -0.014,-0.0142 0,-0.004 0,-0.007 0,-0.01 v -73.6608 c -0,-0.002 -0,-0.006 -0,-0.0102 0,-0.004 0,-0.007 0,-0.01 0,-0.003 0.01,-0.004 0.01,-0.004 0,0 0.01,0.002 0.01,0.004 h 12.1688 v -73.7008 z m 488.8188,14.1936 v 12.1485 c 0,0.002 0,0.006 0,0.0102 0,0.008 -0.01,0.0142 -0.014,0.0142 -0,0 -0.01,-0.002 -0.01,-0.004 h -61.0617 c -0,0.003 -0.01,0.004 -0.01,0.004 -0.01,0 -0.014,-0.006 -0.014,-0.0142 0,-0.004 0,-0.007 0,-0.01 v -12.149 c -0,-0.003 -0,-0.006 -0,-0.0103 0,-0.004 0,-0.007 0,-0.01 0,-0.002 0.01,-0.004 0.01,-0.004 0,0 0.01,0.002 0.01,0.004 h 61.0623 c 0,-0.002 0.01,-0.004 0.01,-0.004 0.01,0 0.014,0.006 0.014,0.0141 0,0.004 -0,0.008 -0,0.0105 z m -122.2047,0 v 12.1485 c 0,0.002 0,0.006 0,0.0102 0,0.008 -0.01,0.0142 -0.014,0.0142 -0,0 -0.01,-0.002 -0.01,-0.004 h -61.0617 c -0,0.003 -0.01,0.004 -0.01,0.004 -0.01,0 -0.014,-0.006 -0.014,-0.0142 0,-0.004 0,-0.007 0,-0.01 v -12.149 c -0,-0.003 -0,-0.006 -0,-0.0103 0,-0.004 0,-0.007 0,-0.01 0,-0.002 0.01,-0.004 0.01,-0.004 0,0 0.01,0.002 0.01,0.004 h 61.0623 c 0,-0.002 0.01,-0.004 0.01,-0.004 0.01,0 0.014,0.006 0.014,0.0141 0,0.004 -0,0.008 -0,0.0105 z m -122.2047,0 v 12.1485 c 0,0.002 0,0.006 0,0.0102 0,0.008 -0.01,0.0142 -0.014,0.0142 -0,0 -0.01,-0.002 -0.01,-0.004 h -61.0617 c -0,0.003 -0.01,0.004 -0.01,0.004 -0.01,0 -0.014,-0.006 -0.014,-0.0142 0,-0.004 0,-0.007 0,-0.01 v -12.149 c -0,-0.003 -0,-0.006 -0,-0.0103 0,-0.004 0,-0.007 0,-0.01 0,-0.002 0.01,-0.004 0.01,-0.004 0,0 0.01,0.002 0.01,0.004 h 61.0623 c 0,-0.002 0.01,-0.004 0.01,-0.004 0.01,0 0.014,0.006 0.014,0.0141 0,0.004 -0,0.008 -0,0.0105 z m -122.2047,0 v 12.1485 c 0,0.002 0,0.006 0,0.0102 0,0.008 -0.01,0.0142 -0.014,0.0142 -0,0 -0.01,-0.002 -0.01,-0.004 h -61.0617 c -0,0.003 -0.01,0.004 -0.01,0.004 -0.01,0 -0.014,-0.006 -0.014,-0.0142 0,-0.004 0,-0.007 0,-0.01 v -12.149 c -0,-0.003 -0,-0.006 -0,-0.0103 0,-0.004 0,-0.007 0,-0.01 0,-0.002 0.01,-0.004 0.01,-0.004 0,0 0.01,0.002 0.01,0.004 h 61.0622 c 0,-0.002 0.01,-0.004 0.01,-0.004 0.01,0 0.014,0.006 0.014,0.0141 0,0.004 -0,0.008 -0,0.0105 z" />
  <path
     id="path12"
     style="fill:none;stroke:#1b1918;stroke-width:0.216;stroke-linecap:butt;stroke-linejoin:miter;stroke-dasharray:none"
     d="m -4390.0166,397.1653 h 797.6693 v -73.6809 c -0,-0.003 -0,-0.006 -0,-0.01 0,-0.008 0.01,-0.0142 0.014,-0.0142 0,0 0.01,0.002 0.01,0.004 h 12.1686 v -73.7008 h -12.1689 c -0,0.003 -0.01,0.004 -0.01,0.004 -0,0 -0.01,-0.002 -0.01,-0.004 -0,-0.002 -0,-0.006 -0,-0.01 0,-0.004 0,-0.008 0,-0.0102 V 176.063 h -797.6693 v 73.6803 c 0,0.003 0,0.007 0,0.0105 0,0.008 -0.01,0.0142 -0.014,0.0142 -0,0 -0.01,-0.002 -0.01,-0.004 h -12.1689 v 73.7008 h 12.1686 c 0,-0.002 0.01,-0.004 0.011,-0.004 0.01,0 0.014,0.006 0.014,0.0142 0,0.004 -0,0.008 -0,0.0102 z m 755.0552,-206.9093 v 12.149 c 0,0.003 0,0.006 0,0.0102 0,0.004 -0,0.007 -0,0.01 -0,0.002 -0.01,0.004 -0.01,0.004 -0,0 -0.01,-0.002 -0.01,-0.004 h -54.7628 c -0,0.002 -0.01,0.004 -0.01,0.004 -0,0 -0.01,-0.002 -0.01,-0.004 h -3e-4 v -3e-4 c -0,-0.003 -0,-0.006 -0,-0.01 0,-0.004 0,-0.007 0,-0.01 v -12.1496 c -0,-0.002 -0,-0.006 -0,-0.01 0,-0.004 0,-0.007 0,-0.01 0,-0.003 0.01,-0.004 0.01,-0.004 0,0 0.01,0.002 0.01,0.004 h 54.7622 c 0,-0.003 0.01,-0.004 0.01,-0.004 0.01,0 0.014,0.006 0.014,0.0142 0,0.004 -0,0.007 -0,0.01 z m -109.6064,3e-4 v 12.1485 c 0,0.002 0,0.007 0,0.0104 0,0.008 -0.01,0.0142 -0.014,0.0142 -0,0 -0.01,-0.002 -0.01,-0.004 h -54.7631 c -0,0.002 -0.01,0.004 -0.01,0.004 -0,0 -0.01,-0.002 -0.01,-0.004 -0,-0.003 -0,-0.006 -0,-0.01 0,-0.004 0,-0.008 0,-0.0102 v -12.149 c -0,-0.002 -0,-0.006 -0,-0.01 0,-0.008 0.01,-0.0142 0.014,-0.0142 0,0 0.01,0.002 0.011,0.004 h 54.7625 c 0,-0.003 0.01,-0.004 0.01,-0.004 0.01,0 0.014,0.006 0.014,0.0142 0,0.004 -0,0.008 -0,0.0102 z m -109.6064,0 v 12.1485 c 0,0.002 0,0.007 0,0.0104 0,0.008 -0.01,0.0142 -0.014,0.0142 -0,0 -0.01,-0.002 -0.01,-0.004 h -54.7631 c -0,0.002 -0.01,0.004 -0.01,0.004 -0,0 -0.01,-0.002 -0.01,-0.004 -0,-0.003 -0,-0.006 -0,-0.01 0,-0.004 0,-0.008 0,-0.0102 v -12.149 c -0,-0.002 -0,-0.006 -0,-0.01 0,-0.008 0.01,-0.0142 0.014,-0.0142 0,0 0.01,0.002 0.01,0.004 h 54.7625 c 0,-0.003 0.01,-0.004 0.01,-0.004 0.01,0 0.014,0.006 0.014,0.0142 0,0.004 -0,0.008 -0,0.0102 z m -109.6061,-3e-4 v 12.149 c 0,0.003 0,0.006 0,0.0102 0,0.004 -0,0.007 -0,0.01 -0,0.002 -0.01,0.004 -0.01,0.004 -0,0 -0.01,-0.002 -0.01,-0.004 h -54.7628 c -0,0.002 -0.01,0.004 -0.01,0.004 -0,0 -0.01,-0.002 -0.01,-0.004 h -3e-4 v -3e-4 c -0,-0.003 -0,-0.006 -0,-0.01 0,-0.004 0,-0.007 0,-0.01 v -12.1496 c -0,-0.002 -0,-0.006 -0,-0.01 0,-0.004 0,-0.007 0,-0.01 0,-0.003 0.01,-0.004 0.01,-0.004 0,0 0.01,0.002 0.011,0.004 h 54.7622 c 0,-0.003 0.01,-0.004 0.01,-0.004 0.01,0 0.014,0.006 0.014,0.0142 0,0.004 -0,0.007 -0,0.01 z m -109.6064,3e-4 v 12.1485 c 0,0.002 0,0.007 0,0.0104 0,0.008 -0.01,0.0142 -0.014,0.0142 -0,0 -0.01,-0.002 -0.01,-0.004 h -54.7631 c -0,0.002 -0.01,0.004 -0.01,0.004 -0,0 -0.01,-0.002 -0.01,-0.004 -0,-0.003 -0,-0.006 -0,-0.01 0,-0.004 0,-0.008 0,-0.0102 v -12.149 c -0,-0.002 -0,-0.006 -0,-0.01 0,-0.008 0.01,-0.0142 0.014,-0.0142 0,0 0.01,0.002 0.011,0.004 h 54.7625 c 0,-0.003 0.01,-0.004 0.01,-0.004 0.01,0 0.014,0.006 0.014,0.0142 0,0.004 -0,0.008 -0,0.0102 z m -109.6064,0 v 12.1485 c 0,0.002 0,0.007 0,0.0104 0,0.008 -0.01,0.0142 -0.014,0.0142 -0,0 -0.01,-0.002 -0.01,-0.004 h -54.7631 c -0,0.002 -0.01,0.004 -0.01,0.004 -0,0 -0.01,-0.002 -0.01,-0.004 -0,-0.003 -0,-0.006 -0,-0.01 0,-0.004 0,-0.008 0,-0.0102 v -12.149 c -0,-0.002 -0,-0.006 -0,-0.01 0,-0.008 0.01,-0.0142 0.014,-0.0142 0,0 0.01,0.002 0.01,0.004 h 54.7625 c 0,-0.003 0.01,-0.004 0.01,-0.004 0.01,0 0.014,0.006 0.014,0.0142 0,0.004 -0,0.008 -0,0.0102 z m -109.6061,-3e-4 v 12.149 c 0,0.003 0,0.006 0,0.0102 0,0.004 -0,0.007 -0,0.01 -0,0.002 -0.01,0.004 -0.01,0.004 -0,0 -0.01,-0.002 -0.01,-0.004 h -54.7628 c -0,0.002 -0.01,0.004 -0.01,0.004 -0,0 -0.01,-0.002 -0.01,-0.004 h -3e-4 v -3e-4 c -0,-0.003 -0,-0.006 -0,-0.01 0,-0.004 0,-0.007 0,-0.01 v -12.1496 c -0,-0.002 -0,-0.006 -0,-0.01 0,-0.004 0,-0.007 0,-0.01 0,-0.003 0.01,-0.004 0.01,-0.004 0,0 0.01,0.002 0.011,0.004 h 54.7622 c 0,-0.003 0.01,-0.004 0.01,-0.004 0.01,0 0.014,0.006 0.014,0.0142 0,0.004 -0,0.007 -0,0.01 z" />
  <path
     id="path14"
     style="fill:none;stroke:#1b1918;stroke-width:0.216;stroke-linecap:butt;stroke-linejoin:miter;stroke-dasharray:none"
     d="m -4347.4025,147.7165 h 54.8033 v -12.1691 c -0,-0.003 -0,-0.006 -0,-0.01 0,-0.008 0.01,-0.0141 0.014,-0.0141 0,0 0.01,0.002 0.01,0.004 h 54.7625 c 0,-0.002 0.01,-0.004 0.01,-0.004 0.01,0 0.014,0.006 0.014,0.0141 0,0.004 -0,0.008 -0,0.0103 v 12.1688 h 54.803 v -12.1694 c -0,-0.003 -0,-0.006 -0,-0.01 0,-0.004 0,-0.007 0,-0.01 0,-0.003 0.01,-0.004 0.01,-0.004 0,0 0.01,0.002 0.011,0.004 h 54.7623 c 0,-0.002 0.01,-0.004 0.01,-0.004 0.01,0 0.014,0.006 0.014,0.0141 0,0.004 -0,0.007 -0,0.01 v 12.1691 h 54.803 v -12.1691 c -0,-0.003 -0,-0.006 -0,-0.01 0,-0.008 0.01,-0.0141 0.014,-0.0141 0,0 0.01,0.002 0.01,0.004 h 54.7626 c 0,-0.002 0.01,-0.004 0.01,-0.004 0.01,0 0.014,0.006 0.014,0.0141 0,0.004 -0,0.008 -0,0.0103 v 12.1688 h 54.8033 v -12.1691 c -0,-0.003 -0,-0.006 -0,-0.01 0,-0.008 0.01,-0.0141 0.014,-0.0141 0,0 0.01,0.002 0.01,0.004 h 54.7625 c 0,-0.002 0.01,-0.004 0.01,-0.004 0.01,0 0.014,0.006 0.014,0.0141 0,0.004 -0,0.008 -0,0.0103 v 12.1688 h 54.803 v -12.1694 c -0,-0.003 -0,-0.006 -0,-0.01 0,-0.004 0,-0.007 0,-0.01 0,-0.003 0.01,-0.004 0.01,-0.004 0,0 0.01,0.002 0.011,0.004 h 54.7623 c 0,-0.002 0.01,-0.004 0.01,-0.004 0.01,0 0.014,0.006 0.014,0.0141 0,0.004 -0,0.007 -0,0.01 v 12.1691 h 54.803 v -12.1691 c -0,-0.003 -0,-0.006 -0,-0.01 0,-0.008 0.01,-0.0141 0.014,-0.0141 0,0 0.01,0.002 0.01,0.004 h 54.7625 c 0,-0.002 0.01,-0.004 0.01,-0.004 0.01,0 0.014,0.006 0.014,0.0141 0,0.004 -0,0.008 -0,0.0103 v 12.1688 h 54.8033 v -12.1691 c -0,-0.003 -0,-0.006 -0,-0.01 0,-0.008 0.01,-0.0141 0.014,-0.0141 0,0 0.01,0.002 0.011,0.004 h 42.5937 V 86.6341 c -0,-0.0025 -0,-0.0059 -0,-0.0099 0,-0.0039 0,-0.0076 0,-0.0102 0,-0.0025 0.01,-0.004 0.01,-0.004 0,0 0.01,0.0015 0.01,0.004 h 12.1689 V 25.5118 h -12.1689 c -0,0.0026 -0.01,0.0043 -0.01,0.0043 -0,0 -0.01,-0.0017 -0.01,-0.0043 -0,-0.0025 -0,-0.0059 -0,-0.0099 0,-0.004 0,-0.0077 0,-0.0102 v -61.0623 c -0,-0.0025 -0,-0.0059 -0,-0.0099 0,-0.0039 0,-0.0076 0,-0.0102 0,-0.0025 0.01,-0.0039 0.01,-0.0039 0,0 0.01,0.0014 0.01,0.0039 h 12.1689 v -61.1022 h -12.1692 c -0,0.0023 -0.01,0.004 -0.01,0.004 -0,0 -0.01,-0.0017 -0.01,-0.004 h -3e-4 v -3e-4 c -0,-0.0025 -0,-0.0059 -0,-0.0099 0,-0.004 0,-0.0076 0,-0.0102 v -61.0619 c -0,-0.003 -0,-0.006 -0,-0.01 0,-0.004 0,-0.008 0,-0.0102 0,-0.002 0.01,-0.004 0.01,-0.004 0,0 0.01,0.001 0.01,0.004 h 12.1689 v -61.1022 h -12.1692 c -0,0.002 -0.01,0.004 -0.01,0.004 -0,0 -0.01,-0.002 -0.01,-0.004 h -3e-4 v -3e-4 c -0,-0.002 -0,-0.006 -0,-0.01 0,-0.004 0,-0.008 0,-0.0102 v -61.0622 c -0,-0.003 -0,-0.006 -0,-0.01 0,-0.008 0.01,-0.0142 0.014,-0.0142 0,0 0.01,0.002 0.01,0.004 h 12.1686 v -61.1022 h -12.1692 c -0,0.002 -0.01,0.004 -0.01,0.004 -0,0 -0.01,-0.002 -0.01,-0.004 h -3e-4 v -3e-4 c -0,-0.002 -0,-0.006 -0,-0.01 0,-0.004 0,-0.008 0,-0.0102 v -48.8931 h -42.594 c -0,0.003 -0.01,0.004 -0.01,0.004 -0,0 -0.01,-0.002 -0.01,-0.004 -0,-0.002 -0,-0.006 -0,-0.01 0,-0.004 0,-0.008 0,-0.0102 v -12.1689 h -54.8033 v 12.1686 c 0,0.003 0,0.007 0,0.0105 0,0.008 -0.01,0.0142 -0.014,0.0142 -0,0 -0.01,-0.002 -0.01,-0.004 h -54.7631 c -0,0.003 -0.01,0.004 -0.01,0.004 -0,0 -0.01,-0.002 -0.01,-0.004 -0,-0.002 -0,-0.006 -0,-0.01 0,-0.004 0,-0.008 0,-0.0102 v -12.1689 h -54.803 v 12.1689 c 0,0.003 0,0.006 0,0.0102 0,0.004 -0,0.007 -0,0.01 -0,0.003 -0.01,0.004 -0.01,0.004 -0,0 -0.01,-0.002 -0.01,-0.004 h -54.7628 c -0,0.003 -0.01,0.004 -0.01,0.004 -0,0 -0.01,-0.002 -0.01,-0.004 h -3e-4 v -3e-4 c -0,-0.002 -0,-0.006 -0,-0.01 0,-0.004 0,-0.007 0,-0.01 v -12.1692 h -54.803 v 12.1686 c 0,0.003 0,0.007 0,0.0105 0,0.008 -0.01,0.0142 -0.014,0.0142 -0,0 -0.01,-0.002 -0.01,-0.004 h -54.7631 c -0,0.003 -0.01,0.004 -0.01,0.004 -0,0 -0.01,-0.002 -0.01,-0.004 -0,-0.002 -0,-0.006 -0,-0.01 0,-0.004 0,-0.008 0,-0.0102 v -12.1689 h -54.8033 v 12.1686 c 0,0.003 0,0.007 0,0.0105 0,0.008 -0.01,0.0142 -0.014,0.0142 -0,0 -0.01,-0.002 -0.01,-0.004 h -54.7631 c -0,0.003 -0.01,0.004 -0.01,0.004 -0,0 -0.01,-0.002 -0.01,-0.004 -0,-0.002 -0,-0.006 -0,-0.01 0,-0.004 0,-0.008 0,-0.0102 v -12.1689 h -54.803 v 12.1689 c 0,0.003 0,0.006 0,0.0102 0,0.004 -0,0.007 -0,0.01 -0,0.003 -0.01,0.004 -0.01,0.004 -0,0 -0.01,-0.002 -0.01,-0.004 h -54.7628 c -0,0.003 -0.01,0.004 -0.01,0.004 -0,0 -0.01,-0.002 -0.01,-0.004 h -3e-4 v -3e-4 c -0,-0.002 -0,-0.006 -0,-0.01 0,-0.004 0,-0.007 0,-0.01 v -12.1692 h -54.803 v 12.1686 c 0,0.003 0,0.007 0,0.0105 0,0.008 -0.01,0.0142 -0.014,0.0142 -0,0 -0.01,-0.002 -0.01,-0.004 h -54.7631 c -0,0.003 -0.01,0.004 -0.01,0.004 -0,0 -0.01,-0.002 -0.01,-0.004 -0,-0.002 -0,-0.006 -0,-0.01 0,-0.004 0,-0.008 0,-0.0102 v -12.1689 h -54.8033 v 12.1686 c 0,0.003 0,0.007 0,0.0105 0,0.008 -0.01,0.0142 -0.014,0.0142 -0,0 -0.01,-0.002 -0.01,-0.004 h -42.5942 v 48.8928 c 0,0.003 0,0.007 0,0.0105 0,0.004 -0,0.008 -0,0.0102 -0,0.003 -0.01,0.004 -0.01,0.004 -0,0 -0.01,-0.002 -0.01,-0.004 h -12.1692 v 61.1022 h 12.1686 c 0,-0.002 0.01,-0.004 0.011,-0.004 0.01,0 0.014,0.006 0.014,0.0142 0,0.004 -0,0.008 -0,0.0102 v 61.0616 c 0,0.003 0,0.007 0,0.0105 0,0.004 -0,0.008 -0,0.0102 -0,0.003 -0.01,0.004 -0.01,0.004 -0,0 -0.01,-0.002 -0.01,-0.004 h -12.1692 v 61.1022 h 12.1689 c 0,-0.002 0.01,-0.004 0.01,-0.004 0.01,0 0.014,0.006 0.014,0.0141 0,0.004 -0,0.008 -0,0.0102 v 61.0614 c 0,0.0026 0,0.0065 0,0.0105 0,0.004 -0,0.0077 -0,0.0102 -0,0.0026 -0.01,0.004 -0.01,0.004 -0,0 -0.01,-0.0017 -0.01,-0.004 h -12.1692 v 61.1022 h 12.1689 c 0,-0.0025 0.01,-0.0039 0.01,-0.0039 0.01,0 0.014,0.0062 0.014,0.0141 0,0.004 -0,0.0077 -0,0.0102 v 61.0617 c 0,0.0026 0,0.0065 0,0.0105 0,0.0079 -0.01,0.0142 -0.014,0.0142 -0,0 -0.01,-0.0017 -0.01,-0.0043 h -12.1689 V 86.614 h 12.1689 c 0,-0.0025 0.01,-0.004 0.01,-0.004 0.01,0 0.014,0.0063 0.014,0.0142 0,0.004 -0,0.0077 -0,0.0102 v 48.8931 h 42.5937 c 0,-0.002 0.01,-0.004 0.01,-0.004 0.01,0 0.014,0.006 0.014,0.0141 0,0.004 -0,0.008 -0,0.0103 z" />
  <path
     id="path16"
     style="fill:none;stroke:#1b1918;stroke-width:0.216;stroke-linecap:butt;stroke-linejoin:miter;stroke-dasharray:none"
     d="m -4390.0166,-430.5512 h 797.6693 v -73.681 c -0,-0.002 -0,-0.006 -0,-0.01 0,-0.008 0.01,-0.0142 0.014,-0.0142 0,0 0.01,0.002 0.01,0.004 h 12.1686 v -73.7008 h -12.1689 c -0,0.003 -0.01,0.004 -0.01,0.004 -0,0 -0.01,-0.002 -0.01,-0.004 -0,-0.002 -0,-0.006 -0,-0.01 0,-0.004 0,-0.008 0,-0.0102 v -73.6807 h -797.6693 v 73.6804 c 0,0.003 0,0.007 0,0.0105 0,0.008 -0.01,0.0142 -0.014,0.0142 -0,0 -0.01,-0.002 -0.01,-0.004 h -12.1689 v 73.7008 h 12.1686 c 0,-0.003 0.01,-0.004 0.011,-0.004 0.01,0 0.014,0.006 0.014,0.0142 0,0.004 -0,0.008 -0,0.0102 z m 42.6141,-14.1732 v -3e-4 c -0,-0.003 -0,-0.006 -0,-0.01 0,-0.004 0,-0.007 0,-0.01 v -12.1496 c -0,-0.003 -0,-0.006 -0,-0.01 0,-0.004 0,-0.007 0,-0.01 0,-0.003 0.01,-0.004 0.01,-0.004 0,0 0.01,0.002 0.011,0.004 h 54.7622 c 0,-0.003 0.01,-0.004 0.01,-0.004 0.01,0 0.014,0.006 0.014,0.0142 0,0.004 -0,0.007 -0,0.01 v 12.149 c 0,0.003 0,0.006 0,0.0102 0,0.004 -0,0.007 -0,0.01 -0,0.002 -0.01,0.004 -0.01,0.004 -0,0 -0.01,-0.002 -0.01,-0.004 h -54.7628 c -0,0.002 -0.01,0.004 -0.01,0.004 -0,0 -0.01,-0.001 -0.01,-0.004 z m 109.6064,-0.0202 v -12.149 c -0,-0.002 -0,-0.006 -0,-0.01 0,-0.008 0.01,-0.0142 0.014,-0.0142 0,0 0.01,0.002 0.01,0.004 h 54.7625 c 0,-0.003 0.01,-0.004 0.01,-0.004 0.01,0 0.014,0.006 0.014,0.0142 0,0.004 -0,0.008 -0,0.0102 v 12.1484 c 0,0.003 0,0.007 0,0.0105 0,0.008 -0.01,0.0142 -0.014,0.0142 -0,0 -0.01,-0.002 -0.01,-0.004 h -54.7631 c -0,0.002 -0.01,0.004 -0.01,0.004 -0,0 -0.01,-0.002 -0.01,-0.004 -0,-0.003 -0,-0.006 -0,-0.01 0,-0.004 0,-0.008 0,-0.0102 z m 109.6064,0 v -12.149 c -0,-0.002 -0,-0.006 -0,-0.01 0,-0.008 0.01,-0.0142 0.014,-0.0142 0,0 0.01,0.002 0.011,0.004 h 54.7625 c 0,-0.003 0.01,-0.004 0.01,-0.004 0.01,0 0.014,0.006 0.014,0.0142 0,0.004 -0,0.008 -0,0.0102 v 12.1484 c 0,0.003 0,0.007 0,0.0105 0,0.008 -0.01,0.0142 -0.014,0.0142 -0,0 -0.01,-0.002 -0.01,-0.004 h -54.7631 c -0,0.002 -0.01,0.004 -0.01,0.004 -0,0 -0.01,-0.002 -0.01,-0.004 -0,-0.003 -0,-0.006 -0,-0.01 0,-0.004 0,-0.008 0,-0.0102 z m 109.6061,0.0202 v -3e-4 c -0,-0.003 -0,-0.006 -0,-0.01 0,-0.004 0,-0.007 0,-0.01 v -12.1496 c -0,-0.003 -0,-0.006 -0,-0.01 0,-0.004 0,-0.007 0,-0.01 0,-0.003 0.01,-0.004 0.01,-0.004 0,0 0.01,0.002 0.011,0.004 h 54.7622 c 0,-0.003 0.01,-0.004 0.01,-0.004 0.01,0 0.014,0.006 0.014,0.0142 0,0.004 -0,0.007 -0,0.01 v 12.149 c 0,0.003 0,0.006 0,0.0102 0,0.004 -0,0.007 -0,0.01 -0,0.002 -0.01,0.004 -0.01,0.004 -0,0 -0.01,-0.002 -0.01,-0.004 h -54.7628 c -0,0.002 -0.01,0.004 -0.01,0.004 -0,0 -0.01,-0.001 -0.01,-0.004 z m 109.6064,-0.0202 v -12.149 c -0,-0.002 -0,-0.006 -0,-0.01 0,-0.008 0.01,-0.0142 0.014,-0.0142 0,0 0.01,0.002 0.01,0.004 h 54.7625 c 0,-0.003 0.01,-0.004 0.01,-0.004 0.01,0 0.014,0.006 0.014,0.0142 0,0.004 -0,0.008 -0,0.0102 v 12.1484 c 0,0.003 0,0.007 0,0.0105 0,0.008 -0.01,0.0142 -0.014,0.0142 -0,0 -0.01,-0.002 -0.01,-0.004 h -54.7631 c -0,0.002 -0.01,0.004 -0.01,0.004 -0,0 -0.01,-0.002 -0.01,-0.004 -0,-0.003 -0,-0.006 -0,-0.01 0,-0.004 0,-0.008 0,-0.0102 z m 109.6064,0 v -12.149 c -0,-0.002 -0,-0.006 -0,-0.01 0,-0.008 0.01,-0.0142 0.014,-0.0142 0,0 0.01,0.002 0.011,0.004 h 54.7625 c 0,-0.003 0.01,-0.004 0.01,-0.004 0.01,0 0.014,0.006 0.014,0.0142 0,0.004 -0,0.008 -0,0.0102 v 12.1484 c 0,0.003 0,0.007 0,0.0105 0,0.008 -0.01,0.0142 -0.014,0.0142 -0,0 -0.01,-0.002 -0.01,-0.004 h -54.7631 c -0,0.002 -0.01,0.004 -0.01,0.004 -0,0 -0.01,-0.002 -0.01,-0.004 -0,-0.003 -0,-0.006 -0,-0.01 0,-0.004 0,-0.008 0,-0.0102 z m 109.6061,0.0202 v -3e-4 c -0,-0.003 -0,-0.006 -0,-0.01 0,-0.004 0,-0.007 0,-0.01 v -12.1496 c -0,-0.003 -0,-0.006 -0,-0.01 0,-0.004 0,-0.007 0,-0.01 0,-0.003 0.01,-0.004 0.01,-0.004 0,0 0.01,0.002 0.01,0.004 h 54.7622 c 0,-0.003 0.01,-0.004 0.01,-0.004 0.01,0 0.014,0.006 0.014,0.0142 0,0.004 -0,0.007 -0,0.01 v 12.149 c 0,0.003 0,0.006 0,0.0102 0,0.004 -0,0.007 -0,0.01 -0,0.002 -0.01,0.004 -0.01,0.004 -0,0 -0.01,-0.002 -0.01,-0.004 h -54.7628 c -0,0.002 -0.01,0.004 -0.01,0.004 -0,0 -0.01,-0.001 -0.01,-0.004 z" />
  <path
     id="path18"
     style="fill:none;stroke:#1b1918;stroke-width:0.216;stroke-linecap:butt;stroke-linejoin:miter;stroke-dasharray:none"
     d="m -3330.5743,62.8713 c 5.5446,33.609 34.6731,58.8583 69.853,58.8583 35.2361,0 64.3709,-25.1705 69.8491,-58.8583 1.0454,-6.8 6.9185,-12.0078 14.0077,-12.0078 h 191.1039 v 73.7008 l -12.174,-0.002 -0.017,73.688 12.191,0.015 v 73.7008 h -549.9213 V 198.265 l 12.174,0.002 0.017,-73.6877 -12.1913,-0.015 V 50.8635 h 191.0999 c 7.0892,0 12.9623,5.2078 14.0077,12.0078 z m -144.0051,194.9015 0.015,-12.1714 61.0895,0.0172 -0.017,12.176 z m 122.2047,0 0.015,-12.1714 61.0895,0.0172 -0.017,12.176 z m 122.2047,0 0.015,-12.1714 61.0895,0.0172 -0.017,12.176 z m 122.2047,0 0.015,-12.1714 61.0894,0.0172 -0.017,12.176 z" />
  <path
     id="path20"
     style="fill:none;stroke:#1b1918;stroke-width:0.216;stroke-linecap:butt;stroke-linejoin:miter;stroke-dasharray:none"
     d="m -886.0558,-305.9787 v -11.9056 h -91.0202 v 11.9056 z m -260.9255,0 v -11.9056 h -91.021 v 11.9056 z m -260.926,0 v -11.9056 h -91.021 v 11.9056 z m 782.7781,0 v -11.9056 H -716.15 v 11.9056 z m -898.8684,572.758 h 11.9055 v -81.7688 h -11.9055 z m 0,-227.1354 h 11.9055 v -81.7687 h -11.9055 z m 0,-227.135 h 11.9055 v -81.7688 h -11.9055 z m 0,681.4051 h 11.9055 v -81.7684 h -11.9055 z m 980.7874,-572.3807 v -218.0491 -32.7076 h -953.9677 -38.1583 v 850.3937 h 292.5496 z m -98.716,-9.6046 c 6.1829,5.3002 6.1829,13.9728 0,19.2733 l -589.6556,505.4179 c -6.183,5.3005 -16.3015,5.3005 -22.4847,0 -6.1835,-5.2999 -6.1835,-13.9731 0,-19.2725 l 589.655,-505.4187 c 6.1832,-5.2999 16.3021,-5.2999 22.4853,0 z m -89.7863,-0.0439 c -6.1832,-5.3005 -16.302,-5.3005 -22.4847,0 l -499.818,428.4147 c -6.1832,5.3002 -6.1832,13.9725 0,19.273 6.1835,5.3 16.302,5.3 22.4858,0 l 499.8169,-428.4147 c 6.1838,-5.3005 6.1838,-13.9731 0,-19.273 z m -89.9421,0.0022 c -6.1838,-5.2993 -16.3021,-5.2999 -22.4853,0 l -409.877,351.3232 c -6.1835,5.2999 -6.1835,13.9731 0,19.273 6.1832,5.2999 16.3018,5.2999 22.4855,0 l 409.8768,-351.3226 c 6.1832,-5.3002 6.1829,-13.9728 0,-19.2736 z m -89.9414,0.0017 c -6.1832,-5.2996 -16.302,-5.2996 -22.4852,0 l -319.9377,274.2327 c -6.1835,5.3 -6.1835,13.9731 -6e-4,19.2731 6.1838,5.2999 16.3021,5.2999 22.4853,-6e-4 L -911.596,-68.8377 c 6.1832,-5.3005 6.1832,-13.9731 0,-19.2736 z m -342.4257,216.4153 c 0,3.7636 15.6824,5.8314 22.4852,3e-4 l 229.9972,-197.14 c 6.1835,-5.3008 6.1835,-13.9731 6e-4,-19.273 -7.6844,-3.293 -13.8782,-7.3786 -22.4858,-6e-4 l -229.9972,197.1405 c -6.1835,5.3 -6.1835,13.9731 0,19.2728 z m -0.7132,-76.2197 c 6.1835,5.3003 16.3015,5.3 22.4852,0 l 140.3581,-120.3069 c 6.1829,-5.2999 6.1829,-13.9722 -6e-4,-19.2721 v -3e-4 c -6.1838,-5.3005 -16.3015,-5.3005 -22.4847,-6e-4 l -140.358,120.3066 c -6.1832,5.3002 -6.1838,13.9726 0,19.2733 z m -101.4517,445.8419 v 11.9055 h -85.0397 v -11.9055 z" />
  <path
     id="path22"
     style="fill:none;stroke:#1b1918;stroke-width:0.216;stroke-linecap:butt;stroke-linejoin:miter;stroke-dasharray:none"
     d="m -1708.1076,484.4954 h -140.5182 l -672.4582,-576.3929 3e-4,-227.5121 h 81.9187 v -11.9055 h 91.0208 v 11.9055 h 169.9058 v -11.9055 h 91.0202 v 11.9055 h 169.9053 v -11.9055 h 91.021 v 11.9055 h 169.905 v -11.9055 h 91.021 v 11.9055 h 13.1638 v 36.7189 h 11.9055 v 81.7687 h -11.9055 v 145.3663 h 11.9055 v 81.7688 h -11.9055 v 145.3666 h 11.9055 v 81.7687 h -11.9055 v 145.3663 h 11.9055 v 81.7685 h -11.9055 v 4.0122 h -70.8658 v 11.9055 h -85.0397 z m -714.2604,-585.9975 c -6.1829,5.3002 -6.1829,13.9728 0,19.2733 l 589.6556,505.4179 c 6.183,5.3005 16.3015,5.3005 22.4847,0 6.1835,-5.3 6.1835,-13.9731 0,-19.2725 l -589.655,-505.4187 c -6.1833,-5.3 -16.3021,-5.3 -22.4853,0 z m 89.7863,-0.044 c 6.1832,-5.3005 16.302,-5.3005 22.4847,0 l 499.818,428.4148 c 6.1832,5.3002 6.1832,13.9725 0,19.273 -6.1835,5.2999 -16.302,5.2999 -22.4858,0 L -2332.5817,-82.273 c -6.1838,-5.3005 -6.1838,-13.9731 0,-19.2731 z m 89.9421,0.002 c 6.1838,-5.2994 16.3021,-5.2999 22.4853,0 l 409.877,351.3231 c 6.1835,5.3 6.1835,13.9731 0,19.2731 -6.1832,5.2999 -16.3018,5.2999 -22.4855,0 l -409.8768,-351.3226 c -6.1832,-5.3002 -6.1829,-13.9728 0,-19.2736 z m 89.9414,0.002 c 6.1832,-5.2997 16.302,-5.2997 22.4852,0 l 319.9377,274.2327 c 6.1835,5.2999 6.1835,13.9731 6e-4,19.273 -6.1838,5.3 -16.3021,5.3 -22.4853,-5e-4 l -319.9382,-274.2316 c -6.1832,-5.3005 -6.1832,-13.9731 0,-19.2736 z m 342.4257,216.4153 c 0,3.7635 -15.6824,5.8314 -22.4852,2e-4 l -229.9972,-197.1399 c -6.1835,-5.3008 -6.1835,-13.9731 -6e-4,-19.2731 7.6844,-3.293 13.8781,-7.3785 22.4858,-5e-4 l 229.9972,197.1405 c 6.1835,5.2999 6.1835,13.9731 0,19.2728 z m 0.7132,-76.2197 c -6.1835,5.3002 -16.3015,5.2999 -22.4852,0 l -140.3581,-120.3069 c -6.1829,-5.2999 -6.1829,-13.9722 6e-4,-19.2725 6.1838,-5.3005 16.3015,-5.3005 22.4847,-5e-4 l 140.358,120.3066 c 6.1832,5.3002 6.1838,13.9725 0,19.2733 z" />
  <path
     id="path24"
     style="fill:none;stroke:#1b1918;stroke-width:0.216;stroke-linecap:butt;stroke-linejoin:miter;stroke-dasharray:none"
     d="m -1118.0928,-594.8026 h 11.9055 v 85.04 h -11.9055 z m 436.2544,-33.9036 h 12.1873 v 95.3973 h -12.1873 v 94.4121 H -1531.47 v -70.8658 h -11.3389 v -85.0396 h 11.3389 v -70.8662 h 849.6316 z" />
  <path
     id="path26"
     style="fill:none;stroke:#1b1918;stroke-width:0.216;stroke-linecap:butt;stroke-linejoin:miter;stroke-dasharray:none"
     d="m -1869.6872,807.1002 v -11.9056 h -91.0213 v 11.9056 z m 38.2518,-68.6424 h -11.9055 V 596.0891 h 11.9055 z m -255.9843,177.1653 h -11.9056 v -81.7687 h 11.9056 z m -255.5623,0 h -11.9056 v -81.7687 h 11.9056 z m 255.5623,-177.1653 h -11.9056 V 656.689 h 11.9056 z m -255.5623,0 h -11.9056 V 656.689 h 11.9056 z m 255.5623,-177.1654 h -11.9056 v -81.7687 h 11.9056 z m -255.5623,0 h -11.9056 v -81.7687 h 11.9056 z m 0,-184.7999 h -11.9056 v -81.7687 h 11.9056 z m 382.2567,655.8957 v -11.9058 h -91.0201 v 11.9058 z m -260.9257,0 v -11.9058 h -91.0207 v 11.9058 z m -260.9257,0 v -11.9058 h -91.0213 v 11.9058 z m 782.7777,0 v -11.9058 h -91.0207 v 11.9058 z m -898.8681,-584.6636 h 11.9052 v 81.7688 h -11.9052 z m 0,227.1354 h 11.9052 v 81.7687 h -11.9052 z m 0,227.135 11.9052,3e-4 v 81.7682 h -11.9052 z m 0,-681.4051 h 11.9052 v 81.7684 h -11.9052 z m 935.2769,823.1374 H -2610.006 V 193.3336 h 36.408 364.083 l 455.104,381.587 v 163.5375 c 0,29.982 27.3062,54.5125 60.6804,54.5125 h 30.3404 z" />
  <path
     id="path28"
     style="fill:none;stroke:#1b1918;stroke-width:0.216;stroke-linecap:butt;stroke-linejoin:miter;stroke-dasharray:none"
     d="m -1203.3814,839.3576 v -11.9055 h 91.0214 v 11.9055 z m -38.2518,-68.6424 h 11.9055 V 628.3466 h -11.9055 z m 255.9844,177.1654 h 11.9055 v -81.7688 h -11.9055 z m 255.5623,0 h 11.9055 v -81.7688 h -11.9055 z M -985.6488,770.7152 h 11.9055 v -81.7687 h -11.9055 z m 255.5623,0 h 11.9055 v -81.7687 h -11.9055 z M -985.6488,593.5499 h 11.9055 v -81.7688 h -11.9055 z m 255.5623,0 h 11.9055 v -81.7688 h -11.9055 z m 0,-184.7999 h 11.9055 v -81.7688 h -11.9055 z M -486.3067,252.8473 V 225.591 h -377.2468 l -455.1041,381.587 v 163.5375 c 0,29.982 -27.3061,54.5125 -60.6804,54.5125 h -30.3404 l -3.6,227.5118 h 40.0088 v 11.9058 h 91.0207 v -11.9058 h 169.9056 v 11.9058 h 91.0202 v -11.9058 h 169.9055 v 11.9058 h 91.0208 v -11.9058 h 169.905 v 11.9058 h 91.0213 v -11.9058 h 13.1638 v -36.7189 h 11.9052 v -81.7685 l -11.9052,3e-4 V 788.8861 h 11.9052 v -81.7687 h -11.9052 V 561.7508 h 11.9052 V 479.982 h -11.9052 V 334.6157 h 11.9052 v -81.7684 z m -189.8093,-15.918 v 11.9055 h 95.3969 v -11.9055 z" />
  <path
     id="path30"
     style="fill:none;stroke:#1b1918;stroke-width:0.216;stroke-linecap:butt;stroke-linejoin:miter;stroke-dasharray:none"
     d="m -1640.6864,-1738.7745 h 496.5647 v 36.4088 h 11.3392 v 91.0207 h -11.3392 v 169.9059 h 11.3392 v 91.0201 h -11.3392 v 169.9053 h 11.3392 v 91.021 h -11.3392 v 169.905 h 11.3392 v 91.0211 h -11.3392 v 36.4079 h -1416.8026 v -36.4079 h -11.3392 v -91.0211 h 11.3392 v -169.905 h -11.3392 v -91.021 h 11.3392 v -169.9053 h -11.3392 v -91.0201 h 11.3392 v -169.9059 h -11.3392 v -91.0207 h 11.3392 v -81.919 h 28.3475 833.4712 v 5e-4 c 0,25.0311 12.7565,45.5097 28.3476,45.5097 z m -648.0266,923.3717 h 56.6929 v 11.9055 h -56.6929 z m 425.2827,0 h 56.6929 v 11.9055 h -56.6929 z m 413.4617,0 h 56.6929 v 11.9055 h -56.6929 z m 0,-243.7796 h 56.6929 v 11.9055 h -56.6929 z m 0,-255.685 h 56.6929 v 11.9055 h -56.6929 z m 164.1146,499.4646 h 56.693 v 11.9055 h -56.693 z m 0,-243.7796 h 56.693 v 11.9055 h -56.693 z m 0,-255.685 h 56.693 v 11.9055 h -56.693 z m -1190.031,499.4646 h 56.6929 v 11.9055 h -56.6929 z m 425.2828,0 h 56.6929 v 11.9055 h -56.6929 z m 436.536,0 h 56.6929 v 11.9055 h -56.6929 z m 0,-243.7796 h 56.6929 v 11.9055 h -56.6929 z m 0,-255.685 h 56.6929 v 11.9055 h -56.6929 z m -533.4809,-387.4983 h 11.9055 v 91.0207 h -11.9055 z m 0,782.778 h 11.9055 v 91.0211 h -11.9055 z m 0,-260.926 h 11.9055 v 91.021 h -11.9055 z m 0,-260.9254 h 11.9055 v 91.0201 h -11.9055 z m 436.536,-260.9266 h 11.9055 v 91.0207 h -11.9055 z m 0,782.778 h 11.9055 v 91.0211 h -11.9055 z m 0,-260.926 h 11.9055 v 91.021 h -11.9055 z m 0,-260.9254 h 11.9055 v 91.0201 h -11.9055 z m 283.748,-180.3538 h 11.9055 v 85.0394 h -11.9055 z m 0,176.4003 h 11.9055 v 85.0393 h -11.9055 z" />
  <path
     id="path32"
     style="fill:none;stroke:#1b1918;stroke-width:0.216;stroke-linecap:butt;stroke-linejoin:miter;stroke-dasharray:none"
     d="m -602.9487,-962.3684 v 11.9055 h -56.6929 v -11.9055 h -107.4047 v 11.9055 h -56.6929 v -11.9055 H -931.161 v 11.9055 h -56.6929 v -11.9055 h -85.0394 v -104.8595 h -11.9055 v -81.7688 h 11.9055 v -95.3966 h -11.9055 v -81.7687 h 11.9055 v -95.3966 h -11.9055 v -81.7688 h 11.9055 v -103.0312 h -11.9055 v -81.7687 h 11.9055 v -101.3899 h 554.984 v 101.3899 h 11.9055 v 81.7687 h -11.9055 v 103.0312 h 11.9055 v 81.7688 h -11.9055 v 95.3966 h 11.9055 v 81.7687 h -11.9055 v 95.3966 h 11.9055 v 81.7688 h -11.9055 v 104.8595 z" />
  <path
     id="path34"
     style="fill:none;stroke:#1b1918;stroke-width:0.216;stroke-linecap:butt;stroke-linejoin:miter;stroke-dasharray:none"
     d="M -3064.9065,27.8535 V 39.759 h -56.6929 V 27.8535 h -107.4047 V 39.759 h -56.6929 V 27.8535 h -107.4218 V 39.759 h -56.6929 V 27.8535 h -85.0394 V -77.006 h -11.9055 v -81.7687 h 11.9055 v -95.3966 h -11.9055 v -81.7688 h 11.9055 v -95.3966 h -11.9055 v -81.7687 h 11.9055 c 0,-106.9252 0,-37.2612 0,-143.953 h 554.984 c 0,106.6918 0,37.0278 0,143.953 h 11.9055 v 81.7687 h -11.9055 v 95.3966 h 11.9055 v 81.7688 h -11.9055 v 95.3966 h 11.9055 v 81.7687 h -11.9055 V 27.8535 Z" />
  <path
     id="path36"
     style="fill:none;stroke:#1b1918;stroke-width:0.216;stroke-linecap:butt;stroke-linejoin:miter;stroke-dasharray:none"
     d="m -1011.5957,-694.345 v 11.9055 h 56.6929 v -11.9055 c 105.8904,0 165.626,0 271.5193,0 v 11.9055 h 56.6929 v -11.9055 h 85.0394 v -56.7369 h 11.9055 v -142.3687 h -11.9055 v -46.0428 h -554.9839 v 46.0428 h -11.9055 v 142.3687 h 11.9055 v 56.7369 z" />
  <path
     id="path38"
     style="fill:none;stroke:#1b1918;stroke-width:0.216;stroke-linecap:butt;stroke-linejoin:miter;stroke-dasharray:none"
     d="m -1999.8111,-559.427 v 126.7113 l -555.0006,0.4011 V -559.427 h -11.9055 v -91.0213 h 11.9055 v -114.8751 l 555.0006,-0.4011 v 115.2762 h 11.9056 v 91.0213 z m -283.1414,-180.2143 h 11.9055 v 73.1339 h -11.9055 z m 0,176.4003 h 11.9055 v 85.0394 h -11.9055 z m -186.8031,-125.1365 h 56.6929 v 11.9055 h -56.6929 z m 328.2123,0 h 56.6929 v 11.9055 h -56.6929 z" />
  <path
     id="path40"
     style="fill:none;stroke:#1b1918;stroke-width:0.216;stroke-linecap:butt;stroke-linejoin:miter;stroke-dasharray:none"
     d="m -1746.8524,-738.2083 v -25.4623 h -213.3822 v 25.4623 h -11.9055 v 85.0393 h 11.9055 v 91.3609 h -11.9055 v 85.0394 h 11.9055 v 45.7058 h 213.3822 v -45.7058 h 11.9055 v -85.0394 h -11.9055 v -91.3609 h 11.9055 v -85.0393 z" />
  <path
     id="path42"
     style="fill:none;stroke:#1b1918;stroke-width:0.216;stroke-linecap:butt;stroke-linejoin:miter;stroke-dasharray:none"
     d="m -4364.187,-815.8056 v 36.7188 h 85.0393 v 11.9055 h 56.693 v -11.9055 h 130.479 v 11.9055 h 56.6929 v -11.9055 h 181.4179 v 11.9055 h 56.6929 v -11.9055 h 130.479 v 11.9055 h 56.6929 v -11.9055 h 192.6712 v 11.9055 h 56.6929 v -11.9055 h 107.4047 v 11.9055 h 56.6929 v -11.9055 h 107.4218 v 11.9055 h 56.6929 v -11.9055 h 85.0394 v -36.7188 h 11.9055 v -81.7688 h -11.9055 v -145.3663 h 11.9055 v -81.7687 h -11.9055 v -145.3666 h 11.9055 v -81.7688 h -11.9055 v -145.3663 h 11.9055 v -81.7685 h -11.9055 v -27.2562 H -4364.187 v 27.2562 h -11.9055 v 81.7685 h 11.9055 v 145.3663 h -11.9055 v 81.7688 h 11.9055 v 145.3666 h -11.9055 v 81.7687 h 11.9055 v 145.3663 h -11.9055 v 81.7688 z m 413.3761,-763.174 h 11.9055 v 81.7685 h -11.9055 z m 0,227.1348 h 11.9055 v 81.7688 h -11.9055 z m 0,227.1354 h 11.9055 v 81.7687 h -11.9055 z m 0,227.135 h 11.9055 v 81.7688 h -11.9055 z m 436.536,-681.4052 h 11.9052 v 81.7685 h -11.9052 z m 0,227.1348 h 11.9052 v 81.7688 h -11.9052 z m 0,227.1354 h 11.9052 v 81.7687 h -11.9052 z m 0,227.1353 h 11.9052 v 81.7682 h -11.9052 z" />
</svg>
