<?xml version="1.0" encoding="utf-8"?>
<!-- Generator: Adobe Illustrator 24.2.0, SVG Export Plug-In . SVG Version: 6.00 Build 0)  -->
<svg version="1.1"
	 id="svg2" xmlns:cc="http://creativecommons.org/ns#" xmlns:dc="http://purl.org/dc/elements/1.1/" xmlns:inkscape="http://www.inkscape.org/namespaces/inkscape" xmlns:rdf="http://www.w3.org/1999/02/22-rdf-syntax-ns#" xmlns:sodipodi="http://sodipodi.sourceforge.net/DTD/sodipodi-0.dtd" xmlns:svg="http://www.w3.org/2000/svg"
	 xmlns="http://www.w3.org/2000/svg" xmlns:xlink="http://www.w3.org/1999/xlink" x="0px" y="0px" viewBox="0 0 789.6 1161.8"
	 style="enable-background:new 0 0 789.6 1161.8;" xml:space="preserve">
<style type="text/css">
	.st0{fill:none;stroke:#000000;stroke-miterlimit:3.2;}
</style>
<sodipodi:namedview  bordercolor="#666666" borderopacity="1.0" id="base" inkscape:current-layer="layer1" inkscape:cx="868.8899" inkscape:cy="-354.9771" inkscape:document-units="mm" inkscape:object-nodes="true" inkscape:pageopacity="0.0" inkscape:pageshadow="2" inkscape:snap-midpoints="true" inkscape:window-height="755" inkscape:window-maximized="1" inkscape:window-width="1280" inkscape:window-x="0" inkscape:window-y="1" inkscape:zoom="0.5" pagecolor="#ffffff" showgrid="false" showguides="true">
	</sodipodi:namedview>
<path id="rect6990" inkscape:connector-curvature="0" class="st0" d="M43,808.6c-3.1,0-5.7,2.5-5.7,5.7v45.4c0,3.1,2.5,5.7,5.7,5.7
	h459.2c3.1,0,5.7-2.5,5.7-5.7v-45.4c0-3.1-2.5-5.7-5.7-5.7H488v28.3h-8.5v-28.3h-51.4v28.3h-8.5v-28.3h-51.4v28.3h-8.5v-28.3h-51.4
	v28.3h-8.5v-28.3h-51.4v28.3h-8.5v-28.3h-51.4v28.3H180v-28.3h-51.4v28.3H120v-28.3H68.5v28.3H60v-28.3H43z"/>
<path id="rect4159-83" inkscape:connector-curvature="0" class="st0" d="M125.4,635.8c-0.9,0.1-1.8,0.6-2.3,1.4l-45.4,78.7
	l-18.4-10.6c-0.6-0.4-1.3-0.6-2-0.6c-1.5,0-3,0.7-3.8,2.1L37,735.4h2.8c-1.6,0-2.8,1.3-2.8,2.8v51c0,1.6,1.3,2.8,2.8,2.8h54.5v-28.3
	h8.2V792h141.7v-28.3h8.2V792h141.7v-28.3h8.2V792H544v-28.3h8.2V792h141.7v-28.3h8.2V792H757c1.6,0,2.8-1.3,2.8-2.8v-51
	c0-1.6-1.3-2.8-2.8-2.8h-47.9l-20.7-12l45.4-78.7c0.8-1.4,0.3-3.1-1-3.9l-7.4-4.3c-1.4-0.8-3.1-0.3-3.9,1l-45.4,78.7l-18.4-10.6
	c-0.6-0.4-1.3-0.6-2-0.6c-1.5,0-3,0.7-3.8,2.1l-16.2,28.1h-1.3l-20.8-12l45.4-78.7c0.8-1.4,0.3-3.1-1-3.9l-7.4-4.3
	c-1.4-0.8-3.1-0.3-3.9,1L601.3,716L583,705.7c-0.6-0.4-1.3-0.6-2-0.6c-1.5,0-3,0.7-3.8,2.1l-16.3,28.2h-1.1l-20.9-12.1l45.4-78.7
	c0.8-1.4,0.3-3.1-1-3.9l-7.4-4.3c-1.4-0.8-3.1-0.3-3.9,1l-45.4,78.7l-18.4-10.6c-0.6-0.4-1.3-0.6-2-0.6c-1.5,0-3,0.7-3.8,2.1
	L486,735.4h-0.9l-21-12.2l45.4-78.7c0.8-1.4,0.3-3.1-1-3.9l-7.4-4.3c-1.4-0.8-3.1-0.3-3.9,1L451.8,716l-18.4-10.6
	c-0.6-0.4-1.3-0.6-2-0.6c-1.5,0-3,0.7-3.8,2.1l-16.3,28.3h-0.8L389.3,723l45.4-78.7c0.8-1.4,0.3-3.1-1-3.9l-7.4-4.3
	c-1.4-0.8-3.1-0.3-3.9,1l-45.4,79l-18.4-10.6c-0.6-0.4-1.3-0.6-2-0.6c-1.5,0-3,0.7-3.8,2.1l-16.4,28.4h-0.6l-21.3-12.3l45.4-78.7
	c0.8-1.4,0.3-3.1-1-3.9l-7.4-4.3c-1.4-0.8-3.1-0.3-3.9,1L302.2,716l-18.4-10.6c-0.6-0.4-1.3-0.6-2-0.6c-1.5,0-3,0.7-3.8,2.1
	l-16.4,28.4H261l-21.4-12.4l45.4-78.7c0.8-1.4,0.3-3.1-1-3.9l-7.4-4.3c-1.4-0.8-3.1-0.3-3.9,1l-45.3,79L209,705.4
	c-0.6-0.4-1.3-0.6-2-0.6c-1.5,0-3,0.7-3.8,2.1l-16.5,28.5h-0.3L164.9,723l45.4-78.7c0.8-1.4,0.3-3.1-1-3.9l-7.4-4.3
	c-1.4-0.8-3.1-0.3-3.9,1l-45.4,78.7l-18.4-10.6c-0.6-0.4-1.3-0.6-2-0.6c-1.5,0-3,0.7-3.8,2.1l-16.5,28.6h-0.2l-21.6-12.5l45.4-78.7
	c0.8-1.4,0.3-3.1-1-3.9l-7.4-4.3C126.6,635.9,126,635.7,125.4,635.8L125.4,635.8z"/>
<path id="rect4159-83-1" inkscape:connector-curvature="0" class="st0" d="M666.5,697.2c0.9-0.1,1.8-0.6,2.3-1.4l45.4-78.7
	l18.4,10.6c0.6,0.4,1.3,0.6,2,0.6c1.5,0,3-0.7,3.8-2.1l16.5-28.6h-2.8c1.6,0,2.8-1.3,2.8-2.8v-51c0-1.6-1.3-2.8-2.8-2.8h-54.5v28.3
	h-8.2V541H547.7v28.3h-8.2V541H397.8v28.3h-8.2V541H247.7v28.3h-8.2V541H97.8v28.3h-8.2V541H35c-1.6,0-2.8,1.3-2.8,2.8v51
	c0,1.6,1.3,2.8,2.8,2.8h47.9l20.7,11.9l-45.4,78.7c-0.8,1.4-0.3,3.1,1,3.9l7.4,4.3c1.4,0.8,3.1,0.3,3.9-1l45.4-78.7l18.4,10.6
	c0.6,0.4,1.3,0.6,2,0.6c1.5,0,3-0.7,3.8-2.1l16.2-28.1h1.3l20.8,12L133,688.4c-0.8,1.4-0.3,3.1,1,3.9l7.4,4.3c1.4,0.8,3.1,0.3,3.9-1
	l45.4-78.7l18.4,10.6c0.6,0.4,1.3,0.6,2,0.6c1.5,0,3-0.7,3.8-2.1l16.3-28.2h1.1l20.9,12.1l-45.4,78.7c-0.8,1.4-0.3,3.1,1,3.9
	l7.4,4.3c1.4,0.8,3.1,0.3,3.9-1l45.4-78.7l18.4,10.6c0.6,0.4,1.3,0.6,2,0.6c1.5,0,3-0.7,3.8-2.1L306,598h0.9l21,12.2l-45.4,78.7
	c-0.8,1.4-0.3,3.1,1,3.9l7.4,4.3c1.4,0.8,3.1,0.3,3.9-1l45.4-78.7l18.4,10.6c0.6,0.4,1.3,0.6,2,0.6c1.5,0,3-0.7,3.8-2.1l16.3-28.3
	h0.8l21.2,12.2l-45.4,78.7c-0.8,1.4-0.3,3.1,1,3.9l7.4,4.3c1.4,0.8,3.1,0.3,3.9-1l45.4-78.7l18.4,10.6c0.6,0.4,1.3,0.6,2,0.6
	c1.5,0,3-0.7,3.8-2.1l16.4-28.4h0.6l21.3,12.3l-45.4,78.7c-0.8,1.4-0.3,3.1,1,3.9l7.4,4.3c1.4,0.8,3.1,0.3,3.9-1l45.4-78.7
	l18.4,10.6c0.6,0.4,1.3,0.6,2,0.6c1.5,0,3-0.7,3.8-2.1l16.4-28.4h0.5l21.4,12.4l-45.4,78.7c-0.8,1.4-0.3,3.1,1,3.9l7.4,4.3
	c1.4,0.8,3.1,0.3,3.9-1l45.4-78.7l18.4,10.6c0.6,0.4,1.3,0.6,2,0.6c1.5,0,3-0.7,3.8-2.1l16.5-28.5h0.3l21.5,12.4l-45.4,78.7
	c-0.8,1.4-0.3,3.1,1,3.9l7.4,4.3c1.4,0.8,3.1,0.3,3.9-1l45.4-78.7l18.4,10.6c0.6,0.4,1.3,0.6,2,0.6c1.5,0,3-0.7,3.8-2.1l16.5-28.6
	h0.2l21.6,12.5L656.5,690c-0.8,1.4-0.3,3.1,1,3.9l7.4,4.3C665.4,697.1,666,697.2,666.5,697.2L666.5,697.2z"/>
<path id="rect4159-83-0" inkscape:connector-curvature="0" class="st0" d="M120.6,376.5c-0.9,0.1-1.8,0.6-2.3,1.4L73,456.6L54.6,446
	c-0.6-0.4-1.3-0.6-2-0.6c-1.5,0-3,0.7-3.8,2.1l-16.5,28.6H35c-1.6,0-2.8,1.3-2.8,2.8v51c0,1.6,1.3,2.8,2.8,2.8h54.5v-28.3h8.2v28.3
	h141.7v-28.3h8.2v28.3h141.7v-28.3h8.2v28.3h141.7v-28.3h8.2v28.3h141.7v-28.3h8.2v28.3h54.6c1.6,0,2.8-1.3,2.8-2.8v-51
	c0-1.6-1.3-2.8-2.8-2.8H704l-20.7-12l45.4-78.7c0.8-1.4,0.3-3.1-1-3.9l-7.4-4.3c-1.4-0.8-3.1-0.3-3.9,1L671,456.9l-18.4-10.6
	c-0.6-0.4-1.3-0.6-2-0.6c-1.5,0-3,0.7-3.8,2.1l-16.2,28.1h-1.3l-20.8-12l45.4-78.7c0.8-1.4,0.3-3.1-1-3.9l-7.4-4.3
	c-1.4-0.8-3.1-0.3-3.9,1l-45.1,79l-18.4-10.6c-0.6-0.4-1.3-0.6-2-0.6c-1.5,0-3,0.7-3.8,2.1L556,476.1h-1l-21-12l45.4-78.7
	c0.8-1.4,0.3-3.1-1-3.9l-7.4-4.3c-1.4-0.8-3.1-0.3-3.9,1L521.7,457l-18.4-10.6c-0.6-0.4-1.3-0.6-2-0.6c-1.5,0-3,0.7-3.8,2.1
	l-16.3,28.2h-0.9L459.2,464l45.4-78.7c0.8-1.4,0.3-3.1-1-3.9l-7.4-4.3c-1.4-0.8-3.1-0.3-3.9,1L447,456.9l-18.4-10.6
	c-0.6-0.4-1.3-0.6-2-0.6c-1.5,0-3,0.7-3.8,2.1l-16.3,28.3h-0.8l-21.2-12.2l45.4-78.7c0.8-1.4,0.3-3.1-1-3.9l-7.4-4.3
	c-1.4-0.8-3.1-0.3-3.9,1l-45.4,78.7l-18.4-10.6c-0.6-0.4-1.3-0.6-2-0.6c-1.5,0-3,0.7-3.8,2.1L331.6,476H331l-21.3-12.3l45.4-78.7
	c0.8-1.4,0.3-3.1-1-3.9l-7.4-4.3c-1.4-0.8-3.1-0.3-3.9,1l-45.4,78.7L279,446.1c-0.6-0.4-1.3-0.6-2-0.6c-1.5,0-3,0.7-3.8,2.1
	L256.8,476h-0.5l-21.4-12.4l45.4-78.7c0.8-1.4,0.3-3.1-1-3.9l-7.4-4.3c-1.4-0.8-3.1-0.3-3.9,1l-45.4,78.7l-18.4-10.6
	c-0.6-0.4-1.3-0.6-2-0.6c-1.5,0-3,0.7-3.8,2.1l-16.5,28.5h-0.3L160,463.7l45.4-78.7c0.8-1.4,0.3-3.1-1-3.9l-7.4-4.3
	c-1.4-0.8-3.1-0.3-3.9,1l-45.4,78.7L129.4,446c-0.6-0.4-1.3-0.6-2-0.6c-1.5,0-3,0.7-3.8,2.1L107,476.1h-0.2l-21.6-12.5l45.4-78.7
	c0.8-1.4,0.3-3.1-1-3.9l-7.4-4.3C121.8,376.6,121.2,376.5,120.6,376.5L120.6,376.5z"/>
<path id="rect4159-83-1-7" inkscape:connector-curvature="0" class="st0" d="M661.7,437.9c0.9-0.1,1.8-0.6,2.3-1.4l45.4-78.7
	l18.4,10.6c0.6,0.4,1.3,0.6,2,0.6c1.5,0,3-0.7,3.8-2.1l16.5-28.6h-2.8c1.6,0,2.8-1.3,2.8-2.8v-51c0-1.6-1.3-2.8-2.8-2.8h-54.5V310
	h-8.2v-28.3H542.9V310h-8.2v-28.3H393V310h-8.2v-28.3H242.9V310h-8.2v-28.3H93V310h-8.2v-28.3H30.2c-1.6,0-2.8,1.3-2.8,2.8v51
	c0,1.6,1.3,2.8,2.8,2.8h47.9l20.7,11.9l-45.4,78.7c-0.8,1.4-0.3,3.1,1,3.9l7.4,4.3c1.4,0.8,3.1,0.3,3.9-1l45.4-78.7l18.4,10.6
	c0.6,0.4,1.3,0.6,2,0.6c1.5,0,3-0.7,3.8-2.1l16.2-28.1h1.3l20.8,12l-45.4,78.7c-0.8,1.4-0.3,3.1,1,3.9l7.4,4.3
	c1.4,0.8,3.1,0.3,3.9-1l45.4-78.7l18.4,10.6c0.6,0.4,1.3,0.6,2,0.6c1.5,0,3-0.7,3.8-2.1l16.3-28.2h1.1l20.9,12.1L202.9,429
	c-0.8,1.4-0.3,3.1,1,3.9l7.4,4.3c1.4,0.8,3.1,0.3,3.9-1l45.4-78.7L279,368c0.6,0.4,1.3,0.6,2,0.6c1.5,0,3-0.7,3.8-2.1l16.3-28.2h0.9
	l21,12.2l-45.4,78.7c-0.8,1.4-0.3,3.1,1,3.9l7.4,4.3c1.4,0.8,3.1,0.3,3.9-1l45.4-78.7l18.4,10.6c0.6,0.4,1.3,0.6,2,0.6
	c1.5,0,3-0.7,3.8-2.1l16.3-28.3h0.8l21.2,12.2l-45.4,78.7c-0.8,1.4-0.3,3.1,1,3.9l7.4,4.3c1.4,0.8,3.1,0.3,3.9-1l45.4-78.7
	l18.4,10.6c0.6,0.4,1.3,0.6,2,0.6c1.5,0,3-0.7,3.8-2.1l16.4-28.4h0.6l21.3,12.3l-45.4,78.7c-0.8,1.4-0.3,3.1,1,3.9l7.4,4.3
	c1.4,0.8,3.1,0.3,3.9-1l45.4-78.7l18.4,10.6c0.6,0.4,1.3,0.6,2,0.6c1.5,0,3-0.7,3.8-2.1l16.4-28.4h0.5l21.4,12.4L502,429.9
	c-0.8,1.4-0.3,3.1,1,3.9l7.4,4.3c1.4,0.8,3.1,0.3,3.9-1l45.4-78.7l18.4,10.6c0.6,0.4,1.3,0.6,2,0.6c1.5,0,3-0.7,3.8-2.1l16.5-28.5
	h0.3l21.5,12.4l-45.4,78.7c-0.8,1.4-0.3,3.1,1,3.9l7.4,4.3c1.4,0.8,3.1,0.3,3.9-1l45.4-78.7l18.4,10.6c0.6,0.4,1.3,0.6,2,0.6
	c1.5,0,3-0.7,3.8-2.1l16.5-28.6h0.2l21.6,12.5l-45.4,78.7c-0.8,1.4-0.3,3.1,1,3.9l7.4,4.3C660.6,437.8,661.2,437.9,661.7,437.9
	L661.7,437.9z"/>
<path id="rect4159-83-6" inkscape:connector-curvature="0" class="st0" d="M115.8,117.2c-0.9,0.1-1.8,0.6-2.3,1.4l-45.4,78.7
	l-18.4-10.6c-0.6-0.4-1.3-0.6-2-0.6c-1.5,0-3,0.7-3.8,2.1l-16.5,28.6h2.8c-1.6,0-2.8,1.3-2.8,2.8v51c0,1.6,1.3,2.8,2.8,2.8h54.5
	v-28.3H93v28.3h141.7v-28.3h8.2v28.3h141.7v-28.3h8.2v28.3h141.7v-28.3h8.2v28.3h141.7v-28.3h8.2v28.3h54.6c1.6,0,2.8-1.3,2.8-2.8
	v-51c0-1.6-1.3-2.8-2.8-2.8h-47.9l-20.7-11.9l45.4-78.7c0.8-1.4,0.3-3.1-1-3.9l-7.4-4.3c-1.4-0.8-3.1-0.3-3.9,1l-45.4,78.7
	l-18.4-10.6c-0.6-0.4-1.3-0.6-2-0.6c-1.5,0-3,0.7-3.8,2.1l-16.2,28.1h-1.3l-20.8-12l45.4-78.7c0.8-1.4,0.3-3.1-1-3.9l-7.4-4.3
	c-1.4-0.8-3.1-0.3-3.9,1l-45.4,78.7l-18.4-10.6c-0.6-0.4-1.3-0.6-2-0.6c-1.5,0-3,0.7-3.8,2.1L551,216.6h-1.1L529,204.5l45.4-78.7
	c0.8-1.4,0.3-3.1-1-3.9l-7.4-4.3c-1.4-0.8-3.1-0.3-3.9,1l-45.4,78.7l-18.4-10.6c-0.6-0.4-1.3-0.6-2-0.6c-1.5,0-3,0.7-3.8,2.1
	l-16.3,28.2h-0.9l-21.1-12.2l45.4-78.7c0.8-1.4,0.3-3.1-1-3.9l-7.4-4.3c-1.4-0.8-3.1-0.3-3.9,1L441.9,197l-18.1-10
	c-0.6-0.4-1.3-0.6-2-0.6c-1.5,0-3,0.7-3.8,2.1l-16.3,28.3h-0.8l-21.2-12.2L425,126c0.8-1.4,0.3-3.1-1-3.9l-7.4-4.3
	c-1.4-0.8-3.1-0.3-3.9,1l-45.4,78.7L349,186.9c-0.6-0.4-1.3-0.6-2-0.6c-1.5,0-3,0.7-3.8,2.1l-16.4,28.4h-0.6l-21.3-12.3l45.4-78.7
	c0.8-1.4,0.3-3.1-1-3.9l-7.4-4.3c-1.4-0.8-3.1-0.3-3.9,1l-45.4,78.7l-18.4-10.6c-0.6-0.4-1.3-0.6-2-0.6c-1.5,0-3,0.7-3.8,2.1
	L252,216.6h-0.5L230,204.5l45.4-78.7c0.8-1.4,0.3-3.1-1-3.9l-7.4-4.3c-1.4-0.8-3.1-0.3-3.9,1l-45.4,78.7l-18.4-10.6
	c-0.6-0.4-1.3-0.6-2-0.6c-1.5,0-3,0.7-3.8,2.1L177,216.7h-0.3l-21.5-12.4l45.4-78.7c0.8-1.4,0.3-3.1-1-3.9l-7.4-4.3
	c-1.4-0.8-3.1-0.3-3.9,1L143,197.3l-18.4-10.6c-0.6-0.4-1.3-0.6-2-0.6c-1.5,0-3,0.7-3.8,2.1l-16.5,28.6h-0.2l-21.6-12.5l45.4-78.7
	c0.8-1.4,0.3-3.1-1-3.9l-7.4-4.3C117,117.3,116.4,117.2,115.8,117.2L115.8,117.2z"/>
<path id="rect4159-83-1-6" inkscape:connector-curvature="0" class="st0" d="M656.9,178.6c0.9-0.1,1.8-0.6,2.3-1.4l45.4-78.7
	l18.4,10.6c0.6,0.4,1.3,0.6,2,0.6c1.5,0,3-0.7,3.8-2.1L745.3,79h-2.8c1.6,0,2.8-1.3,2.8-2.8v-51c0-1.6-1.3-2.8-2.8-2.8H688v28.3
	h-8.2V22.4H538.1v28.3h-8.2V22.3H388.2v28.3H380V22.3H238.1v28.3h-8.2V22.3H88.2v28.3H80V22.3H25.4c-1.6,0-2.8,1.3-2.8,2.8v51
	c0,1.6,1.3,2.8,2.8,2.8h47.9L94,90.8l-45.4,78.7c-0.8,1.4-0.3,3.1,1,3.9l7.4,4.3c1.4,0.8,3.1,0.3,3.9-1L106.2,98l18.4,10.6
	c0.6,0.4,1.3,0.6,2,0.6c1.5,0,3-0.7,3.8-2.1L146.7,79h1.3l20.8,12l-45.4,78.7c-0.8,1.4-0.3,3.1,1,3.9l7.4,4.3c1.4,0.8,3.1,0.3,3.9-1
	L181,98.1l18.4,10.6c0.6,0.4,1.3,0.6,2,0.6c1.5,0,3-0.7,3.8-2.1L221.5,79h1.1l20.9,12l-45.4,78.7c-0.8,1.4-0.3,3.1,1,3.9l7.4,4.3
	c1.4,0.8,3.1,0.3,3.9-1l45.4-78.7l18.4,10.6c0.6,0.4,1.3,0.6,2,0.6c1.5,0,3-0.7,3.8-2.1L296.3,79h0.9l21,12.2l-45.4,78.7
	c-0.8,1.4-0.3,3.1,1,3.9l7.4,4.3c1.4,0.8,3.1,0.3,3.9-1l45.4-78.7l18.4,10.6c0.6,0.4,1.3,0.6,2,0.6c1.5,0,3-0.7,3.8-2.1L371.2,79
	h0.8l21.2,12.2l-45.4,78.7c-0.8,1.4-0.3,3.1,1,3.9l7.4,4.3c1.4,0.8,3.1,0.3,3.9-1l45.4-78.7l18.4,10.6c0.6,0.4,1.3,0.6,2,0.6
	c1.5,0,3-0.7,3.8-2.1L446,79h0.6l21.3,12.3L422.5,170c-0.8,1.4-0.3,3.1,1,3.9l7.4,4.3c1.4,0.8,3.1,0.3,3.9-1l45.4-78.7l18.4,10.6
	c0.6,0.4,1.3,0.6,2,0.6c1.5,0,3-0.7,3.8-2.1L520.8,79h0.5l21.4,12.4L497.3,170c-0.8,1.4-0.3,3.1,1,3.9l7.4,4.3
	c1.4,0.8,3.1,0.3,3.9-1L555,98.4l18.4,10.6c0.6,0.4,1.3,0.6,2,0.6c1.5,0,3-0.7,3.8-2.1L595.7,79h0.3l21.5,12.4L572.1,170
	c-0.8,1.4-0.3,3.1,1,3.9l7.4,4.3c1.4,0.8,3.1,0.3,3.9-1l45.4-78.7l18.4,10.6c0.6,0.4,1.3,0.6,2,0.6c1.5,0,3-0.7,3.8-2.1L670.5,79
	h0.2l21.6,12.5l-45.4,78.7c-0.8,1.4-0.3,3.1,1,3.9l7.4,4.3C655.8,178.5,656.4,178.6,656.9,178.6L656.9,178.6z"/>
<path id="rect4159-83-6_1_" inkscape:connector-curvature="0" class="st0" d="M115.8-172.1c-0.9,0.1-1.8,0.6-2.3,1.4L68.1-92
	l-18.4-10.6c-0.6-0.4-1.3-0.6-2-0.6c-1.5,0-3,0.7-3.8,2.1L27.4-72.5h2.8c-1.6,0-2.8,1.3-2.8,2.8v51c0,1.6,1.3,2.8,2.8,2.8h54.5
	v-28.3H93v28.3h141.7v-28.3h8.2v28.3h141.7v-28.3h8.2v28.3h141.7v-28.3h8.2v28.3h141.7v-28.3h8.2v28.3h54.6c1.6,0,2.8-1.3,2.8-2.8
	v-51c0-1.6-1.3-2.8-2.8-2.8h-47.9l-20.7-11.9l45.4-78.7c0.8-1.4,0.3-3.1-1-3.9l-7.4-4.3c-1.4-0.8-3.1-0.3-3.9,1l-45.4,78.7
	l-18.4-10.6c-0.6-0.4-1.3-0.6-2-0.6c-1.5,0-3,0.7-3.8,2.1l-16.2,28.1h-1.3l-20.8-12l45.4-78.7c0.8-1.4,0.3-3.1-1-3.9l-7.4-4.3
	c-1.4-0.8-3.1-0.3-3.9,1l-45.4,78.7l-18.4-10.6c-0.6-0.4-1.3-0.6-2-0.6c-1.5,0-3,0.7-3.8,2.1L551-72.7h-1.1L529-84.8l45.4-78.7
	c0.8-1.4,0.3-3.1-1-3.9l-7.4-4.3c-1.4-0.8-3.1-0.3-3.9,1L516.7-92l-18.4-10.6c-0.6-0.4-1.3-0.6-2-0.6c-1.5,0-3,0.7-3.8,2.1
	l-16.3,28.2h-0.9l-21.1-12.2l45.4-78.7c0.8-1.4,0.3-3.1-1-3.9l-7.4-4.3c-1.4-0.8-3.1-0.3-3.9,1l-45.4,78.7l-18.1-10
	c-0.6-0.4-1.3-0.6-2-0.6c-1.5,0-3,0.7-3.8,2.1l-16.3,28.3h-0.8l-21.2-12.2l45.3-78.6c0.8-1.4,0.3-3.1-1-3.9l-7.4-4.3
	c-1.4-0.8-3.1-0.3-3.9,1l-45.4,78.7L349-102.4c-0.6-0.4-1.3-0.6-2-0.6c-1.5,0-3,0.7-3.8,2.1l-16.4,28.4h-0.6l-21.3-12.3l45.4-78.7
	c0.8-1.4,0.3-3.1-1-3.9l-7.4-4.3c-1.4-0.8-3.1-0.3-3.9,1L292.6-92l-18.4-10.6c-0.6-0.4-1.3-0.6-2-0.6c-1.5,0-3,0.7-3.8,2.1L252-72.7
	h-0.5L230-84.8l45.4-78.7c0.8-1.4,0.3-3.1-1-3.9l-7.4-4.3c-1.4-0.8-3.1-0.3-3.9,1L217.7-92l-18.4-10.6c-0.6-0.4-1.3-0.6-2-0.6
	c-1.5,0-3,0.7-3.8,2.1L177-72.6h-0.3L155.2-85l45.4-78.7c0.8-1.4,0.3-3.1-1-3.9l-7.4-4.3c-1.4-0.8-3.1-0.3-3.9,1L143-92l-18.4-10.6
	c-0.6-0.4-1.3-0.6-2-0.6c-1.5,0-3,0.7-3.8,2.1l-16.5,28.6h-0.2L80.5-85l45.4-78.7c0.8-1.4,0.3-3.1-1-3.9l-7.4-4.3
	C117-172,116.4-172.1,115.8-172.1L115.8-172.1z"/>
<path id="rect4159-83-1-6_1_" inkscape:connector-curvature="0" class="st0" d="M656.9-110.7c0.9-0.1,1.8-0.6,2.3-1.4l45.4-78.7
	l18.4,10.6c0.6,0.4,1.3,0.6,2,0.6c1.5,0,3-0.7,3.8-2.1l16.5-28.6h-2.8c1.6,0,2.8-1.3,2.8-2.8v-51c0-1.6-1.3-2.8-2.8-2.8H688v28.3
	h-8.2v-28.3H538.1v28.3h-8.2V-267H388.2v28.3H380V-267H238.1v28.3h-8.2V-267H88.2v28.3H80V-267H25.4c-1.6,0-2.8,1.3-2.8,2.8v51
	c0,1.6,1.3,2.8,2.8,2.8h47.9L94-198.5l-45.4,78.7c-0.8,1.4-0.3,3.1,1,3.9l7.4,4.3c1.4,0.8,3.1,0.3,3.9-1l45.3-78.7l18.4,10.6
	c0.6,0.4,1.3,0.6,2,0.6c1.5,0,3-0.7,3.8-2.1l16.3-28.1h1.3l20.8,12l-45.4,78.7c-0.8,1.4-0.3,3.1,1,3.9l7.4,4.3
	c1.4,0.8,3.1,0.3,3.9-1l45.3-78.8l18.4,10.6c0.6,0.4,1.3,0.6,2,0.6c1.5,0,3-0.7,3.8-2.1l16.3-28.2h1.1l20.9,12l-45.4,78.7
	c-0.8,1.4-0.3,3.1,1,3.9l7.4,4.3c1.4,0.8,3.1,0.3,3.9-1l45.4-78.7l18.4,10.6c0.6,0.4,1.3,0.6,2,0.6c1.5,0,3-0.7,3.8-2.1l16.3-28.3
	h0.9l21,12.2l-45.4,78.7c-0.8,1.4-0.3,3.1,1,3.9l7.4,4.3c1.4,0.8,3.1,0.3,3.9-1l45.4-78.7l18.4,10.6c0.6,0.4,1.3,0.6,2,0.6
	c1.5,0,3-0.7,3.8-2.1l16.5-28.5h0.8l21.2,12.2l-45.4,78.7c-0.8,1.4-0.3,3.1,1,3.9l7.4,4.3c1.4,0.8,3.1,0.3,3.9-1l45.4-78.7
	l18.4,10.6c0.6,0.4,1.3,0.6,2,0.6c1.5,0,3-0.7,3.8-2.1l16.3-28.5h0.6l21.3,12.3l-45.4,78.7c-0.8,1.4-0.3,3.1,1,3.9l7.4,4.3
	c1.4,0.8,3.1,0.3,3.9-1l45.4-78.7l18.4,10.6c0.6,0.4,1.3,0.6,2,0.6c1.5,0,3-0.7,3.8-2.1l16.4-28.6h0.5l21.4,12.4l-45.4,78.6
	c-0.8,1.4-0.3,3.1,1,3.9l7.4,4.3c1.4,0.8,3.1,0.3,3.9-1l45.4-78.8l18.4,10.6c0.6,0.4,1.3,0.6,2,0.6c1.5,0,3-0.7,3.8-2.1l16.5-28.5
	h0.3l21.5,12.4l-45.4,78.6c-0.8,1.4-0.3,3.1,1,3.9l7.4,4.3c1.4,0.8,3.1,0.3,3.9-1l45.4-78.7l18.4,10.6c0.6,0.4,1.3,0.6,2,0.6
	c1.5,0,3-0.7,3.8-2.1l16.5-28.6h0.2l21.6,12.5l-45.4,78.7c-0.8,1.4-0.3,3.1,1,3.9l7.4,4.3C655.8-110.8,656.4-110.7,656.9-110.7
	L656.9-110.7z"/>
<path id="rect6990-26" inkscape:connector-curvature="0" class="st0" d="M41.6,870.1c-3.1,0-5.7,2.5-5.7,5.7v45.4
	c0,3.1,2.5,5.7,5.7,5.7h459.2c3.1,0,5.7-2.5,5.7-5.7v-45.4c0-3.1-2.5-5.7-5.7-5.7h-14.2v28.3h-8.5v-28.3h-51.4v28.3h-8.5v-28.3
	h-51.4v28.3h-8.5v-28.3h-51.4v28.3h-8.5v-28.3H247v28.3h-8.5v-28.3H187v28.3h-8.5v-28.3H127v28.3h-8.5v-28.3H67.1v28.3h-8.5v-28.3
	H41.6z"/>
<path id="rect6990-6" inkscape:connector-curvature="0" class="st0" d="M40.2,933.2c-3.1,0-5.7,2.5-5.7,5.7v45.4
	c0,3.1,2.5,5.7,5.7,5.7h459.2c3.1,0,5.7-2.5,5.7-5.7v-45.4c0-3.1-2.5-5.7-5.7-5.7h-14.2v28.3h-8.5v-28.3h-51.4v28.3h-8.5v-28.3
	h-51.4v28.3h-8.5v-28.3h-51.4v28.3H297v-28.3h-51.4v28.3H237v-28.3h-51.4v28.3h-8.5v-28.3h-51.4v28.3h-8.5v-28.3H65.7v28.3h-8.5
	v-28.3H40.2z"/>
<path id="rect6990-6-0" inkscape:connector-curvature="0" class="st0" d="M38.8,996.3c-3.1,0-5.7,2.5-5.7,5.7v45.4
	c0,3.1,2.5,5.7,5.7,5.7H498c3.1,0,5.7-2.5,5.7-5.7V1002c0-3.1-2.5-5.7-5.7-5.7h-14.2v28.3h-8.5v-28.3h-51.4v28.3h-8.5v-28.3H364
	v28.3h-8.5v-28.3H304v28.3h-8.5v-28.3h-51.4v28.3h-8.5v-28.3h-51.4v28.3h-8.5v-28.3h-51.4v28.3h-8.5v-28.3H64.3v28.3h-8.5v-28.3
	H38.8z"/>
<path id="rect6990-6-9" inkscape:connector-curvature="0" class="st0" d="M37.4,1059.3c-3.1,0-5.7,2.5-5.7,5.7v45.4
	c0,3.1,2.5,5.7,5.7,5.7h459.2c3.1,0,5.7-2.5,5.7-5.7V1065c0-3.1-2.5-5.7-5.7-5.7h-14.2v28.3h-8.5v-28.3h-51.4v28.3H414v-28.3h-51.4
	v28.3H354v-28.3h-51.4v28.3h-8.5v-28.3h-51.4v28.3h-8.5v-28.3h-51.4v28.3h-8.5v-28.3h-51.4v28.3h-8.5v-28.3H62.9v28.3h-8.5v-28.3
	H37.4z"/>
</svg>
