<?xml version="1.0" encoding="UTF-8" standalone="no"?>
<!-- Created with Inkscape (http://www.inkscape.org/) -->

<svg
   xmlns:dc="http://purl.org/dc/elements/1.1/"
   xmlns:cc="http://creativecommons.org/ns#"
   xmlns:rdf="http://www.w3.org/1999/02/22-rdf-syntax-ns#"
   xmlns:svg="http://www.w3.org/2000/svg"
   xmlns="http://www.w3.org/2000/svg"
   xmlns:sodipodi="http://sodipodi.sourceforge.net/DTD/sodipodi-0.dtd"
   xmlns:inkscape="http://www.inkscape.org/namespaces/inkscape"
   width="600mm"
   height="300mm"
   viewBox="0 0 2125.9843 1062.9921"
   id="svg3336"
   version="1.1"
   inkscape:version="0.91 r13725"
   sodipodi:docname="tree_300x3.svg">
  <defs
     id="defs3338">
    <inkscape:perspective
       sodipodi:type="inkscape:persp3d"
       inkscape:vp_x="0 : 531.49605 : 1"
       inkscape:vp_y="0 : 1000 : 0"
       inkscape:vp_z="2125.9843 : 531.49605 : 1"
       inkscape:persp3d-origin="1062.9922 : 354.3307 : 1"
       id="perspective6498" />
  </defs>
  <sodipodi:namedview
     id="base"
     pagecolor="#ffffff"
     bordercolor="#666666"
     borderopacity="1.0"
     inkscape:pageopacity="0.0"
     inkscape:pageshadow="2"
     inkscape:zoom="0.35"
     inkscape:cx="1361.7336"
     inkscape:cy="783.73173"
     inkscape:document-units="mm"
     inkscape:current-layer="layer1"
     showgrid="true"
     inkscape:window-width="1920"
     inkscape:window-height="1018"
     inkscape:window-x="1432"
     inkscape:window-y="-8"
     inkscape:window-maximized="1">
    <inkscape:grid
       type="xygrid"
       id="grid3352" />
  </sodipodi:namedview>
  <metadata
     id="metadata3341">
    <rdf:RDF>
      <cc:Work
         rdf:about="">
        <dc:format>image/svg+xml</dc:format>
        <dc:type
           rdf:resource="http://purl.org/dc/dcmitype/StillImage" />
        <dc:title />
      </cc:Work>
    </rdf:RDF>
  </metadata>
  <g
     inkscape:label="Layer 1"
     inkscape:groupmode="layer"
     id="layer1"
     transform="translate(0,10.629923)">
    <path
       style="fill:#6e9da0;fill-opacity:0.6;stroke:none"
       d="m 1969.1532,626.02224 62.375,-123.0312 -26.9687,1.4062 103.6562,-249.8125 -47.4062,2.7813 55.0937,-132.375 0,-7.4375 -65.5625,0 0,110.5312 -10.625,0 0,-110.5312 -65.5312,0 0,214.7187 -10.6563,0 0,-214.7187 -65.5313,0 0,110.5312 -10.625,0 0,-110.5312 -68.0624,0 58.1562,139.8125 -47.4062,-2.7813 103.6562,249.8125 -26.9688,-1.4062 62.4063,123.0312 z"
       id="path3137"
       inkscape:connector-curvature="0" />
    <path
       style="fill:#6e9da0;fill-opacity:0.6;stroke:none"
       d="m 837.46179,108.39669 -57.375,113.125 26.9688,-1.40625 -35.125,84.65625 0,253.96875 -10.6562,0 0,-228.28125 -57.875,139.46875 47.4062,-2.78125 -55.0625,132.34375 0,105.96875 -10.625,0 0,-80.4375 -51.7813,124.46875 41.9376,-4.28125 -29.75,70.78125 127.625,0 0,133.03125 139.25,0 0,-133.03125 127.03111,0 -29.7188,-70.78125 41.9376,4.28125 -51.1875,-123 0,78.96875 -10.65621,0 0,-104.5625 -55.6562,-133.75 47.4062,2.78125 -57.2812,-138.09375 0,226.90625 -10.625,0 0,-252.53125 -35.7188,-86.09375 26.9375,1.40625 -56.7813,-112 0,345.0625 -10.625,0 0,-346.1875 z"
       id="path3123"
       inkscape:connector-curvature="0" />
    <path
       style="fill:#6e9da0;fill-opacity:0.6;stroke:none"
       d="m 573.04112,918.57928 56.28125,-111 -26.96875,1.40631 103.65625,-249.81252 -47.40625,2.78125 54.75,-131.5625 0,-211.59375 10.625,0 0,186.0625 52.12496,-125.25 -41.93746,4.25 55.18746,-131.375 0,-74.000003 10.6563,0 0,48.625003 51.6875,-123.0312526 -203.71876,0 0,361.4062526 -10.625,0 0,-361.4062526 -141.5625,0 0,361.4062526 -10.625,0 0,-361.4062526 -202.96869,0 50.7812,120.8750026 0,-46.468753 10.625,0 0,71.781253 56.12499,133.59375 -41.93749,-4.25 51.18749,123.03125 0,-183.84375 10.625,0 0,209.375 55.65625,133.78125 -47.40625,-2.78125 103.65625,249.81252 -26.96875,-1.40631 55.71875,109.84381 0,-449.87502 12.78125,0 0,451.03122 z"
       id="path3161"
       inkscape:connector-curvature="0" />
    <path
       style="fill:#6e9da0;fill-opacity:0.6;stroke:none"
       d="m 117.9507,506.78519 62.375,-123.0313 -26.9374,1.4063 73.7812,-177.8125 -104.1875,0 0,74.4062 -10.625,0 0,-74.4062 -103.625003,0 73.7813,177.8125 -26.9688,-1.4063 62.406203,123.0313 z"
       id="path3151"
       inkscape:connector-curvature="0" />
    <path
       style="fill:#6e9da0;fill-opacity:0.6;stroke:none"
       d="m 1366.6233,97.591099 -57.3438,113.093751 26.9688,-1.40625 -103.6563,249.8125 47.4063,-2.78125 -55.0938,132.375 0,105.9375 -10.625,0 0,-80.40625 -51.7812,124.4375 41.9374,-4.28125 -29.7187,70.78125 115.75,0 0,-257.25 10.625,0 0,257.25 1.2187,0 0,133.03125 139.2813,0 0,-133.03125 1.2187,0 0,-257.25 10.625,0 0,257.25 115.1876,0 -29.75,-70.78125 41.9374,4.28125 -51.1874,-123.03125 0,79 -10.625,0 0,-104.53125 -55.6563,-133.78125 47.4063,2.78125 -103.6563,-249.8125 26.9687,1.40625 -56.7812,-111.937501 0,345.000001 -10.6562,0 0,-346.156251 z"
       id="path3983"
       inkscape:connector-curvature="0" />
    <path
       style="fill:#6e9da0;fill-opacity:0.6;stroke:none"
       d="m 294.76022,113.30697 -62.40625,123.03125 26.96875,-1.40625 -103.65625,249.8125 47.40625,-2.78125 -54.71875,131.53125 0,211.625 -10.65625,0 0,-186.03125 -52.093747,125.21875 41.937497,-4.25 -55.218747,131.4375 0,73.9375 -10.625,0 0,-48.625 -51.6875,123.03123 203.718747,0 0,-361.40623 10.625,0 0,361.40623 65.375,0 0,-463.46873 10.625,0 0,463.46873 65.5625,0 0,-361.40623 10.625,0 0,361.40623 202.96875,0 -50.78125,-120.87498 0,46.46875 -10.625,0 0,-71.78125 -56.125,-133.59375 41.9375,4.25 -51.1875,-123 0,183.8125 -10.65625,0 0,-209.40625 -55.65625,-133.75 47.40625,2.78125 -103.625,-249.8125 26.9375,1.40625 -62.375,-123.03125 z"
       id="path4009"
       inkscape:connector-curvature="0" />
    <path
       id="path3117"
       d="m 1568.541,603.5712 62.375,-123.0312 -26.9687,1.4063 103.6562,-249.8125 -47.4062,2.7812 55.0937,-132.375 0,-7.437498 -65.5625,0 0,110.531298 -10.625,0 0,-110.531298 -65.5312,0 0,214.718798 -10.6563,0 0,-214.718798 -65.5313,0 0,110.531298 -10.625,0 0,-110.531298 -68.0624,0 58.1562,139.812498 -47.4062,-2.7812 103.6562,249.8125 -26.9688,-1.4063 62.4063,123.0312 z"
       style="fill:#6e9da0;fill-opacity:0.6;stroke:none"
       inkscape:connector-curvature="0" />
    <path
       id="path3119"
       d="m 1254.7505,928.15408 -124.4857,-59.41907 2.0491,26.89613 -179.52377,-69.51378 2.4881,104.15779 74.38517,-1.77691 0.2537,10.62197 -74.38507,1.77691 2.4746,103.59548 175.99987,-78.00672 -0.7617,26.9947 121.5057,-65.3265 z"
       style="fill:#6e9da0;fill-opacity:0.6;stroke:none"
       inkscape:connector-curvature="0" />
    <path
       inkscape:connector-curvature="0"
       style="fill:#6e9da0;fill-opacity:0.6;stroke:none"
       d="m 2369.9771,270.99389 -62.375,123.03126 26.9687,-1.4063 -103.6562,249.81252 47.4062,-2.7812 -55.0937,132.375 0,7.4375 65.5625,0 0,-110.5313 10.625,0 0,110.5313 65.5312,0 0,-214.7188 10.6563,0 0,214.7188 65.5313,0 0,-110.5313 10.625,0 0,110.5313 68.0624,0 -58.1562,-139.8125 47.4062,2.7812 -103.6562,-249.81252 26.9688,1.4063 -62.4063,-123.03126 z"
       id="path3121" />
    <path
       inkscape:connector-curvature="0"
       style="fill:#6e9da0;fill-opacity:0.6;stroke:none"
       d="m 1741.5631,1015.2495 -98.4433,-96.62428 -6.7962,26.10393 -147.2201,-124.0451 -31.471,99.32061 70.9307,22.47527 -3.2095,10.12871 -70.9307,-22.47531 -31.3011,98.78447 191.7932,-16.6245 -9.4869,25.2843 136.1349,-22.3281 z"
       id="path3124"
       inkscape:transform-center-x="74.434823"
       inkscape:transform-center-y="-51.200727" />
    <path
       id="path3126"
       d="m 2671.175,184.85313 -62.375,123.03126 26.9687,-1.4063 -103.6562,249.8125 47.4062,-2.7812 -55.0937,132.375 0,7.4375 65.5625,0 0,-110.5313 10.625,0 0,110.5313 65.5312,0 0,-214.7188 10.6563,0 0,214.7188 65.5313,0 0,-110.5313 10.625,0 0,110.5313 68.0624,0 -58.1562,-139.8125 47.4062,2.7812 -103.6562,-249.8125 26.9688,1.4063 -62.4063,-123.03126 z"
       style="fill:#6e9da0;fill-opacity:0.6;stroke:none"
       inkscape:connector-curvature="0" />
    <path
       id="path3128"
       d="m 2099.7999,724.52977 -105.4679,88.90357 25.3476,9.22495 -137.3613,134.88065 95.9146,40.68693 29.0568,-68.49809 9.7814,4.14924 -29.0569,68.49808 95.3968,40.4672 1.5159,-192.50616 24.2782,11.8263 -9.4052,-137.63267 z"
       style="fill:#6e9da0;fill-opacity:0.6;stroke:none"
       inkscape:connector-curvature="0" />
    <path
       id="path3130"
       d="m 1113.9596,871.65833 57.375,-113.1249 -26.9688,1.4062 35.1249,-84.6562 0,-253.9688 10.6562,0 0,228.2813 57.875,-139.4688 -47.4062,2.7813 55.0625,-132.3438 0,-105.9688 10.625,0 0,80.4376 51.7813,-124.4688 -41.9376,4.28119 29.75,-70.7812 -127.625,0 0,-133.031246 -139.2499,0 0,133.031246 -127.03118,0 29.7188,70.7812 -41.9376,-4.28119 51.1876,123 0,-78.96881 10.6562,0 0,104.5626 55.65618,133.75 -47.40618,-2.7813 57.28118,138.0938 0,-226.9063 10.625,0 0,252.5313 35.7188,86.0937 -26.9375,-1.4062 56.7813,111.9999 0,-345.0624 10.625,0 0,346.1874 z"
       style="fill:#6e9da0;fill-opacity:0.6;stroke:none"
       inkscape:connector-curvature="0" />
    <path
       id="path3132"
       d="m 1775.5197,136.65274 -57.3438,113.09375 26.9688,-1.40625 -103.6563,249.8125 47.4063,-2.78125 -55.0938,132.375 0,105.9375 -10.625,0 0,-80.40625 -51.7812,124.4375 41.9374,-4.28125 -29.7187,70.78125 115.75,0 0,-257.25 10.625,0 0,257.25 1.2187,0 0,133.03125 139.2813,0 0,-133.03125 1.2187,0 0,-257.25 10.625,0 0,257.25 115.1876,0 -29.75,-70.78125 41.9374,4.28125 -51.1874,-123.03125 0,79 -10.625,0 0,-104.53125 -55.6563,-133.78125 47.4063,2.78125 -103.6563,-249.8125 26.9687,1.40625 -56.7812,-111.9375 0,345 -10.6562,0 0,-346.15625 z"
       style="fill:#6e9da0;fill-opacity:0.6;stroke:none"
       inkscape:connector-curvature="0" />
  </g>
</svg>
