<?xml version="1.0" encoding="utf-8"?>
<!-- Generator: Adobe Illustrator 24.3.0, SVG Export Plug-In . SVG Version: 6.00 Build 0)  -->
<svg version="1.1" id="_x30_" xmlns="http://www.w3.org/2000/svg" xmlns:xlink="http://www.w3.org/1999/xlink" x="0px" y="0px"
	 viewBox="0 0 841.9 595.3" style="enable-background:new 0 0 841.9 595.3;" xml:space="preserve">
<style type="text/css">
	.st0{fill:none;stroke:#000000;stroke-width:0.7087;stroke-linecap:round;stroke-linejoin:round;stroke-miterlimit:10;}
</style>
<g id="ARC">
	<path class="st0" d="M325.4,219.6c-13.6,0-27.1,2-40.2,5.9"/>
</g>
<g id="LINE">
	<line class="st0" x1="325.4" y1="219.6" x2="360.3" y2="219.6"/>
</g>
<g id="LINE_1_">
	<line class="st0" x1="360.3" y1="219.6" x2="360.3" y2="218"/>
</g>
<g id="LINE_2_">
	<line class="st0" x1="360.3" y1="218" x2="355.6" y2="218"/>
</g>
<g id="LINE_3_">
	<line class="st0" x1="355.6" y1="218" x2="355.6" y2="201.3"/>
</g>
<g id="LINE_4_">
	<line class="st0" x1="355.6" y1="201.3" x2="360.3" y2="201.3"/>
</g>
<g id="LINE_5_">
	<line class="st0" x1="360.3" y1="201.3" x2="412" y2="187.2"/>
</g>
<g id="LINE_6_">
	<line class="st0" x1="412" y1="187.2" x2="508.9" y2="145.2"/>
</g>
<g id="LINE_7_">
	<line class="st0" x1="531.3" y1="145.7" x2="539.1" y2="151.7"/>
</g>
<g id="LINE_8_">
	<line class="st0" x1="539.1" y1="151.7" x2="482.8" y2="197.7"/>
</g>
<g id="LINE_9_">
	<line class="st0" x1="482.8" y1="197.7" x2="487.3" y2="197.7"/>
</g>
<g id="LINE_10_">
	<line class="st0" x1="553.1" y1="216.9" x2="560.7" y2="218"/>
</g>
<g id="LINE_11_">
	<line class="st0" x1="560.7" y1="218" x2="560.7" y2="224.5"/>
</g>
<g id="LINE_12_">
	<line class="st0" x1="560.7" y1="224.5" x2="569.1" y2="225.4"/>
</g>
<g id="LINE_13_">
	<line class="st0" x1="569.1" y1="225.4" x2="569.1" y2="230.9"/>
</g>
<g id="ARC_1_">
	<path class="st0" d="M556.6,204.6c-5.2-2.7-10.9-4.3-16.7-4.8"/>
</g>
<g id="ARC_2_">
	<path class="st0" d="M531.3,145.7c-7-3.6-15.2-3.8-22.3-0.4"/>
</g>
<g id="LINE_14_">
	<line class="st0" x1="530.7" y1="204.6" x2="530.7" y2="215.3"/>
</g>
<g id="ARC_3_">
	<path class="st0" d="M553.1,216.9c1.2-0.5,2.4-1,3.5-1.6"/>
</g>
<g id="LINE_15_">
	<line class="st0" x1="487.3" y1="197.7" x2="537.9" y2="156"/>
</g>
<g id="LINE_16_">
	<line class="st0" x1="543.1" y1="156.6" x2="552" y2="167.1"/>
</g>
<g id="LINE_17_">
	<line class="st0" x1="552" y1="167.1" x2="547.3" y2="197.1"/>
</g>
<g id="LINE_18_">
	<line class="st0" x1="547.3" y1="197.1" x2="539.9" y2="199.9"/>
</g>
<g id="ARC_4_">
	<path class="st0" d="M543.1,156.6c-1.3-1.5-3.6-1.7-5.2-0.6"/>
</g>
<g id="LINE_19_">
	<line class="st0" x1="556.6" y1="204.6" x2="530.7" y2="204.6"/>
</g>
<g id="LINE_20_">
	<line class="st0" x1="530.7" y1="215.3" x2="556.6" y2="215.3"/>
</g>
<g id="LINE_21_">
	<line class="st0" x1="325.4" y1="242.2" x2="360.3" y2="242.2"/>
</g>
<g id="ARC_5_">
	<path class="st0" d="M285.2,236.2c13,3.9,26.6,5.9,40.2,5.9"/>
</g>
<g id="LINE_22_">
	<line class="st0" x1="360.3" y1="242.2" x2="360.3" y2="243.8"/>
</g>
<g id="LINE_23_">
	<line class="st0" x1="360.3" y1="243.8" x2="355.6" y2="243.8"/>
</g>
<g id="LINE_24_">
	<line class="st0" x1="355.6" y1="243.8" x2="355.6" y2="260.4"/>
</g>
<g id="LINE_25_">
	<line class="st0" x1="355.6" y1="260.4" x2="360.3" y2="260.4"/>
</g>
<g id="LINE_26_">
	<line class="st0" x1="360.3" y1="260.4" x2="412" y2="274.6"/>
</g>
<g id="LINE_27_">
	<line class="st0" x1="539.1" y1="310.1" x2="482.8" y2="264"/>
</g>
<g id="LINE_28_">
	<line class="st0" x1="560.7" y1="243.8" x2="560.7" y2="237.2"/>
</g>
<g id="LINE_29_">
	<line class="st0" x1="560.7" y1="237.2" x2="569.1" y2="236.4"/>
</g>
<g id="LINE_30_">
	<line class="st0" x1="569.1" y1="236.4" x2="569.1" y2="230.9"/>
</g>
<g id="ARC_6_">
	<path class="st0" d="M539.9,261.9c5.8-0.5,11.5-2.1,16.7-4.8"/>
</g>
<g id="LINE_31_">
	<line class="st0" x1="531.3" y1="316.1" x2="539.1" y2="310.1"/>
</g>
<g id="LINE_32_">
	<line class="st0" x1="412" y1="274.6" x2="508.9" y2="316.5"/>
</g>
<g id="ARC_7_">
	<path class="st0" d="M508.9,316.5c7.1,3.3,15.4,3.2,22.3-0.4"/>
</g>
<g id="LINE_33_">
	<line class="st0" x1="530.7" y1="257.1" x2="530.7" y2="246.4"/>
</g>
<g id="LINE_34_">
	<line class="st0" x1="553.1" y1="244.8" x2="560.7" y2="243.8"/>
</g>
<g id="ARC_8_">
	<path class="st0" d="M556.6,246.4c-1.2-0.6-2.3-1.1-3.5-1.6"/>
</g>
<g id="LINE_35_">
	<line class="st0" x1="552" y1="294.6" x2="547.3" y2="264.6"/>
</g>
<g id="LINE_36_">
	<line class="st0" x1="547.3" y1="264.6" x2="539.9" y2="261.9"/>
</g>
<g id="LINE_37_">
	<line class="st0" x1="482.8" y1="264" x2="487.3" y2="264"/>
</g>
<g id="LINE_38_">
	<line class="st0" x1="556.6" y1="257.1" x2="530.7" y2="257.1"/>
</g>
<g id="ARC_9_">
	<path class="st0" d="M537.9,305.8c1.6,1.2,3.9,0.9,5.2-0.6"/>
</g>
<g id="LINE_39_">
	<line class="st0" x1="543.1" y1="305.2" x2="552" y2="294.6"/>
</g>
<g id="LINE_40_">
	<line class="st0" x1="487.3" y1="264" x2="537.9" y2="305.8"/>
</g>
<g id="LINE_41_">
	<line class="st0" x1="530.7" y1="246.4" x2="556.6" y2="246.4"/>
</g>
<g id="LINE_42_">
	<line class="st0" x1="360.3" y1="225.5" x2="360.3" y2="236.2"/>
</g>
<g id="LINE_43_">
	<line class="st0" x1="360.3" y1="225.5" x2="285.2" y2="225.5"/>
</g>
<g id="LINE_44_">
	<line class="st0" x1="360.3" y1="236.2" x2="285.2" y2="236.2"/>
</g>
<g id="LINE_45_">
	<line class="st0" x1="330.6" y1="170.9" x2="281.5" y2="216.6"/>
</g>
<g id="LINE_46_">
	<line class="st0" x1="281.5" y1="216.6" x2="256.9" y2="216.6"/>
</g>
<g id="LINE_47_">
	<line class="st0" x1="256.9" y1="216.6" x2="272.1" y2="175.7"/>
</g>
<g id="ARC_10_">
	<path class="st0" d="M269.5,170.9c5.2,2.7,10.9,4.3,16.7,4.8"/>
</g>
<g id="LINE_48_">
	<line class="st0" x1="269.5" y1="170.9" x2="269.5" y2="160.2"/>
</g>
<g id="ARC_11_">
	<path class="st0" d="M286.2,155.4c-5.8,0.5-11.5,2.1-16.7,4.8"/>
</g>
<g id="LINE_49_">
	<line class="st0" x1="330.6" y1="170.9" x2="295.4" y2="170.9"/>
</g>
<g id="LINE_50_">
	<line class="st0" x1="295.4" y1="170.9" x2="295.4" y2="160.2"/>
</g>
<g id="LINE_51_">
	<line class="st0" x1="295.4" y1="160.2" x2="470.5" y2="160.2"/>
</g>
<g id="LINE_52_">
	<line class="st0" x1="286.2" y1="155.4" x2="289.4" y2="155.4"/>
</g>
<g id="LINE_53_">
	<line class="st0" x1="350.8" y1="142.4" x2="356.8" y2="146.2"/>
</g>
<g id="LINE_54_">
	<line class="st0" x1="356.8" y1="146.2" x2="387.5" y2="146.2"/>
</g>
<g id="LINE_55_">
	<line class="st0" x1="320.1" y1="149.6" x2="350.8" y2="142.4"/>
</g>
<g id="LINE_56_">
	<line class="st0" x1="441.7" y1="153.8" x2="470.5" y2="160.2"/>
</g>
<g id="ARC_12_">
	<path class="st0" d="M320.1,149.6c-10.3,1.5-20.5,3.4-30.6,5.8"/>
</g>
<g id="ARC_13_">
	<path class="st0" d="M440.2,152.3c0.3,0.9,1.2,1.5,2.1,1.6"/>
</g>
<g id="LINE_57_">
	<line class="st0" x1="286.2" y1="175.7" x2="272.1" y2="175.7"/>
</g>
<g id="ARC_14_">
	<path class="st0" d="M440.2,152.3c-17.4-3.3-35-5.3-52.7-6.1"/>
</g>
<g id="LINE_58_">
	<line class="st0" x1="329.6" y1="289.6" x2="280.5" y2="243.9"/>
</g>
<g id="LINE_59_">
	<line class="st0" x1="280.5" y1="243.9" x2="255.9" y2="243.9"/>
</g>
<g id="LINE_60_">
	<line class="st0" x1="255.9" y1="243.9" x2="271.1" y2="284.9"/>
</g>
<g id="ARC_15_">
	<path class="st0" d="M285.2,284.9c-5.8,0.5-11.5,2.1-16.7,4.8"/>
</g>
<g id="LINE_61_">
	<line class="st0" x1="268.5" y1="289.6" x2="268.5" y2="300.3"/>
</g>
<g id="ARC_16_">
	<path class="st0" d="M268.5,300.3c5.2,2.7,10.9,4.3,16.7,4.8"/>
</g>
<g id="LINE_62_">
	<line class="st0" x1="329.6" y1="289.6" x2="294.4" y2="289.6"/>
</g>
<g id="LINE_63_">
	<line class="st0" x1="294.4" y1="289.6" x2="294.4" y2="300.3"/>
</g>
<g id="LINE_64_">
	<line class="st0" x1="294.4" y1="300.3" x2="469.5" y2="300.3"/>
</g>
<g id="LINE_65_">
	<line class="st0" x1="285.2" y1="305.1" x2="288.4" y2="305.1"/>
</g>
<g id="LINE_66_">
	<line class="st0" x1="349.8" y1="318.1" x2="355.8" y2="314.3"/>
</g>
<g id="LINE_67_">
	<line class="st0" x1="355.8" y1="314.3" x2="386.5" y2="314.3"/>
</g>
<g id="LINE_68_">
	<line class="st0" x1="319" y1="310.9" x2="349.8" y2="318.1"/>
</g>
<g id="LINE_69_">
	<line class="st0" x1="440.7" y1="306.7" x2="469.5" y2="300.3"/>
</g>
<g id="ARC_17_">
	<path class="st0" d="M288.4,305.1c10.1,2.4,20.3,4.3,30.6,5.8"/>
</g>
<g id="ARC_18_">
	<path class="st0" d="M441.3,306.6c-1,0.1-1.8,0.7-2.1,1.6"/>
</g>
<g id="LINE_70_">
	<line class="st0" x1="285.2" y1="284.9" x2="271.1" y2="284.9"/>
</g>
<g id="ARC_19_">
	<path class="st0" d="M386.5,314.3c17.7-0.7,35.3-2.8,52.7-6.1"/>
</g>
<g id="LINE_71_">
	<line class="st0" x1="482.7" y1="315.4" x2="473.1" y2="310.6"/>
</g>
<g id="ARC_20_">
	<path class="st0" d="M473.1,310.6c-7.8-3.8-16.6-5.1-25.2-3.7"/>
</g>
<g id="LINE_72_">
	<line class="st0" x1="447.9" y1="306.9" x2="401.8" y2="321.2"/>
</g>
<g id="ARC_21_">
	<path class="st0" d="M482.7,337.7c17-0.7,33.7-4.5,49.4-11.2"/>
</g>
<g id="ARC_22_">
	<path class="st0" d="M532.1,326.6c-15.6-6.7-32.4-10.5-49.4-11.2"/>
</g>
<g id="LINE_73_">
	<line class="st0" x1="482.7" y1="337.7" x2="349.8" y2="337.7"/>
</g>
<g id="LINE_74_">
	<line class="st0" x1="349.8" y1="337.7" x2="271.9" y2="331.9"/>
</g>
<g id="LINE_75_">
	<line class="st0" x1="401.8" y1="321.2" x2="442.3" y2="321.2"/>
</g>
<g id="LINE_76_">
	<line class="st0" x1="442.3" y1="321.2" x2="442.3" y2="331.9"/>
</g>
<g id="LINE_77_">
	<line class="st0" x1="442.3" y1="331.9" x2="271.9" y2="331.9"/>
</g>
</svg>
