<?xml version="1.0" encoding="utf-8"?>
<!-- Generator: Adobe Illustrator 25.2.1, SVG Export Plug-In . SVG Version: 6.00 Build 0)  -->
<svg version="1.1" id="_x30_" xmlns="http://www.w3.org/2000/svg" xmlns:xlink="http://www.w3.org/1999/xlink" x="0px" y="0px"
	 viewBox="0 0 595.3 841.9" style="enable-background:new 0 0 595.3 841.9;" xml:space="preserve">
<style type="text/css">
	.st0{fill:none;stroke:#000000;stroke-width:0.9921;stroke-linecap:round;stroke-linejoin:round;stroke-miterlimit:10;}
	.st1{fill:none;stroke:#000000;stroke-miterlimit:11.3386;}
</style>
<polygon class="st0" points="-511,2676.1 -511,2676.1 -525.2,2676.1 -525.2,2690.4 -383.4,2690.4 -383.4,2676.1 "/>
<rect x="-241.7" y="2676.1" class="st0" width="141.7" height="14.2"/>
<rect x="41.8" y="2676.1" class="st0" width="141.7" height="14.2"/>
<rect x="325.2" y="2676.1" class="st0" width="141.8" height="14.2"/>
<rect x="608.7" y="2676.1" class="st0" width="141.7" height="14.2"/>
<rect x="892.2" y="2676.1" class="st0" width="141.7" height="14.2"/>
<rect x="-525.2" y="2392.2" class="st0" width="14.2" height="85.3"/>
<polygon class="st0" points="1033.9,2590.6 1033.9,2476.9 1019.7,2477.4 1019.7,2591.1 "/>
<rect x="-36.2" y="2591.1" class="st0" width="14.2" height="56.7"/>
<rect x="-36.2" y="2421.1" class="st0" width="14.2" height="56.7"/>
<rect x="530.7" y="2591.1" class="st0" width="14.2" height="56.7"/>
<rect x="530.7" y="2421.1" class="st0" width="14.2" height="56.7"/>
<path class="st0" d="M-553.5,1565.3H-612v-226.8c0-31.3-25.4-56.7-56.7-56.7s-56.7,25.4-56.7,56.7v226.8h-55v-14.2h-28.3v-382.6
	h28.3v-14.2h56.7v14.2h113.4v-14.2h56.7v14.2h28.4v382.6h-28.3L-553.5,1565.3L-553.5,1565.3z"/>
<path class="st0" d="M-177.4,1342.2h-58.5v-226.8c0-31.3-25.4-56.7-56.7-56.7s-56.7,25.4-56.7,56.7v226.8h-55V1328h-28.3V945.4h28.3
	v-14.2h56.7v14.2h113.4v-14.2h56.7v14.2h28.3l0.1,382.6h-28.3L-177.4,1342.2L-177.4,1342.2z"/>
<path class="st0" d="M-20.5,1493.2V1720h-55v-14.1h-28.4v-382.7h28.4V1309h56.7v14.2H94.6V1309h56.6v14.2h28.4l0.1,382.7h-28.4v14.1
	H92.8v-226.7c0-31.3-25.4-56.7-56.7-56.7S-20.6,1462-20.5,1493.2"/>
<path class="st0" d="M296.9,1103.3h-58.4V876.5c0-31.3-25.4-56.7-56.7-56.7s-56.7,25.4-56.7,56.7v226.8h-55v-14.2H41.7V706.5h28.4
	v-14.2h56.7v14.2h113.4v-14.2h56.7v14.2h28.3l0.1,382.6h-28.4L296.9,1103.3L296.9,1103.3z"/>
<path class="st0" d="M768.8,1607.8h-56.7V1381c0-31.3-25.4-56.7-56.7-56.7s-56.7,25.4-56.7,56.7v226.8h-55v-14.2h-28.3v-425.1
	l26.6-0.1v-14.1h56.7v14.1h113.4v-14.1h56.7v14.1h28.4v425.2h-28.4V1607.8z"/>
<path class="st0" d="M1192.3,1576.1h-56.7v-226.8c0-31.3-25.4-56.7-56.7-56.7c-31.3,0-56.7,25.4-56.7,56.7v226.8h-55v-14.2h-28.3
	v-425.2h26.6v-14.2h56.7v14.2h113.4v-14.2h56.7v14.2h28.4v425.2h-28.4V1576.1z"/>
<polygon class="st0" points="1323.5,997.5 1323.5,855.8 1337.7,855.8 1337.7,784.9 2868.4,784.9 2868.4,855.8 2882.6,855.8 
	2882.6,997.5 2868.4,997.5 2868.4,1068.4 1337.7,1068.4 1337.7,997.5 "/>
<rect x="1812.5" y="983.4" class="st0" width="14.2" height="56.7"/>
<rect x="1812.5" y="813.3" class="st0" width="14.2" height="56.7"/>
<rect x="2379.4" y="983.4" class="st0" width="14.2" height="56.7"/>
<rect x="2379.4" y="813.3" class="st0" width="14.2" height="56.7"/>
<rect x="2720.1" y="809.1" class="st0" width="113.4" height="113.4"/>
<rect x="1911.7" y="983.4" class="st0" width="14.2" height="56.7"/>
<rect x="1911.7" y="813.3" class="st0" width="14.2" height="56.7"/>
<rect x="2280.2" y="983" class="st0" width="14.2" height="56.7"/>
<rect x="2280.2" y="812.9" class="st0" width="14.2" height="56.7"/>
<polygon class="st0" points="2882.3,706.8 2882.3,565.1 2868.1,565.1 2868.1,494.2 1337.4,494.2 1337.4,565.1 1323.2,565.1 
	1323.2,706.8 1337.4,706.8 1337.4,777.7 2868.1,777.7 2868.1,706.8 "/>
<rect x="2379.1" y="692.7" class="st0" width="14.2" height="56.7"/>
<rect x="2379.1" y="522.6" class="st0" width="14.2" height="56.7"/>
<rect x="1812.2" y="692.7" class="st0" width="14.1" height="56.7"/>
<rect x="1812.2" y="522.6" class="st0" width="14.1" height="56.7"/>
<rect x="1372.3" y="518.5" class="st0" width="113.4" height="113.3"/>
<rect x="2279.9" y="692.7" class="st0" width="14.2" height="56.7"/>
<rect x="2279.9" y="522.6" class="st0" width="14.2" height="56.7"/>
<rect x="1911.4" y="692.3" class="st0" width="14.2" height="56.7"/>
<rect x="1911.4" y="522.2" class="st0" width="14.2" height="56.7"/>
<g>
	<polygon class="st0" points="2433.9,4522.3 2433.9,4905 2080,4905 2080,4917.9 1966.1,4917.9 1966.1,4905 1881.1,4905 1881.1,4664 
		1866.9,4664 1866.9,4481.7 1881.1,4481.7 1881.1,4097.1 1881.1,4097.1 1881.1,3900.4 2164.6,3900.4 2164.6,4394.5 2419.7,4394.5 
		2419.7,4522.3 	"/>
	<polygon class="st0" points="1952,4522.3 2093.7,4522.3 2093.7,4508.1 2079.5,4508.1 1952,4508.1 	"/>
	<path class="st0" d="M1966.1,4271.4v226.7h113.4v-226.7c0-31.3-25.4-56.7-56.7-56.7S1966.1,4240.1,1966.1,4271.4z"/>
	<rect x="2299.2" y="4508.1" class="st0" width="56.6" height="14.2"/>
	<rect x="1952" y="4111.3" class="st0" width="141.7" height="14.2"/>
</g>
<path class="st0" d="M-1051.3,3927.3l0.1-202.6c0-31.3-25.4-56.7-56.7-56.7c-31.3,0-56.7,25.4-56.7,56.7l-0.1,202.6h-81.5v-255.1
	h-14.1v-283.5h14.1v-283.4h-14.1v-196.8h297.6l-4.1,1018.8L-1051.3,3927.3L-1051.3,3927.3z"/>
<rect x="893.1" y="3674.7" class="st0" width="14.2" height="182.3"/>
<polygon class="st0" points="2829.1,159.3 2687.4,159.3 2687.4,173.5 2545.6,173.5 2545.6,159.3 2403.9,159.3 2403.9,173.5 
	2262.2,173.5 2262.2,-124.1 2829.1,-124.1 "/>
<polygon class="st0" points="2120.5,1658.9 2403.9,1658.9 2403.9,1800.7 2418.1,1800.7 2418.1,1942.4 2403.9,1942.4 2403.9,2084.1 
	2418.1,2084.1 2418.1,2225.9 2403.9,2225.9 2403.9,2367.6 2120.5,2367.6 "/>
<rect x="2318.9" y="1722.7" class="st0" width="56.7" height="14.2"/>
<rect x="2148.8" y="1722.7" class="st0" width="56.7" height="14.2"/>
<rect x="2318.9" y="2289.6" class="st0" width="56.7" height="14.2"/>
<rect x="2148.8" y="2289.6" class="st0" width="56.7" height="14.2"/>
<polygon class="st0" points="2828.4,3817.2 2842.5,3817.1 2841.8,3675.3 2827.7,3675.4 2826.9,3533.7 2841,3533.6 2840.3,3391.9 
	3123.8,3390.5 3126.8,3957.3 2829.2,3958.9 "/>
<path class="st0" d="M571.2,3131.6c0-38.8,31.5-70.3,70.3-70.3s70.2,31.4,70.2,70.3c0,38.9-31.5,70.3-70.3,70.3
	S571.2,3170.4,571.2,3131.6L571.2,3131.6z"/>
<path class="st0" d="M-468.5,3146.3c0-38.8,31.5-70.3,70.3-70.3s70.3,31.5,70.3,70.3s-31.5,70.3-70.3,70.3
	S-468.5,3185.1-468.5,3146.3L-468.5,3146.3z"/>
<path class="st0" d="M-469.2,3907.4c0-39.1,31.7-70.9,70.9-70.9s70.9,31.7,70.9,70.9c0,39.1-31.7,70.9-70.9,70.9
	S-469.2,3946.5-469.2,3907.4L-469.2,3907.4z"/>
<line class="st0" x1="175.7" y1="3168.7" x2="83.5" y2="3168.1"/>
<line class="st0" x1="222.3" y1="3089.1" x2="175.7" y2="3168.7"/>
<line class="st0" x1="176.7" y1="3009" x2="222.3" y2="3089.1"/>
<line class="st0" x1="84.5" y1="3008.5" x2="176.7" y2="3009"/>
<line class="st0" x1="37.9" y1="3088" x2="84.5" y2="3008.5"/>
<line class="st0" x1="83.5" y1="3168.1" x2="37.9" y2="3088"/>
<line class="st0" x1="-306.1" y1="3592.8" x2="-306.1" y2="3468.1"/>
<line class="st0" x1="-386.7" y1="3468.1" x2="-306.1" y2="3468.1"/>
<line class="st0" x1="-386.7" y1="3468.1" x2="-386.7" y2="3592.8"/>
<line class="st0" x1="-306.1" y1="3592.8" x2="-386.7" y2="3592.8"/>
<line class="st0" x1="172.6" y1="3579.9" x2="88.2" y2="3579.9"/>
<line class="st0" x1="172.6" y1="3454.1" x2="172.6" y2="3579.9"/>
<line class="st0" x1="88.2" y1="3454.1" x2="172.6" y2="3454.1"/>
<line class="st0" x1="88.2" y1="3579.9" x2="88.2" y2="3454.1"/>
<line class="st0" x1="618.4" y1="3820.8" x2="710.6" y2="3821.3"/>
<line class="st0" x1="571.8" y1="3900.4" x2="618.4" y2="3820.8"/>
<line class="st0" x1="617.4" y1="3980.5" x2="571.8" y2="3900.4"/>
<line class="st0" x1="709.6" y1="3981" x2="617.4" y2="3980.5"/>
<line class="st0" x1="756.2" y1="3901.5" x2="709.6" y2="3981"/>
<line class="st0" x1="710.6" y1="3821.3" x2="756.2" y2="3901.5"/>
<line class="st0" x1="656.3" y1="3584.5" x2="572" y2="3584.5"/>
<line class="st0" x1="656.3" y1="3458.7" x2="656.3" y2="3584.5"/>
<line class="st0" x1="572" y1="3458.7" x2="656.3" y2="3458.7"/>
<line class="st0" x1="572" y1="3584.5" x2="572" y2="3458.7"/>
<line class="st0" x1="234.7" y1="3984.3" x2="234.7" y2="3869.7"/>
<path class="st0" d="M234.7,3869.7c-66.1-43-151.4-42.5-217,1.2"/>
<line class="st0" x1="17.7" y1="3870.9" x2="17.7" y2="3984.3"/>
<line class="st0" x1="234.7" y1="3984.3" x2="17.7" y2="3984.3"/>
<polyline class="st0" points="906.5,3096.9 892,3089.7 855.2,3071.3 861.6,3058.6 734.8,2995.2 728.5,3007.9 601.7,2944.5 
	608,2931.9 481.3,2868.5 339.5,2868.5 339.5,2882.6 197.8,2882.6 197.8,2868.5 56.1,2868.5 56.1,2882.6 -85.7,2882.6 -85.7,2868.5 
	-227.4,2868.5 -354.2,2931.9 -347.8,2944.5 -474.6,3007.9 -480.9,2995.2 -607.7,3058.6 -601.4,3071.3 -652.6,3096.9 -638.4,3096.9 
	-638.2,3293.7 -652.3,3293.7 -652.3,3577.1 -638.2,3577.1 -638.2,3860.6 -652.3,3860.6 -652.3,4115.7 -510.6,4115.7 -510.6,4101.5 
	-368.9,4101.5 -368.9,4115.7 -227.1,4115.7 -227.1,4101.5 -85.4,4101.5 -85.4,4115.7 56.3,4115.7 56.3,4101.5 198.1,4101.5 
	198.1,4115.7 339.8,4115.7 339.8,4101.5 481.5,4101.5 481.5,4115.7 623.3,4115.7 623.3,4101.5 765,4101.5 765,4115.7 906.7,4116.6 
	906.7,4102.5 1048.4,4102.5 1048.4,4116.6 1190.2,4116.6 1190.2,4102.5 1331.9,4102.5 1331.9,4116.6 1473.6,4116.6 1473.6,4003.3 
	1459.4,4003.3 1459.4,3861.5 1473.6,3861.5 1473.6,3719.8 1459.3,3719.8 1459.3,3705.6 1459.4,3705.6 1459.4,3648.9 1473.6,3648.9 
	1473.6,3592.2 906.7,3592.2 906.7,3568 906.7,3293.7 906.8,3293.7 906.6,3096.9 "/>
<rect x="1034.3" y="3705.6" class="st0" width="141.7" height="14.2"/>
<polygon class="st0" points="1110.7,2718.8 -553.5,2718.8 -553.5,1966.8 1630.1,1964.7 1630.1,2718.7 "/>
<rect x="1176.6" y="2676.2" class="st0" width="141.7" height="14.2"/>
<rect x="1460.1" y="2676.2" class="st0" width="141.7" height="14.2"/>
<rect x="1587.6" y="2321.9" class="st0" width="14.2" height="170.1"/>
<polyline class="st0" points="2956.7,2725.9 2956.7,3122.8 2772.4,3122.8 2772.4,3136.9 2602.4,3136.9 2602.4,3122.8 2418.1,3122.8 
	2418.1,3023.4 2403.9,3023.4 2403.9,2881.8 2418.1,2881.8 2418.1,2740.1 2403.9,2740.1 2403.9,2669.1 2418.1,2669.1 2418.1,2612.4 
	2956.7,2612.4 2956.7,2725.9 "/>
<rect x="2687.4" y="2725.9" class="st0" width="141.7" height="14.2"/>
<polygon class="st0" points="1644.3,3301.7 1644.3,3230.8 1630.1,3230.8 1630.1,3089.1 1630.1,2975.7 1644.3,2975.7 1644.3,2904.8 
	1630.1,2904.8 1630.1,2812.7 1644.3,2812.7 1644.1,2812.6 1771.6,2812.6 1771.8,2812.7 1913.6,2812.7 1913.6,2798.5 2055.3,2798.5 
	2055.3,2812.7 2182.9,2812.7 2182.9,2954.5 2182.9,2954.5 2182.9,3096.2 2197,3096.2 2197,3237.9 2182.9,3237.9 2182.9,3365.5 
	1899.4,3365.5 1899.4,3365.5 1764.8,3365.5 1764.8,3379.7 1708.1,3379.7 1708.1,3365.5 1630.1,3365.5 1630.1,3301.7 "/>
<path class="st1" d="M1718.1,3587.7v-57.2h106.3v-6.7 M1824.4,3524.7v-8.4h71v9.1 M1895.4,3523.8v6.7h255v-7 M2150.4,3523.5v-7.8h71
	v7.8 M2221.4,3523.5v7h78v56.4 M2299.4,3587.7v56.4h-581.3v-56.4 M1782.1,3620.9v-9.5h3.1l3.9-4.2l2.8-8.7v-3.8l-5-13.2l3.4-12.8
	l-4.1-0.6l-0.9-2h-3v-11.3H1764v11.3h-2.9l-0.9,2h-3.5l2.8,13l-5.1,14l2.9,11.3l3.1,4.3l3.7,0.7v9.5H1782.1L1782.1,3620.9z
	 M1874.8,3620.9v-9.5h3l3.9-4.2l2.9-12l-5.1-13.6l3.4-12.8l-4.1-0.6l-0.9-2h-2.9v-11.3h-18.4v11.3h-2.9l-0.9,2h-3.5l2.8,13l-5.1,14
	l2.9,11.3l3.1,4.3l3.7,0.7v9.5h18.1V3620.9z M2106.3,3620.9v-9.5h3l3.9-4.2l2.9-12l-5.1-14l3.4-12.4l-4.1-0.6l-0.9-2h-2.9v-11.3
	h-18.3v11.3h-3l-0.9,2h-3.5l2.4,9.3l0.4,4.1l-5,13.2v3.8l1.7,5.9l3.3,5.4l4.7,1.6v9.5h18V3620.9z M1967.4,3620.9v-9.5h3l3.9-4.2
	l2.9-12l-5.1-14l3.4-12.4l-4.1-0.6l-0.9-2h-2.9v-11.3h-18.4v11.3h-2.9l-0.9,2h-3.5l2.4,9.3l0.4,4.1l-5.1,13.6l2.9,11.3l3.1,4.3
	l3.7,0.7v9.5h18.1V3620.9z M2013.7,3620.9v-9.5h3l3.9-4.2l2.9-12l-5.1-14l3.4-12.4l-4.1-0.6l-0.9-2h-2.9v-11.3h-18.4v11.3h-2.9
	l-0.9,2h-3.5l2.4,9.3l0.4,4.1l-5.1,13.6l2.9,11.3l3.1,4.3l3.7,0.7v9.5h18.1V3620.9z M2245.2,3620.9v-9.5h3.1l3.8-4.2l2.9-12l-5-13.2
	l0.5-5.2l2.8-8l-4.1-0.6l-0.8-2h-3v-11.3h-18.3v11.3h-3v1.2l-4.5,0.8l2.5,9.6l0.3,3.8l-5,13.2v3.8l4.2,10.1l1.7,2.1l3.8,0.7v9.5
	h18.1V3620.9z M2198.9,3620.9v-9.5h3.1l3.8-4.2l2.9-12l-4.6-11l-0.5-3.6l3.4-11.8l-4.1-0.6l-0.8-2h-3v-11.3h-18.3v11.3h-3l-0.9,2
	h-3.5l2.5,9.6l0.3,3.8l-5,13.2v3.8l4.2,10.1l1.7,2.1l3.8,0.7v9.5L2198.9,3620.9L2198.9,3620.9z M2279.6,3620.9v-66h-6.4v11.3h-3v1.2
	l-4.5,0.8l1.9,7.4l0.9,6l-5,13.2l0.2,4.7l4,9.2l1.7,2.1l3.8,0.7v9.5L2279.6,3620.9L2279.6,3620.9z M1736.6,3620.9v-9.5h3l5-6.9
	l1.7-9.3l-5-13.2l0.5-5.2l2.8-8l-4.1-0.6l-0.8-2h-3v-11.3h-4.1v66H1736.6z"/>
<polygon class="st0" points="-1175.2,3531.1 -1033.5,3531.1 -1033.5,3516.9 -1047.7,3516.9 -1175.2,3516.9 "/>
<rect x="-1175.2" y="3120.1" class="st0" width="141.7" height="14.2"/>
</svg>
