<?xml version="1.0" encoding="utf-8"?>
<!-- Generator: Adobe Illustrator 24.2.3, SVG Export Plug-In . SVG Version: 6.00 Build 0)  -->
<svg version="1.1" id="Layer_1" xmlns="http://www.w3.org/2000/svg" xmlns:xlink="http://www.w3.org/1999/xlink" x="0px" y="0px"
	 viewBox="0 0 357.5 122.1" style="enable-background:new 0 0 357.5 122.1;" xml:space="preserve">
<style type="text/css">
	.st0{fill:none;stroke:#FF0000;stroke-width:3;stroke-linecap:round;stroke-linejoin:round;stroke-miterlimit:11.3386;}
</style>
<desc>Output from Flights of Ideas SVG Sketchup Plugin</desc>
<path class="st0" d="M7.3-18.3h43.2v10.9H7.3v28.9l4.1,4.5l-0.8,7.1c-14.3,1.5-14.3,25.5,0,27.4l0.4,10.1l-9,10.9v11.6l18.4,70.6
	L33.6,267l-3,1.5c5.1,20.2,10.4,39.2,16.9,38.3c11.5-2.8,15.6-25.2,16.9-55.6l-3.8-1.9l9-158.4l12.4-39V-51.4l-9.4-11.3H19.7
	L6.9-49.5L7.3-18.3z"/>
<polygon class="st0" points="9.9,96.9 19.7,134.1 22,96.9 "/>
<polygon class="st0" points="9.9,87.5 19.7,87.5 14.8,79.3 9.9,83.4 "/>
<path class="st0" d="M132.9,92.8V-24.9l8.4-14.1l11.3,14.1V92.8l3.4,22.7h74.9V96.9h31v61.8h-18.6v10.1h18.6v20.8l-3.4,5.1l1.1,24.2
	l2.3,3.9v20.3h-5.6h-14.1l-4.5-21.4l3.4-2.8l-1.1-27c0.3-6.5-7.6-6.5-7.9-2.3l-0.6,10.1L156,178.9l-5.1,10.7l-14.1,0.6l-6.2-15.8
	l-1.1-77.5L132.9,92.8z"/>
<path class="st0" d="M285.8,92.8V-24.9l8.4-14.1l11.3,14.1V92.8l3.4,22.7h74.9V96.9h31v61.8h-18.6v10.1h18.6v20.8l-3.4,5.1l1.1,24.2
	l2.3,3.9v20.3h-5.6h-14.1l-4.5-21.4l3.4-2.8l-1.1-27c0.3-6.5-7.6-6.5-7.9-2.3l-0.6,10.1l-75.5-20.8l-5.1,10.7l-14.1,0.6l-6.2-15.8
	l-1.1-77.5L285.8,92.8z"/>
<path class="st0" d="M717.3,92.8V-24.9L708.9-39l-11.3,14.1V92.8l-3.4,22.7h-74.9V96.9h-31v61.8h18.6v10.1h-18.6v20.8l3.4,5.1
	l-1.1,24.2l-2.3,3.9v20.3h5.6h14.1l4.5-21.4l-3.4-2.8l1.1-27c-0.3-6.5,7.6-6.5,7.9-2.3l0.6,10.1l75.5-20.8l5.1,10.7l14.1,0.6
	l6.2-15.8l1.1-77.5L717.3,92.8z"/>
<path class="st0" d="M564.4,92.8V-24.9L555.9-39l-11.3,14.1V92.8l-3.4,22.7h-74.9V96.9h-31v61.8H454v10.1h-18.6v20.8l3.4,5.1
	l-1.1,24.2l-2.3,3.9v20.3h5.6h14.1l4.5-21.4l-3.4-2.8l1.1-27c-0.3-6.5,7.6-6.5,7.9-2.3l0.6,10.1l75.5-20.8l5.1,10.7l14.1,0.6
	l6.2-15.8l1.1-77.5L564.4,92.8z"/>
<path class="st0" d="M148.3,233.8l13.3,6.5l-4.4,7.3l-13.5-6c-7,13.4-7.4,28.2,0.6,41.5l12.2-6.9l4.4,6.9l-12.4,8.2
	c7.4,8.6,17.4,13.4,29.2,13.5l0.6-41.1l8.9,0.1l0.7,43c13.6-0.9,22.8-6.5,28.6-15.8l-12.4-7.2l4.1-7.2l13.8,6.6
	c9.1-14.4,7-28.4-0.4-41l-13.1,7.3l-4.2-7.6l13.5-7.3c-3.5-7.9-9.9-13.2-20.1-15.1c-9.6-2.9-19.6-2.7-29.7,0
	C160.3,222.5,153.3,227.8,148.3,233.8z"/>
</svg>
