<?xml version="1.0" encoding="utf-8"?>
<!-- Generator: Adobe Illustrator 24.2.3, SVG Export Plug-In . SVG Version: 6.00 Build 0)  -->
<svg version="1.1"
	 id="svg2" inkscape:version="0.91 r13725" sodipodi:docname="20151016 - Eigen Huisje.svg" xmlns:cc="http://creativecommons.org/ns#" xmlns:dc="http://purl.org/dc/elements/1.1/" xmlns:inkscape="http://www.inkscape.org/namespaces/inkscape" xmlns:rdf="http://www.w3.org/1999/02/22-rdf-syntax-ns#" xmlns:sodipodi="http://sodipodi.sourceforge.net/DTD/sodipodi-0.dtd" xmlns:svg="http://www.w3.org/2000/svg"
	 xmlns="http://www.w3.org/2000/svg" xmlns:xlink="http://www.w3.org/1999/xlink" x="0px" y="0px" viewBox="0 0 920.9 623.9"
	 style="enable-background:new 0 0 920.9 623.9;" xml:space="preserve">
<style type="text/css">
	.st0{fill:none;stroke:#800080;stroke-width:0.3543;stroke-miterlimit:4.6527;}
	.st1{fill:none;stroke:#000000;stroke-width:0.3749;stroke-miterlimit:4.6527;}
	.st2{fill:none;stroke:#000000;stroke-width:0.3543;stroke-miterlimit:4.6527;}
	.st3{fill:none;stroke:#008000;stroke-width:0.3543;stroke-miterlimit:4.6527;}
	.st4{fill:none;stroke:#000080;stroke-width:0.3543;stroke-miterlimit:4.6527;}
</style>
<sodipodi:namedview  bordercolor="#b63aaf" borderopacity="1" fit-margin-bottom="0" fit-margin-left="0" fit-margin-right="0" fit-margin-top="0" id="base" inkscape:bbox-nodes="false" inkscape:bbox-paths="false" inkscape:current-layer="layer6" inkscape:cx="394.27974" inkscape:cy="255.93885" inkscape:document-units="mm" inkscape:guide-bbox="true" inkscape:object-nodes="true" inkscape:object-paths="true" inkscape:pageopacity="0.0" inkscape:pageshadow="2" inkscape:showpageshadow="false" inkscape:snap-bbox="true" inkscape:snap-bbox-edge-midpoints="false" inkscape:snap-bbox-midpoints="false" inkscape:snap-center="false" inkscape:snap-global="false" inkscape:snap-intersection-paths="true" inkscape:snap-midpoints="true" inkscape:snap-nodes="true" inkscape:snap-object-midpoints="true" inkscape:snap-others="false" inkscape:window-height="1017" inkscape:window-maximized="1" inkscape:window-width="1920" inkscape:window-x="-8" inkscape:window-y="-8" inkscape:zoom="1" pagecolor="#ffffff" showgrid="false" showguides="true" units="px">
	
		<inkscape:grid  empspacing="10" id="grid4136" originx="-27.230924" originy="-952.85102" spacingx="17.716534" spacingy="17.716534" type="xygrid" units="mm">
		</inkscape:grid>
</sodipodi:namedview>
<g id="layer8" transform="translate(7.5384254,3.5961522)" inkscape:groupmode="layer" inkscape:label="100 [feed=450,post=1]">
	<path id="rect4989-5-8" inkscape:connector-curvature="0" class="st0" d="M423.1,20h-10.6V0.8h-14.2v73.8h14.2V55.5h10.6
		C423.1,55.5,423.1,20,423.1,20z"/>
	<path id="rect4989-5-8-4-3" inkscape:connector-curvature="0" class="st0" d="M571.3,56h10.6v19.2h14.2V1.4h-14.2v19.2h-10.6V56z"
		/>
	<path id="rect4989-5-85" inkscape:connector-curvature="0" class="st0" d="M532.5,286.1v10.6h-19.2v14.2h73.8v-14.2h-19.2v-10.6
		H532.5z"/>
	<path id="rect4989-5" inkscape:connector-curvature="0" class="st0" d="M578.3,399.2v10.6h-19.2V424h73.8v-14.2h-19.2v-10.6H578.3z
		"/>
	<path id="rect4989-6" inkscape:connector-curvature="0" class="st0" d="M710.8,400.8v10.6h-19.2v14.2h73.8v-14.2h-19.2v-10.6H710.8
		z"/>
	<path id="rect4989-6-7" inkscape:connector-curvature="0" class="st0" d="M839,398v10.6h-19.2v14.2h73.8v-14.2h-19.2V398H839z"/>
	<path id="rect4989" inkscape:connector-curvature="0" class="st0" d="M837.6,449.4V460h-19.2v14.2h73.8V460H873v-10.6H837.6z"/>
	<path id="rect4989-51" inkscape:connector-curvature="0" class="st0" d="M710.6,449.8v10.6h-19.2v14.2h73.8v-14.2H746v-10.6H710.6z
		"/>
	<path id="rect4989-5-8-4" inkscape:connector-curvature="0" class="st0" d="M580,448.7v10.6h-19.2v14.2h73.8v-14.2h-19.2v-10.6H580
		L580,448.7z"/>
	<path id="rect7614-6-6-9" inkscape:connector-curvature="0" class="st0" d="M286,501.8l-4.5,4.2v48.2h9.5v-28.5h16.1v18.2h10.1
		v-18.2h16.1v18.2h10.1v-18.2h16.1v18.2h10.1v-18.2h16.1v28.5h10.1v-28.5H412v18.2h10.1v-18.2h16.1v18.2h10.1v-18.2h16.1v18.2h10.1
		v-18.2h16.1v28.5h10.1v-28.5h16.1v18.2h10.1v-18.2H543v18.2H553v-18.2h16.1v18.2h10.1v-18.2h16.1v18.2h10.1v-18.2h16.1v18.2h10.1
		v-18.2h16.1v28.5h9.5v-48.1l-4.5-4.2l-5,4.7v13.1h-16.1v-13.1l-5-4.7l-5,4.7v13.1h-16.1v-13.1l-5-4.7l-5,4.7v13.1h-16.1v-13.1
		l-5-4.7l-5,4.7v13.1H553v-13.1l-5-4.7l-5,4.7v13.1h-16.1v-13.1l-5-4.7l-5,4.7v13.1h-16.1v-13.1l-5-4.7l-5,4.7v13.1h-16.1v-13.1
		l-5-4.7l-5,4.7v13.1h-16.1v-13.1l-5-4.7l-5,4.7v13.1h-16.1v-13.1l-5-4.7l-5,4.7v13.1h-16.1v-13.1l-5-4.7l-5,4.7v13.1h-16.1v-13.1
		l-5-4.7l-5,4.7v13.1h-16.1v-13.1l-5-4.7l-5,4.7v13.1h-16.1v-13.1l-5-4.7l-5,4.7v13.1h-16.1v-13.1L286,501.8z"/>
	<path id="rect7614-6-6" inkscape:connector-curvature="0" class="st0" d="M299.1,567.8l-4.5,4.2v48.2h9.5v-28.5h16.1v18.2h10.1
		v-18.2h16.1v18.2h10.1v-18.2h16.1v18.2h10.1v-18.2h16.1v28.5h10.1v-28.5H425v18.2h10.1v-18.2h16.1v18.2h10.1v-18.2h16.1v18.2h10.1
		v-18.2h16.1v28.5h10.1v-28.5h16.1v18.2h10.1v-18.2H556v18.2h10.1v-18.2h16.1v18.2h10.1v-18.2h16.1v18.2h10.1v-18.2h16.1v18.2h10.1
		v-18.2h16.1v28.5h9.5V572l-4.5-4.2l-5,4.7v13.1h-16.1v-13.1l-5-4.7l-5,4.7v13.1h-16.1v-13.1l-5-4.7l-5,4.7v13.1h-16.1v-13.1l-5-4.7
		l-5,4.7v13.1h-16.1v-13.1l-5-4.7l-5,4.7v13.1h-16.1v-13.1l-5-4.7l-5,4.7v13.1h-16.1v-13.1l-5-4.7l-5,4.7v13.1h-16.1v-13.1l-5-4.7
		l-5,4.7v13.1h-16.1v-13.1l-5-4.7l-5,4.7v13.1h-16.1v-13.1l-5-4.7l-5,4.7v13.1h-16.1v-13.1l-5-4.7l-5,4.7v13.1h-16.1v-13.1l-5-4.7
		l-5,4.7v13.1h-16.1v-13.1l-5-4.7l-5,4.7v13.1h-16.1v-13.1l-5-4.7l-5,4.7v13.1h-16.1v-13.1L299.1,567.8L299.1,567.8z"/>
	<path id="rect7614-6-9" inkscape:connector-curvature="0" class="st0" d="M686.7,488.2l-5,4.7V506h-11.3v6h11.3v28.5h10.1V512h16.1
		v18.2h10.1V512H734v18.2h10.1V512h16.1v18.2h10.1V512h16.1v28.5h10.1V512h16.1v18.2h10.1V512h16.1v18.2h10.1V512H865v18.2H875V512
		h16.1v28.5h10.1V512h11.9v-6h-11.9v-13.1l-5-4.7l-5,4.7V506H875v-13.1l-5-4.7l-5,4.7V506h-16.1v-13.1l-5-4.7l-5,4.7V506h-16.1
		v-13.1l-5-4.7l-5,4.7V506h-16.1v-13.1l-5-4.7l-5,4.7V506h-16.1v-13.1l-5-4.7l-5,4.7V506h-16.1v-13.1l-5-4.7l-5,4.7V506h-16.1v-13.1
		l-5-4.7l-5,4.7V506h-16.1v-13.1L686.7,488.2L686.7,488.2z"/>
	<path id="rect7614-6-9-3-9" inkscape:connector-curvature="0" class="st0" d="M703,567.1l-4.5,4.2v48.2h9.5v-28.5h16.1v18.2h10.1
		v-18.2h16.1v18.2h10.1v-18.2h16.1v18.2h10.1v-18.2h16.1v28.5h10.1v-28.5h15.5v-6h-15.5v-13.1l-5-4.7l-5,4.7v13.1h-16.1v-13.1
		l-5-4.7l-5,4.7v13.1h-16.1v-13.1l-5-4.7l-5,4.7v13.1h-16.1v-13.1l-5-4.7l-5,4.7v13.1h-16.1v-13.1L703,567.1z"/>
	<path id="rect7614-6-9-3" inkscape:connector-curvature="0" class="st0" d="M873,566.1l-5,4.7v13.1h-12.7v6h12.7v28.5H878v-28.5
		h16.1v28.5h9.5v-48.1l-4.5-4.2l-5,4.7v13.1H878v-13.1L873,566.1z"/>
</g>
<g id="layer4" transform="translate(7.5384254,3.5961522)" inkscape:groupmode="layer" inkscape:label="100 [feed=450]">
	<path id="path4491" inkscape:connector-curvature="0" class="st1" d="M-7.4-3.4v285.3h397.7V-3.4C390.4-3.4-7.4-3.4-7.4-3.4z"/>
	<path id="path4847" inkscape:connector-curvature="0" class="st2" d="M0.2,286.2v7.3v1v24.6h10.7v59.3H0.2V400v26.2h107v10.7h59.3
		v-10.7h107V400V379H263v-59.3h10.4v-25.1v-1v-7.3C273.5,286.2,0.2,286.2,0.2,286.2z"/>
	<path id="path4847-3" inkscape:connector-curvature="0" class="st2" d="M0.2,440.9v7.3v1v24.6h10.7v59.3H0.2v21.6v26.2h107v10.7
		h59.3v-10.7h107v-26.2v-21.1H263v-59.3h10.4v-25.1v-1v-7.3C273.5,440.9,0.2,440.9,0.2,440.9z"/>
	<path id="path4843-1" inkscape:connector-curvature="0" class="st2" d="M345.8,287.2v10.7h-21.6H298v58.9h-10.7v59.3H298v4h10.6
		v35.4H298v19.5h26.2h21.6v10.7h59.3v-10.7h24.6h1h21.4l30-25l6.8,8.2l45.6-38l-6.8-8.2l30.7-25.6l-31.2-26l6.9-8.3l-45.6-38
		l-6.9,8.3l-29.5-24.6h-21.4h-1h-24.6v-10.7H345.8z"/>
	<path id="path4843" inkscape:connector-curvature="0" class="st2" d="M497.8,0.8l-26,31.2l-8.3-6.9l-38,45.6l8.3,6.9l-24.6,29.5
		v21.4v1v24.6h-10.7v59.3h10.7V235v26.2h58.9v10.7h59.3v-10.7h4v-10.6h35.4v10.6h19.5V235v-21.6H597v-59.3h-10.7v-24.6v-1v-21.4
		l-25-30l8.2-6.8l-38-45.6l-8.2,6.8L497.8,0.8L497.8,0.8z"/>
	<path id="path6601" inkscape:connector-curvature="0" class="st2" d="M730.4,9.1v11H624h0h-16.9v9.4v9.4v1V161h0v22.3
		c0,3.9,3.2,7.1,7.1,7.1H906c3.9,0,7.1-3.2,7.1-7.1V39.9v-1v-8.3v-1.1v-2.3v-7.1h-16.9v0H789.7v-11H730.4z"/>
	<path id="path6612" inkscape:connector-curvature="0" class="st2" d="M614.1,196.7c-3.9,0-7.1,3.2-7.1,7.1v12v125.3v16.2v20.8v0.2
		H624h0h106.4v-10.9h59.3v10.9h106.4v0h16.9v-0.2v-20.8v-16.2V203.8c0-3.9-3.2-7.1-7.1-7.1H614.1L614.1,196.7z"/>
</g>
<g id="layer7" transform="translate(7.5384254,3.5961522)" inkscape:groupmode="layer" inkscape:label="100 [feed=450,pre=1]">
	<path id="rect7838" inkscape:connector-curvature="0" class="st3" d="M4.2,6.9h10v10.2h-10V6.9z"/>
	<path id="rect7838-7" inkscape:connector-curvature="0" class="st3" d="M109,6.9h10v10.2h-10V6.9z"/>
	<path id="rect7838-55" inkscape:connector-curvature="0" class="st3" d="M213.7,6.9h10v10.2h-10V6.9z"/>
	<path id="rect7838-55-2" inkscape:connector-curvature="0" class="st3" d="M370.9,6.9h10v10.2h-10V6.9z"/>
	<path id="rect7838-69" inkscape:connector-curvature="0" class="st3" d="M370.8,65.6v-10H381v10H370.8z"/>
	<path id="rect7838-6-7" inkscape:connector-curvature="0" class="st3" d="M370.8,39.4v-10H381v10H370.8z"/>
	<path id="rect7838-55-1-4" inkscape:connector-curvature="0" class="st3" d="M370.8,270.3v-10h10.2v10H370.8z"/>
	<path id="rect7838-55-6-8" inkscape:connector-curvature="0" class="st3" d="M370.8,244.1v-10h10.2v10H370.8z"/>
	<path id="rect7838-55-3-6" inkscape:connector-curvature="0" class="st3" d="M370.8,139.3v-10h10.2v10H370.8z"/>
	<path id="rect7838-69-5" inkscape:connector-curvature="0" class="st3" d="M3.8,270.3v-10h10.2v10H3.8z"/>
	<path id="rect7838-6-7-5" inkscape:connector-curvature="0" class="st3" d="M3.8,248.4v-10h10.2v10H3.8z"/>
	<path id="rect7838-0-0-8" inkscape:connector-curvature="0" class="st3" d="M3.8,143.6v-10h10.2v10H3.8z"/>
	<path id="rect7838-55-4-9-4" inkscape:connector-curvature="0" class="st3" d="M3.8,38.8v-10h10.2v10H3.8z"/>
	<path id="rect7838-7-42" inkscape:connector-curvature="0" class="st3" d="M108.9,260.3h10v10.2h-10V260.3z"/>
	<path id="rect7838-55-55" inkscape:connector-curvature="0" class="st3" d="M213.7,260.3h10v10.2h-10V260.3z"/>
	<path id="path4487" inkscape:connector-curvature="0" class="st3" d="M58.1,111.2h11v59.3h-11C58.1,170.6,58.1,111.2,58.1,111.2z"
		/>
	<path id="path4489" inkscape:connector-curvature="0" class="st3" d="M165,41.7h59.3v11H165V41.7z"/>
	<path id="rect4313" inkscape:connector-curvature="0" class="st3" d="M165.1,229.1h59.3v11h-59.3V229.1z"/>
	<path id="path4485" inkscape:connector-curvature="0" class="st3" d="M320.7,111.3h11v59.3h-11V111.3z"/>
	<path id="rect4903-1-6" inkscape:connector-curvature="0" class="st3" d="M55.4,323.8h14.1c2,0,3.5,1.6,3.5,3.5v14.1
		c0,2-1.6,3.5-3.5,3.5H55.4c-2,0-3.5-1.6-3.5-3.5v-14.1C51.8,325.4,53.4,323.8,55.4,323.8z"/>
	<path id="rect4903-76" inkscape:connector-curvature="0" class="st3" d="M55.4,352.2h14.1c2,0,3.5,1.6,3.5,3.5v14.1
		c0,2-1.6,3.5-3.5,3.5H55.4c-2,0-3.5-1.6-3.5-3.5v-14.1C51.8,353.8,53.4,352.2,55.4,352.2z"/>
	<path id="rect4991-0-9" inkscape:connector-curvature="0" class="st3" d="M58.9,384h35.4v10.6H58.9V384z"/>
	<path id="rect4903-1-7-0" inkscape:connector-curvature="0" class="st3" d="M83.7,323.8h14.1c2,0,3.5,1.6,3.5,3.5v14.1
		c0,2-1.6,3.5-3.5,3.5H83.7c-2,0-3.5-1.6-3.5-3.5v-14.1C80.2,325.4,81.8,323.8,83.7,323.8z"/>
	<path id="rect4903-7-7" inkscape:connector-curvature="0" class="st3" d="M83.7,352.2h14.1c2,0,3.5,1.6,3.5,3.5v14.1
		c0,2-1.6,3.5-3.5,3.5H83.7c-2,0-3.5-1.6-3.5-3.5v-14.1C80.2,353.8,81.8,352.2,83.7,352.2z"/>
	<path id="rect4903-0" inkscape:connector-curvature="0" class="st3" d="M175.8,352.2h14.1c2,0,3.5,1.6,3.5,3.5v14.1
		c0,2-1.6,3.5-3.5,3.5h-14.1c-2,0-3.5-1.6-3.5-3.5v-14.1C172.3,353.8,173.8,352.2,175.8,352.2z"/>
	<path id="rect4903-1-0" inkscape:connector-curvature="0" class="st3" d="M175.8,323.8h14.1c2,0,3.5,1.6,3.5,3.5v14.1
		c0,2-1.6,3.5-3.5,3.5h-14.1c-2,0-3.5-1.6-3.5-3.5v-14.1C172.3,325.4,173.8,323.8,175.8,323.8z"/>
	<path id="rect4991-0-3" inkscape:connector-curvature="0" class="st3" d="M179.3,384h35.4v10.6h-35.4V384z"/>
	<path id="rect4903-1-7-05" inkscape:connector-curvature="0" class="st3" d="M204.1,323.8h14.1c2,0,3.5,1.6,3.5,3.5v14.1
		c0,2-1.6,3.5-3.5,3.5h-14.1c-2,0-3.5-1.6-3.5-3.5v-14.1C200.6,325.4,202.2,323.8,204.1,323.8z"/>
	<path id="rect4903-7-3" inkscape:connector-curvature="0" class="st3" d="M204.1,352.2h14.1c2,0,3.5,1.6,3.5,3.5v14.1
		c0,2-1.6,3.5-3.5,3.5h-14.1c-2,0-3.5-1.6-3.5-3.5v-14.1C200.6,353.8,202.2,352.2,204.1,352.2z"/>
	<path id="rect4903-1-6-2" inkscape:connector-curvature="0" class="st3" d="M55.4,478.5h14.1c2,0,3.5,1.6,3.5,3.5v14.1
		c0,2-1.6,3.5-3.5,3.5H55.4c-2,0-3.5-1.6-3.5-3.5v-14.1C51.8,480.1,53.4,478.5,55.4,478.5z"/>
	<path id="rect4903-76-4" inkscape:connector-curvature="0" class="st3" d="M55.4,506.9h14.1c2,0,3.5,1.6,3.5,3.5v14.1
		c0,2-1.6,3.5-3.5,3.5H55.4c-2,0-3.5-1.6-3.5-3.5v-14.1C51.8,508.4,53.4,506.9,55.4,506.9z"/>
	<path id="rect4991-0-9-5" inkscape:connector-curvature="0" class="st3" d="M58.9,538.7h35.4v10.6H58.9L58.9,538.7z"/>
	<path id="rect4903-1-7-0-4" inkscape:connector-curvature="0" class="st3" d="M83.7,478.5h14.1c2,0,3.5,1.6,3.5,3.5v14.1
		c0,2-1.6,3.5-3.5,3.5H83.7c-2,0-3.5-1.6-3.5-3.5v-14.1C80.2,480.1,81.8,478.5,83.7,478.5z"/>
	<path id="rect4903-7-7-2" inkscape:connector-curvature="0" class="st3" d="M83.7,506.9h14.1c2,0,3.5,1.6,3.5,3.5v14.1
		c0,2-1.6,3.5-3.5,3.5H83.7c-2,0-3.5-1.6-3.5-3.5v-14.1C80.2,508.4,81.8,506.9,83.7,506.9z"/>
	<path id="rect4903-0-2" inkscape:connector-curvature="0" class="st3" d="M175.8,506.9h14.1c2,0,3.5,1.6,3.5,3.5v14.1
		c0,2-1.6,3.5-3.5,3.5h-14.1c-2,0-3.5-1.6-3.5-3.5v-14.1C172.3,508.4,173.8,506.9,175.8,506.9z"/>
	<path id="rect4903-1-0-2" inkscape:connector-curvature="0" class="st3" d="M175.8,478.5h14.1c2,0,3.5,1.6,3.5,3.5v14.1
		c0,2-1.6,3.5-3.5,3.5h-14.1c-2,0-3.5-1.6-3.5-3.5v-14.1C172.3,480.1,173.8,478.5,175.8,478.5z"/>
	<path id="rect4991-0-3-2" inkscape:connector-curvature="0" class="st3" d="M179.3,538.7h35.4v10.6h-35.4V538.7z"/>
	<path id="rect4903-1-7-05-5" inkscape:connector-curvature="0" class="st3" d="M204.1,478.5h14.1c2,0,3.5,1.6,3.5,3.5v14.1
		c0,2-1.6,3.5-3.5,3.5h-14.1c-2,0-3.5-1.6-3.5-3.5v-14.1C200.6,480.1,202.2,478.5,204.1,478.5z"/>
	<path id="rect4903-7-3-6" inkscape:connector-curvature="0" class="st3" d="M204.1,506.9h14.1c2,0,3.5,1.6,3.5,3.5v14.1
		c0,2-1.6,3.5-3.5,3.5h-14.1c-2,0-3.5-1.6-3.5-3.5v-14.1C200.6,508.4,202.2,506.9,204.1,506.9z"/>
	<path id="rect4991-0-36" inkscape:connector-curvature="0" class="st3" d="M340.2,338.1v35.4h-10.6v-35.4H340.2z"/>
	<path id="rect4903-7-8" inkscape:connector-curvature="0" class="st3" d="M372.1,363v14.1c0,2-1.6,3.5-3.5,3.5h-14.1
		c-2,0-3.5-1.6-3.5-3.5V363c0-2,1.6-3.5,3.5-3.5h14.1C370.5,359.4,372.1,361,372.1,363z"/>
	<path id="rect4903-9" inkscape:connector-curvature="0" class="st3" d="M372.1,334.6v14.1c0,2-1.6,3.5-3.5,3.5h-14.1
		c-2,0-3.5-1.6-3.5-3.5v-14.1c0-2,1.6-3.5,3.5-3.5h14.1C370.5,331.1,372.1,332.7,372.1,334.6z"/>
	<path id="rect4903-1-4" inkscape:connector-curvature="0" class="st3" d="M400.4,334.6v14.1c0,2-1.6,3.5-3.5,3.5h-14.1
		c-2,0-3.5-1.6-3.5-3.5v-14.1c0-2,1.6-3.5,3.5-3.5h14.1C398.8,331.1,400.4,332.7,400.4,334.6z"/>
	<path id="rect4903-1-7-4" inkscape:connector-curvature="0" class="st3" d="M400.4,363v14.1c0,2-1.6,3.5-3.5,3.5h-14.1
		c-2,0-3.5-1.6-3.5-3.5V363c0-2,1.6-3.5,3.5-3.5h14.1C398.8,359.4,400.4,361,400.4,363z"/>
	<path id="rect4991-0-2-2" inkscape:connector-curvature="0" class="st3" d="M457,368.8v35.4h-10.6v-35.4L457,368.8z"/>
	<path id="rect6670-1" inkscape:connector-curvature="0" class="st3" d="M494.9,374.1v24.8c0,1.7-1.4,3.1-3.1,3.1H467
		c-1.7,0-3.1-1.4-3.1-3.1v-24.8c0-1.7,1.4-3.1,3.1-3.1h24.8C493.5,371,494.9,372.4,494.9,374.1z"/>
	<path id="rect4903" inkscape:connector-curvature="0" class="st3" d="M446,187.2h14.1c2,0,3.5,1.6,3.5,3.5v14.1
		c0,2-1.6,3.5-3.5,3.5H446c-2,0-3.5-1.6-3.5-3.5v-14.1C442.4,188.7,444,187.2,446,187.2z"/>
	<path id="rect4903-1" inkscape:connector-curvature="0" class="st3" d="M446,158.8h14.1c2,0,3.5,1.6,3.5,3.5v14.1
		c0,2-1.6,3.5-3.5,3.5H446c-2,0-3.5-1.6-3.5-3.5v-14.1C442.4,160.4,444,158.8,446,158.8z"/>
	<path id="rect4991-0" inkscape:connector-curvature="0" class="st3" d="M449.5,219h35.4v10.6h-35.4V219z"/>
	<path id="rect4903-1-7" inkscape:connector-curvature="0" class="st3" d="M474.3,158.8h14.1c2,0,3.5,1.6,3.5,3.5v14.1
		c0,2-1.6,3.5-3.5,3.5h-14.1c-2,0-3.5-1.6-3.5-3.5v-14.1C470.8,160.4,472.3,158.8,474.3,158.8z"/>
	<path id="rect4903-7" inkscape:connector-curvature="0" class="st3" d="M474.3,187.2h14.1c2,0,3.5,1.6,3.5,3.5v14.1
		c0,2-1.6,3.5-3.5,3.5h-14.1c-2,0-3.5-1.6-3.5-3.5v-14.1C470.8,188.7,472.3,187.2,474.3,187.2z"/>
	<path id="rect4991-0-2" inkscape:connector-curvature="0" class="st3" d="M480.1,102.2h35.4v10.6h-35.4L480.1,102.2z"/>
	<path id="rect6670" inkscape:connector-curvature="0" class="st3" d="M485.4,64.3h24.8c1.7,0,3.1,1.4,3.1,3.1v24.8
		c0,1.7-1.4,3.1-3.1,3.1h-24.8c-1.7,0-3.1-1.4-3.1-3.1V67.4C482.3,65.7,483.7,64.3,485.4,64.3L485.4,64.3z"/>
	<path id="path4743" inkscape:connector-curvature="0" class="st3" d="M623.5,60.7h11v59.9h-11V60.7z"/>
	<path id="rect4493-3" inkscape:connector-curvature="0" class="st3" d="M885.9,60.7h11v59.9h-11V60.7z"/>
	<path id="path4749" inkscape:connector-curvature="0" class="st3" d="M623.5,266.9h11v59.9h-11V266.9z"/>
	<path id="rect4493-6" inkscape:connector-curvature="0" class="st3" d="M885.9,266.9h11v59.9h-11V266.9z"/>
</g>
<g id="layer6" transform="translate(7.5384254,3.5961522)" inkscape:groupmode="layer" inkscape:label="20 [feed=2000]">
	<path id="rect6684" inkscape:connector-curvature="0" class="st4" d="M527.9,165.9h42.6v84.7h-42.6V165.9z"/>
	<path id="rect6684-2" inkscape:connector-curvature="0" class="st4" d="M393.3,416.6v42.6h-84.7v-42.6H393.3z"/>
</g>
</svg>
