<?xml version="1.0" encoding="utf-8"?>
<!-- Generator: Adobe Illustrator 24.3.0, SVG Export Plug-In . SVG Version: 6.00 Build 0)  -->
<svg version="1.1"
	 id="svg13346" inkscape:version="0.48.2 r9819" sodipodi:docname="Pi rack v04.svg" xmlns:cc="http://creativecommons.org/ns#" xmlns:dc="http://purl.org/dc/elements/1.1/" xmlns:inkscape="http://www.inkscape.org/namespaces/inkscape" xmlns:rdf="http://www.w3.org/1999/02/22-rdf-syntax-ns#" xmlns:sodipodi="http://sodipodi.sourceforge.net/DTD/sodipodi-0.dtd" xmlns:svg="http://www.w3.org/2000/svg"
	 xmlns="http://www.w3.org/2000/svg" xmlns:xlink="http://www.w3.org/1999/xlink" x="0px" y="0px" viewBox="0 0 595.3 841.9"
	 style="enable-background:new 0 0 595.3 841.9;" xml:space="preserve">
<style type="text/css">
	.st0{opacity:0.99;fill:#FFFF00;stroke:#000000;stroke-width:0.3543;enable-background:new    ;}
	.st1{fill:none;stroke:#000000;}
	.st2{opacity:0.99;fill:#00FF00;stroke:#000000;stroke-width:0.3543;enable-background:new    ;}
</style>
<sodipodi:namedview  bordercolor="#666666" borderopacity="1.0" id="base" inkscape:current-layer="layer1" inkscape:cx="278.67719" inkscape:cy="-126.15228" inkscape:document-units="mm" inkscape:guide-bbox="true" inkscape:object-nodes="true" inkscape:object-paths="true" inkscape:pageopacity="0.0" inkscape:pageshadow="2" inkscape:snap-intersection-paths="true" inkscape:snap-midpoints="true" inkscape:snap-object-midpoints="true" inkscape:snap-smooth-nodes="true" inkscape:window-height="852" inkscape:window-maximized="1" inkscape:window-width="1440" inkscape:window-x="0" inkscape:window-y="0" inkscape:zoom="0.84326225" pagecolor="#ffffff" showgrid="false" showguides="true">
	</sodipodi:namedview>
<defs>
	
		<inkscape:perspective  id="perspective17547" inkscape:persp3d-origin="372.04724 : 350.78739 : 1" inkscape:vp_x="0 : 526.18109 : 1" inkscape:vp_y="0 : 1000 : 0" inkscape:vp_z="744.09448 : 526.18109 : 1" sodipodi:type="inkscape:persp3d">
		</inkscape:perspective>
</defs>
<g id="layer1" inkscape:groupmode="layer" inkscape:label="Layer 1">
	<path id="rect17856" inkscape:connector-curvature="0" class="st0" d="M1407.1,1053.7v-10.6h34.3v-28.3h-396.8V780.9h396.8v-28.3
		h-34.2v-10.7h-35.4v10.7h-44.9v-10.7h-35.4v10.7h-44.9v-10.7h-35.4v10.7h-44.9v-10.7h-35.4v10.7H1086v-10.7h-35.4v10.7h-5.9h-28.3
		v28.3v12.4h-10.6v35.4h10.6v51.4h-10.6v35.4h10.6v51.4h-10.6v35.4h10.6v40.7h34.2v10.6h35.4V1043h44.9v10.6h35.4V1043h44.9v10.6
		h35.4V1043h44.9v10.6h35.4V1043h44.9v10.6L1407.1,1053.7L1407.1,1053.7z"/>
	<path id="path14020" inkscape:connector-curvature="0" class="st0" d="M750.5,1147.6c0,2.9-2.4,5.3-5.3,5.3s-5.3-2.4-5.3-5.3
		s2.4-5.3,5.3-5.3S750.5,1144.7,750.5,1147.6z"/>
	<path id="path14020-8" inkscape:connector-curvature="0" class="st0" d="M750.5,1467.6c0,2.9-2.4,5.3-5.3,5.3s-5.3-2.4-5.3-5.3
		s2.4-5.3,5.3-5.3S750.5,1464.7,750.5,1467.6z"/>
	<path id="path16667" inkscape:connector-curvature="0" inkscape:label="part" class="st1" d="M684.1,628.1v-40.7h-10.6V552h10.6
		v-51.4h-10.6v-35.4h10.6v-51.4h-10.6v-35.4h10.6v-40.7"/>
	<path id="path16669" inkscape:connector-curvature="0" inkscape:label="part" class="st1" d="M684.1,337.6h34.3V327h35.4v10.6h44.9
		V327h35.4v10.6H879V327h35.4v10.6h44.9V327h35.4v10.6h44.9V327h35.4v10.6h34.3"/>
	<path id="path16671" inkscape:connector-curvature="0" inkscape:label="part" class="st1" d="M1109.3,337.6v40.7h10.6v35.4h-10.6
		v51.4h10.6v35.4h-10.6v51.4h10.6v35.4h-10.6V628"/>
	<path id="path16673" inkscape:connector-curvature="0" inkscape:label="part" class="st1" d="M1109.3,628.1H1075v10.6h-35.4v-10.6
		h-44.9v10.6h-35.4v-10.6h-44.9v10.6H879v-10.6h-44.9v10.6h-35.4v-10.6h-44.9v10.6h-35.4v-10.6h-34.3"/>
	<path id="path16731" inkscape:connector-curvature="0" inkscape:label="part" class="st1" d="M221.6,624.1v-40.7H211V548h10.6
		v-51.4H211v-35.4h10.6v-51.4H211v-35.4h10.6v-40.7"/>
	<path id="path16733" inkscape:connector-curvature="0" inkscape:label="part" class="st1" d="M221.6,333.6h34.3V323h35.4v10.6h44.9
		V323h35.4v10.6h44.9V323h35.4v10.6h44.9V323h35.4v10.6h44.9V323h35.4v10.6h34.3"/>
	<path id="path16735" inkscape:connector-curvature="0" inkscape:label="part" class="st1" d="M646.8,333.6v40.7h10.6v35.4h-10.6
		v51.4h10.6v35.4h-10.6v51.4h10.6v35.4h-10.6V624"/>
	<path id="path16737" inkscape:connector-curvature="0" inkscape:label="part" class="st1" d="M646.8,624.1h-34.3v10.6h-35.4v-10.6
		h-44.9v10.6h-35.4v-10.6h-44.9v10.6h-35.4v-10.6h-44.9v10.6h-35.4v-10.6h-44.9v10.6h-35.4v-10.6h-34.3"/>
	<path id="path16827" inkscape:connector-curvature="0" inkscape:label="part" class="st1" d="M-242.8,629.8v-40.7h-10.6v-35.4h10.6
		v-51.4h-10.6v-35.4h10.6v-51.4h-10.6v-35.4h10.6v-40.7"/>
	<path id="path16829" inkscape:connector-curvature="0" inkscape:label="part" class="st1" d="M-242.8,339.3h34.3v-10.6h35.4v10.6
		h44.9v-10.6h35.4v10.6h44.9v-10.6h35.4v10.6h44.9v-10.6h35.4v10.6h44.9v-10.6h35.4v10.6h34.3"/>
	<path id="path16831" inkscape:connector-curvature="0" inkscape:label="part" class="st1" d="M182.4,339.3V380H193v35.4h-10.6v51.4
		H193v35.4h-10.6v51.4H193V589h-10.6v40.7"/>
	<path id="path16833" inkscape:connector-curvature="0" inkscape:label="part" class="st1" d="M182.4,629.8h-34.3v10.6h-35.4v-10.6
		H67.8v10.6H32.4v-10.6h-44.9v10.6h-35.4v-10.6h-44.9v10.6h-35.4v-10.6h-44.9v10.6h-35.4v-10.6h-34.3"/>
	<path id="path16839" inkscape:connector-curvature="0" inkscape:label="part" class="st1" d="M584.6,913H620v-10.6h-35.4V913"/>
	<path id="path16841" inkscape:connector-curvature="0" inkscape:label="part" class="st1" d="M584.6,1040.1H620v-10.6h-35.4V1040.1
		"/>
	<path id="path16843" inkscape:connector-curvature="0" inkscape:label="part" class="st1" d="M584.6,1167.3H620v-10.6h-35.4V1167.3
		"/>
	<path id="path16845" inkscape:connector-curvature="0" inkscape:label="part" class="st1" d="M584.6,1294.4H620v-10.6h-35.4V1294.4
		"/>
	<path id="path16847" inkscape:connector-curvature="0" inkscape:label="part" class="st1" d="M584.6,1421.6H620V1411h-35.4V1421.6"
		/>
	<path id="path16849" inkscape:connector-curvature="0" inkscape:label="part" class="st1" d="M584.6,1548.8H620v-10.6h-35.4V1548.8
		"/>
	<path id="path16851" inkscape:connector-curvature="0" inkscape:label="part" class="st1" d="M584.6,1675.9H620v-10.6h-35.4V1675.9
		"/>
	<path id="path16855" inkscape:connector-curvature="0" inkscape:label="part" class="st1" d="M664.9,913h35.4v-10.6h-35.4V913"/>
	<path id="path16857" inkscape:connector-curvature="0" inkscape:label="part" class="st1" d="M664.9,1040.1h35.4v-10.6h-35.4
		V1040.1"/>
	<path id="path16859" inkscape:connector-curvature="0" inkscape:label="part" class="st1" d="M664.9,1167.3h35.4v-10.6h-35.4
		V1167.3"/>
	<path id="path16861" inkscape:connector-curvature="0" inkscape:label="part" class="st1" d="M664.9,1294.4h35.4v-10.6h-35.4
		V1294.4"/>
	<path id="path16863" inkscape:connector-curvature="0" inkscape:label="part" class="st1" d="M664.9,1421.6h35.4V1411h-35.4V1421.6
		"/>
	<path id="path16865" inkscape:connector-curvature="0" inkscape:label="part" class="st1" d="M664.9,1548.8h35.4v-10.6h-35.4
		V1548.8"/>
	<path id="path16867" inkscape:connector-curvature="0" inkscape:label="part" class="st1" d="M664.9,1675.9h35.4v-10.6h-35.4
		V1675.9"/>
	<path id="path16871" inkscape:connector-curvature="0" inkscape:label="part" class="st1" d="M745.2,913h35.4v-10.6h-35.4V913"/>
	<path id="path16873" inkscape:connector-curvature="0" inkscape:label="part" class="st1" d="M745.2,1040.1h35.4v-10.6h-35.4
		V1040.1"/>
	<path id="path16875" inkscape:connector-curvature="0" inkscape:label="part" class="st1" d="M745.2,1167.3h35.4v-10.6h-35.4
		V1167.3"/>
	<path id="path16877" inkscape:connector-curvature="0" inkscape:label="part" class="st1" d="M745.2,1294.4h35.4v-10.6h-35.4
		V1294.4"/>
	<path id="path16879" inkscape:connector-curvature="0" inkscape:label="part" class="st1" d="M745.2,1421.6h35.4V1411h-35.4V1421.6
		"/>
	<path id="path16881" inkscape:connector-curvature="0" inkscape:label="part" class="st1" d="M745.2,1548.8h35.4v-10.6h-35.4
		V1548.8"/>
	<path id="path16883" inkscape:connector-curvature="0" inkscape:label="part" class="st1" d="M745.2,1675.9h35.4v-10.6h-35.4
		V1675.9"/>
	<path id="path16887" inkscape:connector-curvature="0" inkscape:label="part" class="st1" d="M825.5,913H861v-10.6h-35.4L825.5,913
		"/>
	<path id="path16889" inkscape:connector-curvature="0" inkscape:label="part" class="st1" d="M825.5,1040.1H861v-10.6h-35.4
		L825.5,1040.1"/>
	<path id="path16891" inkscape:connector-curvature="0" inkscape:label="part" class="st1" d="M825.5,1167.3H861v-10.6h-35.4
		L825.5,1167.3"/>
	<path id="path16893" inkscape:connector-curvature="0" inkscape:label="part" class="st1" d="M825.5,1294.4H861v-10.6h-35.4
		L825.5,1294.4"/>
	<path id="path16895" inkscape:connector-curvature="0" inkscape:label="part" class="st1" d="M825.5,1421.6h35.4V1411h-35.4V1421.6
		"/>
	<path id="path16897" inkscape:connector-curvature="0" inkscape:label="part" class="st1" d="M825.5,1548.8H861v-10.6h-35.4
		L825.5,1548.8"/>
	<path id="path16899" inkscape:connector-curvature="0" inkscape:label="part" class="st1" d="M825.5,1675.9h35.4v-10.6h-35.4
		V1675.9"/>
	<path id="path16903" inkscape:connector-curvature="0" inkscape:label="part" class="st1" d="M905.9,913h35.4v-10.6h-35.4V913"/>
	<path id="path16905" inkscape:connector-curvature="0" inkscape:label="part" class="st1" d="M905.9,1040.1h35.4v-10.6h-35.4
		V1040.1"/>
	<path id="path16907" inkscape:connector-curvature="0" inkscape:label="part" class="st1" d="M905.9,1167.3h35.4v-10.6h-35.4
		V1167.3"/>
	<path id="path16909" inkscape:connector-curvature="0" inkscape:label="part" class="st1" d="M905.9,1294.4h35.4v-10.6h-35.4
		V1294.4"/>
	<path id="path16911" inkscape:connector-curvature="0" inkscape:label="part" class="st1" d="M905.9,1421.6h35.4V1411h-35.4V1421.6
		"/>
	<path id="path16913" inkscape:connector-curvature="0" inkscape:label="part" class="st1" d="M905.9,1548.8h35.4v-10.6h-35.4
		V1548.8"/>
	<path id="path16915" inkscape:connector-curvature="0" inkscape:label="part" class="st1" d="M905.9,1675.9h35.4v-10.6h-35.4
		V1675.9"/>
	<path id="path16917" inkscape:connector-curvature="0" inkscape:label="part" class="st1" d="M539.7,648h44.9v10.6H620V648h44.9
		v10.6h35.4V648h44.9v10.6h35.4V648h44.9v10.6H861V648h44.9v10.6h35.4V648h44.9"/>
	<path id="path16919" inkscape:connector-curvature="0" inkscape:label="part" class="st1" d="M986.2,648v39h-10.6v35.4h10.6v39
		h-10.6v35.4h10.6v39h-10.6v35.4h10.6v39h-10.6v35.4h10.6v39h-10.6v35.4h10.6v39h-10.6v35.4h10.6v39h-10.6v35.4h10.6v39h-10.6v35.4
		h10.6v39h-10.6v35.4h10.6v39h-10.6v35.4h10.6v39h-10.6v35.4h10.6v39h-10.6v35.4h10.6v39h-10.6v35.4h10.6v39h-10.6v35.4h10.6v39
		h-10.6v35.4h10.6v39"/>
	<path id="path16921" inkscape:connector-curvature="0" inkscape:label="part" class="st1" d="M986.2,1803.1h-44.9v-10.6h-35.4v10.6
		H861v-10.6h-35.4v10.6h-44.9v-10.6h-35.4v10.6h-44.9v-10.6H665v10.6h-44.9v-10.6h-35.4v10.6h-44.9"/>
	<path id="rect17856-4" inkscape:connector-curvature="0" class="st0" d="M1092.5,842.8v10.6h-34.3v28.3H1455v233.8h-396.8v28.3
		h34.3v10.7h35.4v-10.7h44.9v10.7h35.4v-10.7h44.9v10.7h35.4v-10.7h44.9v10.7h35.4V1144h44.9v10.7h35.4V1144h5.9h28.3v-28.3v-12.4
		h10.6v-35.4h-10.6v-51.4h10.6v-35.4h-10.6v-51.4h10.6v-35.4h-10.6v-40.8h-34.2v-10.6h-35.4v10.6h-44.9v-10.6h-35.4v10.6h-44.9
		v-10.6h-35.4v10.6h-44.9v-10.6h-35.4v10.6h-44.9v-10.6L1092.5,842.8L1092.5,842.8z"/>
	<path id="rect17856-9" inkscape:connector-curvature="0" class="st0" d="M1405.7,1379.6V1369h34.2v-28.3h-396.8v-233.8H1440v-28.3
		h-34.2v-10.7h-35.4v10.7h-44.9v-10.7h-35.4v10.7h-44.9v-10.7h-35.4v10.7h-44.9v-10.7h-35.4v10.7h-44.9v-10.7h-35.4v10.7h-5.9H1015
		v28.3v12.4h-10.6v35.4h10.6v51.4h-10.6v35.4h10.6v51.4h-10.6v35.4h10.6v40.7h34.3v10.6h35.4V1369h44.9v10.6h35.4V1369h44.9v10.6
		h35.4V1369h44.9v10.6h35.4V1369h44.9v10.6H1405.7z"/>
	<path id="rect17856-4-9" inkscape:connector-curvature="0" class="st0" d="M1091.2,1168.8v10.6H1057v28.3h396.8v233.8H1057v28.3
		h34.2v10.7h35.4v-10.7h44.9v10.7h35.4v-10.7h44.9v10.7h35.4v-10.7h44.9v10.7h35.4v-10.7h44.9v10.7h35.4v-10.7h5.9h28.3v-28.3v-12.4
		h10.6v-35.4H1482v-51.4h10.6v-35.4H1482v-51.4h10.6v-35.4H1482v-40.8h-34.2v-10.6h-35.4v10.6h-44.9v-10.6h-35.4v10.6h-44.9v-10.6
		h-35.4v10.6H1207v-10.6h-35.4v10.6h-44.9v-10.6L1091.2,1168.8z"/>
	<path id="rect17856-9-8" inkscape:connector-curvature="0" class="st0" d="M1405.7,1705.6V1695h34.2v-28.3h-396.8v-233.8H1440
		v-28.3h-34.2v-10.7h-35.4v10.7h-44.9v-10.7h-35.4v10.7h-44.9v-10.7h-35.4v10.7h-44.9v-10.7h-35.4v10.7h-44.9v-10.7h-35.4v10.7h-5.9
		H1015v28.3v12.4h-10.6v35.4h10.6v51.4h-10.6v35.4h10.6v51.4h-10.6v35.4h10.6v40.7h34.3v10.6h35.4V1695h44.9v10.6h35.4V1695h44.9
		v10.6h35.4V1695h44.9v10.6h35.4V1695h44.9v10.6H1405.7L1405.7,1705.6z"/>
	<path id="rect17856-4-9-7" inkscape:connector-curvature="0" class="st0" d="M1091.2,1494.7v10.6H1057v28.3h396.8v233.8H1057v28.3
		h34.2v10.7h35.4v-10.7h44.9v10.7h35.4v-10.7h44.9v10.7h35.4v-10.7h44.9v10.7h35.4v-10.7h44.9v10.7h35.4v-10.7h5.9h28.3v-28.3V1755
		h10.6v-35.4H1482v-51.4h10.6v-35.4H1482v-51.4h10.6V1546H1482v-40.8h-34.2v-10.6h-35.4v10.6h-44.9v-10.6h-35.4v10.6h-44.9v-10.6
		h-35.4v10.6H1207v-10.6h-35.4v10.6h-44.9v-10.6L1091.2,1494.7L1091.2,1494.7z"/>
	<path id="path16615" inkscape:connector-curvature="0" inkscape:label="part" class="st1" d="M1184,602.5h35.4v-10.6H1184V602.5"/>
	<path id="path16631" inkscape:connector-curvature="0" inkscape:label="part" class="st1" d="M1270.8,602.5h35.4v-10.6h-35.4V602.5
		"/>
	<path id="path16647" inkscape:connector-curvature="0" inkscape:label="part" class="st1" d="M1357.6,602.5h35.4v-10.6h-35.4V602.5
		"/>
	<path id="path16661" inkscape:connector-curvature="0" inkscape:label="part" class="st1" d="M1143.3,337.6h40.7v10.6h35.4v-10.6
		h51.4v10.6h35.4v-10.6h51.4v10.6h35.4v-10.6h40.7"/>
	<path id="path18490" inkscape:connector-curvature="0" class="st1" d="M1132.6,607.5h311.8"/>
	
		<path id="path16611" inkscape:connector-curvature="0" inkscape:label="part" sodipodi:nodetypes="ccccccccccccccc" class="st1" d="
		M1132.6,599.8h10.6v-39h-10.6v-35.4h10.6v-39h-10.6V451h10.6v-39h-10.6v-35.4h10.6v-39"/>
	<path id="path18492" inkscape:connector-curvature="0" class="st1" d="M1132.6,599.8v7.7"/>
	
		<path id="path16611-6" inkscape:connector-curvature="0" inkscape:label="part" sodipodi:nodetypes="ccccccccccccccc" class="st1" d="
		M1444.5,599.8h-10.6v-39h10.6v-35.4h-10.6v-39h10.6V451h-10.6v-39h10.6v-35.4h-10.6v-39"/>
	<path id="path18492-6" inkscape:connector-curvature="0" class="st1" d="M1444.5,599.8v7.7"/>
	<path id="path16739" inkscape:connector-curvature="0" inkscape:label="part" class="st1" d="M71.3,1807.1v-39h10.6v-35.4H71.3v-39
		h10.6v-35.4H71.3v-39h10.6v-35.4H71.3v-39h10.6v-35.4H71.3v-39h10.6v-35.4H71.3v-39h10.6v-35.4H71.3v-39h10.6v-35.4H71.3v-39h10.6
		v-35.4H71.3v-39h10.6v-35.4H71.3v-39h10.6v-35.4H71.3v-39h10.6v-35.4H71.3v-39h10.6v-35.4H71.3v-39h10.6v-35.4H71.3v-39h10.6v-35.4
		H71.3v-39h10.6v-35.4H71.3v-39"/>
	<path id="path16743" inkscape:connector-curvature="0" inkscape:label="part" class="st1" d="M116.1,917h35.4v-10.6h-35.4V917"/>
	<path id="path16745" inkscape:connector-curvature="0" inkscape:label="part" class="st1" d="M116.1,1044.1h35.4v-10.6h-35.4
		V1044.1"/>
	<path id="path16747" inkscape:connector-curvature="0" inkscape:label="part" class="st1" d="M116.1,1171.3h35.4v-10.6h-35.4
		V1171.3"/>
	<path id="path16749" inkscape:connector-curvature="0" inkscape:label="part" class="st1" d="M116.1,1298.4h35.4v-10.6h-35.4
		V1298.4"/>
	<path id="path16751" inkscape:connector-curvature="0" inkscape:label="part" class="st1" d="M116.1,1425.6h35.4V1415h-35.4V1425.6
		"/>
	<path id="path16753" inkscape:connector-curvature="0" inkscape:label="part" class="st1" d="M116.1,1552.8h35.4v-10.6h-35.4
		V1552.8"/>
	<path id="path16755" inkscape:connector-curvature="0" inkscape:label="part" class="st1" d="M116.1,1679.9h35.4v-10.6h-35.4
		V1679.9"/>
	<path id="path16759" inkscape:connector-curvature="0" inkscape:label="part" class="st1" d="M196.5,917h35.4v-10.6h-35.4V917"/>
	<path id="path16761" inkscape:connector-curvature="0" inkscape:label="part" class="st1" d="M196.5,1044.1h35.4v-10.6h-35.4
		V1044.1"/>
	<path id="path16763" inkscape:connector-curvature="0" inkscape:label="part" class="st1" d="M196.5,1171.3h35.4v-10.6h-35.4
		V1171.3"/>
	<path id="path16765" inkscape:connector-curvature="0" inkscape:label="part" class="st1" d="M196.5,1298.4h35.4v-10.6h-35.4
		V1298.4"/>
	<path id="path16767" inkscape:connector-curvature="0" inkscape:label="part" class="st1" d="M196.5,1425.6h35.4V1415h-35.4V1425.6
		"/>
	<path id="path16769" inkscape:connector-curvature="0" inkscape:label="part" class="st1" d="M196.5,1552.8h35.4v-10.6h-35.4
		V1552.8"/>
	<path id="path16771" inkscape:connector-curvature="0" inkscape:label="part" class="st1" d="M196.5,1679.9h35.4v-10.6h-35.4
		V1679.9"/>
	<path id="path16775" inkscape:connector-curvature="0" inkscape:label="part" class="st1" d="M276.8,917h35.4v-10.6h-35.4V917"/>
	<path id="path16777" inkscape:connector-curvature="0" inkscape:label="part" class="st1" d="M276.8,1044.1h35.4v-10.6h-35.4
		V1044.1"/>
	<path id="path16779" inkscape:connector-curvature="0" inkscape:label="part" class="st1" d="M276.8,1171.3h35.4v-10.6h-35.4
		V1171.3"/>
	<path id="path16781" inkscape:connector-curvature="0" inkscape:label="part" class="st1" d="M276.8,1298.4h35.4v-10.6h-35.4
		V1298.4"/>
	<path id="path16783" inkscape:connector-curvature="0" inkscape:label="part" class="st1" d="M276.8,1425.6h35.4V1415h-35.4V1425.6
		"/>
	<path id="path16785" inkscape:connector-curvature="0" inkscape:label="part" class="st1" d="M276.8,1552.8h35.4v-10.6h-35.4
		V1552.8"/>
	<path id="path16787" inkscape:connector-curvature="0" inkscape:label="part" class="st1" d="M276.8,1679.9h35.4v-10.6h-35.4
		V1679.9"/>
	<path id="path16791" inkscape:connector-curvature="0" inkscape:label="part" class="st1" d="M357.1,917h35.4v-10.6h-35.4V917"/>
	<path id="path16793" inkscape:connector-curvature="0" inkscape:label="part" class="st1" d="M357.1,1044.1h35.4v-10.6h-35.4
		V1044.1"/>
	<path id="path16795" inkscape:connector-curvature="0" inkscape:label="part" class="st1" d="M357.1,1171.3h35.4v-10.6h-35.4
		V1171.3"/>
	<path id="path16797" inkscape:connector-curvature="0" inkscape:label="part" class="st1" d="M357.1,1298.4h35.4v-10.6h-35.4
		V1298.4"/>
	<path id="path16799" inkscape:connector-curvature="0" inkscape:label="part" class="st1" d="M357.1,1425.6h35.4V1415h-35.4V1425.6
		"/>
	<path id="path16801" inkscape:connector-curvature="0" inkscape:label="part" class="st1" d="M357.1,1552.8h35.4v-10.6h-35.4
		V1552.8"/>
	<path id="path16803" inkscape:connector-curvature="0" inkscape:label="part" class="st1" d="M357.1,1679.9h35.4v-10.6h-35.4
		V1679.9"/>
	<path id="path16807" inkscape:connector-curvature="0" inkscape:label="part" class="st1" d="M437.4,917h35.4v-10.6h-35.4V917"/>
	<path id="path16809" inkscape:connector-curvature="0" inkscape:label="part" class="st1" d="M437.4,1044.1h35.4v-10.6h-35.4
		V1044.1"/>
	<path id="path16811" inkscape:connector-curvature="0" inkscape:label="part" class="st1" d="M437.4,1171.3h35.4v-10.6h-35.4
		V1171.3"/>
	<path id="path16813" inkscape:connector-curvature="0" inkscape:label="part" class="st1" d="M437.4,1298.4h35.4v-10.6h-35.4
		V1298.4"/>
	<path id="path16815" inkscape:connector-curvature="0" inkscape:label="part" class="st1" d="M437.4,1425.6h35.4V1415h-35.4V1425.6
		"/>
	<path id="path16817" inkscape:connector-curvature="0" inkscape:label="part" class="st1" d="M437.4,1552.8h35.4v-10.6h-35.4
		V1552.8"/>
	<path id="path16819" inkscape:connector-curvature="0" inkscape:label="part" class="st1" d="M437.4,1679.9h35.4v-10.6h-35.4
		V1679.9"/>
	<path id="path16821" inkscape:connector-curvature="0" inkscape:label="part" class="st1" d="M71.3,652h44.9v10.6h35.4V652h44.9
		v10.6h35.4V652h44.9v10.6h35.4V652h44.9v10.6h35.4V652h44.9v10.6h35.4V652h44.9"/>
	<path id="path16825" inkscape:connector-curvature="0" inkscape:label="part" class="st1" d="M517.7,1807.1h-44.9v-10.6h-35.4v10.6
		h-44.9v-10.6h-35.4v10.6h-44.9v-10.6h-35.4v10.6h-44.9v-10.6h-35.4v10.6h-44.9v-10.6h-35.4v10.6H71.3"/>
	<path id="path16923" inkscape:connector-curvature="0" inkscape:label="part" class="st1" d="M-233.5,1807.1v-39h-10.6v-35.4h10.6
		v-39h-10.6v-35.4h10.6v-39h-10.6v-35.4h10.6v-39h-10.6v-35.4h10.6v-39h-10.6v-35.4h10.6v-39h-10.6v-35.4h10.6v-39h-10.6v-35.4h10.6
		v-39h-10.6v-35.4h10.6v-39h-10.6v-35.4h10.6v-39h-10.6V1063h10.6v-39h-10.6v-35.4h10.6v-39h-10.6v-35.4h10.6v-39h-10.6v-35.4h10.6
		v-39h-10.6v-35.4h10.6v-39h-10.6V691h10.6v-39"/>
	<path id="path16927" inkscape:connector-curvature="0" inkscape:label="part" class="st1" d="M-192.7,917h35.4v-10.6h-35.4
		L-192.7,917"/>
	<path id="path16929" inkscape:connector-curvature="0" inkscape:label="part" class="st1" d="M-192.7,1044.1h35.4v-10.6h-35.4
		L-192.7,1044.1"/>
	<path id="path16931" inkscape:connector-curvature="0" inkscape:label="part" class="st1" d="M-192.7,1171.3h35.4v-10.6h-35.4
		L-192.7,1171.3"/>
	<path id="path16933" inkscape:connector-curvature="0" inkscape:label="part" class="st1" d="M-192.7,1298.4h35.4v-10.6h-35.4
		L-192.7,1298.4"/>
	<path id="path16935" inkscape:connector-curvature="0" inkscape:label="part" class="st1" d="M-192.7,1425.6h35.4V1415h-35.4
		L-192.7,1425.6"/>
	<path id="path16937" inkscape:connector-curvature="0" inkscape:label="part" class="st1" d="M-192.7,1552.8h35.4v-10.6h-35.4
		L-192.7,1552.8"/>
	<path id="path16939" inkscape:connector-curvature="0" inkscape:label="part" class="st1" d="M-192.7,1679.9h35.4v-10.6h-35.4
		L-192.7,1679.9"/>
	<path id="path16943" inkscape:connector-curvature="0" inkscape:label="part" class="st1" d="M-105.9,917h35.4v-10.6h-35.4V917"/>
	<path id="path16945" inkscape:connector-curvature="0" inkscape:label="part" class="st1" d="M-105.9,1044.1h35.4v-10.6h-35.4
		V1044.1"/>
	<path id="path16947" inkscape:connector-curvature="0" inkscape:label="part" class="st1" d="M-105.9,1171.3h35.4v-10.6h-35.4
		V1171.3"/>
	<path id="path16949" inkscape:connector-curvature="0" inkscape:label="part" class="st1" d="M-105.9,1298.4h35.4v-10.6h-35.4
		V1298.4"/>
	<path id="path16951" inkscape:connector-curvature="0" inkscape:label="part" class="st1" d="M-105.9,1425.6h35.4V1415h-35.4
		V1425.6"/>
	<path id="path16953" inkscape:connector-curvature="0" inkscape:label="part" class="st1" d="M-105.9,1552.8h35.4v-10.6h-35.4
		V1552.8"/>
	<path id="path16955" inkscape:connector-curvature="0" inkscape:label="part" class="st1" d="M-105.9,1679.9h35.4v-10.6h-35.4
		V1679.9"/>
	<path id="path16959" inkscape:connector-curvature="0" inkscape:label="part" class="st1" d="M-19.1,917h35.4v-10.6h-35.4V917"/>
	<path id="path16961" inkscape:connector-curvature="0" inkscape:label="part" class="st1" d="M-19.1,1044.1h35.4v-10.6h-35.4
		V1044.1"/>
	<path id="path16963" inkscape:connector-curvature="0" inkscape:label="part" class="st1" d="M-19.1,1171.3h35.4v-10.6h-35.4
		V1171.3"/>
	<path id="path16965" inkscape:connector-curvature="0" inkscape:label="part" class="st1" d="M-19.1,1298.4h35.4v-10.6h-35.4
		V1298.4"/>
	<path id="path16967" inkscape:connector-curvature="0" inkscape:label="part" class="st1" d="M-19.1,1425.6h35.4V1415h-35.4V1425.6
		"/>
	<path id="path16969" inkscape:connector-curvature="0" inkscape:label="part" class="st1" d="M-19.1,1552.8h35.4v-10.6h-35.4
		V1552.8"/>
	<path id="path16971" inkscape:connector-curvature="0" inkscape:label="part" class="st1" d="M-19.1,1679.9h35.4v-10.6h-35.4
		V1679.9"/>
	<path id="path16973" inkscape:connector-curvature="0" inkscape:label="part" class="st1" d="M-233.5,652h40.7v10.6h35.4V652h51.4
		v10.6h35.4V652h51.4v10.6h35.4V652h40.7"/>
	<path id="path16975" inkscape:connector-curvature="0" inkscape:label="part" class="st1" d="M57.1,652v39h10.6v35.4H57.1v39h10.6
		v35.4H57.1v39h10.6v35.4H57.1v39h10.6v35.4H57.1v39h10.6v35.4H57.1v39h10.6v35.4H57.1v39h10.6v35.4H57.1v39h10.6v35.4H57.1v39h10.6
		v35.4H57.1v39h10.6v35.4H57.1v39h10.6v35.4H57.1v39h10.6v35.4H57.1v39h10.6v35.4H57.1v39h10.6v35.4H57.1v39h10.6v35.4H57.1v39"/>
	<path id="path16977" inkscape:connector-curvature="0" inkscape:label="part" class="st1" d="M57.1,1807.1H16.4v-10.6H-19v10.6
		h-51.4v-10.6h-35.4v10.6h-51.4v-10.6h-35.4v10.6h-40.7"/>
	<path id="path13373-0" inkscape:connector-curvature="0" class="st2" d="M185.2,726.9c-43.1,0-77.9,34.9-77.9,77.9s34.9,78,77.9,78
		s78-34.9,78-78S228.3,726.9,185.2,726.9L185.2,726.9z M117.9,732.2c-2.9,0-5.3,2.4-5.3,5.3s2.4,5.3,5.3,5.3s5.3-2.4,5.3-5.3
		S120.9,732.2,117.9,732.2z M252.6,732.2c-2.9,0-5.3,2.4-5.3,5.3s2.4,5.3,5.3,5.3s5.3-2.4,5.3-5.3S255.5,732.2,252.6,732.2
		L252.6,732.2z M117.4,866.9c-2.7,0.3-4.8,2.6-4.8,5.3c0,2.9,2.4,5.3,5.3,5.3s5.3-2.4,5.3-5.3s-2.4-5.3-5.3-5.3
		C117.7,866.9,117.5,866.9,117.4,866.9z M252,866.9c-2.7,0.3-4.8,2.6-4.8,5.3c0,2.9,2.4,5.3,5.3,5.3s5.3-2.4,5.3-5.3
		s-2.4-5.3-5.3-5.3C252.4,866.9,252.2,866.9,252,866.9L252,866.9z"/>
	<path id="path13373-6-1" inkscape:connector-curvature="0" class="st2" d="M403.7,726.9c-43.1,0-77.9,34.9-77.9,77.9
		s34.9,78,77.9,78s78-34.9,78-78S446.8,726.9,403.7,726.9z M336.4,732.2c-2.9,0-5.3,2.4-5.3,5.3s2.4,5.3,5.3,5.3s5.3-2.4,5.3-5.3
		S339.3,732.2,336.4,732.2z M471,732.2c-2.9,0-5.3,2.4-5.3,5.3s2.4,5.3,5.3,5.3s5.3-2.4,5.3-5.3S474,732.2,471,732.2z M335.8,866.9
		c-2.7,0.3-4.8,2.6-4.8,5.3c0,2.9,2.4,5.3,5.3,5.3s5.3-2.4,5.3-5.3s-2.4-5.3-5.3-5.3C336.2,866.9,336,866.9,335.8,866.9z
		 M470.5,866.9c-2.7,0.3-4.8,2.6-4.8,5.3c0,2.9,2.4,5.3,5.3,5.3s5.3-2.4,5.3-5.3s-2.4-5.3-5.3-5.3
		C470.8,866.9,470.7,866.9,470.5,866.9z"/>
	<path id="path17248-4" inkscape:connector-curvature="0" class="st0" d="M103.1,953.6c-6.8,0-12.4,5.6-12.4,12.4
		s5.6,12.4,12.4,12.4s12.4-5.6,12.4-12.4S109.9,953.6,103.1,953.6z M103.1,957.7c4.6,0,8.3,3.7,8.3,8.3s-3.7,8.3-8.3,8.3
		s-8.3-3.7-8.3-8.3S98.5,957.7,103.1,957.7z"/>
	<path id="path17248-4-5" inkscape:connector-curvature="0" class="st0" d="M103.1,1080.8c-6.8,0-12.4,5.6-12.4,12.4
		s5.6,12.4,12.4,12.4s12.4-5.6,12.4-12.4S109.9,1080.8,103.1,1080.8z M103.1,1084.9c4.6,0,8.3,3.7,8.3,8.3s-3.7,8.3-8.3,8.3
		s-8.3-3.7-8.3-8.3S98.5,1084.9,103.1,1084.9z"/>
	<path id="path17248-4-6" inkscape:connector-curvature="0" class="st0" d="M103.1,1208c-6.8,0-12.4,5.6-12.4,12.4
		s5.6,12.4,12.4,12.4s12.4-5.6,12.4-12.4C115.5,1213.5,109.9,1208,103.1,1208z M103.1,1212.1c4.6,0,8.3,3.7,8.3,8.3
		s-3.7,8.3-8.3,8.3s-8.3-3.7-8.3-8.3S98.5,1212.1,103.1,1212.1z"/>
	<path id="path17248-4-1" inkscape:connector-curvature="0" class="st0" d="M103.1,1335.1c-6.8,0-12.4,5.6-12.4,12.4
		s5.6,12.4,12.4,12.4s12.4-5.6,12.4-12.4S109.9,1335.1,103.1,1335.1z M103.1,1339.2c4.6,0,8.3,3.7,8.3,8.3s-3.7,8.3-8.3,8.3
		s-8.3-3.7-8.3-8.3S98.5,1339.2,103.1,1339.2z"/>
	<path id="path17248-4-52" inkscape:connector-curvature="0" class="st0" d="M103.1,1462.3c-6.8,0-12.4,5.6-12.4,12.4
		s5.6,12.4,12.4,12.4s12.4-5.6,12.4-12.4S109.9,1462.3,103.1,1462.3z M103.1,1466.4c4.6,0,8.3,3.7,8.3,8.3s-3.7,8.3-8.3,8.3
		s-8.3-3.7-8.3-8.3S98.5,1466.4,103.1,1466.4z"/>
	<path id="path17248-4-8" inkscape:connector-curvature="0" class="st0" d="M103.1,1716.6c-6.8,0-12.4,5.6-12.4,12.4
		s5.6,12.4,12.4,12.4s12.4-5.6,12.4-12.4S109.9,1716.6,103.1,1716.6z M103.1,1720.7c4.6,0,8.3,3.7,8.3,8.3s-3.7,8.3-8.3,8.3
		s-8.3-3.7-8.3-8.3S98.5,1720.7,103.1,1720.7z"/>
	<path id="path17248-4-0" inkscape:connector-curvature="0" class="st0" d="M103.1,1589.5c-6.8,0-12.4,5.6-12.4,12.4
		s5.6,12.4,12.4,12.4s12.4-5.6,12.4-12.4C115.5,1595,109.9,1589.5,103.1,1589.5z M103.1,1593.6c4.6,0,8.3,3.7,8.3,8.3
		s-3.7,8.3-8.3,8.3s-8.3-3.7-8.3-8.3S98.5,1593.6,103.1,1593.6z"/>
	<path id="path8950-0-9" inkscape:connector-curvature="0" class="st0" d="M148.5,966.1c0,5.9-4.8,10.6-10.6,10.6
		s-10.6-4.8-10.6-10.6c0-5.9,4.8-10.6,10.6-10.6S148.5,960.2,148.5,966.1z"/>
	<path id="path14187-4" inkscape:connector-curvature="0" d="M129.6,925c-4.3,0-7.4,3.2-7.4,7.5s3.1,7.5,7.4,7.5s7.4-3.2,7.4-7.5
		S133.9,925,129.6,925 M129.6,925.6c3,0,5.2,2.7,5.2,6.8s-2.1,6.8-5.2,6.8c-3.1,0-5.2-2.7-5.2-6.8
		C124.4,928.4,126.6,925.6,129.6,925.6"/>
	<path id="path14189-5" inkscape:connector-curvature="0" d="M141.9,927.4l6.2,9c1.2,1.7,1.7,2.4,2.3,3.4c0,0.1,0.1,0.1,0.2,0.1
		s0.1,0,1.1-0.6c0-1.1-0.1-2,0-3.4l0.1-7.1c0-1.1,0.1-2.1,0.4-2.5c0.2-0.4,0.7-0.4,1.3-0.5c0.2,0,0.2-0.1,0.2-0.3
		c0-0.3,0-0.3-0.2-0.3c-0.6,0-1.5,0.1-2.3,0.1c-0.7,0-1.5,0-2.3-0.1c-0.1,0-0.2,0-0.2,0.3c0,0.2,0,0.2,0.2,0.3
		c0.6,0.1,1.2,0.1,1.5,0.5s0.4,1.4,0.4,2.5v5.9v2.5c-0.6-1-1.2-1.8-1.9-2.8l-4.6-6.7c-0.7-1.1-1.1-1.6-1.5-2.4c-1,0-1.5,0-2,0
		s-1.2,0-1.9-0.1c-0.2,0-0.2,0.1-0.2,0.3s0,0.2,0.2,0.3c0.7,0.1,1.4,0.2,1.6,0.6c0.3,0.4,0.3,1.2,0.3,2.4l-0.1,7.1
		c0,1.2-0.1,2.1-0.4,2.6c-0.3,0.4-0.8,0.5-1.4,0.6c-0.1,0-0.2,0.1-0.2,0.3s0,0.2,0.2,0.2c0.7,0,1.6-0.1,2.3-0.1s1.5,0,2.3,0.1
		c0.1,0,0.2,0,0.2-0.2s0-0.2-0.2-0.2c-0.7-0.1-1.3-0.1-1.5-0.5c-0.3-0.4-0.3-1.3-0.4-2.6l-0.1-8.6L141.9,927.4"/>
	<path id="path14180-4" inkscape:connector-curvature="0" d="M125.6,992.2c-4.3,0-7.4,3.2-7.4,7.5s3.1,7.5,7.4,7.5
		c4.3,0,7.4-3.2,7.4-7.5S129.9,992.2,125.6,992.2 M125.6,992.8c3,0,5.2,2.7,5.2,6.8s-2.1,6.8-5.2,6.8c-3.1,0-5.2-2.7-5.2-6.8
		C120.4,995.6,122.6,992.8,125.6,992.8"/>
	<path id="path14182-3" inkscape:connector-curvature="0" d="M138.7,999.7c0.3,0,0.9,0,1.2,0c1.3,0,2.2,0.2,2.6,0.4
		c0.4,0.3,0.6,1,0.6,1.5c0,0.1,0.1,0.2,0.3,0.2s0.3-0.1,0.3-0.2c0-0.7-0.1-1.5-0.1-2.3c0-0.7,0-1.3,0.1-2c0-0.2,0-0.2-0.3-0.2
		c-0.2,0-0.2,0.1-0.3,0.2c-0.1,0.5-0.2,1-0.6,1.3c-0.4,0.3-1.4,0.4-2.7,0.4c-0.4,0-0.9,0-1.2,0v-2.9c0-1.1,0-2,0.2-2.4
		c0.3-0.5,1-0.5,1.7-0.5c1.7,0,2.5,0.2,3.1,0.6c0.5,0.4,1,1.3,1.3,2c0,0.1,0.1,0.2,0.3,0.1c0.2,0,0.3-0.1,0.2-0.2
		c-0.1-1-0.3-2.2-0.4-3.2c-1.7,0.1-3.4,0.1-5,0.1s-3.5,0-5.2-0.1c-0.1,0-0.2,0.1-0.2,0.3s0,0.2,0.2,0.2c0.8,0.1,1.4,0.1,1.6,0.5
		c0.2,0.4,0.2,0.7,0.2,2.6v7.1c0,1.3,0,2.2-0.2,2.6c-0.2,0.4-0.7,0.4-1.4,0.5c-0.1,0-0.2,0-0.2,0.3c0,0.2,0,0.2,0.2,0.2
		c0.8-0.1,1.8-0.1,2.6-0.1s1.9,0,2.8,0.1c0.2,0,0.2,0,0.2-0.3c0-0.2,0-0.2-0.2-0.2c-0.8-0.1-1.4-0.1-1.6-0.5
		c-0.2-0.4-0.2-0.7-0.2-2.6L138.7,999.7"/>
	<path id="path14184-5" inkscape:connector-curvature="0" d="M150.8,999.7c0.3,0,0.9,0,1.2,0c1.3,0,2.2,0.2,2.6,0.4
		c0.4,0.3,0.6,1,0.6,1.5c0,0.1,0.1,0.2,0.3,0.2s0.3-0.1,0.3-0.2c0-0.7-0.1-1.5-0.1-2.3c0-0.7,0-1.3,0.1-2c0-0.2,0-0.2-0.3-0.2
		c-0.2,0-0.2,0.1-0.3,0.2c-0.1,0.5-0.2,1-0.6,1.3c-0.4,0.3-1.4,0.4-2.7,0.4c-0.4,0-0.9,0-1.2,0v-2.9c0-1.1,0-2,0.2-2.4
		c0.3-0.5,1-0.5,1.7-0.5c1.7,0,2.5,0.2,3.1,0.6c0.5,0.4,1,1.3,1.3,2c0,0.1,0.1,0.2,0.3,0.1c0.2,0,0.3-0.1,0.2-0.2
		c-0.1-1-0.3-2.2-0.4-3.2c-1.7,0.1-3.4,0.1-5,0.1s-3.5,0-5.2-0.1c-0.1,0-0.2,0.1-0.2,0.3s0,0.2,0.2,0.2c0.8,0.1,1.4,0.1,1.6,0.5
		c0.2,0.4,0.2,0.7,0.2,2.6v7.1c0,1.3,0,2.2-0.2,2.6c-0.2,0.4-0.7,0.4-1.4,0.5c-0.1,0-0.2,0-0.2,0.3c0,0.2,0,0.2,0.2,0.2
		c0.8-0.1,1.8-0.1,2.6-0.1s1.9,0,2.8,0.1c0.2,0,0.2,0,0.2-0.3c0-0.2,0-0.2-0.2-0.2c-0.8-0.1-1.4-0.1-1.6-0.5
		c-0.2-0.4-0.2-0.7-0.2-2.6L150.8,999.7"/>
	<path id="path8950-0-9-9" inkscape:connector-curvature="0" class="st0" d="M148.5,1093.2c0,5.9-4.8,10.6-10.6,10.6
		s-10.6-4.8-10.6-10.6c0-5.9,4.8-10.6,10.6-10.6S148.5,1087.3,148.5,1093.2z"/>
	<path id="path14187-4-4" inkscape:connector-curvature="0" d="M129.6,1052.1c-4.3,0-7.4,3.2-7.4,7.5s3.1,7.5,7.4,7.5
		s7.4-3.2,7.4-7.5S133.9,1052.1,129.6,1052.1 M129.6,1052.8c3,0,5.2,2.7,5.2,6.8c0,4.1-2.1,6.8-5.2,6.8c-3.1,0-5.2-2.7-5.2-6.8
		C124.4,1055.5,126.6,1052.8,129.6,1052.8"/>
	<path id="path14189-5-8" inkscape:connector-curvature="0" d="M141.9,1054.6l6.2,9c1.2,1.7,1.7,2.4,2.3,3.4c0,0.1,0.1,0.1,0.2,0.1
		s0.1,0,1.1-0.6c0-1.1-0.1-2,0-3.4l0.1-7.1c0-1.1,0.1-2.1,0.4-2.5c0.2-0.4,0.7-0.4,1.3-0.5c0.2,0,0.2-0.1,0.2-0.3
		c0-0.3,0-0.3-0.2-0.3c-0.6,0-1.5,0.1-2.3,0.1c-0.7,0-1.5,0-2.3-0.1c-0.1,0-0.2,0-0.2,0.3c0,0.2,0,0.2,0.2,0.3
		c0.6,0.1,1.2,0.1,1.5,0.5s0.4,1.4,0.4,2.5v5.9v2.5c-0.6-1-1.2-1.8-1.9-2.8l-4.6-6.7c-0.7-1.1-1.1-1.6-1.5-2.4c-1,0-1.5,0-2,0
		s-1.2,0-1.9-0.1c-0.2,0-0.2,0.1-0.2,0.3c0,0.2,0,0.2,0.2,0.3c0.7,0.1,1.4,0.2,1.6,0.6c0.3,0.4,0.3,1.2,0.3,2.4l-0.1,7.1
		c0,1.2-0.1,2.1-0.4,2.6c-0.3,0.4-0.8,0.5-1.4,0.6c-0.1,0-0.2,0.1-0.2,0.3c0,0.2,0,0.2,0.2,0.2c0.7,0,1.6-0.1,2.3-0.1s1.5,0,2.3,0.1
		c0.1,0,0.2,0,0.2-0.2s0-0.2-0.2-0.2c-0.7-0.1-1.3-0.1-1.5-0.5c-0.3-0.4-0.3-1.3-0.4-2.6l-0.1-8.6L141.9,1054.6"/>
	<path id="path14180-4-6" inkscape:connector-curvature="0" d="M125.6,1119.3c-4.3,0-7.4,3.2-7.4,7.5s3.1,7.5,7.4,7.5
		c4.3,0,7.4-3.2,7.4-7.5S129.9,1119.3,125.6,1119.3 M125.6,1120c3,0,5.2,2.7,5.2,6.8c0,4.1-2.1,6.8-5.2,6.8c-3.1,0-5.2-2.7-5.2-6.8
		C120.4,1122.7,122.6,1120,125.6,1120"/>
	<path id="path14182-3-2" inkscape:connector-curvature="0" d="M138.7,1126.9c0.3,0,0.9,0,1.2,0c1.3,0,2.2,0.2,2.6,0.4
		c0.4,0.3,0.6,1,0.6,1.5c0,0.1,0.1,0.2,0.3,0.2s0.3-0.1,0.3-0.2c0-0.7-0.1-1.5-0.1-2.3c0-0.7,0-1.3,0.1-2c0-0.2,0-0.2-0.3-0.2
		c-0.2,0-0.2,0.1-0.3,0.2c-0.1,0.5-0.2,1-0.6,1.3c-0.4,0.3-1.4,0.4-2.7,0.4c-0.4,0-0.9,0-1.2,0v-2.9c0-1.1,0-2,0.2-2.4
		c0.3-0.5,1-0.5,1.7-0.5c1.7,0,2.5,0.2,3.1,0.6c0.5,0.4,1,1.3,1.3,2c0,0.1,0.1,0.2,0.3,0.1c0.2,0,0.3-0.1,0.2-0.2
		c-0.1-1-0.3-2.2-0.4-3.2c-1.7,0.1-3.4,0.1-5,0.1s-3.5,0-5.2-0.1c-0.1,0-0.2,0.1-0.2,0.3c0,0.2,0,0.2,0.2,0.2
		c0.8,0.1,1.4,0.1,1.6,0.5c0.2,0.4,0.2,0.7,0.2,2.6v7.1c0,1.3,0,2.2-0.2,2.6s-0.7,0.4-1.4,0.5c-0.1,0-0.2,0-0.2,0.3
		c0,0.2,0,0.2,0.2,0.2c0.8-0.1,1.8-0.1,2.6-0.1s1.9,0,2.8,0.1c0.2,0,0.2,0,0.2-0.3c0-0.2,0-0.2-0.2-0.2c-0.8-0.1-1.4-0.1-1.6-0.5
		c-0.2-0.4-0.2-0.7-0.2-2.6L138.7,1126.9"/>
	<path id="path14184-5-5" inkscape:connector-curvature="0" d="M150.8,1126.9c0.3,0,0.9,0,1.2,0c1.3,0,2.2,0.2,2.6,0.4
		c0.4,0.3,0.6,1,0.6,1.5c0,0.1,0.1,0.2,0.3,0.2s0.3-0.1,0.3-0.2c0-0.7-0.1-1.5-0.1-2.3c0-0.7,0-1.3,0.1-2c0-0.2,0-0.2-0.3-0.2
		c-0.2,0-0.2,0.1-0.3,0.2c-0.1,0.5-0.2,1-0.6,1.3c-0.4,0.3-1.4,0.4-2.7,0.4c-0.4,0-0.9,0-1.2,0v-2.9c0-1.1,0-2,0.2-2.4
		c0.3-0.5,1-0.5,1.7-0.5c1.7,0,2.5,0.2,3.1,0.6c0.5,0.4,1,1.3,1.3,2c0,0.1,0.1,0.2,0.3,0.1c0.2,0,0.3-0.1,0.2-0.2
		c-0.1-1-0.3-2.2-0.4-3.2c-1.7,0.1-3.4,0.1-5,0.1s-3.5,0-5.2-0.1c-0.1,0-0.2,0.1-0.2,0.3c0,0.2,0,0.2,0.2,0.2
		c0.8,0.1,1.4,0.1,1.6,0.5c0.2,0.4,0.2,0.7,0.2,2.6v7.1c0,1.3,0,2.2-0.2,2.6s-0.7,0.4-1.4,0.5c-0.1,0-0.2,0-0.2,0.3
		c0,0.2,0,0.2,0.2,0.2c0.8-0.1,1.8-0.1,2.6-0.1s1.9,0,2.8,0.1c0.2,0,0.2,0,0.2-0.3c0-0.2,0-0.2-0.2-0.2c-0.8-0.1-1.4-0.1-1.6-0.5
		c-0.2-0.4-0.2-0.7-0.2-2.6L150.8,1126.9"/>
	<path id="path8950-0-9-6" inkscape:connector-curvature="0" class="st0" d="M148.5,1220.4c0,5.9-4.8,10.6-10.6,10.6
		s-10.6-4.8-10.6-10.6c0-5.9,4.8-10.6,10.6-10.6S148.5,1214.5,148.5,1220.4z"/>
	<path id="path14187-4-42" inkscape:connector-curvature="0" d="M129.6,1179.3c-4.3,0-7.4,3.2-7.4,7.5s3.1,7.5,7.4,7.5
		s7.4-3.2,7.4-7.5S133.9,1179.3,129.6,1179.3 M129.6,1180c3,0,5.2,2.7,5.2,6.8c0,4.1-2.1,6.8-5.2,6.8c-3.1,0-5.2-2.7-5.2-6.8
		C124.4,1182.7,126.6,1180,129.6,1180"/>
	<path id="path14189-5-3" inkscape:connector-curvature="0" d="M141.9,1181.7l6.2,9c1.2,1.7,1.7,2.4,2.3,3.4c0,0.1,0.1,0.1,0.2,0.1
		s0.1,0,1.1-0.6c0-1.1-0.1-2,0-3.4l0.1-7.1c0-1.1,0.1-2.1,0.4-2.5c0.2-0.4,0.7-0.4,1.3-0.5c0.2,0,0.2-0.1,0.2-0.3
		c0-0.3,0-0.3-0.2-0.3c-0.6,0-1.5,0.1-2.3,0.1c-0.7,0-1.5,0-2.3-0.1c-0.1,0-0.2,0-0.2,0.3c0,0.2,0,0.2,0.2,0.3
		c0.6,0.1,1.2,0.1,1.5,0.5s0.4,1.4,0.4,2.5v5.9v2.5c-0.6-1-1.2-1.8-1.9-2.8l-4.6-6.7c-0.7-1.1-1.1-1.6-1.5-2.4c-1,0-1.5,0-2,0
		s-1.2,0-1.9-0.1c-0.2,0-0.2,0.1-0.2,0.3c0,0.2,0,0.2,0.2,0.3c0.7,0.1,1.4,0.2,1.6,0.6c0.3,0.4,0.3,1.2,0.3,2.4l-0.1,7.1
		c0,1.2-0.1,2.1-0.4,2.6c-0.3,0.4-0.8,0.5-1.4,0.6c-0.1,0-0.2,0.1-0.2,0.3c0,0.2,0,0.2,0.2,0.2c0.7,0,1.6-0.1,2.3-0.1s1.5,0,2.3,0.1
		c0.1,0,0.2,0,0.2-0.2s0-0.2-0.2-0.2c-0.7-0.1-1.3-0.1-1.5-0.5c-0.3-0.4-0.3-1.3-0.4-2.6l-0.1-8.6L141.9,1181.7"/>
	<path id="path14180-4-4" inkscape:connector-curvature="0" d="M125.6,1246.5c-4.3,0-7.4,3.2-7.4,7.5s3.1,7.5,7.4,7.5
		c4.3,0,7.4-3.2,7.4-7.5S129.9,1246.5,125.6,1246.5 M125.6,1247.2c3,0,5.2,2.7,5.2,6.8c0,4.1-2.1,6.8-5.2,6.8
		c-3.1,0-5.2-2.7-5.2-6.8C120.4,1249.9,122.6,1247.2,125.6,1247.2"/>
	<path id="path14182-3-0" inkscape:connector-curvature="0" d="M138.7,1254.1c0.3,0,0.9,0,1.2,0c1.3,0,2.2,0.2,2.6,0.4
		c0.4,0.3,0.6,1,0.6,1.5c0,0.1,0.1,0.2,0.3,0.2s0.3-0.1,0.3-0.2c0-0.7-0.1-1.5-0.1-2.3c0-0.7,0-1.3,0.1-2c0-0.2,0-0.2-0.3-0.2
		c-0.2,0-0.2,0.1-0.3,0.2c-0.1,0.5-0.2,1-0.6,1.3c-0.4,0.3-1.4,0.4-2.7,0.4c-0.4,0-0.9,0-1.2,0v-2.9c0-1.1,0-2,0.2-2.4
		c0.3-0.5,1-0.5,1.7-0.5c1.7,0,2.5,0.2,3.1,0.6c0.5,0.4,1,1.3,1.3,2c0,0.1,0.1,0.2,0.3,0.1c0.2,0,0.3-0.1,0.2-0.2
		c-0.1-1-0.3-2.2-0.4-3.2c-1.7,0.1-3.4,0.1-5,0.1s-3.5,0-5.2-0.1c-0.1,0-0.2,0.1-0.2,0.3c0,0.2,0,0.2,0.2,0.2
		c0.8,0.1,1.4,0.1,1.6,0.5c0.2,0.4,0.2,0.7,0.2,2.6v7.1c0,1.3,0,2.2-0.2,2.6s-0.7,0.4-1.4,0.5c-0.1,0-0.2,0-0.2,0.3
		c0,0.2,0,0.2,0.2,0.2c0.8-0.1,1.8-0.1,2.6-0.1s1.9,0,2.8,0.1c0.2,0,0.2,0,0.2-0.3c0-0.2,0-0.2-0.2-0.2c-0.8-0.1-1.4-0.1-1.6-0.5
		c-0.2-0.4-0.2-0.7-0.2-2.6L138.7,1254.1"/>
	<path id="path14184-5-3" inkscape:connector-curvature="0" d="M150.8,1254.1c0.3,0,0.9,0,1.2,0c1.3,0,2.2,0.2,2.6,0.4
		c0.4,0.3,0.6,1,0.6,1.5c0,0.1,0.1,0.2,0.3,0.2s0.3-0.1,0.3-0.2c0-0.7-0.1-1.5-0.1-2.3c0-0.7,0-1.3,0.1-2c0-0.2,0-0.2-0.3-0.2
		c-0.2,0-0.2,0.1-0.3,0.2c-0.1,0.5-0.2,1-0.6,1.3c-0.4,0.3-1.4,0.4-2.7,0.4c-0.4,0-0.9,0-1.2,0v-2.9c0-1.1,0-2,0.2-2.4
		c0.3-0.5,1-0.5,1.7-0.5c1.7,0,2.5,0.2,3.1,0.6c0.5,0.4,1,1.3,1.3,2c0,0.1,0.1,0.2,0.3,0.1c0.2,0,0.3-0.1,0.2-0.2
		c-0.1-1-0.3-2.2-0.4-3.2c-1.7,0.1-3.4,0.1-5,0.1s-3.5,0-5.2-0.1c-0.1,0-0.2,0.1-0.2,0.3c0,0.2,0,0.2,0.2,0.2
		c0.8,0.1,1.4,0.1,1.6,0.5c0.2,0.4,0.2,0.7,0.2,2.6v7.1c0,1.3,0,2.2-0.2,2.6s-0.7,0.4-1.4,0.5c-0.1,0-0.2,0-0.2,0.3
		c0,0.2,0,0.2,0.2,0.2c0.8-0.1,1.8-0.1,2.6-0.1s1.9,0,2.8,0.1c0.2,0,0.2,0,0.2-0.3c0-0.2,0-0.2-0.2-0.2c-0.8-0.1-1.4-0.1-1.6-0.5
		c-0.2-0.4-0.2-0.7-0.2-2.6L150.8,1254.1"/>
	<path id="path8950-0-9-5" inkscape:connector-curvature="0" class="st0" d="M148.5,1347.5c0,5.9-4.8,10.6-10.6,10.6
		s-10.6-4.8-10.6-10.6c0-5.9,4.8-10.6,10.6-10.6S148.5,1341.7,148.5,1347.5z"/>
	<path id="path14187-4-0" inkscape:connector-curvature="0" d="M129.6,1306.4c-4.3,0-7.4,3.2-7.4,7.5s3.1,7.5,7.4,7.5
		s7.4-3.2,7.4-7.5S133.9,1306.4,129.6,1306.4 M129.6,1307.1c3,0,5.2,2.7,5.2,6.8c0,4.1-2.1,6.8-5.2,6.8c-3.1,0-5.2-2.7-5.2-6.8
		C124.4,1309.8,126.6,1307.1,129.6,1307.1"/>
	<path id="path14189-5-35" inkscape:connector-curvature="0" d="M141.9,1308.9l6.2,9c1.2,1.7,1.7,2.4,2.3,3.4c0,0.1,0.1,0.1,0.2,0.1
		s0.1,0,1.1-0.6c0-1.1-0.1-2,0-3.4l0.1-7.1c0-1.1,0.1-2.1,0.4-2.5c0.2-0.4,0.7-0.4,1.3-0.5c0.2,0,0.2-0.1,0.2-0.3
		c0-0.3,0-0.3-0.2-0.3c-0.6,0-1.5,0.1-2.3,0.1c-0.7,0-1.5,0-2.3-0.1c-0.1,0-0.2,0-0.2,0.3c0,0.2,0,0.2,0.2,0.3
		c0.6,0.1,1.2,0.1,1.5,0.5s0.4,1.4,0.4,2.5v5.9v2.5c-0.6-1-1.2-1.8-1.9-2.8l-4.6-6.7c-0.7-1.1-1.1-1.6-1.5-2.4c-1,0-1.5,0-2,0
		s-1.2,0-1.9-0.1c-0.2,0-0.2,0.1-0.2,0.3c0,0.2,0,0.2,0.2,0.3c0.7,0.1,1.4,0.2,1.6,0.6c0.3,0.4,0.3,1.2,0.3,2.4l-0.1,7.1
		c0,1.2-0.1,2.1-0.4,2.6c-0.3,0.4-0.8,0.5-1.4,0.6c-0.1,0-0.2,0.1-0.2,0.3c0,0.2,0,0.2,0.2,0.2c0.7,0,1.6-0.1,2.3-0.1s1.5,0,2.3,0.1
		c0.1,0,0.2,0,0.2-0.2s0-0.2-0.2-0.2c-0.7-0.1-1.3-0.1-1.5-0.5c-0.3-0.4-0.3-1.3-0.4-2.6l-0.1-8.6L141.9,1308.9"/>
	<path id="path14180-4-8" inkscape:connector-curvature="0" d="M125.6,1373.7c-4.3,0-7.4,3.2-7.4,7.5s3.1,7.5,7.4,7.5
		c4.3,0,7.4-3.2,7.4-7.5S129.9,1373.7,125.6,1373.7 M125.6,1374.3c3,0,5.2,2.7,5.2,6.8c0,4.1-2.1,6.8-5.2,6.8
		c-3.1,0-5.2-2.7-5.2-6.8C120.4,1377.1,122.6,1374.3,125.6,1374.3"/>
	<path id="path14182-3-8" inkscape:connector-curvature="0" d="M138.7,1381.2c0.3,0,0.9,0,1.2,0c1.3,0,2.2,0.2,2.6,0.4
		c0.4,0.3,0.6,1,0.6,1.5c0,0.1,0.1,0.2,0.3,0.2s0.3-0.1,0.3-0.2c0-0.7-0.1-1.5-0.1-2.3c0-0.7,0-1.3,0.1-2c0-0.2,0-0.2-0.3-0.2
		c-0.2,0-0.2,0.1-0.3,0.2c-0.1,0.5-0.2,1-0.6,1.3c-0.4,0.3-1.4,0.4-2.7,0.4c-0.4,0-0.9,0-1.2,0v-2.9c0-1.1,0-2,0.2-2.4
		c0.3-0.5,1-0.5,1.7-0.5c1.7,0,2.5,0.2,3.1,0.6c0.5,0.4,1,1.3,1.3,2c0,0.1,0.1,0.2,0.3,0.1c0.2,0,0.3-0.1,0.2-0.2
		c-0.1-1-0.3-2.2-0.4-3.2c-1.7,0.1-3.4,0.1-5,0.1s-3.5,0-5.2-0.1c-0.1,0-0.2,0.1-0.2,0.3c0,0.2,0,0.2,0.2,0.2
		c0.8,0.1,1.4,0.1,1.6,0.5c0.2,0.4,0.2,0.7,0.2,2.6v7.1c0,1.3,0,2.2-0.2,2.6s-0.7,0.4-1.4,0.5c-0.1,0-0.2,0-0.2,0.3
		c0,0.2,0,0.2,0.2,0.2c0.8-0.1,1.8-0.1,2.6-0.1s1.9,0,2.8,0.1c0.2,0,0.2,0,0.2-0.3c0-0.2,0-0.2-0.2-0.2c-0.8-0.1-1.4-0.1-1.6-0.5
		c-0.2-0.4-0.2-0.7-0.2-2.6L138.7,1381.2"/>
	<path id="path14184-5-56" inkscape:connector-curvature="0" d="M150.8,1381.2c0.3,0,0.9,0,1.2,0c1.3,0,2.2,0.2,2.6,0.4
		c0.4,0.3,0.6,1,0.6,1.5c0,0.1,0.1,0.2,0.3,0.2s0.3-0.1,0.3-0.2c0-0.7-0.1-1.5-0.1-2.3c0-0.7,0-1.3,0.1-2c0-0.2,0-0.2-0.3-0.2
		c-0.2,0-0.2,0.1-0.3,0.2c-0.1,0.5-0.2,1-0.6,1.3c-0.4,0.3-1.4,0.4-2.7,0.4c-0.4,0-0.9,0-1.2,0v-2.9c0-1.1,0-2,0.2-2.4
		c0.3-0.5,1-0.5,1.7-0.5c1.7,0,2.5,0.2,3.1,0.6c0.5,0.4,1,1.3,1.3,2c0,0.1,0.1,0.2,0.3,0.1c0.2,0,0.3-0.1,0.2-0.2
		c-0.1-1-0.3-2.2-0.4-3.2c-1.7,0.1-3.4,0.1-5,0.1s-3.5,0-5.2-0.1c-0.1,0-0.2,0.1-0.2,0.3c0,0.2,0,0.2,0.2,0.2
		c0.8,0.1,1.4,0.1,1.6,0.5c0.2,0.4,0.2,0.7,0.2,2.6v7.1c0,1.3,0,2.2-0.2,2.6s-0.7,0.4-1.4,0.5c-0.1,0-0.2,0-0.2,0.3
		c0,0.2,0,0.2,0.2,0.2c0.8-0.1,1.8-0.1,2.6-0.1s1.9,0,2.8,0.1c0.2,0,0.2,0,0.2-0.3c0-0.2,0-0.2-0.2-0.2c-0.8-0.1-1.4-0.1-1.6-0.5
		c-0.2-0.4-0.2-0.7-0.2-2.6L150.8,1381.2"/>
	<path id="path8950-0-9-7" inkscape:connector-curvature="0" class="st0" d="M148.5,1474.7c0,5.9-4.8,10.6-10.6,10.6
		s-10.6-4.8-10.6-10.6c0-5.9,4.8-10.6,10.6-10.6S148.5,1468.8,148.5,1474.7z"/>
	<path id="path14187-4-7" inkscape:connector-curvature="0" d="M129.6,1433.6c-4.3,0-7.4,3.2-7.4,7.5s3.1,7.5,7.4,7.5
		s7.4-3.2,7.4-7.5S133.9,1433.6,129.6,1433.6 M129.6,1434.3c3,0,5.2,2.7,5.2,6.8c0,4.1-2.1,6.8-5.2,6.8c-3.1,0-5.2-2.7-5.2-6.8
		C124.4,1437,126.6,1434.3,129.6,1434.3"/>
	<path id="path14189-5-7" inkscape:connector-curvature="0" d="M141.9,1436.1l6.2,9c1.2,1.7,1.7,2.4,2.3,3.4c0,0.1,0.1,0.1,0.2,0.1
		s0.1,0,1.1-0.6c0-1.1-0.1-2,0-3.4l0.1-7.1c0-1.1,0.1-2.1,0.4-2.5c0.2-0.4,0.7-0.4,1.3-0.5c0.2,0,0.2-0.1,0.2-0.3
		c0-0.3,0-0.3-0.2-0.3c-0.6,0-1.5,0.1-2.3,0.1c-0.7,0-1.5,0-2.3-0.1c-0.1,0-0.2,0-0.2,0.3c0,0.2,0,0.2,0.2,0.3
		c0.6,0.1,1.2,0.1,1.5,0.5s0.4,1.4,0.4,2.5v5.9v2.5c-0.6-1-1.2-1.8-1.9-2.8l-4.6-6.7c-0.7-1.1-1.1-1.6-1.5-2.4c-1,0-1.5,0-2,0
		s-1.2,0-1.9-0.1c-0.2,0-0.2,0.1-0.2,0.3c0,0.2,0,0.2,0.2,0.3c0.7,0.1,1.4,0.2,1.6,0.6c0.3,0.4,0.3,1.2,0.3,2.4l-0.1,7.1
		c0,1.2-0.1,2.1-0.4,2.6c-0.3,0.4-0.8,0.5-1.4,0.6c-0.1,0-0.2,0.1-0.2,0.3c0,0.2,0,0.2,0.2,0.2c0.7,0,1.6-0.1,2.3-0.1s1.5,0,2.3,0.1
		c0.1,0,0.2,0,0.2-0.2s0-0.2-0.2-0.2c-0.7-0.1-1.3-0.1-1.5-0.5c-0.3-0.4-0.3-1.3-0.4-2.6l-0.1-8.6L141.9,1436.1"/>
	<path id="path14180-4-3" inkscape:connector-curvature="0" d="M125.6,1500.8c-4.3,0-7.4,3.2-7.4,7.5s3.1,7.5,7.4,7.5
		c4.3,0,7.4-3.2,7.4-7.5S129.9,1500.8,125.6,1500.8 M125.6,1501.5c3,0,5.2,2.7,5.2,6.8c0,4.1-2.1,6.8-5.2,6.8
		c-3.1,0-5.2-2.7-5.2-6.8C120.4,1504.2,122.6,1501.5,125.6,1501.5"/>
	<path id="path14182-3-1" inkscape:connector-curvature="0" d="M138.7,1508.4c0.3,0,0.9,0,1.2,0c1.3,0,2.2,0.2,2.6,0.4
		c0.4,0.3,0.6,1,0.6,1.5c0,0.1,0.1,0.2,0.3,0.2s0.3-0.1,0.3-0.2c0-0.7-0.1-1.5-0.1-2.3c0-0.7,0-1.3,0.1-2c0-0.2,0-0.2-0.3-0.2
		c-0.2,0-0.2,0.1-0.3,0.2c-0.1,0.5-0.2,1-0.6,1.3c-0.4,0.3-1.4,0.4-2.7,0.4c-0.4,0-0.9,0-1.2,0v-2.9c0-1.1,0-2,0.2-2.4
		c0.3-0.5,1-0.5,1.7-0.5c1.7,0,2.5,0.2,3.1,0.6c0.5,0.4,1,1.3,1.3,2c0,0.1,0.1,0.2,0.3,0.1c0.2,0,0.3-0.1,0.2-0.2
		c-0.1-1-0.3-2.2-0.4-3.2c-1.7,0.1-3.4,0.1-5,0.1s-3.5,0-5.2-0.1c-0.1,0-0.2,0.1-0.2,0.3c0,0.2,0,0.2,0.2,0.2
		c0.8,0.1,1.4,0.1,1.6,0.5c0.2,0.4,0.2,0.7,0.2,2.6v7.1c0,1.3,0,2.2-0.2,2.6s-0.7,0.4-1.4,0.5c-0.1,0-0.2,0-0.2,0.3
		c0,0.2,0,0.2,0.2,0.2c0.8-0.1,1.8-0.1,2.6-0.1s1.9,0,2.8,0.1c0.2,0,0.2,0,0.2-0.3c0-0.2,0-0.2-0.2-0.2c-0.8-0.1-1.4-0.1-1.6-0.5
		c-0.2-0.4-0.2-0.7-0.2-2.6L138.7,1508.4"/>
	<path id="path14184-5-7" inkscape:connector-curvature="0" d="M150.8,1508.4c0.3,0,0.9,0,1.2,0c1.3,0,2.2,0.2,2.6,0.4
		c0.4,0.3,0.6,1,0.6,1.5c0,0.1,0.1,0.2,0.3,0.2s0.3-0.1,0.3-0.2c0-0.7-0.1-1.5-0.1-2.3c0-0.7,0-1.3,0.1-2c0-0.2,0-0.2-0.3-0.2
		c-0.2,0-0.2,0.1-0.3,0.2c-0.1,0.5-0.2,1-0.6,1.3c-0.4,0.3-1.4,0.4-2.7,0.4c-0.4,0-0.9,0-1.2,0v-2.9c0-1.1,0-2,0.2-2.4
		c0.3-0.5,1-0.5,1.7-0.5c1.7,0,2.5,0.2,3.1,0.6c0.5,0.4,1,1.3,1.3,2c0,0.1,0.1,0.2,0.3,0.1c0.2,0,0.3-0.1,0.2-0.2
		c-0.1-1-0.3-2.2-0.4-3.2c-1.7,0.1-3.4,0.1-5,0.1s-3.5,0-5.2-0.1c-0.1,0-0.2,0.1-0.2,0.3c0,0.2,0,0.2,0.2,0.2
		c0.8,0.1,1.4,0.1,1.6,0.5c0.2,0.4,0.2,0.7,0.2,2.6v7.1c0,1.3,0,2.2-0.2,2.6s-0.7,0.4-1.4,0.5c-0.1,0-0.2,0-0.2,0.3
		c0,0.2,0,0.2,0.2,0.2c0.8-0.1,1.8-0.1,2.6-0.1s1.9,0,2.8,0.1c0.2,0,0.2,0,0.2-0.3c0-0.2,0-0.2-0.2-0.2c-0.8-0.1-1.4-0.1-1.6-0.5
		c-0.2-0.4-0.2-0.7-0.2-2.6L150.8,1508.4"/>
	<path id="path8950-0-9-75" inkscape:connector-curvature="0" class="st0" d="M148.5,1729c0,5.9-4.8,10.6-10.6,10.6
		s-10.6-4.8-10.6-10.6c0-5.9,4.8-10.6,10.6-10.6S148.5,1723.2,148.5,1729z"/>
	<path id="path14187-4-74" inkscape:connector-curvature="0" d="M129.6,1687.9c-4.3,0-7.4,3.2-7.4,7.5s3.1,7.5,7.4,7.5
		s7.4-3.2,7.4-7.5S133.9,1687.9,129.6,1687.9 M129.6,1688.6c3,0,5.2,2.7,5.2,6.8c0,4.1-2.1,6.8-5.2,6.8c-3.1,0-5.2-2.7-5.2-6.8
		C124.4,1691.3,126.6,1688.6,129.6,1688.6"/>
	<path id="path14189-5-4" inkscape:connector-curvature="0" d="M141.9,1690.4l6.2,9c1.2,1.7,1.7,2.4,2.3,3.4c0,0.1,0.1,0.1,0.2,0.1
		s0.1,0,1.1-0.6c0-1.1-0.1-2,0-3.4l0.1-7.1c0-1.1,0.1-2.1,0.4-2.5c0.2-0.4,0.7-0.4,1.3-0.5c0.2,0,0.2-0.1,0.2-0.3
		c0-0.3,0-0.3-0.2-0.3c-0.6,0-1.5,0.1-2.3,0.1c-0.7,0-1.5,0-2.3-0.1c-0.1,0-0.2,0-0.2,0.3c0,0.2,0,0.2,0.2,0.3
		c0.6,0.1,1.2,0.1,1.5,0.5s0.4,1.4,0.4,2.5v5.9v2.5c-0.6-1-1.2-1.8-1.9-2.8l-4.6-6.7c-0.7-1.1-1.1-1.6-1.5-2.4c-1,0-1.5,0-2,0
		s-1.2,0-1.9-0.1c-0.2,0-0.2,0.1-0.2,0.3c0,0.2,0,0.2,0.2,0.3c0.7,0.1,1.4,0.2,1.6,0.6c0.3,0.4,0.3,1.2,0.3,2.4l-0.1,7.1
		c0,1.2-0.1,2.1-0.4,2.6c-0.3,0.4-0.8,0.5-1.4,0.6c-0.1,0-0.2,0.1-0.2,0.3c0,0.2,0,0.2,0.2,0.2c0.7,0,1.6-0.1,2.3-0.1s1.5,0,2.3,0.1
		c0.1,0,0.2,0,0.2-0.2s0-0.2-0.2-0.2c-0.7-0.1-1.3-0.1-1.5-0.5c-0.3-0.4-0.3-1.3-0.4-2.6l-0.1-8.6L141.9,1690.4"/>
	<path id="path14180-4-84" inkscape:connector-curvature="0" d="M125.6,1755.2c-4.3,0-7.4,3.2-7.4,7.5s3.1,7.5,7.4,7.5
		c4.3,0,7.4-3.2,7.4-7.5S129.9,1755.2,125.6,1755.2 M125.6,1755.8c3,0,5.2,2.7,5.2,6.8c0,4.1-2.1,6.8-5.2,6.8
		c-3.1,0-5.2-2.7-5.2-6.8C120.4,1758.6,122.6,1755.8,125.6,1755.8"/>
	<path id="path14182-3-13" inkscape:connector-curvature="0" d="M138.7,1762.7c0.3,0,0.9,0,1.2,0c1.3,0,2.2,0.2,2.6,0.4
		c0.4,0.3,0.6,1,0.6,1.5c0,0.1,0.1,0.2,0.3,0.2s0.3-0.1,0.3-0.2c0-0.7-0.1-1.5-0.1-2.3c0-0.7,0-1.3,0.1-2c0-0.2,0-0.2-0.3-0.2
		c-0.2,0-0.2,0.1-0.3,0.2c-0.1,0.5-0.2,1-0.6,1.3c-0.4,0.3-1.4,0.4-2.7,0.4c-0.4,0-0.9,0-1.2,0v-2.9c0-1.1,0-2,0.2-2.4
		c0.3-0.5,1-0.5,1.7-0.5c1.7,0,2.5,0.2,3.1,0.6c0.5,0.4,1,1.3,1.3,2c0,0.1,0.1,0.2,0.3,0.1c0.2,0,0.3-0.1,0.2-0.2
		c-0.1-1-0.3-2.2-0.4-3.2c-1.7,0.1-3.4,0.1-5,0.1s-3.5,0-5.2-0.1c-0.1,0-0.2,0.1-0.2,0.3c0,0.2,0,0.2,0.2,0.2
		c0.8,0.1,1.4,0.1,1.6,0.5c0.2,0.4,0.2,0.7,0.2,2.6v7.1c0,1.3,0,2.2-0.2,2.6s-0.7,0.4-1.4,0.5c-0.1,0-0.2,0-0.2,0.3
		c0,0.2,0,0.2,0.2,0.2c0.8-0.1,1.8-0.1,2.6-0.1s1.9,0,2.8,0.1c0.2,0,0.2,0,0.2-0.3c0-0.2,0-0.2-0.2-0.2c-0.8-0.1-1.4-0.1-1.6-0.5
		c-0.2-0.4-0.2-0.7-0.2-2.6L138.7,1762.7"/>
	<path id="path14184-5-4" inkscape:connector-curvature="0" d="M150.8,1762.7c0.3,0,0.9,0,1.2,0c1.3,0,2.2,0.2,2.6,0.4
		c0.4,0.3,0.6,1,0.6,1.5c0,0.1,0.1,0.2,0.3,0.2s0.3-0.1,0.3-0.2c0-0.7-0.1-1.5-0.1-2.3c0-0.7,0-1.3,0.1-2c0-0.2,0-0.2-0.3-0.2
		c-0.2,0-0.2,0.1-0.3,0.2c-0.1,0.5-0.2,1-0.6,1.3c-0.4,0.3-1.4,0.4-2.7,0.4c-0.4,0-0.9,0-1.2,0v-2.9c0-1.1,0-2,0.2-2.4
		c0.3-0.5,1-0.5,1.7-0.5c1.7,0,2.5,0.2,3.1,0.6c0.5,0.4,1,1.3,1.3,2c0,0.1,0.1,0.2,0.3,0.1c0.2,0,0.3-0.1,0.2-0.2
		c-0.1-1-0.3-2.2-0.4-3.2c-1.7,0.1-3.4,0.1-5,0.1s-3.5,0-5.2-0.1c-0.1,0-0.2,0.1-0.2,0.3c0,0.2,0,0.2,0.2,0.2
		c0.8,0.1,1.4,0.1,1.6,0.5c0.2,0.4,0.2,0.7,0.2,2.6v7.1c0,1.3,0,2.2-0.2,2.6s-0.7,0.4-1.4,0.5c-0.1,0-0.2,0-0.2,0.3
		c0,0.2,0,0.2,0.2,0.2c0.8-0.1,1.8-0.1,2.6-0.1s1.9,0,2.8,0.1c0.2,0,0.2,0,0.2-0.3c0-0.2,0-0.2-0.2-0.2c-0.8-0.1-1.4-0.1-1.6-0.5
		c-0.2-0.4-0.2-0.7-0.2-2.6L150.8,1762.7"/>
	<path id="path8950-0-9-4" inkscape:connector-curvature="0" class="st0" d="M148.5,1601.9c0,5.9-4.8,10.6-10.6,10.6
		s-10.6-4.8-10.6-10.6c0-5.9,4.8-10.6,10.6-10.6S148.5,1596,148.5,1601.9z"/>
	<path id="path14187-4-6" inkscape:connector-curvature="0" d="M129.6,1560.8c-4.3,0-7.4,3.2-7.4,7.5s3.1,7.5,7.4,7.5
		s7.4-3.2,7.4-7.5S133.9,1560.8,129.6,1560.8 M129.6,1561.5c3,0,5.2,2.7,5.2,6.8c0,4.1-2.1,6.8-5.2,6.8c-3.1,0-5.2-2.7-5.2-6.8
		C124.4,1564.2,126.6,1561.5,129.6,1561.5"/>
	<path id="path14189-5-2" inkscape:connector-curvature="0" d="M141.9,1563.2l6.2,9c1.2,1.7,1.7,2.4,2.3,3.4c0,0.1,0.1,0.1,0.2,0.1
		s0.1,0,1.1-0.6c0-1.1-0.1-2,0-3.4l0.1-7.1c0-1.1,0.1-2.1,0.4-2.5c0.2-0.4,0.7-0.4,1.3-0.5c0.2,0,0.2-0.1,0.2-0.3
		c0-0.3,0-0.3-0.2-0.3c-0.6,0-1.5,0.1-2.3,0.1c-0.7,0-1.5,0-2.3-0.1c-0.1,0-0.2,0-0.2,0.3c0,0.2,0,0.2,0.2,0.3
		c0.6,0.1,1.2,0.1,1.5,0.5s0.4,1.4,0.4,2.5v5.9v2.5c-0.6-1-1.2-1.8-1.9-2.8l-4.6-6.7c-0.7-1.1-1.1-1.6-1.5-2.4c-1,0-1.5,0-2,0
		s-1.2,0-1.9-0.1c-0.2,0-0.2,0.1-0.2,0.3c0,0.2,0,0.2,0.2,0.3c0.7,0.1,1.4,0.2,1.6,0.6c0.3,0.4,0.3,1.2,0.3,2.4l-0.1,7.1
		c0,1.2-0.1,2.1-0.4,2.6c-0.3,0.4-0.8,0.5-1.4,0.6c-0.1,0-0.2,0.1-0.2,0.3c0,0.2,0,0.2,0.2,0.2c0.7,0,1.6-0.1,2.3-0.1s1.5,0,2.3,0.1
		c0.1,0,0.2,0,0.2-0.2s0-0.2-0.2-0.2c-0.7-0.1-1.3-0.1-1.5-0.5c-0.3-0.4-0.3-1.3-0.4-2.6l-0.1-8.6L141.9,1563.2"/>
	<path id="path14180-4-49" inkscape:connector-curvature="0" d="M125.6,1628c-4.3,0-7.4,3.2-7.4,7.5s3.1,7.5,7.4,7.5
		c4.3,0,7.4-3.2,7.4-7.5S129.9,1628,125.6,1628 M125.6,1628.7c3,0,5.2,2.7,5.2,6.8c0,4.1-2.1,6.8-5.2,6.8c-3.1,0-5.2-2.7-5.2-6.8
		C120.4,1631.4,122.6,1628.7,125.6,1628.7"/>
	<path id="path14182-3-6" inkscape:connector-curvature="0" d="M138.7,1635.6c0.3,0,0.9,0,1.2,0c1.3,0,2.2,0.2,2.6,0.4
		c0.4,0.3,0.6,1,0.6,1.5c0,0.1,0.1,0.2,0.3,0.2s0.3-0.1,0.3-0.2c0-0.7-0.1-1.5-0.1-2.3c0-0.7,0-1.3,0.1-2c0-0.2,0-0.2-0.3-0.2
		c-0.2,0-0.2,0.1-0.3,0.2c-0.1,0.5-0.2,1-0.6,1.3c-0.4,0.3-1.4,0.4-2.7,0.4c-0.4,0-0.9,0-1.2,0v-2.9c0-1.1,0-2,0.2-2.4
		c0.3-0.5,1-0.5,1.7-0.5c1.7,0,2.5,0.2,3.1,0.6c0.5,0.4,1,1.3,1.3,2c0,0.1,0.1,0.2,0.3,0.1c0.2,0,0.3-0.1,0.2-0.2
		c-0.1-1-0.3-2.2-0.4-3.2c-1.7,0.1-3.4,0.1-5,0.1s-3.5,0-5.2-0.1c-0.1,0-0.2,0.1-0.2,0.3c0,0.2,0,0.2,0.2,0.2
		c0.8,0.1,1.4,0.1,1.6,0.5c0.2,0.4,0.2,0.7,0.2,2.6v7.1c0,1.3,0,2.2-0.2,2.6s-0.7,0.4-1.4,0.5c-0.1,0-0.2,0-0.2,0.3
		c0,0.2,0,0.2,0.2,0.2c0.8-0.1,1.8-0.1,2.6-0.1s1.9,0,2.8,0.1c0.2,0,0.2,0,0.2-0.3c0-0.2,0-0.2-0.2-0.2c-0.8-0.1-1.4-0.1-1.6-0.5
		c-0.2-0.4-0.2-0.7-0.2-2.6L138.7,1635.6"/>
	<path id="path14184-5-9" inkscape:connector-curvature="0" d="M150.8,1635.6c0.3,0,0.9,0,1.2,0c1.3,0,2.2,0.2,2.6,0.4
		c0.4,0.3,0.6,1,0.6,1.5c0,0.1,0.1,0.2,0.3,0.2s0.3-0.1,0.3-0.2c0-0.7-0.1-1.5-0.1-2.3c0-0.7,0-1.3,0.1-2c0-0.2,0-0.2-0.3-0.2
		c-0.2,0-0.2,0.1-0.3,0.2c-0.1,0.5-0.2,1-0.6,1.3c-0.4,0.3-1.4,0.4-2.7,0.4c-0.4,0-0.9,0-1.2,0v-2.9c0-1.1,0-2,0.2-2.4
		c0.3-0.5,1-0.5,1.7-0.5c1.7,0,2.5,0.2,3.1,0.6c0.5,0.4,1,1.3,1.3,2c0,0.1,0.1,0.2,0.3,0.1c0.2,0,0.3-0.1,0.2-0.2
		c-0.1-1-0.3-2.2-0.4-3.2c-1.7,0.1-3.4,0.1-5,0.1s-3.5,0-5.2-0.1c-0.1,0-0.2,0.1-0.2,0.3c0,0.2,0,0.2,0.2,0.2
		c0.8,0.1,1.4,0.1,1.6,0.5c0.2,0.4,0.2,0.7,0.2,2.6v7.1c0,1.3,0,2.2-0.2,2.6s-0.7,0.4-1.4,0.5c-0.1,0-0.2,0-0.2,0.3
		c0,0.2,0,0.2,0.2,0.2c0.8-0.1,1.8-0.1,2.6-0.1s1.9,0,2.8,0.1c0.2,0,0.2,0,0.2-0.3c0-0.2,0-0.2-0.2-0.2c-0.8-0.1-1.4-0.1-1.6-0.5
		c-0.2-0.4-0.2-0.7-0.2-2.6L150.8,1635.6"/>
	<path id="rect18086" class="st0" d="M183.6,928.5h249.2c9.8,0,17.7,7.9,17.7,17.7v59.7c0,9.8-7.9,17.7-17.7,17.7H183.6
		c-9.8,0-17.7-7.9-17.7-17.7v-59.7C165.9,936.4,173.8,928.5,183.6,928.5L183.6,928.5z"/>
	<path id="rect18086-3" class="st0" d="M183.6,1055.6h249.2c9.8,0,17.7,7.9,17.7,17.7v59.7c0,9.8-7.9,17.7-17.7,17.7H183.6
		c-9.8,0-17.7-7.9-17.7-17.7v-59.7C165.9,1063.5,173.8,1055.6,183.6,1055.6L183.6,1055.6z"/>
	<path id="rect18086-1" class="st0" d="M183.6,1182.8h249.2c9.8,0,17.7,7.9,17.7,17.7v59.7c0,9.8-7.9,17.7-17.7,17.7H183.6
		c-9.8,0-17.7-7.9-17.7-17.7v-59.7C165.9,1190.7,173.8,1182.8,183.6,1182.8L183.6,1182.8z"/>
	<path id="rect18086-10" class="st0" d="M183.6,1310h249.2c9.8,0,17.7,7.9,17.7,17.7v59.7c0,9.8-7.9,17.7-17.7,17.7H183.6
		c-9.8,0-17.7-7.9-17.7-17.7v-59.7C165.9,1317.9,173.8,1310,183.6,1310L183.6,1310z"/>
	<path id="rect18086-9" class="st0" d="M183.6,1437.1h249.2c9.8,0,17.7,7.9,17.7,17.7v59.7c0,9.8-7.9,17.7-17.7,17.7H183.6
		c-9.8,0-17.7-7.9-17.7-17.7v-59.7C165.9,1445,173.8,1437.1,183.6,1437.1L183.6,1437.1z"/>
	<path id="rect18086-2" class="st0" d="M183.6,1564.3h249.2c9.8,0,17.7,7.9,17.7,17.7v59.7c0,9.8-7.9,17.7-17.7,17.7H183.6
		c-9.8,0-17.7-7.9-17.7-17.7V1582C165.9,1572.2,173.8,1564.3,183.6,1564.3L183.6,1564.3z"/>
	<path id="rect18086-5" class="st0" d="M183.6,1691.5h249.2c9.8,0,17.7,7.9,17.7,17.7v59.7c0,9.8-7.9,17.7-17.7,17.7H183.6
		c-9.8,0-17.7-7.9-17.7-17.7v-59.7C165.9,1699.4,173.8,1691.5,183.6,1691.5L183.6,1691.5z"/>
	<path id="rect18086-0" class="st0" d="M-183.2,928.5H7.4c9.8,0,17.7,7.9,17.7,17.7v59.7c0,9.8-7.9,17.7-17.7,17.7h-190.5
		c-9.8,0-17.7-7.9-17.7-17.7v-59.7C-200.9,936.4-193,928.5-183.2,928.5z"/>
	<path id="rect18086-0-4" class="st0" d="M-183.2,1055.6H7.4c9.8,0,17.7,7.9,17.7,17.7v59.7c0,9.8-7.9,17.7-17.7,17.7h-190.5
		c-9.8,0-17.7-7.9-17.7-17.7v-59.7C-200.9,1063.5-193,1055.6-183.2,1055.6z"/>
	<path id="rect18086-0-46" class="st0" d="M-183.2,1182.8H7.4c9.8,0,17.7,7.9,17.7,17.7v59.7c0,9.8-7.9,17.7-17.7,17.7h-190.5
		c-9.8,0-17.7-7.9-17.7-17.7v-59.7C-200.9,1190.7-193,1182.8-183.2,1182.8z"/>
	<path id="rect18086-0-0" class="st0" d="M-183.2,1310H7.4c9.8,0,17.7,7.9,17.7,17.7v59.7c0,9.8-7.9,17.7-17.7,17.7h-190.5
		c-9.8,0-17.7-7.9-17.7-17.7v-59.7C-200.9,1317.9-193,1310-183.2,1310z"/>
	<path id="rect18086-0-04" class="st0" d="M-183.2,1437.1H7.4c9.8,0,17.7,7.9,17.7,17.7v59.7c0,9.8-7.9,17.7-17.7,17.7h-190.5
		c-9.8,0-17.7-7.9-17.7-17.7v-59.7C-200.9,1445-193,1437.1-183.2,1437.1z"/>
	<path id="rect18086-0-7" class="st0" d="M-183.2,1564.3H7.4c9.8,0,17.7,7.9,17.7,17.7v59.7c0,9.8-7.9,17.7-17.7,17.7h-190.5
		c-9.8,0-17.7-7.9-17.7-17.7V1582C-200.9,1572.2-193,1564.3-183.2,1564.3z"/>
	<path id="rect18086-0-76" class="st0" d="M-183.2,1691.5H7.4c9.8,0,17.7,7.9,17.7,17.7v59.7c0,9.8-7.9,17.7-17.7,17.7h-190.5
		c-9.8,0-17.7-7.9-17.7-17.7v-59.7C-200.9,1699.4-193,1691.5-183.2,1691.5z"/>
	
		<path id="path16611-4" inkscape:connector-curvature="0" inkscape:label="part" sodipodi:nodetypes="ccccccccccccccc" class="st1" d="
		M507.1,914.2h10.6v-39h-10.6v-35.4h10.6v-39h-10.6v-35.4h10.6v-39h-10.6V691h10.6v-39"/>
	<path id="path18492-4" inkscape:connector-curvature="0" class="st1" d="M507.1,914.2v7.7"/>
	<path id="path18546" inkscape:connector-curvature="0" class="st1" d="M507.1,921.9v885.2"/>
	
		<path id="path16611-4-0" inkscape:connector-curvature="0" inkscape:label="part" sodipodi:nodetypes="ccccccccccccccc" class="st1" d="
		M550.3,910.2h-10.6v-39h10.6v-35.4h-10.6v-39h10.6v-35.4h-10.6v-39h10.6V687h-10.6v-39"/>
	<path id="path18492-4-0" inkscape:connector-curvature="0" class="st1" d="M550.3,910.2v7.7"/>
	<path id="path18546-8" inkscape:connector-curvature="0" class="st1" d="M550.3,917.9v885.2"/>
</g>
<g id="g15969" inkscape:groupmode="layer" inkscape:label="newlayer">
</g>
<g id="g16980" inkscape:groupmode="layer" inkscape:label="newlayer">
</g>
</svg>
