<?xml version="1.0" encoding="utf-8"?>
<!-- Generator: Adobe Illustrator 25.0.0, SVG Export Plug-In . SVG Version: 6.00 Build 0)  -->
<svg version="1.1"
	 id="svg911" inkscape:version="0.92.3 (2405546, 2018-03-11)" sodipodi:docname="desk_shelf.svg" xmlns:cc="http://creativecommons.org/ns#" xmlns:dc="http://purl.org/dc/elements/1.1/" xmlns:inkscape="http://www.inkscape.org/namespaces/inkscape" xmlns:rdf="http://www.w3.org/1999/02/22-rdf-syntax-ns#" xmlns:sodipodi="http://sodipodi.sourceforge.net/DTD/sodipodi-0.dtd" xmlns:svg="http://www.w3.org/2000/svg"
	 xmlns="http://www.w3.org/2000/svg" xmlns:xlink="http://www.w3.org/1999/xlink" x="0px" y="0px" viewBox="0 0 1728 1296"
	 style="enable-background:new 0 0 1728 1296;" xml:space="preserve">
<style type="text/css">
	.st0{fill:none;stroke:#000000;stroke-width:7.200000e-02;stroke-miterlimit:11.3386;}
	.st1{fill:none;stroke:#000000;stroke-width:7.200000e-02;stroke-miterlimit:10;}
</style>
<sodipodi:namedview  bordercolor="#666666" borderopacity="1" gridtolerance="10" guidetolerance="10" id="namedview913" inkscape:current-layer="g5132" inkscape:cx="301.42339" inkscape:cy="1271.6185" inkscape:document-units="mm" inkscape:measure-end="0,0" inkscape:measure-start="0,0" inkscape:pageopacity="0" inkscape:pageshadow="2" inkscape:window-height="1029" inkscape:window-maximized="1" inkscape:window-width="2560" inkscape:window-x="0" inkscape:window-y="0" inkscape:zoom="0.49099447" objecttolerance="10" pagecolor="#ffffff" showgrid="false" showguides="false" units="in">
	</sodipodi:namedview>
<g id="Sketch" transform="matrix(1,0,0,-1,51.285236,223.74548)">
	<g id="g5132">
		<path id="Sketch_w0000" inkscape:connector-curvature="0" sodipodi:nodetypes="cssccccccccccsscccc" class="st0" d="M137.9,210.3
			H-22.3c-9.4,0-17-7.6-17-17v-1207.6h94.5v15.6h70.9v-15.6h165.2v15.6h70.9v-15.6h94.5V193.3c0,9.4-7.6,17-17,17H279.6v-15.6H137.9
			V210.3"/>
		<g id="g1213" transform="translate(-12,8.0000001)">
			<path id="Sketch_w0003" inkscape:connector-curvature="0" class="st0" d="M25.4,164.3c-4.1,0-7.4-3-7.4-7.1s3.3-7.4,7.4-7.1
				h168.8c3.8-0.7,7.6,1.9,8.3,5.8c0.7,3.8-1.8,7.5-5.7,8.3c-0.9,0.2-1.7,0.2-2.6,0.1H25.4"/>
			<path id="Sketch_w0004" inkscape:connector-curvature="0" class="st0" d="M247.2,164.3c-3.9,0-7.1-3.2-7.1-7.1
				c0-3.9,3.2-7.1,7.1-7.1H416c3.9,0,7.1,3.2,7.1,7.1c0,3.9-3.2,7.1-7.1,7.1H247.2"/>
			<path id="Sketch_w0005" inkscape:connector-curvature="0" class="st0" d="M25.4,130.8c-4.6,0-8.3-2.5-8.3-7.1s3.7-8.3,8.3-7.1
				h168.8c3.8,0.7,6.4,4.5,5.7,8.4c-0.5,2.9-2.8,5.1-5.7,5.8H25.4"/>
			<path id="Sketch_w0006" inkscape:connector-curvature="0" class="st0" d="M247.2,130.8c-4,0-7.2-3.1-7.2-7.1s3.2-7.2,7.2-7.1H416
				c3.9,0,7.1,3.2,7.1,7.1s-3.2,7.1-7.1,7.1l0,0H247.2"/>
			<path id="Sketch_w0007" inkscape:connector-curvature="0" class="st0" d="M25.4,97.3c-4.1,0-7.4-3-7.4-7.1s3.3-7.4,7.4-7.1h168.8
				c3.9,0,7.1,3.2,7.1,7.1s-3.2,7.1-7.1,7.1l0,0H25.4"/>
			<path id="Sketch_w0008" inkscape:connector-curvature="0" class="st0" d="M247.2,97.3c-3.9,0-7.1-3.2-7.1-7.1s3.2-7.1,7.1-7.1
				H416c3.9,0,7.1,3.2,7.1,7.1s-3.2,7.1-7.1,7.1H247.2"/>
		</g>
		<g id="g1097" transform="translate(-12,5.8966398)">
			<path id="Sketch_w0001" inkscape:connector-curvature="0" class="st0" d="M67.3,41.1h70.9V25.5H67.3V41.1"/>
			<path id="Sketch_w0002" inkscape:connector-curvature="0" class="st0" d="M303.4,41.1h70.9V25.5h-70.9V41.1"/>
			<path id="Sketch_w0009" inkscape:connector-curvature="0" class="st0" d="M25.4-7.2C22-9,21-14.1,22.9-17.6
				c0.7-1.3,1.7-2.3,2.6-3.8h168.8c3.9,0,7.1,3.1,7.1,7.1c0,3.9-3.2,7.1-7.1,7.1L25.4-7.2"/>
			<path id="Sketch_w0010" inkscape:connector-curvature="0" class="st0" d="M25.4-40.7c-3.9,0-7.1-3.2-7.1-7.1s3.2-7.1,7.1-7.1l0,0
				h168.8c3.9,0,7.1,3.2,7.1,7.1s-3.2,7.1-7.1,7.1H25.4"/>
			<path id="Sketch_w0011" inkscape:connector-curvature="0" class="st0" d="M25.4-74.2c-4.4,0-7.9-2.7-7.9-7.1s3.5-7.9,7.9-7.1
				h168.8c3.9,0,7.1,3.1,7.1,7.1c0,3.9-3.2,7.1-7.1,7.1l0,0H25.4"/>
			<path id="Sketch_w0012" inkscape:connector-curvature="0" class="st0" d="M247.2-7.2c-4,0-7.3-3.1-7.3-7.1s3.2-7.3,7.3-7.1H416
				c3.9,0.1,7,3.4,6.9,7.3c-0.1,3.7-3.1,6.7-6.9,6.9L247.2-7.2"/>
			<path id="Sketch_w0013" inkscape:connector-curvature="0" class="st0" d="M247.2-40.7c-3.9,0-7.1-3.1-7.1-7.1
				c0-3.9,3.2-7.1,7.1-7.1H416c3.9,0,7.1,3.2,7.1,7.1s-3.2,7.1-7.1,7.1H247.2"/>
			<path id="Sketch_w0014" inkscape:connector-curvature="0" class="st0" d="M247.2-74.2c-3.9-0.4-6.8-3.8-6.4-7.7
				c0.3-3.4,3-6.1,6.4-6.4H416c3.9,0,7.1,3.2,7.1,7.1s-3.2,7.1-7.1,7.1L247.2-74.2"/>
		</g>
		<g id="g1115" transform="translate(-12,-46.819466)">
			<path id="path1099" inkscape:connector-curvature="0" class="st0" d="M67.3-55.6h70.9v-15.6H67.3V-55.6"/>
			<path id="path1101" inkscape:connector-curvature="0" class="st0" d="M303.4-55.6h70.9v-15.6h-70.9V-55.6"/>
			<path id="path1103" inkscape:connector-curvature="0" class="st0" d="M25.4-103.9c-3.5-1.8-4.4-6.9-2.6-10.4
				c0.7-1.3,1.7-2.3,2.6-3.8h168.8c3.9,0,7.1,3.1,7.1,7.1c0,3.9-3.2,7.1-7.1,7.1L25.4-103.9"/>
			<path id="path1105" inkscape:connector-curvature="0" class="st0" d="M25.4-137.4c-3.9,0-7.1-3.2-7.1-7.1c0-3.9,3.2-7.1,7.1-7.1
				l0,0h168.8c3.9,0,7.1,3.2,7.1,7.1c0,3.9-3.2,7.1-7.1,7.1H25.4"/>
			<path id="path1107" inkscape:connector-curvature="0" class="st0" d="M25.4-170.9c-4.4,0-7.9-2.7-7.9-7.1c0-4.4,3.5-7.9,7.9-7.1
				h168.8c3.9,0,7.1,3.1,7.1,7.1c0,3.9-3.2,7.1-7.1,7.1l0,0H25.4"/>
			<path id="path1109" inkscape:connector-curvature="0" class="st0" d="M247.2-103.9c-4,0-7.3-3.1-7.3-7.1s3.2-7.3,7.3-7.1H416
				c3.9,0.1,7,3.4,6.9,7.3c-0.1,3.7-3.1,6.7-6.9,6.9L247.2-103.9"/>
			<path id="path1111" inkscape:connector-curvature="0" class="st0" d="M247.2-137.4c-3.9,0-7.1-3.1-7.1-7.1c0-3.9,3.2-7.1,7.1-7.1
				H416c3.9,0,7.1,3.2,7.1,7.1c0,3.9-3.2,7.1-7.1,7.1H247.2"/>
			<path id="path1113" inkscape:connector-curvature="0" class="st0" d="M247.2-170.9c-3.9-0.4-6.8-3.8-6.4-7.7
				c0.3-3.4,3-6.1,6.4-6.4H416c3.9,0,7.1,3.2,7.1,7.1s-3.2,7.1-7.1,7.1H247.2"/>
		</g>
		<g id="g1133" transform="translate(-12,-99.53557)">
			<path id="path1117" inkscape:connector-curvature="0" class="st0" d="M67.3-152.3h70.9v-15.6H67.3V-152.3"/>
			<path id="path1119" inkscape:connector-curvature="0" class="st0" d="M303.4-152.3h70.9v-15.6h-70.9V-152.3"/>
			<path id="path1121" inkscape:connector-curvature="0" class="st0" d="M25.4-200.6c-3.5-1.8-4.4-6.9-2.6-10.4
				c0.7-1.3,1.7-2.3,2.6-3.8h168.8c3.9,0,7.1,3.1,7.1,7.1c0,3.9-3.2,7.1-7.1,7.1L25.4-200.6"/>
			<path id="path1123" inkscape:connector-curvature="0" class="st0" d="M25.4-234.1c-3.9,0-7.1-3.2-7.1-7.1c0-3.9,3.2-7.1,7.1-7.1
				l0,0h168.8c3.9,0,7.1,3.2,7.1,7.1c0,3.9-3.2,7.1-7.1,7.1H25.4"/>
			<path id="path1125" inkscape:connector-curvature="0" class="st0" d="M25.4-267.6c-4.4,0-7.9-2.7-7.9-7.1s3.5-7.9,7.9-7.1h168.8
				c3.9,0,7.1,3.1,7.1,7.1c0,3.9-3.2,7.1-7.1,7.1l0,0H25.4"/>
			<path id="path1127" inkscape:connector-curvature="0" class="st0" d="M247.2-200.6c-4,0-7.3-3.1-7.3-7.1s3.2-7.3,7.3-7.1H416
				c3.9,0.1,7,3.4,6.9,7.3c-0.1,3.7-3.1,6.7-6.9,6.9L247.2-200.6"/>
			<path id="path1129" inkscape:connector-curvature="0" class="st0" d="M247.2-234.1c-3.9,0-7.1-3.1-7.1-7.1c0-3.9,3.2-7.1,7.1-7.1
				H416c3.9,0,7.1,3.2,7.1,7.1c0,3.9-3.2,7.1-7.1,7.1H247.2"/>
			<path id="path1131" inkscape:connector-curvature="0" class="st0" d="M247.2-267.6c-3.9-0.4-6.8-3.8-6.4-7.7
				c0.3-3.4,3-6.1,6.4-6.4H416c3.9,0,7.1,3.2,7.1,7.1s-3.2,7.1-7.1,7.1H247.2"/>
		</g>
		<g id="g1151" transform="translate(-12,-152.25168)">
			<path id="path1135" inkscape:connector-curvature="0" class="st0" d="M67.3-249h70.9v-15.6H67.3V-249"/>
			<path id="path1137" inkscape:connector-curvature="0" class="st0" d="M303.4-249h70.9v-15.6h-70.9V-249"/>
			<path id="path1139" inkscape:connector-curvature="0" class="st0" d="M25.4-297.3c-3.5-1.8-4.4-6.9-2.6-10.4
				c0.7-1.3,1.7-2.3,2.6-3.8h168.8c3.9,0,7.1,3.1,7.1,7.1c0,3.9-3.2,7.1-7.1,7.1L25.4-297.3"/>
			<path id="path1141" inkscape:connector-curvature="0" class="st0" d="M25.4-330.8c-3.9,0-7.1-3.2-7.1-7.1s3.2-7.1,7.1-7.1l0,0
				h168.8c3.9,0,7.1,3.2,7.1,7.1s-3.2,7.1-7.1,7.1H25.4"/>
			<path id="path1143" inkscape:connector-curvature="0" class="st0" d="M25.4-364.3c-4.4,0-7.9-2.7-7.9-7.1s3.5-7.9,7.9-7.1h168.8
				c3.9,0,7.1,3.1,7.1,7.1c0,3.9-3.2,7.1-7.1,7.1l0,0H25.4"/>
			<path id="path1145" inkscape:connector-curvature="0" class="st0" d="M247.2-297.3c-4,0-7.3-3.1-7.3-7.1s3.2-7.3,7.3-7.1H416
				c3.9,0.1,7,3.4,6.9,7.3c-0.1,3.7-3.1,6.7-6.9,6.9L247.2-297.3"/>
			<path id="path1147" inkscape:connector-curvature="0" class="st0" d="M247.2-330.8c-3.9,0-7.1-3.1-7.1-7.1c0-3.9,3.2-7.1,7.1-7.1
				H416c3.9,0,7.1,3.2,7.1,7.1s-3.2,7.1-7.1,7.1H247.2"/>
			<path id="path1149" inkscape:connector-curvature="0" class="st0" d="M247.2-364.3c-3.9-0.4-6.8-3.8-6.4-7.7
				c0.3-3.4,3-6.1,6.4-6.4H416c3.9,0,7.1,3.2,7.1,7.1s-3.2,7.1-7.1,7.1H247.2"/>
		</g>
		<g id="g1169" transform="translate(-12,-204.96777)">
			<path id="path1153" inkscape:connector-curvature="0" class="st0" d="M67.3-345.8h70.9v-15.6H67.3V-345.8"/>
			<path id="path1155" inkscape:connector-curvature="0" class="st0" d="M303.4-345.8h70.9v-15.6h-70.9V-345.8"/>
			<path id="path1157" inkscape:connector-curvature="0" class="st0" d="M25.4-394c-3.5-1.8-4.4-6.9-2.6-10.4
				c0.7-1.3,1.7-2.3,2.6-3.8h168.8c3.9,0,7.1,3.1,7.1,7.1c0,3.9-3.2,7.1-7.1,7.1L25.4-394"/>
			<path id="path1159" inkscape:connector-curvature="0" class="st0" d="M25.4-427.5c-3.9,0-7.1-3.2-7.1-7.1s3.2-7.1,7.1-7.1l0,0
				h168.8c3.9,0,7.1,3.2,7.1,7.1s-3.2,7.1-7.1,7.1H25.4"/>
			<path id="path1161" inkscape:connector-curvature="0" class="st0" d="M25.4-461c-4.4,0-7.9-2.7-7.9-7.1s3.5-7.9,7.9-7.1h168.8
				c3.9,0,7.1,3.1,7.1,7.1c0,3.9-3.2,7.1-7.1,7.1l0,0H25.4"/>
			<path id="path1163" inkscape:connector-curvature="0" class="st0" d="M247.2-394c-4,0-7.3-3.1-7.3-7.1s3.2-7.3,7.3-7.1H416
				c3.9,0.1,7,3.4,6.9,7.3c-0.1,3.7-3.1,6.7-6.9,6.9L247.2-394"/>
			<path id="path1165" inkscape:connector-curvature="0" class="st0" d="M247.2-427.5c-3.9,0-7.1-3.1-7.1-7.1c0-3.9,3.2-7.1,7.1-7.1
				H416c3.9,0,7.1,3.2,7.1,7.1s-3.2,7.1-7.1,7.1H247.2"/>
			<path id="path1167" inkscape:connector-curvature="0" class="st0" d="M247.2-461c-3.9-0.4-6.8-3.8-6.4-7.7c0.3-3.4,3-6.1,6.4-6.4
				H416c3.9,0,7.1,3.2,7.1,7.1s-3.2,7.1-7.1,7.1H247.2"/>
		</g>
		<g id="g1187" transform="translate(-12,-257.68389)">
			<path id="path1171" inkscape:connector-curvature="0" class="st0" d="M67.3-442.5h70.9v-15.6H67.3V-442.5"/>
			<path id="path1173" inkscape:connector-curvature="0" class="st0" d="M303.4-442.5h70.9v-15.6h-70.9V-442.5"/>
			<path id="path1175" inkscape:connector-curvature="0" class="st0" d="M25.4-490.8c-3.5-1.8-4.4-6.9-2.6-10.4
				c0.7-1.3,1.7-2.3,2.6-3.8h168.8c3.9,0,7.1,3.1,7.1,7.1c0,3.9-3.2,7.1-7.1,7.1L25.4-490.8"/>
			<path id="path1177" inkscape:connector-curvature="0" class="st0" d="M25.4-524.2c-3.9,0-7.1-3.2-7.1-7.1c0-3.9,3.2-7.1,7.1-7.1
				l0,0h168.8c3.9,0,7.1,3.2,7.1,7.1s-3.2,7.1-7.1,7.1H25.4"/>
			<path id="path1179" inkscape:connector-curvature="0" class="st0" d="M25.4-557.7c-4.4,0-7.9-2.7-7.9-7.1c0-4.4,3.5-7.9,7.9-7.1
				h168.8c3.9,0,7.1,3.1,7.1,7.1c0,3.9-3.2,7.1-7.1,7.1l0,0H25.4"/>
			<path id="path1181" inkscape:connector-curvature="0" class="st0" d="M247.2-490.8c-4,0-7.3-3.1-7.3-7.1s3.2-7.3,7.3-7.1H416
				c3.9,0.1,7,3.4,6.9,7.3c-0.1,3.7-3.1,6.7-6.9,6.9L247.2-490.8"/>
			<path id="path1183" inkscape:connector-curvature="0" class="st0" d="M247.2-524.2c-3.9,0-7.1-3.1-7.1-7.1c0-3.9,3.2-7.1,7.1-7.1
				H416c3.9,0,7.1,3.2,7.1,7.1c0,3.9-3.2,7.1-7.1,7.1H247.2"/>
			<path id="path1185" inkscape:connector-curvature="0" class="st0" d="M247.2-557.7c-3.9-0.4-6.8-3.8-6.4-7.7
				c0.3-3.4,3-6.1,6.4-6.4H416c3.9,0,7.1,3.2,7.1,7.1s-3.2,7.1-7.1,7.1L247.2-557.7"/>
		</g>
		<g id="g1205" transform="translate(-12,-310.4)">
			<path id="path1189" inkscape:connector-curvature="0" class="st0" d="M67.3-539.2h70.9v-15.6H67.3V-539.2"/>
			<path id="path1191" inkscape:connector-curvature="0" class="st0" d="M303.4-539.2h70.9v-15.6h-70.9V-539.2"/>
			<path id="path1193" inkscape:connector-curvature="0" class="st0" d="M25.4-587.5c-3.5-1.8-4.4-6.9-2.6-10.4
				c0.7-1.3,1.7-2.3,2.6-3.8h168.8c3.9,0,7.1,3.1,7.1,7.1c0,3.9-3.2,7.1-7.1,7.1L25.4-587.5"/>
			<path id="path1195" inkscape:connector-curvature="0" class="st0" d="M25.4-621c-3.9,0-7.1-3.2-7.1-7.1c0-3.9,3.2-7.1,7.1-7.1
				l0,0h168.8c3.9,0,7.1,3.2,7.1,7.1c0,3.9-3.2,7.1-7.1,7.1H25.4"/>
			<path id="path1197" inkscape:connector-curvature="0" class="st0" d="M25.4-654.4c-4.4,0-7.9-2.7-7.9-7.1c0-4.4,3.5-7.9,7.9-7.1
				h168.8c3.9,0,7.1,3.1,7.1,7.1c0,3.9-3.2,7.1-7.1,7.1l0,0H25.4"/>
			<path id="path1199" inkscape:connector-curvature="0" class="st0" d="M247.2-587.5c-4,0-7.3-3.1-7.3-7.1s3.2-7.3,7.3-7.1H416
				c3.9,0.1,7,3.4,6.9,7.3c-0.1,3.7-3.1,6.7-6.9,6.9L247.2-587.5"/>
			<path id="path1201" inkscape:connector-curvature="0" class="st0" d="M247.2-621c-3.9,0-7.1-3.1-7.1-7.1c0-3.9,3.2-7.1,7.1-7.1
				H416c3.9,0,7.1,3.2,7.1,7.1s-3.2,7.1-7.1,7.1H247.2"/>
			<path id="path1203" inkscape:connector-curvature="0" class="st0" d="M247.2-654.4c-3.9-0.4-6.8-3.8-6.4-7.7
				c0.3-3.4,3-6.1,6.4-6.4H416c3.9,0,7.1,3.2,7.1,7.1c0,3.9-3.2,7.1-7.1,7.1L247.2-654.4"/>
		</g>
		<path id="path1215" inkscape:connector-curvature="0" sodipodi:nodetypes="cssccccccccccsscccc" class="st0" d="M636.8,210.3
			H476.6c-9.4,0-17-7.6-17-17v-1207.6h94.5v15.6H625v-15.6h165.2v15.6h70.9v-15.6h94.5V193.3c0,9.4-7.6,17-17,17H778.5v-15.6H636.8
			V210.3"/>
		<g id="g1229" transform="translate(164,8.0000001)">
			<path id="path1217" inkscape:connector-curvature="0" class="st0" d="M348.3,164.3c-4.1,0-7.4-3-7.4-7.1s3.3-7.4,7.4-7.1h168.8
				c3.8-0.7,7.6,1.9,8.3,5.8c0.7,3.8-1.8,7.5-5.7,8.3c-0.9,0.2-1.7,0.2-2.6,0.1H348.3"/>
			<path id="path1219" inkscape:connector-curvature="0" class="st0" d="M570.1,164.3c-3.9,0-7.1-3.2-7.1-7.1c0-3.9,3.2-7.1,7.1-7.1
				h168.8c3.9,0,7.1,3.2,7.1,7.1c0,3.9-3.2,7.1-7.1,7.1H570.1"/>
			<path id="path1221" inkscape:connector-curvature="0" class="st0" d="M348.3,130.8c-4.6,0-8.3-2.5-8.3-7.1s3.7-8.3,8.3-7.1h168.8
				c3.8,0.7,6.4,4.5,5.7,8.4c-0.5,2.9-2.8,5.1-5.7,5.8H348.3"/>
			<path id="path1223" inkscape:connector-curvature="0" class="st0" d="M570.1,130.8c-4,0-7.2-3.1-7.2-7.1s3.2-7.2,7.2-7.1h168.8
				c3.9,0,7.1,3.2,7.1,7.1s-3.2,7.1-7.1,7.1l0,0H570.1"/>
			<path id="path1225" inkscape:connector-curvature="0" class="st0" d="M348.3,97.3c-4.1,0-7.4-3-7.4-7.1s3.3-7.4,7.4-7.1h168.8
				c3.9,0,7.1,3.2,7.1,7.1s-3.2,7.1-7.1,7.1l0,0H348.3"/>
			<path id="path1227" inkscape:connector-curvature="0" class="st0" d="M570.1,97.3c-3.9,0-7.1-3.2-7.1-7.1s3.2-7.1,7.1-7.1h168.8
				c3.9,0,7.1,3.2,7.1,7.1s-3.2,7.1-7.1,7.1H570.1"/>
		</g>
		<g id="g1247" transform="translate(164,5.8966398)">
			<path id="path1231" inkscape:connector-curvature="0" class="st0" d="M390.2,41.1H461V25.5h-70.9v15.6"/>
			<path id="path1233" inkscape:connector-curvature="0" class="st0" d="M626.2,41.1h70.9V25.5h-70.9V41.1"/>
			<path id="path1235" inkscape:connector-curvature="0" class="st0" d="M348.3-7.2c-3.5-1.8-4.4-6.9-2.6-10.4
				c0.7-1.3,1.7-2.3,2.6-3.8h168.8c3.9,0,7.1,3.1,7.1,7.1c0,3.9-3.2,7.1-7.1,7.1L348.3-7.2"/>
			<path id="path1237" inkscape:connector-curvature="0" class="st0" d="M348.3-40.7c-3.9,0-7.1-3.2-7.1-7.1s3.2-7.1,7.1-7.1l0,0
				h168.8c3.9,0,7.1,3.2,7.1,7.1s-3.2,7.1-7.1,7.1H348.3"/>
			<path id="path1239" inkscape:connector-curvature="0" class="st0" d="M348.3-74.2c-4.4,0-7.9-2.7-7.9-7.1s3.5-7.9,7.9-7.1h168.8
				c3.9,0,7.1,3.1,7.1,7.1c0,3.9-3.2,7.1-7.1,7.1l0,0H348.3"/>
			<path id="path1241" inkscape:connector-curvature="0" class="st0" d="M570.1-7.2c-4,0-7.3-3.1-7.3-7.1s3.2-7.3,7.3-7.1h168.8
				c3.9,0.1,7,3.4,6.9,7.3c-0.1,3.7-3.1,6.7-6.9,6.9L570.1-7.2"/>
			<path id="path1243" inkscape:connector-curvature="0" class="st0" d="M570.1-40.7c-3.9,0-7.1-3.1-7.1-7.1c0-3.9,3.2-7.1,7.1-7.1
				h168.8c3.9,0,7.1,3.2,7.1,7.1s-3.2,7.1-7.1,7.1H570.1"/>
			<path id="path1245" inkscape:connector-curvature="0" class="st0" d="M570.1-74.2c-3.9-0.4-6.8-3.8-6.4-7.7
				c0.3-3.4,3-6.1,6.4-6.4h168.8c3.9,0,7.1,3.2,7.1,7.1s-3.2,7.1-7.1,7.1L570.1-74.2"/>
		</g>
		<g id="g1265" transform="translate(164,-46.819466)">
			<path id="path1249" inkscape:connector-curvature="0" class="st0" d="M390.2-55.6H461v-15.6h-70.9v15.6"/>
			<path id="path1251" inkscape:connector-curvature="0" class="st0" d="M626.2-55.6h70.9v-15.6h-70.9V-55.6"/>
			<path id="path1253" inkscape:connector-curvature="0" class="st0" d="M348.3-103.9c-3.5-1.8-4.4-6.9-2.6-10.4
				c0.7-1.3,1.7-2.3,2.6-3.8h168.8c3.9,0,7.1,3.1,7.1,7.1c0,3.9-3.2,7.1-7.1,7.1L348.3-103.9"/>
			<path id="path1255" inkscape:connector-curvature="0" class="st0" d="M348.3-137.4c-3.9,0-7.1-3.2-7.1-7.1c0-3.9,3.2-7.1,7.1-7.1
				l0,0h168.8c3.9,0,7.1,3.2,7.1,7.1c0,3.9-3.2,7.1-7.1,7.1H348.3"/>
			<path id="path1257" inkscape:connector-curvature="0" class="st0" d="M348.3-170.9c-4.4,0-7.9-2.7-7.9-7.1c0-4.4,3.5-7.9,7.9-7.1
				h168.8c3.9,0,7.1,3.1,7.1,7.1c0,3.9-3.2,7.1-7.1,7.1l0,0H348.3"/>
			<path id="path1259" inkscape:connector-curvature="0" class="st0" d="M570.1-103.9c-4,0-7.3-3.1-7.3-7.1s3.2-7.3,7.3-7.1h168.8
				c3.9,0.1,7,3.4,6.9,7.3c-0.1,3.7-3.1,6.7-6.9,6.9L570.1-103.9"/>
			<path id="path1261" inkscape:connector-curvature="0" class="st0" d="M570.1-137.4c-3.9,0-7.1-3.1-7.1-7.1c0-3.9,3.2-7.1,7.1-7.1
				h168.8c3.9,0,7.1,3.2,7.1,7.1c0,3.9-3.2,7.1-7.1,7.1H570.1"/>
			<path id="path1263" inkscape:connector-curvature="0" class="st0" d="M570.1-170.9c-3.9-0.4-6.8-3.8-6.4-7.7
				c0.3-3.4,3-6.1,6.4-6.4h168.8c3.9,0,7.1,3.2,7.1,7.1s-3.2,7.1-7.1,7.1H570.1"/>
		</g>
		<g id="g1283" transform="translate(164,-99.53557)">
			<path id="path1267" inkscape:connector-curvature="0" class="st0" d="M390.2-152.3H461v-15.6h-70.9v15.6"/>
			<path id="path1269" inkscape:connector-curvature="0" class="st0" d="M626.2-152.3h70.9v-15.6h-70.9V-152.3"/>
			<path id="path1271" inkscape:connector-curvature="0" class="st0" d="M348.3-200.6c-3.5-1.8-4.4-6.9-2.6-10.4
				c0.7-1.3,1.7-2.3,2.6-3.8h168.8c3.9,0,7.1,3.1,7.1,7.1c0,3.9-3.2,7.1-7.1,7.1L348.3-200.6"/>
			<path id="path1273" inkscape:connector-curvature="0" class="st0" d="M348.3-234.1c-3.9,0-7.1-3.2-7.1-7.1c0-3.9,3.2-7.1,7.1-7.1
				l0,0h168.8c3.9,0,7.1,3.2,7.1,7.1c0,3.9-3.2,7.1-7.1,7.1H348.3"/>
			<path id="path1275" inkscape:connector-curvature="0" class="st0" d="M348.3-267.6c-4.4,0-7.9-2.7-7.9-7.1s3.5-7.9,7.9-7.1h168.8
				c3.9,0,7.1,3.1,7.1,7.1c0,3.9-3.2,7.1-7.1,7.1l0,0H348.3"/>
			<path id="path1277" inkscape:connector-curvature="0" class="st0" d="M570.1-200.6c-4,0-7.3-3.1-7.3-7.1s3.2-7.3,7.3-7.1h168.8
				c3.9,0.1,7,3.4,6.9,7.3c-0.1,3.7-3.1,6.7-6.9,6.9L570.1-200.6"/>
			<path id="path1279" inkscape:connector-curvature="0" class="st0" d="M570.1-234.1c-3.9,0-7.1-3.1-7.1-7.1c0-3.9,3.2-7.1,7.1-7.1
				h168.8c3.9,0,7.1,3.2,7.1,7.1c0,3.9-3.2,7.1-7.1,7.1H570.1"/>
			<path id="path1281" inkscape:connector-curvature="0" class="st0" d="M570.1-267.6c-3.9-0.4-6.8-3.8-6.4-7.7
				c0.3-3.4,3-6.1,6.4-6.4h168.8c3.9,0,7.1,3.2,7.1,7.1s-3.2,7.1-7.1,7.1H570.1"/>
		</g>
		<g id="g1301" transform="translate(164,-152.25168)">
			<path id="path1285" inkscape:connector-curvature="0" class="st0" d="M390.2-249H461v-15.6h-70.9v15.6"/>
			<path id="path1287" inkscape:connector-curvature="0" class="st0" d="M626.2-249h70.9v-15.6h-70.9V-249"/>
			<path id="path1289" inkscape:connector-curvature="0" class="st0" d="M348.3-297.3c-3.5-1.8-4.4-6.9-2.6-10.4
				c0.7-1.3,1.7-2.3,2.6-3.8h168.8c3.9,0,7.1,3.1,7.1,7.1c0,3.9-3.2,7.1-7.1,7.1L348.3-297.3"/>
			<path id="path1291" inkscape:connector-curvature="0" class="st0" d="M348.3-330.8c-3.9,0-7.1-3.2-7.1-7.1s3.2-7.1,7.1-7.1l0,0
				h168.8c3.9,0,7.1,3.2,7.1,7.1s-3.2,7.1-7.1,7.1H348.3"/>
			<path id="path1293" inkscape:connector-curvature="0" class="st0" d="M348.3-364.3c-4.4,0-7.9-2.7-7.9-7.1s3.5-7.9,7.9-7.1h168.8
				c3.9,0,7.1,3.1,7.1,7.1c0,3.9-3.2,7.1-7.1,7.1l0,0H348.3"/>
			<path id="path1295" inkscape:connector-curvature="0" class="st0" d="M570.1-297.3c-4,0-7.3-3.1-7.3-7.1s3.2-7.3,7.3-7.1h168.8
				c3.9,0.1,7,3.4,6.9,7.3c-0.1,3.7-3.1,6.7-6.9,6.9L570.1-297.3"/>
			<path id="path1297" inkscape:connector-curvature="0" class="st0" d="M570.1-330.8c-3.9,0-7.1-3.1-7.1-7.1c0-3.9,3.2-7.1,7.1-7.1
				h168.8c3.9,0,7.1,3.2,7.1,7.1s-3.2,7.1-7.1,7.1H570.1"/>
			<path id="path1299" inkscape:connector-curvature="0" class="st0" d="M570.1-364.3c-3.9-0.4-6.8-3.8-6.4-7.7
				c0.3-3.4,3-6.1,6.4-6.4h168.8c3.9,0,7.1,3.2,7.1,7.1s-3.2,7.1-7.1,7.1H570.1"/>
		</g>
		<g id="g1319" transform="translate(164,-204.96777)">
			<path id="path1303" inkscape:connector-curvature="0" class="st0" d="M390.2-345.8H461v-15.6h-70.9v15.6"/>
			<path id="path1305" inkscape:connector-curvature="0" class="st0" d="M626.2-345.8h70.9v-15.6h-70.9V-345.8"/>
			<path id="path1307" inkscape:connector-curvature="0" class="st0" d="M348.3-394c-3.5-1.8-4.4-6.9-2.6-10.4
				c0.7-1.3,1.7-2.3,2.6-3.8h168.8c3.9,0,7.1,3.1,7.1,7.1c0,3.9-3.2,7.1-7.1,7.1L348.3-394"/>
			<path id="path1309" inkscape:connector-curvature="0" class="st0" d="M348.3-427.5c-3.9,0-7.1-3.2-7.1-7.1s3.2-7.1,7.1-7.1l0,0
				h168.8c3.9,0,7.1,3.2,7.1,7.1s-3.2,7.1-7.1,7.1H348.3"/>
			<path id="path1311" inkscape:connector-curvature="0" class="st0" d="M348.3-461c-4.4,0-7.9-2.7-7.9-7.1s3.5-7.9,7.9-7.1h168.8
				c3.9,0,7.1,3.1,7.1,7.1c0,3.9-3.2,7.1-7.1,7.1l0,0H348.3"/>
			<path id="path1313" inkscape:connector-curvature="0" class="st0" d="M570.1-394c-4,0-7.3-3.1-7.3-7.1s3.2-7.3,7.3-7.1h168.8
				c3.9,0.1,7,3.4,6.9,7.3c-0.1,3.7-3.1,6.7-6.9,6.9L570.1-394"/>
			<path id="path1315" inkscape:connector-curvature="0" class="st0" d="M570.1-427.5c-3.9,0-7.1-3.1-7.1-7.1c0-3.9,3.2-7.1,7.1-7.1
				h168.8c3.9,0,7.1,3.2,7.1,7.1s-3.2,7.1-7.1,7.1H570.1"/>
			<path id="path1317" inkscape:connector-curvature="0" class="st0" d="M570.1-461c-3.9-0.4-6.8-3.8-6.4-7.7c0.3-3.4,3-6.1,6.4-6.4
				h168.8c3.9,0,7.1,3.2,7.1,7.1s-3.2,7.1-7.1,7.1H570.1"/>
		</g>
		<g id="g1337" transform="translate(164,-257.68389)">
			<path id="path1321" inkscape:connector-curvature="0" class="st0" d="M390.2-442.5H461v-15.6h-70.9v15.6"/>
			<path id="path1323" inkscape:connector-curvature="0" class="st0" d="M626.2-442.5h70.9v-15.6h-70.9V-442.5"/>
			<path id="path1325" inkscape:connector-curvature="0" class="st0" d="M348.3-490.8c-3.5-1.8-4.4-6.9-2.6-10.4
				c0.7-1.3,1.7-2.3,2.6-3.8h168.8c3.9,0,7.1,3.1,7.1,7.1c0,3.9-3.2,7.1-7.1,7.1L348.3-490.8"/>
			<path id="path1327" inkscape:connector-curvature="0" class="st0" d="M348.3-524.2c-3.9,0-7.1-3.2-7.1-7.1c0-3.9,3.2-7.1,7.1-7.1
				l0,0h168.8c3.9,0,7.1,3.2,7.1,7.1s-3.2,7.1-7.1,7.1H348.3"/>
			<path id="path1329" inkscape:connector-curvature="0" class="st0" d="M348.3-557.7c-4.4,0-7.9-2.7-7.9-7.1s3.5-7.9,7.9-7.1h168.8
				c3.9,0,7.1,3.1,7.1,7.1c0,3.9-3.2,7.1-7.1,7.1l0,0H348.3"/>
			<path id="path1331" inkscape:connector-curvature="0" class="st0" d="M570.1-490.8c-4,0-7.3-3.1-7.3-7.1s3.2-7.3,7.3-7.1h168.8
				c3.9,0.1,7,3.4,6.9,7.3c-0.1,3.7-3.1,6.7-6.9,6.9L570.1-490.8"/>
			<path id="path1333" inkscape:connector-curvature="0" class="st0" d="M570.1-524.2c-3.9,0-7.1-3.1-7.1-7.1c0-3.9,3.2-7.1,7.1-7.1
				h168.8c3.9,0,7.1,3.2,7.1,7.1c0,3.9-3.2,7.1-7.1,7.1H570.1"/>
			<path id="path1335" inkscape:connector-curvature="0" class="st0" d="M570.1-557.7c-3.9-0.4-6.8-3.8-6.4-7.7
				c0.3-3.4,3-6.1,6.4-6.4h168.8c3.9,0,7.1,3.2,7.1,7.1s-3.2,7.1-7.1,7.1L570.1-557.7"/>
		</g>
		<g id="g1355" transform="translate(164,-310.4)">
			<path id="path1339" inkscape:connector-curvature="0" class="st0" d="M390.2-539.2H461v-15.6h-70.9v15.6"/>
			<path id="path1341" inkscape:connector-curvature="0" class="st0" d="M626.2-539.2h70.9v-15.6h-70.9V-539.2"/>
			<path id="path1343" inkscape:connector-curvature="0" class="st0" d="M348.3-587.5c-3.5-1.8-4.4-6.9-2.6-10.4
				c0.7-1.3,1.7-2.3,2.6-3.8h168.8c3.9,0,7.1,3.1,7.1,7.1c0,3.9-3.2,7.1-7.1,7.1L348.3-587.5"/>
			<path id="path1345" inkscape:connector-curvature="0" class="st0" d="M348.3-621c-3.9,0-7.1-3.2-7.1-7.1c0-3.9,3.2-7.1,7.1-7.1
				l0,0h168.8c3.9,0,7.1,3.2,7.1,7.1c0,3.9-3.2,7.1-7.1,7.1H348.3"/>
			<path id="path1347" inkscape:connector-curvature="0" class="st0" d="M348.3-654.4c-4.4,0-7.9-2.7-7.9-7.1s3.5-7.9,7.9-7.1h168.8
				c3.9,0,7.1,3.1,7.1,7.1c0,3.9-3.2,7.1-7.1,7.1l0,0H348.3"/>
			<path id="path1349" inkscape:connector-curvature="0" class="st0" d="M570.1-587.5c-4,0-7.3-3.1-7.3-7.1s3.2-7.3,7.3-7.1h168.8
				c3.9,0.1,7,3.4,6.9,7.3c-0.1,3.7-3.1,6.7-6.9,6.9L570.1-587.5"/>
			<path id="path1351" inkscape:connector-curvature="0" class="st0" d="M570.1-621c-3.9,0-7.1-3.1-7.1-7.1c0-3.9,3.2-7.1,7.1-7.1
				h168.8c3.9,0,7.1,3.2,7.1,7.1s-3.2,7.1-7.1,7.1H570.1"/>
			<path id="path1353" inkscape:connector-curvature="0" class="st0" d="M570.1-654.4c-3.9-0.4-6.8-3.8-6.4-7.7
				c0.3-3.4,3-6.1,6.4-6.4h168.8c3.9,0,7.1,3.2,7.1,7.1c0,3.9-3.2,7.1-7.1,7.1L570.1-654.4"/>
		</g>
	</g>
	<g id="g4987" transform="translate(-387.44919,165.81719)">
		<g id="g1483" transform="rotate(-90,334.56248,-490.74962)">
			<path id="Sketch_w0015" inkscape:connector-curvature="0" class="st0" d="M392.3,550h-94.5v566.9h94.5v15.6h70.9v-15.6h165.2
				v15.6h70.9v-15.6h94.5V550h-94.5v-15.6h-70.9V550H463.2v-15.6h-70.9L392.3,550"/>
		</g>
	</g>
	<g id="g5113" transform="translate(-196.08322,95.208299)">
		<g id="g5111">
			<g id="g1419" transform="rotate(-90,362.20343,-272.05945)">
				<path id="path4989" inkscape:connector-curvature="0" class="st0" d="M69.9,550.6h-94.5v566.9h94.5v15.6h70.9v-15.6H306v15.6
					h70.9v-15.6h94.5V550.6h-94.5V535H306v15.6H140.8V535H69.9V550.6"/>
			</g>
			<g id="g5240" transform="translate(195.79173,-3.1750001)">
			</g>
			<g id="g5394" transform="rotate(-90,287.38462,-352.25413)">
				<path id="Sketch_w0040" inkscape:connector-curvature="0" class="st0" d="M868.1,1111.2h-51.3V544.3h51.3v-15.6h141.7v15.6h51.3
					v566.9h-51.3v15.6H868.1V1111.2"/>
				<g id="g5360" transform="translate(0.0927295,-3.7693579)">
					<path id="path5202" inkscape:connector-curvature="0" sodipodi:nodetypes="ccccc" class="st0" d="M896.4,1082.4
						c0,8-12.1,8-12.1,0V940.5c0-8.1,12.1-8.1,12.1,0V1082.4"/>
					<path id="path5204" inkscape:connector-curvature="0" sodipodi:nodetypes="ccccc" class="st0" d="M920.7,1082.4
						c0,8.1-12.1,8.1-12.1,0V940.5c0-8.1,12.1-8.1,12.1,0V1082.4"/>
					<path id="path5206" inkscape:connector-curvature="0" sodipodi:nodetypes="ccccc" class="st0" d="M945,1082.4
						c0,8-12.1,8-12.1,0V940.5c0-8.1,12.1-8.1,12.1,0V1082.4"/>
					<path id="path5208" inkscape:connector-curvature="0" sodipodi:nodetypes="ccccc" class="st0" d="M969.2,1082.5
						c0,8.1-12.1,8.1-12.1,0V940.6c0-8.1,12.1-8.1,12.1,0V1082.5"/>
					<path id="path5210" inkscape:connector-curvature="0" sodipodi:nodetypes="ccccc" class="st0" d="M993.5,1082.5
						c0,8.1-12.1,8.1-12.1,0V940.6c0-8.1,12.1-8.1,12.1,0V1082.5"/>
					<path id="path5212" inkscape:connector-curvature="0" sodipodi:nodetypes="ccccc" class="st0" d="M1017.8,1082.6
						c0,8.1-12.1,8.1-12.1,0V940.7c0-8.1,12.1-8.1,12.1,0V1082.6"/>
					<path id="path5214" inkscape:connector-curvature="0" sodipodi:nodetypes="ccccc" class="st0" d="M1042,1082.6
						c0,8.1-12.1,8.1-12.1,0V940.7c0-8.1,12.1-8.1,12.1,0V1082.6"/>
					<path id="path5236" inkscape:connector-curvature="0" sodipodi:nodetypes="ccccc" class="st0" d="M872.2,1082.4
						c0,8-12.1,8-12.1,0V940.5c0-8.1,12.1-8.1,12.1,0V1082.4"/>
					<path id="path5238" inkscape:connector-curvature="0" sodipodi:nodetypes="ccccc" class="st0" d="M847.9,1082.4
						c0,8-12.1,8-12.1,0V940.5c0-8.1,12.1-8.1,12.1,0V1082.4"/>
					<g id="g5280" transform="translate(195.79173,-66.675005)">
						<path id="path5242" inkscape:connector-curvature="0" sodipodi:nodetypes="ccccc" class="st0" d="M700.6,969
							c0,8-12.1,8-12.1,0V827.1c0-8.1,12.1-8.1,12.1,0V969"/>
						<path id="path5244" inkscape:connector-curvature="0" sodipodi:nodetypes="ccccc" class="st0" d="M724.9,969.1
							c0,8.1-12.1,8.1-12.1,0V827.2c0-8.1,12.1-8.1,12.1,0V969.1"/>
						<path id="path5246" inkscape:connector-curvature="0" sodipodi:nodetypes="ccccc" class="st0" d="M749.2,969.1
							c0,8-12.1,8-12.1,0V827.2c0-8.1,12.1-8.1,12.1,0V969.1"/>
						<path id="path5248" inkscape:connector-curvature="0" sodipodi:nodetypes="ccccc" class="st0" d="M773.4,969.2
							c0,8.1-12.1,8.1-12.1,0V827.3c0-8.1,12.1-8.1,12.1,0V969.2"/>
						<path id="path5250" inkscape:connector-curvature="0" sodipodi:nodetypes="ccccc" class="st0" d="M797.7,969.2
							c0,8.1-12.1,8.1-12.1,0V827.3c0-8.1,12.1-8.1,12.1,0V969.2"/>
						<path id="path5252" inkscape:connector-curvature="0" sodipodi:nodetypes="ccccc" class="st0" d="M822,969.2
							c0,8.1-12.1,8.1-12.1,0V827.3c0-8.1,12.1-8.1,12.1,0V969.2"/>
						<path id="path5254" inkscape:connector-curvature="0" sodipodi:nodetypes="ccccc" class="st0" d="M846.2,969.3
							c0,8.1-12.1,8.1-12.1,0V827.4c0-8.1,12.1-8.1,12.1,0V969.3"/>
						<path id="path5276" inkscape:connector-curvature="0" sodipodi:nodetypes="ccccc" class="st0" d="M676.4,969
							c0,8-12.1,8-12.1,0V827.1c0-8.1,12.1-8.1,12.1,0V969"/>
						<path id="path5278" inkscape:connector-curvature="0" sodipodi:nodetypes="ccccc" class="st0" d="M652.1,969
							c0,8-12.1,8-12.1,0V827.1c0-8.1,12.1-8.1,12.1,0V969"/>
					</g>
					<g id="g5320" transform="translate(195.79173,-130.17504)">
						<path id="path5282" inkscape:connector-curvature="0" sodipodi:nodetypes="ccccc" class="st0" d="M700.6,852.5
							c0,8-12.1,8-12.1,0V710.6c0-8.1,12.1-8.1,12.1,0V852.5"/>
						<path id="path5284" inkscape:connector-curvature="0" sodipodi:nodetypes="ccccc" class="st0" d="M724.9,852.6
							c0,8.1-12.1,8.1-12.1,0V710.7c0-8.1,12.1-8.1,12.1,0V852.6"/>
						<path id="path5286" inkscape:connector-curvature="0" sodipodi:nodetypes="ccccc" class="st0" d="M749.2,852.6
							c0,8-12.1,8-12.1,0V710.7c0-8.1,12.1-8.1,12.1,0V852.6"/>
						<path id="path5288" inkscape:connector-curvature="0" sodipodi:nodetypes="ccccc" class="st0" d="M773.4,852.7
							c0,8.1-12.1,8.1-12.1,0V710.8c0-8.1,12.1-8.1,12.1,0V852.7"/>
						<path id="path5290" inkscape:connector-curvature="0" sodipodi:nodetypes="ccccc" class="st0" d="M797.7,852.7
							c0,8.1-12.1,8.1-12.1,0V710.8c0-8.1,12.1-8.1,12.1,0V852.7"/>
						<path id="path5292" inkscape:connector-curvature="0" sodipodi:nodetypes="ccccc" class="st0" d="M822,852.7
							c0,8.1-12.1,8.1-12.1,0V710.8c0-8.1,12.1-8.1,12.1,0V852.7"/>
						<path id="path5294" inkscape:connector-curvature="0" sodipodi:nodetypes="ccccc" class="st0" d="M846.2,852.8
							c0,8.1-12.1,8.1-12.1,0V710.9c0-8.1,12.1-8.1,12.1,0V852.8"/>
						<path id="path5316" inkscape:connector-curvature="0" sodipodi:nodetypes="ccccc" class="st0" d="M676.4,852.5
							c0,8-12.1,8-12.1,0V710.6c0-8.1,12.1-8.1,12.1,0V852.5"/>
						<path id="path5318" inkscape:connector-curvature="0" sodipodi:nodetypes="ccccc" class="st0" d="M652.1,852.5
							c0,8-12.1,8-12.1,0V710.6c0-8.1,12.1-8.1,12.1,0V852.5"/>
					</g>
				</g>
			</g>
		</g>
	</g>
</g>
<g id="layer1" transform="translate(0,7246.8002)" inkscape:groupmode="layer" inkscape:label="Layer 1">
	<path id="path4989-0" inkscape:connector-curvature="0" class="st1" d="M1717.1-5989.3h-94.5v-566.9h94.5v-15.6h70.9v15.6h165.2
		v-15.6h70.9v15.6h94.5v566.9h-94.5v15.6h-70.9v-15.6H1788v15.6h-70.9V-5989.3"/>
	<path id="path4989-4" inkscape:connector-curvature="0" class="st1" d="M2525.6-6556.2h94.5v566.9h-94.5v15.6h-70.9v-15.6h-165.2
		v15.6h-70.9v-15.6h-94.5v-566.9h94.5v-15.6h70.9v15.6h165.2v-15.6h70.9V-6556.2"/>
	<path id="path2746" inkscape:connector-curvature="0" class="st1" d="M2720.1-5989.3h-94.5v-566.9h94.5v-15.6h70.9v15.6h165.2
		v-15.6h70.9v15.6h94.5v566.9h-94.5v15.6h-70.9v-15.6H2791v15.6h-70.9V-5989.3"/>
	<path id="path4087" inkscape:connector-curvature="0" class="st1" d="M1798.7-6576.6h-94.5v-566.9h94.5v-15.6h70.9v15.6h165.2
		v-15.6h70.9v15.6h94.5v566.9h-94.5v15.6h-70.9v-15.6h-165.2v15.6h-70.9V-6576.6"/>
	<path id="path4089" inkscape:connector-curvature="0" class="st1" d="M2607.2-7143.5h94.5v566.9h-94.5v15.6h-70.9v-15.6h-165.2
		v15.6h-70.9v-15.6h-94.5v-566.9h94.5v-15.6h70.9v15.6h165.2v-15.6h70.9V-7143.5"/>
	<path id="path4091" inkscape:connector-curvature="0" class="st1" d="M2801.8-6576.6h-94.5v-566.9h94.5v-15.6h70.9v15.6h165.2
		v-15.6h70.9v15.6h94.5v566.9h-94.5v15.6h-70.9v-15.6h-165.2v15.6h-70.9V-6576.6"/>
</g>
<g id="layer1_1_" transform="translate(0,7246.8002)" inkscape:groupmode="layer" inkscape:label="Layer 1">
	<path id="path4989-0_1_" inkscape:connector-curvature="0" class="st1" d="M1484.9-7300.8h-94.5v-566.9h94.5v-15.6h70.9v15.6H1721
		v-15.6h70.9v15.6h94.5v566.9h-94.5v15.6H1721v-15.6h-165.2v15.6h-70.9V-7300.8"/>
	<path id="path4989-4_1_" inkscape:connector-curvature="0" class="st1" d="M2293.4-7867.7h94.5v566.9h-94.5v15.6h-70.9v-15.6
		h-165.2v15.6h-70.9v-15.6h-94.5v-566.9h94.5v-15.6h70.9v15.6h165.2v-15.6h70.9V-7867.7"/>
	<path id="path2746_1_" inkscape:connector-curvature="0" class="st1" d="M2487.9-7300.8h-94.5v-566.9h94.5v-15.6h70.9v15.6H2724
		v-15.6h70.9v15.6h94.5v566.9h-94.5v15.6H2724v-15.6h-165.2v15.6h-70.9V-7300.8"/>
	<path id="path4087_1_" inkscape:connector-curvature="0" class="st1" d="M1566.5-7888.2H1472v-566.9h94.5v-15.6h70.9v15.6h165.2
		v-15.6h70.9v15.6h94.5v566.9h-94.5v15.6h-70.9v-15.6h-165.2v15.6h-70.9V-7888.2"/>
	<path id="path4089_1_" inkscape:connector-curvature="0" class="st1" d="M2375-8455.1h94.5v566.9H2375v15.6h-70.9v-15.6h-165.2
		v15.6H2068v-15.6h-94.5v-566.9h94.5v-15.6h70.9v15.6h165.2v-15.6h70.9L2375-8455.1"/>
	<path id="path4091_1_" inkscape:connector-curvature="0" class="st1" d="M2569.6-7888.2H2475v-566.9h94.5v-15.6h70.9v15.6h165.2
		v-15.6h70.9v15.6h94.5v566.9h-94.5v15.6h-70.9v-15.6h-165.2v15.6h-70.9V-7888.2"/>
</g>
</svg>
