<?xml version="1.0" encoding="utf-8"?>
<!-- Generator: Adobe Illustrator 25.0.0, SVG Export Plug-In . SVG Version: 6.00 Build 0)  -->
<svg version="1.1"
	 id="svg8" inkscape:version="0.92.1 r15371" sodipodi:docname="doos2-1-ijsje.svg" xmlns:cc="http://creativecommons.org/ns#" xmlns:dc="http://purl.org/dc/elements/1.1/" xmlns:inkscape="http://www.inkscape.org/namespaces/inkscape" xmlns:rdf="http://www.w3.org/1999/02/22-rdf-syntax-ns#" xmlns:sodipodi="http://sodipodi.sourceforge.net/DTD/sodipodi-0.dtd" xmlns:svg="http://www.w3.org/2000/svg"
	 xmlns="http://www.w3.org/2000/svg" xmlns:xlink="http://www.w3.org/1999/xlink" x="0px" y="0px" viewBox="0 0 468.3 366.2"
	 style="enable-background:new 0 0 468.3 366.2;" xml:space="preserve">
<style type="text/css">
	.st0{fill:none;stroke:#FF0000;stroke-width:0.5669;stroke-miterlimit:11.3386;}
	.st1{fill:#D0D0FF;stroke:#0100FF;stroke-width:0.5669;stroke-miterlimit:11.3386;}
	.st2{fill:none;stroke:#FF0000;stroke-width:0.5669;stroke-miterlimit:3;}
</style>
<sodipodi:namedview  bordercolor="#666666" borderopacity="1.0" fit-margin-bottom="0" fit-margin-left="0" fit-margin-right="0" fit-margin-top="0" id="base" inkscape:current-layer="layer3" inkscape:cx="133.37603" inkscape:cy="272.33313" inkscape:document-units="mm" inkscape:pageopacity="0.0" inkscape:pageshadow="2" inkscape:window-height="1016" inkscape:window-maximized="1" inkscape:window-width="1920" inkscape:window-x="0" inkscape:window-y="27" inkscape:zoom="1" pagecolor="#ffffff" showgrid="true">
	<inkscape:grid  id="grid4487" originx="273.09982" originy="-125.90012" spacingx="3" spacingy="3" type="xygrid" units="mm">
		</inkscape:grid>
</sodipodi:namedview>
<g id="layer1" transform="translate(273.09982,-41.9)" inkscape:groupmode="layer" inkscape:label="Layer 1">
</g>
<g id="layer2" inkscape:groupmode="layer" inkscape:label="CUT">
	<path id="rect5765" inkscape:connector-curvature="0" class="st0" d="M8.8,0.3v85H0.3v51h8.5v85H0.3v59.5h8.5v76.5h76.5v8.5h102
		v-8.5h93.5v8.5h102v-8.5h85v-76.5h-8.5v-59.5h8.5v-85h-8.5v-51h8.5v-85H8.8z M234.1,25.8c18.8,0,34,15.2,34,34c0,0,0,0,0,0
		c0,18.8-15.2,34-34,34c0,0,0,0,0,0c-18.8,0-34-15.2-34-34C200.1,41,215.4,25.8,234.1,25.8C234.1,25.8,234.1,25.8,234.1,25.8
		L234.1,25.8z"/>
</g>
<g id="layer3" inkscape:groupmode="layer" inkscape:label="engrave">
	<path id="path11279" inkscape:connector-curvature="0" class="st1" d="M177.7,335.6c-0.2-0.2-0.3-0.5-0.3-0.7c0-0.2-0.1-3-0.3-6.3
		c-1.9-37.3-2.2-76.5-0.9-112.1c0.3-8.3,0.9-21.5,1.3-27.5l0.1-1.8l-2.4-1.2c-5.7-2.9-10.4-6.7-12.5-10.3c-1.3-2.2-1.7-3.4-1.8-5.9
		c-0.1-2.8,0.1-3.9,1.4-6.5c2.2-4.7,5.2-7.6,8.8-8.8c1.5-0.5,3-0.7,7.3-1.1c1.3-0.1,2.8-0.4,3.4-0.5c2.6-0.7,4.7-2.9,6.8-7
		c0.7-1.4,2.3-4.7,3.5-7.2c1.2-2.5,2.8-5.4,3.4-6.4c6.8-10.2,26-21.1,44-24.9c5.4-1.1,8-1.4,13.8-1.6c13.5-0.3,21.6,1.9,30,8.3
		c5.8,4.4,10.7,10.3,14,17.2c3.5,7.1,5.1,14,5.1,21.1c0,5.7-1,10.5-3.2,15c-0.4,0.9-0.8,1.7-0.8,1.7c0,0.1,0.7,0.7,1.6,1.4
		c2.7,2.1,5.1,5.5,6.2,8.8c1.6,4.7,1.6,10.7,0.1,15.4c-2.1,6.7-7.1,12-13.1,13.9c-2.1,0.7-5.5,1.1-7.4,1l-1.4-0.1l-1.3,2.3
		c-2.7,4.8-7,11.1-11.6,17c-3.2,4.1-6.6,8.2-15.9,19.3c-4.2,5-8.4,9.9-9.2,10.9c-0.8,1-4.6,5.4-8.3,9.9
		c-9.7,11.6-12.5,14.9-29.7,34.8c-12.9,14.9-16.3,18.9-22.1,25.8c-3,3.5-5,5.7-5.4,5.9C179.8,335.9,178.2,336.1,177.7,335.6
		L177.7,335.6z M187.3,322.7c3.3-3.9,6.9-8,16.8-19.5c0.6-0.7,1.9-2.2,3-3.4c5.8-6.7,13.5-15.7,13.4-15.8c0,0-0.6,0-1.2,0.1
		l-1.1,0.1l-1.7,2.7c-2.2,3.6-4.2,6.5-4.9,6.9c-0.5,0.3-0.6,0.3-1.1,0c-1-0.5-0.8-1.1,0.8-3.6c1.3-1.9,3.6-5.4,3.6-5.6
		c0,0-0.8-0.1-1.9-0.1c-1.8,0-1.9,0-2.2-0.6c-0.3-0.5-0.3-0.6,0-1.1c0.3-0.6,0.5-0.6,4.1-1l1.5-0.1l1.2-2.3
		c1.6-3.3,4.3-10.1,4.1-10.2c0,0-0.8,0.1-1.7,0.2c-1.5,0.2-1.7,0.2-2-0.2c-0.6-0.6-0.7-1.2-0.3-1.7c0.3-0.3,0.8-0.5,2.5-0.7
		c1.2-0.2,2.3-0.4,2.3-0.5c0.3-0.4,1.5-5.4,2.3-10.2l0.1-0.8h-1c-0.6,0-2,0.1-3.3,0.3c-2.9,0.4-3.4,0.4-3.8-0.1
		c-0.5-0.6-0.4-1.1,0-1.6c0.4-0.4,1.9-0.7,6.1-1.1l2.3-0.2l0.1-1.2c0.1-0.7,0.2-2.7,0.3-4.6c0.1-2.9,0.2-3.5,0.5-3.8
		c0.6-0.6,1.7-0.4,2,0.4c0.1,0.4,0,6.5-0.3,8.8c0,0.4,0.1,0.4,4.6,0.5c2.6,0.1,5.2,0.2,5.8,0.3l1.2,0.1l0-5.7c0-3.1,0-6,0.1-6.4
		l0-0.8l-3.8,0c-2.1,0-4.8,0.1-6,0.3c-3,0.3-3.1,0.3-3.6-0.2c-0.5-0.6-0.5-1.3,0.1-1.7c0.7-0.5,3.6-0.7,8.6-0.9l4.8-0.1l0.1-4.1
		c0.1-2.2,0.1-4.8,0.1-5.6l0-1.6l-1.1,0.1c-1,0.1-1.2,0.1-1.6-0.4c-0.6-0.6-0.6-1.1-0.2-1.6c0.2-0.3,0.8-0.4,2.2-0.6
		c3.1-0.4,8.8-0.7,11.6-0.6l2.6,0.1l-0.1-1c0-0.5-0.2-1.6-0.3-2.3c-0.3-1.9-0.2-2.8,0.1-3.2c0.4-0.5,1.6-0.5,1.9,0
		c0.2,0.3,0.5,2.5,0.8,5.4l0.1,1.4l1.7,0.2c0.9,0.1,2.8,0.5,4.1,0.8c3.6,0.8,3.5,0.8,3.6,0.3c0.1-0.3,0.4-1.5,0.7-2.8
		c0.7-2.6,1.4-6.6,1.4-7.8c0-0.6-0.1-0.8-0.5-0.9c-3-0.7-8.4-0.9-11.5-0.5c-1.9,0.2-2,0.2-2.4-0.1c-1.1-1.1-0.5-2,1.4-2.3
		c1.9-0.3,8.2-0.3,10.7,0.1c1.2,0.2,2.1,0.3,2.2,0.3c0,0-0.1-0.8-0.2-1.7c-0.4-2-0.4-1.8,0.1-2.3c0.6-0.6,1.5-0.5,1.9,0.1
		c0.3,0.4,0.7,2.3,0.8,3.8l0.1,0.7l3.7,0.8c2.1,0.5,3.8,0.8,3.9,0.7c0.3-0.3,2.4-4.1,2.3-4.2c0,0-1.4-0.5-3.1-0.9
		c-2.9-0.8-4.5-1.3-14-4.8c-2.5-0.9-4.7-1.6-4.9-1.6c-0.7,0-5,1.4-7.4,2.3c-8.7,3.5-17.3,9.4-25.1,17.4c-5.9,6.1-9.8,11.7-13,18.8
		c-3.8,8.6-6,17.7-8.3,34c-1.6,11.7-2,14.1-2.5,17.4c-0.7,4.2-1.4,7.7-2.2,11.2c-0.5,2.1-0.7,2.7-1.2,3.2c-1.1,1.1-3.8,1.3-4.1,0.4
		c-0.1-0.2,0.3-1.8,0.7-3.7s1.1-5.1,1.5-7.2c1.1-6.2,1-5.6,0.5-5.6c-0.8,0-1.2-0.4-1.7-1.9c-0.3-0.8-0.6-1.5-0.6-1.5
		c-0.1-0.1-10.8,0.7-11.3,0.9l-0.4,0.1l0.5,1.3c0.3,0.7,1,2.5,1.7,4.1l1.2,2.9l2.2,0.1c2.4,0.1,2.8,0.3,2.8,1.4
		c0,0.9-0.5,1.2-2.1,1.2c-0.8,0-1.5,0-1.5,0.1c0,0.2,1.3,2.7,2.4,4.6c0.7,1.1,1.2,2.2,1.2,2.5c0,0.7-0.5,1.1-1.3,1.1
		c-0.6,0-0.8-0.1-1.5-1.3c-0.9-1.3-2.7-4.7-3.3-6.1l-0.4-0.9h-2.1h-2.1l0.1,4c0.1,2.2,0.1,4.1,0.2,4.2c0.1,0.2,0.9,0.3,3.3,0.3
		c3.5,0,3.7,0.1,3.7,1.1c0,1.2-0.3,1.3-3.7,1.3H181v1.6c0,1.3,0.1,1.6,0.4,1.9c0.2,0.1,0.7,0.9,1.1,1.7c0.7,1.3,2.9,4.1,4.1,5.2
		c0.9,0.8,0.4,2.2-0.8,2.2c-0.7,0-1.6-0.8-3.7-3.3l-0.8-0.9l0.1,3.6c0.1,2,0.2,4.6,0.3,5.7l0.1,2.1l0.7-0.8
		C183,327.7,185.1,325.3,187.3,322.7L187.3,322.7z M183.4,295.5c0-0.1-2.4-6-2.8-6.9c-0.1-0.3-0.1,0.8-0.1,2.7
		c0.1,1.7,0.1,3.4,0.1,3.7c0,0.6,0,0.6,1.4,0.6C182.8,295.6,183.4,295.6,183.4,295.5L183.4,295.5z M197.8,286.5
		c0.1-0.4,0.1-0.6-0.2-0.6c-0.3,0-0.4,0.1-0.2,0.8C197.6,287.3,197.7,287.2,197.8,286.5L197.8,286.5z M188.1,284.3
		c3-0.2,5.6-0.4,5.6-0.5c0.1-0.1-2.5-7.2-2.6-7.3c-0.1-0.1-6,0.9-7.9,1.4c-3.1,0.8-3,0.7-2.9,2.2c0.1,1.6,1.4,4.8,1.9,4.7
		C182.4,284.8,185,284.6,188.1,284.3L188.1,284.3z M198.3,283.3c0.1-0.1,0.9-7.4,0.8-7.5c-0.1-0.1-4.6,0.3-5,0.5
		c-0.3,0.1,0,1.1,2.2,7.1c0.1,0.2,0.3,0.2,1.1,0.1C197.8,283.3,198.3,283.3,198.3,283.3L198.3,283.3z M222.9,281.3
		c0.3-0.4,1.4-1.7,2.4-2.9c5.7-6.7,7.9-9.4,7.9-9.5c0-0.2-3.9-0.1-6.5,0l-2.1,0.1l-0.4,1.3c-0.7,2.2-2.5,6.6-3.5,8.8
		c-0.5,1.1-0.9,2.1-0.9,2.1c0,0.1,0.5,0.2,1,0.2c0.6,0,1.1,0.1,1.2,0.2C222.3,282,222.3,282,222.9,281.3L222.9,281.3z M183,275.4
		c1.1-0.3,3.1-0.7,4.5-0.9c1.4-0.2,2.5-0.4,2.6-0.5c0.1-0.1-0.6-2-1.4-4.2c-1.1-3.1-1.6-4.1-1.8-4.1c-0.2,0-1.6,0.4-3.2,0.8
		s-3,0.8-3.2,0.7c-0.2-0.1-0.3,0.7-0.3,4.4c0,4.2,0,4.5,0.4,4.4C180.8,275.9,181.8,275.7,183,275.4z M196.7,273.4
		c1.5-0.2,2.7-0.3,2.8-0.4c0,0,0.4-2.2,0.8-4.8c0.4-2.6,0.8-5.1,0.9-5.5c0.1-0.4,0.1-0.8,0-0.8c-0.1,0-1.5,0.4-3.1,0.8
		c-1.6,0.4-4.1,1.1-5.6,1.4s-2.7,0.7-2.8,0.7c0,0,0.6,2,1.5,4.4l1.6,4.4l0.6,0C193.8,273.6,195.2,273.5,196.7,273.4L196.7,273.4z
		 M237.7,263.7l2.5-3l-0.4-0.4c-0.4-0.4-0.4-0.6-0.4-2.5l0.1-2l-1.4-0.1c-0.8-0.1-3.4-0.2-5.9-0.3l-4.5-0.2l-0.1,0.5
		c-0.1,0.3-0.3,1.7-0.5,3.1c-0.2,1.4-0.7,3.7-1,5c-0.3,1.3-0.6,2.4-0.6,2.5c0,0,2,0.1,4.5,0.1c3.8,0,4.6,0,4.8,0.3
		c0.1,0.2,0.3,0.2,0.4,0.2C235.1,266.8,236.3,265.4,237.7,263.7L237.7,263.7z M182.9,264c1.1-0.3,2.3-0.6,2.7-0.7
		c0.4-0.1,0.7-0.2,0.7-0.4c0-0.1-0.8-2.2-1.7-4.7c-1.6-4.2-1.7-4.5-2.2-4.6c-0.8-0.2-1.2-1.1-0.7-1.9c0.3-0.5,0.3-0.6-0.5-2.6
		l-0.8-2l-0.1,5.9c-0.1,3.3-0.1,7.2-0.1,8.8l0,2.9l0.5-0.1C180.7,264.6,181.8,264.3,182.9,264L182.9,264z M193.3,261.3
		c2.3-0.6,5.1-1.3,6.4-1.7l2.2-0.7l0.3-1.6c0.2-0.9,0.7-2.9,1.2-4.6c0.4-1.6,0.8-3,0.7-3c0,0-1,0.1-2.1,0.3
		c-2.2,0.4-2.1,0.3-1.7,2.4c0.2,1.2,0.2,1.3-0.1,1.7c-0.7,0.8-2,0.4-2.2-0.5c-0.6-2.3-0.7-2.7-1.2-2.6c-0.2,0.1-2.5,0.5-5.1,0.9
		c-5.3,0.9-6.4,1.2-6.4,1.4c0,0.2,0.8,2.5,3,8.2c0.2,0.5,0.4,0.9,0.5,0.9C189.1,262.4,191.1,261.9,193.3,261.3L193.3,261.3z
		 M243.6,256.4c0-0.1-0.4-0.2-0.9-0.3l-0.9-0.1l0,1.3l0,1.3l0.9-1C243.2,257.1,243.6,256.5,243.6,256.4L243.6,256.4z M247.3,252.3
		c4-4.7,3.8-4.4,3.3-4.8c-0.5-0.4-0.5-0.8,0-2.5c0.2-0.7,0.6-1.9,0.8-2.6l0.4-1.3l-1.6-0.1c-0.9-0.1-3.1-0.2-4.8-0.3l-3.2-0.1v6.5
		v6.5l0.6,0.1c0.3,0.1,0.8,0.1,1.1,0.1c0.3,0,0.6,0.2,0.8,0.5c0.2,0.3,0.4,0.5,0.5,0.5C245.2,254.6,246.2,253.6,247.3,252.3
		L247.3,252.3z M186.1,250.4c0.8-0.2,3.5-0.7,5.9-1.1c2.4-0.4,4.5-0.8,4.5-0.9c0.2-0.2-2.9-9-3.1-9.1c-0.5-0.2-11.1,2.4-12.1,2.9
		c-0.2,0.1,0.3,1.5,1.4,4.3c0.9,2.3,1.7,4.2,1.8,4.2C184.6,250.7,185.3,250.5,186.1,250.4L186.1,250.4z M204.5,247.1
		c0.6,0.1,0.6,0,1.3-1.8c0.4-1,0.9-2.4,1.2-3.1l0.6-1.3l-0.7,0c-0.4,0-0.8-0.1-0.9-0.2c-0.1-0.1-0.4-0.9-0.6-1.8l-0.3-1.6l-0.8,0.1
		c-1.2,0.1-8,1.1-8.1,1.1c0,0,0.6,2.2,1.5,4.7l1.5,4.6l2.4-0.5C202.8,247.2,204.2,247,204.5,247.1L204.5,247.1z M255.6,241.1
		c-0.6-0.1-1-0.1-1.1-0.1c-0.1,0.1-1.1,3.4-1.1,3.7c0,0.1,0.7-0.6,1.6-1.6l1.6-1.9L255.6,241.1z M182.9,239c2.3-0.7,7.4-1.9,8.7-2.1
		c0.5-0.1,0.9-0.2,0.9-0.4c0-0.4-3.4-9.9-3.6-10.1c-0.1-0.1-1.5,0.1-3.7,0.6c-4,0.9-3.8,0.8-4.2,0.4c-0.3-0.3-0.3-0.2-0.4,1
		c-0.1,0.7-0.2,3.6-0.2,6.4c-0.1,4.4-0.1,5.1,0.2,5C180.7,239.6,181.8,239.3,182.9,239L182.9,239z M261.8,235c2-2.4,3.9-4.7,4.3-5.2
		l0.7-0.8l-1.4-0.4c-2.2-0.6-3.6-1-6.1-1.4c-1.3-0.2-2.5-0.5-2.7-0.5c-0.4-0.1-0.4,0-0.6,2.9c-0.1,2.6-0.3,4.6-0.8,8.2l-0.1,1h1
		c1,0,1.7,0.4,1.7,1C257.6,240,258,239.6,261.8,235z M208.9,238.2c0.3-0.6,0.5-1.2,0.5-1.2c0,0-0.5,0-0.9,0.1
		c-0.6,0.1-0.8,0.2-0.7,0.5c0.1,0.2,0.2,0.7,0.2,1.1c0.1,0.4,0.2,0.8,0.3,0.8C208.3,239.4,208.6,238.9,208.9,238.2L208.9,238.2z
		 M252.5,237.2c0.4-2.2,0.9-6.4,0.9-8.7l0-2.2l-0.8-0.1c-1-0.2-7.7-0.2-9,0l-1,0.1l0,2.9c0,1.6-0.1,4.2-0.2,5.8
		c-0.1,1.6-0.2,3-0.1,3c0.1,0.1,9.4,0.6,9.8,0.5C252.2,238.5,252.4,237.9,252.5,237.2L252.5,237.2z M198.8,235.7
		c1.9-0.3,4-0.5,4.6-0.6c1-0.1,1.2-0.2,1.1-0.5c-0.1-0.2-0.5-2.2-0.9-4.4c-1-4.9-1.3-6.4-1.5-6.5c-0.1-0.1-10.4,1.9-10.5,2
		c-0.1,0.1,0.6,2.1,3,8.6c0.4,1,0.7,1.8,0.7,1.8C195.3,236.2,196.9,235.9,198.8,235.7L198.8,235.7z M211,234.3
		c0.4-0.8,2.7-4.4,3.7-5.8c5.7-8,15.4-16.6,25.5-22.5c2.6-1.5,7.9-4.1,10.3-5c2-0.7,2-0.7,1.9-0.9c-0.1-0.1-6.7-1.1-10.5-1.5
		c-4.2-0.5-8.6-0.9-15.7-1.4c-15.9-1.2-24.4-2.4-32.6-4.4c-3.3-0.8-7.8-2.2-10.1-3.1l-1.2-0.5l-0.1,0.8c-0.1,0.5-0.1,1.6-0.2,2.4
		l-0.1,1.6l0.6,0c0.8,0.1,1.2,0.6,1.4,2.1c0.1,0.7,0.2,1.3,0.2,1.3c0,0,0.9-0.1,2-0.2c2.9-0.5,5.7-0.7,9.5-0.7c3.4,0,3.5,0,3.8,0.4
		c0.4,0.6,0.4,1-0.1,1.6c-0.3,0.4-0.5,0.4-1.9,0.4c-3.7-0.1-12.5,0.8-12.9,1.3c-0.4,0.4,2,10.2,3.9,16.2c2.1,6.8,2.1,6.9,2.5,6.7
		c0.2-0.1,2.5-0.6,5.3-1.1c2.7-0.5,5.1-1,5.2-1.1c0.2-0.1-0.1-1.5-1.1-5.8c-0.7-3.1-1.4-5.7-1.4-5.7c-0.1-0.1-3.8,0.5-7.7,1.4
		c-2,0.4-3.7,0.8-3.8,0.7c-0.1-0.2-0.7-2.3-0.6-2.3c0.1-0.1,6.6-1.5,9.2-2c1.2-0.2,2.2-0.5,2.2-0.6c0-0.1-0.2-1.1-0.5-2.1
		c-0.6-2.4-0.4-3,1-3c0.7,0,1,0.5,1.5,2.6c0.3,1,0.5,2,0.6,2.1c0.1,0.2,0.8,0.1,2.6-0.1c4.1-0.5,4.6-0.4,4.6,0.8
		c0,1-0.4,1.2-3.5,1.6c-1.6,0.2-2.9,0.4-2.9,0.5c-0.1,0.1,0.2,1.4,0.5,2.8c0.4,1.5,1,4,1.3,5.6l0.7,2.9l0.7-0.1c0.4-0.1,2-0.5,3.6-1
		c3.8-1.1,3.9-1.1,4.4-0.7c0.5,0.5,0.4,1.6-0.1,2c-0.4,0.3-3.3,1.1-6.4,1.9c-1,0.3-1.5,0.5-1.5,0.7c0,0.2,0.3,1.3,0.5,2.5
		c0.3,1.2,0.8,3.7,1.2,5.5l0.7,3.3l1.9-0.1C210.1,234.4,211,234.3,211,234.3L211,234.3z M270.2,224.4c2.3-3.1,5.8-8.3,5.8-8.6
		c0-0.2-4.9-1.4-5.6-1.4c-0.3,0-0.4,0.4-0.6,2.2c-0.2,1.7-1,5.6-1.7,8c-0.3,1.1-0.5,2-0.5,2C268.1,227,268.6,226.5,270.2,224.4
		L270.2,224.4z M184.1,224.6c1.4-0.3,2.8-0.6,3.3-0.7l0.7-0.2l-1.1-3.2c-0.6-1.7-1.4-4.2-1.7-5.5c-0.4-1.3-0.8-2.4-0.9-2.4
		c-0.1,0-0.9,0.2-1.8,0.4l-1.6,0.4l-0.1,1.8c-0.1,1-0.2,3.7-0.2,6l-0.1,4.2l0.5-0.2C181.3,225.2,182.7,224.9,184.1,224.6
		L184.1,224.6z M183.7,210c0.1-0.1-0.1-1.2-0.4-2.6c-0.3-1.4-0.7-3.3-0.9-4.4c-0.2-1.1-0.4-1.9-0.5-1.9c-0.1,0-0.2,0-0.2,0.1
		c-0.1,0.1-0.5,9.2-0.4,9.4C181.3,210.7,183.4,210.2,183.7,210L183.7,210z M292.8,205.2c3.6-1.2,6.9-4.5,8.4-8.6
		c1.6-4.2,1.6-10.2,0.1-14.7c-1.1-3.2-3.1-6.2-5.3-8.1c-0.9-0.8-1.1-0.9-1.7-0.7c-1.1,0.2-1.9-0.4-1.9-1.2c0-0.4-0.3-0.5-1.5-0.9
		c-5.6-2-11.3-2.2-17.6-0.8c-3.9,0.9-6.6,1.8-10.8,3.9c-2.5,1.2-3.5,1.5-4.1,1c-0.2-0.1-0.7-1.4-1.1-3c-0.9-3.2-1.4-4.4-2.6-6.7
		c-2.9-5.6-7.4-8.1-12.3-6.9c-1.7,0.4-3.5,1.2-5.8,2.7c-1.6,1.1-2.1,1.3-3,1.3c-0.6,0-1.2,0-1.3-0.1c-0.2-0.1-0.3-0.9-0.3-2.8
		c0-2.2-0.1-2.8-0.6-4.2c-1.3-3.8-4.1-6.3-7.8-7.3c-1.6-0.4-5.2-0.4-7.2,0c-3,0.7-5.3,1.8-7.3,3.7c-1.4,1.4-2.4,2.8-3.1,4.6
		c-0.5,1.4-1,2.1-2.1,2.7c-1.5,1-2,0.8-3.7-0.9c-2.3-2.5-4.9-3.4-6-2.2c-0.4,0.4-0.5,0.8-0.6,2.1c-0.1,1.9-0.5,2.5-1.9,3.2
		c-1.1,0.6-2.3,0.6-2.7,0.1c-0.4-0.4-0.4-2.9-0.1-4.2c0.6-2.2,2.4-4.1,4.7-5c2.4-0.9,6.1-0.7,8.4,0.6l1,0.6l0.5-0.8
		c0.8-1.1,3.2-3.4,4.7-4.4c2.6-1.8,6.1-3.2,9.4-3.9c0.8-0.2,2.6-0.3,4.3-0.3c2.4,0,3.3,0.1,4.7,0.5c5.7,1.5,9.5,5.6,10.1,11.1
		c0.1,0.7,0.2,1.2,0.2,1.2c0,0,0.6-0.3,1.3-0.6c3.3-1.7,5.8-2.3,9-2.1c1.9,0.1,2.6,0.2,3.6,0.6c4.9,2,8.2,6.1,10.5,13.1l0.8,2.5
		l2.1-1c10.6-4.7,21.6-5.5,29.9-2.1c0.2,0.1,0.5-0.2,0.9-1.2c1.9-4.2,2.8-9.6,2.4-15c-0.8-13.1-9.1-26.9-20.9-34.7
		c-3.9-2.6-9.2-4.9-13.2-5.7c-3.1-0.6-5.3-0.8-10.1-0.8c-8,0-15.1,1.1-22.8,3.5c-10.9,3.5-21.8,9.8-28.1,16.4
		c-2.7,2.8-4,4.9-7.3,11.6c-1.6,3.2-3.4,6.6-4,7.5c-1.5,2.2-4.5,5.3-6.3,6.2c-2.3,1.3-4,1.7-8,2c-5.8,0.5-7.1,1.1-9.6,4.9
		c-2.2,3.3-2.1,7.4,0.1,10.9c1.3,2,4.8,5.3,7.3,7c6.3,4.1,15.3,7.6,25.7,9.7c6.7,1.4,13.6,2.2,28.3,3.4c11.5,1,16,1.4,21.3,2.2
		c5.1,0.8,8.4,1.6,14.3,3.6c2.6,0.9,6.8,2.3,9.3,3.2c4.4,1.5,8.1,2.5,11.4,3.1C287.2,205.8,291.4,205.7,292.8,205.2L292.8,205.2z"/>
</g>
<g id="layer1_1_" transform="translate(-179.9009,33.100053)" inkscape:groupmode="layer" inkscape:label="Layer 1">
	<path id="rect5836" inkscape:connector-curvature="0" class="st2" d="M675.3-19.7v85h-8.5v51h8.5v85h-8.5v59.5h8.5v76.5h76.5v8.5
		h85v-8.5h85v8.5h85v-8.5h85v8.5h85v-8.5h85v8.5h85v-8.5h85v-76.5h-8.5v-59.5h8.5v-85h-8.5v-51h8.5v-85
		C1431.8-19.7,675.3-19.7,675.3-19.7z"/>
</g>
<g id="layer1_2_" inkscape:groupmode="layer" inkscape:label="Layer 1">
	
		<path id="rect6038" inkscape:connector-curvature="0" sodipodi:nodetypes="cccccccccccccccccccccccccccccccccccccccccccccccccccccccccccccc" class="st0" d="
		M-5.1,397.8v85h8.5v85h-8.5v85h8.5v85h-8.5v85h8.5v85h-8.5v85h8.5v85h-8.5v76.5v8.5l0,0h85v-8.5h102v8.5h93.5v-8.5h102v8.5h76.5
		h8.5v-85h-8.5v-85h8.5v-85h-8.5v-85h8.5v-85h-8.5v-85h8.5v-85h-8.5v-85h8.5v-76.5v-8.5h-8.5h-76.5v8.5h-8.5l0,0h-93.5v-8.5h-93.5
		v8.5h-8.5l0,0H79.9v-8.5L-5.1,397.8z"/>
</g>
<g id="layer1_3_" transform="translate(-179.9009,33.100053)" inkscape:groupmode="layer" inkscape:label="Layer 1">
	<path id="rect5836_1_" inkscape:connector-curvature="0" class="st2" d="M-612.7-32.1v85h-8.5v51h8.5v85h-8.5v59.5h8.5v76.5h76.5
		v8.5h85v-8.5h85v8.5h85v-8.5h85v8.5h85v-8.5h85v8.5h85v-8.5h85v-76.5h-8.5v-59.5h8.5v-85h-8.5v-51h8.5v-85H-612.7z"/>
</g>
<path id="rect5765_1_" inkscape:connector-curvature="0" class="st2" d="M464.8,1577.7v-85h8.5v-51h-8.5v-85h8.5v-59.5h-8.5v-76.5
	h-76.5v-8.5h-102v8.5h-93.5v-8.5h-102v8.5h-85v76.5h8.5v59.5H5.8v85h8.5v51H5.8v85H464.8z M239.5,1552.2c-18.8,0-34-15.2-34-34l0,0
	c0-18.8,15.2-34,34-34l0,0c18.8,0,34,15.2,34,34C273.5,1536.9,258.2,1552.2,239.5,1552.2L239.5,1552.2z"/>
</svg>
