<?xml version="1.0" encoding="utf-8"?>
<!-- Generator: Adobe Illustrator 25.0.0, SVG Export Plug-In . SVG Version: 6.00 Build 0)  -->
<svg version="1.1"
	 id="svg474" inkscape:version="1.0 (4035a4f, 2020-05-01)" sodipodi:docname="sheet1.svg" xmlns:cc="http://creativecommons.org/ns#" xmlns:dc="http://purl.org/dc/elements/1.1/" xmlns:inkscape="http://www.inkscape.org/namespaces/inkscape" xmlns:rdf="http://www.w3.org/1999/02/22-rdf-syntax-ns#" xmlns:sodipodi="http://sodipodi.sourceforge.net/DTD/sodipodi-0.dtd" xmlns:svg="http://www.w3.org/2000/svg"
	 xmlns="http://www.w3.org/2000/svg" xmlns:xlink="http://www.w3.org/1999/xlink" x="0px" y="0px" viewBox="0 0 841.9 595.3"
	 style="enable-background:new 0 0 841.9 595.3;" xml:space="preserve">
<style type="text/css">
	.st0{fill:none;stroke:#000000;stroke-width:0.7999;}
	.st1{fill:none;stroke:#000000;stroke-width:0.3098;stroke-linecap:round;stroke-linejoin:round;}
</style>
<sodipodi:namedview  bordercolor="#666666" borderopacity="1" gridtolerance="10" guidetolerance="10" id="namedview476" inkscape:current-layer="svg474" inkscape:cx="399.78362" inkscape:cy="181.71086" inkscape:pageopacity="0" inkscape:pageshadow="2" inkscape:window-height="706" inkscape:window-maximized="0" inkscape:window-width="1017" inkscape:window-x="129" inkscape:window-y="399" inkscape:zoom="1.0868916" objecttolerance="10" pagecolor="#ffffff" showgrid="false">
	</sodipodi:namedview>
<path id="path246" class="st0" d="M6.2,590v-17.8h8.5v-17.4H6.2v-18h8.5v-17.4H6.2v-18h8.5V484H6.2v-18h8.5v-17.4H6.2v-18h8.5v-17.4
	H6.2v-18h8.5v-17.4H6.2v-18h8.5v-17.4H6.2v-18h8.5V307H6.2v-18h8.5v-17.4H6.2v-18h8.5v-17.4H6.2v-18h8.5v-17.4H6.2v-18h8.5v-17.4
	H6.2v-18h8.5v-17.4H6.2v-18h8.5V94.7H6.2v-18h8.5V59.3H6.2v-18h8.5V23.9H6.2V6.1 M590.1,590h-17.8v-8.5h-17.4v8.5h-18v-8.5h-17.4
	v8.5h-18v-8.5h-17.4v8.5h-18v-8.5h-17.4v8.5h-18v-8.5h-17.4v8.5h-18v-8.5h-17.4v8.5h-18v-8.5h-17.4v8.5h-18v-8.5h-17.4v8.5h-18v-8.5
	h-17.4v8.5h-18v-8.5h-17.4v8.5h-18v-8.5H201v8.5h-18v-8.5h-17.4v8.5h-18v-8.5h-17.4v8.5h-18v-8.5H94.8v8.5h-18v-8.5H59.4v8.5h-18
	v-8.5H24v8.5H6.2 M590.1,6.1v17.8h-8.5v17.4h8.5v18h-8.5v17.4h8.5v18h-8.5v17.4h8.5v18h-8.5v17.4h8.5v18h-8.5v17.4h8.5v18h-8.5v17.4
	h8.5v18h-8.5v17.4h8.5v18h-8.5v17.4h8.5v18h-8.5v17.4h8.5v18h-8.5v17.4h8.5v18h-8.5v17.4h8.5v18h-8.5v17.4h8.5v18h-8.5V466h8.5v18
	h-8.5v17.4h8.5v18h-8.5v17.4h8.5v18h-8.5v17.4h8.5V590 M6.2,6.1H24v8.5h17.4V6.1h18v8.5h17.4V6.1h18v8.5h17.4V6.1h18v8.5h17.4V6.1
	h18v8.5H183V6.1h18v8.5h17.4V6.1h18v8.5h17.4V6.1h18v8.5h17.4V6.1h18v8.5h17.4V6.1h18v8.5H360V6.1h18v8.5h17.4V6.1h18v8.5h17.4V6.1
	h18v8.5h17.4V6.1h18v8.5h17.4V6.1h18v8.5h17.4V6.1h18v8.5h17.4V6.1h17.8"/>
<path id="path248" class="st1" d="M260.7,432.3l-9.4-2.5l9.2,9.3l12.7-3.4l-9.5-2.5l-0.5-5.1L260.7,432.3z"/>
<path id="path250" class="st1" d="M470.6,115.5l-14.1,24.3l24.4-14v-10.3L470.6,115.5L470.6,115.5z"/>
<path id="path252" class="st1" d="M493.9,133.4v28l14-24.4l-5.2-8.9L493.9,133.4L493.9,133.4z"/>
<path id="path254" class="st1" d="M377.8,106l-3.4,12.7l9.2,9.3l-2.5-9.5l5.2-2.9h-5.9L377.8,106z"/>
<path id="path256" class="st1" d="M390.2,153l7.4,27.2l-27.2-7.2L350.5,153l15.7-4.2l4.2-15.7L390.2,153z"/>
<path id="path258" class="st1" d="M402,146.4l15.8,15.7l16.1-9.2l21.6-37.4h-43.1l-16.2,9.2L402,146.4z"/>
<path id="path260" class="st1" d="M449.9,194.2l21.6,5.8l9.3-15.9v-43.2l-37.4,21.5l-9.3,16.1L449.9,194.2z"/>
<path id="path262" class="st1" d="M417.8,180.7l3-5.3l-5.1,3l-7-6.9l3.4,12.6l12.7,3.4L417.8,180.7L417.8,180.7z"/>
<path id="path264" class="st1" d="M416,198.7l7.7,29l19.4,18.1l4.2-15.7l15.7-4.2L443.2,206L416,198.7L416,198.7z"/>
<path id="path266" class="st1" d="M395.9,198.3l-3,5.1l5.1-3l7,7l-3.4-12.7l-12.7-3.4L395.9,198.3L395.9,198.3z"/>
<path id="path268" class="st1" d="M363.6,184.7l-21.6-5.9l-9.2,16.2V238l37.4-21.6l9.2-16.1L363.6,184.7L363.6,184.7z"/>
<path id="path270" class="st1" d="M379.8,225.9l-21.6,37.4h43.2l16.1-9.2l-5.9-21.6l-15.7-15.8L379.8,225.9L379.8,225.9z"/>
<path id="path272" class="st1" d="M404.5,276.5l18.8-0.1L429,298l-5.7,21.6l-18.5,0L367.4,298l36.7-21.1
	C404.3,276.8,404.4,276.6,404.5,276.5L404.5,276.5z"/>
<path id="path274" class="st1" d="M439.3,260.2L430,251l2.7,9.3l-5.2,3l5.8,0l2.7,9.4L439.3,260.2L439.3,260.2z"/>
<path id="path276" class="st1" d="M477.6,222l12.7-3.4l-9.5-2.5v-5.9l-2.9,5.1l-9.4-2.5L477.6,222L477.6,222z"/>
<path id="path278" class="st1" d="M484.8,247.4l-11.1-11l-15.7,4.1l-4.2,15.7l11.5,11.6l15.7-4.2L484.8,247.4L484.8,247.4z"/>
<path id="path280" class="st1" d="M461.4,282.3l-11.5-11.5l-7.1,27.5l7.1,26.8l11.5-11.5l16.3,4.3l-5.1-19.9l4.7-20.2L461.4,282.3
	L461.4,282.3z"/>
<path id="path282" class="st1" d="M481.3,332.5l-16.1-4.2l-11.5,11.5l4.2,15.7l15.7,4.2l11.5-11.6L481.3,332.5L481.3,332.5z"/>
<path id="path284" class="st1" d="M490.2,377.4l-12.7-3.4l-9.2,9.3l9.4-2.5l2.9,5.1v-5.8L490.2,377.4L490.2,377.4z"/>
<path id="path286" class="st1" d="M471.5,396l-21.6,5.8l-15.8,15.8l9.3,16.1l37.4,21.6V412L471.5,396z"/>
<path id="path288" class="st1" d="M428.4,332.6l4,3l-2.5,9.4l9.4-9.3l-3.4-12.7l-2.7,9.5L428.4,332.6L428.4,332.6z"/>
<path id="path290" class="st1" d="M358.2,332.6l21.6,37.4l16.1,9.2l15.7-15.7l5.9-21.6l-16.1-9.3H358.2z"/>
<path id="path292" class="st1" d="M379.4,395.5l-9.2-15.9L332.9,358v43.2l9.2,15.9l21.6-5.7L379.4,395.5L379.4,395.5z"/>
<path id="path294" class="st1" d="M404.9,388.6l-7,6.9l-5.1-3l3,5.2l-7,6.9l12.7-3.4L404.9,388.6z"/>
<path id="path296" class="st1" d="M412.1,411.9l-3.4,12.6l7-6.9l5.1,3l-3-5.2l7-6.9L412.1,411.9z"/>
<path id="path298" class="st1" d="M423.3,370.2l19.9-19.8l4.2,15.7l15.7,4.1l-19.9,19.9l-27.2,7.2L423.3,370.2L423.3,370.2z"/>
<path id="path300" class="st1" d="M417.8,433.9L402,449.7l-5.8,21.6l15.7,9.1l43.3-0.2l-21.4-36.9L417.8,433.9L417.8,433.9z"/>
<path id="path302" class="st1" d="M397.5,415.9l-27.2,7.2l-19.9,19.8l15.7,4.2l4.2,15.7l19.8-19.9L397.5,415.9L397.5,415.9z"/>
<path id="path304" class="st1" d="M377.8,490l2.4-9.4l6-0.1l-5.2-2.9l2.5-9.4l-9.2,9.2L377.8,490L377.8,490z"/>
<path id="path306" class="st1" d="M502.7,467.9l5.2-8.9l-14-24.4v28.1L502.7,467.9z"/>
<path id="path308" class="st1" d="M456.4,456.2l13.6,23.8l10.7-0.1v-9.5L456.4,456.2L456.4,456.2z"/>
<path id="path310" class="st1" d="M462.6,493l-28.5,0.2l25.1,14.4l8.9-5.2L462.6,493z"/>
<path id="path312" class="st1" d="M332.6,115.3l-4.1,15.7l11.5,11.5l15.7-4.2l4.2-15.7L348.3,111L332.6,115.3L332.6,115.3z"/>
<path id="path314" class="st1" d="M278.3,119.1l19.9,5.3l19.9-5.3l-4.2,15.7l11.6,11.6l-27.3,7.2l-27-7.2l11.3-11.6L278.3,119.1
	L278.3,119.1z"/>
<path id="path316" class="st1" d="M273.1,160.4l-9.5,2.5v5.9l-2.9-5.1l-9.4,2.5l9.2-9.3L273.1,160.4L273.1,160.4z"/>
<path id="path318" class="st1" d="M276.6,172.8v18.6l21.6,37.4l21.6-37.4l0-18.6l-21.6-5.7L276.6,172.8z"/>
<path id="path320" class="st1" d="M323.3,160.4L336,157l9.2,9.3l-9.3-2.5l-3,5.1l0-5.9L323.3,160.4L323.3,160.4z"/>
<path id="path322" class="st1" d="M263.8,115.3l-15.7-4.2l-11.5,11.5l4.1,15.7l15.7,4.2L268,131L263.8,115.3L263.8,115.3z"/>
<path id="path324" class="st1" d="M216.1,115.5h-5.8l5.1,2.9l-2.5,9.5l9.3-9.3l-3.4-12.7L216.1,115.5z"/>
<path id="path326" class="st1" d="M178.6,162.1l15.8-15.7l5.8-21.7l-16.1-9.2H141l21.6,37.4L178.6,162.1z"/>
<path id="path328" class="st1" d="M245.8,153l-15.7-4.2l-4.1-15.7L206.1,153l-7.2,27.2L226,173L245.8,153z"/>
<path id="path330" class="st1" d="M216.9,200.4l9.3,16.1l37.4,21.6v-43.1l-9.3-16.2l-21.6,5.9L216.9,200.4z"/>
<path id="path332" class="st1" d="M195,194.7l-3.4,12.7l6.9-7l5.2,3l-3-5.1l6.9-7L195,194.7L195,194.7z"/>
<path id="path334" class="st1" d="M184.3,184.1l3.4-12.6l-6.9,6.9l-5.2-3l3,5.3l-6.9,6.8L184.3,184.1L184.3,184.1z"/>
<path id="path336" class="st1" d="M180.3,198.7l-27,7.4l-19.9,19.8L149,230l4.2,15.7l19.8-19.9L180.3,198.7L180.3,198.7z"/>
<path id="path338" class="st1" d="M184.8,232.6l-5.8,21.6l15.7,9.2h43.6l-21.6-37.4l-16.1-9.2L184.8,232.6L184.8,232.6z"/>
<path id="path340" class="st1" d="M163.9,260.3l2.5-9.3l-9.3,9.2l3.5,12.6l2.4-9.4h6L163.9,260.3L163.9,260.3z"/>
<path id="path342" class="st1" d="M191.2,276.4l37.3,21.8l-36.8,21.4h-18.7l-5.7-21.2V298l5.7-21.6L191.2,276.4L191.2,276.4z"/>
<path id="path344" class="st1" d="M253.3,263.4h10.3v-10.3l-24.4-14L253.3,263.4z"/>
<path id="path346" class="st1" d="M250.9,285.3l-5.1-8.9h-29l24.5,14.4L250.9,285.3L250.9,285.3z"/>
<path id="path348" class="st1" d="M285.5,250.7l-8.9-5.1v-28.1l14.1,24.3L285.5,250.7L285.5,250.7z"/>
<path id="path350" class="st1" d="M276.6,276.4v-15.8l13.6,8l8-13.8l7.8,13.8l13.8-8l0,15.8h15.7l-7.8,13.6l13,8.3l-13,7.6l7.8,13.6
	h-15.7v15.8l-13.8-8l-7.8,13.8l-8-13.8l-14.2,8.3l-0.1-16.2l-15.1,0l7.5-13l-13.9-8.2l14.4-8.3l-8-13.6L276.6,276.4L276.6,276.4z"/>
<path id="path352" class="st1" d="M357.1,239.1l-24.3,14v10.3l10.3,0L357.1,239.1L357.1,239.1z"/>
<path id="path354" class="st1" d="M319.8,245.6v-28.1l-14.1,24.3l5.2,8.9L319.8,245.6z"/>
<path id="path356" class="st1" d="M350.7,276.4h28.1l-24.4,14.1l-8.9-5.2L350.7,276.4z"/>
<path id="path358" class="st1" d="M128.3,93.5l5.2,8.9h28.1l-24.4-14L128.3,93.5L128.3,93.5z"/>
<path id="path360" class="st1" d="M125.9,115.5l14.1,24.3c-8.1-4.6-16.2-9.3-24.4-14v-10.3L125.9,115.5L125.9,115.5z"/>
<path id="path362" class="st1" d="M88.6,137l14,24.4v-28l-8.8-5.3L88.6,137z"/>
<path id="path364" class="st1" d="M153,162.3l9.2,16.1l-15.7,15.8L125,200l-9.4-16.8l0-42.4L153,162.3z"/>
<path id="path366" class="st1" d="M115.6,210v5.9l-9.4,2.5l12.7,3.4l9.2-9.2l-9.5,2.5L115.6,210L115.6,210z"/>
<path id="path368" class="st1" d="M142.5,256.2l-11.5,11.6l-15.7-4.2l-4.1-15.7l11.3-11.5l15.7,4.1L142.5,256.2L142.5,256.2z"/>
<path id="path370" class="st1" d="M119.3,278.1l5.2,20.3l-5.2,19.6l15.7-4.2l11.5,11.5l7.2-27.2l-7.2-27.2L135,282.3L119.3,278.1
	L119.3,278.1z"/>
<path id="path372" class="st1" d="M115.4,332.4l-4.1,15.7l11.3,11.6l15.7-4.2l4.2-15.7l-11.5-11.5L115.4,332.4L115.4,332.4z"/>
<path id="path374" class="st1" d="M157.1,335.8l9.3,9.3l-2.5-9.4l5.2-3l-6,0l-2.4-9.5L157.1,335.8z"/>
<path id="path376" class="st1" d="M118.9,374l-12.7,3.4l9.4,2.7v5.8l3-5.1l9.4,2.5L118.9,374L118.9,374z"/>
<path id="path378" class="st1" d="M115.6,412v43.2l37.4-21.6l9.2-16.1l-15.7-15.8l-21.6-5.8L115.6,412L115.6,412z"/>
<path id="path380" class="st1" d="M133.3,370.2l19.9,19.9l27,7.2l-7.2-27.2l-19.8-19.8l-4.2,15.7L133.3,370.2z"/>
<path id="path382" class="st1" d="M115.6,470.3v9.5l10.6,0.1l13.8-23.8L115.6,470.3L115.6,470.3z"/>
<path id="path384" class="st1" d="M93.8,467.9l8.8-5.2v-28.1l-14,24.4L93.8,467.9z"/>
<path id="path386" class="st1" d="M128.3,502.4l8.9,5.2l25-14.4l-28.4-0.2L128.3,502.4z"/>
<path id="path388" class="st1" d="M350.7,319.6h28.1l-24.4-14.1l-8.9,5.2L350.7,319.6z"/>
<path id="path390" class="st1" d="M319.8,350.4v28.2l-14.1-24.4l5.2-8.9L319.8,350.4z"/>
<path id="path392" class="st1" d="M332.9,342.9l24.3,14.1l-14-24.4h-10.3V342.9z"/>
<path id="path394" class="st1" d="M263,332.6h-9.7L239.2,357l23.8-13.6V332.6z"/>
<path id="path396" class="st1" d="M285.5,345.3l-9.4,5.4l0.1,28.4l14.5-24.9L285.5,345.3L285.5,345.3z"/>
<path id="path398" class="st1" d="M263,358.2l-36.8,21.4l-9.3,16.1l15.8,15.8l21.6,5.8l9.1-15.7L263,358.2L263,358.2z"/>
<path id="path400" class="st1" d="M276.5,404.9l0.1,18.3l21.6,5.7l21.6-5.7v-18.6l-21.6-37.4L276.5,404.9L276.5,404.9z"/>
<path id="path402" class="st1" d="M250.7,311.3l-4.8,8.3h-28.2l23.8-13.6L250.7,311.3L250.7,311.3z"/>
<path id="path404" class="st1" d="M179,341.9l5.8,21.6l15.8,15.7l16.1-9.2l21.6-37.4H195L179,341.9L179,341.9z"/>
<path id="path406" class="st1" d="M171.7,408.5l6.9,6.9l-3,5.2l5.2-3l6.9,6.9l-3.4-12.6L171.7,408.5z"/>
<path id="path408" class="st1" d="M195,401.2l12.6,3.4l-6.9-6.9l3-5.2l-5.2,3l-6.9-6.9L195,401.2L195,401.2z"/>
<path id="path410" class="st1" d="M230.1,447.2l15.7-4.2L226,423.2l-27.2-7.2l7.2,27l19.9,19.9L230.1,447.2z"/>
<path id="path412" class="st1" d="M240.8,457.8l-4.1,15.7l11.5,11.5l15.7-4.2l4.2-15.6l-11.6-11.5L240.8,457.8z"/>
<path id="path414" class="st1" d="M162.6,443.2l-21.2,36.9l43.2,0.2l15.7-9.1l-5.8-21.6l-15.8-15.8L162.6,443.2L162.6,443.2z"/>
<path id="path416" class="st1" d="M222.2,477.3l-9.4-9.2l2.5,9.4l-5.2,2.9l6,0.1l2.7,9.4L222.2,477.3L222.2,477.3z"/>
<path id="path418" class="st1" d="M335.9,432.3l-3-5.2v6l-9.5,2.4l12.7,3.5l9.2-9.3L335.9,432.3z"/>
<path id="path420" class="st1" d="M325.5,449.7l-27.3-7.4l-27,7.4l11.3,11.5l-4.2,15.6l19.9-5.2l19.9,5.2l-4.2-15.6L325.5,449.7
	L325.5,449.7z"/>
<path id="path422" class="st1" d="M340,453.7l-11.5,11.5l4.1,15.6l15.7,4.2l11.6-11.5l-4.2-15.7L340,453.7L340,453.7z"/>
<path id="path424" class="st1" d="M468.1,93.5l-5.3,8.9h-28l24.4-14L468.1,93.5L468.1,93.5z"/>
<path id="path426" class="st1" d="M274.3,491.3l-6,23.2h59.9l-6.2-23.2l-23.9-6.4L274.3,491.3z"/>
<path id="path428" class="st1" d="M445,81.5h-60.2l5.4,20.9h18.6L445,81.5z"/>
<path id="path430" class="st1" d="M370.8,81.5h-29.2l-5.1,19.3l15.7-4.2l11.5,11.5L370.8,81.5L370.8,81.5z"/>
<path id="path432" class="st1" d="M493.9,206l20.8,5.6v-60.1l-20.8,36L493.9,206z"/>
<path id="path434" class="st1" d="M495.2,259.7l19.4-5.1v-29.1l-26.3,7l10.7,10.9L495.2,259.7L495.2,259.7z"/>
<path id="path436" class="st1" d="M491.8,274.1l-5.7,24.3l5.9,23.5l22.6,6v-59.9L491.8,274.1L491.8,274.1z"/>
<path id="path438" class="st1" d="M499.6,352.1l-11.3,11.5l26.3,7.1v-29.1l-19-5.2L499.6,352.1L499.6,352.1z"/>
<path id="path440" class="st1" d="M493.9,408.5l20.8,36.1v-60.1l-20.8,5.4L493.9,408.5L493.9,408.5z"/>
<path id="path442" class="st1" d="M363.6,488l-11.5,11.5l-15.7-4.2l5.1,19.3h29.2L363.6,488z"/>
<path id="path444" class="st1" d="M384.8,514.5H445l-36.4-21.1l-18.3,0.2L384.8,514.5L384.8,514.5z"/>
<path id="path446" class="st1" d="M493.9,492.8l-16.3,0.2l8.3,14.4l-12.4,7.1l41.2,0v-41l-7.1,12.3l-13.6-8L493.9,492.8L493.9,492.8
	z"/>
<path id="path448" class="st1" d="M328.1,81.5h-59.9l6,23.2l23.8,6.4l23.9-6.4L328.1,81.5L328.1,81.5z"/>
<path id="path450" class="st1" d="M232.8,108l11.3-11.5l15.7,4.2l-4.9-19.3l-29.1,0L232.8,108L232.8,108z"/>
<path id="path452" class="st1" d="M206.1,102.4l5.7-20.9h-60.2l36,20.9H206.1z"/>
<path id="path454" class="st1" d="M88.8,110.3l13.8,8v-15.9h15.8l-8-13.6l12.6-7.2H81.7v41.4L88.8,110.3L88.8,110.3z"/>
<path id="path456" class="st1" d="M102.6,187.4l-20.9-36.2v60.3l20.9-5.6V187.4z"/>
<path id="path458" class="st1" d="M81.7,225.5v29.2l19.2,5.1L96.7,244l11.6-11.5L81.7,225.5L81.7,225.5z"/>
<path id="path460" class="st1" d="M81.7,268.1v59.9l23.2-6.2l6.2-23.4l-6.2-24.1L81.7,268.1z"/>
<path id="path462" class="st1" d="M100.9,336.4l-19.2,5.1v29.1l26.6-7l-11.6-11.5L100.9,336.4L100.9,336.4z"/>
<path id="path464" class="st1" d="M102.6,390l-20.9-5.6v60.3l20.9-36.2V390z"/>
<path id="path466" class="st1" d="M88.8,485.8l-7.1-12.7v41.4H123l-12.6-7.1l8.3-14.4l-16.2-0.2v-15
	C98.1,480.5,93.4,483.1,88.8,485.8L88.8,485.8z"/>
<path id="path468" class="st1" d="M187.9,493.4l-36.3,21.1h60.2l-5.7-20.9L187.9,493.4z"/>
<path id="path470" class="st1" d="M254.8,514.5l5.1-19.3l-15.7,4.2L232.8,488l-7.1,26.6H254.8L254.8,514.5z"/>
<path id="path472" class="st1" d="M485.9,88.7l-8,13.6h15.9v15.9l13.6-8l7.1,12.4V81.5h-41.2L485.9,88.7z"/>
<path id="path752" class="st0" d="M623.3,504v-20.5h8.5v-20.2h-8.5v-20.7h8.5v-20.2h-8.5v-12 M1207.3,504h-17.8l0,0H1172l0,0h-18
	l0,0h-17.4l0,0h-18l0,0h-17.4l0,0h-18l0,0h-17.4l0,0h-18l0,0h-17.4l0,0h-18l0,0h-17.4l0,0h-18l0,0h-17.4l0,0h-18l0,0h-17.4l0,0h-18
	l0,0h-17.4l0,0h-18l0,0h-17.4l0,0h-18l0,0h-17.4l0,0h-18l0,0h-17.4l0,0h-18l0,0h-17.4l0,0h-18l0,0h-17.4l0,0h-18l0,0h-17.4l0,0h-18
	l0,0h-17.4l0,0h-17.8 M1207.3,410.5v12h-8.5v20.2h8.5v20.7h-8.5v20.2h8.5V504 M623.3,410.5h17.6V402h18v8.5h17.4V402h18v8.5h17.4
	V402h18v8.5h17.4V402h18v8.5h17.4V402h18v8.5h17.4V402h18v8.5h17.4V402h18v8.5h17.4V402h18v8.5H924V402h18v8.5h17.4V402h18v8.5h17.4
	V402h18v8.5h17.4V402h18v8.5h17.4V402h18v8.5h17.4V402h18v8.5h17.4V402h18v8.5h17.4V402h18v8.5h17.6"/>
<path id="path754" class="st0" d="M1198.6,390.7h-9.3l0,0h-17.4l0,0h-18l0,0h-17.4l0,0h-18l0,0h-17.4l0,0h-18l0,0h-17.4l0,0h-18l0,0
	h-17.4l0,0h-18l0,0h-17.4l0,0h-18l0,0h-17.4l0,0h-18l0,0h-17.4l0,0h-18l0,0h-17.4l0,0h-18l0,0h-17.4l0,0h-18l0,0H818l0,0h-18l0,0
	h-17.4l0,0h-18l0,0h-17.4l0,0h-18l0,0h-17.4l0,0h-18l0,0h-17.4l0,0h-18l0,0H641l0,0h-9.3 M1198.6,297.2V309h8.5v20.7h-8.5v20.2h8.5
	v20.7h-8.5v20.3 M631.7,297.2h9.1v-8.5h18v8.5h17.4v-8.5h18v8.5h17.4v-8.5h18v8.5h17.4v-8.5h18v8.5h17.4v-8.5h18v8.5h17.4v-8.5h18
	v8.5h17.4v-8.5h18v8.5h17.4v-8.5h18v8.5h17.4v-8.5h18v8.5h17.4v-8.5h18v8.5h17.4v-8.5h18v8.5h17.4v-8.5h18v8.5h17.4v-8.5h18v8.5
	h17.4v-8.5h18v8.5h17.4v-8.5h18v8.5h17.4v-8.5h18v8.5h9.1 M631.7,390.7v-20.3h-8.5v-20.7h8.5v-20.2h-8.5V309h8.5v-11.8"/>
<path id="path756" class="st0" d="M1197.5,268.2h-9.1v8.5h-18v-8.5h-17.4v8.5h-18v-8.5h-17.4v8.5h-18v-8.5h-17.4v8.5h-18v-8.5h-17.4
	v8.5h-18v-8.5h-17.4v8.5h-18v-8.5h-17.4v8.5h-18v-8.5h-17.4v8.5h-18v-8.5h-17.4v8.5h-18v-8.5H870v8.5h-18v-8.5h-17.4v8.5h-18v-8.5
	h-17.4v8.5h-18v-8.5h-17.4v8.5h-18v-8.5h-17.4v8.5h-18v-8.5H693v8.5h-18v-8.5h-17.4v8.5h-18v-8.5h-9.1 M1197.5,174.6v20.3h8.5v20.7
	h-8.5v20.2h8.5v20.7h-8.5v11.8 M630.6,174.6h9.3l0,0h17.4l0,0h18l0,0h17.4l0,0h18l0,0h17.4l0,0h18l0,0h17.4l0,0h18l0,0h17.4l0,0h18
	l0,0h17.4l0,0h18l0,0h17.4l0,0h18l0,0h17.4l0,0h18l0,0h17.4l0,0h18l0,0h17.4l0,0h18l0,0h17.4l0,0h18l0,0h17.4l0,0h18l0,0h17.4l0,0
	h18l0,0h17.4l0,0h18l0,0h17.4l0,0h18l0,0h17.4l0,0h9.3 M630.6,268.2v-11.8h-8.5v-20.7h8.5v-20.2h-8.5v-20.7h8.5v-20.3"/>
<path id="path758" class="st0" d="M623.3,157.9v-12h8.5v-20.2h-8.5V105h8.5V84.9h-8.5V64.3 M1207.3,157.9h-17.6v8.5h-18v-8.5h-17.4
	v8.5h-18v-8.5h-17.4v8.5h-18v-8.5h-17.4v8.5h-18v-8.5h-17.4v8.5h-18v-8.5h-17.4v8.5h-18v-8.5h-17.4v8.5h-18v-8.5H942v8.5h-18v-8.5
	h-17.4v8.5h-18v-8.5h-17.4v8.5h-18v-8.5h-17.4v8.5h-18v-8.5h-17.4v8.5h-18v-8.5H765v8.5h-18v-8.5h-17.4v8.5h-18v-8.5h-17.4v8.5h-18
	v-8.5h-17.4v8.5h-18v-8.5h-17.6 M1207.3,64.3v20.5h-8.5V105h8.5v20.7h-8.5v20.2h8.5v12 M623.3,64.3h17.8l0,0h17.4l0,0h18l0,0H694
	l0,0h18l0,0h17.4l0,0h18l0,0h17.4l0,0h18l0,0h17.4l0,0h18l0,0h17.4l0,0h18l0,0h17.4l0,0h18l0,0h17.4l0,0h18l0,0h17.4l0,0h18l0,0
	h17.4l0,0h18l0,0h17.4l0,0h18l0,0h17.4l0,0h18l0,0h17.4l0,0h18l0,0h17.4l0,0h18l0,0h17.4l0,0h18l0,0h17.4l0,0h17.8"/>
<path id="path1212" class="st0" d="M-628.4,590.2v-17.8h8.5v-17.4h-8.5v-18h8.5v-17.4h-8.5v-18h8.5v-17.4h-8.5v-18h8.5v-17.4h-8.5
	v-18h8.5v-17.4h-8.5v-18h8.5V378h-8.5v-18h8.5v-17.4h-8.5v-18h8.5v-17.4h-8.5v-18h8.5v-17.4h-8.5v-18h8.5v-17.4h-8.5v-18h8.5V201
	h-8.5v-18h8.5v-17.4h-8.5v-18h8.5v-17.4h-8.5v-18h8.5V94.9h-8.5v-18h8.5V59.5h-8.5v-18h8.5V24.1h-8.5V6.3 M-44.5,590.2h-17.8v-8.5
	h-17.4v8.5h-18v-8.5h-17.4v8.5h-18v-8.5h-17.4v8.5h-18v-8.5h-17.4v8.5h-18v-8.5h-17.4v8.5h-18v-8.5h-17.4v8.5h-18v-8.5h-17.4v8.5
	h-18v-8.5h-17.4v8.5h-18v-8.5h-17.4v8.5h-18v-8.5h-17.4v8.5h-18v-8.5h-17.4v8.5h-18v-8.5h-17.4v8.5h-18v-8.5h-17.4v8.5h-18v-8.5
	h-17.4v8.5h-18v-8.5h-17.4v8.5h-18v-8.5h-17.4v8.5h-17.8 M-44.5,6.3v17.8H-53v17.4h8.5v18H-53v17.4h8.5v18H-53v17.4h8.5v18H-53v17.4
	h8.5v18H-53v17.4h8.5v18H-53v17.4h8.5v18H-53v17.4h8.5v18H-53v17.4h8.5v18H-53v17.4h8.5v18H-53V360h8.5v18H-53v17.4h8.5v18H-53v17.4
	h8.5v18H-53v17.4h8.5v18H-53v17.4h8.5v18H-53V537h8.5v18H-53v17.4h8.5v17.8 M-628.4,6.3h17.8v8.5h17.4V6.3h18v8.5h17.4V6.3h18v8.5
	h17.4V6.3h18v8.5h17.4V6.3h18v8.5h17.4V6.3h18v8.5h17.4V6.3h18v8.5h17.4V6.3h18v8.5h17.4V6.3h18v8.5h17.4V6.3h18v8.5h17.4V6.3h18
	v8.5h17.4V6.3h18v8.5h17.4V6.3h18v8.5h17.4V6.3h18v8.5h17.4V6.3h18v8.5h17.4V6.3h18v8.5h17.4V6.3h17.8"/>
<path id="path1522" class="st0" d="M571.9-279.9h-9.3l0,0h-17.4l0,0h-18l0,0h-17.4l0,0h-18l0,0h-17.4l0,0h-18l0,0h-17.4l0,0h-18l0,0
	h-17.4l0,0h-18l0,0h-17.4l0,0h-18l0,0h-17.4l0,0h-18l0,0h-17.4l0,0h-18l0,0H262l0,0h-18l0,0h-17.4l0,0h-18l0,0h-17.4l0,0h-18l0,0
	h-17.4l0,0h-18l0,0h-17.4l0,0h-18l0,0H85l0,0h-18l0,0H49.6l0,0h-18l0,0H14.3l0,0H4.9 M571.9-486.9v11h8.5v19.8h-8.5v19.3h8.5v19.8
	h-8.5v19.3h8.5v19.8h-8.5v19.3h8.5v19.8h-8.5v19.3h8.5v19.8h-8.5v19.5 M4.9-486.9H14v-8.5h18v8.5h17.4v-8.5h18v8.5h17.4v-8.5h18v8.5
	h17.4v-8.5h18v8.5h17.4v-8.5h18v8.5h17.4v-8.5h18v8.5h17.4v-8.5h18v8.5h17.4v-8.5h18v8.5h17.4v-8.5h18v8.5h17.4v-8.5h18v8.5h17.4
	v-8.5h18v8.5h17.4v-8.5h18v8.5h17.4v-8.5h18v8.5h17.4v-8.5h18v8.5h17.4v-8.5h18v8.5h17.4v-8.5h18v8.5h9.1 M4.9-279.9v-19.5h-8.5
	v-19.8h8.5v-19.3h-8.5v-19.8h8.5v-19.3h-8.5v-19.8h8.5v-19.3h-8.5v-19.8h8.5v-19.3h-8.5v-19.8h8.5v-11"/>
<path id="path1524" class="st0" d="M-3-65v-11.2h8.5v-19.3H-3v-19.8h8.5v-19.3H-3v-19.8h8.5v-19.3H-3v-19.8h8.5v-19.3H-3v-19.8h8.5
	v-19.3H-3V-272 M581-65h-17.6v8.5h-18V-65H528v8.5h-18V-65h-17.4v8.5h-18V-65h-17.4v8.5h-18V-65h-17.4v8.5h-18V-65h-17.4v8.5h-18
	V-65h-17.4v8.5h-18V-65h-17.4v8.5h-18V-65h-17.4v8.5h-18V-65h-17.4v8.5h-18V-65h-17.4v8.5h-18V-65h-17.4v8.5h-18V-65h-17.4v8.5h-18
	V-65h-17.4v8.5h-18V-65H67.9v8.5H50V-65H32.6v8.5h-18V-65H-3 M581-272v19.7h-8.5v19.3h8.5v19.8h-8.5v19.3h8.5v19.8h-8.5v19.3h8.5
	v19.8h-8.5v19.3h8.5v19.8h-8.5v19.3h8.5V-65 M-3-272h17.8l0,0h17.4l0,0h18l0,0h17.4l0,0h18l0,0h17.4l0,0h18l0,0h17.4l0,0h18l0,0
	h17.4l0,0h18l0,0h17.4l0,0h18l0,0h17.4l0,0h18l0,0H280l0,0h18l0,0h17.4l0,0h18l0,0h17.4l0,0h18l0,0h17.4l0,0h18l0,0h17.4l0,0h18l0,0
	H457l0,0h18l0,0h17.4l0,0h18l0,0h17.4l0,0h18l0,0h17.4l0,0H581"/>
<path id="path1843" class="st0" d="M-637.7-71v-19.7h8.5V-110h-8.5v-19.8h8.5v-19.3h-8.5V-169h8.5v-19.3h-8.5v-19.8h8.5v-19.3h-8.5
	v-19.8h8.5v-19.3h-8.5v-11.2 M-53.7-71h-17.8l0,0H-89l0,0h-18l0,0h-17.4l0,0h-18l0,0h-17.4l0,0h-18l0,0h-17.4l0,0h-18l0,0h-17.4l0,0
	h-18l0,0H-266l0,0h-18l0,0h-17.4l0,0h-18l0,0h-17.4l0,0h-18l0,0h-17.4l0,0h-18l0,0h-17.4l0,0h-18l0,0h-17.4l0,0h-18l0,0h-17.4l0,0
	h-18l0,0h-17.4l0,0h-18l0,0h-17.4l0,0h-18l0,0h-17.4l0,0h-18l0,0h-17.4l0,0h-17.8 M-53.7-277.9v11.2h-8.5v19.3h8.5v19.8h-8.5v19.3
	h8.5v19.8h-8.5v19.3h8.5v19.8h-8.5v19.3h8.5v19.8h-8.5v19.3h8.5V-71 M-637.7-277.9h17.6v-8.5h18v8.5h17.4v-8.5h18v8.5h17.4v-8.5h18
	v8.5h17.4v-8.5h18v8.5h17.4v-8.5h18v8.5h17.4v-8.5h18v8.5h17.4v-8.5h18v8.5h17.4v-8.5h18v8.5h17.4v-8.5h18v8.5h17.4v-8.5h18v8.5
	h17.4v-8.5h18v8.5h17.4v-8.5h18v8.5h17.4v-8.5h18v8.5h17.4v-8.5h18v8.5h17.4v-8.5h18v8.5h17.4v-8.5h18v8.5h17.6"/>
<path id="path1845" class="st0" d="M-63-307h-9.1v8.5h-18v-8.5h-17.4v8.5h-18v-8.5h-17.4v8.5h-18v-8.5h-17.4v8.5h-18v-8.5h-17.4v8.5
	h-18v-8.5H-249v8.5h-18v-8.5h-17.4v8.5h-18v-8.5h-17.4v8.5h-18v-8.5h-17.4v8.5h-18v-8.5h-17.4v8.5h-18v-8.5H-426v8.5h-18v-8.5h-17.4
	v8.5h-18v-8.5h-17.4v8.5h-18v-8.5h-17.4v8.5h-18v-8.5h-17.4v8.5h-18v-8.5h-17.4v8.5h-18v-8.5h-9.1 M-63-513.9v19.5h8.5v19.8H-63
	v19.3h8.5v19.8H-63v19.3h8.5v19.8H-63v19.3h8.5v19.8H-63v19.3h8.5v19.8H-63v11 M-629.9-513.9h9.3l0,0h17.4l0,0h18l0,0h17.4l0,0h18
	l0,0h17.4l0,0h18l0,0h17.4l0,0h18l0,0h17.4l0,0h18l0,0h17.4l0,0h18l0,0h17.4l0,0h18l0,0h17.4l0,0h18l0,0h17.4l0,0h18l0,0h17.4l0,0
	h18l0,0h17.4l0,0h18l0,0h17.4l0,0h18l0,0h17.4l0,0h18l0,0h17.4l0,0h18l0,0h17.4l0,0h18l0,0h17.4l0,0h9.3 M-629.9-307v-11h-8.5v-19.8
	h8.5v-19.3h-8.5v-19.8h8.5v-19.3h-8.5v-19.8h8.5v-19.3h-8.5v-19.8h8.5v-19.3h-8.5v-19.8h8.5v-19.5"/>
</svg>
