<?xml version="1.0" encoding="utf-8"?>
<!-- Generator: Adobe Illustrator 24.2.3, SVG Export Plug-In . SVG Version: 6.00 Build 0)  -->
<svg version="1.1"
	 id="svg2" xmlns:cc="http://creativecommons.org/ns#" xmlns:dc="http://purl.org/dc/elements/1.1/" xmlns:inkscape="http://www.inkscape.org/namespaces/inkscape" xmlns:rdf="http://www.w3.org/1999/02/22-rdf-syntax-ns#" xmlns:svg="http://www.w3.org/2000/svg"
	 xmlns="http://www.w3.org/2000/svg" xmlns:xlink="http://www.w3.org/1999/xlink" x="0px" y="0px" viewBox="0 0 2480.3 1052.4"
	 style="enable-background:new 0 0 2480.3 1052.4;" xml:space="preserve">
<style type="text/css">
	.st0{fill:none;stroke:#000000;stroke-width:3.543307e-02;stroke-linecap:round;stroke-linejoin:round;}
</style>
<defs>
	<inkscape:path-effect  effect="vonkoch" id="path-effect3027"></inkscape:path-effect>
	<inkscape:path-effect  effect="knot" id="path-effect3025"></inkscape:path-effect>
	<inkscape:path-effect  effect="knot" id="path-effect3023"></inkscape:path-effect>
	<inkscape:path-effect  effect="rough_hatches" id="path-effect3021"></inkscape:path-effect>
	<inkscape:path-effect  effect="envelope" id="path-effect3019"></inkscape:path-effect>
	<inkscape:path-effect  effect="rough_hatches" id="path-effect3017"></inkscape:path-effect>
	<inkscape:path-effect  effect="spiro" id="path-effect3015"></inkscape:path-effect>
	<inkscape:path-effect  effect="gears" id="path-effect3013"></inkscape:path-effect>
	<inkscape:path-effect  effect="gears" id="path-effect3013-9"></inkscape:path-effect>
	<inkscape:path-effect  effect="spiro" id="path-effect3015-6"></inkscape:path-effect>
	<inkscape:path-effect  effect="rough_hatches" id="path-effect3017-5"></inkscape:path-effect>
	<inkscape:path-effect  effect="envelope" id="path-effect3019-6"></inkscape:path-effect>
	<inkscape:path-effect  effect="rough_hatches" id="path-effect3021-6"></inkscape:path-effect>
	<inkscape:path-effect  effect="knot" id="path-effect3023-0"></inkscape:path-effect>
	<inkscape:path-effect  effect="knot" id="path-effect3025-3"></inkscape:path-effect>
	<inkscape:path-effect  effect="vonkoch" id="path-effect3027-1"></inkscape:path-effect>
</defs>
<g id="layer1" transform="translate(0,-2.7859377e-5)">
	<path id="path4488" class="st0" d="M557.6,169c67.1,7.7,128.4,33.9,178.7,73.4c-7.2,2-13.8,5.7-19,11L699.6,271
		c-39.5-29-86.2-48.8-136.8-56.6v-25C562.9,182.3,561.1,175.2,557.6,169z M472.7,169.3c-3.3,6.2-5,13.1-5.1,20.1v25
		c-50.5,7.8-97.2,27.6-136.8,56.6l-17.7-17.7c-4.8-4.8-10.7-8.4-17.1-10.4C345.9,203.7,406.4,177.4,472.7,169.3z M773.4,446.3
		c6.8,22.8,10.6,46.9,11,71.8h64.2v9.4h-64.2c-1.2,70.8-29.7,134.9-75.5,182.2l45.4,45.4l-6.7,6.7l-45.4-45.4
		c-47.4,45.7-111.5,74.2-182.2,75.5v64.3h-9.4v-64.3c-70.8-1.2-134.9-29.7-182.2-75.5l-45.4,45.4l-6.7-6.7l45.4-45.4
		c-45.7-47.4-74.2-111.5-75.5-182.2h-64.3v-9.4h64.3c1.2-70.8,29.7-134.9,75.5-182.2l-45.5-45.5l6.7-6.7l45.4,45.4
		c47.4-45.7,111.5-74.2,182.2-75.5v-64.3v0h9.4v64.3c70.8,1.2,134.9,29.7,182.2,75.5l45.4-45.4l6.7,6.7l-45.5,45.5
		c19.8,20.5,36.3,44.1,48.8,70l112-68.5c-66.6-127-199.7-213.7-353.1-213.7v0c-220,0-398.4,178.4-398.4,398.4
		s178.4,398.4,398.4,398.4S915,742.1,915,522.1c0-41.5-6.3-81.5-18.1-119.1L773.4,446.3z M235.6,304c2.1,6.3,5.6,12,10.3,16.7
		l17.7,17.7c-29,39.5-48.9,86.2-56.6,136.8h-25c-6.3,0-12.5,1.4-18.2,4.1C171.5,413.6,197.1,353.6,235.6,304L235.6,304z
		 M869.5,564.9c-8,66.9-34.4,127.9-74.1,178c-2-6.8-5.7-13-10.8-18.1L767,707.2c29-39.5,48.8-86.2,56.6-136.8h25
		C855.9,570.4,863.1,568.5,869.5,564.9z M163.9,566.4c5.6,2.6,11.8,4,18,4h25c7.8,50.5,27.6,97.2,56.6,136.8l-17.7,17.7
		c-4.4,4.5-7.8,9.8-9.9,15.8C197.6,691.3,171.9,631.6,163.9,566.4z M330.9,774.5c39.5,29,86.2,48.8,136.8,56.6v25
		c0,6.4,1.5,12.8,4.3,18.6c-65.5-8.1-125.3-33.9-174.6-72.6c6-2.1,11.4-5.5,15.9-10L330.9,774.5z M699.6,774.5l17.7,17.7
		c5,4.9,11,8.6,17.7,10.6c-49.9,38.8-110.4,64.6-176.6,72.3c2.9-5.9,4.5-12.4,4.5-18.9v-25C613.4,823.3,660.1,803.5,699.6,774.5z"/>
	<path id="path4564" class="st0" d="M500.6,36.8c-3,4.4-4.6,9.6-4.8,15l-0.4,17.6c-104.1,5.1-199.2,45.6-273.2,109.5l-12.5-12.5
		c-3.8-3.8-8.7-6.5-14-7.6C277.3,86.2,383.6,40.9,500.6,36.8L500.6,36.8z M558.3,38.1c112,9.2,213.1,56.2,290.6,128.3
		c-5.3,1-10.3,3.5-14.2,7.2l-12.8,12.2C751.7,122.4,661.5,80.6,561.9,71l0.4-17.7C562.5,48,561.1,42.7,558.3,38.1L558.3,38.1z
		 M814.7,217.6c2.4,2.4,4.8,4.7,7.2,7.2l32.2-30.7l7.2,7.5l-32.2,30.7C898.7,307,941.7,406.8,943,516.6h44.4V527H943
		c-1.4,113.4-47.2,216.1-120.8,291.6l31.4,31.4l-7.4,7.3L814.8,826C738.3,900.7,633.5,946.8,518,946.8c-1.6,0-3.2,0-4.8,0l-1,44.4
		l-10.4-0.2l1-44.4c-113-4-214.8-52.1-288.7-127.6L182,849.6l-7.2-7.5l32.2-30.7C137.4,736.7,94.4,636.8,93.1,527H48.7v-10.4h44.4
		c1.4-113.4,47.2-216.1,120.8-291.6l-31.4-31.4l7.4-7.4l31.4,31.4C297.8,142.9,402.6,96.8,518,96.8c1.6,0,3.2,0,4.8,0l1-44.4v0
		l10.4,0.2l-1,44.4c48.6,1.7,95.1,11.6,138.2,28.3c14.1,5.4,27.8,11.6,41.1,18.5c36.5,18.8,69.9,42.7,99.3,70.8l64.7-60.6
		c-32.1-31.3-68.3-58.5-107.8-80.6c-16.4-9.2-33.4-17.5-50.8-24.9c-61.4-26-129-40.4-199.9-40.4v0C234.4,8.3,4.5,238.2,4.5,521.8
		s229.9,513.5,513.5,513.5s513.5-229.9,513.5-513.5c0-141.9-57.5-270.3-150.5-363.2L814.7,217.6z M155,199.4
		c1.1,5.3,3.7,10.2,7.6,14l12.5,12.5C113.4,297.4,73.6,388.6,66.3,488.5H48.7c-5.4,0-10.6,1.5-15.2,4.4
		C40.1,380.5,84.9,278.4,155,199.4L155,199.4z M888.6,208.1c65.9,77.7,107.7,176.5,114,284.9c-4.5-2.9-9.8-4.5-15.2-4.5h-17.7
		c-7-96.2-44.1-184.2-101.9-254.4l12.8-12.2C884.6,218.1,887.3,213.3,888.6,208.1L888.6,208.1z M33.5,550.6
		c4.5,2.9,9.8,4.5,15.2,4.5h17.7c7,96.2,44.1,184.2,101.9,254.5l-12.8,12.2c-3.9,3.7-6.7,8.6-7.9,13.8
		C81.6,757.8,39.8,659,33.5,550.6z M1002.6,550.6C996,663.1,951.2,765.2,881,844.2c-1.1-5.3-3.7-10.2-7.6-14L861,817.7
		c61.7-71.5,101.5-162.6,108.8-262.6h17.7C992.8,555.1,998,553.5,1002.6,550.6L1002.6,550.6z M214.2,857.7
		c70.2,63.5,160.4,105.3,260,114.9l-0.4,17.7c-0.1,5.3,1.3,10.6,4.1,15.2c-112-9.2-213.2-56.2-290.6-128.4c5.3-1,10.3-3.5,14.2-7.2
		L214.2,857.7z M813.9,864.7l12.5,12.5c3.8,3.8,8.7,6.5,14,7.6c-81.6,72.5-188,117.9-305,122c3-4.4,4.6-9.6,4.8-15l0.4-17.6
		C644.8,969.1,739.9,928.7,813.9,864.7L813.9,864.7z"/>
	<g id="g4909" transform="matrix(2.1990473,0,0,2.22561,19.415317,-14.810445)">
		<g id="layer1-2">
		</g>
	</g>
	<g id="g4259" transform="translate(-1197.6129,-392.78223)">
	</g>
	<g id="g4311" transform="translate(-1197.6129,-392.78223)">
	</g>
	<g id="g4430" transform="translate(-58.206358,-591.31469)">
		<path id="path4432" class="st0" d="M1236.3,974.5c-18.8,2.2-34.1,15.6-38.6,33.1c0,0.6,0.1,1.2,0.1,1.8h45v10.6h-44.2
			c4,45.7,13.9,89.7,29.1,131.2h51.2v10.5h-47.2c18.6,47.6,44.1,91.7,75.2,131.2h65.9v10.5h-57.3c50.5,60.6,114.8,109.4,188,141.6
			H1605v-12h0v-1.2h85.9v-0.1h0.2v-0.6v-12.8h1.2v-34.6v-0.4v-13.7h-1.1v-20.9h-34.4v20.9h-54.1V1349h-34.4v10.8h-35v-12.5
			c-135.4-57.4-232.6-180.3-246.4-334.1v0.5c-2.3-20.5-18.8-36.8-39.8-39.2H1236.3L1236.3,974.5z M1262.1,1039.7
			c4.3,29.2,11.4,57.4,21.2,84.2c-1.5-0.2-2.9-0.4-4.4-0.4h-31.4c-7.9-24.5-13.9-49.8-17.8-75.9h13
			C1250,1047.6,1257,1044.7,1262.1,1039.7z M1304.4,1172.3c17.5,34,39.6,65,65.2,92.9h-49c-17.7-23.7-33.3-49.1-46.5-75.9h4.8
			C1290,1189.3,1300.1,1182.6,1304.4,1172.3L1304.4,1172.3z M1400.4,1295.8c31.2,27.7,66.7,50.9,105.1,69.1v4.8
			c0,15.3,12.4,27.7,27.7,27.7h35c6.3,0,12.3-2.1,17.2-6c1.8,1.4,3.8,2.6,5.9,3.6c-8.1,4.6-13.3,13-13.9,22.4h-67.8
			c-48.2-21.9-92.3-51.4-130.6-87c12.5-2.9,21.3-14.1,21.3-26.9V1295.8z"/>
	</g>
	<g id="g3861" transform="translate(19.263165,-695.66124)">
		<path id="path3863" class="st0" d="M1236.3,974.5c-18.8,2.2-34.1,15.6-38.6,33.1c0,0.6,0.1,1.2,0.1,1.8h45v10.6h-44.2
			c4,45.7,13.9,89.7,29.1,131.2h51.2v10.5h-47.2c18.6,47.6,44.1,91.7,75.2,131.2h65.9v10.5h-57.3c50.5,60.6,114.8,109.4,188,141.6
			H1605v-12h0v-1.2h85.9v-0.1h0.2v-0.6v-12.8h1.2v-34.6v-0.4v-13.7h-1.1v-20.9h-34.4v20.9h-54.1V1349h-34.4v10.8h-35v-12.5
			c-135.4-57.4-232.6-180.3-246.4-334.1v0.5c-2.3-20.5-18.8-36.8-39.8-39.2H1236.3L1236.3,974.5z M1262.1,1039.7
			c4.3,29.3,11.4,57.4,21.2,84.2c-1.5-0.2-2.9-0.4-4.4-0.4h-31.4c-7.9-24.5-13.9-49.8-17.8-75.9h13
			C1250,1047.6,1257,1044.7,1262.1,1039.7z M1304.4,1172.3c17.5,34,39.6,65,65.2,92.9h-49c-17.7-23.7-33.3-49.1-46.5-75.9h4.8
			C1290,1189.3,1300.1,1182.6,1304.4,1172.3L1304.4,1172.3z M1400.4,1295.8c31.2,27.7,66.7,50.9,105.1,69.1v4.8
			c0,15.3,12.4,27.7,27.7,27.7h35c6.3,0,12.3-2.1,17.2-6c1.8,1.4,3.8,2.6,5.9,3.6c-8.1,4.6-13.3,13-13.9,22.4h-67.8
			c-48.2-21.9-92.3-51.4-130.6-87c12.5-2.9,21.3-14.1,21.3-26.9V1295.8z"/>
	</g>
	<g id="g3865" transform="translate(98.257148,-794.34952)">
		<path id="path3867" class="st0" d="M1236.3,974.5c-18.8,2.2-34.1,15.6-38.6,33.1c0,0.6,0.1,1.2,0.1,1.8h45v10.6h-44.2
			c4,45.7,13.9,89.7,29.1,131.2h51.2v10.5h-47.2c18.6,47.6,44.1,91.7,75.2,131.2h65.9v10.5h-57.3c50.5,60.6,114.8,109.4,188,141.6
			H1605v-12h0v-1.2h85.9v-0.1h0.2v-0.6v-12.8h1.2v-34.6v-0.4v-13.7h-1.1v-20.9h-34.4v20.9h-54.1V1349h-34.4v10.8h-35v-12.5
			c-135.4-57.4-232.6-180.3-246.4-334.1v0.5c-2.3-20.5-18.8-36.8-39.8-39.2H1236.3L1236.3,974.5z M1262.1,1039.7
			c4.3,29.2,11.4,57.4,21.2,84.2c-1.5-0.2-2.9-0.4-4.4-0.4h-31.4c-7.9-24.5-13.9-49.8-17.8-75.9h13
			C1250,1047.6,1257,1044.7,1262.1,1039.7z M1304.4,1172.3c17.5,34,39.6,65,65.2,92.9h-49c-17.7-23.7-33.3-49.1-46.5-75.9h4.8
			C1290,1189.3,1300.1,1182.6,1304.4,1172.3L1304.4,1172.3z M1400.4,1295.8c31.2,27.7,66.7,50.9,105.1,69.1v4.8
			c0,15.3,12.4,27.7,27.7,27.7h35c6.3,0,12.3-2.1,17.2-6c1.8,1.4,3.8,2.6,5.9,3.6c-8.1,4.6-13.3,13-13.9,22.4h-67.8
			c-48.2-21.9-92.3-51.4-130.6-87c12.5-2.9,21.3-14.1,21.3-26.9V1295.8z"/>
	</g>
	<path id="path3818-2" class="st0" d="M518.1,336.6c-97.3,0-176.1,78.8-176.1,176.1c0,97.3,78.8,176.2,176.1,176.2
		s176.2-78.9,176.2-176.2C694.3,415.5,615.4,336.6,518.1,336.6z M513.5,371.7h9.3v34.1h-9.3V371.7z M421.7,409.7l24.1,24.1l-6.6,6.6
		l-24.1-24.1L421.7,409.7z M614.6,409.7l6.6,6.6l-24.1,24.1l-6.6-6.6L614.6,409.7z M513.3,460.1h9.3v32.1c2.3,0.5,4.5,1.4,6.5,2.6
		l22.8-22.8l6.6,6.6l-22.6,22.6c1.3,2,2.3,4.2,2.9,6.6h31.9v9.3h-31.8c-0.5,2.4-1.5,4.7-2.7,6.8l22.5,22.5l-6.6,6.6l-22.4-22.4
		c-2,1.3-4.3,2.3-6.7,2.8v31.8h-9.3v-31.8c-2.4-0.5-4.6-1.5-6.6-2.8l-22.7,22.7l-6.6-6.6l22.7-22.7c-1.2-2-2.1-4.1-2.7-6.4h-32.2
		v-9.3h32.2c0.5-2.3,1.4-4.4,2.6-6.4l-22.9-22.9l6.6-6.6l22.8,22.8c1.9-1.2,4-2.1,6.3-2.7L513.3,460.1L513.3,460.1z M377.1,508.1
		h34.1v9.3h-34.1V508.1z M625.1,508.1h34.1v9.3h-34.1V508.1z M439.2,585.1l6.6,6.6l-24.1,24.1l-6.6-6.6L439.2,585.1z M597.1,585.1
		l24.1,24.1l-6.6,6.6l-24.1-24.1L597.1,585.1z M513.5,619.7h9.3v34.1h-9.3V619.7z"/>
	<path id="path3181" class="st0" d="M1577.6,300.4c-44,0-79.7,35.7-79.7,79.7c0,44,35.7,79.7,79.7,79.7c44,0,79.7-35.7,79.7-79.7
		C1657.3,336,1621.6,300.4,1577.6,300.4z M1573.7,326.8h9.3v34.1h-9.3V326.8z M1612.2,338.8l6.6,6.6l-24.1,24.1l-6.6-6.6
		L1612.2,338.8z M1544.6,339.1l24.1,24.1l-6.6,6.6l-24.1-24.1L1544.6,339.1z M1578.5,372.1c6.8,0,7.9,0.6,7.9,7.4s-1,7.6-7.8,7.6
		s-7.8-1-7.8-7.8S1571.7,372.1,1578.5,372.1z M1596.9,374.5h34.1v9.3h-34.1V374.5z M1526.1,374.9h34.1v9.3h-34.1V374.9z M1595,388.9
		l24.1,24.1l-6.6,6.6l-24.1-24.1L1595,388.9z M1562.4,389.2l6.6,6.6l-24.1,24.1l-6.6-6.6L1562.4,389.2z M1574.1,397.7h9.3v34.1h-9.3
		V397.7z"/>
	<path id="path4509" class="st0" d="M1036.5,498.6c7.3,258.6,219.2,466.1,479.6,466.1c265,0,479.8-214.8,479.8-479.8
		S1781.1,5,1516.1,5v0c-265,0-479.8,214.8-479.8,479.8c0,2.7,0,5.4,0.1,8.1l95.1,4.8c-0.2-4.4-0.3-8.8-0.4-13.2h-47.8v-10h47.8
		c1.3-102.3,42.6-195,109-263.1l-33.8-33.8l7.1-7.1l33.8,33.8c68.1-66.4,160.8-107.7,263.1-109V47.7v0h10v47.8
		c102.3,1.3,195,42.6,263.1,109l33.8-33.8l7.1,7.1l-33.8,33.8c66.4,68.1,107.7,160.8,109,263.1h47.8v10h-47.8
		c-1.3,102.3-42.6,195-109,263.1l33.8,33.8l-7.1,7.1l-33.8-33.8c-68.1,66.4-160.8,107.7-263.1,109v47.8h-10v-47.8
		c-102.3-1.3-195-42.6-263.1-109l-33.8,33.8l-7.1-7.1l33.8-33.8c-62.4-64-102.6-149.7-108.3-244.7L1036.5,498.6z M1550.3,38
		c96.7,7.3,184.7,45,254.6,103.8c-3.7,1.6-7,3.8-9.9,6.7l-12.7,12.7c-63.5-53.2-143.1-87.8-230.4-95.5v-18
		C1551.8,44.4,1551.3,41.1,1550.3,38z M1480.3,38.1c-1,3.1-1.5,6.3-1.5,9.6v18c-87.3,7.6-166.9,42.3-230.4,95.5l-12.7-12.7
		c-2.6-2.6-5.5-4.6-8.8-6.2C1296.4,83.5,1384,45.7,1480.3,38.1z M1853.5,189.5c61.3,70,101.1,159.3,109.3,257.7
		c-4.7-2.7-10-4.1-15.5-4.1h-18c-7.6-87.3-42.3-166.9-95.5-230.4l12.7-12.7C1849.6,197,1851.9,193.4,1853.5,189.5L1853.5,189.5z
		 M1177.7,190.8c1.6,3.4,3.7,6.6,6.4,9.2l12.7,12.7c-53.2,63.5-87.8,143.1-95.5,230.4h-18c-4.8,0-9.5,1.1-13.8,3.2
		C1077.9,348.8,1117.2,260.4,1177.7,190.8L1177.7,190.8z M1963.6,511.6c-6,101.6-45.6,194-108,266.3c-0.8-7-4-13.6-9-18.6
		l-12.7-12.7c53.2-63.5,87.8-143.1,95.5-230.4h18C1953,516.1,1958.7,514.6,1963.6,511.6L1963.6,511.6z M1068.8,512.5
		c4.5,2.4,9.5,3.6,14.6,3.6h18c7.6,87.3,42.3,166.9,95.5,230.4l-12.7,12.7c-4.6,4.6-7.7,10.5-8.8,16.9
		C1113.9,704.4,1074.9,613,1068.8,512.5z M1248.4,798.2c63.5,53.2,143.1,87.8,230.4,95.5v18c0,7.5,2.7,14.7,7.6,20.4
		c-102.9-6.7-196.2-47.9-268.4-112.3c6.7-1,12.9-4.1,17.8-8.8L1248.4,798.2z M1782.2,798.2l12.7,12.7c5.1,5.1,11.9,8.3,19.2,9.1
		c-72.6,64.6-166.5,105.9-269.9,112.2c4.9-5.7,7.7-13,7.7-20.6v-18C1639.1,886,1718.8,851.4,1782.2,798.2L1782.2,798.2z"/>
	<g id="g4003" transform="matrix(-0.78271712,-0.62237762,0.62237762,-0.78271712,2475.0022,2189.014)">
		<path id="path4005" class="st0" d="M1236.3,974.5c-18.8,2.2-34.1,15.6-38.6,33.1c0,0.6,0.1,1.2,0.1,1.8l45,0v10.6l-44.2,0
			c4,45.7,13.9,89.7,29.1,131.2h51.2v10.5h-47.2c18.6,47.6,44.1,91.7,75.2,131.2h65.9v10.5l-57.3,0c50.5,60.6,114.8,109.4,188,141.6
			H1605v-12h0v-1.2l85.9,0v-0.1h0.2v-0.6v-12.8h1.2v-34.6v-0.4v-13.7h-1.1v-20.9h-34.4v20.9h-54.1V1349h-34.4v10.8h-35v-12.5
			c-135.4-57.4-232.6-180.3-246.4-334.1v0.5c-2.3-20.5-18.8-36.8-39.8-39.2L1236.3,974.5L1236.3,974.5z M1262.1,1039.7
			c4.3,29.3,11.4,57.4,21.2,84.2c-1.5-0.2-2.9-0.4-4.4-0.4h-31.4c-7.9-24.5-13.9-49.8-17.8-75.9h13
			C1250,1047.6,1257,1044.7,1262.1,1039.7z M1304.4,1172.3c17.5,34,39.6,65,65.2,92.9h-49c-17.7-23.7-33.3-49.1-46.5-75.9h4.8
			C1290,1189.3,1300.1,1182.6,1304.4,1172.3L1304.4,1172.3z M1400.4,1295.8c31.2,27.7,66.7,50.9,105.1,69.1v4.8
			c0,15.3,12.4,27.7,27.7,27.7h35c6.3,0,12.3-2.1,17.2-6c1.8,1.4,3.8,2.6,5.9,3.6c-8.1,4.6-13.3,13-13.9,22.4h-67.8
			c-48.2-21.9-92.3-51.4-130.6-87c12.5-2.9,21.3-14.1,21.3-26.9V1295.8z"/>
	</g>
	<g id="g4007" transform="matrix(0.74823524,0.66343351,-0.66343351,0.74823524,839.27931,-2156.6303)">
		<path id="path4009" class="st0" d="M2666.7,1056.4c-18.8,2.2-34.1,15.6-38.6,33.1c0,0.6,0.1,1.2,0.1,1.8h45v10.6H2629
			c4,45.7,13.9,89.7,29.1,131.2h51.2v10.5H2662c18.6,47.6,44.1,91.7,75.2,131.2l65.9,0v10.5h-57.3c50.5,60.6,114.8,109.4,188,141.6
			l101.6,0v-12h0v-1.2h85.9v-0.1h0.2v-0.6v-12.8h1.2v-34.6v-0.4v-13.7h-1.1v-20.9h-34.4v20.9H3033v-20.7h-34.4v10.8h-35v-12.5
			c-135.4-57.4-232.6-180.3-246.4-334.1v0.5c-2.3-20.5-18.8-36.8-39.8-39.2L2666.7,1056.4L2666.7,1056.4z M2692.5,1121.6
			c4.3,29.2,11.4,57.4,21.2,84.2c-1.5-0.2-2.9-0.4-4.4-0.4h-31.4c-7.9-24.5-13.9-49.8-17.8-75.9h13
			C2680.4,1129.5,2687.4,1126.7,2692.5,1121.6z M2734.8,1254.2c17.5,34,39.6,65,65.2,92.9h-49c-17.7-23.7-33.3-49.1-46.5-75.9h4.8
			C2720.4,1271.2,2730.5,1264.5,2734.8,1254.2z M2830.8,1377.7c31.2,27.7,66.7,50.9,105.1,69.1v4.8c0,15.3,12.4,27.7,27.7,27.7h35
			c6.3,0,12.3-2.1,17.2-6c1.8,1.4,3.8,2.6,5.9,3.6c-8.1,4.6-13.3,13-13.9,22.4H2940c-48.2-21.9-92.3-51.4-130.6-87
			c12.5-2.9,21.3-14.1,21.3-26.9V1377.7z"/>
	</g>
	<g id="g4011" transform="matrix(-0.83291763,-0.55339697,0.55339697,-0.83291763,2842.5199,2137.2316)">
		<path id="path4013" class="st0" d="M1236.3,974.5c-18.8,2.2-34.1,15.6-38.6,33.1c0,0.6,0.1,1.2,0.1,1.8l45,0v10.6h-44.2
			c4,45.7,13.9,89.7,29.1,131.2h51.2v10.5h-47.2c18.6,47.6,44.1,91.7,75.2,131.2h65.9v10.5h-57.3c50.5,60.6,114.8,109.4,188,141.6
			H1605v-12h0v-1.2h85.9v-0.1h0.2v-0.6v-12.8h1.2v-34.6v-0.4v-13.7h-1.1v-20.9h-34.4v20.9h-54.1V1349h-34.4v10.8h-35v-12.5
			c-135.4-57.4-232.6-180.3-246.4-334.1v0.5c-2.3-20.5-18.8-36.8-39.8-39.2H1236.3L1236.3,974.5z M1262.1,1039.7
			c4.3,29.2,11.4,57.4,21.2,84.2c-1.5-0.2-2.9-0.4-4.4-0.4h-31.4c-7.9-24.5-13.9-49.8-17.8-75.9h13
			C1250,1047.6,1257,1044.7,1262.1,1039.7z M1304.4,1172.3c17.5,34,39.6,65,65.2,92.9h-49c-17.7-23.7-33.3-49.1-46.5-75.9h4.8
			C1290,1189.3,1300.1,1182.6,1304.4,1172.3L1304.4,1172.3z M1400.4,1295.8c31.2,27.7,66.7,50.9,105.1,69.1v4.8
			c0,15.3,12.4,27.7,27.7,27.7h35c6.3,0,12.3-2.1,17.2-6c1.8,1.4,3.8,2.6,5.9,3.6c-8.1,4.6-13.3,13-13.9,22.4h-67.8
			c-48.2-21.9-92.3-51.4-130.6-87c12.5-2.9,21.3-14.1,21.3-26.9V1295.8z"/>
	</g>
	<g id="g4015" transform="matrix(0.99910571,0.04228205,-0.04228205,0.99910571,2368.5246,-356.50899)">
		<path id="path4017" class="st0" d="M14.7,758c-16.5-9.3-36.7-7.5-50.7,4c-0.3,0.5-0.6,1-0.9,1.5L-0.5,790l-6.2,8.5l-35.7-26
			c-23.7,39.3-41.6,80.7-53.8,123.1l41.4,30.2l-6.2,8.5l-38.2-27.8c-13,49.4-18.4,100.1-16.4,150.3l53.2,38.8l-6.2,8.5l-46.3-33.7
			c5.1,78.8,28.3,156,68.6,225.1l82.1,59.8l7.1-9.7l0,0l0.7-0.9l69.4,50.6l0-0.1l0.2,0.1l0.3-0.5l7.6-10.4l0.9,0.7l20.4-28l0.2-0.3
			l8-11l-0.9-0.7l12.3-16.9l-27.8-20.3l-12.3,16.9l-43.7-31.9l12.2-16.7l-27.8-20.3l-6.3,8.7l-28.3-20.6l7.4-10.1
			C-40.4,1108-46.6,951.5,32.8,819l-0.3,0.4c10.2-17.9,6.4-40.8-9.1-55.1L14.7,758L14.7,758z M-2.7,825.9
			c-13.8,26.2-24.6,53.1-32.5,80.5c-1-1.1-2.2-2-3.3-2.9L-63.9,885c8.1-24.4,18.2-48.4,30.3-71.8l10.5,7.7
			C-17.2,825.1-9.9,826.9-2.7,825.9z M-46.7,958c-5.9,37.8-6.3,75.9-2,113.5l-39.6-28.8c-0.4-29.6,2-59.3,7.1-88.7l3.9,2.8
			C-68.3,963.2-56.2,963.7-46.7,958L-46.7,958z M-41.8,1114.4c8.9,40.8,23.9,80.4,44.3,117.7l-2.8,3.9c-9,12.3-6.3,29.6,6.1,38.6
			l28.3,20.6c5.1,3.7,11.2,5.5,17.5,5.3c0.6,2.2,1.5,4.4,2.7,6.4c-9.3-1-18.5,2.7-24.4,9.9l-54.8-39.9
			c-26.1-46.1-44.3-95.9-54.3-147.2c11.8,5,25.5,1.2,33.1-9.2L-41.8,1114.4L-41.8,1114.4z"/>
	</g>
	<g id="g4019" transform="matrix(-1,0,0,-1,3080.0362,1553.9894)">
		<path id="path4021" class="st0" d="M1236.3,974.5c-18.8,2.2-34.1,15.6-38.6,33.1c0,0.6,0.1,1.2,0.1,1.8h45v10.6h-44.2
			c4,45.7,13.9,89.7,29.1,131.2h51.2v10.5h-47.2c18.6,47.6,44.1,91.7,75.2,131.2h65.9v10.5h-57.3c50.5,60.6,114.8,109.4,188,141.6
			H1605v-12h0v-1.2h85.9v-0.1h0.2v-0.6v-12.8h1.2v-34.6v-0.4v-13.7h-1.1v-20.9h-34.4v20.9h-54.1V1349h-34.4v10.8h-35v-12.5
			c-135.4-57.4-232.6-180.3-246.4-334.1v0.5c-2.3-20.5-18.8-36.8-39.8-39.2H1236.3L1236.3,974.5z M1262.1,1039.7
			c4.3,29.2,11.4,57.4,21.2,84.2c-1.5-0.2-2.9-0.4-4.4-0.4h-31.4c-7.9-24.5-13.9-49.8-17.8-75.9h13
			C1250,1047.6,1257,1044.7,1262.1,1039.7z M1304.4,1172.3c17.5,34,39.6,65,65.2,92.9h-49c-17.7-23.7-33.3-49.1-46.5-75.9h4.8
			C1290,1189.3,1300.1,1182.6,1304.4,1172.3L1304.4,1172.3z M1400.4,1295.8c31.2,27.7,66.7,50.9,105.1,69.1v4.8
			c0,15.3,12.4,27.7,27.7,27.7h35c6.3,0,12.3-2.1,17.2-6c1.8,1.4,3.8,2.6,5.9,3.6c-8.1,4.6-13.3,13-13.9,22.4h-67.8
			c-48.2-21.9-92.3-51.4-130.6-87c12.5-2.9,21.3-14.1,21.3-26.9V1295.8z"/>
	</g>
</g>
</svg>
