<?xml version="1.0" encoding="utf-8"?>
<!-- Generator: Adobe Illustrator 24.3.0, SVG Export Plug-In . SVG Version: 6.00 Build 0)  -->
<svg version="1.1" id="Layer_1" xmlns="http://www.w3.org/2000/svg" xmlns:xlink="http://www.w3.org/1999/xlink" x="0px" y="0px"
	 viewBox="0 0 841.9 595.3" style="enable-background:new 0 0 841.9 595.3;" xml:space="preserve">
<style type="text/css">
	.st0{fill:none;stroke:#000000;stroke-width:0.4252;stroke-linecap:round;stroke-linejoin:round;stroke-miterlimit:10;}
</style>
<g>
	<g id="LINE">
		<line class="st0" x1="934.2" y1="587.7" x2="934.2" y2="553.7"/>
	</g>
	<g id="ARC">
		<path class="st0" d="M934.2,587.7c15.7,0,28.3-12.7,28.3-28.3c0-15.7-12.7-28.3-28.3-28.3"/>
	</g>
	<g id="LINE_1_">
		<line class="st0" x1="934.2" y1="531" x2="452.3" y2="531"/>
	</g>
	<g id="LINE_2_">
		<line class="st0" x1="452.3" y1="531" x2="452.3" y2="295.7"/>
	</g>
	<g id="LINE_3_">
		<line class="st0" x1="452.3" y1="295.7" x2="962.5" y2="295.7"/>
	</g>
	<g id="LINE_4_">
		<line class="st0" x1="962.5" y1="295.7" x2="962.5" y2="287.2"/>
	</g>
	<g id="ARC_1_">
		<path class="st0" d="M962.5,287.2c-10-10-20.5-19.4-31.4-28.3"/>
	</g>
	<g id="LINE_5_">
		<line class="st0" x1="931.1" y1="258.9" x2="969.4" y2="239.8"/>
	</g>
	<g id="LINE_6_">
		<line class="st0" x1="969.4" y1="239.8" x2="975.8" y2="136.4"/>
	</g>
	<g id="LINE_7_">
		<line class="st0" x1="975.8" y1="136.4" x2="878" y2="185.1"/>
	</g>
	<g id="LINE_8_">
		<line class="st0" x1="878" y1="185.1" x2="875.8" y2="221.3"/>
	</g>
	<g id="ARC_2_">
		<path class="st0" d="M875.8,221.3c-12-6.8-24.3-12.9-36.9-18.4"/>
	</g>
	<g id="LINE_9_">
		<line class="st0" x1="838.9" y1="202.9" x2="875.4" y2="168.3"/>
	</g>
	<g id="LINE_10_">
		<line class="st0" x1="875.4" y1="168.3" x2="846" y2="48.9"/>
	</g>
	<g id="LINE_11_">
		<line class="st0" x1="846" y1="48.9" x2="756.8" y2="133.5"/>
	</g>
	<g id="LINE_12_">
		<line class="st0" x1="756.8" y1="133.5" x2="768.1" y2="179.5"/>
	</g>
	<g id="ARC_3_">
		<path class="st0" d="M768.1,179.5c-16-3.7-32.1-6.4-48.4-8.1"/>
	</g>
	<g id="LINE_13_">
		<line class="st0" x1="719.7" y1="171.4" x2="747.7" y2="120.4"/>
	</g>
	<g id="LINE_14_">
		<line class="st0" x1="747.7" y1="120.4" x2="684.6" y2="7.2"/>
	</g>
	<g id="LINE_15_">
		<line class="st0" x1="684.6" y1="7.2" x2="622.2" y2="120.8"/>
	</g>
	<g id="LINE_16_">
		<line class="st0" x1="622.2" y1="120.8" x2="649.7" y2="170.1"/>
	</g>
	<g id="ARC_4_">
		<path class="st0" d="M649.7,170.1c-20.9,1.5-41.6,4.5-62,9.2"/>
	</g>
	<g id="LINE_17_">
		<line class="st0" x1="587.7" y1="179.4" x2="610.9" y2="126.7"/>
	</g>
	<g id="LINE_18_">
		<line class="st0" x1="610.9" y1="126.7" x2="542.7" y2="26.2"/>
	</g>
	<g id="LINE_19_">
		<line class="st0" x1="542.7" y1="26.2" x2="493.7" y2="137.3"/>
	</g>
	<g id="LINE_20_">
		<line class="st0" x1="493.7" y1="137.3" x2="533.4" y2="195.9"/>
	</g>
	<g id="ARC_5_">
		<path class="st0" d="M533.4,195.9c-16.3,6.3-32.2,13.6-47.6,21.9"/>
	</g>
	<g id="LINE_21_">
		<line class="st0" x1="485.8" y1="217.8" x2="498.8" y2="179.5"/>
	</g>
	<g id="LINE_22_">
		<line class="st0" x1="498.8" y1="179.5" x2="432.4" y2="97.8"/>
	</g>
	<g id="LINE_23_">
		<line class="st0" x1="432.4" y1="97.8" x2="398.5" y2="197.5"/>
	</g>
	<g id="LINE_24_">
		<line class="st0" x1="398.5" y1="197.5" x2="439.1" y2="247.4"/>
	</g>
	<g id="ARC_6_">
		<path class="st0" d="M439.1,247.4c-9.9,7.3-19.5,15.1-28.7,23.2"/>
	</g>
	<g id="LINE_25_">
		<line class="st0" x1="410.4" y1="270.7" x2="412.3" y2="248.4"/>
	</g>
	<g id="LINE_26_">
		<line class="st0" x1="412.3" y1="248.4" x2="328.2" y2="185.1"/>
	</g>
	<g id="LINE_27_">
		<line class="st0" x1="328.2" y1="185.1" x2="319.3" y2="290"/>
	</g>
	<g id="LINE_28_">
		<line class="st0" x1="319.3" y1="290" x2="361.3" y2="321.7"/>
	</g>
	<g id="ARC_7_">
		<path class="st0" d="M327.5,354.8c11.8-10.5,23.1-21.5,33.8-33.1"/>
	</g>
	<g id="LINE_29_">
		<line class="st0" x1="327.5" y1="354.8" x2="328.8" y2="333.9"/>
	</g>
	<g id="LINE_30_">
		<line class="st0" x1="328.8" y1="333.9" x2="252.6" y2="279"/>
	</g>
	<g id="LINE_31_">
		<line class="st0" x1="252.6" y1="279" x2="246.6" y2="372.8"/>
	</g>
	<g id="LINE_32_">
		<line class="st0" x1="246.6" y1="372.8" x2="276.4" y2="394.2"/>
	</g>
	<g id="ARC_8_">
		<path class="st0" d="M-14.3,474.7c103,5.1,205-23.1,290.7-80.5"/>
	</g>
	<g id="LINE_33_">
		<line class="st0" x1="-14.3" y1="496.9" x2="-14.3" y2="474.7"/>
	</g>
	<g id="LINE_34_">
		<line class="st0" x1="-22.9" y1="496.9" x2="-14.3" y2="496.9"/>
	</g>
	<g id="LINE_35_">
		<line class="st0" x1="-22.9" y1="474.2" x2="-22.9" y2="496.9"/>
	</g>
	<g id="ARC_9_">
		<path class="st0" d="M-45.6,472.1c7.5,0.9,15.1,1.6,22.7,2.1"/>
	</g>
	<g id="LINE_36_">
		<line class="st0" x1="-45.6" y1="493.7" x2="-45.6" y2="472.1"/>
	</g>
	<g id="LINE_37_">
		<line class="st0" x1="-54.3" y1="493.7" x2="-45.6" y2="493.7"/>
	</g>
	<g id="LINE_38_">
		<line class="st0" x1="-54.3" y1="471" x2="-54.3" y2="493.7"/>
	</g>
	<g id="ARC_10_">
		<path class="st0" d="M-123.1,456.6c22.5,6.5,45.5,11.3,68.8,14.4"/>
	</g>
	<g id="ARC_11_">
		<path class="st0" d="M-123.1,456.6c-4-1.1-8.1,1.2-9.3,5.1c-0.9,3.1,0.3,6.4,2.9,8.2"/>
	</g>
	<g id="ARC_12_">
		<path class="st0" d="M-129.5,469.9c107.9,76.6,236.9,117.8,369.2,117.8"/>
	</g>
	<g id="LINE_39_">
		<line class="st0" x1="239.7" y1="587.7" x2="548.4" y2="587.7"/>
	</g>
	<g id="LINE_40_">
		<line class="st0" x1="548.4" y1="553.7" x2="548.4" y2="587.7"/>
	</g>
	<g id="LINE_41_">
		<line class="st0" x1="557" y1="553.7" x2="548.4" y2="553.7"/>
	</g>
	<g id="LINE_42_">
		<line class="st0" x1="557" y1="587.7" x2="557" y2="553.7"/>
	</g>
	<g id="LINE_43_">
		<line class="st0" x1="557" y1="587.7" x2="925.5" y2="587.7"/>
	</g>
	<g id="LINE_44_">
		<line class="st0" x1="925.5" y1="553.7" x2="925.5" y2="587.7"/>
	</g>
	<g id="LINE_45_">
		<line class="st0" x1="934.2" y1="553.7" x2="925.5" y2="553.7"/>
	</g>
</g>
<g>
	<g id="LINE_57_">
		<line class="st0" x1="-172.7" y1="-179.6" x2="-164.1" y2="-179.6"/>
	</g>
	<g id="LINE_56_">
		<line class="st0" x1="-172.7" y1="-193.8" x2="-172.7" y2="-179.6"/>
	</g>
	<g id="LINE_55_">
		<line class="st0" x1="-164.1" y1="-193.8" x2="-172.7" y2="-193.8"/>
	</g>
	<g id="LINE_54_">
		<line class="st0" x1="-164.1" y1="-179.6" x2="-164.1" y2="-193.8"/>
	</g>
	<g id="ARC_13_">
		<path class="st0" d="M-124.4-161.6c6-24.3-8.8-48.9-33.2-54.9c-24.3-6-48.9,8.8-54.9,33.2c-0.1,0.2-0.1,0.4-0.2,0.7"/>
	</g>
	<g id="LINE_53_">
		<line class="st0" x1="-212.6" y1="-182.7" x2="-282.1" y2="118"/>
	</g>
	<g id="LINE_52_">
		<line class="st0" x1="-282.1" y1="118" x2="-151" y2="118"/>
	</g>
	<g id="LINE_51_">
		<line class="st0" x1="-151" y1="118" x2="-183.6" y2="78.3"/>
	</g>
	<g id="LINE_50_">
		<line class="st0" x1="-183.6" y1="78.3" x2="-124.4" y2="-161.6"/>
	</g>
	<g id="LINE_49_">
		<line class="st0" x1="-172.7" y1="-151.2" x2="-164.1" y2="-151.2"/>
	</g>
	<g id="LINE_48_">
		<line class="st0" x1="-172.7" y1="-165.4" x2="-172.7" y2="-151.2"/>
	</g>
	<g id="LINE_47_">
		<line class="st0" x1="-164.1" y1="-165.4" x2="-172.7" y2="-165.4"/>
	</g>
	<g id="LINE_46_">
		<line class="st0" x1="-164.1" y1="-151.2" x2="-164.1" y2="-165.4"/>
	</g>
</g>
<g>
	<g id="LINE_69_">
		<line class="st0" x1="160.9" y1="-309.3" x2="169.5" y2="-309.3"/>
	</g>
	<g id="LINE_68_">
		<line class="st0" x1="160.9" y1="-323.4" x2="160.9" y2="-309.3"/>
	</g>
	<g id="LINE_67_">
		<line class="st0" x1="169.5" y1="-323.4" x2="160.9" y2="-323.4"/>
	</g>
	<g id="LINE_66_">
		<line class="st0" x1="169.5" y1="-309.3" x2="169.5" y2="-323.4"/>
	</g>
	<g id="ARC_14_">
		<path class="st0" d="M209.2-291.3c6-24.3-8.8-48.9-33.2-54.9s-48.9,8.8-54.9,33.2c-0.1,0.2-0.1,0.4-0.2,0.7"/>
	</g>
	<g id="LINE_65_">
		<line class="st0" x1="121" y1="-312.4" x2="51.5" y2="-11.6"/>
	</g>
	<g id="LINE_64_">
		<line class="st0" x1="51.5" y1="-11.6" x2="182.6" y2="-11.6"/>
	</g>
	<g id="LINE_63_">
		<line class="st0" x1="182.6" y1="-11.6" x2="150" y2="-51.4"/>
	</g>
	<g id="LINE_62_">
		<line class="st0" x1="150" y1="-51.4" x2="209.2" y2="-291.3"/>
	</g>
	<g id="LINE_61_">
		<line class="st0" x1="160.9" y1="-280.9" x2="169.5" y2="-280.9"/>
	</g>
	<g id="LINE_60_">
		<line class="st0" x1="160.9" y1="-295.1" x2="160.9" y2="-280.9"/>
	</g>
	<g id="LINE_59_">
		<line class="st0" x1="169.5" y1="-295.1" x2="160.9" y2="-295.1"/>
	</g>
	<g id="LINE_58_">
		<line class="st0" x1="169.5" y1="-280.9" x2="169.5" y2="-295.1"/>
	</g>
</g>
<g>
	<g id="LINE_94_">
		<line class="st0" x1="722.9" y1="-315.3" x2="722.9" y2="-321"/>
	</g>
	<g id="LINE_93_">
		<line class="st0" x1="732.2" y1="-321" x2="722.9" y2="-321"/>
	</g>
	<g id="LINE_92_">
		<line class="st0" x1="732.2" y1="-335.2" x2="732.2" y2="-321"/>
	</g>
	<g id="LINE_91_">
		<line class="st0" x1="722.9" y1="-335.2" x2="732.2" y2="-335.2"/>
	</g>
	<g id="LINE_90_">
		<line class="st0" x1="722.9" y1="-335.2" x2="722.9" y2="-349.4"/>
	</g>
	<g id="LINE_89_">
		<line class="st0" x1="732.2" y1="-349.4" x2="722.9" y2="-349.4"/>
	</g>
	<g id="LINE_88_">
		<line class="st0" x1="732.2" y1="-363.5" x2="732.2" y2="-349.4"/>
	</g>
	<g id="LINE_87_">
		<line class="st0" x1="722.9" y1="-363.5" x2="732.2" y2="-363.5"/>
	</g>
	<g id="LINE_86_">
		<line class="st0" x1="722.9" y1="-363.5" x2="722.9" y2="-377.7"/>
	</g>
	<g id="LINE_85_">
		<line class="st0" x1="722.9" y1="-377.7" x2="666.2" y2="-377.7"/>
	</g>
	<g id="LINE_84_">
		<line class="st0" x1="666.2" y1="-377.7" x2="666.2" y2="-349.4"/>
	</g>
	<g id="ARC_17_">
		<path class="st0" d="M561.3-240.3c58.5-2.3,104.8-50.5,104.8-109"/>
	</g>
	<g id="LINE_83_">
		<line class="st0" x1="561.3" y1="-240.3" x2="561.3" y2="-212"/>
	</g>
	<g id="LINE_82_">
		<line class="st0" x1="561.3" y1="-212" x2="552.7" y2="-212"/>
	</g>
	<g id="LINE_81_">
		<line class="st0" x1="552.7" y1="-212" x2="552.7" y2="-240.3"/>
	</g>
	<g id="ARC_16_">
		<path class="st0" d="M447.9-349.4c0,58.6,46.3,106.7,104.8,109"/>
	</g>
	<g id="LINE_80_">
		<line class="st0" x1="447.9" y1="-349.4" x2="447.9" y2="-377.7"/>
	</g>
	<g id="LINE_79_">
		<line class="st0" x1="447.9" y1="-377.7" x2="391.2" y2="-377.7"/>
	</g>
	<g id="LINE_78_">
		<line class="st0" x1="391.2" y1="-377.7" x2="391.2" y2="-363.5"/>
	</g>
	<g id="LINE_77_">
		<line class="st0" x1="391.2" y1="-363.5" x2="381.8" y2="-363.5"/>
	</g>
	<g id="LINE_76_">
		<line class="st0" x1="381.8" y1="-363.5" x2="381.8" y2="-349.4"/>
	</g>
	<g id="LINE_75_">
		<line class="st0" x1="381.8" y1="-349.4" x2="391.2" y2="-349.4"/>
	</g>
	<g id="LINE_74_">
		<line class="st0" x1="391.2" y1="-349.4" x2="391.2" y2="-335.2"/>
	</g>
	<g id="LINE_73_">
		<line class="st0" x1="391.2" y1="-335.2" x2="381.8" y2="-335.2"/>
	</g>
	<g id="LINE_72_">
		<line class="st0" x1="381.8" y1="-335.2" x2="381.8" y2="-321"/>
	</g>
	<g id="LINE_71_">
		<line class="st0" x1="381.8" y1="-321" x2="391.2" y2="-321"/>
	</g>
	<g id="LINE_70_">
		<line class="st0" x1="391.2" y1="-321" x2="391.2" y2="-315.3"/>
	</g>
	<g id="ARC_15_">
		<path class="st0" d="M391.2-315.3c21.7,91.6,113.5,148.3,205.1,126.6C659-203.6,708-252.6,722.9-315.3"/>
	</g>
</g>
<g>
	<g id="LINE_117_">
		<line class="st0" x1="1201.7" y1="-305.8" x2="1201.7" y2="-311.5"/>
	</g>
	<g id="LINE_116_">
		<line class="st0" x1="1201.7" y1="-311.5" x2="1211.1" y2="-311.5"/>
	</g>
	<g id="LINE_115_">
		<line class="st0" x1="1211.1" y1="-325.7" x2="1211.1" y2="-311.5"/>
	</g>
	<g id="LINE_114_">
		<line class="st0" x1="1201.7" y1="-325.7" x2="1211.1" y2="-325.7"/>
	</g>
	<g id="LINE_113_">
		<line class="st0" x1="1201.7" y1="-325.7" x2="1201.7" y2="-339.8"/>
	</g>
	<g id="LINE_112_">
		<line class="st0" x1="1201.7" y1="-339.8" x2="1211.1" y2="-339.8"/>
	</g>
	<g id="LINE_111_">
		<line class="st0" x1="1211.1" y1="-354" x2="1211.1" y2="-339.8"/>
	</g>
	<g id="LINE_110_">
		<line class="st0" x1="1201.7" y1="-354" x2="1211.1" y2="-354"/>
	</g>
	<g id="LINE_109_">
		<line class="st0" x1="1201.7" y1="-354" x2="1201.7" y2="-368.2"/>
	</g>
	<g id="LINE_108_">
		<line class="st0" x1="1201.7" y1="-368.2" x2="1145" y2="-368.2"/>
	</g>
	<g id="ARC_20_">
		<path class="st0" d="M1040.2-259.1c58.5-2.3,104.8-50.5,104.8-109"/>
	</g>
	<g id="LINE_107_">
		<line class="st0" x1="1040.2" y1="-259.1" x2="1040.2" y2="-230.8"/>
	</g>
	<g id="LINE_106_">
		<line class="st0" x1="1040.2" y1="-230.8" x2="1031.6" y2="-230.8"/>
	</g>
	<g id="LINE_105_">
		<line class="st0" x1="1031.6" y1="-230.8" x2="1031.6" y2="-259.1"/>
	</g>
	<g id="ARC_19_">
		<path class="st0" d="M926.8-368.2c0,58.6,46.3,106.7,104.8,109"/>
	</g>
	<g id="LINE_104_">
		<line class="st0" x1="926.8" y1="-368.2" x2="870.1" y2="-368.2"/>
	</g>
	<g id="LINE_103_">
		<line class="st0" x1="870.1" y1="-368.2" x2="870.1" y2="-354"/>
	</g>
	<g id="LINE_102_">
		<line class="st0" x1="870.1" y1="-354" x2="860.7" y2="-354"/>
	</g>
	<g id="LINE_101_">
		<line class="st0" x1="860.7" y1="-354" x2="860.7" y2="-339.8"/>
	</g>
	<g id="LINE_100_">
		<line class="st0" x1="870.1" y1="-339.8" x2="860.7" y2="-339.8"/>
	</g>
	<g id="LINE_99_">
		<line class="st0" x1="870.1" y1="-339.8" x2="870.1" y2="-325.7"/>
	</g>
	<g id="LINE_98_">
		<line class="st0" x1="870.1" y1="-325.7" x2="860.7" y2="-325.7"/>
	</g>
	<g id="LINE_97_">
		<line class="st0" x1="860.7" y1="-325.7" x2="860.7" y2="-311.5"/>
	</g>
	<g id="LINE_96_">
		<line class="st0" x1="870.1" y1="-311.5" x2="860.7" y2="-311.5"/>
	</g>
	<g id="LINE_95_">
		<line class="st0" x1="870.1" y1="-311.5" x2="870.1" y2="-305.8"/>
	</g>
	<g id="ARC_18_">
		<path class="st0" d="M870.1-305.8c36.8,91.6,140.8,136,232.4,99.2c45.2-18.2,81.1-54,99.2-99.2"/>
	</g>
</g>
<g>
	<g id="LINE_129_">
		<line class="st0" x1="117.1" y1="817.3" x2="125.7" y2="817.3"/>
	</g>
	<g id="LINE_128_">
		<line class="st0" x1="117.1" y1="803.2" x2="117.1" y2="817.3"/>
	</g>
	<g id="LINE_127_">
		<line class="st0" x1="125.7" y1="803.2" x2="117.1" y2="803.2"/>
	</g>
	<g id="LINE_126_">
		<line class="st0" x1="125.7" y1="817.3" x2="125.7" y2="803.2"/>
	</g>
	<g id="LINE_125_">
		<line class="st0" x1="224" y1="1072.5" x2="188.1" y2="1018.9"/>
	</g>
	<g id="LINE_124_">
		<line class="st0" x1="188.1" y1="1018.9" x2="166.5" y2="819.5"/>
	</g>
	<g id="ARC_21_">
		<path class="st0" d="M166.5,819.5c-2.7-24.9-25.1-42.9-50-40.2s-42.9,25.1-40.2,50c0.2,2.2,0.6,4.4,1.2,6.5"/>
	</g>
	<g id="LINE_123_">
		<line class="st0" x1="77.5" y1="835.8" x2="138.9" y2="1072.5"/>
	</g>
	<g id="LINE_122_">
		<line class="st0" x1="138.9" y1="1072.5" x2="224" y2="1072.5"/>
	</g>
	<g id="LINE_121_">
		<line class="st0" x1="117.1" y1="845.7" x2="125.7" y2="845.7"/>
	</g>
	<g id="LINE_120_">
		<line class="st0" x1="117.1" y1="831.5" x2="117.1" y2="845.7"/>
	</g>
	<g id="LINE_119_">
		<line class="st0" x1="125.7" y1="831.5" x2="117.1" y2="831.5"/>
	</g>
	<g id="LINE_118_">
		<line class="st0" x1="125.7" y1="845.7" x2="125.7" y2="831.5"/>
	</g>
</g>
<g>
	<g id="LINE_141_">
		<line class="st0" x1="432.7" y1="817.3" x2="441.3" y2="817.3"/>
	</g>
	<g id="LINE_140_">
		<line class="st0" x1="432.7" y1="803.2" x2="432.7" y2="817.3"/>
	</g>
	<g id="LINE_139_">
		<line class="st0" x1="441.3" y1="803.2" x2="432.7" y2="803.2"/>
	</g>
	<g id="LINE_138_">
		<line class="st0" x1="441.3" y1="817.3" x2="441.3" y2="803.2"/>
	</g>
	<g id="LINE_137_">
		<line class="st0" x1="539.6" y1="1072.5" x2="503.7" y2="1018.9"/>
	</g>
	<g id="LINE_136_">
		<line class="st0" x1="503.7" y1="1018.9" x2="482.1" y2="819.5"/>
	</g>
	<g id="ARC_22_">
		<path class="st0" d="M482.1,819.5c-2.7-24.9-25.1-42.9-50-40.2c-24.9,2.7-42.9,25.1-40.2,50c0.2,2.2,0.6,4.4,1.2,6.5"/>
	</g>
	<g id="LINE_135_">
		<line class="st0" x1="393.1" y1="835.8" x2="454.5" y2="1072.5"/>
	</g>
	<g id="LINE_134_">
		<line class="st0" x1="454.5" y1="1072.5" x2="539.6" y2="1072.5"/>
	</g>
	<g id="LINE_133_">
		<line class="st0" x1="432.7" y1="845.7" x2="441.3" y2="845.7"/>
	</g>
	<g id="LINE_132_">
		<line class="st0" x1="432.7" y1="831.5" x2="432.7" y2="845.7"/>
	</g>
	<g id="LINE_131_">
		<line class="st0" x1="441.3" y1="831.5" x2="432.7" y2="831.5"/>
	</g>
	<g id="LINE_130_">
		<line class="st0" x1="441.3" y1="845.7" x2="441.3" y2="831.5"/>
	</g>
</g>
<g>
	<g id="ELLIPSE">
		<path class="st0" d="M-729,181.1c0,50.9,22.3,92.1,49.8,92.1c27.5,0,49.8-41.2,49.8-92.1"/>
	</g>
	<g id="ARC_24_">
		<path class="st0" d="M-729,181.1c0-0.9-0.8-1.7-1.7-1.7c-0.9,0-1.7,0.8-1.7,1.7"/>
	</g>
	<g id="LINE_146_">
		<line class="st0" x1="-732.4" y1="181.1" x2="-732.4" y2="202.4"/>
	</g>
	<g id="ELLIPSE_1_">
		<path class="st0" d="M-732.4,202.4c0,59,21.2,108.2,48.8,113"/>
	</g>
	<g id="LINE_145_">
		<line class="st0" x1="-683.5" y1="315.4" x2="-683.5" y2="293.1"/>
	</g>
	<g id="LINE_144_">
		<line class="st0" x1="-683.5" y1="293.1" x2="-674.9" y2="293.1"/>
	</g>
	<g id="LINE_143_">
		<line class="st0" x1="-674.9" y1="293.1" x2="-674.9" y2="315.4"/>
	</g>
	<g id="ELLIPSE_2_">
		<path class="st0" d="M-674.9,315.4c27.6-4.8,48.8-54,48.8-113"/>
	</g>
	<g id="LINE_142_">
		<line class="st0" x1="-626.1" y1="202.4" x2="-626.1" y2="181.1"/>
	</g>
	<g id="ARC_23_">
		<path class="st0" d="M-626.1,181.1c0-0.9-0.8-1.7-1.7-1.7s-1.7,0.8-1.7,1.7"/>
	</g>
</g>
</svg>
