<?xml version="1.0" encoding="utf-8"?>
<!-- Generator: Adobe Illustrator 25.0.0, SVG Export Plug-In . SVG Version: 6.00 Build 0)  -->
<svg version="1.1" id="layer_1" xmlns="http://www.w3.org/2000/svg" xmlns:xlink="http://www.w3.org/1999/xlink" x="0px" y="0px"
	 viewBox="0 0 841.9 595.3" style="enable-background:new 0 0 841.9 595.3;" xml:space="preserve">
<style type="text/css">
	.st0{fill:none;stroke:#000000;stroke-width:0.2551;stroke-linecap:round;stroke-linejoin:round;stroke-miterlimit:10;}
</style>
<g id="SPLINE_46_">
	<polyline class="st0" points="379.6,240.2 379.6,239.8 379.6,239 379.6,238.2 379.6,237.7 379.6,237.7 379.6,237.7 380.5,237.7 
		382.2,237.7 385.6,237.7 391.7,237.7 397,237.7 401.6,237.7 405.5,237.7 408.7,237.7 411.4,237.7 413.5,237.7 415.2,237.7 
		416.4,237.7 417.3,237.7 417.9,237.7 418.2,237.7 417.3,237.7 416.8,237.7 417,237.7 418.2,237.7 419.2,237.7 420.7,237.7 
		422.7,237.7 425.1,237.7 428.1,237.7 431.8,237.7 436.1,237.7 441.1,237.7 446.9,237.7 453.5,237.7 455.2,237.7 455.4,237.7 
		455.4,237.7 455.4,237.7 455.4,237.7 455.4,238.3 455.4,239.9 455.4,240.1 455.4,240.2 455.5,240.2 455.9,240.2 456.9,240.1 
		460,239.3 462.3,237.8 464,235.6 465.2,232.9 465.9,229.7 466.2,226.2 466.4,218.6 466.4,218.1 466.4,216.8 466.2,214.4 
		465.7,212.2 465.1,210.3 463.3,207 460.9,204.4 458,202.2 454.8,200.1 451.4,197.9 448,195.4 444.6,192.3 441.4,188.5 438.6,183.7 
		437.3,180.8 436.2,177.6 435.2,174 434.4,170.1 433.8,165.7 433.4,160.8 433.2,155.5 433.2,149.6 433.5,143.3 434,136.3 
		434.9,128.7 436,120.5 436.7,116.2 436.9,115.1 436.9,114.7 437,114.7 437,114.5 437.1,113.9 437.5,111.5 437.8,107.1 437.5,103 
		436.4,99.1 434.2,95.3 431.6,92.3 428.4,89.9 424.7,88.1 422.7,87.5 421.7,87.2 421.2,87.1 421.2,87.4 421.2,88.1 421.2,89.1 
		421.2,90.6 421.2,92.3 421.2,96.8 421.2,102.3 421.2,108.7 421.2,115.7 421.2,130.7 421.2,145.8 421.2,152.8 421.2,159.1 
		421.2,164.6 421.2,169.1 421.2,170.9 421.2,172.3 421.2,173.4 421.2,174 421.2,174.3 421.1,174.3 420.4,174.3 418.2,174.3 
		415.6,174.3 414.6,174.3 413.9,174.3 413.7,174.2 413.7,173.6 413.7,172.6 413.7,171.3 413.7,169.6 413.7,165.3 413.7,159.9 
		413.7,153.6 413.7,146.7 413.7,116.6 413.7,109.6 413.7,103.1 413.7,97.5 413.7,92.9 413.7,91 413.7,89.5 413.7,88.3 413.7,87.5 
		413.7,87.2 413.4,87.2 412.4,87.4 408.5,88.8 405.1,90.9 402.1,93.7 399.7,96.9 398,100.9 397.2,104.9 397.3,109.1 397.9,113.7 
		398,114.3 398,114.6 398.1,114.9 398.3,116 398.6,118.2 399.8,126.6 400.8,134.3 401.4,141.5 401.7,148 401.8,154 401.7,159.5 
		401.3,164.4 400.8,168.9 400,173 399.1,176.7 398,180 396.8,183 395.4,185.6 394,187.9 390.8,191.9 387.5,195 384,197.6 
		380.6,199.8 377.4,201.9 374.5,204.1 372,206.7 370.1,209.8 368.9,213.8 368.6,216.1 368.6,217.4 368.6,218.1 368.6,218.2 
		368.6,220.1 368.9,227.6 369.4,231 370.2,234 371.6,236.5 373.5,238.5 376.2,239.7 379.6,240.2 	"/>
</g>
<g id="SPLINE_47_">
	<polyline class="st0" points="302.5,172.7 302.5,172.4 302.5,171.8 302.5,170.4 302.5,170.2 302.5,170.2 302.5,170.2 302.5,170.2 
		302.5,170.2 303.2,170.2 306.2,170.2 311.8,170.2 316.7,170.2 321.1,170.2 325,170.2 328.3,170.2 331.2,170.2 333.6,170.2 
		335.6,170.2 337.2,170.2 338.5,170.2 339.5,170.2 340.2,170.2 340.7,170.2 340.9,170.2 341,170.2 340.1,170.2 339.7,170.2 
		339.7,170.2 339.9,170.2 340.4,170.2 341,170.2 342,170.2 343.2,170.2 344.8,170.2 346.7,170.2 349.1,170.2 351.9,170.2 
		355.1,170.2 358.9,170.2 363.2,170.2 368.1,170.2 373.5,170.2 376.5,170.2 378.1,170.2 378.2,170.2 378.2,170.2 378.2,170.5 
		378.2,171.2 378.2,172.5 378.2,172.7 378.2,172.7 379.7,172.6 381.1,172.4 382.4,172 384.6,170.8 386.2,169.1 387.4,166.9 
		388.3,164.4 388.8,161.5 389.1,158.5 389.2,155.2 389.2,151.9 389.2,148.4 388.7,145.3 387.9,142.7 386.7,140.4 385.2,138.5 
		383.5,136.8 381.6,135.2 377.3,132.4 375,130.9 374.5,130.5 374.4,130.5 373.9,130.5 373.1,130.5 371.9,130.5 370.4,130.5 
		368.6,130.5 364.5,130.5 360,130.5 355.4,130.5 351.1,130.5 349.2,130.5 347.6,130.5 346.2,130.5 345.1,130.5 344.4,130.5 
		344.1,130.5 344.1,130.6 344.1,131 344.1,131.6 344.1,132.4 344.1,134.4 344.1,136.9 344.1,139.7 344.1,142.4 344.1,144.9 
		344.1,146.9 344.1,147.7 344.1,148.3 344.1,148.7 344.1,148.8 343.8,148.8 343.2,148.8 342.3,148.8 338,148.8 337.2,148.8 
		336.7,148.8 336.6,148.7 336.6,148.5 336.6,148 336.6,146.4 336.6,144.2 336.6,138.8 336.6,136.1 336.6,133.7 336.6,131.9 
		336.6,131.2 336.6,130.7 336.6,130.6 336.4,130.5 335.9,130.5 334.9,130.5 333.7,130.5 332.1,130.5 328.3,130.5 323.9,130.5 
		319.2,130.5 314.8,130.5 310.9,130.5 309.3,130.5 308,130.5 307,130.5 306.4,130.5 306.1,130.6 304.9,131.4 302.7,132.8 
		298.4,135.7 296.6,137.3 294.9,139 293.6,141.1 292.5,143.4 291.8,146.2 291.4,149.5 291.4,150.4 291.4,150.9 291.4,151.8 
		291.4,153.4 291.5,156.7 291.7,159.9 292.1,162.9 292.7,165.6 293.7,168 295.1,169.9 297,171.4 298.1,172 299.4,172.4 300.9,172.6 
		302.5,172.7 	"/>
</g>
<g id="SPLINE_48_">
	<polyline class="st0" points="137.1,163.4 137.1,163.2 137.1,162.5 137.1,161.2 137.1,161 137.1,160.9 137.1,160.9 137.1,160.9 
		137.1,160.9 137.8,160.9 140.8,160.9 146.4,160.9 151.4,160.9 155.8,160.9 159.6,160.9 162.9,160.9 165.8,160.9 168.2,160.9 
		170.2,160.9 171.8,160.9 173.1,160.9 174.1,160.9 174.8,160.9 175.3,160.9 175.6,160.9 175.6,160.9 174.7,160.9 174.3,160.9 
		174.3,160.9 174.6,160.9 175,160.9 175.7,160.9 176.6,160.9 177.9,160.9 179.4,160.9 181.4,160.9 183.7,160.9 186.5,160.9 
		189.8,160.9 193.5,160.9 197.8,160.9 202.7,160.9 208.2,160.9 211.2,160.9 212.7,160.9 212.8,160.9 212.8,160.9 212.8,161.3 
		212.8,161.9 212.8,163.3 212.8,163.4 212.8,163.4 214.3,163.4 215.8,163.1 217.1,162.7 219.2,161.5 220.9,159.8 222.1,157.7 
		222.9,155.1 223.4,152.3 223.7,149.2 223.9,146 223.9,142.6 223.8,139.2 223.3,136.1 222.5,133.4 221.3,131.2 219.9,129.2 
		218.2,127.5 216.2,126 211.9,123.1 209.6,121.6 209.1,121.3 209,121.3 208.6,121.3 207.7,121.3 206.5,121.3 205,121.3 203.2,121.3 
		199.2,121.3 194.6,121.3 190,121.3 185.8,121.3 183.9,121.3 182.2,121.3 180.8,121.3 179.7,121.3 179,121.3 178.7,121.3 
		178.7,121.4 178.7,121.7 178.7,122.3 178.7,123.1 178.7,125.1 178.7,127.7 178.7,130.4 178.7,133.1 178.7,135.6 178.7,137.7 
		178.7,138.5 178.7,139.1 178.7,139.4 178.7,139.5 178.5,139.5 177.9,139.5 177,139.5 172.7,139.5 171.9,139.5 171.3,139.5 
		171.2,139.5 171.2,139.2 171.2,138.7 171.2,137.1 171.2,134.9 171.2,129.5 171.2,126.8 171.2,124.5 171.2,122.6 171.2,121.9 
		171.2,121.5 171.2,121.3 171.1,121.3 170.5,121.3 169.6,121.3 168.3,121.3 166.7,121.3 162.9,121.3 158.5,121.3 153.9,121.3 
		149.5,121.3 145.6,121.3 144,121.3 142.6,121.3 141.6,121.3 141,121.3 140.7,121.3 139.6,122.1 137.3,123.5 133.1,126.4 131.2,128 
		129.6,129.8 128.2,131.8 127.1,134.2 126.4,137 126.1,140.2 126,141.1 126,141.6 126,142.5 126,144.2 126.1,147.5 126.3,150.6 
		126.7,153.6 127.4,156.3 128.4,158.7 129.8,160.7 131.6,162.2 132.8,162.7 134.1,163.1 135.5,163.3 137.1,163.4 	"/>
</g>
<g id="SPLINE_49_">
	<polyline class="st0" points="138.5,240.2 138.5,239.4 138.5,238.1 138.5,237.7 138.6,237.7 139.6,237.7 141.6,237.7 144.3,237.7 
		151,237.7 157.7,237.7 160.5,237.7 162.5,237.7 163.5,237.7 163.5,237.4 163.5,236.3 163.5,234.3 163.5,228.9 163.5,223 
		163.5,220.4 163.5,218.2 163.5,216.8 163.5,216.2 164.2,216.2 165.9,216.2 169.9,216.2 171,216.2 171,216.3 171,217.2 171,218.9 
		171,221.2 171,226.9 171,232.7 171,235 171,236.7 171,237.6 171.1,237.7 171.9,237.7 173.5,237.7 175.9,237.7 178.9,237.7 
		182.6,237.7 191.2,237.7 201,237.7 221.5,237.7 230.6,237.7 234.5,237.7 238,237.7 240.8,237.7 243,237.7 244.3,237.7 244.8,237.7 
		244.8,237.3 244.8,236.1 244.8,234.3 244.8,231.8 244.8,225.4 244.8,217.6 244.8,200.1 244.8,191.6 244.8,184.2 244.8,181.1 
		244.8,178.5 244.8,176.4 244.8,175 244.8,174.3 244.8,174.3 245.1,174.3 246.5,174.3 248.5,174.3 250.6,174.3 252,174.3 
		252.3,174.3 252.3,174.3 252.3,175 252.3,176.4 252.3,178.5 252.3,181.1 252.3,184.2 252.3,191.6 252.3,200.1 252.3,217.6 
		252.3,225.4 252.3,231.8 252.3,234.3 252.3,236.1 252.3,237.3 252.3,237.7 252.7,237.7 253.9,237.7 255.9,237.7 258.4,237.7 
		265.1,237.7 273.3,237.7 291.6,237.7 300.4,237.7 308.2,237.7 311.5,237.7 314.2,237.7 316.3,237.7 317.8,237.7 318.5,237.7 
		318.5,237.6 318.5,236.7 318.5,235 318.5,232.7 318.5,226.9 318.5,221.2 318.5,218.9 318.5,217.2 318.5,216.3 318.6,216.2 
		319.7,216.2 323.7,216.2 325.4,216.2 326,216.2 326,216.8 326,218.2 326,220.4 326,223 326,228.9 326,234.3 326,236.3 326,237.4 
		326.1,237.7 327.1,237.7 329.1,237.7 331.8,237.7 338.5,237.7 345.2,237.7 348,237.7 350,237.7 351,237.7 351,237.7 351,238.1 
		351,239.4 351,240.2 353.9,239.9 356.2,239.1 358,237.8 359.4,236.1 361.2,231.6 361.9,226.2 362.1,220.1 362.1,218.6 362.1,218.2 
		362.1,217.3 361.8,215.3 360.2,211.8 357.3,208.9 353.5,206.5 348.6,204.4 343,202.6 336.8,200.9 323.1,197.4 308.6,193 
		301.5,190.2 294.6,186.7 288.1,182.6 282.2,177.6 277,171.7 272.7,164.7 269.3,156.6 267.1,147.2 266.5,141.9 266.2,136.3 
		266.3,130.3 266.8,123.9 267.6,117.1 267.9,115.3 268,114.7 268,114.6 268,114.4 268.2,113.4 268.7,109.7 268.9,106.2 268.6,103 
		267.7,99.9 266.2,96.7 263.8,93.6 261,90.9 257.6,88.9 253.9,87.5 249.9,86.9 245.8,87 241.9,87.9 238.3,89.5 235.1,91.8 
		232.4,94.5 230.3,97.7 229,100.9 228.4,104.1 228.2,107.4 229.1,114.7 230.1,121.7 230.6,128.2 230.8,134.3 230.5,140.1 
		229.9,145.4 229,150.5 226.1,159.5 222,167.2 217,173.8 211.1,179.4 204.5,184 197.4,187.9 189.8,191.2 174.4,196.1 159.2,199.8 
		152.2,201.5 145.8,203.2 140.1,205.1 135.2,207.2 131.4,209.8 128.8,212.9 127.6,216.6 127.5,217.7 127.5,218.2 127.5,218.6 
		127.5,220.1 127.7,226.2 128.4,231.6 130.2,236.1 131.6,237.8 133.4,239.1 135.7,239.9 138.5,240.2 	"/>
</g>
</svg>
