<?xml version="1.0" encoding="utf-8"?>
<!-- Generator: Adobe Illustrator 24.2.3, SVG Export Plug-In . SVG Version: 6.00 Build 0)  -->
<svg version="1.1" id="Layer_1" xmlns="http://www.w3.org/2000/svg" xmlns:xlink="http://www.w3.org/1999/xlink" x="0px" y="0px"
	 viewBox="0 0 414 627" style="enable-background:new 0 0 414 627;" xml:space="preserve">
<style type="text/css">
	.st0{fill:none;stroke:#FF0000;stroke-width:7.086614e-03;stroke-linecap:round;stroke-linejoin:round;}
</style>
<g id="cut">
	<path class="st0" d="M246.7,209.3c8.3-0.7,16.8,4.8,20.5,14c2.2,5.4,2.3,11,0.8,15.8c5.8-8.2,7.2-20,2.7-31
		c-6.6-16.2-23.4-24.7-37.6-18.9c-14.1,5.8-20.2,23.6-13.6,39.8c4.5,11,13.7,18.5,23.6,20.3c-4.5-2.4-8.3-6.5-10.5-11.8
		c-3.7-9.1-0.2-19.5,6.2-24.8c-1.5-3.6-3-7.2-4.4-10.9c2.7-1.1,5.3-2.2,8-3.3C243.7,202,245.2,205.7,246.7,209.3
		C246.6,209.3,246.6,209.3,246.7,209.3z"/>
	<path class="st0" d="M369.7,331c-0.6-0.4-1.2-0.7-1.8-0.8c-0.2-0.1-0.4-0.3-0.5-0.4c-3.5-2.2-8.5-1.9-12.3-1.2
		c-0.2,0-0.4,0.1-0.6,0.1c0-0.2-0.1-0.4-0.3-0.7c-2.9-2.4-5.9-3.3-8-3.7c-0.8-0.1-1.5-0.3-1.6-0.8c0-0.4,0.2-1.1-0.7-1.5
		c-3.6-1-6.7-0.7-8.8-0.1c-0.7,0.2-1-0.2-1.1-0.5s0.1-0.7-0.9-1.2c-3.7-0.7-6.7-0.1-8.8,0.6c-1.3,0.4-2,0.2-2.3-0.2
		c-0.3-0.3-0.1-0.7-1.2-1.1c-3.7-0.3-6.7,0.5-8.7,1.4c-0.1,0.1-0.3,0-0.5-0.1s-0.4-0.3-1.2-0.7c-8.2-3.5-15-6-19.8-6.9
		c-1-0.2-1.6-0.3-2.2-0.4c0.3-1.9,1.6-3.9,2.5-5.4c-0.4-0.2-5.4-1.3-5.9-1.6c-6-6-19.6-23.8-23.2-27.3c-3.5-3.5-17.1-20.6-17.6-22.2
		s-6.6-8.4-12.9-5.7c0,0,0,0-0.1,0.1c-1.4-1.3-3-2.2-3-2.2c-2.5-1.6-4.2-2.9-7.5,0.3s-10.9,7.2-13.2,10.5
		c-2.3,3.2-16.8,17.5-23.9,24.9c-5.9,6.2-12.1,11.1-16.3,15.6c-7.1,0.7-14.7,3.6-18.6,5.7c0,0-0.1,2.5-0.2,4.9
		c4.1-0.6,8.2-1.2,12.2-1.8c0.4,2.9,0.8,5.7,1.2,8.6c-4.2,0.6-8.4,1.2-12.6,1.8c0.7,2.1,1.9,3.6,3.9,3.7c3.1,0.2,14.4-2.9,21.4-5.2
		c0.8,0.1,1.6-0.1,2.3-0.6c0.2-0.1,0.4-0.3,0.6-0.4c1-0.4,1.7-0.7,2.2-1c1.5-0.8,2.8-2.5,3.3-4.6c8.2-9.3,20.5-25.6,23.1-29.1
		c3.4-4.5,10-15.9,12.7-17.5c2-1.2,9.9-3.7,13-7.4c0.4,0.1,0.8,0.2,1.3,0.3c2.6,0.5,3.4-1.1,5.2,1.6c1.8,2.6,17.1,26.1,21.8,32.7
		c4.7,6.5,18.1,24,18.2,25.3c0,1.3-0.8,9.2,1.9,7.3c1.2-0.8,3.1-3.3,4.9-5.8c0-0.4,0-0.7,0-1.1c0.2-0.2,0.4-0.4,0.6-0.7
		c0.8,0.4,1.7,0.8,2.7,1.3c4.2,2.3,12.3,5.2,19.6,8.1c2.6,0.5,2.1-0.5,4.1-0.7c2,0.7,5.6,1.1,8.9,0.6c1.1-0.4,1.4-1.5,3-0.8
		c1.9,0.9,5.5,1.6,8.8,1.5c0.7-0.2,1.2-0.3,1.8-0.2c0.6,0.1,1.2,0.4,2.4,0.9c1.2,0.4,2.9,1,6.2,1.1c0.5-0.1,1.1,0.3,1.8,0.9
		c1.4,1.1,3.2,2.7,6.2,4.1c0.5,0.1,0.8,0,1-0.3c0.5,0,0.9-0.1,1.2-0.3c1.5-2,3-1.7,5.4-1.6s3.3-0.3,6.5,0.8c3.2,1.1,2.6,3.6,2.9,4.1
		s1,0.7,1,0.9c-0.1,0.9-0.6,1.5-1.4,2c0.9,0.1,2.1-0.5,2.2-1c0.3-0.1,0.4-0.4,0.5-0.8l0,0c0.3,0.5,1,0.7,1,0.9
		c-0.1,0.9-0.6,1.5-1.4,2c0.9,0.1,2.1-0.5,2.2-1c0.4-0.1,0.6-0.7,0.7-1.4C373.1,333.2,370.9,331.8,369.7,331z"/>
	<path class="st0" d="M338.7,341.3c-0.7-0.4-1.3-0.6-1.8-0.6c-0.2-0.1-0.4-0.2-0.6-0.3c-2.9-1.6-6.6-1.4-9.9-0.8l-0.1-0.1
		c-3.6-1.1-6.7-0.9-8.8-0.4c-0.2,0.1-0.3-0.2-0.3-0.5s0.1-0.5-0.7-1c-3.6-1.1-6.7-0.9-7.5-0.8c-1.7,0.1-1.7-0.4-2.3-0.8
		c-3.6-1.1-6.7-0.9-7.5-0.9c-1.6,0-1.5-0.5-2.3-1c-2.1-0.6-4-0.8-5.7-0.8c-0.2-0.1-0.5-0.3-0.8-0.4c-3.5-1-6.7-1.9-9.5-2.5
		c0.4-0.5,0.7-1,0.7-1.5c0,0-0.2,0-0.4,0.1c-3.9-2.5-9.6-6.6-12.3-11.8c-3.9-7.5-12.3-20.3-17.7-25.7c-5.4-5.4-5.7-4.8-6.6-6.8
		c-0.9-2.1-5.7-12.5-12.2-9.9c0,0-2.8,0.7-5.3,2.3c-0.5-0.6-1.2-1.2-2.1-1.8c-3.4-0.4-9.4-0.5-13.3,5.7c-3.8,6.2-15.7,20-19.3,29.2
		c-2.5,6.6-8.9,14.2-13.7,22.4c-8,1.5-18,9.7-25.8,14.8c0,0,1.8,3.1,1.9,4.6c4.3-1.5,8.6-3,12.8-4.5c1,2.7,1.9,5.4,2.9,8.2
		c-4.1,1.5-8.3,2.9-12.4,4.4c0.3,1.1,1.6,4,2.4,3.9c2.6-0.3,26.4-3.2,30.2-14.4c0-0.1,0.1-0.2,0.1-0.3c2.3-2.4,12.9-20.7,16-29.2
		c3.1-8.8,10.4-18.9,12.4-22.7c1.6-3.1,4.6-7,6-9.4c0.7-0.3,2-1,4.1-2.4c1.9-1.2,7.8-4.3,10.1,1.5c2.3,5.9,11.4,18.6,13,19.8
		c1.6,1.2,3.7,4.6,4.4,9.1s6.6,16.5,8.4,17.9c1.8,1.3,3.2,2.7,4.8,2.5c0.5-0.1,4.1-0.9,4.1-0.9c0.2-0.2,0.4-0.3,0.6-0.5
		c3.9,1.1,9.1,2.5,14,3.8c0.4,0,0.6,0,0.9,0c1.8,0.6,4,1.2,6.1,1.3c0.6-0.1,0.9-0.4,1.6-0.1c1.5,0.6,4.9,1.7,8.2,1.9
		c0.8-0.1,0.9-0.5,1.7-0.3c1.5,0.5,4.9,1.7,8.2,1.9c0.6-0.1,0.8-0.3,0.9-0.4s0.3-0.3,0.4-0.2c0.8,0.4,1.8,0.9,3,1.3
		c0.2,0.2,0.5,0.3,0.9,0.3c1.4,0.4,3,0.7,4.6,0.8c1.1-0.2,0.9-1,0.6-2c0,0-0.6-0.8-0.3-0.9c0.5-0.3,1.2-0.3,2.1-0.3
		c2.4-0.1,3.3-0.5,6.6,0.3c3.3,0.9,2.9,3.4,3.2,3.9c0.3,0.5,1.1,0.6,1.1,0.8c0,0.9-0.5,1.5-1.2,2.1c0.9,0,2-0.7,2.1-1.1
		c0.2-0.1,0.4-0.4,0.5-0.8l0,0c0.3,0.5,1.1,0.6,1.1,0.8c0,0.9-0.5,1.5-1.2,2.1c0.9,0,2-0.7,2.1-1.1c0.4-0.1,0.5-0.8,0.6-1.4
		C342.2,343.3,339.9,342,338.7,341.3z"/>
	<path class="st0" d="M331.2,459.6c-0.7,0.3-1.3,0.4-1.9,0.4c-0.2,0.1-0.4,0.2-0.6,0.2c-3.1,1.1-6.7,0.5-9.9-0.6c0,0-0.1,0-0.1,0.1
		c-3.7,0.5-6.7-0.1-8.8-0.9c-0.2-0.1-0.3,1-1.2,1.3c-3.7,0.5-6.7-0.1-8.8-0.9c-0.2-0.1-0.4-0.1-0.4,0.1s-0.1,0.7-0.8,0.9
		c-3.7,0.5-6.7-0.1-8.8-0.9c-0.2-0.1-0.5-0.2-0.7-0.3c0.3,0.7,0.3,1.2-0.5,1.5c-2.2,0.3-4.1,0.2-5.8-0.1c-0.2,0.1-0.5,0.2-0.9,0.3
		c-3.6,0.5-6.9,0.8-9.8,1c0.3,0.6,0.5,1.1,0.5,1.6c0,0-0.2-0.1-0.4-0.2c-4.3,1.9-10.4,5.1-13.9,9.8c-5,6.8-15.1,18.2-21.3,22.8
		c-6.2,4.6-6.4,3.9-7.6,5.8c-1.2,1.9-7.5,11.5-13.5,8c0,0-2.7-1.1-4.9-3.1c-0.6,0.5-1.4,1-2.3,1.4c-3.4-0.1-9.4-0.9-12.3-7.6
		c-2.9-6.7-12.6-22.1-14.7-31.8c-1.5-6.9-6.7-15.4-10.2-24.2c-7.6-2.6-16.4-12.3-23.3-18.5c0,0,2.2-2.8,2.6-4.3c4,2.1,8,4.2,12,6.4
		c1.3-2.5,2.7-5.1,4-7.6c-3.9-2.1-7.8-4.1-11.7-6.2c0.5-1,2.1-3.7,2.9-3.5c2.6,0.7,25.6,7.1,27.7,18.8c0,0.1,0,0.2,0,0.3
		c1.9,2.7,9.7,22.3,11.5,31.3c1.8,9.1,7.5,20.2,8.9,24.3c1.1,3.3,3.5,7.6,4.5,10.2c0.7,0.4,1.8,1.3,3.7,3c1.7,1.5,7.1,5.5,10.2,0
		c3.1-5.5,14-16.7,15.8-17.6c1.7-0.9,4.4-4,5.7-8.4s9-15.4,11-16.4c2-1.1,3.6-2.2,5.1-1.8c0.4,0.1,3.9,1.5,3.9,1.5
		c0.2,0.2,0.4,0.4,0.6,0.6c4-0.6,9.4-1.1,14.5-1.7c0.4,0,0.6,0.1,0.8,0.2c1.9-0.4,4.1-0.6,6.2-0.4c0.6,0.2,0.8,0.5,0.7,1
		c0.1-0.1,0.3-0.1,0.4-0.2c2-0.8,5.5-1.4,8.8-1.1c0.7,0.2,0.8,0.4,0.8,0.7c0.1,0.2,0.1,0.4,0.3,0.4c2-0.8,5.5-1.4,8.8-1.1
		c0.6,0.2,0.8,0.5,1.2,0.5c0.8,0,1.9-0.3,3.1-0.6c0.2-0.1,0.6-0.2,1-0.2c1.5-0.2,3.1-0.3,4.7-0.1c1.1,0.3,0.8,1.1,0.3,2.1
		c0,0,0,0.8,0.3,1.2c0.2,0.2,0.4,0.2,1.2,0.3c2.4,0.4,3.2,1,6.6,0.6s3.4-2.9,3.7-3.4c0.4-0.4,1.1-0.5,1.2-0.6
		c0.1-0.9-0.3-1.6-0.9-2.2c0.9,0.1,1.9,1,1.9,1.4c0.2,0.1,0.3,0.5,0.4,0.9l0,0c0.4-0.4,1.1-0.5,1.2-0.6c0.1-0.9-0.3-1.6-0.9-2.2
		c0.9,0.1,1.9,1,1.9,1.4c0.4,0.2,0.4,0.8,0.3,1.5C335,458.2,332.5,459.1,331.2,459.6z"/>
	<path class="st0" d="M360.3,474.5c-0.7,0.3-1.3,0.5-1.9,0.5c-0.2,0.1-0.4,0.2-0.6,0.3c-3.8,1.7-8.7,0.6-12.4-0.6
		c-0.2-0.1-0.4-0.1-0.5-0.2c0,0.2-0.1,0.4-0.4,0.6c-3.2,1.9-6.3,2.4-8.5,2.4c-0.8,0-1.6,0.1-2.2,0.2c0.4,0.8,0.5,1.4-0.4,1.7
		c-3.7,0.4-6.7-0.3-8.8-1.2c-1.4,0.3-1.1,1.1-2.2,1.3c-3.7,0.1-6.7-0.9-8.6-1.9c-1.2-0.6-2-0.4-2.3-0.2c-0.3,0.3-0.2,0.7-1.4,0.9
		c-3.7-0.2-6.6-1.5-8.4-2.7c-0.1-0.1-0.3-0.2-0.4-0.2c-0.2,0.3-0.6,0.5-1.5,0.8c-8.6,2.2-15.7,3.7-20.6,3.9c-1,0-1.7,0.1-2.3,0.1
		c0,1.9,1.1,4.1,1.7,5.7c-0.4,0.2-5.6,0.5-6.1,0.7c-6.9,5-22.9,20.6-27,23.6c-4,3-20,17.9-20.7,19.3c-0.8,1.5-7.7,7.3-13.6,3.8
		c0,0,0,0-0.1-0.1c-1.6,1.1-3.3,1.8-3.3,1.8c-2.7,1.2-4.6,2.3-7.4-1.4c-2.7-3.7-9.7-8.8-11.5-12.3c-1.8-3.6-14.1-19.8-20-28.2
		c-4.9-7-10.3-12.8-13.8-17.9c-6.9-1.7-14-5.7-17.5-8.4c0,0,0.3-2.5,0.5-4.8c3.9,1.2,7.9,2.4,11.8,3.6c0.8-2.8,1.7-5.5,2.5-8.3
		c-4.1-1.2-8.1-2.4-12.2-3.7c1-1.9,2.4-3.3,4.4-3.1c3.1,0.2,13.8,5,20.4,8.4c0.8,0.1,1.5,0.3,2.2,0.9c0.2,0.2,0.3,0.3,0.5,0.5
		c0.9,0.5,1.6,0.9,2.1,1.3c1.3,1,2.4,2.9,2.6,5.1c6.8,10.4,16.5,28.4,18.5,32.2c2.7,5,7.5,17.2,9.9,19.2c1.8,1.5,9.2,5.1,11.8,9.2
		c0.4,0,0.8-0.1,1.3-0.1c2.7-0.1,3.2,1.6,5.4-0.8c2.2-2.3,20.8-23.3,26.4-29.1c5.7-5.8,21.5-21.1,21.7-22.4s0.6-9.2,2.9-7
		c1.1,1,2.6,3.7,4,6.5c0,0.3,0.4,0.8,0.7,1c0.8,0.5,1.4,0.3,2.4-0.1c4.5-1.7,12.9-3.3,20.6-5.1c2.6-0.2,2,0.8,2.6,0.9
		c1.3,0.3,2.7,0.1,4.8,0.1c1,0,2.2,0,5.4,1c1,0.6,0.9,0.7,0.8,0.9c-0.1,0.5,0.3,0.8,2,0.4c2-0.6,5.7-0.8,8.9-0.2
		c0.6,0.3,0.7,0.7,1.2,0.7s1.5-0.3,2.9-0.6c1.4-0.3,3.2-0.6,6.5-0.2c0.5,0.2,0.7,0.4,0.7,0.8c0.1-0.1,0.1-0.1,0.2-0.2
		c1.5-1.5,4.6-3.4,7.8-4.4c0.5,0,0.8,0.1,1,0.4c0.5,0.1,0.9,0.2,1.1,0.5c1.2,2.2,2.7,2.2,5.1,2.4c2.4,0.3,3.2,0.8,6.6,0.1
		c3.3-0.6,3.1-3.2,3.5-3.7c0.3-0.5,1.1-0.6,1.1-0.7c0-0.9-0.4-1.6-1.1-2.2c0.9,0,2,0.8,2,1.3c0.2,0.1,0.4,0.4,0.4,0.8l0,0
		c0.3-0.5,1.1-0.6,1.1-0.7c0-0.9-0.4-1.6-1.1-2.2c0.9,0,2,0.8,2,1.3c0.4,0.2,0.5,0.8,0.5,1.5C364,472.7,361.7,473.9,360.3,474.5z"/>
	<path class="st0" d="M369.9,409.5c-0.7,0.3-1.3,0.5-1.9,0.5c-0.2,0.1-0.4,0.2-0.6,0.3c-3.8,1.7-8.7,0.6-12.4-0.6
		c-0.2-0.1-0.4-0.1-0.5-0.2c0,0.2-0.1,0.4-0.4,0.6c-3.2,1.9-6.3,2.4-8.5,2.5c-0.8,0-1.6,0.1-2.2,0.2c0.4,0.8,0.5,1.4-0.4,1.7
		c-3.7,0.4-6.7-0.3-8.8-1.2c-0.6-0.3-1.3-0.5-1.8-0.6c0.4,0.9,0.7,1.7-0.4,2c-3.7,0.1-6.7-0.9-8.6-1.9c-1.2-0.6-2.4-1-2.6-0.7
		c-0.1,0.4,0,1.2-1.1,1.4c-3.7-0.2-6.6-1.5-8.4-2.7c-0.1-0.1-0.3,0-0.5,0.1s-0.4,0.2-1.3,0.5c-8.6,2.2-15.7,3.7-20.6,3.9
		c-3.1,0.1-3.6,0.1-3.9,0.4c-1.7,1.6-1.4,3.3-1.1,5c0,0.7-0.1,1.2-0.4,1c0,0,0,0,0,0.1c0,2.1-7.8,8.8-9.3,9.6
		c-1.6,0.8-35.2,34.4-39.2,38.6c-3.6,3.7-8.6,6.6-12.9,5.4c-1.3,2.4-6.2,2.4-6.2,2.4c-3.1-0.1-5.9-0.8-8.8-7.4
		c-2.8-6.6-11.8-27-13.3-32.4c-1-3.3-6.7-16.5-10.7-26.3c-9.1-2.9-20.9-9.2-21.1-10c0,0,0.8-3.4,0.9-4.9c3.8,1.2,7.7,2.4,11.5,3.6
		c0.9-2.8,1.7-5.5,2.6-8.3c-4-1.2-7.9-2.4-11.9-3.7c0.8-1.2,2-2.9,3.3-2.9c5.2,0.1,14.6,5.9,19,6.2c2.2,0.1,9.7,1.2,11.5,4.7
		c0,0-0.2,1.6-0.6,3.8c1.8,4.8,3.2,10.8,5.1,13.2c2.7,3.5,5.7,19,6.6,25.8c0.9,6.8,4.7,20.6,7.5,24.7c0.8,1.1,1.4,2.1,1.9,3.1
		c0.8-0.6,1.8-0.7,3.1,0c1.7,0.9,3.7,2.9,7-1.2s20.2-25,23.6-28.5c3.5-3.5,21.7-27.7,25.2-28.5s2.7,1.1,3.7,3.3c0,0,0.1,0.1,0.1,0.2
		c1.4-0.3,3.2-0.8,5.2-1.5c4.5-1.7,12.9-3.3,20.6-5.1c2.6-0.2,2,0.8,1.9,1.1c-0.2,0.6,0.8,0.4,2,0.2c2.1-0.4,5.7-0.2,8.9,0.7
		c1,0.6,0.9,0.7,0.8,0.9c-0.1,0.5,0.3,0.8,2,0.4c2-0.6,5.7-0.8,8.9-0.2c0.6,0.3,0.7,0.7,0.6,1.1c0.3-0.1,0.7-0.3,1.1-0.4
		c2-0.7,5.6-1.2,8.8-0.9c0.5,0.2,0.7,0.4,0.7,0.8c0.1-0.1,0.1-0.1,0.2-0.2c1.5-1.5,4.6-3.4,7.7-4.4c0.5,0,0.8,0.1,1,0.4
		c0.5,0.1,0.9,0.2,1.1,0.5c1.2,2.2,2.7,2.2,5.1,2.4c2.4,0.3,3.2,0.8,6.6,0.1c3.3-0.6,3.1-3.2,3.5-3.7c0.3-0.5,1.1-0.6,1.1-0.7
		c0-0.9-0.4-1.6-1.1-2.2c0.9,0,2,0.8,2,1.3c0.2,0.1,0.4,0.4,0.4,0.8l0,0c0.3-0.5,1.1-0.6,1.1-0.7c0-0.9-0.4-1.6-1.1-2.2
		c0.9,0,2,0.8,2,1.3c0.4,0.2,0.5,0.8,0.5,1.5C373.6,407.8,371.3,408.9,369.9,409.5z"/>
	<path class="st0" d="M35.2,174.7c1.9,0.2,3.4-0.8,4.9-2c2.5-2.3,5.1-6.2,7.9-11.1c8.1-14.4,17.1-36.7,20-43.1
		c3.3-7.3,6.9-16,10.3-25.3c1.3-3.5,2.5-7,3.7-10.7c4.4-13.4,13.6-47,13.6-47s0,0-0.1,0c1.4-5.3,1.9-6.5,1.9-6.9l0,0
		c2-6.5,3.1-8.7,0.2-10.4c-0.7,2.2-3,10-3.7,12.2c-3.1-0.9-6.1-1.8-9.2-2.8c0.6-2.1,3-9.8,3.6-11.9C86.9,16,85.7,16.9,85,18
		c-1.2,1.8-2,4.2-2.6,6.7c-0.2,0.9-0.4,1.7-0.7,2.5c-0.2,0.8-0.4,1.5-0.6,2.1c-0.1,0.2-0.3,0.4-0.4,0.6c-0.8,0.7-2,1.6-3.8,2.6
		c-1.3,0.7-3.4,0.9-6,0.6c-3.9-0.4-8.7-1.8-13.1-3c-4.5-1.2-8.3-2.4-11.3-2.1c-1.1,0.2-1.9,0.7-2.6,1.3c-2.5,2.3-5.2,6.9-7.9,12.6
		c-2.7,5.6-5.4,12.2-7.5,18c-1.2,3.4-2.2,6.5-2.9,9.1c-0.7,2.6-1.1,4.5-1,5.9c0,0,0,0,0,0.1c0,0,0,0,0,0.1
		c0.7,4.8-1.2,12.6-3.6,19.7c-2.4,7.2-5,13.7-5.7,17.3v0.1v0.1c-0.6,9.5,0.2,32.5,3.2,44.9c1.2,4.8,2.6,8.3,4.5,11
		c1.9,2.6,4.3,4.3,7.1,5.3C31.6,174,33.3,174.4,35.2,174.7z"/>
	<path class="st0" d="M49.9,147.1c0,0.5,0.1,0.9,0.1,1.3c0,0.2,0.1,0.4,0.2,0.7c0,0.1,0.1,0.2,0.2,0.3c-3,6.1-6,11.8-8.8,15.9
		c-0.5,0.8-1,1.5-1.5,2.1c0.6-3.3,1.5-7.7,2.4-12.4c1.9-9.4,4.2-20.1,5.7-24.3c1-2.7,2.5-5,4.1-6.8s3.3-3.2,4.5-4.1
		c0.1-0.1,0.2-0.2,0.4-0.3c-0.1,1.5-0.5,3.3-1.3,5.6c-0.7,2.1-1.9,4.4-3.6,7c0,0.1-0.1,0.1-0.1,0.2c0,0.1,0,0.2-0.1,0.3
		c-1.1,4-1.8,7.9-2.1,10.8C49.9,144.8,49.9,146.1,49.9,147.1z"/>
	<path class="st0" d="M46.3,120.9c0.7,0.9,1.4,1.7,2,2.6c-1.3,1.7-2.4,3.8-3.3,6.1c-0.5,1.5-1.1,3.5-1.7,5.9
		c-1.3-0.5-2.6-0.9-3.9-1.4c0.5-1.4,0.8-2.8,0.9-3.4C41.1,129.5,44,124.4,46.3,120.9z"/>
	<path class="st0" d="M38.4,127.3c-2-1.8-3.9-3.6-5.9-5.4c3.2-5.4,6.4-12.5,7.3-14.6c1.6-0.9,3.1-1.7,4.7-2.6
		c0.3,1.3,0.5,2.9,0.7,4.5c0.4,2.7,0.4,5.6-0.2,7.2c-0.1,0.4-0.3,0.6-0.4,0.9C42.6,120.1,39.9,124.7,38.4,127.3z"/>
	<path class="st0" d="M78.6,81.4C77.4,85,76.2,88.5,75,92c-3.4,9.3-6.9,17.9-10.2,25.1c-1.9,4.2-6.2,14.8-11.2,25.6
		c0.3-2.5,0.9-5.7,1.8-8.8c1.7-2.7,2.9-5.2,3.8-7.5c1.9-5.4,1.6-9.2,1.4-10.6c1.4-3.1,8.7-19.2,13.1-29.2c1.2-2.6,2.8-6.9,4.6-11.9
		c4.4-12.2,9.9-28.8,12.6-37.1c0.1,0.1,0.2,0.1,0.3,0.2c-0.9,3.3-2.5,9-4.3,15.4C84.1,63,80.8,74.7,78.6,81.4z"/>
	<path class="st0" d="M87.8,35.5L87.8,35.5c-0.8,2.7-2,6.4-3.4,10.6C81.6,54.5,78,65,75,73.3c-1.8,5-3.4,9.2-4.5,11.7
		c-4.9,11-13.3,29.7-13.3,29.7c-0.1,0.2-0.2,0.4-0.3,0.6c0,0.1,0.1,0.2,0.1,0.3c-0.9,0.5-3.7,2.2-6.5,5.2c-0.8-1-1.6-2-2.4-3.1v-0.1
		c0.9-2.7,0.8-5.9,0.4-8.8c-0.3-2.6-0.9-5.1-1.1-6.5c0.2-0.5,0.7-1.4,1.4-2.4c6.3-10.5,28-42.2,30.8-46.2c1.7-2.4,3.7-7,5.6-11.7
		C86.2,39.6,87.1,37.3,87.8,35.5z"/>
	<path class="st0" d="M83.9,36.1c-0.5,1.4-1.2,3-1.8,4.6c-1.8,4.5-3.9,9.2-5.2,10.9c-1.7,2.3-9.4,13.6-17,24.9
		c-3.8,5.6-7.5,11.3-10.4,15.7c-1.4,2.2-2.7,4.2-3.6,5.7c-0.7,1.2-1.2,2.1-1.6,2.8c-1.9,1-3.7,2.1-5.6,3.1c0-0.1,0-0.2,0-0.3
		c-0.2,0-0.4,0-0.6-0.1c-0.8-0.2-1.9-1.9-2.4-3.8c-0.3-0.9-0.5-1.9-0.6-2.6C35,96.6,35,96.3,35,96.1c3-1.3,5.7-3.5,8.1-5.9
		c3.9-3.9,7-8.4,9.2-11.3c4.6-6,17.8-23.9,22.8-29.5C78.3,45.8,81.8,40,83.9,36.1z"/>
	<path class="st0" d="M72.4,47.3C67.2,53.2,54.1,71,49.5,77c-2.3,3-5.4,7.4-8.9,11c-3.2,3.2-6.8,5.7-10.3,6.1
		c0.1-0.6,0.2-1.4,0.5-2.2c2.2-6.1,10.4-16.3,18.8-25.3s16.9-17.1,19.7-19.5c2.9-2.6,6.4-5.8,9.3-8.5C76.7,41.6,74.5,45,72.4,47.3z"
		/>
	<path class="st0" d="M61.7,36.8c-4.8-2-7.9-3.5-9.7-4.7c0.2,0.1,0.5,0.1,0.7,0.2c3.9,1,8.7,2.6,13.3,3.5c1.7,0.4,3.4,0.7,5.1,0.8
		c-3,1-6,1.4-8.9,0.3C62,36.9,61.9,36.9,61.7,36.8z"/>
	<path class="st0" d="M24.1,95.8c2.4-7.3,4.5-15.1,3.7-21.2c0-0.5,0.3-2.4,0.9-4.7c0.7-2.4,1.7-5.5,2.9-8.8c2.4-6.5,5.5-14.1,8.5-20
		c1.5-2.9,3-5.5,4.3-7.3c0.6-0.9,1.2-1.6,1.7-2c0.1-0.1,0.2-0.2,0.3-0.3c0.1,0.3,0.3,0.5,0.4,0.7c0.8,1,2,1.9,4.1,3.2
		c2.1,1.2,5.1,2.6,9.4,4.4c0.2,0.1,0.4,0.2,0.6,0.2c3.7,1.3,7.5,0.9,10.9-0.2c-1.7,1.5-3.4,3.1-4.9,4.4C64.1,47,55.5,55.1,47,64.2
		c-8.5,9.2-16.9,19.2-19.5,26.5c-0.6,1.7-0.9,3.2-0.7,4.7c0.1,0,0.2,0,0.3,0c-1.2,1.2-2.7,2.5-4,3.6C23.4,97.9,23.7,96.9,24.1,95.8z
		"/>
	<path class="st0" d="M18.6,112.5c0.3-1.6,1.3-4.5,2.6-8.1c0.1,0.1,0.1,0.2,0.2,0.3c0,0,5.1-3.8,8.4-7.1c0.6,0,1.3-0.1,1.9-0.2
		c0.1,0.8,0.4,2,0.8,3.4c0.7,2,1.6,4.5,4,5.8c-0.5,1.2-1.4,3.2-2.6,5.6c-1.8,3.7-4.1,8.1-6,10.7s-4.5,5-6.8,6.8
		c-0.8,0.7-1.6,1.3-2.3,1.8C18.3,123.8,18.3,116.7,18.6,112.5z"/>
	<path class="st0" d="M18.9,135.5c0.9-0.7,2.5-1.8,4.2-3.2c2.4-1.9,5.2-4.4,7.4-7.5l0,0c2.1,1.9,4.2,3.9,6.3,5.8
		c0,0.1,0,0.2-0.1,0.3c-0.2,0.7-0.4,1.7-0.7,2.5c-0.2,0.6-0.4,1.1-0.6,1.3c-0.8,1.2-9.8,14.7-14,21
		C20.3,150.3,19.4,142.9,18.9,135.5z"/>
	<path class="st0" d="M25.7,166.1c-1.1-1.5-2-3.5-2.9-6.1c2.3-3.5,12.9-19.3,15.2-22.8c1.5,0.5,3,1.1,4.6,1.6
		c-1.1,4.7-2.3,10.2-3.3,15.5c-1.5,7.7-2.8,14.6-3.2,17c-0.1,0-0.2,0-0.2,0c-1.7-0.3-3.2-0.6-4.6-1.1
		C28.9,169.4,27.2,168.2,25.7,166.1z"/>
	<path class="st0" d="M96,139.8c0,0.1-0.1,0.1-0.1,0.2c0.3-6.9,2.7-19.9,5.4-32.5c3-13.6,6.4-26.8,8.1-31.8c2.6-7.6,3-22.4,3-32.2
		c0-1.8,0-3.4,0-4.7c0.3,0,0.7,0,1,0.1c-0.1,13.8-0.3,47.3-1.7,57.4v0.1v0.1c0,5.1-0.2,14.6-0.2,25.6c0,12.3,0.2,26.5,1.2,38.6
		c-1.4-1.4-2.7-3.2-2.9-4.3v-0.1v-0.1C108.2,151.6,105.5,144.9,96,139.8z"/>
	<path class="st0" d="M93,181.4L93,181.4c0-0.1-6.3-1.7-9.2-2.2c-1.4-0.6-3.4-1.3-5.1-1.9c1.4-1.3,2.4-2.5,3.3-3.6
		c2.2-3,2.7-5.6,2.7-7.6c0-1.3-0.2-2.4-0.2-3V163c3.5-2.7,5.5-5.3,6.9-8.2c1.5-3,2.4-6.2,4.3-10.4c0.1-0.1,0.1-0.3,0.2-0.4v-0.1
		c7.2,4.5,9,9.4,10.4,13.5c0.7,2.6,2.7,4.7,4.4,6.4c0.8,0.8,1.6,1.4,2.3,1.9c0.1,0.7,0.1,1.4,0.2,2c-0.1,0-0.2,0-0.3,0
		c-1.3,0-2.4,0.3-3.5,0.3c-0.1,0-0.3,0-0.4,0c-0.1,0.1-0.2,0.1-0.4,0.2c-4.1,2-6.5,3.7-8,5.3c-1.4,1.5-1.9,2.9-2,4
		c-1.4,0.9-3.9,2.6-5.8,3.9C93.1,181.4,93.1,181.4,93,181.4z"/>
	<path class="st0" d="M100.6,180.4c1.6,1.5,3.2,3,4.9,4.5c-3.9,5.8-7.7,14-10,23.6c-0.8-0.2-1.9-0.5-3-0.7c-2.4-0.5-5-1.1-7.1-1.2
		c1.3-4,2.6-8.1,3.5-10.5c0.8-2.2,1.8-4.7,2.7-6.7c0.9-2,1.8-3.8,2-4.1l0,0c0.1-0.1,0.8-0.6,1.5-1.2c0.8-0.6,1.8-1.3,2.8-1.9
		C98.9,181.5,99.9,180.9,100.6,180.4z"/>
	<path class="st0" d="M119.1,180.1c-0.4-1.5-0.9-3.3-1.2-5.2c-0.8-4.4-1.4-9.7-1.8-15.5c-0.9-11.7-1.1-25.4-1.1-37.3
		c0-10.8,0.2-20.2,0.2-25.4c1.4-10.7,1.7-43.6,1.7-57.5c0,0,0.3-1.5,0.8,2.2s0,11.5,0.2,22.3c0.3,16.7,0.6,38.1,0.6,56.8
		c0,16.1-0.2,30.4-0.9,37.9v0.1v0.1C117.9,163.8,118.6,171.3,119.1,180.1z"/>
	<path class="st0" d="M107.8,182.5c-1.8-1.7-3.6-3.4-5.4-5c0-0.3,0.2-0.8,1-1.7c1-1.1,3-2.6,6.6-4.4c1.4-0.1,2.5-0.3,3.1-0.3
		c0.1,0,0.2,0,0.3,0l0,0c0,0,0-0.1,0.1-0.1l-0.1,0.1c0.1-0.1,0.2-0.2,0.3-0.3c0.2,1.7,0.5,3.3,0.7,4.8c0.3,1.6,0.6,3.1,1,4.5
		C113.3,180.3,110.6,181.2,107.8,182.5z"/>
	<path class="st0" d="M113.8,213.3c-0.8,4.2-4,8.4-7.5,11.6c-2.8,2.6-5.7,4.6-7.5,5.7c-0.4-4-0.6-8.4-0.6-12.9
		c0-2.2,0.1-4.5,0.2-6.8c2.3-10.6,6.7-19.6,10.8-25.3c2.1-1,4.3-1.7,5.9-2c-3,2.3-5.1,7.1-5.1,8.7
		C109.1,207,111.6,210.3,113.8,213.3z"/>
	<path class="st0" d="M91.6,211.2c1.3,0.3,2.5,0.6,3.3,0.8c-0.1,1.9-0.1,3.9-0.1,5.7c0,10.5,1.2,19.7,2.7,27.3
		c-0.7,0-1.6,0.1-2.5,0.3c-2.1,0.3-4.5,0.7-6.4,1.7c-2.7,0.4-7.3,1.6-10.1,2.3c1.4-9.9,3.9-18.9,3.9-30.2c0-1.3,0-2.6-0.1-3.9
		c0.6-1.5,1.2-3.2,1.9-5.1c0.1,0,0.2,0,0.4,0C86.1,210,89.1,210.6,91.6,211.2z"/>
	<path class="st0" d="M110,271.9c-0.5-1.9-1.2-4.1-2.5-6.6c-2.3-4.6-6.4-15.5-8.3-30.9c1.4-0.8,4.5-2.7,7.8-5.5
		c3.6-3.1,7.5-7.1,9.3-12.1c1.6,2,2.5,3.8,3.1,4.9C118.6,239.5,116,257.5,110,271.9z"/>
	<path class="st0" d="M70.3,278.2c1.5-2.8,6-11.9,7.7-25.3c0.9-0.3,2.3-0.6,3.8-1c2.7-0.7,5.9-1.4,7.5-1.6c0.1,0,0.2,0,0.4,0
		c0.1-0.1,0.2-0.1,0.3-0.2c1.1-0.6,3.4-1.2,5.4-1.4c1.1-0.1,2.2-0.2,2.8-0.3c2,8.7,4.6,15,6.2,18.4c2.7,5.5,2.9,9.6,2.9,10.8
		c-0.1,0.2-0.2,0.3-0.2,0.5c-3.3,3.9-8.5,9.8-16.7,9.7c-4,0-8.9-1.4-14.9-5.5C73.8,280.9,72.1,279.5,70.3,278.2z"/>
	<path class="st0" d="M41.9,243.2c1.8-2.1,9.3-11.4,13.7-18.9c0.6-1.1,1.2-2.1,1.7-3.1c2.1-0.7,8.8-2.8,14.3-4.3h0.1
		c0,0,0.1,0,0.1-0.1c2-0.9,3.7-1.1,4.9-1.1c1,0,1.7,0.1,2.2,0.3c0,1,0.1,2.1,0.1,3.1c0,11.6-2.8,21-4.2,32.3
		c-1.5,12.7-5.6,21.6-7.2,24.7C58.3,268.8,49.1,260.6,41.9,243.2z"/>
	<path class="st0" d="M49.4,191.5c1.8,0,4-0.6,6.4-1.5c1.1,4,1.4,7.6,1.4,10.8c0,5.9-1.2,10.7-1.8,15.3c-0.2,2-2.5,6.4-5.5,10.7
		c-2.9,4.3-6.3,8.8-8.6,11.6c-0.3,0.4-0.7,0.8-0.9,1.2c-1.8-4.8-3.5-10.2-5-16.4c1-9.3,5.1-22.3,9.6-28.8c0.9-1.4,1.8-2.4,2.6-3.1
		C48.3,191.5,48.8,191.5,49.4,191.5z"/>
	<path class="st0" d="M59,188.8c3.6-1.4,7.3-3.2,10.3-4.5c0,0,0.1,0,0.1-0.1c0,0,0.1,0,0.1-0.1c2.4-1.6,4.5-3,6.2-4.4
		c1.6,0.6,5.1,1.8,6.9,2.6c0.1,0,0.1,0.1,0.2,0.1s0.1,0,0.2,0c1.2,0.2,3.5,0.7,5.5,1.2c0.6,0.2,1.2,0.3,1.7,0.4
		c-0.1,0.2-0.2,0.4-0.4,0.7c-0.4,0.8-0.9,1.8-1.4,2.9c-1,2.2-2,4.8-2.9,7.1c-1.6,4.2-4,12.5-6,17.7c-0.8-0.2-1.7-0.4-2.9-0.4
		c-1.7,0-3.8,0.4-6.2,1.4c-4.1,1.1-8.8,2.5-11.8,3.5c0-0.2,0.1-0.4,0.1-0.6c0.5-4.2,1.8-9.3,1.8-15.7
		C60.7,197.3,60.2,193.3,59,188.8z"/>
	<path class="st0" d="M63.4,168.6c2.5-2.9,4.6-6.3,6.3-9.4c0,0.1,0.1,0.2,0.1,0.4c0.9-0.2,1.8-0.3,2.8-0.3c3.2,0,6.7,1,8.9,1.7l0,0
		c0,0.2-0.1,0.4-0.1,0.6c-0.1,0.5-0.1,1-0.1,1.4c0,1.1,0.2,2.1,0.2,3c0,1.5-0.3,3.1-2.1,5.6c-1.8,2.4-5.2,5.6-11.4,9.6
		c-3,1.4-6.8,3.1-10.3,4.5c-2.9,1.2-5.6,2-7.2,2.3c0.8-4.4,2.1-7.4,3.3-10C55,177,59.8,173.7,63.4,168.6z"/>
	<path class="st0" d="M67.7,133.2c3.4,0,6.8,0.1,10.2,0.1c-0.7,1.5-1.6,3.5-2.5,5.6c-2,4.5-4.4,9.5-5.4,11.4c0,0,0,0,0,0.1
		c0,0,0,0,0,0.1c-1.7,4-4.9,11-9.2,15.9c0,0,0,0-0.1,0.1c0,0,0,0.1-0.1,0.1c-1.4,2-3,3.7-4.5,5.1c1.1-4.9,5-19.1,10-33.8
		C66.6,136.3,67.2,134.7,67.7,133.2z"/>
	<path class="st0" d="M82.4,131.7c0,0,2.7-8.3,6.1-18.9c3.5-10.7,7.8-23.7,11.1-33.2c2.2-6.3,4-11.1,4.6-12.3l0,0c0,0,0,0,0-0.1
		c2.4-5.4,4.2-15.8,4.2-23.9c0-1.2,0-3.2-0.3-5c0.3,0.1,0.5,0.2,0.8,0.2c0,1.4,0,3.1,0,4.9c0,9.5-0.5,24.5-2.8,31
		c-1.9,5.3-5.3,18.5-8.3,32.2s-5.5,27.7-5.5,34.8c0,0.7,0,1.3,0.1,1.9c-1.8,4.2-2.8,7.3-4.1,9.8c-1,1.9-2.1,3.5-4,5.3
		c-1.5-0.6-6.7-2.7-11.9-2.7c-0.4,0-0.8,0-1.2,0c0.7-1.4,1.3-2.8,1.7-3.9c2.2-4.3,9.3-20,9.3-20C82.4,131.9,82.4,131.8,82.4,131.7
		C82.4,131.8,82.4,131.8,82.4,131.7z"/>
	<path class="st0" d="M105.3,39.8c0.1,0.9,0.1,1.8,0.1,2.9c0,7.5-2.2,18.5-4.3,23.1c-0.9,1.8-2.6,6.4-4.8,12.7
		c-2.2,6.4-4.8,14.3-7.4,22c-4.4,13.4-8.6,26.2-9.6,29.4c-3.5-0.1-7-0.1-10.4-0.2c4.9-13.4,10.6-26.2,15.5-31.8c0,0,0,0,0.1-0.1
		c0,0,0,0,0-0.1c2.1-3,4.5-6.4,6.4-9.7c1.9-3.4,3.3-6.7,3.4-9.8c0.1-2.1-0.9-4.3-2.8-5.7c1.5-6.9,6.6-15,10.9-22.2v-0.1
		c0,0,0,0,0-0.1C104,47,104.8,43.2,105.3,39.8z"/>
	<path class="st0" d="M222.4,166.1c1.1-1.5,2-3.5,2.9-6.1c-2.3-3.5-12.9-19.3-15.2-22.8c-1.5,0.5-3,1.1-4.6,1.6
		c1.1,4.7,2.3,10.2,3.3,15.5c1.5,7.7,2.8,14.6,3.2,17c0.1,0,0.2,0,0.2,0c1.7-0.3,3.2-0.6,4.6-1.1
		C219.1,169.4,220.8,168.2,222.4,166.1z"/>
	<path class="st0" d="M229.1,135.5c-0.9-0.7-2.5-1.8-4.2-3.2c-2.4-1.9-5.2-4.4-7.4-7.5l0,0c-2.1,1.9-4.2,3.9-6.3,5.8
		c0,0.1,0,0.2,0.1,0.3c0.2,0.7,0.4,1.7,0.7,2.5c0.2,0.6,0.4,1.1,0.6,1.3c0.8,1.2,9.8,14.7,14,21
		C227.8,150.3,228.6,142.9,229.1,135.5z"/>
	<path class="st0" d="M229.5,112.5c-0.3-1.6-1.3-4.5-2.6-8.1c-0.1,0.1-0.1,0.2-0.2,0.3c0,0-5.1-3.8-8.4-7.1c-0.6,0-1.3-0.1-1.9-0.2
		c-0.1,0.8-0.4,2-0.8,3.4c-0.7,2-1.6,4.5-4,5.8c0.5,1.2,1.4,3.2,2.6,5.6c1.8,3.7,4.1,8.1,6,10.7s4.5,5,6.8,6.8
		c0.8,0.7,1.6,1.3,2.3,1.8C229.7,123.8,229.7,116.7,229.5,112.5z"/>
	<path class="st0" d="M223.9,95.8c-2.4-7.3-4.5-15.1-3.7-21.2c0-0.5-0.3-2.4-0.9-4.7c-0.7-2.4-1.7-5.5-2.9-8.8
		c-2.4-6.5-5.5-14.1-8.5-20c-1.5-2.9-3-5.5-4.3-7.3c-0.6-0.9-1.2-1.6-1.7-2c-0.1-0.1-0.2-0.2-0.3-0.3c-0.1,0.3-0.3,0.5-0.4,0.7
		c-0.8,1-2,1.9-4.1,3.2c-2.1,1.2-5.1,2.6-9.4,4.4c-0.2,0.1-0.4,0.2-0.6,0.2c-3.7,1.3-7.5,0.9-10.9-0.2c1.7,1.5,3.4,3.1,4.9,4.4
		c2.9,2.8,11.4,10.9,19.9,20c8.5,9.2,16.9,19.2,19.5,26.5c0.6,1.7,0.9,3.2,0.7,4.7c-0.1,0-0.2,0-0.3,0c1.2,1.2,2.7,2.5,4,3.6
		C224.6,97.9,224.3,96.9,223.9,95.8z"/>
	<path class="st0" d="M186.3,36.8c4.8-2,7.9-3.5,9.7-4.7c-0.2,0.1-0.5,0.1-0.7,0.2c-3.9,1-8.7,2.6-13.3,3.5
		c-1.7,0.4-3.4,0.7-5.1,0.8c3,1,6,1.4,8.9,0.3C186,36.9,186.2,36.9,186.3,36.8z"/>
	<path class="st0" d="M175.6,47.3C180.8,53.2,194,71,198.5,77c2.3,3,5.4,7.4,8.9,11c3.2,3.2,6.8,5.7,10.3,6.1
		c-0.1-0.6-0.2-1.4-0.5-2.2c-2.2-6.1-10.4-16.3-18.8-25.3c-8.4-9-16.9-17.1-19.7-19.5c-2.9-2.6-6.4-5.8-9.3-8.5
		C171.3,41.6,173.6,45,175.6,47.3z"/>
	<path class="st0" d="M164.1,36.1c0.5,1.4,1.2,3,1.8,4.6c1.8,4.5,3.9,9.2,5.2,10.9c1.7,2.3,9.4,13.6,17,24.9
		c3.8,5.6,7.5,11.3,10.4,15.7c1.4,2.2,2.7,4.2,3.6,5.7c0.7,1.2,1.2,2.1,1.6,2.8c1.9,1,3.7,2.1,5.6,3.1c0-0.1,0-0.2,0-0.3
		c0.2,0,0.4,0,0.6-0.1c0.8-0.2,1.9-1.9,2.4-3.8c0.3-0.9,0.5-1.9,0.6-2.6c0.1-0.4,0.1-0.7,0.1-0.9c-3-1.3-5.7-3.5-8.1-5.9
		c-3.9-3.9-7-8.4-9.2-11.3c-4.6-6-17.8-23.9-22.8-29.5C169.7,45.8,166.3,40,164.1,36.1z"/>
	<path class="st0" d="M160.2,35.5l-0.1,0.1c0.9,2.6,2.1,6.3,3.5,10.5c2.8,8.4,6.4,18.9,9.4,27.2c1.8,5,3.4,9.2,4.5,11.7
		c4.9,11,13.3,29.7,13.3,29.7c0.1,0.2,0.2,0.4,0.3,0.6c0,0.1-0.1,0.2-0.1,0.3c0.9,0.5,3.7,2.2,6.5,5.2c0.8-1,1.6-2,2.4-3.1v-0.1
		c-0.9-2.7-0.8-5.9-0.4-8.8c0.3-2.6,0.9-5.1,1.1-6.5c-0.2-0.5-0.7-1.4-1.4-2.4c-6.3-10.5-28-42.2-30.8-46.2c-1.7-2.4-3.7-7-5.6-11.7
		C161.8,39.6,160.9,37.3,160.2,35.5z"/>
	<path class="st0" d="M169.4,81.4c1.2,3.6,2.4,7.1,3.6,10.6c3.4,9.3,6.9,17.9,10.2,25.1c1.9,4.2,6.2,14.8,11.2,25.6
		c-0.3-2.5-0.9-5.7-1.8-8.8c-1.7-2.7-2.9-5.2-3.8-7.5c-1.9-5.4-1.6-9.2-1.4-10.6c-1.4-3.1-8.7-19.2-13.1-29.2
		c-1.2-2.6-2.8-6.9-4.6-11.9c-4.4-12.2-9.9-28.8-12.6-37.1c-0.1,0.1-0.2,0.1-0.3,0.2c0.9,3.3,2.5,9,4.3,15.4
		C163.9,63,167.3,74.7,169.4,81.4z"/>
	<path class="st0" d="M209.7,127.3c2-1.8,3.9-3.6,5.9-5.4c-3.2-5.4-6.4-12.5-7.3-14.6c-1.6-0.9-3.1-1.7-4.7-2.6
		c-0.3,1.3-0.5,2.9-0.7,4.5c-0.4,2.7-0.4,5.6,0.2,7.2c0.1,0.4,0.3,0.6,0.4,0.9C205.4,120.1,208.2,124.7,209.7,127.3z"/>
	<path class="st0" d="M201.8,120.9c-0.7,0.9-1.4,1.7-2,2.6c1.3,1.7,2.4,3.8,3.3,6.1c0.5,1.5,1.1,3.5,1.7,5.9
		c1.3-0.5,2.6-0.9,3.9-1.4c-0.5-1.4-0.8-2.8-0.9-3.4C207,129.5,204,124.4,201.8,120.9z"/>
	<path class="st0" d="M198.1,147.1c0,0.5-0.1,0.9-0.1,1.3c0,0.2-0.1,0.4-0.2,0.7c0,0.1-0.1,0.2-0.2,0.3c3,6.1,6,11.8,8.8,15.9
		c0.5,0.8,1,1.5,1.5,2.1c-0.6-3.3-1.5-7.7-2.4-12.4c-1.9-9.4-4.2-20.1-5.7-24.3c-1-2.7-2.5-5-4.1-6.8s-3.3-3.2-4.5-4.1
		c-0.1-0.1-0.2-0.2-0.4-0.3c0.1,1.5,0.5,3.3,1.3,5.6c0.7,2.1,1.9,4.4,3.6,7c0,0.1,0.1,0.1,0.1,0.2c0,0.1,0,0.2,0.1,0.3
		c1.1,4,1.8,7.9,2.1,10.8C198.1,144.8,198.1,146.1,198.1,147.1z"/>
	<path class="st0" d="M212.8,174.7c-1.9,0.2-3.4-0.8-4.9-2c-2.5-2.3-5.1-6.2-7.9-11.1c-8.1-14.4-17.1-36.7-20-43.1
		c-3.3-7.3-6.9-16-10.3-25.3c-1.3-3.5-2.5-7-3.7-10.7c-4.4-13.4-13.6-47-13.6-47s0,0,0.1,0c-1.4-5.3-1.9-6.5-1.9-6.9l0,0
		c-2-6.5-3.1-8.7-0.2-10.4c0.7,2.2,3,10.1,3.7,12.3c3.1-0.9,6.1-1.8,9.2-2.8c-0.6-2.1-3-9.9-3.6-12c1.4,0.3,2.5,1.2,3.3,2.4
		c1.2,1.8,2,4.2,2.6,6.7c0.2,0.9,0.4,1.7,0.7,2.5c0.2,0.8,0.4,1.5,0.6,2.1c0.1,0.2,0.3,0.4,0.4,0.6c0.8,0.7,2,1.6,3.8,2.6
		c1.3,0.7,3.4,0.9,6,0.6c3.9-0.4,8.7-1.8,13.1-3c4.5-1.2,8.3-2.4,11.3-2.1c1.1,0.2,1.9,0.7,2.6,1.3c2.5,2.3,5.2,6.9,7.9,12.6
		c2.7,5.6,5.4,12.2,7.5,18c1.2,3.4,2.2,6.5,2.9,9.1s1.1,4.5,1,5.9c0,0,0,0,0,0.1c0,0,0,0,0,0.1c-0.7,4.8,1.2,12.6,3.6,19.7
		c2.4,7.2,5,13.7,5.7,17.3v0.1v0.1c0.6,9.5-0.2,32.5-3.2,44.9c-1.2,4.8-2.6,8.3-4.5,11c-1.9,2.6-4.3,4.3-7.1,5.3
		C216.4,174,214.7,174.4,212.8,174.7z"/>
	<path class="st0" d="M311.5,125c3.5-13.3,16.3-21.7,29-20.9c0.1,0,0.2,0,0.3,0c1-3.9,2-7.8,3.1-11.7c2.8,0.8,5.6,1.5,8.3,2.3
		c-1,3.9-2,7.8-3.1,11.7c0.1,0,0.2,0.1,0.3,0.1c11.4,5.5,17.3,18.8,13.8,32c-2.1,8-7.3,14.3-13.9,17.9c12.6-3.5,23.1-13.7,26.8-27.7
		c5.4-20.6-6.1-41.4-25.7-46.6s-39.9,7.3-45.3,27.9c-3.7,14,0.5,28.1,9.7,37.4C310.9,141.1,309.4,133.1,311.5,125z"/>
	<path class="st0" d="M331.4,138.3c0.1-0.1,0.2-0.2,0.3-0.3c1.4-1.2,4-3.8,6.6-8c1.2-1.9,3.1-6.4,4.2-8.7c0.6-2,1.2-5.2,1.2-5.2
		c0.4-5.1-3.2-5.1-4.6-7c-0.1-0.1-0.1-0.2-0.2-0.2c-0.9,3-1.8,6-2.7,9c-2.8-0.8-5.5-1.6-8.3-2.3c0.9-2.9,1.7-5.8,2.6-8.7
		c-0.1,0-0.2,0.1-0.3,0.1c-2,0.9-5.1,2.4-5.7,4.7c-0.4,1.3-0.7,2.6-1.1,3.9c-0.4,1-2.1,3.9-3,5.3c-0.9,1.5-2.8,4.2-4.3,5.9
		c-0.4,0.4-0.8,0.8-1.2,1.2c-1.5,1.4-0.8,0.8-0.8,0.8c-1.8,1.8-0.1,5.1,1,6.8c2.1-2,4.2-4,6.3-6c2,2.1,4,4.2,6,6.2
		c-2.1,2-4.2,4-6.2,6c1.6,1,4.3,2.3,6.1,0.6c0.8-0.7,1.6-1.5,2.4-2.2C330.1,139.4,330.7,138.8,331.4,138.3z"/>
	<path class="st0" d="M338.5,153.5c1.6,1.1,4.3,2.5,6.2,0.8c0.8-0.7,1.6-1.4,2.4-2.2c0.7-0.5,1.3-1.1,2-1.6c0.1-0.1,0.2-0.2,0.3-0.3
		c1.4-1.2,4.1-3.8,6.8-7.9c1.2-1.9,3.2-6.4,4.3-8.6c0.6-2,1.2-5.2,1.2-5.2c0.5-5.1-3.1-5.2-4.5-7.1c-0.1-0.1-0.1-0.2-0.2-0.2
		c-0.9,3-1.9,5.9-2.8,8.9c-2.8-0.8-5.5-1.7-8.3-2.5c0.9-2.9,1.8-5.8,2.8-8.7c-0.1,0-0.2,0.1-0.3,0.1c-2.1,0.8-5.1,2.3-5.8,4.6
		c-0.4,1.3-0.8,2.6-1.2,3.8c-0.4,1-2.2,3.8-3.1,5.2c-1,1.5-2.9,4.2-4.4,5.8c-0.4,0.4-0.8,0.8-1.2,1.1c-1.5,1.4-0.8,0.8-0.8,0.8
		c-1.9,1.7-0.2,5.1,0.9,6.8c2.1-2,4.2-3.9,6.4-5.9c2,2.1,3.9,4.2,5.9,6.3C342.8,149.7,340.7,151.6,338.5,153.5
		C338.6,153.6,338.6,153.5,338.5,153.5z"/>
	<path class="st0" d="M296.6,205.3c0.1-13.7,12.9-24.8,27.8-26.7c0-4,0.1-7.9,0.1-11.9c2.9,0,5.8-0.1,8.6-0.1c0,4-0.1,7.9-0.1,11.9
		c14.8,2.3,26,13.8,25.8,27.5c-0.1,8.1-4.2,15.4-10.6,20.4c13.5-6.4,22.7-18.8,22.8-33.3c0.2-21.1-18.9-38.5-42.8-38.7
		c-23.9-0.3-43.4,16.7-43.6,37.8c-0.2,14.5,8.8,27.1,22.1,33.8C300.4,220.7,296.5,213.4,296.6,205.3z"/>
	<path class="st0" d="M339.2,182.7c1.7,1.4,4.3,3.6,4.3,6c0,1.3,0.1,2.7,0.1,4c0.1,1.1,1.1,4.3,1.6,5.9c0.5,1.7,1.7,4.8,2.7,6.8
		c0.3,0.5,0.6,1,0.9,1.4c1.1,1.7,0.6,1,0.6,1c1.3,2.2-1.2,4.9-2.7,6.3c-1.5-2.5-3-4.9-4.5-7.4c-2.5,1.5-4.9,3-7.4,4.5
		c1.5,2.5,3,4.9,4.5,7.4c-1.8,0.6-4.8,1.2-6.1-0.9c-0.6-0.9-1.2-1.8-1.7-2.7c-0.5-0.7-1-1.4-1.5-2.1c-0.1-0.1-0.1-0.2-0.2-0.3
		c-1-1.5-2.9-4.7-4.4-9.5c-0.7-2.1-1.3-7-1.8-9.5c-0.1-2.1,0.2-5.3,0.2-5.3c0.9-5.1,4.4-4.1,6.3-5.6c0.1-0.1,0.2-0.1,0.2-0.2
		c0.1,3.1,0.2,6.2,0.3,9.3c2.9,0,5.8-0.1,8.6-0.1c-0.1-3-0.2-6.1-0.3-9.1C339.1,182.6,339.1,182.7,339.2,182.7z"/>
	<path class="st0" d="M328.3,214.4c1.4,2.1-1.2,5-2.6,6.4c-1.6-2.4-3.1-4.9-4.7-7.3c-2.4,1.5-4.9,3.1-7.3,4.6
		c1.5,2.4,3.1,4.9,4.6,7.3c-1.8,0.6-4.8,1.3-6.1-0.8c-0.6-0.9-1.2-1.8-1.8-2.7c-0.5-0.7-1-1.4-1.5-2.1c-0.1-0.1-0.1-0.2-0.2-0.3
		c-1.1-1.5-3-4.7-4.5-9.4c-0.7-2.1-1.5-7-2-9.5c-0.1-2.1,0.1-5.3,0.1-5.3c0.8-5.1,4.3-4.2,6.2-5.7c0.1-0.1,0.2-0.1,0.2-0.2
		c0.2,3.1,0.3,6.2,0.5,9.3c2.9-0.1,5.8-0.2,8.6-0.3c-0.2-3-0.3-6.1-0.5-9.1c0.1,0.1,0.2,0.1,0.3,0.2c1.8,1.3,4.4,3.5,4.5,5.9
		c0.1,1.3,0.1,2.7,0.2,4c0.1,1.1,1.2,4.3,1.7,5.8c0.6,1.7,1.8,4.8,2.8,6.7c0.3,0.5,0.6,0.9,0.9,1.4
		C328.8,215.2,328.3,214.4,328.3,214.4z"/>
	<path class="st0" d="M337.1,247.4c0,15.2-12.5,28.5-27.6,30.9c0,3.9,0,7.9,0,11.8c-2.9,0-5.8-0.1-8.6-0.1
		c-0.1-4.1-0.3-8.3-0.4-12.4c-15.1-2.3-26.6-14.9-26.7-30.1c0-8.8,3.9-16.7,10-22.3c-12.6,7.2-21,20.3-20.9,35.4
		c0,22.7,19.1,41,42.7,41c23.5,0,42.5-18.4,42.5-41.1c0-15.1-8.5-28.2-21.1-35.3C333.2,230.7,337.1,238.6,337.1,247.4z"/>
	<path class="st0" d="M312.9,226.9c4.3,1.9,7.1,5.5,7.2,9.5c0,5-3.8,9.2-9.7,10.7c0,4.3,0.1,8.5,0.1,12.8c-2.9,0-5.8-0.1-8.6-0.1
		c0-4.2-0.1-8.4-0.1-12.6c-5.9-1.4-10.9-5.7-10.9-10.6c0-4.1,2.8-7.6,7-9.6c-12.5,2.6-21.7,11.4-21.6,21.8
		c0.1,12.4,13.3,22.3,29.4,22.2c16.2-0.1,29.2-10.2,29.2-22.6C334.8,238,325.5,229.4,312.9,226.9z"/>
	<path class="st0" d="M105.5,344.1c26.1-2.3,33,17.1,36.4,32.9c0,0.1,0.1,0.3,0.1,0.4c-6.6,1.2-13.2,2.5-19.9,3.7
		c0.6,2.8,1.2,5.6,1.7,8.5c6.5-1.2,13.1-2.4,19.6-3.7c0.8,8.2-4.2,14.5-4.2,14.5s-1.4,6.6,0.3,15.6c1.9,9.9-4,12.3-12.4,3.6
		c-8.5-8.7-30.3-29.7-34.6-36.6c-20.1-24.2-4.6-33.9,3-36.9c-0.1-0.8-0.2-1.6-0.3-2.4c0-2,1.3-2.8,3-3.1l0,0
		c3.9-7.3,7.8-14.7,11.8-22c0.8-1.2,2.6-1.4,4.2-0.4c0.5,0.3,0.9,0.7,1.2,1.1c6.7-2.2,13.5-4.5,20.2-6.7c1.4-0.4,2.8,0.4,3.2,1.8
		c0.2,0.6,0.1,1.1-0.1,1.7c5.3,3.5,10.6,6.9,16,10.4c0.9,0.7,1,2.2,0.2,3.3c-0.8,1.1-2.3,1.5-3.2,0.8c-5.2-4.3-10.4-8.5-15.6-12.8
		c-6.8,1.6-13.7,3.2-20.5,4.8c-4.3,6.1-8.6,12.3-12.9,18.4c1.3,0.4,2.1,1.3,2.1,3c0,0.1,0,0.2,0,0.3
		C104.9,344.2,105.2,344.1,105.5,344.1z"/>
	<path class="st0" d="M133.2,540.1L133.2,540.1c0.3-2.9,0.7-5.7,1-8.6c-17.2-2-34.3-3.9-51.5-5.9c11-7.6,29.2-16.6,51-11.7
		c5.4-2.8,44.3,8.9,53.8,22.2c9.5,13.4,12.6,11.6,12.5,20.5c2.9,0.3,10.2-0.1,9.2,8.7c3.5-2.8,9.1,1.5,9.1,1.5
		c-0.4-6.3,4.8-24.4,19.1-36.1c0.1-0.1,0.2-0.1,0.2-0.2c0.1,3.3,0.3,6.7,0.4,10c2.9-0.1,5.8-0.2,8.6-0.3c-0.2-4-0.3-7.9-0.5-11.9
		c0.1-0.1,0.2-0.1,0.2-0.2c3.3-3,10.3-7.3,15.9-8.6c-0.6,3.6-1.2,7.1-1.8,10.7c2.8,0.5,5.7,1,8.5,1.6c0.9-4,1.8-8,2.8-12
		c2.3,0,13.2,0.9,22.3,1.5l0,0c-1.3,2.9-2.6,5.9-3.9,8.8c2.6,1.3,5.2,2.5,7.8,3.8c1.6-3.1,3.2-6.1,4.8-9.2l0,0
		c1,0.2,12.2,3.3,19.3,6.2c0.2,0.1,0.4,0.1,0.5,0.2c-2,2.7-3.9,5.3-5.9,8c2.3,1.7,4.6,3.4,7,5.1c2-2.4,3.9-4.8,5.9-7.2
		c0.2,0.1,0.4,0.1,0.6,0.2c2.4,0.9,8.4,4.2,15.8,9.2c0,0,0.1,0,0.1,0.1c-2.7,2.5-5.4,5-8.1,7.6c1.9,2.1,3.9,4.2,5.8,6.4
		c2.8-2.6,5.5-5.1,8.3-7.7c0,0,0.1,0,0.1,0.1c3.1,2.1,7.3,7.5,10.8,11.1c-3.2,2.3-6.4,4.6-9.6,6.9c1.7,2.3,3.4,4.7,5,7
		c3.3-2.1,6.5-4.1,9.8-6.2c2.3,2.1,4.7,6.3,7.5,10.2l0.1,0.1c-3,1.7-6,3.5-8.9,5.2c1.6,2.4,3.2,4.8,4.8,7.2c3-1.6,6.1-3.3,9.1-4.9
		l0.1,0.1c5.1,7.5,11.2,26.8,7.3,30.4c-12.3,11.2-61.5,0.7-70.4-7.5c2.5-1.7,39,8.7,40.6,0.7c2.9-14.4-24.1-44.8-46.4-56.6
		c-33.5-17.8-60-14.5-67.3,2c-3.7,8.4,9.1,30.1,20.3,40c-17.5-6.1-26.2-22.4-26.2-22.4c-1.7,1-3.4,2-5.1,3c0,0,4.3,10.7,4.5,16.2
		c-0.2,0.2-0.4,0.3-0.6,0.5c-22.2-2.5-44.4-5.1-66.6-7.6c-0.3,2.9-0.7,5.7-1,8.6c19.1,2.2,38.1,4.4,57.2,6.5
		c-0.2,0.1-0.4,0.2-0.6,0.2c-5.3,2.1-13,6.2-24.2,5c-23.4-2.7-20.4,0.2-27.9-0.2c-7.6-0.4-17.7-4.1-17.7-4.1s-3.2,9.8-22.8,2.9
		c-19.5-6.9-53.7-26.9-57.5-30.3c-3.8,7.2-20.6,13.4-29.1,22c-5.4,5.4-19.3,2.1-20-2.7c-1.5-10-1.5-5.3-1.2-13.5c0-0.1,0-0.3,0-0.4
		c6.6,0.8,13.2,1.5,19.8,2.3c0.3-2.9,0.7-5.7,1-8.6c-6.7-0.8-13.4-1.5-20.1-2.3c0-0.1,0-0.3,0.1-0.4c2.5-17.3,11.5-37,40.3-33.7
		c0,0,2.2-4.8,4.3-4.6c0.2-0.3,0.7-0.9,1.3-1.5C93,535.5,113.1,537.8,133.2,540.1z"/>
	<path class="st0" d="M249.9,558.7c-2.9,5.9-3.9,10.6,0.2,15.8l0.1,0.1c3.5-3.4,6.9-6.8,10.4-10.2c2,2.1,3.9,4.2,5.9,6.3
		c-3.1,3.4-6.1,6.7-9.2,10.1l0.1,0.1c3.6,2.4,7,4.4,13.3,7.6h0.1c2.8-5.8,5.7-11.6,8.5-17.4c2.6,1.3,5.2,2.5,7.8,3.8
		c-2.8,5.8-5.7,11.6-8.5,17.4h0.1c6.1,2.9,10.9,5.4,14.9,6.8c0.8-4.7,1.5-9.4,2.3-14c2.8,0.5,5.7,1.1,8.5,1.6
		c-0.6,4.9-1.2,9.9-1.7,14.8c7,0.3,10-4.6,13-10.7c5.3-10.9-3.2-30.8-21.3-39.6C276.1,542.3,255.2,547.8,249.9,558.7z"/>
	<path class="st0" d="M260.2,379.5c-0.5,6-2.8,11.1-6,13.7l-0.1,0.1c-0.3,3.9-0.6,7.8-0.9,11.6c-2.9-0.2-5.7-0.4-8.6-0.6
		c0.3-3.9,0.6-7.8,0.9-11.6l-0.1-0.1c-2.7-3-5.2-8.5-4.7-14.5c0.2-3.1,1-6,2.1-8.4c-4.4,4.2-10.3,11.5-10.9,20.2
		c-1,13.8,7.5,25.7,15.8,26.4c8.3,0.6,18.5-9.9,19.6-23.7c0.7-8.7-4-16.8-7.8-21.6C260.1,373.4,260.4,376.3,260.2,379.5z"/>
	<path class="st0" d="M248.6,420.2c-10.5-0.8-18.4-11.8-19.2-25.2c0-0.1,0-0.3,0-0.4c-4-0.3-8-0.6-12.1-0.9c0.2-2.9,0.4-5.7,0.7-8.6
		c4,0.3,8,0.6,12.1,0.9c0-0.1,0.1-0.2,0.1-0.4c2.7-13.1,12.2-22.4,22.7-21.7c7.2,0.5,13.2,5.8,16.5,13.3
		c-4-14.4-14.7-25.1-28.1-26.1c-18-1.4-34,15.5-35.7,37.5c-1.7,22.1,11.6,41.1,29.6,42.5c13.3,1,25.6-8,31.7-21.6
		C262.5,416.5,255.8,420.7,248.6,420.2z"/>
	<path class="st0" d="M119.3,451.6c-22-14.1-37.1,0-47.5,12.4c-0.1,0.1-0.2,0.2-0.3,0.3c5.3,4.1,10.6,8.3,15.9,12.4
		c-1.8,2.2-3.6,4.5-5.4,6.7c-5.2-4.1-10.5-8.2-15.7-12.3c-4.5,6.9-2.9,14.8-2.9,14.8s-1.8,6.5-7.5,13.7c-6.2,8-2.2,12.8,9.4,9
		c11.5-3.8,40.6-12.4,47.6-16.6c29-12.2,19.7-27.9,14.3-34.1c0.5-0.7,0.9-1.3,1.4-2c0.9-1.8,0.2-3.1-1.3-4.1l0,0
		c-0.1-8.3-0.2-16.6-0.3-25c-0.1-1.4-1.7-2.5-3.6-2.3c-0.6,0-1.1,0.2-1.6,0.4c-4.9-5.1-9.9-10.2-14.8-15.2c-1-1-2.7-0.9-3.6,0.1
		c-0.4,0.4-0.6,1-0.7,1.5c-6.3,0.6-12.6,1.3-19,1.9c-1.2,0.2-1.9,1.5-1.7,2.9c0.2,1.4,1.3,2.4,2.5,2.2c6.6-1.4,13.1-2.8,19.7-4.2
		c5.3,4.6,10.7,9.1,16,13.7c1,7.4,2,14.8,3,22.3c-1.3-0.2-2.5,0.2-3.2,1.7c0,0.1-0.1,0.2-0.1,0.2C119.7,452,119.5,451.8,119.3,451.6
		z"/>
	<line class="st0" x1="116.1" y1="211.7" x2="116.8" y2="212.7"/>
	<path class="st0" d="M112.7,192.4L112.7,192.4c0-0.1,0-0.1,0-0.2c0-0.1,0-0.2,0.1-0.3c0.1-0.2,0.1-0.4,0.2-0.6
		c0.1-0.2,0.2-0.5,0.3-0.7c0.1-0.3,0.2-0.5,0.4-0.8c0.3-0.5,0.6-1.1,0.9-1.6c0.2-0.3,0.3-0.5,0.5-0.8c0.2-0.2,0.4-0.5,0.6-0.7
		s0.4-0.4,0.6-0.6c0.2-0.2,0.4-0.3,0.6-0.5c0.9-0.7,1.9-1.5,2.8-2.2c0.1,2,0.2,3.9,0.3,5.9c0.1,3.4,0.2,6.8,0.3,10.1
		c0,1.7,0.1,3.5,0.1,5.2c0,1,0,1.9,0,2.9c0,1.1,0,2.3,0,3.4c0,2-0.1,4-0.1,6c-1.3-1.8-2.6-3.7-4-5.5c-0.2-0.3-0.4-0.6-0.6-0.9
		c-0.2-0.3-0.4-0.5-0.5-0.8c-0.2-0.3-0.3-0.6-0.5-0.9c-0.2-0.3-0.3-0.7-0.4-1c-0.2-0.4-0.3-0.8-0.4-1.2c-0.3-0.9-0.5-1.9-0.6-2.8
		c-0.1-0.7-0.2-1.5-0.3-2.2c-0.1-0.9-0.1-1.8-0.1-2.6c0-1,0-2.1,0-3.1C112.6,194.9,112.7,193.7,112.7,192.4z"/>
	<path class="st0" d="M127.4,34.8c0,0-1.2,48-1.2,85.6c0,16.1,0.2,30.3,0.9,38.1c-0.6,9.9-2.3,27.8-2.3,47.8
		c0,25.1,2.5,53.4,13.2,73.5c0,0.1,0.1,0.1,0.1,0.2l0.1,0.1c3.3,3.8,9.3,11,19.4,11.1c4.9,0,10.5-1.7,16.9-6.1l0,0c0,0,0,0,0.1,0
		c14.6-11.5,32-21.3,41.4-61.4c0-0.1,0-0.2,0.1-0.3c0-0.1,0-0.2,0-0.3c-0.7-6.6-2.8-14.7-5.6-21.6c-1.4-3.4-2.9-6.5-4.6-9
		c-1.4-2.1-2.9-3.8-4.7-4.8c-1.4-8-4.5-12.4-5.7-15.7c-0.8-4.1-4.9-19.2-10.3-35.2c-5.5-16.2-12.3-33.2-18.9-40.9
		c-2.1-2.9-4.4-6.2-6.1-9.4c-1.8-3.1-2.9-6.2-2.9-8.1c0.1-1.6,0.4-2.4,2-3.2c0.4-0.2,0.8-0.4,1.2-0.6c-0.1-0.4-0.1-0.9-0.2-1.3
		c-1.4-8.2-7-16.9-11.5-24.5c-1.6-3.3-2.4-7.9-2.9-11.5c-0.2-1.8-0.3-3.5-0.4-4.6c0-0.6,0-1.1,0-1.4c0.1-1.3,0.1-2.5-0.1-3.7
		c-0.5-2.8,2.2-8.8-1.6-10.4l-3.1,0c0,2.3,0,13.8,0,13.8h-8.6c0,0,0-11.6,0-14h-2.6c-3.5,1.1-2,5.4-2.4,7.2
		C126.9,25.6,127.5,30.8,127.4,34.8C127.5,34.8,127.5,34.8,127.4,34.8z"/>
	<path class="st0" d="M120.5,35.4c0,0,1.2,48,1.2,85.6c0,16.1-0.2,30.3-0.9,38.1c0.6,9.9,2.3,27.8,2.3,47.8
		c0,25.1-2.5,53.4-13.2,73.5c0,0.1-0.1,0.1-0.1,0.2l-0.1,0.1c-3.3,3.8-9.3,11-19.4,11.1c-4.9,0-10.5-1.7-16.9-6.1l0,0c0,0,0,0-0.1,0
		c-14.6-11.5-32-21.3-41.4-61.4c0-0.1,0-0.2-0.1-0.3c0-0.1,0-0.2,0-0.3c0.7-6.6,2.8-14.7,5.6-21.6c1.4-3.4,2.9-6.5,4.6-9
		c1.4-2.1,2.9-3.8,4.7-4.8c1.4-8,4.5-12.4,5.7-15.7c0.8-4.1,4.9-19.2,10.3-35.2C68.2,121,74.9,104,81.5,96.3
		c2.1-2.9,4.4-6.2,6.1-9.4c1.8-3.1,2.9-6.2,2.9-8.1c-0.1-1.6-0.4-2.4-2-3.2c-0.4-0.2-0.8-0.4-1.2-0.6c0.1-0.4,0.1-0.9,0.2-1.3
		c1.4-8.2,7-16.9,11.5-24.5c1.6-3.3,2.4-7.9,2.9-11.5c0.2-1.8,0.3-3.5,0.4-4.6c0-0.6,0-1.1,0-1.4c-0.1-1.3-0.1-2.5,0.1-3.7
		c0.5-2.8,0.3-8.5,4.1-10.1c0.2-0.1,0.4-0.2,0.6-0.3c0,2.3,0,11.7,0,13.9c2.9,0,5.8,0,8.6,0c0-2.3,0-11.7,0-14.1
		c0.1,0,0.2,0.1,0.3,0.1c3.5,1.1,3.6,5.6,4,7.4C120.4,26.4,120.4,31.3,120.5,35.4C120.4,35.4,120.5,35.4,120.5,35.4z"/>
	<path class="st0" d="M224.5,50.1c0-0.7,0.1-0.4,0.1-0.4c0.9-7.4,5.4-13.8,12.7-17.3c0.1-0.1,0.3-0.1,0.4-0.2c2,2.2,6.1,7.1,8.1,9.3
		c2.2-1.9,4.3-3.8,6.5-5.7c-1.2-1.3-4.5-5.3-5.6-6.6c0.2,0,0.3-0.1,0.5-0.1c1.3-0.3,2.6-0.6,3.9-0.8c5-2.9,16.3-10.7,34.3-10.1
		c0.1,0,0.3,0,0.4,0c0,2.6,0,8.2,0,10.8c2.9,0,5.8,0,8.6,0c0-2.3,0-7.5,0-9.8c0.1,0,0.3,0.1,0.4,0.1c6.1,1.1,12.9,3.2,20.2,6.7
		c0.1,0.1,0.3,0.1,0.4,0.2c-1.5,2.1-3,4.1-4.5,6.2c2.3,1.7,4.7,3.4,7,5.1c1.8-2.4,3.5-4.8,5.3-7.2c0.1,0.1,0.2,0.1,0.4,0.2
		c0.2,0.1,0.5,0.3,0.7,0.4c0,0,7.2-9.5,17.8,0c4.9-4.2,15.4,0,18.4,17c0,0,0.8,5.4-0.1,11.9c-2.1,16.9-13.5,20.8-18.3,16.7
		c-10.6,9.5-17.8,0-17.8,0c-0.5,0.4-0.9,0.8-1.4,1.2c-0.1,0.1-0.2,0.2-0.3,0.3c-1.6-2.1-3.1-4.3-4.7-6.4c-2.3,1.7-4.7,3.4-7,5.1
		c1.5,2.1,3,4.2,4.6,6.3c-0.1,0.1-0.2,0.1-0.4,0.2c-6.8,4-13.7,6.2-20.3,7.1c-0.1,0-0.3,0-0.4,0.1c0-2.5,0-7.9,0-10.4
		c-2.9,0-5.8,0-8.6,0c0,2.6,0,8.3,0,10.9c-0.1,0-0.3,0-0.4,0c-14.5-0.3-26.3-5.6-30.6-8.1c-2.8-0.5-5.5-1.1-8.2-2.1
		c-0.1-0.1-0.3-0.1-0.4-0.2c1.4-1.6,4.9-6.1,6.3-7.7c-2.2-1.9-4.3-3.8-6.5-5.7c-1.9,2.2-6,7.3-7.9,9.5c-0.1-0.1-0.2-0.2-0.4-0.2
		c-7-4.4-11.9-10.4-12.9-16.8c0-0.2,0-0.3-0.1-0.5c24.3,0,48.5,0,72.8,0c0-2.9,0-5.8,0-8.6c-24.3,0-48.6,0-72.9,0
		C224.5,50.2,224.5,50.2,224.5,50.1z"/>
	<path class="st0" d="M299.7,146.2c-5.2,21.6-18.4,39.6-27.9,48.8c-0.1,0.1-0.1,0.1-0.2,0.2c0.3-17.8,0.6-35.6,0.8-53.4
		c-2.9,0-5.8-0.1-8.6-0.1c-0.3,17.8-0.6,35.6-0.8,53.4c-0.1-0.1-0.1-0.1-0.2-0.2c-6.8-7.1-20.5-27-25.8-49.7c0-0.1,0-0.1,0-0.2
		c2.9-0.8,5.8-1.5,8.7-2.3c-0.7-2.8-1.5-5.6-2.2-8.4c-2.7,0.7-5.3,1.4-8,2.1c0-0.1,0-0.1,0-0.2c-0.4-3.1-0.7-6.7-0.6-9.8
		c0-2.3,0.3-4.6,0.7-6.9v-0.1c3,0.8,6,1.5,9.1,2.3c0.6-2.8,1.1-5.6,1.7-8.5c-2.8-0.7-5.6-1.4-8.4-2.1c0,0,0,0,0-0.1
		c5.3-11.1,16.6-19.9,31.1-19.7c14.6,0.2,25.2,9.4,30.1,20.7c0,0,0,0,0,0.1c-2.9,0.6-5.7,1.3-8.6,1.9c0.6,2.8,1.2,5.6,1.9,8.4
		c3.1-0.7,6.1-1.4,9.2-2c0,0,0,0,0,0.1c0.4,2.3,0.5,4.6,0.5,6.9c0,3.1-0.3,7-0.7,10c0,0,0,0,0,0.1c-2.6-0.8-5.2-1.5-7.8-2.3
		c-0.9,2.7-1.8,5.5-2.7,8.2C293.8,144.4,296.8,145.3,299.7,146.2L299.7,146.2z"/>
	<path class="st0" d="M371.2,390.4c-0.6-0.4-1.2-0.7-1.8-0.8c-0.2-0.1-0.4-0.3-0.5-0.4c-3.5-2.2-8.5-1.9-9.8-1.7
		c-2.5,0.5-3.2,0.2-3.4-0.1c-2.9-2.4-5.9-3.3-8-3.7c-0.8-0.1-1.5-0.3-1.6-0.8c0-0.4,0.2-1.1-0.7-1.5c-3.6-1-6.7-0.7-8.8-0.1
		c-0.7,0.2-1-0.2-1.1-0.5s0.1-0.7-0.9-1.2c-3.7-0.7-6.7-0.1-8.8,0.6c-1.3,0.4-1.9,0.6-2.2,0.2c-0.3-0.3-0.2-1.1-1.3-1.5
		c-3.7-0.3-6.7,0.5-8.7,1.4c-0.1,0.1-0.3,0.1-0.4,0.2c-0.1-0.3-0.5-0.6-1.3-1c-8.2-3.5-15-6-19.8-6.9c-3-0.5-3.5-0.7-3.8-1
		c-1.5-1.9-0.9-3.5-0.3-5.1c0.1-0.7,0.1-1.2-0.2-1c0,0,0,0,0-0.1c0.3-2.1-6.4-9.8-7.8-10.8s-29.7-39.3-33.1-44
		c-3-4.2-7.6-7.8-11.9-7.3c-1-2.5-5.7-3.3-5.7-3.3c-3.1-0.3-6,0-9.8,6c-3.8,6.1-15.7,25-18,30c-1.5,3.2-9.1,15.3-14.5,24.4
		c-9.4,1.5-22,6-22.4,6.8c0,0,0.3,3.5,0.2,5c4-0.6,7.9-1.2,11.9-1.8c0.4,2.8,0.9,5.7,1.3,8.5c-4.1,0.6-8.2,1.2-12.3,1.9
		c0.6,1.3,1.6,3.2,2.8,3.3c5.1,0.7,15.3-3.7,19.7-3.3c2.2,0.2,9.8,0.2,12.1-2.9c0,0,0.1-1.6-0.1-3.8c2.5-4.5,4.8-10.2,7-12.3
		c3.2-3.1,8.4-17.9,10.3-24.5c1.9-6.6,7.7-19.7,11.1-23.3c0.9-1,1.7-1.9,2.4-2.7c0.7,0.7,1.7,0.9,3,0.4c1.8-0.7,4.1-2.3,6.7,2.3
		c2.6,4.6,16.2,27.7,19.1,31.7s17.3,30.6,20.7,31.9c3.3,1.3,2.9-0.7,4.2-2.7c0,0,0.1-0.1,0.1-0.2c1.3,0.6,3,1.2,5,2.3
		c4.2,2.3,12.3,5.2,19.6,8.1c2.6,0.5,2.1-0.4,2-0.8c-0.1-0.7,0.9-0.3,2,0.1c2,0.7,5.6,1.1,8.9,0.6c1.1-0.4,1-0.6,1-0.8
		c-0.1-0.5,0.4-0.8,2-0.1c1.9,0.9,5.5,1.6,8.8,1.5c0.7-0.2,0.7-0.4,0.9-0.5c0.2-0.1,0.5-0.2,0.8,0c1.9,1,5.3,2.1,8.6,2.2
		c0.5-0.1,1.1,0.3,1.8,0.9c1.4,1.1,3.2,2.7,6.2,4.1c0.5,0.1,0.8,0,1-0.3c0.5,0,0.9-0.1,1.2-0.3c1.5-2,3-1.7,5.4-1.6s3.3-0.3,6.5,0.8
		c3.2,1.1,2.6,3.6,2.9,4.1s1,0.7,1,0.9c-0.1,0.9-0.7,1.5-1.4,2c0.9,0.1,2.1-0.5,2.2-1c0.3-0.1,0.4-0.4,0.5-0.7l0,0
		c0.3,0.5,1,0.7,1,0.9c-0.1,0.9-0.7,1.5-1.4,2c0.9,0.1,2.1-0.5,2.2-1c0.4-0.1,0.6-0.7,0.7-1.4C374.6,392.7,372.5,391.2,371.2,390.4z
		"/>
	<path class="st0" d="M139,157.7v0.1v0.1c-0.2,1.1-1.5,2.9-2.9,4.3c1-12.1,1.2-26.3,1.2-38.6c0-11-0.2-20.5-0.2-25.6v-0.1v-0.1
		c-1.4-10.1-1.6-43.6-1.7-57.4c0.3-0.1,0.7-0.1,1-0.1c0,1.3,0,2.9,0,4.7c0,9.8,0.4,24.6,3,32.2c1.7,5,5.1,18.2,8.1,31.8
		c2.7,12.6,5.1,25.6,5.4,32.5c0-0.1-0.1-0.1-0.1-0.2C143.3,146.4,140.6,153.1,139,157.7z"/>
	<path class="st0" d="M156,182.9c-1.9-1.3-4.4-3-5.8-3.9c-0.1-1.1-0.6-2.5-2-4c-1.5-1.6-3.9-3.3-8-5.3c-0.2-0.1-0.3-0.1-0.4-0.2
		c-0.1,0-0.3,0-0.4,0c-1.1,0-2.2-0.3-3.5-0.3c-0.1,0-0.2,0-0.3,0c0.1-0.6,0.1-1.3,0.2-2c0.7-0.5,1.5-1.1,2.3-1.9
		c1.7-1.7,3.7-3.8,4.4-6.4c1.4-4.1,3.2-9,10.4-13.5v0.1c0.1,0.1,0.1,0.3,0.2,0.4c1.9,4.2,2.8,7.4,4.3,10.4c1.4,2.9,3.4,5.5,6.9,8.2
		v0.1c0,0.6-0.2,1.7-0.2,3c0,2,0.5,4.6,2.7,7.6c0.9,1.1,1.9,2.3,3.3,3.6c-1.7,0.6-3.7,1.3-5.1,1.9c-2.9,0.5-9.2,2.1-9.2,2.2l0,0
		C155.7,182.9,155.7,182.9,156,182.9z"/>
	<path class="st0" d="M150.9,183.7c1,0.6,2,1.3,2.8,1.9c0.7,0.6,1.4,1.1,1.5,1.2l0,0c0.2,0.3,1.1,2.1,2,4.1s1.9,4.5,2.7,6.7
		c0.9,2.4,2.2,6.5,3.5,10.5c-2.1,0.1-4.7,0.7-7.1,1.2c-1.1,0.2-2.2,0.5-3,0.7c-2.3-9.6-6.1-17.8-10-23.6c1.7-1.5,3.3-3,4.9-4.5
		C148.9,182.4,149.9,183,150.9,183.7z"/>
	<path class="st0" d="M131.2,160.1V160v-0.1c-0.7-7.5-0.9-21.8-0.9-37.9c0-18.7,0.3-40.1,0.6-56.8c0.2-10.8-0.3-18.6,0.2-22.3
		s0.8-2.2,0.8-2.2c0,13.9,0.3,46.8,1.7,57.5c0,5.2,0.2,14.6,0.2,25.4c0,11.9-0.2,25.6-1.1,37.3c-0.4,5.8-1,11.1-1.8,15.5
		c-0.3,1.9-0.8,3.7-1.2,5.2C130.2,172.8,130.9,165.3,131.2,160.1z"/>
	<path class="st0" d="M133.4,181.6c0.4-1.4,0.7-2.9,1-4.5c0.2-1.5,0.5-3.1,0.7-4.8c0.1,0.1,0.2,0.2,0.3,0.3l-0.1-0.1
		c0.1,0,0.1,0.1,0.1,0.1l0,0c0.1,0,0.2,0,0.3,0c0.6,0,1.7,0.2,3.1,0.3c3.6,1.8,5.6,3.3,6.6,4.4c0.8,0.9,1,1.4,1,1.7
		c-1.8,1.6-3.6,3.3-5.4,5C138.2,182.7,135.5,181.8,133.4,181.6z"/>
	<path class="st0" d="M138.8,193.8c0-1.6-2.1-6.4-5.1-8.7c1.6,0.3,3.8,1,5.9,2c4.1,5.7,8.5,14.7,10.8,25.3c0.1,2.3,0.2,4.6,0.2,6.8
		c0,4.5-0.2,8.9-0.6,12.9c-1.8-1.1-4.7-3.1-7.5-5.7c-3.5-3.2-6.7-7.4-7.5-11.6C137.2,211.8,139.7,208.5,138.8,193.8z"/>
	<path class="st0" d="M164.2,211.6c0.2,0,0.3,0,0.4,0c0.7,1.9,1.3,3.6,1.9,5.1c-0.1,1.3-0.1,2.6-0.1,3.9c0,11.3,2.5,20.3,3.9,30.2
		c-2.8-0.7-7.4-1.9-10.1-2.3c-1.9-1-4.3-1.4-6.4-1.7c-0.9-0.2-1.8-0.3-2.5-0.3c1.5-7.6,2.7-16.8,2.7-27.3c0-1.8,0-3.8-0.1-5.7
		c0.8-0.2,2-0.5,3.3-0.8C159.7,212.1,162.7,211.5,164.2,211.6z"/>
	<path class="st0" d="M129.4,223.2c0.6-1.1,1.5-2.9,3.1-4.9c1.8,5,5.7,9,9.3,12.1c3.3,2.8,6.4,4.7,7.8,5.5
		c-1.9,15.4-6,26.3-8.3,30.9c-1.3,2.5-2,4.7-2.5,6.6C132.8,259,130.2,241,129.4,223.2z"/>
	<path class="st0" d="M173.3,283.8c-6,4.1-10.9,5.5-14.9,5.5c-8.2,0.1-13.4-5.8-16.7-9.7c0-0.2-0.1-0.3-0.2-0.5
		c0-1.2,0.2-5.3,2.9-10.8c1.6-3.4,4.2-9.7,6.2-18.4c0.6,0.1,1.7,0.2,2.8,0.3c2,0.2,4.3,0.8,5.4,1.4c0.1,0.1,0.2,0.1,0.3,0.2
		c0.2,0,0.3,0,0.4,0c1.6,0.2,4.8,0.9,7.5,1.6c1.5,0.4,2.9,0.7,3.8,1c1.7,13.4,6.2,22.5,7.7,25.3C176.7,281,175,282.4,173.3,283.8z"
		/>
	<path class="st0" d="M181.2,277.6c-1.6-3.1-5.7-12-7.2-24.7c-1.4-11.3-4.2-20.7-4.2-32.3c0-1,0.1-2.1,0.1-3.1
		c0.5-0.2,1.2-0.3,2.2-0.3c1.2,0,2.9,0.2,4.9,1.1c0,0.1,0.1,0.1,0.1,0.1h0.1c5.5,1.5,12.2,3.6,14.3,4.3c0.5,1,1.1,2,1.7,3.1
		c4.4,7.5,11.9,16.8,13.7,18.9C199.7,262.1,190.5,270.3,181.2,277.6z"/>
	<path class="st0" d="M201.2,192.8c0.8,0.7,1.7,1.7,2.6,3.1c4.5,6.5,8.6,19.5,9.6,28.8c-1.5,6.2-3.2,11.6-5,16.4
		c-0.2-0.4-0.6-0.8-0.9-1.2c-2.3-2.8-5.7-7.3-8.6-11.6c-3-4.3-5.3-8.7-5.5-10.7c-0.6-4.6-1.8-9.4-1.8-15.3c0-3.2,0.3-6.8,1.4-10.8
		c2.4,0.9,4.6,1.5,6.4,1.5C200,193,200.5,193,201.2,192.8z"/>
	<path class="st0" d="M188.3,202.1c0,6.4,1.3,11.5,1.8,15.7c0,0.2,0.1,0.4,0.1,0.6c-3-1-7.7-2.4-11.8-3.5c-2.4-1-4.5-1.4-6.2-1.4
		c-1.2,0-2.1,0.2-2.9,0.4c-2-5.2-4.4-13.5-6-17.7c-0.9-2.3-1.9-4.9-2.9-7.1c-0.5-1.1-1-2.1-1.4-2.9c-0.2-0.3-0.3-0.5-0.4-0.7
		c0.5-0.1,1.1-0.2,1.7-0.4c2-0.5,4.3-1,5.5-1.2c0.1,0,0.1,0,0.2,0c0.1,0,0.1-0.1,0.2-0.1c1.8-0.8,5.3-2,6.9-2.6
		c1.7,1.4,3.8,2.8,6.2,4.4c0,0.1,0.1,0.1,0.1,0.1c0,0.1,0.1,0.1,0.1,0.1c3,1.3,6.7,3.1,10.3,4.5
		C188.6,194.8,188.1,198.8,188.3,202.1z"/>
	<path class="st0" d="M195,179.5c1.2,2.6,2.5,5.6,3.3,10c-1.6-0.3-4.3-1.1-7.2-2.3c-3.5-1.4-7.3-3.1-10.3-4.5
		c-6.2-4-9.6-7.2-11.4-9.6c-1.8-2.5-2.1-4.1-2.1-5.6c0-0.9,0.2-1.9,0.2-3c0-0.4,0-0.9-0.1-1.4c0-0.2-0.1-0.4-0.1-0.6l0,0
		c2.2-0.7,5.7-1.7,8.9-1.7c1,0,1.9,0.1,2.8,0.3c0-0.2,0.1-0.3,0.1-0.4c1.7,3.1,3.8,6.5,6.3,9.4C189,175.2,193.8,178.5,195,179.5z"/>
	<path class="st0" d="M182.7,139.4c5,14.7,8.9,28.9,10,33.8c-1.5-1.4-3.1-3.1-4.5-5.1c-0.1,0-0.1-0.1-0.1-0.1
		c-0.1-0.1-0.1-0.1-0.1-0.1c-4.3-4.9-7.5-11.9-9.2-15.9c0-0.1,0-0.1,0-0.1c0-0.1,0-0.1,0-0.1c-1-1.9-3.4-6.9-5.4-11.4
		c-0.9-2.1-1.8-4.1-2.5-5.6c3.4,0,6.8-0.1,10.2-0.1C181.6,136.2,182.2,137.8,182.7,139.4z"/>
	<path class="st0" d="M166.4,133.2c0,0.1,0,0.2,0.2,0.1c0,0,7.1,15.7,9.3,20c0.4,1.1,1,2.5,1.7,3.9c-0.4,0-0.8,0-1.2,0
		c-5.2,0-10.4,2.1-11.9,2.7c-1.9-1.8-3-3.4-4-5.3c-1.3-2.5-2.3-5.6-4.1-9.8c0.1-0.6,0.1-1.2,0.1-1.9c0-7.1-2.5-21.1-5.5-34.8
		s-6.4-26.9-8.3-32.2c-2.3-6.5-2.8-21.5-2.8-31c0-1.8,0-3.5,0-4.9c0.3,0,0.5-0.1,0.8-0.2c-0.3,1.8-0.3,3.8-0.3,5
		c0,8.1,1.8,18.5,4.2,23.9c0,0.1,0,0.1,0,0.1l0,0c0.6,1.2,2.4,6,4.6,12.3c3.3,9.5,7.6,22.5,11.1,33.2
		C163.7,124.9,166.4,133.2,166.4,133.2C166.4,133.3,166.4,133.3,166.4,133.2z"/>
	<path class="st0" d="M146.4,51.6C146.4,51.7,146.4,51.7,146.4,51.6v0.2c4.3,7.2,9.4,15.3,10.9,22.2c-1.9,1.4-2.9,3.6-2.8,5.7
		c0.1,3.1,1.5,6.4,3.4,9.8c1.9,3.3,4.3,6.7,6.4,9.7c0,0.1,0,0.1,0,0.1c0.1,0.1,0.1,0.1,0.1,0.1c4.9,5.6,10.6,18.4,15.5,31.8
		c-3.4,0.1-6.9,0.1-10.4,0.2c-1-3.2-5.2-16-9.6-29.4c-2.6-7.7-5.2-15.6-7.4-22c-2.2-6.3-3.9-10.9-4.8-12.7
		c-2.1-4.6-4.3-15.6-4.3-23.1c0-1.1,0-2,0.1-2.9C144,44.7,144.8,48.5,146.4,51.6z"/>
	<path class="st0" d="M135.9,197.4c0,1,0,2.1,0,3.1c0,0.8,0,1.7-0.1,2.6c-0.1,0.7-0.2,1.5-0.3,2.2c-0.1,0.9-0.3,1.9-0.6,2.8
		c-0.1,0.4-0.2,0.8-0.4,1.2c-0.1,0.3-0.2,0.7-0.4,1c-0.2,0.3-0.3,0.6-0.5,0.9c-0.1,0.3-0.3,0.5-0.5,0.8c-0.2,0.3-0.4,0.6-0.6,0.9
		c-1.4,1.8-2.7,3.7-4,5.5c0-2-0.1-4-0.1-6c0-1.1,0-2.3,0-3.4c0-1,0-1.9,0-2.9c0-1.7,0.1-3.5,0.1-5.2c0.1-3.3,0.2-6.7,0.3-10.1
		c0.1-2,0.2-3.9,0.3-5.9c0.9,0.7,1.9,1.5,2.8,2.2c0.2,0.2,0.4,0.3,0.6,0.5c0.2,0.2,0.4,0.4,0.6,0.6s0.4,0.5,0.6,0.7
		c0.2,0.3,0.3,0.5,0.5,0.8c0.3,0.5,0.6,1.1,0.9,1.6c0.2,0.3,0.3,0.5,0.4,0.8c0.1,0.2,0.2,0.5,0.3,0.7c0.1,0.2,0.1,0.4,0.2,0.6
		c0.1,0.1,0.1,0.2,0.1,0.3c0,0.1,0,0.1,0,0.2l0,0C136.1,195.2,136.2,196.4,135.9,197.4z"/>
</g>
<g id="material">
</g>
</svg>
