<svg xmlns="http://www.w3.org/2000/svg" width="1047.58" height="1472.94" viewBox="0 0 1047.58 1472.94"><rect x="0.28" y="0.28" width="732" height="732" fill="none" stroke="#ff2c2c" stroke-miterlimit="10" stroke-width="0.56"/><path d="M632.4,761.4V743.1H629a6.84,6.84,0,0,1-.5,2.7,5.33,5.33,0,0,1-1.3,1.9,4.53,4.53,0,0,1-1.9,1.1,5.38,5.38,0,0,1-2.2.4v3.4a12.31,12.31,0,0,0,2-.2,12.66,12.66,0,0,0,1.8-.6,7.1,7.1,0,0,0,1.4-1,3.92,3.92,0,0,0,.8-1.4v12.1h-3.4v3h10.2v-3h-3.5Z" transform="translate(-609.36 -109.05)" fill="none" stroke="#000" stroke-miterlimit="10" stroke-width="0.56"/><path d="M633.3,681.8H627l6.7-6.4a10.55,10.55,0,0,0,2.2-3,7.14,7.14,0,0,0,.8-3.1,6,6,0,0,0-.6-2.7,5.75,5.75,0,0,0-1.5-1.9,7.76,7.76,0,0,0-2.2-1.2,7.46,7.46,0,0,0-2.6-.4,7.65,7.65,0,0,0-5.6,2,7.77,7.77,0,0,0-1.9,5.6h3.2a5.23,5.23,0,0,1,1.1-3.5,4.22,4.22,0,0,1,3.2-1.2,6.88,6.88,0,0,1,1.3.2,3.7,3.7,0,0,1,1.1.5,3.92,3.92,0,0,1,.8,1,3.19,3.19,0,0,1,.3,1.4,4.49,4.49,0,0,1-.5,1.9,7.33,7.33,0,0,1-1.6,2.1l-8.6,8.2v3.2h13.7v-6h-3.1v3.3Z" transform="translate(-609.36 -109.05)" fill="none" stroke="#000" stroke-miterlimit="10" stroke-width="0.56"/><path d="M636.5,597.7a5.07,5.07,0,0,0-.9-1.6,5.26,5.26,0,0,0-1.4-1.2,5.87,5.87,0,0,0-2-.6,5.84,5.84,0,0,0,1.8-.4,4.49,4.49,0,0,0,1.3-1,6.38,6.38,0,0,0,.8-1.4,4.67,4.67,0,0,0,.3-1.7,6.55,6.55,0,0,0-.5-2.5,5.22,5.22,0,0,0-1.4-1.9,7.19,7.19,0,0,0-2.1-1.2,6.9,6.9,0,0,0-2.5-.4,9.43,9.43,0,0,0-3,.5,5.94,5.94,0,0,0-2.3,1.4,7,7,0,0,0-1.5,2.4,8.19,8.19,0,0,0-.5,3.3h3.2a5.05,5.05,0,0,1,1.1-3.5,4.17,4.17,0,0,1,3.1-1.1,3.2,3.2,0,0,1,2.3.8,3.29,3.29,0,0,1,.8,2.2,2.3,2.3,0,0,1-.4,1.4,3.57,3.57,0,0,1-1.1,1,4.42,4.42,0,0,1-1.6.6,12.31,12.31,0,0,1-2,.2v3a8.53,8.53,0,0,1,4.3.8,2.93,2.93,0,0,1,1.2,2.7,2.9,2.9,0,0,1-1,2.3,3.69,3.69,0,0,1-2.6.8,4.14,4.14,0,0,1-3.1-1.2,5,5,0,0,1-1.4-3.3l-3.2.5a7.94,7.94,0,0,0,.8,3.2,6.2,6.2,0,0,0,1.7,2.2,7.55,7.55,0,0,0,2.3,1.3,9.25,9.25,0,0,0,2.9.4,7.46,7.46,0,0,0,2.6-.4,7.76,7.76,0,0,0,2.2-1.2,5.5,5.5,0,0,0,1.5-1.9,5.42,5.42,0,0,0,.6-2.5A6,6,0,0,0,636.5,597.7Z" transform="translate(-609.36 -109.05)" fill="none" stroke="#000" stroke-miterlimit="10" stroke-width="0.56"/><path d="M637.1,520.1v-3h-3.5V504.5h-4l-7.8,12.6v3.1h8.4v2.6h-3.4v3H637v-3h-3.5v-2.6h3.6Zm-6.8-3.1h-5.4l5.4-8.6Z" transform="translate(-609.36 -109.05)" fill="none" stroke="#000" stroke-miterlimit="10" stroke-width="0.56"/><path d="M636.6,435.9a9.74,9.74,0,0,0-1.5-2.4,7.12,7.12,0,0,0-2.2-1.5,5.75,5.75,0,0,0-2.6-.5,5.29,5.29,0,0,0-4.4,2V428h9.9v-3H622.5v11.7h3.4a3.54,3.54,0,0,1,1.6-1.6,5.37,5.37,0,0,1,2.1-.5,3.7,3.7,0,0,1,2.9,1.2,4.86,4.86,0,0,1,1.1,3.3,5.66,5.66,0,0,1-.3,1.8,4.19,4.19,0,0,1-.9,1.4,5,5,0,0,1-1.4,1,5.23,5.23,0,0,1-1.8.3,3.92,3.92,0,0,1-3-1.1,5.06,5.06,0,0,1-1.2-3l-3.2.5a7.68,7.68,0,0,0,.7,2.8,6.56,6.56,0,0,0,3.9,3.4,8.68,8.68,0,0,0,2.8.5,8,8,0,0,0,3-.6,7.16,7.16,0,0,0,2.5-1.6,8.07,8.07,0,0,0,1.7-2.4,7.17,7.17,0,0,0,.6-2.9A6.83,6.83,0,0,0,636.6,435.9Z" transform="translate(-609.36 -109.05)" fill="none" stroke="#000" stroke-miterlimit="10" stroke-width="0.56"/><path d="M636.7,356.3a8.17,8.17,0,0,0-1.5-2.4,6.91,6.91,0,0,0-2.2-1.6,5.83,5.83,0,0,0-2.6-.6,6,6,0,0,0-3.7,1.1,5.43,5.43,0,0,0-1.9,2.8,9.48,9.48,0,0,1,.4-3,8.81,8.81,0,0,1,1.1-2.4,5.48,5.48,0,0,1,1.8-1.6,4.87,4.87,0,0,1,2.5-.6,6.45,6.45,0,0,1,2,.3,4.25,4.25,0,0,1,1.7,1l1.8-2.5a6.77,6.77,0,0,0-2.5-1.4,10.47,10.47,0,0,0-3-.5,8,8,0,0,0-3.9.9,9.18,9.18,0,0,0-2.8,2.4,10.19,10.19,0,0,0-1.6,3.5,18.59,18.59,0,0,0-.5,4.2,18.4,18.4,0,0,0,.4,4.1,9.77,9.77,0,0,0,1.3,3.5,6.42,6.42,0,0,0,2.5,2.4,7.9,7.9,0,0,0,4,.9,10.47,10.47,0,0,0,3-.5,9.74,9.74,0,0,0,2.4-1.5,7.76,7.76,0,0,0,1.6-2.4,7.94,7.94,0,0,0,.6-3.2C637.3,358.3,637.1,357.2,636.7,356.3Zm-3.9,6.5a4.07,4.07,0,0,1-3,1.2,4.64,4.64,0,0,1-2.1-.4,3.75,3.75,0,0,1-2.2-2.5,5.82,5.82,0,0,1-.3-1.9,4.29,4.29,0,0,1,4.4-4.6,4,4,0,0,1,3.2,1.4,5.33,5.33,0,0,1,1.1,3.4A5.14,5.14,0,0,1,632.8,362.8Z" transform="translate(-609.36 -109.05)" fill="none" stroke="#000" stroke-miterlimit="10" stroke-width="0.56"/><path d="M622.3,265.8v6.6h3v-3.6h8.4a35,35,0,0,0-3.2,4,16.52,16.52,0,0,0-2.1,4.2,34.47,34.47,0,0,0-1.2,4.6,42.6,42.6,0,0,0-.4,5.4h3.4a46.14,46.14,0,0,1,.3-5.6,29.85,29.85,0,0,1,.9-4.5,20.88,20.88,0,0,1,1.9-4,22.8,22.8,0,0,1,3.3-4.1v-3Z" transform="translate(-609.36 -109.05)" fill="none" stroke="#000" stroke-miterlimit="10" stroke-width="0.56"/><path d="M636.9,199.8a5.07,5.07,0,0,0-.9-1.6,8.64,8.64,0,0,0-1.4-1.3,6,6,0,0,0-1.9-.6,3.82,3.82,0,0,0,1.6-.6,4.26,4.26,0,0,0,1.2-1.1,6.38,6.38,0,0,0,.8-1.4,4,4,0,0,0,.3-1.5,4.87,4.87,0,0,0-.6-2.5,6.55,6.55,0,0,0-1.5-1.8,5.7,5.7,0,0,0-2.2-1.1,8.65,8.65,0,0,0-5.2,0,7,7,0,0,0-2.3,1.1,6.55,6.55,0,0,0-1.5,1.8,5.14,5.14,0,0,0-.6,2.5,4,4,0,0,0,.3,1.5,3.92,3.92,0,0,0,.8,1.4,4.26,4.26,0,0,0,1.2,1.1,4.42,4.42,0,0,0,1.6.6,6,6,0,0,0-1.9.6,6.1,6.1,0,0,0-1.5,1.3,5.07,5.07,0,0,0-.9,1.6,5.55,5.55,0,0,0-.3,1.7,5.64,5.64,0,0,0,2.3,4.9,8.3,8.3,0,0,0,2.5,1.2,11.45,11.45,0,0,0,6,0,7.25,7.25,0,0,0,2.5-1.2,5.51,5.51,0,0,0,1.7-2,6.53,6.53,0,0,0,.6-2.9A7.66,7.66,0,0,1,636.9,199.8Zm-11-7.9a2.79,2.79,0,0,1,.9-2.2,4.14,4.14,0,0,1,2.7-.8,4.55,4.55,0,0,1,2.7.8,2.87,2.87,0,0,1,1,2.2,2.58,2.58,0,0,1-.9,2.1,5,5,0,0,1-5.4,0A2.39,2.39,0,0,1,625.9,191.9Zm7.6,11a2.59,2.59,0,0,1-1,1.1,3.51,3.51,0,0,1-1.4.6,7.33,7.33,0,0,1-3.4,0,3.51,3.51,0,0,1-1.4-.6,5.24,5.24,0,0,1-1-1.1,4.42,4.42,0,0,1,0-3.2,2.66,2.66,0,0,1,1-1.1,3.51,3.51,0,0,1,1.4-.6,7.32,7.32,0,0,1,3.4,0,3.51,3.51,0,0,1,1.4.6,3.57,3.57,0,0,1,1,1.1,4.15,4.15,0,0,1,.3,1.6A2.22,2.22,0,0,1,633.5,202.9Z" transform="translate(-609.36 -109.05)" fill="none" stroke="#000" stroke-miterlimit="10" stroke-width="0.56"/><path d="M1326.1,755.2a9.5,9.5,0,0,0-1.8.6,7.1,7.1,0,0,0-1.4,1,3.92,3.92,0,0,0-.8,1.4V746.1h3.4v-3h-10.2v3h3.4v18.3h3.4a6.84,6.84,0,0,1,.5-2.7,5.53,5.53,0,0,1,1.4-1.9,4.53,4.53,0,0,1,1.9-1.1,5.38,5.38,0,0,1,2.2-.4V755A12.31,12.31,0,0,0,1326.1,755.2Z" transform="translate(-609.36 -109.05)" fill="none" stroke="#000" stroke-miterlimit="10" stroke-width="0.56"/><path d="M1325.7,677.2a4.79,4.79,0,0,1-1.2,3.5,4.14,4.14,0,0,1-3.1,1.2,5.85,5.85,0,0,1-1.3-.2,2.38,2.38,0,0,1-1.1-.6,3.92,3.92,0,0,1-.8-1,3.19,3.19,0,0,1-.3-1.4,4.49,4.49,0,0,1,.5-1.9,7.33,7.33,0,0,1,1.6-2.1l8.6-8.2v-3.2h-13.7v6h3.1v-2.9h6.2l-6.6,6.4a10.55,10.55,0,0,0-2.2,3,7.14,7.14,0,0,0-.8,3.1,6,6,0,0,0,.6,2.7,7.49,7.49,0,0,0,1.5,2,7.76,7.76,0,0,0,2.2,1.2,7.46,7.46,0,0,0,2.6.4,7.65,7.65,0,0,0,5.6-2,7.77,7.77,0,0,0,1.9-5.6h-3.3Z" transform="translate(-609.36 -109.05)" fill="none" stroke="#000" stroke-miterlimit="10" stroke-width="0.56"/><path d="M1324.4,601.6a4.17,4.17,0,0,1-3.1,1.1,3.2,3.2,0,0,1-2.3-.8,3.11,3.11,0,0,1-.8-2.2,2.3,2.3,0,0,1,.4-1.4,3.57,3.57,0,0,1,1.1-1,4.42,4.42,0,0,1,1.6-.6,12.31,12.31,0,0,1,2-.2v-3a8.53,8.53,0,0,1-4.3-.8,3,3,0,0,1-1.2-2.7,2.9,2.9,0,0,1,1-2.3,3.54,3.54,0,0,1,2.6-.8,4.14,4.14,0,0,1,3.1,1.2,5,5,0,0,1,1.4,3.3l3.2-.5a7.94,7.94,0,0,0-.8-3.2,6.2,6.2,0,0,0-1.7-2.2,7.55,7.55,0,0,0-2.3-1.3,9.25,9.25,0,0,0-2.9-.4,10.87,10.87,0,0,0-2.6.4,7.76,7.76,0,0,0-2.2,1.2,5.5,5.5,0,0,0-1.5,1.9,5.42,5.42,0,0,0-.6,2.5,6.28,6.28,0,0,0,.3,1.9,5.07,5.07,0,0,0,.9,1.6,5.26,5.26,0,0,0,1.4,1.2,5.87,5.87,0,0,0,2,.6,5.84,5.84,0,0,0-1.8.4,4.49,4.49,0,0,0-1.3,1,6.38,6.38,0,0,0-.8,1.4,4.67,4.67,0,0,0-.3,1.7,6.55,6.55,0,0,0,.5,2.5,5.22,5.22,0,0,0,1.4,1.9,7.19,7.19,0,0,0,2.1,1.2,6.9,6.9,0,0,0,2.5.4,9.43,9.43,0,0,0,3-.5,5.94,5.94,0,0,0,2.3-1.4,7,7,0,0,0,1.5-2.4,8.19,8.19,0,0,0,.5-3.3h-3.2A5.16,5.16,0,0,1,1324.4,601.6Z" transform="translate(-609.36 -109.05)" fill="none" stroke="#000" stroke-miterlimit="10" stroke-width="0.56"/><path d="M1320.9,510.1v-2.7h3.4v-3h-10.2v3h3.5v2.7h-3.5v3h3.5v12.6h3.9l7.8-12.6v-3Zm0,11.7v-8.6h5.3Z" transform="translate(-609.36 -109.05)" fill="none" stroke="#000" stroke-miterlimit="10" stroke-width="0.56"/><path d="M1323.7,436.4a5.37,5.37,0,0,1-2.1.5,3.7,3.7,0,0,1-2.9-1.2,4.86,4.86,0,0,1-1.1-3.3,5.66,5.66,0,0,1,.3-1.8,4.19,4.19,0,0,1,.9-1.4,5,5,0,0,1,1.4-1,5.23,5.23,0,0,1,1.8-.3,4.33,4.33,0,0,1,3.1,1.1,4.81,4.81,0,0,1,1.2,3l3.2-.5a7.68,7.68,0,0,0-.7-2.8,6.56,6.56,0,0,0-3.9-3.4,8.68,8.68,0,0,0-2.8-.5,8,8,0,0,0-3,.6,8.21,8.21,0,0,0-2.5,1.6,8.07,8.07,0,0,0-1.7,2.4,7.17,7.17,0,0,0-.6,2.9,10.73,10.73,0,0,0,.5,3.2,9.74,9.74,0,0,0,1.5,2.4,7.12,7.12,0,0,0,2.2,1.5,7.51,7.51,0,0,0,2.6.5,5.29,5.29,0,0,0,4.4-2v5.5h-10v3h13.3V434.7h-3.4A3.49,3.49,0,0,1,1323.7,436.4Z" transform="translate(-609.36 -109.05)" fill="none" stroke="#000" stroke-miterlimit="10" stroke-width="0.56"/><path d="M1329.1,351.8a9.77,9.77,0,0,0-1.3-3.5,6.42,6.42,0,0,0-2.5-2.4,7.9,7.9,0,0,0-4-.9,9.93,9.93,0,0,0-3,.5,9.74,9.74,0,0,0-2.4,1.5,7.76,7.76,0,0,0-1.6,2.4,7.94,7.94,0,0,0-.6,3.2,7.79,7.79,0,0,0,.6,3.1,8.17,8.17,0,0,0,1.5,2.4,6,6,0,0,0,2.2,1.6,5.83,5.83,0,0,0,2.6.6,6,6,0,0,0,3.7-1.1,5.43,5.43,0,0,0,1.9-2.8,9.48,9.48,0,0,1-.4,3,8.81,8.81,0,0,1-1.1,2.4,5.48,5.48,0,0,1-1.8,1.6,4.71,4.71,0,0,1-2.4.5,5.41,5.41,0,0,1-1.9-.3,4.25,4.25,0,0,1-1.7-1l-1.8,2.5a6.77,6.77,0,0,0,2.5,1.4,10.47,10.47,0,0,0,3,.5,8,8,0,0,0,3.9-.9,9.18,9.18,0,0,0,2.8-2.4,10.19,10.19,0,0,0,1.6-3.5,18.59,18.59,0,0,0,.5-4.2A14.63,14.63,0,0,0,1329.1,351.8Zm-4.3,4.2a4.45,4.45,0,0,1-3.2,1.3,4.28,4.28,0,0,1-3.2-1.3,5.33,5.33,0,0,1-1.1-3.4,4.7,4.7,0,0,1,1.2-3.4,4.07,4.07,0,0,1,3-1.2,4.64,4.64,0,0,1,2.1.4,5,5,0,0,1,1.4,1,3.61,3.61,0,0,1,.8,1.5,5.82,5.82,0,0,1,.3,1.9A4.9,4.9,0,0,1,1324.8,356Z" transform="translate(-609.36 -109.05)" fill="none" stroke="#000" stroke-miterlimit="10" stroke-width="0.56"/><path d="M1325.9,280.4V284h-8.4a35,35,0,0,0,3.2-4,16.52,16.52,0,0,0,2.1-4.2,30.9,30.9,0,0,0,1.2-4.6,44.07,44.07,0,0,0,.4-5.4H1321a46.14,46.14,0,0,1-.3,5.6,29.85,29.85,0,0,1-.9,4.5,20.88,20.88,0,0,1-1.9,4,22.8,22.8,0,0,1-3.3,4.1v3.1H1329v-6.6h-3.1Z" transform="translate(-609.36 -109.05)" fill="none" stroke="#000" stroke-miterlimit="10" stroke-width="0.56"/><path d="M1328.2,195.6a6.47,6.47,0,0,0,.9-1.6,5.66,5.66,0,0,0,.3-1.8,6.53,6.53,0,0,0-.6-2.9,6.15,6.15,0,0,0-1.6-2,8.3,8.3,0,0,0-2.5-1.2,11.45,11.45,0,0,0-6,0,7.25,7.25,0,0,0-2.5,1.2,6.48,6.48,0,0,0-1.7,2,6.24,6.24,0,0,0-.6,2.9,5.66,5.66,0,0,0,.3,1.8,5.07,5.07,0,0,0,.9,1.6,8.64,8.64,0,0,0,1.4,1.3,6,6,0,0,0,1.9.6,3.82,3.82,0,0,0-1.6.6,4.26,4.26,0,0,0-1.2,1.1,6.38,6.38,0,0,0-.8,1.4,3.93,3.93,0,0,0-.3,1.4,4.87,4.87,0,0,0,.6,2.5,6.55,6.55,0,0,0,1.5,1.8,5.7,5.7,0,0,0,2.2,1.1,10.87,10.87,0,0,0,2.6.4,7.46,7.46,0,0,0,2.6-.4,8.17,8.17,0,0,0,2.3-1.1,5.4,5.4,0,0,0,2.1-4.3,3.53,3.53,0,0,0-.3-1.4,3.92,3.92,0,0,0-.8-1.4,4.26,4.26,0,0,0-1.2-1.1,4.42,4.42,0,0,0-1.6-.6,6,6,0,0,0,1.9-.6A3.81,3.81,0,0,0,1328.2,195.6Zm-2.9,6.2a2.79,2.79,0,0,1-.9,2.2,4.14,4.14,0,0,1-2.7.8,4.55,4.55,0,0,1-2.7-.8,2.87,2.87,0,0,1-1-2.2,2.58,2.58,0,0,1,.9-2.1,5,5,0,0,1,5.4,0A2.39,2.39,0,0,1,1325.3,201.8Zm.4-7.8a2.66,2.66,0,0,1-1,1.1,3,3,0,0,1-1.4.6,7.32,7.32,0,0,1-3.4,0,3.51,3.51,0,0,1-1.4-.6,2.44,2.44,0,0,1-.9-1.1,3.77,3.77,0,0,1-.4-1.6,2.93,2.93,0,0,1,.4-1.6,3.33,3.33,0,0,1,.9-1.1,3.51,3.51,0,0,1,1.4-.6,7.33,7.33,0,0,1,3.4,0,3.51,3.51,0,0,1,1.4.6,5.24,5.24,0,0,1,1,1.1,3.81,3.81,0,0,1,.3,1.6A2.13,2.13,0,0,1,1325.7,194Z" transform="translate(-609.36 -109.05)" fill="none" stroke="#000" stroke-miterlimit="10" stroke-width="0.56"/><path d="M699.1,810.8h-3.9l-6.6,21.3h3.5l1.5-5.1h7l1.5,5.1h3.5ZM694.5,824l2.6-8.8,2.6,8.8Z" transform="translate(-609.36 -109.05)" fill="none" stroke="#000" stroke-miterlimit="10" stroke-width="0.56"/><path d="M782.9,823a6.36,6.36,0,0,0-3-1.8,4.82,4.82,0,0,0,2.5-1.9,5.21,5.21,0,0,0,.8-3,5.55,5.55,0,0,0-.6-2.8,4.62,4.62,0,0,0-1.7-1.7,6.31,6.31,0,0,0-2.3-.8,22.75,22.75,0,0,0-2.6-.2h-6.4v21.3h6.8a9.1,9.1,0,0,0,5.6-1.5,5.16,5.16,0,0,0,2-4.4A5.8,5.8,0,0,0,782.9,823Zm-10-9.2h3a6.6,6.6,0,0,1,1.4.1,3.37,3.37,0,0,1,1.2.4,2,2,0,0,1,.9.9,3.31,3.31,0,0,1,.4,1.5,2.41,2.41,0,0,1-.4,1.5,2,2,0,0,1-.9.9,2.84,2.84,0,0,1-1.2.4,6.6,6.6,0,0,1-1.4.1h-3Zm6.5,14.5a5.45,5.45,0,0,1-3.1.8h-3.4v-6.3h3.4a5.45,5.45,0,0,1,3.1.8,2.55,2.55,0,0,1,1.1,2.4A2.49,2.49,0,0,1,779.4,828.3Z" transform="translate(-609.36 -109.05)" fill="none" stroke="#000" stroke-miterlimit="10" stroke-width="0.56"/><path d="M861.5,824.5a8.7,8.7,0,0,1-1.8,3.6,3.94,3.94,0,0,1-3.2,1.3,3.61,3.61,0,0,1-2.4-.7,6.55,6.55,0,0,1-1.5-1.8,9.9,9.9,0,0,1-.8-2.6,21.12,21.12,0,0,1,0-5.8,11.22,11.22,0,0,1,.8-2.6,5.75,5.75,0,0,1,1.5-1.9,3.61,3.61,0,0,1,2.4-.7,3.83,3.83,0,0,1,1.9.5,3.74,3.74,0,0,1,1.3,1.2,5.31,5.31,0,0,1,.8,1.7,6.48,6.48,0,0,1,.2,2h3v-8.1h-3v2.5a1.85,1.85,0,0,0-.7-1.2,3.13,3.13,0,0,0-1.1-.9,6.94,6.94,0,0,0-1.3-.5,6.75,6.75,0,0,0-1.4-.2,7,7,0,0,0-3.7.9,8.16,8.16,0,0,0-2.5,2.4,12.21,12.21,0,0,0-1.4,3.5,18.4,18.4,0,0,0-.4,4.1,27.13,27.13,0,0,0,.4,4.1,9.08,9.08,0,0,0,3.9,6,7.37,7.37,0,0,0,3.8.9,8.81,8.81,0,0,0,2.9-.5,6.36,6.36,0,0,0,2.2-1.4,7.35,7.35,0,0,0,1.6-2.2,11.56,11.56,0,0,0,1-2.8Z" transform="translate(-609.36 -109.05)" fill="none" stroke="#000" stroke-miterlimit="10" stroke-width="0.56"/><path d="M942.9,817.4a11.57,11.57,0,0,0-1.4-3.4,7.57,7.57,0,0,0-6.3-3.2h-6.9v21.3h6.9a7.63,7.63,0,0,0,3.8-.9,6.91,6.91,0,0,0,2.5-2.3,9.39,9.39,0,0,0,1.4-3.4,17.71,17.71,0,0,0,.5-4.1A16.84,16.84,0,0,0,942.9,817.4Zm-4.2,9.6a4,4,0,0,1-3.6,2h-3.5V813.8h3.5a4.13,4.13,0,0,1,3.6,1.9,10.77,10.77,0,0,1,1.3,5.6A10,10,0,0,1,938.7,827Z" transform="translate(-609.36 -109.05)" fill="none" stroke="#000" stroke-miterlimit="10" stroke-width="0.56"/><path d="M1022.2,813.8v-3h-13.6v21.3h13.6v-3H1012v-6.3h8v-3h-8v-5.9h10.2Z" transform="translate(-609.36 -109.05)" fill="none" stroke="#000" stroke-miterlimit="10" stroke-width="0.56"/><path d="M1101.8,813.8v-3h-13.6v21.3h3.4v-9.3h8v-3h-8v-5.9h10.2Z" transform="translate(-609.36 -109.05)" fill="none" stroke="#000" stroke-miterlimit="10" stroke-width="0.56"/><path d="M1175.1,821v3h4.5a7.82,7.82,0,0,1-1.7,4.1,4.3,4.3,0,0,1-3.3,1.3,3.79,3.79,0,0,1-2.4-.7,6.55,6.55,0,0,1-1.5-1.8,9.9,9.9,0,0,1-.8-2.6,21.13,21.13,0,0,1,0-5.8,11.22,11.22,0,0,1,.8-2.6,5.75,5.75,0,0,1,1.5-1.9,3.61,3.61,0,0,1,2.4-.7,3.92,3.92,0,0,1,1.8.4,4.86,4.86,0,0,1,1.4,1.1,4.17,4.17,0,0,1,.9,1.6,5.82,5.82,0,0,1,.3,1.9h3v-7.6h-3v2.5a1.85,1.85,0,0,0-.7-1.2,8.7,8.7,0,0,0-1.1-.9,5,5,0,0,0-1.3-.5,5.85,5.85,0,0,0-1.3-.2,7.37,7.37,0,0,0-3.8.9,6.67,6.67,0,0,0-2.5,2.5,13.49,13.49,0,0,0-1.4,3.5,18.4,18.4,0,0,0-.4,4.1,27.13,27.13,0,0,0,.4,4.1,12.21,12.21,0,0,0,1.4,3.5,6.71,6.71,0,0,0,2.6,2.4,8.47,8.47,0,0,0,7.6,0,7.18,7.18,0,0,0,2.5-2.4,9.89,9.89,0,0,0,1.4-3.5,18.4,18.4,0,0,0,.4-4.1V821Z" transform="translate(-609.36 -109.05)" fill="none" stroke="#000" stroke-miterlimit="10" stroke-width="0.56"/><path d="M1257.5,810.8v9h-6.9v-9h-3.4v21.3h3.4v-9.3h6.9v9.3h3.4V810.8Z" transform="translate(-609.36 -109.05)" fill="none" stroke="#000" stroke-miterlimit="10" stroke-width="0.56"/><path d="M702.2,118.6l-1.5,5.1h-7l-1.5-5.1h-3.5l6.6,21.3h3.9l6.6-21.3Zm-5.1,16.8-2.6-8.8h5.3Z" transform="translate(-609.36 -109.05)" fill="none" stroke="#000" stroke-miterlimit="10" stroke-width="0.56"/><path d="M777.1,118.6a9.1,9.1,0,0,0-5.6,1.5,5.16,5.16,0,0,0-2,4.4,4.83,4.83,0,0,0,1,3.3,6.36,6.36,0,0,0,3,1.8,4.82,4.82,0,0,0-2.5,1.9,6.11,6.11,0,0,0-.8,3,5.81,5.81,0,0,0,.6,2.8,4.62,4.62,0,0,0,1.7,1.7,6.31,6.31,0,0,0,2.3.8,22.75,22.75,0,0,0,2.6.2h6.4V118.7h-6.7Zm3.4,18.2h-3a6.6,6.6,0,0,1-1.4-.1,5,5,0,0,1-1.3-.4,2,2,0,0,1-.9-.9,3.9,3.9,0,0,1,0-3,2,2,0,0,1,.9-.9,2.84,2.84,0,0,1,1.3-.4,6.15,6.15,0,0,1,1.4-.1h3Zm0-8.9h-3.4a5.45,5.45,0,0,1-3.1-.8,3.17,3.17,0,0,1,0-4.8,5.69,5.69,0,0,1,3.1-.8h3.4Z" transform="translate(-609.36 -109.05)" fill="none" stroke="#000" stroke-miterlimit="10" stroke-width="0.56"/><path d="M863.8,125.1a12.21,12.21,0,0,0-1.4-3.5,9.9,9.9,0,0,0-2.5-2.5,7.37,7.37,0,0,0-3.8-.9,8.81,8.81,0,0,0-2.9.5,6.36,6.36,0,0,0-2.2,1.4,7.35,7.35,0,0,0-1.6,2.2,11.56,11.56,0,0,0-1,2.8l2.7,1a8.7,8.7,0,0,1,1.8-3.6,3.82,3.82,0,0,1,3.2-1.3,3.61,3.61,0,0,1,2.4.7,6.55,6.55,0,0,1,1.5,1.8,9.9,9.9,0,0,1,.8,2.6,14.15,14.15,0,0,1,.2,2.9,28.25,28.25,0,0,1-.2,2.9,7.86,7.86,0,0,1-.8,2.6,5.75,5.75,0,0,1-1.5,1.9,3.51,3.51,0,0,1-2.3.7,3.83,3.83,0,0,1-1.9-.5,4.44,4.44,0,0,1-2.2-2.9,6.45,6.45,0,0,1-.3-2h-3V140h3v-2.5a1.85,1.85,0,0,0,.7,1.2,8.7,8.7,0,0,0,1.1.9,6.94,6.94,0,0,0,1.3.5,7.84,7.84,0,0,0,1.4.2,7.24,7.24,0,0,0,3.7-.9,8.16,8.16,0,0,0,2.5-2.4,9.89,9.89,0,0,0,1.4-3.5,18.4,18.4,0,0,0,.4-4.1A26.76,26.76,0,0,0,863.8,125.1Z" transform="translate(-609.36 -109.05)" fill="none" stroke="#000" stroke-miterlimit="10" stroke-width="0.56"/><path d="M936.5,118.6a7.63,7.63,0,0,0-3.8.9,6.91,6.91,0,0,0-2.5,2.3,9.39,9.39,0,0,0-1.4,3.4,17.06,17.06,0,0,0,0,8.2,9.54,9.54,0,0,0,1.5,3.4,6.84,6.84,0,0,0,2.5,2.3,7.24,7.24,0,0,0,3.7.9h6.9V118.7h-6.9Zm3.5,18.2h-3.5a4,4,0,0,1-3.6-2,10.77,10.77,0,0,1-1.3-5.6,9.88,9.88,0,0,1,1.3-5.6,4,4,0,0,1,3.6-2H940Z" transform="translate(-609.36 -109.05)" fill="none" stroke="#000" stroke-miterlimit="10" stroke-width="0.56"/><path d="M1008.6,118.6v3h10.2v6.3h-8v3h8v5.9h-10.2v3h13.6V118.5h-13.6Z" transform="translate(-609.36 -109.05)" fill="none" stroke="#000" stroke-miterlimit="10" stroke-width="0.56"/><path d="M1098.4,118.6v9.3h-8v3h8v5.9h-10.2v3h13.6V118.5h-3.4Z" transform="translate(-609.36 -109.05)" fill="none" stroke="#000" stroke-miterlimit="10" stroke-width="0.56"/><path d="M1182.3,125.1a12.21,12.21,0,0,0-1.4-3.5,8.16,8.16,0,0,0-2.5-2.4,8.47,8.47,0,0,0-7.6,0,8.48,8.48,0,0,0-2.6,2.4,12.21,12.21,0,0,0-1.4,3.5,18.4,18.4,0,0,0-.4,4.1v.5h7.6v-3h-4.5a7.12,7.12,0,0,1,1.8-4.1,4.45,4.45,0,0,1,3.3-1.3,3.61,3.61,0,0,1,2.4.7,6.55,6.55,0,0,1,1.5,1.8,9.9,9.9,0,0,1,.8,2.6,21.12,21.12,0,0,1,0,5.8,7.86,7.86,0,0,1-.8,2.6,5.75,5.75,0,0,1-1.5,1.9,3.51,3.51,0,0,1-2.3.7,3.29,3.29,0,0,1-1.7-.4,4.86,4.86,0,0,1-1.4-1.1,4.17,4.17,0,0,1-.9-1.6,5.82,5.82,0,0,1-.3-1.9h-3V140h3v-2.5a1.85,1.85,0,0,0,.7,1.2,3.13,3.13,0,0,0,1.1.9,5,5,0,0,0,1.3.5,6.88,6.88,0,0,0,1.3.2,7.37,7.37,0,0,0,3.8-.9,6.67,6.67,0,0,0,2.5-2.5,9.89,9.89,0,0,0,1.4-3.5,18.4,18.4,0,0,0,.4-4.1C1182.7,127.8,1182.6,126.4,1182.3,125.1Z" transform="translate(-609.36 -109.05)" fill="none" stroke="#000" stroke-miterlimit="10" stroke-width="0.56"/><path d="M1257.5,118.6v9.3h-6.9v-9.3h-3.4v21.3h3.4V131h6.9v8.9h3.4V118.6Z" transform="translate(-609.36 -109.05)" fill="none" stroke="#000" stroke-miterlimit="10" stroke-width="0.56"/><rect x="71.74" y="637.65" width="32" height="14.2" fill="none" stroke="#ff1d68" stroke-miterlimit="10" stroke-width="0.56"/><rect x="151.34" y="637.65" width="32" height="14.2" fill="none" stroke="#ff1d68" stroke-miterlimit="10" stroke-width="0.56"/><rect x="230.94" y="637.65" width="32" height="14.2" fill="none" stroke="#ff1d68" stroke-miterlimit="10" stroke-width="0.56"/><rect x="310.54" y="637.65" width="32" height="14.2" fill="none" stroke="#ff1d68" stroke-miterlimit="10" stroke-width="0.56"/><rect x="390.14" y="637.65" width="32" height="14.2" fill="none" stroke="#ff1d68" stroke-miterlimit="10" stroke-width="0.56"/><rect x="469.74" y="637.65" width="32" height="14.2" fill="none" stroke="#ff1d68" stroke-miterlimit="10" stroke-width="0.56"/><rect x="549.34" y="637.65" width="32" height="14.2" fill="none" stroke="#ff1d68" stroke-miterlimit="10" stroke-width="0.56"/><rect x="628.94" y="637.65" width="32" height="14.2" fill="none" stroke="#ff1d68" stroke-miterlimit="10" stroke-width="0.56"/><rect x="628.94" y="557.95" width="32" height="14.2" fill="none" stroke="#ff1d68" stroke-miterlimit="10" stroke-width="0.56"/><rect x="628.94" y="478.15" width="32" height="14.2" fill="none" stroke="#ff1d68" stroke-miterlimit="10" stroke-width="0.56"/><rect x="628.94" y="398.45" width="32" height="14.2" fill="none" stroke="#ff1d68" stroke-miterlimit="10" stroke-width="0.56"/><rect x="628.94" y="318.65" width="32" height="14.2" fill="none" stroke="#ff1d68" stroke-miterlimit="10" stroke-width="0.56"/><rect x="628.94" y="238.95" width="32" height="14.2" fill="none" stroke="#ff1d68" stroke-miterlimit="10" stroke-width="0.56"/><rect x="628.94" y="159.15" width="32" height="14.2" fill="none" stroke="#ff1d68" stroke-miterlimit="10" stroke-width="0.56"/><rect x="628.94" y="79.45" width="32" height="14.2" fill="none" stroke="#ff1d68" stroke-miterlimit="10" stroke-width="0.56"/><rect x="549.14" y="557.95" width="32" height="14.2" fill="none" stroke="#ff1d68" stroke-miterlimit="10" stroke-width="0.56"/><rect x="549.14" y="478.15" width="32" height="14.2" fill="none" stroke="#ff1d68" stroke-miterlimit="10" stroke-width="0.56"/><rect x="549.14" y="398.45" width="32" height="14.2" fill="none" stroke="#ff1d68" stroke-miterlimit="10" stroke-width="0.56"/><rect x="549.14" y="318.65" width="32" height="14.2" fill="none" stroke="#ff1d68" stroke-miterlimit="10" stroke-width="0.56"/><rect x="549.14" y="238.95" width="32" height="14.2" fill="none" stroke="#ff1d68" stroke-miterlimit="10" stroke-width="0.56"/><rect x="549.14" y="159.15" width="32" height="14.2" fill="none" stroke="#ff1d68" stroke-miterlimit="10" stroke-width="0.56"/><rect x="549.14" y="79.45" width="32" height="14.2" fill="none" stroke="#ff1d68" stroke-miterlimit="10" stroke-width="0.56"/><rect x="469.34" y="557.95" width="32" height="14.2" fill="none" stroke="#ff1d68" stroke-miterlimit="10" stroke-width="0.56"/><rect x="469.34" y="478.15" width="32" height="14.2" fill="none" stroke="#ff1d68" stroke-miterlimit="10" stroke-width="0.56"/><rect x="469.34" y="398.45" width="32" height="14.2" fill="none" stroke="#ff1d68" stroke-miterlimit="10" stroke-width="0.56"/><rect x="469.34" y="318.65" width="32" height="14.2" fill="none" stroke="#ff1d68" stroke-miterlimit="10" stroke-width="0.56"/><rect x="469.34" y="238.95" width="32" height="14.2" fill="none" stroke="#ff1d68" stroke-miterlimit="10" stroke-width="0.56"/><rect x="469.34" y="159.15" width="32" height="14.2" fill="none" stroke="#ff1d68" stroke-miterlimit="10" stroke-width="0.56"/><rect x="469.34" y="79.45" width="32" height="14.2" fill="none" stroke="#ff1d68" stroke-miterlimit="10" stroke-width="0.56"/><rect x="389.54" y="557.95" width="32" height="14.2" fill="none" stroke="#ff1d68" stroke-miterlimit="10" stroke-width="0.56"/><rect x="389.54" y="478.15" width="32" height="14.2" fill="none" stroke="#ff1d68" stroke-miterlimit="10" stroke-width="0.56"/><rect x="389.54" y="398.45" width="32" height="14.2" fill="none" stroke="#ff1d68" stroke-miterlimit="10" stroke-width="0.56"/><rect x="389.54" y="318.65" width="32" height="14.2" fill="none" stroke="#ff1d68" stroke-miterlimit="10" stroke-width="0.56"/><rect x="389.54" y="238.95" width="32" height="14.2" fill="none" stroke="#ff1d68" stroke-miterlimit="10" stroke-width="0.56"/><rect x="389.54" y="159.15" width="32" height="14.2" fill="none" stroke="#ff1d68" stroke-miterlimit="10" stroke-width="0.56"/><rect x="389.54" y="79.45" width="32" height="14.2" fill="none" stroke="#ff1d68" stroke-miterlimit="10" stroke-width="0.56"/><rect x="309.74" y="557.95" width="32" height="14.2" fill="none" stroke="#ff1d68" stroke-miterlimit="10" stroke-width="0.56"/><rect x="309.74" y="478.15" width="32" height="14.2" fill="none" stroke="#ff1d68" stroke-miterlimit="10" stroke-width="0.56"/><rect x="309.74" y="398.45" width="32" height="14.2" fill="none" stroke="#ff1d68" stroke-miterlimit="10" stroke-width="0.56"/><rect x="309.74" y="318.65" width="32" height="14.2" fill="none" stroke="#ff1d68" stroke-miterlimit="10" stroke-width="0.56"/><rect x="309.74" y="238.95" width="32" height="14.2" fill="none" stroke="#ff1d68" stroke-miterlimit="10" stroke-width="0.56"/><rect x="309.74" y="159.15" width="32" height="14.2" fill="none" stroke="#ff1d68" stroke-miterlimit="10" stroke-width="0.56"/><rect x="309.74" y="79.45" width="32" height="14.2" fill="none" stroke="#ff1d68" stroke-miterlimit="10" stroke-width="0.56"/><rect x="229.94" y="557.95" width="32" height="14.2" fill="none" stroke="#ff1d68" stroke-miterlimit="10" stroke-width="0.56"/><rect x="229.94" y="478.15" width="32" height="14.2" fill="none" stroke="#ff1d68" stroke-miterlimit="10" stroke-width="0.56"/><rect x="229.94" y="398.45" width="32" height="14.2" fill="none" stroke="#ff1d68" stroke-miterlimit="10" stroke-width="0.56"/><rect x="229.94" y="318.65" width="32" height="14.2" fill="none" stroke="#ff1d68" stroke-miterlimit="10" stroke-width="0.56"/><rect x="229.94" y="238.95" width="32" height="14.2" fill="none" stroke="#ff1d68" stroke-miterlimit="10" stroke-width="0.56"/><rect x="229.94" y="159.15" width="32" height="14.2" fill="none" stroke="#ff1d68" stroke-miterlimit="10" stroke-width="0.56"/><rect x="229.94" y="79.45" width="32" height="14.2" fill="none" stroke="#ff1d68" stroke-miterlimit="10" stroke-width="0.56"/><rect x="150.14" y="557.95" width="32" height="14.2" fill="none" stroke="#ff1d68" stroke-miterlimit="10" stroke-width="0.56"/><rect x="150.14" y="478.15" width="32" height="14.2" fill="none" stroke="#ff1d68" stroke-miterlimit="10" stroke-width="0.56"/><rect x="150.14" y="398.45" width="32" height="14.2" fill="none" stroke="#ff1d68" stroke-miterlimit="10" stroke-width="0.56"/><rect x="150.14" y="318.65" width="32" height="14.2" fill="none" stroke="#ff1d68" stroke-miterlimit="10" stroke-width="0.56"/><rect x="150.14" y="238.95" width="32" height="14.2" fill="none" stroke="#ff1d68" stroke-miterlimit="10" stroke-width="0.56"/><rect x="150.14" y="159.15" width="32" height="14.2" fill="none" stroke="#ff1d68" stroke-miterlimit="10" stroke-width="0.56"/><rect x="150.14" y="79.45" width="32" height="14.2" fill="none" stroke="#ff1d68" stroke-miterlimit="10" stroke-width="0.56"/><rect x="70.34" y="557.95" width="32" height="14.2" fill="none" stroke="#ff1d68" stroke-miterlimit="10" stroke-width="0.56"/><rect x="70.34" y="478.15" width="32" height="14.2" fill="none" stroke="#ff1d68" stroke-miterlimit="10" stroke-width="0.56"/><rect x="70.34" y="398.45" width="32" height="14.2" fill="none" stroke="#ff1d68" stroke-miterlimit="10" stroke-width="0.56"/><rect x="70.34" y="318.65" width="32" height="14.2" fill="none" stroke="#ff1d68" stroke-miterlimit="10" stroke-width="0.56"/><rect x="70.34" y="238.95" width="32" height="14.2" fill="none" stroke="#ff1d68" stroke-miterlimit="10" stroke-width="0.56"/><rect x="70.34" y="159.15" width="32" height="14.2" fill="none" stroke="#ff1d68" stroke-miterlimit="10" stroke-width="0.56"/><rect x="70.34" y="79.45" width="32" height="14.2" fill="none" stroke="#ff1d68" stroke-miterlimit="10" stroke-width="0.56"/><path d="M1647.4,1168.6l-1.6-.6a4.46,4.46,0,0,0,2-1.7,4.73,4.73,0,0,0-.3-5.5,21,21,0,0,0-2.6-2.4,23,23,0,0,1-2.2-2,17,17,0,0,1-2.3-3.6v-1.3a1.5,1.5,0,0,0-1.1-1.4l-2.4-.8a38.68,38.68,0,0,1-3.6-16.4v-2.8h4.5a1.52,1.52,0,0,0,1.2-.7l1.2-1.8a1.41,1.41,0,0,0,.1-1.4v-.1a2,2,0,0,0-.8-.8l-6.7-3.3a13.1,13.1,0,1,0-11.6,0l-6.7,3.3a2,2,0,0,0-.8.8v.1a1.41,1.41,0,0,0,.1,1.4l1.2,1.8a1.39,1.39,0,0,0,1.2.7h4.5v2.8a38.39,38.39,0,0,1-3.6,16.4l-2.4.8a1.6,1.6,0,0,0-1.1,1.4v1.2a13.47,13.47,0,0,1-2.3,3.7,15.43,15.43,0,0,1-2.2,2,21,21,0,0,0-2.6,2.4,4.71,4.71,0,0,0-.3,5.5,6,6,0,0,0,2,1.7l-1.6.6a1.84,1.84,0,0,0-1.2,1.7v2.3a1.7,1.7,0,0,0,1.1,1.5,11.91,11.91,0,0,0,4,1h.6v13.1h32v-13.1h.5a16.61,16.61,0,0,0,4-1,1.58,1.58,0,0,0,1.1-1.5v-2.3A2,2,0,0,0,1647.4,1168.6Z" transform="translate(-609.36 -109.05)" fill="none" stroke="#ff1d68" stroke-miterlimit="10" stroke-width="0.56"/><path d="M1582.1,1168.6l-1.6-.6a4.46,4.46,0,0,0,2-1.7,4.73,4.73,0,0,0-.3-5.5,21,21,0,0,0-2.6-2.4,23,23,0,0,1-2.2-2,17,17,0,0,1-2.3-3.6v-1.3a1.5,1.5,0,0,0-1.1-1.4l-2.4-.8a38.68,38.68,0,0,1-3.6-16.4v-2.8h4.5a1.52,1.52,0,0,0,1.2-.7l1.2-1.8a1.41,1.41,0,0,0,.1-1.4v-.1a2,2,0,0,0-.8-.8l-6.7-3.3a13.1,13.1,0,1,0-11.6,0l-6.7,3.3a2,2,0,0,0-.8.8v.1a1.41,1.41,0,0,0,.1,1.4l1.2,1.8a1.39,1.39,0,0,0,1.2.7h4.5v2.8a38.39,38.39,0,0,1-3.6,16.4l-2.4.8a1.6,1.6,0,0,0-1.1,1.4v1.2a13.47,13.47,0,0,1-2.3,3.7,15.43,15.43,0,0,1-2.2,2,21,21,0,0,0-2.6,2.4,4.71,4.71,0,0,0-.3,5.5,6,6,0,0,0,2,1.7l-1.6.6a1.84,1.84,0,0,0-1.2,1.7v2.3a1.7,1.7,0,0,0,1.1,1.5,11.91,11.91,0,0,0,4,1h.6v13.1h32v-13.1h.5a16.61,16.61,0,0,0,4-1,1.58,1.58,0,0,0,1.1-1.5v-2.3A2,2,0,0,0,1582.1,1168.6Z" transform="translate(-609.36 -109.05)" fill="none" stroke="#ff1d68" stroke-miterlimit="10" stroke-width="0.56"/><path d="M1516.9,1168.6l-1.6-.6a4.46,4.46,0,0,0,2-1.7,4.73,4.73,0,0,0-.3-5.5,21,21,0,0,0-2.6-2.4,23,23,0,0,1-2.2-2,17,17,0,0,1-2.3-3.6v-1.3a1.5,1.5,0,0,0-1.1-1.4l-2.4-.8a38.68,38.68,0,0,1-3.6-16.4v-2.8h4.5a1.52,1.52,0,0,0,1.2-.7l1.2-1.8a1.41,1.41,0,0,0,.1-1.4v-.1a2,2,0,0,0-.8-.8l-6.7-3.3a13.1,13.1,0,1,0-11.6,0l-6.7,3.3a2,2,0,0,0-.8.8v.1a1.41,1.41,0,0,0,.1,1.4l1.2,1.8a1.39,1.39,0,0,0,1.2.7h4.5v2.8a38.39,38.39,0,0,1-3.6,16.4l-2.4.8a1.6,1.6,0,0,0-1.1,1.4v1.2a13.47,13.47,0,0,1-2.3,3.7,15.43,15.43,0,0,1-2.2,2,21,21,0,0,0-2.6,2.4,4.71,4.71,0,0,0-.3,5.5,6,6,0,0,0,2,1.7l-1.6.6a1.84,1.84,0,0,0-1.2,1.7v2.3a1.7,1.7,0,0,0,1.1,1.5,11.91,11.91,0,0,0,4,1h.6v13.1h32v-13.1h.5a16.61,16.61,0,0,0,4-1,1.58,1.58,0,0,0,1.1-1.5v-2.3A2,2,0,0,0,1516.9,1168.6Z" transform="translate(-609.36 -109.05)" fill="none" stroke="#ff1d68" stroke-miterlimit="10" stroke-width="0.56"/><path d="M1451.6,1168.6l-1.6-.6a4.46,4.46,0,0,0,2-1.7,4.73,4.73,0,0,0-.3-5.5,21,21,0,0,0-2.6-2.4,23,23,0,0,1-2.2-2,17,17,0,0,1-2.3-3.6v-1.3a1.5,1.5,0,0,0-1.1-1.4l-2.4-.8a38.68,38.68,0,0,1-3.6-16.4v-2.8h4.5a1.52,1.52,0,0,0,1.2-.7l1.2-1.8a1.41,1.41,0,0,0,.1-1.4v-.1a2,2,0,0,0-.8-.8l-6.7-3.3a13.1,13.1,0,1,0-11.6,0l-6.7,3.3a2,2,0,0,0-.8.8v.1a1.41,1.41,0,0,0,.1,1.4l1.2,1.8a1.39,1.39,0,0,0,1.2.7h4.5v2.8a38.39,38.39,0,0,1-3.6,16.4l-2.4.8a1.6,1.6,0,0,0-1.1,1.4v1.2a13.47,13.47,0,0,1-2.3,3.7,15.43,15.43,0,0,1-2.2,2,21,21,0,0,0-2.6,2.4,4.71,4.71,0,0,0-.3,5.5,6,6,0,0,0,2,1.7l-1.6.6a1.84,1.84,0,0,0-1.2,1.7v2.3a1.7,1.7,0,0,0,1.1,1.5,11.91,11.91,0,0,0,4,1h.6v13.1h32v-13.1h.5a16.61,16.61,0,0,0,4-1,1.58,1.58,0,0,0,1.1-1.5v-2.3A2,2,0,0,0,1451.6,1168.6Z" transform="translate(-609.36 -109.05)" fill="none" stroke="#ff1d68" stroke-miterlimit="10" stroke-width="0.56"/><path d="M1647.4,1043.4l-1.6-.6a4.46,4.46,0,0,0,2-1.7,4.73,4.73,0,0,0-.3-5.5,21,21,0,0,0-2.6-2.4,23,23,0,0,1-2.2-2,17,17,0,0,1-2.3-3.6v-1.3a1.5,1.5,0,0,0-1.1-1.4l-2.4-.8a38.68,38.68,0,0,1-3.6-16.4v-2.8h4.5a1.52,1.52,0,0,0,1.2-.7l1.2-1.8a1.41,1.41,0,0,0,.1-1.4v-.1a2,2,0,0,0-.8-.8l-6.7-3.3a13.1,13.1,0,1,0-11.6,0l-6.7,3.3a2,2,0,0,0-.8.8v.1a1.41,1.41,0,0,0,.1,1.4l1.2,1.8a1.39,1.39,0,0,0,1.2.7h4.5v2.8a38.39,38.39,0,0,1-3.6,16.4l-2.4.8a1.6,1.6,0,0,0-1.1,1.4v1.2a13.47,13.47,0,0,1-2.3,3.7,15.43,15.43,0,0,1-2.2,2,21,21,0,0,0-2.6,2.4,4.71,4.71,0,0,0-.3,5.5,6,6,0,0,0,2,1.7l-1.6.6a1.84,1.84,0,0,0-1.2,1.7v2.3a1.7,1.7,0,0,0,1.1,1.5,11.91,11.91,0,0,0,4,1h.6V1063h32v-13.1h.5a16.61,16.61,0,0,0,4-1,1.58,1.58,0,0,0,1.1-1.5v-2.3A2.1,2.1,0,0,0,1647.4,1043.4Z" transform="translate(-609.36 -109.05)" fill="none" stroke="#ff1d68" stroke-miterlimit="10" stroke-width="0.56"/><path d="M1582.1,1043.4l-1.6-.6a4.46,4.46,0,0,0,2-1.7,4.73,4.73,0,0,0-.3-5.5,21,21,0,0,0-2.6-2.4,23,23,0,0,1-2.2-2,17,17,0,0,1-2.3-3.6v-1.3a1.5,1.5,0,0,0-1.1-1.4l-2.4-.8a38.68,38.68,0,0,1-3.6-16.4v-2.8h4.5a1.52,1.52,0,0,0,1.2-.7l1.2-1.8a1.41,1.41,0,0,0,.1-1.4v-.1a2,2,0,0,0-.8-.8l-6.7-3.3a13.1,13.1,0,1,0-11.6,0l-6.7,3.3a2,2,0,0,0-.8.8v.1a1.41,1.41,0,0,0,.1,1.4l1.2,1.8a1.39,1.39,0,0,0,1.2.7h4.5v2.8a38.39,38.39,0,0,1-3.6,16.4l-2.4.8a1.6,1.6,0,0,0-1.1,1.4v1.2a13.47,13.47,0,0,1-2.3,3.7,15.43,15.43,0,0,1-2.2,2,21,21,0,0,0-2.6,2.4,4.71,4.71,0,0,0-.3,5.5,6,6,0,0,0,2,1.7l-1.6.6a1.84,1.84,0,0,0-1.2,1.7v2.3a1.7,1.7,0,0,0,1.1,1.5,11.91,11.91,0,0,0,4,1h.6V1063h32v-13.1h.5a16.61,16.61,0,0,0,4-1,1.58,1.58,0,0,0,1.1-1.5v-2.3A2.1,2.1,0,0,0,1582.1,1043.4Z" transform="translate(-609.36 -109.05)" fill="none" stroke="#ff1d68" stroke-miterlimit="10" stroke-width="0.56"/><path d="M1516.9,1043.4l-1.6-.6a4.46,4.46,0,0,0,2-1.7,4.73,4.73,0,0,0-.3-5.5,21,21,0,0,0-2.6-2.4,23,23,0,0,1-2.2-2,17,17,0,0,1-2.3-3.6v-1.3a1.5,1.5,0,0,0-1.1-1.4l-2.4-.8a38.68,38.68,0,0,1-3.6-16.4v-2.8h4.5a1.52,1.52,0,0,0,1.2-.7l1.2-1.8a1.41,1.41,0,0,0,.1-1.4v-.1a2,2,0,0,0-.8-.8l-6.7-3.3a13.1,13.1,0,1,0-11.6,0l-6.7,3.3a2,2,0,0,0-.8.8v.1a1.41,1.41,0,0,0,.1,1.4l1.2,1.8a1.39,1.39,0,0,0,1.2.7h4.5v2.8a38.39,38.39,0,0,1-3.6,16.4l-2.4.8a1.6,1.6,0,0,0-1.1,1.4v1.2a13.47,13.47,0,0,1-2.3,3.7,15.43,15.43,0,0,1-2.2,2,21,21,0,0,0-2.6,2.4,4.71,4.71,0,0,0-.3,5.5,6,6,0,0,0,2,1.7l-1.6.6a1.84,1.84,0,0,0-1.2,1.7v2.3a1.7,1.7,0,0,0,1.1,1.5,11.91,11.91,0,0,0,4,1h.6V1063h32v-13.1h.5a16.61,16.61,0,0,0,4-1,1.58,1.58,0,0,0,1.1-1.5v-2.3A2.1,2.1,0,0,0,1516.9,1043.4Z" transform="translate(-609.36 -109.05)" fill="none" stroke="#ff1d68" stroke-miterlimit="10" stroke-width="0.56"/><path d="M1451.6,1043.4l-1.6-.6a4.46,4.46,0,0,0,2-1.7,4.73,4.73,0,0,0-.3-5.5,21,21,0,0,0-2.6-2.4,23,23,0,0,1-2.2-2,17,17,0,0,1-2.3-3.6v-1.3a1.5,1.5,0,0,0-1.1-1.4l-2.4-.8a38.68,38.68,0,0,1-3.6-16.4v-2.8h4.5a1.52,1.52,0,0,0,1.2-.7l1.2-1.8a1.41,1.41,0,0,0,.1-1.4v-.1a2,2,0,0,0-.8-.8l-6.7-3.3a13.1,13.1,0,1,0-11.6,0l-6.7,3.3a2,2,0,0,0-.8.8v.1a1.41,1.41,0,0,0,.1,1.4l1.2,1.8a1.39,1.39,0,0,0,1.2.7h4.5v2.8a38.39,38.39,0,0,1-3.6,16.4l-2.4.8a1.6,1.6,0,0,0-1.1,1.4v1.2a13.47,13.47,0,0,1-2.3,3.7,15.43,15.43,0,0,1-2.2,2,21,21,0,0,0-2.6,2.4,4.71,4.71,0,0,0-.3,5.5,6,6,0,0,0,2,1.7l-1.6.6a1.84,1.84,0,0,0-1.2,1.7v2.3a1.7,1.7,0,0,0,1.1,1.5,11.91,11.91,0,0,0,4,1h.6V1063h32v-13.1h.5a16.61,16.61,0,0,0,4-1,1.58,1.58,0,0,0,1.1-1.5v-2.3A2.1,2.1,0,0,0,1451.6,1043.4Z" transform="translate(-609.36 -109.05)" fill="none" stroke="#ff1d68" stroke-miterlimit="10" stroke-width="0.56"/><path d="M1523.1,1336.1l-1.6-.6a6.73,6.73,0,0,0,2.6-2.3,6.29,6.29,0,0,0-.3-6.8c-.7-1-1.7-2.3-2.7-3.5-.6-.8-1.3-1.6-1.7-2.2a11.85,11.85,0,0,1-1.9-4.9v-.7h0v-.4a1.14,1.14,0,0,0-.3-.8,1.16,1.16,0,0,0-.7-.5l-2.1-.8h-.1a.81.81,0,0,1,0-1.6h2.9l.2-.4c.7-1.4,1.3-2.9,1.9-4.4l.5-1.3-1.3.3c-1.2.3-2.3.6-3.6.8a47.38,47.38,0,0,0,5.4-3.1l.2-.1.1-.2a63.66,63.66,0,0,0,2.1-9.1l.2-1.4-1.3.7a47.16,47.16,0,0,1-10,4,44.08,44.08,0,0,0,11.9-12.2l.1-.2v-.2a57.21,57.21,0,0,0-.3-8.5c-.1-.5-.1-1-.2-1.5l-.2-1.6-1,1.2a39.73,39.73,0,0,1-7.3,7.1,34.71,34.71,0,0,0,6.3-15.5v-.2l-.1-.2a33,33,0,0,0-3.3-6.8l-.9-1.5-.3,1.7a30.85,30.85,0,0,1-2.2,6.7,28.35,28.35,0,0,0-.9-12.3l-.1-.2-.1-.1a42.3,42.3,0,0,0-4.1-3.3l-1.2-.8.1,1.4a32.27,32.27,0,0,1-.1,5.4,23.71,23.71,0,0,0-2.6-7.9l-.1-.2-.2-.1a31.4,31.4,0,0,0-9.8-2.5c-5.6-2.8-9.2-4.1-11.2-4.1a3,3,0,0,0-2.1.7,1.64,1.64,0,0,0-.7,1.1c-.2,1.3,1.1,2.7,2.9,4.8.6.7,1.3,1.5,1.9,2.3a1.2,1.2,0,0,1,.3.6l-.2.2a1.38,1.38,0,0,1-.4.3,20.27,20.27,0,0,0-4.4,4l-.1.1c-2.7,5.1-7.9,10.3-9.6,12l-.2.2a4.24,4.24,0,0,0-1.3,3.4c.2,3.2.6,7,1.7,7.7a2.6,2.6,0,0,0,1.5.4,6.08,6.08,0,0,0,2.7-.8c.1,0,.1-.1.2-.1-.1.1-.1.2-.2.3a4.32,4.32,0,0,0-.8,2.8c.3,1.3,2.5,1.4,3.8,1.4.7,0,3-.1,3.8-.9a8.06,8.06,0,0,0,1.2-1.8,7.25,7.25,0,0,1,1.8-2.5,15.08,15.08,0,0,1,6.9-1.8h.2a6,6,0,0,1,2.5.4,1,1,0,0,1,.4.9c0,.6-.2,2-2.2,4.2-11,11.9-13.9,18.8-15.1,21.8-.8,1.9-.6,2.6,0,3.8l.1.2c.6,1.4,2.3,4.5,2.4,4.6l.2.4h2.7a.81.81,0,0,1,0,1.6h-.1l-2.1.8a1.79,1.79,0,0,0-.7.5,1.14,1.14,0,0,0-.3.8v1.1a11,11,0,0,1-1.9,4.9c-.5.6-1.1,1.4-1.7,2.2-1,1.2-2,2.5-2.7,3.5a6.5,6.5,0,0,0-.3,6.8,6.73,6.73,0,0,0,2.6,2.3l-1.6.6a2,2,0,0,0-1.2,1.7v2.3a1.43,1.43,0,0,0,1.1,1.4,11.91,11.91,0,0,0,4,1h4.2v13.1h32v-13.1h4.2a16.61,16.61,0,0,0,4-1,1.54,1.54,0,0,0,1.1-1.4v-2.3A1.78,1.78,0,0,0,1523.1,1336.1Z" transform="translate(-609.36 -109.05)" fill="none" stroke="#ff1d68" stroke-miterlimit="10" stroke-width="0.56"/><path d="M1458,1336.1l-1.6-.6a6.73,6.73,0,0,0,2.6-2.3,6.29,6.29,0,0,0-.3-6.8c-.7-1-1.7-2.3-2.7-3.5-.6-.8-1.3-1.6-1.7-2.2a11.85,11.85,0,0,1-1.9-4.9v-.7h0v-.4a1.14,1.14,0,0,0-.3-.8,1.16,1.16,0,0,0-.7-.5l-2.1-.8h-.1a.81.81,0,0,1,0-1.6h2.9l.2-.4c.7-1.4,1.3-2.9,1.9-4.4l.5-1.3-1.3.3c-1.2.3-2.3.6-3.6.8a47.38,47.38,0,0,0,5.4-3.1l.2-.1.1-.2a63.66,63.66,0,0,0,2.1-9.1l.2-1.4-1.3.7a47.16,47.16,0,0,1-10,4,44.08,44.08,0,0,0,11.9-12.2l.1-.2v-.2a57.21,57.21,0,0,0-.3-8.5c-.1-.5-.1-1-.2-1.5l-.2-1.6-1,1.2a39.73,39.73,0,0,1-7.3,7.1,34.71,34.71,0,0,0,6.3-15.5v-.2l-.1-.2a33,33,0,0,0-3.3-6.8l-.9-1.5-.3,1.7a30.85,30.85,0,0,1-2.2,6.7,28.35,28.35,0,0,0-.9-12.3l-.1-.2-.1-.1a42.3,42.3,0,0,0-4.1-3.3l-1.2-.8.1,1.4a32.27,32.27,0,0,1-.1,5.4,23.71,23.71,0,0,0-2.6-7.9l-.1-.2-.2-.1a31.4,31.4,0,0,0-9.8-2.5c-5.6-2.8-9.2-4.1-11.2-4.1a3,3,0,0,0-2.1.7,1.64,1.64,0,0,0-.7,1.1c-.2,1.3,1.1,2.7,2.9,4.8.6.7,1.3,1.5,1.9,2.3a1.2,1.2,0,0,1,.3.6l-.2.2a1.38,1.38,0,0,1-.4.3,20.27,20.27,0,0,0-4.4,4l-.1.1c-2.7,5.1-7.9,10.3-9.6,12l-.2.2a4.24,4.24,0,0,0-1.3,3.4c.2,3.2.6,7,1.7,7.7a2.6,2.6,0,0,0,1.5.4,6.08,6.08,0,0,0,2.7-.8c.1,0,.1-.1.2-.1-.1.1-.1.2-.2.3a4.32,4.32,0,0,0-.8,2.8c.3,1.3,2.5,1.4,3.8,1.4.7,0,3-.1,3.8-.9a8.06,8.06,0,0,0,1.2-1.8,7.25,7.25,0,0,1,1.8-2.5,15.08,15.08,0,0,1,6.9-1.8h.2a6,6,0,0,1,2.5.4,1,1,0,0,1,.4.9c0,.6-.2,2-2.2,4.2-11,11.9-13.9,18.8-15.1,21.8-.8,1.9-.6,2.6,0,3.8l.1.2c.6,1.4,2.3,4.5,2.4,4.6l.2.4h2.7a.81.81,0,0,1,0,1.6h-.1l-2.1.8a1.79,1.79,0,0,0-.7.5,1.14,1.14,0,0,0-.3.8v1.1a11,11,0,0,1-1.9,4.9c-.5.6-1.1,1.4-1.7,2.2-1,1.2-2,2.5-2.7,3.5a6.5,6.5,0,0,0-.3,6.8,6.73,6.73,0,0,0,2.6,2.3l-1.6.6a2,2,0,0,0-1.2,1.7v2.3a1.43,1.43,0,0,0,1.1,1.4,11.91,11.91,0,0,0,4,1h4.2v13.1h32v-13.1h4.2a16.61,16.61,0,0,0,4-1,1.54,1.54,0,0,0,1.1-1.4v-2.3A1.91,1.91,0,0,0,1458,1336.1Z" transform="translate(-609.36 -109.05)" fill="none" stroke="#ff1d68" stroke-miterlimit="10" stroke-width="0.56"/><path d="M1587.8,1348.7v2.3a1.7,1.7,0,0,1-1.1,1.5,11.91,11.91,0,0,1-4,1h-4.2v13h-32v-13h-4.2a16.61,16.61,0,0,1-4-1,1.58,1.58,0,0,1-1.1-1.5v-2.3a1.84,1.84,0,0,1,1.2-1.7l1.6-.6a6.73,6.73,0,0,1-2.6-2.3,6.29,6.29,0,0,1,.3-6.8,24.4,24.4,0,0,1,2.8-3.1,23.88,23.88,0,0,0,2.3-2.6,21.24,21.24,0,0,0,2.7-4.9v-1.1a1.14,1.14,0,0,1,.3-.8,1.16,1.16,0,0,1,.7-.5l2-.7a56.08,56.08,0,0,0,6.2-25.5,59.58,59.58,0,0,0-2.1-14.3H1549a2.9,2.9,0,0,1,0-5.8h.4v-1.2a1.79,1.79,0,0,1,1.8-1.8h1.8v-4.3a1.81,1.81,0,0,1-1.4-1.7,1.9,1.9,0,0,1,.8-1.5c-1.2-2.3-5.1-10.2-5.1-15.8,0-7.2,7.8-14.2,12.6-17.3a2.64,2.64,0,0,1-.7-1.9,3.15,3.15,0,0,1,3.3-3,3.21,3.21,0,0,1,3.3,3,3.41,3.41,0,0,1-.7,1.9c4.8,3.1,12.6,10.1,12.6,17.3,0,5.6-3.9,13.5-5.1,15.8a1.76,1.76,0,0,1,.8,1.5,1.72,1.72,0,0,1-1.4,1.7v4.3h1.8a1.79,1.79,0,0,1,1.8,1.8v1.2h.4a2.9,2.9,0,1,1,0,5.8h-3.6a58.2,58.2,0,0,0-2.1,14.3,56.08,56.08,0,0,0,6.2,25.5l2,.7a1.79,1.79,0,0,1,.7.5,1.14,1.14,0,0,1,.3.8v1.1a15.37,15.37,0,0,0,2.7,4.9,23.88,23.88,0,0,0,2.3,2.6,24.4,24.4,0,0,1,2.8,3.1,6.29,6.29,0,0,1,.3,6.8,6.73,6.73,0,0,1-2.6,2.3l1.6.6A1.74,1.74,0,0,1,1587.8,1348.7Z" transform="translate(-609.36 -109.05)" fill="none" stroke="#ff1d68" stroke-miterlimit="10" stroke-width="0.56"/><path d="M1652.9,1348.7v2.3a1.7,1.7,0,0,1-1.1,1.5,11.91,11.91,0,0,1-4,1h-4.2v13h-32v-13h-4.2a16.61,16.61,0,0,1-4-1,1.58,1.58,0,0,1-1.1-1.5v-2.3a1.84,1.84,0,0,1,1.2-1.7l1.6-.6a6.73,6.73,0,0,1-2.6-2.3,6.29,6.29,0,0,1,.3-6.8,24.4,24.4,0,0,1,2.8-3.1,23.88,23.88,0,0,0,2.3-2.6,21.24,21.24,0,0,0,2.7-4.9v-1.1a1.14,1.14,0,0,1,.3-.8,1.16,1.16,0,0,1,.7-.5l2-.7a56.08,56.08,0,0,0,6.2-25.5,59.58,59.58,0,0,0-2.1-14.3h-3.6a2.9,2.9,0,1,1,0-5.8h.4v-1.2a1.79,1.79,0,0,1,1.8-1.8h1.8v-4.3a1.81,1.81,0,0,1-1.4-1.7,1.9,1.9,0,0,1,.8-1.5c-1.2-2.3-5.1-10.2-5.1-15.8,0-7.2,7.8-14.2,12.6-17.3a2.64,2.64,0,0,1-.7-1.9,3.15,3.15,0,0,1,3.3-3,3.21,3.21,0,0,1,3.3,3,3.41,3.41,0,0,1-.7,1.9c4.8,3.1,12.6,10.1,12.6,17.3,0,5.6-3.9,13.5-5.1,15.8a1.76,1.76,0,0,1,.8,1.5,1.72,1.72,0,0,1-1.4,1.7v4.3h1.8a1.79,1.79,0,0,1,1.8,1.8v1.2h.4a2.9,2.9,0,1,1,0,5.8h-3.6a58.2,58.2,0,0,0-2.1,14.3,56.08,56.08,0,0,0,6.2,25.5l2,.7a1.79,1.79,0,0,1,.7.5,1.14,1.14,0,0,1,.3.8v1.1a15.37,15.37,0,0,0,2.7,4.9,23.88,23.88,0,0,0,2.3,2.6,24.4,24.4,0,0,1,2.8,3.1,6.29,6.29,0,0,1,.3,6.8,6.73,6.73,0,0,1-2.6,2.3l1.6.6A1.74,1.74,0,0,1,1652.9,1348.7Z" transform="translate(-609.36 -109.05)" fill="none" stroke="#ff1d68" stroke-miterlimit="10" stroke-width="0.56"/><path d="M1458,1543.7a6.93,6.93,0,0,0-.3-7.4,29.92,29.92,0,0,0-3.1-3.4,30.81,30.81,0,0,1-2.6-2.8,22.34,22.34,0,0,1-3-5.4v-1.2a1.5,1.5,0,0,0-1-1.4l-1.9-.7a100.7,100.7,0,0,1-7-37.2,106.31,106.31,0,0,1,2.4-20.8h3.4a2.9,2.9,0,0,0,0-5.8h-.4v-1.2a1.79,1.79,0,0,0-1.8-1.8h-1.8v-4.2a1.83,1.83,0,0,0,1.4-1.8,1.9,1.9,0,0,0-1.9-1.9h-.3a19.77,19.77,0,0,1,9.2-16.6l.1-.1a1,1,0,0,0,0-1.4h-.1a3.51,3.51,0,0,0-.8-.5,1.49,1.49,0,0,0-.9-.2h-.3a14.91,14.91,0,0,0-4.4,1c-.1-.1-.1-.2-.2-.2a2.25,2.25,0,0,0-.5-.5,1.71,1.71,0,0,0-1.3-.3h-.1a11,11,0,0,0-7.6-8.4,3.41,3.41,0,0,0,.7-1.9,3.81,3.81,0,0,0-7.6,0,2.64,2.64,0,0,0,.7,1.9,11,11,0,0,0-7.6,8.4h-.1a1.16,1.16,0,0,0-1.3.3c-.2.2-.4.4-.4.5l-.2.2a15.58,15.58,0,0,0-4.4-1h-.1a3,3,0,0,0-1,.2,5.58,5.58,0,0,1-.8.5h0a1.08,1.08,0,0,0-.3.7.78.78,0,0,0,.3.7l.1.1a19.67,19.67,0,0,1,9.2,16.6h-.3a1.9,1.9,0,0,0-1.9,1.9,1.83,1.83,0,0,0,1.4,1.8v4.2h-1.8a1.79,1.79,0,0,0-1.8,1.8v1.2h-.4a2.9,2.9,0,1,0,0,5.8h3.4a107.17,107.17,0,0,1,2.4,20.8,101.88,101.88,0,0,1-7,37.2l-1.9.7a1.5,1.5,0,0,0-1,1.4v1.2a19.17,19.17,0,0,1-3,5.4,30.81,30.81,0,0,1-2.6,2.8,29.92,29.92,0,0,0-3.1,3.4,6.91,6.91,0,0,0-.3,7.4,6.81,6.81,0,0,0,3,2.5l-1.6.6a1.84,1.84,0,0,0-1.2,1.7v2.3a1.7,1.7,0,0,0,1.1,1.5,11.91,11.91,0,0,0,4,1h6.5v13h32v-12.9h6.5a16.61,16.61,0,0,0,4-1,1.58,1.58,0,0,0,1.1-1.5v-2.3a1.84,1.84,0,0,0-1.2-1.7l-1.6-.6A9.72,9.72,0,0,0,1458,1543.7Z" transform="translate(-609.36 -109.05)" fill="none" stroke="#ff1d68" stroke-miterlimit="10" stroke-width="0.56"/><path d="M1575.1,1437.7h-31.2v14.5a2,2,0,0,0,1.9,1.9h1.1v.5a2,2,0,0,0,1.9,1.9h1.8v.8h-1.3v2.3c0,.3.1.6.1.8a1.28,1.28,0,0,0,.5.7l.6.4c-.4,22.2-2.2,34.7-2.6,37.3a2.34,2.34,0,0,0-1.7,2.2,2.38,2.38,0,0,0,1.6,2.2v.9h-1.6v.7a15.75,15.75,0,0,1-2.7,5.1,12.57,12.57,0,0,1-2,2,13.62,13.62,0,0,0-2.4,2.4,5.51,5.51,0,0,0-.3,6.3,5.8,5.8,0,0,0,2.6,2.2l-1.6.6a1.84,1.84,0,0,0-1.2,1.7v2.3a1.7,1.7,0,0,0,1.1,1.5,11.91,11.91,0,0,0,4,1h4.2v13h32v-13h4.2a16.61,16.61,0,0,0,4-1,1.58,1.58,0,0,0,1.1-1.5v-2.3a1.84,1.84,0,0,0-1.2-1.7l-1.6-.6a6.37,6.37,0,0,0,2.6-2.2,5.53,5.53,0,0,0-.3-6.3,10.92,10.92,0,0,0-2.4-2.4,12.57,12.57,0,0,1-2-2,21.35,21.35,0,0,1-2.7-5.1v-.7H1580v-.9a2.38,2.38,0,0,0,1.6-2.2,2.34,2.34,0,0,0-1.7-2.2c-.4-2.6-2.2-15.1-2.6-37.3l.6-.4a2.17,2.17,0,0,0,.6-.7,2.49,2.49,0,0,0,.1-.8v-2.3h-1.4v-.8h1.8a1.9,1.9,0,0,0,1.9-1.9v-.5h1.1a1.9,1.9,0,0,0,1.9-1.9v-14.5h-8.8" transform="translate(-609.36 -109.05)" fill="none" stroke="#ff1d68" stroke-miterlimit="10" stroke-width="0.56"/><path d="M1641.9,1437.7h-31.2v14.5a2,2,0,0,0,1.9,1.9h1.1v.5a2,2,0,0,0,1.9,1.9h1.8v.8h-1.3v2.3c0,.3.1.6.1.8a1.28,1.28,0,0,0,.5.7l.6.4c-.4,22.2-2.2,34.7-2.6,37.3a2.34,2.34,0,0,0-1.7,2.2,2.38,2.38,0,0,0,1.6,2.2v.9H1613v.7a15.75,15.75,0,0,1-2.7,5.1,12.57,12.57,0,0,1-2,2,13.62,13.62,0,0,0-2.4,2.4,5.51,5.51,0,0,0-.3,6.3,5.8,5.8,0,0,0,2.6,2.2l-1.6.6a1.84,1.84,0,0,0-1.2,1.7v2.3a1.7,1.7,0,0,0,1.1,1.5,11.91,11.91,0,0,0,4,1h4.2v13h32v-13h4.2a16.61,16.61,0,0,0,4-1,1.58,1.58,0,0,0,1.1-1.5v-2.3a1.84,1.84,0,0,0-1.2-1.7l-1.6-.6a6.37,6.37,0,0,0,2.6-2.2,5.53,5.53,0,0,0-.3-6.3,10.92,10.92,0,0,0-2.4-2.4,12.57,12.57,0,0,1-2-2,21.35,21.35,0,0,1-2.7-5.1v-.7h-1.6v-.9a2.38,2.38,0,0,0,1.6-2.2,2.34,2.34,0,0,0-1.7-2.2c-.4-2.6-2.2-15.1-2.6-37.3l.6-.4a2.17,2.17,0,0,0,.6-.7,2.49,2.49,0,0,0,.1-.8v-2.3H1644v-.8h1.8a1.9,1.9,0,0,0,1.9-1.9v-.5h1.1a1.9,1.9,0,0,0,1.9-1.9v-14.5h-8.8" transform="translate(-609.36 -109.05)" fill="none" stroke="#ff1d68" stroke-miterlimit="10" stroke-width="0.56"/><path d="M1526.5,1558.9a7.39,7.39,0,0,0-.3-7.8,21.17,21.17,0,0,0-3.3-3.6,34.57,34.57,0,0,1-2.8-3,25.64,25.64,0,0,1-3.2-5.7v-1.3a1.5,1.5,0,0,0-1-1.4l-2-.8a113.47,113.47,0,0,1-7-40.5,116.47,116.47,0,0,1,2.1-21.3h3.7a3.1,3.1,0,0,0,0-6.2h-.5V1466a1.9,1.9,0,0,0-1.9-1.9h-2.1v-4.6a1.92,1.92,0,0,0,1.5-1.8,2,2,0,0,0-1.2-1.8l8.5-20.4a3.18,3.18,0,0,0-3-4.4h-10.2a2.41,2.41,0,0,0,.4-1.5,2.81,2.81,0,0,0-1-2.1l1.3-.5.6-.3-2.4-5.9,6.3,1.8v-13.1l-6.3,1.8,2.4-5.9-.6-.3a16.38,16.38,0,0,0-4.3-1.3,3.29,3.29,0,0,0,.4-1.7,3.65,3.65,0,1,0-7.3,0,4.71,4.71,0,0,0,.4,1.7,16.38,16.38,0,0,0-4.3,1.3l-.6.3,2.4,5.9-6.3-1.8v13.1l6.3-1.8-2.4,5.9.6.3a5.21,5.21,0,0,0,1.3.5,2.81,2.81,0,0,0-1,2.1,3.71,3.71,0,0,0,.4,1.5h-10.2a3.18,3.18,0,0,0-3,4.4l8.5,20.4a1.87,1.87,0,0,0-1.2,1.8,1.75,1.75,0,0,0,1.5,1.8v4.6h-2.1a1.9,1.9,0,0,0-1.9,1.9v1.3h-.5a3.1,3.1,0,0,0,0,6.2h3.7a108.3,108.3,0,0,1,2.1,21.3,113.47,113.47,0,0,1-7,40.5l-2,.7a1.6,1.6,0,0,0-1.1,1.4v1.3c0,.6-1.6,3.7-3.2,5.8a34.57,34.57,0,0,1-2.8,3,32.92,32.92,0,0,0-3.3,3.6,7.39,7.39,0,0,0-.3,7.8,7,7,0,0,0,3.2,2.7l-1.6.6a1.84,1.84,0,0,0-1.2,1.7v2.3a1.7,1.7,0,0,0,1.1,1.5,11.91,11.91,0,0,0,4,1h8v13h32v-13h8a16.61,16.61,0,0,0,4-1,1.58,1.58,0,0,0,1.1-1.5v-2.3a1.84,1.84,0,0,0-1.2-1.7l-1.6-.6A6.16,6.16,0,0,0,1526.5,1558.9Z" transform="translate(-609.36 -109.05)" fill="none" stroke="#ff1d68" stroke-miterlimit="10" stroke-width="0.56"/><path d="M1149.79,1168.6l-1.6-.6a4.46,4.46,0,0,0,2-1.7,4.73,4.73,0,0,0-.3-5.5,21,21,0,0,0-2.6-2.4,23,23,0,0,1-2.2-2,17,17,0,0,1-2.3-3.6v-1.3a1.5,1.5,0,0,0-1.1-1.4l-2.4-.8a38.68,38.68,0,0,1-3.6-16.4v-2.8h4.5a1.52,1.52,0,0,0,1.2-.7l1.2-1.8a1.41,1.41,0,0,0,.1-1.4v-.1a2,2,0,0,0-.8-.8l-6.7-3.3a13.1,13.1,0,1,0-11.6,0l-6.7,3.3a2,2,0,0,0-.8.8v.1a1.41,1.41,0,0,0,.1,1.4l1.2,1.8a1.39,1.39,0,0,0,1.2.7h4.5v2.8a38.39,38.39,0,0,1-3.6,16.4l-2.4.8a1.6,1.6,0,0,0-1.1,1.4v1.2a13.47,13.47,0,0,1-2.3,3.7,15.43,15.43,0,0,1-2.2,2,21,21,0,0,0-2.6,2.4,4.71,4.71,0,0,0-.3,5.5,6,6,0,0,0,2,1.7l-1.6.6a1.84,1.84,0,0,0-1.2,1.7v2.3a1.7,1.7,0,0,0,1.1,1.5,11.91,11.91,0,0,0,4,1h.6v13.1h32v-13.1h.5a16.61,16.61,0,0,0,4-1,1.58,1.58,0,0,0,1.1-1.5v-2.3A2,2,0,0,0,1149.79,1168.6Z" transform="translate(-609.36 -109.05)" fill="none" stroke="#ff1d68" stroke-miterlimit="10" stroke-width="0.56"/><path d="M1084.49,1168.6l-1.6-.6a4.46,4.46,0,0,0,2-1.7,4.73,4.73,0,0,0-.3-5.5,21,21,0,0,0-2.6-2.4,23,23,0,0,1-2.2-2,17,17,0,0,1-2.3-3.6v-1.3a1.5,1.5,0,0,0-1.1-1.4l-2.4-.8a38.68,38.68,0,0,1-3.6-16.4v-2.8h4.5a1.52,1.52,0,0,0,1.2-.7l1.2-1.8a1.41,1.41,0,0,0,.1-1.4v-.1a2,2,0,0,0-.8-.8l-6.7-3.3a13.1,13.1,0,1,0-11.6,0l-6.7,3.3a2,2,0,0,0-.8.8v.1a1.41,1.41,0,0,0,.1,1.4l1.2,1.8a1.39,1.39,0,0,0,1.2.7h4.5v2.8a38.39,38.39,0,0,1-3.6,16.4l-2.4.8a1.6,1.6,0,0,0-1.1,1.4v1.2a13.47,13.47,0,0,1-2.3,3.7,15.43,15.43,0,0,1-2.2,2,21,21,0,0,0-2.6,2.4,4.71,4.71,0,0,0-.3,5.5,6,6,0,0,0,2,1.7l-1.6.6a1.84,1.84,0,0,0-1.2,1.7v2.3a1.7,1.7,0,0,0,1.1,1.5,11.91,11.91,0,0,0,4,1h.6v13.1h32v-13.1h.5a16.61,16.61,0,0,0,4-1,1.58,1.58,0,0,0,1.1-1.5v-2.3A2,2,0,0,0,1084.49,1168.6Z" transform="translate(-609.36 -109.05)" fill="none" stroke="#ff1d68" stroke-miterlimit="10" stroke-width="0.56"/><path d="M1019.29,1168.6l-1.6-.6a4.46,4.46,0,0,0,2-1.7,4.73,4.73,0,0,0-.3-5.5,21,21,0,0,0-2.6-2.4,23,23,0,0,1-2.2-2,17,17,0,0,1-2.3-3.6v-1.3a1.5,1.5,0,0,0-1.1-1.4l-2.4-.8a38.68,38.68,0,0,1-3.6-16.4v-2.8h4.5a1.52,1.52,0,0,0,1.2-.7l1.2-1.8a1.41,1.41,0,0,0,.1-1.4v-.1a2,2,0,0,0-.8-.8l-6.7-3.3a13.1,13.1,0,1,0-11.6,0l-6.7,3.3a2,2,0,0,0-.8.8v.1a1.41,1.41,0,0,0,.1,1.4l1.2,1.8a1.39,1.39,0,0,0,1.2.7h4.5v2.8a38.39,38.39,0,0,1-3.6,16.4l-2.4.8a1.6,1.6,0,0,0-1.1,1.4v1.2a13.47,13.47,0,0,1-2.3,3.7,15.43,15.43,0,0,1-2.2,2,21,21,0,0,0-2.6,2.4,4.71,4.71,0,0,0-.3,5.5,6,6,0,0,0,2,1.7l-1.6.6a1.84,1.84,0,0,0-1.2,1.7v2.3a1.7,1.7,0,0,0,1.1,1.5,11.91,11.91,0,0,0,4,1h.6v13.1h32v-13.1h.5a16.61,16.61,0,0,0,4-1,1.58,1.58,0,0,0,1.1-1.5v-2.3A2,2,0,0,0,1019.29,1168.6Z" transform="translate(-609.36 -109.05)" fill="none" stroke="#ff1d68" stroke-miterlimit="10" stroke-width="0.56"/><path d="M954,1168.6l-1.6-.6a4.46,4.46,0,0,0,2-1.7,4.73,4.73,0,0,0-.3-5.5,21,21,0,0,0-2.6-2.4,23,23,0,0,1-2.2-2,17,17,0,0,1-2.3-3.6v-1.3a1.5,1.5,0,0,0-1.1-1.4l-2.4-.8a38.68,38.68,0,0,1-3.6-16.4v-2.8h4.5a1.52,1.52,0,0,0,1.2-.7l1.2-1.8a1.41,1.41,0,0,0,.1-1.4v-.1a2,2,0,0,0-.8-.8l-6.7-3.3a13.1,13.1,0,1,0-11.6,0l-6.7,3.3a2,2,0,0,0-.8.8v.1a1.41,1.41,0,0,0,.1,1.4l1.2,1.8a1.39,1.39,0,0,0,1.2.7h4.5v2.8a38.39,38.39,0,0,1-3.6,16.4l-2.4.8a1.6,1.6,0,0,0-1.1,1.4v1.2a13.47,13.47,0,0,1-2.3,3.7,15.43,15.43,0,0,1-2.2,2,21,21,0,0,0-2.6,2.4,4.71,4.71,0,0,0-.3,5.5,6,6,0,0,0,2,1.7l-1.6.6a1.84,1.84,0,0,0-1.2,1.7v2.3a1.7,1.7,0,0,0,1.1,1.5,11.91,11.91,0,0,0,4,1h.6v13.1h32v-13.1h.5a16.61,16.61,0,0,0,4-1,1.58,1.58,0,0,0,1.1-1.5v-2.3A2,2,0,0,0,954,1168.6Z" transform="translate(-609.36 -109.05)" fill="none" stroke="#ff1d68" stroke-miterlimit="10" stroke-width="0.56"/><path d="M1149.79,1043.4l-1.6-.6a4.46,4.46,0,0,0,2-1.7,4.73,4.73,0,0,0-.3-5.5,21,21,0,0,0-2.6-2.4,23,23,0,0,1-2.2-2,17,17,0,0,1-2.3-3.6v-1.3a1.5,1.5,0,0,0-1.1-1.4l-2.4-.8a38.68,38.68,0,0,1-3.6-16.4v-2.8h4.5a1.52,1.52,0,0,0,1.2-.7l1.2-1.8a1.41,1.41,0,0,0,.1-1.4v-.1a2,2,0,0,0-.8-.8l-6.7-3.3a13.1,13.1,0,1,0-11.6,0l-6.7,3.3a2,2,0,0,0-.8.8v.1a1.41,1.41,0,0,0,.1,1.4l1.2,1.8a1.39,1.39,0,0,0,1.2.7h4.5v2.8a38.39,38.39,0,0,1-3.6,16.4l-2.4.8a1.6,1.6,0,0,0-1.1,1.4v1.2a13.47,13.47,0,0,1-2.3,3.7,15.43,15.43,0,0,1-2.2,2,21,21,0,0,0-2.6,2.4,4.71,4.71,0,0,0-.3,5.5,6,6,0,0,0,2,1.7l-1.6.6a1.84,1.84,0,0,0-1.2,1.7v2.3a1.7,1.7,0,0,0,1.1,1.5,11.91,11.91,0,0,0,4,1h.6V1063h32v-13.1h.5a16.61,16.61,0,0,0,4-1,1.58,1.58,0,0,0,1.1-1.5v-2.3A2.1,2.1,0,0,0,1149.79,1043.4Z" transform="translate(-609.36 -109.05)" fill="none" stroke="#ff1d68" stroke-miterlimit="10" stroke-width="0.56"/><path d="M1084.49,1043.4l-1.6-.6a4.46,4.46,0,0,0,2-1.7,4.73,4.73,0,0,0-.3-5.5,21,21,0,0,0-2.6-2.4,23,23,0,0,1-2.2-2,17,17,0,0,1-2.3-3.6v-1.3a1.5,1.5,0,0,0-1.1-1.4l-2.4-.8a38.68,38.68,0,0,1-3.6-16.4v-2.8h4.5a1.52,1.52,0,0,0,1.2-.7l1.2-1.8a1.41,1.41,0,0,0,.1-1.4v-.1a2,2,0,0,0-.8-.8l-6.7-3.3a13.1,13.1,0,1,0-11.6,0l-6.7,3.3a2,2,0,0,0-.8.8v.1a1.41,1.41,0,0,0,.1,1.4l1.2,1.8a1.39,1.39,0,0,0,1.2.7h4.5v2.8a38.39,38.39,0,0,1-3.6,16.4l-2.4.8a1.6,1.6,0,0,0-1.1,1.4v1.2a13.47,13.47,0,0,1-2.3,3.7,15.43,15.43,0,0,1-2.2,2,21,21,0,0,0-2.6,2.4,4.71,4.71,0,0,0-.3,5.5,6,6,0,0,0,2,1.7l-1.6.6a1.84,1.84,0,0,0-1.2,1.7v2.3a1.7,1.7,0,0,0,1.1,1.5,11.91,11.91,0,0,0,4,1h.6V1063h32v-13.1h.5a16.61,16.61,0,0,0,4-1,1.58,1.58,0,0,0,1.1-1.5v-2.3A2.1,2.1,0,0,0,1084.49,1043.4Z" transform="translate(-609.36 -109.05)" fill="none" stroke="#ff1d68" stroke-miterlimit="10" stroke-width="0.56"/><path d="M1019.29,1043.4l-1.6-.6a4.46,4.46,0,0,0,2-1.7,4.73,4.73,0,0,0-.3-5.5,21,21,0,0,0-2.6-2.4,23,23,0,0,1-2.2-2,17,17,0,0,1-2.3-3.6v-1.3a1.5,1.5,0,0,0-1.1-1.4l-2.4-.8a38.68,38.68,0,0,1-3.6-16.4v-2.8h4.5a1.52,1.52,0,0,0,1.2-.7l1.2-1.8a1.41,1.41,0,0,0,.1-1.4v-.1a2,2,0,0,0-.8-.8l-6.7-3.3a13.1,13.1,0,1,0-11.6,0l-6.7,3.3a2,2,0,0,0-.8.8v.1a1.41,1.41,0,0,0,.1,1.4l1.2,1.8a1.39,1.39,0,0,0,1.2.7h4.5v2.8a38.39,38.39,0,0,1-3.6,16.4l-2.4.8a1.6,1.6,0,0,0-1.1,1.4v1.2a13.47,13.47,0,0,1-2.3,3.7,15.43,15.43,0,0,1-2.2,2,21,21,0,0,0-2.6,2.4,4.71,4.71,0,0,0-.3,5.5,6,6,0,0,0,2,1.7l-1.6.6a1.84,1.84,0,0,0-1.2,1.7v2.3a1.7,1.7,0,0,0,1.1,1.5,11.91,11.91,0,0,0,4,1h.6V1063h32v-13.1h.5a16.61,16.61,0,0,0,4-1,1.58,1.58,0,0,0,1.1-1.5v-2.3A2.1,2.1,0,0,0,1019.29,1043.4Z" transform="translate(-609.36 -109.05)" fill="none" stroke="#ff1d68" stroke-miterlimit="10" stroke-width="0.56"/><path d="M954,1043.4l-1.6-.6a4.46,4.46,0,0,0,2-1.7,4.73,4.73,0,0,0-.3-5.5,21,21,0,0,0-2.6-2.4,23,23,0,0,1-2.2-2,17,17,0,0,1-2.3-3.6v-1.3a1.5,1.5,0,0,0-1.1-1.4l-2.4-.8a38.68,38.68,0,0,1-3.6-16.4v-2.8h4.5a1.52,1.52,0,0,0,1.2-.7l1.2-1.8a1.41,1.41,0,0,0,.1-1.4v-.1a2,2,0,0,0-.8-.8l-6.7-3.3a13.1,13.1,0,1,0-11.6,0l-6.7,3.3a2,2,0,0,0-.8.8v.1a1.41,1.41,0,0,0,.1,1.4l1.2,1.8a1.39,1.39,0,0,0,1.2.7h4.5v2.8a38.39,38.39,0,0,1-3.6,16.4l-2.4.8a1.6,1.6,0,0,0-1.1,1.4v1.2a13.47,13.47,0,0,1-2.3,3.7,15.43,15.43,0,0,1-2.2,2,21,21,0,0,0-2.6,2.4,4.71,4.71,0,0,0-.3,5.5,6,6,0,0,0,2,1.7l-1.6.6a1.84,1.84,0,0,0-1.2,1.7v2.3a1.7,1.7,0,0,0,1.1,1.5,11.91,11.91,0,0,0,4,1h.6V1063h32v-13.1h.5a16.61,16.61,0,0,0,4-1,1.58,1.58,0,0,0,1.1-1.5v-2.3A2.1,2.1,0,0,0,954,1043.4Z" transform="translate(-609.36 -109.05)" fill="none" stroke="#ff1d68" stroke-miterlimit="10" stroke-width="0.56"/><path d="M1025.49,1336.1l-1.6-.6a6.73,6.73,0,0,0,2.6-2.3,6.29,6.29,0,0,0-.3-6.8c-.7-1-1.7-2.3-2.7-3.5-.6-.8-1.3-1.6-1.7-2.2a11.85,11.85,0,0,1-1.9-4.9v-.7h0v-.4a1.14,1.14,0,0,0-.3-.8,1.16,1.16,0,0,0-.7-.5l-2.1-.8h-.1a.81.81,0,0,1,0-1.6h2.9l.2-.4c.7-1.4,1.3-2.9,1.9-4.4l.5-1.3-1.3.3c-1.2.3-2.3.6-3.6.8a47.38,47.38,0,0,0,5.4-3.1l.2-.1.1-.2a63.66,63.66,0,0,0,2.1-9.1l.2-1.4-1.3.7a47.16,47.16,0,0,1-10,4,44.08,44.08,0,0,0,11.9-12.2l.1-.2v-.2a57.21,57.21,0,0,0-.3-8.5c-.1-.5-.1-1-.2-1.5l-.2-1.6-1,1.2a39.73,39.73,0,0,1-7.3,7.1,34.71,34.71,0,0,0,6.3-15.5v-.2l-.1-.2a33,33,0,0,0-3.3-6.8l-.9-1.5-.3,1.7a30.85,30.85,0,0,1-2.2,6.7,28.35,28.35,0,0,0-.9-12.3l-.1-.2-.1-.1a42.3,42.3,0,0,0-4.1-3.3l-1.2-.8.1,1.4a32.27,32.27,0,0,1-.1,5.4,23.71,23.71,0,0,0-2.6-7.9l-.1-.2-.2-.1a31.4,31.4,0,0,0-9.8-2.5c-5.6-2.8-9.2-4.1-11.2-4.1a3,3,0,0,0-2.1.7,1.64,1.64,0,0,0-.7,1.1c-.2,1.3,1.1,2.7,2.9,4.8.6.7,1.3,1.5,1.9,2.3a1.2,1.2,0,0,1,.3.6l-.2.2a1.38,1.38,0,0,1-.4.3,20.27,20.27,0,0,0-4.4,4l-.1.1c-2.7,5.1-7.9,10.3-9.6,12l-.2.2a4.24,4.24,0,0,0-1.3,3.4c.2,3.2.6,7,1.7,7.7a2.6,2.6,0,0,0,1.5.4,6.08,6.08,0,0,0,2.7-.8c.1,0,.1-.1.2-.1-.1.1-.1.2-.2.3a4.32,4.32,0,0,0-.8,2.8c.3,1.3,2.5,1.4,3.8,1.4.7,0,3-.1,3.8-.9a8.06,8.06,0,0,0,1.2-1.8,7.25,7.25,0,0,1,1.8-2.5,15.08,15.08,0,0,1,6.9-1.8h.2a6,6,0,0,1,2.5.4,1,1,0,0,1,.4.9c0,.6-.2,2-2.2,4.2-11,11.9-13.9,18.8-15.1,21.8-.8,1.9-.6,2.6,0,3.8l.1.2c.6,1.4,2.3,4.5,2.4,4.6l.2.4h2.7a.81.81,0,0,1,0,1.6H986l-2.1.8a1.79,1.79,0,0,0-.7.5,1.14,1.14,0,0,0-.3.8v1.1a11,11,0,0,1-1.9,4.9c-.5.6-1.1,1.4-1.7,2.2-1,1.2-2,2.5-2.7,3.5a6.5,6.5,0,0,0-.3,6.8,6.73,6.73,0,0,0,2.6,2.3l-1.6.6a2,2,0,0,0-1.2,1.7v2.3a1.43,1.43,0,0,0,1.1,1.4,11.91,11.91,0,0,0,4,1h4.2v13.1h32v-13.1h4.2a16.61,16.61,0,0,0,4-1,1.54,1.54,0,0,0,1.1-1.4v-2.3A1.78,1.78,0,0,0,1025.49,1336.1Z" transform="translate(-609.36 -109.05)" fill="none" stroke="#ff1d68" stroke-miterlimit="10" stroke-width="0.56"/><path d="M960.39,1336.1l-1.6-.6a6.73,6.73,0,0,0,2.6-2.3,6.29,6.29,0,0,0-.3-6.8c-.7-1-1.7-2.3-2.7-3.5-.6-.8-1.3-1.6-1.7-2.2a11.85,11.85,0,0,1-1.9-4.9v-.7h0v-.4a1.14,1.14,0,0,0-.3-.8,1.16,1.16,0,0,0-.7-.5l-2.1-.8h-.1a.81.81,0,0,1,0-1.6h2.9l.2-.4c.7-1.4,1.3-2.9,1.9-4.4l.5-1.3-1.3.3c-1.2.3-2.3.6-3.6.8a47.38,47.38,0,0,0,5.4-3.1l.2-.1.1-.2a63.66,63.66,0,0,0,2.1-9.1l.2-1.4-1.3.7a47.16,47.16,0,0,1-10,4,44.08,44.08,0,0,0,11.9-12.2l.1-.2v-.2a57.21,57.21,0,0,0-.3-8.5c-.1-.5-.1-1-.2-1.5l-.2-1.6-1,1.2a39.73,39.73,0,0,1-7.3,7.1,34.71,34.71,0,0,0,6.3-15.5v-.2l-.1-.2a33,33,0,0,0-3.3-6.8l-.9-1.5-.3,1.7a30.85,30.85,0,0,1-2.2,6.7,28.35,28.35,0,0,0-.9-12.3l-.1-.2-.1-.1a42.3,42.3,0,0,0-4.1-3.3l-1.2-.8.1,1.4a32.27,32.27,0,0,1-.1,5.4,23.71,23.71,0,0,0-2.6-7.9l-.1-.2-.2-.1a31.4,31.4,0,0,0-9.8-2.5c-5.6-2.8-9.2-4.1-11.2-4.1a3,3,0,0,0-2.1.7,1.64,1.64,0,0,0-.7,1.1c-.2,1.3,1.1,2.7,2.9,4.8.6.7,1.3,1.5,1.9,2.3a1.2,1.2,0,0,1,.3.6l-.2.2a1.38,1.38,0,0,1-.4.3,20.27,20.27,0,0,0-4.4,4l-.1.1c-2.7,5.1-7.9,10.3-9.6,12l-.2.2a4.24,4.24,0,0,0-1.3,3.4c.2,3.2.6,7,1.7,7.7a2.6,2.6,0,0,0,1.5.4,6.08,6.08,0,0,0,2.7-.8c.1,0,.1-.1.2-.1-.1.1-.1.2-.2.3a4.32,4.32,0,0,0-.8,2.8c.3,1.3,2.5,1.4,3.8,1.4.7,0,3-.1,3.8-.9a8.06,8.06,0,0,0,1.2-1.8,7.25,7.25,0,0,1,1.8-2.5,15.08,15.08,0,0,1,6.9-1.8h.2a6,6,0,0,1,2.5.4,1,1,0,0,1,.4.9c0,.6-.2,2-2.2,4.2-11,11.9-13.9,18.8-15.1,21.8-.8,1.9-.6,2.6,0,3.8l.1.2c.6,1.4,2.3,4.5,2.4,4.6l.2.4H921a.81.81,0,0,1,0,1.6h-.1l-2.1.8a1.79,1.79,0,0,0-.7.5,1.14,1.14,0,0,0-.3.8v1.1a11,11,0,0,1-1.9,4.9c-.5.6-1.1,1.4-1.7,2.2-1,1.2-2,2.5-2.7,3.5a6.5,6.5,0,0,0-.3,6.8,6.73,6.73,0,0,0,2.6,2.3l-1.6.6a2,2,0,0,0-1.2,1.7v2.3a1.43,1.43,0,0,0,1.1,1.4,11.91,11.91,0,0,0,4,1h4.2v13.1h32v-13.1h4.2a16.61,16.61,0,0,0,4-1,1.54,1.54,0,0,0,1.1-1.4v-2.3A1.91,1.91,0,0,0,960.39,1336.1Z" transform="translate(-609.36 -109.05)" fill="none" stroke="#ff1d68" stroke-miterlimit="10" stroke-width="0.56"/><path d="M1090.19,1348.7v2.3a1.7,1.7,0,0,1-1.1,1.5,11.91,11.91,0,0,1-4,1h-4.2v13h-32v-13h-4.2a16.61,16.61,0,0,1-4-1,1.58,1.58,0,0,1-1.1-1.5v-2.3a1.84,1.84,0,0,1,1.2-1.7l1.6-.6a6.73,6.73,0,0,1-2.6-2.3,6.29,6.29,0,0,1,.3-6.8,24.4,24.4,0,0,1,2.8-3.1,23.88,23.88,0,0,0,2.3-2.6,21.24,21.24,0,0,0,2.7-4.9v-1.1a1.14,1.14,0,0,1,.3-.8,1.16,1.16,0,0,1,.7-.5l2-.7a56.08,56.08,0,0,0,6.2-25.5,59.58,59.58,0,0,0-2.1-14.3h-3.6a2.9,2.9,0,0,1,0-5.8h.4v-1.2a1.79,1.79,0,0,1,1.8-1.8h1.8v-4.3a1.81,1.81,0,0,1-1.4-1.7,1.9,1.9,0,0,1,.8-1.5c-1.2-2.3-5.1-10.2-5.1-15.8,0-7.2,7.8-14.2,12.6-17.3a2.64,2.64,0,0,1-.7-1.9,3.15,3.15,0,0,1,3.3-3,3.21,3.21,0,0,1,3.3,3,3.41,3.41,0,0,1-.7,1.9c4.8,3.1,12.6,10.1,12.6,17.3,0,5.6-3.9,13.5-5.1,15.8a1.76,1.76,0,0,1,.8,1.5,1.72,1.72,0,0,1-1.4,1.7v4.3h1.8a1.79,1.79,0,0,1,1.8,1.8v1.2h.4a2.9,2.9,0,0,1,0,5.8h-3.6a58.2,58.2,0,0,0-2.1,14.3,56.08,56.08,0,0,0,6.2,25.5l2,.7a1.79,1.79,0,0,1,.7.5,1.14,1.14,0,0,1,.3.8v1.1a15.37,15.37,0,0,0,2.7,4.9,23.88,23.88,0,0,0,2.3,2.6,24.4,24.4,0,0,1,2.8,3.1,6.29,6.29,0,0,1,.3,6.8,6.73,6.73,0,0,1-2.6,2.3l1.6.6A1.74,1.74,0,0,1,1090.19,1348.7Z" transform="translate(-609.36 -109.05)" fill="none" stroke="#ff1d68" stroke-miterlimit="10" stroke-width="0.56"/><path d="M1155.29,1348.7v2.3a1.7,1.7,0,0,1-1.1,1.5,11.91,11.91,0,0,1-4,1H1146v13h-32v-13h-4.2a16.61,16.61,0,0,1-4-1,1.58,1.58,0,0,1-1.1-1.5v-2.3a1.84,1.84,0,0,1,1.2-1.7l1.6-.6a6.73,6.73,0,0,1-2.6-2.3,6.29,6.29,0,0,1,.3-6.8,24.4,24.4,0,0,1,2.8-3.1,23.88,23.88,0,0,0,2.3-2.6,21.24,21.24,0,0,0,2.7-4.9v-1.1a1.14,1.14,0,0,1,.3-.8,1.16,1.16,0,0,1,.7-.5l2-.7a56.08,56.08,0,0,0,6.2-25.5,59.58,59.58,0,0,0-2.1-14.3h-3.6a2.9,2.9,0,0,1,0-5.8h.4v-1.2a1.79,1.79,0,0,1,1.8-1.8h1.8v-4.3a1.81,1.81,0,0,1-1.4-1.7,1.9,1.9,0,0,1,.8-1.5c-1.2-2.3-5.1-10.2-5.1-15.8,0-7.2,7.8-14.2,12.6-17.3a2.64,2.64,0,0,1-.7-1.9,3.15,3.15,0,0,1,3.3-3,3.21,3.21,0,0,1,3.3,3,3.41,3.41,0,0,1-.7,1.9c4.8,3.1,12.6,10.1,12.6,17.3,0,5.6-3.9,13.5-5.1,15.8a1.76,1.76,0,0,1,.8,1.5,1.72,1.72,0,0,1-1.4,1.7v4.3h1.8a1.79,1.79,0,0,1,1.8,1.8v1.2h.4a2.9,2.9,0,0,1,0,5.8h-3.6a58.2,58.2,0,0,0-2.1,14.3,56.08,56.08,0,0,0,6.2,25.5l2,.7a1.79,1.79,0,0,1,.7.5,1.14,1.14,0,0,1,.3.8v1.1a15.37,15.37,0,0,0,2.7,4.9,23.88,23.88,0,0,0,2.3,2.6,24.4,24.4,0,0,1,2.8,3.1,6.29,6.29,0,0,1,.3,6.8,6.73,6.73,0,0,1-2.6,2.3l1.6.6A1.74,1.74,0,0,1,1155.29,1348.7Z" transform="translate(-609.36 -109.05)" fill="none" stroke="#ff1d68" stroke-miterlimit="10" stroke-width="0.56"/><path d="M960.39,1543.7a6.93,6.93,0,0,0-.3-7.4,29.92,29.92,0,0,0-3.1-3.4,30.81,30.81,0,0,1-2.6-2.8,22.34,22.34,0,0,1-3-5.4v-1.2a1.5,1.5,0,0,0-1-1.4l-1.9-.7a100.7,100.7,0,0,1-7-37.2,106.31,106.31,0,0,1,2.4-20.8h3.4a2.9,2.9,0,0,0,0-5.8h-.4v-1.2a1.79,1.79,0,0,0-1.8-1.8h-1.8v-4.2a1.83,1.83,0,0,0,1.4-1.8,1.9,1.9,0,0,0-1.9-1.9h-.3a19.77,19.77,0,0,1,9.2-16.6l.1-.1a1,1,0,0,0,0-1.4h-.1a3.51,3.51,0,0,0-.8-.5,1.49,1.49,0,0,0-.9-.2h-.3a14.91,14.91,0,0,0-4.4,1c-.1-.1-.1-.2-.2-.2a2.25,2.25,0,0,0-.5-.5,1.71,1.71,0,0,0-1.3-.3h-.1a11,11,0,0,0-7.6-8.4,3.41,3.41,0,0,0,.7-1.9,3.81,3.81,0,0,0-7.6,0,2.64,2.64,0,0,0,.7,1.9,11,11,0,0,0-7.6,8.4h-.1a1.16,1.16,0,0,0-1.3.3c-.2.2-.4.4-.4.5l-.2.2a15.58,15.58,0,0,0-4.4-1h-.1a3,3,0,0,0-1,.2,5.58,5.58,0,0,1-.8.5h0a1.08,1.08,0,0,0-.3.7.78.78,0,0,0,.3.7l.1.1a19.67,19.67,0,0,1,9.2,16.6h-.3a1.9,1.9,0,0,0-1.9,1.9,1.83,1.83,0,0,0,1.4,1.8v4.2h-1.8a1.79,1.79,0,0,0-1.8,1.8v1.2H918a2.9,2.9,0,1,0,0,5.8h3.4a107.17,107.17,0,0,1,2.4,20.8,101.88,101.88,0,0,1-7,37.2l-1.9.7a1.5,1.5,0,0,0-1,1.4v1.2a19.17,19.17,0,0,1-3,5.4,30.81,30.81,0,0,1-2.6,2.8,29.92,29.92,0,0,0-3.1,3.4,6.91,6.91,0,0,0-.3,7.4,6.81,6.81,0,0,0,3,2.5l-1.6.6a1.84,1.84,0,0,0-1.2,1.7v2.3a1.7,1.7,0,0,0,1.1,1.5,11.91,11.91,0,0,0,4,1h6.5v13h32v-12.9h6.5a16.61,16.61,0,0,0,4-1,1.58,1.58,0,0,0,1.1-1.5v-2.3a1.84,1.84,0,0,0-1.2-1.7l-1.6-.6A9.72,9.72,0,0,0,960.39,1543.7Z" transform="translate(-609.36 -109.05)" fill="none" stroke="#ff1d68" stroke-miterlimit="10" stroke-width="0.56"/><path d="M1077.49,1437.7h-31.2v14.5a2,2,0,0,0,1.9,1.9h1.1v.5a2,2,0,0,0,1.9,1.9h1.8v.8h-1.3v2.3c0,.3.1.6.1.8a1.28,1.28,0,0,0,.5.7l.6.4c-.4,22.2-2.2,34.7-2.6,37.3a2.34,2.34,0,0,0-1.7,2.2,2.38,2.38,0,0,0,1.6,2.2v.9h-1.6v.7a15.75,15.75,0,0,1-2.7,5.1,12.57,12.57,0,0,1-2,2,13.62,13.62,0,0,0-2.4,2.4,5.51,5.51,0,0,0-.3,6.3,5.8,5.8,0,0,0,2.6,2.2l-1.6.6a1.84,1.84,0,0,0-1.2,1.7v2.3a1.7,1.7,0,0,0,1.1,1.5,11.91,11.91,0,0,0,4,1h4.2v13h32v-13h4.2a16.61,16.61,0,0,0,4-1,1.58,1.58,0,0,0,1.1-1.5v-2.3a1.84,1.84,0,0,0-1.2-1.7l-1.6-.6a6.37,6.37,0,0,0,2.6-2.2,5.53,5.53,0,0,0-.3-6.3,10.92,10.92,0,0,0-2.4-2.4,12.57,12.57,0,0,1-2-2,21.35,21.35,0,0,1-2.7-5.1v-.7h-1.6v-.9a2.38,2.38,0,0,0,1.6-2.2,2.34,2.34,0,0,0-1.7-2.2c-.4-2.6-2.2-15.1-2.6-37.3l.6-.4a2.17,2.17,0,0,0,.6-.7,2.49,2.49,0,0,0,.1-.8v-2.3h-1.4v-.8h1.8a1.9,1.9,0,0,0,1.9-1.9v-.5h1.1a1.9,1.9,0,0,0,1.9-1.9v-14.5h-8.8" transform="translate(-609.36 -109.05)" fill="none" stroke="#ff1d68" stroke-miterlimit="10" stroke-width="0.56"/><path d="M1144.29,1437.7h-31.2v14.5a2,2,0,0,0,1.9,1.9h1.1v.5a2,2,0,0,0,1.9,1.9h1.8v.8h-1.3v2.3c0,.3.1.6.1.8a1.28,1.28,0,0,0,.5.7l.6.4c-.4,22.2-2.2,34.7-2.6,37.3a2.34,2.34,0,0,0-1.7,2.2,2.38,2.38,0,0,0,1.6,2.2v.9h-1.6v.7a15.75,15.75,0,0,1-2.7,5.1,12.57,12.57,0,0,1-2,2,13.62,13.62,0,0,0-2.4,2.4,5.51,5.51,0,0,0-.3,6.3,5.8,5.8,0,0,0,2.6,2.2l-1.6.6a1.84,1.84,0,0,0-1.2,1.7v2.3a1.7,1.7,0,0,0,1.1,1.5,11.91,11.91,0,0,0,4,1h4.2v13h32v-13h4.2a16.61,16.61,0,0,0,4-1,1.58,1.58,0,0,0,1.1-1.5v-2.3a1.84,1.84,0,0,0-1.2-1.7l-1.6-.6a6.37,6.37,0,0,0,2.6-2.2,5.53,5.53,0,0,0-.3-6.3,10.92,10.92,0,0,0-2.4-2.4,12.57,12.57,0,0,1-2-2,21.35,21.35,0,0,1-2.7-5.1v-.7h-1.6v-.9a2.38,2.38,0,0,0,1.6-2.2,2.34,2.34,0,0,0-1.7-2.2c-.4-2.6-2.2-15.1-2.6-37.3l.6-.4a2.17,2.17,0,0,0,.6-.7,2.49,2.49,0,0,0,.1-.8v-2.3h-1.4v-.8h1.8a1.9,1.9,0,0,0,1.9-1.9v-.5h1.1a1.9,1.9,0,0,0,1.9-1.9v-14.5h-8.8" transform="translate(-609.36 -109.05)" fill="none" stroke="#ff1d68" stroke-miterlimit="10" stroke-width="0.56"/><path d="M1028.89,1558.9a7.39,7.39,0,0,0-.3-7.8,21.17,21.17,0,0,0-3.3-3.6,34.57,34.57,0,0,1-2.8-3,25.64,25.64,0,0,1-3.2-5.7v-1.3a1.5,1.5,0,0,0-1-1.4l-2-.8a113.47,113.47,0,0,1-7-40.5,116.47,116.47,0,0,1,2.1-21.3h3.7a3.1,3.1,0,0,0,0-6.2h-.5V1466a1.9,1.9,0,0,0-1.9-1.9h-2.1v-4.6a1.92,1.92,0,0,0,1.5-1.8,2,2,0,0,0-1.2-1.8l8.5-20.4a3.18,3.18,0,0,0-3-4.4h-10.2a2.41,2.41,0,0,0,.4-1.5,2.81,2.81,0,0,0-1-2.1l1.3-.5.6-.3-2.4-5.9,6.3,1.8v-13.1l-6.3,1.8,2.4-5.9-.6-.3a16.38,16.38,0,0,0-4.3-1.3,3.29,3.29,0,0,0,.4-1.7,3.65,3.65,0,1,0-7.3,0,4.71,4.71,0,0,0,.4,1.7,16.38,16.38,0,0,0-4.3,1.3l-.6.3,2.4,5.9-6.3-1.8v13.1l6.3-1.8-2.4,5.9.6.3a5.21,5.21,0,0,0,1.3.5,2.81,2.81,0,0,0-1,2.1,3.71,3.71,0,0,0,.4,1.5h-10.2a3.18,3.18,0,0,0-3,4.4l8.5,20.4a1.87,1.87,0,0,0-1.2,1.8,1.75,1.75,0,0,0,1.5,1.8v4.6H986a1.9,1.9,0,0,0-1.9,1.9v1.3h-.5a3.1,3.1,0,0,0,0,6.2h3.7a108.3,108.3,0,0,1,2.1,21.3,113.47,113.47,0,0,1-7,40.5l-2,.7a1.6,1.6,0,0,0-1.1,1.4v1.3c0,.6-1.6,3.7-3.2,5.8a34.57,34.57,0,0,1-2.8,3,32.92,32.92,0,0,0-3.3,3.6,7.39,7.39,0,0,0-.3,7.8,7,7,0,0,0,3.2,2.7l-1.6.6a1.84,1.84,0,0,0-1.2,1.7v2.3a1.7,1.7,0,0,0,1.1,1.5,11.91,11.91,0,0,0,4,1h8v13h32v-13h8a16.61,16.61,0,0,0,4-1,1.58,1.58,0,0,0,1.1-1.5v-2.3a1.84,1.84,0,0,0-1.2-1.7l-1.6-.6A6.16,6.16,0,0,0,1028.89,1558.9Z" transform="translate(-609.36 -109.05)" fill="none" stroke="#ff1d68" stroke-miterlimit="10" stroke-width="0.56"/></svg>