<?xml version="1.0" encoding="utf-8"?>
<!-- Generator: Adobe Illustrator 24.0.2, SVG Export Plug-In . SVG Version: 6.00 Build 0)  -->
<svg version="1.1"
	 id="_x30_" xmlns:cc="http://creativecommons.org/ns#" xmlns:dc="http://purl.org/dc/elements/1.1/" xmlns:inkscape="http://www.inkscape.org/namespaces/inkscape" xmlns:rdf="http://www.w3.org/1999/02/22-rdf-syntax-ns#" xmlns:sodipodi="http://sodipodi.sourceforge.net/DTD/sodipodi-0.dtd" xmlns:svg="http://www.w3.org/2000/svg"
	 xmlns="http://www.w3.org/2000/svg" xmlns:xlink="http://www.w3.org/1999/xlink" x="0px" y="0px" width="1683.8px"
	 height="1190.6px" viewBox="0 0 1683.8 1190.6" style="enable-background:new 0 0 1683.8 1190.6;" xml:space="preserve">
<style type="text/css">
	.st0{fill:#FFFFFF;stroke:#FF0000;stroke-linecap:round;stroke-linejoin:round;stroke-miterlimit:10;}
	.st1{fill:#FFFFFF;stroke:#000000;stroke-linecap:round;stroke-linejoin:round;stroke-miterlimit:10;}
	.st2{fill:#FFFFFF;stroke:#0000FF;stroke-linecap:round;stroke-linejoin:round;stroke-miterlimit:10;}
</style>
<sodipodi:namedview  bordercolor="#666666" borderopacity="1" gridtolerance="10" guidetolerance="10" id="namedview1028" inkscape:current-layer="_x30_" inkscape:cx="766.42481" inkscape:cy="810.60364" inkscape:document-rotation="0" inkscape:pageopacity="0" inkscape:pageshadow="2" inkscape:window-height="1129" inkscape:window-maximized="0" inkscape:window-width="1600" inkscape:window-x="0" inkscape:window-y="23" inkscape:zoom="0.49329304" objecttolerance="10" pagecolor="#ffffff" showgrid="false">
	</sodipodi:namedview>
<polygon id="polygon843" class="st0" points="556,443.6 556,434.6 717.5,434.5 717.5,443.5 774.2,443.5 774.2,434.5 814,434.5 
	814,227.2 774.2,227.2 774.2,218.2 717.5,218.2 717.5,227.2 556,227.2 556,218.2 470.9,218.2 470.9,227.2 445.3,227.2 445.3,434.5 
	470.9,434.5 470.9,443.5 "/>
<path id="path845" class="st0" d="M440.1,745.6C382,643.8,252.3,608.4,150.5,666.5c-32.9,18.8-60.3,46.1-79.1,79.1l0,0h-9v-44h9
	v-42.5h-9v-56.7h9v-42.5h-9v-44h9v-4.3c4.7,0,8.5-3.8,8.5-8.5s-3.8-8.5-8.5-8.5v-33.1h368.7v33.1c-4.7,0-8.5,3.8-8.5,8.5
	s3.8,8.5,8.5,8.5v4.3h9v44h-9v42.5h9v56.7h-9v42.5h9v44H440.1L440.1,745.6z"/>
<path id="path847" class="st0" d="M1250.2,399.1h9v-42.5h-9v-44h9v-4.3c4.7,0,8.5-3.8,8.5-8.5s-3.8-8.5-8.5-8.5v-33.1h368.7v33.1
	c-4.7,0-8.5,3.8-8.5,8.5s3.8,8.5,8.5,8.5v4.3h9v44h-9v42.5h9v56.7h-9v42.5h9v44h-9c-25.1-37.7-58.5-69.1-97.6-91.8
	c-10.1-5.7-20.7-10.5-31.6-14.4l0,0c-5.4-1-10.1-4.6-12.4-9.6l-14.6-31.9c-4.8-11.6-15.6-19.5-28.1-20.7
	c-12.5,1.2-23.3,9.1-28.1,20.7l-14.6,31.9l0,0c-2.3,5-6.9,8.6-12.4,9.6c-10.9,3.9-21.5,8.8-31.6,14.4
	c-39.1,22.8-72.5,54.2-97.6,91.8l-9.1,0.1l0.1-44.1h9v-42.5h-9C1250.2,452.7,1250.2,399.1,1250.2,399.1z"/>
<path id="path853" class="st0" d="M939.5,443.5v-9h30.8c4.8,0.1,9.1-3,10.5-7.6l-0.2,0.6l15.1-46.4c1.7-6.9,5.2-13.2,10.3-18.2l0,0
	c6-5,13.6-7.5,21.4-7.1c7.8-0.4,15.4,2.1,21.4,7.1l0,0c5.1,5,8.7,11.2,10.3,18.2l15.1,46.4l-0.2-0.6c1.4,4.6,5.7,7.7,10.5,7.6l0,0
	h30.8v9h56.7v-9h39.8v-75.3h9v-56.7h-9v-75.3H1172v-9h-56.7v9H939.5v-9h-56.7v9H843v75.3h-9v56.7h9v75.3h39.8v9H939.5L939.5,443.5z"
	/>
<path id="path855" class="st0" d="M700.5,1046.9v9H658v-9h-44V839.6h44v-9h42.5v9h56.7v-9h42.5v9h44v75.3c-6.3,0-11.3,5.1-11.3,11.3
	v34c0,6.3,5.1,11.3,11.3,11.3v75.3h-44v9h-42.5v-9h-56.7V1046.9z"/>
<path id="path857" class="st0" d="M360.5,1025.1v9H318v-9h-44V817.8h44v-9h42.5v9h56.7v-9h42.5v9h44v75.3c-6.3,0-11.3,5.1-11.3,11.3
	v34c0,6.3,5.1,11.3,11.3,11.3v75.3h-44v9h-42.5v-9L360.5,1025.1L360.5,1025.1z"/>
<path id="path859" class="st1" d="M905.8,330.9c0-19.6,15.9-35.4,35.4-35.4s35.4,15.9,35.4,35.4s-15.9,35.4-35.4,35.4
	S905.8,350.5,905.8,330.9L905.8,330.9z"/>
<path id="path861" class="st1" d="M1078,330.9c0-19.6,15.9-35.4,35.4-35.4c19.6,0,35.4,15.9,35.4,35.4s-15.9,35.4-35.4,35.4
	S1078,350.5,1078,330.9L1078,330.9z"/>
<rect id="rect863" x="1022.8" y="272.3" class="st2" width="9" height="59.5"/>
<path id="path969" class="st1" d="M541.7,389V272.8c0.2-9.2-7.2-16.8-16.4-17c-0.2,0-0.4,0-0.6,0h-48.2c-9.2-0.2-16.9,7.2-17,16.4
	c0,0.2,0,0.4,0,0.6V389c-0.2,9.2,7.2,16.8,16.4,17c0.2,0,0.4,0,0.6,0h48.2c9.2,0.2,16.8-7.2,17-16.4
	C541.7,389.4,541.7,389.2,541.7,389z"/>
<rect id="rect973" x="381" y="893.1" class="st2" width="9" height="56.7"/>
<rect id="rect975" x="721" y="914.9" class="st2" width="9" height="56.7"/>
<rect id="rect977" x="111.2" y="629.6" class="st2" width="56.7" height="9"/>
<path id="path979" class="st2" d="M343.6,629.6h56.7v9h-56.7V629.6z"/>
<rect id="rect981" x="251.2" y="515.9" class="st2" width="9" height="61.2"/>
<rect id="rect983" x="97" y="472.9" class="st2" width="85" height="9"/>
<rect id="rect985" x="343.6" y="472.9" class="st2" width="56.7" height="9"/>
<rect id="rect987" x="1299" y="426.2" class="st2" width="56.7" height="9"/>
<rect id="rect989" x="1531.4" y="426.2" class="st2" width="56.7" height="9"/>
<rect id="rect991" x="1439.1" y="312.6" class="st2" width="9" height="42.5"/>
<rect id="rect993" x="1284.8" y="269.5" class="st2" width="85" height="9"/>
<rect id="rect995" x="1531.4" y="269.5" class="st2" width="56.7" height="9"/>
<rect id="rect997" x="302.3" y="893.1" class="st2" width="9" height="56.7"/>
<rect id="rect999" x="339.7" y="893.1" class="st2" width="9" height="56.7"/>
<rect id="rect1001" x="642.3" y="914.9" class="st2" width="9" height="56.7"/>
<rect id="rect1003" x="679.7" y="914.9" class="st2" width="9" height="56.7"/>
<path id="path1013" class="st0" d="M1115.8,807.8l-43.6,12.5c-11.8,2.4-22.2,9.4-28.9,19.5c-3.5,6.3-5.6,13.3-6.2,20.6h-24v9h-59.5
	v-9h-45.1v-52.5h-9v-61.2h225.3v42.5h-9L1115.8,807.8L1115.8,807.8z"/>
<rect id="rect1015" x="79.9" y="515.9" class="st2" width="8.5" height="9"/>
<rect id="rect1017" x="423" y="515.9" class="st2" width="8.5" height="9"/>
<rect id="rect1019" x="1610.9" y="312.6" class="st2" width="8.5" height="9"/>
<rect id="rect1021" x="1267.8" y="312.6" class="st2" width="8.5" height="9"/>
<path id="path1023" class="st0" d="M1222.8,954.1c0,4.7-3.8,8.5-8.5,8.5v8.5h22.7v9h8.5v-9h8.5v-75.3h-5.7
	c-6.3,0-11.3-5.1-11.3-11.3v-34c0-6.3,5.1-11.3,11.3-11.3h5.7v-75.3h-8.5v-9h-8.5v9h-22.7v8.5c4.7,0,8.5,3.8,8.5,8.5V954.1"/>
<path id="path1025" class="st0" d="M1150.4,821.9h-5.7v-75.3h8.5v-9h8.5v9h22.7v8.5c-4.7,0-8.5,3.8-8.5,8.5v173.3
	c0,4.7,3.8,8.5,8.5,8.5v8.5h-22.7v9h-8.5v-9h-8.5v-75.3h5.7c6.3,0,11.3-5.1,11.3-11.3v-34C1161.8,827,1156.7,821.9,1150.4,821.9z"/>
</svg>
